<?xml version="1.0" ?>
<svg xmlns="http://www.w3.org/2000/svg" width="42" height="36" viewBox="0 0 42 36">
  <path d="M10.27 28.36l2.28 0.65 c0.15 0 0.25 0 0.28-0.14 0.08 -0.34 0.17 -0.67 0.23 -1a25.31 25.31 0 0 0 0.34-5.5 3.65 3.65 0 0 0-0.09-0.74c0-0.1-0.18-0.17-0.27-0.26h-0.09c1.54-5.55 3.05-11.12 4.64-16.74l1.3 0.76 a6.17 6.17 0 0 0-0.66 0.12 0.79 0.79 0 0 0-0.56 0.83 v3.75a1 1 0 0 1-0.18 0.51 c-0.63 0.86 -1.28 1.71-1.92 2.57-0.37 0.49 -0.4 0.93 -0.05 1.29a0.85 0.85 0 0 0 1.36-0.08c0.45-0.55 0.86 -1.13 1.29-1.7a6.35 6.35 0 0 1 0.77-0.9 2.26 2.26 0 0 1 0 0.26v2.22c0.21 3.09 0 6.18 0.11 9.28 0.016 0.199 0.046 0.396 0.09 0.59-1.82 0.05 -3.67 0-5.51 0v0.1c0.16 0.13 0.31 0.27 0.48 0.4 a5.47 5.47 0 0 0 3.34 1h8.52a3.19 3.19 0 0 0 2-1c0.12-0.1 0.26 -0.19 0.39 -0.28l-0.07-0.13h-5.58c0-0.3 0.06 -0.54 0.06 -0.79 0-2.63-0.08-5.27 0-7.89s0-5.06 0.07 -7.59c0-0.21 0.09 -0.3 0.27 -0.33a0.82 0.82 0 0 0 0.73-0.77 0.86 0.86 0 0 0-0.48-0.87l-2.31-1.47-0.15-0.12a2.09 2.09 0 0 0 1.93-1.5 1.94 1.94 0 0 0-0.09-1.32A2 2 0 0 0 20.61 0.4 a2 2 0 0 0-1.5 1.15 2.07 2.07 0 0 0 0.11 1.89h-0.06c-0.32-0.19-0.65-0.36-0.95-0.58-0.07-0.06-0.07-0.28 0-0.41 0.17 -0.63 0.36 -1.24 0.53 -1.86a0.48 0.48 0 0 0 0-0.26c0-0.12-0.08-0.29-0.17-0.34-0.09-0.05-0.33 0-0.39 0.21 s-0.18 0.64 -0.27 1c-0.09 0.36 -0.23 0.84 -0.34 1.27A3.57 3.57 0 0 0 17 2.4a0.81 0.81 0 0 0-0.76 0.59 0.94 0.94 0 0 0 0.38 1c0.46 0.3 0.46 0.31 0.32 0.81 -0.34 1.24-0.69 2.48-1 3.73-0.28 1-0.55 2.09-0.84 3.13-0.29 1.04-0.6 2.08-0.89 3.12-0.29 1.04-0.55 2.08-0.83 3.11-0.28 1.03-0.62 2.17-0.92 3.25h-0.11c-0.39-0.21-0.52 0.09 -0.69 0.33 a24.65 24.65 0 0 0-2.24 4c-0.2 0.45 -0.38 0.91 -0.58 1.4-0.29-0.15-0.57-0.32-0.87-0.44a4 4 0 0 0-2.13-0.25 4.9 4.9 0 0 0-2.82 1.83c-0.344 0.444 -0.8 0.79 -1.32 1a3.26 3.26 0 0 1-0.87 0.16 A0.72 0.72 0 0 0 0 30a0.68 0.68 0 0 0 0.67 0.74 3.49 3.49 0 0 0 2.73-1c0.48-0.45 0.9 -0.94 1.38-1.38a2.34 2.34 0 0 1 3.23 0c0.44 0.4 0.84 0.84 1.26 1.26a4 4 0 0 0 5.79-0.18c0.37-0.432 0.775 -0.833 1.21-1.2a2.4 2.4 0 0 1 3.24 0.25 c0.46 0.45 0.9 0.93 1.37 1.37a3.73 3.73 0 0 0 2.8 0.91 4.28 4.28 0 0 0 3-1.59A7.26 7.26 0 0 1 27.85 28a2.3 2.3 0 0 1 2.84 0.28 c0.44 0.41 0.85 0.86 1.27 1.28a3.87 3.87 0 0 0 3.6 1.06 4.09 4.09 0 0 0 2.28-1.4c0.33-0.34 0.66 -0.68 1-1a2 2 0 0 1 1.48-0.56 0.75 0.75 0 1 0 0-1.5 4.2 4.2 0 0 0-3 1.5 9.42 9.42 0 0 1-1.11 1.08 2.34 2.34 0 0 1-3-0.15c-0.55-0.5-1-1.07-1.61-1.55a3.66 3.66 0 0 0-3-0.85 4.64 4.64 0 0 0-2.77 1.65 6.37 6.37 0 0 1-1.24 1.08 2.3 2.3 0 0 1-2.68-0.28c-0.5-0.46-1-1-1.47-1.45a3.75 3.75 0 0 0-3-1 4.22 4.22 0 0 0-2.65 1.42 9.32 9.32 0 0 1-1.34 1.25 2.35 2.35 0 0 1-3-0.31 1.15 1.15 0 0 1-0.18-0.19zm10.61-13.14h0.14v8.18c0.014 0.177 0.048 0.35 0.1 0.52 0 0.15 0 0.23-0.15 0.23 h-0.24c0-0.29 0.07 -0.53 0.07 -0.77v-4.75-3.08a1.74 1.74 0 0 1 0.08-0.33z" fill="#FFF"/>
  <path d="M1 35.27A3.84 3.84 0 0 0 3.74 34l0.88-1a2.46 2.46 0 0 1 3.61 0c0.472 0.53 0.976 1.031 1.51 1.5a3.71 3.71 0 0 0 3.23 0.68 4.48 4.48 0 0 0 2.31-1.47 8.07 8.07 0 0 1 1.12-1.07 2.42 2.42 0 0 1 3 0.25c0.47 0.46 0.92 1 1.4 1.41a3.8 3.8 0 0 0 3.31 0.93 4.23 4.23 0 0 0 2.45-1.47c0.35-0.37 0.73 -0.74 1.12-1.08a2.41 2.41 0 0 1 2.93 0.12 c0.5 0.49 1 1 1.49 1.48a3.84 3.84 0 0 0 3.31 1 4.18 4.18 0 0 0 2.43-1.43c0.29-0.31 0.59 -0.62 0.9 -0.91a2.17 2.17 0 0 1 1.56-0.65 0.73 0.73 0 0 0 0.79-0.56 0.71 0.71 0 0 0-0.64-0.92A3.85 3.85 0 0 0 37.51 32c-0.4 0.39 -0.77 0.81 -1.18 1.2a2.48 2.48 0 0 1-3.44-0.2 15 15 0 0 0-1.51-1.47 3.7 3.7 0 0 0-3.2-0.67 5 5 0 0 0-2.55 1.7 5.63 5.63 0 0 1-1.11 1A2.42 2.42 0 0 1 21.6 33c-0.4-0.42-0.82-0.84-1.24-1.24a3.79 3.79 0 0 0-3.27-1 4.35 4.35 0 0 0-2.54 1.51 5.32 5.32 0 0 1-1.41 1.26 2.51 2.51 0 0 1-2.62-0.32c-0.37-0.37-0.74-0.73-1.1-1.11a4.3 4.3 0 0 0-1.8-1.2 4 4 0 0 0-2-0.09A4.86 4.86 0 0 0 3 32.53a10.69 10.69 0 0 1-1.2 1 1.6 1.6 0 0 1-1 0.23 0.79 0.79 0 0 0-0.79 0.52 0.74 0.74 0 0 0 0.73 1 0.91 0.91 0 0 1 0.26-0.01z" fill="#FFF"/>
</svg>
