<?xml version="1.0" ?>
<svg xmlns="http://www.w3.org/2000/svg" width="39" height="36" viewBox="0 0 39 36">
  <path d="M33 7.3v1.21h-2.46v-1.2H16.12c-0.26 0-0.26 0-0.26 0.26 v1h-2.42V7.32H7.32V34.56a0.79 0.79 0 0 1-0.83 0.83 H4.56a0.85 0.85 0 0 1-0.89-0.9V7.66c0-0.37 0-0.37-0.36-0.37h-0.65a1.27 1.27 0 0 1-1.14-0.59C1.05 6 0.6 5.32 0.13 4.63A0.54 0.54 0 0 1 0.09 4a0.64 0.64 0 0 1 0.59-0.32h3a2.25 2.25 0 0 1 0-0.26c0.002-0.415 0.028 -0.829 0.08 -1.24 0.06 -0.225 0.17 -0.433 0.32 -0.61 0.29 -0.43 0.6 -0.85 0.9 -1.27a0.62 0.62 0 0 1 1 0c0.35 0.49 0.71 1 1 1.48 0.167 0.233 0.255 0.513 0.25 0.8v0.9c0 0.3 0 0.2 0.2 0.2h30.92a0.66 0.66 0 0 1 0.65 0.42 0.48 0.48 0 0 1-0.07 0.49 c-0.48 0.73 -1 1.45-1.44 2.16a1.24 1.24 0 0 1-1.09 0.55 H33zM6.25 5.47a0.79 0.79 0 0 0-0.77-0.75 0.8 0.8 0 0 0-0.76 0.77 c0.03 0.409 0.36 0.73 0.77 0.75 a0.8 0.8 0 0 0 0.76-0.77z" fill="#FFF"/>
  <path d="M23.2 9.76h10.91a2.37 2.37 0 0 1 2.33 1.53c0.12 0.296 0.18 0.611 0.18 0.93 v17a2.45 2.45 0 0 1-2.44 2.49H12.24a2.45 2.45 0 0 1-2.38-1.8 2.25 2.25 0 0 1-0.08-0.64V12.21a2.43 2.43 0 0 1 1.57-2.29 2.85 2.85 0 0 1 1-0.17l10.85 0.01 zm0 19.55h10.33a0.67 0.67 0 0 0 0.68-0.68V12.85a0.64 0.64 0 0 0 0-0.28 0.64 0.64 0 0 0-0.67-0.39H12.92a0.69 0.69 0 0 0-0.73 0.73 v15.67a0.7 0.7 0 0 0 0.73 0.74 c3.43-0.02 6.85-0.01 10.28-0.01z" fill="#FFF"/>
  <path d="M26.86 25.77a1.69 1.69 0 0 0 0-0.23v-3.26c0-0.27 0-0.3 0.3 -0.3h0.65c0.17 0 0.26 0.06 0.26 0.24 v5.59c0 0.18-0.08 0.26 -0.25 0.26 h-0.79a0.38 0.38 0 0 1-0.24-0.13l-2.24-3.55a1 1 0 0 0-0.13-0.16v3.55c0 0.26 0 0.3-0.3 0.3 h-0.67a0.2 0.2 0 0 1-0.23-0.23v-5.64c0-0.16 0.07 -0.23 0.23 -0.23h0.8a0.35 0.35 0 0 1 0.24 0.14 c0.76 1.18 1.5 2.36 2.24 3.54l0.09 0.12 0.04-0.01zM28.07 17.07v2.23a0.19 0.19 0 0 1-0.22 0.22 h-0.71c-0.24 0-0.28 0-0.28-0.27v-4.78-0.82a0.19 0.19 0 0 1 0.22-0.22h2.29c0.52 0.012 0.963 0.38 1.07 0.89 a4.86 4.86 0 0 1 0 1.9 1 1 0 0 1-0.55 0.66 0.2 0.2 0 0 0-0.12 0.3 c0.1 0.33 0.22 0.65 0.33 1 0.11 0.35 0.27 0.77 0.4 1.16 0 0.12-0.05 0.19 -0.16 0.19 h-0.9a0.28 0.28 0 0 1-0.19-0.18c-0.24-0.71-0.47-1.42-0.71-2.13a0.25 0.25 0 0 0-0.16-0.12 1.5 1.5 0 0 0-0.31-0.03zm0-2.44v1.14s0.08 0.1 0.13 0.1 h0.83a0.24 0.24 0 0 0 0.27-0.26v-0.72a0.24 0.24 0 0 0-0.25-0.26c-0.31-0.01-0.62 0-0.97 0h-0.01zM14.64 25.62v2.2c0 0.17-0.07 0.25 -0.24 0.25 h-0.69c-0.24 0-0.27 0-0.27-0.27v-5.27c0-0.6 0-0.55 0.54 -0.55h1.81a1.18 1.18 0 0 1 1.17 0.73 c0.07 0.158 0.111 0.327 0.12 0.5 v1.14a1.17 1.17 0 0 1-0.62 1.09 0.22 0.22 0 0 0-0.13 0.32 c0.1 0.31 0.21 0.62 0.32 0.93 0.11 0.31 0.28 0.78 0.41 1.17 0 0.13 0 0.2-0.16 0.2 h-0.89a0.32 0.32 0 0 1-0.2-0.18c-0.24-0.7-0.46-1.42-0.7-2.13a0.25 0.25 0 0 0-0.16-0.12 1.53 1.53 0 0 0-0.31-0.01zm0-1.83v0.49c0 0.11 0 0.15 0.14 0.14h0.82a0.26 0.26 0 0 0 0.28-0.27v-0.69a0.26 0.26 0 0 0-0.27-0.28h-0.84c-0.1 0-0.14 0-0.13 0.13 v0.48zM20.76 16.43A3.32 3.32 0 0 1 21.82 14a2 2 0 0 1 2.91 0.14 3.25 3.25 0 0 1 0.85 1.86 3.39 3.39 0 0 1-0.55 2.5 2.11 2.11 0 0 1-3.65 0 3.63 3.63 0 0 1-0.62-2.07zm1.2 0.27 a2 2 0 0 0 0.4 1.1 1 1 0 0 0 0.77 0.51 1 1 0 0 0 1-0.62 2.34 2.34 0 0 0 0.25-1.81 1.8 1.8 0 0 0-0.62-1.05 0.81 0.81 0 0 0-1.09 0A2.22 2.22 0 0 0 22 16.7h-0.04zM19.54 26.87h2.17c0.22 0 0.26 0 0.26 0.25 v0.71c0 0.23-0.07 0.24 -0.23 0.24 h-3.18c-0.18 0-0.24-0.09-0.24-0.25v-5.61c0-0.16 0.07 -0.23 0.23 -0.23h3.19c0.16 0 0.23 0.07 0.23 0.23 v0.72c0 0.24-0.08 0.25 -0.25 0.25 h-2.18v1.24h0.94c0.23 0 0.26 0 0.27 0.27 0.01 0.27 0 0.47 0 0.7 0 0.23-0.07 0.24 -0.23 0.23 h-1l0.02 1.25zM17.09 14.63v1.24h0.74c0.49 0 0.48 0 0.47 0.48 v0.5c0 0.16-0.07 0.22 -0.23 0.22 h-0.99v2.13c0 0.23 0 0.27-0.26 0.27 h-0.67c-0.23 0-0.27 0-0.27-0.26V13.7c0-0.24 0-0.27 0.26 -0.27h3.11c0.24 0 0.27 0 0.27 0.28 v0.68c0 0.23-0.08 0.24 -0.25 0.24 h-2.18zM31.74 23.18v4.59c0 0.26 0 0.29-0.28 0.29 h-0.63c-0.21 0-0.29 0-0.29-0.28v-4.31c0-0.33 0-0.29-0.29-0.29h-0.7c-0.16 0-0.24-0.07-0.23-0.23v-0.75c0-0.16 0.08 -0.22 0.23 -0.22h3.17c0.17 0 0.25 0.07 0.24 0.24 v0.72c0 0.17-0.08 0.24 -0.25 0.24 h-0.97z" fill="#FFF"/>
</svg>
