<?xml version="1.0" ?>
<svg xmlns="http://www.w3.org/2000/svg" width="29" height="36" viewBox="0 0 29 36">
  <path d="M8.36 35.83l0.48-6.34a27.1 27.1 0 0 0-2.84 0.75 2.54 2.54 0 0 1-2.83-0.5 5.08 5.08 0 0 1-1.77-3.88C1 22.61 0.76 19.37 0.42 16.12a8 8 0 0 0-0.32-1.6c-0.34-1.07 0.23 -1.47 1.13-1.74C4 12 6.81 11.12 9.57 10.22a1.57 1.57 0 0 0 0.89-1c0.22-1.07 0.19 -2.19 0.41 -3.26a1.7 1.7 0 0 1 1-1c3-1 6-2 9.05-3C22.7 1.373 24.473 0.77 26.24 0.15 c1.5-0.52 2.47 0.1 2.39 1.72C28.48 4 28.22 6 28 8c-0.13 1.33-0.37 2.66-0.38 4-0.07 7.69-0.09 15.39-0.13 23.09v0.72h-2.2c0.08-2.92 0.15 -5.84 0.23 -8.76 0.22 -8.28 0.443 -16.563 0.67 -24.85 0-1.31-0.16-1.4-1.44-1-3.62 1.22-7.26 2.41-10.88 3.63-1.25 0.42 -2.64 0.74 -2.34 2.58v0.2c-0.26 1.23 0.07 1.6 1.23 1.21a237.39 237.39 0 0 0 8.3-3c0.73-0.28 1-0.13 0.92 0.59-0.07 0.92 -0.23 1.84-0.28 2.77-0.13 2.64-0.2 5.29-0.33 7.93-0.11 2.26-0.24 4.53-0.44 6.79a1.43 1.43 0 0 1-0.73 1.1c-2.69 0.78 -5.39 1.52-8.11 2.17-2 0.47-2.32 0.8 -2.41 2.86-0.09 2.06-0.19 3.84-0.28 5.77l-1.04 0.03 zm11.14-16.9c0.7-0.12 0.8 -0.63 0.83 -1.22 0.1 -2.23 0.23 -4.45 0.35 -6.68 0.09 -1.86 0.09 -1.86-1.67-1.31a4.59 4.59 0 0 1-0.51 0.1 1.64 1.64 0 0 0-1.3 2.43c0.094 0.219 0.164 0.447 0.21 0.68 0.31 1.92 0.57 3.84 0.93 5.75 0.19 1 0.55 2 0.83 3l0.36-0.08v-2.7l-0.03 0.03 zM12.86 11c-2 0.39-4.07 0.52 -5.7 1.77A4.39 4.39 0 0 0 5 15.91c0.017 0.44 0.073 0.88 0.17 1.31 0.42 -0.26 0.85 -0.51 1.25-0.8a0.78 0.78 0 0 0 0.26-0.42c0.46-2 2.22-2.74 3.75-3.67 0.15 -0.09 0.42 0 0.64 0.06 l0.29 0.39 a9.11 9.11 0 0 0-1.24 0.86 12.9 12.9 0 0 0-2 2.06 20.12 20.12 0 0 0-1.35 2.71c2.97 0.59 6.01-3.85 6.09-7.41zm-4 10.7c0.72-0.06 1 0.32 0.71 1-0.11 0.24 -0.35 0.44 -0.41 0.68 a0.93 0.93 0 0 0 0.13 0.66 c0 0.08 0.32 0.1 0.45 0.06a2.52 2.52 0 0 0 1-2.41c-0.22-0.89-0.46-1.69-1.67-1.14-0.14 0.07 -0.34 0-0.5 0a7.77 7.77 0 0 0-1.19 0.19 s0 0.64 0.07 0.68c0.41 0.134 0.832 0.228 1.26 0.28 a0.69 0.69 0 0 0 0.19 0.02 l-0.04-0.02zm-6.54 0.36 L2 21.87c0 0.43-0.21 1.18-0.08 1.23a9.7 9.7 0 0 0 2 0.43L3.5 25.4c0.12 0 0.31 0.15 0.36 0.11 0.42-0.4 1.14-0.81 1.14-1.25A7.14 7.14 0 0 0 4.48 22a2.71 2.71 0 0 0-0.56 0l-1.6 0.06 zm15.33-0.46c-0.11-0.7-0.2-1.21-0.27-1.71-0.21-1.54-0.43-1.67-1.93-1.16-0.28 0.1 -0.64 0.06 -0.89 0.21 a3.78 3.78 0 0 0-0.69 0.74 c0.34 0.12 0.72 0.41 1 0.34 1.27-0.29 1.26-0.33 1.55 0.95 0.001 0.204 0.035 0.407 0.1 0.6 0.12 0.2 0.4 0.53 0.5 0.49 a2.37 2.37 0 0 0 0.67-0.44l-0.04-0.02zm-4 1.23c-0.18-0.92-0.31-1.83-0.56-2.7-0.07-0.22-0.51-0.43-0.79-0.45a0.86 0.86 0 0 0-0.7 0.38 1 1 0 0 0 0.29 0.78 c0.62 0.58 0.77 1.07 0 1.64-0.18 0.13 -0.16 0.52 -0.22 0.79 0.245 0.035 0.495 0.035 0.74 0 0.45-0.07 0.81 -0.27 1.33-0.42l-0.09-0.02zm3.91 0.23 l-0.1-0.46-6.76 1.95 0.1 0.38 6.76-1.87zm-8.2 2.08l-0.14-0.43-6.53 1.97 0.12 0.37 6.55-1.91zm-2-2.68a9.14 9.14 0 0 0-1.3-1c-0.09-0.05-0.66 0.47 -0.63 0.54 0.28 0.5 0.59 0.98 0.93 1.44l1-0.98zm8.32-0.6l-0.91-1.3c-0.22 0.24 -0.68 0.57 -0.63 0.72 0.213 0.47 0.482 0.914 0.8 1.32l0.74-0.74zm-8.38-1.8l-0.08-0.36-4.42 1.35 0.1 0.36 4.4-1.35zm5.76-2l0.1 0.43 3.32-1-0.11-0.36-3.31 0.93 zm-1.41 0.75 l-0.08-0.42L8 19.44l0.07 0.31 3.58-0.94zm-7.88 0.38 l1.71-0.67c-1-0.67-1.33-0.52-1.71 0.67 z" fill="#FFF"/>
  <path d="M10.43 35.83v-2.89h0.41v2.88zM24.73 7v9.6h-0.13V6.93zM24.29 23.8v3.69h-0.15v-3.67zM25.13 2.18v2.76H25V2.17zM19.53 18.9a4.81 4.81 0 0 1-0.79-1.4 50.06 50.06 0 0 1-0.87-6.3c0.24 0.34 0.64 0.65 0.7 1 0.35 2.23 0.63 4.47 0.93 6.71l0.03-0.01z" fill="#FFF"/>
</svg>
