<?xml version="1.0" ?>
<svg xmlns="http://www.w3.org/2000/svg" width="31" height="31" viewBox="0 0 31 31">
  <path d="M15.49 0A15.49 15.49 0 1 1 0 15.4C0.055 6.883 6.972 0.005 15.49 0zm0.19 2.9a12.44 12.44 0 0 0-2.85 0.31 14 14 0 0 0-1.41 0.38 16.43 16.43 0 0 0-1.73 0.75 A9.45 9.45 0 0 0 8 5.39a12.42 12.42 0 0 0-2.32 2.25 10.65 10.65 0 0 0-1.24 1.87c-0.23 0.44 -0.43 0.9 -0.62 1.36-0.19 0.46 -0.24 0.73 -0.38 1.08a1.11 1.11 0 0 0 0.05 0.93 c0.256 0.51 0.865 0.734 1.39 0.51 0.31-0.1 0.59 -0.26 0.89 -0.39l1.57-0.71c0.39-0.16 0.79 -0.3 1.19-0.45l1-0.33 0.92 -0.26L11.7 11c0.46-0.08 0.92 -0.16 1.38-0.22 0.46 -0.06 0.88 -0.09 1.32-0.11a20.13 20.13 0 0 1 3.2 0.09 c0.57 0.08 1.15 0.15 1.72 0.25 0.42 0.07 0.84 0.16 1.25 0.26 0.41 0.1 0.79 0.22 1.18 0.35 0.69 0.24 1.39 0.47 2.07 0.75 0.68 0.28 1.23 0.56 1.85 0.85 a1.78 1.78 0 0 0 1.11 0.23 1.06 1.06 0 0 0 0.82-0.83 1.21 1.21 0 0 0-0.05-0.68c-0.14-0.39-0.25-0.79-0.4-1.17a13.23 13.23 0 0 0-0.93-1.84 12.18 12.18 0 0 0-1.28-1.74 13 13 0 0 0-2-1.81A13.37 13.37 0 0 0 21 4.18a10.87 10.87 0 0 0-2.17-0.81A13 13 0 0 0 17.32 3c-0.6 0-1.21-0.07-1.64-0.1zm-2.11 23.55a5.43 5.43 0 0 0-0.44-2 1.94 1.94 0 0 0-0.88-0.95c-0.17-0.09-0.35-0.18-0.51-0.28-0.39-0.23-0.77-0.46-1.15-0.71A9.8 9.8 0 0 1 8.77 21 11.42 11.42 0 0 1 7 18.55a1.85 1.85 0 0 0-1.86-1.06 1 1 0 0 0-0.3 0.05 2.6 2.6 0 0 0-0.66 0.26 1.59 1.59 0 0 0-0.55 1.94A10 10 0 0 0 4.2 21c0.362 0.755 0.805 1.47 1.32 2.13a12.65 12.65 0 0 0 1.93 2 11.85 11.85 0 0 0 2.44 1.58c0.49 0.24 1 0.44 1.51 0.63 0.358 0.129 0.726 0.23 1.1 0.3 a0.85 0.85 0 0 0 0.88-0.39c0.144-0.24 0.21 -0.52 0.19 -0.8zm3.87 0v0.31c0.024 0.27 0.15 0.52 0.35 0.7 a1 1 0 0 0 0.93 0.16 12.52 12.52 0 0 0 1.35-0.44 12.34 12.34 0 0 0 2.54-1.34A12.49 12.49 0 0 0 25 23.77a11 11 0 0 0 1.56-2.22c0.27-0.53 0.49 -1.07 0.74 -1.61a1.77 1.77 0 0 0 0.11-1.39 1.34 1.34 0 0 0-0.69-0.82 4.75 4.75 0 0 0-0.67-0.21 1.57 1.57 0 0 0-0.91 0 1.9 1.9 0 0 0-1.12 1 11.16 11.16 0 0 1-1.9 2.63 12.21 12.21 0 0 1-2.47 1.88l-0.93 0.51 a2.08 2.08 0 0 0-0.92 1.18 5 5 0 0 0-0.36 1.73zm-1.94-12.9a2.9 2.9 0 1 0 0.001 5.8 2.9 2.9 0 0 0-0.001-5.8z" fill="#FFF"/>
</svg>
