<?xml version="1.0" ?>
<svg xmlns="http://www.w3.org/2000/svg" width="35" height="31" viewBox="0 0 35 31">
  <path d="M18.46 30.84v-2.32-0.64c0-0.63 0-1.25 0.09 -1.88a16.66 16.66 0 0 1 0.27-1.84A4.76 4.76 0 0 1 20 21.77a4.64 4.64 0 0 1 2-1.27 7.1 7.1 0 0 1 1.71-0.34 0.78 0.78 0 0 0 0.54-0.28c0.93-1.09 1.88-2.18 2.84-3.25a2.66 2.66 0 0 1 1.51-0.82 1.74 1.74 0 0 1 1.88 0.83 c0.228 0.447 0.295 0.96 0.19 1.45a3.32 3.32 0 0 1-0.89 1.63c-0.85 0.92 -1.67 1.87-2.47 2.82a3.07 3.07 0 0 0-0.65 1.46 1.6 1.6 0 0 0 0 0.84l0.06 0.13 a0.39 0.39 0 0 0 0.14-0.08c0.75-0.85 1.5-1.72 2.26-2.57 0.6 -0.68 1.22-1.34 1.82-2a3.53 3.53 0 0 0 0.89-1.75c0.1-0.369 0.156 -0.748 0.17 -1.13a2.93 2.93 0 0 0-0.48-1.44 0.59 0.59 0 0 1-0.09-0.32v-3.81a5.77 5.77 0 0 1 0.25-1.74 1.14 1.14 0 0 1 1.4-0.84 1.64 1.64 0 0 1 1.37 1.39 7.71 7.71 0 0 1 0.2 1.91v4.58a6.5 6.5 0 0 1-0.45 2.35 15.91 15.91 0 0 1-2.05 3.64 20.84 20.84 0 0 1-2 2.39 11 11 0 0 1-3 2.11 2 2 0 0 0-1.08 1.18 4 4 0 0 0-0.15 0.69 c0 0.4-0.05 0.81 -0.06 1.21 0 0.13 0 0.17-0.17 0.17 h-7.23v-0.07zM16.23 30.85H9c-0.15 0-0.19 0-0.2-0.19 0-0.41 0-0.81-0.06-1.22a2.23 2.23 0 0 0-1.34-1.91 11.17 11.17 0 0 1-3.74-3 24.2 24.2 0 0 1-1.78-2.33 13.7 13.7 0 0 1-1.39-2.62 5.69 5.69 0 0 1-0.43-1.68v-0.77-4.54a8.86 8.86 0 0 1 0.15-1.78A1.81 1.81 0 0 1 1 9.44a1.51 1.51 0 0 1 1.43-0.11c0.274 0.17 0.47 0.438 0.55 0.75 a5.77 5.77 0 0 1 0.26 1.8v3.81a0.49 0.49 0 0 1 0 0.2 3.23 3.23 0 0 0-0.47 2 4.06 4.06 0 0 0 1 2.39l2.79 3.22 1.26 1.4a0.39 0.39 0 0 0 0.11 0.06 l0.07-0.11a2.23 2.23 0 0 0-0.18-1.46 4 4 0 0 0-0.88-1.33c-0.78-0.88-1.56-1.75-2.33-2.63A2.66 2.66 0 0 1 4 18.1a2 2 0 0 1 0.22-1.52 1.52 1.52 0 0 1 1.06-0.75 2.38 2.38 0 0 1 2.3 0.82 c1 1.09 2 2.22 2.94 3.35a0.61 0.61 0 0 0 0.46 0.15 7.42 7.42 0 0 1 2.08 0.49 4.3 4.3 0 0 1 2.46 2.43 6 6 0 0 1 0.41 1.61c0.07 0.65 0.17 1.3 0.2 2 0.06 1.35 0.09 2.71 0.13 4.07-0.02 0-0.03 0.04 -0.03 0.1 z" fill="#FFF"/>
  <path d="M30.32 14.83l-0.6-0.18a1.64 1.64 0 0 0-0.32-0.05c-0.1 0-0.14-0.06-0.14-0.17 0-0.8 0-1.61 0.08 -2.41a2.84 2.84 0 0 1 0.32-1.17 0.92 0.92 0 0 1 0.79-0.53 1.2 1.2 0 0 1 0 0.19c0 0.4-0.11 0.8 -0.12 1.21v2.91l-0.01 0.2 zM4.34 14.84v-0.61-2.62c0-0.36-0.08-0.72-0.12-1.09a1.15 1.15 0 0 1 0-0.19 0.83 0.83 0 0 1 0.73 0.41 c0.184 0.306 0.303 0.646 0.35 1a16.5 16.5 0 0 1 0.13 2.63c0 0.16 0 0.21-0.21 0.23 a5.28 5.28 0 0 0-0.66 0.16 1.21 1.21 0 0 0-0.22 0.08 zM10.17 12.18V7.4l-0.26 0.21 -2.18 1.92c-0.07 0.06 -0.11 0.06 -0.17 0-0.06-0.06-0.36-0.4-0.56-0.59-0.2-0.19 0-0.1 0-0.17L9.43 6.7l2.2-1.91a0.28 0.28 0 0 0 0.11-0.24V1.48h1v2.33l0.12-0.06L15 1.85c0.64-0.57 1.28-1.14 1.93-1.7 0.22 -0.2 0.22 -0.2 0.45 0l2.25 2 2 1.71L24 5.93 26.41 8l0.85 0.75 c0.07 0.05 0.07 0.1 0 0.15l-0.56 0.61 c-0.06 0.06 -0.1 0.05 -0.15 0l-2.17-1.89-0.26-0.22v4.78" fill="#FFF"/>
  <path d="M24.11 11.21v5.61H10.17v-5.57" fill="#FFF"/>
</svg>
