<?xml version="1.0" ?>
<svg xmlns="http://www.w3.org/2000/svg" width="40" height="33" viewBox="0 0 40 33">
  <path d="M6.29 26.72H5.03c-0.18 0-0.19 0.08 -0.19 0.22 s0 0.25 0.19 0.24c0.19-0.01 0.66 0 1 0 0.14 0 0.29 0 0.33-0.17a0.13 0.13 0 0 1 0.08-0.01h0.79c0 0.2 0.09 0.23 0.24 0.22h1c0.17 0 0.33 0 0.33-0.22h0.7s0.12 0 0.13 0.08 c0.01 0.08 0.13 0.14 0.25 0.14 h1c0.1 0 0.2 0 0.21-0.14a0.17 0.17 0 0 1 0.12-0.08h0.8c0 0.21 0.1 0.23 0.25 0.22h0.95c0.17 0 0.33 0 0.34-0.21h0.86c0 0.18 0.09 0.22 0.23 0.21h1c0.16 0 0.29 0 0.28-0.22h0.67c0.11 0 0.22 0 0.26 0.14 0.04 0.14 0.11 0.08 0.18 0.08 h1c0.13 0 0.27 0 0.31-0.16 0 0 0.07-0.06 0.11 -0.06h0.78c0 0.21 0.09 0.23 0.25 0.22h1c0.15 0 0.31 0 0.28-0.21h0.87c0 0.18 0.12 0.22 0.28 0.21h1c0.35 0 0.29 0 0.29-0.22h0.8a0.17 0.17 0 0 1 0.12 0.08 c0 0.16 0.12 0.14 0.23 0.14h1c0.17 0 0.3 0 0.33-0.21h0.84c0.06 0.21 0.06 0.21 0.28 0.21 h1c0.17 0 0.29 0 0.28-0.22h0.61c0.13 0 0.27 0 0.31 0.15 0 0 0.11 0.07 0.17 0.07 h1.09c0.36 0 0.2-0.11 0.2 -0.25s0-0.21-0.2-0.2h-1v-0.84c0-0.3 0.06 -0.29-0.3-0.29H6.48c-0.15 0-0.2 0-0.19 0.19 0.01 0.19 0 0.56 0 0.89zm9.83 5.4h0.27c0.11 0 0.15 0 0.15-0.16V29.6c0-0.17-0.1-0.17-0.22-0.17s-0.2 0-0.2 0.17 v0.79c0 0.26 0 0.19-0.18 0.19 h-5.7c-0.14 0-0.18-0.06-0.18-0.19v-0.76c0-0.25-0.1-0.21-0.24-0.2-0.14 0.01 -0.22 0-0.22 0.2 v2.3c0 0.16 0.07 0.19 0.2 0.19s0.26 0 0.26-0.18v-0.74c0-0.25 0.06 -0.22 0.23 -0.22h5.82l0.01 1.14zM7.25 4.26h0.65c0.21 0 0.23 0.06 0.22 0.23 v1.25c0 0.19 0.09 0.2 0.23 0.2s0.24 0 0.23-0.2V4.47a0.24 0.24 0 0 1 0.1-0.23c0.07-0.05 0.06 -0.34 0-0.35-0.2-0.06-0.13-0.21-0.13-0.33V0.88 0.71 a0.83 0.83 0 0 0-0.35 0s-0.06 0.13 -0.06 0.2 v2.72c0 0.17 0 0.23-0.21 0.22 -0.21-0.01-0.44 0-0.66 0l-0.02 0.41 zm26 9.83a0.76 0.76 0 0 0 0 0.14c0 0.27 0 0.27 0.26 0.27h1.11c0.29 0 0.29 0 0.29 0.28 0.023 0.076 0.053 0.15 0.09 0.22 h0.38a1.09 1.09 0 0 0 0-0.17c0-0.29 0-0.29 0.3 -0.29h3.11c0.26 0 0.26 0 0.25-0.27a0.93 0.93 0 0 0 0-0.14H35.39c-0.09 0 0-0.27 0-0.41a0.24 0.24 0 0 0-0.08-0.16c-0.2-0.08-0.33 0-0.33 0.22 v0.16c0 0.19 0 0.24-0.23 0.23 l-1.5-0.08zM3.88 26.72H2.62c-0.15 0-0.22 0-0.22 0.2 s0.05 0.26 0.23 0.25 h0.78c0.17 0 0.22 0.06 0.21 0.22 -0.01 0.16 0 0.53 0 0.79s0 0.39 0.39 0.35v-1.39-0.07c-0.16-0.07-0.08-0.21-0.13-0.35zm27.72 0.45 h1.08c0.18 0 0.19-0.11 0.19 -0.25s0-0.21-0.19-0.2h-0.91c-0.06 0-0.11-0.08-0.17-0.1a1.19 1.19 0 0 0-0.32-0.05s-0.09 0.08 -0.09 0.13 v1.19c0 0.19 0.13 0.17 0.25 0.17s0.18 0 0.18-0.17-0.02-0.46-0.02-0.72zm-0.22-22.92h1.38s0.1-0.09 0.1 -0.15c0-0.25 0-0.25-0.23-0.25h-1V2.43h-0.41V3.9c0.21 0.03 0.12 0.21 0.16 0.35 zm3.13 22.92h0.58s0.14 0 0.15-0.06a1.08 1.08 0 0 0 0.1-0.35v-1.05c0-0.16-0.07-0.18-0.21-0.18-0.14 0-0.22 0-0.21 0.17 0.01 0.17 0 0.55 0 0.82 0 0.27 0 0.21-0.2 0.2 -0.2-0.01-0.53 0-0.79 0s-0.2 0.05 -0.2 0.2 c0 0.15 0 0.25 0.19 0.25h0.59zM4.06 4.41V3.09c0-0.12 0-0.19-0.18-0.19s-0.26 0-0.26 0.2 v0.55c0 0.14 0 0.2-0.2 0.2 h-0.85c-0.15 0-0.18 0.07 -0.17 0.2 0.01 0.13 0 0.22 0.16 0.22h1.01c0.11 0.22 0.29 0.12 0.49 0.14 zm31.28-0.56h-1.42c-0.15 0-0.17 0.08 -0.17 0.2 0 0.12 0 0.22 0.17 0.22h0.79c0.18 0 0.23 0.06 0.23 0.23 v0.74c0 0.25 0.09 0.14 0.19 0.13 0.1 -0.01 0.22 0.05 0.22 -0.12l-0.01-1.4zM0.77 26.72H0.15c-0.09 0-0.16 0-0.14 0.13 0.02 0.13 -0.08 0.3 0.1 0.31 H1.4c0.18 0 0.11-0.2 0.1 -0.31-0.01-0.11-0.09-0.12-0.14-0.12a5.86 5.86 0 0 0-0.59-0.01zm36.16 0h-0.59c-0.13 0-0.16 0.06 -0.14 0.16 0.02 0.1 -0.07 0.28 0.11 0.28 h1.23c0.16 0 0.14-0.15 0.14 -0.26 0-0.11 0-0.2-0.16-0.19l-0.59 0.01 zM4 16.45V15c-0.41-0.07-0.42-0.06-0.42 0.34 v0.79c0.04 0.38 0.04 0.38 0.42 0.32 zm0-7.22a0.28 0.28 0 0 0 0-0.08V7.92c0-0.16-0.06-0.19-0.2-0.18-0.14 0.01 -0.25 0-0.24 0.18 v1c0 0.31 0 0.31 0.3 0.29l0.14 0.02 zm0 10.6c-0.4-0.08-0.43-0.06-0.43 0.31 v1c0 0.11 0.06 0.18 0.18 0.16 0.12 -0.02 0.25 0.07 0.25 -0.1 0.06 -0.45 0.05 -0.91 0.05 -1.37H4zm0 3.85v-1.27c0-0.15 0-0.22-0.2-0.22s-0.24 0-0.24 0.22 v0.95c0 0.37 0 0.37 0.37 0.34l0.07-0.02zM4.06 0.53 L3.9 0.51 c-0.27 0-0.28 0-0.28 0.27 V1.87c0 0.16 0.15 0.14 0.26 0.15 0.11 0.01 0.17 0 0.17-0.16 0-0.44 0.01 -0.86 0.01 -1.33zM31.6 6.3V5.01c0-0.14 0-0.2-0.19-0.2s-0.24 0-0.24 0.2 V6c0.01 0.35 0.01 0.35 0.43 0.3 zm0 12.07v-1.48c-0.41 0-0.41 0-0.41 0.34 v1.14h0.41zm0 3.34a1.24 1.24 0 0 0-0.28 0c-0.05 0-0.13 0.07 -0.13 0.11 v1.27s0.07 0.1 0.12 0.11 c0.096 0.01 0.194 0.01 0.29 0v-1.49zm-0.4-12v1.48h0.39V9.66l-0.39 0.05 zM4.06 10.9v-0.6c0-0.2 0-0.17-0.17-0.16-0.17 0.01 -0.26 0-0.26 0.15 v1.23c0 0.19 0.17 0.1 0.28 0.12 0.11 0.02 0.15 0 0.15-0.15v-0.59zm27.12 3.6v1.34c0 0.16 0.11 0.16 0.22 0.15 0.11 -0.01 0.2 0 0.2-0.12V14.5h-0.42zm0.42 11.11v-1.37c0-0.14-0.09-0.13-0.19-0.13s-0.23 0-0.23 0.14 v1.23c0 0.05 0.07 0.11 0.12 0.13 0.1 0.01 0.2 0.01 0.3 0zm0-18.36c-0.1-0.01-0.2-0.01-0.3 0 0 0-0.11 0.06 -0.11 0.1 v1.26c0 0.16 0.13 0.15 0.23 0.13a0.28 0.28 0 0 0 0.18-0.12c0.01-0.44 0-0.89 0-1.37zm0-7.2c-0.35-0.11-0.42-0.06-0.42 0.27 v1c0 0.16 0.05 0.22 0.21 0.21h0.21V0.05zm-27.54 6v-0.57c0-0.19 0-0.17-0.16-0.16-0.16 0.01 -0.27-0.06-0.27 0.13 v1.21c0 0.17 0.14 0.15 0.25 0.15 0.11 0 0.19 0 0.19-0.16s-0.01-0.38-0.01-0.58v-0.02zm0 19.29v-0.57c0-0.19 0-0.17-0.17-0.15-0.17 0.02 -0.26-0.06-0.26 0.13 v1.21c0 0.16 0.13 0.15 0.24 0.15 0.11 0 0.19 0 0.19-0.17v-0.6zm0-7.21v-0.59c0-0.2-0.07-0.17-0.18-0.17-0.11 0-0.25 0-0.25 0.14 v1.21c0 0.19 0.17 0.12 0.27 0.13 0.1 0.01 0.16 0 0.16-0.14V18.13zm27.53-4.62a0.23 0.23 0 0 0 0-0.07v-1.19c0-0.17-0.06-0.21-0.21-0.21s-0.22 0-0.22 0.2 v1c0 0.34 0 0.35 0.34 0.32l0.09-0.05zm0 6.52v-0.59c0-0.2-0.08-0.15-0.18-0.15-0.1 0-0.25 0-0.25 0.14 v1.21c0 0.16 0.13 0.14 0.23 0.14s0.2 0 0.2-0.15 0.01 -0.38 0.01 -0.58l-0.01-0.02zM0 4.25h1.39c0.14 0 0.13-0.09 0.12 -0.17-0.01-0.08 0.06 -0.23-0.1-0.23H0.02l-0.02 0.4 zm12.06 0h1.37s0.11-0.08 0.12 -0.13c0-0.25 0-0.27-0.24-0.27h-1.25v0.4zm2.4-0.39V4c0 0.26 0 0.26 0.26 0.26H16v-0.4h-1.54zm6.31 0h-1.45v0.4h1.14c0.37 0 0.37 0 0.33-0.4h-0.02zm2.4 0H21.8c-0.17 0-0.11 0.14 -0.12 0.23 -0.01 0.09 0 0.18 0.14 0.18h1.35v-0.41zm11.74 19.3v1.36c0 0.16 0.12 0.13 0.21 0.13s0.21 0 0.2-0.13v-1.37l-0.41 0.01 zM28 3.86h-1.46v0.38H28v-0.38zm7.3 15.94v-1.48H35v1.48h0.3zm-0.37-12.07h0.41V6.35c0-0.16-0.13-0.1-0.22-0.11-0.09-0.01-0.19 0-0.19 0.13 0.01 0.45 0 0.89 0 1.36zm0 8.19v1.36a0.18 0.18 0 0 0 0.13 0.12 c0.24 0 0.27 0 0.27-0.23v-1.25h-0.4zm0.4-3.35v-1.48H35v1.48h0.33zM24.14 4.26h1.35c0.15 0 0.14-0.11 0.14 -0.21 0-0.1 0-0.21-0.14-0.2h-1.35v0.41zm-13-0.41H9.78c-0.15 0-0.14 0.1 -0.15 0.2 -0.01 0.1 0 0.21 0.15 0.21h1.35l0.01-0.41zm5.78 0.39 h1.43c0.1-0.33 0.06 -0.39-0.26-0.39h-1c-0.13 0-0.19 0.05 -0.18 0.18 0.01 0.13 -0.01 0.13 0 0.21h0.01zm13.51-0.39h-1.36A0.26 0.26 0 0 0 29 4c0 0.07 0.06 0.2 0.1 0.2h1.37l-0.04-0.35zm4.51 18.34h0.41v-1.36s-0.13-0.1-0.21-0.1c-0.08 0-0.18 0.07 -0.18 0.11 -0.03 0.44 -0.03 0.89 -0.03 1.35h0.01zm2-17.93h0.62c0.16 0 0.16-0.09 0.16 -0.21s0-0.21-0.16-0.21h-1.18c-0.16 0-0.15 0.1 -0.15 0.2 s0 0.22 0.14 0.22h0.57zm-1.6 5.17v-0.62c0-0.18-0.12-0.13-0.21-0.14-0.09-0.01-0.2 0-0.2 0.15 V10c0 0.17 0.1 0.16 0.21 0.16 0.11 0 0.21 0 0.2-0.16v-0.57zM4.84 3.85a1.24 1.24 0 0 0 0 0.28s0.07 0.12 0.11 0.12 H6.2c0.14 0 0.14-0.11 0.12 -0.19-0.02-0.08-0.07-0.2-0.11-0.2-0.45-0.02-0.89-0.01-1.37-0.01zm26.75 25.09a2.25 2.25 0 0 0-0.26 0s-0.13 0-0.13 0.08 v1.09h0.4l-0.01-1.17zM4.06 30.06v-0.45c0-0.15-0.06-0.18-0.18-0.18s-0.25 0-0.25 0.15 v0.92c0 0.3 0.19 0.1 0.29 0.11 0.1 0.01 0.14 0 0.14-0.13v-0.42z" fill="#FFF"/>
  <path d="M16.14 16.24h-5.89v8.17h-2c-0.3 0-0.3 0-0.3-0.29V14.5c0-0.3 0-0.3-0.29-0.3H4.23a1.78 1.78 0 0 1-0.55-0.14s-0.06-0.1-0.06-0.15v-1.17c0-0.1 0-0.16 0.15 -0.16h0.28v1.5l0.58-0.31 8.11-4.65 4.85-2.76a0.42 0.42 0 0 1 0.33 0c2.51 1.42 5 2.86 7.53 4.3l6 3.44 0.08 0.07H27.84c-0.29 0-0.29 0-0.29 0.3 v9.64c0 0.27 0 0.27-0.27 0.27 H16.4c-0.26 0-0.26 0-0.26-0.26v-7.88zm5.53 0.09 H18c-0.16 0-0.18 0.08 -0.18 0.21 v3.61c0 0.18 0.05 0.24 0.23 0.24h3.64l-0.02-4.06zm4.3 0H22.3c-0.17 0-0.18 0.09 -0.18 0.21 v3.64c0 0.16 0.06 0.21 0.22 0.21H26l-0.03-4.06zM6.29 26.72v-0.94c0-0.3 0-0.21 0.19 -0.19h22.44c0.36 0 0.3 0 0.3 0.29 v0.84h1c0.16 0 0.21 0 0.2 0.2 -0.01 0.2 0 0.26-0.2 0.25 -0.2-0.01-0.72 0-1.09 0-0.06 0-0.16 0-0.17-0.07 0-0.19-0.18-0.15-0.31-0.15h-0.61c0 0.21-0.11 0.23 -0.28 0.22 h-1c-0.34 0-0.22 0-0.28-0.21h-0.84c0 0.19-0.16 0.22 -0.33 0.21 h-1c-0.11 0-0.22 0-0.23-0.14A0.17 0.17 0 0 0 24 27h-0.79c0 0.21-0.12 0.23 -0.29 0.22 -0.17-0.01-0.65 0-1 0-0.16 0-0.27 0-0.28-0.21h-0.87c0 0.23-0.13 0.21 -0.28 0.21 h-1c-0.16 0-0.27 0-0.25-0.22h-0.78s-0.11 0-0.11 0.06 c0 0.19-0.18 0.16 -0.31 0.16 h-1c-0.07 0-0.17 0-0.18-0.08-0.01-0.08-0.15-0.14-0.26-0.14H16c0 0.22-0.12 0.23 -0.28 0.22 h-1c-0.14 0-0.25 0-0.23-0.21h-0.89c0 0.22-0.17 0.22 -0.34 0.21 h-0.95c-0.15 0-0.27 0-0.25-0.22h-0.8a0.17 0.17 0 0 0-0.12 0.08 c0 0.15-0.11 0.14 -0.21 0.14 h-1c-0.12 0-0.21 0-0.25-0.14-0.04-0.14-0.14-0.08-0.18-0.08h-0.73c0 0.23-0.16 0.23 -0.33 0.22 h-1c-0.15 0-0.26 0-0.24-0.22h-0.76a0.13 0.13 0 0 0-0.09 0.05 c0 0.19-0.19 0.17 -0.33 0.17 h-1c-0.34 0-0.19-0.1-0.19-0.24 0-0.14 0-0.22 0.19 -0.22 0.42 -0.03 0.83 -0.04 1.27-0.04zM16.12 32.12V31H10.3c-0.17 0-0.24 0.05 -0.23 0.22 0.01 0.17 0 0.49 0 0.74s-0.13 0.17 -0.26 0.18 c-0.13 0.01 -0.2 0-0.2-0.19v-2.3c0-0.17 0.08 -0.2 0.22 -0.2s0.24 0 0.24 0.2 v0.76c0 0.25 0 0.19 0.18 0.19h5.7c0.14 0 0.18-0.06 0.18 -0.19v-0.79c0-0.26 0.08 -0.18 0.2 -0.17 0.12 0.01 0.22 0 0.22 0.17 v2.36c0 0.11 0 0.16-0.15 0.16 l-0.28-0.02zM7.25 4.26v-0.41h0.66c0.22 0 0.22-0.05 0.21 -0.22V0.9c0-0.07 0-0.2 0.06 -0.2a0.83 0.83 0 0 1 0.35 0v2.85c0 0.12-0.07 0.27 0.13 0.33 v0.35a0.24 0.24 0 0 0-0.1 0.23 v1.27c0 0.18-0.08 0.2 -0.23 0.2 -0.15 0-0.24 0-0.23-0.2V4.48c0-0.17 0-0.24-0.22-0.23-0.22 0.01 -0.4 0.01 -0.63 0.01 zM33.28 14.09h1.42c0.18 0 0.26 0 0.23-0.23v-0.16c0-0.21 0.13 -0.3 0.33 -0.22a0.24 0.24 0 0 1 0.08 0.16 v0.41c0 0.06 0.28 0 0.43 0H39a0.93 0.93 0 0 1 0 0.14c0 0.27 0 0.27-0.25 0.27 h-3.11c-0.29 0-0.29 0-0.3 0.29 a1.09 1.09 0 0 1 0 0.17H35a1.24 1.24 0 0 1 0-0.18c0-0.28 0-0.28-0.29-0.28h-1.18c-0.27 0-0.27 0-0.26-0.27a0.76 0.76 0 0 1 0.01-0.1zM3.88 26.72c0.05 0.14 0 0.3 0.16 0.35V28.49c-0.39 0-0.39 0-0.39-0.35v-0.79c0-0.26 0-0.23-0.21-0.22h-0.81c-0.18 0-0.23-0.07-0.23-0.25s0.07-0.21 0.22 -0.2l1.26 0.04 zM31.6 27.17v0.71c0 0.22-0.06 0.17 -0.18 0.17 s-0.25 0-0.25-0.17v-1.19c0-0.05 0-0.13 0.09 -0.13 0.108 0.002 0.216 0.019 0.32 0.05 0.06 0 0.11 0.1 0.17 0.1 h0.91c0.15 0 0.19 0.06 0.19 0.2 s0 0.25-0.19 0.25 l-1.06 0.01 zM31.38 4.25c0-0.14 0.05 -0.32-0.16-0.35V2.43h0.41v1.42h1c0.31 0 0.26 0 0.23 0.25 0 0.06-0.07 0.15 -0.1 0.15 h-1.38zM34.51 27.17h-0.57c-0.19 0-0.18-0.12-0.19-0.25-0.01-0.13 0-0.21 0.2 -0.2 0.2 0.01 0.52 0 0.79 0s0.2 0 0.2-0.2v-0.82c0-0.27 0.08 -0.17 0.21 -0.17s0.21 0 0.21 0.18 v1.05a1.08 1.08 0 0 1-0.1 0.35 s-0.1 0.06 -0.15 0.06 h-0.6zM4.06 4.41c-0.2 0-0.38 0.08 -0.49-0.13H2.56c-0.17 0-0.16-0.11-0.16-0.22s0-0.2 0.17 -0.2h0.85c0.16 0 0.2-0.06 0.2 -0.2V3.1c0-0.2 0.12 -0.19 0.26 -0.2 0.14 -0.01 0.18 0.07 0.18 0.19-0.01 0.43 0 0.91 0 1.32zM35.34 3.85v1.38c0 0.17-0.13 0.11 -0.22 0.12 -0.09 0.01 -0.19 0-0.19-0.13v-0.74c0-0.25 0-0.24-0.23-0.23h-0.79c-0.18 0-0.16-0.1-0.17-0.22-0.01-0.12 0-0.2 0.17 -0.2l1.43 0.02 zM0.77 26.72c0.197-0.01 0.393 -0.01 0.59 0 0 0 0.14 0.07 0.14 0.12 0 0.05 0.08 0.3-0.1 0.31 H0.11c-0.18 0-0.08-0.2-0.1-0.31-0.02-0.11 0-0.13 0.14 -0.13l0.62 0.01 zM36.93 26.72h0.59c0.15 0 0.16 0.09 0.16 0.19 s0 0.25-0.14 0.26 h-1.23c-0.18 0-0.1-0.18-0.11-0.28-0.01-0.1 0-0.17 0.14 -0.16l0.59-0.01zM4 16.45c-0.42 0.06 -0.42 0.06 -0.42-0.33v-0.79c0-0.4 0-0.41 0.42 -0.34v1.46zM4 9.23h-0.08c-0.29 0-0.3 0-0.3-0.29v-1c0-0.19 0.11 -0.18 0.24 -0.18s0.21 0 0.2 0.18 v1.23a0.28 0.28 0 0 1-0.06 0.06 zM4.05 19.83v1.38c0 0.17-0.16 0.08 -0.25 0.1 -0.09 0.02 -0.17 0-0.18-0.16v-1c0-0.38 0.03 -0.4 0.43 -0.32zM4.06 23.68L4 23.7c-0.37 0-0.37 0-0.37-0.34v-0.95c0-0.17 0.08 -0.22 0.24 -0.22 0.16 0 0.2 0.07 0.2 0.22 -0.02 0.42 -0.01 0.84 -0.01 1.27zM4.06 0.53 v1.33C4.06 2 4 2 3.89 2c-0.11 0-0.26 0-0.26-0.15V0.78c0-0.27 0-0.28 0.28 -0.27l0.15 0.02 zM31.6 6.3c-0.42 0-0.42 0-0.42-0.33V5c0-0.18 0.1 -0.2 0.24 -0.2 0.14 0 0.19 0.06 0.19 0.2 -0.01 0.44 -0.01 0.86 -0.01 1.3zM31.59 18.37h-0.41v-1.14c0-0.38 0-0.38 0.41 -0.34v1.48zM31.6 21.71v1.51a1.38 1.38 0 0 1-0.29 0s-0.12-0.07-0.12-0.11v-1.27s0.08-0.1 0.13 -0.11a1.24 1.24 0 0 1 0.28-0.02zM31.2 9.66h0.39v1.48h-0.39zM4.06 10.9v0.59c0 0.19 0 0.16-0.15 0.15 -0.15-0.01-0.28 0.07 -0.28-0.12v-1.23c0-0.18 0.15 -0.15 0.26 -0.15 0.11 0 0.17 0 0.17 0.16 v0.6z" fill="#FFF"/>
  <path d="M31.18 14.5h0.42v1.37c0 0.15-0.11 0.11 -0.2 0.12 -0.09 0.01 -0.22 0-0.22-0.15V14.5zM31.6 25.61a1.4 1.4 0 0 1-0.29 0s-0.12-0.08-0.12-0.13v-1.23c0-0.15 0.12 -0.14 0.23 -0.14 0.11 0 0.19 0 0.19 0.13 l-0.01 1.37zM31.6 7.25v1.38a0.28 0.28 0 0 1-0.18 0.12 c-0.1 0-0.23 0-0.23-0.13V7.36s0.07-0.09 0.11 -0.1c0.1-0.014 0.2 -0.017 0.3 -0.01zM31.6 0.05 v1.43h-0.21c-0.16 0-0.22-0.05-0.21-0.21v-1c0-0.27 0.07 -0.33 0.42 -0.22zM4.06 6.07v0.6c0 0.2-0.08 0.16 -0.19 0.16 s-0.24 0-0.25-0.15V5.47c0-0.19 0.16 -0.11 0.27 -0.13 0.11 -0.02 0.16 0 0.16 0.16 s0.01 0.38 0.01 0.57 zM4.06 25.36v0.6c0 0.2-0.07 0.17 -0.19 0.17 s-0.24 0-0.24-0.15v-1.21c0-0.19 0.16 -0.12 0.26 -0.13 0.1 -0.01 0.17 0 0.17 0.15 v0.57zM4.06 18.15v0.58c0 0.19-0.06 0.15 -0.16 0.14 -0.1-0.01-0.27 0.06 -0.27-0.13v-1.21c0-0.17 0.14 -0.14 0.25 -0.14 0.11 0 0.19 0 0.18 0.17 -0.01 0.17 0 0.44 0 0.59zM31.59 13.53h-0.07c-0.34 0-0.34 0-0.34-0.32v-1c0-0.16 0.08 -0.2 0.22 -0.2s0.21 0 0.21 0.21 v1.19a0.23 0.23 0 0 1-0.02 0.12 zM31.6 20.05v0.6c0 0.2-0.1 0.15 -0.2 0.15 s-0.23 0-0.23-0.14v-1.21c0-0.19 0.15 -0.13 0.25 -0.14 0.1 -0.01 0.18 0 0.18 0.15 v0.59zM0 4.25v-0.4h1.39c0.16 0 0.09 0.14 0.1 0.23 0.01 0.09 0 0.17-0.12 0.17 H0zM12.08 4.25v-0.4h1.26c0.11 0 0.27 0 0.24 0.27 0 0-0.08 0.13 -0.12 0.13 h-1.38zM14.48 3.86H16v0.4h-1.28c-0.26 0-0.26 0-0.26-0.26 0.01 0 0.01-0.08 0.02 -0.14zM20.79 3.86c0 0.4 0 0.4-0.33 0.4 h-1.14v-0.4h1.47zM23.19 3.85v0.41h-1.35c-0.12 0-0.16-0.07-0.14-0.18 0.02 -0.11-0.05-0.23 0.12 -0.23 0.45 -0.01 0.9 0 1.37 0zM34.93 23.15h0.41v1.36c0 0.16-0.1 0.13 -0.2 0.13 s-0.21 0-0.21-0.13c0.01-0.45 0-0.89 0-1.36zM28 3.86v0.38h-1.46v-0.38zM35.32 19.8H35v-1.48h0.37zM34.93 7.73V6.37c0-0.15 0.1 -0.14 0.19 -0.13 0.09 0.01 0.22 0 0.22 0.11 v1.38h-0.41zM34.93 15.92h0.41v1.25c0 0.24 0 0.27-0.27 0.23 a0.18 0.18 0 0 1-0.13-0.12c-0.01-0.45-0.01-0.89-0.01-1.36zM35.33 12.57H35v-1.48h0.38zM24.14 4.26v-0.41h1.35c0.15 0 0.15 0.1 0.14 0.2 -0.01 0.1 0 0.21-0.14 0.21 h-1.35zM11.13 3.85v0.41H9.78c-0.15 0-0.15-0.11-0.15-0.21 0-0.1 0-0.2 0.15 -0.2h1.35zM16.91 4.24v-0.22c0-0.07 0.05 -0.18 0.18 -0.18h1c0.32 0 0.36 0.06 0.26 0.39 l-1.44 0.01 zM30.42 3.85v0.4h-1.37s-0.1-0.13-0.1-0.2a0.26 0.26 0 0 1 0.11-0.19c0.44-0.02 0.94 -0.01 1.36-0.01zM34.93 22.19v-1.35s0.12-0.11 0.18 -0.11 0.21 0.06 0.21 0.1v1.36h-0.39zM36.9 4.26h-0.57c-0.18 0-0.13-0.13-0.14-0.22-0.01-0.09 0-0.2 0.15 -0.2h1.18c0.17 0 0.16 0.1 0.16 0.21 0 0.11 0 0.21-0.16 0.21 h-0.62zM35.34 9.43V10c0 0.16-0.09 0.16 -0.2 0.16 -0.11 0-0.21 0-0.21-0.16V8.82c0-0.16 0.1 -0.15 0.2 -0.15s0.22 0 0.21 0.14 v0.62zM4.84 3.85h1.37s0.1 0.12 0.11 0.2 c0.01 0.08 0 0.19-0.12 0.19 H5s-0.1-0.07-0.11-0.12a1.24 1.24 0 0 1-0.05-0.27zM31.59 28.94v1.17h-0.4v-1.09s0.08-0.07 0.13 -0.08c0.09-0.005 0.18 -0.005 0.27 0zM4.06 30.06v0.42c0 0.14 0 0.15-0.14 0.13 -0.14-0.02-0.28 0.08 -0.29-0.11-0.01-0.19 0-0.61 0-0.92 0-0.16 0.13 -0.15 0.25 -0.15s0.18 0 0.18 0.18 v0.45z" fill="#FFF"/>
</svg>
