<?xml version="1.0" ?>
<svg xmlns="http://www.w3.org/2000/svg" width="36" height="33" viewBox="0 0 36 33">
  <path d="M13.42 2.18v-0.79a1.25 1.25 0 0 1 1-1.31 1.48 1.48 0 0 1 1.15 0.1 c0.467 0.208 0.76 0.68 0.74 1.19v0.79l0.7 0.08 c0.46 0.06 0.92 0.11 1.37 0.18 0.45 0.07 0.94 0.18 1.41 0.3 s1 0.26 1.5 0.43 a16 16 0 0 1 3.11 1.44 12.77 12.77 0 0 1 3.21 2.69 9.08 9.08 0 0 1 1.54 2.47c0.2 0.469 0.37 0.95 0.51 1.44a0.75 0.75 0 0 1-0.52 1.06 1.1 1.1 0 0 1-0.61 0c-0.43-0.1-0.84-0.26-1.26-0.38a10.49 10.49 0 0 0-1.27-0.25 9 9 0 0 0-1.32-0.1 6.26 6.26 0 0 0-3 0.71c-0.27 0.14 -0.51 0.34 -0.78 0.49 a1 1 0 0 1-0.81 0c-0.61-0.22-1.22-0.45-1.85-0.65a11.52 11.52 0 0 0-1.18-0.29c-0.27-0.06-0.55-0.08-0.85-0.12v13.47c0 0.27 0 0.27-0.3 0.27 h-2.22c-0.27 0-0.27 0-0.27-0.24V11.6c-0.26 0-0.49 0-0.71 0.09 -0.48 0.11 -1 0.22-1.42 0.37 a6 6 0 0 0-1.72 0.8 1 1 0 0 1-1.26-0.05 5.07 5.07 0 0 0-1.67-0.69A6.79 6.79 0 0 0 4.31 12a6.28 6.28 0 0 0-1.71 0.37 l-1.36 0.51 A0.89 0.89 0 0 1 0 12.29a1.16 1.16 0 0 1 0-0.51c0.142-0.577 0.32 -1.144 0.53 -1.7 0.247 -0.551 0.541 -1.08 0.88 -1.58a12 12 0 0 1 3.77-3.65 14.63 14.63 0 0 1 3-1.5c0.67-0.23 1.35-0.42 2-0.63a11.62 11.62 0 0 1 2.1-0.39c0.41-0.03 0.72 -0.1 1.14-0.15z" fill="#FFF"/>
  <path d="M24.46 30c0.31 0.36 0.57 0.69 0.86 1a0.91 0.91 0 0 1-0.47 1.5 1.25 1.25 0 0 1-1.26-0.35l-1.73-2a0.37 0.37 0 0 0-0.32-0.14H13a0.35 0.35 0 0 0-0.3 0.14 c-0.56 0.66 -1.13 1.3-1.69 2a1.24 1.24 0 0 1-1.23 0.43 1 1 0 0 1-0.77-1 1.13 1.13 0 0 1 0.29-0.59c0.23-0.25 0.44 -0.51 0.66 -0.77L10 30H5.93a1.83 1.83 0 0 1-1.82-1 1.44 1.44 0 0 1 0.48-1.73 2 2 0 0 1 1.3-0.41h12.54a0.45 0.45 0 0 0 0.4-0.19c0.6-0.74 1.21-1.47 1.82-2.2 0.19 -0.23 0.39 -0.46 0.57 -0.7a0.37 0.37 0 0 1 0.34-0.16h7.32a0.54 0.54 0 0 0 0.44-0.19l2.1-2.28c0.47-0.51 0.94 -1 1.42-1.53a1.76 1.76 0 0 1 1.25-0.61 1.82 1.82 0 0 1 1.6 0.68 1.44 1.44 0 0 1-0.12 1.91L33.33 24l-2.18 2.36-2.57 2.77c-0.2 0.22 -0.41 0.43 -0.6 0.66 a0.41 0.41 0 0 1-0.35 0.15 h-3.17V30zm-3.09-3.2H26a0.26 0.26 0 0 0 0.16-0.07l0.72-0.77 0.45 -0.48h-4.76a0.33 0.33 0 0 0-0.21 0.11 c-0.16 0.18 -0.31 0.37 -0.46 0.55 l-0.53 0.66 z" fill="#FFF"/>
</svg>
