<?xml version="1.0" ?>
<svg xmlns="http://www.w3.org/2000/svg" width="48" height="21" viewBox="0 0 48 21">
  <path d="M47.08 13.28v3.79a0.86 0.86 0 0 1-0.91 0.91 h-13.8a1.33 1.33 0 0 1-0.56-0.1 0.81 0.81 0 0 1-0.43-0.82 3.76 3.76 0 0 0-1.83-3.16 3.9 3.9 0 0 0-5.84 2.21 5.6 5.6 0 0 0-0.16 1 0.8 0.8 0 0 1-0.86 0.86 H7.27a1.52 1.52 0 0 1-0.52-0.07 0.76 0.76 0 0 1-0.47-0.73v-0.55c0-0.18-0.06-0.21-0.2-0.21H4.92c-0.15 0-0.22 0.06 -0.21 0.22 v0.21c0 0.2 0 0.34 0.26 0.41a0.73 0.73 0 0 1 0.52 0.84 0.77 0.77 0 0 1-0.78 0.66 h-0.79a0.78 0.78 0 0 1-0.77-0.75v-1.25c0-0.42 0-0.32-0.33-0.32H0.87a0.82 0.82 0 0 1-0.82-1l0.26-0.75c0.18-0.53 0.35 -1 0.53-1.57a0.78 0.78 0 0 1 1-0.52 0.75 0.75 0 0 1 0.54 1c-0.1 0.36 -0.22 0.72 -0.34 1.07-0.12 0.35 -0.06 0.28 0.2 0.29 h0.71c0.19 0 0.26-0.06 0.26 -0.25v-1.33a0.8 0.8 0 0 1 0.65-0.76 0.77 0.77 0 0 1 0.85 0.48 0.93 0.93 0 0 1 0.06 0.34 v1.26c0 0.19 0 0.26 0.24 0.26h1.12c0.17 0 0.24-0.06 0.26 -0.23 0.07 -0.71 0.12 -1.42 0.23 -2.12 0.19 -1.1 0.39 -2.2 0.64 -3.29a18.38 18.38 0 0 1 1.39-4.03 11.94 11.94 0 0 1 2.65-3.76 5.9 5.9 0 0 1 3-1.5 3 3 0 0 1 0.52 0h29.9A2.34 2.34 0 0 1 47 1.73a3 3 0 0 1 0.09 0.66 v9c0 0.22 0 0.3-0.27 0.29 h-1.29a0.75 0.75 0 0 0-0.77 0.62 0.72 0.72 0 0 0 0.39 0.83 c0.152 0.064 0.315 0.098 0.48 0.1 l1.45 0.05 zM39.24 9V3.21a0.78 0.78 0 0 0-0.88-0.87h-2.9c-0.63 0-0.92 0.29 -0.92 0.93 V14.69c0 0.64 0.29 0.93 0.94 0.93h2.82a0.82 0.82 0 0 0 0.94-0.94V9zm-21.59 0.37 h3.42a0.81 0.81 0 0 0 0.93-0.9v-3.6c0-0.68-0.29-1-1-1h-6.78a0.79 0.79 0 0 0-0.87 0.87 v3.69a0.81 0.81 0 0 0 0.9 0.91 l3.4 0.03 z" fill="#FFF"/>
  <path d="M27.46 20.32a3.13 3.13 0 1 1 3.15-3.13 3.14 3.14 0 0 1-3.15 3.13zm0-1.57a1.56 1.56 0 1 0-1.56-1.56 1.55 1.55 0 0 0 1.56 1.56z" fill="#FFF"/>
</svg>
