<?xml version="1.0" ?>
<svg xmlns="http://www.w3.org/2000/svg" width="33" height="36" viewBox="0 0 33 36">
  <path d="M11.82 24.84l0.44-0.36a23 23 0 0 0 2.62-2.41 12.29 12.29 0 0 0 1.57-2 0.41 0.41 0 0 0 0-0.39c-0.25-0.7-0.52-1.39-0.71-2.11a10.93 10.93 0 0 1-0.34-3.65 8.61 8.61 0 0 1 1.06-3.65A9.51 9.51 0 0 1 19 7.33a15.39 15.39 0 0 1 3-1.84c0.81-0.39 1.63-0.73 2.44-1.11 0.81 -0.38 1.75-0.77 2.6-1.2A25.48 25.48 0 0 0 31.48 0.27 a1.54 1.54 0 0 1 0.19-0.17c0.2-0.15 0.32 -0.14 0.44 0.08 0.148 0.261 0.262 0.54 0.34 0.83a13.77 13.77 0 0 1 0.31 4c0 0.78-0.13 1.56-0.22 2.34a15.88 15.88 0 0 1-0.54 2.77 17.09 17.09 0 0 1-1.48 3.63 13.69 13.69 0 0 1-2.21 3A12.09 12.09 0 0 1 26 18.64a12.35 12.35 0 0 1-2.75 1.3 16.49 16.49 0 0 1-2.28 0.56 21.38 21.38 0 0 1-2.64 0.23 0.31 0.31 0 0 0-0.29 0.17 15.1 15.1 0 0 1-2.2 3c-0.28 0.3 -0.58 0.58 -0.88 0.85 a2 2 0 0 1-1 0.39 3.59 3.59 0 0 1-1.18 0 2.43 2.43 0 0 1-0.96-0.3zm7.27-7.12v0.06a1 1 0 0 0 0.18 0c0.47-0.16 0.95 -0.31 1.41-0.49a14 14 0 0 0 3.7-2.29 16 16 0 0 0 2.82-3A13.31 13.31 0 0 0 29 8.47c0.28-0.81 0.49 -1.64 0.7 -2.47 0.1 -0.41 0.14 -0.83 0.2 -1.24a0.15 0.15 0 0 0 0-0.1 0.18 0.18 0 0 0-0.11 0 0.39 0.39 0 0 0-0.08 0.14 l-0.84 1.53a30.33 30.33 0 0 1-2.66 3.79c-1 1.17-2 2.34-3 3.45-1.26 1.33-2.59 2.61-3.89 3.91l-0.23 0.24 zM16.46 29.32l7.85-7.84 0.5 0.49c1.49 1.49 3 3 4.46 4.47a5.08 5.08 0 0 1 1.21 2 5.41 5.41 0 0 1-0.76 4.94 5.35 5.35 0 0 1-2.45 1.91 7.08 7.08 0 0 1-1.28 0.33 5.11 5.11 0 0 1-1 0.06 5.41 5.41 0 0 1-2.86-0.91 12.52 12.52 0 0 1-1.82-1.67l-3.71-3.69a0.37 0.37 0 0 0-0.14-0.09zM5.5 35.75a5.49 5.49 0 0 1-5-3.34 5.25 5.25 0 0 1-0.5-2.57 5.67 5.67 0 0 1 1.82-3.77c1.5-1.48 3-3 4.47-4.48 0.12 -0.12 0.18 -0.13 0.31 0 2.507 2.52 5.023 5.037 7.55 7.55 0.11 0.1 0.1 0.17 0 0.27-1.57 1.59-3.15 3.13-4.7 4.7a5.5 5.5 0 0 1-2.11 1.32 5.2 5.2 0 0 1-1.84 0.32 z" fill="#FFF"/>
  <path d="M11.71 20.79c-0.51 0-1.18-0.06-1.84-0.15a10 10 0 0 1-4.37-1.7A10.06 10.06 0 0 1 2.77 16a13.24 13.24 0 0 1-1.63-3.69C1 11.8 0.85 11.24 0.74 10.69a13.22 13.22 0 0 1-0.19-1.54 20.43 20.43 0 0 1 0-2.07 6.09 6.09 0 0 1 0.24-1.25c0.08-0.25 0.22 -0.26 0.43 -0.11A18.4 18.4 0 0 0 4 7.37c0.73 0.34 1.47 0.64 2.22 0.93 0.75 0.29 1.48 0.54 2.21 0.82 0.98 0.366 1.913 0.846 2.78 1.43a7.28 7.28 0 0 1 2.53 3 7.77 7.77 0 0 1 0.42 4.68c-0.12 0.58 -0.28 1.14-0.45 1.7-0.09 0.24 -0.2 0.47 -0.33 0.69 a0.26 0.26 0 0 1-0.2 0.11 l-1.47 0.06 zM2.83 9h-0.07a1.4 1.4 0 0 0 0 0.29c0.075 0.369 0.172 0.733 0.29 1.09 0.27 0.73 0.53 1.47 0.87 2.17a10.28 10.28 0 0 0 2.29 3.07 12.86 12.86 0 0 0 2.88 2 9.61 9.61 0 0 0 1.93 0.74 l0.6 0.13 v-0.06a0.81 0.81 0 0 0-0.12-0.14c-0.51-0.44-1-0.86-1.53-1.31-1-0.94-2-1.87-3-2.84a26.08 26.08 0 0 1-2.62-2.94c-0.45-0.6-0.85-1.22-1.27-1.83-0.08-0.06-0.16-0.2-0.25-0.37z" fill="#FFF"/>
</svg>
