<?xml version="1.0" ?>
<svg xmlns="http://www.w3.org/2000/svg" width="34" height="36" viewBox="0 0 34 36">
  <path d="M16.18 18.6c-1.16 0-2.09-0.05-3-0.1-0.74 0-1.47-0.09-2.21-0.17-0.74-0.08-1.72-0.18-2.57-0.33-0.66-0.09-1.32-0.2-2-0.32-0.68-0.12-1.25-0.23-1.86-0.38-0.61-0.15-1.32-0.33-2-0.54A6.48 6.48 0 0 1 0.78 16a1.2 1.2 0 0 1-0.26-0.24 0.38 0.38 0 0 1 0-0.57 2.2 2.2 0 0 1 0.8-0.58 12.64 12.64 0 0 1 2.21-0.86c0.67-0.2 1.33-0.42 2-0.6 0.67 -0.18 1.12-0.27 1.68-0.41l1.48-0.36a1.47 1.47 0 0 1 0.46-0.07c0.205 0.038 0.406 0.095 0.6 0.17 0.29 0.09 0.58 0.19 0.88 0.27 0.47 0.11 0.94 0.2 1.41 0.29 a5 5 0 0 0 0.56 0.08 l2 0.18c0.35 0 0.69 0.05 1 0.05h1.07c0.61 0 1.23 0 1.84-0.11 0.58 -0.05 1.158-0.13 1.73-0.24a10.31 10.31 0 0 0 2.31-0.65 0.48 0.48 0 0 1 0.24 0l1.24 0.28 0.75 0.17 1.14 0.28 1 0.27 1.2 0.35 c0.42 0.127 0.84 0.267 1.26 0.42 a7.23 7.23 0 0 1 1.75 0.84 c0.099 0.074 0.186 0.161 0.26 0.26 a0.38 0.38 0 0 1 0 0.55 2 2 0 0 1-0.79 0.56 c-0.51 0.22 -1 0.44-1.56 0.61 -0.56 0.17 -1.05 0.29 -1.58 0.41 s-1.23 0.27 -1.85 0.39 l-1.87 0.26 -2.08 0.28 c-0.28 0-0.57 0.06 -0.86 0.08 -0.54 0-1.09 0.09 -1.64 0.11 l-2.98 0.13 zM16.52 10.3c-1 0-1.8-0.06-2.6-0.12s-1.46-0.14-2.18-0.24c-0.72-0.1-1.23-0.2-1.84-0.31-0.11 0-0.21 0-0.32-0.06-0.11-0.06-0.12-0.08-0.11-0.16 0.01 -0.08 0.06 -0.45 0.1 -0.67 0.07 -0.43 0.14 -0.86 0.22 -1.29 0.08 -0.43 0.19 -1 0.28-1.44 0.06 -0.29 0.11 -0.58 0.17 -0.88l0.21-0.92c0.08-0.35 0.16 -0.7 0.25 -1 0.14-0.5 0.29 -1 0.46-1.48 0.134 -0.374 0.288 -0.741 0.46 -1.1a1.7 1.7 0 0 1 0.27-0.39 0.68 0.68 0 0 1 0.72-0.13 2.72 2.72 0 0 1 1.06 0.79 11 11 0 0 0 0.81 0.86 c0.277 0.246 0.63 0.391 1 0.41a1.43 1.43 0 0 0 1-0.35c0.47-0.37 0.9 -0.78 1.37-1.16a3.77 3.77 0 0 1 0.78-0.56 0.63 0.63 0 0 1 0.93 0.29 c0.216 0.44 0.403 0.895 0.56 1.36 0.17 0.48 0.3 1 0.44 1.46 0.14 0.46 0.17 0.74 0.26 1.11 0.09 0.37 0.19 0.78 0.28 1.17 0.09 0.39 0.11 0.54 0.17 0.81l0.21 1c0.06 0.3 0.11 0.6 0.17 0.9 0.06 0.3 0.14 0.75 0.22 1.13 0 0.13 0 0.21-0.15 0.25 -0.46 0.1 -0.92 0.25 -1.38 0.34 a9.42 9.42 0 0 1-1.28 0.19 c-0.91 0.09 -1.82 0.14 -2.54 0.19 zM33.49 22.8a2.11 2.11 0 0 1-0.32 0.08 c-0.6 0.09 -1.19 0.17 -1.78 0.27 -0.59 0.1 -1.19 0.23 -1.79 0.36 -0.6 0.13 -1.26 0.25 -1.88 0.41 -0.62 0.16 -1.19 0.35 -1.78 0.52 a8.69 8.69 0 0 0-1.83 0.78 l-0.06 0.06 L27.72 27c-0.14 0-0.24 0.08 -0.35 0.1 -0.48 0.11 -1 0.2-1.44 0.33 -0.553 0.16 -1.098 0.35 -1.63 0.57 a18.14 18.14 0 0 0-1.95 0.91 c-0.66 0.35 -1.29 0.77 -1.92 1.18A14.56 14.56 0 0 0 16.65 34c-0.26 0.42 -0.51 0.86 -0.77 1.29a0.9 0.9 0 0 1-0.1 0.09 0.39 0.39 0 0 1 0-0.14 7.78 7.78 0 0 1 0.08-2.31 15.71 15.71 0 0 1 0.51-1.87 11.94 11.94 0 0 1 1.24-2.6 19.82 19.82 0 0 1 2.58-3.32 30.63 30.63 0 0 1 2.65-2.45c0.25-0.2 0.5 -0.4 0.76 -0.58a0.83 0.83 0 0 0 0.25-0.51c0.13-0.58 0.25 -1.16 0.35 -1.74a3.17 3.17 0 0 0 0-0.69c0-0.14 0-0.17 0.17 -0.19l2.14-0.29c0.25 0 0.51 0 0.75-0.09s0.39 0.11 0.56 0.23 l2.31 1.61 2.84 2 0.52 0.36 zM15.3 32l-0.54-0.26c-0.63-0.33-1.26-0.66-1.9-1l-2.45-1.22c-0.61-0.29-1.23-0.58-1.85-0.84-0.62-0.26-1.35-0.56-2-0.82-0.32-0.12-0.64-0.21-1-0.32a1.11 1.11 0 0 1 0.12-0.16l2.91-2.51v-0.06l-0.75-0.24-1.2-0.35-0.92-0.22-1.41-0.38c-0.46-0.11-0.94-0.22-1.41-0.31s-1.07-0.22-1.61-0.31H0c0.06-0.07 0.08 -0.11 0.12 -0.15L2.24 21l2.46-2.14a1.06 1.06 0 0 1 0.23-0.19 0.41 0.41 0 0 1 0.22 0c0.42 0.053 0.84 0.113 1.26 0.18 l1.38 0.15 c0.16 0 0.18 0.13 0.21 0.22 a21.44 21.44 0 0 0 1.75 3.36 24.59 24.59 0 0 0 1.88 2.63 24.82 24.82 0 0 0 3 3.11c0.36 0.31 0.74 0.6 1.12 0.9 0.21 0.17 0.22 0.24 0.14 0.51 -0.13 0.43 -0.24 0.87 -0.36 1.31-0.12 0.44 -0.13 0.62 -0.23 0.96 zM22.43 19a2.2 2.2 0 0 1 0.07 0.41 2.34 2.34 0 0 1-0.94 2 3.18 3.18 0 0 1-1.46 0.59 l-0.51 0.06 a2.58 2.58 0 0 1-1.92-0.61 4.48 4.48 0 0 1-0.63-0.74 1.29 1.29 0 0 0-1-0.57 1.31 1.31 0 0 0-1.3 0.72 A2.51 2.51 0 0 1 13 22a3.75 3.75 0 0 1-1.79-0.15A2.38 2.38 0 0 1 10 21.1a2.17 2.17 0 0 1-0.55-1.37v-0.57c0-0.19 0-0.11 0.14 -0.09 0.5 0.1 1 0.22 1.5 0.29 a27.85 27.85 0 0 0 4 0.19h3.48c0.75 0 1.51-0.08 2.26-0.16 0.49 -0.06 1-0.19 1.47-0.3a1.6 1.6 0 0 0 0.13-0.09z" fill="#FFF"/>
</svg>
