<?xml version="1.0" ?>
<svg xmlns="http://www.w3.org/2000/svg" width="35" height="32" viewBox="0 0 35 32">
  <path d="M18.46 31v-2.31-0.65c0-0.62 0-1.25 0.09 -1.87a16.49 16.49 0 0 1 0.27-1.85A4.8 4.8 0 0 1 20 21.93a4.73 4.73 0 0 1 2-1.27 7.62 7.62 0 0 1 1.71-0.34 0.74 0.74 0 0 0 0.54-0.28 159.2 159.2 0 0 1 2.84-3.24 2.66 2.66 0 0 1 1.53-0.8 1.72 1.72 0 0 1 1.88 0.82 2.2 2.2 0 0 1 0.19 1.45 3.35 3.35 0 0 1-0.89 1.64c-0.85 0.92 -1.67 1.86-2.47 2.81a3.12 3.12 0 0 0-0.67 1.45 1.63 1.63 0 0 0 0 0.85l0.06 0.13 0.14-0.08 2.26-2.58c0.6-0.67 1.22-1.34 1.82-2a3.6 3.6 0 0 0 0.89-1.76 4.9 4.9 0 0 0 0.17-1.12 3 3 0 0 0-0.43-1.5 0.59 0.59 0 0 1-0.09-0.31v-3.81a5.79 5.79 0 0 1 0.25-1.75 1.14 1.14 0 0 1 1.4-0.84 1.64 1.64 0 0 1 1.37 1.4 7.58 7.58 0 0 1 0.2 1.9v4.59a6.45 6.45 0 0 1-0.45 2.34 15.71 15.71 0 0 1-2.05 3.64 20.84 20.84 0 0 1-2 2.39 10.8 10.8 0 0 1-3 2.11A2 2 0 0 0 26.08 29a4.26 4.26 0 0 0-0.15 0.69 c0 0.41-0.05 0.81 -0.06 1.22 0 0.12 0 0.16-0.17 0.16 h-7.24V31zM16.23 31H9c-0.15 0-0.19 0-0.2-0.19 0-0.4 0-0.81-0.06-1.21a2.22 2.22 0 0 0-1.34-1.91 11.08 11.08 0 0 1-3.74-3 25.33 25.33 0 0 1-1.77-2.35 14 14 0 0 1-1.4-2.59 5.76 5.76 0 0 1-0.43-1.69v-0.77-4.53A8.79 8.79 0 0 1 0.15 11 1.81 1.81 0 0 1 1 9.61a1.46 1.46 0 0 1 1.42-0.11c0.276 0.167 0.474 0.437 0.55 0.75 A5.75 5.75 0 0 1 3.23 12v3.81a0.42 0.42 0 0 1 0 0.2 3.23 3.23 0 0 0-0.47 2 4.06 4.06 0 0 0 1 2.39l2.86 3.24 1.26 1.4a0.41 0.41 0 0 0 0.11 0.07 L8 25a2.2 2.2 0 0 0-0.18-1.45 4 4 0 0 0-0.88-1.34c-0.78-0.87-1.56-1.74-2.33-2.62A2.66 2.66 0 0 1 4 18.27a2 2 0 0 1 0.22-1.53A1.55 1.55 0 0 1 5.26 16a2.38 2.38 0 0 1 2.3 0.82 c1 1.1 2 2.23 2.94 3.35a0.62 0.62 0 0 0 0.46 0.16 6.79 6.79 0 0 1 2.08 0.49 4.3 4.3 0 0 1 2.46 2.43c0.211 0.511 0.35 1.05 0.41 1.6 0.07 0.65 0.17 1.31 0.2 2 0.06 1.36 0.09 2.72 0.13 4.07 0-0.01-0.01 0.08 -0.01 0.08 z" fill="#FFF"/>
  <path d="M30.32 15l-0.6-0.18-0.32-0.05c-0.1 0-0.14 0-0.14-0.16 0-0.81 0-1.61 0.08 -2.42a2.89 2.89 0 0 1 0.32-1.19 0.91 0.91 0 0 1 0.79-0.52 1.2 1.2 0 0 1 0 0.19c0 0.4-0.11 0.8 -0.12 1.2v2.91l-0.01 0.22 zM4.34 15v-0.61-2.62c0-0.36-0.08-0.72-0.12-1.08a1.21 1.21 0 0 1 0-0.2c0.301 0 0.58 0.16 0.73 0.42 0.186 0.305 0.305 0.646 0.35 1 0.113 0.872 0.157 1.751 0.13 2.63 0 0.16 0 0.21-0.21 0.23 -0.21 0.02 -0.44 0.11 -0.66 0.16 l-0.22 0.07 zM19.21 7.62l0.5 0.31 1.14 0.71 1.08 0.67 1.35 0.84 c0.21 0.13 0.42 0.27 0.63 0.39 h0.08l0.94-0.66c0.2-0.14 0.4 -0.28 0.6 -0.4a1.37 1.37 0 0 1 1-0.2c0.37 0.042 0.695 0.262 0.87 0.59 a0.8 0.8 0 0 1 0 0.53 3 3 0 0 1-0.41 0.79 l-0.7 1.2c-0.25 0.42 -0.51 0.83 -0.76 1.24l-0.91 1.52c-0.18 0.28 -0.35 0.56 -0.52 0.85 a0.52 0.52 0 0 1-0.33 0.25 0.48 0.48 0 0 1-0.26 0c-0.25-0.1-0.49-0.21-0.73-0.33a0.77 0.77 0 0 1-0.42-0.48 1.74 1.74 0 0 1-0.06-0.44 1 1 0 0 1 0-0.24l0.12-1.21v-0.5a0.11 0.11 0 0 0-0.06-0.11l-1.11-0.55-1.47-0.71-1.22-0.6-1-0.47h-0.14a3.24 3.24 0 0 0-0.59 1 8.91 8.91 0 0 0-0.35 1c-0.06 0.2 -0.09 0.4 -0.14 0.61 -0.05 0.21 -0.1 0.44 -0.16 0.66 -0.06 0.22 -0.09 0.44 -0.14 0.65 -0.05 0.21 -0.04 0.47 -0.04 0.69 l-0.09 0.42 c-0.06 0.22 -0.11 0.44 -0.16 0.66 -0.05 0.22 -0.07 0.28 -0.1 0.41 -0.03 0.13 -0.13 0.55 -0.2 0.83 -0.07 0.28 -0.09 0.43 -0.15 0.63 a1.44 1.44 0 0 1-0.34 0.7 0.49 0.49 0 0 1-0.29 0.13 1.63 1.63 0 0 1-0.62-0.12c-0.24-0.08-0.47-0.18-0.7-0.28a1 1 0 0 1-0.65-0.6 2.47 2.47 0 0 1-0.06-0.29c-0.08-1 0-2 0-3V8.56a1.72 1.72 0 0 0-0.15-0.74 1.23 1.23 0 0 0-0.59-0.56l-1.4-0.71-1.5-0.8c-0.37-0.22-0.74-0.43-1.08-0.67a4.71 4.71 0 0 1-1.06-1 2.54 2.54 0 0 1-0.37-0.64 1 1 0 0 1 0.09-0.92 1 1 0 0 1 0.49-0.34 2.41 2.41 0 0 1 1.07 0c0.246 0.03 0.49 0.077 0.73 0.14 0.28 0.069 0.554 0.16 0.82 0.27 0.34 0.15 0.67 0.33 1 0.5 0.33 0.17 0.73 0.38 1.09 0.59 l1.39 0.79 0.54 0.31 a0.89 0.89 0 0 0 0.93 0l1.19-0.67 1.42-0.78 1.81-1 1.7-0.92 1.3-0.75A10 10 0 0 1 23 0.18 1.88 1.88 0 0 1 24 0c0.407 0.067 0.78 0.267 1.06 0.57 0.13 0.132 0.248 0.276 0.35 0.43 0.11 0.16 0.11 0.37 0 0.53a2.11 2.11 0 0 1-0.36 0.43 l-1.63 1.48-2.08 1.85c-0.31 0.29 -0.64 0.56 -0.93 0.87 -0.29 0.31 -0.59 0.71 -0.88 1.07-0.11 0.12 -0.21 0.25 -0.32 0.39 z" fill="#FFF"/>
</svg>
