<?xml version="1.0" ?>
<svg xmlns="http://www.w3.org/2000/svg" width="37" height="31" viewBox="0 0 37 31">
  <path d="M27.74 2.07h3.14l0.14-2h5.17V1.4c-0.06 1-0.14 2-0.2 3-0.18 3.19-0.33 6.39-0.52 9.57 0 0.75-0.23 1.49-0.34 2.23a0.51 0.51 0 0 1-0.59 0.48 c-1.66 0-3.33-0.07-5-0.08h-1.95c-0.65 0-1.38-0.05-2.07-0.06h-9.29a9 9 0 0 1-3.88-0.94 7.79 7.79 0 0 0-7-0.06 7.56 7.56 0 0 1-3.86 1 4.61 4.61 0 0 0-0.9 0.11 c-0.36 0.05 -0.5-0.11-0.52-0.48a14.43 14.43 0 0 1 0.35-3.94A14.82 14.82 0 0 1 8.16 1.68a14.12 14.12 0 0 1 5-1.53A24.25 24.25 0 0 1 15.71 0h11.18c0.77 0 0.77 0 0.77 0.77 v1c0.014 0.103 0.04 0.204 0.08 0.3 zm-5 13.24h2.58c0.59 0 0.6 0 0.62-0.63 0-1.18 0.08 -2.36 0.14 -3.54 0.07 -1.34 0.16 -2.68 0.24 -4a2.5 2.5 0 0 0-0.89-2.35A4.8 4.8 0 0 0 23.62 4a16.1 16.1 0 0 0-6.48 0.36 c-0.17 0-0.41 0.13 -0.45 0.25 a4.21 4.21 0 0 0-0.25 1.79l0.64-0.17a11 11 0 0 1 3.4-0.65 5.33 5.33 0 0 1 1.91 0.28 1 1 0 0 1 0.14 1.86 3.27 3.27 0 0 1-0.93 0.43 c-1.24 0.34 -2.49 0.63 -3.72 1a4.55 4.55 0 0 0-2.49 1.45 3 3 0 0 0 1.82 4.82 8.7 8.7 0 0 0 3.52 0c0.13 0 0.32-0.1 0.35 -0.19 0.19 -0.54 0.34 -1.1 0.53 -1.74a4.92 4.92 0 0 1-2.54 0.24 1.32 1.32 0 0 1-1.21-1 1.45 1.45 0 0 1 0.7-1.57 5 5 0 0 1 1-0.47c1.12-0.34 2.26-0.69 3.44-1.09l-0.26 5.71zm4.43 0h2.8c0.44 0 0.54-0.2 0.55 -0.6 0-1.18 0-2.36 0.08 -3.54 0.09 -2.21 0.2 -4.43 0.3 -6.64v-0.41h-3.27l-0.46 11.19zM0.22 17.89h34.53a2.72 2.72 0 0 1 0 0.43c-1.77 6.1-5.66 10-11.89 11.46a22 22 0 0 1-13.41-1 15.68 15.68 0 0 1-6.84-5.06 12.81 12.81 0 0 1-2.35-5.1c-0.01-0.1-0.01-0.2 0-0.3-0.05-0.12-0.04-0.24-0.04-0.43zm17.57 3.35a4 4 0 0 0 0.44-0.31 1.09 1.09 0 0 0 0.3-1.07 0.85 0.85 0 0 0-0.79-0.67h-2.63l-0.11 4.3h2.24a2.24 2.24 0 0 0 1-0.3 1 1 0 0 0 0.09-1.63c-0.21-0.12-0.33-0.19-0.54-0.32zm6 2.21a4.44 4.44 0 0 1 0-0.68 7.87 7.87 0 0 1 0.25-1.37 0.9 0.9 0 0 1 1.11-0.51c0.49 0.1 0.51 0.45 0.51 0.84 v1.71h0.83v-2.4a0.88 0.88 0 0 0-0.86-0.8 1.77 1.77 0 0 0-1.55 0.46 c-0.36-0.47-0.36-0.47-1-0.28l-0.17 3 0.88 0.03 zm-4.24-2.8l0.12 0.09 c0.46 0 0.93-0.06 1.39 0a0.44 0.44 0 0 1 0.33 0.27 0.56 0.56 0 0 1-0.22 0.44 1.92 1.92 0 0 1-0.57 0.2 9.65 9.65 0 0 0-1 0.33 0.83 0.83 0 0 0-0.42 1.13 1.21 1.21 0 0 0 1.68 0.3 v-0.15h-0.34c-0.27 0-0.55-0.05-0.6-0.39-0.05-0.34 0.19 -0.52 0.47 -0.62 0.28 -0.1 0.65 -0.19 1.05-0.3v1.58h0.76c0.06-0.77 0.13 -1.5 0.15 -2.23 0-0.56-0.2-0.89-0.74-0.93a9.35 9.35 0 0 0-1.75 0.1 c-0.11-0.08-0.19 0.08 -0.29 0.18 h-0.02zm8.53 2.81l0.22-4.27c-0.87-0.08-0.86-0.08-0.88 0.69 0 1-0.08 1.95-0.12 2.92v0.66h0.78zm0.3-1.74c0.35 0.5 0.66 1 1 1.39 0.34 0.39 0.45 0.47 1 0.24-0.31-0.43-0.61-0.87-0.93-1.29a0.47 0.47 0 0 1 0.05-0.73c0.31-0.3 0.58 -0.64 0.86 -1l-0.11-0.16a2.49 2.49 0 0 0-0.86 0.29 11.7 11.7 0 0 0-0.99 1.26h-0.02z" fill="#FFF"/>
  <path d="M15.9 22.89a2.06 2.06 0 0 1 0-0.47c0-0.289 0.068 -0.573 0.2 -0.83 0.15 -0.2 1.27-0.06 1.44 0.16 a0.76 0.76 0 0 1 0.19 0.59 0.84 0.84 0 0 1-0.49 0.52 6.24 6.24 0 0 1-1.34 0.03 zM16 21c-0.19-1.19 0-1.41 1.1-1.24 0.3 0.05 0.54 0.15 0.57 0.51a0.6 0.6 0 0 1-0.51 0.71 A7.42 7.42 0 0 1 16 21z" fill="#FFF"/>
</svg>
