<?xml version="1.0" ?>
<svg xmlns="http://www.w3.org/2000/svg" width="36" height="36" viewBox="0 0 36 36">
  <path d="M8.6 35.81a6.71 6.71 0 0 1-4.06-1.4 0.25 0.25 0 0 0-0.32 0 0.53 0.53 0 0 1-0.62-0.08l-0.37-0.37a0.51 0.51 0 0 1-0.07-0.63 0.21 0.21 0 0 0 0-0.28 6.3 6.3 0 0 1-1.36-4.99 6.6 6.6 0 0 1 1.5-3.31 6.5 6.5 0 0 1 3.16-2.11c0.31-0.09 0.64 -0.15 1-0.21a0.26 0.26 0 0 1 0.34 0.15 0.9 0.9 0 0 0 1.06 0.52 3.27 3.27 0 0 0 1.25-0.51A5 5 0 0 0 12 20.33a1.58 1.58 0 0 0 0.12-1.09 0.76 0.76 0 0 0-0.46-0.51c-0.25-0.11-0.31-0.26-0.15-0.48a11.34 11.34 0 0 1 3.19-3.06 3.81 3.81 0 0 1 3.07-0.47 6.25 6.25 0 0 1 2.29 1.07c0.14 0.11 0.2 0 0.29 0 2.18-2.107 4.357-4.22 6.53-6.34l4.73-4.57a0.55 0.55 0 0 0 0.17-0.61 0.8 0.8 0 0 1 0.1-0.72c0.233-0.348 0.487 -0.682 0.76 -1a0.81 0.81 0 0 1 1-0.23 0.3 0.3 0 0 0 0.36-0.14c0.45-0.46 0.66 -0.46 1.12 0l0.48 0.48 a0.54 0.54 0 0 1 0 0.85c-0.28 0.24 -0.28 0.24 -0.14 0.59 a0.74 0.74 0 0 1-0.1 0.72 1.63 1.63 0 0 1-0.36 0.38 9.62 9.62 0 0 1-1 0.61 1 1 0 0 1-0.43 0.06 h-0.18a0.55 0.55 0 0 0-0.56 0.18 l-7.61 7.77c-1.12 1.153-2.243 2.3-3.37 3.44-0.11 0.11 -0.11 0.18 0 0.29A6.25 6.25 0 0 1 23 20.22a3.68 3.68 0 0 1-0.56 2.72 11.09 11.09 0 0 1-3 3.16c-0.19 0.13 -0.38 0.09 -0.45-0.11a0.89 0.89 0 0 0-1-0.54 2.93 2.93 0 0 0-1.29 0.5 5 5 0 0 0-1.93 2.21 1.64 1.64 0 0 0-0.13 1.21 0.7 0.7 0 0 0 0.41 0.43 c0.21 0.1 0.27 0.19 0.23 0.41 a6.68 6.68 0 0 1-3.82 5 6.35 6.35 0 0 1-2 0.58l-0.86 0.02 zm1.87-11a0.56 0.56 0 0 0 0.53-0.74 0.54 0.54 0 0 0-0.63-0.38 8.13 8.13 0 0 0-1 0.21l-1.27 0.32 c-0.11 0-0.18 0-0.22-0.14a0.55 0.55 0 0 0-0.74-0.36 0.57 0.57 0 0 0-0.32 0.73 0.53 0.53 0 0 0 0.6 0.35 8.68 8.68 0 0 0 1-0.2c0.43-0.1 0.85 -0.22 1.28-0.33 0.12 0 0.19 0 0.22 0.14 a0.56 0.56 0 0 0 0.55 0.44 v-0.04zm3.43 2.36v-0.1a0.57 0.57 0 0 0-0.52-0.57 0.58 0.58 0 0 0-0.6 0.45 0.54 0.54 0 0 0 0.38 0.64 0.19 0.19 0 0 1 0.16 0.26 c-0.1 0.37 -0.2 0.75 -0.31 1.12a3.62 3.62 0 0 0-0.24 1.21c0.01 0.29 0.24 0.525 0.53 0.54 a0.58 0.58 0 0 0 0.59-0.45 0.56 0.56 0 0 0-0.4-0.65c-0.14 0-0.17-0.1-0.15-0.22l0.24-1 0.32-1.23zM24.33 0.25 a2.43 2.43 0 0 1-0.19 0.27 l-1.37 1.37c-0.16 0.16 -0.16 0.16 0 0.32l0.2 0.2 c0.17 0.17 0.17 0.3 0 0.48L21.34 4.5 0.9 24.91 0.83 25c-0.09 0.1 -0.14 0.11 -0.21 0a4.41 4.41 0 0 0-0.47-0.74c-0.2-0.26-0.21-0.32 0-0.55l6-5.95L23.71 0.18 s0.08-0.11 0.14 -0.13a0.45 0.45 0 0 1 0.27 0c0.08 0 0.13 0.11 0.21 0.2 zM1 24.36h0.1a1.49 1.49 0 0 1 0.15-0.2L19.76 5.7l1.93-1.93s0.1-0.13 0.09 -0.15a1.72 1.72 0 0 0-0.33-0.33s-0.16 0.08 -0.23 0.14 L1.34 23.28a7.27 7.27 0 0 0-0.55 0.56 0.17 0.17 0 0 0 0 0.16c0.05 0.13 0.15 0.24 0.21 0.36 z" fill="#FFF"/>
  <path d="M30.8 3.9a0.52 0.52 0 0 1 0.54 0.55 0.55 0.55 0 0 1-0.56 0.55 0.57 0.57 0 0 1-0.55-0.56 0.54 0.54 0 0 1 0.57-0.54zM29.59 5.09a0.54 0.54 0 0 1 0.56 0.54 0.56 0.56 0 0 1-0.55 0.56 0.56 0.56 0 0 1-0.6-0.55 0.54 0.54 0 0 1 0.59-0.55zM32 7.41a0.53 0.53 0 0 1 0.55-0.54 0.57 0.57 0 0 1 0.56 0.56 0.56 0.56 0 0 1-0.57 0.54 0.54 0.54 0 0 1-0.54-0.56zM30.84 8.6a0.54 0.54 0 0 1 0.56-0.54 0.56 0.56 0 0 1 0.55 0.56 0.55 0.55 0 0 1-0.57 0.54 0.54 0.54 0 0 1-0.54-0.56z" fill="#FFF"/>
</svg>
