<?xml version="1.0" ?>
<svg xmlns="http://www.w3.org/2000/svg" width="44" height="12" viewBox="0 0 44 12">
  <path d="M33.86 1.84h5.6c2.11 0 3 0.69 3.66 2.7 0.271 0.764 0.489 1.546 0.65 2.34A1.87 1.87 0 0 1 42 9.28a19.69 19.69 0 0 1-2.77 0c-0.14 0-0.38-0.28-0.38-0.44a1.17 1.17 0 0 1 1.09-1.33 0.77 0.77 0 0 0 0.67-1 14.11 14.11 0 0 0-0.65-2.06 1.65 1.65 0 0 0-0.81-0.75c-0.65-0.27-0.9-0.06-0.9 0.66 v4.26c0 0.55-0.18 0.78 -0.75 0.74 a14.76 14.76 0 0 0-1.76 0c-0.51 0-0.66-0.19-0.65-0.68 0-1.44 0-2.89 0.06 -4.33a1.09 1.09 0 0 0-0.46-1 6.46 6.46 0 0 1-1-1.27l0.17-0.24zM28.57 1.85h3.24a1.61 1.61 0 0 1 1.81 1.74v3.58a2.17 2.17 0 0 1-2.3 2.17h-3.59a1.38 1.38 0 0 1-1.42-1c-0.65-1.76-1.31-3.5-1.86-5.25-0.31-0.91-0.05-1.24 0.94 -1.24h3.18zm-0.73 1.78c0.41 1.3 0.75 2.48 1.19 3.63 0.07 0.18 0.64 0.29 0.94 0.23a0.89 0.89 0 0 0 0.59-0.6c0.06-0.899 0.06 -1.801 0-2.7a0.75 0.75 0 0 0-0.49-0.53c-0.69-0.07-1.38-0.03-2.23-0.03zM15.34 1.89h7.7c0.32 0 0.77-0.18 0.84 0.41 0.07 0.59-0.23 1.3-0.71 1.33-0.48 0.03 -0.61 0.31 -0.53 0.77 0.26 1.42 0.48 2.85 0.76 4.26 0.11 0.54 0 0.76-0.59 0.73 a9.74 9.74 0 0 0-1.62 0c-0.69 0.08 -0.9-0.23-1-0.85-0.2-1.36-0.48-2.71-0.69-4.07-0.09-0.6-0.35-0.88-1-0.83h-1.29c-1.12-0.03-1.65-0.49-1.87-1.75zM9.49 11.12c-1.05 0.07 -2 0.28-3-0.61-1.21-1.16-1.27-1.1-0.22-2.35 0.59 -0.71 0.58 -0.8-0.13-1.4-1.3-1.09-1.3-1.09-0.14-2.38 0.52 -0.6 0.51 -0.72-0.11-1.25C4 1.54 4.2 2 5.74 0.24 A0.65 0.65 0 0 1 6.07 0h2.38l-0.9 1c-0.64 0.73 -0.64 0.83 0.07 1.46l0.92 0.8 a0.6 0.6 0 0 1 0 1c-1.38 1.38-1.28 1.28 0.14 2.48 0.62 0.52 0.64 0.79 0.07 1.38-1.11 1.17-1.11 1.17 0.14 2.19l0.64 0.57 -0.04 0.24 zM3.82 2a14.66 14.66 0 0 1-1 1.11c-0.49 0.44 -0.39 0.79 0.06 1.16 0.45 0.37 0.66 0.55 1 0.83 0.34 0.28 0.51 0.77 0.06 1.2a7.23 7.23 0 0 1-0.63 0.7 c-0.46 0.41 -0.38 0.76 0 1.12l1.31 1.04v0.24a5.27 5.27 0 0 1-2-0.05 9 9 0 0 1-2-1.58c-0.09-0.08 0-0.39 0-0.55A1.71 1.71 0 0 1 1 6.76C2 5.69 2 5.65 0.83 4.7a3.92 3.92 0 0 0-0.32-0.25C-0.18 3.87-0.13 3.67 0.4 3a2.74 2.74 0 0 1 2.83-1.1c0.198 0.022 0.395 0.055 0.59 0.1 zM13.32 2c-0.39 0.43 -0.67 0.8 -1 1.11-0.33 0.31 -0.4 0.79 0.07 1.16 0.47 0.37 0.71 0.62 1.07 0.93 a0.58 0.58 0 0 1 0 1c-0.26 0.25 -0.46 0.56 -0.72 0.8 -0.41 0.38 -0.33 0.69 0.05 1 0.38 0.31 0.85 0.77 1.43 1.28-1.08 0.11 -2 0.39-2.8-0.26L10.26 8a0.62 0.62 0 0 1 0-1c0.22-0.2 0.41 -0.42 0.61 -0.63 0.54 -0.59 0.53 -0.8-0.1-1.32-0.32-0.28-0.67-0.53-1-0.83-0.33-0.3-0.35-0.64 0-1.06A3 3 0 0 1 13.32 2z" fill="#FFF"/>
</svg>
