<?xml version="1.0" ?>
<svg xmlns="http://www.w3.org/2000/svg" width="35" height="37" viewBox="0 0 35 37">
  <path d="M24.25 9.55h0.15c0.28 0 0.38 0.08 0.37 0.38 a4.08 4.08 0 0 1-0.08 0.85 c-0.07 0.38 -0.17 0.76 -0.28 1.14a2.33 2.33 0 0 1-1 1.42 0.66 0.66 0 0 0-0.31 0.49 c-0.14 0.69 -0.28 1.38-0.45 2.07a7 7 0 0 1-1 2.27c-0.16 0.24 -0.37 0.45 -0.54 0.69 a0.64 0.64 0 0 0-0.13 0.29 2 2 0 0 0 0.19 1.14 0.29 0.29 0 0 1-0.08 0.22 l-2.17 2.17c-0.25 0.25 -0.25 0.25 0 0.5s0.61 0.62 0.92 0.92 a0.21 0.21 0 0 1 0 0.31 8 8 0 0 0-0.84 2.27 8.33 8.33 0 0 0-0.23 2.63 8.52 8.52 0 0 0 1.89 4.77 8.86 8.86 0 0 0 1.57 1.49l0.14 0.12 a1 1 0 0 1-0.23 0.09 c-0.51 0.06 -1 0.13-1.54 0.16 -1.12 0.07 -2.24 0.15 -3.36 0.17 -1.12 0.02 -2 0-3-0.07-0.44 0-0.87 0-1.31-0.1-0.44-0.1-1.07-0.13-1.61-0.2-0.37-0.05-0.74-0.1-1.1-0.17-0.36-0.07-0.69-0.12-1-0.19L8 35.13c-0.43-0.11-0.87-0.21-1.3-0.33-0.59-0.18-1.18-0.36-1.76-0.57-0.84-0.32-1.68-0.64-2.5-1-0.59-0.27-1.14-0.63-1.72-0.94a1.16 1.16 0 0 1-0.6-1 13.42 13.42 0 0 1-0.05-3.19 3.93 3.93 0 0 1 0.46-1.71 7.22 7.22 0 0 1 2.61-2.51 11.15 11.15 0 0 1 2.34-1c0.83-0.24 1.67-0.45 2.51-0.68 0.84 -0.23 1.76-0.48 2.63-0.75a3 3 0 0 0 1.32-0.75 1.75 1.75 0 0 0 0.48-1.14v-0.26a0.73 0.73 0 0 0-0.19-0.58A9 9 0 0 1 11 16.51c-0.22-0.52-0.41-1.05-0.58-1.59-0.17-0.54-0.21-0.83-0.31-1.24a0.32 0.32 0 0 0-0.08-0.14 3.84 3.84 0 0 1-1.35-1.71 4.45 4.45 0 0 1-0.36-1.52 1.09 1.09 0 0 1 0.06-0.47c0.07-0.21 0.26 -0.25 0.45 -0.26 0.19 -0.01 0.24 0 0.2-0.26-0.04-0.26-0.03-0.26-0.03-0.38 0-0.32-0.09-0.64-0.12-1a8.63 8.63 0 0 1-0.06-2c0-0.27 0.06 -0.54 0.1 -0.8a6 6 0 0 1 1.2-2.82A5.77 5.77 0 0 1 12.85 0.49 9.39 9.39 0 0 1 15.67 0c0.416 0 0.831 0.04 1.24 0.12 0.44 0.07 0.88 0.18 1.32 0.29 a8.87 8.87 0 0 1 1.91 0.86 c0.192 0.095 0.398 0.159 0.61 0.19 a4.27 4.27 0 0 1 2.18 1.31 5.18 5.18 0 0 1 1.25 2.41 8.83 8.83 0 0 1 0.16 2.23V8.5c0 0.36-0.06 0.69 -0.09 1.05z" fill="#FFF"/>
  <path d="M27.91 23.49h-0.4c-0.11 0-0.11 0-0.11 0.11 v5.31c0 0.07 0 0.1 0.09 0.1l0.59 0.09 h0.25l0.8 0.11 0.78 0.12 0.57 0.07 0.57 0.09 0.52 0.07 0.62 0.1 0.59 0.08 0.76 0.11 0.61 0.08 0.56 0.09 h0.12a0.06 0.06 0 0 1 0.05 0.05 v0.5h-0.12l-0.42-0.06c-0.08 0-0.09 0-0.09 0.09 v4.43a0.05 0.05 0 0 0 0.06 0.06 h0.57v0.75H17.94v-0.75h0.63V23.58c0-0.07 0-0.09-0.08-0.09h-0.43c0-0.08 0.06 -0.15 0.08 -0.22 0.1 -0.23 0.2 -0.46 0.29 -0.7 0-0.05 0.05 -0.1 0.08 -0.16h8.81c0.07 0 0.1 0 0.13 0.08 0.09 0.24 0.19 0.47 0.29 0.7 l0.17 0.3 zm2.51 10.72h2.51c0.07 0 0.09 0 0.09-0.09v-2.91c0-0.14 0-0.14-0.13-0.14h-5c-0.12 0-0.12 0-0.12 0.12 v2.92c0 0.1 0 0.1 0.1 0.1h2.55zm-8-3.48h1.07c0.07 0 0.09 0 0.09-0.09v-2.15c0-0.06 0-0.09-0.08-0.08h-1.09l0.01 2.32zm-1.16-4.64V25c0-0.05 0-0.07-0.08-0.07h-1s-0.07 0-0.07 0.06 v2.19c0 0.06 0 0.08 0.08 0.08h1c0.07 0 0.09 0 0.09-0.09-0.04-0.36-0.03-0.72-0.03-1.08h0.01zm2.32 0v-1.07c0-0.07 0-0.09-0.09-0.09h-1c-0.06 0-0.08 0-0.08 0.07 v2.18c0 0.06 0 0.08 0.08 0.08h1c0.07 0 0.1 0 0.1-0.1-0.03-0.35-0.02-0.71-0.02-1.07h0.01zm2.32 0V25c0-0.07 0-0.09-0.09-0.09h-1c-0.06 0-0.09 0-0.09 0.08 v2.15c0 0.07 0 0.1 0.1 0.1h1c0.11 0 0.11 0 0.11-0.11l-0.03-1.04zm0 3.48v-1.08c0-0.06 0-0.08-0.08-0.08h-1c-0.06 0-0.09 0-0.09 0.08 v2.16c0 0.07 0 0.08 0.09 0.08h1c0.11 0 0.11 0 0.11-0.1l-0.03-1.06zm-5.8 2.32v2.25s0 0.07 0.08 0.07h1.08v-2.32H20.1zm2.32 0v2.31h1.1c0.06 0 0.06 0 0.06-0.08V32c0-0.06 0-0.07-0.08-0.07h-1.09l0.01-0.04zm-1.16-2.32v-1.09c0-0.05 0-0.07-0.08-0.07h-1s-0.07 0-0.07 0.07 v2.17c0 0.07 0 0.08 0.08 0.08h1c0.07 0 0.09 0 0.09-0.09-0.04-0.35-0.03-0.71-0.03-1.07h0.01zm3.48 2.32v2.3c0 0.06 0 0.07 0.08 0.07h1c0.06 0 0.08 0 0.08-0.08V32c0-0.06 0-0.08-0.08-0.08h-1.09l0.01-0.03z" fill="#FFF"/>
</svg>
