<?xml version="1.0" ?>
<svg xmlns="http://www.w3.org/2000/svg" width="25" height="32" viewBox="0 0 25 32">
  <path d="M12.2 31.7H1.79a1.67 1.67 0 0 1-1.72-1.19 2 2 0 0 1-0.07-0.57v-6.41V14a1.56 1.56 0 0 1 0.85-1.5 2.11 2.11 0 0 1 0.85-0.22h1.85c0.2 0 0.26 0 0.26-0.26V8.14a8.22 8.22 0 0 1 3.1-6.28A7.87 7.87 0 0 1 9.7 0.36 8.34 8.34 0 0 1 12.81 0a8.54 8.54 0 0 1 3.8 1.23A8.15 8.15 0 0 1 19.85 5a7 7 0 0 1 0.66 2.62c0 0.87 0.05 1.75 0.07 2.62v1.85c0 0.16 0.05 0.21 0.21 0.21h1.89a1.61 1.61 0 0 1 1.55 1c0.1 0.23 0.15 0.479 0.15 0.73 v15.99a1.61 1.61 0 0 1-1.07 1.63 1.89 1.89 0 0 1-0.7 0.12 L12.2 31.7zm0-19.44h4.1c0.16 0 0.26 0 0.25-0.22v-4a3.42 3.42 0 0 0-0.31-1.4 4.22 4.22 0 0 0-3.33-2.6 4.19 4.19 0 0 0-2.83 0.51 4.17 4.17 0 0 0-2.24 3.84v3.6c0 0.21 0 0.27 0.27 0.27h4.09zM9.62 27.37h4.71c0.31 0 0.32 0 0.27-0.32-0.05-0.32-0.08-0.39-0.12-0.58L14.13 25c-0.1-0.45-0.2-0.91-0.31-1.36-0.11-0.45-0.28-1.17-0.42-1.75 0-0.15 0-0.21 0.16 -0.28a2.78 2.78 0 0 0-2.22-5.07 2.77 2.77 0 0 0-0.59 5 0.25 0.25 0 0 1 0.12 0.32 c-0.09 0.32 -0.17 0.65 -0.25 1-0.14 0.59 -0.26 1.19-0.39 1.79-0.13 0.6 -0.35 1.45-0.52 2.18-0.03 0.17 -0.06 0.34 -0.09 0.54 z" fill="#FFF"/>
</svg>
