<?xml version="1.0" ?>
<svg xmlns="http://www.w3.org/2000/svg" width="39" height="36" viewBox="0 0 39 36">
  <path d="M23.59 19.76c0.004 0.06 0.004 0.12 0 0.18-0.05 0.32 -0.11 0.63 -0.15 0.94 -0.05 0.46 -0.12 0.93 -0.14 1.4a12.06 12.06 0 0 0 0 3.06c0.1 0.476 0.344 0.909 0.7 1.24a1.6 1.6 0 0 0 1.33 0.48 2.25 2.25 0 0 0 1.12-0.48 4.58 4.58 0 0 1 1.94-0.85 3.74 3.74 0 0 0 0.87-0.24 1.71 1.71 0 0 0 1-2.09 3 3 0 0 0-0.84-1.4 23.68 23.68 0 0 0-3.29-2.79c-0.06 0-0.11-0.1-0.17-0.15 0.44 0 0.85 0.1 1.26 0.17 0.41 0.07 0.85 0.16 1.28 0.21 0.43 0.05 1.08 0.11 1.62 0.14 a4.14 4.14 0 0 0 1.75-0.21 1.82 1.82 0 0 0 1-2.77 5.46 5.46 0 0 1-0.92-2.52 1.94 1.94 0 0 0-0.48-1.08 1.91 1.91 0 0 0-2.3-0.43 4 4 0 0 0-1.26 0.89 c-0.75 0.74 -1.46 1.52-2.19 2.28a1.7 1.7 0 0 0-0.15 0.22 l-0.05-0.05a0.85 0.85 0 0 1 0-0.16c0.12-0.69 0.28 -1.37 0.36 -2.06 0.08 -0.69 0.08 -1.26 0.1 -1.9a2.6 2.6 0 0 0-0.23-1.09 1.81 1.81 0 0 0-2.67-0.91 5.18 5.18 0 0 1-2.34 0.85 3 3 0 0 0-0.89 0.17 1.84 1.84 0 0 0-1.05 2.47c0.167 0.492 0.444 0.94 0.81 1.31 0.67 0.72 1.38 1.42 2.07 2.14l0.12 0.13 v0.05l-0.5-0.12-1.3-0.34c-0.38-0.07-0.76-0.12-1.15-0.18a3 3 0 0 0-1.85 0.18 1.71 1.71 0 0 0-0.84 2.31c0.208 0.397 0.379 0.812 0.51 1.24a9.55 9.55 0 0 1 0.18 1.53c0.02 0.407 0.178 0.796 0.45 1.1a1.89 1.89 0 0 0 2.23 0.37 6.2 6.2 0 0 0 1.59-1c0.79-0.68 1.55-1.39 2.31-2.08l0.16-0.16zm4.19-14.71l-0.13-0.22c-0.32-0.63-0.62-1.26-1-1.87a3.66 3.66 0 0 0-1.1-1.31 1.54 1.54 0 0 0-2.33 0.6 c-0.1 0.23 -0.22 0.45 -0.34 0.68 a5.28 5.28 0 0 1-1.19 1.35 1.44 1.44 0 0 0-0.5 1 1.67 1.67 0 0 0 1 1.58 8.42 8.42 0 0 0 2.62 0.71 c0.51 0.08 1 0.12 1.53 0.19 0.125 0.02 0.248 0.046 0.37 0.08 l-1.37 0.88 a3 3 0 0 1 1 0.9 3.65 3.65 0 0 1 0.64 2v1.08l0.16-0.13c0.42-0.31 0.84 -0.63 1.27-0.92a0.35 0.35 0 0 0 0.17-0.32v-2-0.25c0.42 0.69 0.8 1.34 1.18 2a0.3 0.3 0 0 0 0.28 0.16 c0.26 0 0.518 0.03 0.77 0.09 a2.73 2.73 0 0 1 1.83 1.56c0.09 0.21 0.17 0.42 0.25 0.65 a1.66 1.66 0 0 0 1.17-1c0.12-0.3 0.22 -0.61 0.35 -0.92a5.45 5.45 0 0 1 1-1.44 1.61 1.61 0 0 0-0.21-2.38 3.42 3.42 0 0 0-1.64-0.61c-0.65-0.1-1.31-0.13-2-0.18h-0.89a1.06 1.06 0 0 1-0.12-0.01c0.21-0.12 0.38 -0.2 0.54 -0.3a12.91 12.91 0 0 0 2.59-1.74A1.91 1.91 0 0 0 34.4 3a1.52 1.52 0 0 0-0.93-1.11c-0.35-0.15-0.71-0.28-1-0.45a5.47 5.47 0 0 1-1.29-1 1.6 1.6 0 0 0-2.21 0 3.18 3.18 0 0 0-0.85 1.92c-0.1 0.53 -0.13 1.07-0.19 1.61-0.09 0.33 -0.11 0.67 -0.15 1.08zm-12.13 6.28v0.17a19.52 19.52 0 0 0-1 2.86 3.54 3.54 0 0 0-0.12 1.29c0.048 0.411 0.28 0.779 0.63 1 0.11 0.08 0.16 0.08 0.24-0.05a2.89 2.89 0 0 1 1.14-1.08 3.79 3.79 0 0 1 2-0.38h0.26c-0.22-0.32-0.42-0.6-0.6-0.89a3.26 3.26 0 0 1-0.38-2.75 2.88 2.88 0 0 1 2.54-1.93 4.22 4.22 0 0 0 0.7-0.1 5 5 0 0 0 1.6-0.69 0.35 0.35 0 0 0 0.1-0.11 1.42 1.42 0 0 0-0.46-1.39 1.53 1.53 0 0 0-1.6-0.2A17.89 17.89 0 0 0 19 8c-0.35 0.19 -0.66 0.43 -1 0.67a0.58 0.58 0 0 1 0-0.17 13 13 0 0 0 1-2.27c0.16-0.452 0.13 -0.95-0.08-1.38a1.31 1.31 0 0 0-1.62-0.61 3.79 3.79 0 0 1-1.95 0 1.35 1.35 0 0 0-1.39 0.66 1.88 1.88 0 0 0 0 1.62c0.3 0.68 0.65 1.34 1 2 0.16 0.31 0.36 0.6 0.58 1a2.49 2.49 0 0 1-0.29-0.07c-0.41-0.14-0.82-0.3-1.24-0.43-0.42-0.13-1.06-0.29-1.59-0.42a3 3 0 0 0-1.47-0.07 1.33 1.33 0 0 0-1 1.86 4 4 0 0 1 0.38 1.76c-0.01 0.242 0.01 0.483 0.06 0.72 0.097 0.439 0.428 0.788 0.86 0.91 a1.79 1.79 0 0 0 1.43-0.21 12.7 12.7 0 0 0 2.42-1.77l0.55-0.47zm-3.21 16.42l-1.44 0.48 -2.38 0.85 -1.39 0.5 a0.25 0.25 0 0 0-0.18 0.27 5.48 5.48 0 0 0 0.47 2.4 5.73 5.73 0 0 0 4.48 3.4 13.41 13.41 0 0 0 1.68 0.09 c0.13 0 0.22 0 0.23-0.18a1.4 1.4 0 0 1 0.08-0.34c0.2-0.8 0.41 -1.6 0.61 -2.4 0.16 -0.64 0.32 -1.29 0.47 -1.93 0-0.14 0.07 -0.29 0.1 -0.44a3.13 3.13 0 0 1-2.73-2.7zm3-7.33l-0.51 1.65c-0.2 0.63 -0.41 1.25-0.61 1.87-0.2 0.62 -0.47 1.47-0.71 2.2a4 4 0 0 0-0.17 0.56 2.28 2.28 0 0 0 0.48 1.76 2.2 2.2 0 0 0 1.35 0.92 2.07 2.07 0 0 0 1.65-0.38L22 25.45a0.25 0.25 0 0 0 0.1-0.21c0-0.25-0.06-0.49-0.06-0.73v-1.49a0.66 0.66 0 0 0 0-0.19c-0.2 0.16 -0.37 0.3 -0.55 0.43 a5.42 5.42 0 0 1-2.52 1.17 3 3 0 0 1-1.88-0.38 2.76 2.76 0 0 1-1.33-1.9c-0.08-0.41-0.11-0.84-0.16-1.25l-0.16-0.48zM0 17a0.94 0.94 0 0 0 0.05 0.17 l0.36 0.65 a14 14 0 0 0 3.42 4 5.72 5.72 0 0 0 3.72 1.32 6.88 6.88 0 0 1 2 0.29A5.39 5.39 0 0 1 12 24.85l0.28 0.31 h-0.08l-0.2-0.11a5.58 5.58 0 0 0-2.24-1 4.42 4.42 0 0 0-1.95 0.11 10.1 10.1 0 0 1-1.61 0.36 6.81 6.81 0 0 1-3-0.36l-0.41-0.11c0.045 0.058 0.095 0.111 0.15 0.16 l1.7 1.43c0.22 0.18 0.22 0.19 0 0.36l-1.4 1-0.57 0.44 h0.17c0.48-0.08 1-0.15 1.44-0.26 0.44 -0.11 1.1-0.29 1.65-0.45a8.42 8.42 0 0 0 2-0.84 3.34 3.34 0 0 1 1.34-0.58 4.25 4.25 0 0 1 2.06 0.27 c0.55 0.21 1.09 0.47 1.64 0.71 0.1-0.24 0.21 -0.51 0.31 -0.79a0.25 0.25 0 0 0 0-0.2 13.58 13.58 0 0 0-0.83-1.16 6.1 6.1 0 0 0-3-1.92A7.31 7.31 0 0 0 7.49 22a3.58 3.58 0 0 1-2.32-0.93 8.53 8.53 0 0 1-2.38-3.87c-0.14-0.38-0.24-0.77-0.37-1.18a0.9 0.9 0 0 0-0.1 0.12 c-0.16 0.53 -0.32 1-0.47 1.58-0.05 0.16 -0.12 0.16 -0.23 0.1 l-0.62-0.3L0 17zm33.61 2.4h0.63a0.64 0.64 0 0 1 0.52 0.32 c0.1 0.173 0.168 0.363 0.2 0.56 a0.92 0.92 0 0 1-0.94 1 0.87 0.87 0 0 1-0.65-0.23 1 1 0 0 1-0.23-1.17 4.47 4.47 0 0 1-3.2 0.75 h-0.46a5.7 5.7 0 0 1 1.77 2.54 15 15 0 0 0 1.92-1.8c-0.09 0.4 -0.19 0.79 -0.28 1.17a5.93 5.93 0 0 0-0.2 0.93 2.73 2.73 0 0 0 0.05 1.36 1 1 0 0 0 1.35 0.55 3.7 3.7 0 0 1 1.72-0.42 0.76 0.76 0 0 0 0.38-0.11 1.11 1.11 0 0 0 0.39-1.57 8.75 8.75 0 0 0-1.41-1.8 0.86 0.86 0 0 1-0.13-0.14l0.41 0.11 c0.4 0.1 0.81 0.22 1.22 0.29 a2.51 2.51 0 0 0 1.33-0.13 1 1 0 0 0 0.58-1.27 4.63 4.63 0 0 1-0.42-1.91 0.84 0.84 0 0 0-0.46-0.71 1.25 1.25 0 0 0-1.29 0 9 9 0 0 0-1.57 1.17l-0.19 0.14 a5.92 5.92 0 0 1 0.22-0.78c0.2-0.502 0.3 -1.04 0.29 -1.58a1 1 0 0 0-1.51-0.67 3.09 3.09 0 0 1 0.54 1.7 2.81 2.81 0 0 1-0.58 1.67v0.03z" fill="#FFF"/>
  <path d="M23.59 19.76l-0.16 0.13 c-0.76 0.69 -1.52 1.4-2.31 2.08a6.2 6.2 0 0 1-1.59 1 1.89 1.89 0 0 1-2.23-0.37 1.78 1.78 0 0 1-0.45-1.1 9.55 9.55 0 0 0-0.18-1.5 7.26 7.26 0 0 0-0.49-1.24 1.71 1.71 0 0 1 0.82-2.31 3 3 0 0 1 1.85-0.18c0.39 0.06 0.77 0.11 1.15 0.18 l1.25 0.29 0.5 0.12 v-0.05l-0.12-0.13c-0.69-0.72-1.4-1.42-2.07-2.14a3.43 3.43 0 0 1-0.81-1.31 1.84 1.84 0 0 1 1.05-2.47 3 3 0 0 1 0.89-0.17 5.18 5.18 0 0 0 2.34-0.85 1.81 1.81 0 0 1 2.67 0.91 2.6 2.6 0 0 1 0.3 1.09c0 0.64 0 1.27-0.1 1.9-0.1 0.63 -0.24 1.37-0.36 2.06a0.85 0.85 0 0 0 0 0.16l0.05 0.05 a1.7 1.7 0 0 1 0.15-0.22c0.73-0.76 1.44-1.54 2.19-2.28a4 4 0 0 1 1.26-0.89 1.91 1.91 0 0 1 2.3 0.43 c0.27 0.321 0.427 0.721 0.45 1.14a5.46 5.46 0 0 0 0.92 2.52 1.82 1.82 0 0 1-1 2.77 4.14 4.14 0 0 1-1.75 0.21 c-0.54 0-1.08-0.07-1.62-0.14s-0.85-0.14-1.28-0.21c-0.43-0.07-0.82-0.13-1.26-0.17 0.06 0.05 0.11 0.11 0.17 0.15a23.68 23.68 0 0 1 3.3 2.78 3 3 0 0 1 0.83 1.39 1.71 1.71 0 0 1-1 2.09 3.74 3.74 0 0 1-0.87 0.24 4.58 4.58 0 0 0-1.94 0.85 2.25 2.25 0 0 1-1.12 0.48 1.6 1.6 0 0 1-1.32-0.47 2.35 2.35 0 0 1-0.66-1.24 12.06 12.06 0 0 1 0-3.06c0-0.47 0.09 -0.94 0.14 -1.4 0-0.31 0.1 -0.62 0.15 -0.94a1.36 1.36 0 0 0-0.04-0.18zm0.44-0.29a1.7 1.7 0 0 0 1.69-1.7A1.64 1.64 0 0 0 24 16.08a1.67 1.67 0 0 0-1.7 1.69 1.7 1.7 0 0 0 1.7 1.7h0.03z" fill="#FFF"/>
  <path d="M27.78 5.05c0-0.41 0.06 -0.75 0.1 -1.09 0.06 -0.54 0.09 -1.08 0.19 -1.61a3.18 3.18 0 0 1 0.85-1.92 1.6 1.6 0 0 1 2.21 0 5.47 5.47 0 0 0 1.29 1c0.34 0.17 0.7 0.3 1 0.45 0.5 0.177 0.87 0.601 0.98 1.12a1.91 1.91 0 0 1-0.72 1.9 12.91 12.91 0 0 1-2.59 1.74c-0.16 0.1 -0.33 0.18 -0.54 0.3 0.07 0.031 0.144 0.055 0.22 0.07 h0.89c0.66 0 1.32 0.08 2 0.18a3.42 3.42 0 0 1 1.64 0.61 1.61 1.61 0 0 1 0.21 2.38 5.45 5.45 0 0 0-1 1.44c-0.13 0.31 -0.23 0.62 -0.35 0.92 a1.66 1.66 0 0 1-1.17 1 9.79 9.79 0 0 0-0.25-0.65 2.73 2.73 0 0 0-1.83-1.56 3.31 3.31 0 0 0-0.77-0.09 0.3 0.3 0 0 1-0.28-0.16c-0.38-0.66-0.76-1.31-1.18-2v2.25a0.35 0.35 0 0 1-0.17 0.32 c-0.43 0.29 -0.85 0.61 -1.27 0.92 l-0.16 0.13 v-0.99a3.65 3.65 0 0 0-0.64-2 3 3 0 0 0-1-0.9l1.37-0.88a3.11 3.11 0 0 0-0.37-0.08c-0.51-0.07-1-0.11-1.53-0.19a8.42 8.42 0 0 1-2.62-0.71 1.67 1.67 0 0 1-1-1.58 1.44 1.44 0 0 1 0.5-1 5.28 5.28 0 0 0 1.19-1.35c0.12-0.23 0.24 -0.45 0.34 -0.68a1.54 1.54 0 0 1 2.33-0.6A3.66 3.66 0 0 1 26.69 3c0.34 0.61 0.64 1.24 1 1.87l0.09 0.18 zm0.6 0.51 A1.48 1.48 0 0 0 26.87 7a1.51 1.51 0 1 0 3 0 1.49 1.49 0 0 0-1.49-1.44z" fill="#FFF"/>
  <path d="M15.65 11.33l-0.55 0.47 a12.7 12.7 0 0 1-2.39 1.74 1.79 1.79 0 0 1-1.43 0.21 1.22 1.22 0 0 1-0.86-0.91 2.88 2.88 0 0 1-0.06-0.72 4 4 0 0 0-0.36-1.76 1.33 1.33 0 0 1 1-1.86 3 3 0 0 1 1.47 0.07 c0.53 0.13 1.06 0.26 1.59 0.42 0.53 0.16 0.83 0.29 1.24 0.43 0.095 0.03 0.192 0.052 0.29 0.07 -0.22-0.35-0.42-0.64-0.58-1-0.35-0.65-0.7-1.31-1-2a1.88 1.88 0 0 1 0-1.62 1.35 1.35 0 0 1 1.39-0.66 3.79 3.79 0 0 0 1.95 0 1.31 1.31 0 0 1 1.62 0.61 c0.203 0.446 0.213 0.956 0.03 1.41a13 13 0 0 1-1 2.27 0.58 0.58 0 0 0 0 0.17c0.36-0.24 0.67 -0.48 1-0.67a17.89 17.89 0 0 1 1.68-0.88 1.53 1.53 0 0 1 1.6 0.2 c0.399 0.342 0.576 0.877 0.46 1.39a0.35 0.35 0 0 1-0.1 0.11 5 5 0 0 1-1.6 0.69 4.22 4.22 0 0 1-0.7 0.1 2.88 2.88 0 0 0-2.54 1.93 3.26 3.26 0 0 0 0.38 2.75c0.18 0.29 0.38 0.57 0.6 0.89 h-0.28a3.79 3.79 0 0 0-2 0.38 2.89 2.89 0 0 0-1.14 1.08c-0.08 0.13 -0.13 0.13 -0.24 0.05 a1.37 1.37 0 0 1-0.63-1 3.54 3.54 0 0 1 0.12-1.29 19.52 19.52 0 0 1 1-2.86s0.03-0.12 0.04 -0.21zm2.55-1.18a1.28 1.28 0 1 0-2.56-0.05 1.27 1.27 0 0 0 1.28 1.31c0.7 0 1.27-0.56 1.28-1.26zM12.44 27.75a3.13 3.13 0 0 0 2.74 2.7c0 0.15-0.06 0.3 -0.1 0.44 -0.15 0.64 -0.31 1.29-0.47 1.93-0.2 0.8 -0.41 1.6-0.61 2.4a1.4 1.4 0 0 0-0.08 0.34 c0 0.17-0.1 0.19 -0.23 0.18 a13.41 13.41 0 0 1-1.69-0.09 5.73 5.73 0 0 1-4.46-3.4 5.48 5.48 0 0 1-0.47-2.4 0.25 0.25 0 0 1 0.18-0.27l1.39-0.5 2.36-0.85 1.44-0.48zM15.48 20.42l0.09 0.48 c0 0.41 0.08 0.84 0.16 1.25a2.76 2.76 0 0 0 1.33 1.9 3 3 0 0 0 1.88 0.38 5.42 5.42 0 0 0 2.52-1.17c0.18-0.13 0.35 -0.27 0.55 -0.43A0.66 0.66 0 0 1 22 23v1.49c0 0.24 0.05 0.48 0.06 0.73a0.25 0.25 0 0 1-0.1 0.21 L16.92 29a2.07 2.07 0 0 1-1.65 0.34 2.2 2.2 0 0 1-1.35-0.92 2.28 2.28 0 0 1-0.48-1.76 4 4 0 0 1 0.17-0.56c0.24-0.73 0.47 -1.47 0.71 -2.2 0.24 -0.73 0.41 -1.24 0.61 -1.87l0.51-1.65 0.04 0.04zM0 17l1 0.55 0.59 0.33c0.11 0.06 0.18 0.06 0.23-0.1 0.15 -0.53 0.31 -1.05 0.47 -1.58a0.9 0.9 0 0 1 0.1-0.12c0.13 0.41 0.23 0.8 0.37 1.18a8.53 8.53 0 0 0 2.41 3.84 3.58 3.58 0 0 0 2.32 0.9 7.31 7.31 0 0 1 1.92 0.23 6.1 6.1 0 0 1 3 1.92c0.297 0.372 0.574 0.76 0.83 1.16a0.25 0.25 0 0 1 0 0.2c-0.1 0.28 -0.21 0.55 -0.31 0.79 -0.55-0.24-1.09-0.5-1.64-0.71a4.25 4.25 0 0 0-2.06-0.27 3.34 3.34 0 0 0-1.34 0.58 8.42 8.42 0 0 1-2 0.84c-0.55 0.16 -1.09 0.32 -1.65 0.45 -0.56 0.13 -1 0.18-1.44 0.26 h-0.13l0.57-0.45 1.38-1c0.23-0.17 0.23 -0.18 0-0.36l-1.7-1.43a1.26 1.26 0 0 1-0.15-0.16l0.41 0.11 a6.81 6.81 0 0 0 3 0.36 10.1 10.1 0 0 0 1.61-0.36 4.42 4.42 0 0 1 2-0.11 5.58 5.58 0 0 1 2.24 1l0.18 0.12 h0.08l-0.29-0.32a5.39 5.39 0 0 0-2.41-1.43 6.88 6.88 0 0 0-2-0.29 5.72 5.72 0 0 1-3.72-1.32 14 14 0 0 1-3.42-4l-0.36-0.65A0.94 0.94 0 0 1 0 17zM33.61 19.37a2.81 2.81 0 0 0 0.58-1.72 3.09 3.09 0 0 0-0.54-1.7 1 1 0 0 1 1.55 0.76 4.06 4.06 0 0 1-0.29 1.58 5.92 5.92 0 0 0-0.22 0.78 l0.19-0.14a9 9 0 0 1 1.57-1.17 1.25 1.25 0 0 1 1.29 0 0.84 0.84 0 0 1 0.46 0.71 c0.002 0.66 0.146 1.31 0.42 1.91a1 1 0 0 1-0.62 1.23 2.51 2.51 0 0 1-1.33 0.05 c-0.41-0.07-0.82-0.19-1.22-0.29l-0.41-0.11a0.86 0.86 0 0 0 0.13 0.14 8.75 8.75 0 0 1 1.41 1.8 1.11 1.11 0 0 1-0.39 1.57 0.76 0.76 0 0 1-0.38 0.11 3.7 3.7 0 0 0-1.72 0.42 1 1 0 0 1-1.35-0.55 2.73 2.73 0 0 1-0.05-1.36 5.93 5.93 0 0 1 0.2-0.93c0.09-0.38 0.19 -0.77 0.28 -1.17a15 15 0 0 1-1.92 1.8 5.7 5.7 0 0 0-1.77-2.54h0.46a4.47 4.47 0 0 0 3.2-0.75 1 1 0 0 0 0.23 1.2 0.87 0.87 0 0 0 0.65 0.23 0.92 0.92 0 0 0 0.94-1 1.64 1.64 0 0 0-0.2-0.56 0.64 0.64 0 0 0-0.52-0.32c-0.19 0.01 -0.39 0.02 -0.63 0.02 z" fill="#FFF"/>
  <path d="M24 19.47a1.7 1.7 0 0 1-1.7-1.7 1.67 1.67 0 0 1 1.7-1.69 1.64 1.64 0 0 1 1.69 1.69 1.7 1.7 0 0 1-1.69 1.7zM28.38 5.56a1.49 1.49 0 0 1 1.5 1.49 1.51 1.51 0 1 1-1.5-1.49zM18.2 10.15c-0.01 0.7 -0.58 1.26-1.28 1.26a1.27 1.27 0 0 1 0-2.54 1.29 1.29 0 0 1 1.28 1.28z" fill="#AA2BAD"/>
</svg>
