<?xml version="1.0" ?>
<svg xmlns="http://www.w3.org/2000/svg" width="44" height="19" viewBox="0 0 44 19">
  <path d="M43.57 12.29V15.8a0.8 0.8 0 0 1-0.85 0.84 H30a1.25 1.25 0 0 1-0.51-0.09 0.75 0.75 0 0 1-0.4-0.76 3.49 3.49 0 0 0-1.7-2.93 3.6 3.6 0 0 0-5.39 2 4.38 4.38 0 0 0-0.15 0.94 0.75 0.75 0 0 1-0.8 0.8 H6.73a1.27 1.27 0 0 1-0.48-0.07 0.69 0.69 0 0 1-0.44-0.67v-0.51c0-0.17 0-0.2-0.19-0.19H4.56c-0.15 0-0.21 0.05 -0.2 0.2 v0.19c0 0.19 0 0.31 0.24 0.38a0.69 0.69 0 0 1 0.48 0.78 0.72 0.72 0 0 1-0.73 0.61 h-0.72a0.72 0.72 0 0 1-0.72-0.72v-1.14c0-0.38 0-0.3-0.31-0.3H0.79a0.74 0.74 0 0 1-0.79-0.93l0.24-0.7c0.16-0.49 0.32 -1 0.49-1.45a0.73 0.73 0 0 1 0.87-0.49 0.71 0.71 0 0 1 0.51 0.9 c-0.09 0.33 -0.21 0.66 -0.32 1-0.11 0.34 -0.05 0.26 0.19 0.26 h0.66c0.17 0 0.24-0.05 0.23 -0.23v-1.23a0.74 0.74 0 0 1 0.61-0.7 0.7 0.7 0 0 1 0.82 0.41 c0.034 0.1 0.055 0.204 0.06 0.31 v1.19c0 0.17 0 0.25 0.23 0.24h1.08c0.16 0 0.22-0.05 0.24 -0.21 0.06 -0.66 0.11 -1.32 0.22 -2 0.17-1 0.36-2 0.59-3A17.61 17.61 0 0 1 8 4.89a11.07 11.07 0 0 1 2.46-3.48A5.49 5.49 0 0 1 13.28 0c0.16-0.015 0.32 -0.015 0.48 0h27.67a2.19 2.19 0 0 1 2.06 1.61 3 3 0 0 1 0.08 0.6 v8.38c0 0.2 0 0.27-0.25 0.26 h-1.19a0.72 0.72 0 0 0-0.72 0.58 0.69 0.69 0 0 0 0.36 0.77 c0.144 0.055 0.296 0.085 0.45 0.09 0.44 0.01 0.88 0 1.35 0zm-7.26-3.95V3a0.73 0.73 0 0 0-0.82-0.81h-2.68A0.75 0.75 0 0 0 32 3v10.6c0 0.6 0.27 0.86 0.88 0.86h2.61c0.6 0 0.87-0.27 0.87 -0.87l-0.05-5.25zm-20 0.34h3.19a0.75 0.75 0 0 0 0.84-0.84V4.51c0-0.63-0.27-0.89-0.89-0.89h-6.29a0.73 0.73 0 0 0-0.81 0.8 v3.42a0.75 0.75 0 0 0 0.84 0.84 h3.12z" fill="#FFF"/>
  <path d="M25.41 18.8a2.89 2.89 0 1 1 2.92-2.9 2.9 2.9 0 0 1-2.92 2.9zm0-1.45a1.46 1.46 0 0 0 1.46-1.43 1.47 1.47 0 0 0-1.44-1.46 1.45 1.45 0 1 0 0 2.89h-0.02z" fill="#FFF"/>
</svg>
