<?xml version="1.0" ?>
<svg xmlns="http://www.w3.org/2000/svg" width="41" height="36" viewBox="0 0 41 36">
  <path d="M21.49 6.13h0.45a3.62 3.62 0 0 1 1.35 0.18 1 1 0 0 1 0.59 0.63 c0.16 0.39 0.3 0.79 0.45 1.18a4 4 0 0 0 0.78 1.37 0.39 0.39 0 0 1 0.06 0.13 8.31 8.31 0 0 0-2.15 0.75 5.06 5.06 0 0 1-1 0.32 1.22 1.22 0 0 1-0.95-0.26A5.13 5.13 0 0 1 20 9.3h-0.07c0 0.16 0.07 0.31 0.12 0.46 0.14 0.532 0.2 1.08 0.18 1.63 0.017 0.189 0.047 0.376 0.09 0.56a4.09 4.09 0 0 1-3.37-2c-0.16 0.24 -0.07 0.49 -0.09 0.76 a3.39 3.39 0 0 1-1.36-1.15A2.69 2.69 0 0 1 14.81 8a1.87 1.87 0 0 1 0.15-0.8 3.17 3.17 0 0 1 0.63-0.94l0.34-0.26a0.74 0.74 0 0 0 0.07-0.14 6.38 6.38 0 0 0-0.71-0.33c-0.58-0.19-1.17-0.36-1.76-0.53-0.17 0-0.21 0-0.19 0.18 0.07 0.53 0.14 1.06 0.19 1.59 0.05 0.53 0.07 0.8 0.09 1.2 0.02 0.4 0 0.52 0 0.78v0.57L13 9.25h-0.1c-0.28 0-0.27 0-0.3-0.27-0.09-0.68-0.15-1.36-0.26-2a18.84 18.84 0 0 0-1-3.85c-0.3-0.78-0.65-1.54-1-2.3 0-0.1 0-0.15 0.08 -0.19 0.5 -0.18 1-0.38 1.5-0.59 0.16 0.4 0.34 0.8 0.48 1.2 0.21 0.67 0.39 1.35 0.58 2 0.05 0.19 0.08 0.38 0.12 0.57 a0.16 0.16 0 0 0 0.09 0.12 c0.18 0.08 0.36 0.13 0.54 0.2 0.51 0.21 1 0.41 1.53 0.63 0.3 0.13 0.59 0.29 0.88 0.43 0.06-0.34 0.11 -0.66 0.17 -1a2.48 2.48 0 0 1 0.89-1.39 3.05 3.05 0 0 1 1.81-0.67 4.56 4.56 0 0 1 1.72 0.27 c0.092 0.035 0.18 0.082 0.26 0.14 l-0.78 0.36 V3h0.47a3.49 3.49 0 0 1 1.35 0.3 4.47 4.47 0 0 1 1.12 1c0.17 0.17 0.35 0.32 0.54 0.49 -0.35 0.29 -0.67 0.6 -1 0.86a3.41 3.41 0 0 1-1.25 0.45 l0.05 0.03 zM11.15 17.82a3.12 3.12 0 1 1 6 1.65 3.12 3.12 0 1 1-6-1.65zM5.18 18.33a3 3 0 0 1-1.51 0.72 2.93 2.93 0 0 1-1.73-0.19 3.14 3.14 0 0 1-1.75-4 3 3 0 0 1 1.08-1.46 3.12 3.12 0 0 1 1.52-0.61 3.07 3.07 0 0 1 3.15 1.74 0.2 0.2 0 0 1 0 0.15 7.71 7.71 0 0 0-0.52 0.75 A3.68 3.68 0 0 0 5 16.69c-0.05 0.553 0.01 1.11 0.18 1.64z" fill="#FFF"/>
  <path d="M16.62 21.42c0.23-0.3 0.49 -0.56 0.68 -0.86a3.51 3.51 0 0 0 0.5-1.41 4.43 4.43 0 0 0 0-1.26s0-0.11 0.08 -0.14a3.13 3.13 0 0 1 1.65-0.53 2.88 2.88 0 0 1 1.27 0.24 3 3 0 0 1 1.55 1.42 3 3 0 0 1-0.1 3.12A3 3 0 0 1 20 23.48c-0.4 0.067 -0.81 0.044 -1.2-0.07a3.07 3.07 0 0 1-2.13-1.92l-0.05-0.07zM5.66 16.32a3.26 3.26 0 0 1 1.17-1.69A3 3 0 0 1 8.5 14a3.07 3.07 0 0 1 1.54 0.31 3.2 3.2 0 0 1 1.47 1.48 0.25 0.25 0 0 1 0 0.33 3.4 3.4 0 0 0-1 2 3.2 3.2 0 0 0 0 1.27c0.06 0.25 0.06 0.26 -0.15 0.4 a3.15 3.15 0 0 1-1.62 0.53 3 3 0 0 1-1.28-0.23 3.42 3.42 0 0 1-1-0.68 3.06 3.06 0 0 1-0.8-1.41 3.3 3.3 0 0 1 0-1.68zM10.87 31a3 3 0 0 1-2.15-2 2.87 2.87 0 0 1 0-2c0.09-0.23 0.23 -0.43 0.33 -0.65 0.1 -0.22 0.12 -0.11 0.21 -0.1l0.76 0.09 a3.28 3.28 0 0 0 1.52-0.34 3.48 3.48 0 0 0 1.25-0.82 0.22 0.22 0 0 1 0.28 0 3.43 3.43 0 0 1 1.2 1c0.305 0.45 0.49 0.97 0.54 1.51A3.18 3.18 0 0 1 12.56 31a2.78 2.78 0 0 1-1.69 0zM9.71 12.14A3.17 3.17 0 0 1 12 9.9a2.92 2.92 0 0 1 1.78 0 3.12 3.12 0 0 1 1.72 1.46 3 3 0 0 1 0.39 1.44 2.94 2.94 0 0 1-0.19 1.2 3.67 3.67 0 0 1-0.49 0.89 0.29 0.29 0 0 1-0.33 0.14 3.59 3.59 0 0 0-2.54 0.41 c-0.31 0.19 -0.3 0.19 -0.48-0.13a3.07 3.07 0 0 0-1.11-1.18c-0.31-0.19-0.64-0.32-0.95-0.48a0.24 0.24 0 0 1-0.12-0.14 2.39 2.39 0 0 1 0-1 2.78 2.78 0 0 0 0.03-0.37zM3.2 25.72a3.14 3.14 0 0 1 2.7-2.31h0.61c0.21 0 0.12 0.05 0.14 0.15 a3.59 3.59 0 0 0 1.15 1.82c0.22 0.18 0.47 0.33 0.71 0.49 0.09 0.05 0.13 0.11 0.06 0.21 A3.36 3.36 0 0 0 8 27.66a3.18 3.18 0 0 0 0.08 1.19 0.2 0.2 0 0 1-0.08 0.25 3.2 3.2 0 0 1-1.29 0.54 3 3 0 0 1-1.89-0.28 3 3 0 0 1-1.42-1.42 2.72 2.72 0 0 1-0.31-1.28c0-0.31 0.05 -0.63 0.07 -0.94h0.04zM8.32 29.57c0.14 0.21 0.26 0.43 0.4 0.62 a3.32 3.32 0 0 0 1.35 1.14c0.2 0.09 0.4 0.16 0.6 0.23 0.09 0.01 0.156 0.09 0.15 0.18 -0.01 0.295 -0.04 0.59 -0.09 0.88 a2.91 2.91 0 0 1-1 1.76 3.11 3.11 0 0 1-1.58 0.7 2.8 2.8 0 0 1-1.57-0.18 3.1 3.1 0 0 1-1.91-2.31 3 3 0 0 1 0.11-1.68c0.1-0.26 0.27 -0.48 0.39 -0.73 0-0.09 0.12 -0.07 0.2 -0.06 0.33 0.068 0.664 0.109 1 0.12A3.5 3.5 0 0 0 8 29.76l0.32-0.19z" fill="#FFF"/>
  <path d="M7.7 20.74a3.91 3.91 0 0 0 1.7 0c0.44-0.08 0.859 -0.25 1.23-0.5 0.14 -0.09 0.21 -0.06 0.28 0.08 0.25 0.526 0.624 0.982 1.09 1.33 0.352 0.246 0.74 0.435 1.15 0.56 a0.18 0.18 0 0 1 0.16 0.19 3.27 3.27 0 0 1-0.17 1.16 3.07 3.07 0 0 1-1.5 1.81 2.91 2.91 0 0 1-1.72 0.36 3 3 0 0 1-1.43-0.48 3.13 3.13 0 0 1-1.29-1.79 2.87 2.87 0 0 1-0.1-1.13 2.65 2.65 0 0 1 0.07-0.48 2.78 2.78 0 0 1 0.53-1.11zM7.14 20.56a3.56 3.56 0 0 0-0.6 2.28h-0.45a3.44 3.44 0 0 0-2.09 0.77 4.79 4.79 0 0 0-0.52 0.49 c-0.1 0.12 -0.17 0.13 -0.31 0a3.11 3.11 0 0 1-0.9-0.75 3 3 0 0 1-0.72-1.92 2.76 2.76 0 0 1 0.38-1.56 1.34 1.34 0 0 0 0.07-0.18c0-0.15 0.15 -0.14 0.28 -0.12a3.67 3.67 0 0 0 2.74-0.48 2 2 0 0 0 0.24-0.16c0.09-0.06 0.13 0 0.17 0 0.25 0.435 0.591 0.81 1 1.1 0.22 0.21 0.47 0.36 0.71 0.53zM13.89 22.34h0.64a3.34 3.34 0 0 0 1.47-0.5c0.18-0.09 0.19 -0.1 0.27 0.08a3.47 3.47 0 0 0 1.24 1.49c0.347 0.205 0.712 0.38 1.09 0.52 0.1 0.05 0.18 0.07 0.18 0.2 a3.09 3.09 0 0 1-0.25 1.44 3.69 3.69 0 0 1-0.57 0.88 3 3 0 0 1-1.59 0.94 6.69 6.69 0 0 1-0.91 0.08 s-0.1-0.08-0.12-0.14c-0.07-0.23-0.1-0.47-0.19-0.69A3.44 3.44 0 0 0 14 25.15c-0.19-0.14-0.39-0.26-0.59-0.38-0.2-0.12-0.17-0.15-0.07-0.3a3.66 3.66 0 0 0 0.5-1.42 5.31 5.31 0 0 0 0.05-0.71zM21 16.32c0 0.11-0.08 0.26 -0.13 0.41 a0.14 0.14 0 0 1-0.21 0.09 3.37 3.37 0 0 0-1.81-0.07 3.33 3.33 0 0 0-1.09 0.44 c-0.1 0.06 -0.14 0-0.19-0.07a3.51 3.51 0 0 0-1.3-1.55 3.83 3.83 0 0 0-0.44-0.25c-0.11-0.05-0.12-0.11-0.06-0.21l0.28-0.47a3.42 3.42 0 0 0 0.42-1.8 0.25 0.25 0 0 1 0.11-0.16 2.92 2.92 0 0 1 1.11-0.34 3 3 0 0 1 1.22 0.12 A3.15 3.15 0 0 1 21 16.32zM4 11.73a3.1 3.1 0 0 1 2.5-2.3 2.77 2.77 0 0 1 1.5 0.13 3.14 3.14 0 0 1 1.6 1.24 0.2 0.2 0 0 1 0 0.26 3.38 3.38 0 0 0-0.44 1.14 3.82 3.82 0 0 0-0.06 1.12c0 0.12 0 0.17-0.17 0.16 a3.44 3.44 0 0 0-2 0.46c-0.13 0.08 -0.26 0.16 -0.38 0.25 s-0.12 0-0.17 0a3.72 3.72 0 0 0-1-1.16A3.37 3.37 0 0 0 4 12.37c-0.15 0-0.18-0.1-0.15-0.24l0.15-0.4zM33.22 2.33C33 2.27 33 2.19 32.94 2V1a0.3 0.3 0 0 1 0.2-0.29 0.13 0.13 0 0 0 0.08-0.1 0.59 0.59 0 0 1 0.56-0.46h2.16a0.59 0.59 0 0 1 0.57 0.47 0.18 0.18 0 0 0 0.08 0.09 0.31 0.31 0 0 1 0.2 0.3 v1c0 0.34-0.06 0.3 -0.28 0.37 v3.19c0 0.39 0.08 0.78 0.12 1.16 0 0.19 0 0.37 0.07 0.55 0.11 0.6 0.21 1.2 0.35 1.8 0.14 0.6 0.26 1.07 0.43 1.59 0.17 0.52 0.44 1.11 0.66 1.66l0.49 1.23 0.52 1.26c0.14 0.35 0.26 0.71 0.38 1.06 0.12 0.35 0.22 0.71 0.32 1.07 0.071 0.267 0.128 0.537 0.17 0.81 0.08 0.45 0.17 0.89 0.21 1.34 0.06 0.6 0.12 1.2 0.12 1.8v13.3a1.14 1.14 0 0 1-1.12 1.12h-8.74a1.13 1.13 0 0 1-1.13-1.11V20.65a17.35 17.35 0 0 1 0.15-1.91c0.06-0.488 0.15 -0.973 0.27 -1.45 0.16 -0.63 0.33 -1.26 0.55 -1.88 0.22 -0.62 0.53 -1.3 0.8 -1.95 0.27 -0.65 0.52 -1.26 0.77 -1.89 0.16 -0.43 0.33 -0.86 0.46 -1.3 0.13 -0.44 0.21 -0.79 0.3 -1.19 0.09 -0.4 0.19 -0.76 0.26 -1.15 0.07 -0.39 0.1 -0.7 0.15 -1 0.05-0.3 0.08 -0.68 0.11 -1a2.22 2.22 0 0 0 0-0.37V2.33h0.04zm6 18.68h-8.74v7.67h8.78l-0.04-7.67z" fill="#FFF"/>
</svg>
