<?xml version="1.0" ?>
<svg xmlns="http://www.w3.org/2000/svg" width="41" height="32" viewBox="0 0 41 32">
  <path d="M7.33 27.22l-1.05 2.54c-0.17 0.41 -0.34 0.81 -0.5 1.22a0.23 0.23 0 0 1-0.25 0.15 H3.69c-0.18 0-0.21-0.06-0.21-0.22 0-1.28 0-2.55 0.06 -3.83v-4.54a2.05 2.05 0 0 0-0.41-1.33c-0.66-0.94-1.29-1.91-1.93-2.86L0.17 16.78a0.58 0.58 0 0 1 0-0.84 0.61 0.61 0 0 1 0.83-0.07 5.8 5.8 0 0 1 0.56 0.5 l2.62 2.53c0.17 0.17 0.34 0.33 0.5 0.51 a0.41 0.41 0 0 0 0.33 0.15 h4.3a0.54 0.54 0 0 0 0.31-0.1l2.43-2c0.37-0.3 0.72 -0.61 1.1-0.9a0.69 0.69 0 0 1 0.64-0.17 0.63 0.63 0 0 1 0.31 1c-0.69 1-1.39 2-2.09 3-0.36 0.52 -0.73 1-1.09 1.56a0.46 0.46 0 0 0-0.07 0.26 c0 1 0.1 2 0.15 3 0.05 1 0.07 2 0.12 3 0 0.86 0.09 1.72 0.13 2.59 0 0.24 0 0.25-0.23 0.25 H9.27a0.33 0.33 0 0 1-0.35-0.24l-1-2.44-0.45-1.1s-0.09 0-0.14-0.05zM33.81 16c-0.05 0.1 -0.12 0.2 -0.16 0.31 -0.21 0.52 -0.42 1.05-0.63 1.58-0.21 0.53 -0.49 1.16-0.73 1.74a0.39 0.39 0 0 1-0.44 0.3 h-1.66c-0.27 0-0.27 0-0.26-0.26 0-2.79 0.07 -5.58 0.13 -8.37a1.76 1.76 0 0 0-0.32-1.13c-0.55-0.77-1.07-1.57-1.6-2.36l-1.43-2.19a3.41 3.41 0 0 1-0.21-0.33 0.5 0.5 0 0 1 0.16-0.61 0.57 0.57 0 0 1 0.63-0.15 2.4 2.4 0 0 1 0.84 0.68 C29.07 6.1 30 7 30.92 7.92c0.276 0.3 0.673 0.458 1.08 0.43 h3.47a1.23 1.23 0 0 0 0.85-0.35l1.94-1.57 1.23-1a0.84 0.84 0 0 1 0.71-0.27 0.65 0.65 0 0 1 0.34 1l-1.39 2-1.43 2.04-0.18 0.24 a1 1 0 0 0-0.21 0.81 c0.02 0.28 0.02 0.56 0 0.84 0 0.91 0.06 1.81 0.1 2.72 0.05 1.17 0.11 2.33 0.16 3.5 0 0.46 0.027 0.923 0.08 1.39 0 0.14 0 0.19-0.18 0.19 h-1.85a0.21 0.21 0 0 1-0.23-0.15c-0.28-0.68-0.56-1.35-0.84-2L33.86 16h-0.05zM12.24 0.49 h0.11a9.83 9.83 0 0 1 2.46 1.69 8.59 8.59 0 0 1 1.88 2.67c0.224 0.486 0.415 0.987 0.57 1.5 0.18 0.62 0.27 1.27 0.39 1.91 0.12 0.64-0.19 0.66 -0.48 0.86 -0.55 0.38 -0.56 0.38 -1.12 0.07 a8.46 8.46 0 0 1-3.34-3.37A11.75 11.75 0 0 1 12 4.2a8 8 0 0 1-0.46-1.89c0-0.37-0.09-0.74-0.14-1.11a0.28 0.28 0 0 1 0.16-0.31l0.6-0.36 0.08 -0.04z" fill="#FFF"/>
  <path d="M31.34 4.85a2.5 2.5 0 0 1 2.48-2.51 2.52 2.52 0 0 1 0 5 2.5 2.5 0 0 1-2.48-2.49zM7.36 18.61a2.51 2.51 0 1 1 2.51-2.49 2.48 2.48 0 0 1-2.51 2.49zM16 9.67a4.85 4.85 0 0 1-5.34-1.34 5 5 0 0 1 0.42-7.08 0.73 0.73 0 0 1 0 0.17 7.9 7.9 0 0 0-0.3 2.72 5.41 5.41 0 0 0 1.17 3.15A5.89 5.89 0 0 0 14.06 9c0.46 0.21 0.94 0.4 1.41 0.58 0.175 0.04 0.352 0.07 0.53 0.09 zM12.72 0.29 a5 5 0 0 1 5.43 7.93 1.08 1.08 0 0 1 0-0.23 6.49 6.49 0 0 0 0.14-2.25 5.38 5.38 0 0 0-1.72-3.55A6.68 6.68 0 0 0 14.35 0.83 c-0.51-0.19-1-0.33-1.54-0.49l-0.09-0.05z" fill="#FFF"/>
</svg>
