<?xml version="1.0" ?>
<svg xmlns="http://www.w3.org/2000/svg" width="16" height="36" viewBox="0 0 16 36">
  <path d="M7.5 35.67h-5a3.51 3.51 0 0 1-0.92-0.11 2.14 2.14 0 0 1-1.43-1.34 2.77 2.77 0 0 1-0.15-1V23a0.81 0.81 0 0 1 0.83-0.85A1.56 1.56 0 0 0 2.23 21a1.55 1.55 0 0 0-1-1.75 1.35 1.35 0 0 0-0.52-0.08 0.77 0.77 0 0 1-0.71-0.77v-6.14a4.38 4.38 0 0 1 1.77-3.47 7 7 0 0 1 0.72-0.49 0.26 0.26 0 0 0 0.15-0.3V3.76A3.29 3.29 0 0 1 4.16 1 4.89 4.89 0 0 1 5.89 0.2 6.89 6.89 0 0 1 7.81 0 5.75 5.75 0 0 1 11 1a3.41 3.41 0 0 1 1.27 1.7c0.094 0.309 0.147 0.628 0.16 0.95 v4.34a0.33 0.33 0 0 0 0.17 0.31 4.85 4.85 0 0 1 2 2.06c0.235 0.453 0.371 0.95 0.4 1.46 0 0.587 0.02 1.177 0.06 1.77v4.73a0.75 0.75 0 0 1-0.49 0.77 0.65 0.65 0 0 1-0.27 0.05 1.53 1.53 0 0 0-1.49 1.73 1.46 1.46 0 0 0 1.38 1.28 0.83 0.83 0 0 1 0.87 0.9 v10.28a2.25 2.25 0 0 1-1.5 2.21 2.87 2.87 0 0 1-1 0.12c-1.69 0.02 -3.37 0.01 -5.06 0.01 zm0-22.91H1.72c-0.17 0-0.24 0.05 -0.24 0.23 v4.59a0.23 0.23 0 0 0 0.17 0.24 3 3 0 0 1 1.1 0.68 3.06 3.06 0 0 1 1 1.78c0.07 0.417 0.029 0.845 -0.12 1.24a3.25 3.25 0 0 1-1.84 1.95c-0.27 0.12 -0.28 0.11 -0.28 0.41 v9.35a1.09 1.09 0 0 0 0 0.18 0.76 0.76 0 0 0 0.75 0.78 h10.52a0.85 0.85 0 0 0 0.41-0.12 0.75 0.75 0 0 0 0.33-0.72V23.8v-0.07a0.16 0.16 0 0 0-0.13-0.19 3.42 3.42 0 0 1-1.11-0.7 2.93 2.93 0 0 1-1-1.68 2.7 2.7 0 0 1 0.2-1.61 3.33 3.33 0 0 1 1.8-1.7c0.14-0.06 0.2 -0.11 0.2 -0.27V13c0-0.18-0.06-0.23-0.23-0.23l-5.75-0.01zm-6-0.75h12c-0.07-0.26-0.11-0.5-0.19-0.72a3.39 3.39 0 0 0-1.51-1.7 7.64 7.64 0 0 0-3.39-0.92 11.11 11.11 0 0 0-2.76 0.11 8.13 8.13 0 0 0-2.06 0.6 3.61 3.61 0 0 0-1.74 1.53A2.61 2.61 0 0 0 1.54 12l-0.04 0.01 zm1.88-4.16h0.14c0.25-0.08 0.5 -0.19 0.75 -0.25s0.25-0.13 0.25 -0.31V5.15c0-0.16 0-0.22 0.22 -0.21h1.47c0.13 0 0.18 0 0.18-0.17V3.52a2.12 2.12 0 0 1 0.06-0.43A1.11 1.11 0 0 1 8 2.38c0.39 0.203 0.631 0.61 0.62 1.05v1.18c0 0.39 0 0.29 0.28 0.29h1.36c0.16 0 0.22 0 0.21 0.21 v2.2a0.21 0.21 0 0 0 0.19 0.24 l0.42 0.12 0.55 0.18 V4.07a6.32 6.32 0 0 0-0.06-0.75A2.28 2.28 0 0 0 10.94 2 4.06 4.06 0 0 0 8.42 0.81 a6 6 0 0 0-1.53 0 5.56 5.56 0 0 0-1.79 0.46 2.75 2.75 0 0 0-1.73 2.66v3.68l0.01 0.24 z" fill="#FFF"/>
  <path d="M7.54 19.15h2.4c0.14 0 0.2 0 0.19 0.18 -0.01 0.18 0 0.28 0 0.42 0 0.14 0 0.14-0.13 0.14 H5c-0.1 0-0.13-0.05-0.14-0.15 0-0.59 0-0.59 0.55 -0.59h2.13zM10.12 21.42v0.72h-5c-0.16 0-0.22 0-0.22-0.21 0-0.52 0-0.52 0.52 -0.52h4.7v0.01z" fill="#FFF"/>
</svg>
