<?xml version="1.0" ?>
<svg xmlns="http://www.w3.org/2000/svg" width="40" height="31" viewBox="0 0 40 31">
  <path d="M30.69 13.05a1.19 1.19 0 0 1-1.12 0.73 1.21 1.21 0 0 1-1.07-0.73 1.19 1.19 0 0 1-1.08 0.73 1.18 1.18 0 0 1-1.1-0.73 1.25 1.25 0 0 1-1.1 0.73 1.16 1.16 0 0 1-1.08-0.72 1.28 1.28 0 0 1-1.11 0.72 1.21 1.21 0 0 1-1.09-0.72 1.24 1.24 0 0 1-1.1 0.72 1.26 1.26 0 0 1-1.1-0.72 1.18 1.18 0 0 1-1.09 0.72 1.23 1.23 0 0 1-1.09-0.72 1.21 1.21 0 0 1-1.09 0.72 1.19 1.19 0 0 1-1.09-0.72 1.25 1.25 0 0 1-1.09 0.72 1.19 1.19 0 0 1-1.09-0.72 1.28 1.28 0 0 1-1.1 0.72 1.25 1.25 0 0 1-1.1-0.72 1.24 1.24 0 0 1-1.09 0.72 1.2 1.2 0 0 1-1.1-0.73 1.22 1.22 0 0 1-1.11 0.73 1.21 1.21 0 0 1-1.07-0.71 1.22 1.22 0 0 1-2.2 0 1.24 1.24 0 0 1-1.07 0.7 1.19 1.19 0 0 1-1.1-0.7 1 1 0 0 0-0.13 0.17 1.16 1.16 0 0 1-1.31 0.48 1.14 1.14 0 0 1-0.82-1.1v-2.24a0.24 0.24 0 0 1 0.19-0.27 57.94 57.94 0 0 0 16.57-7.94l1.52-1.07c0.49-0.35 1-0.73 1.47-1.1l1.31 1a63.4 63.4 0 0 0 10.37 6.14 53.86 53.86 0 0 0 6.08 2.43c0.59 0.2 1.19 0.37 1.79 0.54 a0.25 0.25 0 0 1 0.22 0.29 v2.16a1.22 1.22 0 0 1-0.83 1.18 1.18 1.18 0 0 1-1.36-0.56l-0.07-0.12a1.25 1.25 0 0 1-1.09 0.72 1.19 1.19 0 0 1-1.09-0.72 1.28 1.28 0 0 1-1.1 0.72 1.24 1.24 0 0 1-1.1-0.72 1.23 1.23 0 0 1-1.11 0.72 1.21 1.21 0 0 1-1.08-0.73zM1.7 22.56v-7.89c0-0.31 0-0.31 0.31 -0.31 0.17 0.01 0.34 0.01 0.51 0 0.21 0 0.28 0.06 0.27 0.28 V30.36c0 0.52 0 0.46-0.47 0.46 s-0.62 0-0.62-0.61v-7.65zM37.78 22.61v7.89c0 0.32 0 0.32-0.31 0.32 h-0.49c-0.16 0-0.28-0.05-0.28-0.27V14.68c0-0.32 0-0.32 0.32 -0.32 0.177 0.01 0.353 0.01 0.53 0 0.17 0 0.23 0.06 0.23 0.23 v8.03-0.01z" fill="#FFF"/>
</svg>
