<?xml version="1.0" ?>
<svg xmlns="http://www.w3.org/2000/svg" width="25" height="36" viewBox="0 0 25 36">
  <path d="M24.05 10.67a14 14 0 0 1-0.92 5.24 10.12 10.12 0 0 1-2.69 3.84 11.84 11.84 0 0 1-4.33 2.37 19.78 19.78 0 0 1-6 0.82H7.14v11.21a0.76 0.76 0 0 1-0.18 0.49 1.22 1.22 0 0 1-0.58 0.35 6.07 6.07 0 0 1-1.09 0.22 16.08 16.08 0 0 1-1.73 0.08 16.36 16.36 0 0 1-1.73-0.08A6.21 6.21 0 0 1 0.73 35a1.19 1.19 0 0 1-0.57-0.35 0.8 0.8 0 0 1-0.16-0.5V2.55A2.5 2.5 0 0 1 0.67 0.64 2.39 2.39 0 0 1 2.42 0h8.28c0.83 0 1.62 0 2.37 0.1 a23.62 23.62 0 0 1 2.7 0.4 A11.76 11.76 0 0 1 19 1.66a9.44 9.44 0 0 1 2.76 2.13 8.72 8.72 0 0 1 1.73 3 11.73 11.73 0 0 1 0.56 3.88zm-7.46 0.51 a6.25 6.25 0 0 0-0.66-3 4.44 4.44 0 0 0-1.6-1.76 5.31 5.31 0 0 0-2-0.72 15.26 15.26 0 0 0-2.16-0.15h-3v11.88h3.2a8 8 0 0 0 2.84-0.43 4.93 4.93 0 0 0 1.88-1.29 5.83 5.83 0 0 0 1.12-2 8.12 8.12 0 0 0 0.38-2.53z" fill="#FFF"/>
</svg>
