<?xml version="1.0" ?>
<svg xmlns="http://www.w3.org/2000/svg" width="44" height="31" viewBox="0 0 44 31">
  <path d="M10.65 15.83l-2-0.91c-0.94-0.43-1.88-0.87-2.81-1.32l-2.6-1.25-2.33-1.13a3.84 3.84 0 0 1-0.6-0.33c-0.49-0.36-0.35-0.77 0.09 -1 0.44-0.23 1-0.52 1.57-0.78L4.23 8l2.08-1 1.83-0.88 2.06-1 2.27-1.02 2.64-1.25 2.77-1.34c0.9-0.43 1.8-0.87 2.71-1.28A3.42 3.42 0 0 1 22.11 0a4.42 4.42 0 0 1 1.8 0.57 l2.1 1 2.79 1.34 2.59 1.22 2.8 1.35 2.24 1 2 1 1.88 0.9 2.43 1.16c0.282 0.129 0.55 0.286 0.8 0.47 a0.46 0.46 0 0 1 0 0.8 6.59 6.59 0 0 1-1 0.55c-0.8 0.4 -1.61 0.77 -2.42 1.16l-2.82 1.34-2 1-2.18 1-2.56 1.24-2.95 1.38-2.38 1.15c-0.68 0.32 -1.34 0.67 -2 1a3.51 3.51 0 0 1-1.7 0.23 6.26 6.26 0 0 1-2-0.75c-0.7-0.31-1.39-0.66-2.08-1l-1.9-0.9-2.26-1.07c-0.31-0.15-0.62-0.3-0.91-0.47-0.08 0-0.18-0.17-0.16-0.25a0.45 0.45 0 0 1 0.21-0.29c0.74-0.4 1.5-0.79 2.25-1.17l2.58-1.32 2.4-1.27c0.32-0.17 0.64 -0.35 1-0.49a0.83 0.83 0 0 1 0.47 0 3.77 3.77 0 0 0 1.67 0 2.71 2.71 0 0 0 1.09-0.5 1.11 1.11 0 0 0 0.44-1.2 1.4 1.4 0 0 0-0.69-0.8 3.33 3.33 0 0 0-2.16-0.4 2.58 2.58 0 0 0-1.63 0.73 1 1 0 0 0-0.3 0.93 c0.05 0.2 0 0.29-0.2 0.39 -0.69 0.34 -1.37 0.71 -2.05 1.07l-2 1-1.93 1c-0.69 0.35 -1.38 0.7 -2.06 1.07-0.2 0.11 -0.46 0.16 -0.56 0.42 a2.46 2.46 0 0 1-0.1 0.24 z" fill="#FFF"/>
  <path d="M12.74 18.16l0.92 0.43 2.22 1.07 1.9 0.92 c0.67 0.32 1.34 0.65 2 1 0.33 0.16 0.68 0.31 1 0.45 0.37 0.143 0.764 0.208 1.16 0.19 a4.33 4.33 0 0 0 1.86-0.56l1.5-0.74 2.8-1.35 2.57-1.23c0.79-0.37 1.57-0.76 2.36-1.14l2.44-1.2a2 2 0 0 1 0 0.2v5.14a3.13 3.13 0 0 1-0.69 1.82 10.68 10.68 0 0 1-2.8 2.6 17.75 17.75 0 0 1-2.67 1.47c-0.54 0.24 -1.11 0.44 -1.67 0.63 a16.16 16.16 0 0 1-1.68 0.49 c-0.52 0.13 -1 0.19-1.58 0.29 -0.84 0.14 -1.69 0.2 -2.54 0.18 -0.79 0-1.57 0-2.36-0.12a13.1 13.1 0 0 1-1.85-0.35c-0.73-0.18-1.44-0.41-2.15-0.65-0.51-0.18-1-0.41-1.52-0.61a0.32 0.32 0 0 1-0.21-0.29c-0.09-0.82-0.19-1.65-0.29-2.47-0.08-0.67-0.16-1.33-0.25-2-0.12-1-0.25-2-0.38-3l-0.12-1a1.72 1.72 0 0 1 0.03-0.17zM11.27 17.66c0 0.21 0.07 0.41 0.09 0.61 0.09 0.62 0.17 1.23 0.25 1.84 0.08 0.61 0.13 1.12 0.21 1.68 0.09 0.71 0.19 1.43 0.28 2.14 0.05 0.36 0.09 0.72 0.14 1.08 0.1 0.76 0.21 1.52 0.32 2.28l0.09 0.66 c0.06 0.47 0.11 0.94 0.18 1.41a1.36 1.36 0 0 1-0.39 1.07 1.51 1.51 0 0 1-1.59 0.5 1.58 1.58 0 0 1-1.09-1 1.32 1.32 0 0 1 0-0.81c0-0.23 0.07 -0.46 0.1 -0.7 0.07 -0.58 0.13 -1.15 0.21 -1.73 0.08 -0.58 0.15 -1 0.23-1.55l0.09-0.7c0.1-0.76 0.18 -1.53 0.28 -2.29 0.1 -0.76 0.16 -1.31 0.25 -2s0.17-1.33 0.27 -2c0-0.19 0.06 -0.37 0.09 -0.56l-0.01 0.07 zM8.13 15.93l1.11 0.54 c0.19 0.09 0.38 0.19 0.57 0.27 a0.19 0.19 0 0 1 0.12 0.23 l-0.12 1c-0.08 0.64 -0.15 1.29-0.23 1.93-0.08 0.64 -0.16 1.1-0.24 1.66 0 0.26-0.07 0.52 -0.09 0.78 -0.02 0.26 -0.07 0.66 -0.1 1v0.16h-0.06a8.17 8.17 0 0 1-0.49-0.71 3 3 0 0 1-0.46-1.68v-4.88c-0.03-0.08-0.02-0.17-0.01-0.3z" fill="#FFF"/>
</svg>
