<?xml version="1.0" ?>
<svg xmlns="http://www.w3.org/2000/svg" width="44" height="30" viewBox="0 0 44 30">
  <path d="M43.94 13.17H14.3l0.22-0.22 5.15-4.58a0.41 0.41 0 0 0 0.11-0.28V3.9h1.86v2.69l0.23-0.17 5.36-4.78L29 0.08a0.19 0.19 0 0 1 0.31 0l6.35 5.67 5 4.39L43.77 13l0.21 0.17 h-0.04zM32.88 23.86h-7.47v-0.22-7.14c0-0.2 0.07 -0.24 0.25 -0.24h7c0.28 0 0.28 0 0.28 0.29 v7.31h-0.06zM29.14 27.07H17.55c-0.26 0-0.26 0-0.26-0.27v-1.4c0-0.2 0.06 -0.25 0.24 -0.25h23.21c0.25 0 0.26 0 0.26 0.27 v1.42c0 0.18 0 0.23-0.22 0.23 H29.14zM29.15 29.48H17.56c-0.27 0-0.27 0-0.27-0.26v-0.66c0-0.22 0.06 -0.23 0.23 -0.23h23.16c0.32 0 0.32 0 0.32 0.31 v0.63c0 0.21 0 0.21-0.21 0.21 H29.15zM29.14 15H17.53c-0.2 0-0.26-0.06-0.24-0.26 0.02 -0.2 0-0.33 0-0.5 0-0.38-0.07-0.35 0.36 -0.35H40.7c0.3 0 0.3 0 0.3 0.31 v0.58c0 0.19 0 0.22-0.2 0.21 H29.14V15zM24.13 23.86h-6.6c-0.2 0-0.25-0.05-0.25-0.25v-2.69c0-0.16 0-0.22 0.2 -0.22H24c0.12 0 0.19 0 0.19 0.17 v2.87s-0.06 0.07 -0.06 0.12 zM34.16 23.85v-2.93c0-0.16 0.05 -0.21 0.21 -0.21h6.42c0.16 0 0.23 0 0.22 0.22 v2.75c0 0.12 0 0.19-0.17 0.19 h-6.58l-0.1-0.02zM24.14 19.42h-6.59c-0.26 0-0.26 0-0.26-0.27v-2.63c0-0.25 0-0.26 0.26 -0.26h6.3c0.29 0 0.29 0 0.29 0.29 v2.87zM34.15 19.41v-3c0-0.12 0.05 -0.16 0.15 -0.16h6.53c0.12 0 0.17 0 0.17 0.18 v2.81c0 0.17-0.08 0.17 -0.2 0.17 h-6.65zM16.86 18.86h-0.41zM7.16 28.88H4.87a1.78 1.78 0 0 1-0.39-0.07l-0.89-0.19-0.88-0.2-0.83-0.18-0.79-0.17-0.85-0.18H0.16a0.22 0.22 0 0 1-0.16-0.2 0.24 0.24 0 0 1 0.19-0.21h0.15l1.92 0.11 c0.64 0 1.29 0.06 1.94 0.09 1.61 0.06 3.22 0.07 4.84 0 0.9 0 1.81-0.06 2.71-0.1 0.68 0 1.35-0.06 2-0.1h0.57a0.63 0.63 0 0 1 0.19 0 0.22 0.22 0 0 1 0.16 0.22 0.26 0.26 0 0 1-0.2 0.2 l-0.6 0.11 -0.83 0.17 -0.94 0.19 -0.8 0.16 -0.8 0.16 -0.77 0.15 a1.83 1.83 0 0 1-0.4 0.05 l-2.17-0.01zM7.29 27.19a26.87 26.87 0 0 1-2.69-0.1c-0.5 0-1-0.1-1.49-0.17a3.88 3.88 0 0 1-1-0.26 0.62 0.62 0 0 1-0.17-0.11 0.12 0.12 0 0 1 0-0.21 2 2 0 0 1 0.32-0.17 6.42 6.42 0 0 1 1.14-0.24h0.13c0.05 0 0.07 0 0.07 0.06 -0.01 0.11 -0.01 0.22 0 0.33a0.43 0.43 0 0 0 0 0.19 0.26 0.26 0 0 0 0.24 0.17 0.29 0.29 0 0 0 0.24-0.23 2.81 2.81 0 0 0 0-0.29 1.48 1.48 0 0 0 0-0.21c0-0.06 0-0.08 0.07 -0.09 0.31 0 0.63-0.06 0.94 -0.07 0.92 -0.06 1.83-0.08 2.74-0.06 0.62 0 1.23 0 1.84 0.08 0.36 0 0.73 0.05 1.09 0.09 a7.84 7.84 0 0 1 1.43 0.27 c0.127 0.03 0.249 0.081 0.36 0.15 0.16 0.09 0.15 0.2 0 0.3-0.17 0.1 -0.356 0.168 -0.55 0.2 -0.307 0.073 -0.617 0.133 -0.93 0.18 -0.26 0-0.53 0.06 -0.8 0.09 s-0.66 0.05 -1 0.06l-2 0.08 0.02 -0.04zM7.28 25.18l-2.45-0.1c-0.23 0-0.46 0-0.69-0.06-0.06 0-0.09 0-0.09-0.09v-1c0-0.06 0-0.09 0.09 -0.1l1.49-0.1c0.06 0 0.07 0 0.07 0.09 v0.88c0 0.074 0.02 0.147 0.06 0.21a0.24 0.24 0 0 0 0.42 0 0.48 0.48 0 0 0 0.05-0.31c0-0.27-0.07-0.54-0.1-0.81 0-0.06 0-0.08 0.07 -0.08H9.67c0.06 0 0.07 0 0.07 0.08 a0.73 0.73 0 0 0 0 0.36 0.27 0.27 0 0 0 0.21 0.2 0.26 0.26 0 0 0 0.29-0.23c0.01-0.1 0.01 -0.2 0-0.3 0-0.05 0-0.07 0.08 -0.07 0.37 0.05 0.74 0.08 1.12 0.14 a4.33 4.33 0 0 1 1.06 0.26 0.94 0.94 0 0 1 0.22 0.12 0.12 0.12 0 0 1 0 0.21c-0.11 0.08 -0.23 0.14 -0.36 0.18 -0.384 0.12 -0.78 0.2 -1.18 0.24 a24.39 24.39 0 0 1-3.18 0.25 h-0.72v0.03zM7.29 21.66c-0.71 0-1.41 0-2.12 0.11 -0.41 0-0.82 0.1 -1.22 0.16 a0.39 0.39 0 0 0-0.28 0.22 0.12 0.12 0 0 0 0 0.18 0.13 0.13 0 0 1 0 0.14v0.47c0 0.16 0 0.07-0.08 0.06 l-1-0.16a2.19 2.19 0 0 1-0.59-0.21c-0.23-0.12-0.19-0.28 0-0.4 0.15 -0.109 0.32 -0.187 0.5 -0.23a6.24 6.24 0 0 1 1.29-0.32c0.47-0.08 1-0.14 1.43-0.2h0.64c0.06 0 0.08 0 0.09-0.1a2.21 2.21 0 0 1 0.17-0.76 0.48 0.48 0 0 1 0.47-0.3c0.197-0.01 0.393 -0.01 0.59 0 0.246 0.03 0.494 0.03 0.74 0 0.12-0.015 0.24 -0.015 0.36 0a0.54 0.54 0 0 1 0.43 0.45 c0 0.2 0.06 0.39 0.08 0.59 0.02 0.2 0 0.09 0.1 0.1l1.08 0.1 0.84 0.13 a5.72 5.72 0 0 1 1.53 0.44 c0.09 0.041 0.175 0.095 0.25 0.16 0.14 0.13 0.13 0.26 0 0.36a1.89 1.89 0 0 1-0.64 0.23 l-1.3 0.2 h-0.45c-0.05 0-0.07 0-0.08-0.06L10 22.3c0-0.1 0-0.13 0.12 -0.13h0.33c0.06 0.01 0.12 0.01 0.18 0 0.07 0 0.08-0.09 0-0.12a1.08 1.08 0 0 0-0.29-0.13c-0.24-0.05-0.48-0.07-0.72-0.1s-0.59-0.06-0.88-0.07l-1.45-0.09z" fill="#FFF"/>
  <path d="M7.85 23.18H6.14c-0.1 0-0.11 0-0.09-0.12 0.02 -0.12 0.06 -0.28 0.1 -0.42a0.33 0.33 0 0 1 0.11-0.13 4 4 0 0 1 0.48-0.32 0.82 0.82 0 0 1 0.8 0.07 0.73 0.73 0 0 1 0.22 0.27 0.35 0.35 0 0 0 0.46 0.2 0.16 0.16 0 0 0 0.14-0.19v-0.17c0-0.13 0-0.21 0.14 -0.21 0.152 0 0.303 0.02 0.45 0.06 a6.5 6.5 0 0 1 0.62 0.22 0.18 0.18 0 0 1 0.1 0.09 c0.072 0.17 0.1 0.356 0.08 0.54 0 0.05 0 0.05-0.08 0.05 H8.44l-0.59 0.06 zM7.23 29.1h2.22c0.1 0 0.1 0 0.1 0.11 v0.22c0 0.06 0 0.08-0.08 0.08 H5c-0.11 0-0.11 0-0.11-0.11v-0.21c0-0.07 0-0.09 0.08 -0.09h2.26zM3.63 24.41v0.48c0 0.06 0 0.07-0.08 0.06 -0.31-0.05-0.62-0.09-0.93-0.16a4 4 0 0 1-0.58-0.2c-0.08 0-0.16-0.08-0.16-0.17 0-0.09 0.08 -0.15 0.16 -0.18a5.1 5.1 0 0 1 0.59-0.2c0.31-0.07 0.63 -0.11 1-0.17 0.09 0 0.09 0 0.09 0.08 v0.46h-0.09zM5.31 23.15l-1.18-0.1c-0.07 0-0.08 0-0.07-0.09 0.01 -0.09 0.05 -0.27 0.08 -0.4a0.23 0.23 0 0 1 0.18-0.2c0.26-0.06 0.51 -0.14 0.77 -0.19a0.94 0.94 0 0 1 0.29 0c0.12 0 0.16 0.09 0.11 0.2 v0.1a0.15 0.15 0 0 0 0.1 0.22 c0.15 0 0.15 0 0.13 0.2 0.005 0.07 0.005 0.14 0 0.21 0 0 0 0.05-0.06 0.05 H5.31z" fill="#FFF"/>
  <path d="M7.37 21.37h-0.85c-0.09 0-0.1 0-0.08-0.09 0.02 -0.165 0.05 -0.329 0.09 -0.49 0-0.06 0.06 -0.08 0.12 -0.08h0.39c0.289 0.035 0.581 0.035 0.87 0h0.23c0.054 0 0.1 0.037 0.11 0.09 l0.06 0.49 c0 0.07 0 0.06-0.07 0.06 h-0.87v0.02z" fill="#00CE70"/>
</svg>
