<?xml version="1.0" ?>
<svg xmlns="http://www.w3.org/2000/svg" width="44" height="25" viewBox="0 0 44 25">
  <path d="M21.51 2.17l-5.38 0.05 c-0.31 0-0.32 0-0.32-0.31V1.1a1.08 1.08 0 0 0-1.1-1.1 1.06 1.06 0 0 0-1.12 1.07v0.91c0 0.3-0.06 0.25 -0.24 0.25 -1.73 0-3.46 0-5.19-0.1C6.6 2.09 5 2 3.46 1.94c-0.32 0-0.65-0.05-1-0.06a1.28 1.28 0 0 0-1.29 0.82 1.26 1.26 0 0 0 1.15 1.67c0.72 0 1.44-0.09 2.16-0.12C6 4.18 7.51 4.11 9 4.08c1.49-0.03 2.86-0.08 4.27-0.08 0.2 0 0.26 0.06 0.25 0.25 v1.12c0 0.2-0.06 0.26 -0.27 0.26 -0.82 0-1.66 0-2.48 0.13 a8.25 8.25 0 0 0-4 1.62 11.45 11.45 0 0 0-4.27 5.66 10.38 10.38 0 0 0-0.58 2.4 3.61 3.61 0 0 0 1.9 3.69 8.33 8.33 0 0 0 2.78 1 28.54 28.54 0 0 0 7.09 0.28 c1-0.06 2-0.12 3-0.2a13.61 13.61 0 0 0 4.27-0.93 5.85 5.85 0 0 0 2.79-2.43 5.15 5.15 0 0 1 2.75-2.15 12.85 12.85 0 0 1 4.05-0.7c2.22-0.08 4.45-0.15 6.67-0.21 1.39 0 2.79-0.05 4.18-0.08 0.41 0 0.81-0.06 1.22-0.1a0.72 0.72 0 0 0 0.67-0.6c0.063-0.2 0.097 -0.41 0.1 -0.62V9.72a1.44 1.44 0 0 0-0.09-0.51 3.54 3.54 0 0 0-1.7-2A2.65 2.65 0 0 0 38 8.77a4.35 4.35 0 0 1-0.32 0.74 1.22 1.22 0 0 1-1.12 0.66 l-5.34 0.09 a10.59 10.59 0 0 1-1.59-0.08A7.63 7.63 0 0 1 27 9.25c-1-0.54-2-1.12-2.94-1.66a13.22 13.22 0 0 0-4-1.42c-0.83-0.17-1.65-0.17-2.47-0.29-0.59-0.06-1.09-0.1-1.59-0.14-0.17 0-0.22-0.08-0.22-0.24V4.29c0-0.2 0-0.27 0.27 -0.27 1.72 0 3.44 0 5.16 0.1 1.72 0.1 3.67 0.16 5.51 0.25 a1.4 1.4 0 0 0 1.44-0.76 1.28 1.28 0 0 0-1.22-1.74L24.2 2l-2.69 0.11 v0.06zM10.72 18.83a22 22 0 0 1-3.93-0.35 7.15 7.15 0 0 1-2.08-0.77 2 2 0 0 1-1-2 9.6 9.6 0 0 1 1-3.2 10.84 10.84 0 0 1 2.8-3.4 7.26 7.26 0 0 1 4.41-1.74h2.62c0.18 0 0.21 0.08 0.18 0.23 -0.2 1-0.39 2-0.58 3-0.22 1.15-0.43 2.31-0.64 3.46l-0.87 4.57c0 0.16-0.1 0.25 -0.29 0.24 l-1.62-0.04zm7.46-4.09V14c0-0.31 0-0.31-0.31-0.31H16.4c-0.17 0-0.25-0.06-0.25-0.24V12.2c0-0.18 0.06 -0.24 0.24 -0.24H18c0.17 0 0.22-0.05 0.22 -0.21v-1.6c0-0.16 0.05 -0.22 0.21 -0.22h1.36c0.17 0 0.21 0.06 0.21 0.22 v1.6c0 0.16 0.06 0.21 0.22 0.21h1.57c0.18 0 0.25 0.06 0.25 0.24 v1.25c0 0.18-0.07 0.24 -0.25 0.24 h-1.6c-0.18 0-0.24 0.07 -0.24 0.24 v1.56c0 0.19-0.06 0.25 -0.25 0.25 h-1.28c-0.17 0-0.24-0.06-0.24-0.23v-0.77zM40.61 8.3a1.69 1.69 0 1 1-1.69 1.7 1.68 1.68 0 0 1 1.69-1.7z" fill="#FFF"/>
  <path d="M12.4 24.68H21.02a1 1 0 0 0 0.58-0.19 0.61 0.61 0 0 0 0.16-0.83c-0.16-0.28-0.31-0.55-0.48-0.81a1.48 1.48 0 0 0-1.28-0.73h-8.56c-2.42 0-4.84 0.09 -7.26 0.13 a2.2 2.2 0 0 1-1-0.16 4.5 4.5 0 0 1-2.09-2 3 3 0 0 1-0.2-0.62 0.39 0.39 0 0 0-0.42-0.3 0.34 0.34 0 0 0-0.36 0.31 c0 0.36-0.07 0.71 -0.09 1.06a3.15 3.15 0 0 0 0.57 1.83 4.74 4.74 0 0 0 1.25 1.39 4.81 4.81 0 0 0 1.61 0.74 c0.103 0.015 0.207 0.015 0.31 0l7.5 0.09 c0.39 0 0.77 0 1.16 0.06 l-0.02 0.03 z" fill="#FFF"/>
</svg>
