<?xml version="1.0" ?>
<svg xmlns="http://www.w3.org/2000/svg" width="31" height="36" viewBox="0 0 31 36">
  <path d="M30.728 23.12a10 10 0 0 1-1.54 3.74 8.5 8.5 0 0 1-6.37 3.53 1.12 1.12 0 0 0-0.74 0.4 8.46 8.46 0 0 1-4.6 3.2 0.7 0.7 0 0 0-0.61 0.58 1.49 1.49 0 0 1-1.54 1.23 1.51 1.51 0 0 1-1.6-1.16c-0.1-0.44-0.34-0.54-0.71-0.64a8.06 8.06 0 0 1-4.46-3 1.54 1.54 0 0 0-1.14-0.67 8.25 8.25 0 0 1-7.14-6.73 8.4 8.4 0 0 1 0.59-5.11 1.24 1.24 0 0 0 0-0.91 8.4 8.4 0 0 1 5.14-11.77 0.91 0.91 0 0 0 0.53-0.47 1.72 1.72 0 0 1 2-1.19 1 1 0 0 0 0.71-0.15 8.65 8.65 0 0 1 4.09-2.32c0.17 0 0.41-0.17 0.44 -0.3A2.14 2.14 0 0 1 15.008 0h0.81l1.19 1.17c0.19 0.2 0.36 0.49 0.6 0.57 a8.75 8.75 0 0 1 3.53 2.1 0.85 0.85 0 0 0 0.87 0.29 1.39 1.39 0 0 1 1.68 0.79 A1.47 1.47 0 0 0 25.008 6c0.237 0.07 0.468 0.16 0.69 0.27 a8.4 8.4 0 0 1 4.24 11.1 1.15 1.15 0 0 0-0.13 0.74 c0.28 1 0.63 1.94 1 2.9l-0.08 2.11zm-1.31-4.89a8.41 8.41 0 0 1-4.16 3.44c-0.64 0.23 -1.36 0.31 -1.51 1.17a0.43 0.43 0 0 1-0.21 0.25 c-0.34 0.18 -0.29 0.42 -0.21 0.74 a8.29 8.29 0 0 1-0.58 5.81 2.57 2.57 0 0 0-0.11 0.36 8 8 0 0 0 6.78-11.77zm0-0.85a7.89 7.89 0 0 0-5.41-11.3 1.82 1.82 0 0 1-0.32 0.56 c-0.49 0.38 -0.29 0.82 -0.24 1.31a26 26 0 0 1 0.07 3.05c0 0.73-0.53 1.51 0.34 2.09 0.064 0.063 0.1 0.15 0.1 0.24 0 0.43 0.3 0.53 0.64 0.62a8 8 0 0 1 3.62 2.05c0.43 0.45 0.79 0.93 1.19 1.38h0.01zM6.448 6.1a7.89 7.89 0 0 0-5.1 11.46l0.36-0.47a7.9 7.9 0 0 1 3.59-2.82c0.71-0.27 1.4-0.42 1.5-1.27 0-0.14 0.2 -0.24 0.27 -0.38a0.92 0.92 0 0 0 0.12-0.52 9.11 9.11 0 0 1 0-4.58 0.72 0.72 0 0 0-0.09-0.52c-0.19-0.29-0.41-0.56-0.65-0.9zm-5.14 12.27a8 8 0 0 0 0.47 8A7.8 7.8 0 0 0 7.898 30a8.71 8.71 0 0 1-0.63-6.63 1.6 1.6 0 0 0-0.81-1.37 8.62 8.62 0 0 1-5.15-3.63zm5.45 3.35c0.21-0.54 0.62 -1 0.53-1.45a9.78 9.78 0 0 1 0.14-5c-0.15-0.13-0.27-0.23-0.38-0.34-0.11-0.11-0.16-0.29-0.29-0.37-0.13-0.08-0.42-0.27-0.58-0.22a7.7 7.7 0 0 0-4.44 3.35 0.74 0.74 0 0 0 0 0.65 7.94 7.94 0 0 0 5.02 3.38zm17.37-7.54c-0.23 0.35 -0.43 0.59 -0.57 0.86 a0.94 0.94 0 0 0-0.14 0.59 8.69 8.69 0 0 1 0 4.5 0.76 0.76 0 0 0 0.09 0.53 c0.195 0.345 0.408 0.679 0.64 1a7.87 7.87 0 0 0 4.9-3.6 0.52 0.52 0 0 0 0-0.47 8 8 0 0 0-4.92-3.41zm-16.51 9.23a7.87 7.87 0 0 0 0.54 6.28c0.07 0.14 0.24 0.34 0.36 0.33 a7.11 7.11 0 0 0 3.49-0.87c-0.91-1.58-1.83-3.09-2.66-4.65-0.34-0.71-0.78-1.2-1.73-1.09zm10.92 5.86c1.17 0.27 2.2 0.52 3.24 0.71 a0.69 0.69 0 0 0 0.55-0.32 7.82 7.82 0 0 0 0.68-5.66c0-0.16-0.26-0.4-0.4-0.4-0.31 0-0.79 0-0.91 0.22 -1.05 1.69-2.03 3.47-3.16 5.45zm-3.59-20.81V3.64a0.75 0.75 0 0 0-1.14-0.64l-3.72 2.12a2.07 2.07 0 0 0-0.35 0.32 c0.963 0.346 1.905 0.75 2.82 1.21a23.08 23.08 0 0 1 2.39 1.81zm0.73 0.19 a9.2 9.2 0 0 1 4.73-3c0.44-0.11 0.3 -0.47 0-0.67L17.008 3a1 1 0 0 0-1.27 0.74 c-0.06 1.57-0.06 3.13-0.06 4.91zm-4.27 1.76l3.54-1C14.468 8 11.418 6 9.738 6.07c-0.07 0.36 -0.33 0.84 -0.19 1.12 0.56 1.12 1.24 2.17 1.86 3.22zm7.85 0c0.57-1 1.21-2 1.73-3.11 0.12 -0.24-0.14-0.71-0.3-1-0.06-0.1-0.39-0.13-0.57-0.08a7.73 7.73 0 0 0-4.11 2.64c-0.124 0.18 -0.231 0.37 -0.32 0.57 l3.57 0.98 zm-10.61 20.1a8 8 0 0 0 4.58 3.19 0.62 0.62 0 0 0 0.51-0.11c0.17-0.26 0.42 -0.67 0.32 -0.86-0.55-1.09-1.19-2.13-1.76-3.12l-3.65 0.9 zm9.75-1c-0.58 1-1.21 2.1-1.81 3.19-0.2 0.38 0.24 1.09 0.61 1a7.71 7.71 0 0 0 4.63-3.21l-3.43-0.98zm-0.88-11.65a8.84 8.84 0 0 1 3.84 2.36 0.47 0.47 0 0 0 0.4 0.12 0.44 0.44 0 0 0 0.25-0.34v-4.29c0-0.42-0.31-0.51-0.58-0.22a9.21 9.21 0 0 1-3.91 2.38v-0.01zm-4.66 0a17.72 17.72 0 0 1-2-1c-0.61-0.4-1.14-0.92-1.72-1.38a2.38 2.38 0 0 0-0.57-0.21v4.53c0 0.13 0.09 0.35 0.18 0.37a0.55 0.55 0 0 0 0.47-0.09 9 9 0 0 1 3.64-2.19v-0.03zm3.13-8l0.94 4.62 2.15-3.79-3.09-0.83zm-5.58 15l2.33 4 1.74-1.5c-0.23-0.33-0.38-0.58-0.56-0.8a1.47 1.47 0 0 0-0.48-0.48c-1-0.42-2.01-0.81-3.03-1.22zm1.19-14.14l2.13 3.62 0.92 -4.48-3.05 0.86 zm5.81 4.42a9.73 9.73 0 0 1 2.26-1c1-0.18 1.25-0.93 1.64-1.69l-1.62-1.32-2.28 4.01zm-8.66-7.75l-0.17 0.05 v4.51c0 0.32 0.35 0.51 0.68 0.24 0.51 -0.43 1-0.88 1.52-1.35l-2.03-3.45zm2.26 3.77l-1.6 1.36c0.26 0.47 0.38 1.08 0.71 1.24a30.61 30.61 0 0 0 3.09 1.13l-2.2-3.73zm7 17.6l2.19-3.87a9.47 9.47 0 0 1-1.88 0.86 2.59 2.59 0 0 0-1.89 1.67l1.58 1.34zm-2.19-1.44v5.29l2-3.53-2-1.76zm6.19-19.8h-0.19l-1.94 3.28c0.56 0.49 1.09 1 1.64 1.42 0.06 0 0.42-0.12 0.42 -0.18 0.07 -1.51 0.07 -3.04 0.07 -4.52zm-7.14 25l0.1-0.07v-4.99l-2 1.73 1.9 3.33zm-4.72-10.28l-0.05 0.12 4.29 2.49-0.38-2.61h-3.86zm6.75 0l-0.42 2.61 4.15-2.51-0.06-0.1h-3.67zm-7.32 0.76 c0.06 1 2.73 2.69 4.17 2.67-0.07-0.4-2.74-2.12-4.17-2.67zm11.61 0.08 l-0.13-0.16c-1.29 0.78 -2.58 1.55-3.87 2.34-0.1 0.07 -0.11 0.27 -0.23 0.56 1.78-0.56 3.39-1.07 4.23-2.72v-0.02zm-4.7-4.21c0.21 1.32 2.86 2.77 4.29 2.48l-4.29-2.48zm-1.56-2.76v-5.37c-0.92 1.86-0.92 4.45 0 5.39v-0.02zM9.248 15c1.09 1.41 3.52 2.73 4.39 2.41-0.34-0.5-3.85-2.41-4.39-2.41zm6.5 1.2c0.88-0.89 0.81 -4 0-5.36v5.36zm-1.54 2.71l-4.15 2.41c1.39 0.24 3.83-1.16 4.15-2.41zm-0.56-0.74a6.9 6.9 0 0 0-4.25 2.32c0.48 0.11 3.44-1.49 4.25-2.32zm3.08-0.72c1.37 0.22 4.39-1.6 4.38-2.54l-4.38 2.54zm-2.91-15.31l-0.11-0.22a7.72 7.72 0 0 0-4.41 2.53l0.11 0.18 4.41-2.49zm2.38 15.56a0.93 0.93 0 0 0-0.91-0.87 0.94 0.94 0 0 0-0.9 0.9 1 1 0 0 0 0.95 0.92 1 1 0 0 0 0.86-0.95zm6.18-2.94a0.9 0.9 0 1 0 0-1.8 0.9 0.9 0 0 0 0 1.8zm-8 19.45a0.9 0.9 0 0 0 0.94 0.85 0.87 0.87 0 0 0 0.86-0.91 0.9 0.9 0 0 0-0.93-0.86 0.91 0.91 0 0 0-0.86 0.92 h-0.01zm1-7.44a0.88 0.88 0 1 0 0-1.76 0.88 0.88 0 0 0 0 1.76zm-8.14-21a1 1 0 0 0 0.9 0.91 0.91 0.91 0 0 0 0-1.81 0.94 0.94 0 0 0-0.87 0.89 l-0.03 0.01 zm9.06-4.08a0.92 0.92 0 0 0-0.88-0.92 1 1 0 0 0-0.93 0.87 c0 0.491 0.389 0.894 0.88 0.91a0.89 0.89 0 0 0 0.96-0.87l-0.03 0.01 zm7 20.2a0.9 0.9 0 1 0-0.9 0.9 0.92 0.92 0 0 0 0.92-0.91l-0.02 0.01 zm-14.2-8.1a0.89 0.89 0 0 0-1.77 0 0.89 0.89 0 0 0 1.77 0zm14.09-8.07a0.9 0.9 0 0 0-0.91-0.88 0.91 0.91 0 0 0-0.9 0.89 0.91 0.91 0 0 0 0.92 0.87 0.87 0.87 0 0 0 0.89-0.88zm-15.43 6.42V7.47h-0.17a6.54 6.54 0 0 0 0.17 4.67zm1.58 9.69a0.85 0.85 0 0 0-0.89-0.83 0.9 0.9 0 0 0-0.9 0.89 0.91 0.91 0 0 0 0.91 0.88 0.87 0.87 0 0 0 0.88-0.94zm13.38-9.67h0.18a6.39 6.39 0 0 0-0.18-4.82v4.82zm0.1 3.33v4.75h0.19a6.46 6.46 0 0 0-0.19-4.75zm-1.81-10.93c-0.48-1.18-2.92-2.56-4-2.41l4 2.41zm-11.08 9.69l4.08 2.33 0.1 -0.17a6.2 6.2 0 0 0-4.18-2.16zm7.08 3.88v0.17l4.14 2.39a6.84 6.84 0 0 0-4.14-2.56zm-9.17-2.58a6 6 0 0 0 0 4.62v-4.62zm12.81-1.24a5.76 5.76 0 0 0-3.91 2.27l3.91-2.27zm-6.41 5.61l-2.15 1.52h1.92l0.23-1.52zm1.46 2.3v1.73c0 0.12 0.13 0.23 0.2 0.35 0.1 -0.08 0.28 -0.15 0.3 -0.24 0.13 -0.6 0.22 -1.2 0.32 -1.84h-0.82zm0.23-2.9l-0.2 0.06 v2.06h0.76a4.58 4.58 0 0 0-0.56-2.12zm2.68 2.14l-2-1.31 0.21 1.31h1.79zm-3.66 0.79 c-0.48-0.14-0.67 0-0.58 0.47 0.09 0.47 0.15 0.88 0.25 1.31 0 0.11 0.15 0.19 0.33 0.42v-2.2zm0-2.8h-0.2l-0.43 2h0.63v-2z" fill="#FFF"/>
</svg>
