<?xml version="1.0" ?>
<svg xmlns="http://www.w3.org/2000/svg" width="69" height="108" viewBox="0 0 69 108">
  <path d="M6 0h57a6 6 0 0 1 6 6v96a6 6 0 0 1-6 6H6a6 6 0 0 1-6-6V6a6 6 0 0 1 6-6zm21.504 10.286c-8.521 0-15.429 6.907-15.429 15.428s6.908 15.429 15.429 15.429H39.77c8.521 0 15.429-6.908 15.429-15.429 0-8.52-6.908-15.428-15.429-15.428H27.504zm0 54.857c-8.521 0-15.429 6.907-15.429 15.428S18.983 96 27.504 96H39.77C48.292 96 55.2 89.092 55.2 80.571c0-8.52-6.908-15.428-15.429-15.428H27.504zm6.975-13.714a3.429 3.429 0 0 0 0 6.857h0.042a3.429 3.429 0 1 0 0-6.857h-0.042z" fill="#FFF"/>
  <path d="M29 29h7v7h-7zM29 85h7v7h-7zM43 13h3v13h-3zM23 13h3v13h-3z" fill="#FFF"/>
  <path d="M 27.5 10 L 41.5 10 Q 56 10 56 24.5 L 56 24.5 Q 56 39 41.5 39 L 27.5 39 Q 13 39 13 24.5 L 13 24.5 Q 13 10 27.5 10 Z" fill="none"/>
  <path d="M43 13h3v13h-3zM23 13h3v13h-3z" fill="#FFF"/>
  <path d="M 27.5 65 L 41.5 65 Q 56 65 56 79.5 L 56 79.5 Q 56 94 41.5 94 L 27.5 94 Q 13 94 13 79.5 L 13 79.5 Q 13 65 27.5 65 Z" fill="none"/>
  <path d="M43 69h3v13h-3zM23 69h3v13h-3z" fill="#FFF"/>
</svg>
