<?xml version="1.0" ?>
<svg xmlns="http://www.w3.org/2000/svg" width="35" height="35" viewBox="0 0 35 35">
  <path d="M34.91 9.43a0.93 0.93 0 0 1-0.3 0.65 l-4.34 4.33-20.18 20.18a1 1 0 0 1-0.6 0.32 0.86 0.86 0 0 1-0.69-0.31L5 30.81l-4.69-4.7a0.88 0.88 0 0 1-0.31-0.6 0.89 0.89 0 0 1 0.31-0.68l5-5L24.82 0.32 a0.9 0.9 0 0 1 0.62-0.32 0.85 0.85 0 0 1 0.67 0.31 l3.62 3.61L34.6 8.8a0.87 0.87 0 0 1 0.31 0.63 zm-4.85-2.5L30 7l-0.5 0.5 c-0.17 0.17 -0.17 0.17 0 0.34 0.5 0.56 1.03 1.16 1.58 1.64 0.1 0.1 0.11 0.17 0 0.27a2.27 2.27 0 0 0-0.31 0.31 c-0.1 0.11 -0.17 0.1 -0.26 0l-1.57-1.57c-0.25-0.25-0.21-0.26-0.46 0s-0.16 0.16 0 0.32c0.54 0.55 1.09 1.1 1.64 1.64 0.1 0.1 0.1 0.17 0 0.26a2.91 2.91 0 0 0-0.31 0.3 c-0.1 0.12 -0.17 0.11 -0.28 0l-1.65-1.65c-0.1-0.11-0.17-0.11-0.27 0s-0.32 0.31 -0.47 0.47 c-0.15 0.16 -0.18 0.17 0 0.34l1.63 1.63c0.1 0.09 0.11 0.16 0 0.26s-0.22 0.2 -0.32 0.31 c-0.1 0.11 -0.16 0.11 -0.26 0-0.51-0.53-1-1.05-1.56-1.57-0.25-0.25-0.2-0.27-0.47 0-0.27 0.27 -0.16 0.17 0 0.34l1.62 1.61c0.11 0.1 0.13 0.18 0 0.28a2.91 2.91 0 0 0-0.3 0.31 c-0.1 0.12 -0.17 0.09 -0.27 0l-1.57-1.57c-0.24-0.24-0.2-0.24-0.45 0s-0.16 0.16 0 0.32c0.54 0.55 1.09 1.09 1.64 1.64 0.1 0.09 0.11 0.16 0 0.26-0.104 0.086 -0.2 0.18 -0.29 0.28 -0.11 0.14 -0.19 0.13 -0.31 0l-1.63-1.64c-0.11-0.11-0.18-0.12-0.28 0-0.16 0.18 -0.33 0.35 -0.51 0.51 -0.12 0.11 -0.1 0.18 0 0.29l1.64 1.63c0.12 0.12 0.12 0.2 0 0.3a1.59 1.59 0 0 0-0.29 0.29 c-0.1 0.12 -0.17 0.1 -0.28 0-0.51-0.53-1-1.05-1.56-1.57-0.25-0.25-0.21-0.25-0.45 0-0.24 0.25 -0.17 0.16 0 0.33 0.56 0.59 1.13 1.08 1.64 1.59 0.12 0.12 0.12 0.2 0 0.3a2.37 2.37 0 0 0-0.27 0.28 c-0.11 0.13 -0.19 0.11 -0.3 0L22.31 15c-0.12-0.13-0.2-0.13-0.32 0s-0.3 0.31 -0.45 0.46 c-0.15 0.15 -0.17 0.17 0 0.33 0.54 0.54 1.08 1.09 1.63 1.62 0.1 0.11 0.11 0.18 0 0.28a2.2 2.2 0 0 0-0.31 0.3 c-0.09 0.12 -0.16 0.11 -0.27 0L21 16.41c-0.26-0.26-0.2-0.27-0.48 0-0.12 0.12 -0.12 0.19 0 0.32 0.56 0.54 1.1 1.09 1.65 1.64 0.1 0.09 0.11 0.16 0 0.25s-0.21 0.2 -0.31 0.31 c-0.1 0.11 -0.17 0.11 -0.27 0l-1.55-1.56c-0.27-0.26-0.22-0.27-0.48 0s-0.15 0.15 0 0.31l1.64 1.63c0.11 0.11 0.11 0.18 0 0.28a1.59 1.59 0 0 0-0.29 0.29 c-0.11 0.13 -0.19 0.11 -0.3 0L19 18.24c-0.12-0.12-0.2-0.12-0.31 0-0.11 0.12 -0.31 0.3 -0.46 0.46 -0.15 0.16 -0.17 0.16 0 0.33l1.64 1.64c0.09 0.09 0.1 0.16 0 0.25a2.27 2.27 0 0 0-0.31 0.31 c-0.1 0.12 -0.17 0.11 -0.28 0-0.51-0.53-1-1-1.56-1.57-0.25-0.24-0.21-0.24-0.45 0-0.24 0.24 -0.17 0.17 0 0.34l1.6 1.6c0.12 0.11 0.15 0.19 0 0.31a2.37 2.37 0 0 0-0.28 0.27 c-0.1 0.13 -0.18 0.11 -0.29 0-0.54-0.55-1.09-1.08-1.63-1.63-0.12-0.13-0.2-0.12-0.31 0a4.17 4.17 0 0 1-0.47 0.47 c-0.13 0.12 -0.12 0.19 0 0.31 0.55 0.54 1.09 1.1 1.64 1.64 0.11 0.1 0.12 0.18 0 0.27-0.12 0.09 -0.21 0.2 -0.3 0.3 -0.09 0.1 -0.17 0.11 -0.27 0L15.45 22c-0.26-0.26-0.21-0.27-0.48 0s-0.13 0.19 0 0.31L16.62 24c0.1 0.09 0.1 0.15 0 0.24s-0.22 0.21 -0.32 0.33 c-0.1 0.12 -0.17 0.1 -0.25 0l-0.05-0.13c-0.53-0.53-1.06-1.07-1.6-1.6 0 0-0.16-0.06-0.18 0-0.02 0.06 -0.28 0.16 -0.27 0.36 l0.05 0.06 c0.034 0.04 0.07 0.076 0.11 0.11 l1.59 1.59c0.1 0.09 0.1 0.16 0 0.25-0.11 0.09 -0.21 0.19 -0.3 0.3 -0.11 0.12 -0.18 0.12 -0.3 0l-1.65-1.66c-0.1-0.1-0.16-0.1-0.26 0s-0.32 0.33 -0.48 0.49 c-0.16 0.16 -0.17 0.17 0 0.33l1.64 1.64c0.1 0.09 0.11 0.16 0 0.25l-0.35 0.24 c-0.16 0.16 -0.16 0.16 -0.32 0l-1.48-1.5c-0.3-0.29-0.22-0.31-0.56 0-0.07 0.08 -0.08 0.14 0 0.22l0.11 0.1 1.59 1.59c0.1 0.09 0.11 0.16 0 0.25-0.114 0.096 -0.22 0.2 -0.32 0.31 -0.09 0.12 -0.17 0.12 -0.27 0-0.52-0.53-1-1.05-1.57-1.57-0.25-0.26-0.21-0.24-0.45 0-0.24 0.24 -0.17 0.17 0 0.33 0.53 0.54 1.07 1.08 1.61 1.61 0.12 0.11 0.15 0.19 0 0.3a2.2 2.2 0 0 0-0.27 0.26 c-0.16 0.16 -0.16 0.16 -0.32 0l-1.63-1.64c-0.1-0.09-0.17-0.11-0.27 0s-0.33 0.35 -0.5 0.51 c-0.17 0.16 -0.11 0.18 0 0.3L11 29.53c0.12 0.11 0.12 0.19 0 0.29a1.59 1.59 0 0 0-0.29 0.29 c-0.1 0.12 -0.18 0.1 -0.29 0-0.51-0.52-1-1-1.55-1.55-0.26-0.26-0.21-0.25-0.46 0s-0.16 0.16 0 0.32C9 29.41 9.49 30 10 30.48c0.13 0.13 0.13 0.2 0 0.31a2.23 2.23 0 0 0-0.26 0.27 c-0.11 0.14 -0.19 0.11 -0.31 0l-1.58-1.62c-0.16-0.16-0.16-0.16-0.32 0s-0.31 0.32 -0.48 0.47 c-0.17 0.15 -0.11 0.18 0 0.3l3.14 3.13c0.2 0.2 0.2 0.2 0.39 0l19.48-19.47 3.34-3.34c0.09-0.09 0.13 -0.16 0-0.27L30.18 7l-0.12-0.07zM16 15.28a2.6 2.6 0 0 0-0.13-0.24l-0.3-0.3c-0.19-0.18-0.33-0.19-0.51 0s-0.17 0.1 -0.27 0c-0.44-0.46-0.89-0.91-1.34-1.35-0.45-0.44-0.21-0.28-0.5 0-0.13 0.11 -0.12 0.19 0 0.3 0.48 0.48 0.95 1 1.44 1.43 0.12 0.12 0.13 0.19 0 0.31a0.29 0.29 0 0 0 0 0.46l0.29 0.29 c0.19 0.19 0.32 0.19 0.51 0s0.17-0.1 0.27 0c0.44 0.46 0.89 0.9 1.34 1.35 0.45 0.45 0.23 0.29 0.52 0 0.12-0.11 0.11 -0.18 0-0.29-0.5-0.48-1-1-1.48-1.46-0.09-0.1-0.1-0.16 0-0.25a1.56 1.56 0 0 0 0.16-0.25zm4.53-6.41l-0.21 0.13 c-0.17 0.19 -0.17 0.31 0 0.49l0.29 0.29 c0.19 0.18 0.31 0.19 0.49 0s0.19-0.1 0.29 0c0.51 0.52 1 1 1.54 1.54 0.27 0.28 0.19 0.29 0.49 0 0.12-0.11 0.12 -0.19 0-0.31l-1.63-1.57c-0.12-0.11-0.13-0.19 0-0.3a0.3 0.3 0 0 0 0-0.48l-0.28-0.27c-0.2-0.2-0.33-0.21-0.52 0s-0.16 0.1 -0.26 0C20.35 8 20 7.6 19.57 7.22c-0.43-0.38-0.21-0.29-0.51 0-0.11 0.1 -0.12 0.17 0 0.27l1 1 0.47 0.38 zM15 17.4a1.12 1.12 0 0 0-0.11-0.22l-0.31-0.32c-0.2-0.18-0.33-0.19-0.51 0s-0.17 0.09 -0.27 0l-1.94-1.94c-0.26-0.26-0.2-0.27-0.48 0-0.12 0.12 -0.13 0.19 0 0.32l2 2c0.12 0.12 0.14 0.19 0 0.31s-0.16 0.3 0 0.47l0.27 0.28 c0.2 0.19 0.34 0.19 0.53 0s0.17-0.09 0.26 0l0.76 0.76 c0.3 0.3 0.2 0.31 0.53 0 0.11-0.1 0.09 -0.17 0-0.26-0.29-0.28-0.57-0.58-0.87-0.86-0.12-0.12-0.15-0.2 0-0.32a0.93 0.93 0 0 0 0.14-0.22zm2.13-4c-0.05-0.09-0.08-0.16-0.12-0.22l-0.3-0.31c-0.2-0.2-0.33-0.2-0.52 0s-0.17 0.1 -0.26 0l-0.95-1c-0.31-0.29-0.22-0.31-0.54 0-0.11 0.1 -0.1 0.17 0 0.26 0.36 0.35 0.71 0.72 1.08 1.07 0.12 0.11 0.12 0.18 0 0.3s-0.16 0.31 0 0.48a4 4 0 0 0 0.29 0.29 c0.18 0.17 0.3 0.18 0.48 0s0.17-0.12 0.28 0L18.31 16c0.26 0.26 0.21 0.26 0.47 0s0.16-0.17 0-0.33L17 13.86c-0.11-0.11-0.11-0.17 0-0.28a2.29 2.29 0 0 0 0.11-0.23l0.02 0.05 zm0.74-3.3c0.043 0.081 0.093 0.158 0.15 0.23 0.09 0.11 0.2 0.21 0.31 0.32 a0.29 0.29 0 0 0 0.47 0c0.12-0.13 0.19 -0.11 0.31 0l2.31 2.31c0.27 0.27 0.22 0.24 0.46 0 0.24-0.24 0.16 -0.16 0-0.32-0.79-0.78-1.58-1.57-2.36-2.36-0.18-0.17-0.18-0.17 0-0.35a0.29 0.29 0 0 0 0-0.43l-0.26-0.27c-0.24-0.24-0.33-0.25-0.58 0-0.08 0.07 -0.13 0.08 -0.21 0l-0.4-0.4c-0.27-0.28-0.27-0.27-0.54 0-0.1 0.1 -0.08 0.16 0 0.25s0.35 0.36 0.53 0.53 c0.18 0.17 0.09 0.14 0 0.23a2.93 2.93 0 0 0-0.21 0.21 l0.02 0.05 zm0.8 1.75a1.3 1.3 0 0 0-0.12-0.21c-0.09-0.11-0.2-0.21-0.3-0.31-0.1-0.1-0.32-0.21-0.52 0s-0.17 0.09 -0.27 0c-0.31-0.33-0.64-0.65-1-1s-0.2-0.28-0.51 0c-0.1 0.1 -0.11 0.16 0 0.27 0.36 0.34 0.71 0.7 1.07 1.05 0.12 0.12 0.15 0.2 0 0.33s-0.17 0.28 0 0.45l0.29 0.29 c0.19 0.18 0.33 0.19 0.51 0s0.17-0.1 0.28 0l1.73 1.73c0.29 0.29 0.2 0.29 0.5 0 0.12-0.11 0.12 -0.18 0-0.3-0.61-0.59-1.21-1.2-1.81-1.8-0.16-0.16-0.16-0.16 0-0.33a2.14 2.14 0 0 0 0.13-0.22l0.02 0.05 zM4.27 28.89a2 2 0 0 0 0.3-0.22L8.22 25c0.2-0.2 0.24 -0.36 0.1 -0.49-0.14-0.13-0.29-0.11-0.49 0.1 l-3.64 3.66c-0.05 0-0.12 0.09 -0.13 0.15 a0.45 0.45 0 0 0 0 0.28c0.01 0.08 0.12 0.12 0.21 0.19 zm-0.71-0.81s0.14-0.09 0.22 -0.16l3.69-3.7 0.11 -0.11a0.27 0.27 0 0 0 0-0.37c-0.13-0.11-0.27-0.1-0.42 0.05 l-3.81 3.77a0.71 0.71 0 0 0-0.1 0.14 c-0.08 0.17 0.06 0.38 0.31 0.38 zm5.29-2.86a1.08 1.08 0 0 0-0.22 0.15 c-1.24 1.23-2.47 2.47-3.7 3.7l-0.09 0.1 a0.27 0.27 0 0 0 0 0.37 0.29 0.29 0 0 0 0.37 0 0.69 0.69 0 0 0 0.13-0.11L9 25.79a0.63 0.63 0 0 0 0.15-0.18c0.09-0.19-0.03-0.38-0.3-0.39zm-2-2c0-0.21-0.12-0.34-0.27-0.32a0.53 0.53 0 0 0-0.28 0.16 c-0.81 0.79 -1.61 1.6-2.42 2.4-0.43 0.44 -0.87 0.88 -1.31 1.31-0.1 0.1 -0.17 0.21 -0.1 0.35 a0.27 0.27 0 0 0 0.46 0.07 c0.24-0.22 0.46 -0.45 0.69 -0.68l3.07-3.07a1.65 1.65 0 0 0 0.17-0.21l-0.01-0.01zM2 26.58a2.6 2.6 0 0 0 0.3-0.22l3.5-3.55 0.2 -0.21a0.272 0.272 0 1 0-0.39-0.38l-0.08 0.07 L1.85 26s-0.1 0.08 -0.11 0.13 a0.57 0.57 0 0 0 0 0.29c0.02 0.04 0.12 0.08 0.26 0.16 zm3.41-4.94a0.91 0.91 0 0 0-0.16-0.23c-0.13-0.11-0.25-0.08-0.42 0.09 l-2.6 2.6L1 25.26a0.28 0.28 0 0 0 0 0.46 0.27 0.27 0 0 0 0.36-0.07l0.73-0.65 3.06-3.06a3.4 3.4 0 0 0 0.21-0.3h0.05zM28 6.48a0.68 0.68 0 0 0 0.7-0.67 0.7 0.7 0 0 0-0.67-0.7 0.69 0.69 0 0 0-0.7 0.68 0.67 0.67 0 0 0 0.67 0.69 zm-0.85 0.86 a0.67 0.67 0 0 0-0.67-0.68 0.69 0.69 0 0 0-0.7 0.68 c0.01 0.38 0.32 0.685 0.7 0.69 a0.68 0.68 0 0 0 0.67-0.69zm-0.78-3.86a0.68 0.68 0 1 0 0 1.36 0.68 0.68 0 0 0 0-1.36zm-0.86 2.22a0.67 0.67 0 0 0-0.68-0.7 0.68 0.68 0 0 0-0.69 0.68 0.7 0.7 0 0 0 0.68 0.69 0.69 0.69 0 0 0 0.69-0.67zm-1.64-1.64a0.67 0.67 0 0 0-0.68-0.68 0.68 0.68 0 0 0-0.69 0.68 0.69 0.69 0 0 0 0.7 0.69 0.68 0.68 0 0 0 0.67-0.69zm0.18-1.53c0 0.376 0.304 0.68 0.68 0.68a0.69 0.69 0 0 0 0.69-0.7 0.68 0.68 0 0 0-0.7-0.67 0.67 0.67 0 0 0-0.67 0.69 zm-0.77 5.39a0.67 0.67 0 0 0 0.72-0.69 0.69 0.69 0 0 0-1.37 0 0.66 0.66 0 0 0 0.65 0.69 zm-1.63-1.63a0.69 0.69 0 0 0 0-1.37 0.69 0.69 0 0 0 0 1.37zm3.28 3.28a0.69 0.69 0 0 0 0.68-0.68 0.69 0.69 0 1 0-1.37 0 0.69 0.69 0 0 0 0.69 0.68 zm-12.54 9.05a1.86 1.86 0 0 0-0.2 0.1 c-0.13 0.13 -0.26 0.25 -0.38 0.39 a0.25 0.25 0 0 0 0 0.39c0.15 0.17 0.32 0.32 0.47 0.48 0.15 0.16 0.13 0.07 0.2 0s0.38-0.39 0.58 -0.58a0.12 0.12 0 0 0 0-0.2l-0.48-0.47a1 1 0 0 0-0.19-0.11zm-0.5-0.5a0.65 0.65 0 0 0-0.08-0.17l-0.49-0.5a0.1 0.1 0 0 0-0.17 0c-0.2 0.2 -0.39 0.4 -0.59 0.59 -0.2 0.19 -0.08 0.13 0 0.2s0.31 0.32 0.48 0.46 c0.17 0.14 0.23 0.12 0.28 0.08 0.195-0.16 0.38 -0.334 0.55 -0.52l0.02-0.14zm2.32 2.33a0.44 0.44 0 0 0-0.09-0.18c-0.15-0.18-0.32-0.34-0.48-0.5a0.11 0.11 0 0 0-0.18 0c-0.19 0.21 -0.4 0.41 -0.6 0.6 a0.12 0.12 0 0 0 0 0.19c0.17 0.16 0.32 0.33 0.49 0.48 a0.23 0.23 0 0 0 0.32 0 5.78 5.78 0 0 0 0.5-0.49s0.02-0.04 0.04 -0.1zm-4 0.42a0.34 0.34 0 0 0 0.08 0.16 c0.16 0.17 0.32 0.34 0.49 0.5 0.17 0.16 0.12 0.06 0.18 0s0.39-0.4 0.59 -0.59a0.11 0.11 0 0 0 0-0.19c-0.17-0.16-0.33-0.33-0.5-0.48a0.3 0.3 0 0 0-0.2-0.08 1.15 1.15 0 0 0-0.66 0.68 h0.02zM9.41 17a0.7 0.7 0 0 0 0.08 0.14 c0.16 0.18 0.34 0.34 0.5 0.51 0.16 0.17 0.13 0 0.19 0l0.58-0.57a0.12 0.12 0 0 0 0-0.2c-0.16-0.15-0.31-0.32-0.47-0.47a0.56 0.56 0 0 0-0.21-0.09c-0.18 0-0.67 0.49 -0.67 0.68 zm1.05 5.72c-0.25 0.26 -0.48 0.49 -0.7 0.73 v0.16c0 0.04 0.31 0.32 0.48 0.48a0.26 0.26 0 0 0 0.39 0 5 5 0 0 0 0.4-0.4 0.25 0.25 0 0 0 0-0.36c-0.16-0.17-0.35-0.33-0.57-0.58v-0.03zm-1.81-0.32a0.35 0.35 0 0 0 0.07 0.14 l0.5 0.51 c0.06 0.07 0.12 0.05 0.18 0l0.58-0.58c0.07-0.07 0.08 -0.13 0-0.2l-0.49-0.48a0.35 0.35 0 0 0-0.2-0.07c-0.16 0-0.64 0.48 -0.64 0.71 v-0.03zm4-0.46a0.68 0.68 0 0 0-0.09-0.16l-0.49-0.5c-0.08-0.08-0.13 0-0.2 0l-0.56 0.57 c-0.09 0.08 -0.08 0.14 0 0.21 0.08 0.07 0.3 0.31 0.46 0.45a0.43 0.43 0 0 0 0.21 0.09 c0.2 0.06 0.68-0.41 0.69 -0.6l-0.02-0.06zm-2.32-2.33a1 1 0 0 0-0.11-0.18L9.81 19c-0.09-0.09-0.16-0.08-0.24 0-0.08 0.08 -0.37 0.37 -0.56 0.55 a0.13 0.13 0 0 0 0 0.21l0.47 0.46 a0.33 0.33 0 0 0 0.19 0.08 c0.19 0.06 0.69-0.43 0.68 -0.66l-0.02-0.03zM8.8 21.18a0.59 0.59 0 0 0-0.07-0.18l-0.5-0.51c-0.07-0.07-0.13 0-0.19 0s-0.37 0.38 -0.56 0.56 c-0.19 0.18 -0.09 0.14 0 0.21 0.09 0.07 0.3 0.31 0.46 0.46a0.39 0.39 0 0 0 0.23 0.09 c0.16 0.08 0.63-0.41 0.63 -0.63zm-2.47-1.06a0.79 0.79 0 0 0 0.1 0.16 c0.15 0.17 0.31 0.32 0.46 0.48 0.15 0.16 0.13 0.06 0.2 0l0.58-0.58c0.08-0.07 0.07 -0.13 0-0.2l-0.47-0.46a0.37 0.37 0 0 0-0.2-0.09c-0.19-0.02-0.67 0.45 -0.67 0.69 zm2.22-2.27a0.42 0.42 0 0 0-0.15 0.06 5.13 5.13 0 0 0-0.47 0.46 0.25 0.25 0 0 0 0 0.35c0.16 0.17 0.33 0.34 0.5 0.5 a0.17 0.17 0 0 0 0.17 0c0.21-0.2 0.4 -0.4 0.6 -0.6 0.2 -0.2 0.06 -0.12 0-0.19s-0.32-0.32-0.49-0.47a0.67 0.67 0 0 0-0.16-0.11z" fill="#FFF"/>
</svg>
