<?xml version="1.0" ?>
<svg xmlns="http://www.w3.org/2000/svg" width="39" height="36" viewBox="0 0 39 36">
  <path d="M15.53 26.18c0.19-0.41 0.36 -0.79 0.54 -1.16 0 0 0.15-0.05 0.23 -0.05h20.43a1 1 0 0 0 1-1V2.27a1 1 0 0 0-1-1H2.3a0.92 0.92 0 0 0-1 0.66 1.19 1.19 0 0 0 0 0.33V24a0.9 0.9 0 0 0 0.61 0.92 1 1 0 0 0 0.35 0h2.97a0.36 0.36 0 0 1 0.41 0.26 c0.12 0.31 0.28 0.61 0.44 1H1.59A1.56 1.56 0 0 1 0 24.59v-23A1.6 1.6 0 0 1 1.64 0h35.69a1.49 1.49 0 0 1 1.46 0.9 0.8 0.8 0 0 1 0.07 0.34 v23.61a1.3 1.3 0 0 1-0.86 1.24 2.41 2.41 0 0 1-0.59 0.09 H15.53z" fill="#FFF"/>
  <path d="M14.37 25.78c0.1 0.34 0.2 0.68 0.29 1l0.53 1.79c0.19 0.66 0.37 1.32 0.56 2l0.66 2.27 0.24 0.87v0.16a0.36 0.36 0 0 1-0.49 0.39 l-1.76-0.58a0.29 0.29 0 0 0-0.24 0.06 c-0.43 0.46 -0.86 0.92 -1.28 1.39a0.37 0.37 0 0 1-0.66-0.14c-0.13-0.42-0.25-0.85-0.37-1.27-0.25-0.87-0.5-1.73-0.74-2.6-0.09-0.3-0.17-0.6-0.25-0.9L10.8 30a2.28 2.28 0 0 0-0.13 0.35 l-0.78 2.79c-0.17 0.6 -0.34 1.21-0.53 1.81a0.37 0.37 0 0 1-0.67 0.13 c-0.41-0.45-0.83-0.9-1.23-1.36a0.25 0.25 0 0 0-0.32-0.07c-0.49 0.18 -1 0.33-1.48 0.49 a2.63 2.63 0 0 1-0.3 0.09 0.32 0.32 0 0 1-0.36-0.3 3.12 3.12 0 0 1 0.11-0.61c0.21-0.76 0.43 -1.52 0.65 -2.28L6.61 28c0.19-0.64 0.36 -1.28 0.54 -1.92 0.08 -0.3 0.16 -0.33 0.4 -0.13 0.202 0.182 0.333 0.43 0.37 0.7 0 0.08 0 0.17 0.07 0.26a0.45 0.45 0 0 0 0.67 0.24 c0.13-0.07 0.26 -0.16 0.39 -0.22a0.82 0.82 0 0 1 1.14 0.26 3.1 3.1 0 0 0 0.27 0.34 0.42 0.42 0 0 0 0.66 0c0.13-0.13 0.23 -0.29 0.35 -0.43a0.81 0.81 0 0 1 1-0.21c0.14 0.07 0.26 0.16 0.4 0.22 0.39 0.19 0.7 0 0.78-0.49a1 1 0 0 1 0.49-0.78l0.23-0.06zM4.92 24.35H2.29c-0.39 0-0.46-0.07-0.46-0.45V2.33c0-0.43 0.08 -0.51 0.51 -0.51h34.31c0.37 0 0.46 0.09 0.46 0.47 v21.58c0 0.44 0 0.49-0.49 0.49 H16.68a3.66 3.66 0 0 1 0.23-0.52 0.32 0.32 0 0 1 0.23-0.08h19.37v-0.24V2.7c0-0.21-0.06-0.26-0.26-0.26H2.46v21.31h2.01a0.24 0.24 0 0 1 0.27 0.19 c0.05 0.13 0.11 0.25 0.18 0.41 z" fill="#FFF"/>
  <path d="M19.47 9.14H5.59a0.7 0.7 0 0 1-0.73-0.75 0.71 0.71 0 0 1 0.78-0.79h27.61c0.198 0.02 0.393 0.063 0.58 0.13 h0.06A0.9 0.9 0 0 1 33.73 9a0.73 0.73 0 0 1-0.36 0.07 h-13.9v0.07zM19.48 11.87H5.58a0.66 0.66 0 0 1-0.68-0.39 0.77 0.77 0 0 1 0.72-1.12h27.73a0.65 0.65 0 0 1 0.72 0.74 v0.21a0.57 0.57 0 0 1-0.59 0.57 h-14v-0.01zM7.09 16.66c0.167 0.036 0.339 0.053 0.51 0.05 0.39 0 0.59-0.27 0.69 -0.72a1.13 1.13 0 0 1 0.08-0.24 0.38 0.38 0 0 1 0.6-0.21c0.13 0.07 0.25 0.15 0.38 0.21 a0.64 0.64 0 0 0 0.84-0.17l0.23-0.3a0.43 0.43 0 0 1 0.75 0c0.08 0.09 0.14 0.19 0.22 0.28 a0.66 0.66 0 0 0 0.87 0.2 l0.29-0.16c0.41-0.25 0.64 -0.09 0.76 0.34 0 0.09 0 0.2 0.08 0.3a0.71 0.71 0 0 0 0.84 0.47 0.85 0.85 0 0 1 0.23 0c0.46 0 0.59 0.11 0.55 0.57 v0.42a0.67 0.67 0 0 0 0.57 0.69 c0.116 0.02 0.23 0.05 0.34 0.09 a0.37 0.37 0 0 1 0.24 0.57 2.44 2.44 0 0 1-0.14 0.28 0.75 0.75 0 0 0 0.2 1.11c0.094 0.068 0.185 0.141 0.27 0.22 a0.41 0.41 0 0 1 0 0.61l-0.28 0.22 a0.75 0.75 0 0 0-0.2 1.1c0.052 0.073 0.1 0.15 0.14 0.23 a0.43 0.43 0 0 1-0.33 0.66 h-0.09c-0.59 0.12 -0.75 0.34 -0.72 0.94 v0.42a0.33 0.33 0 0 1-0.33 0.35 c-0.12 0.02 -0.24 0.02 -0.36 0a0.76 0.76 0 0 0-1 0.67 2 2 0 0 1-0.08 0.26 0.42 0.42 0 0 1-0.63 0.22 l-0.26-0.17a0.71 0.71 0 0 0-1 0.21c-0.09 0.11 -0.17 0.22 -0.26 0.32 a0.35 0.35 0 0 1-0.56 0 2.3 2.3 0 0 1-0.28-0.34 0.72 0.72 0 0 0-1.05-0.16l-0.16 0.1 c-0.47 0.24 -0.64 0-0.74-0.36-0.1-0.36-0.17-0.64-0.55-0.74-0.15-0.02-0.3-0.02-0.45 0h-0.21c-0.37 0-0.54-0.16-0.49-0.53v-0.44a0.67 0.67 0 0 0-0.51-0.69l-0.29-0.07a0.46 0.46 0 0 1-0.32-0.75 3.11 3.11 0 0 0 0.2-0.41 0.64 0.64 0 0 0-0.2-0.76l-0.23-0.17a0.48 0.48 0 0 1 0-0.88l0.23-0.18a0.68 0.68 0 0 0 0.14-0.91 2.93 2.93 0 0 1-0.17-0.41 0.4 0.4 0 0 1 0.29-0.58 3.51 3.51 0 0 0 0.49-0.15 0.61 0.61 0 0 0 0.4-0.65v-0.41c-0.06-0.35 0.06 -0.58 0.46 -0.55zm3.74 0.21 a4.09 4.09 0 1 0 4 4.15 4 4 0 0 0-4-4.15zM13.36 6.38H5.58a0.67 0.67 0 0 1-0.72-0.73c0-0.56 0.23 -0.79 0.8 -0.79h15.5a0.65 0.65 0 0 1 0.7 0.41 1 1 0 0 1-0.07 0.86 0.57 0.57 0 0 1-0.54 0.25 h-7.89zM27.68 21.32H21.8a0.44 0.44 0 0 1-0.49-0.38c0-0.38 0-0.68 0.27 -0.79a0.71 0.71 0 0 1 0.29 0h11.67a0.47 0.47 0 0 1 0.53 0.51 c0.01 0.113 0.01 0.227 0 0.34-0.05 0.25 -0.22 0.37 -0.52 0.37 l-5.87-0.05z" fill="#FFF"/>
  <path d="M10.83 16.87a4.09 4.09 0 1 1-4 4.09 4 4 0 0 1 4-4.09zm0 0.76a3.33 3.33 0 1 0 3.25 3.29 3.29 3.29 0 0 0-3.27-3.29h0.02z" fill="#9B3F97"/>
  <path d="M10.81 17.63A3.33 3.33 0 1 1 7.54 21a3.27 3.27 0 0 1 3.27-3.37z" fill="#FFF"/>
</svg>
