<?xml version="1.0" ?>
<svg xmlns="http://www.w3.org/2000/svg" width="40" height="36" viewBox="0 0 40 36">
  <path d="M11.07 6.13c0.31-0.22 0.63 -0.44 0.93 -0.67l2.92-2.25L17.77 1A6.7 6.7 0 0 1 19 0.22a2.24 2.24 0 0 1 2.22 0.17 c0.51 0.32 1 0.71 1.47 1.07l3.59 2.76 4.17 3.21 3.83 2.94 3.25 2.5L38.92 14c0.312 0.234 0.553 0.549 0.7 0.91 a1.72 1.72 0 0 1-0.17 1.56 2.07 2.07 0 0 1-1.5 1 2.81 2.81 0 0 1-2.28-0.65l-3.51-2.68-3.22-2.49-3.09-2.42-4-3.13c-0.39-0.3-0.78-0.61-1.17-0.9a1 1 0 0 0-1.46 0l-4.57 3.52L10 12.29c-1.91 1.45-3.83 2.91-5.73 4.37-0.41 0.336 -0.872 0.6 -1.37 0.78 a2.31 2.31 0 0 1-2.76-1.18 1.82 1.82 0 0 1 0.64-2.19c1-0.8 2-1.57 3.06-2.35 0.46 -0.35 0.91 -0.71 1.36-1.09a1.57 1.57 0 0 0 0.59-1.28V3.9c0-0.3 0-0.31 0.3 -0.31H10.73c0.24 0 0.26 0 0.26 0.27 v2.27h0.08zM14.83 18.42h11.1a1.58 1.58 0 0 1 1.64 1.1c0.63 1.52 1.25 3.05 1.88 4.56 0.28 0.68 0.59 1.34 0.89 2 0.21 0.49 0.329 1.016 0.35 1.55a9.57 9.57 0 0 1-0.09 1.78 6.18 6.18 0 0 1-1.14 2.79 10.58 10.58 0 0 1-0.81 0.83 1.2 1.2 0 0 0-0.43 1 1.48 1.48 0 0 1-0.05 0.59 0.87 0.87 0 0 1-0.88 0.64 5.29 5.29 0 0 1-0.89 0 0.8 0.8 0 0 1-0.76-0.83c0-0.31-0.05-0.62-0.07-0.93-0.02-0.31-0.1-0.26-0.31-0.26H14.48a0.24 0.24 0 0 0-0.28 0.23 c0 0.25-0.06 0.51 -0.08 0.76 0.01 0.153 0.01 0.307 0 0.46a0.8 0.8 0 0 1-0.75 0.58 2.74 2.74 0 0 1-1.21-0.08 0.83 0.83 0 0 1-0.58-0.79v-0.56a1 1 0 0 0-0.43-0.82 5 5 0 0 1-1.58-2.25 7.37 7.37 0 0 1-0.46-3.32 7 7 0 0 1 0.68-2.16c0.62-1.38 1.2-2.77 1.79-4.16 0.25 -0.58 0.46 -1.18 0.7 -1.76a1.6 1.6 0 0 1 1.54-1h1.05l-0.04 0.05 zm5 5.27h7.1c0.28 0 0.32 0 0.23-0.3-0.25-0.75-0.49-1.5-0.79-2.22A1.83 1.83 0 0 0 25 20a5 5 0 0 0-0.77 0h-9.11a1.84 1.84 0 0 0-1.71 1.07 13 13 0 0 0-0.85 2.38c-0.09 0.26 -0.08 0.26 0.19 0.26 l7.08-0.02zm0 4.52h-1.88a2.34 2.34 0 0 0-0.84 0.19 A1.93 1.93 0 0 0 16 30.34c0 0.17 0.06 0.25 0.24 0.24 0.18 -0.01 0.63 0 0.95 0H23.62c0.06 0 0.16-0.08 0.16 -0.13a2 2 0 0 0-0.45-1.45 2.06 2.06 0 0 0-1.64-0.77c-0.61-0.04-1.22-0.02-1.83-0.02h-0.03zm6.93-0.63A1.7 1.7 0 0 0 25 29.32a1.68 1.68 0 0 0 1.75 1.73 1.74 1.74 0 0 0 0-3.47h0.01zm-13.76 0a1.76 1.76 0 0 0-1.73 1.72A1.74 1.74 0 1 0 13 27.58z" fill="#FFF"/>
  <path d="M3.14 27.21V20a0.43 0.43 0 0 1 0.2-0.4l5.15-3.75c1.867-1.367 3.74-2.733 5.62-4.1l4.41-3.21 1.11-0.82a0.28 0.28 0 0 1 0.38 0c1.15 0.85 2.32 1.68 3.48 2.52l3.27 2.38 3 2.14 3 2.17 3.42 2.47c0.47 0.33 0.47 0.33 0.47 0.9 v14.08a1.32 1.32 0 0 1-1.21 1.31 1.67 1.67 0 0 1-1.11-0.24 1.15 1.15 0 0 1-0.56-1v-5-6.53-1.56a0.33 0.33 0 0 0-0.15-0.29l-5-3.61c-1.12-0.8-2.23-1.61-3.34-2.42l-2.98-2.11c-0.77-0.55-1.54-1.11-2.3-1.68a0.26 0.26 0 0 0-0.35 0l-3.92 2.87-4.49 3.27-4.13 3c-0.31 0.22 -0.61 0.45 -0.93 0.67 a0.35 0.35 0 0 0-0.16 0.34 v13.02a1.34 1.34 0 0 1-1.16 1.24 1.64 1.64 0 0 1-1.18-0.24 1.21 1.21 0 0 1-0.55-1l0.01-7.21z" fill="#FFF"/>
</svg>
