<?xml version="1.0" ?>
<svg xmlns="http://www.w3.org/2000/svg" width="32" height="32" viewBox="0 0 32 32">
  <path d="M12.06 3h7.3c0.24 0 0.24 0 0.24 0.23 v1.79a2.58 2.58 0 0 0 1.82 2.36 4.49 4.49 0 0 0 2 0.07A2.47 2.47 0 0 0 25.37 6a2.26 2.26 0 0 0 0.24-1V3.02h5a1 1 0 0 1 1 1 0.85 0.85 0 0 0 0 0.16v26.33a1.12 1.12 0 0 1-0.15 0.69 0.89 0.89 0 0 1-0.73 0.44 H1.1a1 1 0 0 1-0.65-0.15 1.07 1.07 0 0 1-0.45-0.81V4.14a1 1 0 0 1 0.53-1A1 1 0 0 1 0.94 3h4.93c0.13 0 0.18 0 0.18 0.18 V5a2.61 2.61 0 0 0 1.83 2.42 4.6 4.6 0 0 0 2 0.07 2.48 2.48 0 0 0 2-1.66 2.31 2.31 0 0 0 0.16-0.78v-1.8l0.02-0.25zm7.55 27.09h4.3c0.18 0 0.21-0.06 0.21 -0.23v-4.01c0-0.18 0-0.23-0.22-0.23h-4.29v4.47zm-1.55-4.5h-4.34c-0.15 0-0.17 0.07 -0.17 0.2 v4.09c0 0.23 0 0.23 0.22 0.23h4.28l0.01-4.52zm-10.5 0v4.5h4.49v-4.5H7.56zm22.56-6h-4.5v4.32c0 0.15 0.06 0.18 0.2 0.18h4.11c0.17 0 0.22 0 0.22-0.21v-4.11a1.09 1.09 0 0 0-0.03-0.14v-0.04zm-22.56 0a0.6 0.6 0 0 0 0 0.12v4.23c0 0.16 0.08 0.16 0.2 0.16h4.11c0.18 0 0.22-0.05 0.21 -0.22v-4.26l-4.52-0.03zm22.57-1.55v-0.18-4.11c0-0.17-0.05-0.22-0.22-0.22h-4.08c-0.18 0-0.22 0-0.22 0.22 v4.29h4.52zm-18.08 0a0.46 0.46 0 0 0 0-0.1v-4.21c0-0.15-0.07-0.17-0.19-0.17H7.78c-0.24 0-0.24 0-0.24 0.22 v4.28l4.51-0.02zm7.55-2.25v2.06c0 0.15 0 0.21 0.19 0.21h4.13c0.15 0 0.2 0 0.2-0.2v-4.1c0-0.21 0-0.22-0.23-0.22h-4.08c-0.17 0-0.21 0-0.21 0.21 0.01 0.7 0 1.39 0 2.07v-0.03zM3.79 19.61H1.73c-0.15 0-0.2 0-0.2 0.19 v4.13c0 0.15 0 0.2 0.2 0.2h4.09c0.21 0 0.23 0 0.23-0.24v-4.07c0-0.17 0-0.21-0.21-0.21-0.68 0.01 -1.36 0-2.05 0zm14.28-3.76v-2.09c0-0.15 0-0.2-0.2-0.2h-4.1c-0.21 0-0.22 0-0.22 0.23 v4.08c0 0.16 0.06 0.21 0.21 0.21h4.13c0.15 0 0.19-0.06 0.19 -0.2-0.01-0.67-0.01-1.35-0.01-2.03zm3.8 3.76H19.8c-0.15 0-0.2 0-0.2 0.19 v4.13c0 0.15 0 0.2 0.2 0.2h4.09c0.21 0 0.23 0 0.23-0.24v-4.07c0-0.17-0.05-0.21-0.21-0.21-0.68 0.01 -1.36 0-2.04 0zM3.78 18.08h2.06c0.16 0 0.21-0.05 0.21 -0.21V13.8c0-0.22 0-0.23-0.23-0.23H1.73c-0.16 0-0.2 0.06 -0.2 0.21 v4.12c0 0.17 0.05 0.2 0.2 0.2l2.05-0.02zm-2.23 7.55a0.44 0.44 0 0 0 0 0.1v3.88a0.54 0.54 0 0 0 0.05 0.22 0.64 0.64 0 0 0 0.59 0.31 h3.66c0.17 0 0.2-0.06 0.2 -0.22v-4.08c0-0.17 0-0.22-0.22-0.22H1.55v0.01zm24.08 0v4.5h3.9a0.65 0.65 0 0 0 0.61-0.63V25.62l-4.51 0.01 z" fill="#FFF"/>
  <path d="M7.54 3V1.22A1.13 1.13 0 0 1 8.26 0.1 a0.92 0.92 0 0 1 0.25-0.1 2.89 2.89 0 0 1 1.37 0.13 c0.433 0.168 0.707 0.597 0.68 1.06v3.69a1.13 1.13 0 0 1-1.1 1.17 4.45 4.45 0 0 1-1 0 1.07 1.07 0 0 1-0.88-1V3.1L7.54 3zM21.1 3V1.58A1.5 1.5 0 0 1 24 1c0.08 0.228 0.12 0.468 0.12 0.71 v2.81a1.55 1.55 0 0 1-0.6 1.24 1.49 1.49 0 0 1-2.28-0.58 2 2 0 0 1-0.14-0.64c-0.02-0.54 0-1.02 0-1.54z" fill="#FFF"/>
</svg>
