<?xml version="1.0" ?>
<svg xmlns="http://www.w3.org/2000/svg" width="31" height="32" viewBox="0 0 31 32">
  <path d="M16.29 26.73V28.35c0 0.12 0 0.15-0.16 0.15 H14.5c-0.14 0-0.16-0.05-0.16-0.17v-1.39-0.21a0.71 0.71 0 0 0-0.15 0.07 L8.94 30a0.37 0.37 0 0 0-0.15 0.2 1.55 1.55 0 0 1-1.52 1.14 1.54 1.54 0 0 1-1.41-1.16 1.51 1.51 0 0 1 1-1.8 3.54 3.54 0 0 1 0.73 0 0.6 0.6 0 0 0 0.27-0.06l6.29-3.87a0.28 0.28 0 0 0 0.15-0.27V22.6c0-0.14 0-0.18-0.17-0.18H1A1 1 0 0 1 0.11 21a0.9 0.9 0 0 1 0.81-0.51c0.123-0.01 0.247 -0.01 0.37 0 0.14 0 0.17 0 0.17-0.17V3.65c0-0.25 0-0.25-0.25-0.24a1.53 1.53 0 0 1-0.73-0.13 1 1 0 0 1-0.47-1 0.88 0.88 0 0 1 0.69-0.77 2.09 2.09 0 0 1 0.43 0h13c0.24 0 0.24 0 0.24-0.24V0h1.93V1.3c0 0.13 0 0.17 0.16 0.17h13.19a0.91 0.91 0 0 1 0.92 0.59 1 1 0 0 1-0.21 1.08 0.94 0.94 0 0 1-0.65 0.26 h-0.36c-0.13 0-0.17 0-0.17 0.17 v16.68c0 0.23 0 0.22 0.24 0.23 0.227 0.003 0.452 0.037 0.67 0.1a1 1 0 0 1-0.39 1.84H16.51c-0.23 0-0.23 0-0.23 0.23 v1.56a0.25 0.25 0 0 0 0.12 0.24 l6.25 3.85a0.6 0.6 0 0 0 0.43 0.08 1.47 1.47 0 0 1 1.43 0.59 1.53 1.53 0 0 1-0.86 2.36 1.56 1.56 0 0 1-1.82-1.09 0.34 0.34 0 0 0-0.15-0.2l-5.21-3.21-0.18-0.1zm-1-6.25H27.5c0.21 0 0.21 0 0.21-0.21V3.59c0-0.15 0-0.19-0.19-0.19H3.1c-0.15 0-0.21 0-0.19 0.19 v16.65c0 0.24 0 0.24 0.24 0.24h12.14z" fill="#FFF"/>
  <path d="M26.44 15.08a2.6 2.6 0 0 1-1.67 2.34 2.46 2.46 0 0 1-1 0.19 2.52 2.52 0 0 1-2.23-1.56 2.06 2.06 0 0 1-0.17-1.05 2.65 2.65 0 0 1 1.84-2.24 2.34 2.34 0 0 1 1.36 0 2.66 2.66 0 0 1 1.48 1.09c0.256 0.359 0.393 0.79 0.39 1.23zm-1.1 0.15 V15a1.57 1.57 0 0 0-0.79-1 1.34 1.34 0 0 0-1.12-0.11c-0.486 0.18 -0.843 0.6 -0.94 1.11-0.086 0.48 0.112 0.967 0.51 1.25 0.377 0.24 0.834 0.32 1.27 0.22 a1.29 1.29 0 0 0 1.07-1.24zM10.42 5.1a2.23 2.23 0 0 1 1.91 1c0.281 0.39 0.472 0.837 0.56 1.31a1.9 1.9 0 0 1-1.22 2.17 3.06 3.06 0 0 1-1.33 0.25 2.75 2.75 0 0 1-1.94-0.77 2.07 2.07 0 0 1-0.54-1.21A2.26 2.26 0 0 1 8 6.62a2.56 2.56 0 0 1 1.34-1.26 2.44 2.44 0 0 1 1.08-0.26zm-0.12 3.64l0.4-0.07c0.307-0.022 0.6 -0.137 0.84 -0.33a0.75 0.75 0 0 0 0.31-0.68 1.72 1.72 0 0 0-0.46-1 1.19 1.19 0 0 0-1.22-0.43 1.51 1.51 0 0 0-1.23 1.21 0.94 0.94 0 0 0 0.26 0.93 c0.306 0.258 0.7 0.39 1.1 0.37 zM21.08 10.4l0.34-0.17 0.58 -0.29c0.09 0 0.09-0.11 0-0.19a16.25 16.25 0 0 0-1.8-2.49 4 4 0 0 0-1.45-1 3.07 3.07 0 0 0-1.53-0.14c-0.757 0.117 -1.5 0.307 -2.22 0.57 -0.25 0.09 -0.39 0-0.48-0.17a0.36 0.36 0 0 1 0.19-0.52 8.22 8.22 0 0 1 0.83-0.3c0.47-0.13 0.94 -0.25 1.41-0.34a3.71 3.71 0 0 1 3 0.74 7.75 7.75 0 0 1 1.83 2.08c0.25 0.4 0.49 0.82 0.72 1.23 0.06 0.12 0.12 0.14 0.23 0.07l0.55-0.34c0.15-0.1 0.22 -0.07 0.26 0.1a1.29 1.29 0 0 1 0 0.34 43.545 43.545 0 0 1-0.18 1.83c0 0.16-0.1 0.2 -0.25 0.11 -0.32-0.17-0.63-0.36-0.95-0.54l-0.87-0.47a0.92 0.92 0 0 1-0.21-0.11zM20.48 18.68a2.08 2.08 0 0 1-0.32-0.12c-0.31-0.18-0.62-0.37-0.92-0.57-0.11-0.07-0.18-0.07-0.24 0l-0.42 0.82 a0.73 0.73 0 0 1-0.3 0.35 0.58 0.58 0 0 1-0.8-0.62 1.48 1.48 0 0 1 0.1-0.36c0.14-0.28 0.28 -0.55 0.43 -0.82a0.19 0.19 0 0 0-0.06-0.28c-0.26-0.2-0.51-0.41-0.77-0.6a0.65 0.65 0 0 1-0.28-0.48 0.58 0.58 0 0 1 0.31-0.54 0.48 0.48 0 0 1 0.59 0.07 l0.74 0.54 c0.17 0.13 0.2 0.12 0.32-0.05 0.12 -0.17 0.43 -0.59 0.66 -0.88a0.55 0.55 0 0 1 0.62-0.17 0.58 0.58 0 0 1 0.45 0.52 0.65 0.65 0 0 1-0.13 0.35 c-0.2 0.3 -0.42 0.58 -0.63 0.87 -0.21 0.29 -0.11 0.2 0.06 0.31 0.17 0.11 0.6 0.4 0.91 0.56 a0.59 0.59 0 0 1 0 1.05c-0.11 0.01 -0.2 0.02 -0.32 0.05 zM7.87 13.54a3 3 0 0 1-0.37-0.16c-0.25-0.14-0.5-0.31-0.76-0.46-0.26-0.15-0.21-0.07-0.29 0.1 l-0.45 0.89 a0.6 0.6 0 0 1-0.81 0.34 0.55 0.55 0 0 1-0.29-0.8l0.51-1c0.08-0.16 0.08 -0.18-0.1-0.26a9.07 9.07 0 0 0-1-0.44 0.52 0.52 0 0 1-0.24-0.8 0.63 0.63 0 0 1 0.85-0.23l0.86 0.37 c0.18 0.07 0.24 0.05 0.31-0.14s0.24-0.56 0.35 -0.85A0.5 0.5 0 0 1 7 9.76a0.61 0.61 0 0 1 0.51 0.36 0.58 0.58 0 0 1 0 0.5c-0.14 0.33 -0.25 0.66 -0.39 1 0 0.11 0 0.16 0.07 0.21l0.87 0.52 a0.68 0.68 0 0 1 0.26 1 0.4 0.4 0 0 1-0.41 0.2 l-0.04-0.01zM13.74 17.7a10.89 10.89 0 0 1-3.1-0.47 7.65 7.65 0 0 1-2.77-1.65c-0.26-0.23-0.51-0.48-0.75-0.73-0.1-0.1-0.19-0.22-0.11-0.38a0.34 0.34 0 0 1 0.57-0.09c0.48 0.44 0.95 0.9 1.45 1.32a5.85 5.85 0 0 0 2.57 1.2 11.09 11.09 0 0 0 2.76 0.18 c0.13 0 0.2-0.06 0.2 -0.19v-0.69a0.37 0.37 0 0 1 0-0.14s0.09 0 0.12 0.05 l1.13 0.77 c0.19 0.13 0.4 0.24 0.59 0.37 0.19 0.13 0.2 0.22 0 0.34-0.533 0.34 -1.063 0.673 -1.59 1a0.86 0.86 0 0 1-0.28 0.11 c-0.13 0-0.18 0-0.17-0.16 0.01 -0.16 0-0.45 0.05 -0.68 0.05 -0.23 0-0.15-0.14-0.15s-0.33-0.01-0.53-0.01zM18 13.57l0.1-0.18 0.35 -0.56c0.08-0.12 0.05 -0.2-0.09-0.27l-2.94-1.48c-0.76-0.38-1.53-0.74-2.3-1.11a0.32 0.32 0 0 1-0.23-0.27c0-0.32 0.23 -0.49 0.54 -0.35 0.31 0.14 0.83 0.38 1.25 0.58 l3.7 1.83c0.113 0.057 0.223 0.12 0.33 0.19 0.1 0.06 0.17 0.06 0.22-0.06 0.05 -0.12 0.16 -0.32 0.24 -0.48 0.08 -0.16 0.21 -0.21 0.33 0 0.12 0.21 0.27 0.49 0.39 0.74 s0.37 0.76 0.54 1.14c0.09 0.18 0.05 0.23 -0.15 0.25 h-0.7l-1.38 0.07 -0.2-0.04z" fill="#FFF"/>
</svg>
