<?xml version="1.0" ?>
<svg xmlns="http://www.w3.org/2000/svg" width="41" height="32" viewBox="0 0 41 32">
  <path d="M40.84 25.35v5.86c0 0.29 0 0.29-0.29 0.29 H28.83c-0.33 0-0.33 0-0.33-0.33v-3.84c0-0.35 0-0.35 0.34 -0.35H36c0.3 0 0.3 0 0.3-0.3v-7.1c0-0.48-0.06-0.42 0.43 -0.42h3.87c0.2 0 0.25 0.06 0.25 0.25 -0.01 1.98-0.01 3.96-0.01 5.94zM40.84 6.19v5.9c0 0.2-0.07 0.24 -0.25 0.24 h-4c-0.27 0-0.27 0-0.27-0.28V4.86c0-0.34 0-0.34-0.33-0.34h-7.13c-0.35 0-0.35 0-0.35-0.36V0.32c0-0.31 0-0.31 0.3 -0.31h11.77c0.21 0 0.26 0.06 0.26 0.26 v5.92zM0 25.31v-5.86c0-0.29 0-0.29 0.29 -0.29h3.94c0.28 0 0.28 0 0.28 0.27 v7.23c0 0.32 0 0.32 0.33 0.32H12c0.31 0 0.31 0 0.31 0.31 v4c0 0.18-0.05 0.24 -0.24 0.24 H0.28c-0.27 0-0.28 0-0.28-0.29v-5.93zM6.18 0H12c0.3 0 0.3 0 0.3 0.3 v4c0 0.2-0.06 0.25 -0.25 0.25 H4.86c-0.35 0-0.35 0-0.35 0.35 v7.19c0 0.28 0 0.28-0.27 0.28 h-4C0 12.33 0 12.33 0 12V0.27C0 0 0 0 0.28 0h5.9z" fill="#FFF"/>
</svg>
