<?xml version="1.0" ?>
<svg xmlns="http://www.w3.org/2000/svg" width="40" height="36" viewBox="0 0 40 36">
  <path d="M19.67 35.48h-17a2.59 2.59 0 0 1-2.11-1 2.54 2.54 0 0 1-0.56-1.6V6.4a2.65 2.65 0 0 1 2.64-2.64h4.82c0.27 0 0.27 0 0.28-0.28V0.26C7.74 0 7.74 0 8 0h1.91c0.28 0 0.28 0 0.28 0.28 V3.5c0 0.26 0 0.26 0.25 0.26H29c0.26 0 0.26 0 0.26-0.27V0.25c0-0.2 0.05 -0.25 0.25 -0.25h2c0.19 0 0.24 0.06 0.24 0.24 v3.29c0 0.18 0.06 0.24 0.24 0.23h4.69a2.64 2.64 0 0 1 2.59 1.89c0.068 0.265 0.102 0.537 0.1 0.81 v26.36a2.65 2.65 0 0 1-1.95 2.56 3.65 3.65 0 0 1-0.88 0.09 l-16.87 0.01 zM25.38 29h0.05v-0.16c-0.17-0.53-0.33-1.05-0.5-1.57a757.698 757.698 0 0 0-1.57-5.05 0.26 0.26 0 0 1 0.11-0.36l5.38-4.06 0.17 -0.15H22.15a0.3 0.3 0 0 1-0.34-0.25c-0.25-0.86-0.52-1.71-0.79-2.56-0.38-1.21-0.75-2.42-1.13-3.62-0.06-0.2-0.13-0.39-0.19-0.58h-0.07l-0.19 0.58 -1 3.07c-0.32 1-0.65 2.06-1 3.09a0.31 0.31 0 0 1-0.35 0.27 h-6.7a0.41 0.41 0 0 0 0.16 0.18 c1.79 1.35 3.58 2.71 5.37 4.05 0.11 0.061 0.15 0.2 0.09 0.31-0.32 1-0.63 2-1 3s-0.65 2.08-1 3.11c-0.07 0.22 -0.13 0.44 -0.2 0.67 l0.17-0.11 5.37-4.07a0.26 0.26 0 0 1 0.38 0c1.78 1.36 3.58 2.71 5.37 4.06l0.28 0.15 z" fill="#FFF"/>
</svg>
