<?xml version="1.0" ?>
<svg xmlns="http://www.w3.org/2000/svg" width="22" height="37" viewBox="0 0 22 37">
  <path d="M11.83 24l0.17 1c0.11 0.71 0.22 1.42 0.34 2.13 0.12 0.71 0.22 1.27 0.33 1.91 0.11 0.64 0.21 1.16 0.32 1.74 0.11 0.58 0.26 1.34 0.41 2 0.15 0.66 0.3 1.31 0.46 2 0.09 0.35 0.19 0.69 0.3 1a0.21 0.21 0 0 1-0.1 0.28 1.38 1.38 0 0 1-1 0.16 12.69 12.69 0 0 1-2.32-0.79A10.17 10.17 0 0 0 9.35 35a1 1 0 0 0-0.95 0.27 2 2 0 0 1-1 0.47 4.89 4.89 0 0 1-2.12-0.07 0.59 0.59 0 0 1-0.2-0.07 0.22 0.22 0 0 1-0.08-0.13c0.11-0.58 0.24 -1.15 0.36 -1.73 0.12 -0.58 0.22 -1.14 0.32 -1.71 0.1 -0.57 0.22 -1.22 0.33 -1.83l0.33-1.95 0.24 -1.57c0.02-0.2 0.02 -0.4 0-0.6-0.07 0.19 -0.14 0.38 -0.22 0.57 -0.57 1.49-1.13 3-1.71 4.47-0.49 1.23-1 2.45-1.48 3.67a0.26 0.26 0 0 1-0.29 0.2 4.88 4.88 0 0 1-2.49-0.57l-0.09-0.07c-0.35-0.23-0.37-0.29-0.18-0.67 1.08-2.08 2.09-4.2 3-6.37a49.12 49.12 0 0 0 1.67-4.73 30.53 30.53 0 0 0 0.8-3.53 17.64 17.64 0 0 0 0.2-3.77c-0.06-0.935 0.01 -1.874 0.21 -2.79 0.27 -1.19 0.56 -2.38 0.88 -3.56a4.41 4.41 0 0 0 0-2.39c-0.15-0.5-0.36-1-0.49-1.49a1.35 1.35 0 0 1 0.33-1.36A2.81 2.81 0 0 1 7.9 3c0.73-0.24 1.46-0.44 2.2-0.66a7.44 7.44 0 0 0 1.64-0.64 0.73 0.73 0 0 0 0.32-0.37c0.17-0.4 0.37 -0.79 0.54 -1.18 0.1 -0.22 0.24 -0.07 0.35 0 0.11 0.07 0.1 0.13 0.07 0.22 a3.75 3.75 0 0 0 0.05 2.41c0.104 0.326 0.18 0.66 0.23 1A2.6 2.6 0 0 1 13.07 5c-0.18 0.5 -0.39 1-0.55 1.5a4.48 4.48 0 0 0-0.1 1.75 8.64 8.64 0 0 0 0.66 2.28c0.354 0.859 0.625 1.75 0.81 2.66a8.31 8.31 0 0 1 0 2.44 19.55 19.55 0 0 0-0.18 2.65 9.71 9.71 0 0 0 0.53 2.78A39.34 39.34 0 0 0 17 27.24a27.76 27.76 0 0 0 3.18 4.85c0.36 0.42 0.75 0.82 1.13 1.22 0.14 0.15 0.15 0.16 0 0.28-0.7 0.47 -1.51 0.75 -2.35 0.81 a8.82 8.82 0 0 1-2.96-0.3 0.35 0.35 0 0 1-0.24-0.23c-0.49-1.22-1-2.45-1.47-3.67a389.8 389.8 0 0 1-1.71-4.34c-0.22-0.56-0.41-1.12-0.62-1.68 0-0.08-0.07-0.15-0.1-0.23l-0.03 0.05 z" fill="#FFF"/>
</svg>
