<?xml version="1.0" ?>
<svg xmlns="http://www.w3.org/2000/svg" width="30" height="30" viewBox="0 0 30 30">
  <path d="M14.72 0H29.1c0.31 0 0.31 0 0.31 0.3 v2.44c0 0.22 0 0.23-0.23 0.23 h-1.44c-0.25 0-0.26 0-0.26 0.26 V14.5c0 0.21 0 0.23 0.22 0.23h1.14c0.23 0 0.24 0 0.24 0.24 V26.39c0 0.71-0.37 0.91 -0.92 0.91 H1.41a2.1 2.1 0 0 1-0.42 0 0.75 0.75 0 0 1-0.64-0.79v-1.46-10c0-0.3 0-0.3 0.3 -0.3H1.7c0.24 0 0.26 0 0.26-0.26V7.08C1.987 5.8 2 4.523 2 3.25 2 3 1.95 3 1.69 3H0.22C0 3 0 3 0 2.75V0.22C0 0 0 0 0.23 0h14.49zm0 3H3.39c-0.3 0-0.3 0-0.3 0.3 V14.52c0 0.24 0 0.25 0.25 0.25h1.17c0.24 0 0.26 0 0.26-0.26v-3.22-4.63c0-0.42 0.19 -0.61 0.61 -0.61h10.76a0.58 0.58 0 0 1 0.64 0.62 V14.44c0 0.32 0 0.32 0.32 0.32H26c0.32 0 0.32 0 0.32-0.31V3.32c0-0.33 0-0.33-0.33-0.33L14.72 3zm-3.93 4.13H6.14c-0.2 0-0.23 0-0.23 0.19 v3.07c0 0.15 0.07 0.2 0.2 0.19h0.79c0.3 0 0.3 0 0.3-0.3V8.77a0.55 0.55 0 0 1 0.8-0.52 0.52 0.52 0 0 1 0.35 0.51 v1.62c0 0.18 0 0.21 0.2 0.21H9c0.18 0 0.21 0 0.21-0.2v-0.37-1.29a0.53 0.53 0 0 1 0.51-0.52 0.56 0.56 0 0 1 0.57 0.43 1.42 1.42 0 0 1 0 0.32v1.43c0 0.14 0.05 0.2 0.2 0.2h0.34c0.35 0 0.35 0 0.35-0.34V8.73a0.54 0.54 0 0 1 0.69-0.5 0.56 0.56 0 0 1 0.42 0.57 v1.59c0 0.14 0.06 0.2 0.2 0.2h0.38c0.3 0 0.3 0 0.3-0.31V8.83a0.56 0.56 0 0 1 0.83-0.59 0.55 0.55 0 0 1 0.38 0.57 v1.56c0 0.18 0 0.21 0.21 0.21h0.85c0.25 0 0.26 0 0.26-0.27V7.39v-0.12a0.13 0.13 0 0 0-0.14-0.14h-4.77zm0 4.57H6.12c-0.19 0-0.22 0-0.22 0.21 v2.65c0 0.13 0.05 0.18 0.18 0.18h0.69c0.47 0 0.42 0 0.42-0.41v-1.46a0.555 0.555 0 0 1 1.11 0v1.65c0 0.19 0 0.22 0.21 0.22H9c0.12 0 0.18-0.05 0.18 -0.18v-0.47-1.24a0.53 0.53 0 0 1 0.52-0.55 0.56 0.56 0 0 1 0.57 0.45 c0.011 0.1 0.011 0.2 0 0.3v1.49c0 0.14 0 0.21 0.2 0.2H11c0.24 0 0.25 0 0.25-0.25v-0.12-1.55a0.54 0.54 0 0 1 0.69-0.5 0.57 0.57 0 0 1 0.41 0.57 v1.64c0 0.13 0 0.21 0.19 0.21H13c0.12 0 0.17 0 0.17-0.16V14v-1.08a0.56 0.56 0 0 1 1.12 0v1.61c0 0.12 0 0.2 0.17 0.2h1c0.11 0 0.17-0.05 0.17 -0.17v-2.69a0.16 0.16 0 0 0-0.18-0.18h-4.66v0.01zM5.42 29.41h-0.86c-0.12 0-0.18-0.05-0.18-0.17v-0.93c0-0.12 0.05 -0.18 0.17 -0.18h1.76c0.12 0 0.18 0.05 0.18 0.18 v0.93c0 0.12-0.05 0.18 -0.18 0.17 h-0.89zM23.94 29.41h-0.86c-0.13 0-0.18-0.05-0.18-0.18v-0.92c0-0.13 0.05 -0.18 0.18 -0.18h1.74c0.12 0 0.17 0.05 0.17 0.18 v0.93c0 0.12 0 0.18-0.17 0.17 h-0.88z" fill="#FFF"/>
  <path d="M21.17 13.86h2.43c0.18 0 0.2 0 0.2-0.2a7.1 7.1 0 0 0 0-0.73 3.14 3.14 0 0 0-0.14-0.78 2.64 2.64 0 0 0-3.29-1.61A2.56 2.56 0 0 0 18.53 13v0.63c0 0.21 0 0.23 0.24 0.23h2.4zm1.29-6a1.28 1.28 0 0 0-1.3-1.28 1.3 1.3 0 0 0-1.29 1.29 1.3 1.3 0 1 0 2.6 0l-0.01-0.01z" fill="#FFF"/>
  <path d="M21.17 13.86h-2.4c-0.22 0-0.23 0-0.24-0.23-0.01-0.23 0-0.42 0-0.63a2.56 2.56 0 0 1 1.83-2.47 2.64 2.64 0 0 1 3.29 1.61c0.08 0.253 0.126 0.515 0.14 0.78 a7.1 7.1 0 0 1 0 0.73c0 0.18 0 0.2-0.2 0.2 l-2.42 0.01 zM22.46 7.87a1.3 1.3 0 1 1-2.6 0 1.3 1.3 0 0 1 1.29-1.29 1.28 1.28 0 0 1 1.31 1.29z" fill="#FFF"/>
</svg>
