<?xml version="1.0" ?>
<svg xmlns="http://www.w3.org/2000/svg" width="38" height="31" viewBox="0 0 38 31">
  <path d="M29.6 30.52h-4.24a0.72 0.72 0 0 1-0.7-0.64c0-0.28-0.1-0.56-0.16-0.84-0.06-0.28 0-0.26-0.07-0.39l-0.24-1.34c-0.08-0.45-0.17-1-0.26-1.55s-0.15-0.78-0.22-1.17c-0.07-0.39-0.08-0.55-0.13-0.83-0.05-0.28-0.1-0.53-0.14-0.8-0.04-0.27-0.1-0.57-0.15-0.85-0.05-0.28-0.11-0.58-0.16-0.87l-0.07-0.39c-0.07-0.4-0.13-0.8-0.2-1.2-0.07-0.4-0.15-0.79-0.22-1.18-0.07-0.39-0.08-0.54-0.13-0.8s-0.11-0.58-0.16-0.87c-0.05-0.29-0.09-0.51-0.13-0.76l-0.17-0.93c0-0.25-0.08-0.51-0.13-0.76s-0.12-0.62-0.18-0.93a0.69 0.69 0 0 1 0.63-0.87 0.92 0.92 0 0 1 0.44 0.15 l1.89 1a0.24 0.24 0 0 0 0.19 0l2-1a0.71 0.71 0 0 1 0.69 0.07 l1.89 1a0.24 0.24 0 0 0 0.19 0l2-1a0.62 0.62 0 0 1 0.6 0l1.86 1a0.63 0.63 0 0 0 0.15 0.08 0.32 0.32 0 0 0 0.19 0l2-1a0.66 0.66 0 0 1 0.94 0.58 3.85 3.85 0 0 1-0.08 0.58 c0 0.16-0.07 0.32 -0.09 0.48 L37 15.78c-0.07 0.44 -0.15 0.88 -0.23 1.32l-0.24 1.39-0.29 1.66-0.24 1.4c-0.08 0.44 -0.15 0.89 -0.23 1.33-0.08 0.44 -0.15 0.78 -0.22 1.17-0.07 0.39 -0.13 0.81 -0.2 1.21-0.07 0.4 -0.15 0.78 -0.22 1.17-0.07 0.39 -0.08 0.5 -0.12 0.75 -0.04 0.25 -0.11 0.63 -0.17 0.95 l-0.07 0.39 -0.17 1a3.2 3.2 0 0 0-0.07 0.42 0.7 0.7 0 0 1-0.66 0.61 l-4.27-0.03zM32.14 14v0.17c0 0.45 0 0.91-0.07 1.36-0.05 0.77 -0.11 1.53-0.16 2.3 0 0.54-0.07 1.09-0.1 1.63-0.03 0.54 -0.09 1.36-0.13 2-0.04 0.64 -0.07 1.16-0.11 1.74-0.04 0.58 -0.08 1.36-0.12 2-0.04 0.64 -0.08 1.13-0.12 1.7-0.04 0.57 -0.08 1.35-0.13 2 0 0.11 0 0.15 0.14 0.15h1.13a0.17 0.17 0 0 0 0.2-0.17c0-0.21 0-0.43 0.07 -0.64 0.07 -0.21 0.06 -0.48 0.09 -0.72 0-0.39 0.1 -0.79 0.15 -1.18 0.05 -0.39 0.06 -0.54 0.1 -0.81 0.07 -0.53 0.13 -1.05 0.2 -1.58s0.1-0.85 0.15 -1.28c0.05-0.43 0.14 -1.08 0.21 -1.62 0.07 -0.54 0.09 -0.82 0.14 -1.22 0-0.17 0-0.34 0.06 -0.52 0.07 -0.56 0.15 -1.11 0.22 -1.67 0.05 -0.41 0.09 -0.82 0.14 -1.22 0-0.2 0.07 -0.4 0.09 -0.61 0.02 -0.21 0.05 -0.53 0.08 -0.8a0.12 0.12 0 0 0-0.05-0.09l-0.4-0.19-1.37-0.7-0.41-0.03zm-5.06 0a0.68 0.68 0 0 0-0.14 0l-0.49 0.25 -1.32 0.75 c-0.27 0.13 -0.27 0.12 -0.22 0.42 l0.15 1.18c0.05 0.39 0.05 0.5 0.09 0.74 0.07 0.54 0.14 1.07 0.2 1.6s0.1 0.85 0.15 1.28c0 0.17 0 0.34 0.06 0.5 0.05 0.39 0.12 0.78 0.16 1.16 0.04 0.38 0.09 0.79 0.13 1.18 0 0.18 0 0.35 0.06 0.53 0.07 0.55 0.15 1.1 0.22 1.65 0 0.26 0.06 0.52 0.09 0.79s0 0.34 0.06 0.51l0.15 1.25c0 0.23 0.05 0.46 0.09 0.69 0.04 0.23 0.05 0.39 0.09 0.58a0.14 0.14 0 0 0 0.1 0.08 h1.22c0.08 0 0.11 0 0.11-0.11v-0.52c0-0.5-0.05-1-0.07-1.5V27c-0.05-0.78-0.11-1.55-0.16-2.33 0-0.45 0-0.9-0.07-1.35-0.07-0.45 0-0.64-0.06-1-0.05-0.75-0.11-1.51-0.16-2.26 0-0.47 0-0.95-0.07-1.42s-0.05-0.7-0.07-1.06c-0.053-0.767-0.103-1.533-0.15-2.3 0-0.4 0-0.79-0.06-1.19a0.49 0.49 0 0 0-0.09-0.04V14zM23.71 3.29a1.3 1.3 0 0 1-0.88-1.1 1.19 1.19 0 0 1 0.31-1 1.28 1.28 0 0 1 1.92 0 1 1 0 0 1 0.77-0.65 0.84 0.84 0 0 1 0.56 0.08 1 1 0 0 1 0.51 1.25c0.15 0 0.31 0.09 0.46 0.15 0.44 0.171 0.771 0.543 0.89 1a1.56 1.56 0 0 1-0.53 1.74 1.43 1.43 0 0 1-0.83 0.33 1.65 1.65 0 0 1-0.89-0.17 0.15 0.15 0 0 1-0.09-0.2 2 2 0 0 0 0.09-0.46 1.11 1.11 0 0 0-1.24-1.09 0.42 0.42 0 0 0-0.15 0 0.51 0.51 0 0 0-0.1 0.09 s0.08 0.08 0.12 0.09 c0.281 0.044 0.533 0.2 0.7 0.43 A0.94 0.94 0 0 1 25 5.19a0.86 0.86 0 0 1-0.82 0 1.11 1.11 0 0 1-0.71-0.73 1.11 1.11 0 0 1 0.13-1l0.11-0.17zM26.82 9.71h0.13a1.39 1.39 0 0 1 1.46 0.77 1.41 1.41 0 0 1 0 1.26c0 0.08-0.06 0.09 -0.14 0l-0.8-0.41a0.6 0.6 0 0 0-0.54 0l-2.07 1a0.16 0.16 0 0 1-0.13 0l-1.5-0.76-0.52-0.27a0.18 0.18 0 0 1-0.09-0.13 1.76 1.76 0 0 1 0.68-1.27 1 1 0 0 1 0.43-0.17c0.401-0.09 0.822 0.01 1.14 0.27 0.21 0.174 0.35 0.42 0.39 0.69 0 0.17 0 0.34 0.06 0.52a0.45 0.45 0 0 0 0.06 0.12 s0.1 0 0.12-0.08a1.22 1.22 0 0 0 0.14-0.66 1.3 1.3 0 0 0-0.76-1.2 0.63 0.63 0 0 0-0.19-0.08c-0.15 0-0.16-0.12-0.13-0.22a1.2 1.2 0 0 1 0.74-0.86 1.17 1.17 0 0 1 1.51 0.77 c0.064 0.232 0.067 0.476 0.01 0.71 zM33 1.25a0.94 0.94 0 0 1 0.92 0.25 0.9 0.9 0 0 1 0.27 0.67 0.88 0.88 0 0 1-0.39 0.75 0.87 0.87 0 0 1-0.8 0.08 v0.22a0.66 0.66 0 0 1-0.84 0.74 0.46 0.46 0 0 1-0.3-0.35 0.56 0.56 0 0 1 0.35-0.61h0.06l0.06-0.07s-0.06-0.06-0.09-0.06a0.66 0.66 0 0 0-0.68 0.34 0.81 0.81 0 0 0-0.06 0.53 0.22 0.22 0 0 1-0.1 0.24 1.07 1.07 0 0 1-1.68-0.46 1.06 1.06 0 0 1 0.61-1.37h0.06a1.41 1.41 0 0 1 0.13-1.6 1.31 1.31 0 0 1 0.87-0.55A1.42 1.42 0 0 1 33 1.25zM34.15 6a4.5 4.5 0 0 1-0.33-0.56 1 1 0 0 1 0.32-1.11 1 1 0 0 1 0.72-0.22c0.254 0.023 0.492 0.137 0.67 0.32 0.06 0.06 0 0.1 0 0.14a1 1 0 0 0-0.42 0.91 0.9 0.9 0 0 0 0.51 0.76 h0.2a0.59 0.59 0 0 0-0.08-0.24 0.8 0.8 0 0 1 0.2-1.19 0.66 0.66 0 0 1 0.89 0.2 1 1 0 0 1 0 1.22l0.11 0.09 c0.273 0.197 0.468 0.484 0.55 0.81 a1.41 1.41 0 0 1-0.89 1.67 1.35 1.35 0 0 1-0.92 0 0.35 0.35 0 0 1-0.15-0.2 2.34 2.34 0 0 0-1.21-1.31 2.9 2.9 0 0 0-0.73-0.21c-0.27 0-0.33-0.11-0.25-0.38A1 1 0 0 1 34 6h0.15zM34.82 10.49a1 1 0 0 1-0.64 1.39 1.07 1.07 0 0 1-0.76-0.07 0.18 0.18 0 0 1-0.11-0.19 0.75 0.75 0 0 0-0.54-0.8 0.84 0.84 0 0 0-0.32 0s-0.07 0-0.09 0.09 c-0.02 0.09 0 0.06 0.07 0.08a0.73 0.73 0 0 1 0.43 0.49 0.53 0.53 0 0 1 0 0.15 0.47 0.47 0 0 1-0.14 0l-0.36-0.19a0.72 0.72 0 0 0-0.62 0h-0.11v-0.29a0.42 0.42 0 0 0-0.13 0 1.04 1.04 0 0 1-0.57-2 0.86 0.86 0 0 1 0.62 0 0.13 0.13 0 0 0 0.12-0.15 1.65 1.65 0 0 1 1-1.09 1.54 1.54 0 0 1 0.88-0.06c0.484 0.09 0.896 0.406 1.11 0.85 a1.09 1.09 0 0 1 0 1.15 1 1 0 0 1-1.62 0.07 1.36 1.36 0 0 0-0.1-0.12h-0.09a0.1 0.1 0 0 0 0 0.08 1 1 0 0 0 0.07 0.26 1.16 1.16 0 0 0 1.2 0.65 c0.21-0.035 0.41 -0.121 0.58 -0.25l0.12-0.05zM31.85 7.46c-0.19 0.21 -0.38 0.39 -0.54 0.59 a0.58 0.58 0 0 1-0.41 0.28 1.41 1.41 0 0 0-0.65 0.29 h-0.11a1.22 1.22 0 0 1 0-0.19 0.67 0.67 0 0 0-0.68-0.84s-0.08 0-0.12 0.07 c-0.04 0.07 0.05 0.08 0.09 0.1 0.21 0.08 0.35 0.276 0.36 0.5 a0.49 0.49 0 0 1-0.27 0.49 0.57 0.57 0 0 1-0.4 0 0.65 0.65 0 0 1-0.43-0.75v-0.17a0.89 0.89 0 0 1-0.82-0.12 0.87 0.87 0 0 1-0.37-0.94 0.83 0.83 0 0 1 0.61-0.67 2 2 0 0 1 0.45 0c0.07 0 0.11 0 0.13-0.09a1.36 1.36 0 0 1 2.6-0.23c0.138 0.32 0.138 0.68 0 1 0 0.07 0 0.15 0.05 0.19a1 1 0 0 1 0.51 0.49 zM17.17 14.71a3.53 3.53 0 0 0-0.27 0.29 0.73 0.73 0 0 0 0.25 1.06 0.86 0.86 0 0 0 0.53 0.07 0.1 0.1 0 0 1 0.12 0.07 l0.33 0.78 a0.09 0.09 0 0 1 0 0.14 0.73 0.73 0 0 0 0.13 1.31 0.89 0.89 0 0 0 0.45 0 0.07 0.07 0 0 1 0.1 0.05 c0.11 0.28 0.23 0.55 0.35 0.83 v0.09a0.74 0.74 0 0 0-0.36 0.67 0.71 0.71 0 0 0 0.52 0.65 c0.14 0.008 0.28 0.008 0.42 0a0.11 0.11 0 0 1 0.08 0c0.09 0.2 0.17 0.4 0.25 0.6 a0.19 0.19 0 0 1 0 0.06l-1.52 0.62 -1 0.45-0.8 0.33 -1.06 0.45 -1 0.42-0.91 0.38 -1 0.4-1 0.44-0.82 0.34 -1 0.44-1 0.42-1 0.44-0.74 0.3 -0.71 0.3 -0.75 0.31 -1 0.44-1 0.42-0.22 0.09 a0.08 0.08 0 0 1-0.08 0l-0.24-0.57c0-0.06 0-0.1 0.06 -0.13a0.7 0.7 0 0 0 0.28-0.36 0.73 0.73 0 0 0-0.35-0.91 0.63 0.63 0 0 0-0.53-0.06H2.6l-0.6-0.56-0.11-0.26v-0.11a0.74 0.74 0 0 0-0.57-1.35 0.11 0.11 0 0 1-0.09-0.06c-0.12-0.27-0.22-0.55-0.34-0.82v-0.11a0.74 0.74 0 0 0 0.33-0.46 0.69 0.69 0 0 0-0.08-0.54 0.77 0.77 0 0 0-0.69-0.37H0.43c-0.14 0-0.14 0-0.2-0.1L0 21.08V21l1.08-0.44 1.15-0.48 0.82 -0.34 1-0.44 1-0.43 1-0.44 0.73 -0.29 0.65 -0.27 0.72 -0.3 0.55 -0.23 0.65 -0.27 0.75 -0.31 0.71 -0.29 0.76 -0.32 1-0.39 0.82 -0.34 1-0.43 0.73 -0.3 1-0.4 0.51 -0.22c0.11 0 0.12 0 0.16 0.05 l0.22 0.56 0.16 0.03 zM1.75 21.17l2.47 6 0.29-0.17 0.85 -0.35 0.75 -0.31 0.72 -0.29 0.75 -0.31 0.86 -0.35 0.83 -0.34 0.72 -0.29 1-0.44 1-0.43 1.23-0.51 1-0.42 1.14-0.48 1.64-0.63 1.14-0.48c0.07 0 0.07 0 0-0.11s-0.15-0.36-0.22-0.54l-0.34-0.82-0.44-1-0.42-1-0.52-1.23-0.46-1.12c0-0.07-0.07-0.09-0.15-0.06l-0.74 0.31 -1 0.43-1 0.43-0.95 0.34 -1 0.44-1.39 0.56 -0.82 0.35 -0.74 0.3 L6.9 19l-1 0.39-1.27 0.61 -1 0.43L2 21l-0.25 0.17 zM6 29.26l-0.62-0.74a0.1 0.1 0 0 1 0-0.1 0.73 0.73 0 0 0 0.18-0.42 0.1 0.1 0 0 1 0.06-0.07l0.81-0.33h0.07a0.09 0.09 0 0 1 0.12 0l0.57 0.69 0.68 0.83 0.2 0.25 c0 0.05 0.07 0.05 0.12 0l0.68-0.56 1-0.84 1.27-1 1.58-1.3c0.46-0.38 0.93 -0.75 1.38-1.14 0.235 -0.22 0.505 -0.4 0.8 -0.53l0.76-0.31 1-0.4 0.17 -0.07-0.28 0.24 -1.62 1.34-1.59 1.31-1.71 1.41-1.06 0.87 L9 29.71l-1 0.85-0.45 0.37 c-0.1 0.08 -0.1 0.08 -0.18 0L7 30.47v-0.11a0.74 0.74 0 0 0-0.06-1 0.76 0.76 0 0 0-0.84-0.1H6z" fill="#FFF"/>
  <path d="M11.21 25.61l-0.5 0.42 -0.85 0.7 -0.86 0.67 -0.4 0.33 h-0.09l-0.19-0.23a0.07 0.07 0 0 1 0-0.12l1-0.85c0.14-0.12 0.27 -0.25 0.42 -0.35a2.29 2.29 0 0 1 0.39-0.18l0.84-0.35 0.14 -0.05 0.1 0.01zM16.57 21a4.59 4.59 0 0 1-0.15-0.35c-0.04-0.11-0.06-0.05-0.09 0l-0.42 0.18 -0.73 0.31 -1.06 0.43 -0.73 0.3 -1 0.43-0.74 0.31 -1.09 0.39 -0.72 0.3 -1 0.43-0.79 0.27 -0.74 0.3 -1 0.44-1.31 0.52 c-0.05 0-0.08 0.06 -0.05 0.12 l0.12 0.28 s0 0.06 0.1 0l1-0.43 1-0.4 1-0.42 1-0.42 1.07-0.45 1-0.43 0.76 -0.31 0.71 -0.29 1-0.44 1-0.43 0.75 -0.31 1.11-0.33zM15 17.19c0-0.11-0.09-0.21-0.13-0.31-0.04-0.1-0.07-0.06-0.12 0l-0.13 0.05 -0.94 0.39 -1 0.42-1 0.44-1.28 0.53 -1.4 0.49 -0.82 0.33 -0.95 0.4 -0.83 0.34 -1.07 0.45 -1 0.43-0.84 0.35 c-0.06 0-0.07 0.06 -0.05 0.11 0.02 0.05 0.08 0.19 0.12 0.28 a0.08 0.08 0 0 0 0.07 0l0.19-0.07 1-0.43 0.83 -0.34 1-0.44 1-0.4 0.86 -0.35 0.62 -0.26 0.74 -0.3 0.75 -0.31 0.53 -0.22 0.74 -0.3 0.73 -0.31 1-0.39 0.75 -0.31 0.57 -0.24 0.06 -0.03zm-3.53 4.48l-0.05-0.06-0.8-0.68a0.16 0.16 0 0 1-0.05-0.12c0-0.22 0.07 -0.43 0.11 -0.65v-0.21l-0.32 0.12 a0.17 0.17 0 0 0-0.12 0.16 c0 0.17 0 0.34-0.05 0.5 -0.05 0.16 0 0.12 0 0.2l-0.27-0.65-0.36 0.15 a0.08 0.08 0 0 0 0 0.07c0 0.07 0.06 0.14 0.09 0.21l0.62 1.48h0.09c0.074-0.04 0.15 -0.073 0.23 -0.1 0.1 0 0.09-0.08 0.06 -0.14l-0.15-0.33a0.22 0.22 0 0 1 0.06-0.23l0.48 0.44 s0.09 0.07 0.16 0a3.44 3.44 0 0 1 0.27-0.15v-0.01zm0.38-2.23l-0.86 0.36 c-0.16 0.07 -0.16 0.06 -0.09 0.23 l0.32 0.76 c0.1 0.25 0.21 0.5 0.31 0.75 0 0.07 0.06 0.08 0.12 0l0.87-0.37c0.07 0 0.09-0.06 0.05 -0.13a1 1 0 0 1-0.05-0.15c0-0.1-0.06-0.1-0.16-0.06l-0.52 0.22 -0.16-0.39 0.1 -0.06 0.39 -0.17s0.05-0.05 0-0.07c-0.05-0.02-0.07-0.18-0.11-0.28l-0.48 0.18 h-0.08s-0.08-0.2-0.11-0.31l0.52-0.21s0.09 0 0.06-0.09l-0.12-0.21zM9 20.67a0.73 0.73 0 0 0-0.44 0.14 0.68 0.68 0 0 0-0.22 0.24 0.64 0.64 0 0 0 0 0.53c0.088 0.251 0.195 0.495 0.32 0.73 0.16 0.28 0.32 0.37 0.57 0.33 a1 1 0 0 0 0.44-0.2 0.43 0.43 0 0 0 0.15-0.44c0-0.11-0.06-0.22-0.08-0.33-0.02-0.11-0.05-0.07-0.1 0l-0.26 0.11 c-0.06 0-0.06 0.05 0 0.1 0.01 0.04 0.017 0.08 0.02 0.12a0.43 0.43 0 0 1 0 0.25c-0.08 0.12 -0.21 0.08 -0.29-0.07a5.16 5.16 0 0 1-0.4-1 0.17 0.17 0 0 1 0.09-0.2 0.14 0.14 0 0 1 0.2 0 0.72 0.72 0 0 1 0.11 0.18 c0 0.07 0.06 0.06 0.11 0l0.17-0.07c0.15-0.06 0.15 -0.06 0.09 -0.2a0.49 0.49 0 0 0-0.48-0.22zm4.83-1.2l0.6 0.14 c0.07 0 0.1 0 0.1 0.1 v0.63l0.31-0.51a0.11 0.11 0 0 1 0.13-0.07l0.44 0.1 h0.18a0.22 0.22 0 0 0-0.05-0.09l-0.36-0.43a0.1 0.1 0 0 1 0-0.09c0-0.08 0.09 -0.15 0.14 -0.22l0.22-0.37h-0.08l-0.52 0.22 a0.12 0.12 0 0 1-0.17 0l-0.07-0.09-0.35-0.4v0.65a0.12 0.12 0 0 1-0.09 0.14 l-0.51 0.21 0.08 0.08 zM4.21 23.4h0.11l0.55 0.13 c0.06 0 0.08 0 0.08 0.09 v0.6a0.32 0.32 0 0 0 0 0.05l0.07-0.08 0.29 -0.47s0.06-0.06 0.09 -0.06l0.37 0.09 0.27 0.06 v-0.06l-0.36-0.42a0.11 0.11 0 0 1 0-0.15l0.18-0.29 0.14 -0.2-0.39 0.16 c-0.26 0.12 -0.26 0.12 -0.44-0.1l-0.3-0.35a1.19 1.19 0 0 0 0 0.12v0.49c0 0.17 0 0.14-0.11 0.18 l-0.55 0.21 zm8.91-4.46L13 19l-1 0.4c-0.06 0-0.08 0.06 -0.06 0.12 0.025 0.069 0.055 0.136 0.09 0.2 a0.08 0.08 0 0 0 0.07 0l0.21-0.09c0.09 0 0.12 0 0.16 0.07 l0.11 0.27 0.27 0.65 0.13 0.31 s0 0.09 0.09 0.06l0.3-0.13a0.1 0.1 0 0 0 0-0.08c-0.07-0.18-0.14-0.35-0.21-0.52l-0.35-0.84 0.3 -0.13a0.09 0.09 0 0 0 0-0.08c0.09-0.09 0.05 -0.21 0.02 -0.27h-0.01zm-5.47 4.31l-0.54-1.3c0-0.12 0-0.12 0.08 -0.18s0.23-0.1 0.14 -0.35c0-0.09-0.09-0.07-0.14 0l-0.19 0.04 -0.81 0.33 s-0.05 0.05 0 0.07c0.05 0.02 0.08 0.19 0.12 0.29 l0.23-0.15s0.09-0.05 0.13 0l0.13 0.29 c0.13 0.32 0.27 0.64 0.39 1 0 0.1 0.07 0.12 0.17 0.07l0.29-0.11zm0.94-0.38l-0.3-0.73c-0.13-0.31-0.26-0.63-0.39-0.94 0-0.07-0.06-0.08-0.12-0.06l-0.28 0.12 s-0.06 0 0 0.09 0.15 0.35 0.22 0.52c0.15 0.36 0.3 0.72 0.44 1.09 0 0.08 0.07 0.08 0.13 0.06l0.3-0.15z" fill="#FFF"/>
  <path d="M16.57 21l-0.92 0.38 -0.75 0.31 -1 0.43-1 0.44-0.71 0.29 -0.76 0.31 -1 0.43-1.18 0.41 -1 0.42-1 0.42-1 0.4-1 0.43h-0.1L5 25.38c0-0.06 0-0.09 0.05 -0.12l1.22-0.49 1-0.44 0.74 -0.3 0.73 -0.31 1-0.43 0.72 -0.3 1.05-0.43 0.74 -0.31 1-0.43 0.73 -0.3 1.06-0.43 0.73 -0.31 0.42 -0.18h0.09c0.02 0 0.24 0.26 0.29 0.4 zM15 17.19h-0.06l-0.57 0.24 -0.75 0.31 -1 0.39-0.73 0.31 -0.74 0.3 -0.53 0.22 -0.75 0.31 -0.74 0.3 -0.62 0.26 -0.86 0.35 -1 0.4-1 0.44-0.83 0.34 -1 0.43-0.19 0.07 a0.08 0.08 0 0 1-0.07 0c0-0.09-0.08-0.19-0.12-0.28-0.04-0.09 0-0.09 0.05 -0.11l0.84-0.35 1-0.43 1.07-0.45 0.83 -0.34 0.95 -0.4 0.82 -0.3 1.31-0.54 1.28-0.53 1-0.44 1-0.42 0.94 -0.39 0.13 -0.05h0.12c0.03 0 0.17 0.25 0.22 0.36 zM11.47 21.68c-0.126 0.046 -0.25 0.1 -0.37 0.16 h-0.16l-0.48-0.44a0.22 0.22 0 0 0-0.06 0.23 l0.15 0.33 c0 0.06 0 0.12-0.06 0.14 a1.62 1.62 0 0 0-0.23 0.1 h-0.09l-0.62-1.48c0-0.07-0.06-0.14-0.09-0.21a0.08 0.08 0 0 1 0-0.07l0.36-0.15 0.27 0.65v-0.2c0-0.06 0-0.33 0.05 -0.5a0.17 0.17 0 0 1 0.12-0.16l0.32-0.12v0.21c0 0.22-0.08 0.43 -0.11 0.65 a0.16 0.16 0 0 0 0.05 0.12 l0.8 0.68 0.15 0.06 zM11.85 19.45l0.12 0.28 c0 0.06 0 0.07-0.06 0.09 l-0.52 0.21 c0 0.11 0.07 0.21 0.11 0.31 0.04 0.1 0.06 0 0.08 0l0.48-0.18c0 0.09 0.08 0.18 0.11 0.28 0.03 0.1 0 0.06 0 0.07l-0.39 0.17 -0.1 0.06 0.16 0.39 0.52-0.22c0.1 0 0.12 0 0.16 0.06 a1 1 0 0 0 0.05 0.15 c0 0.07 0 0.1-0.05 0.13 l-0.87 0.37 h-0.12c-0.1-0.25-0.21-0.5-0.31-0.75L10.9 20c-0.07-0.16-0.07-0.16 0.09 -0.23l0.86-0.32zM9 20.67a0.49 0.49 0 0 1 0.48 0.34 c0.06 0.14 0.06 0.14 -0.09 0.2 l-0.17 0.07 h-0.11a0.72 0.72 0 0 0-0.11-0.22 0.14 0.14 0 0 0-0.2 0 0.17 0.17 0 0 0-0.09 0.2 c0.098 0.346 0.232 0.682 0.4 1 0.08 0.15 0.21 0.18 0.29 0.07 a0.43 0.43 0 0 0 0-0.25 0.63 0.63 0 0 0-0.06-0.16v-0.1l0.26-0.11h0.1c0.01 0 0.07 0.22 0.08 0.33 a0.43 0.43 0 0 1-0.17 0.43 1 1 0 0 1-0.44 0.2 c-0.26 0-0.42 0-0.57-0.33a5.28 5.28 0 0 1-0.32-0.73 0.64 0.64 0 0 1 0-0.53 0.68 0.68 0 0 1 0.22-0.24 0.73 0.73 0 0 1 0.5-0.17zM13.79 19.47l0.06-0.05 0.51 -0.21a0.12 0.12 0 0 0 0.09-0.14v-0.52-0.13l0.35 0.4 0.07 0.09 a0.12 0.12 0 0 0 0.17 0l0.52-0.22h0.08l-0.22 0.37 c0 0.07-0.1 0.15 -0.14 0.22 a0.1 0.1 0 0 0 0 0.09l0.36 0.43 a0.22 0.22 0 0 1 0.05 0.09 h-0.18l-0.44-0.1a0.11 0.11 0 0 0-0.13 0.07 l-0.31 0.51 v-0.19-0.44c0-0.15 0-0.09-0.1-0.1l-0.74-0.17zM4.21 23.4l0.57-0.23c0.11 0 0.12-0.05 0.11 -0.18-0.01-0.13 0-0.32 0-0.49a1.19 1.19 0 0 1 0-0.12l0.3 0.35 c0.18 0.22 0.18 0.22 0.44 0.1 l0.37-0.16-0.14 0.24 -0.18 0.29 a0.11 0.11 0 0 0 0 0.15l0.36 0.42 v0.06l-0.27-0.06-0.37-0.09s-0.07 0-0.09 0.06 l-0.29 0.47 -0.02 0.11 a0.32 0.32 0 0 1 0-0.05v-0.6c0-0.2 0-0.08-0.08-0.09l-0.55-0.13-0.16-0.05zM13.13 18.94c0 0.09 0.08 0.18 0.1 0.26a0.09 0.09 0 0 1 0 0.08l-0.3 0.13 0.35 0.84 c0.07 0.17 0.15 0.35 0.21 0.52 a0.1 0.1 0 0 1 0 0.08l-0.3 0.13 c-0.06 0-0.08 0-0.09-0.06l-0.13-0.31-0.35-0.61-0.11-0.27c0-0.09-0.07-0.1-0.16-0.07l-0.21 0.09 a0.08 0.08 0 0 1-0.07 0 1.52 1.52 0 0 1-0.09-0.2c0-0.06 0-0.09 0.06 -0.12l1-0.4 0.09 -0.09zM7.65 23.25l-0.3 0.13 c-0.09 0-0.13 0-0.17-0.07-0.12-0.32-0.26-0.64-0.39-1l-0.13-0.29c0-0.07-0.08 0-0.13 0l-0.26 0.11 c0-0.1-0.08-0.19-0.12-0.29-0.04-0.1 0-0.06 0-0.07l0.85-0.31 0.17 -0.08h0.14c0.1 0.25 0.1 0.24 -0.14 0.35 -0.24 0.11 -0.13 0.06 -0.08 0.18 l0.56 1.34zM8.58 22.87l-0.32 0.13 c-0.06 0-0.1 0-0.13-0.06-0.14-0.36-0.29-0.72-0.44-1.09-0.07-0.17-0.14-0.35-0.22-0.52-0.08-0.17 0-0.07 0-0.09l0.28-0.12c0.06 0 0.09 0 0.12 0.06 0.12 0.32 0.26 0.63 0.39 0.94 l0.32 0.75 z" fill="#FFF"/>
</svg>
