<?xml version="1.0" ?>
<svg xmlns="http://www.w3.org/2000/svg" width="28" height="32" viewBox="0 0 28 32">
  <path d="M0 10.56c0-0.88 0-1.77 0.09 -2.65 0-0.54 0.07 -1.09 0.12 -1.63 0-0.32 0.06 -0.64 0.11 -1A0.92 0.92 0 0 1 1 4.61l2.14-0.78 2.1-0.75 1.74-0.64 1.71-0.64 1.74-0.64 1.42-0.51 1.42-0.51c0.192-0.085 0.4 -0.133 0.61 -0.14 0.251 0.035 0.496 0.102 0.73 0.2L16 0.72l1.43 0.52 1.59 0.57 1.42 0.52 1.42 0.51 1.41 0.51 1.42 0.52 1.6 0.58 c0.17 0.06 0.35 0.12 0.52 0.2 a0.9 0.9 0 0 1 0.55 0.79 l0.18 2.19c0.11 1.4 0.144 2.806 0.1 4.21 0 0.69-0.07 1.38-0.12 2.07-0.04 0.52 -0.1 1.04-0.18 1.56-0.08 0.54 -0.18 1.07-0.28 1.6-0.1 0.53 -0.16 0.83 -0.26 1.24-0.1 0.41 -0.25 0.95 -0.41 1.41-0.21 0.61 -0.41 1.23-0.67 1.82a22 22 0 0 1-1 2 15.5 15.5 0 0 1-3.25 4A14.1 14.1 0 0 1 18 29.9a18.61 18.61 0 0 1-1.82 0.69 10.3 10.3 0 0 1-1.32 0.35 6 6 0 0 1-1.18 0.13 5.5 5.5 0 0 1-1-0.16c-0.28-0.05-0.55-0.12-0.82-0.19a9 9 0 0 1-1.06-0.33c-0.66-0.28-1.32-0.57-2-0.89a11.93 11.93 0 0 1-2.06-1.35 15.2 15.2 0 0 1-2.51-2.52 15.37 15.37 0 0 1-1.75-2.74c-0.32-0.65-0.62-1.32-0.89-2-0.2-0.5-0.35-1-0.51-1.53-0.16-0.53-0.24-0.83-0.35-1.24-0.11-0.41-0.14-0.65-0.2-1S0.47 16.36 0.4 16c0-0.15-0.05-0.3-0.07-0.45 0-0.43-0.1-0.86-0.13-1.29-0.06-0.77-0.13-1.5-0.2-2.26v-1.47 0.03 zm9.87 2.54h-0.45a1.51 1.51 0 0 0-0.4 0.07 1.48 1.48 0 0 0-1 1.4v5.78a2 2 0 0 0 0 0.37c0.151 0.643 0.72 1.1 1.38 1.11h8.82a1.25 1.25 0 0 0 0.43-0.07 1.48 1.48 0 0 0 1-1.41v-5.78c0.01-0.12 0.01 -0.24 0-0.36a1.45 1.45 0 0 0-1.45-1.11h-0.33a1.1 1.1 0 0 1 0-0.11v-2.38A3.55 3.55 0 0 0 17.6 9a2.85 2.85 0 0 0-2.71-1.74h-2a5.53 5.53 0 0 0-0.62 0.05 2.64 2.64 0 0 0-1.42 0.69 2.79 2.79 0 0 0-0.92 1.61c-0.05 0.33 -0.07 0.666 -0.06 1v2.5-0.01z" fill="#FFF"/>
  <path d="M13.86 13.1H12c-0.13 0-0.17 0-0.17-0.17v-2.7a1 1 0 0 1 1-1h2.06a0.93 0.93 0 0 1 0.94 0.61 c0.052 0.13 0.079 0.27 0.08 0.41 v2.7c0 0.13 0 0.17-0.17 0.17 h-1.88v-0.02zM13.25 18.5v-1.06a0.21 0.21 0 0 0-0.1-0.2 1.14 1.14 0 0 1-0.49-1.18c0.055-0.481 0.4 -0.879 0.87 -1a1.23 1.23 0 0 1 1.5 0.84 1.25 1.25 0 0 1-0.47 1.31 0.2 0.2 0 0 0-0.09 0.2 v2.09a0.35 0.35 0 0 1-0.38 0.37 h-0.53a0.3 0.3 0 0 1-0.31-0.31V18.5z" fill="#FFF"/>
</svg>
