<?xml version="1.0" ?>
<svg xmlns="http://www.w3.org/2000/svg" width="30" height="32" viewBox="0 0 30 32">
  <path d="M18.7 22.17a15.16 15.16 0 0 1 0.31-3 15 15 0 0 1 0.68-2.54c0.067-0.18 0.14 -0.357 0.22 -0.53 0-0.11 0-0.17-0.09-0.21A4.21 4.21 0 0 1 17 13a6.59 6.59 0 0 1-0.26-2.35c0-0.47 0.09 -0.94 0.15 -1.41a0.76 0.76 0 0 1 0.84-0.63 0.75 0.75 0 0 1 0.68 0.74 c0 0.23 0 0.45-0.07 0.68 a6.44 6.44 0 0 0 0.09 2.35 2.7 2.7 0 0 0 2.18 2.16c0.304 0.053 0.612 0.083 0.92 0.09 a8.59 8.59 0 0 1 2.3 0.53 0.67 0.67 0 0 0 0.31 0 5.2 5.2 0 0 0 2-0.72 2.86 2.86 0 0 0 1.36-2.23 0.76 0.76 0 0 1 0.66-0.7 0.77 0.77 0 0 1 0.85 0.58 1.12 1.12 0 0 1 0 0.41 4.42 4.42 0 0 1-1.32 2.66 5.51 5.51 0 0 1-2.13 1.23l-0.47 0.13 a0.15 0.15 0 0 0-0.13 0.19 c0.09 0.76 0.14 1.52 0.27 2.27s0.3 1.49 0.5 2.22c0.126 0.41 0.28 0.81 0.46 1.2 0.05 0.13 0.05 0.22-0.08 0.27 l-1.21 0.54 c-0.18 0.08 -0.19 0.08 -0.11 0.26 a2.47 2.47 0 0 0 2.05 1.45c0.283 0.015 0.567 0.015 0.85 0a1.012 1.012 0 0 1 0.31 2 0.91 0.91 0 0 1-0.27 0.05 5.35 5.35 0 0 1-3.07-0.71 4.49 4.49 0 0 1-1.83-2.2 0.14 0.14 0 0 0-0.21-0.1l-0.64 0.19 c-0.08 0-0.14 0.05 -0.12 0.17 a13 13 0 0 0 0.64 2.31c0.34 0.88 0.782 1.716 1.32 2.49a1 1 0 1 1-1.63 1.15 13.37 13.37 0 0 1-1.44-2.62 14.62 14.62 0 0 1-0.75-2.56 2.42 2.42 0 0 1-0.06-0.31c0-0.14-0.08-0.14-0.19-0.13a3.77 3.77 0 0 1-0.5 0 0.26 0.26 0 0 1-0.24-0.21 6.74 6.74 0 0 1-0.31-2.27zM11.07 27.51c-0.015 0.953 -0.15 1.9-0.4 2.82a1.21 1.21 0 0 1-1.11 0.87 1.24 1.24 0 0 1-1.22-0.82 1.69 1.69 0 0 1 0-1 7.8 7.8 0 0 0 0.18-2.71 5.15 5.15 0 0 0-0.93-2.45l-0.09-0.12c-0.16-0.2-0.16-0.2-0.4-0.08a0.23 0.23 0 0 0-0.14 0.23 4.93 4.93 0 0 1-0.35 1.81 2.79 2.79 0 0 1-2.13 1.76 4 4 0 0 1-2-0.16 12.66 12.66 0 0 1-1.33-0.52 1.22 1.22 0 0 1-0.63-1.68A1.24 1.24 0 0 1 2.25 25c0.428 0.232 0.89 0.394 1.37 0.48 h0.11c0.42 0.05 0.62-0.07 0.71 -0.48a3.27 3.27 0 0 0-0.06-1.74c-0.21-0.67-0.39-1.34-0.54-2a18 18 0 0 1-0.42-3.85 0.21 0.21 0 0 0-0.13-0.2A6.41 6.41 0 0 1 0.94 15a5.66 5.66 0 0 1-0.88-2.5 9.1 9.1 0 0 1 0-1.34 7.76 7.76 0 0 1 0.13-1.22 0.75 0.75 0 0 1 0.86-0.53 0.77 0.77 0 0 1 0.62 0.89 6 6 0 0 0-0.08 2.15A4.34 4.34 0 0 0 3 15.11a8 8 0 0 0 1.07 0.75 c0.161 0.087 0.338 0.14 0.52 0.16 l2.21 0.33 h0.25a1.45 1.45 0 0 0 1-0.27 5.49 5.49 0 0 0 2.78-3.35c0.126-0.424 0.23 -0.855 0.31 -1.29a0.79 0.79 0 0 1 0.88-0.65 0.73 0.73 0 0 1 0.65 0.79 7.22 7.22 0 0 1-0.19 1.06 7.78 7.78 0 0 1-1.05 2.41 6.91 6.91 0 0 1-3.15 2.61 0.18 0.18 0 0 0-0.13 0.21 13.16 13.16 0 0 0 0.67 3.73c0.094 0.297 0.247 0.573 0.45 0.81 a6.91 6.91 0 0 1 1.47 2.92c0.073 0.27 0.13 0.544 0.17 0.82 0.09 0.49 0.09 0.93 0.16 1.36zM12.6 7.68a3.84 3.84 0 1 1 0-7.68 3.84 3.84 0 0 1 0 7.68zM13.82 7l-0.23-0.44a18.23 18.23 0 0 1-1.15-3.16c0-0.09-0.05-0.14-0.15-0.1a0.87 0.87 0 0 1-0.67 0 0.16 0.16 0 0 0-0.2 0A4.93 4.93 0 0 0 10 5.56a0.6 0.6 0 0 0 0.18 0.65 3.39 3.39 0 0 0 3 1 5.37 5.37 0 0 0 0.64-0.21zM16 3.69a1.83 1.83 0 0 0 0-0.29 6.37 6.37 0 0 0-0.23-0.85A3.35 3.35 0 0 0 14.06 0.79 a0.25 0.25 0 0 0-0.31 0l-0.95 0.83 a0.11 0.11 0 0 0 0 0.17 0.73 0.73 0 0 1 0.13 0.27 c0 0.13 0.1 0.16 0.2 0.19l0.47 0.14 a7.65 7.65 0 0 1 1.78 0.8 c0.18 0.17 0.37 0.33 0.62 0.5 zm-6.39-1.4H11s0.09-0.06 0.1 -0.1a1 1 0 0 1 0.46-0.64 0.22 0.22 0 0 0 0.08-0.17c0-0.21 0-0.41-0.08-0.62-0.08-0.21-0.06-0.14-0.17-0.1a3.38 3.38 0 0 0-1.71 1.49l-0.07 0.14 z" fill="#FFF"/>
  <path d="M3.46 12.52a2.69 2.69 0 1 1 5.38 0.02 2.69 2.69 0 0 1-5.38-0.02zM24.88 11.66a2.46 2.46 0 1 1-2.42-2.46 2.45 2.45 0 0 1 2.42 2.46z" fill="#FFF"/>
</svg>
