<?xml version="1.0" ?>
<svg xmlns="http://www.w3.org/2000/svg" width="31" height="37" viewBox="0 0 31 37">
  <path d="M30.43 17.78v16.1a1.67 1.67 0 0 1-0.74 1.47 1.58 1.58 0 0 1-1 0.21 1 1 0 0 1-1-0.65 2.09 2.09 0 0 1-0.16-0.78V20.77c0-0.25 0-0.25-0.26-0.25h-5.2a0.74 0.74 0 0 1-0.54-0.21 0.61 0.61 0 0 1-0.11-0.64 0.56 0.56 0 0 1 0.58-0.37h5.32c0.26 0 0.26 0 0.26-0.27v-0.43c0-0.2 0-0.22-0.22-0.22h-5.24a0.7 0.7 0 0 1-0.55-0.15 0.66 0.66 0 0 1-0.15-0.67 0.57 0.57 0 0 1 0.55-0.37h5.36c0.2 0 0.21 0 0.22-0.21 0.01 -0.21 0-0.35 0-0.52 0-0.17-0.05-0.19-0.2-0.19h-5.28a1 1 0 0 1-0.38-0.08 0.58 0.58 0 0 1-0.3-0.63 0.54 0.54 0 0 1 0.38-0.45 1.27 1.27 0 0 1 0.34 0h5.21c0.22 0 0.22 0 0.23-0.22v-0.42c0-0.25 0-0.25-0.25-0.25h-5.25a0.6 0.6 0 0 1-0.58-0.3A0.59 0.59 0 0 1 22 13h5.38c0.17 0 0.22-0.06 0.21 -0.22-0.01-0.16 0-0.34 0-0.5 0-0.16 0-0.22-0.21-0.22H22a0.57 0.57 0 0 1-0.55-0.27 0.59 0.59 0 0 1 0-0.6 0.53 0.53 0 0 1 0.52-0.31h5.36c0.2 0 0.21 0 0.21-0.21v-0.54c0-0.18-0.05-0.19-0.2-0.19H22a0.77 0.77 0 0 1-0.34-0.07 0.52 0.52 0 0 1-0.31-0.56 0.52 0.52 0 0 1 0.34-0.5 1.06 1.06 0 0 1 0.4-0.08h5.2c0.21 0 0.22 0 0.22-0.22V8c0-0.17-0.05-0.17-0.18-0.17h-5.27a0.62 0.62 0 0 1-0.6-0.31 0.59 0.59 0 0 1 0.51-0.9h5.31c0.26 0 0.26 0 0.27-0.25V5.9c0-0.23 0-0.24-0.24-0.24h-5.42a0.56 0.56 0 0 1-0.5-0.51 0.56 0.56 0 0 1 0.43-0.65H27.29c0.25 0 0.26 0 0.26-0.25v-0.49c0-0.16-0.05-0.19-0.2-0.19H22.1a0.63 0.63 0 0 1-0.72-0.6 0.65 0.65 0 0 1 0.73-0.62h5.2c0.23 0 0.23 0 0.23-0.23v-0.77c0-0.26-0.05-0.17-0.18-0.17H22a0.56 0.56 0 0 1-0.6-0.34 0.58 0.58 0 0 1 0.5-0.84h6.26c0.492-0.017 0.98 0.09 1.42 0.31 0.513 0.265 0.837 0.793 0.84 1.37v2l0.01 14.1zM10.22 25.62c0.177-0.12 0.361 -0.23 0.55 -0.33 0.31 -0.13 0.63 -0.25 1-0.35 0.4 -0.11 0.818 -0.14 1.23-0.09a3.9 3.9 0 0 1 3.2 2.35 3.57 3.57 0 0 1 0.27 2 4.06 4.06 0 0 1-0.58 1.59A3.8 3.8 0 0 1 14 32.36c-0.18 0.07 -0.22 0.13 -0.19 0.33 0.084 0.505 0.236 0.996 0.45 1.46 0.284 0.425 0.424 0.93 0.4 1.44a1 1 0 0 1-0.13 0.33 c-0.17 0.29 -0.59 0.26 -0.82 0.17 a2.16 2.16 0 0 1-1.21-1.25 5 5 0 0 1-0.29-2c0-0.16 0-0.22-0.2-0.25A4 4 0 0 1 9 30.1a3.44 3.44 0 0 1-0.23-1.23v-9.34c0-0.28 0-0.28-0.28-0.28H8c-0.15 0-0.21 0.05 -0.21 0.21 v9.21a3.82 3.82 0 0 1-0.85 2.47 3.86 3.86 0 0 1-1.72 1.25 3.79 3.79 0 0 1-2 0.19 3.82 3.82 0 0 1-2.8-2 2.85 2.85 0 0 1-0.4-1.2 7.29 7.29 0 0 1 0-1A3.82 3.82 0 0 1 1.3 25.8a3.66 3.66 0 0 1 1.51-0.8 3.54 3.54 0 0 1 1.91-0.05c0.33 0.09 0.64 0.23 1 0.33 0 0 0.09 0 0.11-0.07 0.02 -0.07 0-0.08 0-0.12v-8.92c0.031-0.476 0.088 -0.95 0.17 -1.42 0-0.48 0.11 -1 0.16-1.43 0.05 -0.43 0.14 -1.1 0.2 -1.64 0-0.23 0.06 -0.45 0.08 -0.68 0.06 -0.52 0.11 -1.05 0.17 -1.58 0.08 -0.68 0.18 -1.37 0.27 -2 0-0.28 0-0.56 0.08 -0.84 0.04 -0.58 0.1 -1.1 0.16 -1.58 0-0.22 0.06 -0.43 0.08 -0.64 0.06 -0.52 0.11 -1 0.17-1.55 0.08 -0.71 0.16 -1.42 0.27 -2.12A1.2 1.2 0 0 1 8 0.12c0.14-0.15 0.4 -0.07 0.54 0.15 0.144 0.207 0.23 0.449 0.25 0.7 0 0.55 0.11 1.09 0.17 1.63 0 0.25 0.06 0.5 0.08 0.75 0.02 0.25 0.06 0.72 0.1 1.07l0.22 2.28c0 0.24 0.05 0.48 0.07 0.71 0.06 0.56 0.1 1.11 0.16 1.66 0.06 0.55 0.14 1.1 0.2 1.64 0 0.23 0.05 0.46 0.07 0.7l0.24 2.42c0.07 0.59 0.17 1.17 0.2 1.77V24.66c0.049 0.324 0 0.654-0.14 0.95 l0.06 0.01 zm4.3 3.1a1.92 1.92 0 1 0-3.84 0.003 1.92 1.92 0 0 0 3.84-0.003zM3.9 26.8a1.92 1.92 0 1 0 1.9 1.9 1.89 1.89 0 0 0-1.9-1.9z" fill="#FFF"/>
</svg>
