<?xml version="1.0" ?>
<svg xmlns="http://www.w3.org/2000/svg" width="36" height="36" viewBox="0 0 36 36">
  <path d="M4.66 33.68A5.26 5.26 0 0 1 2.24 33a4.22 4.22 0 0 1-2.1-2.8A5 5 0 0 1 0 28.48a8.34 8.34 0 0 1 0.78-2.71A13.54 13.54 0 0 1 5 20.83a32.21 32.21 0 0 1 5.05-3 31.87 31.87 0 0 1 4-1.66 15.24 15.24 0 0 1 3.71-0.84 4.06 4.06 0 0 1 2.25 0.37 c0.11 0.06 0.17 0 0.25-0.06l2.09-1.8 7.6-6.53c0.19-0.16 0.19 -0.16 0-0.35-0.32-0.38-0.65-0.76-1-1.16a1.15 1.15 0 0 1 0.56-1.88c0.45-0.13 0.934 0.029 1.22 0.4 l0.93 1.11c0.17 0.2 0.17 0.21 0.37 0 0.2-0.21 0.61 -0.53 0.92 -0.78 0.12 -0.11 0.13 -0.17 0-0.3-0.66-0.78-1.3-1.59-2-2.36a1.19 1.19 0 0 1 0.56-2 1.1 1.1 0 0 1 1.18 0.42 c0.38 0.44 0.74 0.89 1.11 1.33l1.63 2c0.198 0.232 0.323 0.517 0.36 0.82 a1.13 1.13 0 0 1-0.44 1.06L33.2 7.55l-7.33 6.3-4.51 3.88a0.46 0.46 0 0 0-0.15 0.26 7.66 7.66 0 0 1-0.84 2.88 26.44 26.44 0 0 1-3.43 5.2 38.64 38.64 0 0 1-3.7 4 14.55 14.55 0 0 1-4.16 2.73 10.43 10.43 0 0 1-4.42 0.88 zm2.82-4a2.62 2.62 0 0 0-0.22-0.48l-2-2.9a0.76 0.76 0 0 0-1.09-0.25 0.78 0.78 0 0 0-0.17 1.12l0.51 0.74 c0.51 0.74 1 1.49 1.54 2.23a0.73 0.73 0 0 0 0.89 0.29 0.86 0.86 0 0 0 0.54-0.74v-0.01z" fill="#FFF"/>
  <path d="M21.88 21.39v0.14a15.58 15.58 0 0 1-0.14 2.36 14.77 14.77 0 0 1-0.57 2.43 14.24 14.24 0 0 1-2.05 4 14 14 0 0 1-4.76 4.21 11.81 11.81 0 0 1-3.1 1.15 9.71 9.71 0 0 1-2.84 0.21 8.89 8.89 0 0 1-2.59-0.61l-0.11-0.05 0.58 -0.08a12.55 12.55 0 0 0 2.89-0.75 16.44 16.44 0 0 0 5.88-4 44.85 44.85 0 0 0 5-5.94 21.15 21.15 0 0 0 1.71-3 0.22 0.22 0 0 1 0.05-0.08l0.05 0.01 z" fill="#FFF"/>
</svg>
