<?xml version="1.0" ?>
<svg xmlns="http://www.w3.org/2000/svg" width="25" height="31" viewBox="0 0 25 31">
  <path d="M10 26.68c0 0.34 0.11 0.79 0.2 1.24 0.09 0.45 0.21 0.93 0.28 1.39a1.65 1.65 0 0 1-0.06 0.66 c-0.09 0.31 -0.34 0.33 -0.59 0.25 a3 3 0 0 1-1.37-0.95 7.69 7.69 0 0 1-1.38-2.34c-0.25-0.63-0.48-1.28-0.7-1.93-0.15-0.47-0.25-0.95-0.37-1.43s-0.23-0.95-0.34-1.42c-0.07-0.32-0.12-0.65-0.19-1s-0.2-0.74-0.32-1.11c-0.12-0.37-0.3-0.86-0.44-1.3A11.35 11.35 0 0 0 3.94 17l-1.85-3.64c-0.38-0.75-0.77-1.49-1.16-2.24a7.85 7.85 0 0 1-0.66-1.59A5.5 5.5 0 0 1 0 8c-0.024-0.45-0.024-0.9 0-1.35a10 10 0 0 1 0.3-1.3 6.67 6.67 0 0 1 1.07-2.21A7.52 7.52 0 0 1 4.06 0.82 6.26 6.26 0 0 1 5.57 0.25 a9.54 9.54 0 0 1 1.21-0.2A4.51 4.51 0 0 1 7.6 0c0.446 0.031 0.89 0.088 1.33 0.17 a6.72 6.72 0 0 1 2.61 1.07c0.255 0.16 0.495 0.34 0.72 0.54 a1.45 1.45 0 0 0 1.7 0.15 7.75 7.75 0 0 1 1.61-0.65 6.87 6.87 0 0 1 5.43 0.85 6.87 6.87 0 0 1 2.41 2.58c0.246 0.455 0.444 0.934 0.59 1.43 0.18 0.604 0.274 1.23 0.28 1.86a8.6 8.6 0 0 1-0.15 1.33 7.34 7.34 0 0 1-1 2.58 20.49 20.49 0 0 0-1.55 3.24c-0.27 0.69 -0.51 1.4-0.73 2.11-0.17 0.55 -0.32 1.1-0.45 1.66-0.09 0.35 -0.14 0.71 -0.2 1.07a22.53 22.53 0 0 0-0.25 2.32 14.4 14.4 0 0 1-0.21 1.69 17.91 17.91 0 0 1-0.42 1.93 6.52 6.52 0 0 1-1.21 2.3c-0.44 0.56 -0.91 1.11-1.36 1.67-0.389 0.36 -0.95 0.46 -1.44 0.26 a0.63 0.63 0 0 1-0.34-0.56v-1.08c0-0.36 0.05 -0.67 0.06 -1 0-1 0.06-2.07 0.06 -3.1a14.53 14.53 0 0 0-0.09-1.67 2.93 2.93 0 0 0-0.45-1.4 1.81 1.81 0 0 0-0.89-0.72l-1-0.44a2 2 0 0 0-1-0.08l-0.21 0.05 a0.74 0.74 0 0 0-0.49 0.63 c0 0.32-0.14 0.62 -0.21 0.93 -0.07 0.31 -0.09 0.46 -0.14 0.69 -0.05 0.23 -0.15 0.74 -0.21 1.11-0.06 0.37 -0.1 0.56 -0.14 0.84 -0.04 0.28 -0.12 0.74 -0.16 1.11-0.04 0.37 -0.1 0.73 -0.1 1.21z" fill="#FFF"/>
</svg>
