<?xml version="1.0" ?>
<svg xmlns="http://www.w3.org/2000/svg" width="39" height="32" viewBox="0 0 39 32">
  <path d="M6 22.83v-9c-0.19 0.15 -0.34 0.26 -0.48 0.39 l-4.09 3.65c-0.13 0.11 -0.2 0.11 -0.31 0-0.34-0.37-0.69-0.73-1-1.09-0.11-0.12-0.13-0.2 0-0.32a652.867 652.867 0 0 0 4.51-3.89L8.74 9A0.53 0.53 0 0 0 9 8.53V2.77h1.86v4.38c0.1-0.06 0.17 -0.08 0.22 -0.12l4-3.56L18.65 0.28 c0.41-0.37 0.43 -0.37 0.85 0L23.72 4l3.68 3.2 4.52 4 4.52 3.93 1.61 1.4c0.13 0.11 0.11 0.19 0 0.3L37 17.88c-0.1 0.11 -0.17 0.09 -0.28 0l-4.07-3.59c-0.15-0.14-0.31-0.26-0.5-0.43v9" fill="#FFF"/>
  <path d="M32.13 21v10.54H6V21.1" fill="#FFF"/>
  <path d="M22 24.36l-0.28 0.1 -0.94 0.34 a0.24 0.24 0 0 0-0.11 0.09 l-1.38 2.26c-0.12 0.2 -0.23 0.42 -0.35 0.63 a1.55 1.55 0 0 1-0.51 0.54 0.49 0.49 0 0 1-0.73-0.3 1.47 1.47 0 0 1 0-0.66 6.06 6.06 0 0 1 0.46-1.36c0.16-0.41 0.31 -0.83 0.47 -1.24 0.102 -0.32 0.229 -0.63 0.38 -0.93a1.51 1.51 0 0 1 0.76-0.65l1-0.43 1.33-0.61c0.19-0.08 0.19 -0.08 0.11 -0.27l-0.73-1.54c-0.1-0.22-0.21-0.43-0.31-0.65 0-0.05 0-0.06-0.08 0l-1.16 0.71 a1 1 0 0 1-0.59 0.18 0.47 0.47 0 0 1-0.3-0.1l-1.74-1.16-0.49-0.37a0.9 0.9 0 0 1-0.19-0.2 0.35 0.35 0 0 1 0-0.41 1 1 0 0 1 0.14-0.22 0.35 0.35 0 0 1 0.47-0.13c0.16 0.06 0.16 0.07 0.24-0.08l0.36-0.65a0.27 0.27 0 0 0 0-0.12 0.54 0.54 0 0 1 0.57-0.49 0.5 0.5 0 0 1 0.45 0.47 0.47 0.47 0 0 1-0.35 0.54 0.41 0.41 0 0 0-0.13 0.08 l-0.52 0.48 c-0.06 0.06 -0.06 0.07 0 0.11 0.4 0.21 0.81 0.41 1.21 0.63 a0.23 0.23 0 0 0 0.28 0c0.47-0.33 1-0.64 1.43-1 0.43-0.36 0.88 -0.58 1.31-0.88 0.21 -0.15 0.41 -0.34 0.61 -0.51l1.43-1.14c0.63-0.49 1.28-1 1.95-1.41a5.93 5.93 0 0 1 1-0.59 1.34 1.34 0 0 1 0.27-0.07 0.34 0.34 0 0 1 0.34 0.29 0.53 0.53 0 0 1-0.08 0.31 3.74 3.74 0 0 1-0.71 0.82 c-0.55 0.49 -1.1 1-1.67 1.46-0.57 0.46 -1.19 1-1.79 1.45 0 0-0.05 0 0 0.11 0.24 0.34 0.46 0.69 0.7 1l1.07 1.59c0.2 0.3 0.4 0.6 0.59 0.9 0.142 0.225 0.247 0.472 0.31 0.73 0.05 0.2 0.05 0.41 0 0.61-0.055 0.2 -0.166 0.38 -0.32 0.52 l-1.61 1.65a0.1 0.1 0 0 0 0 0.15l1 1.52c0.33 0.51 0.66 1 1 1.52 0.153 0.222 0.255 0.474 0.3 0.74a0.49 0.49 0 0 1-0.28 0.62 0.57 0.57 0 0 1-0.51 0 2.15 2.15 0 0 1-0.72-0.58c-0.27-0.31-0.53-0.62-0.78-0.94l-1.76-2.19a1.61 1.61 0 0 1-0.34-0.48 0.94 0.94 0 0 1 0-0.68l-0.08-0.11zm-3.32-7.23a0.26 0.26 0 0 0 0-0.11 0.4 0.4 0 0 0-0.61-0.15v0.12a1 1 0 0 0 0.41 0.33 c0.18 0.08 0.19 0.08 0.24-0.11a0.17 0.17 0 0 0 0-0.08h-0.04zm-0.28 0.38 l-0.4-0.38c-0.1 0.24 0.21 0.51 0.44 0.38 h-0.04z" fill="#AA2BAD"/>
  <path d="M19 15.73a1.47 1.47 0 0 1 1.48-1.49A1.49 1.49 0 1 1 19 15.73z" fill="#AA2BAD"/>
</svg>
