<?xml version="1.0" ?>
<svg xmlns="http://www.w3.org/2000/svg" width="31" height="32" viewBox="0 0 31 32">
  <path d="M20.94 29c-0.47 0.09 -0.93 0.2 -1.4 0.25 -1.12 0.11 -2.24 0.19 -3.36 0.27 -0.15 0-0.23 0.06 -0.22 0.21 0 0.36 0 0.72 0.09 1.07 0.09 0.35 0 0.22-0.17 0.22 a19.44 19.44 0 0 1-4.63-0.5c-0.45-0.09-0.45-0.1-0.52-0.55a3.58 3.58 0 0 1 0-0.57c0-0.14-0.05-0.2-0.2-0.22a25.9 25.9 0 0 1-3.57-0.8c-0.16 0-0.32-0.11-0.48-0.15a0.38 0.38 0 0 1-0.3-0.33 4.63 4.63 0 0 1 0-2v-0.12c0.08-0.39 0.14 -0.34-0.29-0.45a19.17 19.17 0 0 1-3.19-1.12c-0.62-0.3-0.52-0.2-0.42-0.83a10.53 10.53 0 0 1 1-2.73l0.06-0.11c0.07-0.12 0-0.17-0.1-0.23-0.72-0.31-1.45-0.63-2.16-1a6.91 6.91 0 0 1-0.86-0.59 0.24 0.24 0 0 1-0.09-0.34c0.31-0.66 0.61 -1.33 0.94 -2 0.21-0.42 0.46 -0.81 0.7 -1.22 0.08 -0.13 0.08 -0.19-0.06-0.27a5.43 5.43 0 0 1-1.49-1.05 0.8 0.8 0 0 1-0.11-0.95c0.55-0.89 1.1-1.78 1.66-2.66a8.29 8.29 0 0 1 0.55-0.77c0.11-0.14 0.1 -0.22 0-0.35l-0.63-0.81a0.38 0.38 0 0 1 0-0.42c0.43-0.838 0.961 -1.62 1.58-2.33 0.5 -0.55 1.05-1.09 1.58-1.63L5 3.79a0.45 0.45 0 0 1 0.06 0.12 c0.107 0.5 0.36 0.956 0.73 1.31 0.07 0.08 0.12 0.1 0.21 0a28 28 0 0 1 3.67-3 6.48 6.48 0 0 1-0.26-0.78c-0.07-0.25 0-0.27 0.19 -0.37 1.188-0.5 2.44-0.83 3.72-0.98 0.32 0 0.65-0.06 1-0.09h0.18l-0.18 0.07 a24.67 24.67 0 0 0-3.81 1.63L10 2c-0.19 0.12 -0.19 0.14 0 0.27a4.09 4.09 0 0 0 1.25 0.54 11.41 11.41 0 0 0 2.33 0.35 h0.24c0.34 0.054 0.69 0.002 1-0.15a16.45 16.45 0 0 1 5.07-1.61c0.44-0.07 0.88 -0.09 1.33-0.12 0.25 0 0.3 0.05 0.15 0.26 a2.58 2.58 0 0 1-0.54 0.6 c-0.597 0.42 -1.28 0.7 -2 0.82a13.89 13.89 0 0 1-3 0.31h-1.24a0.59 0.59 0 0 0-0.29 0.07 26.91 26.91 0 0 0-4.83 3.3l-0.14 0.08 v0.07l0.71 0.14 a23.08 23.08 0 0 0 3.11 0.32 c0.94 0 1.89 0 2.84 0.06 a1.49 1.49 0 0 0 0.84-0.22 27.54 27.54 0 0 1 5.22-2.43 11.29 11.29 0 0 1 3.2-0.66 1.81 1.81 0 0 1 0.4 0c-0.06 0.12 -0.1 0.27 -0.17 0.38 a4.31 4.31 0 0 1-1.41 1.21 10.92 10.92 0 0 1-3.39 1.21 21.61 21.61 0 0 1-3.49 0.43 5.63 5.63 0 0 0-0.58 0 0.48 0.48 0 0 0-0.2 0.07 52.49 52.49 0 0 0-5.27 3.7c-0.24 0.19 -0.44 0.4 -0.7 0.64 l0.47 0.06 1.73 0.11 c0.83 0 1.67 0 2.5 0.06 h1.54a0.41 0.41 0 0 0 0.25-0.11 34 34 0 0 1 4-3.07 15.26 15.26 0 0 1 4-1.93 5.6 5.6 0 0 1 2.54-0.23 0.94 0.94 0 0 1 0.76 0.47 c0.18 0.34 0.4 0.67 0.6 1a0.3 0.3 0 0 1 0 0.38A4.67 4.67 0 0 1 27.3 9.7a12.82 12.82 0 0 1-3.74 1.41 24.53 24.53 0 0 1-3.9 0.61 c-0.9 0.07 -1.81 0.11 -2.71 0.17 a0.47 0.47 0 0 0-0.25 0.11 c-1.15 1.1-2.29 2.19-3.41 3.3-0.52 0.51 -1 1.06-1.5 1.59a2.59 2.59 0 0 1-0.18 0.21 c0.086 0.008 0.174 0.008 0.26 0l1.59 0.05 h3.2c0.73 0 1.47-0.06 2.2-0.1a0.6 0.6 0 0 0 0.29-0.16A39.23 39.23 0 0 1 23 13.76a17.3 17.3 0 0 1 3.8-2.13 6.66 6.66 0 0 1 2.75-0.55c0.6 0 0.63 0 0.76 0.61 0.09 0.35 0.14 0.7 0.22 1.05a0.64 0.64 0 0 1-0.1 0.5 4.29 4.29 0 0 1-1.27 1.31 11.68 11.68 0 0 1-3.27 1.5 25.43 25.43 0 0 1-4.66 0.91 l-2 0.18a0.66 0.66 0 0 0-0.46 0.21 51.18 51.18 0 0 0-4.2 4.51l-0.13 0.17 H15.83c1.56 0 3.12-0.06 4.68-0.21a0.65 0.65 0 0 0 0.34-0.17 30 30 0 0 1 4.43-3.76 10.79 10.79 0 0 1 2.83-1.39 3.55 3.55 0 0 1 1.71-0.15c0.25 0.064 0.492 0.158 0.72 0.28 a0.24 0.24 0 0 1 0.13 0.29 c-0.06 0.49 -0.12 1-0.19 1.45a0.5 0.5 0 0 1-0.15 0.26 8.33 8.33 0 0 1-2.46 1.51 23.54 23.54 0 0 1-5.13 1.42c-0.61 0.1 -1.22 0.16 -1.82 0.25 a0.5 0.5 0 0 0-0.29 0.14 24.3 24.3 0 0 0-3.34 4.15c0 0.06-0.07 0.13 -0.14 0.25 a37.41 37.41 0 0 0 5.44-0.56 1.24 1.24 0 0 1-0.1 0.2 c-0.36 0.52 -0.74 1-1.08 1.57a3.53 3.53 0 0 0-0.5 1.45l0.03-0.01zM10.19 11.67c-0.25 0-0.56-0.05-0.86-0.1a22.78 22.78 0 0 1-3.92-0.83 0.19 0.19 0 0 0-0.24 0.07 A30.12 30.12 0 0 0 2 14.87c-0.12 0.19 -0.12 0.19 0.07 0.29 1.176 0.57 2.419 0.99 3.7 1.25A0.22 0.22 0 0 0 6 16.3a44.66 44.66 0 0 1 3.5-3.9c0.27-0.23 0.5 -0.48 0.69 -0.73zm4.15 10.42h-0.28c-1 0-2 0-3-0.12s-1.9-0.21-2.84-0.31a0.27 0.27 0 0 0-0.2 0.09 14.55 14.55 0 0 0-1.67 3.49c0 0.17 0 0.24 0.15 0.27 0.9 0.17 1.79 0.36 2.69 0.51 0.71 0.11 1.43 0.17 2.14 0.24 0.13 0 0.24 0 0.32-0.12a21.73 21.73 0 0 1 2.52-3.84 1.57 1.57 0 0 1 0.17-0.21zm-2.89-4.91l-1.33-0.11c-0.7-0.07-1.4-0.13-2.09-0.23s-1.28-0.21-1.93-0.32a0.21 0.21 0 0 0-0.24 0.08 22.71 22.71 0 0 0-2.31 3.6c-0.11 0.21 -0.11 0.21 0.12 0.29 a23.26 23.26 0 0 0 4.18 1.05 0.33 0.33 0 0 0 0.39-0.18 35.15 35.15 0 0 1 2.44-3.27l0.77-0.91zM9.17 6.81l-0.36-0.1A7.56 7.56 0 0 1 6 5.47c-0.11-0.09-0.16 0-0.23 0a31.93 31.93 0 0 0-3.12 3.61c-0.11 0.15 -0.09 0.22 0.05 0.31 A9.2 9.2 0 0 0 5 10.56a0.32 0.32 0 0 0 0.4-0.1l3.14-3.09c0.2-0.19 0.46 -0.37 0.63 -0.56zm7.92 19.63h-0.62a42.46 42.46 0 0 1-4.65-0.1 0.22 0.22 0 0 0-0.25 0.13 9.13 9.13 0 0 0-0.8 2.5c0 0.21 0 0.25 0.21 0.27 0.93 0.09 1.87 0.2 2.81 0.27 h1.91c0.15 0 0.26 0 0.29-0.22a7.86 7.86 0 0 1 0.84-2.38l0.26-0.47z" fill="#FFF"/>
  <path d="M22.63 25.81c0.41-0.44 0.8 -0.9 1.23-1.32a14.76 14.76 0 0 1 2.89-2.4 4.29 4.29 0 0 1 1.57-0.63 1.54 1.54 0 0 1 1 0.1c0.2 0.1 0.23 0.15 0.13 0.34 -0.29 0.56 -0.58 1.13-0.89 1.69a0.72 0.72 0 0 1-0.27 0.25 10 10 0 0 1-2.2 1.07 20.09 20.09 0 0 1-3.21 0.88 h-0.23l-0.02 0.02 zM20.94 29l1.79-0.42c0.45-0.12 0.9 -0.28 1.36-0.42a0.26 0.26 0 0 1 0.18 0l-0.18 0.12 a16.66 16.66 0 0 1-2.71 1.5c-0.21 0.1 -0.26 0.09 -0.33-0.12a3.64 3.64 0 0 1-0.11-0.66z" fill="#FFF"/>
</svg>
