<?xml version="1.0" ?>
<svg xmlns="http://www.w3.org/2000/svg" width="35" height="31" viewBox="0 0 35 31">
  <path d="M6.35 6.2l0.36 0.72 1.23 2.45c0.38 0.73 0.75 1.46 1.12 2.2l1.13 2.26 1.17 2.31c0.115 0.172 0.177 0.373 0.18 0.58 a0.61 0.61 0 0 1 0 0.13 3.6 3.6 0 0 1-1.9 1.58 10.18 10.18 0 0 1-1.33 0.4 11.24 11.24 0 0 1-2.72 0.23 C5 19.05 4.5 19 4 19a7.45 7.45 0 0 1-2.41-0.62 3.07 3.07 0 0 1-1.48-1.26 0.78 0.78 0 0 1 0-0.78c0.53-1.06 1-2.12 1.58-3.17 0.34 -0.69 0.69 -1.37 1-2.06l0.86-1.77c0.36-0.73 0.73 -1.45 1.1-2.18 0.16 -0.33 0.32 -0.67 0.5 -1a1.81 1.81 0 0 1-0.34 0A0.55 0.55 0 0 1 4.59 6a0.75 0.75 0 0 1-0.32-0.74V3.82a0.54 0.54 0 0 1 0.09-0.24 0.71 0.71 0 0 1 0.74-0.3c0.13 0.01 0.26 0.01 0.39 0 0.09 0 0.14 0 0.13 0.13 v0.16c0 0.27 0.08 0.34 0.37 0.34h9.54a0.34 0.34 0 0 0 0.34-0.2 3.11 3.11 0 0 1 0.31-0.43 0.2 0.2 0 0 1 0.18-0.07 0.61 0.61 0 0 0 0.7-0.36 3.2 3.2 0 0 1 0.33-0.42 0.15 0.15 0 0 0 0-0.24 1.37 1.37 0 0 1-0.47-0.81 1 1 0 0 1 0-0.69 1.69 1.69 0 0 1 0.4-0.65 0.22 0.22 0 0 1 0.32 0c0.22 0.194 0.366 0.46 0.41 0.75 0.037 0.103 0.06 0.21 0.07 0.32 a1.45 1.45 0 0 1-0.63 1.17l0.33 0.43 a0.7 0.7 0 0 1 0.08 0.1 0.65 0.65 0 0 0 0.75 0.4 c0.05 0 0.14 0 0.19 0.11 0.115 0.148 0.221 0.301 0.32 0.46 a0.25 0.25 0 0 0 0.23 0.12 H29a0.62 0.62 0 0 0 0.19 0c0.17 0 0.18-0.16 0.18 -0.31 0-0.3 0-0.3 0.3 -0.3 0.077 0.005 0.153 0.005 0.23 0a0.67 0.67 0 0 1 0.66 0.25 0.55 0.55 0 0 1 0.16 0.37 v1.63a0.34 0.34 0 0 1-0.12 0.29 c-0.24 0.34 -0.56 0.3 -0.89 0.22 h-0.12l0.18 0.41 L31 9l1.53 3c0.34 0.68 0.67 1.36 1 2l1.15 2.28c0.048 0.108 0.082 0.223 0.1 0.34 0 0.23-0.15 0.36 -0.25 0.52 a3.09 3.09 0 0 1-1.24 1.08 6.53 6.53 0 0 1-1.3 0.48 13.13 13.13 0 0 1-4.42 0.29 9.6 9.6 0 0 1-1.31-0.18 5.14 5.14 0 0 1-2.22-0.93 2.24 2.24 0 0 1-0.77-1 0.66 0.66 0 0 1 0.08-0.56L24.57 14c0.39-0.77 0.77 -1.55 1.16-2.33l1.1-2.19 1.45-2.91c0-0.11 0.11 -0.22 0.18 -0.36h-8.88c-0.12 0-0.16 0-0.16 0.16 v2.32a3.15 3.15 0 0 1-0.19 0.95 c-0.12 0.42 -0.25 0.85 -0.38 1.27-0.13 0.42 -0.28 0.87 -0.41 1.31l-0.21 0.72 -0.2 0.65 a0.59 0.59 0 0 0 0 0.13c0.09 0.55 0.18 1.1 0.28 1.65 0.1 0.55 0.18 0.94 0.26 1.41 0.08 0.47 0.1 0.67 0.15 1l0.18 1c0.06 0.34 0.11 0.68 0.17 1 0.06 0.32 0.13 0.73 0.2 1.09v0.37a3 3 0 0 1-0.1 1.95 2.19 2.19 0 0 1-0.9 1c-0.11 0.06 -0.11 0.12 0 0.21l1 1.3a0.32 0.32 0 0 0 0.23 0.09 h3.8a0.33 0.33 0 0 1 0.3 0.14 l2.27 2.91a0.45 0.45 0 0 1 0.07 0.23 v0.76c0 0.25 0 0.19-0.19 0.19 H8.81c-0.13 0-0.17 0-0.17-0.17v-0.78a0.41 0.41 0 0 1 0.08-0.24c0.71-0.93 1.44-1.84 2.15-2.77a0.63 0.63 0 0 1 0.56-0.28h3.63a0.29 0.29 0 0 0 0.27-0.13l0.95-1.3c0.06-0.07 0-0.12 0-0.17a2.16 2.16 0 0 1-1.07-1.43 3.66 3.66 0 0 1 0-1.51c0.07-0.35 0.12 -0.71 0.18 -1.06 0.06 -0.35 0.18 -1 0.26-1.47 0-0.16 0.06 -0.33 0.08 -0.5 0.11 -0.62 0.2 -1.24 0.31 -1.86 0.11 -0.62 0.23 -1.39 0.35 -2.08 0-0.18 0.08 -0.36 0.1 -0.54a0.83 0.83 0 0 0-0.06-0.35c-0.17-0.58-0.36-1.15-0.54-1.73-0.13-0.42-0.24-0.85-0.37-1.28-0.13-0.43-0.25-0.82-0.37-1.23a0.9 0.9 0 0 1 0-0.28v-2.5c0-0.14 0-0.19-0.19-0.19H6.35v0.03zm4.36 9.88a1 1 0 0 0 0-0.13l-1-2.08L8.19 11 7 8.58 6 6.67a0.31 0.31 0 0 0 0-0.09s-0.06 0-0.07 0.08 c-0.38 0.74 -0.75 1.48-1.12 2.22L3 12.56c-0.54 1.08-1.07 2.16-1.61 3.23 0 0.09-0.07 0.19 -0.12 0.29 h9.44zm23.08 0c0-0.07 0-0.12-0.06-0.17l-0.81-1.6-1.2-2.44-1.55-3.11-1.05-2.1s-0.05-0.06-0.07-0.09l-0.05 0.09 c-0.29 0.58 -0.58 1.17-0.88 1.75L27 10.72c-0.37 0.74 -0.73 1.48-1.09 2.22l-1.44 2.88c0 0.08-0.07 0.16 -0.11 0.26 h9.43z" fill="#FFF"/>
</svg>
