<?xml version="1.0" ?>
<svg xmlns="http://www.w3.org/2000/svg" width="35" height="35" viewBox="0 0 35 35">
  <path d="M32.53 17.43c0 8.345-6.765 15.11-15.11 15.11-8.345 0-15.11-6.765-15.11-15.11 0-8.345 6.765-15.11 15.11-15.11a15.09 15.09 0 0 1 15.11 15.11zm-1.08 0c0-7.718-6.246-13.98-13.964-14C9.77 3.41 3.491 9.64 3.45 17.357 3.41 25.075 9.623 31.37 17.34 31.43a14 14 0 0 0 14.11-13.98v-0.02zm0.3 0a0.27 0.27 0 0 0 0.26 0.27 0.28 0.28 0 0 0 0.29-0.27 0.28 0.28 0 0 0-0.55 0zm-1.41-7.29a0.27 0.27 0 0 0-0.26-0.28 0.25 0.25 0 0 0-0.28 0.26 0.28 0.28 0 0 0 0.25 0.29 0.29 0.29 0 0 0 0.29-0.28v0.01zM5 10.12a0.26 0.26 0 0 0-0.27-0.27 0.27 0.27 0 0 0-0.27 0.26 0.3 0.3 0 0 0 0.28 0.29 0.28 0.28 0 0 0 0.26-0.28zm-0.22 14.32a0.29 0.29 0 0 0-0.28 0.28 c0 0.15 0.12 0.27 0.27 0.27a0.25 0.25 0 0 0 0.23-0.26 0.28 0.28 0 0 0-0.22-0.29zM25 4.77a0.27 0.27 0 0 0-0.27-0.27 0.29 0.29 0 0 0-0.28 0.28 0.28 0.28 0 0 0 0.28 0.26 0.25 0.25 0 0 0 0.27-0.27zm-14.59 0a0.29 0.29 0 0 0-0.27-0.28 0.27 0.27 0 0 0-0.28 0.27 0.26 0.26 0 0 0 0.27 0.27 0.28 0.28 0 0 0 0.27-0.25l0.01-0.01zm0 25.29a0.28 0.28 0 0 0-0.27-0.27 0.25 0.25 0 0 0-0.28 0.26 0.27 0.27 0 0 0 0.26 0.28 0.29 0.29 0 0 0 0.28-0.26l0.01-0.01zm14.59 0a0.25 0.25 0 0 0-0.27-0.26 0.29 0.29 0 0 0-0.28 0.28 0.29 0.29 0 0 0 0.28 0.26 0.27 0.27 0 0 0 0.27-0.28zm-7.3 2a0.27 0.27 0 0 0-0.26-0.28 0.28 0.28 0 1 0 0.26 0.28 zM2.81 17.69a0.26 0.26 0 0 0 0.27-0.26 0.25 0.25 0 0 0-0.26-0.28 0.27 0.27 0 0 0-0.28 0.27 0.28 0.28 0 0 0 0.27 0.27 zM17.69 2.81a0.28 0.28 0 0 0-0.27-0.27 0.27 0.27 0 0 0-0.27 0.28 0.27 0.27 0 1 0 0.54 0v-0.01z" fill="#FFF"/>
  <path d="M2.83 11.7a2.07 2.07 0 0 1-0.63-0.7 2.45 2.45 0 0 1 1.54-3.56 2.34 2.34 0 0 1 1.36 0c0.14 0 0.14 0.09 0.06 0.2 -0.765 0.956 -1.413 2-1.93 3.11-0.14 0.33 -0.23 0.64 -0.4 0.95 zM11.67 2.84a16.07 16.07 0 0 0-4.12 2.41 2.41 2.41 0 0 1 4.12-2.41zM23.13 32.06c0.74-0.38 1.47-0.71 2.15-1.1 0.68 -0.39 1.33-0.87 2-1.32a2.24 2.24 0 0 1 0 1.63 2.45 2.45 0 0 1-4.2 0.79 h0.05zM32.07 11.87a15.87 15.87 0 0 0-2.33-4.13 2.41 2.41 0 0 1 2.33 4.13zM11.9 32.09a1.32 1.32 0 0 1-0.12 0.16 2.45 2.45 0 0 1-4-1 2.48 2.48 0 0 1-0.06-1.35c0-0.16 0.07 -0.18 0.21 -0.07a16 16 0 0 0 3.52 2l0.23 0.09 0.22 0.17 zM5.1 27.09a2.41 2.41 0 0 1-3-1.28A2.35 2.35 0 0 1 2.77 23a16 16 0 0 0 2.33 4.09zM23 2.76a0.92 0.92 0 0 1 0-0.13 2.44 2.44 0 0 1 4.07 1c0.13 0.43 0.13 0.89 0 1.32 0 0.16-0.12 0.08 -0.2 0-0.51-0.35-1-0.71-1.54-1A13.2 13.2 0 0 0 23 2.8v-0.04zM15.06 1.93A2.43 2.43 0 0 1 17.65 0c1 0 2.14 1.09 2.12 1.92a16.16 16.16 0 0 0-4.71 0.01 zM32.91 19.78a16.45 16.45 0 0 0 0-4.7c0.77-0.09 1.86 1.15 1.93 2.11a2.43 2.43 0 0 1-1.93 2.59zM1.93 15.05a16.23 16.23 0 0 0 0 4.72C1.16 19.83 0.09 18.66 0 17.7a2.45 2.45 0 0 1 1.93-2.65zM15.06 33c0.79 0 1.57 0.11 2.36 0.11 0.79 0 1.58-0.11 2.35-0.11a2.36 2.36 0 0 1-2.07 1.86A2.41 2.41 0 0 1 15.06 33z" fill="#FFF"/>
</svg>
