<?xml version="1.0" ?>
<svg xmlns="http://www.w3.org/2000/svg" width="44" height="36" viewBox="0 0 44 36">
  <path d="M43.5 21.38v12.34a1.69 1.69 0 0 1-1 1.65 1.21 1.21 0 0 1-0.53 0.12 H7.51L5 35.52H1.59a1.56 1.56 0 0 1-1.47-1.19 4.86 4.86 0 0 1-0.11-1C0.003 25.23 0 17.137 0 9.05a1.69 1.69 0 0 1 1.15-1.73 2.4 2.4 0 0 1 0.71-0.12h2.07c0.19 0 0.27-0.06 0.28 -0.27a5.4 5.4 0 0 1 0.15-1 1.37 1.37 0 0 1 1.26-1A9.8 9.8 0 0 1 7 4.81h2.32c0.383 0.003 0.76 0.095 1.1 0.27 a1.2 1.2 0 0 1 0.66 0.8 c0.077 0.33 0.13 0.663 0.16 1 0 0.19 0.07 0.28 0.27 0.27H13c0.2 0 0.27-0.08 0.27 -0.28a10.6 10.6 0 0 1 0.33-2.69 5.7 5.7 0 0 1 1.68-2.95A5 5 0 0 1 17.43 0.2 a10.61 10.61 0 0 1 2.81-0.2H24.69a5.32 5.32 0 0 1 4 1.67 5.94 5.94 0 0 1 1.18 2.2 9.06 9.06 0 0 1 0.38 2.19c0 0.29 0 0.57 0.05 0.85s0 0.28 0.28 0.28h11.08a1.66 1.66 0 0 1 1.72 1.13c0.08 0.235 0.12 0.482 0.12 0.73 v12.33zm-32.9-0.25A11.2 11.2 0 1 0 21.4 9.92c-6.042 0.195 -10.83 5.165-10.8 11.21zm26.18-7.79h2.71c0.456 0 0.884-0.22 1.15-0.59a2.09 2.09 0 0 0 0.41-1.68 1.74 1.74 0 0 0-1.66-1.54h-5.28a1.57 1.57 0 0 0-1.49 1A2.19 2.19 0 0 0 32.5 12a1.66 1.66 0 0 0 1.6 1.32l2.68 0.02 z" fill="#FFF"/>
  <path d="M21.85 27.83a6.37 6.37 0 0 0 2.94-0.63 6.84 6.84 0 0 0 3-2.65 6 6 0 0 0 0.92-2.72 6.75 6.75 0 0 0-5.22-7.24 7.09 7.09 0 0 0-2.47-0.18 7.63 7.63 0 0 0-2.3 0.63 6.63 6.63 0 0 0-3 2.58A6.55 6.55 0 0 0 16.1 25a6.86 6.86 0 0 0 2.67 2.16 6.68 6.68 0 0 0 3.08 0.67 z" fill="#FFF"/>
  <path d="M21.85 27.83a6.68 6.68 0 0 1-3.08-0.64A6.86 6.86 0 0 1 16.1 25a6.55 6.55 0 0 1-0.31-7.41 6.63 6.63 0 0 1 3-2.58 7.63 7.63 0 0 1 2.3-0.63 7.09 7.09 0 0 1 2.47 0.18 6.78 6.78 0 0 1 3.46 2 6.53 6.53 0 0 1 1.76 5.24 6 6 0 0 1-0.92 2.72 6.84 6.84 0 0 1-3 2.65 6.37 6.37 0 0 1-3.01 0.66 z" fill="#FFF"/>
</svg>
