<?xml version="1.0" ?>
<svg xmlns="http://www.w3.org/2000/svg" width="44" height="35" viewBox="0 0 44 35">
  <path d="M14.54 19.56c0.17 0.52 0.34 1.05 0.5 1.57l0.51 1.65c0.2 0.64 0.38 1.29 0.6 1.92a8.44 8.44 0 0 0 0.7 1.87 1.67 1.67 0 0 0 2.86-0.06c0.201-0.43 0.362 -0.88 0.48 -1.34 0.13 -0.43 0.22 -0.87 0.32 -1.3 0.1 -0.43 0.22 -0.85 0.32 -1.28 0.1 -0.43 0.21 -0.85 0.32 -1.27l0.33-1.32c0.1-0.41 0.2 -0.82 0.31 -1.23 0.11 -0.41 0.21 -0.87 0.32 -1.3 0.11 -0.43 0.23 -0.88 0.34 -1.32 0.092 -0.403 0.21 -0.8 0.35 -1.19 0.13 0.63 0.26 1.25 0.4 1.88 0.14 0.63 0.22 1 0.33 1.44 0.11 0.44 0.19 1 0.31 1.44a1.9 1.9 0 0 0 1.08 1.54c0.196 0.085 0.406 0.133 0.62 0.14 h6.45a1.76 1.76 0 0 0 1.69-1.4 1.7 1.7 0 0 0-1.24-2 3.55 3.55 0 0 0-0.72-0.09h-4.37a0.31 0.31 0 0 1-0.36-0.28c-0.11-0.49-0.2-1-0.3-1.47-0.1-0.47-0.29-1.25-0.43-1.88-0.14-0.63-0.2-1-0.3-1.44-0.1-0.44-0.23-1-0.33-1.49s-0.21-1-0.31-1.48-0.15-0.7-0.23-1.05c-0.11-0.51-0.21-1-0.32-1.53a3.56 3.56 0 0 0-0.51-1.37 1.68 1.68 0 0 0-2.88 0.28 A8.26 8.26 0 0 0 21 7.38c-0.11 0.41 -0.21 0.82 -0.32 1.23-0.11 0.41 -0.21 0.87 -0.32 1.3-0.11 0.43 -0.21 0.84 -0.31 1.26l-0.33 1.32c-0.1 0.41 -0.2 0.82 -0.31 1.23-0.11 0.41 -0.22 0.87 -0.32 1.3-0.1 0.43 -0.21 0.85 -0.32 1.28l-0.33 1.3c-0.09 0.38 -0.19 0.76 -0.29 1.14 0 0-0.05 0.07 -0.1 0.12 l-0.49-1.55c-0.2-0.62-0.39-1.25-0.58-1.88-0.19-0.63-0.41-1.3-0.62-1.95a1.64 1.64 0 0 0-1.11-1.22 1.67 1.67 0 0 0-2.21 1c-0.42 1.07-0.8 2.15-1.2 3.22-0.09 0.24 -0.18 0.49 -0.29 0.72 a1 1 0 0 1-0.93 0.64 c-1 0-2.1 0.05 -3.16 0.06 -0.74 0-1.49 0-2.24-0.07a0.9 0.9 0 0 1-0.84-0.71 27.3 27.3 0 0 1-0.81-2.62 10.26 10.26 0 0 1-0.24-3.13c0.021-0.505 0.068 -1.01 0.14 -1.51 0.156 -0.8 0.367 -1.588 0.63 -2.36a11 11 0 0 1 2.18-3.57A11.46 11.46 0 0 1 10.83 0.81 a19.9 19.9 0 0 1 2-0.59 8.3 8.3 0 0 1 3-0.16 8.57 8.57 0 0 1 2.57 0.67 29.73 29.73 0 0 1 3.51 1.9 6.13 6.13 0 0 0 1 0.52A2.05 2.05 0 0 0 24.65 3c0.84-0.45 1.67-0.92 2.52-1.36a11.55 11.55 0 0 1 2.63-1 12.35 12.35 0 0 1 3.09-0.36 11.11 11.11 0 0 1 2.22 0.2 A9.86 9.86 0 0 1 39 2.15 9.64 9.64 0 0 1 42.13 6 18.6 18.6 0 0 1 43 8.37c0.2 0.64 0.27 1.32 0.41 2 0.161 0.867 0.241 1.748 0.24 2.63 0.015 0.497-0.005 0.995 -0.06 1.49-0.08 0.63 -0.21 1.25-0.34 1.87a13.19 13.19 0 0 1-1.53 3.84 17.32 17.32 0 0 1-3.47 4.2 27.52 27.52 0 0 1-3.33 2.56C33 28.2 31 29.45 29 30.72c-1.6 1-3.2 2.08-4.78 3.15a1.11 1.11 0 0 1-1.33 0l-3.22-2.37-3.49-2.5-4-2.93c-0.49-0.35-1-0.71-1.48-1a2.08 2.08 0 0 0-1.17-0.34H1.77a1.66 1.66 0 0 1-1.48-0.7 1.58 1.58 0 0 1 0.83-2.44 3 3 0 0 1 0.73-0.09h10.43a1.83 1.83 0 0 0 1.91-1.17c0.11-0.23 0.23 -0.44 0.34 -0.66l0.01-0.11z" fill="#FFF"/>
</svg>
