<?xml version="1.0" ?>
<svg xmlns="http://www.w3.org/2000/svg" width="44" height="30" viewBox="0 0 44 30">
  <path d="M27.73 6.64c-0.14 0.44 -0.25 0.85 -0.4 1.25 0 0.07-0.17 0.12 -0.26 0.12 H13.26c0.09-0.31 0.16 -0.58 0.24 -0.86 0.16 -0.56 0.33 -1.12 0.49 -1.69 0.07 -0.22 0.11 -0.46 0.19 -0.68a0.89 0.89 0 0 0-0.18-0.91 2 2 0 0 1-0.41-1.24 0.88 0.88 0 0 1 0.78-0.8h1.91a1.65 1.65 0 0 0 0.62-0.14 0.88 0.88 0 0 0 0.43-0.91 0.94 0.94 0 0 0-0.82-0.78h-2a2.71 2.71 0 0 0-2.59 2 2.9 2.9 0 0 0 0.27 2.25 1.18 1.18 0 0 1 0 1l-0.51 1.73c-0.16 0.55 -0.33 1.09-0.49 1.64-0.16 0.55 -0.3 1.11-0.46 1.66-0.16 0.55 -0.33 1.09-0.49 1.64-0.1 0.33 -0.21 0.66 -0.28 1 0 0.18-0.12 0.18 -0.26 0.18 -0.58-0.1-1.19-0.1-1.81-0.1a7.17 7.17 0 0 0-3 0.75 8.41 8.41 0 0 0-4.56 5.33A8.09 8.09 0 0 0 0 21.62a8.35 8.35 0 0 0 1.33 4.28A8.43 8.43 0 0 0 4.82 29a8 8 0 0 0 2 0.66 8.93 8.93 0 0 0 1.86 0.16 A8.24 8.24 0 0 0 13 28.49a8.33 8.33 0 0 0 3.21-3.76 6.73 6.73 0 0 0 0.56-1.92 11 11 0 0 0 0.14-1.52 8.48 8.48 0 0 0-5.07-7.65l-0.19-0.11 0.54 -1.88 0.39 0.33 6.79 6.29c0.79 0.74 1.58 1.48 2.38 2.2a0.37 0.37 0 0 1 0.12 0.42 A2.22 2.22 0 0 0 26 22.4a0.34 0.34 0 0 1 0.23-0.14 4 4 0 0 1 0.49 0c0.07 0.34 0.14 0.66 0.2 1a7.32 7.32 0 0 0 0.82 2.19 8.34 8.34 0 0 0 4 3.65 11.37 11.37 0 0 0 1.8 0.56 6.82 6.82 0 0 0 2.16 0.16 8.25 8.25 0 0 0 2.92-0.72 8.46 8.46 0 0 0 3-2.32 8.41 8.41 0 0 0 0-10.78 8.47 8.47 0 0 0-3.19-2.4 8.32 8.32 0 0 0-2-0.56 8.89 8.89 0 0 0-2.36 0 7.71 7.71 0 0 0-2.1 0.53 c-0.28 0.11 -0.28 0.12 -0.42-0.14-0.8-1.39-1.57-2.78-2.4-4.15a1.17 1.17 0 0 1-0.07-1.17 4.78 4.78 0 0 0 0.22-0.67c0-0.14 0.09 -0.17 0.22 -0.17 0.303 0.03 0.607 0.03 0.91 0a2.77 2.77 0 0 0 2.32-1.67c0.246-0.444 0.145 -1-0.24-1.33a1 1 0 0 0-0.46-0.27h-6.69a0.9 0.9 0 0 0-0.86 0.69 0.88 0.88 0 0 0 0.61 1l2.62 0.95 zm-16.59 8.68a5.47 5.47 0 0 1 2.21 1.51 6.67 6.67 0 0 1-6.29 11.06 6.64 6.64 0 0 1-5-8.49 6.55 6.55 0 0 1 7.33-4.59l-0.21 0.74 c-0.15 0.55 -0.3 1.11-0.46 1.66-0.16 0.55 -0.39 1.28-0.58 1.93-0.19 0.65 -0.34 1.33-0.56 2a0.91 0.91 0 0 0 0.79 1.14 1 1 0 0 0 1-0.82c0.17-0.65 0.35 -1.29 0.54 -1.94 0.19 -0.65 0.39 -1.3 0.58 -1.95 0.19 -0.65 0.44 -1.51 0.65 -2.25zm17.4 6.94h6.56a0.92 0.92 0 0 0 0.81-1.38c-0.42-0.68-0.79-1.39-1.19-2.09-0.66-1.16-1.32-2.32-2-3.47-0.06-0.12-0.06-0.17 0.07 -0.2a17 17 0 0 1 1.71-0.41 6.14 6.14 0 0 1 2.6 0.29 6.71 6.71 0 0 1 2.33 1.27 6.48 6.48 0 0 1 2.34 4.25 6.27 6.27 0 0 1-0.48 3.48 6.6 6.6 0 0 1-5.14 4 6.17 6.17 0 0 1-3.07-0.26 6.6 6.6 0 0 1-2.93-1.94 6.82 6.82 0 0 1-1.37-2.45c-0.1-0.35-0.15-0.71-0.24-1.09zM26.7 9.83c0 0.12 0 0.21-0.06 0.3 s-0.15 0.47 -0.23 0.71 c-0.15 0.5 -0.31 1-0.46 1.5-0.15 0.5 -0.39 1.19-0.58 1.79-0.19 0.6 -0.31 1-0.47 1.52l-0.48 1.53c-0.16 0.51 -0.34 1-0.48 1.54-0.08 0.3 -0.19 0.5 -0.55 0.54 -0.18 0-0.3 0-0.44-0.1l-9.51-8.81-0.54-0.52h13.8zm1.5 1.26c0.05 0.05 0.097 0.104 0.14 0.16 0.6 1 1.19 2.06 1.78 3.09 0.09 0.15 0 0.24-0.08 0.33 A8.23 8.23 0 0 0 28 16.9a7.38 7.38 0 0 0-1 2.25c-0.1 0.39 -0.17 0.8 -0.26 1.2 0 0 0 0.08-0.05 0.1 a0.67 0.67 0 0 1-0.74-0.18 3.12 3.12 0 0 0-0.32-0.4 0.37 0.37 0 0 1-0.08-0.43c0.16-0.5 0.33 -1 0.49-1.51 0.24 -0.78 0.47 -1.57 0.72 -2.36 0.25 -0.79 0.51 -1.56 0.76 -2.34 0.25 -0.78 0.48 -1.4 0.68 -2.14zm2.88 9.4h-2.21c-0.3 0-0.33 0-0.27-0.31a9 9 0 0 1 0.24-0.89 6.55 6.55 0 0 1 2.1-3.07c0.12-0.11 0.19 -0.1 0.27 0.05l2.25 3.94c0.15 0.25 0.13 0.28 -0.16 0.28 h-2.22z" fill="#FFF"/>
</svg>
