<?xml version="1.0" ?>
<svg xmlns="http://www.w3.org/2000/svg" width="31" height="36" viewBox="0 0 31 36">
  <path d="M6.39 7.3c0.2-0.45 0.36 -0.89 0.57 -1.29a5.68 5.68 0 0 1 1.55-1.89 1.54 1.54 0 0 1 0.93-0.3h11.72c0.456-0.014 0.9 0.155 1.23 0.47 a6.18 6.18 0 0 1 1.84 3l0.07 0.08 v-0.35V0.41a0.85 0.85 0 0 1 0-0.16c0-0.19 0.11 -0.26 0.29 -0.17l1.91 1a0.54 0.54 0 0 1 0.32 0.55 v20c0 0.15 0 0.2 0.2 0.22a2.5 2.5 0 0 1 2.25 1.82c0.076 0.253 0.113 0.516 0.11 0.78 v4.78c0 0.19 0 0.28 0.24 0.32a1.26 1.26 0 0 1 1 1.32v1.12a1.29 1.29 0 0 1-1.33 1.34h-1c-0.14 0-0.19 0-0.19 0.18 v1a1.3 1.3 0 0 1-1.38 1.38h-2.25a1.29 1.29 0 0 1-1.42-1.43v-0.9c0-0.3-0.06-0.24-0.24-0.24H8c-0.32 0-0.32 0-0.32 0.31 v1a1.29 1.29 0 0 1-1.32 1.17H3.84a1.28 1.28 0 0 1-1.28-1.29v-1c0-0.27 0-0.27-0.26-0.27h-0.94A1.29 1.29 0 0 1 0 31.89v-1.08a1.28 1.28 0 0 1 1.08-1.36c0.17 0 0.2-0.11 0.2 -0.26v-4.84a2.56 2.56 0 0 1 1.85-2.5c0.173-0.05 0.35 -0.08 0.53 -0.09 0.14 0 0.19-0.07 0.18 -0.2V1.6a0.65 0.65 0 0 1 0.4-0.66C4.83 0.66 5.4 0.37 6 0.08c0.29-0.15 0.39 -0.09 0.39 0.23V7c-0.02 0.1 -0.01 0.19 0 0.3zm8.94 8.05h7.31c0.35 0 0.4-0.06 0.41 -0.39v-4.4c0-0.3-0.06-0.37-0.36-0.37H8c-0.31 0-0.37 0.07 -0.37 0.38 v4.36c0 0.38 0 0.42 0.42 0.42h7.28zm0 3.8h-4.62c-0.41 0-0.5 0.09 -0.5 0.49 v8c0 0.38 0.09 0.48 0.48 0.48h9.39a0.38 0.38 0 0 0 0.39-0.25 0.87 0.87 0 0 0 0-0.23v-8.1c0-0.29-0.12-0.41-0.41-0.41l-4.73 0.02 zm-9.57 6.41h-1.5c-0.32 0-0.45 0.12 -0.45 0.44 v1.71c0 0.3 0.13 0.44 0.42 0.44h3c0.3 0 0.43-0.14 0.43 -0.45V26a0.36 0.36 0 0 0-0.4-0.41l-1.5-0.03zm19.19 0h-1.52c-0.28 0-0.42 0.13 -0.42 0.41 v1.76a0.37 0.37 0 0 0 0.42 0.42 h3c0.3 0 0.43-0.14 0.43 -0.44v-1.72c0-0.3-0.13-0.43-0.44-0.43h-1.47z" fill="#FFF"/>
  <path d="M28.17 12.75v-1.9a0.56 0.56 0 0 1 0.63-0.62h1.26a0.58 0.58 0 0 1 0.63 0.64 v3.83a0.57 0.57 0 0 1-0.62 0.62 h-1.28a0.56 0.56 0 0 1-0.62-0.62c-0.01-0.7 0-1.3 0-1.95zM2.53 12.77v1.88a0.59 0.59 0 0 1-0.67 0.66 H0.62a0.57 0.57 0 0 1-0.62-0.62v-3.84a0.57 0.57 0 0 1 0.63-0.62h1.28a0.57 0.57 0 0 1 0.62 0.62 v1.92zM15.35 21.71h-3.54c-0.27 0-0.29 0-0.29-0.28v-0.7c0-0.23 0-0.26 0.27 -0.26h7.09c0.27 0 0.29 0 0.29 0.28 v0.7c0 0.24 0 0.26-0.26 0.26 h-3.56zM15.34 24.28h-3.52c-0.28 0-0.3 0-0.3-0.3v-0.7c0-0.23 0.07 -0.25 0.26 -0.25h7.1c0.27 0 0.29 0 0.29 0.29 v0.7c0 0.23-0.07 0.26 -0.25 0.26 -1.2-0.01-2.39 0-3.58 0zM15.35 26.84h-3.54c-0.26 0-0.29 0-0.29-0.29v-0.7c0-0.24 0-0.26 0.26 -0.26h7.08c0.3 0 0.31 0 0.31 0.32 v0.64c0 0.26 0 0.29-0.28 0.29 h-3.54z" fill="#FFF"/>
</svg>
