<?xml version="1.0" ?>
<svg xmlns="http://www.w3.org/2000/svg" width="44" height="29" viewBox="0 0 44 29">
  <path d="M0 0l0.29 0.23 5.53 4.62 7.5 6.24L21.55 18a0.27 0.27 0 0 0 0.45 0c2-1.693 4.017-3.377 6.05-5.05l7.52-6.26L42.28 1l1.21-1H0zm43.46 29a2 2 0 0 0-0.24-0.22c-0.78-0.66-1.56-1.33-2.35-2l-7.78-6.48c-1.913-1.593-3.82-3.187-5.72-4.78a0.26 0.26 0 0 0-0.4 0c-1.67 1.42-3.34 2.83-5 4.26a0.28 0.28 0 0 1-0.43 0l-5-4.27c-0.16-0.14-0.24-0.11-0.38 0-0.53 0.46 -1.07 0.91 -1.6 1.35L7.07 23.1 0.39 28.67A4.19 4.19 0 0 0 0 29h43.46zM0 27.45l0.28-0.2 4.91-4.11 4.49-3.74c1.86-1.547 3.723-3.093 5.59-4.64 0.14 -0.12 0.14 -0.19 0-0.3-0.4-0.32-0.79-0.66-1.18-1l-6-5.1-6.46-5.44L0 1.54v25.91zm43.49 0V1.56l-0.18 0.13 -4.42 3.74-6.25 5.3-4.4 3.71c-0.17 0.15 -0.14 0.22 0 0.35 0.56 0.45 1.11 0.91 1.66 1.37l4.47 3.72 7.79 6.5 1.33 1.07z" fill="#000"/>
  <path d="M0 0h43.49l-1.21 1-6.75 5.65L28 12.91c-2 1.68-4 3.377-6 5.09a0.27 0.27 0 0 1-0.41 0l-8.23-6.88-7.54-6.27L0.29 0.23 0 0z" fill="#FFF"/>
  <path d="M43.46 29H0a4.19 4.19 0 0 1 0.36-0.32l6.71-5.58 7.47-6.23c0.53-0.44 1.07-0.89 1.6-1.35 0.14 -0.11 0.22 -0.14 0.38 0l5 4.27a0.28 0.28 0 0 0 0.43 0c1.66-1.43 3.33-2.84 5-4.26a0.26 0.26 0 0 1 0.4 0c1.9 1.6 3.807 3.193 5.72 4.78l7.78 6.48c0.79 0.65 1.57 1.32 2.35 2a2 2 0 0 1 0.26 0.21 zM0 27.45V1.54l1.63 1.38 6.45 5.45 6 5.1c0.39 0.33 0.78 0.67 1.18 1 0.14 0.11 0.14 0.18 0 0.3-1.867 1.54-3.73 3.087-5.59 4.64l-4.48 3.73-4.91 4.11-0.28 0.2 zM43.49 27.46l-1.32-1.08-7.79-6.5-4.47-3.72c-0.55-0.46-1.1-0.92-1.66-1.37-0.15-0.13-0.18-0.2 0-0.35l4.4-3.71 6.25-5.3 4.42-3.74 0.18 -0.13-0.01 25.9z" fill="#FFF"/>
</svg>
