<?xml version="1.0" ?>
<svg xmlns="http://www.w3.org/2000/svg" width="30" height="36" viewBox="0 0 30 36">
  <path d="M18.73 15.13c0.06 0.12 0.11 0.22 0.17 0.32 0.06 0.1 0 0.18-0.09 0.21 -0.33 0.1 -0.67 0.21 -1 0.28a15.27 15.27 0 0 1-3.31 0.21 6.08 6.08 0 0 1-1.69-0.31 0.15 0.15 0 0 0-0.19 0.07 c-0.39 0.45 -0.79 0.9 -1.17 1.37-1.2 1.49-2.43 3-3.6 4.48C6.88 23 6 24.32 5.05 25.62a26.66 26.66 0 0 0-2.24 3.78 7.45 7.45 0 0 0-0.62 1.77 1.12 1.12 0 0 0 0.45 1.11 3 3 0 0 0 1.3 0.63 A2.85 2.85 0 0 0 6 32.59c1.81-1 3.62-2 5.44-2.9 1.31-0.69 2.65-1.35 4-2a14.41 14.41 0 0 1 1.93-0.69 13 13 0 0 1 1.53-0.31 4.87 4.87 0 0 1 1.57 0 6.25 6.25 0 0 1 2.31 0.84 7.28 7.28 0 0 1 1.63 1.35s0.07 0.11 0.12 0.18 a1.73 1.73 0 0 0-1 0.63c-0.11 0.15 -0.19 0.34 -0.29 0.49 a1 1 0 0 1-0.24 0.25 h-0.12a4.4 4.4 0 0 0-1.78-1.33 4.2 4.2 0 0 0-2.22-0.27 9.57 9.57 0 0 0-2.61 0.88 c-2.41 1.11-4.72 2.39-7 3.65-0.86 0.47 -1.74 0.91 -2.61 1.35a3.51 3.51 0 0 1-1.29 0.39 6.22 6.22 0 0 1-0.86 0.06 5.15 5.15 0 0 1-2.9-1 3.7 3.7 0 0 1-1.39-1.63A2.93 2.93 0 0 1 0 31.06a9 9 0 0 1 0.9-2.64 36.43 36.43 0 0 1 3.16-5.22 84.792 84.792 0 0 1 3.62-4.78c1-1.26 2.07-2.49 3.12-3.73 0.1 -0.11 0.1 -0.28 0-0.39a5.68 5.68 0 0 1-0.63-1.74 9.22 9.22 0 0 1-0.17-2.51c0-0.48 0.11 -1 0.17-1.45 0.135 0.026 0.269 0.06 0.4 0.1 0.15 0.06 0.21 0 0.22-0.13 0.01 -0.13 0-0.36 0.08 -0.54a13.06 13.06 0 0 1 0.61-2.54 10.3 10.3 0 0 1 1.86-3.43 6.33 6.33 0 0 1 1.95-1.6 3.33 3.33 0 0 1 1.45-0.38c0.41 0 0.82 0 1.23 0.06 a0.82 0.82 0 0 0 0.51-0.06c0.22-0.1 0.47 -0.1 0.69 0a9 9 0 0 1 0.91 0.35 0.84 0.84 0 0 1 0.41 0.83 1 1 0 0 1-1.31 0.83 c-0.27-0.09-0.56-0.17-0.83-0.28a0.84 0.84 0 0 1-0.35-0.43c-0.05-0.08-0.14-0.18-0.22-0.19a9.77 9.77 0 0 0-1.21 0 2.88 2.88 0 0 0-1.38 0.64 A7.14 7.14 0 0 0 13 4.77a16.5 16.5 0 0 0-0.67 1.82A13.24 13.24 0 0 0 12 8a7.2 7.2 0 0 0-0.11 0.67 3 3 0 0 0 0 0.31c0.115 0.022 0.23 0.052 0.34 0.09 a0.2 0.2 0 0 1 0.11 0.13 c0 0.37-0.09 0.74 -0.11 1.1a6.14 6.14 0 0 0 0.14 1.91c0.077 0.34 0.18 0.675 0.31 1 0.18 0.335 0.505 0.567 0.88 0.63 a5.94 5.94 0 0 0 2.22 0.16 h0.58c0.45 0 0.9-0.11 1.35-0.19 0.25 0 0.26-0.05 0.38 0.17 0.12 0.22 0.13 0.24 0.47 0.15a12.23 12.23 0 0 0 2.55-1A8.61 8.61 0 0 0 25 9.27a6.88 6.88 0 0 0 0.54-1.52 3.37 3.37 0 0 0-0.3-2.37 1.69 1.69 0 0 0-0.73-0.67 0.11 0.11 0 0 0-0.09 0 1.18 1.18 0 0 1-1-0.08 6.11 6.11 0 0 1-0.58-0.27 0.91 0.91 0 0 1-0.43-1A0.94 0.94 0 0 1 23 2.6a1.2 1.2 0 0 1 0.91 0.15 c0.304 0.08 0.579 0.247 0.79 0.48 0.08 0.11 0.11 0.25 0.18 0.37 a0.6 0.6 0 0 0 0.17 0.23 2.9 2.9 0 0 1 1.41 1.9 5.2 5.2 0 0 1 0.11 2 7 7 0 0 1-0.91 2.47 9.64 9.64 0 0 1-4 3.82 11.77 11.77 0 0 1-2.07 0.87 c-0.27 0.11 -0.59 0.16 -0.86 0.24 zM23.15 30.84c0.09 0.12 0.15 0.22 0.22 0.3 0.346 0.343 0.85 0.477 1.32 0.35 a1.9 1.9 0 0 0 0.9-0.41 1.45 1.45 0 0 0 0.61-1.26 3.87 3.87 0 0 1 0.59 0c0.484 0.069 0.95 0.232 1.37 0.48 a2.06 2.06 0 0 1 1 1.22 1.81 1.81 0 0 1-0.25 1.48 3.41 3.41 0 0 1-1.67 1.37 4.71 4.71 0 0 1-2.4 0.33 3.21 3.21 0 0 1-1.89-0.8 1.86 1.86 0 0 1-0.21-2.55c0.12-0.19 0.26 -0.35 0.41 -0.51z" fill="#FFF"/>
</svg>
