<?xml version="1.0" ?>
<svg xmlns="http://www.w3.org/2000/svg" width="30" height="31" viewBox="0 0 30 31">
  <path d="M18.65 0c6.17 0.028 11.158 5.037 11.16 11.207 0.001 6.17-4.984 11.182-11.154 11.213-6.17 0.03 -11.205-4.93-11.266-11.1A11.18 11.18 0 0 1 18.65 0zm-8.57 11.14a8.57 8.57 0 1 0 8.59-8.5 8.58 8.58 0 0 0-8.59 8.5z" fill="#FFF"/>
  <path d="M0 28.51a2 2 0 0 1 0.55-1.39l5-4.87C6.28 21.49 7 20.73 7.81 20c0.18-0.177 0.4 -0.31 0.64 -0.39a0.29 0.29 0 0 0 0.24-0.31 0.77 0.77 0 0 1 0.61-0.72 0.67 0.67 0 0 1 0.66 0.16 c0.58 0.56 1.14 1.133 1.68 1.72a0.68 0.68 0 0 1 0.06 0.82 0.67 0.67 0 0 1-0.61 0.42 0.33 0.33 0 0 0-0.38 0.26 3.92 3.92 0 0 1-1.13 1.42l-6.31 6.3a1.9 1.9 0 0 1-1.3 0.61 1.83 1.83 0 0 1-1.75-1.07 4.11 4.11 0 0 1-0.22-0.71zM26.19 11.19a11.41 11.41 0 0 1-4.07 3.72 5.92 5.92 0 0 1-2.21 0.73 10.82 10.82 0 0 1-2 0.06 7.36 7.36 0 0 1-3.23-1.22 12.2 12.2 0 0 1-3.19-3.1 0.31 0.31 0 0 1 0-0.42A11.68 11.68 0 0 1 15 7.64a6.52 6.52 0 0 1 2-0.83 11.33 11.33 0 0 1 1.72-0.25 5.83 5.83 0 0 1 1.84 0.24 10.19 10.19 0 0 1 5.66 4.34l-0.03 0.05 zM22 8.71a3.73 3.73 0 0 1-1 4.54 3.61 3.61 0 0 1-4.16 0.05 3.33 3.33 0 0 1-1.37-2.14 3.42 3.42 0 0 1 0.45-2.52h-0.09a10.18 10.18 0 0 0-2.91 2.41c-0.1 0.12 -0.07 0.2 0 0.3a10.46 10.46 0 0 0 2.7 2.31 6.33 6.33 0 0 0 2.51 0.88 5.67 5.67 0 0 0 3-0.51 10.46 10.46 0 0 0 3.48-2.66 0.23 0.23 0 0 0 0-0.36 11 11 0 0 0-1.92-1.84c-0.19-0.17-0.42-0.3-0.69-0.46zm-3.7 1.13a0.91 0.91 0 0 0-0.91-0.93 0.93 0.93 0 0 0 0 1.86 0.91 0.91 0 0 0 0.95-0.93h-0.04z" fill="#FFF"/>
</svg>
