<?xml version="1.0" ?>
<svg xmlns="http://www.w3.org/2000/svg" width="32" height="32" viewBox="0 0 32 32">
  <path d="M0 10c0-0.55 0-1 0.1-1.44 0.1 -0.44 0.19 -0.99 0.3 -1.46a8.83 8.83 0 0 1 1.09-2.56 9.3 9.3 0 0 1 1.89-2.21A9 9 0 0 1 5.84 0.81 c0.417-0.17 0.845 -0.314 1.28-0.43a10.12 10.12 0 0 1 1.44-0.3A12.18 12.18 0 0 1 10.2 0c0.52 0.006 1.037 0.05 1.55 0.13 0.84 0.14 1.665 0.364 2.46 0.67 A13.08 13.08 0 0 1 17.9 3a13.35 13.35 0 0 1 2.87 3.32 11.28 11.28 0 0 1 1.13 2.37c0.18 0.56 0.343 1.127 0.49 1.7 0.074 0.33 0.124 0.664 0.15 1 0.05 0.52 0.08 1 0.14 1.55 0.06 0.55 0.15 1.1 0.23 1.65 0 0.35 0.09 0.69 0.15 1 0.06 0.31 0.16 0.85 0.24 1.28 0.08 0.43 0.13 0.76 0.21 1.14 0.08 0.38 0.19 0.83 0.3 1.25 0.11 0.42 0.22 0.76 0.32 1.14a3.21 3.21 0 0 0 1.07 1.67c0.1 0.08 0.18 0.18 0.27 0.26 0.09 0.08 0.09 0.15 0 0.24l-1.8 1.79c-0.35 0.35 -0.7 0.69 -1 1-0.11 0.11 -0.17 0.11 -0.28 0-0.11-0.11-0.39-0.38-0.58-0.59a2.49 2.49 0 0 0-1.1-0.65c-0.48-0.16-1-0.31-1.47-0.44s-0.84-0.19-1.27-0.28l-1.13-0.23-0.92-0.15-1-0.17-0.49-0.07-1.23-0.08c-0.5 0-1-0.07-1.49-0.14s-1.14-0.18-1.7-0.3a11.86 11.86 0 0 1-3.63-1.49 13.24 13.24 0 0 1-2.7-2.17 13.35 13.35 0 0 1-2.54-3.72A9.5 9.5 0 0 1 0.47 13c-0.12-0.52-0.24-1-0.32-1.56C0.07 10.88 0 10.39 0 10zm7.74-4.19l-0.09-0.12-2-2.05a0.18 0.18 0 0 0-0.27 0 6.68 6.68 0 0 0-1.8 1.75c-0.07 0.1 0 0.14 0 0.2l2.1 2.06c0.09 0.09 0.15 0.09 0.24 0l1.74-1.74 0.08 -0.1zM18 21.51l0.81 0.2 1 0.22 1 0.23 0.94 0.22 0.86 0.2s0.09-0.05 0.08 -0.07c-0.06-0.28-0.12-0.56-0.19-0.83l-0.23-1-0.27-0.89-0.23-1-0.2-0.82A8.22 8.22 0 0 1 18 21.51zM11.66 9.73l-0.13 0.1 -1.72 1.73c-0.08 0.08 -0.09 0.14 0 0.22l1.74 1.74c0.08 0.08 0.14 0.1 0.24 0l1.73-1.74a0.14 0.14 0 0 0 0-0.23l-1.76-1.73-0.1-0.09zm-1 4.87l-0.07-0.09-1.75-1.76c-0.08-0.08-0.14-0.08-0.22 0L6.86 14.5c-0.08 0.08 -0.07 0.13 0 0.21l1.75 1.75c0.09 0.09 0.14 0.08 0.22 0l1.73-1.74 0.1 -0.12zM8.73 6.8l-0.11 0.09 -1.75 1.74c-0.08 0.07 -0.09 0.13 0 0.21l1.75 1.75c0.08 0.08 0.14 0.09 0.22 0l1.73-1.73c0.08-0.08 0.09 -0.14 0-0.23L8.83 6.88l-0.1-0.08zm5.87 3.87l0.13-0.11 1.7-1.7c0.1-0.1 0.1 -0.16 0-0.26L14.7 6.89c-0.08-0.08-0.14-0.09-0.22 0l-1.75 1.74c-0.07 0.07 -0.09 0.13 0 0.21l1.76 1.75 0.11 0.08zm4.86 1a0.83 0.83 0 0 0-0.08-0.11l-1.75-1.74c-0.08-0.08-0.14-0.08-0.22 0l-1.75 1.74c-0.08 0.08 -0.08 0.13 0 0.21l1.75 1.75c0.08 0.08 0.14 0.08 0.22 0l1.73-1.73 0.1 -0.12zM5.79 13.61l0.1-0.08 1.75-1.74a0.14 0.14 0 0 0 0-0.23L5.92 9.83c-0.09-0.09-0.15-0.09-0.24 0l-1.73 1.73c-0.08 0.08 -0.08 0.14 0 0.22l1.74 1.74 0.1 0.09zm7.8-7.8l-0.09-0.12L11.78 4c-0.09-0.09-0.15-0.08-0.24 0L9.8 5.7c-0.08 0.08 -0.08 0.14 0 0.22l1.72 1.72c0.09 0.09 0.15 0.1 0.25 0l1.73-1.72 0.09 -0.11zm2.94 8.79l-0.1-0.12-1.7-1.7c-0.1-0.1-0.17-0.1-0.27 0l-1.71 1.71c-0.09 0.09 -0.1 0.14 0 0.23l1.74 1.74c0.08 0.08 0.14 0.09 0.22 0l1.73-1.73 0.09 -0.13zm-2.94 2.93l-0.09-0.11-1.71-1.72c-0.09-0.09-0.16-0.1-0.25 0L9.8 17.42c-0.08 0.08 -0.08 0.14 0 0.22l1.74 1.74c0.08 0.08 0.14 0.09 0.22 0l1.73-1.74 0.1 -0.11zm5.52-0.35l-0.07-0.1-1.4-1.4c-0.08-0.08-0.14-0.09-0.22 0l-1.75 1.75c-0.07 0.07 -0.08 0.12 0 0.2L17 19a0.15 0.15 0 0 0 0.22 0A6.62 6.62 0 0 0 19 17.28l0.11-0.1zM6.74 2.81l0.09 0.13 1.79 1.79c0.09 0.09 0.15 0.06 0.22 0L10.57 3c0.08-0.08 0.08 -0.14 0-0.23l-0.52-0.52a0.26 0.26 0 0 0-0.16-0.08 9.82 9.82 0 0 0-1.11 0.08 c-0.44 0.07 -0.88 0.19 -1.31 0.3 -0.23 0.06 -0.47 0.16 -0.73 0.26 zM2.15 9.66h0.06a0.52 0.52 0 0 0 0.22 0.61 c0.114 0.095 0.221 0.2 0.32 0.31 0.08 0.08 0.14 0.09 0.22 0l1.76-1.74c0.07-0.07 0.08 -0.12 0-0.2L2.95 6.86c-0.09-0.09-0.15-0.06-0.18 0-0.11 0.36 -0.25 0.72 -0.32 1.09-0.13 0.59 -0.2 1.15-0.3 1.71zm16.34-2.89a1.28 1.28 0 0 0-0.08-0.14 10.79 10.79 0 0 0-1.64-1.79c-0.09-0.08-0.15-0.08-0.24 0l-0.87 0.86 c-0.09 0.08 -0.08 0.14 0 0.22l1.74 1.73c0.09 0.09 0.15 0.09 0.24 0l0.78-0.78a0.88 0.88 0 0 0 0.07-0.1zM7.73 17.53l-0.06-0.08-1.77-1.77c-0.07-0.07-0.13-0.08-0.2 0l-0.85 0.85 a0.13 0.13 0 0 0 0 0.2 11.08 11.08 0 0 0 1.82 1.67 0.16 0.16 0 0 0 0.24 0l0.74-0.75a1 1 0 0 0 0.08-0.12zm12.69-4.82l-1.83 1.83a0.14 0.14 0 0 0 0 0.14l1.15 1.16c0.06 0.06 0.11 0.05 0.13 0 0.13-0.41 0.28 -0.82 0.39 -1.23a5.81 5.81 0 0 0 0.15-0.86c0-0.32 0-0.63 0.06 -1-0.02 0-0.03-0.02-0.04-0.04h-0.01zm-7.71 7.66v0.06a7.68 7.68 0 0 0 3.12-0.6 1.13 1.13 0 0 0-0.1-0.14l-1.03-1.08c-0.09-0.09-0.15-0.07-0.22 0l-0.58 0.58 -1.19 1.18zm0.19-17.73a2.24 2.24 0 0 0-0.23 0.2 v0.13l1.75 1.76c0.08 0.08 0.14 0.08 0.22 0l0.66-0.66c0.15-0.15 0.16 -0.19 0-0.29-0.58-0.3-1.15-0.6-1.74-0.89a6.74 6.74 0 0 0-0.65-0.26l-0.01 0.01 zm-10 10l-0.09 0.05 c-0.13 0.09 -0.1 0.22 -0.06 0.34 a10.77 10.77 0 0 0 1.12 2.31c0.06 0.09 0.12 0.1 0.19 0l0.71-0.71a0.11 0.11 0 0 0 0-0.19L3 12.75l-0.1-0.11zm17.27-2.32c-0.06-0.2-0.11-0.4-0.19-0.6-0.21-0.54-0.43-1.07-0.66-1.6 0-0.1-0.11-0.14-0.2 0-0.09 0.14 -0.34 0.35 -0.52 0.51 -0.18 0.16 -0.11 0.16 0 0.27l1.4 1.34 0.17 0.08zm-9.86 9.76V20l-1.49-1.41c-0.07-0.07-0.13-0.05-0.19 0l-0.48 0.48 c-0.13 0.13 -0.12 0.17 0 0.24l1.72 0.69 a3 3 0 0 0 0.41 0.12 l0.03-0.04zM23.94 27l0.12-0.13C25 25.92 25.95 25 26.88 24c0.12-0.12 0.18 -0.1 0.28 0L31 27.91a2.19 2.19 0 1 1-3.15 3l-3.82-3.82-0.09-0.09zM29.81 0.69 a5.59 5.59 0 0 0 0 6.83c-0.2 0.11 -0.38 0.22 -0.57 0.31 a4.13 4.13 0 0 1-2.24 0.32 3.86 3.86 0 0 1-1.54-0.57c-0.08 0-0.09-0.1 0-0.18a5.2 5.2 0 0 0 0.84-1.63 8.26 8.26 0 0 0 0.22-1.08 3.45 3.45 0 0 0-0.03-0.69 5.61 5.61 0 0 0-1-3.1V0.84c-0.13-0.19-0.13-0.18 0.07 -0.3a4.08 4.08 0 0 1 1.37-0.49 4.49 4.49 0 0 1 1.45 0 3.76 3.76 0 0 1 1.43 0.64 zM24.39 6.72c-0.18-0.3-0.36-0.56-0.5-0.84a4 4 0 0 1-0.37-2.42 4 4 0 0 1 0.79-1.86c0.08-0.11 0.14 -0.08 0.2 0 0.259 0.384 0.458 0.806 0.59 1.25 0.146 0.472 0.207 0.967 0.18 1.46a4.39 4.39 0 0 1-0.89 2.41zM30.73 6.69a4.27 4.27 0 0 1-0.84-3 4.22 4.22 0 0 1 0.83-2.18 4.05 4.05 0 0 1 0.01 5.18z" fill="#FFF"/>
</svg>
