<?xml version="1.0" ?>
<svg xmlns="http://www.w3.org/2000/svg" width="30" height="32" viewBox="0 0 30 32">
  <path d="M4.52 25.65c-0.12-0.27-0.23-0.52-0.33-0.78a7.91 7.91 0 0 1-0.59-3v-4.82a1.23 1.23 0 0 1 1.31-1.28h8.74a1.18 1.18 0 0 1 1.22 0.84 c0.048 0.207 0.071 0.418 0.07 0.63 v0.33c0.23-0.07 0.42 -0.13 0.61 -0.17a2 2 0 0 1 2.17 1.17 2.23 2.23 0 0 1 0 1.66 10.05 10.05 0 0 1-1.45 2.56 1.18 1.18 0 0 1-1.12 0.46 c-0.29 0-0.29 0-0.35 0.25 a8.86 8.86 0 0 1-0.66 1.88l-0.09 0.21 h4.25a2 2 0 0 0 1.79-0.93 2.12 2.12 0 0 0 0.3-1v-0.39V10.6a3.63 3.63 0 0 0-0.25-1.5 2.16 2.16 0 0 0-1.73-1.32 4.61 4.61 0 0 0-0.73 0h-6c-0.24 0-0.25 0-0.25 0.24 v2.3a0.93 0.93 0 0 1-0.54 0.91 1 1 0 0 1-0.4 0.1 h-2.9a0.93 0.93 0 0 1-0.93-0.92V8c0-0.22 0-0.22-0.22-0.22h-3.9a2.38 2.38 0 0 1-1.15-0.24A2.4 2.4 0 0 1 0.28 6.2 4.88 4.88 0 0 1 0 4.51V1.62A1.5 1.5 0 0 1 0.86 0.17 2.8 2.8 0 0 1 1.5 0a0.86 0.86 0 0 1 0.19 0h26.23a1.61 1.61 0 0 1 1.29 0.55 c0.258 0.307 0.39 0.7 0.37 1.1V28.85a3.79 3.79 0 0 1-0.39 1.78 2.31 2.31 0 0 1-2 1.28H2.48a2.72 2.72 0 0 1-1.22-0.23 2.18 2.18 0 0 1-1.11-1.34A3.09 3.09 0 0 1 0 29.28v-1.64a2 2 0 0 1 1.3-1.76 3.67 3.67 0 0 1 1.29-0.21h1.93v-0.02zm12.4-6c0-0.07 0-0.17-0.06-0.27a1 1 0 0 0-1.08-0.72 1 1 0 0 0-0.92 1v1.41a0.68 0.68 0 0 0 0.46 0.66 0.66 0.66 0 0 0 0.79-0.25c0.17-0.25 0.34 -0.5 0.48 -0.76a2.37 2.37 0 0 0 0.33-1.12v0.05z" fill="#FFF"/>
</svg>
