<?xml version="1.0" ?>
<svg xmlns="http://www.w3.org/2000/svg" width="32" height="36" viewBox="0 0 32 36">
  <path d="M0 8.81l0.2-0.11a2.74 2.74 0 0 0 1.37-1.25 2.51 2.51 0 0 0 0.26-1.14c0-0.53 0-1-0.09-1.58a6.3 6.3 0 0 1 0-1.89 2.84 2.84 0 0 1 1.1-1.71A5.62 5.62 0 0 1 5 0.1a3.59 3.59 0 0 1 2.8 0.48 6.65 6.65 0 0 1 2.58 2.92 21.1 21.1 0 0 1 1 2.88c0.06 0.22 0.14 0.43 0.2 0.65 0.06 0.22 0.09 0.15 0.19 0.13 0.3-0.07 0.6 -0.12 0.76 -0.44a0.57 0.57 0 0 1 0.47-0.13 0.18 0.18 0 0 1 0.07 0.1 l1 2.68 0.61 1.74a0.31 0.31 0 0 0 0.22 0.21 c0.204 0.07 0.397 0.17 0.57 0.3 a0.91 0.91 0 0 1 0.2 1.15 1.43 1.43 0 0 1-0.12 0.21 0.4 0.4 0 0 0-0.06 0.43 c0.15 0.43 0.28 0.86 0.43 1.29a0.44 0.44 0 0 0 0.18 0.2 c0.16 0.09 0.35 0.14 0.51 0.23 a0.84 0.84 0 0 1 0.28 1.18 3 3 0 0 1-0.27 0.35 0.25 0.25 0 0 0-0.06 0.26 l0.57 1.7 0.39 1.18a0.25 0.25 0 0 1 0 0.1l-0.66 0.15 c-0.24 0.05 -0.47 0.11 -0.72 0.15 -0.25 0.04 -0.14 0.08 -0.11 0.19 0.19 0.65 0.36 1.3 0.57 1.94 0.27 0.85 0.56 1.69 0.85 2.53 0.247 0.77 0.583 1.508 1 2.2 0.184 0.306 0.425 0.574 0.71 0.79a1.23 1.23 0 0 0 1.41-0.08 0.84 0.84 0 0 0 0.28-0.91c-0.08-0.36-0.2-0.7-0.3-1.05-0.21-0.77-0.42-1.55-0.62-2.32-0.12-0.48-0.23-0.96-0.33-1.44a13.86 13.86 0 0 1-0.35-4.4c0.1-0.928 0.27 -1.848 0.51 -2.75 0.25 -1 0.52-1.93 0.74 -2.9a19.18 19.18 0 0 0 0.45-3.45 0.69 0.69 0 0 0 0-0.25 0.33 0.33 0 0 1 0.14-0.4 0.86 0.86 0 0 1 0.67-0.14 0.61 0.61 0 0 1 0.25 0.18 l2.41 2.61 6.42 7a2 2 0 0 1 0.28 0.37 0.34 0.34 0 0 1-0.22 0.54 1 1 0 0 1-0.62 0h-0.12a4.46 4.46 0 0 0-2.87 0.49 3.91 3.91 0 0 0-1.37 1.59 7 7 0 0 0-0.6 1.84 15.15 15.15 0 0 0-0.28 3.8c0.05 1 0.13 1.91 0.16 2.87 0 0.61 0 1.21-0.07 1.82-0.07 0.61 -0.09 1.09-0.18 1.63a4.33 4.33 0 0 1-0.7 2 2.71 2.71 0 0 1-1.58 1 3.75 3.75 0 0 1-3.17-0.78 6.91 6.91 0 0 1-1.91-2.47c-0.23-0.46-0.52-0.9-0.74-1.37-0.43-1-0.86-1.9-1.24-2.87-0.47-1.16-0.89-2.34-1.31-3.51-0.35-1-0.67-2-1-3-0.33-1-0.62-1.92-0.92-2.89-0.3-0.97-0.56-1.82-0.84-2.74-0.28-0.92-0.53-1.7-0.79-2.55-0.26-0.85-0.55-1.84-0.84-2.76-0.29-0.92-0.61-1.84-0.91-2.73-0.17-0.53-0.31-1.07-0.47-1.61a9.63 9.63 0 0 0-1-2.51 2.17 2.17 0 0 0-1-0.94 1.58 1.58 0 0 0-1.15 0 1 1 0 0 0-0.64 0.81 3.27 3.27 0 0 0-0.08 0.76 c0 0.63 0.08 1.26 0.11 1.89a4.7 4.7 0 0 1-0.46 2.45 2.6 2.6 0 0 1-1.44 1.19c-0.59 0.25 -1.2 0.45 -1.81 0.67 -0.2 0.07 -0.21 0.06 -0.3-0.14L0 8.81zm14.1 2.64a1.7 1.7 0 0 0-0.06-0.28c-0.22-0.63-0.45-1.25-0.66-1.87-0.21-0.62-0.38-1.12-0.55-1.68 0-0.1-0.07-0.13-0.17-0.11l-0.53 0.16 c-0.24 0.06 -0.26 0.08 -0.18 0.31 0.27 0.86 0.55 1.71 0.83 2.57 0.28 0.86 0.57 1.77 0.86 2.66 0.29 0.89 0.55 1.73 0.83 2.59 0.28 0.86 0.52 1.62 0.79 2.43 0.16 0.46 0.34 0.91 0.5 1.36a0.15 0.15 0 0 0 0.23 0.1 l0.7-0.29c0.1 0 0.14-0.09 0.08 -0.2a1.89 1.89 0 0 1-0.11-0.25c-0.15-0.47-0.29-0.93-0.43-1.4a1.25 1.25 0 0 0-0.64-0.86 1 1 0 0 1-0.48-0.73 0.67 0.67 0 0 1 0.17-0.63s0-0.06 0.07 -0.09a0.24 0.24 0 0 0 0-0.31 1.84 1.84 0 0 1-0.19-0.4 7 7 0 0 1-0.26-0.77 0.68 0.68 0 0 0-0.54-0.55 0.56 0.56 0 0 1-0.36-0.41 1.33 1.33 0 0 1 0-0.92c0-0.15 0.06 -0.3 0.1 -0.43zm1.25 10.74c-0.42 0-0.72 0.23 -0.72 0.55 a0.68 0.68 0 0 0 0.62 0.7 c0.3 0 0.69-0.19 0.68 -0.54a0.68 0.68 0 0 0-0.58-0.71zm-1.3-2.64a0.64 0.64 0 0 0 0.64-0.61 0.7 0.7 0 0 0-0.69-0.64 0.67 0.67 0 0 0-0.62 0.67 0.62 0.62 0 0 0 0.67 0.58 zm-1.77-4.36a0.84 0.84 0 0 0 0.19 0.52 0.49 0.49 0 0 0 0.79 0 0.94 0.94 0 0 0 0.24-0.6c0-0.4-0.29-0.53-0.59-0.5h-0.25a0.28 0.28 0 0 0-0.29 0.21 l-0.09 0.37 zm-2.35-7a0.55 0.55 0 0 0 0.56 0.58 0.68 0.68 0 0 0 0.64-0.62 0.62 0.62 0 0 0-0.58-0.6 0.61 0.61 0 0 0-0.62 0.68 v-0.04zm2 3.34c-0.33 0-0.6 0.26 -0.61 0.59 a0.62 0.62 0 0 0 0.59 0.61 0.66 0.66 0 0 0 0.6-0.63 0.59 0.59 0 0 0-0.63-0.53l0.05-0.04z" fill="#FFF"/>
</svg>
