<?xml version="1.0" ?>
<svg xmlns="http://www.w3.org/2000/svg" width="45" height="35" viewBox="0 0 45 35">
  <path d="M7.48 0.25 a0.556 0.556 0 0 0-0.554 0.506 l-1.224 13.49-0.002 0.05 c0 0.307 0.249 0.556 0.556 0.556h11.668l0.05-0.002a0.556 0.556 0 0 0 0.503-0.604L17.253 0.756 a0.556 0.556 0 0 0-0.554-0.506H7.48zM33.677 34.75a0.556 0.556 0 0 1-0.554-0.508l-1.23-14.138-0.003-0.048c0-0.307 0.25 -0.556 0.556 -0.556h11.675a0.556 0.556 0 0 1 0.554 0.604 l-1.23 14.138a0.556 0.556 0 0 1-0.555 0.508 h-9.213z" fill="#FFF" stroke-width=".5" stroke="#FFF"/>
  <path d="M36.94 8.75h2.015v10.063H36.94zM4.685 15.75h14.973a4.299 4.299 0 0 1 4.26 4.869l-1.426 10.653A4.299 4.299 0 0 1 18.232 35H7.012a4.299 4.299 0 0 1-4.2-3.381L0.485 20.966a4.299 4.299 0 0 1 4.2-5.216zm10.973 16.507c1.104 0.773 2.853 0.18 3.907-1.324 1.053-1.504 1.012-3.35-0.093-4.124-1.104-0.773-0.854 1.22-1.907 2.724-1.053 1.504-3.011 1.95-1.907 2.724zM37.93 5.688h0.035a0.806 0.806 0 0 1 0.784 0.994 l-0.297 1.234a0.518 0.518 0 1 1-1.007 0l-0.298-1.234a0.806 0.806 0 0 1 0.784-0.995z" fill="#FFF"/>
</svg>
