<?xml version="1.0" ?>
<svg xmlns="http://www.w3.org/2000/svg" width="31" height="31" viewBox="0 0 31 31">
  <path d="M23.67 2.63c0.27 0.2 0.55 0.38 0.81 0.6 a21.25 21.25 0 0 1 1.7 1.56 15.25 15.25 0 0 1 1.53 2c0.48 0.707 0.91 1.445 1.29 2.21 0.264 0.614 0.484 1.245 0.66 1.89 0.15 0.5 0.27 1 0.38 1.52 0.06 0.26 0.09 0.53 0.12 0.8 0.126 0.85 0.163 1.712 0.11 2.57-0.05 0.69 -0.17 1.37-0.29 2-0.09 0.5 -0.2 1-0.33 1.49a9.2 9.2 0 0 1-0.39 1.13 14.72 14.72 0 0 1-0.73 1.6 22.49 22.49 0 0 1-1.34 2.12 14.77 14.77 0 0 1-2.25 2.38A14.51 14.51 0 0 1 20.8 29a11.47 11.47 0 0 1-2.32 0.71 c-0.44 0.08 -0.86 0.19 -1.3 0.28 h-0.09c-0.88 0-1.76 0.12 -2.64 0.07 a13.69 13.69 0 0 1-2.12-0.25 15.19 15.19 0 0 1-2.55-0.73 21 21 0 0 1-2.25-1.09 10.7 10.7 0 0 1-1.54-1c-0.59-0.47-1.15-1-1.69-1.52-0.35-0.34-0.66-0.73-1-1.1a12.3 12.3 0 0 1-1.68-2.62c-0.27-0.56-0.52-1.14-0.75-1.72A8.55 8.55 0 0 1 0.54 19c-0.12-0.53-0.21-1.07-0.32-1.6a11.21 11.21 0 0 1-0.19-3c0.056-0.672 0.153 -1.34 0.29 -2 0.1-0.55 0.25 -1.1 0.39 -1.64 0.243 -0.94 0.6 -1.846 1.06-2.7a14.83 14.83 0 0 1 3-4A13.73 13.73 0 0 1 7.66 2 23.05 23.05 0 0 1 10.38 0.77 C11 0.54 11.64 0.46 12.27 0.29 a6.54 6.54 0 0 1 1.6-0.21C14.5 0.06 15.12 0 15.74 0c0.762 0.006 1.52 0.1 2.26 0.28 0.7 0.19 1.42 0.33 2.11 0.54 0.45 0.153 0.89 0.33 1.32 0.53 0.24 0.1 0.24 0.35 0.31 0.55 0.307 0.847 0.607 1.697 0.9 2.55 0.27 0.8 0.53 1.6 0.81 2.39s0.49 1.34 0.72 2c0.31 0.9 0.61 1.81 0.92 2.71 0.19 0.56 0.37 1.13 0.61 1.67 0.095 0.33 0.078 0.682-0.05 1l-0.26 1.18c-0.06 0.41 -0.16 0.46 -0.48 0.21 -0.55-0.42-0.92-0.33-1.3 0.23 -0.6 0.87 -1.14 1.77-1.71 2.66-0.38 0.6 -0.76 1.22-1.15 1.81a0.93 0.93 0 0 0 0.25 1.53c0.56 0.33 1.1 0.71 1.66 1.05 0.249 0.157 0.506 0.3 0.77 0.43a0.92 0.92 0 0 0 1.1-0.41l2.06-3.24c0.28-0.44 0.55 -0.88 0.83 -1.32a0.86 0.86 0 0 0-0.32-1.26c-0.12-0.07-0.23-0.17-0.36-0.24a0.27 0.27 0 0 1-0.14-0.35c0.08-0.33 0.18 -0.65 0.26 -1 0.15-0.64 0.3 -1.27 0.44 -1.91a0.65 0.65 0 0 0 0-0.33c-0.25-0.73-0.51-1.46-0.77-2.19-0.2-0.57-0.42-1.14-0.62-1.72-0.12-0.34-0.23-0.68-0.34-1l-0.79-2.28-0.87-2.51c-0.08-0.22-0.15-0.44-0.22-0.66a1.61 1.61 0 0 1 0-0.23l-0.02-0.04zM15.13 20.1a5 5 0 0 0 0.12-10 4.77 4.77 0 0 0-3.56 1.38 5 5 0 0 0 3.44 8.59v0.03zM4.63 9.77a1 1 0 0 0 1-0.53 10 10 0 0 1 1.31-1.8 10.12 10.12 0 0 1 3.54-2.54 0.9 0.9 0 0 0 0.39-1.41 0.74 0.74 0 0 0-0.87-0.25c-0.26 0.1 -0.51 0.22 -0.76 0.33 a9.88 9.88 0 0 0-2.59 1.72 13.37 13.37 0 0 0-1.43 1.5A14.32 14.32 0 0 0 4 8.56a0.79 0.79 0 0 0 0.63 1.21zm3.44 1.5a0.86 0.86 0 0 0 0.74-0.4c0.28-0.39 0.56 -0.78 0.88 -1.14a6.15 6.15 0 0 1 2.09-1.51 1 1 0 0 0 0.63-0.79 0.83 0.83 0 0 0-1.23-0.82A8.54 8.54 0 0 0 9 8.06a8.37 8.37 0 0 0-1.67 2 0.82 0.82 0 0 0-0.11 0.55 0.8 0.8 0 0 0 0.85 0.66 z" fill="#FFF"/>
  <path d="M15.12 16.84a1.7 1.7 0 1 1 0.08-3.399 1.7 1.7 0 0 1-0.08 3.399z" fill="#FFF"/>
</svg>
