<?xml version="1.0" ?>
<svg xmlns="http://www.w3.org/2000/svg" width="35" height="36" viewBox="0 0 35 36">
  <path d="M3.7 7.32c-0.48 0.63 -0.87 0.56 -1.34 0.22 A4.64 4.64 0 0 1 0.63 5.13c-0.11-0.36-0.3-0.69-0.43-1a3.75 3.75 0 0 1-0.2-0.92 1 1 0 0 1 0.6-1c0.51-0.27 1-0.49 1.54-0.73a10.21 10.21 0 0 0 2-1.17A1.1 1.1 0 0 1 5.52 0.3 c0.121 0.082 0.252 0.15 0.39 0.2 0.164 0.04 0.336 0.04 0.5 0 0.44-0.131 0.887 -0.235 1.34-0.31C8.7 0.1 9.66 0.08 10.61 0.06 A2.35 2.35 0 0 1 12 0.48c0.14 0.09 0.19 0.07 0.28 0A1.1 1.1 0 0 1 13.8 0.22 c0.388 0.24 0.789 0.46 1.2 0.66 0.295 0.117 0.6 0.207 0.91 0.27 a2.43 2.43 0 0 1 1.69 1.18c0.198 0.41 0.274 0.868 0.22 1.32l-0.06 0.59 c-0.07 0.86 -0.11 1.74-0.23 2.6a8 8 0 0 1-0.38 1.49 0.61 0.61 0 0 1-0.34 0.33 c-0.18 0.07 -0.27-0.11-0.37-0.25a8.11 8.11 0 0 1-1-2 3.36 3.36 0 0 1-0.07-0.38c-0.07 0.12 -0.13 0.17 -0.14 0.24 -0.07 0.41 -0.12 0.83 -0.21 1.24-0.09 0.41 -0.22 0.86 -0.35 1.29-0.13 0.43 -0.23 0.64 -0.33 1a0.72 0.72 0 0 0 0.58 0.77 c0.69 0 1.38 0.1 2.06 0.2 0.402 0.07 0.796 0.173 1.18 0.31 a3.07 3.07 0 0 0 2.43-0.19c0.85-0.45 1.67-1 2.5-1.45A16.16 16.16 0 0 1 26.22 8a20.48 20.48 0 0 1 2.32-0.66 9.57 9.57 0 0 1 3.29-0.1c0.486 0.098 0.964 0.232 1.43 0.4 l0.87 0.26 c0.08 0 0.16 0.09 0.25 0.13 v0.08a6.45 6.45 0 0 1-0.74 0.38 6 6 0 0 1-1.83 0.42 c-0.65 0-1.31 0.09 -2 0.2A11.25 11.25 0 0 0 26 10.5a10.07 10.07 0 0 0-2.68 2.31 0.29 0.29 0 0 0 0 0.43 10.11 10.11 0 0 1 1.52 3.11c0.24 0.8 0.4 1.62 0.62 2.42 0.15 0.51 0.37 1 0.53 1.52 0.16 0.52 0.25 0.87 0.35 1.32 0.14 0.61 0.26 1.21 0.36 1.83 0.17 0.735 0.4 1.454 0.69 2.15 0.095 0.266 0.136 0.548 0.12 0.83 0 0.82-0.08 1.64-0.07 2.47 0.01 0.83 0 1.71 0.1 2.56 0 0.32 0.16 0.63 0.21 1a4.2 4.2 0 0 1 0.07 0.87 c0 0.24-0.34 0.47 -0.66 0.5 a7.08 7.08 0 0 1-2-0.15 3 3 0 0 0-0.42-0.05c-0.3 0-0.5-0.18-0.46-0.48a6.7 6.7 0 0 1 0.22-1.17c0.15-0.5 0.35 -1 0.52-1.47a0.64 0.64 0 0 0 0-0.2c0-0.79 0-1.59-0.12-2.38a9 9 0 0 0-0.31-1.13 2.51 2.51 0 0 1-0.14-0.84 1.69 1.69 0 0 0-1-1.72 3.71 3.71 0 0 1-1.71-1.91s-0.12-0.1-0.16-0.08a7.32 7.32 0 0 0-2.43 1.1 1.67 1.67 0 0 0-0.56 1.23c0 1.19 0 2.39-0.11 3.58-0.05 0.8 -0.2 1.58-0.26 2.37a16.37 16.37 0 0 0-0.09 2.32c0.078 0.465 0.212 0.918 0.4 1.35 0.203 0.433 0.228 0.929 0.07 1.38a0.7 0.7 0 0 1-0.77 0.38 A2.65 2.65 0 0 0 17 36a2.32 2.32 0 0 1-1-0.07c-0.17 0-0.36-0.1-0.5 0a1.55 1.55 0 0 1-1.06-0.14 1.18 1.18 0 0 0-0.45-0.05c-0.17 0-0.25 0-0.24-0.17a8.4 8.4 0 0 1 0.15-1.24c0.13-0.55 0.34 -1.09 0.51 -1.63a1.43 1.43 0 0 0 0-0.29c0-0.17-0.06-0.25-0.22-0.25a1.12 1.12 0 0 1-0.68-0.17c-0.13-0.08-0.37 0-0.55 0a2.48 2.48 0 0 1-0.61 0 4.74 4.74 0 0 1-0.79-0.3 0.33 0.33 0 0 1-0.17-0.49c0.18-0.55 0.6 -0.992 1.14-1.2a1.85 1.85 0 0 0 1-0.86 7.2 7.2 0 0 0 0.88-2.08 2.4 2.4 0 0 0-0.64-2.4 0.3 0.3 0 0 0-0.23-0.07 1.25 1.25 0 0 1-1.07-0.06 1.63 1.63 0 0 0-1.13 0A1.45 1.45 0 0 1 9.46 24c-0.27-0.35-0.53-0.7-0.82-1a0.68 0.68 0 0 0-0.42-0.26c-0.23 0-0.13 0.26 -0.18 0.4 a0.85 0.85 0 0 0-0.06 0.31 c0 0.88-0.06 1.76-0.12 2.64-0.06 0.88 -0.19 1.51-0.25 2.28v1.72c0.03 0.79 0.01 1.582-0.06 2.37a6.06 6.06 0 0 1-0.74 2.33 1.08 1.08 0 0 1-0.83 0.52 c-0.367 0.1 -0.753 0.1 -1.12 0-0.16-0.06-0.3-0.19-0.45-0.2-0.5 0-1 0-1.5-0.09a1.5 1.5 0 0 1-0.59-0.18 0.48 0.48 0 0 1-0.15-0.84c0.37-0.38 0.76 -0.74 1.16-1.08a2.38 2.38 0 0 0 0.93-1.13 5.33 5.33 0 0 0 0.19-2.14c-0.06-0.41-0.16-0.82-0.21-1.24a2.12 2.12 0 0 1 0-0.56 6.38 6.38 0 0 0 0-1.69 17.17 17.17 0 0 1-0.3-2.47c0.03-0.671 0.107 -1.34 0.23 -2a3.82 3.82 0 0 0-0.1-1.69 5.37 5.37 0 0 1-0.35-2.41c0-0.34 0.16 -0.67 0.22 -1 0.06-0.33 0.19 -0.92 0.26 -1.38a11.21 11.21 0 0 1 0.71-2.79c0.1-0.21 0.29 -0.37 0.4 -0.58a0.56 0.56 0 0 0 0-0.44c-0.27-0.53-0.59-1-0.87-1.55a5.4 5.4 0 0 1-0.64-2.04c-0.02-0.15-0.06-0.3-0.1-0.49z" fill="#FFF"/>
</svg>
