<?xml version="1.0" ?>
<svg xmlns="http://www.w3.org/2000/svg" width="44" height="30" viewBox="0 0 44 30">
  <path d="M17 12l0.12 0.25 a8.5 8.5 0 0 1 0.59 1.82 7.59 7.59 0 0 1 0.16 2.07 2.73 2.73 0 0 1-0.3 1.15 1.28 1.28 0 0 1-0.93 0.6 c-0.47 0.08 -0.95 0.08 -1.42 0a7.59 7.59 0 0 1-1.09-0.23c-0.41-0.11-0.82-0.25-1.23-0.4a5.83 5.83 0 0 1-1.48-0.79 2.15 2.15 0 0 1-0.81-1.17 2.53 2.53 0 0 1-0.11-0.56 2.12 2.12 0 0 1 0.72-1.68l0.21-0.23-0.32-0.63a3.4 3.4 0 0 0-1.19 1.55 4.25 4.25 0 0 0-0.15 0.78 0.17 0.17 0 0 1-0.13 0.16 l-1.36 0.39 a6 6 0 0 1-1.94 0.19 1.71 1.71 0 0 1-0.77-0.22 1.18 1.18 0 0 1-0.5-0.75A5.7 5.7 0 0 1 5 11.88c0.093-0.47 0.213 -0.934 0.36 -1.39A4.8 4.8 0 0 1 6 9.17 2.77 2.77 0 0 1 7.44 8c0.09 0 0.21 0 0.25-0.09 0.04 -0.09 0-0.17 0-0.26a2 2 0 0 1 0.6-1.24 3.8 3.8 0 0 1 1.16-0.79v-0.38a2.14 2.14 0 0 1 0.91-2.09 4.11 4.11 0 0 1 1.05-0.57l0.84-0.3A1.28 1.28 0 0 0 13 1.5a2.71 2.71 0 0 0 0.19-1c0-0.42 0.2 -0.57 0.6 -0.44 0.511 0.154 0.994 0.39 1.43 0.7 a3.53 3.53 0 0 1 1.2 1.4 0.79 0.79 0 0 0 0.47 0.43 2.77 2.77 0 0 1 1.59 1.69c0.149 0.421 0.23 0.863 0.24 1.31 0 0.09 0 0.14 0.11 0.17 0.49 0.163 0.906 0.496 1.17 0.94 0.22 0.355 0.373 0.749 0.45 1.16 0 0.19 0.06 0.2 0.26 0.16a1.57 1.57 0 0 1 0.87 0.08 3 3 0 0 1 1.6 1.56c0.247 0.475 0.435 0.979 0.56 1.5 0.1 0.422 0.173 0.85 0.22 1.28a7.22 7.22 0 0 1 0 1.1 2.74 2.74 0 0 1-0.3 1.22 1.2 1.2 0 0 1-0.83 0.59 4.25 4.25 0 0 1-1.31 0 6 6 0 0 1-0.92-0.17c-0.32-0.07-0.65-0.15-1-0.26-0.35-0.11-0.72-0.26-1.07-0.41a0.31 0.31 0 0 1-0.13-0.2c-0.1-0.4-0.16-0.81-0.27-1.21-0.11-0.4-0.25-0.66-0.38-1a0.11 0.11 0 0 0-0.07-0.07L17 12zm0.49-0.63c0.123 0.01 0.247 0.01 0.37 0a2.5 2.5 0 0 0 1.33-0.76 2.26 2.26 0 0 0 0.58-1.13 2.79 2.79 0 0 0 0-0.87 3.93 3.93 0 0 0-0.34-1.26 1.66 1.66 0 0 0-0.82-0.84h-0.18A6 6 0 0 1 18 7a0.25 0.25 0 0 0-0.11 0.28 2.81 2.81 0 0 1-0.09 1.12 1.89 1.89 0 0 1-0.8 1.11 2.8 2.8 0 0 1-1.56 0.51 16.32 16.32 0 0 1-1.7-0.05c-0.38 0-0.76-0.08-1.13-0.14-0.2 0-0.39-0.1-0.59-0.11a1.58 1.58 0 0 0-0.64 0c-0.35 0.13 -0.47 0.48 -0.57 0.81 -0.1 0.33 0 0.3 0.16 0.42a3.9 3.9 0 0 1 0.86 1.22A2.92 2.92 0 0 0 13 13.56a0.94 0.94 0 0 0 1.23-0.06 3.06 3.06 0 0 0 0.81-1.44c0.07-0.281 0.24 -0.527 0.48 -0.69a1.59 1.59 0 0 1 1.25-0.12l0.72 0.12 zm-0.27-4h-0.08a4.27 4.27 0 0 1-0.53 0.17 c-0.433 0.086 -0.87 0.15 -1.31 0.19 a12.46 12.46 0 0 1-2.71-0.13l-0.42-0.09c-0.24-0.05-0.47-0.12-0.71-0.15a2.21 2.21 0 0 0-1.65 0.47 A4.18 4.18 0 0 0 8.7 9.14v0.2a3.19 3.19 0 0 0 1.46 1c0.09-0.21 0.17 -0.41 0.28 -0.6A1.32 1.32 0 0 1 11.78 9c0.44 0 0.89 0.12 1.33 0.18 0.44 0.06 1 0.14 1.46 0.17 a4.12 4.12 0 0 0 1.75-0.24 1.41 1.41 0 0 0 0.87-1.69l0.03-0.05zm-2-5.69a0.23 0.23 0 0 0 0 0.09c0.148 0.312 0.217 0.655 0.2 1a4.13 4.13 0 0 1-0.1 0.85 3.79 3.79 0 0 1-0.56 1.11 1.1 1.1 0 0 0-0.08 1.06 2.59 2.59 0 0 0 1 1.1 0.25 0.25 0 0 0 0.18 0l0.72-0.15a2.55 2.55 0 0 0 1-0.44 0.63 0.63 0 0 0 0.34-0.48 3.56 3.56 0 0 0-0.21-1.43 2.08 2.08 0 0 0-1.57-1.35 0.41 0.41 0 0 1-0.29-0.32 4.54 4.54 0 0 0-0.27-0.66 3.3 3.3 0 0 0-0.35-0.33l-0.01-0.05zm-0.85 0.08 c-0.06 0.27 -0.09 0.51 -0.17 0.74 a3.16 3.16 0 0 1-0.93 1.38 5.9 5.9 0 0 0-0.91 0.81 1.79 1.79 0 0 0-0.37 0.78 c-0.047 0.364 0.07 0.73 0.32 1 0.19 0.21 0.36 0.46 0.68 0.48 l1.47 0.07 h0.1a0.43 0.43 0 0 0 0-0.07 2.36 2.36 0 0 1-0.64-1.36 1.94 1.94 0 0 1 0.18-1.08 5.65 5.65 0 0 0 0.56-1.17 2.07 2.07 0 0 0-0.28-1.53l-0.01-0.05zm-0.81 0.08 a2.25 2.25 0 0 1-0.63 0.8 c-0.37 0.227 -0.77 0.4 -1.19 0.51 a3.76 3.76 0 0 0-1.14 0.64 A1.4 1.4 0 0 0 10.1 5a3.9 3.9 0 0 0 0.15 0.65 0.43 0.43 0 0 1-0.21 0.44 3.63 3.63 0 0 0-1 0.56 1.53 1.53 0 0 0-0.64 1.51 3.34 3.34 0 0 1 3.14-1.5 3.24 3.24 0 0 1-0.17-0.39 2 2 0 0 1 0.18-1.64c0.225-0.39 0.528 -0.73 0.89 -1a3 3 0 0 0 1.06-1.27 0.61 0.61 0 0 0 0.07-0.47l-0.01-0.05zm8.88 10.62c-0.07 0-0.13 0.06 -0.14 0.17 a0.6 0.6 0 0 0 0.44 0.56 0.18 0.18 0 0 0 0.24-0.16 0.64 0.64 0 0 0-0.53-0.52l-0.01-0.05zm-2.48 1a0.7 0.7 0 0 0-0.38-0.45c-0.1 0-0.2-0.07-0.25 0a0.35 0.35 0 0 0 0 0.26 0.66 0.66 0 0 0 0.4 0.4 c0.11 0.15 0.27 0.06 0.27-0.15l-0.04-0.06zM16.38 15c-0.13 0-0.18 0.06 -0.18 0.18 a0.63 0.63 0 0 0 0.37 0.51 0.52 0.52 0 0 0 0.14 0 0.2 0.2 0 0 0 0.19-0.19 0.63 0.63 0 0 0-0.51-0.44l-0.01-0.06zm-3.87-0.26a0.64 0.64 0 0 0-0.39-0.51c-0.17 0-0.31 0-0.29 0.18 a0.6 0.6 0 0 0 0.48 0.53 c0.15 0.06 0.2 0.06 0.2-0.14v-0.06zm8.79-4.83a0.64 0.64 0 0 0-0.45-0.53 0.19 0.19 0 0 0-0.24 0.23 0.67 0.67 0 0 0 0.46 0.49 c0.15 0.03 0.23-0.04 0.23 -0.19zM7.53 12.25c0 0.16 0.05 0.22 0.22 0.2a0.69 0.69 0 0 0 0.49-0.51 0.18 0.18 0 0 0-0.2-0.2 0.62 0.62 0 0 0-0.51 0.51 zm13.77 0.07 a0.64 0.64 0 0 0-0.43-0.48 0.18 0.18 0 0 0-0.26 0.22 0.67 0.67 0 0 0 0.44 0.5 c0.14 0.05 0.25-0.04 0.25 -0.24zm-7.44 3.8a0.58 0.58 0 0 0-0.38-0.51 0.27 0.27 0 0 0-0.23 0 0.27 0.27 0 0 0-0.06 0.23 0.61 0.61 0 0 0 0.41 0.45 c0.14 0.07 0.25 0 0.25-0.16l0.01-0.01zm8.32-5.4A0.18 0.18 0 0 0 22 11a0.68 0.68 0 0 0 0.33 0.42 c0.17 0.1 0.35 0 0.36-0.13a0.59 0.59 0 0 0-0.52-0.56l0.01-0.01zm-7.07 5.58a0.54 0.54 0 0 0 0.32 0.48 0.33 0.33 0 0 0 0.27 0c0.11 0 0.09-0.18 0.06 -0.28a0.6 0.6 0 0 0-0.38-0.4c-0.18-0.05-0.27 0.02 -0.27 0.2 zm1-3c-0.15 0-0.18 0-0.2 0.18 a0.61 0.61 0 0 0 0.37 0.51 c0.18 0.06 0.32 0 0.32-0.16a0.6 0.6 0 0 0-0.52-0.55l0.03 0.02 zm-9.92-2.16c0 0.16 0.09 0.26 0.22 0.21a0.67 0.67 0 0 0 0.47-0.49 0.19 0.19 0 0 0-0.2-0.23c-0.19 0.02 -0.5 0.26 -0.49 0.51 zm2.67 2.36c0 0.13 0.08 0.23 0.19 0.21a0.66 0.66 0 0 0 0.5-0.51 0.19 0.19 0 0 0-0.19-0.2c-0.23 0-0.51 0.27 -0.5 0.5 zm6.32 1.41c0-0.25-0.28-0.5-0.47-0.53a0.2 0.2 0 0 0-0.21 0.25 0.64 0.64 0 0 0 0.33 0.42 c0.17 0.1 0.36 0.03 0.36-0.15l-0.01 0.01 zm-8.82-2.48a0.59 0.59 0 0 0-0.49 0.44 c0 0.19 0.06 0.31 0.24 0.26a0.69 0.69 0 0 0 0.44-0.5 0.17 0.17 0 0 0-0.19-0.2zM7 14c0 0.16 0 0.2 0.2 0.19a0.59 0.59 0 0 0 0.47-0.53 0.17 0.17 0 0 0-0.24-0.18A0.67 0.67 0 0 0 7 14zm15 0.06a0.61 0.61 0 0 0-0.51-0.5 0.19 0.19 0 0 0-0.19 0.23 0.7 0.7 0 0 0 0.33 0.42 0.43 0.43 0 0 0 0.29 0s-0.05-0.1-0.02-0.21l0.1 0.06 zm-11.79-1.88c0 0.17 0.07 0.25 0.24 0.2a0.6 0.6 0 0 0 0.39-0.32c0-0.09-0.12-0.36-0.22-0.37a0.64 0.64 0 0 0-0.41 0.49 zM7.88 9.35a0.54 0.54 0 0 0-0.33 0.37 0.29 0.29 0 0 0 0 0.23 0.18 0.18 0 0 0 0.27 0l0.21-0.14a0.13 0.13 0 0 0 0-0.21l-0.15-0.25zm10.58 3.11a0.52 0.52 0 0 0 0.12-0.06c0.08-0.07 0-0.23-0.07-0.4s-0.15-0.05-0.23 0h-0.2c-0.1 0-0.11 0.07 -0.08 0.14 a0.68 0.68 0 0 0 0.46 0.32 zM9 11.11c0.15 0 0.45-0.21 0.4 -0.27a1 1 0 0 0-0.36-0.23c-0.06 0-0.21 0.24 -0.21 0.37 s0.17 0.14 0.17 0.13 zM20 11l-0.07-0.09-0.2 0.24 s0.05 0.07 0.09 0.08 c0.04 0.01 0.18-0.07 0.18 -0.23z" fill="#FFF"/>
  <path d="M4 12l-0.51 0.41 c-0.485 0.4 -0.854 0.92 -1.07 1.51a2.07 2.07 0 0 0-0.07 1.12 2.11 2.11 0 0 0 0.79 1.35c0.265 0.192 0.575 0.312 0.9 0.35 a8 8 0 0 0 1.3 0.06 1.61 1.61 0 0 1 1.46 0.73 c0.265 0.357 0.56 0.691 0.88 1a2.63 2.63 0 0 0 1 0.57 7.13 7.13 0 0 0 2.75 0.3 5.89 5.89 0 0 0 1.1-0.23c0.41-0.11 0.8 -0.26 1.2-0.37a1.22 1.22 0 0 1 0.74 0.06 l1 0.36c0.31 0.1 0.62 0.21 0.94 0.29 0.25 0.072 0.503 0.125 0.76 0.16 0.434 0.06 0.872 0.094 1.31 0.1 a3.94 3.94 0 0 0 1.34-0.23c0.356-0.143 0.72 -0.266 1.09-0.37a3.1 3.1 0 0 1 1.48 0c0.46 0.095 0.854 0.393 1.07 0.81 0.11 0.17 0.11 0.39 0 0.56a2.16 2.16 0 0 1-0.92 0.89 2.68 2.68 0 0 1-0.53 0.16 l-0.76 0.18 -0.78 0.15 -1.54 0.23 -0.68 0.08 -1.25 0.04 c-1.36 0.1 -2.72 0.12 -4.08 0.09 -0.51 0-1 0-1.52-0.06s-1.08-0.08-1.61-0.13-1-0.11-1.47-0.18c-0.47-0.07-0.84-0.15-1.26-0.24-0.42-0.09-0.85-0.15-1.26-0.28a33.52 33.52 0 0 1-2-0.67 10.44 10.44 0 0 1-2.23-1.16A3.2 3.2 0 0 1 0.23 18.1a3.67 3.67 0 0 1-0.21-1v-1.39a2.38 2.38 0 0 1 0.5-1.45A5.58 5.58 0 0 1 2.4 12.7c0.46-0.26 0.94 -0.47 1.42-0.7A0.62 0.62 0 0 1 4 12z" fill="#FFF"/>
  <path d="M27.56 19.77a1.13 1.13 0 0 1 0 0.16 8.83 8.83 0 0 1 0 1 3.16 3.16 0 0 1-0.86 1.78 6.13 6.13 0 0 1-1.6 1.15c-0.53 0.28 -1.07 0.53 -1.62 0.75 a13 13 0 0 1-1.24 0.4 c-0.36 0.11 -0.72 0.21 -1.08 0.29 -0.36 0.08 -0.75 0.15 -1.13 0.22 l-1 0.17-0.51 0.06 c-0.52 0-1 0.1-1.55 0.13 -0.91 0.05 -1.82 0.11 -2.73 0.11 -0.91 0-1.75 0-2.62-0.07-0.5 0-1-0.06-1.5-0.12s-1.12-0.15-1.68-0.23c-0.3 0-0.59-0.08-0.89-0.14-0.3-0.06-0.66-0.15-1-0.23l-1-0.28a7.87 7.87 0 0 1-0.79-0.27c-0.52-0.22-1-0.42-1.54-0.68a6.57 6.57 0 0 1-2-1.39 3.46 3.46 0 0 1-0.72-1.3 4.57 4.57 0 0 1-0.18-1.55v-0.09l0.11 0.07 A7.61 7.61 0 0 0 2.37 21c0.51 0.25 1 0.48 1.57 0.69 0.35 0.14 0.72 0.24 1.08 0.34 0.36 0.1 0.72 0.21 1.08 0.3 0.36 0.09 0.72 0.15 1.07 0.22 l1.32 0.22 0.6 0.08 0.93 0.08 c0.86 0.06 1.71 0.15 2.57 0.16 1.42 0 2.85 0 4.27-0.05 0.54 0 1.09-0.07 1.63-0.13 0.54 -0.06 1.26-0.16 1.88-0.26 0.45 -0.07 0.89 -0.15 1.33-0.26 0.44 -0.11 1.13-0.26 1.68-0.44a13.22 13.22 0 0 0 2.73-1.16c0.47-0.28 0.91 -0.62 1.36-0.94l0.09-0.08z" fill="#FFF"/>
  <path d="M0.36 22.66c0.06 0 0.09 0 0.1 0.06 a5.39 5.39 0 0 0 1.64 1.47 12.33 12.33 0 0 0 1.78 0.92 c0.42 0.18 0.86 0.32 1.29 0.46 0.43 0.14 1 0.3 1.5 0.43 0.33 0.09 0.68 0.15 1 0.21 0.32 0.06 0.92 0.16 1.38 0.23 0.46 0.07 0.92 0.11 1.38 0.16 1.15 0.11 2.3 0.14 3.45 0.14 h2.18c0.73 0 1.17-0.07 1.75-0.12 0.58 -0.05 1.05-0.12 1.57-0.19s1-0.15 1.45-0.26c0.45-0.11 1.09-0.25 1.62-0.42 0.53 -0.17 1.16-0.36 1.73-0.6a10.87 10.87 0 0 0 1.93-1 7 7 0 0 0 1.39-1.21l0.07-0.08V24a3.39 3.39 0 0 1-0.48 1.56 4 4 0 0 1-1.32 1.27 8.83 8.83 0 0 1-1.51 0.83 c-0.4 0.16 -0.79 0.34 -1.19 0.49 -0.4 0.15 -0.76 0.24 -1.14 0.34 -0.38 0.1 -0.78 0.21 -1.17 0.3 -0.39 0.09 -0.58 0.11 -0.87 0.16 l-1.38 0.2 -1.14 0.12 c-0.96 0.09 -1.925 0.13 -2.89 0.12 h-2.51c-0.57 0-1.14-0.06-1.71-0.12-0.57-0.06-1-0.12-1.56-0.2-0.56-0.08-0.95-0.16-1.42-0.26s-1-0.22-1.52-0.38a15.6 15.6 0 0 1-2.23-0.85 10.11 10.11 0 0 1-1.83-1.22 3.4 3.4 0 0 1-1-1.4 4.23 4.23 0 0 1-0.3-1.64c-0.04-0.21-0.04-0.41-0.04-0.66zM24.09 20.92a1.31 1.31 0 0 1 0.07-0.21 1 1 0 0 0 0-1 2.21 2.21 0 0 0-1.27-1.2 3 3 0 0 0-1.49-0.17 6.62 6.62 0 0 0-1.51 0.39 4 4 0 0 1-0.82 0.22 4.87 4.87 0 0 1-1.72 0l-1-0.2v-0.05l0.36-0.07a2 2 0 0 0 1.32-0.7c0.197-0.26 0.34 -0.555 0.42 -0.87a4.58 4.58 0 0 0 0.13-1.37v-0.31l0.3 0.1 c0.29 0.1 0.57 0.2 0.86 0.28 0.29 0.08 0.63 0.16 1 0.24 0.124 0.034 0.252 0.058 0.38 0.07 0.479 0.045 0.96 0.065 1.44 0.06 a2.24 2.24 0 0 0 1.29-0.42 1.84 1.84 0 0 0 0.56-0.75l0.11-0.26c0.15 0.21 0.28 0.38 0.4 0.56 0.217 0.376 0.382 0.78 0.49 1.2 0.065 0.208 0.109 0.423 0.13 0.64 0.042 0.431 0.193 0.844 0.44 1.2 0.21 0.32 0.43 0.62 0.66 0.92 0.08 0.1 0 0.16 0 0.23a3.38 3.38 0 0 1-0.83 0.67 10.93 10.93 0 0 1-1.72 0.8 zM13.14 18.16a2.27 2.27 0 0 1-0.26 0.13 l-0.69 0.22 a4.85 4.85 0 0 1-1.85 0.15 c-0.28 0-0.57-0.05-0.85-0.1a3 3 0 0 1-1.86-1 5.14 5.14 0 0 0-0.92-1 1.77 1.77 0 0 0-0.95-0.35c-0.52 0-1 0-1.56-0.07a1.13 1.13 0 0 1-1.11-0.84 1.61 1.61 0 0 1 0.11-1.34c0.222-0.381 0.51 -0.72 0.85 -1l0.1-0.05V13c0.006 0.391 0.033 0.782 0.08 1.17A2.17 2.17 0 0 0 5 15.61c0.242 0.172 0.518 0.292 0.81 0.35 a5.18 5.18 0 0 0 1.65 0 8.85 8.85 0 0 0 1.2-0.23c0.35-0.09 0.7 -0.21 1-0.31a0.14 0.14 0 0 1 0.13 0.06 2.8 2.8 0 0 0 1 1.5 6.32 6.32 0 0 0 1.06 0.64 c0.46 0.22 0.86 0.38 1.29 0.54 zM24.95 12.43l0.4 0.2 A7.26 7.26 0 0 1 27 13.79a3 3 0 0 1 0.91 1.55 0.87 0.87 0 0 1 0 0.19v1.93a2.69 2.69 0 0 1-0.6 1.54 5.2 5.2 0 0 1-0.39-0.47c-0.22-0.33-0.42-0.68-0.62-1a0.92 0.92 0 0 1-0.09-0.34 6 6 0 0 0-0.59-2 2.83 2.83 0 0 0-0.7-1 0.17 0.17 0 0 1 0-0.2 3.38 3.38 0 0 0 0.03-1.56zM42.58 24c0-0.12 0-0.23-0.05-0.34-0.07-0.34-0.14-0.68-0.21-1a4.69 4.69 0 0 0-0.55-1.37 2.81 2.81 0 0 0-0.56-0.69c-0.16-0.14-0.28-0.31-0.43-0.46a7.29 7.29 0 0 0-1.92-1.46 4.7 4.7 0 0 0-3.42-0.41 4.31 4.31 0 0 0-1.07 0.45 c-0.17 0.1 -0.17 0.1 -0.26-0.08a7.06 7.06 0 0 1-0.33-0.76 2.92 2.92 0 0 1-0.21-1.25 1.67 1.67 0 0 1 0.13-0.5 0.63 0.63 0 0 1 0.3-0.23c0.38-0.23 0.75 -0.47 1.14-0.67a8.37 8.37 0 0 1 1-0.43c0.32-0.12 0.66 -0.21 1-0.31 0.34 -0.1 0.42 -0.12 0.63 -0.16 0.21 -0.04 0.68 -0.14 1-0.19 0.32 -0.05 0.71 -0.09 1.07-0.11a3.07 3.07 0 0 1 1.27 0.17 0.69 0.69 0 0 1 0.4 0.32 c0.18 0.34 0.39 0.67 0.56 1 0.17 0.33 0.29 0.66 0.42 1 0.13 0.34 0.19 0.49 0.27 0.75 0.08 0.26 0.13 0.5 0.19 0.75 s0.11 0.56 0.15 0.84 c0.04 0.28 0.08 0.75 0.11 1.13 0 0.56 0.05 1.11 0.06 1.67a4.54 4.54 0 0 1-0.54 2.3l-0.15 0.04 zM33.89 27.43a0.61 0.61 0 0 0 0.29-0.28 1.31 1.31 0 0 0 0.15-1.15 3.35 3.35 0 0 0-0.78-1.31 0.23 0.23 0 0 1-0.07-0.21A5.43 5.43 0 0 1 34 23a1.24 1.24 0 0 1 0.53-0.53 5.26 5.26 0 0 1 0.57-0.29 2.21 2.21 0 0 1 1.87 0c0.298 0.162 0.568 0.372 0.8 0.62 0.21 0.21 0.4 0.44 0.6 0.66 0.068 0.077 0.129 0.16 0.18 0.25 0.22 0.38 0.46 0.75 0.64 1.15a3.79 3.79 0 0 1 0.37 1.83 3 3 0 0 1-0.69 1.75 4.27 4.27 0 0 1-0.72 0.68 0.74 0.74 0 0 1-0.32 0.11 c-0.24 0-0.48 0.08 -0.73 0.1 a6.29 6.29 0 0 1-1.46-0.05 6.08 6.08 0 0 1-2-0.65 6.67 6.67 0 0 1-1.45-1 1.17 1.17 0 0 1-0.37-0.51 1.64 1.64 0 0 1 0-1.19 0.94 0.94 0 0 1 0.65-0.52 3.13 3.13 0 0 1 0.65-0.08 0.4 0.4 0 0 1 0.23 0.09 c0.276 0.198 0.483 0.478 0.59 0.8 0.097 0.286 0.118 0.593 0.06 0.89 -0.06 0.06 -0.08 0.18 -0.11 0.32 z" fill="#FFF"/>
  <path d="M34.09 22.11a3.72 3.72 0 0 1 0.07-1.72c0.1-0.37 0.25 -0.72 0.37 -1.08a0.42 0.42 0 0 1 0.33-0.27 5.67 5.67 0 0 1 0.77-0.18 5.33 5.33 0 0 1 0.85 0 5 5 0 0 1 2 0.54c0.438 0.21 0.848 0.476 1.22 0.79 a7 7 0 0 1 0.72 0.66 c0.266 0.319 0.513 0.653 0.74 1 0.153 0.218 0.287 0.449 0.4 0.69 0.185 0.336 0.332 0.692 0.44 1.06a4.12 4.12 0 0 1-0.28 2.61 5.4 5.4 0 0 1-0.83 1.25 4.62 4.62 0 0 1-0.38 0.38 c-0.13 0.13 -0.27 0.25 -0.41 0.37 -0.14 0.12 -0.35 0.26 -0.53 0.38 h-0.11a0.16 0.16 0 0 1 0-0.13c0.05-0.1 0.12 -0.18 0.18 -0.28a3.24 3.24 0 0 0 0.36-2.07 5 5 0 0 0-0.22-1A6.38 6.38 0 0 0 39 23.6a8.48 8.48 0 0 0-0.81-1 3.09 3.09 0 0 0-1.93-1.07 3 3 0 0 0-0.9 0 4 4 0 0 0-1.21 0.52 l-0.06 0.06 zM33.47 15.67a2.72 2.72 0 0 1-0.18-0.21 11.62 11.62 0 0 1-0.92-1.67c-0.06-0.13-0.08-0.28-0.13-0.42-0.05-0.14 0-0.11 0.07 -0.14 0.28 -0.14 0.57 -0.27 0.84 -0.43 0.27 -0.16 0.7 -0.46 1-0.7 0.164 -0.11 0.32 -0.23 0.47 -0.36 0.21 -0.18 0.4 -0.37 0.59 -0.57 0.174 -0.17 0.337 -0.35 0.49 -0.54 0.24 -0.3 0.46 -0.62 0.68 -0.93a0.12 0.12 0 0 1 0.15-0.06 4.77 4.77 0 0 1 1.66 0.78 c0.278 0.205 0.527 0.447 0.74 0.72 0.202 0.276 0.383 0.567 0.54 0.87 0.109 0.212 0.2 0.433 0.27 0.66 0.06 0.204 0.11 0.41 0.15 0.62 0 0.08 0 0.1-0.11 0.11 h-0.42l-1.08 0.15 -0.59 0.11 c-0.23 0.05 -0.47 0.11 -0.69 0.17 -0.22 0.06 -0.7 0.22 -1 0.34a5.38 5.38 0 0 0-0.7 0.3 c-0.39 0.2 -0.77 0.42 -1.14 0.65 a7.05 7.05 0 0 0-0.63 0.5 l-0.06 0.05 zM32.33 12.57l-0.43 0.22 h-0.14c-0.23-0.28-0.46-0.56-0.71-0.83-0.25-0.27-0.56-0.6-0.84-0.9-0.28-0.3-0.45-0.48-0.66-0.74a3.2 3.2 0 0 1-0.61-1 0.8 0.8 0 0 1 0.31-0.94 1 1 0 0 1 1.22 0 0.43 0.43 0 0 1 0.11 0.09 c0.07 0.1 0.13 0.06 0.21 0A3 3 0 0 1 32 8.12a5 5 0 0 1 1.73 0.18 c0.44 0.124 0.865 0.291 1.27 0.5 l0.71 0.38 a0.11 0.11 0 0 1 0.06 0.15 2.82 2.82 0 0 1-0.53 0.94 7.75 7.75 0 0 1-0.57 0.62 c-0.18 0.17 -0.37 0.32 -0.56 0.48 l-0.6 0.47 -0.38 0.25 -0.8 0.48 z" fill="#FFF"/>
</svg>
