<?xml version="1.0" ?>
<svg xmlns="http://www.w3.org/2000/svg" width="40" height="37" viewBox="0 0 40 37">
  <path d="M24.25 9.55h0.15c0.28 0 0.38 0.08 0.37 0.38 a4.08 4.08 0 0 1-0.08 0.85 c-0.07 0.38 -0.17 0.76 -0.28 1.14a2.33 2.33 0 0 1-1 1.42 0.66 0.66 0 0 0-0.31 0.49 c-0.14 0.69 -0.28 1.38-0.45 2.07a7 7 0 0 1-1 2.27c-0.16 0.24 -0.37 0.45 -0.54 0.69 a0.64 0.64 0 0 0-0.13 0.29 2 2 0 0 0 0.19 1.14 0.29 0.29 0 0 1-0.08 0.22 l-2.17 2.17c-0.25 0.25 -0.25 0.25 0 0.5s0.61 0.62 0.92 0.92 a0.21 0.21 0 0 1 0 0.31 8 8 0 0 0-0.84 2.27 8.33 8.33 0 0 0-0.23 2.63 8.52 8.52 0 0 0 1.89 4.77 8.86 8.86 0 0 0 1.57 1.49l0.14 0.12 a1 1 0 0 1-0.23 0.09 c-0.51 0.06 -1 0.13-1.54 0.16 -1.12 0.07 -2.24 0.15 -3.36 0.17 -1.12 0.02 -2 0-3-0.07-0.44 0-0.87 0-1.31-0.1-0.44-0.1-1.07-0.13-1.61-0.2-0.37-0.05-0.74-0.1-1.1-0.17-0.36-0.07-0.69-0.12-1-0.19L8 35.13c-0.43-0.11-0.87-0.21-1.3-0.33-0.59-0.18-1.18-0.36-1.76-0.57-0.84-0.32-1.68-0.64-2.5-1-0.59-0.27-1.14-0.63-1.72-0.94a1.16 1.16 0 0 1-0.6-1 13.42 13.42 0 0 1-0.05-3.19 3.93 3.93 0 0 1 0.46-1.71 7.22 7.22 0 0 1 2.61-2.51 11.15 11.15 0 0 1 2.34-1c0.83-0.24 1.67-0.45 2.51-0.68 0.84 -0.23 1.76-0.48 2.63-0.75a3 3 0 0 0 1.32-0.75 1.75 1.75 0 0 0 0.48-1.14v-0.26a0.73 0.73 0 0 0-0.19-0.58A9 9 0 0 1 11 16.51c-0.22-0.52-0.41-1.05-0.58-1.59-0.17-0.54-0.21-0.83-0.31-1.24a0.32 0.32 0 0 0-0.08-0.14 3.84 3.84 0 0 1-1.35-1.71 4.45 4.45 0 0 1-0.36-1.52 1.09 1.09 0 0 1 0.06-0.47c0.07-0.21 0.26 -0.25 0.45 -0.26 0.19 -0.01 0.24 0 0.2-0.26-0.04-0.26-0.03-0.26-0.03-0.38 0-0.32-0.09-0.64-0.12-1a8.63 8.63 0 0 1-0.06-2c0-0.27 0.06 -0.54 0.1 -0.8a6 6 0 0 1 1.2-2.82A5.77 5.77 0 0 1 12.85 0.49 9.39 9.39 0 0 1 15.67 0c0.416 0 0.831 0.04 1.24 0.12 0.44 0.07 0.88 0.18 1.32 0.29 a8.87 8.87 0 0 1 1.91 0.86 c0.192 0.095 0.398 0.159 0.61 0.19 a4.27 4.27 0 0 1 2.18 1.31 5.18 5.18 0 0 1 1.25 2.41 8.83 8.83 0 0 1 0.16 2.23V8.5c0 0.36-0.06 0.69 -0.09 1.05zM36.86 27.78a1.25 1.25 0 0 1 1.11 0.7 c0.31 0.58 0.59 1.18 0.88 1.77 0.127 0.253 0.247 0.503 0.36 0.75a0.47 0.47 0 0 1-0.23 0.58 0.5 0.5 0 0 1-0.66-0.2c-0.31-0.61-0.62-1.22-0.94-1.83a1.09 1.09 0 0 0-0.08-0.15l0.7 3.82h-0.72c-0.09 0-0.11 0-0.11 0.12 v1.87a0.52 0.52 0 0 1-0.67 0.54 0.55 0.55 0 0 1-0.39-0.52v-2h-0.24v1.97a0.54 0.54 0 0 1-0.68 0.56 0.57 0.57 0 0 1-0.38-0.51v-2H34c0.26-1.28 0.52 -2.54 0.78 -3.8h-0.05l-0.37 0.71 -0.66 1.28a0.52 0.52 0 0 1-0.67 0.16 0.51 0.51 0 0 1-0.2-0.62l1-2.13c0.146-0.37 0.41 -0.683 0.75 -0.89a1.56 1.56 0 0 1 0.55-0.15c0.62-0.05 1.18-0.04 1.73-0.03zM36 27.58a1.18 1.18 0 1 1 0-2.36 1.18 1.18 0 0 1 0 2.36zM30.92 20.82a1.68 1.68 0 0 1 1.72 1.67A1.66 1.66 0 0 1 31 24.16a1.65 1.65 0 0 1-1.67-1.67 1.67 1.67 0 0 1 1.59-1.67zM29.18 31.88c-0.05-0.24-0.11-0.48-0.16-0.72s-0.09-0.45-0.13-0.67c-0.04-0.22-0.11-0.47-0.16-0.71l-0.15-0.71-0.15-0.76a0.3 0.3 0 0 1 0-0.18l0.62-1.21c0.06-0.11 0.13 -0.22 0.2 -0.33v5.56h-0.09c0.04-0.09 0.04 -0.15 0.02 -0.27zM28.09 22.49a1.66 1.66 0 1 1-1.67-1.67 1.68 1.68 0 0 1 1.67 1.67z" fill="#FFF"/>
  <path d="M22.6 26.27a1.18 1.18 0 1 1-2.36 0 1.18 1.18 0 0 1 2.36 0z" fill="#FFF"/>
  <path d="M34.32 26.65c0.15 0.3 0.29 0.61 0.44 0.91 v0.13a1.46 1.46 0 0 0-0.84 0.78 l-0.14 0.22 c-0.35-0.7-0.7-1.38-1-2.05v8.3a0.76 0.76 0 0 1-0.47 0.79 0.73 0.73 0 0 1-1-0.41 0.76 0.76 0 0 1-0.06-0.34v-4.14a0.18 0.18 0 0 0-0.29-0.17 0.23 0.23 0 0 0-0.05 0.15 v4.17a0.73 0.73 0 0 1-0.52 0.75 0.71 0.71 0 0 1-0.9-0.4 1 1 0 0 1-0.07-0.38v-8.35c-0.07 0.11 -0.14 0.22 -0.2 0.33 l-0.62 1.21a0.3 0.3 0 0 0 0 0.18l0.15 0.76 0.15 0.71 c0.05 0.24 0.11 0.47 0.16 0.71 s0.08 0.44 0.13 0.67 c0.05 0.23 0.11 0.48 0.16 0.72 v0.29h-1c-0.13 0-0.17 0-0.16 0.16 V35a0.75 0.75 0 0 1-1.42 0.36 0.88 0.88 0 0 1-0.06-0.36v-2.61c0-0.21 0-0.21-0.21-0.21h-0.12V35a0.74 0.74 0 0 1-1 0.73 0.69 0.69 0 0 1-0.54-0.77v-1.71-0.92c0-0.13-0.05-0.17-0.17-0.16h-1v-0.24c0-0.08 0.05 -0.27 0.09 -0.41 0.04 -0.14-0.07-0.4-0.16-0.59-0.31-0.58-0.61-1.16-0.94-1.74a1.09 1.09 0 0 0 0 0.18v5.83a0.53 0.53 0 0 1-0.3 0.51 0.52 0.52 0 0 1-0.76-0.44v-3.21h-0.24v3.16a0.57 0.57 0 0 1-0.58 0.57 0.51 0.51 0 0 1-0.48-0.49v-6-0.13l-0.24 0.44 c-0.28 0.53 -0.55 1.08-0.83 1.61a0.46 0.46 0 0 1-0.51 0.27 0.47 0.47 0 0 1-0.42-0.47 1.12 1.12 0 0 1 0.12-0.38c0.22-0.47 0.45 -0.94 0.68 -1.4a5.71 5.71 0 0 1 0.66-1.15 1.23 1.23 0 0 1 1-0.46h1.51a1.36 1.36 0 0 1 1.28 0.82 c0.22 0.4 0.42 0.82 0.63 1.23a25.44 25.44 0 0 0 0.64-3.06l-0.49 1c-0.17 0.31 -0.33 0.62 -0.5 1-0.08-0.13-0.14-0.24-0.22-0.36a1.54 1.54 0 0 0-0.59-0.57h-0.05c-0.22-0.09-0.22-0.09-0.12-0.29 0.2 -0.4 0.39 -0.8 0.6 -1.2a4.74 4.74 0 0 1 0.63-1 1.46 1.46 0 0 1 1.12-0.6h2.71c0.26 0.012 0.513 0.095 0.73 0.24 a3.14 3.14 0 0 0-0.57 0.81 0.51 0.51 0 0 0 0 0.4l0.2-0.34a2.26 2.26 0 0 1 0.95-1 1.33 1.33 0 0 1 0.54-0.15h2.72a1.43 1.43 0 0 1 1.2 0.76 c0.15 0.37 0.39 0.86 0.64 1.33z" fill="#FFF"/>
  <path d="M20.25 26.27a1.18 1.18 0 1 0 2.35-0.217 1.18 1.18 0 0 0-2.35 0.217 zm9.06-3.78A1.65 1.65 0 0 0 31 24.16a1.66 1.66 0 0 0 1.66-1.67 1.67 1.67 0 1 0-3.33 0h-0.02zm-1.22 0a1.66 1.66 0 1 0-3.32 0 1.66 1.66 0 0 0 3.32 0zm0 9.84c0-0.13 0-0.17 0.16 -0.16h1.06V35a1 1 0 0 0 0.07 0.38 0.71 0.71 0 0 0 0.9 0.4 0.73 0.73 0 0 0 0.52-0.78v-4.17a0.23 0.23 0 0 1 0.05-0.15 0.18 0.18 0 0 1 0.29 0.17 V35a0.76 0.76 0 0 0 0.06 0.34 0.73 0.73 0 0 0 1 0.41 0.76 0.76 0 0 0 0.47-0.79V26.8v-0.17c0.34 0.67 0.69 1.35 1 2.05l0.14-0.22a1.46 1.46 0 0 1 0.84-0.78c0.07 0 0.07-0.07 0-0.13-0.15-0.3-0.29-0.61-0.44-0.91-0.25-0.47-0.49-1-0.77-1.41a1.43 1.43 0 0 0-1.2-0.76h-2.72a1.33 1.33 0 0 0-0.54 0.15 2.26 2.26 0 0 0-0.95 1l-0.2 0.34 a0.51 0.51 0 0 1 0-0.4 3.14 3.14 0 0 1 0.57-0.81 1.44 1.44 0 0 0-0.73-0.24h-2.71a1.46 1.46 0 0 0-1.12 0.6 4.74 4.74 0 0 0-0.63 1c-0.21 0.4 -0.4 0.8 -0.6 1.2-0.1 0.2 -0.1 0.2 0.12 0.29 h0.05c0.245 0.133 0.448 0.33 0.59 0.57 0.08 0.12 0.14 0.23 0.22 0.36 0.17-0.34 0.33 -0.65 0.5 -1l0.49-1a25.44 25.44 0 0 1-0.64 3.06c-0.21-0.41-0.41-0.83-0.63-1.23a1.36 1.36 0 0 0-1.28-0.82h-1.4a1.23 1.23 0 0 0-1 0.46c-0.26 0.39 -0.472 0.81 -0.63 1.25-0.23 0.46 -0.46 0.93 -0.68 1.4a1.12 1.12 0 0 0-0.12 0.38 0.47 0.47 0 0 0 0.42 0.47 0.46 0.46 0 0 0 0.51-0.27c0.28-0.53 0.55 -1.08 0.83 -1.61l0.24-0.44v6.13a0.51 0.51 0 0 0 0.48 0.49 0.57 0.57 0 0 0 0.58-0.57v-3.16h0.24v3.21a0.52 0.52 0 0 0 0.76 0.44 0.53 0.53 0 0 0 0.3-0.51v-5.83a1.09 1.09 0 0 1 0-0.18c0.33 0.58 0.63 1.16 0.94 1.74 0.09 0.19 0.22 0.36 0.16 0.59-0.06 0.23 -0.06 0.28 -0.09 0.41 -0.03 0.13 0 0.15 0 0.24h1c0.12 0 0.17 0 0.17 0.16 V35a0.69 0.69 0 0 0 0.54 0.77 0.74 0.74 0 0 0 1-0.73v-2.71-0.15h0.12c0.26 0 0.21 0 0.21 0.21 V35a0.88 0.88 0 0 0 0.06 0.36 0.75 0.75 0 0 0 1.42-0.36v-2.67zM36 27.58a1.18 1.18 0 1 0 0-2.36 1.18 1.18 0 0 0 0 2.36zm-1.22 1.85c-0.26 1.26-0.52 2.52-0.78 3.8h0.82v2a0.57 0.57 0 0 0 0.38 0.51 0.54 0.54 0 0 0 0.68-0.56v-1.97h0.24v2c0.003 0.24 0.16 0.45 0.39 0.52 a0.52 0.52 0 0 0 0.67-0.54v-1.87c0-0.09 0-0.12 0.11 -0.12H38l-0.79-3.81a158.609 158.609 0 0 1 1.02 1.98 0.5 0.5 0 0 0 0.66 0.2 0.47 0.47 0 0 0 0.23-0.58 10.906 10.906 0 0 0-0.36-0.75c-0.29-0.59-0.57-1.19-0.88-1.77a1.25 1.25 0 0 0-1.11-0.7h-1.66a1.56 1.56 0 0 0-0.55 0.15 1.82 1.82 0 0 0-0.75 0.89 l-1 2.13a0.51 0.51 0 0 0 0.2 0.62 0.52 0.52 0 0 0 0.67-0.16l0.66-1.28 0.37 -0.71 0.07 0.02z" fill="#FFF"/>
</svg>
