<?xml version="1.0" ?>
<svg xmlns="http://www.w3.org/2000/svg" width="37" height="36" viewBox="0 0 37 36">
  <path d="M11 19.86l2-2.1 4-4.36c0.1-0.12 0.19 -0.2 0.35 -0.07 0.16 0.13 0.15 0 0.23 0 2.07 0 4.13 0 6.19 0.09 0.85 0 1.7 0.07 2.55 0.16 0.59 0.06 1.17 0.2 1.77 0.28 a11 11 0 0 0 1.14 0.1 0.28 0.28 0 0 0 0.21-0.08c0.85-0.85 1.7-1.7 2.54-2.56a0.7 0.7 0 0 1 0.71-0.18 0.77 0.77 0 0 1 0.52 0.49 0.74 0.74 0 0 1-0.15 0.76 c-0.58 0.84 -1.12 1.7-1.71 2.52a1 1 0 0 0-0.11 1 18 18 0 0 1 0.52 1.91c0.15 0.66 0.28 1.32 0.38 2 0.1 0.68 0.13 1.14 0.18 1.71 0.05 0.57 0 0.91 0.1 1.37 0.07 0.401 0.24 0.779 0.49 1.1 0.71 1.12 1.41 2.24 2.11 3.36 0.185 0.358 0.3 0.749 0.34 1.15 0.08 0.41 0.15 0.81 0.22 1.21 0.07 0.4 0.12 0.7 0.19 1.05 0.07 0.35 0.14 0.79 0.22 1.19l0.18 1c0 0.3 0.12 0.59 0.15 0.89a1.64 1.64 0 0 1-0.93 1.66 2 2 0 0 1-2.52-1.05 8.5 8.5 0 0 1-0.34-1.15l-0.36-1.46c-0.12-0.5-0.24-1-0.37-1.49-0.11-0.372-0.2-0.749-0.27-1.13a2.94 2.94 0 0 0-0.78-1.33c-0.52-0.68-1.05-1.34-1.56-2a1.88 1.88 0 0 0-1.94-0.74c-0.4 0.06 -0.8 0.1 -1.2 0.13 l-1.39 0.1 -2.3 0.22 -1 0.1a1.23 1.23 0 0 0-1 0.93c0 0.19-0.06 0.37 -0.07 0.56 -0.06 1.35-0.11 2.7-0.17 4.05 0 0.53-0.06 1-0.08 1.58-0.02 0.58 0 1-0.08 1.45a1.55 1.55 0 0 1-1.19 1.34 2 2 0 0 1-2.34-1.41 2.16 2.16 0 0 1-0.09-0.62v-3.45c0-1.52-0.05-3.05-0.07-4.58 0-0.23-0.14-0.23-0.29-0.24a3.43 3.43 0 0 1-1.61-0.51c-0.22-0.13-0.41-0.31-0.63-0.42a1 1 0 0 0-1.4 0.8 1.09 1.09 0 0 0 0.54 1 5.46 5.46 0 0 0 2.11 1 0.2 0.2 0 0 1 0.11 0.16 c-0.15 0.64 -0.31 1.28-0.45 1.92-0.14 0.64 -0.23 1.08-0.35 1.61-0.12 0.53 -0.26 1.07-0.38 1.61-0.07 0.3 -0.11 0.6 -0.18 0.9 a1.82 1.82 0 0 1-1.31 1.26 1.73 1.73 0 0 1-1.9-0.65 1.66 1.66 0 0 1-0.34-1.49c0.05-0.23 0.07 -0.47 0.1 -0.7 0.06 -0.54 0.11 -1.07 0.18 -1.61 0.07 -0.54 0.14 -1 0.21-1.52 0-0.24 0.07 -0.48 0.1 -0.72 0.06 -0.53 0.11 -1.07 0.18 -1.6 0.09 -0.72 0.21 -1.44 0.29 -2.16 0.058 -0.488 0.092 -0.979 0.1 -1.47v-2a0.73 0.73 0 0 0-0.21-0.6 0.78 0.78 0 0 1-0.14-0.27zM10 7.65l0.19-0.18 1.6-1.65a0.64 0.64 0 0 1 1.06 0.18 0.46 0.46 0 0 1 0 0.2c0 0.26-0.06 0.52 -0.1 0.78 -0.07 0.41 -0.15 0.83 -0.22 1.25-0.07 0.42 -0.14 0.75 -0.22 1.12a0.32 0.32 0 0 0 0.13 0.38 l1.36 1 0.2 0.17 -1.21 1.3c-1.36 1.45-2.71 2.91-4.06 4.36-0.18 0.19 -0.18 0.19 -0.34 0a2.27 2.27 0 0 1-0.18-0.25 0.36 0.36 0 0 0-0.46-0.16L6 16.57 4.23 17c-0.46 0.11 -0.93 0.24 -1.39 0.38 -0.47 0.17 -0.995 0.04 -1.33-0.33-0.37-0.39-0.76-0.77-1.14-1.15A1.14 1.14 0 0 1 0 15c0.04-0.283 0.17 -0.546 0.37 -0.75A53.94 53.94 0 0 1 4.5 10a8.8 8.8 0 0 1 2.37-1.72 0.9 0.9 0 0 0 0.33-0.34c0.48-0.78 1-1.57 1.42-2.36a0.64 0.64 0 0 1 1.14 0 1.5 1.5 0 0 1 0.11 0.42 c0 0.46 0.05 0.92 0.07 1.38 0.014 0.091 0.034 0.181 0.06 0.27z" fill="#FFF"/>
  <path d="M28.28 34.68a1.86 1.86 0 0 1-1.84-1.34c-0.1-0.41-0.16-0.82-0.24-1.24L26 31c-0.06-0.35-0.12-0.69-0.19-1-0.07-0.31-0.13-0.87-0.25-1.28a2.78 2.78 0 0 0-0.37-0.59l-0.38-0.57c-0.1-0.15-0.07-0.21 0.11 -0.23l1-0.09c0.52 0 1.05-0.08 1.57-0.1a0.33 0.33 0 0 1 0.25 0.1 c0.6 0.76 1.2 1.52 1.78 2.28 0.072 0.12 0.12 0.252 0.14 0.39 0.054 0.214 0.095 0.43 0.12 0.65 0.08 0.7 0.16 1.39 0.23 2.09 0.08 0.8-0.37 1.558-1.11 1.87a6.11 6.11 0 0 1-0.62 0.16 zM27.62 0l-0.26 0.3 -3.5 3.75-3.09 3.32c-0.79 0.84 -1.57 1.69-2.36 2.54-0.48 0.52 -1 1-1.46 1.57-0.11 0.13 -0.18 0.16 -0.32 0a6.64 6.64 0 0 0-0.55-0.51c-0.12-0.1-0.13-0.17 0-0.29l1.45-1.56 3.17-3.39L23.3 3c0.87-1 1.7-1.9 2.59-2.84a0.49 0.49 0 0 1 0.37-0.16h1.36zM10.42 18.92a0.94 0.94 0 0 0-0.12-0.09l-1.08-1c-0.12-0.11-0.06-0.18 0-0.27l1.81-1.94 3.16-3.39c0.21-0.23 0.41 -0.45 0.63 -0.66a0.19 0.19 0 0 1 0.18 0l1.12 1c0.11 0.1 0.06 0.17 0 0.25l-1.22 1.3-3.78 4c-0.2 0.21 -0.39 0.43 -0.58 0.65 a0.73 0.73 0 0 1-0.12 0.15 z" fill="#FFF"/>
</svg>
