<?xml version="1.0" ?>
<svg xmlns="http://www.w3.org/2000/svg" width="37" height="37" viewBox="0 0 37 37">
  <path d="M28.2 23.71c0.215 0.076 0.436 0.136 0.66 0.18 a2 2 0 0 0 1.41-0.39l1.41-1a1 1 0 0 1 1.22 0c0.44 0.26 0.87 0.54 1.32 0.78 a3.21 3.21 0 0 0 1.57 0.39 c0.16 0 0.31 0 0.5-0.07v8.91a1.66 1.66 0 0 1-1.09 1.62 6.61 6.61 0 0 1-1 0.24l-1.15 0.26 -0.85 0.17 -1 0.19-0.92 0.16 -1.24 0.2 -1.04 0.16 -1.47 0.19 -0.75 0.08 c-0.35 0-0.71 0.06 -1.06 0.09 l-2.45 0.19 h-0.07c-2.16 0.1 -4.33 0.1 -6.5 0.06 -0.89 0-1.78-0.08-2.66-0.14-0.58 0-1.14-0.08-1.71-0.14l-2-0.21c-0.53-0.06-1.07-0.13-1.6-0.21l-1.55-0.26-1-0.16-1.28-0.26c-0.39-0.08-0.78-0.15-1.17-0.24-0.39-0.09-0.72-0.17-1.08-0.25a2.11 2.11 0 0 1-0.93-0.38A1.52 1.52 0 0 1 0.07 33a3.36 3.36 0 0 1-0.07-0.66V23.88c0.3 0 0.6 0.09 0.89 0.1 a2.09 2.09 0 0 0 1.37-0.55c0.37-0.29 0.7 -0.61 1-0.91a0.6 0.6 0 0 1 0.93 0c0.33 0.29 0.64 0.59 1 0.88 0.36 0.354 0.836 0.567 1.34 0.6 a2 2 0 0 0 1.26-0.36c0.36-0.24 0.68 -0.52 1-0.79a1.9 1.9 0 0 1 0.93-0.55 0.91 0.91 0 0 1 0.44 0.12 v0.21c-0.19 0.52 -0.42 1-0.58 1.55a5.56 5.56 0 0 0-0.24 1.28 6 6 0 0 0 0.08 1.46 4.59 4.59 0 0 0 2.28 3.36 3.38 3.38 0 0 0 1.8 0.46 3.83 3.83 0 0 0 2.84-1.38 5 5 0 0 0 1-1.91 5.65 5.65 0 0 0 0.21-2c-0.05-0.45-0.17-0.9-0.25-1.35v-0.16h0.11a2.81 2.81 0 0 0 2.12-0.77c0.36-0.28 0.73 -0.56 1.11-0.82a0.78 0.78 0 0 1 0.67 0c0.13 0 0.12 0.14 0.09 0.24 a3.84 3.84 0 0 0-0.18 1.34A4.24 4.24 0 0 0 22.54 27a3.21 3.21 0 0 0 4.77-0.54 4.16 4.16 0 0 0 0.75-1.59c0.06-0.33 0.1 -0.665 0.12 -1 0.01-0.04 0.01 -0.1 0.02 -0.16zm-5.37 8.07a1.27 1.27 0 0 0-1.29-1.29 1.29 1.29 0 1 0 0 2.57 1.28 1.28 0 0 0 1.29-1.28zm10.49-1.12a1.14 1.14 0 0 0-1.13-1.17A1.15 1.15 0 0 0 31 30.63a1.17 1.17 0 0 0 1.969 0.844 1.14 1.14 0 0 0 0.351-0.814zm-30.2 0.13 a1.16 1.16 0 0 0 1.15-1.15 1.17 1.17 0 0 0-1.15-1.14A1.17 1.17 0 0 0 2 29.66a1.16 1.16 0 0 0 1.12 1.13zm4.53 1a1 1 0 1 0 0-0.03v0.03zm24.67-4.82a1 1 0 1 0 2 0 1 1 0 0 0-2 0zm-5.53 1.72a1 1 0 1 0 0-0.03v0.03zM7.8 27a1 1 0 1 0-2 0 1 1 0 0 0 2 0zm10.77 0.28 a1 1 0 1 0 0-0.04v0.04z" fill="#FFF"/>
  <path d="M15.64 0l-0.09 2.14a1 1 0 0 1 0 0.16c0 0.67 0 1.35-0.09 2-0.09 0.65 -0.09 1.48-0.14 2.22-0.05 0.59 -0.1 1.17-0.14 1.75-0.08 1.2-0.15 2.4-0.21 3.6-0.06 1.14-0.1 2.29-0.15 3.43-0.05 1.43-0.1 2.86-0.14 4.29a10.69 10.69 0 0 0 0 1.6c0.077 0.614 0.211 1.22 0.4 1.81 0.18 0.63 0.45 1.23 0.63 1.86a3.62 3.62 0 0 1 0 2 3.41 3.41 0 0 1-0.92 1.67 2 2 0 0 1-2.9-0.14 3.29 3.29 0 0 1-0.8-1.79 5.05 5.05 0 0 1-0.06-0.68c0.01-0.6 0.14 -1.19 0.38 -1.74 0.25 -0.66 0.52 -1.33 0.73 -2a9.37 9.37 0 0 0 0.3-1.58c0.1-0.95 0.15 -1.91 0.22 -2.86l0.15-2.31c0-0.65 0.08 -1.29 0.14 -1.94 0.06 -0.65 0.12 -1.34 0.18 -2 0-0.35 0.05 -0.7 0.1 -1.05 0.05 -0.35 0.12 -0.94 0.19 -1.42s0.1-0.69 0.16 -1c0.06-0.31 0.13 -0.67 0.19 -1 0.06-0.33 0.1 -0.65 0.16 -1l0.18-0.9c0.06-0.27 0.11 -0.54 0.17 -0.81 0.06 -0.27 0.15 -0.72 0.24 -1.08 0.09 -0.36 0.2 -0.78 0.33 -1.16 0.13 -0.38 0.35 -1 0.54-1.56A3.29 3.29 0 0 1 15.6 0h0.04zM26.27 4.08v1.69c0 0.78-0.06 1.55-0.1 2.32-0.04 0.77 -0.17 1.38-0.17 2.07-0.07 1.29-0.15 2.57-0.21 3.86-0.06 1.57-0.1 3.14-0.15 4.71 0 0.39 0 0.77-0.05 1.15 0 0.807 0.16 1.606 0.47 2.35a4 4 0 0 1 0.37 2 2.17 2.17 0 0 1-1.2 1.77 1.49 1.49 0 0 1-1.69-0.44 2.54 2.54 0 0 1-0.54-1.44 4.09 4.09 0 0 1 0.39-1.89c0.19-0.503 0.35 -1.018 0.48 -1.54a10 10 0 0 0 0.22-1.89c0-0.69 0.09 -1.38 0.14 -2.06 0.05 -0.68 0.09 -1.1 0.14 -1.64 0.05 -0.54 0.12 -1.18 0.19 -1.77 0-0.34 0.05 -0.67 0.09 -1 0.05-0.49 0.12 -1 0.18-1.47l0.09-0.61c0.05-0.4 0.09 -0.81 0.16 -1.22 0.07 -0.41 0.17 -0.92 0.26 -1.38 0.09 -0.46 0.14 -0.8 0.23 -1.19 0.14 -0.56 0.3 -1.11 0.46 -1.66 0.07 -0.24 0.17 -0.48 0.25 -0.72h-0.01zM10.63 21.28a5.55 5.55 0 0 0-0.86-0.15 2.26 2.26 0 0 0-1.41 0.59 c-0.37 0.3 -0.73 0.62 -1.12 0.9 A0.86 0.86 0 0 1 6 22.55c-0.31-0.27-0.61-0.56-0.91-0.83a2 2 0 0 0-1.35-0.59 1.87 1.87 0 0 0-1.22 0.53 c-0.35 0.3 -0.69 0.63 -1.06 0.92 a1.07 1.07 0 0 1-1.43 0 0.15 0.15 0 0 1 0-0.09 3 3 0 0 1 1-2.59 2.74 2.74 0 0 1 1.85-0.67h6.31a1.67 1.67 0 0 1 1.38 0.62 c0.204 0.29 0.27 0.656 0.18 1-0.03 0.09 -0.09 0.27 -0.12 0.43 zM36.31 22.36a2.12 2.12 0 0 1-1.93-0.3c-0.42-0.25-0.83-0.5-1.26-0.73a1.76 1.76 0 0 0-1.85 0.11 c-0.53 0.33 -1 0.7-1.56 1a1.35 1.35 0 0 1-0.48 0.24 0.67 0.67 0 0 1-0.48-0.08 6.42 6.42 0 0 1-0.93-0.72c-0.1-0.14-0.168-0.3-0.2-0.47a7.77 7.77 0 0 1-0.25-1.06 1.11 1.11 0 0 1 1.19-1.22h5.2a2.78 2.78 0 0 1 2.47 2.32c0.03 0.35 0.06 0.63 0.08 0.91 zM19.38 19.17h1.55a1.14 1.14 0 0 1 1.07 0.6 1.27 1.27 0 0 1 0 1.06c0 0.12-0.09 0.24 -0.12 0.37 s-0.07 0.11 -0.17 0.08 a2.06 2.06 0 0 0-0.95-0.14 2.87 2.87 0 0 0-1.36 0.65 c-0.38 0.29 -0.74 0.6 -1.13 0.86 a1.18 1.18 0 0 1-1.58-0.33 1.19 1.19 0 0 1-0.18-0.54 10.5 10.5 0 0 1-0.18-1.1 1.16 1.16 0 0 1 0.87-1.39 2.2 2.2 0 0 1 0.68-0.11h0.74l0.76-0.01z" fill="#FFF"/>
</svg>
