<?xml version="1.0" ?>
<svg xmlns="http://www.w3.org/2000/svg" width="38" height="32" viewBox="0 0 38 32">
  <path d="M4.53 18.33h0.15c0.51 0.05 0.72-0.25 0.72 -0.72v-4.03a0.77 0.77 0 0 0-0.4-0.74 3.87 3.87 0 0 1-0.61-0.54 0.13 0.13 0 0 1-0.06-0.1v-1.14c0.062 0.026 0.122 0.056 0.18 0.09 a10.6 10.6 0 0 0 2.86 1.27c1.07 0.31 2.16 0.58 3.25 0.8 a33.57 33.57 0 0 0 4.25 0.53 43.82 43.82 0 0 0 4.86 0.13 c1.63-0.07 3.26-0.17 4.89-0.32a28.08 28.08 0 0 0 4.16-0.73 15.8 15.8 0 0 0 4.09-1.54l0.38-0.23a0.86 0.86 0 0 1 0 0.18v1a0.45 0.45 0 0 1-0.12 0.29 6 6 0 0 1-0.55 0.45 0.58 0.58 0 0 0-0.28 0.49 v4.33c0 0.33 0.17 0.51 0.57 0.57 0.15 0 0.18 0.09 0.16 0.22 a25.18 25.18 0 0 1-0.87 3.94 24.75 24.75 0 0 1-1.1 3 7.47 7.47 0 0 1-4.41 4 19.6 19.6 0 0 1-3.38 0.82 c-1.727 0.29 -3.48 0.39 -5.23 0.3 -1 0-2-0.17-2.95-0.3a21 21 0 0 1-4.27-1.06 7.54 7.54 0 0 1-4.52-4.1 16.4 16.4 0 0 1-1.2-3.66c-0.21-1-0.37-2-0.55-3-0.01-0.03-0.01-0.1-0.02-0.2zm17.57 5.32v-3.19a1.32 1.32 0 0 0-1.4-1.41h-3.86a1.31 1.31 0 0 0-1.39 1.4v6.41a1.31 1.31 0 0 0 1.39 1.4h3.84a1.33 1.33 0 0 0 1.42-1.42v-3.19zM19 10.3a47.11 47.11 0 0 1-5.26-0.25 21.18 21.18 0 0 1-4.09-0.82A8.06 8.06 0 0 1 7.1 8H7c-0.37-0.29-0.39-0.4-0.26-0.86a4.38 4.38 0 0 1 1.95-2.47 9.88 9.88 0 0 1 3.09-1.33 20.12 20.12 0 0 1 4.15-0.63c0.34 0.022 0.675 0.082 1 0.18a10.17 10.17 0 0 0 2.07 0.16 9.45 9.45 0 0 0 2.24-0.31 0.65 0.65 0 0 1 0.24 0c0.74 0.09 1.49 0.17 2.22 0.3 a12.49 12.49 0 0 1 5.11 1.88 4.92 4.92 0 0 1 1.91 2.2c0.25 0.61 0.23 0.55 -0.25 0.9 a8 8 0 0 1-2.19 1.05A22.38 22.38 0 0 1 24 10a44.1 44.1 0 0 1-5 0.3zm0.16-4.51c0.39 0 1.14-0.12 1.87-0.24A3.61 3.61 0 0 0 22.44 5c0.6-0.39 0.62 -0.89 0-1.24a9.81 9.81 0 0 0-1.33-0.56c-0.11-0.05-0.13 0-0.14 0.13 0.02 0.153 0.02 0.307 0 0.46-0.13 0.45 -0.51 0.59 -0.91 0.69 a6 6 0 0 1-2.35 0.08 1 1 0 0 1-0.91-0.65 1.87 1.87 0 0 1 0-0.53c0-0.11-0.05-0.16-0.16-0.13a2.35 2.35 0 0 0-0.4 0.09 7.11 7.11 0 0 0-1.24 0.53 0.57 0.57 0 0 0 0 1 4.45 4.45 0 0 0 1 0.48 10.64 10.64 0 0 0 3.16 0.44 z" fill="#FFF"/>
  <path d="M9.61 3.35c-0.59 0.38 -1.19 0.73 -1.75 1.13A4.64 4.64 0 0 0 6.49 6a1.26 1.26 0 0 1-0.2 0.2 1.86 1.86 0 0 0-0.61 0.8 A1.16 1.16 0 0 0 6 8.19a4.15 4.15 0 0 0 1.49 1.05 15.72 15.72 0 0 0 3.21 1 41.67 41.67 0 0 0 10.69 0.7 35.34 35.34 0 0 0 4.34-0.48 18.74 18.74 0 0 0 4.1-1.13 4.64 4.64 0 0 0 1.58-1 2.29 2.29 0 0 0 0.42-0.64 1 1 0 0 0-0.21-1.07 1.41 1.41 0 0 0-0.38-0.39 6.3 6.3 0 0 1-1-0.93 8.6 8.6 0 0 0-3.21-2l-0.25-0.09a0.9 0.9 0 0 1-0.2-0.14c0.41 0.08 0.83 0.14 1.24 0.25 0.94 0.25 1.88 0.5 2.8 0.81 a9.37 9.37 0 0 1 3 1.55c0.365 0.271 0.674 0.611 0.91 1a1.89 1.89 0 0 1-0.07 2.1 4.78 4.78 0 0 1-1.78 1.53 13.64 13.64 0 0 1-3.3 1.32c-1 0.26-2.05 0.53 -3.08 0.7 -1.4 0.22 -2.81 0.41 -4.22 0.5 -1.58 0.1 -3.17 0.12 -4.76 0.08 -1.59-0.04-2.91-0.17-4.35-0.33a27 27 0 0 1-4.27-0.81 15.61 15.61 0 0 1-4.06-1.6A5.42 5.42 0 0 1 3.27 9a2 2 0 0 1 0-2.77 6.74 6.74 0 0 1 2.09-1.5A18.53 18.53 0 0 1 9 3.51l0.61-0.16zM4.65 17.78a4.56 4.56 0 0 1-0.55-0.24 1.75 1.75 0 0 1-0.71-1 0.58 0.58 0 0 0-0.23-0.28c-0.79-0.44-1.59-0.87-2.39-1.26A1.35 1.35 0 0 1 0 13.43c0.05-0.53 0.47 -0.95 1-1l2.13-0.36a0.27 0.27 0 0 1 0.24 0.09 c0.35 0.463 0.76 0.877 1.22 1.23a0.24 0.24 0 0 1 0.07 0.16 v4.07s0.01 0.08 -0.01 0.16 zM32.94 15.54v-1.88a0.41 0.41 0 0 1 0.18-0.33c0.38-0.37 0.76 -0.76 1.12-1.15a0.31 0.31 0 0 1 0.34-0.13l2 0.37a1.19 1.19 0 0 1 1 1.5 1.37 1.37 0 0 1-0.74 1c-0.8 0.42 -1.57 0.87 -2.36 1.3a0.57 0.57 0 0 0-0.3 0.38 1.52 1.52 0 0 1-0.92 1.05c-0.29 0.12 -0.35 0.08 -0.35-0.23l0.03-1.88zM18.77 2.61a9.64 9.64 0 0 1-2.64-0.39 0.86 0.86 0 0 1-0.65-0.86c0-0.61 0.17 -0.81 0.86 -1a8.85 8.85 0 0 1 3.51-0.3 5.28 5.28 0 0 1 1.72 0.41 c0.48 0.22 0.57 0.38 0.53 0.91 a1 1 0 0 1-0.68 0.84 9.7 9.7 0 0 1-2.65 0.39 zM11.87 30.35a6.18 6.18 0 0 1-0.92 1 4.05 4.05 0 0 1-1 0.35 1.09 1.09 0 0 1-0.95-0.14 1.07 1.07 0 0 1-0.6-1c0-0.52 0.1 -1 0.16-1.63a12.36 12.36 0 0 0 3.31 1.42zM26.09 30.44a9.86 9.86 0 0 0 3-1.52c0.026 0.049 0.05 0.099 0.07 0.15 0 0.44 0.09 0.88 0.09 1.32a1.16 1.16 0 0 1-1.22 1.16 5.15 5.15 0 0 1-1.16-0.27c-0.35-0.13-0.53-0.5-0.78-0.84zM18.77 24.86h1.33a0.85 0.85 0 0 1 0.89 0.73 c0.09 0.335 0.05 0.692 -0.11 1a0.78 0.78 0 0 1-0.7 0.42 h-2.82a0.83 0.83 0 0 1-0.82-0.82 2.26 2.26 0 0 1 0.09-0.78 0.77 0.77 0 0 1 0.78-0.52l1.36-0.03zm0 0.34h-1c-0.19 0-0.24 0.07 -0.21 0.26 s0.07 0.23 0.1 0.35 a0.52 0.52 0 0 0 0.58 0.48 h1c0.58 0 0.68-0.07 0.79 -0.64v-0.16c0-0.06 0-0.29-0.24-0.29h-1.02zM18.77 21.6H18a0.42 0.42 0 0 1-0.45-0.43c0-0.3 0.12 -0.51 0.38 -0.53h1.61a0.5 0.5 0 0 1-0.05 1l-0.72-0.04zM18.76 23.4H18c-0.27 0-0.41-0.16-0.43-0.44-0.02-0.28 0.12 -0.49 0.38 -0.5h1.62c0.26 0 0.41 0.23 0.39 0.52 a0.42 0.42 0 0 1-0.45 0.42 h-0.75z" fill="#FFF"/>
</svg>
