<?xml version="1.0" ?>
<svg xmlns="http://www.w3.org/2000/svg" width="14" height="36" viewBox="0 0 14 36">
  <path d="M13.31 31.4c0.06 0.31 0.1 0.61 0.15 0.91 0 0.12 0 0.16-0.15 0.18 l-1.41 0.25 -1 0.16-1 0.19h-0.3v0.06l0.38 0.13 1.23 0.33 1.16 0.29 0.81 0.22 s0.08 0.12 0.06 0.18 c-0.02 0.06 -0.1 0.42 -0.16 0.63 -0.08 0.22 -0.09 0.23 -0.32 0.17 -0.48-0.12-0.95-0.26-1.43-0.39l-1.44-0.37L8.46 34c-0.52-0.14-1-0.29-1.57-0.4a1.43 1.43 0 0 0-0.49 0.06 l-1.11 0.19 -1.08 0.18 -1 0.16-1.15 0.19 -1 0.16a4.58 4.58 0 0 0-0.63 0.1 c-0.16 0.05 -0.2 0-0.23-0.15s-0.06-0.49-0.11-0.74c0-0.09 0-0.14 0.11 -0.15l1.51-0.22c0.65-0.1 1.3-0.22 1.94-0.33l0.58-0.05-0.59-0.16-1.33-0.32L1 32.14l-0.9-0.22c-0.1-0.03-0.1-0.12-0.1-0.21s0.11-0.4 0.17 -0.61a0.47 0.47 0 0 1 0-0.16s0.09-0.09 0.12 -0.08l1.47 0.37 1.26 0.3 1.26 0.32 1 0.23 0.65 0.16v-7.35h-0.25L1 24.86c-0.33 0-0.35 0-0.38-0.33-0.04-0.53-0.1-1.15-0.13-1.73a13.66 13.66 0 0 1 0-1.43c0.04-0.515 0.121 -1.027 0.24 -1.53a15.68 15.68 0 0 1 1.51-3.49 9.45 9.45 0 0 0 0.63-1.51A3.42 3.42 0 0 0 3 13.25a5.6 5.6 0 0 0-0.57-1.67A13.68 13.68 0 0 0 1 9.37l-0.08-0.1a1.24 1.24 0 0 1-0.3-0.95c0.07-1.48 0.11 -3 0.15-4.45V3.8l0.88-0.15A4.88 4.88 0 0 0 3.6 3a1.92 1.92 0 0 0 0.76-1.18A7.66 7.66 0 0 0 4.55 0.19 c0-0.1 0-0.14 0.14 -0.15h1.36C6.74 0 7.42 0 8.1 0c0.15 0 0.19 0 0.2 0.2 a7.78 7.78 0 0 0 0.19 1.6 2 2 0 0 0 1.36 1.5c0.49 0.15 1 0.24 1.51 0.36 l0.78 0.15 v0.13c0 1.56 0 3.11 0.08 4.66a0.65 0.65 0 0 1-0.15 0.45 13.47 13.47 0 0 0-1.4 2.18 6.6 6.6 0 0 0-0.61 1.77 4 4 0 0 0 0 1.55 7.52 7.52 0 0 0 0.64 1.65c0.38 0.79 0.77 1.58 1.11 2.39a8.9 8.9 0 0 1 0.38 1.34 9.36 9.36 0 0 1 0.19 2.79c0 0.55-0.12 1.09-0.18 1.64v0.3c0 0.1-0.08 0.18 -0.22 0.18 h-4.8c-0.25 0-0.25 0-0.25 0.26 v7c0 0.12 0 0.19 0.19 0.14a5 5 0 0 1 0.56-0.09L9.49 32l1.18-0.15 1.59-0.26 1.05-0.19z" fill="#FFF"/>
</svg>
