<?xml version="1.0" ?>
<svg xmlns="http://www.w3.org/2000/svg" width="42" height="28" viewBox="0 0 42 28">
  <path d="M34.47 11.62c-0.4-0.11-0.78-0.21-1.15-0.34a5.5 5.5 0 0 1-2.49-1.76 5.76 5.76 0 0 1-1.12-2.17 5.5 5.5 0 0 1-0.16-2.21A5.8 5.8 0 0 1 33.72 0.23 a5.61 5.61 0 0 1 2-0.21 5.79 5.79 0 0 1 5.11 4 3.93 3.93 0 0 1 0.26 1.52 4.42 4.42 0 0 0 0 0.63c0.003 0.81 -0.2 1.61-0.59 2.32a5.66 5.66 0 0 1-2.88 2.72 7.54 7.54 0 0 1-1.17 0.35 c-0.15 0-0.24 0.09 -0.23 0.28 a3.43 3.43 0 0 1-0.06 0.56 0.24 0.24 0 0 1-0.15 0.16 c-0.21 0.05 -0.26 0.2 -0.3 0.37 -0.04 0.17 -0.13 0.61 -0.18 0.92 -0.08 0.47 -0.16 0.93 -0.21 1.4-0.05 0.47 -0.09 0.94 -0.1 1.41v2.07c0 0.89 0 1.78-0.08 2.66A6.63 6.63 0 0 1 34 24.73a4.41 4.41 0 0 1-2.3 1.68 5 5 0 0 1-2.06 0.2 7 7 0 0 1-3.26-1.2 33.87 33.87 0 0 1-3.05-2.56 9.35 9.35 0 0 0-1.89-1.42 5 5 0 0 0-1.59-0.52 6.77 6.77 0 0 0-1-0.07A1.28 1.28 0 0 0 17.52 22a5.34 5.34 0 0 0 0 1.74c0 0.17 0.14 0.14 0.24 0.11 0.25 -0.08 0.5 -0.16 0.75 -0.26A9.55 9.55 0 0 0 21 22.18c0.11-0.08 0.2 0 0.29 0 0.39 0.29 0.78 0.56 1.14 0.87 0.36 0.31 0.95 0.84 1.42 1.26 0.05 0 0.1 0.15 0.08 0.17 a1.4 1.4 0 0 1-0.3 0.23 l-0.08-0.09c-0.14-0.21-0.27-0.43-0.42-0.67l-0.46 0.34 0.65 0.68 A9.74 9.74 0 0 1 21 26.43c-0.08-0.23-0.18-0.46-0.25-0.7-0.07-0.24-0.12-0.14-0.22-0.1a3.91 3.91 0 0 0-0.35 0.18 l0.49 0.81 a12.19 12.19 0 0 1-2.59 0.89 c0-0.27-0.06-0.51-0.08-0.75-0.02-0.24-0.05-0.24-0.21-0.15-0.16 0.09 -0.32-0.05-0.34 0.15 a0.84 0.84 0 0 0 0.09 0.37 c0 0.1 0.09 0.2 0.12 0.3 0.03 0.1 0 0.2-0.12 0.21 l-2.33 0.24 a1.44 1.44 0 0 1-0.21 0l0.1-0.88h-0.56l0.08 0.92 a13.37 13.37 0 0 1-2.72-0.32l0.31-0.89-0.55-0.14-0.13 0.94 a14 14 0 0 1-2.41-0.83c-0.14-0.06-0.15-0.13-0.07-0.24 0.08 -0.11 0.19 -0.32 0.3 -0.48 0.11 -0.16 0.08 -0.19-0.06-0.27-0.33-0.17-0.33-0.17-0.46 0.18 -0.07 0.18 -0.15 0.36 -0.22 0.56 A14.45 14.45 0 0 1 6.44 25c-0.12-0.08-0.11-0.15 0-0.24l0.56-0.51-0.46-0.37-0.54 0.83 -1.53-1.52c-0.1-0.1-0.19-0.22-0.28-0.32-0.09-0.1-0.09-0.17 0-0.23l0.53-0.32c0.09-0.06 0.14 -0.13 0-0.23l-0.28-0.34c-0.2 0.2 -0.37 0.39 -0.54 0.57 -0.17 0.18 -0.14 0.1 -0.22 0a14.38 14.38 0 0 1-1.28-2.05c-0.06-0.12-0.05-0.16 0.09 -0.2 0.14 -0.04 0.47 -0.17 0.74 -0.26l-0.25-0.52-0.69 0.42 c-0.1 0.07 -0.14 0-0.18-0.06-0.11-0.58-0.34-1.13-0.54-1.65-0.09-0.25-0.15-0.5-0.23-0.78 0.26 0 0.5-0.08 0.75 -0.09 0.25 -0.01 0.21 -0.08 0.18 -0.23l-0.1-0.35-0.89 0.28 A8.82 8.82 0 0 1 1 14.08l0.6 0.08 h0.28a1.76 1.76 0 0 0 0-0.46H0.95c0-0.45 0-0.87 0.08 -1.3 0-0.23 0.06 -0.46 0.09 -0.69l0.09-0.6c0-0.1 0-0.15 0.17 -0.1 0.17 0.05 0.48 0.17 0.76 0.26l0.16-0.55-0.73-0.08c-0.2 0-0.24-0.07-0.18-0.26 0.22 -0.52 0.39 -1.04 0.61 -1.57 0.08 -0.21 0.18 -0.41 0.27 -0.62 0.09 -0.21 0.11 -0.16 0.23 -0.07 0.12 0.09 0.42 0.26 0.66 0.41L3.38 8l-0.71-0.26c-0.15 0-0.19-0.09-0.1-0.25a12.11 12.11 0 0 1 1.27-2l0.16-0.1 0.67 0.66 0.16 -0.21c0.26-0.26 0.16 -0.25-0.07-0.42a2.74 2.74 0 0 0-0.36-0.23c-0.17-0.08-0.14-0.17 0-0.28 0.4 -0.41 0.79 -0.82 1.19-1.22 0.16 -0.15 0.34 -0.28 0.5 -0.43 0.16 -0.15 0.16 -0.06 0.21 0a6.1 6.1 0 0 1 0.34 0.54 c0.06 0.09 0.11 0.1 0.2 0 0.43-0.31 0.35 -0.24 0.06 -0.55-0.2-0.05-0.34-0.15-0.5-0.25a13.82 13.82 0 0 1 2.35-1.52c0.06 0.15 0.12 0.3 0.17 0.44 0.05 0.14 0 0 0 0 0.18 0.45 0 0.48 0.54 0.24 0.11 -0.05 0.11 -0.11 0-0.2-0.11-0.09-0.21-0.34-0.32-0.51-0.11-0.17-0.09-0.2 0.08 -0.26C9.84 1 10.39 0.83 11 0.63c0.19-0.07 0.39 -0.11 0.58 -0.16 0.19 -0.05 0.19 0 0.2 0.16 0.01 0.16 0 0.31 0 0.46 0 0.15 0.08 0.29 0.31 0.24a2.52 2.52 0 0 0 0.29-0.1l-0.3-0.88a10.91 10.91 0 0 1 2.71-0.27c0 0.23-0.06 0.45 -0.07 0.67 -0.01 0.22 0 0.24 0 0.25 0.149 0.025 0.301 0.025 0.45 0V0.81c0-0.07 0-0.39-0.06-0.58-0.06-0.19 0-0.16 0.14 -0.15L17 0.23c0.22 0 0.44 0.06 0.66 0.1 0.22 0.04 0.21 0.08 0.15 0.25 -0.06 0.17 -0.14 0.33 -0.2 0.5 -0.06 0.17 0 0.23 0.16 0.26 0.37 0 0.36 0 0.39-0.33 0-0.17 0.06 -0.34 0.09 -0.54a13 13 0 0 1 2.56 0.91 c-0.14 0.23 -0.27 0.46 -0.41 0.67 -0.14 0.21 -0.05 0.17 0.06 0.22 l0.36 0.17 0.34-0.88c0.831 0.397 1.619 0.88 2.35 1.44l-0.55 0.5 c-0.11 0.1 -0.13 0.19 0 0.3 0.29 0.24 0.29 0.24 0.5 -0.08 0.08 -0.13 0.16 -0.26 0.25 -0.38a0.17 0.17 0 0 1 0.16 0 11.66 11.66 0 0 1 1.81 1.84l-0.76 0.5 v0.07c0.31 0.39 0.31 0.39 0.67 0 0.36-0.39 0.34 -0.34 0.59 0 0.38 0.59 0.73 1.19 1.09 1.79 0.08 0.13 0.05 0.21-0.1 0.25 l-0.54 0.17 c-0.12 0-0.17 0.12 -0.1 0.24 0.18 0.32 0.11 0.42 0.49 0.16 l0.5-0.3c0.11 0.26 0.24 0.5 0.32 0.75 0.19 0.55 0.36 1.11 0.54 1.66 0 0.14 0 0.21-0.15 0.22 -0.15 0.01 -0.5 0-0.77 0.07 0.024 0.152 0.058 0.302 0.1 0.45 a0.2 0.2 0 0 0 0.16 0.06 l0.77-0.25c0.185 0.895 0.286 1.806 0.3 2.72l-0.95-0.09a3.57 3.57 0 0 0 0 0.47s0.11 0.09 0.17 0.09 l0.72-0.09a8.44 8.44 0 0 1-0.25 2.88l-0.89-0.29c0 0.15-0.08 0.28 -0.1 0.4 -0.02 0.12 0 0.17 0.16 0.18l0.74 0.09 a11.63 11.63 0 0 1-0.91 2.58l-0.67-0.42c-0.1-0.07-0.15-0.07-0.21 0.06 -0.2 0.39 -0.21 0.38 0.21 0.51 l0.5 0.19 a12.6 12.6 0 0 1-1.5 2.35l-0.23-0.29a2.77 2.77 0 0 0-0.6-0.47 6.35 6.35 0 0 1-0.76-0.63c-0.35-0.3-0.71-0.58-1.07-0.86-0.09-0.07-0.14-0.11 0-0.24a9.92 9.92 0 0 0 1.51-2.88 8.52 8.52 0 0 0 0.47-2.16 12.89 12.89 0 0 0 0.05-1.64 15.29 15.29 0 0 0-0.29-1.9 9.14 9.14 0 0 0-1.42-3.24 10.14 10.14 0 0 0-4.34-3.68A9.36 9.36 0 0 0 17 3.94a9.14 9.14 0 0 0-2.56-0.2c-0.415 0.012 -0.83 0.049 -1.24 0.11 -0.57 0.12 -1.13 0.27 -1.69 0.44 A9.23 9.23 0 0 0 9.3 5.38 10.23 10.23 0 0 0 6 9a9.34 9.34 0 0 0-1 2.36 13.62 13.62 0 0 0-0.33 1.91 9.06 9.06 0 0 0 0 1.95 9.76 9.76 0 0 0 0.67 2.6 10.2 10.2 0 0 0 6 5.83 12.2 12.2 0 0 0 1.8 0.47 11.43 11.43 0 0 0 2.55 0.13 c0.21 0 0.42-0.05 0.64 -0.08 0.22 -0.03 0.17 -0.08 0.14 -0.21a5.18 5.18 0 0 1 0-2.11A2.25 2.25 0 0 1 18 19.93a3.16 3.16 0 0 1 1.67-0.13c0.39 0.08 0.79 0.15 1.17 0.25 A5.54 5.54 0 0 1 23 21.2c0.87 0.74 1.72 1.5 2.58 2.25a9.13 9.13 0 0 0 2.44 1.65 5.79 5.79 0 0 0 1.21 0.36 5.89 5.89 0 0 0 1.26 0.08 3.3 3.3 0 0 0 2.77-1.66 4.94 4.94 0 0 0 0.64-1.7 10.58 10.58 0 0 0 0.25-2.18v-2.22c0-0.74 0-1.54 0.09 -2.3 0.09 -0.76 0.18 -1.34 0.28 -2 0-0.25 0.11 -0.49 0.16 -0.74a0.29 0.29 0 0 0 0-0.21 0.57 0.57 0 0 1-0.18-0.49c-0.02-0.14-0.03-0.29-0.03-0.42zm5.38-6.23a2.3 2.3 0 0 0-0.25-1.33 5.76 5.76 0 0 0-1.86-2.15 3 3 0 0 0-1.69-0.65c-0.28 0-0.28 0-0.34 0.28 s-0.11 0.31 -0.3 0.34 a0.33 0.33 0 0 1-0.41-0.19c0-0.09 0-0.2-0.11-0.29-0.11-0.09-0.13-0.13-0.18-0.12a6.94 6.94 0 0 0-1.21 0.32 A4.44 4.44 0 0 0 30.84 5c-0.06 0.36 -0.07 0.36 0.3 0.47 a0.37 0.37 0 0 1 0.26 0.29 0.31 0.31 0 0 1-0.18 0.33 0.75 0.75 0 0 1-0.24 0.08 c-0.15 0-0.21 0.11 -0.19 0.27 0.02 0.16 0 0.32 0.08 0.48a4.67 4.67 0 0 0 3.22 3.31c0.273 0.064 0.55 0.107 0.83 0.13 a0.88 0.88 0 0 1 0-0.22c0.07-0.16 0.08 -0.37 0.33 -0.37s0.31 0 0.42 0.38 c0 0.16 0.11 0.19 0.25 0.19a3.45 3.45 0 0 0 1.34-0.34 4.59 4.59 0 0 0 2.6-3.36c0.06-0.32 0-0.37-0.28-0.46a0.38 0.38 0 0 1-0.3-0.36 0.36 0.36 0 0 1 0.3-0.34c0.09-0.02 0.18 -0.06 0.27 -0.09z" fill="#FFF"/>
  <path d="M18 11.09a1 1 0 0 1-1.09-0.91c0-0.83-0.12-1.66-0.17-2.49 0-0.38 0-0.75-0.06-1.13-0.06-0.38 0-0.26 0.24 -0.2a7.71 7.71 0 0 1 4.33 3c0.16 0.21 0.29 0.43 0.43 0.65 0.14 0.22 0.1 0.22 -0.1 0.27 l-1.41 0.33 -1.65 0.39 -0.52 0.09 zM8 10.22c0.25-0.37 0.45 -0.71 0.69 -1a7.69 7.69 0 0 1 3-2.39c0.43-0.19 0.89 -0.31 1.33-0.46 0.11 0 0.16 0 0.15 0.11 V8.16C13 8.73 13 9.33 13 9.93a1.06 1.06 0 0 1-1 1.14 2.55 2.55 0 0 1-0.61-0.08l-2-0.45L8 10.22zM16.92 13.88a2 2 0 0 1-2 2 2.03 2.03 0 0 1 0-4.06 2 2 0 0 1 2 2.06zM22.66 13.6c0.015 0.28 0.015 0.56 0 0.84a8.33 8.33 0 0 1-0.43 2 7.81 7.81 0 0 1-1.38 2.39c-0.09 0.12 -0.15 0.05 -0.21 0l-0.63-1c-0.3-0.46-0.62-0.92-0.91-1.39a1.8 1.8 0 0 1-0.35-0.88 0.78 0.78 0 0 1 0.48-0.79c0.41-0.19 0.84 -0.33 1.26-0.48l2-0.7 0.17 0.01zM7.19 13.6l0.87 0.31 c0.74 0.26 1.48 0.5 2.21 0.78 0.211 0.083 0.405 0.205 0.57 0.36 a1 1 0 0 1 0 1.16l-0.71 1.11-1 1.5-0.08 0.18 c-1.05-0.8-2.28-4.34-1.86-5.4zM11.88 21l1-1.29c0.34-0.42 0.69 -0.84 1-1.25a1.19 1.19 0 0 1 0.88-0.51c0.347 0 0.674 0.159 0.89 0.43 0.33 0.37 0.64 0.76 1 1.14 0.07 0.08 0.08 0.14 0 0.23a3 3 0 0 0-1 1.68 0.22 0.22 0 0 1-0.26 0.19 14.71 14.71 0 0 1-1.76-0.09 13.35 13.35 0 0 1-1.62-0.43 0.92 0.92 0 0 1-0.13-0.1zM36.15 5.62a0.69 0.69 0 0 0-0.58-0.62 0.9 0.9 0 0 1-0.57-0.34l-1.18-1.18a4.68 4.68 0 0 0-0.39-0.38 0.35 0.35 0 0 0-0.5 0.06 0.3 0.3 0 0 0 0 0.46c0.48 0.48 0.95 1 1.44 1.42 0.22 0.196 0.368 0.46 0.42 0.75 0.08 0.34 0.405 0.56 0.75 0.51a0.71 0.71 0 0 0 0.61-0.68z" fill="#FFF"/>
  <path d="M36.15 5.62a0.71 0.71 0 0 1-0.59 0.68 0.67 0.67 0 0 1-0.75-0.51 1.31 1.31 0 0 0-0.42-0.79c-0.49-0.46-1-0.94-1.44-1.42a0.3 0.3 0 0 1 0-0.46 0.35 0.35 0 0 1 0.5-0.06c0.137 0.119 0.267 0.246 0.39 0.38 L35 4.66a0.9 0.9 0 0 0 0.57 0.29 0.69 0.69 0 0 1 0.58 0.67 z" fill="#FFF"/>
</svg>
