<?xml version="1.0" ?>
<svg xmlns="http://www.w3.org/2000/svg" width="36" height="36" viewBox="0 0 36 36">
  <path d="M0 18a18 18 0 1 1 17.95 18C8.028 35.972 0 27.922 0 18zm34.87 0c0-9.317-7.553-16.87-16.87-16.87S1.13 8.683 1.13 18 8.683 34.87 18 34.87c9.31-0.017 16.853-7.56 16.87-16.87z" fill="#FFF"/>
  <path d="M17.35 16.55v-0.17c0-0.63 0-1.25 0.06 -1.88 0.08 -3.12 0.15 -6.23 0.07 -9.35 0-0.64-0.08-1.27-0.14-1.91a0.64 0.64 0 0 0-0.56-0.63 3.12 3.12 0 0 0-0.63-0.08 8.82 8.82 0 0 0-2.45 0.4 c-1.314 0.373 -2.58 0.9 -3.77 1.57A7.43 7.43 0 0 0 8 5.9a2.08 2.08 0 0 0-0.52 0.86 c-0.09 0.414 0.025 0.846 0.31 1.16a16.68 16.68 0 0 0 2 2.14c2.35 2.26 4.86 4.33 7.39 6.38l0.17 0.11 zm1.51 2.88v0.24c0 0.78-0.09 1.57-0.11 2.35-0.08 2.52-0.17 5-0.21 7.55 0 1 0.06 2.08 0.11 3.12a0.64 0.64 0 0 0 0.54 0.68 c0.152 0.05 0.31 0.073 0.47 0.07 a11 11 0 0 0 1.64-0.17 21.16 21.16 0 0 0 2.32-0.67 13.88 13.88 0 0 0 3.22-1.6 4.69 4.69 0 0 0 1.46-1.4c0.211-0.288 0.27 -0.66 0.16 -1a2.56 2.56 0 0 0-0.36-0.6 22.51 22.51 0 0 0-2.68-2.85c-2.05-1.94-4.19-3.77-6.37-5.57l-0.19-0.15zm-1.72 0l-0.4 0.33 c-2.57 2.15-5.15 4.3-7.58 6.61-0.59 0.56 -1.14 1.17-1.71 1.77a1.09 1.09 0 0 0-0.08 1.38 4 4 0 0 0 1.35 1.28 16.22 16.22 0 0 0 5.85 2.44 3.69 3.69 0 0 0 1.59 0 0.5 0.5 0 0 0 0.39-0.32 5.66 5.66 0 0 0 0.32-1.61c0.1-1.09 0.2 -2.18 0.22 -3.28 0.05 -2.8 0.06 -5.61 0.08 -8.42a0.897 0.897 0 0 1-0.03-0.19v0.01zm1.77-2.87l0.24-0.19c2.6-2.18 5.19-4.36 7.66-6.69 0.64 -0.6 1.21-1.27 1.82-1.91a0.85 0.85 0 0 0 0.19-0.8 1.9 1.9 0 0 0-0.24-0.58 4.3 4.3 0 0 0-1.4-1.26 16.27 16.27 0 0 0-5.76-2.36 3.76 3.76 0 0 0-1.57 0 0.49 0.49 0 0 0-0.39 0.31 6 6 0 0 0-0.32 1.67c-0.14 1.03-0.14 2.1-0.21 3.17-0.09 2.79-0.11 5.59 0 8.38-0.05 0.07 -0.03 0.14 -0.02 0.26 zm1.18 0.82 h12.6a0.6 0.6 0 0 0 0.63-0.52 4.48 4.48 0 0 0 0.1-0.6 7.79 7.79 0 0 0-0.29-3.11 10.36 10.36 0 0 0-1.37-2.73 4.38 4.38 0 0 0-1.18-1.22 0.84 0.84 0 0 0-1.06 0c-0.64 0.47 -1.29 0.91 -1.9 1.41-2.57 2.1-5 4.37-7.42 6.64a1.45 1.45 0 0 0-0.12 0.12 l0.01 0.01 zM16 18.81v-0.08h-1.14l-9.45-0.15H3.27a0.52 0.52 0 0 0-0.54 0.37 3.42 3.42 0 0 0-0.15 0.7 7.62 7.62 0 0 0 0.26 3.11 10.2 10.2 0 0 0 1.54 3 3.54 3.54 0 0 0 1.2 1.13 0.68 0.68 0 0 0 0.75 0c0.61-0.42 1.25-0.81 1.83-1.27 2.67-2.11 5.18-4.4 7.69-6.69l0.15-0.12zm0-1.53l-0.15-0.16c-2.3-2.14-4.63-4.26-7.06-6.25-0.7-0.57-1.44-1.11-2.18-1.62a1 1 0 0 0-1.44 0.09 4.76 4.76 0 0 0-1.09 1.39 13.77 13.77 0 0 0-1.25 3 6.09 6.09 0 0 0-0.29 1.94 1.44 1.44 0 0 0 1.3 1.51c1 0.09 1.94 0.17 2.91 0.19 2.72 0.07 5.43 0 8.15-0.09H16zm4.05 1.35l0.14 0.15 c2.47 2.32 4.94 4.63 7.57 6.76 0.56 0.46 1.17 0.86 1.76 1.27a0.85 0.85 0 0 0 0.85 0.1 2.24 2.24 0 0 0 0.51-0.31A4.86 4.86 0 0 0 32 25.15 14.09 14.09 0 0 0 33.24 22a5.39 5.39 0 0 0 0.22-1.75 1.42 1.42 0 0 0-1.35-1.46c-0.76-0.09-1.51-0.17-2.27-0.19-3.18-0.1-6.36-0.06-9.54 0l-0.25 0.03 z" fill="#FFF"/>
  <path d="M17.35 16.55l-0.16-0.11c-2.53-2.05-5-4.13-7.39-6.38a16.68 16.68 0 0 1-2-2.14 1.31 1.31 0 0 1-0.31-1.16A2.08 2.08 0 0 1 8 5.9a7.43 7.43 0 0 1 1.93-1.4 17.31 17.31 0 0 1 3.8-1.56 8.82 8.82 0 0 1 2.45-0.4c0.212 0.005 0.423 0.032 0.63 0.08 a0.64 0.64 0 0 1 0.56 0.63 c0.06 0.64 0.13 1.27 0.14 1.91 0.08 3.12 0 6.23-0.07 9.35 0 0.63 0 1.25-0.06 1.88-0.01 0.04 -0.02 0.08 -0.03 0.16 zM18.86 19.43l0.19 0.14 c2.17 1.8 4.32 3.63 6.37 5.57A22.51 22.51 0 0 1 28.1 28c0.152 0.201 0.273 0.423 0.36 0.66 0.11 0.34 0.051 0.712 -0.16 1A4.69 4.69 0 0 1 26.84 31a13.88 13.88 0 0 1-3.25 1.6 21.16 21.16 0 0 1-2.32 0.67 11 11 0 0 1-1.64 0.17 1.44 1.44 0 0 1-0.47-0.07 0.64 0.64 0 0 1-0.54-0.68c0-1-0.13-2.08-0.11-3.12 0-2.52 0.13 -5 0.21-7.55 0-0.78 0.07 -1.57 0.11 -2.35 0.02 -0.06 0.02 -0.12 0.03 -0.24zM17.14 19.42v0.21c0 2.81 0 5.61-0.08 8.42 0 1.09-0.12 2.19-0.22 3.28a5.66 5.66 0 0 1-0.32 1.61 0.5 0.5 0 0 1-0.39 0.32 3.69 3.69 0 0 1-1.59 0 16.22 16.22 0 0 1-5.85-2.44 4 4 0 0 1-1.35-1.28 1.09 1.09 0 0 1 0.08-1.38c0.56-0.59 1.11-1.21 1.71-1.77 2.44-2.31 5-4.46 7.58-6.61l0.43-0.36zM18.91 16.56v-0.25c-0.06-2.79 0-5.59 0-8.38 0-1.07 0.11 -2.14 0.21 -3.21A6 6 0 0 1 19.46 3a0.49 0.49 0 0 1 0.39-0.31 3.76 3.76 0 0 1 1.57 0 16.27 16.27 0 0 1 5.76 2.36 4.3 4.3 0 0 1 1.4 1.26 1.9 1.9 0 0 1 0.24 0.58 0.85 0.85 0 0 1-0.19 0.8 c-0.6 0.64 -1.18 1.3-1.82 1.91-2.46 2.33-5.06 4.51-7.66 6.69l-0.24 0.27 zM20.08 17.37a1.45 1.45 0 0 1 0.12-0.14C22.62 15 25 12.7 27.62 10.6c0.61-0.5 1.27-0.94 1.9-1.41a0.84 0.84 0 0 1 1.06 0c0.476 0.334 0.88 0.759 1.19 1.25a10.36 10.36 0 0 1 1.37 2.73 7.79 7.79 0 0 1 0.29 3.11 4.48 4.48 0 0 1-0.1 0.6 0.6 0.6 0 0 1-0.63 0.52 H20.1l-0.02-0.03zM16 18.81l-0.1 0.11 c-2.51 2.3-5 4.59-7.69 6.69-0.58 0.46 -1.21 0.85 -1.83 1.27a0.68 0.68 0 0 1-0.75 0 3.54 3.54 0 0 1-1.2-1.13 10.2 10.2 0 0 1-1.54-3 7.62 7.62 0 0 1-0.26-3.11 3.42 3.42 0 0 1 0.15-0.7 0.52 0.52 0 0 1 0.54-0.37h2.09l9.45 0.15 h1.07l0.07 0.09 zM16 17.28h-1.11c-2.72 0.08 -5.43 0.16 -8.15 0.09 -1 0-1.94-0.11-2.91-0.19a1.44 1.44 0 0 1-1.3-1.51 6.09 6.09 0 0 1 0.29-1.94 13.77 13.77 0 0 1 1.25-3 4.76 4.76 0 0 1 1.09-1.38 1 1 0 0 1 1.44-0.1c0.75 0.51 1.48 1 2.18 1.62 2.43 2 4.75 4.11 7.06 6.25l0.16 0.16 zM20.05 18.63h0.24c3.18-0.09 6.36-0.13 9.54 0 0.76 0 1.52 0.11 2.27 0.19 a1.42 1.42 0 0 1 1.35 1.46 5.39 5.39 0 0 1-0.21 1.72A14.09 14.09 0 0 1 32 25.15a4.86 4.86 0 0 1-1.11 1.46 2.24 2.24 0 0 1-0.51 0.31 0.85 0.85 0 0 1-0.85-0.1c-0.6-0.41-1.2-0.82-1.76-1.27-2.63-2.14-5.1-4.45-7.57-6.76l-0.15-0.16z" fill="#FFF"/>
</svg>
