<?xml version="1.0" ?>
<svg xmlns="http://www.w3.org/2000/svg" width="34" height="35" viewBox="0 0 34 35">
  <path d="M18.36 23.87a8.22 8.22 0 0 0 1.43 4.54 7.91 7.91 0 0 0 3.57 2.89c0.25 0.1 0.26 0.12 0.09 0.33 a9.69 9.69 0 0 1-3 2.66 8 8 0 0 1-1.47 0.58 3.24 3.24 0 0 1-2.06-0.15c-0.53-0.21-1.08-0.4-1.62-0.56a3.75 3.75 0 0 0-0.82-0.1 5.67 5.67 0 0 0-2.54 0.45 6.45 6.45 0 0 1-1.31 0.33 4.31 4.31 0 0 1-2.8-0.69 12.32 12.32 0 0 1-2.6-2.23 14.26 14.26 0 0 1-1.7-2.17c-0.5-0.79-1-1.61-1.42-2.44A17.62 17.62 0 0 1 0.77 24.2c-0.18-0.55-0.31-1.12-0.44-1.69-0.13-0.57-0.18-0.94-0.26-1.4-0.01-0.1-0.01-0.2 0-0.3v-1.24c0-0.42 0-0.74 0.07 -1.12 0.07 -0.38 0.07 -0.6 0.12 -0.9 0.01 -0.55 0.08 -1.05 0.2 -1.55A13.55 13.55 0 0 1 1 14.3a6.6 6.6 0 0 1 2.2-3 6.24 6.24 0 0 1 2.12-1 11.45 11.45 0 0 1 2.05-0.3 11 11 0 0 1 1.91 0.09 c0.41 0 0.82 0.08 1.23 0.16 0.41 0.08 0.94 0.23 1.4 0.37 0.46 0.14 1.14 0.4 1.72 0.57 a2.94 2.94 0 0 0 1.53 0c0.44-0.11 0.86 -0.25 1.29-0.36a12.64 12.64 0 0 1 2.84-0.4 11.91 11.91 0 0 1 2.3 0.25 8.38 8.38 0 0 1 2.59 0.94 6.53 6.53 0 0 1 2.62 2.78c0.21 0.42 0.37 0.86 0.54 1.29 0.09 0.22 0.05 0.27-0.18 0.26 -0.23-0.01-0.43-0.06-0.65-0.06a9.47 9.47 0 0 0-1.76 0.18 7.85 7.85 0 0 0-4.55 2.74 7.25 7.25 0 0 0-1.41 2.57 7 7 0 0 0-0.35 1.76c-0.01 0.25 -0.05 0.49 -0.08 0.73 z" fill="#FFF"/>
  <path d="M31.6 23.89c0-0.45-0.08-0.9-0.09-1.35a0.78 0.78 0 0 1 1.1-0.65 0.72 0.72 0 0 1 0.34 0.57 8.19 8.19 0 0 1 0.15 2 6.33 6.33 0 0 1-0.38 1.67A6.62 6.62 0 0 1 30.81 29a6 6 0 0 1-2.2 1.28 6.52 6.52 0 0 1-1.21 0.31 5.09 5.09 0 0 1-1.51 0.05 c-0.33-0.07-0.66-0.09-1-0.15a6.29 6.29 0 0 1-1.68-0.62 6.65 6.65 0 0 1-1.85-1.43A6.58 6.58 0 0 1 20 26a6.86 6.86 0 0 1-0.34-2.15 7.22 7.22 0 0 1 0.31-1.95A6.53 6.53 0 0 1 21.7 19a6.41 6.41 0 0 1 2.3-1.44 12.68 12.68 0 0 1 1.25-0.31 5.87 5.87 0 0 1 1.87-0.05 5.64 5.64 0 0 1 1.71 0.42 l0.43 0.19 a0.74 0.74 0 0 1 0.35 0.87 0.68 0.68 0 0 1-0.68 0.52 1.79 1.79 0 0 1-0.51-0.11 7.63 7.63 0 0 0-1.51-0.4 4.83 4.83 0 0 0-1.37 0 4.77 4.77 0 0 0-2.07 0.79 5.2 5.2 0 0 0-1.89 2.21 4.72 4.72 0 0 0-0.4 1.47 4.79 4.79 0 0 0 0.23 2.4 5.26 5.26 0 0 0 1.21 1.95 5 5 0 0 0 2 1.25 5.64 5.64 0 0 0 1.63 0.29 5 5 0 0 0 3.15-0.92 5.19 5.19 0 0 0 1.92-2.61 4.32 4.32 0 0 0 0.28-1.63zM13.88 9.9a41.12 41.12 0 0 0 3.44-5.24 53.25 53.25 0 0 1-3.75 5.09 2.72 2.72 0 0 1-0.09-0.4c-0.05-0.41-0.07-0.82-0.12-1.23a7.67 7.67 0 0 1 0.1-1.73 7.87 7.87 0 0 1 0.7-2.46 4.87 4.87 0 0 1 2-2.17A17.74 17.74 0 0 1 19.12 0.45 l1-0.41h0.14c0.064 0.233 0.11 0.47 0.14 0.71 0 0.56 0.06 1.11 0.08 1.67a6.6 6.6 0 0 1-0.26 1.87 6.87 6.87 0 0 1-1.07 2.33 7.33 7.33 0 0 1-1.81 1.79c-0.623 0.44 -1.294 0.81 -2 1.1-0.42 0.17 -0.85 0.3 -1.28 0.45 a0.47 0.47 0 0 1-0.17 0l-0.01-0.06z" fill="#FFF"/>
  <path d="M32.2 19.61c0 0.29-0.16 0.48 -0.32 0.69 l-1.66 2.07-1.41 1.7c-0.35 0.43 -0.69 0.87 -1 1.3a4.73 4.73 0 0 1-0.82 0.85 1.21 1.21 0 0 1-1.83-0.45c-0.46-0.71-0.85-1.47-1.27-2.21l-0.5-0.94a0.77 0.77 0 0 1 0.34-0.94 0.76 0.76 0 0 1 1 0.13c0.47 0.47 0.93 0.93 1.39 1.41 0.12 0.12 0.19 0.12 0.31 0l2.93-2.78c0.52-0.487 1.04-0.967 1.56-1.44a0.7 0.7 0 0 1 0.83-0.14 0.72 0.72 0 0 1 0.45 0.75 z" fill="#FFF"/>
</svg>
