<?xml version="1.0" ?>
<svg xmlns="http://www.w3.org/2000/svg" width="40" height="36" viewBox="0 0 40 36">
  <path d="M6.42 4.36c0.16-0.43 0.29 -0.84 0.47 -1.23A5.51 5.51 0 0 1 12.52 0a5.34 5.34 0 0 1 3.4 1.75 5.61 5.61 0 0 1 1.28 2.43 5.25 5.25 0 0 1 0.13 1.93 5.39 5.39 0 0 1-1.51 3.22 0.27 0.27 0 0 1-0.07 0.08 c-0.18 0.11 -0.15 0.24 0 0.39l1.18 1.76L18.51 14a0.32 0.32 0 0 0 0.3 0.16 c0.83 0 1.66-0.08 2.49-0.08 1.13 0 2.26 0 3.38 0.09 0.75 0 1.49 0.14 2.23 0.22 0.52 0.06 1.05 0.11 1.58 0.19 s1.07 0.19 1.6 0.3 c0.53 0.11 1 0.22 1.54 0.36 1.249 0.3 2.438 0.808 3.52 1.5 0.536 0.334 0.95 0.832 1.18 1.42 0.12 0.36 0.2 0.73 0.3 1.09 0.1 0.36 0.26 0.94 0.38 1.41s0.24 0.91 0.37 1.37c0.13 0.46 0.24 0.91 0.37 1.37 0.13 0.46 0.25 0.91 0.37 1.37l0.39 1.43 0.36 1.33 0.39 1.47c0.13 0.45 0.24 0.9 0.36 1.35 0.07 0.25 0.12 0.51 0.2 0.75a0.59 0.59 0 0 1-0.17 0.7 8.24 8.24 0 0 1-1.2 0.74 c-0.963 0.46 -1.967 0.83 -3 1.1-0.84 0.23 -1.67 0.46 -2.51 0.66 -0.84 0.2 -1.44 0.34 -2.17 0.48 -0.58 0.11 -1.16 0.19 -1.73 0.27 -0.73 0.11 -1.46 0.22 -2.19 0.31 -0.43 0-0.87 0.06 -1.3 0.11 a41.11 41.11 0 0 1-4.3 0.17 h-2.14c-0.94 0-1.89-0.1-2.83-0.16-0.55 0-1.09-0.1-1.63-0.17l-2-0.3c-0.54-0.09-1.08-0.17-1.61-0.28-0.53-0.11-1.07-0.24-1.6-0.39-0.53-0.15-1.33-0.37-2-0.6a8 8 0 0 1-3.33-2 2.61 2.61 0 0 1-0.68-1.46 1.18 1.18 0 0 1 0-0.37c0.11-0.43 0.23 -0.87 0.35 -1.31 0.12 -0.44 0.26 -0.94 0.38 -1.41s0.25-0.92 0.37 -1.39l0.36-1.35 0.42 -1.45c0.12-0.47 0.25 -0.94 0.38 -1.41l0.36-1.35 0.39 -1.43c0.06-0.22 0.08 -0.46 0.16 -0.68a2.94 2.94 0 0 1 1.29-1.47c0.28-0.18 0.58 -0.34 0.87 -0.5 0.13 -0.07 0.16 -0.13 0.07 -0.26a89.67 89.67 0 0 1-0.69-1c-0.08-0.11-0.14-0.16-0.3-0.09a5.28 5.28 0 0 1-2.71 0.51 5.47 5.47 0 0 1-3.65-1.74 5.31 5.31 0 0 1-1.22-2.1A5.69 5.69 0 0 1 0 9.15a5.49 5.49 0 0 1 2-3.58A5 5 0 0 1 4 4.5a5.34 5.34 0 0 1 1.73-0.22c0.27 0.01 0.46 0.05 0.69 0.08 zm1.07 16.25c-0.13 0.47 -0.25 0.89 -0.36 1.32-0.11 0.43 -0.24 0.93 -0.37 1.39-0.13 0.46 -0.31 1.12-0.46 1.68-0.15 0.56 -0.24 0.93 -0.37 1.4-0.13 0.47 -0.31 1.13-0.47 1.7-0.16 0.57 -0.31 1.24-0.46 1.9a0.59 0.59 0 0 0 0.06 0.52 c0.227 0.376 0.552 0.683 0.94 0.89 a13.46 13.46 0 0 0 3.77 1.48c0.66 0.18 1.34 0.31 2 0.44 0.66 0.13 1.5 0.28 2.26 0.39 0.76 0.11 1.53 0.18 2.3 0.25 0.77 0.07 1.62 0.14 2.42 0.16 2.1 0.05 4.2 0.07 6.29-0.08 0.33 0 0.67 0 1-0.09 0.59 -0.06 1.17-0.14 1.75-0.22 0.58 -0.08 1-0.11 1.43-0.19 0.68 -0.11 1.35-0.25 2-0.39 0.65 -0.14 1.13-0.21 1.69-0.35 0.77 -0.2 1.54-0.4 2.29-0.65 1-0.31 1.89-0.66 2.83-1 0.22-0.08 0.24 -0.18 0.17 -0.4-0.07-0.22-0.2-0.59-0.2-0.86-0.12-0.45-0.25-0.9-0.37-1.35-0.12-0.45-0.25-0.93-0.38-1.39-0.13-0.46-0.25-0.93-0.38-1.39l-0.36-1.37c-0.13-0.46-0.25-0.91-0.37-1.37l-0.39-1.41c-0.09-0.33-0.18-0.65-0.27-1a0.32 0.32 0 0 0-0.13 0.06 8.46 8.46 0 0 1-2 1.06c-0.63 0.23 -1.26 0.42 -1.9 0.61 -0.41 0.12 -0.83 0.2 -1.24 0.28 -0.41 0.08 -1 0.22-1.56 0.31 s-1 0.13-1.52 0.18 c-0.69 0.08 -1.38 0.19 -2.08 0.22 -1.12 0.06 -2.24 0.09 -3.36 0.1 H19.2c-0.83 0-1.93-0.14-2.89-0.22a6 6 0 0 1-0.95-0.1c-0.61-0.09-1.22-0.2-1.83-0.31-0.61-0.11-0.94-0.15-1.4-0.27-0.64-0.17-1.28-0.36-1.91-0.56a8.64 8.64 0 0 1-2.28-1.08l-0.45-0.29zM22 22l-0.25-0.36a249.816 249.816 0 0 0-3.4-5.2l-4.22-6.33a1.69 1.69 0 0 1-0.26-0.52c-0.11-0.42 0.15 -0.68 0.46 -0.91A3.85 3.85 0 0 0 15.84 6a3.82 3.82 0 0 0-0.7-2.82 3.88 3.88 0 0 0-2.49-1.61 3.79 3.79 0 0 0-2.33 0.21 3.9 3.9 0 0 0-2.46 3.47 1.08 1.08 0 0 1-0.13 0.43 0.77 0.77 0 0 1-1 0.3 3.7 3.7 0 0 0-2.37-0.05A4 4 0 0 0 2.3 7.37a4.36 4.36 0 0 0-0.77 1.86 4 4 0 0 0 0.05 1.42 3.87 3.87 0 0 0 0.8 1.67 4 4 0 0 0 2.88 1.49 4 4 0 0 0 2.51-0.66 0.78 0.78 0 0 1 1.17 0.25 l2.73 4c0.85 1.26 1.71 2.51 2.54 3.77a0.75 0.75 0 0 0 0.59 0.36 c0.67 0.09 1.34 0.18 2 0.24 0.89 0.08 1.79 0.14 2.69 0.18 0.9 0.04 1.51 0 2.26 0L22 22z" fill="#FFF"/>
</svg>
