<?xml version="1.0" ?>
<svg xmlns="http://www.w3.org/2000/svg" width="44" height="24" viewBox="0 0 44 24">
  <path d="M9.19 8.33l-2.1-0.17a2.16 2.16 0 0 1 0.16-0.22c0.67-0.8 1.33-1.62 2-2.39a9.28 9.28 0 0 1 1.14-0.91c1.92-1.45 3.83-2.9 5.75-4.33a3.07 3.07 0 0 1 0.75-0.31l0.11 0.09 -4.47 6.33 0.72 -0.25 2.22-0.84a0.58 0.58 0 0 1 0.78 0.28 0.56 0.56 0 0 1-0.38 0.75 l-0.32 0.11 -2 0.74v0.06h0.2l3.3-0.41 2.61-0.31c0.57-0.07 1.14-0.12 1.71-0.21a4.19 4.19 0 0 1 4.28 1.87 1.79 1.79 0 0 0 2 0.75c1-0.23 1.93-0.42 2.9-0.61a3.4 3.4 0 0 0 1.91-0.8c0.23-0.213 0.435 -0.45 0.61 -0.71a2.12 2.12 0 0 1 1.73-1c0.69-0.06 1.38-0.19 2.07-0.28l2.95-0.41 0.65 -0.09a0.34 0.34 0 0 1 0.2 0c0.1 0 0.23 0.11 0.27 0.19 0.04 0.08 -0.07 0.21 -0.15 0.27 l-1.54 1-9.31 5.78a1 1 0 0 0-0.32 1.56l1 1.44a0.3 0.3 0 0 1 0 0.08h0.07l0.17-0.56a6.67 6.67 0 0 1 4.2-4.33 6.21 6.21 0 0 1 3.49-0.25 6.63 6.63 0 0 1 4.9 4 6.23 6.23 0 0 1 0.55 3.6 6.56 6.56 0 0 1-3.63 4.94 6.32 6.32 0 0 1-4.18 0.61 6.63 6.63 0 0 1-4.82-3.63 0.32 0.32 0 0 0-0.34-0.21H17.44a7 7 0 0 1-4.22-1.34l-0.22-0.12-0.21-0.18-0.16 0.55 a6.29 6.29 0 0 1-3.23 4 6 6 0 0 1-4.54 0.54 6.25 6.25 0 0 1-4.47-4A6.4 6.4 0 0 1 4 10.86a6.17 6.17 0 0 1 3.91-0.32c0.18 0 0.29 0 0.37-0.16 0.26 -0.68 0.58 -1.38 0.91 -2.05zm-1.78 3.8a4.78 4.78 0 1 0 3.39 6.65 4.69 4.69 0 0 0-1.41-5.69l-0.11 0.19 c-0.62 1.32-1.23 2.64-1.86 4a1.105 1.105 0 1 1-2-0.94l1.29-2.74 0.7 -1.47zM35.35 18h-2c-0.4 0-0.4 0-0.26 0.38 a4.52 4.52 0 1 0 3-6 4.37 4.37 0 0 0-3 2.82c-0.11 0.28 -0.1 0.28 0.2 0.29 h3.91c0.2-0.006 0.4 0.025 0.59 0.09a1.24 1.24 0 0 1-0.47 2.4l-1.97 0.02 zM11.92 9.75c-0.36 0-0.54 0.34 -0.37 0.71 0.35 0.72 0.71 1.43 1.07 2.14a0.45 0.45 0 0 0 0.58 0.27 0.45 0.45 0 0 0 0.23-0.64L12.34 10a0.43 0.43 0 0 0-0.42-0.25zm3.3 2.65a0.58 0.58 0 0 0-0.05-0.17c-0.35-0.73-0.71-1.46-1.08-2.18a0.46 0.46 0 0 0-0.62-0.27 0.48 0.48 0 0 0-0.18 0.68 c0.18 0.35 0.35 0.71 0.53 1.06 0.18 0.35 0.37 0.76 0.57 1.14a0.41 0.41 0 0 0 0.51 0.22 0.45 0.45 0 0 0 0.32-0.48zm1.8 0a0.74 0.74 0 0 0-0.06-0.18l-1.05-2.15a0.46 0.46 0 1 0-0.81 0.4 l0.6 1.22c0.16 0.33 0.32 0.66 0.49 1a0.41 0.41 0 0 0 0.51 0.22 0.46 0.46 0 0 0 0.3-0.52l0.02 0.01 zm-4.5-7.88h-0.06c-1.05 0.9 -2.34 1.52-3.14 2.76l0.95 0.1 a0.42 0.42 0 0 0 0.44-0.21c0.52-0.75 1-1.5 1.57-2.24l0.24-0.41z" fill="#FFF"/>
</svg>
