<?xml version="1.0" ?>
<svg xmlns="http://www.w3.org/2000/svg" width="44" height="30" viewBox="0 0 44 30">
  <path d="M19.38 29.55c-1.27-0.06-2.24-0.09-3.21-0.14-0.61 0-1.23-0.09-1.83-0.17-0.6-0.08-1.35-0.21-2-0.32-0.52-0.09-1-0.17-1.54-0.28-0.54-0.11-1.26-0.31-1.88-0.49-0.62-0.18-1.17-0.34-1.75-0.54-0.58-0.2-1.11-0.41-1.64-0.61a15.08 15.08 0 0 1-2.4-1.25 8 8 0 0 1-2.59-2.43 3.38 3.38 0 0 1-0.48-1.22 4.14 4.14 0 0 1 0.6-2.85A6.41 6.41 0 0 1 3 17a11.61 11.61 0 0 1 2.16-1c0.65-0.24 1.31-0.46 2-0.67 0.36 -0.11 0.74 -0.18 1.11-0.27 0.37 -0.09 0.93 -0.22 1.39-0.32 0.46 -0.1 0.78 -0.14 1.17-0.21a4.78 4.78 0 0 0 0.57-0.09 0.85 0.85 0 0 1 0.6 0.11 c0.69 0.28 1.37 0.57 2.06 0.84 s1.11 0.41 1.68 0.58 c0.57 0.17 1.09 0.3 1.63 0.45 0.38 0.11 0.76 0.22 1.14 0.31 0.38 0.09 0.87 0.19 1.3 0.29 l1.38 0.28 1.34 0.22 1.44 0.21 c0.3 0 0.59 0.09 0.89 0.12 a31 31 0 0 0 4.5 0.08 12.1 12.1 0 0 0 1.82-0.27 6.22 6.22 0 0 0 2.49-1 0.18 0.18 0 0 1 0.15 0 10.46 10.46 0 0 1 3.3 2.47 4.24 4.24 0 0 1 0.88 1.6 3.51 3.51 0 0 1-0.45 2.8 6.86 6.86 0 0 1-2.34 2.26c-0.64 0.4 -1.31 0.76 -2 1.09a16.8 16.8 0 0 1-1.62 0.66 c-0.57 0.21 -1.15 0.41 -1.73 0.58 -0.58 0.17 -1 0.25-1.5 0.37 l-0.95 0.23 -0.55 0.1 -1.86 0.26 c-0.51 0.07 -1 0.14-1.54 0.18 l-4.08 0.29 z" fill="#FFF"/>
  <path d="M27.44 16.81c-0.81 0-1.63-0.08-2.44-0.15-0.81-0.07-1.46-0.18-2.18-0.29-0.57-0.08-1.13-0.18-1.7-0.29-0.57-0.11-0.89-0.21-1.34-0.31-0.45-0.1-0.81-0.18-1.21-0.29-0.4-0.11-1.09-0.32-1.63-0.48l-1.1-0.36c-0.58-0.2-1.16-0.39-1.72-0.62-0.56-0.23-1.15-0.48-1.71-0.75a15.84 15.84 0 0 1-3.31-2 5.52 5.52 0 0 1-1.35-1.49 2.1 2.1 0 0 1 0-2.35 2.85 2.85 0 0 1 1.16-1 5.09 5.09 0 0 1 2.59-0.53c0.226 0.05 0.44 0.146 0.63 0.28 a11 11 0 0 0 2 0.84c0.47 0.14 0.95 0.29 1.43 0.41 s0.71 0.13 1.07 0.19 l1.77 0.23 h2.87c0.63 0 1.26-0.14 1.88-0.23a8.21 8.21 0 0 1 0.83-0.14c0.198 0.014 0.391 0.065 0.57 0.15 0.66 0.24 1.31 0.49 2 0.74 0.987 0.406 1.94 0.89 2.85 1.45 0.668 0.393 1.316 0.82 1.94 1.28a5.89 5.89 0 0 1 1.78 2 1.94 1.94 0 0 1-0.33 2.33 3.55 3.55 0 0 1-1.41 0.84 12.51 12.51 0 0 1-3.94 0.54 z" fill="#FFF"/>
  <path d="M19.25 0c0.78 0 1.42 0.06 2.06 0.13 0.64 0.07 1.12 0.21 1.69 0.32 a7.91 7.91 0 0 1 1.85 0.6 4.4 4.4 0 0 1 1.87 1.43 1.72 1.72 0 0 1 0 1.91A3.92 3.92 0 0 1 25 5.72a15.3 15.3 0 0 1-1.88 0.68 14.21 14.21 0 0 1-1.62 0.3 12.1 12.1 0 0 1-2.64 0.14 c-0.72 0-1.44-0.13-2.15-0.23a10.76 10.76 0 0 1-1.58-0.35 6.29 6.29 0 0 1-2.74-1.49 2 2 0 0 1-0.6-1.25 1.63 1.63 0 0 1 0.34-1.07 4.1 4.1 0 0 1 1.61-1.28 8.39 8.39 0 0 1 1.91-0.69 15.78 15.78 0 0 1 1.63-0.29C18 0.1 18.68 0.05 19.25 0zM34.16 9.78c0-0.17 0-0.34 0.07 -0.5 0.07 -0.34 0.16 -0.68 0.24 -1 0.08-0.32 0.12 -0.63 0.19 -0.94 0.07 -0.31 0.17 -0.75 0.28 -1.11 0.11 -0.36 0.31 -1 0.49-1.44A4.5 4.5 0 0 1 36.55 3a4.61 4.61 0 0 1 1.61-1c0.61-0.21 1.21-0.42 1.83-0.59 0.62 -0.17 1.09-0.24 1.64-0.36l1-0.23 0.59 -0.1c0 0.18-0.07 0.33 -0.11 0.48 -0.16 0.68 -0.32 1.36-0.49 2a14.84 14.84 0 0 1-1 2.95 4.57 4.57 0 0 1-1.86 2 6.75 6.75 0 0 1-1.56 0.64 c-0.63 0.17 -1.25 0.34 -1.89 0.49 -0.35 0.08 -0.7 0.13 -1.05 0.19 l-1 0.19-0.1 0.12 zM43.65 15.46l-1 0.11c-0.7 0.06 -1.4 0.14 -2.11 0.15 a12.31 12.31 0 0 1-1.84-0.08 3.49 3.49 0 0 1-1.6-0.64 7.14 7.14 0 0 1-1.83-2.15c-0.43-0.68-0.82-1.39-1.22-2.09a0.53 0.53 0 0 1 0-0.11c0.18 0 0.35-0.07 0.52 -0.09 0.6 -0.07 1.19-0.15 1.79-0.2 0.6 -0.05 1.18-0.07 1.76-0.08a4 4 0 0 1 1.92 0.44 4.24 4.24 0 0 1 1.37 1.19 25.64 25.64 0 0 1 2.13 3.32l0.11 0.23 zM33.14 10c-0.16-0.1-0.31-0.18-0.45-0.27-0.47-0.33-0.94-0.65-1.4-1a8.14 8.14 0 0 1-2-1.87 2.81 2.81 0 0 1-0.54-1.5 15.88 15.88 0 0 1 0-1.63c0-0.44 0.14 -0.88 0.21 -1.32 0.07 -0.44 0.13 -0.75 0.2 -1.13 0.07 -0.38 0.11 -0.48 0.17 -0.77 0.71 0.53 1.38 1 2 1.53a9 9 0 0 1 1.52 1.42 3.66 3.66 0 0 1 0.8 1.68 5.32 5.32 0 0 1 0 1.76c-0.07 0.46 -0.13 0.92 -0.21 1.38-0.08 0.46 -0.17 1.1-0.3 1.72z" fill="#FFF"/>
</svg>
