<?xml version="1.0" ?>
<svg xmlns="http://www.w3.org/2000/svg" width="29" height="36" viewBox="0 0 29 36">
  <path d="M8.56 6.17h11.2c-0.05 0.24 -0.09 0.47 -0.14 0.7 -0.05 0.23 -0.08 0.35 -0.11 0.53 a6.64 6.64 0 0 0 0 1.94 4.26 4.26 0 0 0 2.2 3.14c0.472 0.28 0.98 0.496 1.51 0.64 0.53 0.13 1.06 0.25 1.59 0.35 a13.53 13.53 0 0 0 2.7 0.2 0.81 0.81 0 0 1 0.82 0.83 v20.58a0.83 0.83 0 0 1-0.82 0.83 H0.83a0.83 0.83 0 0 1-0.83-0.83V14.5a0.83 0.83 0 0 1 0.84-0.84 16.7 16.7 0 0 0 1.87-0.07c0.63-0.07 1.26-0.2 1.88-0.33a6.39 6.39 0 0 0 2.53-1.11 4.05 4.05 0 0 0 1.45-1.91 5 5 0 0 0 0.31-2c0-0.56-0.16-1.12-0.24-1.68-0.02-0.14-0.05-0.25-0.08-0.39zm5.62 8.12a9 9 0 1 0 0 18 9 9 0 0 0 0-18zM14.15 4.64H8.22c-0.24 0-0.29 0-0.3-0.27V2.23 0.62 A0.71 0.71 0 0 1 8.58 0h11.06a0.73 0.73 0 0 1 0.72 0.44 1 1 0 0 1 0.07 0.39 v3.35a1.11 1.11 0 0 1 0 0.17c0 0.26-0.06 0.29 -0.32 0.29 h-5.96z" fill="#FFF"/>
  <path d="M14 27.76h1.46c0.21 0 0.28-0.07 0.27 -0.28v-2c0-0.2 0.06 -0.26 0.27 -0.26h2c0.33 0 0.33 0 0.33-0.34v-2.21-0.64c0-0.21 0-0.31-0.33-0.31h-1.94c-0.32 0-0.33 0-0.33-0.32v-2c0-0.28 0-0.3-0.3-0.31h-2.84c-0.3 0-0.32 0-0.32 0.32 v1.9c0 0.35 0 0.37-0.38 0.38 H10c-0.26 0-0.29 0-0.29 0.29 v2.92c0 0.19 0.06 0.26 0.26 0.26h2c0.22 0 0.29 0.07 0.28 0.29 v2c0 0.29 0 0.29 0.3 0.3l1.45 0.01 z" fill="#FFF"/>
</svg>
