<?xml version="1.0" ?>
<svg xmlns="http://www.w3.org/2000/svg" width="44" height="27" viewBox="0 0 44 27">
  <path d="M8 8.53a9 9 0 0 1 7.39 2.39 9 9 0 0 1 2.93 7.21 5.1 5.1 0 0 1 6.69 0 9.22 9.22 0 0 1 10.22-9.62l-0.18-0.2-7.47-6.79c-0.2-0.18-0.41-0.36-0.32-0.67A0.94 0.94 0 0 1 28 0.17a0.74 0.74 0 0 1 0.69 0.19 c3.473 3.18 6.96 6.357 10.46 9.53 0.28 0.26 0.6 0.46 0.89 0.7a9 9 0 0 1 2.96 4.5 9.17 9.17 0 0 1-5.41 11.07 8.51 8.51 0 0 1-4.65 0.57 9 9 0 0 1-7.06-5.3c-0.15-0.33-0.25-0.68-0.39-1a1.14 1.14 0 0 0-0.25-0.39 4.87 4.87 0 0 0-4.39-1.38 4.8 4.8 0 0 0-2.73 1.46 0.85 0.85 0 0 0-0.17 0.29 9 9 0 0 1-5.45 5.8 8.55 8.55 0 0 1-4.85 0.48 9 9 0 0 1-6.97-5.6 8.66 8.66 0 0 1-0.57-4.8 9.24 9.24 0 0 1 3.24-5.74C4.76 9.33 6.12 8.05 7.5 6.8L14.73 0.21 a0.7 0.7 0 0 1 0.83-0.13 0.86 0.86 0 0 1 0.57 0.69 0.55 0.55 0 0 1-0.22 0.52 c-1.41 1.27-2.8 2.55-4.2 3.83l-3.53 3.2-0.18 0.14 v0.07zm1.14 1.62a7.5 7.5 0 1 0 7.52 7.49 7.48 7.48 0 0 0-7.49-7.49h-0.03zm25 0a7.5 7.5 0 1 0 7.45 7.44 7.48 7.48 0 0 0-7.37-7.44h-0.08z" fill="#FFF"/>
</svg>
