<?xml version="1.0" ?>
<svg xmlns="http://www.w3.org/2000/svg" width="44" height="18" viewBox="0 0 44 18">
  <path d="M2.29 16.81H0.38c-0.32 0-0.42-0.11-0.37-0.43 0.21 -1.28 0.4 -2.56 0.59 -3.85 0-0.28 0.15 -0.42 0.45 -0.42h2.82c0.89 0.1 1.33 0.57 1.23 1.46-0.1 0.89 -0.29 2-0.43 2.95 0 0.26-0.22 0.3 -0.44 0.29 H2.29zm0.14-0.81c0.133-0.01 0.267 -0.01 0.4 0 0.38 0.06 0.51-0.12 0.55 -0.47 0.07 -0.54 0.18 -1.07 0.25 -1.61 0.1 -0.72-0.09-0.92-0.8-0.93h-0.52c-0.25 0-0.35 0.09 -0.38 0.33 -0.08 0.59 -0.18 1.18-0.27 1.77-0.13 0.91 -0.13 0.91 0.77 0.91 zM18.84 12.07c-0.26 1.11-0.45 2.12-0.74 3.11a2 2 0 0 1-1.85 1.51c-1.22 0.08 -2.44 0.08 -3.66 0.11 -0.29 0-0.29-0.21-0.28-0.42l0.06-3.25v-1h1.38v3.27c0 0.55 0 0.55 0.52 0.55h1.19a1.33 1.33 0 0 0 1.39-1.22c0.16-0.77 0.31 -1.53 0.44 -2.3 0.05 -0.24 0.14 -0.35 0.39 -0.34 0.25 0.01 0.71 -0.02 1.16-0.02zM39.6 12.12h3a1 1 0 0 1 0.92 0.9 4.49 4.49 0 0 1-0.71 2.9l0.83 0.05 c-0.11 0.64 -0.31 0.82 -0.87 0.82 H39c0-0.6 0.27 -0.87 0.8 -0.87h1.3a0.71 0.71 0 0 0 0.8-0.71c0.08-0.513 0.14 -1.023 0.18 -1.53 0-0.5-0.16-0.72-0.66-0.75-0.5-0.03-0.74 0-1.11 0-0.68 0.01 -0.76-0.07-0.71-0.81zM7.85 16.79c0.11-0.65 0.28 -0.76 0.83 -0.85 0.29 0 0.71-0.19 0.79 -0.4 0.32 -0.81 0.53 -1.67 0.81 -2.61H8.59c-1 0-1 0-0.91-1 0.09-1 0.06-0.91 1-0.91 0.52 0 0.62-0.07 0.51 0.57-0.06 0.35 0 0.47 0.41 0.46h1.67c0.56 0 0.62 0.19 0.52 0.66 -0.18 0.77 -0.37 1.55-0.59 2.31a2.27 2.27 0 0 1-2.05 1.73c-0.45 0.08 -0.86 0.04 -1.3 0.04 zM32 16.76c0.13-0.4 0.18 -0.77 0.71 -0.86a0.88 0.88 0 0 0 0.54-0.54c0.23-0.69 0.38 -1.41 0.56 -2.11 0.08 -0.3-0.11-0.33-0.34-0.33h-2.55a0.54 0.54 0 0 1-0.59-0.64c0-0.08 0.22 -0.19 0.34 -0.19h4.24c0.41 0 0.58 0.18 0.49 0.58 -0.18 0.906 -0.41 1.8-0.69 2.68A2.19 2.19 0 0 1 32 16.76zM35.32 16.81c0.12-0.74 0.27 -0.87 0.91 -0.87s0.6 0 0.68-0.6c0.08-0.6 0.15 -1.13 0.2 -1.7 0.05 -0.57-0.11-0.64-0.62-0.64s-0.41-0.25-0.42-0.53c-0.01-0.28 0.19 -0.32 0.42 -0.32 0.393 -0.02 0.787 -0.02 1.18 0a0.91 0.91 0 0 1 0.89 1c-0.08 1.13-0.22 2.24-0.36 3.36a0.4 0.4 0 0 1-0.28 0.27 c-0.85 0.04 -1.71 0.03 -2.6 0.03 zM21.62 12.17c0.92 0 1.84-0.05 2.76 0a1 1 0 0 1 0.95 1.14c-0.06 1.09-0.21 2.18-0.35 3.27 0 0.07-0.17 0.18 -0.28 0.19 -0.11 0.01 -0.5 0-0.75 0s-0.4-0.09-0.36-0.39c0.11-0.75 0.19 -1.5 0.28 -2.25 0.01 -0.17 0.01 -0.34 0-0.51a0.62 0.62 0 0 0-0.66-0.72h-1c-0.53 0.03 -0.66-0.13-0.59-0.73zM17.13 4.78a4.75 4.75 0 1 1 9.5 0 4.75 4.75 0 0 1-9.5 0zm1.06-2.52a4.31 4.31 0 0 0-0.54 4l0.11 0.11 0.51 1c0.046 0.12 0.106 0.235 0.18 0.34 a4.37 4.37 0 0 0 4.37 1.48 4 4 0 0 0 2.77-1.95 4.31 4.31 0 0 0 0.16-4.65L24.6 1.24a4.27 4.27 0 0 0-4.15-0.72 3.85 3.85 0 0 0-2.26 1.75v-0.01zM19 16.81c0-0.32 0.07 -0.58 0.1 -0.84 0.13 -1.11 0.27 -2.23 0.4 -3.35 0.06 -0.54 0.06 -0.54 0.62 -0.54H21c-0.07 0.57 -0.13 1.07-0.19 1.58-0.11 0.92 -0.22 1.84-0.31 2.76 0 0.3-0.14 0.42 -0.45 0.4 -0.31-0.02-0.64-0.01-1.05-0.01z" fill="#FFF"/>
  <path d="M29.93 17.7c0.13-0.94 0.26 -1.8 0.38 -2.66v-0.16c0.14-1 0.47-1.19 1.53-1.07 0 0.23 0 0.46-0.07 0.69 -0.13 1-0.27 1.92-0.38 2.88 0 0.26-0.14 0.33 -0.38 0.33 s-0.66-0.01-1.08-0.01zM16.3 12.08c-0.09 0.75 -0.17 1.45-0.26 2.14 0 0.19 0 0.39-0.08 0.58 -0.12 0.72 -0.41 0.94 -1.14 0.91 -0.2 0-0.29-0.07-0.27-0.28 0.11 -1 0.22-2.08 0.35 -3.11a0.33 0.33 0 0 1 0.21-0.23c0.37-0.02 0.75 -0.01 1.19-0.01zM7.24 12.08c-0.11 0.78 -0.2 1.48-0.32 2.18a0.32 0.32 0 0 1-0.2 0.21 c-0.39 0.11 -0.78 0.19 -1.26 0.3 0-0.32 0-0.52 0.07 -0.72 0.07 -0.55 0.15 -1.1 0.21 -1.65 0-0.23 0.11 -0.33 0.35 -0.33s0.71 0.01 1.15 0.01 zM26.21 14.78c0.13-0.92 0.23 -1.68 0.35 -2.43a0.33 0.33 0 0 1 0.21-0.23h1.24c-0.1 0.75 -0.19 1.46-0.3 2.16a0.29 0.29 0 0 1-0.18 0.18 l-1.32 0.32 zM24.6 1.24l1.14 1.31c0.03 0.14 0.07 0.276 0.12 0.41 0.41 0.893 0.499 1.9 0.25 2.85-0.143 0.476 -0.32 0.94 -0.53 1.39-0.1 0.11 -0.21 0.2 -0.3 0.31 a4 4 0 0 1-3.12 1.56c-0.11-0.14-0.23-0.28-0.36-0.29-0.13-0.01-0.21 0.17 -0.4 0.34 -0.15 0-0.42-0.06-0.69-0.12a4.9 4.9 0 0 1-2.45-1.67l-0.51-1a4.49 4.49 0 0 1 0.38-3.88 0.53 0.53 0 0 0 0.05-0.19c0.09-0.09 0.2 -0.17 0.28 -0.26a4.36 4.36 0 0 1 5.7-1c0.15 0.12 0.3 0.17 0.44 0.24 zM22 6.7v0.19l-0.44 0.31 -0.43-0.13c-0.05 0.48 0 0.55 0.6 0.44l-0.21 0.28 0.5 0.08 c0 0.28 0.15 0.32 0.33 0.29 0.18 -0.03 0.3 -0.21 0.17 -0.46l-0.52 0.18 c0.24-0.42-0.14-0.3-0.32-0.36l-0.16-0.32a1 1 0 0 0 0.33 0.06 c0.18 0 0.37-0.1 0.19 -0.35 0.44 0.08 0.54 0 0.44-0.44l-0.35 0.14 v-0.24c0.32 0 0.4-0.16 0.43 -0.44a1.41 1.41 0 0 1 1.92-1.35c0.306 0.084 0.607 0.187 0.9 0.31 0.154 0.069 0.304 0.145 0.45 0.23 l0.1-0.09c-0.07-0.11-0.11-0.27-0.21-0.33a3.47 3.47 0 0 0-1.88-0.53 1.58 1.58 0 0 0-1.54 1.25c-0.07 0.24 -0.21 0.46 -0.3 0.7 0 0.07 0 0.16 0.05 0.24l-0.33-0.07c-0.08-0.19-0.26-0.39-0.25-0.57A2.29 2.29 0 0 1 23.6 3.4a10.1 10.1 0 0 1 1.72 0.16 c0.12 0 0.24 0.07 0.37 0.1 l0.07-0.1c-0.11-0.11-0.21-0.28-0.35-0.33-1.94-0.7-4.17 0-4.34 2.69 0 0.39 0.11 0.49 0.54 0.4l-0.09 0.29 -0.39-0.16-0.1 0.07 c0.06 0.14 0.09 0.31 0.19 0.39 0.1 0.08 0.24 0 0.36 0a1 1 0 0 0 0-0.28l0.42 0.07 zm3.85-2.3l0.09-0.06c-0.09-0.11-0.15-0.26-0.27-0.32a3.44 3.44 0 0 0-2.11-0.38 2.24 2.24 0 0 0-1.89 2.1c0 0.08 0.08 0.17 0.13 0.25a1.84 1.84 0 0 0 0.2-0.17 0.77 0.77 0 0 0 0.06-0.23A1.87 1.87 0 0 1 24.4 4c0.488 0.104 0.969 0.238 1.44 0.4 h0.01zM21 3.16c0.21-0.05 0.36 0 0.43-0.1a3.76 3.76 0 0 1 3.2-0.84c0.087 0.005 0.173 0.005 0.26 0-0.53-0.86-3.13-0.22-3.89 0.94 zm4.3-0.35l0.08-0.06a1.54 1.54 0 0 0-0.48-0.27 4.21 4.21 0 0 0-2.2 0.13 4.44 4.44 0 0 0-1 0.58c-0.06 0 0 0.19-0.05 0.29 -0.05 0.1 0.21 0 0.27-0.06a2.33 2.33 0 0 1 1.48-0.6c0.68-0.04 1.31-0.01 1.94-0.01h-0.04zm-4.86 0v0.13c0.132-0.04 0.257 -0.1 0.37 -0.18a3.27 3.27 0 0 1 1.64-1c0.52-0.13 1-0.2 1.56-0.29-0.61-0.63-2.73 0.15 -3.53 1.36l-0.04-0.02zM18 3.75l0.08 0.07 c0.23-0.08 0.45 -0.16 0.68 -0.22a3.14 3.14 0 0 1 2.42 0.24 c0.1 0.06 0.25 0 0.37 0-0.06-0.11-0.11-0.26-0.2-0.31a3.54 3.54 0 0 0-3.11-0.1c-0.13 0.06 -0.19 0.22 -0.24 0.32 zm-0.13 0.77 c1.13-0.44 2.18-0.72 3.24 0 0.24-0.24 0.08 -0.35-0.1-0.44a3.27 3.27 0 0 0-3 0.17c-0.09 0.01 -0.11 0.17 -0.17 0.27 h0.03zm3.06 0.6 c0.22-0.32 0-0.45-0.21-0.57a2.9 2.9 0 0 0-2.72 0.36 c-0.07 0.06 -0.06 0.2 -0.11 0.37 1-0.49 1.96-1.04 3.01-0.16h0.03zm-0.1-3c-0.95-0.33-1.8-0.23-2 0.25 0.63 -0.28 1.33 0.03 1.97-0.24l0.03-0.01zm-0.47 0.58 c-0.91-0.32-1.85-0.14-2 0.22 0.55 0 1.11 0 1.67-0.08a1 1 0 0 0 0.3-0.13l0.03-0.01zm-0.79-1.1c0.61-0.09 1.21 0.33 1.91 0.1 a1.82 1.82 0 0 0-1.91-0.1zm2.09 6.49v-0.13l-0.54-0.29-0.11 0.1 c0.06 0.12 0.09 0.3 0.19 0.35 a1 1 0 0 0 0.46-0.03zm-0.49 0.2 l-0.14 0.1 c0.07 0.11 0.11 0.3 0.2 0.33 a1 1 0 0 0 0.44 0v-0.15l-0.5-0.28zm1.42-1.14l-0.11-0.08-0.48 0.28 v0.14a1.5 1.5 0 0 0 0.47 0c0.04-0.03 0.07 -0.22 0.12 -0.34zm0 1.27l-0.11-0.12-0.48 0.27 v0.13c0.136 0.024 0.274 0.024 0.41 0 0.07-0.01 0.12 -0.17 0.18 -0.28z" fill="#FFF"/>
</svg>
