<?xml version="1.0" ?>
<svg xmlns="http://www.w3.org/2000/svg" width="37" height="31" viewBox="0 0 37 31">
  <path d="M18.73 0.09 c0.06 0.05 0.11 0.13 0.19 0.15 a1 1 0 0 1 0.76 0.91 3.54 3.54 0 0 1-0.28 1.79c-0.14 0.35 -0.33 0.69 -0.5 1a0.83 0.83 0 0 0 0 0.62c0.161 0.462 0.213 0.955 0.15 1.44a24.2 24.2 0 0 1-0.31 1.7 11.76 11.76 0 0 1-0.44 1.54 1.1 1.1 0 0 0 0 0.8c0.2 0.52 0.37 1 0.55 1.57a0.71 0.71 0 0 0 0.07 0.16 c0.24-0.07 0.48 -0.16 0.72 -0.21a6.54 6.54 0 0 1 3.14 0 5.59 5.59 0 0 1 2.11 1.12c0.12 0.1 0.19 0.11 0.3 0a1.31 1.31 0 0 1 0.82-0.36 4.88 4.88 0 0 1 2.21 0.32 10.1 10.1 0 0 1 2 0.85 5.09 5.09 0 0 1 1.64 1.75c0.243 0.38 0.51 0.744 0.8 1.09a3 3 0 0 0 2.3 1.08 4.59 4.59 0 0 0 1.61-0.19h0.08a0.94 0.94 0 0 1 0 0.66 2.8 2.8 0 0 1-2.17 1.87 4.55 4.55 0 0 1-3.31-0.79 5.25 5.25 0 0 1-2-2.37 5.62 5.62 0 0 0-2.44-2.57l-0.23-0.09c0 0.17 0 0.32 0.07 0.46a4.68 4.68 0 0 1 0 2c-0.13 0.63 -0.23 1.26-0.35 1.88-0.12 0.62 -0.23 1.05-0.33 1.58a4.25 4.25 0 0 0-0.08 0.61 0.83 0.83 0 0 0 0.44 0.81 c0.567 0.271 0.833 0.932 0.61 1.52a16 16 0 0 0-0.28 2.93 0.78 0.78 0 0 0 0.24 0.6 1.93 1.93 0 0 0 1.31 0.69 0.4 0.4 0 0 1 0.41 0.42 2.38 2.38 0 0 1-0.36 1.38c-0.14 0.21 -0.29 0.41 -0.43 0.61 s-0.14 0.13 -0.27 0.07 a3.09 3.09 0 0 1-1.64-1.71 12 12 0 0 1-0.84-2.62 2.26 2.26 0 0 1 0-0.52 2.57 2.57 0 0 0-1-2.21 4.07 4.07 0 0 1-1.31-1.78v-0.06l-0.06-0.06c-0.07 0.1 -0.15 0.19 -0.21 0.28 -0.3 0.5 -0.61 1-0.89 1.5a2.57 2.57 0 0 0-0.25 1.78 0.91 0.91 0 0 1-0.28 0.91 c-0.54 0.55 -1.09 1.09-1.59 1.67a6.45 6.45 0 0 0-1.37 2.29c-0.13 0.44 -0.23 0.89 -0.34 1.34-0.07 0.28 -0.06 0.29 -0.34 0.28 -0.49 0-1 0-1.46-0.08a1.57 1.57 0 0 1-0.47-0.13 0.43 0.43 0 0 1-0.24-0.67 4.73 4.73 0 0 1 1-1.39 2.21 2.21 0 0 0 0.58-1c0.05-0.19 0.12 -0.38 0.17 -0.57a3.44 3.44 0 0 1 0.61-1.09 20.88 20.88 0 0 0 1.79-2.84 1.56 1.56 0 0 0 0.19-0.73c0-0.69 0-1.38-0.1-2.08 0-0.28-0.08-0.57-0.1-0.85-0.02-0.28-0.07-0.19-0.21-0.17a39.41 39.41 0 0 1-5.43 0.24 12.35 12.35 0 0 1-3.09-0.46c-0.21-0.06-0.43-0.1-0.67-0.15-0.05 0.28 -0.11 0.54 -0.14 0.8 -0.08 0.69 -0.16 1.38-0.21 2.07-0.01 0.378 0.01 0.756 0.06 1.13 0.09 0.86 0.19 1.72 0.29 2.59 0.06 0.54 0.13 1.08 0.21 1.62a5.21 5.21 0 0 1-0.1 1.67c-0.06 0.4 -0.11 0.81 -0.2 1.2a2.2 2.2 0 0 1-0.25 0.54 0.17 0.17 0 0 1-0.14 0.07 H7.6a0.26 0.26 0 0 1-0.16-0.09 0.94 0.94 0 0 1 0.3-1.32c0.26-0.15 0.53 -0.28 0.8 -0.41a0.21 0.21 0 0 0 0.16-0.21c0-0.67 0-1.34-0.09-2-0.09-0.66-0.19-1-0.25-1.55-0.08-0.68-0.12-1.37-0.18-2.05a12.17 12.17 0 0 0 0.14-2.83 2.45 2.45 0 0 0 0-0.25l-0.32 0.05 a3.58 3.58 0 0 0-1.5 1.42 5.43 5.43 0 0 0-0.5 2.41 1.11 1.11 0 0 0 0.28 0.75 l1.08 1.33a0.36 0.36 0 0 1 0.09 0.38 c-0.15 0.44 -0.27 0.89 -0.41 1.33a0.93 0.93 0 0 1-0.1 0.21 l-1.22-0.79-0.06-0.05a1.79 1.79 0 0 1-0.73-2.11 1.54 1.54 0 0 0-0.16-0.79 4.77 4.77 0 0 1-0.35-1.49A4 4 0 0 1 5.11 20a21.26 21.26 0 0 0 1.11-2 4.09 4.09 0 0 0 0.37-2.12c-0.07-0.88-0.16-1.75-0.2-2.62A4.24 4.24 0 0 0 6 11.8l-0.91-2.34c0-0.14-0.11-0.19-0.26-0.14l-1.17 0.33 a1 1 0 0 0-0.67 0.58 c-0.15 0.33 -0.29 0.67 -0.46 1a1.65 1.65 0 0 1-1.85 0.86 c-0.35-0.06-0.49-0.32-0.61-0.6a0.8 0.8 0 0 1 0-0.72c0.35-0.7 0.69 -1.4 1-2.11a8.88 8.88 0 0 0 0.31-1c0.186-0.468 0.45 -0.9 0.78 -1.28 0.17 -0.24 0.35 -0.47 0.53 -0.7a0.3 0.3 0 0 0 0-0.29 3 3 0 0 1 0.12-2c0-0.12 0.12 -0.16 0.24 -0.08 0.34 0.23 0.69 0.46 1 0.71 0.33 0.28 0.571 0.653 0.69 1.07a0.53 0.53 0 0 0 0.45 0.37 8.34 8.34 0 0 1 2.98 1.16 19.27 19.27 0 0 1 3 2.39 0.44 0.44 0 0 0 0.52 0.13 c0.67-0.25 1.36-0.43 2-0.7 0.64 -0.27 1.28-0.59 1.91-0.91a0.28 0.28 0 0 0 0.12-0.21 3.42 3.42 0 0 0 0-0.64 1.28 1.28 0 0 1 0.28-0.89c0.24-0.31 0.5 -0.61 0.72 -0.94a2.85 2.85 0 0 0 0.28-0.64 0.29 0.29 0 0 0-0.1-0.25c-0.43-0.16-0.49-0.55-0.58-0.92a4.31 4.31 0 0 1-0.11-0.49 0.62 0.62 0 0 0-0.41-0.55 0.31 0.31 0 0 1-0.05-0.57 0.64 0.64 0 0 1 0.25-0.1c0.3-0.054 0.571 -0.21 0.77 -0.44 0.12 -0.13 0.24 -0.25 0.35 -0.39 0.207 -0.312 0.556 -0.5 0.93 -0.5h0.7l-0.02 0.09 zm-2.67 9.33c0-0.19-0.08-0.26-0.32-0.2a9.23 9.23 0 0 0-1.41 0.43 6.56 6.56 0 0 1-1.35 0.54 c-0.13 0-0.09 0.1 0 0.17s0.45 0.38 0.66 0.58 c0.21 0.2 0.21 0.13 0.33 0a0.28 0.28 0 0 1 0.18-0.09l0.91-0.22a1.42 1.42 0 0 0 1-1.21z" fill="#FFF"/>
</svg>
