<?xml version="1.0" ?>
<svg xmlns="http://www.w3.org/2000/svg" width="36" height="36" viewBox="0 0 36 36">
  <path d="M26.84 15.63a3.56 3.56 0 0 0 0 0.43c0 1.21 0.06 2.41 0.07 3.62 0 1.92 0.07 3.85 0.07 5.77a10.25 10.25 0 0 1-0.53 3.48c-0.19 0.51 -0.45 1-0.67 1.5a1.37 1.37 0 0 0-0.12 0.44 v1.44c0 0.18-0.06 0.23 -0.23 0.23 h-7.16c-0.2 0-0.26-0.06-0.26-0.25V5.55c0-0.31 0-0.3 0.3 -0.36a5.49 5.49 0 0 0 3.85-2.36 3.91 3.91 0 0 0 0.6-1.56c0-0.15 0.09 -0.16 0.21 -0.11L27.54 3c0.41 0.16 0.81 0.38 1.21 0.57 a2.46 2.46 0 0 1 1.34 1.67l1 3.85c0.32 1.29 0.64 2.59 0.94 3.88 0.3 1.29 0.62 2.65 0.93 4 0.31 1.35 0.58 2.48 0.86 3.72 0.24 1 0.46 2.07 0.68 3.11 0.19 0.87 0.37 1.75 0.53 2.63a19.65 19.65 0 0 1 0.35 3.43 4.61 4.61 0 0 1-0.39 2 1.36 1.36 0 0 0-0.07 0.89 c0.11 0.56 0.24 1.11 0.37 1.66 0 0.23 0 0.26-0.19 0.3 l-2.27 0.44 c-0.12 0-0.18 0-0.22-0.12-0.17-0.64-0.34-1.28-0.54-1.92a1 1 0 0 0-0.28-0.45 4.08 4.08 0 0 1-1.43-2.37c-0.33-1.23-0.62-2.48-0.92-3.72-0.3-1.24-0.63-2.67-0.94-4l-0.93-4c-0.21-0.93-0.43-1.85-0.65-2.77l-0.08-0.17zM24 21.79a0.65 0.65 0 0 0-0.18 0 0.8 0.8 0 0 0-0.44 1.09c0.27 0.75 0.53 1.5 0.79 2.26 0.18 0.5 0.35 1 0.55 1.5a0.76 0.76 0 0 0 1 0.38 0.74 0.74 0 0 0 0.44-0.91c-0.45-1.29-0.9-2.58-1.36-3.87a0.76 0.76 0 0 0-0.8-0.45zM8.49 15.74c-0.09 0.37 -0.19 0.74 -0.27 1.11a68.26 68.26 0 0 0-0.54 2.31c-0.18 0.76 -0.35 1.52-0.53 2.28-0.18 0.76 -0.34 1.49-0.52 2.23s-0.41 1.78-0.63 2.67c-0.22 0.89 -0.4 1.74-0.62 2.6-0.18 0.69 -0.37 1.37-0.6 2a3.11 3.11 0 0 1-1.08 1.54 1.25 1.25 0 0 0-0.45 0.75 c-0.13 0.54 -0.29 1.09-0.44 1.63-0.07 0.25 -0.09 0.25 -0.34 0.2 C1.75 35 1 34.8 0.27 34.67c-0.2 0-0.19-0.13-0.16-0.28 0.13 -0.6 0.28 -1.2 0.38 -1.81a1.55 1.55 0 0 0-0.1-0.77A5.81 5.81 0 0 1 0 29a28 28 0 0 1 0.61-4.07c0.3-1.36 0.59 -2.73 0.89 -4.09l0.84-3.72c0.28-1.2 0.58 -2.4 0.86 -3.61s0.55-2.34 0.85 -3.51c0.4-1.53 0.81 -3.06 1.23-4.58a3 3 0 0 1 1.47-1.77c0.8-0.48 1.643-0.882 2.52-1.2 0.94 -0.38 1.89-0.74 2.83-1.11 0.17 -0.07 0.24 -0.06 0.29 0.14a4.79 4.79 0 0 0 3.2 3.4c0.415 0.14 0.84 0.25 1.27 0.33 0.19 0 0.23 0.14 0.23 0.31 v26.7c0 0.34 0 0.34-0.33 0.34 H9.91c-0.25 0-0.25 0-0.25-0.26v-1.47a0.78 0.78 0 0 0-0.1-0.36 8.52 8.52 0 0 1-0.93-2.54 13.69 13.69 0 0 1-0.25-3.13c0-2.13 0.1 -4.27 0.15 -6.4 0-0.78 0-1.56 0.05 -2.34v-0.32h-0.09zm3.79 6.91a0.84 0.84 0 0 0-0.64-0.86 0.75 0.75 0 0 0-0.88 0.57 c-0.44 1.23-0.88 2.47-1.31 3.71a0.77 0.77 0 1 0 1.46 0.49 c0.36-1 0.74-2.09 1.11-3.13 0.1 -0.29 0.19 -0.57 0.26 -0.78z" fill="#FFF"/>
  <path d="M18.16 4.47c0.26-0.45 0.53 -0.86 0.75 -1.29a13.91 13.91 0 0 0 1-2.81c0.13-0.46 0-0.43 0.48 -0.23l1.51 0.65 a0.22 0.22 0 0 1 0.15 0.27 A3.54 3.54 0 0 1 20 4a10.46 10.46 0 0 1-1.56 0.49 1 1 0 0 1-0.28-0.02zM16.91 4.48l-0.57-0.1A4.29 4.29 0 0 1 13.87 3 3.74 3.74 0 0 1 13 1.12a0.25 0.25 0 0 1 0.2-0.33l1.63-0.73c0.18-0.09 0.23 0 0.28 0.13 0.16 0.56 0.31 1.11 0.5 1.65a8.58 8.58 0 0 0 1.28 2.5 0.59 0.59 0 0 1 0 0.08l0.02 0.06 z" fill="#FFF"/>
</svg>
