<?xml version="1.0" ?>
<svg xmlns="http://www.w3.org/2000/svg" width="29" height="37" viewBox="0 0 29 37">
  <path d="M18.44 0c0 0.44 0.06 0.86 0.08 1.29 0.02 0.43 0 1 0.1 1.48 0.06 0.65 0.16 1.29 0.26 1.93 0.07 0.48 0.14 1 0.23 1.45 0.09 0.45 0.22 1 0.33 1.47 0.11 0.47 0.24 1 0.38 1.48s0.35 1.14 0.54 1.71c0.19 0.57 0.37 1.08 0.58 1.61 0.21 0.53 0.54 1.31 0.83 2a28.27 28.27 0 0 0 2 3.75c0.26 0.4 0.54 0.78 0.81 1.18a0.07 0.07 0 0 1 0 0.08A31 31 0 0 1 19 12.52a28 28 0 0 1-3.4-8.19v20.1h7.43a0.35 0.35 0 0 0 0.37-0.24 9.54 9.54 0 0 1 1.69-2.57l0.1-0.1h0.05c-0.1 0.21 -0.22 0.41 -0.31 0.62 -0.23 0.58 -0.48 1.15-0.68 1.74-0.2 0.59 -0.25 1.12-0.44 1.62s-0.21 0.94 -0.31 1.41-0.18 0.9 -0.26 1.35c-0.08 0.45 -0.11 0.71 -0.16 1.06-0.07 0.51 -0.13 1-0.2 1.53 0 0.24-0.05 0.48 -0.07 0.72 l-0.09 1.2c-0.07 1-0.13 2-0.19 3v0.58H21v-0.88-0.43l0.21-2.33c0.05-0.46 0.09 -0.92 0.16 -1.38 0.07 -0.46 0.17 -1 0.26-1.5s0.15-0.78 0.24 -1.17c0.09-0.39 0.2 -0.84 0.31 -1.26 0.06 -0.23 0.13 -0.45 0.2 -0.69H7.07a39.87 39.87 0 0 1 1.45 9.64H7v-0.19c0-0.81 0-1.62-0.09-2.43s-0.18-1.73-0.26-2.55c-0.053-0.58-0.123-1.16-0.21-1.74a76.503 76.503 0 0 0-0.33-2C6 27 5.92 26.46 5.8 26c-0.12-0.46-0.3-1.13-0.46-1.69a13.52 13.52 0 0 0-1.14-2.79 0.31 0.31 0 0 0 0-0.09c0.25 0.29 0.47 0.53 0.68 0.79 a12 12 0 0 1 1.25 2.06c0.03 0.11 0.138 0.18 0.25 0.16 H13.32V4.34a29.45 29.45 0 0 1-3.28 8.15 29.94 29.94 0 0 1-5.41 6.9A35.09 35.09 0 0 0 11.09 0h7.35zM0 0h4.51a0.36 0.36 0 0 1 0 0.1c0 1 0 2-0.09 3 0 0.62-0.07 1.23-0.13 1.84-0.06 0.61 -0.14 1.43-0.22 2.15-0.06 0.52 -0.13 1-0.2 1.56s-0.18 1-0.27 1.55c-0.09 0.55 -0.14 0.9 -0.23 1.35-0.09 0.45 -0.17 0.81 -0.26 1.21-0.09 0.4 -0.15 0.73 -0.23 1.1l-0.33 1.29c-0.1 0.39 -0.2 0.77 -0.31 1.16-0.11 0.39 -0.25 0.88 -0.38 1.31-0.13 0.43 -0.31 0.94 -0.47 1.41-0.16 0.47 -0.25 0.71 -0.38 1.06 0 0.05-0.09 0.12 -0.14 0.12 H0V0z" fill="#FFF"/>
  <path d="M2.23 20.17A62.16 62.16 0 0 0 5.68 0h4.23v1c0 0.21 0 0.41-0.05 0.62 -0.06 0.63 -0.12 1.26-0.19 1.9-0.05 0.41 -0.1 0.82 -0.17 1.22s-0.17 0.83 -0.26 1.26c-0.09 0.43 -0.15 0.73 -0.24 1.09-0.09 0.36 -0.2 0.77 -0.31 1.16-0.11 0.39 -0.25 0.85 -0.4 1.27-0.2 0.59 -0.39 1.18-0.63 1.76-0.33 0.85 -0.66 1.72-1.07 2.54a30.13 30.13 0 0 1-2 3.65c-0.57 0.87 -1.18 1.72-1.77 2.58a0.23 0.23 0 0 1-0.25 0.12 h-0.34zM23.85 0a0.53 0.53 0 0 1 0 0.12c0 0.94 0 1.89 0.08 2.84 0 0.71 0.09 1.42 0.15 2.14 0 0.48 0.08 1 0.14 1.44 0.06 0.44 0.13 1.18 0.21 1.77 0.08 0.59 0.18 1.29 0.29 1.92 0.11 0.63 0.22 1.3 0.35 1.95 0.13 0.65 0.26 1.21 0.4 1.82 0.1 0.44 0.19 0.88 0.3 1.32 0.11 0.44 0.22 0.79 0.33 1.18 0.11 0.39 0.24 0.87 0.38 1.3 0.14 0.43 0.31 0.93 0.47 1.39 0.16 0.46 0.23 0.63 0.34 0.94a0.5 0.5 0 0 1-0.65-0.18 34.39 34.39 0 0 1-3.28-5.3c-0.5-1-1-2-1.4-3.07-0.29-0.68-0.51-1.38-0.74-2.08-0.23-0.7-0.39-1.2-0.55-1.81-0.16-0.61-0.26-1.08-0.38-1.63-0.12-0.55-0.22-1.14-0.29-1.72-0.07-0.4-0.12-0.82-0.16-1.23-0.07-0.71-0.13-1.43-0.18-2.15V0.01L23.85 0zM25 0h4v20.17h-0.34a0.18 0.18 0 0 1-0.09-0.08c-0.19-0.52-0.39-1-0.57-1.56-0.18-0.56-0.33-1-0.47-1.45-0.14-0.45-0.26-0.91-0.39-1.37l-0.33-1.22c-0.08-0.35-0.15-0.7-0.23-1.05-0.08-0.35-0.18-0.75-0.26-1.13-0.08-0.38-0.11-0.53-0.16-0.79-0.09-0.5-0.19-1-0.27-1.48-0.08-0.48-0.11-0.72-0.16-1.08-0.05-0.36-0.13-0.85-0.19-1.28 0-0.23-0.07-0.46-0.09-0.7-0.06-0.57-0.11-1.15-0.16-1.72-0.07-0.85-0.15-1.7-0.19-2.55-0.04-0.85-0.1-1.66-0.1-2.5V0zM0 21.31h0.87a0.18 0.18 0 0 1 0.11 0.1 c0.15 0.52 0.31 1 0.43 1.57 0.12 0.57 0.24 1.19 0.34 1.79 0.07 0.42 0.11 0.85 0.15 1.28 0.07 0.61 0.14 1.22 0.2 1.83 0 0.3 0.06 0.6 0.07 0.9 0.04 0.487 0.07 0.977 0.09 1.47 0.07 1.35 0.14 2.71 0.19 4.07v2H0V21.31zM27.37 21.31c-0.07 0.25 -0.14 0.48 -0.19 0.7 l-0.27 1.15c-0.07 0.33 -0.13 0.66 -0.19 1-0.06 0.34 -0.06 0.35 -0.08 0.53 -0.08 0.69 -0.16 1.38-0.23 2.07-0.08 0.87 -0.15 1.73-0.22 2.6-0.07 0.87 -0.1 1.54-0.13 2.32-0.06 1.54-0.1 3.08-0.15 4.63v0.07h-2.16v-1.59-0.44c0.06-0.79 0.1 -1.58 0.17 -2.37 0.05 -0.63 0.12 -1.25 0.21 -1.88 0.09 -0.63 0.17 -1.1 0.26 -1.65 0.09 -0.55 0.13 -0.92 0.23 -1.38 0.14 -0.64 0.31 -1.27 0.48 -1.91 0.185 -0.78 0.454 -1.537 0.8 -2.26 0.23 -0.47 0.51 -0.92 0.77 -1.38a0.34 0.34 0 0 1 0.38-0.19c0.107 0 0.214-0.007 0.32 -0.02zM2.17 21.31c0.146-0.01 0.294 -0.01 0.44 0a0.22 0.22 0 0 1 0.15 0.1 A7 7 0 0 1 3.68 23c0.22 0.56 0.44 1.12 0.62 1.7 0.18 0.58 0.26 1 0.38 1.48s0.23 1 0.33 1.53c0.07 0.33 0.11 0.67 0.16 1 0.05 0.33 0.13 0.84 0.19 1.25 0 0.21 0.06 0.41 0.08 0.62 0.02 0.21 0.06 0.65 0.09 1 0.07 0.69 0.15 1.37 0.19 2.06 0 0.89 0.07 1.77 0.1 2.66H3.63a0.76 0.76 0 0 1 0-0.15c0-1.28-0.05-2.57-0.1-3.85 0-0.91-0.08-1.82-0.14-2.73 0-0.6-0.08-1.21-0.14-1.82-0.06-0.61-0.14-1.32-0.25-2.01-0.11-0.69-0.16-1.3-0.29-1.94-0.13-0.64-0.36-1.53-0.54-2.3 0.02 -0.05 0.02 -0.11 0-0.19zM29 36.37h-1.87c-0.11 0-0.13-0.06-0.13-0.14v-0.87c0-1.18 0.06 -2.36 0.1 -3.53 0-0.81 0.09 -1.62 0.15 -2.43 0-0.56 0.08 -1.13 0.13 -1.69s0.14-1.35 0.22 -2c0.06-0.48 0.12 -1 0.21-1.44 0.09 -0.44 0.21 -1.07 0.34 -1.6 0.13 -0.53 0.23 -0.78 0.33 -1.18 0-0.15 0.12 -0.17 0.25 -0.16H29v15.04z" fill="#FFF"/>
</svg>
