<?xml version="1.0" ?>
<svg xmlns="http://www.w3.org/2000/svg" width="44" height="33" viewBox="0 0 44 33">
  <path d="M29 3.84H17.7c-0.39 0-0.39 0-0.39-0.41a10 10 0 0 0 0-1 1.656 1.656 0 0 0-3.31 0.1 v1c0 0.32-0.08 0.29 -0.3 0.29 h-2.59a1.7 1.7 0 0 0-1.27 0.48 2.6 2.6 0 0 0-0.49 0.84 c-0.98 2.347-1.95 4.68-2.91 7a0.32 0.32 0 0 1-0.35 0.22 H3.01a1.87 1.87 0 0 0-1.86 1.87v8.47c0 0.37 0 0.37-0.36 0.39 A0.83 0.83 0 0 0 0 24v3.11a0.86 0.86 0 0 0 0.88 0.86 h2.71c0.23 0 0.25-0.13 0.26 -0.31a5.8 5.8 0 0 1 3.34-5.07 5.94 5.94 0 0 1 8.26 3.36 9.69 9.69 0 0 1 0.35 1.7c0 0.23 0.1 0.32 0.34 0.32h12c0.23 0 0.35 0 0.36-0.32a6 6 0 0 1 11.67-1.55 9.69 9.69 0 0 1 0.28 1.58c0 0.21 0.1 0.3 0.31 0.3h1.77a1 1 0 0 0 1-1V7.36A3.42 3.42 0 0 0 40 3.84H29zm3.4 4.62h1.3c0.45 0 0.56 0.11 0.57 0.57 v2.25c0 0.25 0.08 0.33 0.32 0.33h2.33c0.37 0 0.5 0.14 0.5 0.51 v2.73c0 0.38-0.12 0.49 -0.5 0.49 h-2.31c-0.33 0-0.35 0-0.35 0.35 v2.25c0 0.44-0.12 0.56 -0.55 0.56 h-2.65c-0.41 0-0.52-0.12-0.53-0.53v-2.22c0-0.4 0-0.41-0.4-0.41h-2.22c-0.42 0-0.54-0.12-0.54-0.54v-2.63c0-0.45 0.12 -0.57 0.58 -0.57h2.25c0.25 0 0.35-0.07 0.34 -0.34V8.9c0-0.34 0.12 -0.45 0.46 -0.45l1.4 0.01 zM9.87 12.62a1.55 1.55 0 0 1 0-0.19c0.64-1.5 1.28-3 1.91-4.5a1.53 1.53 0 0 1 1.52-1h5.28c0.25 0 0.32 0.08 0.32 0.32 v5c0 0.36 0 0.37-0.38 0.37 H9.87z" fill="#FFF"/>
  <path d="M9.83 23.66a4.27 4.27 0 1 0 4.28 4.26 4.24 4.24 0 0 0-4.28-4.26zm1.43 4.27a1.42 1.42 0 1 1-1.41-1.43 1.44 1.44 0 0 1 1.41 1.43zM34.51 23.66A4.28 4.28 0 1 0 38.77 28a4.25 4.25 0 0 0-4.26-4.34zm0 5.7a1.43 1.43 0 1 1 1.44-1.43 1.44 1.44 0 0 1-1.47 1.43h0.03z" fill="#FFF"/>
</svg>
