<?xml version="1.0" ?>
<svg xmlns="http://www.w3.org/2000/svg" width="36" height="36" viewBox="0 0 36 36">
  <path d="M18.34 20.94V9.19c0-0.47 0-0.42 0.42 -0.42H35c0.29 0 0.29 0 0.29 0.29 v20.27a3.2 3.2 0 0 1-1.15 2.5A5.16 5.16 0 0 1 32 32.92a8.34 8.34 0 0 1-2.24 0.22 c-0.27 0-0.27 0-0.27 0.26 v1.06a1.1 1.1 0 0 1-0.82 1.12 1 1 0 0 1-1.31-0.76 10.47 10.47 0 0 1-0.07-1.18 2.71 2.71 0 0 1 0-0.32c0-0.15-0.05-0.19-0.2-0.19h-8.5c-0.21 0-0.25 0-0.25-0.27V29v-8.06zm4.39-2v-2.23a0.65 0.65 0 0 0-0.56-0.66c-0.47 0-0.81 0.17 -0.85 0.55 -0.04 0.38 0 0.93 0 1.39v3.06a0.9 0.9 0 0 0 0.09 0.41 0.71 0.71 0 0 0 0.85 0.34 0.69 0.69 0 0 0 0.5-0.69c-0.03-0.67-0.03-1.41-0.03-2.11v-0.06zM16.92 11.4v11c0 0.32 0 0.32-0.31 0.32 H0.24c-0.23 0-0.24 0-0.24-0.27v-4.8V3.84a3.21 3.21 0 0 1 1.3-2.59A5.25 5.25 0 0 1 3.18 0.31 a4.84 4.84 0 0 1 0.88-0.17C5.71 0 7.37 0.09 9 0.07h7.58c0.3 0 0.32 0 0.32 0.32 0.013 3.667 0.02 7.337 0.02 11.01zm-4.39 0.78 v2.23a0.71 0.71 0 0 0 1 0.62 0.74 0.74 0 0 0 0.44-0.76v-4.18a1 1 0 0 0-0.09-0.43 0.72 0.72 0 0 0-1.37 0.32 c0.03 0.74 0.02 1.47 0.02 2.2zM8.47 24.08h8.12c0.28 0 0.3 0 0.3 0.3 v8.56c0 0.24 0 0.27-0.26 0.27 H8.26c-0.25 0-0.26 0-0.26 0.25 v1.06a1.11 1.11 0 0 1-0.63 1.06A1.07 1.07 0 0 1 5.92 35a1.83 1.83 0 0 1-0.11-0.57v-1.06c0-0.15-0.06-0.19-0.2-0.2-0.51 0-1 0-1.52-0.07a5.61 5.61 0 0 1-1.67-0.47 4.44 4.44 0 0 1-1.84-1.42A2.44 2.44 0 0 1 0.06 30c0-0.29-0.06-0.57-0.06-0.86v-4.76c0-0.28 0-0.3 0.31 -0.31l8.16 0.01 zm0.2 4.24h1.84a0.62 0.62 0 0 0 0.56-0.28 0.77 0.77 0 0 0 0.05-0.77 0.72 0.72 0 0 0-0.67-0.42H6.88a0.71 0.71 0 0 0-0.71 0.76 c0.01 0.4 0.339 0.72 0.74 0.72 l1.76-0.01zM26.83 7.37h-8.18c-0.25 0-0.27 0-0.28-0.27V5.76 4.05 2.16v-1-0.92c0-0.31 0-0.23 0.24 -0.23h12a5.61 5.61 0 0 1 1.91 0.37 4.83 4.83 0 0 1 1.85 1.17c0.375 0.37 0.647 0.833 0.79 1.34 0.082 0.364 0.115 0.737 0.1 1.11v3c0 0.3 0 0.3-0.29 0.3 h-8.14v0.07zm-1.09-1.92h1.79a0.7 0.7 0 0 0 0.72-0.77 0.71 0.71 0 0 0-0.72-0.68H24a0.77 0.77 0 0 0-0.72 0.71 0.77 0.77 0 0 0 0.74 0.77 l1.72-0.03z" fill="#FFF"/>
</svg>
