<?xml version="1.0" ?>
<svg xmlns="http://www.w3.org/2000/svg" width="28" height="36" viewBox="0 0 28 36">
  <path d="M5.2 5.39l0.25 0.39 a22.49 22.49 0 0 1 2 3.41c0.24 0.52 0.44 1.06 0.69 1.58a7.67 7.67 0 0 0 2.09 2.71 7.94 7.94 0 0 0 2.07 1.2l0.34 0.11 a0.64 0.64 0 0 1 0 0.09 2 2 0 0 1-1.26 0.83 1.25 1.25 0 0 1-0.32-0.05 9.8 9.8 0 0 1-1.2-0.24c-0.54-0.16-1.07-0.36-1.6-0.56A11.31 11.31 0 0 1 6 13.61a11.23 11.23 0 0 1-2.22-2.08 6 6 0 0 1-1.07-1.95 8.5 8.5 0 0 1-0.44-2.06l-0.15-1.66c-0.05-0.59-0.07-1.18-0.12-1.77a7.13 7.13 0 0 0-0.79-2.7A4.66 4.66 0 0 0 0.12 0.15 L0 0.05V0l0.42 0.1 c0.63 0.22 1.25 0.42 1.87 0.66 0.62 0.24 1.3 0.5 1.93 0.8 0.92 0.44 1.83 0.89 2.72 1.44a18.48 18.48 0 0 1 3.76 2.71 9.29 9.29 0 0 1 2 2.68c0.29 0.627 0.53 1.276 0.72 1.94a8.19 8.19 0 0 1 0.32 2 2.26 2.26 0 0 1-0.38 1.57 0.22 0.22 0 0 1-0.28 0.1 7.45 7.45 0 0 1-4.28-3.74 22.08 22.08 0 0 0-3.5-4.9l-0.1 0.03 zM15.65 11.07a1.36 1.36 0 0 1 0 0.2v6.26c0 1.41 0.09 2.83 0.15 4.24 0 0.89 0.09 1.78 0.14 2.68 0 0.73 0.1 1.47 0.15 2.21 0.05 0.74 0.09 1.25 0.14 1.88 0.07 0.84 0.15 1.68 0.23 2.52 0 0.49 0.09 1 0.14 1.46 0.07 0.69 0.14 1.38 0.22 2.07 0.05 0.42 0.11 0.83 0.16 1.27h-3.9c-0.16 0-0.22 0-0.22-0.21 0-1.61 0.05 -3.21 0.09 -4.82 0-1.12 0.09 -2.23 0.15 -3.35 0-0.81 0.09 -1.61 0.14 -2.42 0.04 -0.607 0.09 -1.217 0.15 -1.83 0.07 -0.78 0.14 -1.55 0.22 -2.33 0.06 -0.61 0.14 -1.23 0.22 -1.84 0.08 -0.61 0.18 -1.35 0.29 -2 0.11-0.65 0.23 -1.35 0.37 -2 0.18-0.81 0.37 -1.61 0.59 -2.4 0.14 -0.53 0.34 -1 0.52-1.55l0.05-0.04zM27.8 2.26c0 0.15-0.06 0.32 -0.11 0.47 -0.36 1-0.69 2.06-1.1 3.06a12.14 12.14 0 0 1-2 3.43 6.27 6.27 0 0 1-2.24 1.58c-0.63 0.29 -1.26 0.56 -1.91 0.79 -0.42 0.15 -0.88 0.22 -1.32 0.33 a1.38 1.38 0 0 1-0.92 0 5.06 5.06 0 0 1-0.7-0.43 0.18 0.18 0 0 1 0-0.16c0.41-0.53 0.82 -1.06 1.25-1.57 0.382 -0.465 0.8 -0.9 1.25-1.3 0.57 -0.48 1.19-0.89 1.79-1.32l1.42-1v-0.06l-0.71 0.29 a10.17 10.17 0 0 0-2.2 1.19 11.71 11.71 0 0 0-2 1.86c-0.42 0.48 -0.82 1-1.22 1.49-0.1 0.12 -0.15 0.1 -0.25 0a1.08 1.08 0 0 1-0.2-1.06c0.1-0.41 0.21 -0.82 0.34 -1.22a7.65 7.65 0 0 1 1-2.08A7.94 7.94 0 0 1 19.7 4.8a4.67 4.67 0 0 1 1.61-0.8 10.7 10.7 0 0 1 2.17-0.3c0.53 0 1.05-0.07 1.57-0.14a3.85 3.85 0 0 0 2.61-1.26l0.08-0.1 0.06 0.06z" fill="#FFF"/>
</svg>
