<?xml version="1.0" ?>
<svg xmlns="http://www.w3.org/2000/svg" width="32" height="32" viewBox="0 0 32 32">
  <path d="M21.17 4.21a2.63 2.63 0 0 1-2.59 2.26 2.59 2.59 0 0 1-2.65-1.84 2.62 2.62 0 0 1-2.79 1.83 2.59 2.59 0 0 1-2.44-2.28 1.73 1.73 0 0 0-0.08 0.22 2.48 2.48 0 0 1-1.24 1.71 2.58 2.58 0 0 1-2.13 0.25 A2.55 2.55 0 0 1 5.66 5a7.34 7.34 0 0 1-0.29-0.8 0.3 0.3 0 0 0-0.06 0.1 A2.49 2.49 0 0 1 3.9 6.2a2.55 2.55 0 0 1-1.82 0.2 A2.65 2.65 0 0 1 0.51 5.33a3.66 3.66 0 0 1-0.41-1A4.69 4.69 0 0 1 0 2.9V0.24C0 0 0 0 0.24 0h31.33a0.42 0.42 0 0 1 0.15 0 0.27 0.27 0 0 1 0.11 0.11 v3.88a1 1 0 0 1-0.05 0.23 c0 0.13-0.07 0.26 -0.11 0.39 a2.55 2.55 0 0 1-1.61 1.69 2.33 2.33 0 0 1-1 0.17 2.63 2.63 0 0 1-2.25-1.37 4.86 4.86 0 0 1-0.27-0.78 0.7 0.7 0 0 0 0-0.09s-0.06 0.06 -0.06 0.09 A2.49 2.49 0 0 1 25.33 6a2.51 2.51 0 0 1-1.5 0.47 2.64 2.64 0 0 1-2.24-1.19 1.93 1.93 0 0 1-0.36-0.89 0.86 0.86 0 0 0-0.06-0.18zM26.4 6.85c0.38 0.22 0.71 0.45 1.07 0.62 a3.8 3.8 0 0 0 0.93 0.28 c0.33 0.061 0.665 0.081 1 0.06A3.53 3.53 0 0 0 31.56 7a0.58 0.58 0 0 1 0.13-0.07 0.82 0.82 0 0 1 0 0.15v24.46c0 0.22 0 0.22-0.22 0.22 H26c-0.13 0-0.15 0-0.13-0.16 0.08 -0.44 0.16 -0.87 0.25 -1.31 0.05 -0.27 0.12 -0.53 0.17 -0.8 0.05 -0.27 0.08 -0.48 0.13 -0.72s0.12-0.61 0.18 -0.92c0.06-0.31 0.09 -0.52 0.14 -0.78 0.05 -0.26 0.12 -0.57 0.17 -0.86l0.08-0.42 0.24 -1.26 0.14 -0.75 0.28 -1.51c0.06-0.31 0.11 -0.61 0.17 -0.92 0.06 -0.31 0.16 -0.75 0.24 -1.13 0.08 -0.38 0.09 -0.52 0.14 -0.78 0.05 -0.26 0.16 -0.79 0.23 -1.18 0.07 -0.39 0.12 -0.65 0.16 -1a6.88 6.88 0 0 0 0-1.07 7.09 7.09 0 0 0-0.17-1c-0.05-0.27-0.12-0.54-0.19-0.81s-0.12-0.45-0.17-0.67l-0.15-0.57-0.29-1.16c-0.1-0.39-0.19-0.78-0.29-1.18L27 9.38c-0.07-0.27-0.13-0.55-0.2-0.82-0.12-0.48-0.25-1-0.37-1.43a1.9 1.9 0 0 1-0.03-0.28zM5.38 6.82a0.74 0.74 0 0 1 0 0.16l-0.24 1-0.21 0.82 -0.36 1.36-0.2 0.78 L4.08 12c-0.1 0.38 -0.19 0.77 -0.29 1.15-0.1 0.38 -0.21 0.73 -0.3 1.1-0.09 0.37 -0.13 0.54 -0.19 0.81 a6.63 6.63 0 0 0-0.16 0.83 4.6 4.6 0 0 0 0 0.93c0 0.42 0.14 0.83 0.22 1.24 0.08 0.41 0.16 0.77 0.23 1.15 0.07 0.38 0.09 0.48 0.14 0.72 0.05 0.24 0.13 0.63 0.19 0.94 0.06 0.31 0.13 0.71 0.19 1.06 0.06 0.35 0.12 0.62 0.18 0.93 0.06 0.31 0.1 0.57 0.15 0.85 0.1 0.5 0.2 1 0.29 1.48 0.05 0.26 0.09 0.53 0.14 0.79 0.05 0.26 0.13 0.58 0.18 0.87 0.05 0.29 0.13 0.72 0.19 1.07 0.06 0.35 0.16 0.82 0.24 1.23 0.08 0.41 0.1 0.56 0.15 0.83 0.05 0.27 0.15 0.77 0.23 1.15l0.07 0.39 c0 0.11 0 0.14-0.13 0.14 H0.32c-0.24 0-0.24 0-0.24-0.24v-1.83V7.04a0.9 0.9 0 0 1 0-0.1c0-0.08 0-0.12 0.12 -0.05 0.37 0.317 0.798 0.558 1.26 0.71 a3.85 3.85 0 0 0 1.84 0.16 4 4 0 0 0 1.45-0.52c0.2-0.11 0.39 -0.24 0.63 -0.42z" fill="#FFF"/>
</svg>
