<?xml version="1.0" ?>
<svg xmlns="http://www.w3.org/2000/svg" width="35" height="32" viewBox="0 0 35 32">
  <path d="M18.07 21.09v5.24a2.66 2.66 0 0 1-1.55 2.47 2.73 2.73 0 0 1-3.82-1.66 4.54 4.54 0 0 1-0.13-0.9 9 9 0 0 1 0-1c0-0.21-0.07-0.27-0.26-0.25-0.19 0.02 -0.29 0-0.44 0-0.15 0-0.2-0.05-0.18-0.2l0.18-1.29 0.36 -2.5c0.08-0.65 0.16 -1.3 0.25 -1.94 0-0.05 0.09 -0.14 0.14 -0.14h1.27c0.1 0 0.14 0.05 0.16 0.15 0.21 1.61 0.43 3.21 0.65 4.81l0.12 0.84 c0 0.24 0 0.27-0.23 0.27 h-0.47c-0.11 0-0.17 0-0.17 0.15 v1.37a1.43 1.43 0 0 0 1.42 1.3 1.39 1.39 0 0 0 1.44-1.24c0.05-0.68 0-1.36 0-2.05v-8.4a3.55 3.55 0 0 1 0.74-2.28 3.33 3.33 0 0 1 2.63-1.31h3.73c0.21 0 0.26-0.06 0.26 -0.26 0-0.55 0-0.55 0.55 -0.55h8.16c0.26 0 0.26 0 0.26 0.27 v2.72c0 0.21-0.06 0.26 -0.26 0.26 h-2.21c-0.18 0-0.25 0-0.25 0.24 v3.52a0.58 0.58 0 0 0 0.12 0.36 c0.59 0.7 1.17 1.41 1.8 2.07A7.06 7.06 0 0 1 34.09 24a5.06 5.06 0 0 1 0.13 2.32 5.56 5.56 0 0 1-2.71 4 5.32 5.32 0 0 1-3.87 0.69 5.56 5.56 0 0 1-4.39-3.67 5.14 5.14 0 0 1 0.65-5c0.337-0.47 0.704 -0.918 1.1-1.34 0.55 -0.65 1.12-1.29 1.66-1.95a0.64 0.64 0 0 0 0.13-0.37v-3.52c0-0.19-0.05-0.25-0.24-0.25h-2.17c-0.19 0-0.27-0.06-0.26-0.25 0.01 -0.19 0-0.46 0-0.69 0-0.23 0-0.21-0.19-0.21h-3.77A2.17 2.17 0 0 0 18.07 16v5.12-0.03zM30.42 6.36v3.92c0 0.19-0.05 0.26 -0.25 0.26 h-3.11c-0.27 0-0.27 0-0.27-0.28V2.55c0-0.27 0-0.27-0.27-0.27h-1.23c-0.14 0-0.19 0-0.19-0.19V0.21c0-0.17 0.06 -0.21 0.22 -0.21h6.56c0.18 0 0.26 0.05 0.25 0.25 V2c0 0.16-0.05 0.22 -0.21 0.21 h-1.29c-0.16 0-0.21 0-0.21 0.21 0.01 1.31 0 2.63 0 3.94z" fill="#FFF"/>
  <path d="M16.23 9.67a14.67 14.67 0 0 1-1.09 1.72 17.3 17.3 0 0 1-1.53 1.78 16.27 16.27 0 0 1-3.88 3 10.54 10.54 0 0 1-3.49 1.23 7 7 0 0 1-2.1 0 5 5 0 0 1-1.32-0.4l-0.31-0.13a0.57 0.57 0 0 1-0.29-0.72c0.267-0.65 0.57 -1.285 0.91 -1.9 0.21 -0.36 0.41 -0.72 0.64 -1.07 0.195 -0.297 0.406 -0.584 0.63 -0.86 0.24 -0.3 0.48 -0.6 0.74 -0.88a12.67 12.67 0 0 1 1.68-1.52 25.71 25.71 0 0 1 2.9-1.83 26.92 26.92 0 0 0 2.36-1.43 9.72 9.72 0 0 0 1.47-1.25 8.55 8.55 0 0 0 1.64-2.52c0.12-0.29 0.22 -0.58 0.33 -0.87 0-0.09 0.09 -0.18 0.14 -0.27a0.21 0.21 0 0 1 0.35 0c0.22 0.235 0.427 0.482 0.62 0.74 a5.11 5.11 0 0 1 0.84 3.33 8.13 8.13 0 0 1-0.35 1.82 12.09 12.09 0 0 1-0.89 2.03z" fill="#FCFCFC"/>
  <path d="M14.92 1a0.71 0.71 0 0 1 0.14 0.1 0.22 0.22 0 0 1 0 0.3 3.75 3.75 0 0 1-0.24 0.36 A12.13 12.13 0 0 1 11 5c-0.78 0.43 -1.57 0.83 -2.36 1.23A17.4 17.4 0 0 0 6 7.8a9.05 9.05 0 0 0-3 3.93c-0.2 0.49 -0.38 1-0.54 1.5a18.41 18.41 0 0 0-0.55 2.53c0 0.12 0 0.23-0.08 0.35 -0.08 0.12 -0.15 0.2 -0.28 0.07 a8.24 8.24 0 0 1-0.55-0.62 4.63 4.63 0 0 1-1-2.65 7.17 7.17 0 0 1 0.25-2.26 11.33 11.33 0 0 1 1.32-3c0.28-0.45 0.57 -0.89 0.89 -1.31 0.372 -0.49 0.769 -0.961 1.19-1.41a15.9 15.9 0 0 1 2.86-2.45A12.54 12.54 0 0 1 10.2 0.72 a7.66 7.66 0 0 1 2.74-0.26 5.84 5.84 0 0 1 1.73 0.42 h0.13l0.12 0.06 V1z" fill="#FCFCFC"/>
</svg>
