<?xml version="1.0" ?>
<svg xmlns="http://www.w3.org/2000/svg" width="30" height="36" viewBox="0 0 30 36">
  <path d="M29.73 17.37V33.1a1.61 1.61 0 0 1-0.73 1.43 1.54 1.54 0 0 1-1 0.21 1 1 0 0 1-0.94-0.63 2 2 0 0 1-0.16-0.77V20.3c0-0.25 0-0.25-0.25-0.25h-5.08a0.69 0.69 0 0 1-0.53-0.21 0.55 0.55 0 0 1-0.11-0.62 0.53 0.53 0 0 1 0.54-0.36h5.19c0.25 0 0.25 0 0.25-0.26v-0.43c0-0.2 0-0.21-0.21-0.21h-5.09a0.67 0.67 0 0 1-0.53-0.14 0.62 0.62 0 0 1-0.16-0.65 0.55 0.55 0 0 1 0.54-0.36h5.24c0.2 0 0.21 0 0.21-0.2v-0.51c0-0.17 0-0.19-0.19-0.19h-5.16a0.8 0.8 0 0 1-0.37-0.08 0.53 0.53 0 0 1-0.29-0.61 0.54 0.54 0 0 1 0.37-0.44c0.11-0.014 0.22 -0.014 0.33 0h5.09c0.22 0 0.22 0 0.22-0.22v-0.41c0-0.25 0-0.25-0.24-0.25h-5.12a0.61 0.61 0 0 1-0.58-0.29 0.58 0.58 0 0 1 0.49-0.89h5.25c0.17 0 0.21-0.06 0.2 -0.21-0.01-0.15 0-0.33 0-0.5 0-0.17 0-0.21-0.21-0.21h-5.19a0.57 0.57 0 0 1-0.53-0.27 0.59 0.59 0 0 1 0-0.59 0.52 0.52 0 0 1 0.51-0.3h5.21c0.19 0 0.21 0 0.21-0.21v-0.52c0-0.17-0.05-0.18-0.19-0.18h-5.19a0.93 0.93 0 0 1-0.33-0.07 0.52 0.52 0 0 1-0.3-0.56 0.51 0.51 0 0 1 0.33-0.49 1.28 1.28 0 0 1 0.39-0.07h5.08c0.21 0 0.21 0 0.21-0.22v-0.49c0-0.16 0-0.17-0.17-0.17h-5.19a0.6 0.6 0 0 1-0.58-0.3 0.58 0.58 0 0 1 0.49-0.88h5.19c0.26 0 0.26 0 0.26-0.25v-0.46c0-0.23 0-0.24-0.23-0.24h-5.3A0.54 0.54 0 0 1 20.9 5a0.53 0.53 0 0 1 0.41-0.63c0.09-0.01 0.18 -0.01 0.27 0h5.08c0.25 0 0.25 0 0.25-0.25v-0.47c0-0.15-0.05-0.19-0.19-0.19h-5.13a0.6 0.6 0 0 1-0.7-0.58 0.62 0.62 0 0 1 0.71-0.6h5.08c0.23 0 0.23 0 0.23-0.22v-0.74c0-0.12-0.05-0.16-0.17-0.16h-5.2a0.57 0.57 0 0 1-0.6-0.33 0.57 0.57 0 0 1 0.46-0.83H27.51a2.76 2.76 0 0 1 1.38 0.3 c0.506 0.26 0.826 0.78 0.83 1.35v1.93l0.01 13.79zM10 25a3.76 3.76 0 0 1 0.55-0.32c0.3-0.132 0.607 -0.246 0.92 -0.34a3 3 0 0 1 1.24-0.09 3.75 3.75 0 0 1 3.14 2.3 3.55 3.55 0 0 1 0.26 2 3.87 3.87 0 0 1-0.57 1.55 3.71 3.71 0 0 1-1.86 1.5c-0.17 0.06 -0.22 0.12 -0.19 0.32 a6 6 0 0 0 0.44 1.42c0.28 0.415 0.418 0.91 0.39 1.41a1.24 1.24 0 0 1-0.12 0.32 0.67 0.67 0 0 1-0.8 0.17 A2.16 2.16 0 0 1 12.19 34a4.74 4.74 0 0 1-0.28-2c0-0.16 0-0.22-0.2-0.25a3.81 3.81 0 0 1-2.18-1.17 3.87 3.87 0 0 1-0.78-1.25 3.45 3.45 0 0 1-0.22-1.2v-9.05c0-0.27 0-0.28-0.28-0.28h-0.44c-0.15 0-0.21 0-0.21 0.2 v9a3.7 3.7 0 0 1-0.83 2.41 3.82 3.82 0 0 1-1.67 1.22 3.64 3.64 0 0 1-1.93 0.18 3.67 3.67 0 0 1-2.73-2 2.71 2.71 0 0 1-0.39-1.17 6.88 6.88 0 0 1 0-1 3.69 3.69 0 0 1 1.26-2.46 3.64 3.64 0 0 1 1.48-0.81 3.46 3.46 0 0 1 1.86 0c0.32 0.09 0.63 0.23 0.95 0.33 0 0 0.09 0 0.11-0.07 0.02 -0.07 0-0.08 0-0.12V15.8c0.022-0.459 0.069 -0.916 0.14 -1.37 0-0.47 0.11 -0.93 0.16 -1.4 0.05 -0.47 0.13 -1.07 0.2 -1.6 0-0.22 0.05 -0.44 0.07 -0.66 0.06 -0.52 0.11 -1 0.17-1.54 0.08 -0.67 0.18 -1.34 0.26 -2 0-0.27 0.05 -0.55 0.08 -0.82 0.06 -0.51 0.13 -1 0.2-1.54 0-0.21 0-0.41 0.07 -0.62 0.06 -0.51 0.11 -1 0.17-1.51 0.08 -0.69 0.15 -1.39 0.27 -2.07a1.15 1.15 0 0 1 0.3-0.52c0.1-0.15 0.36 -0.1 0.5 0.11a1.5 1.5 0 0 1 0.24 0.74 c0 0.53 0.11 1.06 0.17 1.59 0 0.24 0 0.49 0.07 0.74s0.07 0.69 0.1 1l0.27 2.23c0 0.23 0 0.46 0.07 0.69 0 0.54 0.09 1.09 0.15 1.63 0.06 0.54 0.13 1.06 0.2 1.6 0 0.22 0 0.45 0.07 0.67 0.07 0.79 0.15 1.58 0.23 2.37 0.06 0.57 0.17 1.15 0.19 1.73v8.85c0.048 0.317 0 0.641-0.14 0.93 L10 25zm4.21 3a1.88 1.88 0 1 0-1.92 1.88 1.89 1.89 0 0 0 1.9-1.82l0.02-0.06zm-10.4-1.81a1.85 1.85 0 0 0-1.89 1.87 1.88 1.88 0 1 0 1.89-1.87z" fill="#FFF"/>
</svg>
