<?xml version="1.0" ?>
<svg xmlns="http://www.w3.org/2000/svg" width="35" height="35" viewBox="0 0 35 35">
  <path d="M0 17.35C-0.008 8.042 7.33 0.386 16.63 0a17 17 0 0 1 12.26 4.4 16.72 16.72 0 0 1 5.78 12.06 16.77 16.77 0 0 1-5 13.12 16.71 16.71 0 0 1-11.73 5.1 16.78 16.78 0 0 1-12.65-4.86A16.92 16.92 0 0 1 0 17.35zm17.31 12c0.28-0.054 0.565 -0.09 0.85 -0.11a7.19 7.19 0 0 0 1.67-0.27 9.28 9.28 0 0 0 2.67-1.14 9.76 9.76 0 0 0 3.17-3.19 9.32 9.32 0 0 0 1.43-4.72c0-0.31 0-0.31-0.31-0.31h-19c-0.11 0-0.24 0-0.23 0.16 a4.59 4.59 0 0 0 0 0.83c0.13 0.64 0.27 1.28 0.44 1.92a7.89 7.89 0 0 0 1 2.17 9.93 9.93 0 0 0 2 2.17 9.54 9.54 0 0 0 2.74 1.68 7.84 7.84 0 0 0 2.07 0.56 l1.5 0.25 zm6.16-19.09a1.47 1.47 0 0 0-1.38 1.37A1.48 1.48 0 0 0 23.46 13a1.45 1.45 0 0 0 1.38-1.39 1.45 1.45 0 0 0-1.37-1.4v0.05zm-11.4 1.34a1.33 1.33 0 0 0-1.33-1.38 1.37 1.37 0 1 0 1.33 1.38z" fill="#FFF"/>
</svg>
