<?xml version="1.0" ?>
<svg xmlns="http://www.w3.org/2000/svg" width="38" height="36" viewBox="0 0 38 36">
  <path d="M10.42 16.22c-0.08 0.27 -0.15 0.53 -0.22 0.8 -0.22 0.81 -0.43 1.61-0.64 2.41-0.11 0.43 -0.22 0.86 -0.34 1.28a0.25 0.25 0 0 0 0.09 0.3 l2.58 2.3 1.49 1.33A2.4 2.4 0 0 1 14 25.9c0.17 0.74 0.36 1.47 0.55 2.21l0.63 2.54c0.19 0.72 0.37 1.45 0.55 2.17 0.135 0.402 0.176 0.83 0.12 1.25a1.89 1.89 0 0 1-3.7-0.07c-0.22-0.93-0.47-1.85-0.7-2.78l-0.69-2.75c-0.11-0.45-0.22-0.89-0.34-1.33a0.43 0.43 0 0 0-0.14-0.21l-4.21-3.78c-0.22-0.2-0.22-0.2-0.49 0 0 0.05 0.09 0.11 0.15 0.16l3.52 3.15a0.35 0.35 0 0 1 0.13 0.39 c-0.14 0.63 -0.27 1.26-0.4 1.88-0.13 0.62 -0.27 1.27-0.41 1.9-0.14 0.63 -0.27 1.27-0.4 1.91-0.13 0.64 -0.23 1-0.32 1.51a1.88 1.88 0 0 1-3.62 0.24 2.12 2.12 0 0 1 0-1.17c0.14-0.63 0.27 -1.26 0.4 -1.89L5.08 29c0.16-0.72 0.32 -1.44 0.46 -2.17a0.33 0.33 0 0 0-0.12-0.24L2.59 24l-1.21-1.06a1.88 1.88 0 0 1-0.6-2.07c0.13-0.48 0.25 -1 0.37-1.44 0.21 -0.79 0.42 -1.57 0.62 -2.36a1.33 1.33 0 0 0 0.05-0.19c0.14-0.5 0.17 -0.37-0.28-0.64-0.45-0.27-0.62-0.35-0.93-0.54a1.18 1.18 0 0 1-0.31-1.82c1.08-1.253 2.17-2.51 3.27-3.77a1.43 1.43 0 0 1 1.53-0.39l2.72 0.73 L9.9 11c0.156 0.03 0.31 0.07 0.46 0.12 0.284 0.12 0.51 0.346 0.63 0.63 0.69 1.44 1.39 2.87 2.07 4.31a0.46 0.46 0 0 0 0.36 0.27 l2.37 0.48 1.14 0.23 a1.19 1.19 0 0 1 0.95 1.45 1.23 1.23 0 0 1-1.53 0.89 c-0.92-0.21-1.86-0.38-2.78-0.57-0.5-0.1-1-0.19-1.5-0.3a1.23 1.23 0 0 1-0.84-0.73c-0.23-0.47-0.46-0.94-0.68-1.42l-0.09-0.14h-0.04z" fill="#FFF"/>
  <path d="M23.18 9.48c0.24-0.05 0.44 -0.11 0.65 -0.14 0.21 -0.03 0.19 -0.07 0.16 -0.21-0.06-0.31-0.13-0.61-0.17-0.92a0.55 0.55 0 0 0-0.22-0.35c-0.13-0.1-0.25-0.22-0.42-0.36h11.56c0.17 0 0.23 0 0.23 0.23 v1.93c0 0.24 0 0.24-0.26 0.24 h-9.34c-0.29 0-0.29 0-0.29 0.28 v22.65c0 0.24 0 0.24-0.24 0.24 h-3.26c-0.17 0-0.22 0-0.22-0.23V20.51c0-0.29 0-0.3-0.28-0.29-0.46 0-0.41-0.07-0.41 0.41 V32.7a1.21 1.21 0 0 0 0 0.19c0 0.14-0.06 0.19 -0.2 0.18 h-3.34c-0.18 0-0.18-0.09-0.18-0.22V20c0-0.17 0-0.24 0.21 -0.28a1.54 1.54 0 0 0 1.11-1.46 1.57 1.57 0 0 0-1.07-1.47 0.28 0.28 0 0 1-0.25-0.34v-6.31c0-0.27 0-0.27-0.26-0.27H13c-0.24 0-0.24 0-0.16-0.23a3.68 3.68 0 0 0 0.18-2c0-0.14 0-0.2 0.16 -0.2h5.67a1.31 1.31 0 0 1-0.18 0.17 1 1 0 0 0-0.5 0.84 3.83 3.83 0 0 1-0.1 0.59 c0 0.16 0 0.23 0.17 0.25 0.209 0.032 0.416 0.075 0.62 0.13a3.59 3.59 0 0 1-0.26 0.45 0.66 0.66 0 0 0 0 0.89c0.7 1.13 1.37 2.29 2.06 3.43 0.081 0.13 0.171 0.253 0.27 0.37 0.08 0.11 0.17 0.11 0.25 0 0.2-0.28 0.4 -0.56 0.58 -0.85 0.63 -1.07 1.26-2.15 1.9-3.22a0.29 0.29 0 0 0 0-0.35c-0.19-0.14-0.32-0.39-0.48-0.66z" fill="#FFF"/>
  <path d="M24.39 3.39a3.38 3.38 0 1 1-6.76 0 3.38 3.38 0 0 1 6.76 0z" fill="#FBFBFB"/>
  <path d="M9.24 4.91a3.38 3.38 0 0 1 1.94 6.14c-0.11 0.08 -0.19 0.1 -0.3 0a1.69 1.69 0 0 0-0.75-0.36c-1.28-0.32-2.55-0.66-3.83-1a0.41 0.41 0 0 1-0.23-0.2 3.36 3.36 0 0 1 2.19-4.43c0.164-0.05 0.331 -0.09 0.5 -0.12 0.16 -0.02 0.32 -0.02 0.48 -0.03z" fill="#FFF"/>
  <path d="M21 14c-0.05-0.14-0.1-0.27-0.14-0.42-0.39-1.31-0.79-2.61-1.17-3.93a5.69 5.69 0 0 1-0.15-0.92V7.61c0-0.12 0-0.18 0.16 -0.17h2.72c0.11 0 0.16 0 0.16 0.16 0 0.54 0 1.08-0.09 1.62a7.09 7.09 0 0 1-0.31 1.09L21.36 13 21 14z" fill="#FBFBFB"/>
  <path d="M18.8 33.67h1.67c0.16 0 0.2 0.06 0.19 0.21 a1.86 1.86 0 0 1-3.71 0c0-0.15 0-0.2 0.2 -0.2l1.65-0.01zM23.21 33.67h1.67c0.16 0 0.21 0.06 0.2 0.21 a1.86 1.86 0 0 1-3.72 0c0-0.17 0.05 -0.22 0.22 -0.22l1.63 0.01 z" fill="#FFF"/>
  <path d="M35.41 8.67v-1c0-0.14 0-0.21 0.19 -0.21h0.81a1.19 1.19 0 0 1 0.18 2.37h-1c-0.12 0-0.15-0.06-0.15-0.17l-0.03-0.99zM5.47 7.5a4.15 4.15 0 0 0 0.11 2h-0.24a5.41 5.41 0 0 0-0.55-0.12 0.28 0.28 0 0 1-0.25-0.21 1.2 1.2 0 0 1 0.76-1.64 0.74 0.74 0 0 1 0.17-0.03z" fill="#FBFBFB"/>
</svg>
