<?xml version="1.0" ?>
<svg xmlns="http://www.w3.org/2000/svg" width="44" height="37" viewBox="0 0 44 37">
  <path d="M24.91 28.19a7.37 7.37 0 0 0 4.87-1.81l5.07-4.45c1.85-1.63 3.68-3.29 5.57-4.87a10.93 10.93 0 0 0 2.37-3.12 7 7 0 0 0 0.83-2.11 5.6 5.6 0 0 0 0.14-2c-0.07-0.46-0.1-0.92-0.21-1.37a6.8 6.8 0 0 0-0.88-2 5.93 5.93 0 0 0-3-2.38 11.53 11.53 0 0 0-1.59-0.38l-1.17-0.23-1.13-0.19L34.5 3l-1.15-0.2-1.26-0.23-1.09-0.2-1.28-0.23-1.11-0.2c-0.26-0.05-0.53-0.11-0.8-0.14a0.49 0.49 0 0 0-0.29 0.06 l-3 1.66-5.3 3-4.82 2.7c-0.51 0.28 -1 0.55-1.54 0.84 a2 2 0 0 0-1 1.56c0 0.2 0.08 0.26 0.24 0.3l2.19 0.45 c0.72 0.15 1.43 0.33 2.15 0.48 l1.8 0.37 1.76 0.4 1.38 0.29 1.39 0.31 c0.45 0.1 0.91 0.2 1.37 0.28 A4.64 4.64 0 0 1 27 15.9c0.523 0.579 0.83 1.32 0.87 2.1a4 4 0 0 1-1.3 3.26 3.35 3.35 0 0 1-1.85 0.84 4.54 4.54 0 0 1-0.82 0.07 12.73 12.73 0 0 1-1.26-0.2c-0.43-0.09-0.86-0.2-1.29-0.3L20 21.36l-1.22-0.28-1.39-0.33-1.29-0.28-1.3-0.31-1.29-0.29-1.3-0.31-1.26-0.29L9.61 19l-1.28-0.29L7 18.36a4.91 4.91 0 0 1-0.75-0.21 0.77 0.77 0 0 1-0.43-0.84 0.7 0.7 0 0 1 0.87-0.54c0.62 0.13 1.23 0.28 1.85 0.42 l1.66 0.37 1.65 0.4 1.29 0.28 1.28 0.31 1.28 0.29 1.28 0.31 1.27 0.29 1.32 0.31 1.27 0.29 1.32 0.31 a12 12 0 0 0 1.64 0.34 2.18 2.18 0 0 0 2.41-1.59 3 3 0 0 0 0.16-0.89 2 2 0 0 0-1.34-1.93 13.05 13.05 0 0 0-1.4-0.36l-1.36-0.31-1.36-0.29-1.35-0.32-1.33-0.29-1.39-0.31-0.95-0.2-1.4-0.31-1.33-0.29-1.41-0.32-1.33-0.28L9 12.7a14.11 14.11 0 0 0-1.44-0.29 10.45 10.45 0 0 0-1.68-0.09 5.91 5.91 0 0 0-3 1 5.89 5.89 0 0 0-2.44 2.89A8.82 8.82 0 0 0 0 17.74a3.9 3.9 0 0 0 0.13 1.67 3.66 3.66 0 0 0 2.33 2.69c0.55 0.21 1.12 0.35 1.69 0.51 l1.38 0.4 1.35 0.37 1.72 0.49 1.37 0.37 1.37 0.39 1.39 0.38 1.37 0.39 1.39 0.39 1.37 0.37 1.4 0.4 1.39 0.39 1.37 0.38 1.37 0.38 c0.61 0.14 1.22 0.28 1.83 0.4 0.228 0.044 0.458 0.071 0.69 0.08 z" fill="#FFF"/>
  <path d="M26.12 36.27A6.75 6.75 0 0 0 28.4 36a7.3 7.3 0 0 0 2.82-1.55l4.61-4.17c1.73-1.58 3.48-3.15 5.19-4.75a14.13 14.13 0 0 0 2.13-2.44 4.16 4.16 0 0 0 0.69-1.92 4.1 4.1 0 0 0-1-3.15A0.51 0.51 0 0 0 42 18a2295.71 2295.71 0 0 1-8.48 7.6l-2.24 2a8.84 8.84 0 0 1-3.13 1.84 8.28 8.28 0 0 1-3.19 0.47 12.38 12.38 0 0 1-1.89-0.3c-0.61-0.13-1.21-0.29-1.81-0.45l-1.8-0.49-1.46-0.4-1.45-0.39-1.46-0.37-1.5-0.4-1.13-0.29-1.52-0.4-1.48-0.37-1.46-0.4-1.44-0.37-1.46-0.37-1.1-0.3a4.3 4.3 0 0 0-1.63-0.19A2.34 2.34 0 0 0 0.41 26a2.55 2.55 0 0 0-0.08 1.57A2.8 2.8 0 0 0 1.25 29a5.65 5.65 0 0 0 2.2 1.14c0.84 0.23 1.67 0.5 2.5 0.74 l2.21 0.63 c0.74 0.21 1.47 0.44 2.21 0.66 l1.92 0.54 c0.64 0.18 1.27 0.38 1.91 0.57 l1.92 0.54 c0.64 0.19 1.27 0.39 1.91 0.57 l1.61 0.46 1.63 0.48 1.61 0.46 c0.396 0.134 0.8 0.245 1.21 0.33 0.67 0.11 1.35 0.17 2 0.26l0.03-0.11zM21.31 0.76 c-0.08-0.05-0.11-0.09-0.15-0.09L19.54 0.39 17.91 0.08 a4.7 4.7 0 0 0-1.83 0 13.36 13.36 0 0 0-2.41 1c-1.14 0.52 -2.27 1.07-3.4 1.61L6 4.75c-0.87 0.41 -1.74 0.8 -2.6 1.23A2.17 2.17 0 0 0 2.3 7a1.89 1.89 0 0 0 0.53 2.29 4.37 4.37 0 0 0 2 1c0.57 0.11 1.14 0.26 1.71 0.4 0.26 0.06 0.3 0 0.35-0.23a3.34 3.34 0 0 1 0.61-1.33 7.14 7.14 0 0 1 2.37-2c1.09-0.62 2.2-1.2 3.3-1.81l7.36-4.09c0.24-0.17 0.47 -0.3 0.78 -0.47z" fill="#FFF"/>
</svg>
