<?xml version="1.0" ?>
<svg xmlns="http://www.w3.org/2000/svg" width="34" height="36" viewBox="0 0 34 36">
  <path d="M16.73 2.87c0.03-0.189 0.07 -0.376 0.12 -0.56a3 3 0 0 1 1.48-2A3.42 3.42 0 0 1 20.27 0a4.25 4.25 0 0 1 2.1 0.65 4 4 0 0 1 0.65 0.59 0.31 0.31 0 0 1 0.05 0.26 c-0.5 1.49-1 3-1.5 4.45-0.21 0.61 -0.46 1.21-0.67 1.83a8 8 0 0 0-0.41 2.57 0.36 0.36 0 0 0 0.11 0.22 73.51 73.51 0 0 1 5.43 5 14.44 14.44 0 0 1 2.26 3.16 39.27 39.27 0 0 1 2.41 5.17c0.58 1.48 1.13 3 1.66 4.48 0.28 0.8 0.5 1.63 0.77 2.43 0.077 0.147 0.171 0.285 0.28 0.41a0.39 0.39 0 0 1 0.08 0.1 c0.13 0.24 0 0.36-0.2 0.48 A16.79 16.79 0 0 1 30 33.55a22.85 22.85 0 0 1-3.31 1.08c-0.86 0.21 -1.73 0.4 -2.61 0.54 -1.05 0.17 -2.11 0.32 -3.17 0.42 a47.87 47.87 0 0 1-4.94 0.16 40.54 40.54 0 0 1-4.67-0.31 61.51 61.51 0 0 1-3.6-0.63 23.68 23.68 0 0 1-5.08-1.69 13.72 13.72 0 0 1-2.45-1.39 0.43 0.43 0 0 1-0.1-0.56 1.46 1.46 0 0 0 0.28-0.59c0.42-1.27 0.82 -2.55 1.28-3.81 0.52 -1.42 1.07-2.83 1.65-4.23a30.77 30.77 0 0 1 2.83-5.39 12.16 12.16 0 0 1 1.42-1.71c1.57-1.55 3.16-3.09 4.85-4.51a1.85 1.85 0 0 1 0.32-0.25 0.46 0.46 0 0 0 0.21-0.46A9.45 9.45 0 0 0 12.22 7c-0.38-1-0.72-2-1.06-3-0.29-0.83-0.55-1.67-0.83-2.5a0.27 0.27 0 0 1 0.06-0.31A2.92 2.92 0 0 1 11.77 0.3 a5.43 5.43 0 0 1 1.92-0.3 2.75 2.75 0 0 1 2.63 1.7c0.126 0.326 0.23 0.66 0.31 1v0.13l0.1 0.04 z" fill="#FFF"/>
</svg>
