<?xml version="1.0" ?>
<svg xmlns="http://www.w3.org/2000/svg" width="44" height="30" viewBox="0 0 44 30">
  <path d="M28.64 13.41c0.03 0.55 0.03 1.1 0 1.65a1.24 1.24 0 0 1-1.34 1.24A1.22 1.22 0 0 1 26 15c0-3.6-0.08-7.2 0-10.79a4.22 4.22 0 0 1 3-3.83 4.5 4.5 0 0 1 4.73 0.69 c0.56 0.44 0.88 0.82 0 1.27a2.36 2.36 0 0 0-0.63 0.55 c-0.35 0.42 -0.61 0.57 -1.15 0.14 a1.92 1.92 0 0 0-2.45 0.05 2.42 2.42 0 0 0-0.8 2.38 0.57 0.57 0 0 0 0.4 0.54 c1.08 0.41 2.16 0.81 3.26 1.18 0.68 0.23 0.55 -0.34 0.63 -0.69a4.7 4.7 0 0 1 5.16-3.67 4.8 4.8 0 0 1 4.2 5c0 0.89-0.29 1.63-1.33 1.64-1.04 0.01 -1.28-0.76-1.32-1.65-0.08-1.58-0.94-2.5-2.2-2.44-1.26 0.06 -2 1-2 2.51v9a6 6 0 0 1-0.07 1.19 1.17 1.17 0 0 1-1.2 1 1.15 1.15 0 0 1-1.23-0.95 4.25 4.25 0 0 1-0.12-0.94c-0.09-2.32-0.08-2.32-2.24-3.1l-2-0.67zm4.2-2.5c0.26-0.93-0.24-1.48-1.26-1.7a7.63 7.63 0 0 1-1-0.34c-2-0.71-2-0.72-1.92 1.42a0.94 0.94 0 0 0 0.75 1c0.68 0.21 1.35 0.47 2 0.71 1.42 0.53 1.42 0.53 1.43-1.09z" fill="#F9FCFC"/>
  <path d="M9.69 27.94c1.17-1.3 2.37-2.62 3.56-4 0.33-0.37 0.7 -0.29 1.1-0.2a33.1 33.1 0 0 0 15 0 1.26 1.26 0 0 1 1.37 0.44 c0.93 1.09 1.91 2.15 2.9 3.19 0.55 0.58 0.43 0.78-0.3 1a40.13 40.13 0 0 1-14.45 1.52 39.77 39.77 0 0 1-8.46-1.54 0.89 0.89 0 0 1-0.72-0.41zM0 19.11a6.9 6.9 0 0 1 1.94-4.45 16.48 16.48 0 0 1 4.86-3.43c0.76-0.39 1.09 0 1.51 0.47 1.48 1.47 1.48 1.47-0.18 2.55-3.63 2.37-3.62 4.63 0 7 0.67 0.437 1.375 0.815 2.11 1.13 0.73 0.3 1 0.54 0.3 1.2-1 1-1.9 2.06-2.83 3.1-0.29 0.31 -0.53 0.52 -1 0.28a14.16 14.16 0 0 1-5.51-4.3A6.86 6.86 0 0 1 0 19.11zM36.93 11.28a13.93 13.93 0 0 1 5.33 4 6 6 0 0 1-0.06 7.81 14.68 14.68 0 0 1-5.14 3.85 0.74 0.74 0 0 1-1-0.21c-1-1.11-2-2.2-3-3.28-0.42-0.44-0.4-0.66 0.18 -0.94a28.9 28.9 0 0 0 2.7-1.51A5.85 5.85 0 0 0 38 18.85a1.8 1.8 0 0 0-0.06-2.24c-1.5-1.53-0.85-3.35-1.01-5.33z" fill="#FAFDFD"/>
  <path d="M9.27 10.28a33.73 33.73 0 0 1 8.34-1.82 51.9 51.9 0 0 1 6-0.24c1.6 0.06 0.82 1.22 1 1.93 0.17 0.92-0.51 0.79 -1.07 0.76 a30 30 0 0 0-11 1.35 1.1 1.1 0 0 1-1.32-0.26c-0.52-0.57-1.13-1-1.95-1.72zM9.81 17.46c1.18-2 2.81-2.71 4.83-2.16 0.88 0.24 1.74 0.58 2.62 0.82 a6.93 6.93 0 0 0 3.91-0.39 2.87 2.87 0 0 1-2.29 1.81 5 5 0 0 1-2.94-0.32 6.42 6.42 0 0 0-6.13 0.24 zM15.28 21.38c1.54-2.12 3-2.58 5.43-1.77 3.13 1 3.53 1 6.09 0a3.26 3.26 0 0 1-3.28 2.11 5.54 5.54 0 0 1-2.33-0.49 5.93 5.93 0 0 0-5.41 0.07 2.14 2.14 0 0 1-0.5 0.08 z" fill="#F9FCFC"/>
</svg>
