<?xml version="1.0" ?>
<svg xmlns="http://www.w3.org/2000/svg" width="32" height="33" viewBox="0 0 32 33">
  <path d="M27.26 20.83c0.22-0.23 0.44 -0.47 0.68 -0.68a0.8 0.8 0 0 1 0.37-0.09c0.17 0 0.34 0 0.51-0.07a0.18 0.18 0 0 0 0.1-0.14v-0.56-7c0-0.31 0-0.32-0.32-0.3l-2 0.14-1.51 0.12 -2.42 0.19 -1.54 0.12 -2.39 0.19 -1.55 0.12 -1.32 0.13 a0.24 0.24 0 0 1-0.24-0.1c-0.14-0.19-0.3-0.37-0.48-0.59v3.07l-0.63-0.14v-0.19-3.31a0.57 0.57 0 0 0-0.13-0.38l-1.47-1.8-2.23-2.77-1.77-2.18L8.41 4l-0.08-0.12-0.84 1-1.86 2.31L3.34 10c-0.18 0.22 -0.37 0.44 -0.54 0.67 a0.43 0.43 0 0 0-0.07 0.24 v9.43c0 0.21 0 0.22 0.23 0.24l0.77 0.08 -0.09 0.6 a3.61 3.61 0 0 1-0.37 0l-1-0.11c-0.2 0-0.21 0-0.21-0.22v-9.31c-0.13 0.16 -0.26 0.32 -0.4 0.47 a0.33 0.33 0 0 1-0.2 0.11 H0l0.42-0.53L3 8.49 6.59 4l0.86-1a0.29 0.29 0 0 1 0.19-0.1H16v3.03c0 0.15 0 0.19 0.19 0.19h4.7c0.15 0 0.18 0 0.18-0.19V3.07c0-0.16 0-0.21 0.2 -0.2h2.48A0.29 0.29 0 0 1 24 3l3.56 3.93 4.25 4.68a1 1 0 0 1 0.09 0.13 h-0.08l-1.12 0.07 -0.95 0.07 c-0.14 0-0.2 0.06 -0.2 0.22 v8.24c0 0.13 0 0.21-0.17 0.22 -0.17 0.01 -0.49 0.07 -0.74 0.11 l-1.11 0.17 h-0.27v-0.01z" fill="#FFF"/>
  <path d="M10.83 32.7l-0.29-0.12h-0.15a1 1 0 0 0 0 0.14v0.29l-0.85-0.26s-0.07-0.06-0.1-0.1c-0.18-0.23-0.36-0.46-0.52-0.7a0.49 0.49 0 0 1 0-0.7l3.57-4.4 1.26-1.55c0.09-0.11 0.07 -0.17 0-0.26l-1-1.08c-0.09-0.1-0.09-0.17 0-0.26a2.59 2.59 0 0 0 0.2-0.21l-2.65-2.64-0.07 0.06 a0.45 0.45 0 0 1-0.58 0 2.74 2.74 0 0 0-1.2-0.69 0.7 0.7 0 0 0-0.66 0.1 2.33 2.33 0 0 0-0.75 0.91 1.55 1.55 0 0 0-0.1 0.51 0.57 0.57 0 0 1-0.19 0.44 c-0.18 0.16 -0.34 0.34 -0.51 0.5 -0.17 0.16 -0.28 0.21 -0.48 0L4.42 21.3a0.24 0.24 0 0 1 0-0.38c0.19-0.2 0.38 -0.4 0.58 -0.59a0.36 0.36 0 0 1 0.22-0.09 1.41 1.41 0 0 0 1.3-1 0.69 0.69 0 0 0 0-0.2 1.66 1.66 0 0 1 0.56-1.29 13.44 13.44 0 0 1 2.23-1.65 3.3 3.3 0 0 1 0.85-0.29 8.71 8.71 0 0 1 2.57-0.17 15.78 15.78 0 0 1 1.66 0.23 c0.34 0.06 0.68 0.16 1 0.25a0.14 0.14 0 0 1 0.09 0.1 v0.47l-0.64-0.07c-0.31 0-0.63-0.08-0.94-0.1a8.82 8.82 0 0 0-1.09 0 3.62 3.62 0 0 0-1.68 0.43 1.19 1.19 0 0 0-0.31 0.25 0.5 0.5 0 0 0 0 0.62c0.2 0.3 0.44 0.58 0.66 0.86 l0.07 0.08 c0.3 0.35 0.3 0.49 0 0.83-0.08 0.08 -0.07 0.13 0 0.2L14 22.23c0.09 0.09 0.15 0.07 0.23 0 0.08-0.07 0.21 -0.21 0.42 0l0.77 0.75 c0.09 0.09 0.14 0.09 0.22 0l2-2.43 1.6 1.63a1 1 0 0 1 0.94-0.26 1 1 0 0 1 0.53 0.29 c0.24 0.22 0.47 0.46 0.73 0.66 a1 1 0 0 0 1.2 0 1 1 0 0 1 1.11 0c0.226 0.18 0.416 0.4 0.56 0.65 0.06 0.1 0 0.27 0 0.41 0 0.14-0.11 0-0.16 0a2.27 2.27 0 0 1-0.3-0.13v0.46l-0.43-0.18v0.45l-0.42-0.18v0.33a0.57 0.57 0 0 1 0 0.1h-0.1l-0.33-0.14v0.44l-0.46-0.16v0.32c0 0.1 0 0.16-0.12 0.09 s-0.21-0.09-0.34-0.14v0.29a1 1 0 0 1 0 0.13 0.65 0.65 0 0 1-0.15 0l-0.31-0.13v0.32a0.68 0.68 0 0 1 0 0.13h-0.11l-0.34-0.14v0.45l-0.35-0.24v0.3a0.69 0.69 0 0 1 0 0.13h-0.11l-0.28-0.12v0.45l-0.46-0.16a0.49 0.49 0 0 0 0.13 0.44 l2.63 2.55 0.1 0.11-0.11 0.12 -2.05 2.08c-0.09 0.09 -0.14 0.11 -0.24 0l-2.94-3.24-0.06-0.08c0 0.22-0.12 0.15 -0.22 0.1 l-0.27-0.11v0.46l-0.34-0.13h-0.11c-0.02 0-0.06 0.1 -0.06 0.1 v0.32l-0.48-0.17v0.45l-0.34-0.13c-0.11-0.05-0.14 0-0.13 0.09 0.01 0.09 0 0.19 0 0.33l-0.47-0.18v0.45l-0.13-0.16h-0.14V30.43l-0.48-0.17v0.45l-0.34-0.13h-0.11a0.59 0.59 0 0 0 0 0.12v0.32l-0.38-0.2v0.45l-0.34-0.13h-0.11a0.65 0.65 0 0 0 0 0.12v0.32l-0.46-0.16v0.44l-0.44-0.17v0.45l-0.4-0.14v0.44l-0.33-0.13h-0.1a0.49 0.49 0 0 0 0 0.11c-0.01 0.04 0 0.14 0.01 0.28zm-0.91-0.82a0.41 0.41 0 0 0 0.43-0.42 0.43 0.43 0 0 0-0.85 0 0.4 0.4 0 0 0 0.43 0.42 h-0.01z" fill="#FFF"/>
  <path d="M17.71 20l1.86-2.14a0.43 0.43 0 0 1 0.38-0.2 0.64 0.64 0 0 0 0.57-0.24l1.8-1.87c0.39-0.41 0.76 -0.83 1.15-1.25a1.1 1.1 0 0 1 0.14-0.11 1 1 0 0 1 0.17 0.69 2.3 2.3 0 0 0 0.47 1.59 14.56 14.56 0 0 0 1.93 2.25c0.09 0.1 0.18 0.2 0.28 0.29 a1 1 0 0 0 0.67 0.28 0.8 0.8 0 0 1 0.35 0.13 c0.11 0.07 0.13 0.16 0 0.27l-1.31 1.35-1 1.1a1.1 1.1 0 0 1-0.73 0.33 3 3 0 0 1-0.86-0.1 1.33 1.33 0 0 0-1 0.14 2.29 2.29 0 0 1-0.26 0.14 c-0.33 0.14 -0.57 0-0.79-0.23A6.82 6.82 0 0 1 21 22a1.39 1.39 0 0 0-1.62-0.31 0.16 0.16 0 0 1-0.14 0l-1.5-1.55-0.03-0.14zm3.5-1.82a0.77 0.77 0 0 0 0.2 0.42 c0.76 0.86 1.53 1.7 2.26 2.58a0.9 0.9 0 0 0 1.27 0.1 0.87 0.87 0 0 0 0.18-1.24l-2.28-2.58a0.82 0.82 0 0 0-0.85-0.3 1.06 1.06 0 0 0-0.79 1.04l0.01-0.02zm-2.51 1.48h0.7v-0.12a0.33 0.33 0 0 0-0.34-0.19c-0.16 0-0.28 0.09 -0.36 0.31 zm3.55 1.87h-0.68a0.17 0.17 0 0 0 0 0.12 0.34 0.34 0 0 0 0.34 0.19 0.37 0.37 0 0 0 0.34-0.31zm-3.54-1.72c0.11 0.22 0.26 0.33 0.43 0.3 a0.34 0.34 0 0 0 0.3-0.3h-0.73zm3.54 1.56c-0.1-0.21-0.27-0.33-0.42-0.3a0.34 0.34 0 0 0-0.3 0.3 h0.72zM21.64 1v1.3h-6c-0.15 0-0.2 0-0.2-0.19v-1c0-0.11 0-0.16 0.15 -0.16h6l0.05 0.05 zM21.56 33l-1.12-0.68c-0.15-0.09-0.16-0.12 0-0.23L22.46 30c0.09-0.09 0.14 -0.1 0.22 0 0.2 0.35 0.43 0.69 0.63 1a0.21 0.21 0 0 1 0 0.2l-1.67 1.68-0.08 0.12 zM14.52 17.18c0.19 0 0.37 0 0.54 0.08 0.17 0.08 0.07 0.1 0.08 0.15 v4.3l-0.57-0.55v-0.12-3.76s-0.05-0.04-0.05-0.1zM10.84 22.16L9.21 22l-1.53-0.2c-0.09 0-0.12-0.06-0.1-0.12a1.62 1.62 0 0 1 0.24-0.47c0.05-0.06 0.22 0 0.34 0l0.91 0.11 a0.47 0.47 0 0 1 0.23 0.08 1 1 0 0 0 0.81 0.23 0.35 0.35 0 0 1 0.34 0.13 l0.39 0.4 z" fill="#FFF"/>
  <path d="M18.7 19.66c0.08-0.22 0.2 -0.31 0.37 -0.31a0.33 0.33 0 0 1 0.34 0.19 0.28 0.28 0 0 1 0 0.12h-0.71zM22.25 21.53a0.37 0.37 0 0 1-0.36 0.31 0.34 0.34 0 0 1-0.34-0.19 0.17 0.17 0 0 1 0-0.12h0.7zM18.71 19.81h0.73a0.34 0.34 0 0 1-0.3 0.3 c-0.14 0.03 -0.32-0.11-0.43-0.3zM22.25 21.36h-0.73a0.34 0.34 0 0 1 0.3-0.3c0.18-0.06 0.33 0.09 0.43 0.3z" fill="#FFF"/>
</svg>
