<?xml version="1.0" ?>
<svg xmlns="http://www.w3.org/2000/svg" width="36" height="36" viewBox="0 0 36 36">
  <path d="M20.3 13.69c0.193 0.45 0.32 0.924 0.38 1.41 0.071 0.46 0.108 0.925 0.11 1.39a12.53 12.53 0 0 1-0.17 1.62c-0.07 0.46 -0.17 0.914 -0.3 1.36-0.14 0.5 -0.31 1-0.5 1.48a23.7 23.7 0 0 1-1.43 3 35.17 35.17 0 0 1-1.95 3 43 43 0 0 1-5.07 5.8l-1.18 1.09a0.18 0.18 0 0 1-0.24 0 17 17 0 0 1-3.62-2.37A16.33 16.33 0 0 1 3.4 28.3c-0.45-0.65-0.84-1.34-1.27-2-0.07-0.11 0-0.16 0-0.23A31.61 31.61 0 0 1 5 23.19a52 52 0 0 1 4.7-3.8 108.51 108.51 0 0 1 3.6-2.5A20.58 20.58 0 0 1 16.72 15c0.79-0.34 1.6-0.65 2.41-1 0.38-0.09 0.77 -0.19 1.17-0.31z" fill="#FFF"/>
  <path d="M11.52 34.5c0.55-0.5 1.09-1 1.61-1.48A33 33 0 0 0 16.71 29a31.87 31.87 0 0 0 3.13-5.07c0.4-0.82 0.76 -1.66 1.1-2.51 0.2 -0.544 0.37 -1.098 0.51 -1.66 0.135 -0.46 0.245 -0.928 0.33 -1.4a9.72 9.72 0 0 0 0.22-1.99v-1.05a8.73 8.73 0 0 0-0.19-1c0-0.27-0.14-0.53-0.21-0.79-0.07-0.26 0-0.15 0.15 -0.17 0.55 -0.1 1.1-0.22 1.66-0.29 0.76 -0.11 1.53-0.18 2.3-0.27h0.28c0.07 0.25 0.15 0.51 0.21 0.76 s0.18 0.77 0.26 1.15c0.08 0.38 0.12 0.6 0.16 0.91 0.07 0.56 0.15 1.11 0.19 1.67 0.04 0.56 0.08 1.21 0.08 1.82 0 0.81 0 1.63-0.08 2.44s-0.12 1.35-0.2 2c-0.08 0.65 -0.17 1.09-0.28 1.63-0.11 0.54 -0.24 1-0.39 1.56-0.15 0.56 -0.4 1.35-0.66 2-0.34 0.85 -0.72 1.68-1.14 2.5a20.55 20.55 0 0 1-2.6 3.88 0.47 0.47 0 0 1-0.25 0.17 l-1.53 0.23 c-0.904 0.13 -1.818 0.17 -2.73 0.12 -0.61 0-1.23-0.11-1.84-0.19-0.61-0.08-1.08-0.17-1.61-0.3-0.53-0.13-1.24-0.37-1.86-0.56l-0.2-0.09zM19.64 12.47a24.28 24.28 0 0 0-6.25 2.81c-1.17 0.74 -2.33 1.52-3.45 2.33s-2.43 1.79-3.62 2.72a41.45 41.45 0 0 0-4.55 4.13l-0.24 0.27 c-0.07 0.07 -0.11 0.09 -0.15 0-0.24-0.69-0.49-1.37-0.7-2.07A15.26 15.26 0 0 1 0.28 21a11.05 11.05 0 0 1-0.17-1.27c0-0.78-0.11-1.56-0.11-2.34a14.55 14.55 0 0 1 0.14-1.86c0.08-0.63 0.21 -1.25 0.34 -1.87a12.8 12.8 0 0 1 0.35-1.26 0.33 0.33 0 0 1 0.17-0.17c0.87-0.38 1.74-0.77 2.62-1.11 0.63 -0.25 1.28-0.45 1.92-0.66 0.64 -0.21 1.07-0.33 1.61-0.46s1-0.22 1.44-0.31c0.72-0.12 1.44-0.25 2.17-0.31a20.75 20.75 0 0 1 2.09-0.07c0.472 0.01 0.943 0.05 1.41 0.12 0.5 0.08 1 0.21 1.48 0.32 a6.86 6.86 0 0 1 1.62 0.65 6.34 6.34 0 0 1 2.22 2 0.58 0.58 0 0 1 0.06 0.07 z" fill="#FFF"/>
  <path d="M25.45 11.45l-0.27 0.05 c-0.41 0-0.83 0.05 -1.24 0.09 -0.41 0.04 -0.83 0.12 -1.25 0.19 l-0.89 0.15 c-0.27 0.06 -0.54 0.1 -0.8 0.18 a0.15 0.15 0 0 1-0.21-0.08 7.94 7.94 0 0 0-1.37-1.58 7.71 7.71 0 0 0-2.15-1.37 14.57 14.57 0 0 0-1.52-0.55c-0.38-0.11-0.77-0.16-1.16-0.24a13 13 0 0 0-3-0.19c-0.71 0-1.42 0.12 -2.13 0.19 -0.37 0-0.74 0.09 -1.1 0.16 -0.36 0.07 -0.79 0.16 -1.19 0.25 -0.4 0.09 -0.83 0.19 -1.24 0.31 -0.41 0.12 -0.82 0.23 -1.22 0.36 -0.57 0.19 -1.13 0.4 -1.69 0.61 -0.56 0.21 -0.88 0.35 -1.31 0.52 a0.23 0.23 0 0 1-0.17 0c0.09-0.19 0.16 -0.38 0.26 -0.56A18.31 18.31 0 0 1 6 4.42a17.76 17.76 0 0 1 4.29-2.94c0.66-0.32 1.36-0.58 2-0.85a0.68 0.68 0 0 1 0.4 0c0.45 0.1 0.9 0.2 1.35 0.33 0.45 0.13 0.92 0.27 1.38 0.42 a15.51 15.51 0 0 1 2.36 1 15.49 15.49 0 0 1 4.39 3.45A17.13 17.13 0 0 1 25 10.21c0.16 0.36 0.31 0.72 0.46 1.08 0 0.053-0.003 0.107 -0.01 0.16 zM23.61 34.58c0.25-0.38 0.48 -0.73 0.71 -1.1a19.1 19.1 0 0 0 1.61-3c0.31-0.77 0.61 -1.55 0.88 -2.34 0.16 -0.45 0.26 -0.93 0.38 -1.4 0.12 -0.47 0.23 -1 0.33-1.51s0.1-0.75 0.15 -1.13c0.05-0.38 0.14 -1 0.19-1.47a8.52 8.52 0 0 0 0.08-0.87c0-1.23 0.06 -2.47 0.06 -3.7 0-0.62-0.07-1.23-0.13-1.84-0.06-0.61-0.17-1.27-0.28-1.9-0.09-0.47-0.22-0.93-0.33-1.4a0.27 0.27 0 0 1 0-0.09h1.1c0.36 0 0.73 0.07 1.09 0.11 0.36 0.04 0.45 0.05 0.67 0.09 a0.21 0.21 0 0 1 0.14 0.12 c0.12 0.52 0.22 1 0.36 1.56 0.19 0.68 0.39 1.37 0.61 2.05a39.67 39.67 0 0 0 2.3 5.56c0.23 0.47 0.46 0.93 0.7 1.38a0.4 0.4 0 0 1 0 0.37 18.63 18.63 0 0 1-1.45 3 17.9 17.9 0 0 1-7.89 7c-0.39 0.18 -0.8 0.33 -1.2 0.49 l-0.08 0.02 z" fill="#FFF"/>
  <path d="M15.63 0.13 a1.16 1.16 0 0 1 0.24-0.07C16.79 0 17.72 0 18.64 0c0.621 0.025 1.24 0.095 1.85 0.21 0.674 0.12 1.342 0.273 2 0.46a16.24 16.24 0 0 1 4.11 1.76 17 17 0 0 1 2.94 2.18 0.33 0.33 0 0 1 0.11 0.22 v2.66c0 0.64 0 1.28 0.09 1.91 0.09 0.63 0.17 1.31 0.26 2 0.005 0.1 0.005 0.2 0 0.3h-0.13L27 11.45a0.15 0.15 0 0 1-0.15-0.12l-0.45-1.15A17 17 0 0 0 21 3.11 20.06 20.06 0 0 0 16.54 0.53 l-0.91-0.4zM31.5 13.25c0.33 0.09 0.62 0.16 0.91 0.25 0.44 0.14 0.89 0.3 1.33 0.47 0.44 0.17 0.79 0.33 1.18 0.51 a0.37 0.37 0 0 1 0.16 0.22 c0.07 0.46 0.16 0.92 0.19 1.38a14.83 14.83 0 0 1 0 2.58c0 0.36 0 0.73-0.09 1.09-0.09 0.36 -0.13 0.91 -0.21 1.36-0.08 0.45 -0.14 0.71 -0.23 1.07a27.77 27.77 0 0 1-3.24-8.93zM31 6.11A18 18 0 0 1 34.68 13l-0.47-0.17-2.24-0.74-0.57-0.15a0.24 0.24 0 0 1-0.12-0.14c-0.08-0.68-0.15-1.37-0.23-2.06a24.39 24.39 0 0 1-0.11-3.2c0-0.14 0-0.28 0.05 -0.42l0.01-0.01z" fill="#FFF"/>
</svg>
