<?xml version="1.0" ?>
<svg xmlns="http://www.w3.org/2000/svg" width="41" height="34" viewBox="0 0 41 34">
  <path d="M40.79 20.05v11.57a1.57 1.57 0 0 1-0.9 1.54 1.08 1.08 0 0 1-0.5 0.12 H1.53a1.49 1.49 0 0 1-1.38-1.1 4.29 4.29 0 0 1-0.1-0.94C0.017 23.66 0 16.073 0 8.48a1.56 1.56 0 0 1 1.08-1.61 1.87 1.87 0 0 1 0.66-0.11h1.94c0.19 0 0.25-0.06 0.27 -0.25a4.76 4.76 0 0 1 0.14-0.92 1.3 1.3 0 0 1 1.18-1 8.61 8.61 0 0 1 1.24-0.08h2.18c0.348 0.01 0.689 0.095 1 0.25 0.306 0.145 0.53 0.42 0.61 0.75a8 8 0 0 1 0.15 1c0 0.19 0.07 0.27 0.26 0.26h1.42c0.19 0 0.25-0.07 0.25 -0.26 0.013 -0.848 0.13 -1.69 0.35 -2.51a5.39 5.39 0 0 1 1.58-2.8 4.69 4.69 0 0 1 2-1A10.18 10.18 0 0 1 19 0h4.23a5 5 0 0 1 3.72 1.57A5.34 5.34 0 0 1 28 3.64a8.4 8.4 0 0 1 0.36 2.05v0.8c0 0.27 0 0.26 0.27 0.26h10.43a1.58 1.58 0 0 1 1.62 1.06c0.067 0.22 0.101 0.45 0.1 0.68 0.01 3.85 0.01 7.71 0.01 11.56zm-30.86-0.24A10.51 10.51 0 1 0 20.07 9.3 10.48 10.48 0 0 0 9.93 19.81zm24.56-7.31H37a1.34 1.34 0 0 0 1.11-0.5 2 2 0 0 0 0.38-1.58 1.63 1.63 0 0 0-1.56-1.44h-4.95a1.47 1.47 0 0 0-1.39 0.93 2 2 0 0 0-0.12 1.4A1.54 1.54 0 0 0 32 12.5h2.49z" fill="#FFF"/>
  <path d="M20.49 26.09a6.08 6.08 0 0 0 2.75-0.58A6.44 6.44 0 0 0 26.08 23a5.63 5.63 0 0 0 0.92-2.53 6.15 6.15 0 0 0-1.65-4.91 6.27 6.27 0 0 0-3.25-1.88 6.64 6.64 0 0 0-2.31-0.17 7.29 7.29 0 0 0-2.16 0.59 6.22 6.22 0 0 0-2.77 2.42 6.15 6.15 0 0 0 0.29 7 6.43 6.43 0 0 0 2.5 2 6.25 6.25 0 0 0 2.84 0.57 z" fill="#FFF"/>
  <path d="M20.49 26.09a6.25 6.25 0 0 1-2.89-0.59 6.43 6.43 0 0 1-2.5-2 6.15 6.15 0 0 1-0.29-6.95 6.22 6.22 0 0 1 2.77-2.42 7.29 7.29 0 0 1 2.16-0.59 6.64 6.64 0 0 1 2.31 0.17 6.27 6.27 0 0 1 3.25 1.88 6.15 6.15 0 0 1 1.7 4.88 5.63 5.63 0 0 1-0.92 2.53 6.44 6.44 0 0 1-2.84 2.5 6.08 6.08 0 0 1-2.75 0.59 z" fill="#FFF"/>
</svg>
