<?xml version="1.0" ?>
<svg xmlns="http://www.w3.org/2000/svg" width="256" height="256" viewBox="0 0 256 256">
  <g transform="translate(41.49,122.16)">
    <path d="M 118.553 0 C 134.745988865 0 147.873 13.0486609662 147.873 29.145 C 147.873 45.2413390338 134.745988865 58.29 118.553 58.29 C 102.360011135 58.29 89.233 45.2413390338 89.233 29.145 C 89.233 13.0486609662 102.360011135 0 118.553 0 Z" fill="#FFF"/>
    <path d="M 29.32 0 C 45.512988865 0 58.64 13.0486609662 58.64 29.145 C 58.64 45.2413390338 45.512988865 58.29 29.32 58.29 C 13.127011135 58.29 0 45.2413390338 0 29.145 C 0 13.0486609662 13.127011135 0 29.32 0 Z" fill="#FFF"/>
  </g>
  <path d="M164.513 42.82c1.195 2.872 1.793 5.891 1.793 9.06 0 3.464-0.722 6.731-2.166 9.8-1.445 3.069-3.461 5.668-6.05 7.796a5448.089 5448.089 0 0 1-14.641 13.29 16405.59 16405.59 0 0 1-13.52 12.252 2.88 2.88 0 0 1-1.867 0.668 2.88 2.88 0 0 1-1.868-0.668c-2.44-2.178-8.838-7.994-19.196-17.449-4.93-4.455-7.744-6.98-8.44-7.573a8.134 8.134 0 0 0-0.673-0.594 21.881 21.881 0 0 1-5.9-7.76c-1.395-3.043-2.117-6.273-2.167-9.689-0.05-3.118 0.548 -6.138 1.793-9.058a22.247 22.247 0 0 1 4.93-7.35c4.183-4.258 9.187-6.386 15.013-6.386 3.187 0 6.212 0.693 9.076 2.079 2.863 1.386 5.34 3.341 7.432 5.865 2.091-2.524 4.569-4.48 7.432-5.865a20.569 20.569 0 0 1 9.075-2.08c5.827 0 10.831 2.105 15.014 6.312a22.247 22.247 0 0 1 4.93 7.35z" fill="#FFF"/>
  <path d="M119.676 186.869h57.366l40.793-22.81c11.898-32.946 22.946-46.463 33.145-40.55 10.198 5.914 3.824 24.922-19.122 57.024l-42.068 25.344v50.687h-70.114v-44.351l-14.023 3.801v40.55H31.715v-44.351c-11.048-4.224-14.023-10.983-8.923-20.275 4.249-5.07 11.048-5.07 20.396 0 2.984-2.94 5.534-4.63 7.65-5.07 0 0 12.449-0.048 17.846 0 7.17 0.065 15.298 0 16.573 0 6.798 1.663 11.048 4.197 12.747 7.604l21.672-7.603zM255.541 108.219V1.827a0.863 0.863 0 0 0-0.862-0.863H1.445a0.863 0.863 0 0 0-0.863 0.863 v184.55c0 0.477 0.387 0.863 0.863 0.863H20.98c1.7-1.267 2.55-2.534 2.55-3.801 0-1.267-0.85-2.535-2.55-3.802H8.663a0.431 0.431 0 0 1-0.432-0.431V7.73c0-0.238 0.193 -0.431 0.432 -0.431h240.073c0.238 0 0.431 0.193 0.431 0.431 v100.455c0 0.309 0.165 0.593 0.431 0.747 1.164 0.673 2.125 1.009 2.883 1.009 0.755 0 1.645-0.333 2.668-1a0.863 0.863 0 0 0 0.392-0.723z" fill="#FFF"/>
</svg>
