<?xml version="1.0" ?>
<svg xmlns="http://www.w3.org/2000/svg" width="42" height="37" viewBox="0 0 42 37">
  <path d="M14.34 3.46c0.27-0.75 0.52 -1.43 0.76 -2.11a1 1 0 0 0-0.34-1.09 0.88 0.88 0 0 0-1-0.2 4.42 4.42 0 0 0-2 1.5A15.52 15.52 0 0 0 10 4.34c-0.52 0.92 -1 1.84-1.59 2.75a0.35 0.35 0 0 1-0.25 0.18 4 4 0 0 0-2.5 1 11.25 11.25 0 0 0-2.19 2.38C2.63 11.79 1.78 13 1 14.17a5.33 5.33 0 0 0-1 2.16A3.36 3.36 0 0 0 0.75 19a6.71 6.71 0 0 0 1.91 1.6 13 13 0 0 0 2.76 1.38c0.3 0.09 0.61 0.14 0.91 0.23 a0.27 0.27 0 0 1 0.17 0.16 9.08 9.08 0 0 0 1.72 4.35A10.78 10.78 0 0 0 11.73 30a0.24 0.24 0 0 1 0.13 0.34 3.5 3.5 0 0 1-1.13 1.58 20 20 0 0 0-1.68 1.38 2 2 0 0 0-0.51 0.85 1.51 1.51 0 0 0 0.94 1.73A2.45 2.45 0 0 0 11 36a4.72 4.72 0 0 0 2.47-1.23 3.29 3.29 0 0 0 0.65-0.88 0.94 0.94 0 0 1 0.75-0.55c0.9-0.17 1.8-0.34 2.71-0.48 1.24-0.19 2.49-0.35 3.73-0.52l1.64-0.19H23c-0.39 0.27 -0.77 0.53 -1.14 0.8 a4.08 4.08 0 0 0-0.33 0.25 1.49 1.49 0 0 0-0.48 2 1.79 1.79 0 0 0 1.42 1.1 3.25 3.25 0 0 0 1-0.11l2.68-0.42c1.38-0.22 2.77-0.42 4.15-0.67a6.14 6.14 0 0 0 1.22-0.38 2.62 2.62 0 0 0 0.66-0.44 2.31 2.31 0 0 0 0.43-0.45A9 9 0 0 1 34.45 32c0.394-0.31 0.768 -0.643 1.12-1a0.34 0.34 0 0 1 0.48 0 2 2 0 0 0 0.32 0.17 c0.42 0.184 0.908 0.114 1.26-0.18a9.09 9.09 0 0 0 3.23-4.28 3 3 0 0 0 0-2.24 0.94 0.94 0 0 0-1.6-0.47c-0.46 0.38 -0.87 0.83 -1.29 1.24l-0.68 0.68 v-0.34a50.1 50.1 0 0 0-0.58-5 18.28 18.28 0 0 0-0.38-1.93 10.3 10.3 0 0 0-0.62-1.5 13 13 0 0 0-2.67-4 10.21 10.21 0 0 0-4.24-2.47 16.08 16.08 0 0 0-5.94-0.48 26.93 26.93 0 0 0-3.79 0.6 10.41 10.41 0 0 0-1.35 0.56 l-1.51 0.64 a0.73 0.73 0 0 1-1-0.65 8.92 8.92 0 0 1 1-3.86c0.65-1.51 1.3-3 1.93-4.54a2.69 2.69 0 0 0 0.26-1.43 0.81 0.81 0 0 0-1-0.74 2.38 2.38 0 0 0-1.18 0.46 6.58 6.58 0 0 0-1.62 1.87l-0.17 0.24 -0.09 0.11 z" fill="#FFF"/>
</svg>
