<?xml version="1.0" ?>
<svg xmlns="http://www.w3.org/2000/svg" width="36" height="37" viewBox="0 0 36 37">
  <path d="M18 18.89c0.9 0 1.73-0.05 2.55-0.09 0.54 0 1.07-0.1 1.6-0.14l1-0.1a7.53 7.53 0 0 0 0.8-0.09c0.67-0.11 1.33-0.23 2-0.36 0.48 -0.1 1-0.21 1.43-0.35 0.43 -0.14 1-0.34 1.56-0.54a7.8 7.8 0 0 0 1.86-1 3.57 3.57 0 0 0 1-1.11 7.13 7.13 0 0 0 0.31-0.7 4.34 4.34 0 0 0 0.3-1.42v-1.55a6.52 6.52 0 0 0-0.18-1.23 11.52 11.52 0 0 0-0.45-1.52c-0.24-0.63-0.52-1.25-0.82-1.85A11.28 11.28 0 0 0 29 4.2a11.16 11.16 0 0 0-1.75-1.54c-0.62-0.47-1.29-0.87-2-1.19-0.68-0.3-1.37-0.58-2.07-0.82A9.37 9.37 0 0 0 21.72 0.3 a20.88 20.88 0 0 0-2.23-0.3h-2.5c-0.381 0.01 -0.762 0.04 -1.14 0.09 -0.57 0.08 -1.13 0.17 -1.69 0.29 C13.6 0.5 13 0.65 12.5 0.82 a13.73 13.73 0 0 0-2 0.83 11.67 11.67 0 0 0-2.69 1.86A11.17 11.17 0 0 0 5.35 6.8c-0.28 0.58 -0.53 1.18-0.76 1.78a7.93 7.93 0 0 0-0.33 1.08c-0.1 0.4 -0.18 0.8 -0.26 1.2a5.77 5.77 0 0 0-0.16 1.81 4.65 4.65 0 0 0 0.57 1.78 6.13 6.13 0 0 0 1.71 1.91 9.42 9.42 0 0 0 2.73 1.4 18.3 18.3 0 0 0 2.18 0.55 c0.71 0.15 1.43 0.23 2.14 0.31 0.71 0.08 1.31 0.14 2 0.17 0.93 0.05 1.9 0.07 2.83 0.1 zm8.39 6.35c0.12-0.24 0.24 -0.49 0.37 -0.73 0 0 0.1-0.06 0.14 -0.06 0.058 0.016 0.115 0.036 0.17 0.06a2.85 2.85 0 0 1 1.74 1.35c0.312 0.52 0.592 1.057 0.84 1.61a0.82 0.82 0 0 1-0.35 1.19c-0.12 0.06 -0.09 0.15 -0.07 0.24 0.054 0.364 0.087 0.732 0.1 1.1 0 0.29-0.06 0.58 -0.07 0.88 -0.01 0.3 0 0.66 0 1a0.81 0.81 0 0 1-0.31 0.64 1.45 1.45 0 0 1-1 0.3 13.17 13.17 0 0 1-1.66-0.07 1.74 1.74 0 0 1-0.7-0.22 0.51 0.51 0 0 0-0.74 0.11 0.91 0.91 0 0 1-1.46-0.35c0-0.12-0.09-0.11-0.19-0.1-0.5 0.07 -1 0.16-1.5 0.18 a22.61 22.61 0 0 1-3.39-0.12c-0.7-0.07-1.4-0.07-2.1-0.11L14.69 32a3.75 3.75 0 0 1-0.57-0.09c-0.4-0.09-0.81-0.18-1.21-0.29a10.64 10.64 0 0 1-1.35-0.44 1.61 1.61 0 0 0-1.2-0.1 3.74 3.74 0 0 1-1.36 0.19 0.74 0.74 0 0 1-0.74-0.49 2.1 2.1 0 0 1-0.14-0.66 0.43 0.43 0 0 0-0.27-0.37c-0.21-0.11-0.41-0.23-0.6-0.35a6.68 6.68 0 0 1-1.3-1.13c-0.06-0.07-0.11-0.11-0.18 0A2.29 2.29 0 0 0 5 29.69 3 3 0 0 0 5.67 32a6.79 6.79 0 0 0 2.05 1.68 12.51 12.51 0 0 0 2.76 1.19c0.5 0.15 1 0.31 1.49 0.43 s1.29 0.29 1.94 0.4 c0.65 0.11 1.22 0.17 1.83 0.23 0.61 0.06 1.15 0.07 1.73 0.09 h2.92c0.62 0 1.24-0.14 1.85-0.22 0.43 -0.06 0.87 -0.15 1.29-0.24 0.42 -0.09 0.71 -0.19 1.06-0.29 0.35 -0.1 0.9 -0.25 1.33-0.43 0.67 -0.28 1.34-0.59 2-0.92a8.93 8.93 0 0 0 2-1.42 3.42 3.42 0 0 0 1.17-2.22 3.32 3.32 0 0 0-0.18-1.36h0.07a5 5 0 0 0 2-0.32 4.85 4.85 0 0 1 1.25-0.24h0.19a1.2 1.2 0 0 0-0.67-0.38 1.12 1.12 0 0 1 0.13-0.16 3.77 3.77 0 0 0 0.87-1.18c0.2-0.37 0.39 -0.74 0.6 -1.09 0.21 -0.35 0.35 -0.49 0.54 -0.75a1.08 1.08 0 0 0-0.19 0 4.48 4.48 0 0 0-2 0.38 4.19 4.19 0 0 1-1.32 0.48 0.71 0.71 0 0 0-0.38 0.23 c-0.23 0.24 -0.47 0.48 -0.72 0.7 a1.18 1.18 0 0 1-1.12 0.25 1.53 1.53 0 0 1-1-0.93 2 2 0 0 0-0.41-0.66 5.18 5.18 0 0 1-1.14-1.37 3.31 3.31 0 0 0-0.93-1 1 1 0 0 0-0.1 0.16 L26 24.23c-0.19 0.4 -0.38 0.8 -0.58 1.2-0.31 0.63 -0.61 1.26-0.94 1.87a1.41 1.41 0 0 1-1.84 0.64 c-0.71-0.31-1.38-0.69-2.09-1-0.71-0.31-1.23-0.53-1.86-0.77-0.44-0.17-0.89-0.31-1.34-0.45-0.45-0.14-0.79-0.24-1.19-0.34l-1.27-0.28-1.5-0.26c-0.27-0.05-0.54-0.07-0.82-0.11-0.46-0.07-0.92-0.15-1.39-0.2a8.19 8.19 0 0 0-2.42 0.06 A12.28 12.28 0 0 0 7.3 25a1.32 1.32 0 0 1-1.25-0.11c-0.35-0.22-0.39-0.3-0.26-0.71 0-0.16 0.08 -0.33 0.12 -0.49 0.04 -0.16 0.11 -0.51 0.17 -0.77 0.06 -0.26 0.19 -0.77 0.28 -1.15 0.09 -0.38 0.14 -0.56 0.2 -0.84 0.06 -0.28 0.09 -0.29 0.12 -0.44 0.03 -0.15-0.22-0.19-0.3-0.32-0.08-0.13 0 0 0 0l-0.43-0.37c-0.12 0.48 -0.24 0.92 -0.34 1.38 0 0.16-0.08 0.24 -0.26 0.22 a8.11 8.11 0 0 1-2-0.39c0.031 0.063 0.068 0.123 0.11 0.18 l0.68 0.81 s0.06 0.08 0 0.09a0.15 0.15 0 0 1-0.11 0.07 1.74 1.74 0 0 1-0.91-0.16c-0.36-0.16-0.72-0.34-1.09-0.49a4.79 4.79 0 0 0-1.95-0.24H0a5.85 5.85 0 0 1 1 1.38c0.24 0.42 0.48 0.84 0.74 1.25 0.143 0.182 0.3 0.352 0.47 0.51-0.41 0.13 -0.53 0.2 -0.64 0.4 0.22 0 0.44 0.05 0.65 0.09 0.59 0.14 1.16 0.31 1.75 0.41 a4.25 4.25 0 0 0 1.07 0 0.42 0.42 0 0 1 0.27 0.07 l0.53 0.35 a0.25 0.25 0 0 1 0.12 0.13 c0.03 0.115 0.05 0.232 0.06 0.35 0.04 0.312 0.139 0.614 0.29 0.89 0.3 0.518 0.694 0.975 1.16 1.35 0.122 0.093 0.249 0.18 0.38 0.26v-1.02a1.14 1.14 0 0 1-0.68-0.48 1.43 1.43 0 0 1-0.17-0.89 0.4 0.4 0 0 1 0.44-0.41h0.09l0.52-0.14-0.14 0.73 h0.64a0.24 0.24 0 0 1 0.14 0.14 5.11 5.11 0 0 1 0 1 3 3 0 0 0 0.22 1.61 4 4 0 0 1 0.34 1.26c0 0.13 0.08 0.12 0.16 0.1 0.36 -0.07 0.73 -0.13 1.1-0.22a2.37 2.37 0 0 0 1.37-0.73 2.61 2.61 0 0 1 0.23-0.24c0.1-0.08 0.19 -0.15 0.33 -0.07l0.45 0.22 0.34 0.21 a2.19 2.19 0 0 1-0.16-1.1c0-0.17 0-0.24 0.21 -0.23 0.21 0.01 0.17 0 0.19-0.15 0.08 -0.36 0.18 -0.72 0.28 -1.08a1.88 1.88 0 0 0 0.2-0.87c0-0.11-0.06-0.21-0.1-0.35l0.84 0.15 c0.14 0 0.18 0.12 0.18 0.25 a3.44 3.44 0 0 1-0.27 1.19 1.8 1.8 0 0 0-0.19 0.79 0.94 0.94 0 0 1-0.3 0.74 c-0.14 0.12 -0.13 0.22 -0.05 0.37 a0.92 0.92 0 0 1-0.76 1.33 1.26 1.26 0 0 1-0.79-0.29c-0.14-0.1-0.24 0-0.33 0.07 -0.09 0.07 0 0.11 0 0.12 0.26 0.09 0.52 0.18 0.78 0.25s0.69 0.18 1 0.24a8 8 0 0 0 1.28 0.21 c1.14 0.08 2.28 0.12 3.43 0.18 0.61 0 1.22 0.09 1.83 0.11 a10.09 10.09 0 0 0 2.05-0.13c0.13 0 0.26-0.06 0.42 -0.1a1.28 1.28 0 0 1-0.15-0.23c-0.08-0.18-0.12-0.38-0.21-0.55-0.09-0.17-0.36-0.58-0.54-0.87a2.56 2.56 0 0 1-0.34-1H22c0.165 0.072 0.335 0.128 0.51 0.17 a0.62 0.62 0 0 1 0.55 0.44 4 4 0 0 1 0.59 1.16c0 0.09 0.07 0.14 0.18 0.1a2.28 2.28 0 0 1 0.31 0l0.19 1.26c0.16-0.15 0.33 -0.32 0.52 -0.47a0.41 0.41 0 0 1 0.52 0c0.183 0.133 0.381 0.244 0.59 0.33 a5.08 5.08 0 0 0 1.1 0.2 7.82 7.82 0 0 0 1.08-0.06c0.11 0 0.2-0.05 0.2 -0.21a10.49 10.49 0 0 1 0.05-1.12 3.36 3.36 0 0 0 0-1.48c-0.11-0.31-0.19-0.64-0.29-0.95-0.1-0.31-0.05-0.33 0.19 -0.38l0.49-0.1c-0.17-0.35-0.32-0.68-0.5-1A2.42 2.42 0 0 0 27 25.44c-0.21-0.08-0.41-0.13-0.64-0.2h0.03zM5.27 17.07a0.92 0.92 0 0 0 0 0.19c0.135 0.308 0.292 0.605 0.47 0.89 a7 7 0 0 0 2.32 2.06c0.876 0.506 1.81 0.906 2.78 1.19 0.64 0.18 1.27 0.37 1.92 0.51 0.562 0.11 1.13 0.19 1.7 0.24 0.61 0.06 1.22 0.08 1.83 0.12 A24 24 0 0 0 21 22.1c0.47-0.07 0.94 -0.16 1.41-0.24a11.26 11.26 0 0 0 2.34-0.7 8.47 8.47 0 0 0 2.47-1.5 3.88 3.88 0 0 0 0.82-1 1.86 1.86 0 0 0-0.34 0.07 c-0.65 0.16 -1.29 0.34 -1.94 0.47 -0.65 0.13 -1.26 0.23 -1.9 0.32 -0.64 0.09 -1.41 0.16 -2.12 0.22 -0.71 0.06 -1.68 0.12 -2.53 0.15 a53.59 53.59 0 0 1-6.46-0.15c-0.21 0-0.43 0-0.64-0.08-0.57-0.11-1.14-0.23-1.7-0.37A14 14 0 0 1 9 18.86c-0.51-0.18-1-0.4-1.52-0.62-0.52-0.22-0.9-0.44-1.35-0.68l-0.86-0.49zM35 21.76a0.46 0.46 0 0 0-0.2-0.43c-0.26-0.2-0.54-0.39-0.8-0.58-0.65-0.45-1.31-0.89-1.93-1.37a9.69 9.69 0 0 0-2.26-1.48c-0.34-0.14-0.33-0.15-0.47 0.18 a6.59 6.59 0 0 1-1.61 2.2c-0.35 0.32 -0.73 0.6 -1.1 0.9 -0.14 0.11 -0.14 0.15 0 0.26 0.33 0.3 0.67 0.59 1 0.9a3 3 0 0 1 0.61 0.67 5.1 5.1 0 0 0 1.14 1.48c0.177 0.178 0.329 0.38 0.45 0.6 0.12 0.18 0.19 0.39 0.31 0.56 a0.39 0.39 0 0 0 0.62 0.11 2.52 2.52 0 0 0 0.3-0.27l0.89-1a6.63 6.63 0 0 1 1.68-1.39 4.55 4.55 0 0 0 1.12-0.82 0.74 0.74 0 0 0 0.25-0.52z" fill="#FFF"/>
  <path d="M18 18.89c-0.9 0-1.87-0.05-2.84-0.1-0.65 0-1.31-0.09-2-0.17-0.69-0.08-1.43-0.16-2.14-0.31a18.3 18.3 0 0 1-2.18-0.55 9.42 9.42 0 0 1-2.73-1.4 6.13 6.13 0 0 1-1.71-1.91 4.65 4.65 0 0 1-0.57-1.78A5.77 5.77 0 0 1 4 10.86c0.08-0.4 0.16 -0.8 0.26 -1.2a7.93 7.93 0 0 1 0.33-1.08c0.23-0.6 0.48 -1.2 0.76 -1.78a11.17 11.17 0 0 1 2.46-3.29 11.67 11.67 0 0 1 2.66-1.86 13.73 13.73 0 0 1 2-0.83C13 0.65 13.6 0.52 14.16 0.4 s1.12-0.21 1.69-0.29A10.94 10.94 0 0 1 17 0h2.5c0.745 0.06 1.486 0.16 2.22 0.3 a9.37 9.37 0 0 1 1.48 0.35 c0.7 0.24 1.39 0.52 2.07 0.82 0.71 0.32 1.38 0.72 2 1.19A11.16 11.16 0 0 1 29 4.2a11.28 11.28 0 0 1 1.91 2.63c0.3 0.6 0.58 1.22 0.82 1.85 0.185 0.496 0.335 1.004 0.45 1.52 0.099 0.403 0.16 0.815 0.18 1.23v1.55a4.34 4.34 0 0 1-0.3 1.42 7.13 7.13 0 0 1-0.31 0.7 3.57 3.57 0 0 1-1 1.11 7.8 7.8 0 0 1-1.86 1c-0.51 0.2 -1 0.39-1.56 0.54 -0.56 0.15 -1 0.25-1.43 0.35 -0.67 0.13 -1.33 0.25 -2 0.36a7.53 7.53 0 0 1-0.8 0.09 l-1 0.1c-0.53 0-1.06 0.11 -1.6 0.14 -0.8 0.05 -1.63 0.07 -2.5 0.1 zM13.11 5.63a1.1 1.1 0 0 0 0.92-1 0.35 0.35 0 0 0-0.44-0.32 1.28 1.28 0 0 0-0.86 0.89 0.39 0.39 0 0 0 0.38 0.43 zm5.52-0.87c0-0.16-0.07-0.32-0.12-0.47-0.12-0.32-0.42-0.4-0.6-0.17a1.12 1.12 0 0 0-0.17 1.22c0.14 0.31 0.41 0.42 0.64 0.09 a1.12 1.12 0 0 0 0.25-0.67zm7.09 1.42c-0.26 0-0.41 0.27 -0.37 0.47 0.066 0.398 0.314 0.742 0.67 0.93 0.12 0.07 0.3 0.13 0.4 0a0.7 0.7 0 0 0 0.13-0.42 1 1 0 0 0-0.14-0.42 1 1 0 0 0-0.69-0.56zm-15.49 0.91 c0-0.34-0.3-0.44-0.54-0.28L9.42 7a1.2 1.2 0 0 0-0.37 0.71 0.43 0.43 0 0 0 0.15 0.44 0.33 0.33 0 0 0 0.41 0 1.23 1.23 0 0 0 0.62-1.06zm12.6-1.28a0.34 0.34 0 0 0 0.39-0.4 1.16 1.16 0 0 0-0.86-0.93 0.31 0.31 0 0 0-0.4 0.34 0.82 0.82 0 0 0 0.09 0.38 1 1 0 0 0 0.78 0.61 zM16 8.71v-0.13c-0.06-0.3-0.27-0.44-0.5-0.32a1.23 1.23 0 0 0-0.5 1.29 0.32 0.32 0 0 0 0.44 0.19 A1.2 1.2 0 0 0 16 8.71zm4.62 1.23a2.1 2.1 0 0 0 0.09 0.33 c0.067 0.234 0.207 0.441 0.4 0.59 a0.34 0.34 0 0 0 0.55-0.2 1.07 1.07 0 0 0-0.16-0.87 0.93 0.93 0 0 0-0.35-0.36c-0.26-0.12-0.49 0.03 -0.52 0.51 h-0.01zM26.36 25.24c0.23 0.07 0.43 0.12 0.63 0.2 a2.42 2.42 0 0 1 1.23 1.17c0.18 0.33 0.33 0.66 0.5 1l-0.49 0.1 c-0.24 0.05 -0.27 0.13 -0.19 0.38 0.08 0.25 0.18 0.64 0.29 0.95 0.11 0.487 0.11 0.993 0 1.48a10.49 10.49 0 0 0-0.05 1.12c0 0.16-0.09 0.2 -0.2 0.21 a7.82 7.82 0 0 1-1.08 0.06 5.08 5.08 0 0 1-1.1-0.2 2.86 2.86 0 0 1-0.59-0.33 0.41 0.41 0 0 0-0.52 0c-0.19 0.15 -0.36 0.32 -0.52 0.47 l-0.19-1.26a2.28 2.28 0 0 0-0.31 0c-0.11 0-0.16 0-0.18-0.1a4 4 0 0 0-0.59-1.11 0.62 0.62 0 0 0-0.55-0.44 3.05 3.05 0 0 1-0.51-0.17h-0.14c0.043 0.353 0.158 0.694 0.34 1 0.18 0.29 0.37 0.57 0.54 0.87 0.17 0.3 0.13 0.37 0.21 0.55 0.042 0.082 0.092 0.159 0.15 0.23 -0.16 0-0.29 0.08 -0.42 0.1 a10.09 10.09 0 0 1-2.05 0.13 c-0.61 0-1.22-0.08-1.83-0.11-1.15-0.06-2.29-0.1-3.43-0.18a8 8 0 0 1-1.28-0.21c-0.35-0.06-0.7-0.15-1-0.24-0.3-0.09-0.52-0.16-0.78-0.25v-0.12c0-0.02 0.19 -0.17 0.33 -0.07 0.222 0.184 0.501 0.287 0.79 0.29a0.92 0.92 0 0 0 0.76-1.33c-0.08-0.15-0.09-0.25 0.05 -0.37a0.94 0.94 0 0 0 0.3-0.74 1.8 1.8 0 0 1 0.19-0.79c0.16-0.377 0.252 -0.78 0.27 -1.19 0-0.13 0-0.22-0.18-0.25l-0.84-0.15c0 0.14 0.08 0.24 0.1 0.35 0.004 0.302-0.064 0.6 -0.2 0.87 -0.1 0.36 -0.2 0.72 -0.28 1.08 0 0.13-0.09 0.15 -0.19 0.15 s-0.21 0.06 -0.21 0.23 a2.19 2.19 0 0 0 0.16 1.1l-0.34-0.21-0.45-0.22c-0.14-0.08-0.23 0-0.33 0.07 a2.61 2.61 0 0 0-0.23 0.24 2.37 2.37 0 0 1-1.37 0.73 c-0.37 0.09 -0.74 0.15 -1.1 0.22 -0.08 0-0.16 0-0.16-0.1a4 4 0 0 0-0.34-1.26 3 3 0 0 1-0.22-1.61 5.11 5.11 0 0 0 0-1 0.24 0.24 0 0 0-0.14-0.14h-0.64l0.14-0.73-0.52 0.14 h-0.09a0.4 0.4 0 0 0-0.44 0.41 1.43 1.43 0 0 0 0.09 0.89 c0.158 0.24 0.4 0.411 0.68 0.48 v1.06a4.28 4.28 0 0 1-0.38-0.26 4.86 4.86 0 0 1-1.16-1.35 2.52 2.52 0 0 1-0.3-0.83 2.14 2.14 0 0 0-0.06-0.35 0.25 0.25 0 0 0-0.12-0.13l-0.53-0.35a0.42 0.42 0 0 0-0.29-0.07 4.25 4.25 0 0 1-1.07 0c-0.59-0.1-1.16-0.27-1.75-0.41-0.21 0-0.43-0.06-0.65-0.09 0.11 -0.2 0.23 -0.27 0.64 -0.4a4.51 4.51 0 0 1-0.47-0.51c-0.26-0.41-0.5-0.83-0.74-1.25A5.85 5.85 0 0 0 0 21.27h0.08a4.79 4.79 0 0 1 1.92 0.2 c0.37 0.15 0.73 0.33 1.09 0.49 0.293 0.124 0.615 0.166 0.93 0.12 a0.15 0.15 0 0 0 0.14-0.08v-0.09l-0.68-0.81a1.18 1.18 0 0 1-0.11-0.18 8.11 8.11 0 0 0 2 0.39c0.18 0 0.23-0.06 0.26 -0.22 0.1 -0.46 0.22 -0.9 0.34 -1.38l0.43 0.37 s0.33 0.1 0.3 0.32 c-0.03 0.22 -0.08 0.3 -0.12 0.44 -0.04 0.14 -0.13 0.56 -0.2 0.84 -0.07 0.28 -0.18 0.77 -0.28 1.15-0.1 0.38 -0.11 0.51 -0.17 0.77 -0.06 0.26 -0.07 0.33 -0.12 0.49 -0.13 0.41 -0.09 0.49 0.26 0.71 0.35 0.268 0.812 0.343 1.23 0.2 0.476-0.15 0.96 -0.27 1.45-0.36a8.19 8.19 0 0 1 2.42-0.06c0.47 0 0.93 0.13 1.39 0.2 0.28 0 0.55 0.06 0.82 0.11 l1.5 0.26 1.27 0.28 c0.4 0.1 0.8 0.21 1.19 0.34 0.39 0.13 0.9 0.28 1.34 0.45 0.63 0.24 1.25 0.49 1.86 0.77 0.61 0.28 1.38 0.69 2.09 1a1.41 1.41 0 0 0 1.84-0.64c0.33-0.61 0.63 -1.24 0.94 -1.87 0.2 -0.4 0.39 -0.8 0.58 -1.2l0.6-1.29a1 1 0 0 1 0.1-0.16c0.376 0.265 0.693 0.606 0.93 1 0.298 0.52 0.684 0.983 1.14 1.37a2 2 0 0 1 0.41 0.66 c0.169 0.45 0.54 0.794 1 0.93a1.18 1.18 0 0 0 1.12-0.25c0.25-0.22 0.49 -0.46 0.72 -0.7a0.71 0.71 0 0 1 0.38-0.23 4.19 4.19 0 0 0 1.32-0.48 4.48 4.48 0 0 1 2-0.38 1.08 1.08 0 0 1 0.19 0c-0.19 0.26 -0.38 0.49 -0.54 0.75 -0.16 0.26 -0.4 0.72 -0.6 1.09a3.77 3.77 0 0 1-0.87 1.18 1.12 1.12 0 0 0-0.13 0.16 1.2 1.2 0 0 1 0.67 0.38 h-0.19a4.85 4.85 0 0 0-1.25 0.24 5 5 0 0 1-2 0.32h-0.07c0.154 0.436 0.215 0.9 0.18 1.36a3.42 3.42 0 0 1-1.17 2.22 8.93 8.93 0 0 1-2 1.42c-0.65 0.33 -1.32 0.64 -2 0.92-0.43 0.18 -0.88 0.29 -1.33 0.43 -0.45 0.14 -0.7 0.21 -1.06 0.29 -0.36 0.08 -0.86 0.18 -1.29 0.24 -0.61 0.08 -1.23 0.17 -1.85 0.22 -0.62 0.05 -1.24 0-1.87 0h-1.05c-0.58 0-1.15 0-1.73-0.09-0.58-0.09-1.22-0.13-1.83-0.23-0.61-0.1-1.29-0.24-1.94-0.4-0.65-0.16-1-0.28-1.49-0.43a12.51 12.51 0 0 1-2.76-1.19 6.79 6.79 0 0 1-2-1.68A3 3 0 0 1 5 29.69a2.29 2.29 0 0 1 0.79-1.46c0.07-0.07 0.12 0 0.18 0 0.383 0.431 0.82 0.811 1.3 1.13 0.19 0.12 0.39 0.24 0.6 0.35a0.43 0.43 0 0 1 0.27 0.37 2.1 2.1 0 0 0 0.14 0.66 c0.11 0.31 0.412 0.51 0.74 0.49 a3.74 3.74 0 0 0 1.37-0.17 1.61 1.61 0 0 1 1.2 0.1 c0.44 0.177 0.89 0.324 1.35 0.44 0.4 0.11 0.81 0.2 1.21 0.29 0.187 0.045 0.378 0.075 0.57 0.09 l1.51 0.09 c0.7 0 1.4 0 2.1 0.11 a22.61 22.61 0 0 0 3.39 0.12 c0.5 0 1-0.11 1.5-0.18 0.1 0 0.16 0 0.19 0.1 a0.91 0.91 0 0 0 1.46 0.35 0.51 0.51 0 0 1 0.74-0.11c0.215 0.122 0.454 0.197 0.7 0.22 a13.17 13.17 0 0 0 1.66 0.07 1.45 1.45 0 0 0 1-0.3 0.81 0.81 0 0 0 0.31-0.64v-1c0-0.33 0.08 -0.59 0.07 -0.88a9.76 9.76 0 0 0-0.13-1.07c0-0.09-0.05-0.18 0.07 -0.24a0.82 0.82 0 0 0 0.35-1.19 15.34 15.34 0 0 0-0.84-1.61 2.85 2.85 0 0 0-1.8-1.31 1.15 1.15 0 0 0-0.17-0.06s-0.12 0-0.14 0.06 c-0.09 0.24 -0.21 0.49 -0.33 0.73 zm-0.52 1.47c-0.13 0.24 -0.23 0.47 -0.37 0.69 -0.14 0.22 0 0.18 0 0.28 0.33 0.35 0.65 0.69 0.94 1.06 0.185 0.24 0.355 0.49 0.51 0.75 0.28 -0.49-0.66-2.37-1.08-2.78z" fill="#FFF"/>
  <path d="M5.27 17.07l0.89 0.49 c0.45 0.24 0.89 0.47 1.35 0.68 0.46 0.21 1 0.44 1.52 0.62 a14 14 0 0 0 1.4 0.41 c0.56 0.14 1.13 0.26 1.7 0.37 0.21 0 0.43 0.06 0.64 0.08 2.148 0.18 4.306 0.23 6.46 0.15 0.85 0 1.69-0.09 2.53-0.15 0.84 -0.06 1.42-0.13 2.12-0.22 0.7 -0.09 1.27-0.19 1.9-0.32 0.63 -0.13 1.29-0.31 1.94-0.47a1.86 1.86 0 0 1 0.34-0.07 3.88 3.88 0 0 1-0.82 1 8.47 8.47 0 0 1-2.47 1.5 11.26 11.26 0 0 1-2.34 0.7 c-0.47 0.08 -0.94 0.17 -1.41 0.24 a24 24 0 0 1-4.71 0.17 c-0.61 0-1.22-0.06-1.83-0.12a16.17 16.17 0 0 1-1.7-0.24c-0.65-0.14-1.28-0.33-1.92-0.51a12.66 12.66 0 0 1-2.78-1.19 7 7 0 0 1-2.32-2.06 6.85 6.85 0 0 1-0.47-0.89 0.92 0.92 0 0 1-0.02-0.17zM35 21.76a0.74 0.74 0 0 1-0.27 0.56 4.55 4.55 0 0 1-1.12 0.82 6.63 6.63 0 0 0-1.68 1.39l-0.89 1a2.52 2.52 0 0 1-0.3 0.27 0.39 0.39 0 0 1-0.62-0.11c-0.12-0.17-0.19-0.38-0.31-0.56a2.69 2.69 0 0 0-0.45-0.6A5.1 5.1 0 0 1 28.19 23a3 3 0 0 0-0.61-0.67c-0.32-0.31-0.66-0.6-1-0.9-0.13-0.11-0.13-0.15 0-0.26 0.37 -0.3 0.75 -0.58 1.1-0.9a6.59 6.59 0 0 0 1.61-2.2c0.14-0.33 0.13 -0.32 0.47 -0.18A9.69 9.69 0 0 1 32 19.38c0.62 0.48 1.28 0.92 1.93 1.37 0.26 0.19 0.54 0.38 0.8 0.58a0.46 0.46 0 0 1 0.27 0.43 z" fill="#FFF"/>
</svg>
