<?xml version="1.0" ?>
<svg xmlns="http://www.w3.org/2000/svg" width="39" height="33" viewBox="0 0 39 33">
  <path d="M6.29 26.72H5.03c-0.18 0-0.19 0.08 -0.19 0.22 s0 0.25 0.19 0.24H6c0.14 0 0.28 0 0.33-0.17h0.87c0 0.2 0.09 0.23 0.24 0.23h1c0.17 0 0.32 0 0.32-0.23h0.74a0.17 0.17 0 0 1 0.13 0.07 c0 0.13 0.13 0.15 0.25 0.15h1.05c0.1 0 0.2 0 0.22-0.14 0.02 -0.14 0.07 -0.08 0.11 -0.08h0.81c0 0.21 0.1 0.23 0.25 0.22h1c0.17 0 0.33 0 0.33-0.21h0.86c0 0.18 0.09 0.22 0.24 0.21h1c0.16 0 0.29 0 0.28-0.23h0.67c0.12 0 0.22 0 0.26 0.15 0.04 0.15 0.12 0.07 0.18 0.07 h1c0.13 0 0.27 0 0.31-0.16 0 0 0.07-0.06 0.11 -0.06h0.78c0 0.21 0.09 0.23 0.25 0.23h1c0.15 0 0.31 0 0.28-0.22h0.86c0 0.19 0.13 0.22 0.28 0.22h1c0.16 0 0.29 0 0.29-0.23h0.7s0.11 0 0.12 0.07 c0.01 0.07 0.12 0.15 0.23 0.15 h1c0.17 0 0.3 0 0.33-0.22h0.84c0.06 0.21 0.06 0.22 0.28 0.22 h1c0.17 0 0.29 0 0.28-0.23h0.61c0.13 0 0.27 0 0.31 0.15 0 0 0.11 0.07 0.17 0.07 h1.09c0.2 0 0.19-0.12 0.2 -0.26 0.01 -0.14 0-0.21-0.21-0.2h-1v-0.84c0-0.27 0.05 -0.3-0.3-0.3H6.48c-0.15 0-0.2 0-0.19 0.19 0.01 0.28 0 0.59 0 0.92zm9.83 5.41h0.27c0.11 0 0.15 0 0.15-0.15v-2.36c0-0.17-0.1-0.17-0.22-0.18-0.12-0.01-0.2 0-0.2 0.17 v0.79c0 0.26 0 0.19-0.18 0.19 h-5.69c-0.15 0-0.18-0.06-0.18-0.19v-0.75c0-0.25-0.1-0.21-0.24-0.21-0.14 0-0.22 0-0.22 0.2 v2.3c0 0.16 0.07 0.19 0.2 0.19s0.26 0 0.26-0.18v-0.73c0-0.24 0.05 -0.22 0.23 -0.22h5.82v1.13zM7.25 4.26h0.66c0.21 0 0.22 0.06 0.22 0.23 v1.25c0 0.19 0.09 0.2 0.23 0.2s0.23 0 0.23-0.2V4.47a0.24 0.24 0 0 1 0.1-0.23c0.07-0.05 0.06 -0.35 0-0.35-0.2-0.06-0.13-0.21-0.13-0.33V0.88 0.7 a0.93 0.93 0 0 0-0.35 0s-0.06 0.13 -0.06 0.2 v2.74c0 0.16 0 0.22-0.21 0.21 -0.21-0.01-0.44 0-0.67 0l-0.02 0.41 zm26 9.83v0.14c0 0.27 0 0.27 0.27 0.27h1.11c0.29 0 0.29 0 0.29 0.28 v0.18h0.38v-0.17c0-0.29 0-0.29 0.3 -0.29h3.11c0.26 0 0.26 0 0.25-0.27 0.003 -0.05 0.003 -0.1 0-0.15h-3.58c-0.1 0 0-0.27 0-0.41 0-0.14 0-0.14-0.08-0.16-0.2-0.08-0.33 0-0.33 0.22 a1 1 0 0 0 0 0.16c0 0.19-0.05 0.24 -0.23 0.23 l-1.49-0.03zM3.88 26.72H2.62c-0.15 0-0.23 0-0.23 0.21 s0.05 0.26 0.24 0.25 c0.19-0.01 0.52 0 0.77 0s0.22 0.06 0.21 0.22 c-0.01 0.16 0 0.53 0 0.79s0 0.39 0.39 0.34v-1.35-0.07c-0.15-0.11-0.07-0.25-0.12-0.39zm27.73 0.45 h1.08c0.18 0 0.19-0.12 0.19 -0.25s0-0.21-0.19-0.2h-0.91c-0.06 0-0.11-0.08-0.17-0.1a1.17 1.17 0 0 0-0.32-0.06s-0.09 0.09 -0.09 0.14 v1.19c0 0.18 0.13 0.16 0.25 0.17 0.12 0.01 0.18 0 0.18-0.17s-0.03-0.46-0.03-0.72h0.01zm-0.23-22.92h1.37s0.1-0.09 0.11 -0.14c0-0.25 0-0.26-0.23-0.26h-1V2.43h-0.41V3.9c0.21 0.03 0.12 0.21 0.16 0.35 zm3.13 22.92h0.57c0.05 0 0.14 0 0.15-0.06a1 1 0 0 0 0.1-0.35v-1.05c0-0.16-0.07-0.18-0.2-0.18s-0.22 0-0.21 0.18 c0.01 0.18 0 0.54 0 0.81s0 0.21-0.2 0.21 h-0.79c-0.15 0-0.2 0.06 -0.19 0.2 0.01 0.14 0 0.26 0.19 0.26l0.58-0.02zM4.06 4.41V3.1c0-0.13 0-0.2-0.17-0.19-0.17 0.01 -0.27 0-0.26 0.2 0.01 0.2 0 0.37 0 0.56 0 0.19 0 0.2-0.2 0.2 h-0.86c-0.15 0-0.17 0.07 -0.17 0.19 s0 0.23 0.16 0.22h1c0.12 0.21 0.3 0.11 0.5 0.13 zm31.28-0.56h-1.42c-0.15 0-0.17 0.08 -0.17 0.2 0 0.12 0 0.22 0.17 0.22h0.79c0.26 0 0.23 0.06 0.22 0.23 -0.01 0.17 0 0.49 0 0.73s0.09 0.14 0.19 0.13 c0.1-0.01 0.22 0 0.22-0.12V3.85zM0.77 26.72H0.15c-0.1 0-0.16 0-0.14 0.13 0.02 0.13 -0.08 0.3 0.1 0.31 0.426 0.024 0.854 0.024 1.28 0 0.18 0 0.11-0.2 0.11 -0.31 0-0.11-0.09-0.12-0.15-0.13-0.06-0.01-0.35 0-0.58 0zm36.16 0h-0.59c-0.12 0-0.15 0.06 -0.14 0.16 0.01 0.1 -0.07 0.28 0.12 0.28 h1.23c0.16 0 0.14-0.14 0.14 -0.25 0-0.11 0-0.2-0.16-0.19h-0.6zM4 16.45V15c-0.41-0.07-0.42-0.06-0.42 0.33 v0.79c0 0.26 0.04 0.39 0.42 0.33zm0-7.22a0.62 0.62 0 0 0 0-0.08V7.92c0-0.16-0.06-0.19-0.2-0.18-0.14 0.01 -0.25 0-0.24 0.19 0.01 0.19 0 0.69 0 1 0 0.31 0 0.3 0.3 0.29l0.14 0.01 zm0 10.6c-0.41-0.09-0.43-0.07-0.43 0.31 v1.01c0 0.11 0.06 0.18 0.17 0.15 0.11 -0.03 0.25 0.07 0.25 -0.1 0.07 -0.45 0.06 -0.91 0.06 -1.37H4zm0 3.84V22.4c0-0.14 0-0.22-0.2-0.22s-0.25 0-0.24 0.22 c0.01 0.22 0 0.63 0 1s0 0.37 0.36 0.33l0.08-0.06zM4.06 0.53 L3.9 0.51 c-0.27 0-0.28 0-0.28 0.27 V1.87c0 0.16 0.15 0.14 0.26 0.15 0.11 0.01 0.17 0 0.17-0.16 0-0.44 0.01 -0.86 0.01 -1.33zM31.6 6.3V5.01c0-0.14 0-0.2-0.19-0.2s-0.24 0-0.24 0.2 v1c0 0.35 0.01 0.34 0.43 0.29zm0 12.07v-1.48c-0.41 0-0.41 0-0.41 0.34 V18.37h0.41zm0 3.34a1.26 1.26 0 0 0-0.27 0c-0.05 0-0.13 0.07 -0.13 0.11 v1.27s0.07 0.1 0.12 0.11 c0.096 0.01 0.194 0.01 0.29 0l-0.01-1.49zm-0.4-12.05v1.48h0.39V9.66h-0.39zM4.06 10.9v-0.6c0-0.2 0-0.17-0.16-0.17s-0.26 0-0.27 0.15 v1.23c0 0.19 0.17 0.11 0.28 0.12 0.11 0.01 0.16 0 0.15-0.14-0.01-0.14 0-0.39 0-0.59zm27.12 3.6v1.34c0 0.3 0.11 0.16 0.22 0.15 0.11 -0.01 0.2 0 0.2-0.12V14.5h-0.42zm0.43 11.11v-1.37c0-0.14-0.1-0.13-0.19-0.13s-0.23 0-0.23 0.14 v1.23s0.08 0.11 0.13 0.12 c0.093 0.013 0.187 0.017 0.28 0.01 h0.01zm0-18.36a1.91 1.91 0 0 0-0.3 0s-0.11 0.06 -0.11 0.1 v1.26c0 0.16 0.14 0.15 0.24 0.13 0.1 -0.02 0.17 -0.08 0.17 -0.12 0-0.44-0.01-0.89-0.01-1.37h0.01zm0-7.2c-0.35-0.11-0.42-0.06-0.42 0.27 v1c0 0.15 0.06 0.22 0.21 0.2h0.21V0.05zm-27.54 6v-0.57c0-0.19 0-0.17-0.16-0.16-0.16 0.01 -0.27-0.06-0.27 0.13 v1.21c0 0.17 0.13 0.15 0.25 0.15s0.19 0 0.19-0.16-0.02-0.38-0.02-0.58l0.01-0.02zm0 19.29v-0.57c0-0.19-0.05-0.17-0.16-0.15-0.11 0.02 -0.27-0.06-0.27 0.14 v1.21c0 0.16 0.13 0.15 0.25 0.15s0.19 0 0.18-0.17c-0.01-0.17-0.01-0.39-0.01-0.59l0.01-0.02zm0-7.21v-0.59c0-0.19-0.07-0.17-0.18-0.17-0.11 0-0.25 0-0.25 0.14 v1.21c0 0.19 0.17 0.12 0.27 0.13 0.1 0.01 0.16 0 0.16-0.14s-0.01-0.37-0.01-0.56l0.01-0.02zM31.6 13.5a0.43 0.43 0 0 0 0-0.07v-1.19c0-0.16-0.06-0.21-0.21-0.21s-0.23 0-0.22 0.2 v1c0 0.35 0 0.35 0.34 0.32l0.09-0.05zm0 6.53v-0.59c0-0.19-0.07-0.15-0.18-0.14-0.11 0.01 -0.25-0.05-0.25 0.13 v1.21c0 0.16 0.12 0.14 0.23 0.14 0.11 0 0.2 0 0.19-0.15-0.01-0.15 0.01 -0.38 0.01 -0.58v-0.02zM0 4.25h1.39c0.13 0 0.13-0.09 0.12 -0.18-0.01-0.09 0.06 -0.22-0.11-0.23H0v0.41zm12.06 0h1.37s0.12-0.08 0.12 -0.13c0-0.25 0-0.27-0.24-0.27h-1.23l-0.02 0.4 zm2.4-0.4v0.14c0 0.26 0 0.26 0.25 0.26H16v-0.4h-1.54zm6.32 0h-1.46v0.39h1.14c0.37 0.02 0.37 0.02 0.33-0.38l-0.01-0.01zm2.4 0h-1.36c-0.18 0-0.11 0.14 -0.13 0.23 -0.02 0.09 0 0.18 0.15 0.18h1.35l-0.01-0.41zm11.75 19.3v1.36c0 0.16 0.11 0.13 0.21 0.13 0.1 0 0.21 0 0.2-0.13-0.01-0.13 0-0.59 0-0.89v-0.47h-0.41zM28 3.86h-1.46v0.38H28v-0.38zm7.3 15.93v-1.47h-0.38v1.48l0.38-0.01zm-0.37-12.06h0.41V6.36c0-0.17-0.13-0.11-0.22-0.11s-0.19 0-0.19 0.13 c0.01 0.44 0 0.88 0 1.35zm0 8.19v1.36s0.08 0.12 0.13 0.13 c0.24 0 0.27 0 0.28-0.24v-1.26l-0.41 0.01 zm0.4-3.35v-1.48H35v1.48h0.33zM24.14 4.26h1.35c0.15 0 0.14-0.1 0.14 -0.21 0-0.11 0-0.2-0.14-0.2h-1.35v0.41zm-13-0.41H9.78c-0.15 0-0.14 0.1 -0.14 0.21 0 0.11 0 0.21 0.15 0.2h1.35v-0.41zm5.78 0.4 h1.43c0.1-0.34 0.06 -0.4-0.26-0.4h-1c-0.14 0-0.2 0-0.18 0.18 l0.01 0.22 zm13.51-0.4h-1.36s-0.11 0.12 -0.11 0.18 0.06 0.21 0.1 0.21 h1.37v-0.39zm4.52 18.35h0.41v-1.37s-0.14-0.1-0.21-0.1c-0.07 0-0.18 0.07 -0.18 0.11 -0.04 0.44 -0.04 0.89 -0.04 1.35l0.02 0.01 zm2-17.94h0.61c0.16 0 0.17-0.09 0.16 -0.2-0.01-0.11 0-0.21-0.16-0.21h-1.22c-0.16 0-0.15 0.09 -0.14 0.19 0.01 0.1 0 0.22 0.14 0.22h0.61zm-1.61 5.17v-0.61c0-0.2-0.12-0.13-0.22-0.14-0.1-0.01-0.2 0-0.19 0.14 v1.19c0 0.16 0.1 0.16 0.21 0.16 0.11 0 0.21 0 0.2-0.16-0.01-0.16 0-0.39 0-0.58zM4.84 3.85a1.45 1.45 0 0 0 0 0.29s0.07 0.12 0.11 0.12 H6.2c0.14 0 0.14-0.11 0.12 -0.2-0.02-0.09-0.07-0.2-0.11-0.2-0.45-0.02-0.89-0.01-1.37-0.01zm26.75 25.09a1.82 1.82 0 0 0-0.26 0s-0.13 0-0.13 0.08 v1.09h0.4l-0.01-1.17zM4.06 30.06v-0.45c0-0.15-0.06-0.18-0.18-0.18s-0.25 0-0.25 0.15 v0.93c0 0.31 0.18 0.09 0.29 0.11 0.11 0.02 0.14 0 0.14-0.14v-0.42z" fill="#FFF"/>
  <path d="M16.14 16.24h-5.89v8.17h-2c-0.29 0-0.29 0-0.29-0.29V14.5c0-0.3 0-0.3-0.29-0.3H4.24a1.85 1.85 0 0 1-0.55-0.14s-0.07-0.1-0.07-0.15v-1.17c0-0.1 0-0.16 0.15 -0.16h0.28v1.5l0.58-0.31 8.12-4.65 4.85-2.76a0.39 0.39 0 0 1 0.32 0l7.53 4.3 6 3.44 0.08 0.07h-3.69c-0.29 0-0.29 0-0.29 0.3 v9.64c0 0.27 0 0.27-0.27 0.27 H16.4c-0.26 0-0.26 0-0.26-0.26v-7.88zm5.53 0.08 H18c-0.16 0-0.18 0.08 -0.18 0.21 v3.61c0 0.18 0 0.24 0.23 0.23h3.64l-0.02-4.05zm4.29 0H22.3c-0.17 0-0.18 0.09 -0.18 0.21 v3.63c0 0.17 0.06 0.21 0.22 0.21H26l-0.04-4.05zM6.29 26.72v-0.94c0-0.15 0-0.21 0.19 -0.19h22.44c0.35 0 0.3 0 0.3 0.3 v0.84h1c0.16 0 0.21 0 0.21 0.2 s0 0.26-0.2 0.26 h-1.09c-0.06 0-0.16 0-0.17-0.07 0-0.19-0.19-0.15-0.31-0.15h-0.61c0 0.21-0.11 0.23 -0.28 0.23 h-1c-0.22 0-0.22 0-0.28-0.22h-0.84c0 0.2-0.16 0.22 -0.33 0.22 h-1c-0.11 0-0.22 0-0.23-0.15C24.08 26.9 24 27 24 27h-0.79c0 0.21-0.12 0.23 -0.29 0.23 h-1c-0.16 0-0.28 0-0.28-0.22h-0.86c0 0.24-0.13 0.22 -0.28 0.22 h-1c-0.15 0-0.27 0-0.25-0.23h-0.78s-0.11 0-0.11 0.06 c0 0.19-0.18 0.16 -0.31 0.16 h-1c-0.06 0-0.17 0-0.18-0.07-0.01-0.07-0.14-0.15-0.26-0.15H16c0 0.22-0.12 0.23 -0.28 0.23 h-1c-0.15 0-0.25 0-0.24-0.21h-0.88c0 0.22-0.16 0.22 -0.33 0.21 h-1c-0.15 0-0.27 0-0.25-0.22h-0.81s-0.11 0-0.11 0.08 -0.11 0.14 -0.22 0.14 h-1c-0.12 0-0.2 0-0.25-0.15A0.17 0.17 0 0 0 9.5 27h-0.73c0 0.23-0.15 0.23 -0.32 0.23 h-1c-0.16 0-0.26 0-0.24-0.23h-0.77-0.09c0 0.19-0.19 0.17 -0.33 0.17 H5c-0.19 0-0.19-0.11-0.19-0.24s0-0.22 0.19 -0.22c0.44 0.02 0.85 0.01 1.29 0.01 zM16.12 32.12V31H10.3c-0.17 0-0.24 0-0.23 0.22 0.01 0.22 0 0.49 0 0.73s-0.13 0.18 -0.26 0.18 -0.2 0-0.2-0.19v-2.3c0-0.17 0.08 -0.2 0.22 -0.2s0.25 0 0.24 0.21 c-0.01 0.21 0 0.5 0 0.75s0 0.19 0.18 0.19h5.69c0.14 0 0.18-0.05 0.18 -0.19v-0.79c0-0.26 0.08 -0.17 0.2 -0.17 0.12 0 0.22 0 0.22 0.18 v2.36c0 0.11 0 0.16-0.15 0.15 l-0.27-0.01zM7.25 4.26v-0.41h0.67c0.22 0 0.21-0.05 0.21 -0.21V0.9c0-0.07 0-0.2 0.06 -0.2a0.93 0.93 0 0 1 0.35 0V3.56c0 0.11-0.07 0.27 0.13 0.33 v0.35a0.24 0.24 0 0 0-0.1 0.23 v1.27c0 0.19-0.08 0.2 -0.23 0.2 -0.15 0-0.24 0-0.23-0.2V4.49c0-0.17 0-0.24-0.22-0.23-0.22 0.01 -0.41 0-0.64 0zM33.28 14.09h1.42c0.18 0 0.26 0 0.23-0.23a1 1 0 0 1 0-0.16c0-0.22 0.13 -0.31 0.33 -0.22 0 0 0.07 0.1 0.08 0.16 0.01 0.06 0 0.35 0 0.41s0.29 0 0.44 0H39c0.003 0.05 0.003 0.1 0 0.15 0 0.26 0 0.27-0.25 0.27 h-3.11c-0.29 0-0.29 0-0.3 0.29 v0.17h-0.38v-0.18c0-0.28 0-0.28-0.29-0.28h-1.14c-0.27 0-0.27 0-0.27-0.27 0.01 -0.01 0.01 -0.05 0.02 -0.11zM3.88 26.72c0 0.14 0 0.3 0.16 0.35V28.49c-0.39 0-0.39 0-0.39-0.34v-0.79c0-0.26 0-0.23-0.21-0.22-0.21 0.01 -0.52 0-0.77 0s-0.24-0.07-0.24-0.25 0.07 -0.21 0.23 -0.21l1.22 0.04 zM31.6 27.17v0.71c0 0.23-0.05 0.18 -0.18 0.17 -0.13-0.01-0.25 0-0.25-0.17v-1.19s0.06-0.14 0.09 -0.14c0.109 0.005 0.217 0.025 0.32 0.06 0.06 0 0.11 0.1 0.17 0.1 h0.91c0.15 0 0.19 0.06 0.19 0.2 s0 0.25-0.19 0.25 l-1.06 0.01 zM31.38 4.25c0-0.14 0-0.32-0.17-0.35v-0.07-1.4h0.41v1.42h1c0.25 0 0.26 0 0.23 0.26 0 0.05-0.07 0.14 -0.11 0.14 h-1.36zM34.51 27.17h-0.57c-0.19 0-0.18-0.12-0.19-0.26-0.01-0.14 0-0.2 0.19 -0.2h0.79c0.16 0 0.21-0.05 0.2 -0.21-0.01-0.16 0-0.54 0-0.81s0.08-0.17 0.21 -0.18c0.13-0.01 0.21 0 0.2 0.18 v1.05a1 1 0 0 1-0.1 0.35 s-0.1 0.05 -0.15 0.06 l-0.58 0.02 zM4.06 4.41c-0.19 0-0.38 0.08 -0.49-0.13H2.56c-0.18 0-0.16-0.1-0.16-0.22s0-0.2 0.17 -0.19h0.85c0.15 0 0.2-0.06 0.2 -0.2v-0.56c0-0.19 0.12 -0.19 0.26 -0.2 0.14 -0.01 0.18 0.06 0.17 0.19 0 0.42 0.01 0.9 0.01 1.31zM35.34 3.85v1.39c0 0.17-0.13 0.11 -0.22 0.12 -0.09 0.01 -0.19 0-0.19-0.13V4.5c0-0.24 0-0.24-0.22-0.23-0.22 0.01 -0.53 0-0.79 0s-0.16-0.1-0.17-0.22c-0.01-0.12 0-0.2 0.17 -0.2h1.42zM0.77 26.72h0.59c0.19 0 0.14 0.08 0.15 0.13 0.01 0.05 0.07 0.3 -0.11 0.31 a11.52 11.52 0 0 1-1.28 0c-0.19 0-0.08-0.2-0.1-0.31-0.02-0.11 0-0.13 0.14 -0.13h0.61zM36.93 26.72h0.59c0.15 0 0.16 0.09 0.16 0.19 s0 0.25-0.14 0.25 h-1.23c-0.18 0-0.1-0.18-0.12-0.28-0.02-0.1 0-0.16 0.14 -0.16h0.6zM4 16.45c-0.42 0.06 -0.42 0.06 -0.42-0.34v-0.79c0-0.26 0-0.4 0.42 -0.33v1.46zM4 9.23h-0.08c-0.29 0-0.3 0-0.3-0.29v-1c0-0.31 0.11 -0.18 0.24 -0.19 0.13 -0.01 0.2 0 0.2 0.18 v1.23a0.62 0.62 0 0 1-0.06 0.07 zM4.05 19.83v1.37c0 0.17-0.16 0.08 -0.25 0.1 -0.09 0.02 -0.17 0-0.17-0.15v-0.89-0.12c-0.01-0.37 0.02 -0.39 0.42 -0.31zM4.06 23.68L4 23.7c-0.36 0-0.36 0-0.36-0.33v-1c0-0.37 0.08 -0.22 0.24 -0.22 0.16 0 0.2 0.07 0.2 0.22 -0.03 0.46 -0.02 0.88 -0.02 1.31zM4.06 0.53 v1.33C4.06 2 4 2 3.89 2c-0.11 0-0.26 0-0.26-0.15v-0.48-0.61c0-0.2 0-0.28 0.28 -0.27l0.15 0.04 zM31.6 6.3c-0.43 0.05 -0.43 0.05 -0.43-0.33v-1c0-0.35 0.1 -0.19 0.24 -0.2 0.14 -0.01 0.19 0.06 0.19 0.2V6.3zM31.59 18.37h-0.41v-0.76-0.38c0-0.39 0-0.39 0.41 -0.34v1.48zM31.6 21.71v1.5a1.55 1.55 0 0 1-0.29 0s-0.12-0.07-0.12-0.11v-1.27s0.08-0.1 0.13 -0.11a1.26 1.26 0 0 1 0.28-0.01zM31.2 9.66h0.39v1.48h-0.39zM4.06 10.9v0.6c0 0.2 0 0.16-0.15 0.14 -0.15-0.02-0.27 0.07 -0.28-0.12v-1.23c0-0.18 0.15 -0.15 0.27 -0.15 0.12 0 0.17 0 0.16 0.17 -0.01 0.17 0 0.39 0 0.59z" fill="#FFF"/>
  <path d="M31.18 14.5h0.42v1.37c0 0.15-0.12 0.11 -0.2 0.12 -0.08 0.01 -0.22 0-0.22-0.15v-0.91-0.43zM31.6 25.61a1.31 1.31 0 0 1-0.29 0c-0.05 0-0.13-0.08-0.13-0.12v-1.23c0-0.16 0.12 -0.15 0.23 -0.14 0.11 0.01 0.19 0 0.19 0.13 v1.36zM31.6 7.25v1.37s-0.11 0.11 -0.17 0.12 c-0.06 0.01 -0.23 0-0.24-0.13V7.35s0.07-0.09 0.11 -0.1c0.1-0.008 0.2 -0.008 0.3 0zM31.6 0.05 v1.43h-0.21c-0.15 0-0.21-0.05-0.21-0.2v-1c0-0.35 0.07 -0.34 0.42 -0.23zM4.06 6.07v0.59c0 0.19-0.08 0.16 -0.19 0.16 s-0.24 0-0.25-0.15V5.46c0-0.19 0.17 -0.12 0.27 -0.13 0.1 -0.01 0.17 0 0.16 0.16 -0.01 0.16 0.01 0.39 0.01 0.58 zM4.06 25.36v0.59c0 0.19-0.07 0.17 -0.18 0.17 -0.11 0-0.25 0-0.25-0.15v-1.21c0-0.2 0.16 -0.12 0.27 -0.14 0.11 -0.02 0.17 0 0.16 0.15 -0.01 0.15 0 0.4 0 0.59zM4.06 18.15v0.58c0 0.2-0.06 0.15 -0.16 0.14 -0.1-0.01-0.27 0.06 -0.27-0.13v-1.21c0-0.17 0.14 -0.14 0.25 -0.14 0.11 0 0.19 0 0.18 0.17 -0.01 0.17 0 0.44 0 0.59zM31.59 13.53h-0.07c-0.34 0-0.34 0-0.34-0.32v-1c0-0.16 0.08 -0.2 0.22 -0.2s0.21 0 0.21 0.21 v1.19a0.43 0.43 0 0 1-0.02 0.12 zM31.6 20.05v0.59c0 0.19-0.09 0.15 -0.19 0.15 s-0.23 0-0.23-0.14v-1.21c0-0.19 0.15 -0.12 0.25 -0.13 0.1 -0.01 0.18 0 0.18 0.14 s-0.01 0.4 -0.01 0.6 zM0 4.25v-0.4h1.41c0.16 0 0.1 0.14 0.11 0.23 0.01 0.09 0 0.18-0.12 0.18 L0 4.25zM12.08 4.25v-0.4h1.25c0.25 0 0.28 0 0.24 0.27 0 0-0.08 0.13 -0.12 0.13 h-1.37zM14.48 3.86H16v0.4h-1.28c-0.26 0-0.26 0-0.25-0.26 0 0 0-0.08 0.01 -0.14zM20.79 3.86c0 0.39 0 0.39-0.33 0.39 h-1.14v-0.39h1.47zM23.19 3.85v0.41h-1.35c-0.13 0-0.16-0.07-0.15-0.18 0.01 -0.11-0.05-0.23 0.13 -0.23h1.37zM34.93 23.15h0.41V24.51c0 0.3-0.11 0.14 -0.2 0.13 -0.09-0.01-0.21 0-0.21-0.13 0.01 -0.45 0-0.89 0-1.36zM28 3.86v0.38h-1.46v-0.38zM35.32 19.8h-0.38v-1.48h0.38zM34.93 7.73V6.37c0-0.14 0.1 -0.14 0.19 -0.13 0.09 0.01 0.22 -0.05 0.22 0.11v1.37l-0.41 0.01 zM34.93 15.92h0.41v1.26c0 0.24 0 0.28-0.28 0.24 0 0-0.13-0.08-0.13-0.13v-1.37zM35.33 12.57H35v-1.48h0.38zM24.14 4.26v-0.41h1.35c0.15 0 0.15 0.1 0.14 0.2 -0.01 0.1 0 0.21-0.14 0.21 h-1.35zM11.13 3.85v0.41H9.78c-0.15 0-0.15-0.1-0.15-0.2s0-0.21 0.14 -0.21h1.36zM16.91 4.24v-0.22c0-0.13 0-0.18 0.18 -0.18h1c0.32 0 0.36 0.06 0.26 0.4 h-1.44zM30.42 3.85v0.41h-1.37s-0.1-0.14-0.1-0.21c0-0.07 0.07 -0.18 0.11 -0.18 0.44 -0.03 0.94 -0.02 1.36-0.02zM34.93 22.19v-1.36s0.12-0.11 0.18 -0.11 0.21 0.06 0.21 0.1v1.37h-0.39zM36.9 4.26h-0.57c-0.18 0-0.13-0.12-0.14-0.22-0.01-0.1 0-0.2 0.14 -0.19h1.19c0.16 0 0.16 0.1 0.16 0.21 0 0.11 0 0.21-0.16 0.2 h-0.62zM35.34 9.43V10c0 0.19-0.09 0.16 -0.2 0.16 -0.11 0-0.21 0-0.21-0.16V8.81c0-0.16 0.09 -0.15 0.19 -0.14 0.1 0.01 0.22 0 0.22 0.14 v0.62zM4.84 3.85h1.37s0.1 0.13 0.11 0.2 c0.01 0.07 0 0.2-0.12 0.2 H5s-0.1-0.07-0.11-0.12a1.45 1.45 0 0 1-0.05-0.28zM31.59 28.94v1.17h-0.4v-1.09s0.08-0.07 0.13 -0.08c0.09-0.007 0.18 -0.007 0.27 0zM4.06 30.06v0.41c0 0.13 0 0.15-0.14 0.14 -0.14-0.01-0.27 0.08 -0.29-0.11-0.02-0.19 0-0.62 0-0.93 0-0.31 0.14 -0.15 0.25 -0.15 0.11 0 0.19 0 0.18 0.18 -0.01 0.18 0 0.31 0 0.46z" fill="#FFF"/>
</svg>
