<?xml version="1.0" ?>
<svg xmlns="http://www.w3.org/2000/svg" width="44" height="35" viewBox="0 0 44 35">
  <path d="M2.76 0h1.65a0.67 0.67 0 0 1 0.73 0.73 v0.73c0 0.24 0.05 0.17 0.18 0.19 0.51 0.05 0.51 0.05 0.52 -0.46a0.65 0.65 0 0 1 0.68-0.67h3.4a0.66 0.66 0 0 1 0.71 0.71 V2c0 0.12 0 0.17 0.16 0.18 0.52 0.06 0.52 0.06 0.54 -0.46A0.66 0.66 0 0 1 12 1h3.45a0.67 0.67 0 0 1 0.67 0.69 v0.75c0 0.13 0 0.19 0.17 0.2 0.51 0.05 0.51 0.06 0.52 -0.46a0.66 0.66 0 0 1 0.67-0.66h3.43a0.67 0.67 0 0 1 0.7 0.72 v0.73c0 0.24 0 0.18 0.18 0.19 0.5 0 0.5 0.05 0.52-0.46a0.66 0.66 0 0 1 0.69-0.64h3.45a0.66 0.66 0 0 1 0.67 0.68 v0.78c0 0.12 0.05 0.17 0.18 0.18 0.5 0 0.5 0 0.52-0.46a0.65 0.65 0 0 1 0.65-0.66h3.47a0.66 0.66 0 0 1 0.67 0.68 v0.73c0 0.24 0 0.22 0.2 0.23 0.48 0 0.48 0 0.5-0.45a0.65 0.65 0 0 1 0.69-0.68h3.43a0.66 0.66 0 0 1 0.69 0.7 v0.75c0 0.12 0 0.17 0.17 0.19 0.51 0 0.51 0.06 0.52-0.46a0.68 0.68 0 0 1 0.67-0.67h3.43a0.67 0.67 0 0 1 0.69 0.71 v0.51c0 0.17 0 0.4 0.22 0.5 0.06 0 0.12 0.16 0.12 0.25 v1.34a0.43 0.43 0 0 1-0.19 0.3 0.3 0.3 0 0 0-0.15 0.26 v5.91a0.36 0.36 0 0 0 0.13 0.23 0.37 0.37 0 0 1 0.21 0.36 v1.27a0.41 0.41 0 0 1-0.21 0.36 0.39 0.39 0 0 0-0.13 0.21 v0.73a0.69 0.69 0 0 1-0.75 0.76 h-3.33a0.7 0.7 0 0 1-0.76-0.76c0-0.44 0-0.43-0.44-0.42-0.21 0-0.27 0.08 -0.26 0.28 0.01 0.2 0 0.45 0 0.68a0.68 0.68 0 0 1-0.69 0.73 h-3.42a0.66 0.66 0 0 1-0.68-0.73c0-0.48 0-0.47-0.49-0.45-0.16 0-0.22 0.07 -0.21 0.22 0.01 0.15 0 0.5 0 0.75a0.69 0.69 0 0 1-0.69 0.73 h-3.41a0.68 0.68 0 0 1-0.69-0.74c0-0.48 0-0.47-0.49-0.44-0.16 0-0.21 0.06 -0.21 0.22 v0.75a0.67 0.67 0 0 1-0.69 0.72 h-3.4a0.68 0.68 0 0 1-0.7-0.74c0-0.48 0-0.47-0.49-0.44-0.15 0-0.21 0.06 -0.21 0.22 v0.75a0.68 0.68 0 0 1-0.7 0.73 h-3.37a0.7 0.7 0 0 1-0.72-0.74c0-0.48 0-0.48-0.48-0.45-0.17 0-0.22 0.08 -0.22 0.24 v0.7a0.7 0.7 0 0 1-0.76 0.76 h-3.22a0.7 0.7 0 0 1-0.79-0.79c0-0.44 0-0.42-0.43-0.4-0.22 0-0.29 0.08 -0.27 0.29 0.02 0.21 0 0.46 0 0.69a0.67 0.67 0 0 1-0.68 0.72 H6.54a0.68 0.68 0 0 1-0.7-0.75c0-0.47 0-0.46-0.47-0.43-0.19 0-0.24 0.08 -0.23 0.26 0.01 0.18 0 0.47 0 0.71a0.68 0.68 0 0 1-0.69 0.73 H1.08a0.7 0.7 0 0 1-0.73-0.75v-0.23c0-0.14 0-0.25-0.17-0.32a0.48 0.48 0 0 1-0.18-0.31v-1.31a0.46 0.46 0 0 1 0.17-0.31 0.3 0.3 0 0 0 0.17-0.32V3.54c0-0.16 0-0.3-0.19-0.38C-0.04 3.08 0 3 0 2.89V1.56a0.42 0.42 0 0 1 0.2-0.32A0.26 0.26 0 0 0 0.35 1 2.15 2.15 0 0 1 0.4 0.46 0.63 0.63 0 0 1 1 0h1.76zm2.38 10.41v6.72a2.17 2.17 0 0 0 0.57-0.06s0.07-0.18 0.07 -0.28V4c0-0.23-0.07-0.33-0.29-0.32h-0.05c-0.3 0-0.3 0-0.3 0.27 v6.46zm5.49 0v5.82c0 0.42 0 0.4 0.41 0.37 0.23 0 0.29-0.1 0.29 -0.33V4.66c0-0.43 0-0.43-0.43-0.46-0.27 0-0.27 0-0.27 0.25 v5.96zm5.49 0v5.31c0 0.39-0.1 0.41 0.41 0.37 0.23 0 0.29-0.11 0.29 -0.34V5.17c0-0.43 0-0.43-0.42-0.46-0.27 0-0.27 0-0.27 0.26 l-0.01 5.44zm5.49 0v4.87c0 0.34 0 0.34 0.34 0.31 0.31 0 0.31 0 0.31-0.34V5.71c0-0.44 0-0.43-0.44-0.47-0.18 0-0.26 0-0.26 0.23 0.05 1.65 0.05 3.3 0.05 4.95v-0.01zm5.48 0v4.45c0 0.07 0 0.2 0.06 0.2a2.09 2.09 0 0 0 0.56-0.06c0.05 0 0.07-0.2 0.07 -0.31V6.21c0-0.43 0-0.43-0.43-0.45-0.27 0-0.27 0-0.27 0.26 l0.01 4.39zm6.19 0v-3.7c0-0.41 0-0.41-0.42-0.44-0.42-0.03-0.28 0-0.28 0.26 v7.66c0 0.41-0.11 0.42 0.42 0.38 0.22 0 0.28-0.1 0.28 -0.32-0.01-1.25 0-2.56 0-3.83v-0.01zm4.79 0v3.32c0 0.36 0 0.36 0.36 0.33 0.36 -0.03 0.33 0 0.33-0.37V7.24c0-0.44 0-0.43-0.44-0.46-0.2 0-0.26 0-0.26 0.24 0.01 1.13 0.01 2.26 0.01 3.39zM13.71 16.8a0.67 0.67 0 0 0-0.68 0.67 0.69 0.69 0 1 0 1.38 0 0.67 0.67 0 0 0-0.7-0.67zM24 16.45c0.005 0.38 0.31 0.69 0.69 0.7 a0.72 0.72 0 0 0 0.69-0.72 0.68 0.68 0 0 0-0.69-0.66 0.66 0.66 0 0 0-0.69 0.68 zm-5.49 0.48 a0.696 0.696 0 1 0 1.39 0.07 0.69 0.69 0 1 0-1.38-0.05l-0.01-0.02zm22-2a0.69 0.69 0 1 0 1.38 0 0.69 0.69 0 0 0-0.68-0.7 0.67 0.67 0 0 0-0.74 0.67 l0.04 0.03 zM8.24 17.31a0.66 0.66 0 0 0-0.69 0.68 c0.005 0.38 0.31 0.69 0.69 0.7 a0.72 0.72 0 0 0 0.68-0.69 0.66 0.66 0 0 0-0.68-0.69zM35.68 4.79a0.67 0.67 0 0 0-0.7 0.68 0.69 0.69 0 1 0 1.38 0 0.68 0.68 0 0 0-0.68-0.68zm-10.29-0.35a0.69 0.69 0 0 0-0.71-0.68 0.67 0.67 0 0 0-0.67 0.68 0.69 0.69 0 1 0 1.38 0zM2.75 17.83a0.66 0.66 0 0 0-0.69 0.68 0.7 0.7 0 0 0 0.69 0.69 0.71 0.71 0 0 0 0.69-0.7 0.67 0.67 0 0 0-0.69-0.67zm0.69-15.45a0.68 0.68 0 0 0-0.71-0.67 0.67 0.67 0 0 0-0.67 0.68 0.7 0.7 0 0 0 0.69 0.69 0.71 0.71 0 0 0 0.69-0.7zm11 1a0.69 0.69 0 1 0-1.38 0 0.69 0.69 0 0 0 1.38 0zm16.43 12.55a0.69 0.69 0 1 0-1.38 0 0.72 0.72 0 0 0 0.69 0.71 0.71 0.71 0 0 0 0.69-0.71zm5.49-0.52a0.67 0.67 0 0 0-0.7-0.67 0.66 0.66 0 0 0-0.68 0.67 0.69 0.69 0 1 0 1.38 0zm4.8-10.1a0.68 0.68 0 0 0-0.69 0.68 0.69 0.69 0 0 0 0.7 0.69 0.71 0.71 0 0 0 0.68-0.68 0.67 0.67 0 0 0-0.69-0.69zm-10.29-0.37a0.66 0.66 0 0 0-0.7-0.66 0.67 0.67 0 0 0-0.68 0.68 c0.01 0.38 0.32 0.685 0.7 0.69 a0.69 0.69 0 0 0 0.68-0.71zM8.23 2.22a0.66 0.66 0 0 0-0.68 0.69 0.69 0.69 0 1 0 1.37 0 0.67 0.67 0 0 0-0.69-0.69zm10.29 1.7a0.69 0.69 0 1 0 1.38 0 0.69 0.69 0 0 0-1.38 0zM20.61 32.07h9a0.33 0.33 0 0 0 0.39-0.25 2 2 0 0 1 2-1.31 2.07 2.07 0 1 1-2 2.79c-0.06-0.17-0.15-0.2-0.31-0.2h-18a0.91 0.91 0 0 1-0.33 0 0.5 0.5 0 0 1-0.34-0.55 0.48 0.48 0 0 1 0.51-0.43h9.08v-0.05zM24 27.27h-9a0.35 0.35 0 0 0-0.39 0.27 2.078 2.078 0 0 1-4-1.13 2.07 2.07 0 0 1 4-0.43 0.37 0.37 0 0 0 0.42 0.28 h18.13a0.47 0.47 0 0 1 0.48 0.48 0.51 0.51 0 0 1-0.45 0.53 H24z" fill="#FFF"/>
</svg>
