<?xml version="1.0" ?>
<svg xmlns="http://www.w3.org/2000/svg" width="22" height="36" viewBox="0 0 22 36">
  <path d="M10.87 9.4H6.64c-0.15 0-0.21 0-0.24-0.2-0.12-0.75-0.26-1.49-0.4-2.2l-0.38-2.25C5.5 4 5.36 3.27 5.23 2.53 5.1 1.79 5 1.3 4.91 0.68 a0.75 0.75 0 0 0-0.27-0.59 0.47 0.47 0 0 0-0.47 0 0.48 0.48 0 0 0-0.32 0.41 c0.016 0.198 0.043 0.395 0.08 0.59 l0.54 3c0.16 0.88 0.3 1.76 0.46 2.64 0.16 0.88 0.31 1.75 0.47 2.63a0.91 0.91 0 0 1-0.1 0.7 1.3 1.3 0 0 0 1.14 2 1 1 0 0 1 0.72 0.32 c1.24 1.21 2.5 2.42 3.76 3.62a0.29 0.29 0 0 1 0.1 0.34 c-0.12 0.393 -0.23 0.783 -0.33 1.17 0 0.11-0.09 0.13 -0.18 0.1 L8.16 17l-1.62-0.39a1.45 1.45 0 0 0-1.18 0.23 l-2.93 2L0.71 20A1.54 1.54 0 0 0 0 21.67a1.56 1.56 0 0 0 1.09 1.25 1.58 1.58 0 0 0 1.45-0.23l3.79-2.62A0.46 0.46 0 0 1 6.8 20c0.7 0.19 1.41 0.35 2.11 0.53 l2.39 0.61 c0.61 0.15 1.21 0.32 1.83 0.42 a1.79 1.79 0 0 0 2-0.91 1 1 0 0 0 0.11-0.27c0-0.11 0.1 -0.11 0.18 0 0.44 0.42 0.89 0.84 1.32 1.27 0.05 0.05 0.075 0.12 0.07 0.19a1.31 1.31 0 0 0 1.39 1.31 0.31 0.31 0 0 1 0.2 0.05 c0.45 0.44 0.93 0.85 1.33 1.32a2.59 2.59 0 0 1 0.5 2.66c-0.27 0.81 -0.59 1.6-0.91 2.38a9.42 9.42 0 0 0-0.8 4.18c0.04 0.624 0.15 1.241 0.33 1.84a0.52 0.52 0 0 0 0.66 0.38 0.56 0.56 0 0 0 0.33-0.69 14 14 0 0 1-0.27-1.41 7.37 7.37 0 0 1 0.54-3.47c0.32-0.84 0.68 -1.66 1-2.5 0.22 -0.57 0.33 -1.178 0.32 -1.79a3.41 3.41 0 0 0-0.73-2.1c-0.39-0.47-0.84-0.89-1.27-1.33a0.25 0.25 0 0 1-0.06-0.33c0.23-0.57 0.44 -1.15 0.66 -1.73 0.44 -1.18 0.86 -2.35 1.31-3.52a1.35 1.35 0 0 0-0.15-1.32l-2.1-3.13-0.91-1.37a4.22 4.22 0 0 0-2.58-1.8 2.69 2.69 0 0 0-0.6-0.06l-4.13-0.01zm6.48 5.48c0.4 0.59 0.8 1.18 1.19 1.78a0.24 0.24 0 0 1 0 0.22c-0.43 1.17-0.87 2.34-1.31 3.51-0.06 0.17 -0.09 0.18 -0.22 0.05 l-1.17-1.11a0.27 0.27 0 0 1-0.08-0.36l1.26-3.36c0.14-0.24 0.23 -0.49 0.33 -0.73zm-9-2.76H12c0.25 0 0.25 0 0.19 0.25 l-0.63 2.22c0 0.13-0.08 0.26 -0.13 0.43 l-3.08-2.9z" fill="#FFF"/>
  <path d="M14.78 8.32A3.23 3.23 0 0 0 18 5.07a3.25 3.25 0 1 0-3.22 3.25zM12.87 22.59l-0.57-0.14-2.14-0.54c-0.4-0.1-0.79-0.21-1.19-0.3a0.34 0.34 0 0 0-0.24 0.05 c-0.49 0.36 -1 0.73-1.47 1.09a1.92 1.92 0 0 0-0.63 0.95 c-0.51 1.36-1 2.72-1.53 4.08a3.65 3.65 0 0 0-0.25 1 1.57 1.57 0 0 0 1.32 1.63 1.63 1.63 0 0 0 1.8-1l1.56-4.13a0.65 0.65 0 0 1 0.2-0.26l2.95-2.21 0.19 -0.22z" fill="#FFF"/>
</svg>
