<?xml version="1.0" ?>
<svg xmlns="http://www.w3.org/2000/svg" width="44" height="36" viewBox="0 0 44 36">
  <path d="M43.09 29.67c0 0.62-0.05 1.21-0.1 1.79a2.56 2.56 0 0 1-0.15 0.73 0.83 0.83 0 0 1-0.55 0.48 c-0.45 0.14 -0.91 0.27 -1.37 0.37 -0.46 0.1 -1 0.19-1.47 0.27 -0.47 0.08 -0.87 0.11 -1.32 0.16 -0.45 0.05 -1 0.08-1.42 0.16 a3.07 3.07 0 0 0-0.64 0.3 c-0.79 0.37 -1.57 0.75 -2.37 1.09a5 5 0 0 1-2.63 0.25 c-0.28 0-0.56-0.05-0.83-0.08-0.64-0.08-1.28-0.14-1.92-0.24-0.64-0.1-1.28-0.22-1.92-0.33l-1.4-0.23-1.24-0.26-1.2-0.24-1.1-0.25-1-0.24-1-0.26-1.16-0.31c-0.45-0.12-0.89-0.24-1.34-0.38-0.45-0.14-1-0.3-1.43-0.48a8.89 8.89 0 0 1-2.3-1.11 1.63 1.63 0 0 1-0.52-0.82 11.46 11.46 0 0 1-0.34-3.14c0-1 0-2.07 0.07 -3.1 0-0.69 0.09 -1.37 0.14 -2.06 0.05 -0.69 0.14 -1.6 0.22 -2.4 0.08 -0.8 0.13 -1.32 0.21 -2 0.08-0.68 0.17 -1.37 0.26 -2.06 0.06 -0.48 0.1 -1 0.16-1.44 0.06 -0.44 0.13 -0.89 0.19 -1.33 0.06 -0.44 0.11 -0.86 0.17 -1.29 0.06 -0.43 0.12 -0.81 0.18 -1.22 0-0.19 0.06 -0.37 0.08 -0.56 0.08 -0.56 0.15 -1.13 0.24 -1.69s0.16-1.07 0.28 -1.6A3.49 3.49 0 0 1 15.18 5c0.41-0.57 0.83 -1.13 1.21-1.72a3.88 3.88 0 0 0 0.55-1.7c0-0.29 0-0.59 0.07 -0.88a0.77 0.77 0 0 1 0.68-0.7c0.253 0.009 0.504 0.042 0.75 0.1 0.37 0.07 0.74 0.17 1.11 0.25 l1.1 0.26 1.05 0.24 1.14 0.26 1.06 0.24 1.1 0.26 1.07 0.24 1.12 0.26 1 0.23 1.13 0.27 1.07 0.24 1.1 0.25 1.08 0.25 1.07 0.24 1.1 0.25 1.1 0.26 1.16 0.24 c0.37 0.09 0.74 0.17 1.11 0.28 a0.69 0.69 0 0 1 0.5 0.73 4.84 4.84 0 0 0 1.07 3.05c0.36 0.49 0.73 1 1.07 1.48 0.202 0.333 0.32 0.71 0.34 1.1 0 0.45 0.12 0.9 0.18 1.35 0 0.19 0.06 0.39 0.08 0.58 0.06 0.45 0.11 0.89 0.17 1.34 0.08 0.61 0.18 1.21 0.26 1.82 0.08 0.61 0.1 0.93 0.16 1.39 0.06 0.46 0.13 0.92 0.19 1.37 0 0.21 0.06 0.42 0.08 0.63 0 0.52 0.1 1 0.16 1.56s0.15 1.33 0.22 2c0 0.45 0.09 0.89 0.13 1.34 0.08 0.92 0.16 1.83 0.22 2.75 0.06 0.92 0.11 1.72 0.15 2.56zm-24.5-28c0 0.12-0.05 0.23 -0.08 0.33 -0.14 0.46 -0.24 0.92 -0.41 1.36a8.21 8.21 0 0 1-1.36 2.16 3.08 3.08 0 0 0-0.8 1.67c0 0.34-0.11 0.68 -0.16 1-0.05 0.32 -0.14 0.75 -0.19 1.13-0.05 0.38 -0.11 0.83 -0.17 1.25l-0.27 2c0 0.21-0.06 0.43 -0.08 0.64 -0.07 0.49 -0.14 1-0.2 1.49 0 0.28 0 0.56-0.09 0.85 -0.08 0.71 -0.18 1.43-0.26 2.14l-0.21 2.07c-0.08 0.84 -0.15 1.69-0.21 2.53-0.06 0.68 -0.12 1.36-0.14 2a24.7 24.7 0 0 0 0.04 4.76c-0.01 0.43 0.238 0.823 0.63 1 0.34 0.14 0.67 0.31 1 0.43 0.54 0.2 1.09 0.37 1.64 0.54 l1.1 0.31 1.2 0.33 1 0.24 1.06 0.26 1.07 0.24 1.15 0.26 0.85 0.17 0.9 0.18 0.9 0.17 1 0.19 1.07 0.16 1.47 0.2 1.08 0.1 c0.25 0 0.25 0 0.24-0.21 0-0.6-0.06-1.19 0-1.78 0.07 -1.64 0.16 -3.27 0.25 -4.9 0-0.6 0.09 -1.2 0.14 -1.79 0.07 -0.85 0.14 -1.7 0.22 -2.55 0-0.64 0.1 -1.28 0.16 -1.91 0-0.26 0.05 -0.52 0.08 -0.78 0.06 -0.57 0.13 -1.14 0.19 -1.71 0-0.33 0-0.66 0.09 -1 0.08-0.73 0.17 -1.45 0.25 -2.18 0.07 -0.55 0.11 -1.1 0.17 -1.64 0-0.23 0.05 -0.46 0.08 -0.69 0.06 -0.54 0.14 -1.07 0.19 -1.6a2.64 2.64 0 0 1 0.42-1.31c0.39-0.55 0.8 -1.08 1.19-1.63a5 5 0 0 0 0.92-2.35c0-0.1 0-0.14-0.11-0.16l-0.67-0.15-1.14-0.27-1.09-0.28-1.08-0.25-1.07-0.24-1.1-0.25-1.07-0.2-1.11-0.3-1.07-0.24-1.1-0.26L24 3l-1.1-0.3-1-0.24-1.17-0.26-1.05-0.2-1.09-0.33zm16.94 16.7v9.83a0.4 0.4 0 0 0 0.34 0.44 0.39 0.39 0 0 0 0.48-0.3 0.82 0.82 0 0 0 0-0.27V8.55a0.43 0.43 0 0 0-0.61-0.37 0.44 0.44 0 0 0-0.23 0.45 l0.02 9.74zM4 8.33c-0.15 0-0.3-0.06-0.43-0.11a0.68 0.68 0 0 1-0.41-0.67V6.11a0.72 0.72 0 0 1 0.75-0.76h2.28a0.77 0.77 0 0 1 0.78 0.8 v1.31a0.77 0.77 0 0 1-0.73 0.84 c-0.13 0-0.15 0.06 -0.15 0.16 a3.33 3.33 0 0 0 0.6 2c0.41 0.61 0.87 1.19 1.32 1.78a9.32 9.32 0 0 1 1.34 2c0.19 0.45 0.34 0.91 0.49 1.37a6.82 6.82 0 0 1 0.25 2.11V34a1.13 1.13 0 0 1-0.4 1 1.4 1.4 0 0 1-0.94 0.24 2.58 2.58 0 0 1-1.26-0.44 6.77 6.77 0 0 0-0.9-0.43 0.35 0.35 0 0 0-0.5 0.21 c-0.13 0.25 -0.25 0.5 -0.54 0.6 a1.55 1.55 0 0 1-1.3-0.06 1.05 1.05 0 0 1-0.37-0.41c-0.18-0.35-0.36-0.35-0.65-0.22-0.322 0.15 -0.635 0.318 -0.94 0.5 a2 2 0 0 1-1.42 0.21 A1 1 0 0 1 0 34.11V23.37v-6c0.029-0.46 0.09 -0.918 0.18 -1.37A6.42 6.42 0 0 1 1 13.72c0.28-0.45 0.61 -0.86 0.92 -1.28 0.51 -0.68 1-1.34 1.51-2A3.1 3.1 0 0 0 4 8.46a0.57 0.57 0 0 0 0-0.13z" fill="#FFF"/>
</svg>
