<?xml version="1.0" ?>
<svg xmlns="http://www.w3.org/2000/svg" width="31" height="37" viewBox="0 0 31 37">
  <path d="M2.92 2l-1.7 0.81 -0.37-1.56L3.21 0.15 h1.72v8.91h-2zM12.73 9.2V7.94l1.15-1c1.95-1.74 2.89-2.74 2.92-3.78 0-0.73-0.44-1.31-1.47-1.31a3.29 3.29 0 0 0-1.9 0.74 l-0.59-1.49a4.9 4.9 0 0 1 2.92-0.96c2 0 3.12 1.18 3.12 2.8 0 1.62-1.08 2.68-2.37 3.83l-0.82 0.69 h3.36V9.2h-6.32zM24.43 7a5 5 0 0 0 2.07 0.54 c1.08 0 1.63-0.52 1.63-1.19 0-0.88-0.88-1.27-1.8-1.27h-0.85V3.6h0.81c0.7 0 1.59-0.27 1.59-1 0-0.54-0.44-0.94-1.31-0.94a4.07 4.07 0 0 0-1.87 0.54 L24.28 0.67 A5.58 5.58 0 0 1 27 0c1.91 0 3 1 3 2.22a2.14 2.14 0 0 1-1.63 2.07 2.21 2.21 0 0 1 1.93 2.16c0 1.58-1.38 2.73-3.64 2.73a5.27 5.27 0 0 1-2.66-0.6L24.43 7zM4 22.76v-2.12H0v-1.36l3.37-5.42h2.55v5.22H7v1.56H5.92v2.12H4zm0-3.68v-2-1.63c-0.29 0.57 -0.52 1.09-0.82 1.66L2 19.05l2 0.03zM18.68 15.71h-3.46L15 17.08c0.193-0.01 0.387 -0.01 0.58 0a4.08 4.08 0 0 1 2.42 0.62 2.53 2.53 0 0 1 1 2.23c0 1.66-1.42 3.13-3.82 3.13a5.66 5.66 0 0 1-2.48-0.51l0.4-1.55a5.18 5.18 0 0 0 2 0.44c0.86 0 1.78-0.41 1.78-1.36 0-0.95-0.73-1.48-2.51-1.48a8.45 8.45 0 0 0-1.21 0.08 l0.61-4.68h4.91v1.71zM29.74 15.34a4.56 4.56 0 0 0-0.8 0c-1.85 0.15 -2.68 1.09-2.91 2.13a2.52 2.52 0 0 1 1.97-0.68 2.71 2.71 0 0 1 2.76 2.91 3.2 3.2 0 0 1-3.29 3.22c-2.37 0-3.54-1.77-3.54-3.9a5.35 5.35 0 0 1 1.58-4 5.38 5.38 0 0 1 3.44-1.31 6.28 6.28 0 0 1 0.83 0l-0.04 1.63zm-1.13 4.46a1.36 1.36 0 0 0-1.33-1.53 1.38 1.38 0 0 0-1.24 0.79 c-0.062 0.17 -0.09 0.35 -0.08 0.53 0 0.94 0.5 1.79 1.44 1.79 0.74 0 1.21-0.67 1.21-1.58zM6.65 26.85v1.32L3 35.76H0.77l3.67-7.17H0.36v-1.74zM12.59 33.57a2.36 2.36 0 0 1 1.59-2.23 2.17 2.17 0 0 1-1.28-1.95c0-1.51 1.35-2.51 3.13-2.51 2.09 0 2.95 1.21 2.95 2.29a2.17 2.17 0 0 1-1.29 2 2.36 2.36 0 0 1 1.63 2.22c0 1.62-1.36 2.7-3.42 2.7-2.27-0.04-3.31-1.31-3.31-2.52zm4.61-0.07c0-0.78-0.58-1.24-1.4-1.46a1.35 1.35 0 0 0-1.08 1.33A1.21 1.21 0 0 0 16 34.61a1.12 1.12 0 0 0 1.2-1.11zm-2.34-4.22c0 0.61 0.54 1 1.26 1.21a1.22 1.22 0 0 0 0.9-1.14 1 1 0 0 0-1.08-1.1 1 1 0 0 0-1.08 1.03zM24.71 34.25c0.303 0.03 0.607 0.03 0.91 0a3.55 3.55 0 0 0 1.75-0.55 2.76 2.76 0 0 0 1.13-1.64 2.34 2.34 0 0 1-1.79 0.65 2.69 2.69 0 0 1-2.78-2.78 3.24 3.24 0 0 1 3.36-3.21c2.29 0 3.37 1.76 3.37 3.84a5.31 5.31 0 0 1-1.56 4.09 5.24 5.24 0 0 1-3.4 1.25 6 6 0 0 1-0.95 0l-0.04-1.65zM26 29.78a1.27 1.27 0 0 0 1.26 1.43 1.3 1.3 0 0 0 1.15-0.59 1 1 0 0 0 0.11-0.52c0-1-0.36-1.88-1.3-1.88-0.74 0-1.22 0.63 -1.22 1.56z" fill="#FFF"/>
</svg>
