<?xml version="1.0" ?>
<svg xmlns="http://www.w3.org/2000/svg" width="37" height="36" viewBox="0 0 37 36">
  <path d="M36.64 15a11.89 11.89 0 0 1-0.57 3.48A18.55 18.55 0 0 1 33.18 24 29.16 29.16 0 0 1 28 29.34a33.16 33.16 0 0 1-6.92 4.35 26.6 26.6 0 0 1-4.08 1.5 20.32 20.32 0 0 1-5.91 0.76 16.69 16.69 0 0 1-3.23-0.4A15 15 0 0 1 3.71 34a7 7 0 0 1-3.42-4.3 7.86 7.86 0 0 1-0.24-3A12.23 12.23 0 0 1 1.56 22a21 21 0 0 1 3.09-4.22 29.59 29.59 0 0 1 3.8-3.45 0.26 0.26 0 0 0 0.09-0.33 13.87 13.87 0 0 0-2.09-3.8 6 6 0 0 1-1.19-2.95 7.28 7.28 0 0 1 0-2.42A5.8 5.8 0 0 1 8.93 0.33 a4.81 4.81 0 0 1 2.4-0.33A5.6 5.6 0 0 1 14 1.21a7.26 7.26 0 0 1 2.38 3.12 29.52 29.52 0 0 0 2.23 4.33 0.25 0.25 0 0 0 0.34 0.12 C20.2 8.4 21.44 8 22.7 7.67A20.61 20.61 0 0 1 28.39 7a10.52 10.52 0 0 1 4 0.83 6.9 6.9 0 0 1 3.48 3.42 8.46 8.46 0 0 1 0.77 3.75zM9.36 18.66l-0.15 0.13 a17.24 17.24 0 0 0-2.1 2.56A8.7 8.7 0 0 0 5.61 25a4.38 4.38 0 0 0 0.15 1.8A4.14 4.14 0 0 0 7.52 29 7.73 7.73 0 0 0 12 30.29a13 13 0 0 0 3.71-0.56 21.16 21.16 0 0 0 4.1-1.68 32.43 32.43 0 0 0 7-5.07 19.75 19.75 0 0 0 3.48-4.2 7.78 7.78 0 0 0 1.22-3.42 3.37 3.37 0 0 0-0.3-1.74A3.58 3.58 0 0 0 29.46 12a8.82 8.82 0 0 0-3.81-0.84 14.29 14.29 0 0 0-2.26 0.14 c-0.77 0.1 -1.53 0.29 -2.29 0.44 a1.22 1.22 0 0 0-0.17 0.07 c0 0.05 0.05 0.09 0.08 0.11A9.74 9.74 0 0 0 23.65 14a4.75 4.75 0 0 0 2.47 0.59 c0.27 0 0.53-0.05 0.79 -0.08a0.73 0.73 0 0 1 0.83 0.64 0.76 0.76 0 0 1-0.6 0.82 5.78 5.78 0 0 1-2 0.06A6.88 6.88 0 0 1 22.33 15a14 14 0 0 1-3.59-3.48 30.85 30.85 0 0 1-3.18-5.37c-0.29-0.6-0.54-1.22-0.82-1.82a5.42 5.42 0 0 0-2.09-2.23 3.42 3.42 0 0 0-3-0.44 4.38 4.38 0 0 0-3 3.58A6.18 6.18 0 0 0 6.72 7a4.66 4.66 0 0 0 1 2.37 15.34 15.34 0 0 1 2.79 6 16 16 0 0 1 0.4 3.23 17.68 17.68 0 0 1-0.38 4.23c-0.18 0.81 -0.43 1.6-0.66 2.39a0.73 0.73 0 0 1-1 0.48 0.76 0.76 0 0 1-0.44-1c0.23-0.81 0.49 -1.62 0.64 -2.45 0.15 -0.83 0.21 -1.67 0.29 -2.51 0.02 -0.36 0.02 -0.72 0-1.08z" fill="#FFF"/>
</svg>
