<?xml version="1.0" ?>
<svg xmlns="http://www.w3.org/2000/svg" width="27" height="36" viewBox="0 0 27 36">
  <path d="M10.3 0h6.26c0.11 0.82 -0.35 2.13-2.32 2.56v10.56c0 0.25 0 0.25 0.26 0.25h2.83c0.17 0 0.21 0.06 0.21 0.22 v2.1a0.28 0.28 0 0 0 0.23 0.32 13.28 13.28 0 0 1 6 4 12.41 12.41 0 0 1 2.16 3.52c0.249 0.627 0.46 1.268 0.63 1.92 0.16 0.62 0.23 1.25 0.35 1.88 0 0.16 0 0.21-0.21 0.21 H0.24c-0.23 0-0.25 0-0.22-0.24 0.05 -0.41 0.11 -0.82 0.19 -1.22S0.4 25.36 0.5 25a11 11 0 0 1 0.78-2.07 13.89 13.89 0 0 1 3.18-4.2 13.55 13.55 0 0 1 3.65-2.32c0.32-0.15 0.67 -0.26 1-0.38a0.29 0.29 0 0 0 0.24-0.33v-2a0.27 0.27 0 0 0 0-0.09c0-0.15 0-0.21 0.21 -0.21h2.88c0.16 0 0.21-0.05 0.21 -0.22V2.72c0-0.15-0.06-0.2-0.2-0.24a2.71 2.71 0 0 1-2-1.61A1.82 1.82 0 0 1 10.3 0zM13.45 28.36h13.17c0.26 0 0.26 0 0.26 0.26 v1.25c0 0.18-0.05 0.22 -0.22 0.22 H0.33c-0.35 0-0.33 0.05 -0.33-0.32v-1.2c0-0.17 0.06 -0.21 0.22 -0.21h13.23zM13.44 30.85h3c0.13 0 0.2 0 0.24 0.17 a4.65 4.65 0 0 1 0.18 1.53 2.81 2.81 0 0 1-0.86 1.94 3.09 3.09 0 0 1-1.24 0.74 3.74 3.74 0 0 1-1.48 0.2 A3.41 3.41 0 0 1 10.54 34a2.8 2.8 0 0 1-0.4-1 4.68 4.68 0 0 1 0-1.75c0-0.1 0.05 -0.19 0.07 -0.29 0.02 -0.1 0.11 -0.13 0.21 -0.13h3l0.02 0.02 z" fill="#FFF"/>
</svg>
