<?xml version="1.0" ?>
<svg xmlns="http://www.w3.org/2000/svg" width="25" height="36" viewBox="0 0 25 36">
  <path d="M13.4 11H13c0 0.05 0.05 0.13 0.09 0.15 0.125 0.062 0.256 0.112 0.39 0.15 0.16 0 0.32 0.07 0.48 0.13 a0.57 0.57 0 0 1 0.26 0.19 0.94 0.94 0 0 1 0.06 0.29 1.18 1.18 0 0 1-0.26 0c-0.14 0-0.26-0.07-0.4-0.1a0.5 0.5 0 0 0-0.17 0c0 0.19 0.14 0.24 0.27 0.3 0.344 0.14 0.678 0.304 1 0.49 0.174 0.124 0.326 0.276 0.45 0.45v0.26a1.13 1.13 0 0 1-0.26 0l-0.51-0.17v0.18c0.096 0.102 0.212 0.183 0.34 0.24 0.363 0.133 0.7 0.325 1 0.57a0.56 0.56 0 0 1 0.16 0.58 0.44 0.44 0 0 0 0.23 0.6 c0.136 0.088 0.267 0.185 0.39 0.29 a0.39 0.39 0 0 1 0.13 0.52 c0 0.13-0.1 0.18 -0.23 0.1 a0.83 0.83 0 0 0-0.22 0c0 0.08 0.017 0.158 0.05 0.23 0.19 0.25 0.39 0.49 0.59 0.74 0.2 0.25 0.19 0.18 0.26 0.28a0.34 0.34 0 0 1 0 0.5c-0.15 0.09 -0.13 0.18 -0.05 0.29 0.063 0.065 0.133 0.122 0.21 0.17 0.12 0.08 0.24 0.15 0.35 0.24 0.11 0.09 0.19 0.2 0.1 0.34 a0.25 0.25 0 0 1-0.35 0.05 0.82 0.82 0 0 0-0.19-0.09h-0.26a0.26 0.26 0 0 0 0 0.26 0.6 0.6 0 0 0 0.37 0.36 2 2 0 0 1 0.36 0.19 0.26 0.26 0 0 1 0.09 0.36 c-0.05 0.14 -0.17 0.11 -0.28 0.09 -0.32 0-0.48 0.15 -0.39 0.45 a0.54 0.54 0 0 0 0.48 0.41 c0.152 0.02 0.302 0.05 0.45 0.09 a0.24 0.24 0 0 1 0.2 0.26 0.3 0.3 0 0 1-0.27 0.27 h-0.2a0.32 0.32 0 0 0-0.32 0.26 0.35 0.35 0 0 0 0.24 0.37 c0.103 0.01 0.207 0.01 0.31 0 0.183 0.018 0.363 0.051 0.54 0.1 a0.76 0.76 0 0 1 0.3 0.24 0.36 0.36 0 0 1 0 0.43c-0.1 0.14 -0.23 0.11 -0.37 0.08 a0.52 0.52 0 0 0-0.69 0.26 0.306 0.306 0 0 0 0.27 0.55 2 2 0 0 0 0.35 0c0.167-0.01 0.333 -0.01 0.5 0a0.47 0.47 0 0 1 0.5 0.4 1.24 1.24 0 0 1 0 0.43 0.38 0.38 0 0 1-0.47 0.35 h-0.34c-0.14 0-0.17 0.08 -0.12 0.21 a0.31 0.31 0 0 0 0.39 0.22 c0.185-0.03 0.372 -0.05 0.56 -0.06 0.21 -0.013 0.4 0.12 0.46 0.32a0.43 0.43 0 0 1-0.12 0.49 0.72 0.72 0 0 1-0.25 0.12 0.81 0.81 0 0 1-0.22 0c-0.24 0-0.33 0.08 -0.33 0.24 a0.36 0.36 0 0 0 0.36 0.33 1.28 1.28 0 0 0 0.27-0.05 0.69 0.69 0 0 1 0.61 0.06 0.77 0.77 0 0 1 0.19 0.34 c0 0.19-0.05 0.26 -0.24 0.29 a2.42 2.42 0 0 0-0.48 0.13 0.22 0.22 0 0 0-0.11 0.33 0.23 0.23 0 0 0 0.34 0.07 c0.154-0.1 0.315 -0.19 0.48 -0.27a0.48 0.48 0 0 1 0.66 0.14 0.34 0.34 0 0 1-0.15 0.57 c-0.19 0.09 -0.39 0.17 -0.57 0.27 a0.31 0.31 0 0 0-0.12 0.2 0.37 0.37 0 0 0 0.2 0.19 0.51 0.51 0 0 0 0.27 0l0.55-0.19a2.57 2.57 0 0 1 0.4-0.07 0.52 0.52 0 0 1 0.53 0.29 0.67 0.67 0 0 0 0.52 0.37 1 1 0 0 1 0.9 0.8 c0.064 0.198 0.166 0.381 0.3 0.54 a0.89 0.89 0 0 1 0.17 0.67 4.41 4.41 0 0 0 0 1c0 0.19 0.06 0.38 0.08 0.57 0.07 0.298 0.008 0.611-0.17 0.86 a1.08 1.08 0 0 0-0.15 0.28 2.83 2.83 0 0 1-0.9 1.16l-0.1 0.08 c-0.1 0.07 -0.21 0.07 -0.27 0-0.06-0.07 0-0.17 0.07 -0.23 0.24 -0.263 0.464 -0.54 0.67 -0.83a0.87 0.87 0 0 0 0.12-0.53 3.66 3.66 0 0 0-0.1-0.73 1.24 1.24 0 0 0-1.32-1 1.09 1.09 0 0 1-0.55-0.11 1.89 1.89 0 0 0-1.24-0.07 1.84 1.84 0 0 1-0.93 0 1.37 1.37 0 0 1-0.47-0.23 0.92 0.92 0 0 0-0.48-0.22c-0.23 0-0.28-0.16-0.15-0.36l0.83-1.23a0.72 0.72 0 0 0 0.12-0.27 0.4 0.4 0 0 0-0.19-0.4 0.34 0.34 0 0 0-0.38 0.05 0.28 0.28 0 0 0-0.14 0.36 0.5 0.5 0 0 1-0.1 0.47 6.17 6.17 0 0 1-0.44 0.57 1.09 1.09 0 0 1-0.35 0.24 A0.39 0.39 0 0 1 17 31l-0.63-0.66c-0.14-0.15-0.13-0.23 0-0.33a5.73 5.73 0 0 0 1.21-0.91 1.75 1.75 0 0 1 0.48-0.32 0.43 0.43 0 0 0 0.17-0.62 0.42 0.42 0 0 0-0.59-0.25c-0.13 0.05 -0.16 0.12 -0.1 0.26 0.17 0.34 0.16 0.45 -0.18 0.66 a12 12 0 0 1-1.12 0.6 0.51 0.51 0 0 1-0.73-0.24c-0.14-0.22-0.27-0.44-0.4-0.66-0.13-0.22-0.06-0.28 0.12 -0.35a3.9 3.9 0 0 0 0.64-0.26c0.26-0.15 0.49 -0.35 0.74 -0.51 0.25 -0.16 0.52 -0.29 0.76 -0.45 0.24 -0.16 0.26 -0.18 0.26 -0.28a0.88 0.88 0 0 0-0.18-0.45 0.19 0.19 0 0 0-0.31 0 0.57 0.57 0 0 0-0.15 0.26 0.77 0.77 0 0 1-0.49 0.64 c-0.48 0.21 -1 0.39-1.46 0.55 a0.34 0.34 0 0 1-0.44-0.39 1.24 1.24 0 0 0-0.13-0.68c-0.09-0.17-0.06-0.25 0.12 -0.3l1.54-0.49c0.15 0 0.3-0.05 0.45 -0.08h0.15a0.56 0.56 0 0 0 0.46-0.41 0.69 0.69 0 0 0-0.32-0.59c-0.18-0.11-0.41 0-0.46 0.27 a0.71 0.71 0 0 1-0.57 0.61 l-0.27 0.07 -1 0.22c-0.29 0.06 -0.39 0-0.43-0.34a5.57 5.57 0 0 0-0.22-0.8c-0.08-0.24 0-0.35 0.22 -0.37l1-0.08c0.229-0.01 0.45 -0.083 0.64 -0.21a1.68 1.68 0 0 1 0.53-0.19 0.56 0.56 0 0 0 0.44-0.35 0.51 0.51 0 0 0-0.26-0.48 0.59 0.59 0 0 0-0.34 0.06 0.28 0.28 0 0 0-0.08 0.23 0.32 0.32 0 0 1-0.17 0.34 2 2 0 0 1-0.55 0.21 c-0.39 0.066 -0.785 0.113 -1.18 0.14 -0.21 0-0.31 0-0.3-0.24a3.11 3.11 0 0 0-0.1-0.86c-0.05-0.16 0.09 -0.22 0.23 -0.24l1.07-0.22a3.84 3.84 0 0 0 0.36-0.14 3 3 0 0 1 0.49-0.13 0.62 0.62 0 0 0 0.49-0.4 0.4 0.4 0 0 0-0.23-0.42 0.37 0.37 0 0 0-0.5 0.23 0.54 0.54 0 0 1-0.46 0.47 c-0.45 0.1 -0.89 0.22 -1.34 0.31 -0.45 0.09 -0.42-0.07-0.38-0.4a0.89 0.89 0 0 0-0.08-0.48c-0.13-0.3-0.08-0.39 0.24 -0.46 0.61 -0.13 1.22-0.29 1.84-0.43a1.28 1.28 0 0 1 0.27-0.05c0.25 0 0.34-0.18 0.4 -0.37a0.52 0.52 0 0 0-0.08-0.59 0.42 0.42 0 0 0-0.3 0 0.24 0.24 0 0 0-0.23 0.25 v0.34a0.3 0.3 0 0 1-0.27 0.28 l-1.76 0.28 c-0.19 0-0.31-0.09-0.25-0.25a1.13 1.13 0 0 0 0-0.77c-0.09-0.3-0.06-0.35 0.24 -0.41s0.63-0.14 0.94 -0.23c0.15 0 0.29-0.11 0.44 -0.15a1.27 1.27 0 0 1 0.43-0.09c0.42 0 0.62-0.24 0.46 -0.63a1.74 1.74 0 0 0-0.18-0.33 0.25 0.25 0 0 0-0.35-0.11c-0.15 0.08 -0.26 0.19 -0.21 0.38 a1 1 0 0 1 0 0.17c0 0.18 0 0.26-0.21 0.3 l-1.48 0.29 c-0.23 0-0.34 0-0.4-0.24s-0.13-0.57-0.2-0.86c-0.07-0.29 0.06 -0.23 0.21 -0.27 0.53 -0.15 1.06-0.29 1.59-0.45a0.6 0.6 0 0 0 0.46-0.78c0-0.13-0.09-0.26-0.25-0.25a0.31 0.31 0 0 0-0.31 0.28 0.48 0.48 0 0 1-0.36 0.44 l-1.24 0.53 c-0.17 0.07 -0.25 0-0.3-0.16-0.05-0.16-0.15-0.47-0.23-0.7a0.23 0.23 0 0 1 0.13-0.33l1.36-0.59a1.35 1.35 0 0 1 0.29-0.05 0.35 0.35 0 0 0 0.39-0.54 1.59 1.59 0 0 0-0.12-0.27c-0.07-0.1-0.15-0.19-0.29-0.13-0.14 0.06 -0.28 0.15 -0.24 0.32 a0.31 0.31 0 0 1-0.21 0.37 l-1.28 0.58 c-0.22 0.1 -0.29 0-0.38-0.17a6.54 6.54 0 0 0-0.3-0.59c-0.09-0.16-0.08-0.22 0.08 -0.31l1.24-0.71a0.9 0.9 0 0 1 0.32-0.09c0.33 0 0.43-0.18 0.26 -0.48l-0.14-0.21c-0.08-0.09-0.17-0.15-0.29-0.08a0.27 0.27 0 0 0-0.17 0.3 c0 0.29 0 0.27-0.24 0.39 s-0.66 0.29 -1 0.43c-0.34 0.14 -0.36 0.07 -0.46-0.2a4 4 0 0 0-0.24-0.46c-0.1-0.17-0.09-0.22 0.09 -0.34 0.42 -0.3 0.85 -0.59 1.27-0.91a0.48 0.48 0 0 0 0.1-0.72 0.23 0.23 0 0 0-0.32-0.09c-0.14 0.06 -0.14 0.18 -0.09 0.3 0.11 0.31 0.11 0.32 -0.18 0.5 L11 13c-0.21 0.12 -0.28 0.09 -0.4-0.12s-0.17-0.3-0.26-0.45a0.22 0.22 0 0 1 0-0.31l0.93-0.8c0.12-0.11 0.26 -0.21 0.39 -0.31s0.14-0.22 0-0.41a0.28 0.28 0 0 0-0.42-0.13 0.23 0.23 0 0 0-0.09 0.35 0.24 0.24 0 0 1-0.09 0.37 c-0.29 0.18 -0.57 0.38 -0.85 0.57 -0.28 0.19 -0.28 0.09 -0.39-0.09l-0.33-0.53a0.18 0.18 0 0 1 0-0.26l0.73-0.66a2.09 2.09 0 0 1 0.29-0.23c0.14-0.09 0.21 -0.2 0.13 -0.36-0.08-0.16-0.14-0.14-0.19-0.13-0.05 0.01 -0.17 0.12 -0.17 0.18 a0.43 0.43 0 0 1-0.22 0.38 l-0.76 0.57 a0.19 0.19 0 0 1-0.29 0l-0.37-0.45a0.19 0.19 0 0 1 0-0.31l1-0.87a0.3 0.3 0 0 0 0.09-0.39 0.44 0.44 0 0 0-0.28-0.16 0.22 0.22 0 0 0-0.24 0.31 0.24 0.24 0 0 1-0.09 0.32 l-0.58 0.52 c-0.2 0.17 -0.35 0.14 -0.53 0a1.56 1.56 0 0 0-0.35-0.27c-0.2-0.13-0.23-0.27 0-0.43a3.25 3.25 0 0 1 0.85-0.71 0.26 0.26 0 0 0 0.08-0.24 0.27 0.27 0 0 0-0.19-0.17c-0.07 0-0.13 0.12 -0.18 0.2 a3 3 0 0 1-0.19 0.3 c-0.19 0.18 -0.41 0.34 -0.61 0.51 -0.2 0.17 -0.27 0.15 -0.41 0a2.61 2.61 0 0 0-0.24-0.23c-0.18-0.14-0.2-0.27 0-0.42 0.2 -0.15 0.33 -0.27 0.49 -0.42a0.25 0.25 0 0 0 0.06-0.21 0.32 0.32 0 0 0-0.32-0.23s-0.12 0.1 -0.17 0.17 c-0.05 0.07 -0.09 0.17 -0.16 0.24 -0.07 0.07 -0.18 0.19 -0.26 0.29 a0.29 0.29 0 0 1-0.41 0.1 2.67 2.67 0 0 1-0.44-0.38 0.2 0.2 0 0 1 0-0.21c0.13-0.13 0.28 -0.24 0.42 -0.36A0.27 0.27 0 0 0 6.13 7s-0.08-0.17-0.13-0.16a0.35 0.35 0 0 0-0.2 0.16 c-0.11 0.11 -0.19 0.24 -0.29 0.35 a0.34 0.34 0 0 1-0.43 0.05 2.22 2.22 0 0 1-0.44-0.4c-0.1-0.11-0.07-0.22 0.08 -0.28a0.41 0.41 0 0 0 0.15-0.07S5 6.51 5 6.47a0.31 0.31 0 0 0-0.18-0.19s-0.13 0-0.19 0.1 a3.24 3.24 0 0 1-0.31 0.24 0.37 0.37 0 0 1-0.27 0 2.43 2.43 0 0 1-0.3-0.26c-0.09-0.09-0.07-0.18 0-0.24a3.13 3.13 0 0 0 0.32-0.15c0.05 0 0.13-0.11 0.12 -0.14a0.33 0.33 0 0 0-0.14-0.17s-0.13 0-0.18 0.06 a2.2 2.2 0 0 1-0.23 0.2 0.25 0.25 0 0 1-0.37-0.07c-0.1-0.12-0.21-0.23-0.31-0.34-0.1-0.11-0.13-0.21 0-0.3A2.11 2.11 0 0 0 3.24 5s0.09-0.13 0.07 -0.17a0.33 0.33 0 0 0-0.15-0.16S3 4.75 3 4.8c-0.18 0.21 -0.33 0.2 -0.45-0.06 0-0.09-0.14-0.19-0.12-0.27 0.02 -0.08 0.15 -0.09 0.23 -0.15a0.21 0.21 0 0 0 0.07-0.15A0.71 0.71 0 0 0 2.6 4l-0.13 0.11 a0.48 0.48 0 0 1-0.21 0.09 s-0.09-0.11-0.12-0.2C2.11 3.91 2 3.85 2 3.77c0-0.08-0.07-0.21 0.08 -0.26 0.15 -0.05 0.09 0 0.12 0s0.13-0.12 0.12 -0.16a0.37 0.37 0 0 0-0.15-0.2S2 3.13 2 3.18c-0.2 0.2 -0.22 0.2 -0.35-0.06-0.05-0.09-0.15-0.2-0.12-0.27s0.16-0.11 0.25 -0.17a0.24 0.24 0 0 0 0.07-0.13 0.2 0.2 0 0 0-0.11-0.13H1.6c-0.22 0.21 -0.24 0.21 -0.4 0-0.16-0.21-0.36-0.64-0.55-1a1.21 1.21 0 0 0-0.53-0.5C0 0.85 0 0.68 0.14 0.59A0.24 0.24 0 0 0 0.31 0.38 C0.33 0.15 0.51 0.07 0.73 0.14 A0.35 0.35 0 0 0 1 0.1a0.37 0.37 0 0 1 0.51 0 0.7 0.7 0 0 0 0.4 0.09 c0.35 0 0.38 0 0.47 0.31 0.09 0.31 0.15 0.25 0.35 0.14 0.206-0.116 0.429 -0.2 0.66 -0.25a0.71 0.71 0 0 1 0.76 0.36 0.41 0.41 0 0 1 0 0.29c0 0.05-0.15 0.07 -0.24 0.09 -0.09 0.02 -0.18 0-0.27 0.05 -0.09 0.05 -0.27 0.1 -0.25 0.27 a0.33 0.33 0 0 0 0.31 0.3 c0.192 0.037 0.38 0.094 0.56 0.17 a0.43 0.43 0 0 1 0.2 0.24 c0 0.16 0 0.23-0.2 0.21 a2.57 2.57 0 0 0-0.48 0c-0.22 0-0.27 0.15 -0.15 0.35 0.12 0.2 0.24 0.17 0.4 0.2 0.257 0.056 0.508 0.136 0.75 0.24 0.08 0 0.14 0.17 0.16 0.26 0.02 0.09 -0.06 0.2 -0.2 0.17 l-0.4-0.07c-0.05 0-0.14 0-0.14 0.05 a0.22 0.22 0 0 0 0 0.16 0.58 0.58 0 0 0 0.25 0.09 h0.48c0.124 0.018 0.245 0.052 0.36 0.1 a0.27 0.27 0 0 1 0.12 0.2 s-0.11 0.11 -0.19 0.13 c-0.08 0.02 -0.22 0-0.33 0a1 1 0 0 0-0.21 0.15 c0.07 0.08 0.11 0.19 0.2 0.24 a0.6 0.6 0 0 0 0.3 0c0.17 0 0.33 0 0.5-0.07H6c0.21 0 0.33 0.11 0.34 0.25 0.01 0.14 -0.09 0.22 -0.32 0.26 -0.23 0.04 -0.28 0-0.24 0.14 0.04 0.14 0.2 0.12 0.32 0.09 l1.51-0.42a0.37 0.37 0 0 1 0.16 0 0.69 0.69 0 0 1 0.26 0.17 s-0.07 0.18 -0.14 0.22 c-0.23 0.15 -0.48 0.27 -0.72 0.43 -0.07 0-0.11 0.17 -0.16 0.25 0.1 0 0.21 0.13 0.3 0.12 0.5 0 1-0.1 1.48-0.16h0.26c0.13 0 0.24 0 0.26 0.19 0.02 0.19 -0.06 0.22 -0.18 0.26 -0.12 0.04 -0.24 0.07 -0.36 0.12 a1.75 1.75 0 0 0-0.28 0.13 c-0.11 0-0.22 0.12 -0.17 0.27 a0.28 0.28 0 0 0 0.34 0.19 0.49 0.49 0 0 0 0.27-0.08 0.54 0.54 0 0 1 0.56 0 3 3 0 0 0 1.27 0.23 0.27 0.27 0 0 1 0.27 0.29 c0 0.17-0.11 0.22 -0.25 0.24 h-0.85c-0.16 0-0.23 0-0.19 0.19 a0.24 0.24 0 0 0 0.31 0.19 0.6 0.6 0 0 0 0.16-0.08 0.7 0.7 0 0 1 0.77 0.06 1 1 0 0 0 0.74 0.14 0.37 0.37 0 0 1 0.39 0.2 c0.08 0.14 0 0.23-0.13 0.25 h-0.38c-0.06 0-0.1 0.07 -0.15 0.11 -0.05 0.04 0.09 0.13 0.14 0.13 a0.94 0.94 0 0 1 0.64 0.35 0.33 0.33 0 0 0 0.19 0.08 c0.15 0 0.31 0 0.47 0.06 a0.31 0.31 0 0 1 0.3 0.22 c0.05 0.15 0 0.23-0.18 0.21 l-0.37-0.05a2 2 0 0 0-0.42 0 1.39 1.39 0 0 0-0.33 0.1 c0.07 0.1 0.12 0.26 0.22 0.31 0.191 0.068 0.389 0.115 0.59 0.14 0.179 0.037 0.356 0.084 0.53 0.14 0.17 0.06 0.22 0.23 0.17 0.49 z" fill="#FFF"/>
</svg>
