<?xml version="1.0" ?>
<svg xmlns="http://www.w3.org/2000/svg" width="24" height="37" viewBox="0 0 24 37">
  <path d="M4.39 1.73l0.39-0.35a1.76 1.76 0 0 1 2.43 0.24 c0.1 0.1 0.16 0.1 0.24 0a1.77 1.77 0 0 1 0.82-0.53 1.67 1.67 0 0 1 1.26 0.08 c0.248 0.112 0.47 0.276 0.65 0.48 0.07 0.08 0.11 0 0.17 0 0.213-0.246 0.49 -0.43 0.8 -0.53A1.64 1.64 0 0 1 12 1a1.85 1.85 0 0 1 1.05 0.59 c0.09 0.1 0.15 0.07 0.23 0a1.79 1.79 0 0 1 2.72 0c0.1 0.11 0.16 0.14 0.28 0a1.81 1.81 0 0 1 1-0.54 1.77 1.77 0 0 1 1.72 0.59 0.45 0.45 0 0 1 0 0.07c0.21-0.16 0.4 -0.33 0.61 -0.46a1.59 1.59 0 0 1 0.9-0.25 1.82 1.82 0 0 1 1.69 1.19c0.062 0.183 0.109 0.37 0.14 0.56 a0.12 0.12 0 0 0 0.14 0.11 h0.53c0.18 0 0.43 0.2 0.43 0.43 V36.05a0.46 0.46 0 0 1-0.49 0.49 H0.49A0.46 0.46 0 0 1 0 36V3.41a1.48 1.48 0 0 1 0-0.21c0-0.19 0.14 -0.35 0.35 -0.34 0.21 0.01 0.39 0 0.58 0 0.19 0 0.15 0 0.17-0.16a1.83 1.83 0 0 1 1.36-1.62 1.75 1.75 0 0 1 1.84 0.55 l0.09 0.1 zm5.2 1.84H7.72a0.26 0.26 0 0 0-0.25 0.16 1.82 1.82 0 0 1-1.59 1 0.38 0.38 0 0 1-0.38-0.34 0.36 0.36 0 0 1 0.29-0.39 3.06 3.06 0 0 1 0.32 0 0.91 0.91 0 0 0 0.55-0.34h-1.8a0.37 0.37 0 0 0-0.36 0.22 1.78 1.78 0 0 1-1.57 0.9 0.39 0.39 0 0 1-0.36-0.33 0.35 0.35 0 0 1 0.26-0.45c0.11 0 0.23 0 0.34-0.06a0.89 0.89 0 0 0 0.55-0.33H1c-0.23 0-0.23 0-0.23 0.22 v30.34c0 0.16 0.05 0.2 0.2 0.2H22.7V3.94c0-0.45 0.07 -0.36-0.4-0.37a0.27 0.27 0 0 0-0.17 0.11 c-0.07 0.08 -0.11 0.19 -0.18 0.28 a1.83 1.83 0 0 1-1.46 0.72 0.39 0.39 0 0 1-0.35-0.34 0.34 0.34 0 0 1 0.26-0.34l0.33-0.06a0.87 0.87 0 0 0 0.56-0.34h-1.77a0.38 0.38 0 0 0-0.38 0.22 1.79 1.79 0 0 1-1.57 0.9 0.38 0.38 0 0 1-0.34-0.26 0.3 0.3 0 0 1 0.11-0.37 1.12 1.12 0 0 1 0.39-0.13 1 1 0 0 0 0.54-0.24s0-0.06 0.08 -0.11h-1.94s-0.09 0.05 -0.12 0.08 a5.09 5.09 0 0 1-0.46 0.58 1.75 1.75 0 0 1-1.18 0.45 0.38 0.38 0 0 1-0.36-0.36c0-0.21 0.12 -0.34 0.37 -0.39a2.26 2.26 0 0 0 0.45-0.1 1.54 1.54 0 0 0 0.31-0.21s-0.06-0.05-0.08-0.05h-1.85c-0.05 0-0.11 0.07 -0.16 0.12 -0.05 0.05 -0.25 0.37 -0.41 0.53 a1.78 1.78 0 0 1-1.2 0.46 0.36 0.36 0 0 1-0.35-0.3 0.34 0.34 0 0 1 0.26-0.42 3 3 0 0 1 0.37-0.09 0.85 0.85 0 0 0 0.55-0.33h-1.92a0.24 0.24 0 0 0-0.23 0.15 1.81 1.81 0 0 1-1.57 1 0.35 0.35 0 0 1-0.38-0.32 0.34 0.34 0 0 1 0.29-0.41h0.28a0.91 0.91 0 0 0 0.57-0.43zm2.13 32.21h10.81c0.13 0 0.18 0 0.17-0.16-0.01-0.16 0-0.23 0-0.35 0-0.12 0-0.2-0.21-0.2H0.89c-0.11 0-0.15 0-0.14 0.14 v0.35c0 0.22 0 0.22 0.23 0.22h10.74zM5.85 2.86h0.84c0.27 0 0.3 0 0.24-0.3v-0.08a1.1 1.1 0 0 0-2.12 0.19 c0 0.13 0 0.2 0.18 0.19 0.18 -0.01 0.56 0 0.86 0zm2.92 0h1c0.09 0 0.18 0 0.16-0.12a1.41 1.41 0 0 0-0.14-0.44 1.08 1.08 0 0 0-1.45-0.45 1.14 1.14 0 0 0-0.64 0.82 c0 0.13 0 0.2 0.16 0.19 0.31 -0.01 0.61 0 0.91 0zm3 0h0.73c0.42 0 0.43 0 0.3-0.4a1.1 1.1 0 0 0-1.59-0.58 1.08 1.08 0 0 0-0.58 0.82 c0 0.14 0.06 0.16 0.17 0.16h0.97zm5.85 0h0.95c0.11 0 0.15 0 0.15-0.15a1 1 0 0 0-0.4-0.71 1 1 0 0 0-1.21-0.14 1 1 0 0 0-0.61 0.8 c0 0.15 0 0.21 0.18 0.2 0.32 -0.01 0.59 0 0.89 0h0.05zm2.93 0h0.83c0.26 0 0.31-0.06 0.23 -0.32a0.94 0.94 0 0 0-0.1-0.23A1.08 1.08 0 0 0 20 1.85a1 1 0 0 0-0.61 0.84 c0 0.12 0 0.17 0.15 0.17 0.35 -0.01 0.65 0 0.96 0h0.05zm-5.83 0h0.73c0.4 0 0.41 0 0.28-0.38a1 1 0 0 0-0.83-0.71 1.07 1.07 0 0 0-1.27 0.89 c0 0.16 0 0.2 0.17 0.2h0.92zm-11.73 0h0.92C4 2.86 4 2.8 4 2.68A1 1 0 0 0 3.66 2a1.07 1.07 0 0 0-1.18-0.15 1 1 0 0 0-0.62 0.84 c0 0.12 0 0.17 0.16 0.17 0.31 -0.01 0.61 0 0.92 0h0.05z" fill="#EC1C24"/>
  <path d="M9.59 3.57a0.91 0.91 0 0 1-0.59 0.34 L8.74 4a0.34 0.34 0 0 0-0.29 0.41 0.35 0.35 0 0 0 0.38 0.32 1.81 1.81 0 0 0 1.57-1 0.24 0.24 0 0 1 0.23-0.15h1.87a0.85 0.85 0 0 1-0.55 0.33 3 3 0 0 0-0.32 0.06 0.34 0.34 0 0 0-0.26 0.41 0.36 0.36 0 0 0 0.35 0.3 1.78 1.78 0 0 0 1.2-0.46c0.16-0.16 0.27 -0.36 0.41 -0.53 0.14 -0.17 0.11 -0.12 0.16 -0.12h1.85l0.08 0.05 a1.54 1.54 0 0 1-0.31 0.21 2.26 2.26 0 0 1-0.45 0.1 c-0.25 0-0.37 0.18 -0.37 0.39 a0.38 0.38 0 0 0 0.36 0.36 1.75 1.75 0 0 0 1.18-0.45 5.09 5.09 0 0 0 0.46-0.58s0.08-0.08 0.12 -0.08h1.94c0 0.05-0.05 0.09 -0.08 0.11 a1 1 0 0 1-0.54 0.24 1.12 1.12 0 0 0-0.39 0.13 0.3 0.3 0 0 0-0.11 0.37 0.38 0.38 0 0 0 0.34 0.26 1.79 1.79 0 0 0 1.57-0.9 0.38 0.38 0 0 1 0.38-0.22h1.77a0.87 0.87 0 0 1-0.56 0.34 l-0.33 0.1 a0.34 0.34 0 0 0-0.26 0.37 0.39 0.39 0 0 0 0.35 0.34 A1.83 1.83 0 0 0 22 4c0.07-0.09 0.11 -0.2 0.18 -0.28a0.27 0.27 0 0 1 0.17-0.11c0.47 0 0.4-0.08 0.4 0.37v30.34H0.94c-0.15 0-0.2 0-0.2-0.2V3.78c0-0.22 0-0.22 0.23 -0.22h2.75a0.89 0.89 0 0 1-0.55 0.33 c-0.11 0-0.23 0-0.34 0.06 a0.35 0.35 0 0 0-0.26 0.38 0.39 0.39 0 0 0 0.36 0.33 1.78 1.78 0 0 0 1.57-0.9 0.37 0.37 0 0 1 0.36-0.22h1.8a0.91 0.91 0 0 1-0.55 0.34 3.06 3.06 0 0 0-0.32 0 0.36 0.36 0 0 0-0.29 0.38 0.38 0.38 0 0 0 0.38 0.34 1.82 1.82 0 0 0 1.59-1 0.26 0.26 0 0 1 0.25-0.16h1.87v0.13zm2.29 8.29c0.44 0 0.87-0.07 1.3-0.08a8.83 8.83 0 0 1 1 0c0.786 0.06 1.574 0.06 2.36 0 0.38-0.02 0.76 -0.02 1.14 0l1.17 0.06 c0.13 0 0.25 0 0.26-0.17 0.01 -0.17-0.09-0.19-0.26-0.2H4.01c-0.32 0-0.64 0-1-0.05-0.12 0-0.21 0-0.21 0.18 s0.09 0.17 0.21 0.17 h0.56c0.808 0.08 1.62 0.09 2.43 0.03 a10.1 10.1 0 0 1 1.1 0c0.62 0 1.24 0.05 1.87 0.05 0.63 0 1.11-0.05 1.67-0.05 0.56 0 0.82 0.03 1.24 0.06 zm6.5 1.42h0.56c0.11 0 0.2 0 0.2-0.17s-0.08-0.18-0.2-0.19c-0.39 0-0.78-0.06-1.17-0.06H3.04a0.17 0.17 0 0 0-0.2 0.17 c0 0.13 0.08 0.18 0.2 0.18h13.7c0.62 0.03 1.13 0.06 1.64 0.07 zm-4.25 1.47H14.57c0.11 0 0.21 0 0.21-0.18s-0.11-0.18-0.23-0.19h-0.69a8.49 8.49 0 0 0-1 0 9.32 9.32 0 0 1-1.67 0 4.71 4.71 0 0 0-0.92 0 9.09 9.09 0 0 1-1.65 0 4.82 4.82 0 0 0-0.93 0 8.88 8.88 0 0 1-1.63 0 5.13 5.13 0 0 0-1 0 7.88 7.88 0 0 1-1.61 0 3.85 3.85 0 0 0-0.48 0 0.16 0.16 0 0 0-0.17 0.17 c0 0.11 0 0.18 0.16 0.18 0.52 0 1 0.07 1.57 0.07 h4.16a8.44 8.44 0 0 0 1.33 0 9.75 9.75 0 0 1 1.43 0c0.22 0.015 0.44 0.015 0.66 0a11 11 0 0 1 2.02-0.05zM12 7.43H14.52a0.19 0.19 0 0 0 0.23-0.17c0-0.11-0.08-0.17-0.24-0.18h-0.39a8 8 0 0 0-1.69 0H4.85a7 7 0 0 1-1.12 0A4.54 4.54 0 0 0 3 7c-0.12 0-0.16 0.07 -0.16 0.17 a0.16 0.16 0 0 0 0.16 0.21 c0.34 0 0.69 0.06 1 0.07 0.31 0.01 0.71 -0.06 1.07-0.06H7.59a7.79 7.79 0 0 1 1.08 0c0.496 0.04 0.994 0.04 1.49 0 0.64-0.01 1.25 0.03 1.84 0.04 zM11.72 35.78H1c-0.23 0-0.23 0-0.23-0.22v-0.35c0-0.11 0-0.15 0.14 -0.14h21.6c0.21 0 0.21 0 0.21 0.2 v0.35c0 0.12 0 0.17-0.17 0.16 H11.72zM5.85 2.86h-0.89c-0.29 0-0.2-0.06-0.18-0.19a1.1 1.1 0 0 1 2.12-0.19v0.08c0.06 0.26 0 0.3-0.24 0.3 h-0.81zM8.77 2.86h-0.91c-0.14 0-0.19-0.06-0.16-0.19a1.14 1.14 0 0 1 0.64-0.82 1.08 1.08 0 0 1 1.4 0.45 c0.07 0.138 0.118 0.287 0.14 0.44 0 0.1-0.07 0.12 -0.16 0.12 h-0.95zM11.72 2.86h-0.92c-0.11 0-0.2 0-0.17-0.16a1.08 1.08 0 0 1 0.58-0.82 1.1 1.1 0 0 1 1.53 0.55 c0.13 0.39 0.12 0.4 -0.3 0.4 l-0.72 0.03 zM17.57 2.86h-0.89c-0.15 0-0.2-0.05-0.18-0.2a1 1 0 0 1 0.61-0.8 1 1 0 0 1 1.16 0.14 1 1 0 0 1 0.4 0.71 c0 0.11 0 0.15-0.15 0.15 h-0.95zM20.5 2.86h-0.92c-0.13 0-0.17-0.05-0.15-0.17a1 1 0 0 1 0.57-0.84 1.08 1.08 0 0 1 1.42 0.46 0.94 0.94 0 0 1 0.1 0.23 c0.08 0.26 0 0.32-0.23 0.32 h-0.79zM14.67 2.86h-0.92c-0.18 0-0.19 0-0.17-0.2a1.07 1.07 0 0 1 1.27-0.89 1 1 0 0 1 0.83 0.71 c0.13 0.38 0.12 0.38 -0.28 0.38 h-0.73zM2.94 2.86h-0.92c-0.13 0-0.17-0.05-0.16-0.17a1 1 0 0 1 0.62-0.84A1.07 1.07 0 0 1 3.66 2a1 1 0 0 1 0.34 0.68 c0 0.12 0 0.18-0.16 0.18 h-0.92 0.02 z" fill="#FFF"/>
  <path d="M11.88 11.86c-0.42 0-0.85-0.08-1.28-0.08-0.43 0-1.12 0.05 -1.67 0.05 -0.55 0-1.25 0-1.87-0.05a10.1 10.1 0 0 0-1.1 0 14.19 14.19 0 0 1-2.35 0h-0.56c-0.12 0-0.21 0-0.21-0.17s0.09-0.19 0.21 -0.18c0.32 0 0.64 0.05 1 0.05h14.87c0.17 0 0.27 0.08 0.26 0.2 -0.01 0.12 -0.13 0.18 -0.26 0.17 l-1.17-0.06c-0.38-0.02-0.76-0.02-1.14 0-0.786 0.06 -1.574 0.06 -2.36 0a8.83 8.83 0 0 0-1 0c-0.5 0-0.93 0.04 -1.37 0.07 zM18.38 13.28H3.15c-0.12 0-0.2-0.05-0.2-0.18a0.17 0.17 0 0 1 0.2-0.17H17.88c0.53 0 0.78 0 1.17 0.06 0.12 0 0.2 0.07 0.2 0.19 s-0.09 0.17 -0.2 0.17 h-0.56l-0.11-0.07zM14.13 14.75a11 11 0 0 0-2 0 4.85 4.85 0 0 1-0.66 0 9.75 9.75 0 0 0-1.43 0 8.44 8.44 0 0 1-1.33 0H5.74c-0.4 0-0.79 0.06 -1.19 0-0.4-0.06-1 0-1.57-0.07-0.12 0-0.16-0.07-0.16-0.18a0.16 0.16 0 0 1 0.18-0.16c0.16-0.01 0.32 -0.01 0.48 0a7.88 7.88 0 0 0 1.61 0 5.13 5.13 0 0 1 1 0 8.88 8.88 0 0 0 1.63 0c0.31-0.03 0.62 -0.03 0.93 0a9.09 9.09 0 0 0 1.65 0c0.306-0.03 0.614 -0.03 0.92 0a9.32 9.32 0 0 0 1.67 0 8.49 8.49 0 0 1 1 0h0.69c0.12 0 0.22 0.06 0.23 0.19 0.01 0.13 -0.1 0.17 -0.21 0.18 h-0.16l-0.31 0.04 zM12 7.43h-1.84a9.27 9.27 0 0 1-1.49 0 7.79 7.79 0 0 0-1.08 0H5.07c-0.38 0-0.71 0.06 -1.07 0.06 -0.36 0-0.7 0-1-0.07a0.16 0.16 0 0 1-0.16-0.18c0-0.1 0-0.17 0.16 -0.17 0.246 -0.02 0.494 -0.02 0.74 0a7 7 0 0 0 1.12 0H12.47a8 8 0 0 1 1.69 0h0.39c0.16 0 0.25 0.07 0.24 0.18 a0.19 0.19 0 0 1-0.23 0.17 h-2.52l-0.04 0.01 z" fill="#EC1C24"/>
</svg>
