<?xml version="1.0" ?>
<svg xmlns="http://www.w3.org/2000/svg" width="32" height="36" viewBox="0 0 32 36">
  <path d="M29.13 7.88v1.55h-0.28c-0.12 0-0.17 0.05 -0.18 0.16 v0.16c0 0.18-0.05 0.27 -0.23 0.24 -0.18-0.03-0.22 0.05 -0.22 0.22 v23c0 0.34 0 0.34 0.35 0.34h3v1.77H0a0.61 0.61 0 0 1 0-0.15v-1.45c0-0.15 0.06 -0.17 0.19 -0.17h2.68c0.26 0 0.27 0 0.27-0.26V1.67c0-0.25 0-0.25 0.24 -0.25H4c0.13 0 0.18 0 0.18-0.17v-1c0-0.16 0-0.21 0.21 -0.21H15c0.17 0 0.22 0 0.22 0.21 v1c0 0.34 0.05 0.24 0.23 0.24h1.15c0.14 0 0.18 0.05 0.18 0.19 v5.13c0 0.14 0 0.2-0.19 0.2 h-1v-4.2c0-0.24 0-0.24-0.24-0.24H4.55c-0.25 0-0.25 0-0.25 0.25 v30.56c0 0.15 0 0.2 0.21 0.2h5.65c0.23 0 0.23 0 0.23-0.23v-16.6-1.56c0-0.18 0-0.23 0.22 -0.23h4.24c0.18 0 0.24 0 0.24-0.23V10.2c0-0.15 0-0.22-0.2-0.21-0.2 0.01 -0.08-0.07-0.12-0.11-0.04-0.04 0 0 0-0.05 0-0.38 0-0.39-0.41-0.39-0.14 0-0.18 0-0.17-0.19V8.07c0-0.16 0.05 -0.19 0.19 -0.19h14.75zm-4.27 25.55a2.46 2.46 0 0 0 0-0.26v-6c0-0.27 0-0.27-0.27-0.27h-4c-0.17 0-0.22 0-0.22 0.22 v6.3l4.49 0.01 zm-5.17 0v-6.34c0-0.15-0.05-0.18-0.19-0.18h-4c-0.24 0-0.24 0-0.24 0.26 v6a1.64 1.64 0 0 0 0 0.22l4.43 0.04 zm7-7.86H13.53v0.34c0 0.42 0 0.36 0.36 0.36h12.56c0.09 0 0.19 0 0.19-0.12l0.05-0.58zm-9.47-12.3v1.64c0 0.15 0 0.21 0.2 0.21h1.89c0.17 0 0.22-0.06 0.22 -0.22v-3.24c0-0.16-0.06-0.21-0.22-0.21h-1.94c-0.17 0-0.2 0.06 -0.2 0.21 0.01 0.52 0 1.06 0 1.6l0.05 0.01 zm9.4 0v-1.64c0-0.14 0-0.19-0.18-0.19h-1.98c-0.14 0-0.19 0-0.19 0.19 v3.27c0 0.16 0 0.21 0.2 0.21h1.91c0.15 0 0.2 0 0.19-0.2l0.05-1.64zm0 4.57V16.2c0-0.15 0-0.19-0.18-0.19h-1.98c-0.13 0-0.19 0-0.19 0.17 v3.28c0 0.15 0.05 0.21 0.21 0.2h1.89c0.16 0 0.21-0.06 0.2 -0.21l0.05-1.61zm0 4.56v-1.66c0-0.14-0.05-0.19-0.18-0.19h-1.97c-0.14 0-0.2 0-0.2 0.19 v3.29c0 0.14 0 0.18 0.17 0.18h2c0.13 0 0.16 0 0.16-0.16l0.02-1.65zm-10.67 0v-1.66c0-0.14 0-0.19-0.18-0.19h-1.98c-0.14 0-0.19 0.05 -0.19 0.19 v3.31c0 0.13 0.05 0.16 0.17 0.16h2c0.14 0 0.17-0.05 0.17 -0.18l0.01-1.63zm0-4.58v-1.63c0-0.16 0-0.22-0.21-0.22H13.8c-0.15 0-0.2 0-0.2 0.2 v3.29c0 0.13 0 0.17 0.17 0.17h2c0.14 0 0.19-0.05 0.18 -0.19v-1.62zm1.27 0v1.65c0 0.15 0 0.21 0.2 0.21h1.88c0.16 0 0.23-0.05 0.22 -0.22v-3.24c0-0.15 0-0.21-0.2-0.21h-1.96c-0.16 0-0.19 0.06 -0.19 0.2 0.01 0.54 0 1.07 0 1.61h0.05zM23 13.28v-1.65c0-0.13 0-0.19-0.18-0.19H20.9c-0.15 0-0.2 0.06 -0.2 0.2 v3.26c0 0.15 0 0.21 0.2 0.21h1.91c0.15 0 0.19 0 0.19-0.19v-1.64zm-5.83 9.1V24c0 0.15 0 0.21 0.2 0.21h1.89c0.17 0 0.22-0.05 0.22 -0.21v-3.2c0-0.22 0-0.25-0.23-0.25h-1.87c-0.17 0-0.21 0.06 -0.21 0.22 0.01 0.53 0 1.07 0 1.61zm5.83 0v-1.65c0-0.12 0-0.18-0.17-0.18h-1.91c-0.16 0-0.21 0.07 -0.21 0.22 v3.25c0 0.14 0.05 0.19 0.19 0.19h1.93c0.15 0 0.19-0.05 0.18 -0.19L23 22.38zm0-4.56v-1.63c0-0.14 0-0.2-0.19-0.2h-1.9c-0.15 0-0.2 0-0.2 0.19 v3.24c0 0.16 0.05 0.23 0.21 0.23h1.88c0.16 0 0.21-0.06 0.21 -0.21-0.01-0.52-0.01-1.06-0.01-1.6v-0.02z" fill="#FFF"/>
  <path d="M9 16.12v1.54c0 0.12 0 0.18-0.17 0.18 h-1.8c-0.15 0-0.18-0.06-0.18-0.19v-3.08c0-0.14 0-0.18 0.19 -0.18h1.72c0.14 0 0.19 0 0.19 0.19 -0.01 0.51 0.05 1.03 0.05 1.54zM9 21v1.54c0 0.13 0 0.17-0.17 0.17 H7c-0.14 0-0.18 0-0.18-0.17v-3.09c0-0.13 0-0.18 0.17 -0.18h1.79c0.13 0 0.17 0 0.17 0.17 V21H9zM6.8 25.85v-1.54c0-0.13 0-0.18 0.18 -0.18h1.81c0.12 0 0.16 0 0.16 0.16 v3.13c0 0.11 0 0.15-0.14 0.15 H7c-0.12 0-0.15-0.05-0.15-0.16-0.04-0.52-0.05-1.04-0.05-1.56zM6.8 11.25V9.71c0-0.13 0-0.19 0.18 -0.18h1.79c0.13 0 0.18 0 0.18 0.17 v3.11c0 0.11 0 0.16-0.15 0.16 H7c-0.13 0-0.15-0.07-0.15-0.18-0.04-0.51-0.05-1.02-0.05-1.54zM6.8 30.72v-1.54c0-0.13 0-0.18 0.18 -0.18h1.81c0.12 0 0.16 0 0.16 0.16 v3.13c0 0.12 0 0.15-0.16 0.15 H7c-0.14 0-0.17-0.06-0.17-0.18-0.02-0.51-0.03-1.03-0.03-1.54zM12.54 11.25v1.54c0 0.13 0 0.18-0.17 0.18 h-1.81c-0.13 0-0.17-0.05-0.17-0.18V9.71c0-0.13 0-0.19 0.18 -0.18h1.79c0.15 0 0.18 0.05 0.18 0.18 v1.54zM12.54 6.4v1.52c0 0.14 0 0.18-0.18 0.18 h-1.79c-0.14 0-0.18 0-0.18-0.19V4.85c0-0.14 0-0.19 0.19 -0.19h1.77c0.14 0 0.19 0 0.19 0.18 -0.01 0.52 0 1.04 0 1.56zM9 6.39v1.52c0 0.14 0 0.19-0.18 0.19 H7c-0.13 0-0.17 0-0.17-0.17V4.84c0-0.13 0-0.18 0.17 -0.18h1.78c0.14 0 0.17 0 0.17 0.18 v1.55H9z" fill="#FFF"/>
</svg>
