<?xml version="1.0" ?>
<svg xmlns="http://www.w3.org/2000/svg" width="29" height="32" viewBox="0 0 29 32">
  <path d="M4.54 21.74l-1.16 2.89c-0.08-0.06-0.13-0.07-0.15-0.1-0.57-1.09-1.2-2.16-1.69-3.29a15.76 15.76 0 0 1-0.84-2.71c-0.23-1-0.42-2-0.56-3a14.56 14.56 0 0 1 2-9.58 8.4 8.4 0 0 1 2-2.53 4.81 4.81 0 0 1 3.31-0.93 2.84 2.84 0 0 0 1.9-0.55A9.3 9.3 0 0 1 12.1 0.49 10.25 10.25 0 0 1 16.67 0.1 a6.9 6.9 0 0 1 4 1.81A7.39 7.39 0 0 0 23 3.44a7.23 7.23 0 0 1 2.66 1.84A4.58 4.58 0 0 1 26.81 8c0.023 0.29 0.105 0.572 0.24 0.83 A13 13 0 0 1 28.71 15a14.25 14.25 0 0 1-3.06 9.4c-0.09 0.12 -0.19 0.22 -0.34 0.4 a20.65 20.65 0 0 0-1-3.69c-0.11 0.41 -0.2 0.72 -0.28 1a13.62 13.62 0 0 1-3.45 6.2 9.12 9.12 0 0 1-4.17 2.49 7.9 7.9 0 0 1-6.48-1.07 11.66 11.66 0 0 1-4.43-5.38c-0.32-0.73-0.54-1.51-0.8-2.26a2.94 2.94 0 0 0-0.16-0.35zm12.3-4.95l-0.12 0.06 v3.23h-0.12l-4.24-4.78-0.1 0.06 v0.36c-0.1 0.89 -0.21 1.79-0.3 2.68a1.22 1.22 0 0 1-0.39 0.8 c-0.29 0.27 -0.28 0.28 -0.52 0l-3.29-4.29c-0.09-0.12-0.2-0.23-0.33-0.38-0.07 0.14 -0.12 0.22 -0.16 0.32 -0.7 1.75-1.4 3.5-2.08 5.26a1.31 1.31 0 0 0-0.05 0.68 14.77 14.77 0 0 0 1 3.26A11 11 0 0 0 10.06 29a7.43 7.43 0 0 0 6.35 1 8.9 8.9 0 0 0 4.77-3.49 14.48 14.48 0 0 0 2.43-5.82 1.49 1.49 0 0 0-0.51-1.54 3.65 3.65 0 0 0-2.66-0.88 2.9 2.9 0 0 1-1.14-0.17 17.35 17.35 0 0 1-1.54-0.81l-0.92-0.5z" fill="#FFF"/>
</svg>
