<?xml version="1.0" ?>
<svg xmlns="http://www.w3.org/2000/svg" width="45" height="31" viewBox="0 0 45 31">
  <path d="M0 12.22h40.7a3.43 3.43 0 1 1-3.33 4.28 8.69 8.69 0 0 1-0.12-1c0-0.18 0.06 -0.22 0.22 -0.22h1c0.33 0 0.29 0.05 0.28 0.28 a1.82 1.82 0 0 0 0.57 1.44 1.92 1.92 0 1 0 1.92-3.2 2.18 2.18 0 0 0-0.51-0.09h-2c-1 0-1.967 0.355 -2.73 1-3.15 2.49-6.28 5-9.42 7.5a13.71 13.71 0 0 1-1.85 1.41 5.8 5.8 0 0 1-6.11-0.07C13.23 20.28 7.83 17 2.41 13.74L0.19 12.4 0 12.28v-0.06zM24.16 25.39a8.9 8.9 0 0 0 0.47 1.26 2.92 2.92 0 0 0 2.61 1.6 1.56 1.56 0 0 1 1.59 1.61c0 0.66 0 0.66-0.66 0.66 H13.89c-0.24 0-0.34-0.05-0.31-0.3a6.25 6.25 0 0 1 0.08-0.87 1.45 1.45 0 0 1 1.4-1.09 4.54 4.54 0 0 0 4.22-2.72 0.21 0.21 0 0 1 0.3-0.13 7.11 7.11 0 0 0 4.4 0h0.14l0.04-0.02zM32 4.55h-4.62a0.5 0.5 0 0 0-0.44 0.21 1.48 1.48 0 0 1-1.87 0.37 c-0.592-0.325-0.9-1-0.76-1.66a1.5 1.5 0 0 1 1.56-1.17 1.38 1.38 0 0 1 1.13 0.56 0.47 0.47 0 0 0 0.43 0.2 h8.9a4 4 0 0 1 2.28 0.64 3.77 3.77 0 0 1 1.72 3.18v1.53a0.48 0.48 0 0 0 0.15 0.31 1.51 1.51 0 0 1 0.52 1.7 0.3 0.3 0 0 1-0.32 0.25 h-2.2a0.29 0.29 0 0 1-0.31-0.23 1.48 1.48 0 0 1 0.48-1.71 0.4 0.4 0 0 0 0.18-0.38v-1.5a2.26 2.26 0 0 0-2.33-2.29H32v-0.01zM22 10.66h-4.3c-0.23 0-0.32-0.05-0.31-0.3V9.14a1.5 1.5 0 0 1 1.52-1.51H25a1.5 1.5 0 0 1 1.5 1.5v1.29c0 0.2-0.07 0.24 -0.25 0.24 H22zM20.45 3.63V1.51A1.53 1.53 0 0 1 22 0a1.55 1.55 0 0 1 1.47 1.45c0.02 0.348 -0.06 0.695 -0.23 1a2.62 2.62 0 0 0 0.09 2.8 1 1 0 0 1 0.13 0.63 c0 0.06-0.09 0.16 -0.14 0.16 h-2.71c-0.18 0-0.16-0.12-0.16-0.23V3.63z" fill="#FFF"/>
</svg>
