<?xml version="1.0" ?>
<svg xmlns="http://www.w3.org/2000/svg" width="38" height="36" viewBox="0 0 38 36">
  <path d="M20.53 11.61c-0.3 0.41 -0.56 0.78 -0.83 1.14 0 0.05-0.13 0.07 -0.19 0.07 h-1.18c-0.8 0-1.61 0.1 -2.41 0.16 -0.64 0-1.29 0.08 -1.93 0.14 l-2.11 0.21 c-0.33 0-0.66 0.05 -1 0.09l-1.42 0.2 -1 0.17c-0.39 0.08 -0.78 0.16 -1.16 0.26 -0.54 0.16 -1.07 0.33 -1.6 0.51 a7.3 7.3 0 0 0-2.7 1.6 1.07 1.07 0 0 0 0 1.62A5.46 5.46 0 0 0 4.81 19c0.59 0.25 1.2 0.48 1.81 0.67 0.61 0.19 1.1 0.29 1.65 0.41 0.55 0.12 1.26 0.25 1.89 0.36 0.48 0.07 0.95 0.12 1.43 0.17 l1.79 0.2 c0.32 0.04 0.653 0.07 1 0.09 0.38 0 0.76 0.07 1.14 0.07 1.67 0 3.35 0.08 5 0.08 1 0 1.92-0.08 2.88-0.15 0.74 -0.06 1.48-0.14 2.21-0.23s1.25-0.18 1.87-0.28c0.37-0.05 0.75 -0.1 1.12-0.17 0.37 -0.07 0.89 -0.17 1.33-0.28 0.44 -0.11 1-0.25 1.51-0.4a9.27 9.27 0 0 0 2.9-1.4 1.42 1.42 0 0 0-0.1-2.4A8.3 8.3 0 0 0 32.7 15c-0.78-0.31-1.59-0.56-2.38-0.83a3.19 3.19 0 0 0-0.51-0.12l0.33-0.6c0.08-0.16 0.19 -0.31 0.26 -0.47a0.18 0.18 0 0 1 0.23-0.11c0.42 0.11 0.84 0.2 1.24 0.33 0.68 0.23 1.37 0.46 2 0.74 0.79 0.31 1.56 0.663 2.31 1.06a3 3 0 0 1 1.28 1.52c0.057 0.126 0.09 0.262 0.1 0.4 v1.56c0.01 0.177 0.01 0.353 0 0.53-0.06 0.713 -0.13 1.423-0.21 2.13-0.07 0.51 -0.14 1-0.26 1.53s-0.32 1.25-0.5 1.87a15.59 15.59 0 0 1-1.24 3 15.78 15.78 0 0 1-4.17 5.09 14.62 14.62 0 0 1-3.86 2.2 14 14 0 0 1-1.44 0.42 c-0.695 0.152 -1.4 0.256 -2.11 0.31 a54.94 54.94 0 0 1-7.14 0.2 c-0.72 0-1.43-0.09-2.14-0.15-0.71-0.06-1.26-0.12-1.88-0.23a12.46 12.46 0 0 1-4.85-1.88 16.52 16.52 0 0 1-5-5.18 15.28 15.28 0 0 1-1.46-3.09c-0.22-0.64-0.4-1.3-0.56-1.95-0.16-0.65-0.28-1.32-0.38-2-0.1-0.68-0.16-1.59-0.23-2.4 0-0.57-0.13-1.13-0.13-1.7a2.15 2.15 0 0 1 1.13-2c0.83-0.47 1.67-0.93 2.53-1.33a16.18 16.18 0 0 1 1.85-0.65c0.5-0.17 1-0.31 1.54-0.44s0.82-0.17 1.23-0.25l1.08-0.2c0.185-0.04 0.372 -0.07 0.56 -0.09l1.56-0.17 2.88-0.24 2.35-0.14c0.82 0 1.64-0.11 2.46-0.14 0.44 0.01 0.83 0.06 1.36 0.08 zm-2.26 21.13c0.177 0.045 0.358 0.076 0.54 0.09 a6.63 6.63 0 0 0 2.83-0.34A4.75 4.75 0 0 0 24 30.62a5.6 5.6 0 0 0 0.85-2c0.05-0.24 0.06 -0.25-0.19-0.25h-1.1a7.41 7.41 0 0 0-1.94 0.08 3 3 0 0 0-1.4 0.62 6.29 6.29 0 0 0-2 3.27 1.08 1.08 0 0 0 0 0.26L21 31v0.05l-2.73 1.69zM18 29.66c2.35-2.22 2.18-5 0.37-6.86h-0.06a15.42 15.42 0 0 0-1.47 2 2.81 2.81 0 0 0-0.37 1.44 4.9 4.9 0 0 0 0.6 2.07c0.244 0.492 0.557 0.947 0.93 1.35zm-5.27-2c0.08 0.24 0.14 0.44 0.21 0.64 0.18 0.54 0.34 1.08 0.55 1.6 0.187 0.482 0.506 0.901 0.92 1.21a4.68 4.68 0 0 0 2.27 0.81 h1.27c0.16 0 0.21-0.06 0.19 -0.22a6.08 6.08 0 0 0-0.47-1.5 4.3 4.3 0 0 0-1.75-2 5 5 0 0 0-2.92-0.6l-0.27 0.06 z" fill="#FFF"/>
  <path d="M16.22 19.43l0.31-0.43 1.59-2.2c0.69-1 1.39-1.9 2.08-2.86l1.95-2.69 2.11-2.9 1.32-1.81 1.72-2.37c0.36-0.49 0.72 -1 1.07-1.5 0.09 -0.12 0.16 -0.15 0.29 -0.06 0.81 0.53 1.63 1.05 2.45 1.56L33 5.39c0.25 0.15 0.26 0.15 0.11 0.4 -0.62 1.13-1.25 2.26-1.88 3.38l-1.73 3.09-2.16 3.86c-0.49 0.86 -1 1.71-1.47 2.57a0.73 0.73 0 0 1-0.7 0.42 c-0.36 0-0.71 0.08 -1.07 0.11 -0.61 0.05 -1.23 0.13 -1.84 0.14 -2 0-3.91 0.06 -5.87 0.08 l-0.17-0.01zM29 0c0.363 0.021 0.71 0.15 1 0.37 0.807 0.493 1.607 0.993 2.4 1.5 0.9 0.57 1.79 1.15 2.66 1.75 0.191 0.145 0.346 0.334 0.45 0.55a0.94 0.94 0 0 1-0.31 1.15 0.71 0.71 0 0 1-0.78 0.12 9 9 0 0 1-1.12-0.56c-0.47-0.28-0.94-0.58-1.4-0.87-0.87-0.56-1.74-1.11-2.6-1.68a9.48 9.48 0 0 1-0.95-0.72 1 1 0 0 1 0.36-1.56A1.35 1.35 0 0 1 29 0z" fill="#FFF"/>
</svg>
