<?xml version="1.0" ?>
<svg xmlns="http://www.w3.org/2000/svg" width="44" height="31" viewBox="0 0 44 31">
  <path d="M10.68 15.3h1.78c0.59 0 1.29 0.14 1.93 0.22 0.46 0.06 0.92 0.12 1.37 0.19 0.45 0.07 0.77 0.15 1.15 0.22 l1.09 0.2 1.19 0.23 c0.39 0.07 0.78 0.14 1.18 0.19 0.487 0.072 0.978 0.118 1.47 0.14 0.448 0 0.895-0.027 1.34-0.08 0.27 0 0.53-0.08 0.8 -0.13l1.8-0.33 1.13-0.2 1.17-0.23 1.24-0.19c0.66-0.09 1.33-0.18 2-0.23 0.67 -0.05 1.09 0 1.63 0 1.12 0 2.23 0 3.34 0.11 0.9 0.05 1.79 0.16 2.68 0.26 0.59 0.07 1.19 0.14 1.78 0.25 a9.92 9.92 0 0 1 2.13 0.5 1.6 1.6 0 0 1 1.05 1.42 1.78 1.78 0 0 1-0.26 1.24 1.87 1.87 0 0 1-0.59 0.5 1.46 1.46 0 0 0-0.76 1.18c-0.09 0.84 -0.12 1.69-0.18 2.54a8.87 8.87 0 0 1-0.32 1.82 6.38 6.38 0 0 1-1.14 2.25A6 6 0 0 1 39 28.82a9.1 9.1 0 0 1-2.26 0.9 19.66 19.66 0 0 1-5.78 0.49 15.27 15.27 0 0 1-1.68-0.21 7.18 7.18 0 0 1-2-0.61 5.77 5.77 0 0 1-3-3 10.48 10.48 0 0 1-0.47-1.58 15.87 15.87 0 0 1-0.26-2.38 5.08 5.08 0 0 0-0.55-2.24 1.22 1.22 0 0 0-1.14-0.55 1.32 1.32 0 0 0-1.18 1.09 8.34 8.34 0 0 0-0.37 2.27 11.13 11.13 0 0 1-0.25 1.95 6.19 6.19 0 0 1-2.16 3.65 5.74 5.74 0 0 1-1.89 1c-0.596 0.177 -1.2 0.324 -1.81 0.44 a17.07 17.07 0 0 1-3.85 0.14 A11.9 11.9 0 0 1 8.74 30a13 13 0 0 1-2.55-0.64 7 7 0 0 1-2.69-1.75 5.93 5.93 0 0 1-1.18-1.92 8.43 8.43 0 0 1-0.54-2.94c0-0.53 0-1.06-0.08-1.58a2.08 2.08 0 0 0-0.41-1.25 3.22 3.22 0 0 0-0.66-0.51 1.32 1.32 0 0 1-0.56-0.82 2.32 2.32 0 0 1 0-1.2 1.44 1.44 0 0 1 0.75-0.91 4.39 4.39 0 0 1 1.39-0.44l1.37-0.23 0.83 -0.11 1.94-0.2c1-0.08 1.93-0.17 2.9-0.23h1.42l0.01 0.03 zm29.44 5.85c0-0.4-0.05-0.9-0.1-1.4a2 2 0 0 0-1.13-1.64 5.56 5.56 0 0 0-2-0.58 20.7 20.7 0 0 0-2.22-0.17 40 40 0 0 0-4.46 0.14 9.72 9.72 0 0 0-2.44 0.46 A2.79 2.79 0 0 0 26.34 19a3.58 3.58 0 0 0-0.56 1.91c0 0.76 0 1.53 0.05 2.29 0.053 0.673 0.23 1.33 0.52 1.94a4.59 4.59 0 0 0 1.78 2.05 6.82 6.82 0 0 0 3.47 1 15.07 15.07 0 0 0 4.11-0.33 7.55 7.55 0 0 0 1.88-0.7A4.63 4.63 0 0 0 40 23.43c0.08-0.72 0.08 -1.43 0.12 -2.28zm-28.77-3.8a29.46 29.46 0 0 0-4 0.15 7 7 0 0 0-2.15 0.5 c-0.501 0.21 -0.9 0.609 -1.11 1.11a3.17 3.17 0 0 0-0.23 1.21c0 0.84 0.05 1.67 0.06 2.51 0.01 0.646 0.13 1.286 0.36 1.89A4.44 4.44 0 0 0 6.11 27a7.77 7.77 0 0 0 3.35 1.08c1.186 0.14 2.384 0.14 3.57 0a7.59 7.59 0 0 0 1.9-0.45 4.8 4.8 0 0 0 2.35-1.9c0.54-0.878 0.85 -1.88 0.9 -2.91A8.86 8.86 0 0 0 18 20a2.79 2.79 0 0 0-0.65-1.27 3.7 3.7 0 0 0-2.08-1 17.68 17.68 0 0 0-2-0.25c-0.67-0.09-1.41-0.1-1.92-0.13zM1 15.16l0.84-1.29L6.35 7C7.5 5.27 8.65 3.53 9.8 1.79A4.85 4.85 0 0 1 11 0.45a2.33 2.33 0 0 1 1.9-0.38 4.6 4.6 0 0 1 1.28 0.43 5.2 5.2 0 0 1 1.35 1.18 20 20 0 0 1 2.14 3c0.3 0.477 0.545 0.987 0.73 1.52a1.57 1.57 0 0 1-0.4 1.73 1.35 1.35 0 0 1-2.06-0.42c-0.34-0.66-0.63-1.34-1-2a6.78 6.78 0 0 0-1.19-1.85 1.47 1.47 0 0 0-2.43 0.08 c-0.46 0.55 -0.86 1.14-1.27 1.72L7.76 8.67 4.63 13c-0.35 0.48 -0.69 1-1 1.45a0.48 0.48 0 0 1-0.27 0.18 13.07 13.07 0 0 0-2.36 0.53 zM43 15.18l-1-0.27c-0.21-0.05-0.42-0.09-0.62-0.13-0.2-0.04-0.48-0.05-0.72-0.11a0.61 0.61 0 0 1-0.32-0.21c-0.893-1.26-1.8-2.523-2.72-3.79L35.1 7.13a444.223 444.223 0 0 0-2.22-3.08 4.2 4.2 0 0 0-0.49-0.56 1.36 1.36 0 0 0-1.74-0.2 3 3 0 0 0-0.94 1 19.63 19.63 0 0 0-1.47 2.91 1.62 1.62 0 0 1-1 1 1.34 1.34 0 0 1-1.54-0.65 2.06 2.06 0 0 1 0.12-2 20.05 20.05 0 0 1 2.88-4.13 4 4 0 0 1 1.27-1A3.57 3.57 0 0 1 31.82 0c0.43 0.045 0.84 0.212 1.18 0.48 A6 6 0 0 1 34.31 2L38 7.57 42.89 15l0.11 0.18 z" fill="#FFF"/>
</svg>
