<?xml version="1.0" ?>
<svg xmlns="http://www.w3.org/2000/svg" width="27" height="32" viewBox="0 0 27 32">
  <path d="M13.42 31.37h-12c-0.33 0-0.32 0-0.39-0.32s-0.2-0.76-0.29-1.15c-0.09-0.39-0.15-0.66-0.21-1-0.06-0.34-0.15-0.81-0.23-1.22 0-0.17 0-0.33-0.07-0.49 0-0.51-0.11-1-0.13-1.52 0-1-0.06-2 0-3 0-0.6 0.1 -1.19 0.16 -1.78 0-0.37 0.09 -0.73 0.15 -1.09 0.06 -0.36 0.14 -0.77 0.22 -1.16 0.08 -0.39 0.13 -0.63 0.2 -0.95 0.07 -0.32 0.14 -0.59 0.22 -0.89l0.27-1c0.11-0.38 0.22 -0.77 0.34 -1.15 0.12 -0.38 0.26 -0.84 0.4 -1.26L2.41 12l0.47-1.38c0.15-0.47 0.31 -0.94 0.46 -1.41 0.07 -0.22 0.15 -0.43 0.2 -0.64a0.36 0.36 0 0 0-0.07-0.26C3 7.75 2.59 7.17 2.18 6.56a6.67 6.67 0 0 1-0.88-1.94c-0.12-0.43-0.19-0.87-0.27-1.31A12.7 12.7 0 0 1 1 0.77V0.14c0-0.21 0.1 -0.14 0.2 -0.14h24.3c0.26 0 0.26 0 0.27 0.27 0 0.53 0.05 1.05 0 1.58a11.38 11.38 0 0 1-0.11 1.31 8.54 8.54 0 0 1-0.63 2.22 10.29 10.29 0 0 1-2.1 3 0.29 0.29 0 0 0-0.06 0.35 c0.2 0.56 0.39 1.12 0.59 1.67 0.2 0.55 0.35 0.93 0.52 1.4l0.59 1.61c0.2 0.56 0.4 1.13 0.59 1.69 0.19 0.56 0.3 1 0.45 1.45 0.15 0.45 0.24 0.81 0.35 1.21 0.11 0.4 0.18 0.76 0.26 1.14 0.08 0.38 0.16 0.73 0.23 1.09 0.07 0.36 0.1 0.62 0.14 0.92 0.06 0.55 0.11 1.1 0.17 1.65a2.17 2.17 0 0 1 0 0.26v2c0 0.68-0.07 1.26-0.13 1.89 0 0.44-0.11 0.88 -0.18 1.32-0.07 0.44 -0.19 1-0.29 1.43-0.1 0.43 -0.17 0.8 -0.26 1.2a7 7 0 0 1-0.19 0.69 s0 0.06-0.08 0.07 H13.42v-0.05zm0-3H22c0.25 0 0.26 0 0.26-0.26A15.37 15.37 0 0 0 22 25c-0.05-0.31-0.07-0.62-0.14-0.93-0.13-0.54-0.25-1.08-0.41-1.6-0.16-0.52-0.36-1.13-0.59-1.68A12.15 12.15 0 0 0 19.34 18a8.57 8.57 0 0 0-2.24-2.13 6.9 6.9 0 0 0-6.1-0.64 7.21 7.21 0 0 0-2.18 1.3 9.79 9.79 0 0 0-1.89 2.26 13.61 13.61 0 0 0-1.36 2.89c-0.18 0.51 -0.31 1-0.45 1.56s-0.21 0.87 -0.29 1.31a9.58 9.58 0 0 0-0.17 1.31c0 0.76 0 1.53-0.07 2.29 0 0.14 0.06 0.2 0.21 0.2l8.62 0.02 z" fill="#FFF"/>
  <path d="M10.55 24.25v-3c0-0.14 0-0.18 0.18 -0.18h2.32c0.2 0 0.2 0 0.2-0.2a0.48 0.48 0 0 0 0-0.12c0-0.08 0-0.13 0.11 -0.13s0.15 0 0.16 0.12 c0 0.33 0 0.33 0.37 0.33H16c0.22 0 0.22 0 0.22 0.22 v5.95c0 0.2 0 0.2-0.2 0.2 h-5.28c-0.15 0-0.19 0-0.19-0.19 0.01 -0.99 0-1.99 0-3zM13.71 17.16c0 0.18-0.07 0.34 -0.09 0.5 a0.88 0.88 0 0 0 0.21 0.65 c0.183 0.195 0.344 0.41 0.48 0.64 a1 1 0 0 1-0.44 1.39 1 1 0 0 1-1.49-0.85 2 2 0 0 1 0.48-1.43c0.24-0.29 0.5 -0.55 0.75 -0.82l0.1-0.08z" fill="#FFF"/>
</svg>
