<?xml version="1.0" ?>
<svg xmlns="http://www.w3.org/2000/svg" width="21" height="36" viewBox="0 0 21 36">
  <path d="M0 17.93V6 2.62A2.47 2.47 0 0 1 1.59 0.19 1.72 1.72 0 0 1 2.23 0h15.68a2.45 2.45 0 0 1 2.3 1.36c0.157 0.282 0.246 0.597 0.26 0.92 V32.7c0.02 0.333 0.02 0.667 0 1a2.46 2.46 0 0 1-1.53 2.05 2.73 2.73 0 0 1-1.16 0.21 H2.65a2.52 2.52 0 0 1-2.48-1.68 2.41 2.41 0 0 1-0.17-0.92V27.1v-7.72-1.45zM18.79 5.15H1.72V28.77c0 0.22 0 0.32 0.3 0.32h16.4c0.37 0 0.37 0 0.37-0.37V5.47v-0.32zM12 32.49a1.72 1.72 0 0 0-1.72-1.71 1.71 1.71 0 0 0 0 3.42A1.73 1.73 0 0 0 12 32.49zm0-30.77h-0.9a0.82 0.82 0 0 0-0.33 0.07 0.85 0.85 0 0 0-0.46 1 0.92 0.92 0 0 0 0.85 0.68 h1.55a1.6 1.6 0 0 0 0.44-0.07 0.84 0.84 0 0 0-0.22-1.63c-0.36-0.04-0.67-0.05-0.93-0.05zm-4.26 0a0.82 0.82 0 0 0-0.86 0.85 0.85 0.85 0 0 0 1.7 0 0.82 0.82 0 0 0-0.88-0.85h0.04z" fill="#FFF"/>
</svg>
