<?xml version="1.0" ?>
<svg xmlns="http://www.w3.org/2000/svg" width="34" height="36" viewBox="0 0 34 36">
  <path d="M0 22V9.75c0-0.26 0-0.26 0.25 -0.26h16.52c0.27 0 0.27 0 0.27 0.27 V17c0 0.27 0 0.27 0.27 0.27h4.39a0.78 0.78 0 0 1 0.69 0.39 l2.61 3.9 3.66 5.58 2.7 4.14c0.53 0.8 1.06 1.6 1.58 2.4 0.2 0.267 0.2 0.633 0 0.9a0.74 0.74 0 0 1-1.27 0c-0.68-1-1.36-2.05-2-3.08l-2.78-4.26-3.24-4.95c-0.74-1.13-1.48-2.26-2.23-3.39a0.3 0.3 0 0 0-0.2-0.1h-4c-0.13 0-0.18 0-0.18 0.18 v1.17c0 0.18 0.06 0.23 0.23 0.23h3.05a0.89 0.89 0 0 1 0.8 0.45 c1.41 2.22 2.83 4.43 4.25 6.65l3.49 5.47c0.2 0.31 0.4 0.62 0.59 0.93 a0.78 0.78 0 0 1-0.24 1.06 0.76 0.76 0 0 1-1-0.26c-0.927-1.44-1.85-2.883-2.77-4.33-0.85-1.32-1.7-2.63-2.54-4-0.84-1.37-1.9-2.86-2.8-4.3a0.37 0.37 0 0 0-0.34-0.2h-2.47c-0.25 0-0.25 0-0.25 0.25 v12.23a0.77 0.77 0 0 1-0.67 0.74 0.76 0.76 0 0 1-0.8-0.52 1.65 1.65 0 0 1-0.05-0.38v-12c0-0.29 0-0.29-0.28-0.29h-2.63c-0.21 0-0.24 0-0.24 0.24 v12.25a0.74 0.74 0 0 1-1.47 0.06 v-3c0-0.15 0-0.2-0.2-0.2H6.37c-0.15 0-0.2 0.05 -0.2 0.2 v2.79a0.78 0.78 0 0 1-0.56 0.85 0.74 0.74 0 0 1-0.92-0.54 1.27 1.27 0 0 1 0-0.28v-12.2c0-0.13-0.06-0.2-0.2-0.19H1.76c-0.18 0-0.24 0-0.24 0.24 v12.17a0.76 0.76 0 0 1-0.68 0.81 0.79 0.79 0 0 1-0.84-0.77V22zm8.75-2.27A4.7 4.7 0 1 0 4 15.08a4.69 4.69 0 0 0 4.75 4.68v-0.03zm-0.25 8.34H6.38c-0.14 0-0.22 0-0.22 0.19 v1.2c0 0.15 0 0.22 0.21 0.22h4.27c0.18 0 0.23-0.07 0.23 -0.22v-1.17c0-0.16-0.06-0.23-0.23-0.22H8.5zm0-4.61h2.14c0.17 0 0.22-0.07 0.22 -0.23v-1.16c0-0.14 0-0.22-0.21-0.22H6.38c-0.17 0-0.22 0.08 -0.22 0.23 v1.15c0 0.17 0.06 0.24 0.23 0.24l2.11-0.01zm0 1.54H6.35c-0.14 0-0.2 0.05 -0.19 0.19 v1.19c0 0.14 0 0.19 0.19 0.19h4.33c0.14 0 0.19-0.05 0.19 -0.19v-1.17c0-0.16 0-0.21-0.21-0.21H8.5zM16.75 7.87H0.35l0.78-0.78L8 0.31A0.9 0.9 0 0 1 8.55 0a0.8 0.8 0 0 1 0.6 0.25 L12.86 4l3.75 3.75c0.05 0.01 0.08 0.06 0.14 0.12 z" fill="#FFF"/>
</svg>
