<?xml version="1.0" ?>
<svg xmlns="http://www.w3.org/2000/svg" width="44" height="35" viewBox="0 0 44 35">
  <path d="M20 10.38H1a1.83 1.83 0 0 1-0.47 0A0.63 0.63 0 0 1 0 9.52c0.52-1.59 1-3.18 1.51-4.76 0.42 -1.34 0.84 -2.67 1.25-4 0.18-0.61 0.35 -0.76 1-0.76h32.46c0.81 0 0.91 0.1 1.14 0.87 0.65 2.1 1.31 4.19 2 6.29 0.23 0.74 0.46 1.48 0.68 2.22 0.22 0.74-0.07 1-0.72 1H20zM10.64 11.09h8.54c0.5 0 0.5 0 0.5 0.5 v9.78c0 0.34-0.11 0.43 -0.44 0.43 H2.06c-0.34 0-0.47-0.09-0.47-0.45v-9.82c0-0.35 0.12 -0.45 0.47 -0.45l8.58 0.01 zm0 8.37h3.17a2.07 2.07 0 0 0 2.12-2.13v-1.79a2 2 0 0 0-2-2.11H7.47a2.06 2.06 0 0 0-2 2.12v1.64a2.15 2.15 0 0 0 2.28 2.28c0.9-0.02 1.89-0.01 2.89-0.01zM29.45 21.8h-8.57c-0.38 0-0.47-0.12-0.47-0.48v-9.78c0-0.45 0-0.46 0.48 -0.46H38c0.45 0 0.47 0 0.47 0.48 v9.74c0 0.48 0 0.5-0.49 0.5 h-8.53zm0-8.38H26.3a2 2 0 0 0-2.12 1.89 14.21 14.21 0 0 0 0 2.26 2 2 0 0 0 2 1.88h6.49a2.07 2.07 0 0 0 2-2.13v-1.61a2.12 2.12 0 0 0-2.26-2.29h-2.96zM29.48 22.51H38c0.34 0 0.51 0.1 0.47 0.46 v0.25c0 0.3 0.09 0.41 0.4 0.4h3.86a1 1 0 0 1 0.87 1.53 1.06 1.06 0 0 1-1 0.48H39c-0.47 0-0.47 0-0.47 0.49 v3c0 0.69-0.23 0.92 -0.91 0.92 h-1.9c-0.25 0-0.33-0.08-0.34-0.33A5.84 5.84 0 0 0 23.91 28a11.24 11.24 0 0 0-0.28 1.64c0 0.23-0.07 0.33 -0.31 0.33 h-2.59c-0.25 0-0.32-0.1-0.31-0.33v-6.82c0-0.36 0.21 -0.35 0.46 -0.35h8.61l-0.01 0.04 zM10.67 22.51h8.54c0.36 0 0.48 0.09 0.48 0.46 v6.57c0 0.34-0.07 0.48 -0.44 0.47 h-2.41c-0.25 0-0.36-0.06-0.38-0.34a5.77 5.77 0 0 0-4-5.43 5.78 5.78 0 0 0-7.36 3.63 8.72 8.72 0 0 0-0.31 1.78c0 0.27-0.11 0.36 -0.37 0.35 h-2a0.71 0.71 0 0 1-0.8-0.78V22.9c0-0.36 0.18 -0.38 0.46 -0.38h8.61l-0.02-0.01z" fill="#FFF"/>
  <path d="M34.59 29.78a5.12 5.12 0 1 1-10.24 0 5.12 5.12 0 0 1 10.24 0zm-2.6 0a2.51 2.51 0 1 0-2.53 2.51A2.53 2.53 0 0 0 32 29.81l-0.01-0.03zM15.74 29.8a5.12 5.12 0 1 1-5.17-5.16 5.13 5.13 0 0 1 5.17 5.16zm-2.61 0a2.52 2.52 0 1 0-2.54 2.55 2.54 2.54 0 0 0 2.54-2.58v0.03z" fill="#FFF"/>
  <path d="M10.64 19.46h-3a2.15 2.15 0 0 1-2.28-2.28v-1.64a2.06 2.06 0 0 1 2.05-2.12h6.46a2 2 0 0 1 2 2.11v1.79a2.07 2.07 0 0 1-2.12 2.13h-3.17l0.06 0.01 zM29.44 13.42h3a2.12 2.12 0 0 1 2.26 2.29v1.61a2.07 2.07 0 0 1-2 2.13h-6.49a2 2 0 0 1-2-1.88 14.21 14.21 0 0 1 0-2.26 2 2 0 0 1 2.12-1.89h3.11zM32 29.81a2.51 2.51 0 1 1-2.49-2.56A2.53 2.53 0 0 1 32 29.81zM13.13 29.77a2.52 2.52 0 1 1-2.5-2.52 2.53 2.53 0 0 1 2.5 2.52z" fill="#699305"/>
</svg>
