<?xml version="1.0" ?>
<svg xmlns="http://www.w3.org/2000/svg" width="44" height="36" viewBox="0 0 44 36">
  <path d="M20.59 26.59l0.18-1.59c0.08-0.59 0.16 -1.17 0.23 -1.75l0.09-0.88c0-0.49 0.08 -1 0.1-1.47 0-1 0-2.07 0.08 -3.1 0-0.2-0.06-0.24-0.25-0.26a3.21 3.21 0 0 1-2.14-0.85A2 2 0 0 1 18.3 15c0-0.23 0.07 -0.47 0.1 -0.71a7.57 7.57 0 0 1-0.74 0.56 2.11 2.11 0 0 1-2.46-0.19 5 5 0 0 1-1.61-2.23 3.7 3.7 0 0 1-0.26-1.58 2.21 2.21 0 0 1 1.4-2l0.15-0.07 0.17 -0.05c-0.25-0.12-0.47-0.19-0.67-0.31a2 2 0 0 1-1.06-1.58 3.72 3.72 0 0 1 0.53-2.26 4.89 4.89 0 0 1 1.43-1.7 2.49 2.49 0 0 1 1.85-0.44c0.399 0.1 0.769 0.292 1.08 0.56 l0.11 0.08 a9.45 9.45 0 0 1 0-1.19 1.83 1.83 0 0 1 0.83-1.27A3.32 3.32 0 0 1 21 0a8.93 8.93 0 0 1 1.37 0 3 3 0 0 1 2.25 1.24c0.274 0.42 0.394 0.922 0.34 1.42v0.3a6.57 6.57 0 0 1 0.6-0.35 2.33 2.33 0 0 1 2.28 0.19 4.79 4.79 0 0 1 1.67 2 3.8 3.8 0 0 1 0.43 1.75 2.13 2.13 0 0 1-1.52 2l-0.28 0.12 a2.55 2.55 0 0 1 1.2 0.74 2.4 2.4 0 0 1 0.53 2.05 5.34 5.34 0 0 1-1.37 2.73 2.68 2.68 0 0 1-1.66 0.91 2.21 2.21 0 0 1-1.69-0.59l-0.19-0.18c0.25 2.18-1.06 2.89-2.87 3.18v2.22c0 1-0.12 1.91-0.18 2.86 0 0.21-0.06 0.41 -0.08 0.62 h0.05c0.14-0.23 0.27 -0.47 0.42 -0.69a6 6 0 0 1 2.2-1.9 11 11 0 0 1 2.67-1l1.64-0.4c0.21-0.05 0.27 0 0.28 0.22 a4.09 4.09 0 0 1-0.94 2.89 7 7 0 0 1-2.85 2c-0.7 0.28 -1.41 0.51 -2.12 0.73 -0.438 0.117 -0.882 0.21 -1.33 0.28 -0.16 0-0.28 0.07 -0.3 0.26 -0.02 0.19 -0.08 0.54 -0.11 0.81 -0.07 0.65 -0.15 1.31-0.2 2-0.05 0.69 -0.13 1.58-0.13 2.37a12.16 12.16 0 0 0 0.17 2.08c0.136 0.652 0.306 1.296 0.51 1.93a0.39 0.39 0 0 1-0.2 0.45 0.36 0.36 0 0 1-0.51-0.17c-0.15-0.46-0.3-0.92-0.43-1.39a14 14 0 0 1-0.32-3.93c0-0.43 0.05 -0.87 0.1 -1.3 0-0.19-0.05-0.25-0.21-0.28A13.39 13.39 0 0 1 16.3 27a6.14 6.14 0 0 1-2.56-2.26 4.15 4.15 0 0 1-0.57-2.38c0-0.15 0.08 -0.2 0.22 -0.18 0.34 0.07 0.69 0.12 1 0.2 0.31 0.08 0.93 0.25 1.39 0.4 A8.52 8.52 0 0 1 19.6 25c0.399 0.447 0.708 0.966 0.91 1.53v0.07l0.08-0.01zM18.91 8.78a2.68 2.68 0 1 0 2.67-2.68 2.66 2.66 0 0 0-2.67 2.68zM36 30.09a10.49 10.49 0 0 1-3.38-1.2 4.05 4.05 0 0 1-1.71-1.79 2.38 2.38 0 0 1-0.23-1.51 0.49 0.49 0 0 1 0-0.1c0.24 0 0.48 0.07 0.71 0.13 0.474 0.11 0.941 0.248 1.4 0.41 a5.61 5.61 0 0 1 2.79 1.84c0.2 0.28 0.36 0.6 0.55 0.93 0.34-2.197 0.51 -4.417 0.51 -6.64l-0.54-0.1a1.93 1.93 0 0 1-1.61-1.16 2.29 2.29 0 0 1 0-1.24l-0.22 0.18 a1.57 1.57 0 0 1-1.52 0.43 2.12 2.12 0 0 1-1.19-0.82 3.74 3.74 0 0 1-0.82-1.67 1.74 1.74 0 0 1 1-2.15 0.75 0.75 0 0 0 0.17-0.1c-0.19-0.1-0.38-0.18-0.55-0.29a1.46 1.46 0 0 1-0.69-1.41 3.5 3.5 0 0 1 1.52-2.66 1.65 1.65 0 0 1 2.06 0l0.18 0.11 V11a1.53 1.53 0 0 1 1-1.77 3.53 3.53 0 0 1 3 0.14 1.57 1.57 0 0 1 0.92 1.63v0.19a0.23 0.23 0 0 0 0 0.07 1 1 0 0 0 0.17-0.1 1.73 1.73 0 0 1 2.1 0.1 A3.76 3.76 0 0 1 43 13.37a1.63 1.63 0 0 1-0.53 1.79 5.75 5.75 0 0 1-0.66 0.38 l0.26 0.14 a1.78 1.78 0 0 1 0.94 2 3.93 3.93 0 0 1-1.21 2.15 1.64 1.64 0 0 1-2.32 0s-0.05 0-0.11-0.09a2.6 2.6 0 0 0 0 0.28A1.76 1.76 0 0 1 37.88 22l-0.45 0.08 c-0.15 0-0.21 0.08 -0.22 0.25 0 0.94-0.05 1.88-0.08 2.82 0 0.31-0.05 0.62 -0.08 0.93 a0.34 0.34 0 0 0 0 0.21c0.11-0.16 0.2 -0.32 0.31 -0.48a5.07 5.07 0 0 1 2-1.54 9.16 9.16 0 0 1 2-0.69l0.93-0.21a2.71 2.71 0 0 1-0.2 1.6A4.39 4.39 0 0 1 40 27a8.89 8.89 0 0 1-2.24 0.78 c-0.26 0.05 -0.52 0.1 -0.78 0.17 a0.21 0.21 0 0 0-0.14 0.15 c-0.07 0.51 -0.12 1-0.19 1.54a14.36 14.36 0 0 0-0.14 2.78 7.49 7.49 0 0 0 0.49 2.46 0.31 0.31 0 0 1-0.15 0.44 0.31 0.31 0 0 1-0.41-0.22 7.59 7.59 0 0 1-0.44-2c0-0.633-0.02-1.263-0.06-1.89 0-0.33 0-0.65 0.07 -1a0.45 0.45 0 0 0-0.01-0.12zm2.9-14.4a2.008 2.008 0 1 0-4-0.36 2.008 2.008 0 0 0 4 0.36zM8.78 11.2c0.24-0.1 0.45 -0.21 0.67 -0.29a1.53 1.53 0 0 1 1.42 0.2 3.65 3.65 0 0 1 1.46 2 2.2 2.2 0 0 1 0.1 1 1.52 1.52 0 0 1-0.94 1.19l-0.34 0.14 0.4 0.2 c0.52 0.256 0.855 0.78 0.87 1.36a3.33 3.33 0 0 1-1.68 3.05A1.46 1.46 0 0 1 9 20c-0.08-0.05-0.14-0.11-0.26-0.2v0.28A1.81 1.81 0 0 1 7.3 22l-0.24 0.07 c-0.46 0.07 -0.45 0.07 -0.45 0.53 v2.05c0 0.47-0.09 0.93 -0.13 1.4v0.36c0.2-0.29 0.35 -0.55 0.54 -0.78a5.15 5.15 0 0 1 2.22-1.52c0.72-0.26 1.46-0.46 2.19-0.67 0.4 -0.11 0.45 -0.06 0.45 0.35a3.16 3.16 0 0 1-1.23 2.47 6.5 6.5 0 0 1-2.51 1.31c-0.56 0.15 -1.13 0.28 -1.7 0.42 -0.18 0-0.18 0.18 -0.2 0.3 -0.02 0.12 -0.06 0.43 -0.08 0.65 A20.83 20.83 0 0 0 5.93 33a7.06 7.06 0 0 0 0.44 1.91 0.29 0.29 0 0 1-0.13 0.38 0.3 0.3 0 0 1-0.41-0.17 6.18 6.18 0 0 1-0.43-1.78c0-0.93-0.05-1.86-0.06-2.78 0.01 -0.158 0.03 -0.315 0.06 -0.47-0.5-0.13-1-0.24-1.46-0.38A6.61 6.61 0 0 1 0.91 28 3.15 3.15 0 0 1 0 25.71c0-0.17 0.07 -0.23 0.23 -0.2 0.418 0.072 0.832 0.166 1.24 0.28 a14.73 14.73 0 0 1 1.71 0.66 4.33 4.33 0 0 1 2.19 2.07 0.6 0.6 0 0 0 0.17 0.23 c0-0.24 0.08 -0.49 0.1 -0.73 0.07 -0.62 0.15 -1.24 0.2 -1.86 0.07 -1 0.13-1.95 0.19 -2.92v-1.07c-0.32-0.07-0.61-0.12-0.89-0.2a1.67 1.67 0 0 1-1.33-1.83c0-0.14 0.06 -0.28 0.1 -0.46-0.22 0.16 -0.38 0.31 -0.56 0.42 a1.66 1.66 0 0 1-2-0.27 3.92 3.92 0 0 1-1.21-2.2 1.75 1.75 0 0 1 0.63-1.77c0.17-0.13 0.38 -0.22 0.59 -0.35a1.64 1.64 0 0 1-1.15-1 1.89 1.89 0 0 1-0.07-1.13 3.86 3.86 0 0 1 1.3-2.12 1.79 1.79 0 0 1 1.23-0.46 1.8 1.8 0 0 1 1 0.38l0.17 0.13 c0-0.2-0.06-0.37-0.06-0.54a1.63 1.63 0 0 1 1.11-1.54 3.67 3.67 0 0 1 2.17-0.16 2 2 0 0 1 1.5 1c0.105 0.247 0.179 0.505 0.22 0.77 0.01 0.12 0.01 0.24 0 0.36zm-4.49 4.34a2 2 0 1 0 4 0 2 2 0 0 0-4 0z" fill="#FFF"/>
</svg>
