<?xml version="1.0" ?>
<svg xmlns="http://www.w3.org/2000/svg" width="42" height="32" viewBox="0 0 42 32">
  <path d="M41.08 17v2.77a10.38 10.38 0 0 1-0.21 1.85A9.73 9.73 0 0 1 40 24a9.45 9.45 0 0 1-1.31 2c-0.35 0.41 -0.69 0.82 -1.07 1.2a16.94 16.94 0 0 1-2.11 1.8A14.2 14.2 0 0 1 33 30.3a18.18 18.18 0 0 1-2 0.7c-0.48 0.14 -1 0.21-1.47 0.32 -0.8 0.133 -1.61 0.187 -2.42 0.16 a10.22 10.22 0 0 1-2-0.19c-0.563-0.1-1.12-0.23-1.67-0.39a20.28 20.28 0 0 1-2-0.73 15.48 15.48 0 0 1-3-1.78 24.65 24.65 0 0 1-2.37-2c-0.63-0.59-1.26-1.19-1.9-1.76a17.17 17.17 0 0 0-2.37-1.88 7.94 7.94 0 0 0-1.75-0.87 7.54 7.54 0 0 0-1.54-0.38c-0.55-0.07-1.1-0.13-1.65-0.17-0.55-0.04-1 0-1.51-0.08a8.08 8.08 0 0 1-2.73-0.61 4.72 4.72 0 0 1-2.4-2.89A5 5 0 0 1 0 16.27V11.2a5.35 5.35 0 0 1 0.6-2.35A9.28 9.28 0 0 1 1.81 7a15.12 15.12 0 0 1 2-2 19.27 19.27 0 0 1 2.78-1.92c0.64-0.35 1.32-0.66 2-1 0.52-0.23 1.05-0.44 1.59-0.62s1.33-0.41 2-0.59c0.44-0.11 0.89 -0.17 1.34-0.25 0.71 -0.12 1.42-0.24 2.13-0.34 0.48 -0.07 1-0.08 1.45-0.15A31 31 0 0 1 20.83 0h2c0.35 0 0.7 0 1 0.07 0.3 0.07 0.44 0 0.66 0.07 0.6 0.08 1.2 0.15 1.8 0.25 0.6 0.1 0.93 0.2 1.39 0.31 0.46 0.11 0.74 0.15 1.11 0.25 0.37 0.1 0.88 0.29 1.33 0.43 A15.8 15.8 0 0 1 33 2.7c0.547 0.306 1.077 0.64 1.59 1 0.65 0.47 1.3 1 1.9 1.49a11.56 11.56 0 0 1 1.77 1.86c0.44 0.61 0.88 1.21 1.28 1.84a10.4 10.4 0 0 1 1 2.11c0.15 0.42 0.26 0.85 0.37 1.28a17.65 17.65 0 0 1 0.23 4.17V17h-0.06zm-13.69 8.53l1.74-0.19a10.19 10.19 0 0 0 1.8-0.41 13.26 13.26 0 0 0 2.47-1 15.79 15.79 0 0 0 2.6-1.77 10.14 10.14 0 0 0 1.63-1.71c0.28-0.38 0.55 -0.76 0.8 -1.16a8 8 0 0 0 0.57-1.08c0.2-0.5 0.34 -1 0.51-1.53a4.9 4.9 0 0 0 0.24-1.57v-0.4c0.02-0.4 0.02 -0.8 0-1.2-0.06-0.47-0.2-0.92-0.3-1.38a8.46 8.46 0 0 0-0.78-2 13.9 13.9 0 0 0-1.5-2.24 16.06 16.06 0 0 0-2-2 12.71 12.71 0 0 0-1.32-1c-0.76-0.49-1.53-1-2.34-1.41a20.35 20.35 0 0 0-2.16-0.88 15.59 15.59 0 0 0-1.65-0.48c-0.46-0.12-0.94-0.19-1.41-0.27-0.67-0.11-1.34-0.22-2-0.29-0.66-0.07-1.55-0.14-2.33-0.17s-1.4 0-2.09 0c-1 0-2 0.15-3 0.23-0.44 0-0.89 0.09 -1.33 0.15 -0.66 0.1 -1.31 0.2 -2 0.32s-1.09 0.22 -1.63 0.36 A19.67 19.67 0 0 0 9 3.42a18.54 18.54 0 0 0-3.11 1.73 14.62 14.62 0 0 0-1.58 1.24 16.31 16.31 0 0 0-1.43 1.45 6.79 6.79 0 0 0-1.36 2.45 3.59 3.59 0 0 0-0.18 1c0 0.546 0.094 1.087 0.28 1.6a4.05 4.05 0 0 0 1.65 2 4.48 4.48 0 0 0 1.5 0.53 13.09 13.09 0 0 0 1.77 0.17 c0.71 0 1.42 0.06 2.12 0.16 0.701 0.089 1.392 0.25 2.06 0.48 a8.81 8.81 0 0 1 2.43 1.32c0.64 0.48 1.24 1 1.84 1.55 0.94 0.83 1.85 1.7 2.8 2.52 0.602 0.513 1.233 0.99 1.89 1.43 0.768 0.537 1.597 0.98 2.47 1.32 0.49 0.18 1 0.37 1.46 0.53 0.33 0.1 0.68 0.17 1 0.24 0.32 0.07 0.7 0.18 1.05 0.23 0.53 0.1 1.05 0.11 1.73 0.16 z" fill="#FFF"/>
  <path d="M20.57 2.71c1 0 1.88 0.08 2.8 0.14 0.55 0 1.09 0.13 1.64 0.2 0.27 0 0.54 0 0.8 0.09 s0.69 0.14 1 0.22c0.31 0.08 0.74 0.16 1.1 0.26 0.36 0.1 0.94 0.27 1.41 0.43 a13 13 0 0 1 2.41 1.16c0.56 0.33 1.09 0.72 1.63 1.09a12.22 12.22 0 0 1 1.88 1.64 12.25 12.25 0 0 1 1.76 2.3c0.332 0.572 0.606 1.175 0.82 1.8a7.5 7.5 0 0 1 0.36 3 6.3 6.3 0 0 1-0.38 1.76 9 9 0 0 1-1.14 2.14 11.59 11.59 0 0 1-2.55 2.49A11.43 11.43 0 0 1 32 22.61a11.17 11.17 0 0 1-1.62 0.59 14.6 14.6 0 0 1-1.74 0.39 7.51 7.51 0 0 1-2 0.05 2.11 2.11 0 0 0-0.25 0l-1-0.14c-0.28-0.05-0.55-0.11-0.82-0.18a12 12 0 0 1-2.65-1 12.54 12.54 0 0 1-1.93-1.22c-0.47-0.37-1-0.73-1.42-1.12-0.42-0.39-1-0.87-1.44-1.32a30.59 30.59 0 0 0-3.54-3 9.61 9.61 0 0 0-2.43-1.24c-0.52-0.16-1.05-0.34-1.58-0.46a9 9 0 0 0-1.37-0.19c-0.89-0.07-1.78-0.07-2.66-0.17A3.94 3.94 0 0 1 4 13.2a2.2 2.2 0 0 1-1-1.35 1.93 1.93 0 0 1-0.06-1 4.32 4.32 0 0 1 0.35-1 6.35 6.35 0 0 1 1.18-1.69 14.2 14.2 0 0 1 2.38-2 18.56 18.56 0 0 1 5-2.29 15.51 15.51 0 0 1 1.76-0.42c0.65-0.13 1.3-0.23 1.95-0.33 0.4 -0.08 0.813 -0.12 1.24-0.12l2.2-0.19 1.57-0.1zm4.07 12.82c-0.015 0.15 -0.015 0.3 0 0.45 0.146 0.527 0.476 0.985 0.93 1.29A4.15 4.15 0 0 0 28 18a4.35 4.35 0 0 0 1.47-0.2 3.14 3.14 0 0 0 1.82-1.27 1.77 1.77 0 0 0 0.29-1.28 2.3 2.3 0 0 0-0.91-1.42 4.26 4.26 0 0 0-2.36-0.8 4.54 4.54 0 0 0-1.27 0.14 3.38 3.38 0 0 0-1.62 0.79 1.89 1.89 0 0 0-0.78 1.57z" fill="#FFF"/>
</svg>
