<?xml version="1.0" ?>
<svg xmlns="http://www.w3.org/2000/svg" width="26" height="36" viewBox="0 0 26 36">
  <path d="M13.14 10.27c0.23-0.24 0.47 -0.47 0.68 -0.71a0.42 0.42 0 0 0 0-0.25c0.06-2 0.12-4 0.17-6C14 3 14 3 14.36 3c1.34-0.16 2.67-0.34 4-0.51h0.18c0.07 0.3 0.13 0.59 0.21 0.88 a5.35 5.35 0 0 0 3.93 4c0.33 0.085 0.663 0.152 1 0.2a0.27 0.27 0 0 1 0.27 0.26 c0.159 0.992 0.219 1.997 0.18 3l0.26 20.24v1.4a0.33 0.33 0 0 0 0.17 0.33 c0.357 0.206 0.575 0.588 0.57 1v0.95a0.41 0.41 0 0 1-0.35 0.46 c-0.46 0.09 -0.91 0.18 -1.37 0.25 a22.68 22.68 0 0 1-5 0.19h-0.47a0.45 0.45 0 0 1-0.47-0.46c0-0.51-0.05-1 0-1.54a0.64 0.64 0 0 1 0.18-0.38 0.35 0.35 0 0 0 0.1-0.36c-0.22-0.92-0.43-1.85-0.64-2.78-0.21-0.93-0.41-1.82-0.62-2.72-0.21-0.9-0.41-1.83-0.61-2.75-0.2-0.92-0.42-1.81-0.62-2.72l-0.6-2.65c-0.2-0.9-0.41-1.81-0.61-2.72-0.2-0.91-0.42-1.87-0.64-2.81-0.12-0.56-0.24-1.12-0.38-1.68a0.28 0.28 0 0 0-0.2-0.15 2.91 2.91 0 0 0-0.59 0 0.33 0.33 0 0 0-0.22 0.18 c-0.27 1.17-0.52 2.34-0.79 3.51s-0.54 2.38-0.81 3.57-0.47 2.09-0.7 3.14L9 25.4c-0.23 1-0.46 2.09-0.7 3.14-0.24 1.05-0.47 2.09-0.71 3.13-0.09 0.4 -0.19 0.8 -0.26 1.2a0.37 0.37 0 0 0 0.11 0.28 0.57 0.57 0 0 1 0.25 0.52 c0 0.48 0 0.95-0.06 1.42s-0.18 0.48 -0.51 0.51 a20.92 20.92 0 0 1-4.26 0l-2.25-0.34c-0.52-0.07-0.63-0.21-0.61-0.73v-0.79a1.19 1.19 0 0 1 0.49-0.92 0.52 0.52 0 0 0 0.16-0.34c0-3.07 0.07 -6.15 0.11 -9.23 0.09 -4.69 0.14 -9.38 0.24 -14.07 0.018 -0.496 0.064 -0.99 0.14 -1.48 0-0.17 0.17 -0.15 0.29 -0.18 0.43 -0.09 0.87 -0.14 1.29-0.27a5.08 5.08 0 0 0 3.34-3.08c0.168-0.483 0.302 -0.978 0.4 -1.48 0-0.17 0.1 -0.24 0.28 -0.21 0.7 0.11 1.39 0.22 2.09 0.31 s1.5 0.14 2.26 0.2 c0.2 0 0.27 0.09 0.28 0.29 0.12 2.31 0.26 4.62 0.39 6.93 0 0.07 0.09 0.2 0.15 0.21 0.06 0.01 0.14 -0.12 0.14 -0.23-0.05-1.64-0.11-3.28-0.17-4.92 0-0.67 0-1.34-0.06-2 0-0.17 0.06 -0.22 0.22 -0.22h1.31c0.17 0 0.23 0.06 0.23 0.24 0 2 0 4-0.05 5.94a1.44 1.44 0 0 1-0.21 0.54 c-0.07 0.16 -0.17 0.31 -0.25 0.46 l0.07 0.04 zM22.4 0.07 a33.82 33.82 0 0 1-9.83 1.6 34.94 34.94 0 0 1-10-1.6V0h19.82l0.01 0.07 z" fill="#FFF"/>
  <path d="M23.66 6.89a4.66 4.66 0 0 1-3.82-2.62 12.49 12.49 0 0 1-0.62-1.75c-0.07-0.18 0-0.24 0.17 -0.27 0.46 -0.11 0.93 -0.21 1.38-0.33l1.94-0.53 0.23 -0.06c0.12 0 0.17 0 0.19 0.13 0.12 0.94 0.25 1.88 0.38 2.81 0.13 0.93 0.22 1.58 0.34 2.37 0.02 0.16 0.03 0.28-0.19 0.25 zM1.36 6.89s-0.1-0.12-0.09-0.18c0.09-0.76 0.19 -1.5 0.29 -2.25 0.1 -0.75 0.24 -1.78 0.35 -2.68 0.05 -0.44 0-0.44 0.46 -0.34l3.34 0.84 c0.14 0 0.19 0.08 0.16 0.22 a5.29 5.29 0 0 1-2.75 3.91 4.54 4.54 0 0 1-1.76 0.48 zM12.82 2a0.44 0.44 0 0 1 0.45 0.44 0.43 0.43 0 0 1-0.44 0.44 0.44 0.44 0 1 1 0-0.88h-0.01z" fill="#FFF"/>
</svg>
