<?xml version="1.0" ?>
<svg xmlns="http://www.w3.org/2000/svg" width="40" height="36" viewBox="0 0 40 36">
  <path d="M33.13 7.34v1.21H30.7v-1.2H16.2c-0.26 0-0.26 0-0.26 0.26 v1h-2.43V7.35H7.36a1.41 1.41 0 0 0 0 0.2v27.19a0.79 0.79 0 0 1-0.84 0.83 H4.59a0.86 0.86 0 0 1-0.9-0.9v-27c0-0.37 0-0.37-0.37-0.37h-0.65a1.28 1.28 0 0 1-1.14-0.6C1.06 6.05 0.6 5.35 0.13 4.65A0.54 0.54 0 0 1 0.09 4a0.64 0.64 0 0 1 0.59-0.32h3a2.25 2.25 0 0 1 0-0.26c0.001-0.418 0.028 -0.835 0.08 -1.25a1.67 1.67 0 0 1 0.32-0.62c0.29-0.43 0.6 -0.84 0.9 -1.27a0.63 0.63 0 0 1 1 0L7.1 1.77a1.4 1.4 0 0 1 0.25 0.8 v0.9c0 0.3 0 0.21 0.21 0.21h30.99a0.67 0.67 0 0 1 0.68 0.45 0.5 0.5 0 0 1-0.07 0.5 c-0.48 0.73 -0.95 1.45-1.45 2.17a1.25 1.25 0 0 1-1.09 0.55 h-3.49v-0.01zM6.28 5.51a0.81 0.81 0 0 0-0.77-0.77 0.81 0.81 0 0 0-0.76 0.75 0.8 0.8 0 0 0 0.76 0.78 0.8 0.8 0 0 0 0.77-0.76z" fill="#FFF"/>
  <path d="M23.31 31.89h-11A2.44 2.44 0 0 1 10 30.33a2.36 2.36 0 0 1-0.17-0.87V12.37a2.47 2.47 0 0 1 1-2 2.4 2.4 0 0 1 1.5-0.5h22a2.45 2.45 0 0 1 2.34 1.55 3 3 0 0 1 0.18 0.93 v17.06a2.51 2.51 0 0 1-2.47 2.54l-11.07-0.06zm0-19.64H12.94a0.69 0.69 0 0 0-0.69 0.69 V28.8a0.7 0.7 0 0 0 0.67 0.68 h20.77a0.68 0.68 0 0 0 0.7-0.69V12.92a0.71 0.71 0 0 0-0.05-0.29 0.62 0.62 0 0 0-0.64-0.38H23.31z" fill="#FFF"/>
  <path d="M28.22 17.16a1.6 1.6 0 0 1 0.31 0 0.3 0.3 0 0 1 0.16 0.13 c0.24 0.71 0.47 1.43 0.71 2.14a0.31 0.31 0 0 0 0.19 0.18 h0.9c0.12 0 0.21-0.07 0.17 -0.2-0.13-0.39-0.27-0.77-0.41-1.16l-0.33-0.95c0-0.13-0.05-0.24 0.12 -0.32a1 1 0 0 0 0.56-0.67 4.91 4.91 0 0 0 0-1.91 1.12 1.12 0 0 0-1.08-0.89h-2.3a0.19 0.19 0 0 0-0.22 0.22 v5.62c0 0.24 0 0.27 0.28 0.27H28c0.15 0 0.22-0.08 0.22 -0.23v-2.23zm-2.45-0.67c0-0.12-0.05-0.31-0.07-0.5a3.13 3.13 0 0 0-0.85-1.8 2 2 0 0 0-2.92-0.13 3.2 3.2 0 0 0-1.05 2.31 3.38 3.38 0 0 0 0.6 2.18c0.373 0.59 0.996 0.977 1.69 1.05a1.9 1.9 0 0 0 1.44-0.47 3.37 3.37 0 0 0 1.16-2.64zm-3.11 11.72h0.39c0.16 0 0.22-0.08 0.19 -0.23-0.03-0.15-0.11-0.53-0.18-0.8-0.14-0.54-0.29-1.07-0.43-1.61s-0.22-0.9-0.34-1.35c-0.16-0.64-0.34-1.28-0.51-1.92a0.23 0.23 0 0 0-0.26-0.21h-1.28a0.23 0.23 0 0 0-0.27 0.19 c-0.12 0.42 -0.22 0.85 -0.33 1.27-0.11 0.42 -0.19 0.71 -0.28 1.06L19 25.88l-0.36 1.38c-0.06 0.22 -0.12 0.44 -0.17 0.66 -0.05 0.22 0 0.29 0.23 0.29h0.6c0.27 0 0.32-0.05 0.37 -0.32 0.05 -0.27 0.12 -0.51 0.18 -0.76S20 27 20.1 27h1.5c0.18 0 0.24 0.08 0.27 0.24 0.03 0.16 0.11 0.5 0.18 0.76 a0.26 0.26 0 0 0 0.33 0.23 2.62 2.62 0 0 1 0.28-0.02zm8-3.66v-1c0-0.17 0-0.23 0.22 -0.23h2c0.16 0 0.24-0.07 0.24 -0.24v-0.71c0-0.22 0-0.26-0.26-0.26h-3.13c-0.22 0-0.26 0-0.26 0.26 V28c0 0.16 0 0.26 0.22 0.26h3.22a0.19 0.19 0 0 0 0.22-0.22v-0.71c0-0.25 0-0.28-0.28-0.28h-2.16v-1.3h1c0.17 0 0.25-0.06 0.24 -0.23v-0.71c0-0.22 0-0.26-0.26-0.26h-1.01zm-14.58-2.46h-0.67a1.79 1.79 0 0 0-1.42 0.62 1.68 1.68 0 0 0-0.33 1.87c0.148 0.32 0.408 0.576 0.73 0.72 0.39 0.19 0.79 0.35 1.17 0.54 a0.62 0.62 0 0 1 0.4 0.47 0.63 0.63 0 0 1-0.64 0.69 h-1.55c-0.22 0-0.26 0.05 -0.26 0.26 v0.68c0 0.23 0 0.27 0.28 0.27h1.48c0.41 0.004 0.81-0.126 1.14-0.37a1.86 1.86 0 0 0 0.59-2.15 1.72 1.72 0 0 0-0.92-0.84L15 24.39a0.48 0.48 0 0 1-0.31-0.42 0.6 0.6 0 0 1 0.63-0.67h1.57c0.17 0 0.25-0.07 0.25 -0.24v-0.73c0-0.17-0.08-0.24-0.24-0.24h-0.82zm1.1-7.39h2.19c0.17 0 0.26-0.07 0.26 -0.25v-0.73c0-0.24-0.06-0.23-0.22-0.23h-3.23c-0.16 0-0.22 0.07 -0.22 0.22 v5.67c0 0.15 0.07 0.23 0.22 0.22 0.15 -0.01 0.47 0 0.71 0s0.28 0 0.28-0.27v-2.17h0.94c0.25 0 0.29 0 0.29-0.27v-0.67c0-0.23 0-0.27-0.28-0.27h-0.94V14.7zM25.76 27v-4.6c0-0.28 0-0.31-0.29-0.31h-0.63c-0.24 0-0.28 0-0.28 0.28 v5.58c0 0.17 0.07 0.26 0.25 0.26H28c0.15 0 0.24-0.06 0.24 -0.21v-0.79A0.19 0.19 0 0 0 28 27h-2.24z" fill="#0968B5"/>
  <path d="M28.22 17.16v2.23c0 0.15-0.07 0.23 -0.22 0.23 h-0.71c-0.24 0-0.28 0-0.28-0.27v-5.63a0.19 0.19 0 0 1 0.22-0.22h2.3a1.12 1.12 0 0 1 1.08 0.89 4.91 4.91 0 0 1 0 1.91 1 1 0 0 1-0.61 0.7 c-0.17 0.08 -0.16 0.19 -0.12 0.32 l0.33 0.95 c0.14 0.39 0.28 0.77 0.41 1.16 0 0.13-0.05 0.2 -0.17 0.2 h-0.9a0.31 0.31 0 0 1-0.19-0.18c-0.24-0.71-0.47-1.43-0.71-2.14a0.3 0.3 0 0 0-0.16-0.13 1.6 1.6 0 0 0-0.27-0.02zm0-2.45V16h1c0.14 0 0.22-0.11 0.23 -0.26V15a0.25 0.25 0 0 0-0.23-0.26c-0.31-0.04-0.64-0.03-0.99-0.03h-0.01zM25.77 16.49a3.37 3.37 0 0 1-1.16 2.64 1.9 1.9 0 0 1-1.44 0.47 2.28 2.28 0 0 1-1.69-1.05 3.38 3.38 0 0 1-0.6-2.18 3.2 3.2 0 0 1 1.05-2.31 2 2 0 0 1 2.92 0.13 A3.13 3.13 0 0 1 25.7 16c0.02 0.18 0.05 0.37 0.07 0.49 zm-3.7 0.13 a2 2 0 0 0 0.69 1.58 0.84 0.84 0 0 0 1.12 0 2 2 0 0 0 0.67-1.4 3.36 3.36 0 0 0-0.08-0.89 1.64 1.64 0 0 0-0.64-1 0.84 0.84 0 0 0-1.06 0 2.13 2.13 0 0 0-0.7 1.71zM22.66 28.21a2.62 2.62 0 0 0-0.28 0 0.26 0.26 0 0 1-0.33-0.23c-0.07-0.26-0.13-0.51-0.18-0.76-0.05-0.25-0.09-0.22-0.27-0.22h-1.5c-0.12 0-0.2 0-0.22 0.15 -0.02 0.15 -0.13 0.51 -0.18 0.76 -0.05 0.25 -0.1 0.32 -0.37 0.32 h-0.6c-0.21 0-0.28-0.08-0.23-0.29 0.05 -0.21 0.11 -0.44 0.17 -0.66l0.33-1.4 0.33 -1.27c0.09-0.35 0.19 -0.7 0.28 -1.06 0.09 -0.36 0.21 -0.85 0.33 -1.27a0.23 0.23 0 0 1 0.27-0.19h1.28a0.23 0.23 0 0 1 0.26 0.21 c0.17 0.64 0.35 1.28 0.51 1.92 0.12 0.45 0.22 0.9 0.34 1.35 0.12 0.45 0.29 1.07 0.43 1.61 0.07 0.27 0.13 0.53 0.18 0.8 0.05 0.27 0 0.23-0.19 0.23 h-0.36zm-1.17-2.45c0-0.17-0.07-0.32-0.1-0.48l-0.45-1.76a0.28 0.28 0 0 0-0.08-0.11 0.41 0.41 0 0 0-0.07 0.11 c-0.05 0.16 -0.07 0.32 -0.11 0.48 l-0.36 1.35c0 0.13-0.05 0.27 -0.08 0.41 h1.25zM30.67 24.55h1c0.22 0 0.26 0 0.26 0.26 v0.71c0 0.17-0.07 0.24 -0.24 0.23 h-1V27h2.16c0.25 0 0.28 0 0.28 0.28 V28a0.19 0.19 0 0 1-0.22 0.22 h-3.22c-0.18 0-0.22-0.1-0.22-0.26v-5.6c0-0.22 0-0.26 0.26 -0.26h3.14c0.22 0 0.26 0 0.26 0.26 v0.71c0 0.17-0.08 0.24 -0.24 0.24 h-2c-0.18 0-0.23 0.06 -0.22 0.23 0.01 0.31 0 0.64 0 1.01zM16.08 22.09h0.85c0.16 0 0.24 0.07 0.24 0.24 v0.73c0 0.17-0.08 0.24 -0.25 0.24 h-1.57a0.6 0.6 0 0 0-0.63 0.67 0.48 0.48 0 0 0 0.31 0.42 l1.08 0.46 c0.4 0.155 0.73 0.455 0.92 0.84 a1.86 1.86 0 0 1-0.62 2.15 1.89 1.89 0 0 1-1.14 0.37 h-1.48c-0.24 0-0.28 0-0.28-0.27v-0.68c0-0.21 0-0.26 0.26 -0.26h1.55a0.63 0.63 0 0 0 0.64-0.69 0.62 0.62 0 0 0-0.4-0.47c-0.38-0.19-0.78-0.35-1.17-0.54a1.46 1.46 0 0 1-0.73-0.72 1.68 1.68 0 0 1 0.34-1.87 1.79 1.79 0 0 1 1.42-0.62h0.66zM17.18 14.7V16h0.94c0.24 0 0.27 0 0.28 0.27 v0.67c0 0.24 0 0.27-0.29 0.27 h-0.94v2.18c0 0.24 0 0.27-0.28 0.27 h-0.71c-0.24 0-0.22-0.07-0.22-0.22v-5.72c0-0.15 0.06 -0.22 0.22 -0.22h3.22c0.16 0 0.23 0.07 0.22 0.23 -0.01 0.16 0 0.49 0 0.73s-0.09 0.25 -0.26 0.25 h-2.18v-0.01zM25.76 27H28a0.19 0.19 0 0 1 0.22 0.21 V28c0 0.15-0.09 0.21 -0.24 0.21 H24.8c-0.18 0-0.25-0.09-0.25-0.26v-5.58c0-0.24 0-0.28 0.28 -0.28h0.63c0.26 0 0.29 0 0.29 0.31 V27h0.01z" fill="#FFF"/>
</svg>
