<?xml version="1.0" ?>
<svg xmlns="http://www.w3.org/2000/svg" width="44" height="30" viewBox="0 0 44 30">
  <path d="M17.36 12.31l0.12 0.26 a8.7 8.7 0 0 1 0.61 1.86 7.76 7.76 0 0 1 0.17 2.12 2.79 2.79 0 0 1-0.3 1.18 1.31 1.31 0 0 1-1 0.61 4.34 4.34 0 0 1-1.46 0 7.76 7.76 0 0 1-1.11-0.24c-0.42-0.12-0.84-0.25-1.25-0.41a6 6 0 0 1-1.52-0.8 2.2 2.2 0 0 1-0.83-1.19 2.59 2.59 0 0 1-0.11-0.57 2.17 2.17 0 0 1 0.74-1.72l0.22-0.23-0.32-0.64a3.48 3.48 0 0 0-1.22 1.58 4.35 4.35 0 0 0-0.15 0.8 0.18 0.18 0 0 1-0.13 0.17 l-1.39 0.4 a6.14 6.14 0 0 1-2 0.19 1.75 1.75 0 0 1-0.79-0.22 1.21 1.21 0 0 1-0.52-0.76 5.83 5.83 0 0 1-0.05-2.53c0.093-0.48 0.213 -0.954 0.36 -1.42a4.91 4.91 0 0 1 0.67-1.37 2.84 2.84 0 0 1 1.51-1.21c0.09 0 0.21 0 0.26-0.09 0.05 -0.09 0-0.18 0-0.27a2.09 2.09 0 0 1 0.62-1.26 3.89 3.89 0 0 1 1.21-0.81v-0.39a2.19 2.19 0 0 1 0.93-2.13 4.2 4.2 0 0 1 1.07-0.59l0.86-0.31a1.31 1.31 0 0 0 0.74-0.79 2.77 2.77 0 0 0 0.2-1c0-0.43 0.2 -0.58 0.61 -0.45a5 5 0 0 1 1.47 0.71 c0.526 0.36 0.947 0.854 1.22 1.43a0.81 0.81 0 0 0 0.48 0.44 2.83 2.83 0 0 1 1.63 1.73c0.13 0.424 0.195 0.866 0.19 1.31 0 0.09 0 0.15 0.12 0.17a2.2 2.2 0 0 1 1.2 1c0.22 0.346 0.375 0.729 0.46 1.13 0 0.2 0.06 0.2 0.26 0.16a1.61 1.61 0 0 1 0.89 0.08 3 3 0 0 1 1.64 1.59c0.252 0.485 0.443 0.999 0.57 1.53 0.1 0.428 0.173 0.863 0.22 1.3a7.39 7.39 0 0 1 0 1.12 2.8 2.8 0 0 1-0.31 1.24 1.23 1.23 0 0 1-0.84 0.6 4.35 4.35 0 0 1-1.34 0 6.08 6.08 0 0 1-0.94-0.18c-0.33-0.08-0.66-0.16-1-0.26-0.34-0.1-0.67-0.18-1.03-0.32a0.32 0.32 0 0 1-0.13-0.21c-0.1-0.41-0.16-0.83-0.28-1.23-0.12-0.4-0.26-0.68-0.39-1a0.12 0.12 0 0 0-0.08-0.07l-0.76-0.04zm0.5-0.64c0.126 0.01 0.254 0.01 0.38 0a2.56 2.56 0 0 0 1.36-0.78 2.31 2.31 0 0 0 0.59-1.16 2.86 2.86 0 0 0 0-0.89 4 4 0 0 0-0.34-1.29 1.7 1.7 0 0 0-0.85-0.91c-0.1 0-0.13 0-0.18 0.05 a6.17 6.17 0 0 1-0.47 0.45 0.26 0.26 0 0 0-0.12 0.28 c0.057 0.39 0.034 0.789 -0.07 1.17a1.94 1.94 0 0 1-0.77 1.13 2.87 2.87 0 0 1-1.59 0.52 16.69 16.69 0 0 1-1.74-0.05c-0.39 0-0.77-0.08-1.16-0.14-0.2 0-0.4-0.1-0.6-0.11a1.61 1.61 0 0 0-0.66 0c-0.36 0.14 -0.48 0.49 -0.59 0.83 -0.11 0.34 0 0.31 0.16 0.43a4 4 0 0 1 0.88 1.25 3 3 0 0 0 1.19 1.39 1 1 0 0 0 1.26-0.06 3.13 3.13 0 0 0 0.83-1.47 1.21 1.21 0 0 1 0.49-0.71 1.63 1.63 0 0 1 1.27-0.12l0.73 0.19 zm-0.28-4.07h-0.08a4.37 4.37 0 0 1-0.54 0.17 c-0.443 0.09 -0.89 0.157 -1.34 0.2 a12.74 12.74 0 0 1-2.77-0.14l-0.43-0.09c-0.24-0.05-0.48-0.12-0.73-0.16a2.26 2.26 0 0 0-1.69 0.49 4.28 4.28 0 0 0-1.1 1.27v0.21c0.393 0.466 0.91 0.813 1.49 1 0.1-0.21 0.18 -0.42 0.28 -0.61A1.35 1.35 0 0 1 12 9.17c0.46 0 0.91 0.12 1.36 0.18 0.45 0.06 1 0.14 1.49 0.17 a4.21 4.21 0 0 0 1.79-0.24 1.44 1.44 0 0 0 0.94-1.69v0.01zm-2-5.82a0.24 0.24 0 0 0 0 0.09c0.147 0.312 0.215 0.655 0.2 1a4.23 4.23 0 0 1-0.1 0.87 3.87 3.87 0 0 1-0.57 1.13A1.13 1.13 0 0 0 15 6c0.218 0.462 0.566 0.85 1 1.12a0.26 0.26 0 0 0 0.18 0l0.75-0.12a2.61 2.61 0 0 0 1-0.45 0.65 0.65 0 0 0 0.35-0.49 3.64 3.64 0 0 0-0.22-1.46 2.13 2.13 0 0 0-1.6-1.38 0.42 0.42 0 0 1-0.3-0.32 4.64 4.64 0 0 0-0.28-0.68 3.38 3.38 0 0 0-0.3-0.45v0.01zm-0.87 0.08 c-0.06 0.27 -0.1 0.52 -0.17 0.75 a3.24 3.24 0 0 1-1 1.41 6 6 0 0 0-0.93 0.83 1.83 1.83 0 0 0-0.38 0.8 1.27 1.27 0 0 0 0.37 1.05c0.19 0.21 0.36 0.47 0.69 0.49 l1.5 0.08 h0.1a0.44 0.44 0 0 0 0-0.08 2.41 2.41 0 0 1-0.65-1.39 2 2 0 0 1 0.19-1.1A5.77 5.77 0 0 0 15 3.47a2.12 2.12 0 0 0-0.3-1.62l0.01 0.01 zm-0.82 0.09 a2.3 2.3 0 0 1-0.64 0.82 4.52 4.52 0 0 1-1.25 0.51 3.85 3.85 0 0 0-1.16 0.66 1.43 1.43 0 0 0-0.51 1.24 4 4 0 0 0 0.15 0.67 0.44 0.44 0 0 1-0.22 0.45 3.71 3.71 0 0 0-1 0.57 1.57 1.57 0 0 0-0.65 1.49 3.42 3.42 0 0 1 3.19-1.55 3.31 3.31 0 0 1-0.18-0.4 2.06 2.06 0 0 1 0.18-1.67 3.38 3.38 0 0 1 0.91-1 3.06 3.06 0 0 0 1.09-1.32 0.62 0.62 0 0 0 0.08-0.48l0.01 0.01 zM23 12.8c-0.07 0-0.13 0.06 -0.14 0.18 a0.62 0.62 0 0 0 0.45 0.57 0.18 0.18 0 0 0 0.25-0.17 0.65 0.65 0 0 0-0.56-0.58zm-2.54 1a0.71 0.71 0 0 0-0.39-0.46c-0.1 0-0.2-0.07-0.26 0a0.36 0.36 0 0 0 0 0.27 0.68 0.68 0 0 0 0.41 0.41 c0.07 0.11 0.2-0.02 0.2 -0.19l0.04-0.03zm-3.7 1.6c-0.13 0-0.18 0.06 -0.19 0.19 a0.65 0.65 0 0 0 0.38 0.52 0.53 0.53 0 0 0 0.14 0 0.2 0.2 0 0 0 0.19-0.19 0.64 0.64 0 0 0-0.52-0.52zm-4-0.26a0.66 0.66 0 0 0-0.4-0.52c-0.17 0-0.31 0-0.3 0.18 a0.61 0.61 0 0 0 0.49 0.54 c0.19 0.01 0.25-0.04 0.25 -0.2h-0.04zm9-5a0.66 0.66 0 0 0-0.46-0.54 0.2 0.2 0 0 0-0.25 0.23 0.68 0.68 0 0 0 0.47 0.5 c0.18 0.03 0.26-0.04 0.26 -0.19h-0.02zM7.7 12.53c0 0.17 0.05 0.22 0.22 0.21a0.71 0.71 0 0 0 0.5-0.52 0.18 0.18 0 0 0-0.2-0.21 0.64 0.64 0 0 0-0.52 0.52 zm14.08 0.08 a0.66 0.66 0 0 0-0.44-0.49 0.19 0.19 0 0 0-0.27 0.22 c0.05 0.237 0.22 0.43 0.45 0.51 0.15 0.04 0.26-0.05 0.26 -0.25v0.01zm-7.61 3.89a0.6 0.6 0 0 0-0.39-0.52 0.27 0.27 0 0 0-0.23 0 0.28 0.28 0 0 0-0.06 0.23 0.63 0.63 0 0 0 0.42 0.46 c0.15 0.06 0.26-0.01 0.26 -0.18v0.01zm8.5-5.5a0.19 0.19 0 0 0-0.19 0.26 0.7 0.7 0 0 0 0.34 0.43 c0.18 0.1 0.36 0 0.37-0.13a0.6 0.6 0 0 0-0.52-0.56zm-7.22 5.7a0.55 0.55 0 0 0 0.33 0.49 0.34 0.34 0 0 0 0.27 0c0.11-0.05 0.09 -0.18 0.06 -0.29a0.61 0.61 0 0 0-0.39-0.41c-0.17-0.07-0.27-0.01-0.27 0.18 v0.03zm1-3.09c-0.15 0-0.19 0-0.2 0.18 a0.63 0.63 0 0 0 0.38 0.52 c0.18 0.06 0.32 0 0.32-0.17a0.61 0.61 0 0 0-0.5-0.56v0.03zM6.33 11.4c0 0.16 0.09 0.26 0.22 0.21a0.68 0.68 0 0 0 0.48-0.5 0.19 0.19 0 0 0-0.2-0.24c-0.19 0.02 -0.51 0.26 -0.5 0.53 zm2.74 2.4c0 0.13 0.08 0.23 0.19 0.21a0.67 0.67 0 0 0 0.51-0.52 0.19 0.19 0 0 0-0.19-0.22c-0.24 0.03 -0.53 0.3 -0.51 0.53 zm6.47 1.44c0-0.25-0.29-0.52-0.48-0.54a0.2 0.2 0 0 0-0.22 0.25 0.66 0.66 0 0 0 0.34 0.43 c0.18 0.11 0.35 0.04 0.35-0.14h0.01zm-9-2.52a0.6 0.6 0 0 0-0.5 0.45 c0 0.19 0.06 0.31 0.25 0.27a0.7 0.7 0 0 0 0.45-0.51 0.17 0.17 0 0 0-0.23-0.21h0.03zm0.6 1.59c0 0.16 0 0.21 0.21 0.2a0.61 0.61 0 0 0 0.44-0.51 0.18 0.18 0 0 0-0.25-0.18 0.68 0.68 0 0 0-0.43 0.48 l0.03 0.01 zm15.29 0.06 a0.62 0.62 0 0 0-0.53-0.51 0.2 0.2 0 0 0-0.19 0.23 0.71 0.71 0 0 0 0.34 0.43 0.44 0.44 0 0 0 0.29 0s0.03-0.09 0.06 -0.15h0.03zm-12-1.92c0 0.17 0.07 0.25 0.24 0.21a0.62 0.62 0 0 0 0.4-0.33c0-0.09-0.12-0.37-0.22-0.38a0.66 0.66 0 0 0-0.41 0.5 h-0.01zM8.06 9.56a0.55 0.55 0 0 0-0.34 0.38 0.3 0.3 0 0 0 0 0.24 0.19 0.19 0 0 0 0.27 0l0.21-0.14a0.13 0.13 0 0 0 0-0.21l-0.14-0.27zm10.82 3.18a0.53 0.53 0 0 0 0.12-0.06c0.08-0.07 0-0.23-0.07-0.41-0.07-0.18-0.15-0.05-0.23 0h-0.21c-0.1 0-0.11 0.07 -0.09 0.14 a0.7 0.7 0 0 0 0.48 0.33 zm-9.63-1.37c0.15 0 0.46-0.22 0.41 -0.28a1 1 0 0 0-0.37-0.24c-0.07 0-0.22 0.25 -0.21 0.38 0.01 0.13 0.07 0.14 0.17 0.14 zm11.16-0.11l-0.07-0.09-0.2 0.24 s0.05 0.07 0.09 0.08 c0.04 0.01 0.18-0.07 0.19 -0.24l-0.01 0.01 z" fill="#FFF"/>
  <path d="M4.06 12.3l-0.52 0.42 a3.61 3.61 0 0 0-1.1 1.54 2.11 2.11 0 0 0-0.07 1.14 2.16 2.16 0 0 0 0.81 1.38 2 2 0 0 0 0.92 0.36 8.17 8.17 0 0 0 1.33 0.06 1.65 1.65 0 0 1 1.5 0.74 c0.272 0.357 0.573 0.692 0.9 1 0.305 0.271 0.667 0.47 1.06 0.58 a7.29 7.29 0 0 0 2.82 0.3 6 6 0 0 0 1.13-0.23c0.41-0.11 0.82 -0.27 1.23-0.38 0.253 -0.06 0.52 -0.039 0.76 0.06l1 0.36c0.32 0.11 0.63 0.21 1 0.3a5.4 5.4 0 0 0 0.78 0.17 c0.444 0.064 0.892 0.1 1.34 0.11 a4 4 0 0 0 1.36-0.21 11 11 0 0 1 1.11-0.37 3.17 3.17 0 0 1 1.52 0c0.47 0.1 0.87 0.404 1.09 0.83 A0.53 0.53 0 0 1 24 21a2.21 2.21 0 0 1-0.94 0.91 2.74 2.74 0 0 1-0.54 0.16 l-0.78 0.19 -0.8 0.15 -1.57 0.24 -0.7 0.08 -1.3 0.09 c-1.39 0.11 -2.78 0.12 -4.17 0.1 -0.52 0-1 0-1.55-0.06s-1.1-0.08-1.65-0.14c-0.55-0.06-1-0.11-1.51-0.19s-0.86-0.16-1.29-0.24c-0.43-0.08-0.87-0.16-1.29-0.28a74.397 74.397 0 0 1-2.08-0.68 10.68 10.68 0 0 1-2.28-1.23 3.27 3.27 0 0 1-1.32-1.59 3.75 3.75 0 0 1-0.22-1v-1.42c0-0.54 0.18 -1.064 0.51 -1.49A5.71 5.71 0 0 1 2.44 13c0.47-0.26 1-0.48 1.45-0.71a0.64 0.64 0 0 1 0.15 0l0.02 0.01 z" fill="#FFF"/>
  <path d="M28.18 20.22a1.16 1.16 0 0 1 0 0.17 9 9 0 0 1 0 1 3.23 3.23 0 0 1-0.88 1.83 6.26 6.26 0 0 1-1.64 1.17c-0.54 0.28 -1.09 0.54 -1.65 0.77 -0.416 0.158 -0.84 0.295 -1.27 0.41 -0.37 0.11 -0.74 0.21 -1.11 0.3 -0.37 0.09 -0.77 0.16 -1.16 0.23 l-1 0.18-0.52 0.07 c-0.53 0-1.06 0.11 -1.59 0.13 -0.93 0.05 -1.86 0.11 -2.8 0.12 -0.94 0.01 -1.79 0-2.68-0.07-0.51 0-1-0.06-1.53-0.12s-1.14-0.16-1.71-0.24c-0.3 0-0.61-0.08-0.91-0.14-0.3-0.06-0.67-0.15-1-0.24l-1.07-0.29a8 8 0 0 1-0.81-0.28c-0.53-0.22-1.06-0.43-1.57-0.69a6.72 6.72 0 0 1-2-1.42 3.54 3.54 0 0 1-0.73-1.33 4.67 4.67 0 0 1-0.19-1.59v-0.09l0.11 0.08 a7.78 7.78 0 0 0 2 1.29c0.53 0.25 1.06 0.49 1.6 0.7 0.36 0.14 0.73 0.24 1.1 0.35 0.37 0.11 0.73 0.22 1.11 0.3 0.38 0.08 0.72 0.18 1.06 0.18 l1.35 0.23 0.61 0.08 0.95 0.08 c0.88 0.06 1.75 0.15 2.63 0.16 1.46 0 2.91 0 4.37-0.06 0.56 0 1.11-0.07 1.66-0.13 0.55 -0.06 1.29-0.16 1.92-0.26 0.46 -0.07 0.91 -0.16 1.36-0.26 0.45 -0.1 1.15-0.27 1.71-0.45a13.52 13.52 0 0 0 2.8-1.18c0.48-0.29 0.93 -0.64 1.39-1l0.09 0.01 z" fill="#FFF"/>
  <path d="M0.37 23.18c0.06 0 0.09 0 0.1 0.06 a5.51 5.51 0 0 0 1.68 1.5c0.59 0.364 1.209 0.678 1.85 0.94 0.43 0.18 0.88 0.33 1.32 0.47 0.44 0.14 1 0.31 1.54 0.44 0.34 0.09 0.69 0.15 1 0.21 0.31 0.06 0.94 0.17 1.41 0.23 s0.94 0.11 1.41 0.16 c1.17 0.12 2.35 0.14 3.52 0.14 h2.23c0.74 0 1.2-0.07 1.79-0.12 0.59 -0.05 1.08-0.12 1.61-0.2 0.53 -0.08 1-0.16 1.48-0.26s1.11-0.26 1.66-0.42c0.55-0.16 1.19-0.37 1.77-0.61a11.12 11.12 0 0 0 2-1 7.17 7.17 0 0 0 1.43-1.24l0.07-0.08v1.15a3.46 3.46 0 0 1-0.49 1.59 4.09 4.09 0 0 1-1.35 1.3 9 9 0 0 1-1.55 0.85 c-0.41 0.17 -0.81 0.35 -1.22 0.5 -0.41 0.15 -0.77 0.24 -1.17 0.35 -0.4 0.11 -0.8 0.21 -1.2 0.3 -0.4 0.09 -0.59 0.11 -0.89 0.16 l-1.37 0.15 c-0.39 0-0.78 0.08 -1.16 0.12 a28.1 28.1 0 0 1-3 0.13h-2.56c-0.58 0-1.17-0.06-1.75-0.12-0.58-0.06-1.07-0.12-1.6-0.2-0.53-0.08-1-0.16-1.45-0.26-0.45-0.1-1-0.23-1.55-0.38a16 16 0 0 1-2.29-0.87A10.34 10.34 0 0 1 1.74 27a3.48 3.48 0 0 1-1.07-1.47 4.33 4.33 0 0 1-0.3-1.68v-0.67zM24.64 21.4a1.34 1.34 0 0 1 0.07-0.22 1 1 0 0 0 0-1A2.26 2.26 0 0 0 23.4 19a3.12 3.12 0 0 0-1.52-0.18 6.78 6.78 0 0 0-1.55 0.4 4.05 4.05 0 0 1-0.84 0.22 5 5 0 0 1-1.76 0l-1-0.21v-0.05l0.36-0.07a2.06 2.06 0 0 0 1.35-0.72 2.5 2.5 0 0 0 0.43-0.89A4.69 4.69 0 0 0 19 16v-0.32l0.3 0.1 c0.29 0.1 0.59 0.2 0.88 0.29 0.29 0.09 0.65 0.17 1 0.24 0.128 0.034 0.258 0.058 0.39 0.07 0.488 0.049 0.98 0.072 1.47 0.07 a2.29 2.29 0 0 0 1.32-0.43c0.256-0.2 0.455 -0.46 0.58 -0.76L25 15c0.15 0.21 0.29 0.39 0.41 0.58 0.226 0.385 0.397 0.799 0.51 1.23 0.069 0.211 0.116 0.43 0.14 0.65 0.042 0.442 0.197 0.865 0.45 1.23 0.21 0.32 0.44 0.63 0.68 0.94 0.08 0.11 0 0.16 0 0.24a3.46 3.46 0 0 1-0.85 0.69 11.18 11.18 0 0 1-1.7 0.84 zM13.43 18.58a2.32 2.32 0 0 1-0.27 0.13 l-0.7 0.22 a5 5 0 0 1-1.9 0.15 C10.28 19 10 19 9.7 19a3 3 0 0 1-1.9-1.1 5.25 5.25 0 0 0-0.94-1 1.81 1.81 0 0 0-1-0.35c-0.53 0-1.06 0-1.6-0.07a1.16 1.16 0 0 1-1.14-0.86 1.65 1.65 0 0 1 0.12-1.37c0.23-0.382 0.524 -0.72 0.87 -1l0.1-0.05v0.14c0.006 0.398 0.032 0.795 0.08 1.19A2.21 2.21 0 0 0 5.16 16c0.248 0.177 0.531 0.3 0.83 0.36 a5.3 5.3 0 0 0 1.69 0 9.05 9.05 0 0 0 1.23-0.24c0.36-0.09 0.71 -0.21 1.07-0.31 0.05 -0.003 0.1 0.02 0.13 0.06a2.87 2.87 0 0 0 1 1.53c0.34 0.255 0.706 0.476 1.09 0.66 0.39 0.19 0.8 0.33 1.23 0.52 zM25.51 12.72l0.41 0.21 a7.43 7.43 0 0 1 1.69 1.18c0.463 0.424 0.788 0.978 0.93 1.59a0.89 0.89 0 0 1 0 0.19v2a2.76 2.76 0 0 1-0.62 1.58 5.32 5.32 0 0 1-0.4-0.48c-0.22-0.34-0.43-0.69-0.63-1.05a0.94 0.94 0 0 1-0.09-0.35 6.12 6.12 0 0 0-0.6-2 2.9 2.9 0 0 0-0.72-1 0.17 0.17 0 0 1 0-0.2 3.45 3.45 0 0 0 0.03-1.67zM42.58 24.7c0-0.12 0-0.23-0.05-0.34-0.07-0.34-0.14-0.68-0.21-1a4.69 4.69 0 0 0-0.56-1.36 2.81 2.81 0 0 0-0.56-0.69c-0.16-0.14-0.28-0.31-0.43-0.46a7.29 7.29 0 0 0-1.92-1.46 4.7 4.7 0 0 0-3.42-0.41 4.31 4.31 0 0 0-1.07 0.45 c-0.17 0.1 -0.17 0.1 -0.26-0.08a7.06 7.06 0 0 1-0.33-0.76 2.92 2.92 0 0 1-0.21-1.25 1.67 1.67 0 0 1 0.13-0.5 0.63 0.63 0 0 1 0.25-0.24c0.38-0.23 0.75 -0.47 1.14-0.67a8.37 8.37 0 0 1 1-0.43c0.32-0.12 0.66 -0.21 1-0.31 0.34 -0.1 0.42 -0.12 0.63 -0.16 0.21 -0.04 0.68 -0.14 1-0.19 0.32 -0.05 0.71 -0.09 1.07-0.11a3.07 3.07 0 0 1 1.27 0.17 0.69 0.69 0 0 1 0.4 0.32 c0.18 0.34 0.39 0.67 0.56 1 0.17 0.33 0.29 0.66 0.42 1 0.13 0.34 0.19 0.49 0.27 0.75 0.08 0.26 0.13 0.5 0.19 0.75 s0.11 0.56 0.15 0.84 c0.04 0.28 0.08 0.75 0.11 1.13 0 0.56 0.05 1.11 0.06 1.67a4.54 4.54 0 0 1-0.54 2.3l-0.09 0.04 zM33.89 28.09a0.61 0.61 0 0 0 0.29-0.28 1.31 1.31 0 0 0 0.15-1.12 3.35 3.35 0 0 0-0.78-1.31 0.23 0.23 0 0 1-0.07-0.21 5.43 5.43 0 0 1 0.52-1.53 1.24 1.24 0 0 1 0.53-0.53 5.26 5.26 0 0 1 0.57-0.29 2.21 2.21 0 0 1 1.87 0c0.298 0.162 0.568 0.372 0.8 0.62 0.21 0.21 0.4 0.44 0.6 0.66 0.068 0.077 0.129 0.16 0.18 0.25 0.22 0.38 0.46 0.75 0.64 1.15a3.79 3.79 0 0 1 0.37 1.83 3 3 0 0 1-0.69 1.75 4.27 4.27 0 0 1-0.72 0.68 0.74 0.74 0 0 1-0.32 0.11 c-0.24 0-0.48 0.08 -0.73 0.1 a6.29 6.29 0 0 1-1.46-0.05 6.08 6.08 0 0 1-2-0.65 6.67 6.67 0 0 1-1.45-1 1.17 1.17 0 0 1-0.37-0.51 1.64 1.64 0 0 1 0-1.19 0.94 0.94 0 0 1 0.65-0.52 3.13 3.13 0 0 1 0.65-0.08 0.4 0.4 0 0 1 0.23 0.09 c0.276 0.198 0.483 0.478 0.59 0.8 0.097 0.286 0.118 0.593 0.06 0.89 -0.06 0.09 -0.08 0.25 -0.11 0.34 z" fill="#FFF"/>
  <path d="M34.09 22.78a3.72 3.72 0 0 1 0.07-1.72c0.1-0.37 0.25 -0.72 0.37 -1.08a0.42 0.42 0 0 1 0.33-0.27 5.67 5.67 0 0 1 0.77-0.18 5.33 5.33 0 0 1 0.85 0 5 5 0 0 1 2 0.54c0.438 0.21 0.848 0.476 1.22 0.79 a7 7 0 0 1 0.72 0.66 c0.266 0.319 0.513 0.653 0.74 1 0.153 0.218 0.287 0.449 0.4 0.69 0.184 0.333 0.332 0.685 0.44 1.05a4.12 4.12 0 0 1-0.28 2.61 5.4 5.4 0 0 1-0.83 1.25 4.62 4.62 0 0 1-0.38 0.38 c-0.13 0.13 -0.27 0.25 -0.41 0.37 -0.14 0.12 -0.35 0.26 -0.53 0.38 h-0.11a0.16 0.16 0 0 1 0-0.13c0.05-0.1 0.12 -0.18 0.18 -0.28a3.24 3.24 0 0 0 0.36-2.07 5 5 0 0 0-0.22-1 6.38 6.38 0 0 0-0.78-1.5 8.48 8.48 0 0 0-0.81-1 3.09 3.09 0 0 0-1.93-1.07 3 3 0 0 0-0.9 0 4 4 0 0 0-1.21 0.52 l-0.06 0.06 zM33.47 16.34a2.72 2.72 0 0 1-0.18-0.21 11.62 11.62 0 0 1-0.92-1.67c-0.06-0.13-0.08-0.28-0.13-0.42-0.05-0.14 0-0.11 0.07 -0.14 0.28 -0.14 0.57 -0.27 0.84 -0.43 0.27 -0.16 0.7 -0.46 1-0.7 0.164 -0.11 0.32 -0.23 0.47 -0.36 0.21 -0.18 0.4 -0.37 0.59 -0.57 0.174 -0.17 0.337 -0.35 0.49 -0.54 0.24 -0.3 0.46 -0.62 0.68 -0.93a0.12 0.12 0 0 1 0.15-0.06 4.77 4.77 0 0 1 1.66 0.78 c0.278 0.205 0.527 0.447 0.74 0.72 0.202 0.276 0.383 0.567 0.54 0.87 0.109 0.212 0.2 0.433 0.27 0.66 0.06 0.204 0.11 0.41 0.15 0.62 0 0.08 0 0.1-0.11 0.11 h-0.42l-1.08 0.15 -0.59 0.11 c-0.23 0.05 -0.47 0.11 -0.69 0.17 -0.22 0.06 -0.7 0.22 -1 0.34a5.38 5.38 0 0 0-0.7 0.3 c-0.39 0.2 -0.77 0.42 -1.14 0.65 a7.05 7.05 0 0 0-0.63 0.5 l-0.06 0.05 zM32.33 13.24l-0.43 0.22 h-0.14c-0.23-0.28-0.46-0.56-0.71-0.83-0.25-0.27-0.56-0.6-0.84-0.9-0.28-0.3-0.45-0.48-0.66-0.74a3.2 3.2 0 0 1-0.61-1 0.8 0.8 0 0 1 0.32-0.99 1 1 0 0 1 1.22 0 0.43 0.43 0 0 1 0.11 0.09 c0.07 0.1 0.13 0.06 0.21 0a3 3 0 0 1 1.2-0.31 5 5 0 0 1 1.7 0.22 c0.453 0.12 0.892 0.289 1.31 0.5 l0.71 0.38 a0.11 0.11 0 0 1 0.06 0.15 2.82 2.82 0 0 1-0.53 0.94 7.75 7.75 0 0 1-0.57 0.62 c-0.18 0.17 -0.37 0.32 -0.56 0.48 l-0.6 0.47 -0.38 0.25 -0.81 0.45 z" fill="#FFF"/>
</svg>
