<?xml version="1.0" ?>
<svg xmlns="http://www.w3.org/2000/svg" width="29" height="31" viewBox="0 0 29 31">
  <path d="M5.61 29a1.3 1.3 0 0 1 0.78-1A3.91 3.91 0 0 1 8 27.54a2.11 2.11 0 0 1 1.35 0.35 c0.09 0.06 0.14 0.05 0.18-0.05a0.51 0.51 0 0 1 0.53-0.34c0.34 0.009 0.678 0.07 1 0.18a0.44 0.44 0 0 1 0.11 0.06 c0.16 0.1 0.24 0.09 0.35-0.06l0.17-0.24c0.21-0.29 0.36 -0.26 0.61 -0.14l0.2 0.13 0.21 0.14 0.1-0.24a0.86 0.86 0 0 1 0.63-0.43c0.3-0.088 0.62 -0.088 0.92 0 0.08 0 0.13 0 0.15-0.08 0.02 -0.08 0-0.06 0-0.09 0-0.32 0.06 -0.63 0.08 -0.95 0.05 -0.73 0.11 -1.46 0.16 -2.2v-1.32a0.5 0.5 0 0 0-0.05-0.26c-0.43-0.5-0.86-1-1.32-1.49-0.62-0.65-1.26-1.28-1.9-1.91-0.19-0.18-0.4-0.33-0.59-0.51-0.19-0.18-0.34-0.09-0.51-0.08-0.17 0.01 -0.24 0-0.36 0H8.85c-0.39 0-0.75-0.11-1.12-0.17a5.11 5.11 0 0 1-1.29-0.42 5.37 5.37 0 0 1-1.75-1.24 4.83 4.83 0 0 1-0.9-1.39c-0.21-0.49-0.39-1-0.57-1.5-0.18-0.5-0.33-1-0.49-1.55l-0.21-0.63a0.86 0.86 0 0 1 0-0.13l0.22 0.14 c0.38 0.232 0.791 0.41 1.22 0.53 0.33 0.084 0.663 0.15 1 0.2 0.61 0.11 1.23 0.18 1.83 0.31 a5.44 5.44 0 0 1 1.76 0.84 5.05 5.05 0 0 1 1.67 1.94c0.245 0.475 0.466 0.962 0.66 1.46 0.14 0.35 0.21 0.72 0.33 1.08a0.34 0.34 0 0 0 0.13 0.18 c0.697 0.43 1.365 0.904 2 1.42 0.47 0.38 0.93 0.77 1.39 1.16l0.11 0.09 a0.86 0.86 0 0 0 0-0.16c0-0.77-0.05-1.55-0.1-2.32 0-0.57-0.11-1.15-0.18-1.71-0.07-0.56-0.15-0.87-0.22-1.31a2.14 2.14 0 0 1-0.05-0.35c0-0.12-0.08-0.17-0.17-0.19a7.46 7.46 0 0 1-1.3-0.58 8.13 8.13 0 0 1-1.73-1.24 6.7 6.7 0 0 1-1.22-1.5 7.36 7.36 0 0 1-0.69-1.59 7.21 7.21 0 0 1-0.28-2.71 11 11 0 0 1 0.22-1.29c0.07-0.36 0.16 -0.72 0.26 -1.08 0.1 -0.36 0.23 -0.75 0.34 -1.12 0.11 -0.37 0.17 -0.59 0.25 -0.88 0.08 -0.29 0.15 -0.5 0.22 -0.75s0.14-0.54 0.22 -0.81l0.17-0.65V0.04c0.07 0.24 0.14 0.46 0.22 0.69 a6.2 6.2 0 0 0 1.45 2.23c0.57 0.57 1.15 1.13 1.73 1.7 0.461 0.44 0.868 0.933 1.21 1.47 0.288 0.44 0.504 0.922 0.64 1.43 0.1 0.41 0.22 0.81 0.28 1.22 0.056 0.444 0.083 0.892 0.08 1.34a6.76 6.76 0 0 1-0.07 1.1 6.16 6.16 0 0 1-1.32 3 0.27 0.27 0 0 0 0 0.21c0.11 0.42 0.24 0.84 0.35 1.26 0.11 0.42 0.19 0.74 0.28 1.11 0.09 0.37 0.1 0.51 0.15 0.77 0.05 0.26 0.15 0.79 0.23 1.18 0 0.14 0 0.29 0.06 0.43 0 0.36 0.08 0.72 0.13 1.08 0.05 0.36 0.12 0.91 0.17 1.36 0 0.28 0 0.56 0.07 0.84a0.27 0.27 0 0 0 0 0.15c0.11-0.18 0.21 -0.37 0.33 -0.55 0.36 -0.56 0.73 -1.11 1.09-1.68 0.2 -0.32 0.39 -0.64 0.58 -1a0.16 0.16 0 0 0 0-0.12 4.43 4.43 0 0 1-0.35-1.09 4.24 4.24 0 0 1-0.1-1.21c0-0.36 0.1 -0.72 0.16 -1.08a5.4 5.4 0 0 1 0.43-1.32 5.56 5.56 0 0 1 0.66-1.13 8.17 8.17 0 0 1 1.6-1.49 6.43 6.43 0 0 0 1.46-1.38 3.86 3.86 0 0 0 0.55-1.24c0.032 0.068 0.058 0.138 0.08 0.21 l0.15 0.81 c0.05 0.27 0.13 0.68 0.19 1 0.06 0.32 0.13 0.84 0.17 1.26 0.04 0.42 0.06 1 0.05 1.52a5 5 0 0 1-0.29 1.74 6 6 0 0 1-3.61 3.41c-0.13 0.05 -0.264 0.09 -0.4 0.12 -0.18 0-0.24 0.16 -0.3 0.3 -0.26 0.56 -0.52 1.11-0.78 1.67-0.26 0.56 -0.42 0.95 -0.63 1.43-0.21 0.48 -0.31 0.72 -0.46 1.09-0.15 0.37 -0.28 0.75 -0.42 1.12a0.26 0.26 0 0 0 0 0.09v1.61a0.43 0.43 0 0 0 0 0.07h0.46a1.13 1.13 0 0 1 0.65 0.19 c0.112 0.098 0.216 0.205 0.31 0.32 a1.64 1.64 0 0 1 2.22 0.73 1 1 0 0 1 0.86-0.3 4.78 4.78 0 0 1 1.71 0.43 3.24 3.24 0 0 1 1.06 0.65 0.11 0.11 0 0 0 0.11 0 1.77 1.77 0 0 1 1.22-0.17 3.44 3.44 0 0 1 1.16 0.47 0.38 0.38 0 0 0 0.19 0h0.64c0.353 0.034 0.704 0.09 1.05 0.17 0.26 0.082 0.514 0.182 0.76 0.3 h0.05c0.21 0.17 0.21 0.34 0 0.45a4 4 0 0 1-0.72 0.23 c-0.32 0.07 -0.64 0.12 -1 0.17l-0.62 0.07 -1.4 0.11 -1.59 0.08 c-1 0-2.07 0.07 -3.1 0.08 H9.35l-4.65-0.02c-0.667 0-1.353-0.037-2.06-0.11-0.55 0-1.09-0.1-1.63-0.18a4.35 4.35 0 0 1-0.85-0.23c-0.19-0.07-0.2-0.2 0-0.3a4.49 4.49 0 0 1 0.77-0.36 5.14 5.14 0 0 1 0.9-0.23 2 2 0 0 1 1 0c0.085 0.038 0.165 0.085 0.24 0.14 a2.09 2.09 0 0 1 1.25-0.63 1.61 1.61 0 0 1 1.29 0.17 z" fill="#FFF"/>
</svg>
