<?xml version="1.0" ?>
<svg xmlns="http://www.w3.org/2000/svg" width="35" height="32" viewBox="0 0 35 32">
  <path d="M17.18 16.93h2.7c0.4 0 0.52-0.13 0.51 -0.51v-3.76c0-0.37 0.12 -0.49 0.5 -0.49h3.63c0.62 0 0.62 0 0.62-0.64v-4c0-0.39 0.06 -0.78 0-1.18-0.06-0.4-0.1-0.57-0.61-0.57H21c-0.59 0-0.61 0-0.61-0.59V1.55c0-0.52 0-0.56-0.55-0.56H14.6c-0.54 0.01 -0.6 0.01 -0.6 0.59 v3.51c0 0.64 0 0.69-0.7 0.69 H9.81c-0.49 0-0.54 0-0.54 0.54 v5.38c0 0.35 0.1 0.48 0.47 0.48h3.75c0.42 0 0.54 0.13 0.53 0.54 v3.66c0 0.54 0 0.55 0.55 0.55h2.61zM18.46 31v-2.32-0.64c0-0.62 0-1.25 0.09 -1.87a16.49 16.49 0 0 1 0.27-1.85A4.8 4.8 0 0 1 20 21.93a4.64 4.64 0 0 1 2-1.27 7.62 7.62 0 0 1 1.71-0.34 0.78 0.78 0 0 0 0.54-0.28c0.927-1.087 1.873-2.17 2.84-3.25a2.78 2.78 0 0 1 1.53-0.79 1.74 1.74 0 0 1 1.88 0.83 2.2 2.2 0 0 1 0.19 1.45 3.35 3.35 0 0 1-0.89 1.64c-0.85 0.92 -1.67 1.86-2.47 2.81a3.07 3.07 0 0 0-0.67 1.45 1.63 1.63 0 0 0 0 0.85l0.06 0.13 0.14-0.08 2.26-2.58c0.6-0.67 1.22-1.34 1.82-2a3.6 3.6 0 0 0 0.89-1.76 5 5 0 0 0 0.17-1.13 3 3 0 0 0-0.43-1.5 0.59 0.59 0 0 1-0.09-0.31v-3.81a5.79 5.79 0 0 1 0.25-1.75 1.14 1.14 0 0 1 1.4-0.84 1.64 1.64 0 0 1 1.37 1.4 7.58 7.58 0 0 1 0.2 1.9v4.59a6.45 6.45 0 0 1-0.45 2.34 15.71 15.71 0 0 1-2.05 3.64 20.84 20.84 0 0 1-2 2.39 10.8 10.8 0 0 1-3 2.11A2 2 0 0 0 26.08 29a4.26 4.26 0 0 0-0.15 0.69 c0 0.41-0.05 0.81 -0.06 1.22 0 0.12 0 0.16-0.17 0.16 h-7.24V31zM16.23 31H9c-0.15 0-0.19 0-0.2-0.19 0-0.4 0-0.81-0.06-1.21a2.22 2.22 0 0 0-1.34-1.91 11.08 11.08 0 0 1-3.74-3 25.33 25.33 0 0 1-1.77-2.35 14 14 0 0 1-1.4-2.59 5.76 5.76 0 0 1-0.43-1.69v-0.77-4.53A8.79 8.79 0 0 1 0.15 11 1.79 1.79 0 0 1 1 9.61a1.46 1.46 0 0 1 1.42-0.11c0.287 0.16 0.497 0.432 0.58 0.75 A5.75 5.75 0 0 1 3.23 12v3.81a0.42 0.42 0 0 1 0 0.2 3.23 3.23 0 0 0-0.47 2 4.06 4.06 0 0 0 1 2.39l2.86 3.24 1.26 1.4a0.41 0.41 0 0 0 0.11 0.07 L8 25a2.24 2.24 0 0 0-0.18-1.46 4.06 4.06 0 0 0-0.88-1.33c-0.78-0.87-1.56-1.74-2.33-2.62A2.66 2.66 0 0 1 4 18.27a2 2 0 0 1 0.22-1.53A1.55 1.55 0 0 1 5.26 16a2.38 2.38 0 0 1 2.3 0.82 c1 1.1 2 2.23 2.94 3.35a0.62 0.62 0 0 0 0.46 0.16 6.79 6.79 0 0 1 2.08 0.49 4.3 4.3 0 0 1 2.46 2.43c0.211 0.511 0.35 1.05 0.41 1.6 0.07 0.65 0.17 1.3 0.2 2 0.06 1.36 0.09 2.72 0.13 4.07 0-0.01-0.01 0.08 -0.01 0.08 z" fill="#FFF"/>
  <path d="M30.32 15l-0.6-0.18-0.32-0.05c-0.1 0-0.14 0-0.14-0.16 0-0.81 0-1.61 0.08 -2.42a2.84 2.84 0 0 1 0.32-1.19 0.89 0.89 0 0 1 0.79-0.52 1.2 1.2 0 0 1 0 0.19c0 0.4-0.11 0.8 -0.12 1.2v2.91l-0.01 0.22 zM4.34 15v-0.61-2.62c0-0.36-0.08-0.72-0.12-1.08a1.21 1.21 0 0 1 0-0.2 0.82 0.82 0 0 1 0.73 0.42 c0.186 0.305 0.305 0.646 0.35 1a16.5 16.5 0 0 1 0.13 2.63c0 0.16 0 0.21-0.21 0.23 -0.21 0.02 -0.44 0.11 -0.66 0.16 l-0.22 0.07 z" fill="#FFF"/>
</svg>
