<?xml version="1.0" ?>
<svg xmlns="http://www.w3.org/2000/svg" width="44" height="19" viewBox="0 0 44 19">
  <path d="M29.09 5.14c0.38-0.64 0.76 -1.28 1.15-1.92l0.45-0.77a1.58 1.58 0 0 1 1.67-0.72c1.114 0.23 2.253 0.32 3.39 0.27 A10.93 10.93 0 0 0 39.94 0.86 c0.31-0.16 0.61 -0.34 0.92 -0.51h0.11c0.63-0.19 1 0.08 1 0.75a5.12 5.12 0 0 1-0.22 1.78 2.7 2.7 0 0 0 0.07 1.73c0.4 1.12 0.84 2.23 1.22 3.37 0.212 0.654 0.376 1.322 0.49 2a3.62 3.62 0 0 1-1 2.93 0.33 0.33 0 0 0 0 0.46c0.16 0.23 0.257 0.5 0.28 0.78 v3.43a0.58 0.58 0 0 1-0.11 0.24 1.3 1.3 0 0 1-1.16 0.53 h-9.46A1.18 1.18 0 0 1 31 17.26v-1.12c0-0.2 0-0.24-0.25-0.18-1.76 0.51 -3.52 1-5.3 1.5a30.45 30.45 0 0 1-4.73 0.94 19.23 19.23 0 0 1-2.28 0.07 c-2.34 0-4.68-0.06-7-0.16-1.86-0.07-3.71-0.22-5.57-0.37a19.33 19.33 0 0 1-3.7-0.7C1.58 17.08 1 17 0.45 16.83a0.59 0.59 0 0 1-0.45-0.65 0.28 0.28 0 0 1 0.13-0.18 0.38 0.38 0 0 0 0.23-0.42v-1A0.67 0.67 0 0 1 0.7 14c0.09-0.07 0.2 -0.16 0.22 -0.26a1.25 1.25 0 0 1 1.23-0.95 22.27 22.27 0 0 1 2.31-0.21 48.86 48.86 0 0 0 5.66-0.45c1.34-0.2 2.67-0.43 4-0.69a17.2 17.2 0 0 0 3-0.93 6.14 6.14 0 0 0 2.39-1.95A44.63 44.63 0 0 0 23.29 3c0.46-0.78 0.89 -1.58 1.33-2.37a1.2 1.2 0 0 1 1-0.6 3.62 3.62 0 0 1 1.72 0.29 c0.73 0.29 1.45 0.59 2.16 0.91 a1 1 0 0 1 0.61 1.43c-0.28 0.74 -0.62 1.45-0.94 2.17 0 0.1-0.09 0.19 -0.13 0.29 l0.05 0.02 z" fill="#FFF"/>
</svg>
