<?xml version="1.0" ?>
<svg xmlns="http://www.w3.org/2000/svg" width="31" height="31" viewBox="0 0 31 31">
  <path d="M13.32 12.7h4.44c0.23 0 0.23 0 0.23-0.24V8.3a1.18 1.18 0 0 1 0.66-1.14 1.16 1.16 0 0 1 1.66 0.71 c0.04 0.143 0.06 0.291 0.06 0.44 v4.21c0 0.14 0 0.18 0.18 0.18s0.51 0 0.76 0.05 c0.483 0.113 0.847 0.51 0.92 1 0.032 0.235 0.048 0.473 0.05 0.71 v3.91a5 5 0 0 1-1.61 3.73 4.9 4.9 0 0 1-1.85 1.1 4.37 4.37 0 0 1-1.47 0.25 c-0.14 0-0.21 0-0.2 0.2 v2a2.12 2.12 0 0 0 0.25 1.08 0.86 0.86 0 0 0 0.69 0.45 c0.45 0.048 0.904 0.01 1.34-0.11a8.91 8.91 0 0 0 2.93-1.19A11.77 11.77 0 0 0 24.59 24a12.27 12.27 0 0 0 2.3-3.47 9.61 9.61 0 0 0 0.61-1.73c0.12-0.48 0.22 -1 0.31-1.47a11.39 11.39 0 0 0-0.19-4.66 11.8 11.8 0 0 0-0.45-1.54A11.59 11.59 0 0 0 26 8.76a12.74 12.74 0 0 0-2.78-3.08 12.12 12.12 0 0 0-3-1.76 14.24 14.24 0 0 0-1.71-0.56A11.27 11.27 0 0 0 17 3.09 15.34 15.34 0 0 0 15.18 3c-0.627 0.01 -1.252 0.07 -1.87 0.18 a12.12 12.12 0 0 0-4.8 1.92 12.73 12.73 0 0 0-5 6.66c-0.13 0.45 -0.23 0.92 -0.33 1.39A10.37 10.37 0 0 0 3 15.81c0.023 0.54 0.077 1.077 0.16 1.61a11.71 11.71 0 0 0 1.14 3.64A12.42 12.42 0 0 0 7.38 25a17.29 17.29 0 0 0 1.88 1.33 7.5 7.5 0 0 1 1.55 1c0.352 0.305 0.544 0.755 0.52 1.22a1.29 1.29 0 0 1-1.08 1.15 2.44 2.44 0 0 1-1.52-0.33 15.71 15.71 0 0 1-3.92-2.72 15 15 0 0 1-3.17-4.3 18 18 0 0 1-0.83-2 14.46 14.46 0 0 1-0.48-1.71c-0.1-0.45-0.14-0.92-0.21-1.38A11.66 11.66 0 0 1 0 14.9c0-0.55 0.09 -1.1 0.16 -1.64a9.71 9.71 0 0 1 0.21-1.2c0.114-0.488 0.258 -0.97 0.43 -1.44 0.21 -0.59 0.43 -1.17 0.69 -1.74A14.19 14.19 0 0 1 3.22 6a14.83 14.83 0 0 1 5.27-4.4c0.6-0.29 1.22-0.56 1.85-0.79a14.63 14.63 0 0 1 1.6-0.46c0.51-0.12 1-0.22 1.53-0.29A16 16 0 0 1 16.24 0c0.41 0 0.83 0.05 1.23 0.11 s1 0.18 1.53 0.29 c0.36 0.08 0.72 0.16 1.06 0.27 0.34 0.11 0.86 0.31 1.28 0.47 a14.43 14.43 0 0 1 2.85 1.52 15.22 15.22 0 0 1 3 2.68 15.49 15.49 0 0 1 2.17 3.25c0.36 0.736 0.665 1.498 0.91 2.28 0.13 0.43 0.24 0.86 0.33 1.3 0.11 0.59 0.23 1.17 0.28 1.76 0.097 0.763 0.113 1.534 0.05 2.3 0 0.32 0 0.64-0.09 1s-0.14 0.92 -0.23 1.38a9.47 9.47 0 0 1-0.26 1.05c-0.17 0.55 -0.35 1.09-0.55 1.62a13.83 13.83 0 0 1-1.17 2.38 14.72 14.72 0 0 1-3.32 3.84 11.24 11.24 0 0 1-2.95 1.74c-0.576 0.23 -1.164 0.43 -1.76 0.6 -0.37 0.09 -0.743 0.16 -1.12 0.21 a9.65 9.65 0 0 1-1.86 0.14 c-0.42 0-0.85 0-1.28-0.07l-0.59-0.12a1.55 1.55 0 0 1-1-0.64 3.24 3.24 0 0 1-0.54-1.3 9.46 9.46 0 0 1-0.11-2v-2.43c0-0.2 0-0.21-0.2-0.21a5 5 0 0 1-3.75-1.83A4.82 4.82 0 0 1 9.28 20 5.21 5.21 0 0 1 9 18.39v-4.41a1.28 1.28 0 0 1 1.29-1.28h0.43c0.14 0 0.16 0 0.16-0.17V8.32a1.19 1.19 0 0 1 0.67-1.16 1.17 1.17 0 0 1 1.67 0.76 c0.04 0.167 0.06 0.338 0.06 0.51 v4.1c0.009 0.058 0.022 0.114 0.04 0.17 z" fill="#FFF"/>
</svg>
