<?xml version="1.0" ?>
<svg xmlns="http://www.w3.org/2000/svg" width="40" height="36" viewBox="0 0 40 36">
  <path d="M20 0h16.21a3.57 3.57 0 0 1 2.49 0.93 3.29 3.29 0 0 1 1 1.67c0.085 0.327 0.132 0.662 0.14 1v30a2 2 0 0 1-1.37 1.94 2 2 0 0 1-2.37-1 2.13 2.13 0 0 1-0.23-1V12.93c0-0.3 0-0.3-0.31-0.3H4.35c-0.42 0-0.37-0.05-0.37 0.39 v20.6a1.94 1.94 0 0 1-1.14 1.86 2 2 0 0 1-2.68-1 2.25 2.25 0 0 1-0.16-0.87V3.7A3.53 3.53 0 0 1 1.88 0.44 3.49 3.49 0 0 1 3.64 0H20zm15.9 10.38H4v0.67h31.9v-0.67zm0-2.27H4v0.42c0 0.26 0 0.26 0.27 0.26h31.41c0.19 0 0.25-0.06 0.23 -0.24-0.02-0.18 0-0.28 0-0.44h-0.01zm0-2.17H4v0.52h31.9v-0.52z" fill="#FFF"/>
  <path d="M12 31.93v1.1a1.9 1.9 0 0 1-1.27 1.91 1.68 1.68 0 0 1-0.55 0.1 H8.94a1.88 1.88 0 0 1-1.78-1.46 3.07 3.07 0 0 1-0.07-0.6v-5.63a10.15 10.15 0 0 1 0.22-2.06c0.13-0.6 0.27 -1.21 0.41 -1.81 0.06 -0.21 0.15 -0.41 0.23 -0.64l-0.4-0.16a1.87 1.87 0 0 1-1.1-1.38A1.68 1.68 0 0 1 6.7 20a1.35 1.35 0 0 1 1.35-0.58 8.08 8.08 0 0 1 1 0.24c0.19 0.05 0.25 0 0.33-0.17 0.38 -0.92 0.74 -1.85 1.15-2.76A3.72 3.72 0 0 1 12.22 15a3.92 3.92 0 0 1 2-0.47h11.7A4.12 4.12 0 0 1 29.53 17c0.31 0.84 0.68 1.66 1 2.49 0.05 0.12 0.15 0.13 0.26 0.1l0.63-0.17a1.46 1.46 0 0 1 2 0.92 1.9 1.9 0 0 1-1 2.29 3 3 0 0 1-0.32 0.12 c-0.11 0-0.12 0.1 -0.09 0.21 0.18 0.64 0.37 1.29 0.53 2a16.21 16.21 0 0 1 0.29 3.94v4.16A1.94 1.94 0 0 1 31.48 35a1.66 1.66 0 0 1-0.37 0.09 c-0.526 0.03 -1.054 0.03 -1.58 0A1.8 1.8 0 0 1 28 33.72a5.12 5.12 0 0 1-0.09-1v-0.62c0-0.2-0.05-0.22-0.21-0.21H12v0.04zM19.92 23h8.22a3.81 3.81 0 0 0 0.59-0.05 0.89 0.89 0 0 0 0.69-1.28c-0.27-0.72-0.59-1.43-0.88-2.14-0.29-0.71-0.62-1.45-0.89-2.19a2.55 2.55 0 0 0-2.36-1.65H14.51a2.1 2.1 0 0 0-0.56 0.07 A2.24 2.24 0 0 0 12.39 17c-0.23 0.47 -0.42 0.95 -0.62 1.43-0.43 1.06-0.87 2.13-1.3 3.2a0.89 0.89 0 0 0 0.29 1.19 1.7 1.7 0 0 0 0.73 0.2 c2.81 0.03 5.62-0.02 8.43-0.02zm-7.44 3h-1.77a0.77 0.77 0 0 0-0.81 0.81 v1.44a0.83 0.83 0 0 0 0.87 0.85 h3.48a0.81 0.81 0 0 0 0.86-0.86v-1.36a0.83 0.83 0 0 0-0.87-0.87c-0.59-0.01-1.17-0.01-1.76-0.01zm14.84 0h-1.81a0.77 0.77 0 0 0-0.76 0.73 v1.62a0.74 0.74 0 0 0 0.75 0.74 h3.66a0.77 0.77 0 0 0 0.76-0.79v-1.48a0.81 0.81 0 0 0-0.85-0.84c-0.58 0.02 -1.16 0.02 -1.75 0.02 z" fill="#FFF"/>
</svg>
