<?xml version="1.0" ?>
<svg xmlns="http://www.w3.org/2000/svg" width="44" height="36" viewBox="0 0 44 36">
  <path d="M8.62 10H25.13a2.37 2.37 0 0 1 2.45 1.64c0.94 2.27 1.86 4.54 2.8 6.8 0.42 1 0.88 2 1.31 3a6 6 0 0 1 0.53 2.32 14.67 14.67 0 0 1-0.13 2.65 9.15 9.15 0 0 1-1.7 4.14c-0.377 0.435 -0.777 0.85 -1.2 1.24a1.73 1.73 0 0 0-0.64 1.5 2.23 2.23 0 0 1-0.08 0.89 1.32 1.32 0 0 1-1.3 0.95 9.84 9.84 0 0 1-1.33 0 1.2 1.2 0 0 1-1.14-1.25c0-0.46-0.07-0.92-0.11-1.38 0-0.26-0.14-0.4-0.45-0.4H8.09a0.36 0.36 0 0 0-0.41 0.35 c-0.06 0.38 -0.09 0.76 -0.12 1.14a3.94 3.94 0 0 1-0.07 0.69 1.18 1.18 0 0 1-1.11 0.85 3.92 3.92 0 0 1-1.8-0.13 1.23 1.23 0 0 1-0.86-1.18v-0.83a1.5 1.5 0 0 0-0.64-1.21 7.51 7.51 0 0 1-2.36-3.39A10.93 10.93 0 0 1 0 23.46a10 10 0 0 1 1-3.23c1-2.05 1.84-4.12 2.72-6.23 0.37 -0.87 0.68 -1.76 1-2.63A2.38 2.38 0 0 1 7.06 10h1.56zm7.46 7.85h10.56c0.42 0 0.48-0.06 0.35 -0.45-0.38-1.11-0.73-2.23-1.17-3.31a2.74 2.74 0 0 0-2.13-1.71 6.4 6.4 0 0 0-1.16-0.07H9.05a2.76 2.76 0 0 0-2.55 1.57 20.29 20.29 0 0 0-1.27 3.55c-0.12 0.39 -0.11 0.39 0.29 0.39 l10.56 0.03 zm0 6.73h-2.81a3.61 3.61 0 0 0-1.25 0.28 2.85 2.85 0 0 0-1.73 2.87c0 0.26 0.08 0.37 0.35 0.36H21.63a0.35 0.35 0 0 0 0.24-0.2 3 3 0 0 0-0.62-2.16 3.09 3.09 0 0 0-2.45-1.15c-0.88-0.06-1.8-0.03-2.69-0.03l-0.03 0.03 zm10.32-0.94a2.54 2.54 0 0 0-2.64 2.6 2.51 2.51 0 0 0 2.6 2.57A2.55 2.55 0 0 0 29 26.22a2.58 2.58 0 0 0-2.57-2.61l-0.03 0.03 zm-20.59 0a2.64 2.64 0 0 0-2.59 2.56 2.55 2.55 0 0 0 2.57 2.61 2.59 2.59 0 1 0 0-5.17h0.02zM34.89 0a6.19 6.19 0 0 1 5.24 3.26 5.86 5.86 0 0 1-0.19 6.37c-0.34 0.54 -0.37 0.83 0.11 1.28 1.25 1.17 2.41 2.41 3.63 3.59 0.45 0.43 0.38 0.7 0 1.1-0.38 0.4 -0.68 0.45 -1.1 0-1.21-1.26-2.48-2.47-3.69-3.73a0.79 0.79 0 0 0-1.14-0.19 6.15 6.15 0 0 1-7.91-1.55 6.19 6.19 0 0 1 0.46-8.28A6.44 6.44 0 0 1 34.89 0zm-0.14 11.62a5.34 5.34 0 0 0 5.35-5.37A5.45 5.45 0 0 0 34.7 0.89 a5.34 5.34 0 0 0-5.33 5.38 5.22 5.22 0 0 0 5.38 5.35z" fill="#FFF"/>
</svg>
