<?xml version="1.0" ?>
<svg xmlns="http://www.w3.org/2000/svg" width="44" height="36" viewBox="0 0 44 36">
  <path d="M6.79 25.85V15.7l-0.54 0.45 -4.63 4.08c-0.15 0.13 -0.22 0.14 -0.36 0C0.89 19.8 0.49 19.39 0.1 19c-0.13-0.13-0.14-0.23 0-0.36 1.71-1.46 3.41-2.94 5.11-4.41l4.68-4a0.61 0.61 0 0 0 0.24-0.52V3.13h2.11v5a1.38 1.38 0 0 0 0.25-0.13l4.54-4L21.12 0.31 c0.47-0.41 0.48 -0.41 1 0l4.78 4.17L31 8.11l5.12 4.48L41.26 17c0.61 0.53 1.21 1.07 1.83 1.59 0.14 0.12 0.13 0.21 0 0.34l-1.2 1.28c-0.12 0.13 -0.19 0.1 -0.32 0L37 16.18l-0.56-0.48v10.15" fill="#FFF"/>
  <path d="M36.38 23.8v11.91H6.81V23.89" fill="#FFF"/>
  <path d="M10 30.69c0-0.15 0-0.34 0.1 -0.46a1.6 1.6 0 0 0 0.24-1.2 1.76 1.76 0 0 1 0-0.73c0.16-0.33 0-0.5-0.21-0.68a2.84 2.84 0 0 1-1-1.74 2.17 2.17 0 0 1 0.49-1.66c0.06-0.08 0.21 -0.1 0.31 -0.14 0.01 0.113 0.01 0.227 0 0.34a0.71 0.71 0 0 1-0.11 0.25 c-0.8 1.19 0 2 0.8 2.64a0.64 0.64 0 0 0 0.33 0.1 c0.77 0.05 1.54 0.11 2.31 0.15 0.57 0.03 1.14 0.03 1.71 0 0.16 0 0.33-0.21 0.44 -0.36 0.32 -0.47 0.62 -1 0.92-1.46 0.13 -0.2 0.26 -0.2 0.35 0 0.09 0.2 0.23 0.13 0.35 0l0.24-0.23c0.024 0.112 0.054 0.222 0.09 0.33 0.09 0.25 0.17 0.5 0.28 0.74 0.11 0.24 0.28 0.53 0.37 0.81 0.09 0.28 -0.07 0.69 -0.61 0.81 a0.75 0.75 0 0 0-0.68 0.84 2.4 2.4 0 0 1-0.3 1 0.7 0.7 0 0 0 0 0.74c0.27 0.46 0.5 0.92 0.75 1.39l0.15 0.33 c-0.18 0-0.41 0-0.53-0.07a2.06 2.06 0 0 1-0.36-0.53 3.41 3.41 0 0 0-0.37-0.48c-0.06-0.07-0.18-0.09-0.27-0.14v0.31c0.08 0.26 0.21 0.5 0.31 0.75 s0.06 0.23 0.1 0.34 c-0.16 0-0.39 0-0.46-0.12a2.72 2.72 0 0 1-0.29-0.7c-0.08-0.26-0.13-0.53-0.22-0.78-0.32-0.85-0.75-1.05-1.64-0.8-0.67 0.19 -0.79 0.61 -0.54 1.31 0.159 0.325 0.364 0.625 0.61 0.89a1.4 1.4 0 0 1 0.1 0.16 c-0.06 0-0.13 0.08 -0.18 0.06 a0.88 0.88 0 0 1-0.4-0.15c-0.4-0.36-0.78-0.73-1.17-1.11a1 1 0 0 1-0.21-0.24c-0.15-0.25-0.31-0.45-0.64-0.25a0.66 0.66 0 0 0-0.27 0.88 4 4 0 0 0 0.47 0.54 l0.13 0.14 c-0.05 0.05 -0.12 0.15 -0.16 0.14 -0.21 0-0.49 0-0.59-0.14a3.61 3.61 0 0 1-0.74-1.82zM17.39 27c-0.11-0.07-0.19-0.17-0.26-0.16-0.07 0.01 -0.13 0.16 -0.13 0.16 s0.14 0.15 0.21 0.15 c0.07 0 0.09-0.08 0.18 -0.15z" fill="#EF8C33"/>
  <path d="M17.39 27c-0.09 0.07 -0.16 0.18 -0.22 0.18 S17 27.09 17 27s0.11-0.18 0.17 -0.19c0.06-0.01 0.11 0.12 0.22 0.19zM20.69 20.67c-0.22 0.29 -0.4 0.25 -0.61 0.1 a2.07 2.07 0 0 1-0.8-1.12c-0.05-0.16-0.15-0.31-0.2-0.47a1.53 1.53 0 0 1-0.1-0.41 0.47 0.47 0 0 1 0.28-0.45L20 18a4.07 4.07 0 0 0 0.93-0.53 0.51 0.51 0 0 1 0.63 0 0.51 0.51 0 0 0 0.18 0.09 0.62 0.62 0 0 0 0.23 0 4.85 4.85 0 0 1 0.63-0.16c0.43 0 0.88-0.05 1.32-0.06 0.226 0 0.445 0.07 0.63 0.2 h0.12a0.5 0.5 0 0 1 0.72-0.1c0.18 0.1 0.35 0.21 0.54 0.3 0.136 0.055 0.277 0.099 0.42 0.13 0.332 0.049 0.624 0.248 0.79 0.54 0.095 0.188 0.134 0.4 0.11 0.61 v0.27c0 0.4-0.05 0.81 -0.1 1.2a3.88 3.88 0 0 1-0.18 0.69 0.28 0.28 0 0 1-0.16 0.16 c-0.08 0-0.13-0.06-0.17-0.12a3.57 3.57 0 0 1-0.47-0.91 1.72 1.72 0 0 1 0-0.18c0 0.05-0.06 0.08 -0.06 0.11 0 0.19-0.06 0.38 -0.1 0.57 -0.04 0.19 -0.1 0.4 -0.16 0.6 -0.06 0.2 -0.11 0.3 -0.15 0.45 a0.31 0.31 0 0 0 0.26 0.35 6 6 0 0 1 0.95 0.1 c0.188 0.027 0.372 0.073 0.55 0.14 0.37 0.126 0.775 0.094 1.12-0.09 0.4 -0.21 0.78 -0.44 1.16-0.67A7.72 7.72 0 0 1 31.1 21a8.15 8.15 0 0 1 1.07-0.31 4.56 4.56 0 0 1 1.52 0 5 5 0 0 1 0.66 0.18 l0.4 0.12 0.12 0.06 a2.71 2.71 0 0 1-1.18 0.37 9 9 0 0 0-0.91 0.09 5.15 5.15 0 0 0-1.76 0.66 4.38 4.38 0 0 0-1.24 1.07c-0.06 0.07 -0.07 0.12 0 0.19 0.31 0.439 0.547 0.925 0.7 1.44 0.11 0.37 0.18 0.75 0.29 1.12 0.11 0.37 0.17 0.46 0.24 0.7 0.064 0.2 0.117 0.404 0.16 0.61 0.07 0.28 0.12 0.56 0.17 0.84 0.076 0.342 0.183 0.677 0.32 1 0.04 0.123 0.06 0.25 0.06 0.38 v2.33c0.024 0.149 0.057 0.296 0.1 0.44 0.01 0.133 0.01 0.267 0 0.4 0 0.11-0.16 0.22 -0.31 0.23 a2.84 2.84 0 0 1-0.92-0.07h-0.2c-0.13 0-0.22-0.08-0.21-0.22a3.22 3.22 0 0 1 0.1-0.54c0.07-0.23 0.17 -0.46 0.25 -0.68v-0.09c0-0.37 0-0.74-0.06-1.1a3.46 3.46 0 0 0-0.14-0.53 1.27 1.27 0 0 1-0.07-0.38 0.78 0.78 0 0 0-0.46-0.8 1.72 1.72 0 0 1-0.78-0.88h-0.08c-0.4 0.103 -0.78 0.276 -1.12 0.51 a0.78 0.78 0 0 0-0.26 0.57 c0 0.55 0 1.1-0.05 1.65 0 0.37-0.09 0.73 -0.12 1.1a7.66 7.66 0 0 0 0 1.07 2.9 2.9 0 0 0 0.18 0.62 0.84 0.84 0 0 1 0 0.64 0.33 0.33 0 0 1-0.35 0.18 1.12 1.12 0 0 0-0.41 0 1.34 1.34 0 0 1-0.49 0 0.61 0.61 0 0 0-0.23 0 0.69 0.69 0 0 1-0.49-0.06 0.37 0.37 0 0 0-0.21 0c-0.07 0-0.11 0-0.11-0.08a5.41 5.41 0 0 1 0.07-0.58c0.07-0.25 0.16 -0.5 0.24 -0.75a0.57 0.57 0 0 0 0-0.13c0-0.08 0-0.12-0.1-0.12a0.5 0.5 0 0 1-0.31-0.08h-0.26a1.31 1.31 0 0 1-0.28 0 1.58 1.58 0 0 1-0.36-0.14 0.15 0.15 0 0 1-0.08-0.23 0.89 0.89 0 0 1 0.53-0.51 0.84 0.84 0 0 0 0.45-0.4 3 3 0 0 0 0.41-1 1.12 1.12 0 0 0-0.3-1.11 0.13 0.13 0 0 0-0.1 0 0.58 0.58 0 0 1-0.5 0 0.77 0.77 0 0 0-0.52 0 0.67 0.67 0 0 1-0.86-0.25c-0.12-0.16-0.24-0.32-0.37-0.47a0.3 0.3 0 0 0-0.2-0.12c-0.1 0-0.06 0.12 -0.08 0.18 a0.4 0.4 0 0 0 0 0.15c0 0.4 0 0.81-0.06 1.22-0.06 0.41 -0.08 0.7 -0.11 1.05-0.03 0.35 0 0.53 0 0.8a7.93 7.93 0 0 1 0 1.09 2.8 2.8 0 0 1-0.35 1.08 0.52 0.52 0 0 1-0.38 0.24 1 1 0 0 1-0.52 0c-0.07 0-0.13-0.08-0.21-0.09h-0.69a0.66 0.66 0 0 1-0.27-0.09A0.287 0.287 0 0 1 20 33a6.17 6.17 0 0 1 0.53-0.5A1.08 1.08 0 0 0 21 32c0.07-0.33 0.07 -0.67 0-1 0-0.19-0.07-0.37-0.1-0.57a1.15 1.15 0 0 1 0-0.26 2.55 2.55 0 0 0 0-0.78 8.65 8.65 0 0 1-0.13-1.14 5.51 5.51 0 0 1 0.1-0.9 1.72 1.72 0 0 0-0.05-0.78 2.46 2.46 0 0 1-0.16-1.11 3.43 3.43 0 0 1 0.11-0.46l0.12-0.64a5.19 5.19 0 0 1 0.36-1.36 2.53 2.53 0 0 0 0.18-0.27 0.24 0.24 0 0 0 0-0.2c-0.13-0.24-0.28-0.47-0.4-0.71a2.36 2.36 0 0 1-0.31-1c0.01 0-0.01-0.06-0.03-0.15z" fill="#EF8C33"/>
</svg>
