<?xml version="1.0" ?>
<svg xmlns="http://www.w3.org/2000/svg" width="43" height="31" viewBox="0 0 43 31">
  <path d="M15 11.22a0.59 0.59 0 0 0-0.12 0.1 c-0.53 0.73 -1.06 1.47-1.6 2.19-0.28 0.37 -0.59 0.72 -0.88 1.09-0.29 0.37 -0.42 0.59 -0.64 0.87 -0.22 0.28 -0.3 0.34 -0.44 0.52 s-0.24 0.33 -0.36 0.5 c-0.12 0.17 -0.19 0.28 -0.29 0.41 -0.1 0.13 -0.29 0.33 -0.43 0.5 -0.14 0.17 -0.24 0.32 -0.36 0.48 l-0.43 0.56 -0.29 0.4 -1.8 2.39-0.8 1c-0.24 0.3 -0.49 0.58 -0.72 0.89 -0.23 0.31 -0.4 0.57 -0.61 0.85 -0.21 0.28 -0.29 0.34 -0.43 0.52 l-0.36 0.51 -0.44 0.57 -0.3 0.42 c-0.21 0.29 -0.4 0.59 -0.62 0.87 a1 1 0 0 0-0.24 0.67 V30.96H1.38v-0.25-2.48c0-0.31 0-0.33-0.34-0.33H0.2c-0.14 0-0.2 0-0.2-0.2v-2.37c0-0.14 0-0.19 0.19 -0.18h1c0.17 0 0.23-0.07 0.23 -0.24v-2.58c0-0.2 0.06 -0.26 0.25 -0.25 0.19 0.01 0.64 0 1 0s0.28 0 0.28 0.29 V24.88c0.09-0.06 0.16 -0.08 0.2 -0.13 0.04 -0.05 0.22 -0.33 0.34 -0.49 0.12 -0.16 0.27 -0.34 0.41 -0.51l0.39-0.49 0.46 -0.6 0.67 -0.91 0.38 -0.48 0.31 -0.41c0.4-0.54 0.79 -1.09 1.19-1.62 0.4 -0.53 0.77 -1 1.16-1.48 0.22 -0.28 0.46 -0.54 0.67 -0.83 0.21 -0.29 0.44 -0.63 0.67 -0.93 0.23 -0.3 0.48 -0.58 0.71 -0.87 0.23 -0.29 0.23 -0.33 0.35 -0.49l0.4-0.51 0.31 -0.41c0.41-0.55 0.8 -1.11 1.22-1.65 0.42 -0.54 0.74 -1 1.12-1.43 0.13 -0.17 0.29 -0.31 0.42 -0.48 0.13 -0.17 0.16 -0.23 0.25 -0.35 0.09 -0.12 0.28 -0.41 0.43 -0.6 0.15 -0.19 0.27 -0.29 0.39 -0.45 0.12 -0.16 0.21 -0.31 0.32 -0.45 0.11 -0.14 0.33 -0.4 0.49 -0.61 0.16 -0.21 0.25 -0.37 0.38 -0.55 0.13 -0.18 0.18 -0.27 0.28 -0.4 0.68 -0.89 1.35-1.78 2-2.65a19.58 19.58 0 0 0 1.72-2.8l0.64-1.17c0.1-0.17 0.13 -0.17 0.23 0 0.49 0.89 1 1.79 1.48 2.67 0.23 0.4 0.49 0.78 0.75 1.16 0.12 0.17 0.31 0.29 0.41 0.47a4.1 4.1 0 0 0 0.58 0.75 c0.153 0.196 0.29 0.403 0.41 0.62 0.037 0.05 0.077 0.096 0.12 0.14 l0.31 0.36 0.59 0.77 0.26 0.35 0.39 0.52 0.49 0.69 0.1 0.13 c0.11 0.13 0.23 0.26 0.34 0.39 l0.59 0.77 0.27 0.37 0.38 0.51 0.49 0.69 0.1 0.13 c0.11 0.13 0.23 0.26 0.34 0.39 l0.59 0.77 0.27 0.37 0.38 0.51 0.49 0.69 0.12 0.14 c0.086 0.07 0.163 0.151 0.23 0.24 0.218 0.361 0.477 0.697 0.77 1 0.1 0.11 0.15 0.27 0.24 0.39 s0.23 0.26 0.33 0.39 0.33 0.46 0.5 0.69 l0.12 0.14 c0.09 0.077 0.17 0.164 0.24 0.26 0.214 0.361 0.47 0.697 0.76 1 0.1 0.11 0.15 0.27 0.24 0.39 s0.24 0.27 0.35 0.41 c0.11 0.14 0.32 0.45 0.48 0.67 l0.11 0.14 c0.086 0.07 0.163 0.151 0.23 0.24 0.223 0.36 0.484 0.696 0.78 1 0.1 0.11 0.14 0.27 0.23 0.39 s0.24 0.25 0.34 0.39 c0.1 0.14 0.33 0.47 0.49 0.71 l0.1 0.13 0.41 0.51 c0.14 0.18 0.29 0.35 0.43 0.53 0.14 0.18 0.28 0.4 0.42 0.59 0.06 0.061 0.127 0.115 0.2 0.16 a0.63 0.63 0 0 0 0.09-0.21v-2.29c0-0.2 0.05 -0.28 0.26 -0.27 0.21 0.01 0.66 0 1 0 0.34 0 0.26 0.06 0.25 0.25 v2.54c0 0.26 0 0.27 0.27 0.27h0.92c0.13 0 0.19 0 0.19 0.18 v2.37c0 0.14-0.06 0.2 -0.2 0.2 h-0.9c-0.24 0-0.28 0-0.28 0.28 V30.96h-1.49v-0.26-3.17a1.47 1.47 0 0 0-0.41-1c-0.24-0.29-0.45-0.61-0.68-0.91l-0.1-0.1-0.47-0.6-0.37-0.47c-0.12-0.15-0.24-0.29-0.35-0.44l-0.35-0.51-0.54-0.73s-0.08-0.07-0.12-0.12L36 22.1l-0.37-0.47c-0.07-0.08-0.17-0.14-0.21-0.23a9.17 9.17 0 0 0-0.91-1.21c-0.29-0.42-0.59-0.84-0.89-1.24-0.1-0.13-0.25-0.22-0.35-0.36-0.1-0.14-0.31-0.47-0.47-0.7-0.16-0.23-0.31-0.36-0.45-0.54-0.31-0.42-0.6-0.85-0.91-1.26-0.1-0.14-0.28-0.23-0.36-0.37a10.7 10.7 0 0 0-0.89-1.19c-0.31-0.43-0.61-0.87-0.93-1.3-0.1-0.14-0.28-0.23-0.36-0.37a12.6 12.6 0 0 0-0.94-1.26c0-0.06-0.06-0.13-0.09-0.18-0.03-0.05-0.11-0.14-0.16-0.2h-0.08c0.06 0.13 0.1 0.26 0.17 0.39 L31 17.5l5.19 9.5 2 3.73 0.09 0.19h-34l0.22-0.43 7.83-14.29 2.51-4.6a3.84 3.84 0 0 0 0.16-0.39v0.01zm6.31 18.27h6.4c0.19 0 0.27 0 0.27-0.26v-2.87a7.44 7.44 0 0 0-0.77-3.3 6.64 6.64 0 0 0-4.63-3.79 5.52 5.52 0 0 0-3.53 0.32 7.12 7.12 0 0 0-4.33 6.33c-0.09 1.06 0 2.14 0 3.21 0 0.35 0 0.35 0.34 0.35l6.25 0.01 z" fill="#FFF"/>
</svg>
