<?xml version="1.0" ?>
<svg xmlns="http://www.w3.org/2000/svg" width="43" height="36" viewBox="0 0 43 36">
  <path d="M6.7 25.5v-10c-0.21 0.17 -0.38 0.3 -0.53 0.44 L1.6 20c-0.15 0.12 -0.22 0.13 -0.35 0L0.1 18.72c-0.13-0.13-0.14-0.22 0-0.35l5-4.35 4.62-4a0.64 0.64 0 0 0 0.28-0.5V3.09h2.09V8a1.63 1.63 0 0 0 0.24-0.13l4.48-4c1.34-1.19 2.68-2.39 4-3.57 0.46 -0.41 0.48 -0.41 1 0l4.71 4.11C27.86 5.62 29.24 6.8 30.6 8l5 4.42 5.05 4.39c0.6 0.52 1.2 1.05 1.8 1.56 0.14 0.13 0.13 0.22 0 0.34L41.33 20c-0.12 0.13 -0.19 0.1 -0.31 0l-4.55-4-0.56-0.47v10" fill="#FFF"/>
  <path d="M35.89 23.47v11.76H6.72V23.57" fill="#FFF"/>
  <path d="M25.92 25.36a4.37 4.37 0 0 1-3.39-1.6 3.73 3.73 0 0 1-0.79-1.45 5.74 5.74 0 0 1-0.19-0.82 7.7 7.7 0 0 1 0-1 4 4 0 0 1 0.12-0.68c0-0.14 0-0.19-0.11-0.25a7.18 7.18 0 0 0-0.68-0.34 1.22 1.22 0 0 0-1.27 0.18 c-0.25 0.2 -0.46 0.44 -0.69 0.65 -0.06 0.052 -0.123 0.1 -0.19 0.14 a0.11 0.11 0 0 1-0.18-0.06 2 2 0 0 1-0.14-0.47 7.24 7.24 0 0 1 0-1.14 1.53 1.53 0 0 1 1-1.3 1.57 1.57 0 0 1 1.48 0.35 c0.328 0.277 0.597 0.617 0.79 1 0.06 0.14 0.2 0.16 0.31 0.21 0.11 0.05 0.07 0 0.08-0.06a4.79 4.79 0 0 1 1-1.22 4.59 4.59 0 0 1 1.53-0.88 4.27 4.27 0 0 1 1.77-0.21 4.19 4.19 0 0 1 2.12 0.76 4.44 4.44 0 0 1 1.4 1.55s0.07 0.07 0.08 0.06 c0.01-0.01 0.25 -0.1 0.31 -0.2 0.198 -0.38 0.466 -0.72 0.79 -1a1.58 1.58 0 0 1 1.36-0.4 1.3 1.3 0 0 1 0.83 0.54 c0.293 0.384 0.406 0.876 0.31 1.35 0 0.18 0 0.37-0.07 0.56 -0.07 0.19 -0.06 0.33 -0.1 0.49 -0.04 0.16 0 0.1-0.15 0.06 a2.92 2.92 0 0 1-0.65-0.56 1.78 1.78 0 0 0-0.57-0.4 1.4 1.4 0 0 0-1.15 0.07 c-0.17 0.09 -0.33 0.19 -0.51 0.27 a0.16 0.16 0 0 0-0.09 0.22 c0.15 0.506 0.19 1.037 0.12 1.56a4.35 4.35 0 0 1-1.57 2.95 4.27 4.27 0 0 1-1.41 0.79 4.38 4.38 0 0 1-1.5 0.28 zm-1.14-5.05l-0.16 0.18 a4.91 4.91 0 0 1-1.84 1.41c-0.28 0.13 -0.26 0.07 -0.14 0.37 a3.51 3.51 0 0 0 1.23 1.57 3.43 3.43 0 0 0 1.82 0.67 3.36 3.36 0 0 0 1.22-0.12 3.42 3.42 0 0 0 1.26-0.64 3.63 3.63 0 0 0 1.17-1.62c0-0.1 0-0.15-0.09-0.18s-0.26-0.09-0.39-0.15A5 5 0 0 1 27 20.38c-0.13-0.16-0.24-0.33-0.37-0.5a0.34 0.34 0 0 1-0.06 0.06 7.23 7.23 0 0 1-1.44 1.21 1.91 1.91 0 0 1-0.32 0.16 c-0.12 0.05 -0.17 0-0.16-0.12 0.01 -0.12 0-0.2 0-0.3l0.13-0.58zM23.74 32.69h-3.63c-0.15 0-0.14 0-0.11-0.14 0.03 -0.14 0.07 -0.38 0.1 -0.57 0.03 -0.19 0.09 -0.44 0.13 -0.66 0.04 -0.22 0.07 -0.39 0.11 -0.59l0.12-0.62c0-0.17 0.07 -0.34 0.11 -0.51l0.18-0.78a3.38 3.38 0 0 1 0.56-1.2 3.83 3.83 0 0 1 1.49-1.24A4.59 4.59 0 0 1 24 26a0.24 0.24 0 0 1 0.12 0 2.52 2.52 0 0 0 1.13 0.51 4.13 4.13 0 0 0 1.16 0.08 2.94 2.94 0 0 0 1.71-0.59h0.24a5.63 5.63 0 0 1 1.56 0.66 2.78 2.78 0 0 1 1 1.13 0.46 0.46 0 0 1-0.05 0.6 c-0.36 0.42 -0.7 0.86 -1 1.3a0.62 0.62 0 0 1-0.39 0.22 l-0.64 0.14 a1 1 0 0 0-0.73 1 1.4 1.4 0 0 0 0.17 0.56 0.11 0.11 0 0 1 0 0.12c-0.22 0.3 -0.46 0.6 -0.7 0.9 a0.26 0.26 0 0 1-0.16 0.06 h-3.68z" fill="#224099"/>
  <path d="M27.45 34.15c0-0.17 0.08 -0.37 0.11 -0.58 0.03 -0.21 0.31 -0.53 0.49 -0.78s0.58-0.75 0.88 -1.13c0.06-0.08 0-0.1-0.05-0.14a0.53 0.53 0 0 1-0.12-0.89 0.74 0.74 0 0 1 0.29-0.12l0.82-0.19a0.35 0.35 0 0 0 0.19-0.12c0.43-0.53 0.85 -1.07 1.27-1.61l0.89-1.14a0.19 0.19 0 0 1 0.3 0l0.5 0.39 c0.16 0.12 0.17 0.18 0 0.35l-0.91 1.17-0.65 0.82 a0.1 0.1 0 0 0 0 0.14c0.24 0.31 0.358 0.698 0.33 1.09a1.37 1.37 0 0 1-0.94 1.28 5.8 5.8 0 0 1-0.6 0.13 2.65 2.65 0 0 0-0.3 0.06 0.43 0.43 0 0 1-0.44-0.07c-0.07-0.05-0.1 0-0.13 0-0.27 0.34 -0.55 0.68 -0.81 1a0.87 0.87 0 0 1-0.4 0.31 l-0.5 0.23 c-0.14 0.12 -0.24 0.05 -0.22-0.2z" fill="#224099"/>
</svg>
