<?xml version="1.0" ?>
<svg xmlns="http://www.w3.org/2000/svg" width="18" height="35" viewBox="0 0 18 35">
  <path d="M10.16 23.75c0.1 0.49 0.18 1 0.3 1.47 0.39 1.63 0.78 3.27 1.19 4.9 0.131 0.341 0.282 0.675 0.45 1 0.177 0.365 0.305 0.751 0.38 1.15a15.27 15.27 0 0 1 0 1.79 0.76 0.76 0 0 1-0.05 0.34 c-0.07 0.14 -0.19 0.38 -0.28 0.38 a0.61 0.61 0 0 1-0.47-0.26 3 3 0 0 1-0.4-1.15 8.53 8.53 0 0 0-1.1-3.31c-0.36-0.77-0.7-1.55-1-2.33L9 27.45c-0.25 0.5 -0.48 0.93 -0.69 1.37-0.62 1.28-1.21 2.57-1.87 3.82a6.12 6.12 0 0 1-1 1.24 0.85 0.85 0 0 1-0.51 0.27 1.18 1.18 0 0 1-0.74-0.1c-0.22-0.19 0-0.46 0.12 -0.67a2.78 2.78 0 0 0 0.57-1.93c0-0.34 0.16 -0.51 0.54 -0.58 0.75 -0.13 0.74 -0.14 0.85 -0.89a10.17 10.17 0 0 1 1.19-3.42c0.206-0.46 0.386 -0.93 0.54 -1.41a0.4 0.4 0 0 0 0-0.26c-0.14-0.33-0.31-0.65-0.43-1a0.94 0.94 0 0 0-0.75-0.58 12.69 12.69 0 0 1-3.75-1.45 6.32 6.32 0 0 1-2.88-3.75A4.67 4.67 0 0 1 0.36 15c0.27-0.6 0.56 -0.65 1.16-0.39 1 0.43 2.06 0.82 3.1 1.2 0.82 0.3 1.66 0.57 2.57 0.88 a6.75 6.75 0 0 0 0.23-1.1 5.77 5.77 0 0 0-1.16-3.79C5.42 10.71 4.6 9.6 3.8 8.48A16.5 16.5 0 0 1 3 7a1.58 1.58 0 0 1-0.06-1.42A19.52 19.52 0 0 1 5 1.39 2.85 2.85 0 0 1 6.78 0a0.88 0.88 0 0 1 0.71 0.09 c0.12 0.11 0 0.46 0 0.69a1 1 0 0 1-0.74 0.74 1.84 1.84 0 0 0-1.07 1.17 26 26 0 0 1-1.42 2.45 0.56 0.56 0 0 0-0.07 0.57 c0.2 0.52 0.38 1 0.56 1.57A3.8 3.8 0 0 0 7 9.47c0.2 0.09 0.4 0.15 0.6 0.23 a1.83 1.83 0 0 0 0.15-1.87A5.72 5.72 0 0 1 7 5.55c-0.08-0.36 0-0.5 0.37 -0.67a2.72 2.72 0 0 1 2.63 0.21 1 1 0 0 1 0.5 0.91 17.32 17.32 0 0 1-0.13 1.9c0 0.15-0.2 0.31 -0.35 0.4 a0.43 0.43 0 0 0-0.17 0.61 c0 0.08 0.07 0.17 0.12 0.25 0.27 0.47 0.51 0.51 0.87 0.1 0.68 -0.77 1.33-1.56 2-2.32a2.19 2.19 0 0 0 0.48-2.11A7.34 7.34 0 0 0 12 2.08a2.2 2.2 0 0 0-0.7-0.53 2.43 2.43 0 0 1-1-0.85c-0.2-0.32-0.14-0.46 0.21 -0.6a1.67 1.67 0 0 1 1.58 0.33 2 2 0 0 1 0.93 1.33 5.31 5.31 0 0 0 0.76 1.57c0.37 0.62 0.73 1.24 1.08 1.87a1.18 1.18 0 0 1 0 1.29c-0.6 0.91 -1.21 1.83-1.83 2.74a9.53 9.53 0 0 1-0.61 0.81 1.77 1.77 0 0 0-0.42 1.74c0.19 0.91 0.19 1.85 0 2.76-0.07 0.56 -0.21 1.11-0.31 1.66a1.1 1.1 0 0 0 0.74 1.41 11.8 11.8 0 0 0 2 0.5c0.82 0.13 1.66 0.18 2.48 0.26 l0.28 0.05 c0.53 0.15 0.62 0.35 0.46 0.89 a5.11 5.11 0 0 1-2.29 2.91 8.76 8.76 0 0 1-4.86 1.47h-0.21a0.33 0.33 0 0 0-0.13 0.06 z" fill="#FFF"/>
</svg>
