<?xml version="1.0" ?>
<svg xmlns="http://www.w3.org/2000/svg" width="30" height="30" viewBox="0 0 30 30">
  <path d="M16.81 11.34c0.158 0.373 0.262 0.767 0.31 1.17 0.054 0.381 0.084 0.765 0.09 1.15-0.018 0.45 -0.065 0.897 -0.14 1.34a9.41 9.41 0 0 1-0.25 1.12c-0.12 0.42 -0.26 0.83 -0.42 1.23a18.6 18.6 0 0 1-1.18 2.45 28 28 0 0 1-1.62 2.5 35.19 35.19 0 0 1-4.2 4.8c-0.32 0.31 -0.65 0.6 -1 0.9a0.15 0.15 0 0 1-0.2 0 14.32 14.32 0 0 1-3-2 13.66 13.66 0 0 1-2.43-2.63c-0.37-0.54-0.69-1.11-1-1.66-0.06-0.09 0-0.13 0-0.2a26.76 26.76 0 0 1 2.35-2.31A43 43 0 0 1 8 16.06 91.846 91.846 0 0 1 11 14a17.42 17.42 0 0 1 2.85-1.55c0.66-0.28 1.33-0.54 2-0.79 0.31 -0.14 0.63 -0.22 0.96 -0.32z" fill="#FFF"/>
  <path d="M9.54 28.57c0.45-0.41 0.9 -0.81 1.34-1.22a27.19 27.19 0 0 0 3-3.38c1-1.313 1.87-2.72 2.6-4.2 0.33 -0.68 0.63 -1.37 0.91 -2.07a13.5 13.5 0 0 0 0.43-1.38c0.11-0.38 0.2 -0.77 0.27 -1.16a8.29 8.29 0 0 0 0.14-1.61v-0.87a7.32 7.32 0 0 0-0.15-0.85c0-0.22-0.12-0.43-0.18-0.65-0.06-0.22 0-0.13 0.13 -0.15 0.46 -0.08 0.91 -0.18 1.37-0.24 0.63 -0.09 1.27-0.15 1.9-0.22h0.23c0.06 0.21 0.12 0.42 0.17 0.63 0.05 0.21 0.15 0.63 0.22 1s0.1 0.5 0.13 0.75 c0.06 0.46 0.13 0.92 0.16 1.39 0.03 0.47 0.07 1 0.07 1.5 0 0.67 0 1.35-0.06 2-0.06 0.65 -0.22 1.1-0.22 1.66 0 0.56-0.13 0.9 -0.23 1.35-0.1 0.45 -0.2 0.87 -0.33 1.29-0.13 0.42 -0.33 1.12-0.54 1.65-0.28 0.7 -0.6 1.4-0.94 2.07a17.26 17.26 0 0 1-2.15 3.22 0.39 0.39 0 0 1-0.21 0.13 l-1.27 0.19 a11.47 11.47 0 0 1-2.26 0.1 c-0.51 0-1-0.09-1.52-0.16a12.63 12.63 0 0 1-1.34-0.25c-0.52-0.13-1-0.31-1.53-0.46a0.61 0.61 0 0 1-0.14-0.06zM16.26 10.33a20.55 20.55 0 0 0-5.18 2.33c-0.967 0.62 -1.92 1.263-2.86 1.93-1 0.73-2 1.48-3 2.25a34.2 34.2 0 0 0-3.77 3.42l-0.2 0.22 c-0.05 0.06 -0.09 0.07 -0.12 0-0.2-0.57-0.41-1.14-0.58-1.72-0.17-0.58-0.24-0.91-0.33-1.36a8.59 8.59 0 0 1-0.14-1.06C0 15.68 0 15 0 14.39c0.007-0.515 0.047 -1.03 0.12 -1.54 0.07 -0.52 0.17 -1 0.28-1.55 0.08 -0.35 0.18 -0.69 0.29 -1a0.28 0.28 0 0 1 0.15-0.14c0.72-0.31 1.44-0.63 2.16-0.92 0.52 -0.21 1.06-0.37 1.6-0.54 0.54 -0.17 0.88 -0.27 1.33-0.39 0.45 -0.12 0.79 -0.21 1.19-0.31 0.6 -0.1 1.19-0.21 1.79-0.26 0.6 -0.05 1.16-0.06 1.73-0.05a8 8 0 0 1 1.16 0.1 c0.41 0.06 0.82 0.17 1.23 0.27 a5.49 5.49 0 0 1 1.33 0.53 5.24 5.24 0 0 1 1.84 1.63 0.5 0.5 0 0 1 0.06 0.11 z" fill="#FFF"/>
  <path d="M21.07 9.48h-0.22c-0.34 0-0.68 0-1 0.08-0.32 0.08 -0.69 0.1 -1 0.15l-0.74 0.13 c-0.22 0-0.44 0.08 -0.66 0.14 a0.13 0.13 0 0 1-0.17-0.06 6.78 6.78 0 0 0-1.13-1.31 6.46 6.46 0 0 0-1.85-1.09 12.85 12.85 0 0 0-1.3-0.46 9.34 9.34 0 0 0-1-0.2 10.74 10.74 0 0 0-2.47-0.16c-0.59 0-1.18 0.1 -1.77 0.16 -0.31 0-0.61 0.08 -0.91 0.13 -0.3 0.05 -0.66 0.14 -1 0.21l-1 0.25c-0.34 0.09 -0.68 0.19 -1 0.3l-1.4 0.5 -1.03 0.45 a0.21 0.21 0 0 1-0.14 0c0.07-0.16 0.13 -0.32 0.21 -0.47a15.34 15.34 0 0 1 3.44-4.57 14.63 14.63 0 0 1 3.55-2.43C9 1 9.61 0.74 10.18 0.52 a0.6 0.6 0 0 1 0.33 0c0.37 0.08 0.75 0.17 1.11 0.27 0.36 0.1 0.77 0.23 1.15 0.35 0.69 0.23 1.358 0.518 2 0.86a12.85 12.85 0 0 1 3.63 2.86 13.93 13.93 0 0 1 2.31 3.6c0.13 0.29 0.26 0.59 0.38 0.89 a0.71 0.71 0 0 1-0.02 0.13 zM19.55 28.63l0.59-0.9a15.81 15.81 0 0 0 1.33-2.52c0.26-0.667 0.503 -1.31 0.73 -1.93 0.13 -0.38 0.22 -0.77 0.31 -1.16 0.09 -0.39 0.19 -0.83 0.27 -1.25 0.08 -0.42 0.09 -0.63 0.13 -0.94 0.04 -0.31 0.11 -0.81 0.16 -1.22 0-0.24 0.06 -0.48 0.06 -0.72 0-1 0.06-2 0.05-3.07a14 14 0 0 0-0.11-1.53c-0.06-0.52-0.14-1-0.23-1.57-0.09-0.57-0.18-0.77-0.27-1.16a0.35 0.35 0 0 1 0-0.08h0.91c0.3 0 0.6 0.06 0.9 0.09 l0.56 0.07 a0.17 0.17 0 0 1 0.11 0.11 c0.1 0.43 0.19 0.86 0.3 1.28 0.11 0.42 0.33 1.14 0.5 1.7a32.81 32.81 0 0 0 1.91 4.61c0.19 0.38 0.38 0.77 0.58 1.14a0.34 0.34 0 0 1 0 0.31 15.78 15.78 0 0 1-1.2 2.5 14.74 14.74 0 0 1-6.53 5.81c-0.32 0.15 -0.66 0.27 -1 0.41l-0.06 0.02 z" fill="#FFF"/>
  <path d="M12.94 0.11 a0.94 0.94 0 0 1 0.2-0.06c0.77 0 1.53-0.06 2.3 0A10 10 0 0 1 17 0.17c0.56 0.1 1.11 0.24 1.66 0.38 A13.5 13.5 0 0 1 22 2a14.11 14.11 0 0 1 2.43 1.81 0.28 0.28 0 0 1 0.09 0.18 v2.2c0 0.53 0 1.06 0.08 1.59s0.14 1.09 0.21 1.63v0.25h-0.11l-2.39-0.18a0.13 0.13 0 0 1-0.13-0.1l-0.37-1a12.88 12.88 0 0 0-0.94-1.88 14.21 14.21 0 0 0-3.53-4A16.74 16.74 0 0 0 13.7 0.44 l-0.76-0.33zM26.08 11c0.28 0.07 0.52 0.13 0.75 0.2 a19.975 19.975 0 0 1 2.1 0.81 0.28 0.28 0 0 1 0.13 0.19 c0.06 0.38 0.14 0.76 0.16 1.14a12.19 12.19 0 0 1 0 2.14c0 0.3 0 0.6-0.08 0.91 -0.08 0.31 -0.1 0.75 -0.17 1.12a9 9 0 0 1-0.2 0.89 23 23 0 0 1-2.69-7.4zM25.68 5.06a14.83 14.83 0 0 1 3 5.67l-0.39-0.14-1.85-0.59-0.44-0.11a0.17 0.17 0 0 1-0.09-0.11c-0.07-0.57-0.13-1.14-0.19-1.7a19.85 19.85 0 0 1-0.09-2.66v-0.35l0.05-0.01z" fill="#FFF"/>
</svg>
