<?xml version="1.0" ?>
<svg xmlns="http://www.w3.org/2000/svg" width="34" height="32" viewBox="0 0 34 32">
  <path d="M1 22v-6.34a0.8 0.8 0 0 1 0.35-0.66l5-4.13 4.93-4.09a0.93 0.93 0 0 1 0.57-0.23l2.94-0.1c1.595-0.03 3.19 0.02 4.78 0.15 0.9 0.08 1.81 0.19 2.71 0.3 0.31 0 0.63 0.08 0.94 0.13 a0.3 0.3 0 0 0 0.35-0.16 2.53 2.53 0 0 0 0.33-1.47V2.65c0-0.13 0-0.2-0.17-0.23a0.71 0.71 0 0 1-0.62-0.66 7.08 7.08 0 0 1 0-1 0.75 0.75 0 0 1 0.8-0.72h5.66a1.08 1.08 0 0 1 0.43 0.08 0.76 0.76 0 0 1 0.41 0.69 v0.8a0.8 0.8 0 0 1-0.69 0.82 c-0.14 0-0.13 0.11 -0.13 0.2 v3.03a1.94 1.94 0 0 0 0.3 1.1c0.32 0.514 0.691 0.993 1.11 1.43a13.58 13.58 0 0 1 1.85 2.35 6.18 6.18 0 0 1 0.73 2.37c0.04 0.46 0.06 0.92 0.06 1.38v15a1.68 1.68 0 0 1-1 1.54 5.32 5.32 0 0 1-1.18 0.21 H22a2.48 2.48 0 0 1-1.11-0.19 1.91 1.91 0 0 1-1.14-1.66v-2.47c0-0.4 0-0.41-0.4-0.34l-2.76 0.43 -2.25 0.35 -2.21 0.35 -2.23 0.34 -2.2 0.36 -1.84 0.28 -1.8 0.28 -1.79 0.23 h-0.28a0.84 0.84 0 0 1-1-0.81C0.997 26.143 1 24.08 1 22zm31-1.1v-5-2.15a1.67 1.67 0 0 0-0.05-0.5 1.38 1.38 0 0 0-1.38-1H23a1.84 1.84 0 0 0-0.47 0.07 1.41 1.41 0 0 0-1.08 1.41V28c0 0.255 0.08 0.504 0.23 0.71a1.61 1.61 0 0 0 1.34 0.64 h7.59a1.38 1.38 0 0 0 1.39-1 2.38 2.38 0 0 0 0.05-0.65v-3.46L32 20.9zM2.64 22v5.17c0 0.19 0 0.21 0.22 0.18l0.31-0.06L4.92 27l1.8-0.3 1.84-0.28 1.78-0.29 2.19-0.34 2.23-0.36 2.2-0.34c0.89-0.14 1.77-0.29 2.66-0.42a0.17 0.17 0 0 0 0.16-0.19v-0.73-3.51-0.21c0-0.07 0-0.11-0.13-0.11a3.77 3.77 0 0 1-0.58 0 2.28 2.28 0 0 1-1.85-3 2.41 2.41 0 0 1 2.39-1.53c0.17 0 0.18 0 0.18-0.18v-1.77c0-0.11 0-0.14-0.14-0.12l-0.53 0.11 -1.73 0.33 c-0.7 0.14 -1.4 0.29 -2.1 0.42 l-2.12 0.41 -2.42 0.41 -2.45 0.47 -2.76 0.53 -2.74 0.53 a0.17 0.17 0 0 0-0.16 0.18 c0.005 0.09 0.005 0.18 0 0.27V22zM22 8.63l-0.16-0.06-0.46-0.07c-0.95-0.09-1.91-0.22-2.87-0.26-1.28-0.06-2.57-0.05-3.86-0.07a0.81 0.81 0 0 0 0 1.61h0.65a43 43 0 0 1 5.44 0.25 0.28 0.28 0 0 0 0.21-0.1l1-1.18a0.76 0.76 0 0 1 0.05-0.12z" fill="#FFF"/>
  <path d="M29.58 20.86V27a0.8 0.8 0 0 1-0.58 0.8 0.81 0.81 0 0 1-1-0.8v-1.2V18.77v-3.95a0.84 0.84 0 0 1 0.19-0.59 0.82 0.82 0 0 1 1.45 0.51 v6.12h-0.06zM14.15 24.12a2.18 2.18 0 0 1-2-1.58 2.1 2.1 0 0 1 1.13-2.4 2.25 2.25 0 0 1 2.87 0.77 2.08 2.08 0 0 1-0.95 3 2.43 2.43 0 0 1-1.05 0.21 zM5.53 19.16A1.57 1.57 0 1 1 7.1 20.7a1.54 1.54 0 0 1-1.57-1.54z" fill="#FFF"/>
</svg>
