<?xml version="1.0" ?>
<svg xmlns="http://www.w3.org/2000/svg" width="28" height="37" viewBox="0 0 28 37">
  <path d="M0 7.84h27.35c0.34 0 0.34 0 0.34 0.33 v27.17a0.76 0.76 0 0 1-0.42 0.81 0.92 0.92 0 0 1-0.4 0.07 H0.84A0.76 0.76 0 0 1 0 35.4V8.13v-0.29zm4 13.33c0 0.32 0.08 0.81 0.13 1.3a7.53 7.53 0 0 0 0.63 2.33A9.68 9.68 0 0 0 8.17 29a9.42 9.42 0 0 0 4.63 1.75c0.814 0.042 1.63 0.018 2.44-0.07A7.27 7.27 0 0 0 17.7 30a9.73 9.73 0 0 0 5.37-5.73 0.5 0.5 0 0 1 0.22-0.21 2 2 0 0 0 1.14-1 3.57 3.57 0 0 0 0.34-2.77 2.76 2.76 0 0 0-1.33-1.76 0.33 0.33 0 0 1-0.17-0.18 9.86 9.86 0 0 0-8.92-7.15 9 9 0 0 0-3.3 0.4 9.06 9.06 0 0 0-3.31 1.73A9.83 9.83 0 0 0 4 21.17zM18.68 6.84H10c-0.33 0-0.33 0-0.33-0.31V0.3c0-0.22 0.05 -0.3 0.28 -0.3h16.92a0.72 0.72 0 0 1 0.82 0.82 v5.71c0 0.25-0.08 0.31 -0.32 0.3 l-8.69 0.01 zm6-3.44a1 1 0 0 0-1-1 1.1 1.1 0 0 0-1.06 1 1.1 1.1 0 0 0 1.06 1.07 1.06 1.06 0 0 0 0.97-1.07h0.03zm-5-1a1 1 0 0 0-1.08 1 1.046 1.046 0 1 0 2.09 0.09 1 1 0 0 0-1-1.11l-0.01 0.02 zM8.6 6.84H0.29c-0.24 0-0.29-0.08-0.29-0.3V0.79A0.73 0.73 0 0 1 0.8 0h7.56c0.18 0 0.27 0 0.27 0.24 V6.6c-0.01 0.07 -0.02 0.14 -0.03 0.24 zM2.19 4H6.17c0.19 0 0.29 0 0.28-0.25a5 5 0 0 1 0-0.67c0-0.2-0.08-0.26-0.26-0.26H2.45c-0.13 0-0.26 0-0.26 0.17 V4z" fill="#FFF"/>
  <path d="M7.72 21a6.13 6.13 0 1 1 5.93 6.12A6.12 6.12 0 0 1 7.72 21zm3.93 1.36c0.14-0.06 0.23 -0.08 0.3 -0.12L16 19.69c0.24-0.15 0.3 -0.33 0.18 -0.53a0.37 0.37 0 0 0-0.57-0.09l-3 1.88-1 0.65a0.33 0.33 0 0 0-0.17 0.45 c-0.01 0.11 0.12 0.19 0.21 0.29 v0.02zm1.55 0.57 a1.87 1.87 0 0 0 0.25-0.08l2.41-1.52a0.37 0.37 0 0 0 0.15-0.5c-0.09-0.15-0.31-0.17-0.52 0l-0.85 0.52 -1.54 1a0.31 0.31 0 0 0-0.13 0.41 c0.03 0.01 0.16 0.08 0.23 0.15 v0.02z" fill="#FFF"/>
</svg>
