<?xml version="1.0" ?>
<svg xmlns="http://www.w3.org/2000/svg" width="38" height="36" viewBox="0 0 38 36">
  <path d="M33.16 30.06h0.07a8.27 8.27 0 0 0 0.12-0.85c0-0.36 0-0.73-0.05-1.09a3.85 3.85 0 0 0-0.41-1.5 5.25 5.25 0 0 0-4.75-3.12 4.91 4.91 0 0 0-1.66 0.19 0.49 0.49 0 0 1-0.54-0.14l-5.23-4.78c-1.41-1.27-2.83-2.53-4.24-3.81l-5.19-4.69a0.56 0.56 0 0 1-0.24-0.6 4.52 4.52 0 0 0 0.05-1.47 5.46 5.46 0 0 0-0.46-1.74 5.24 5.24 0 0 0-4.09-3.08 4.86 4.86 0 0 0-2.36 0.19 L4 3.64a0.53 0.53 0 0 0 0.11 0.15 656.67 656.67 0 0 0 4 3.63c0.12 0.11 0.11 0.17 0 0.28C7 9 5.81 10.31 4.63 11.61c-0.18 0.2 -0.19 0.2 -0.38 0L0.65 8.37 0.23 8C0.16 7.93 0.1 7.93 0.08 8a2.52 2.52 0 0 0-0.08 0.59 13.3 13.3 0 0 0 0.07 1.55 5.11 5.11 0 0 0 2.01 3.3 4.79 4.79 0 0 0 2.11 1 6.13 6.13 0 0 0 1.42 0.09 c0.427-0.043 0.85 -0.11 1.27-0.2 0.19 0 0.36-0.11 0.55 0.08 0.57 0.59 1.23 1.09 1.85 1.64l5.62 5.07 6.55 5.95 0.81 0.74a0.25 0.25 0 0 1 0.09 0.26 7.48 7.48 0 0 0-0.13 0.95 6.27 6.27 0 0 0 0.4 2.38 5.24 5.24 0 0 0 1.9 2.34 5.09 5.09 0 0 0 2.66 0.91 5.3 5.3 0 0 0 1.94-0.22l0.15-0.08a0.78 0.78 0 0 0-0.1-0.15l-3.27-3-0.9-0.76 0.22 -0.25c1.15-1.28 2.31-2.55 3.47-3.83 0.16 -0.18 0.15 -0.18 0.34 0l3.19 2.89 0.94 0.81zm0.47-20.91l-0.12-0.09-5.86-5.29c-1-0.88-1.92-1.77-2.92-2.62A4.8 4.8 0 0 0 22.18 0a4.46 4.46 0 0 0-1.74 0.15 6.47 6.47 0 0 0-2.32 1.25A12.73 12.73 0 0 0 15.73 4l-0.23 0.33 h0.14a7.18 7.18 0 0 1 2.13-0.54 6.16 6.16 0 0 1 2.05 0.12 4.54 4.54 0 0 1 2 1l5 4.55 3.42 3.08c0.11 0.1 0.11 0.16 0 0.27-0.11 0.11 -0.34 0.39 -0.53 0.58 -0.19 0.19 -0.13 0.2 0 0.33l2.92 2.65c0.13 0.12 0.19 0.1 0.3 0 1.43-1.59 2.87-3.17 4.31-4.76l0.47-0.53-3.18-2.89-0.9 0.96 zM6.37 35.61l0.16-0.19 4.32-5c1.753-2 3.51-4.023 5.27-6.07 0.11 -0.13 0.07 -0.19 0-0.28l-4.16-3.76c-0.13-0.12-0.21-0.13-0.34 0L9.06 23l-6.47 6.85-1.19 1.27 4.97 4.49zm15.4-17.81a0.75 0.75 0 0 0 0.13-0.11l0.54-0.62C24.2 15 26 13 27.71 11c0.11-0.12 0.08 -0.19 0-0.28l-1.48-1.33-2.16-1.95c-0.1-0.09-0.17-0.13-0.29 0L20 11.51l-2.24 2.37c-0.07 0.08 -0.16 0.14 0 0.26l1.54 1.39 2.38 2.14 0.09 0.13zm9.71-11c0.18-0.19 0.35 -0.38 0.53 -0.56 0.18 -0.18 0.12 -0.22 0-0.34l-3.27-3-0.45-0.4c-0.19 0.21 -0.37 0.41 -0.56 0.6 -0.19 0.19 -0.09 0.19 0 0.28l3.75 3.42z" fill="#FFF"/>
  <path d="M33.16 30.06l-0.91-0.83-3.19-2.89c-0.19-0.16-0.18-0.16-0.34 0-1.16 1.28-2.32 2.55-3.47 3.83l-0.22 0.25 0.87 0.79 3.27 3a0.78 0.78 0 0 1 0.1 0.15 l-0.15 0.08 a5.3 5.3 0 0 1-1.94 0.22 5.09 5.09 0 0 1-2.66-0.91 5.24 5.24 0 0 1-1.9-2.34 6.27 6.27 0 0 1-0.4-2.38 7.48 7.48 0 0 1 0.13-0.95 0.25 0.25 0 0 0-0.09-0.26l-0.81-0.74-6.55-5.96-5.62-5.07C8.66 15.5 8 15 7.43 14.38c-0.19-0.19-0.36-0.12-0.55-0.08-0.42 0.09 -0.843 0.157 -1.27 0.2 a6.13 6.13 0 0 1-1.42-0.09 4.79 4.79 0 0 1-2.11-1 5.11 5.11 0 0 1-1.67-2.09 5.32 5.32 0 0 1-0.34-1.18A13.3 13.3 0 0 1 0 8.59a2.52 2.52 0 0 1 0.08-0.54c0-0.11 0.08 -0.11 0.15 0l0.42 0.36 3.6 3.26c0.19 0.18 0.2 0.18 0.38 0C5.81 10.31 7 9 8.15 7.7c0.1-0.11 0.11 -0.17 0-0.28a656.67 656.67 0 0 1-4-3.63 0.53 0.53 0 0 1-0.15-0.15l0.16-0.07a4.86 4.86 0 0 1 2.36-0.19 5.24 5.24 0 0 1 4.09 3.06 5.46 5.46 0 0 1 0.46 1.74c0.057 0.49 0.033 0.987 -0.07 1.47a0.56 0.56 0 0 0 0.24 0.6 l5.19 4.69c1.41 1.28 2.83 2.54 4.24 3.81l5.23 4.78a0.49 0.49 0 0 0 0.54 0.14 4.91 4.91 0 0 1 1.66-0.19 5.25 5.25 0 0 1 4.75 3.12c0.237 0.467 0.377 0.977 0.41 1.5 0 0.36 0.06 0.73 0.05 1.09a8.27 8.27 0 0 1-0.12 0.85 l-0.03 0.02 zM33.63 9.15l0.9-1 3.24 2.92-0.47 0.53 c-1.44 1.59-2.88 3.17-4.31 4.76-0.11 0.12 -0.17 0.14 -0.3 0l-2.92-2.65c-0.14-0.13-0.14-0.2 0-0.33s0.35-0.39 0.53 -0.58c0.18-0.19 0.1 -0.17 0-0.27l-3.44-3.02L21.83 5a4.54 4.54 0 0 0-2-1 6.16 6.16 0 0 0-2.05-0.12 7.18 7.18 0 0 0-2.13 0.54 h-0.14l0.22-0.42a12.73 12.73 0 0 1 2.39-2.6A6.47 6.47 0 0 1 20.44 0.18 4.46 4.46 0 0 1 22.18 0a4.8 4.8 0 0 1 2.55 1.12c1 0.85 1.95 1.74 2.92 2.62l5.86 5.29 0.12 0.12z" fill="#FFF"/>
  <path d="M6.37 35.61l-5-4.49 1.19-1.27L9.06 23l2.53-2.69c0.13-0.14 0.21 -0.13 0.34 0l4.16 3.76c0.1 0.09 0.14 0.15 0 0.28-1.76 2-3.517 4.023-5.27 6.07l-4.32 5-0.13 0.19 zM21.77 17.8l-0.16-0.13-2.38-2.14-1.54-1.39c-0.14-0.12-0.05-0.18 0-0.26L20 11.51l3.83-4.08c0.12-0.12 0.19 -0.08 0.29 0l2.16 2 1.45 1.32c0.11 0.09 0.14 0.16 0 0.28-1.76 2-3.51 4-5.27 6.08l-0.54 0.62 a0.75 0.75 0 0 1-0.15 0.07 zM31.48 6.78L27.73 3.4c-0.11-0.09-0.13-0.17 0-0.28 0.13 -0.11 0.37 -0.39 0.56 -0.6l0.45 0.4 3.27 3c0.14 0.12 0.16 0.21 0 0.34-0.16 0.13 -0.35 0.33 -0.53 0.52 z" fill="#FFF"/>
</svg>
