<?xml version="1.0" ?>
<svg xmlns="http://www.w3.org/2000/svg" width="36" height="36" viewBox="0 0 36 36">
  <path d="M25 7.39a7.39 7.39 0 1 1-14.78 0 7.39 7.39 0 0 1 14.78 0zm-7.85 2.84a1.83 1.83 0 0 1-0.87-1.07c-0.09-0.27-0.09-0.27-0.39-0.22h-0.12l-1 0.09c-0.05 0-0.14 0.09 -0.13 0.12 0.07 0.342 0.17 0.676 0.3 1A2.72 2.72 0 0 0 17 11.68c0.13 0 0.2 0.08 0.19 0.22 -0.01 0.14 0 0.49 0 0.74s0 0.24 0.21 0.22h0.44c0.25 0 0.25 0 0.25-0.24V12c0-0.24 0-0.24 0.24 -0.3a4.19 4.19 0 0 0 0.81-0.22 2.5 2.5 0 0 0 1.46-2.23 4.69 4.69 0 0 0-0.11-1 1.89 1.89 0 0 0-1-1.25 5.3 5.3 0 0 0-1.32-0.56 0.25 0.25 0 0 1-0.17-0.31v-2A1 1 0 0 1 18 4c0.332 0.118 0.586 0.39 0.68 0.73 0 0.16 0.11 0.22 0.28 0.19 0.41 -0.07 0.82 -0.11 1.22-0.16 0.11 0 0.15-0.07 0.12 -0.17a3 3 0 0 0-0.59-1.23 2.34 2.34 0 0 0-1.55-0.79c-0.13 0-0.18-0.07-0.18-0.2v-0.41H17.38c-0.3 0-0.31 0-0.3 0.29 a0.17 0.17 0 0 1-0.16 0.19 l-0.39 0.08 a2.22 2.22 0 0 0-1.24 0.83 2.66 2.66 0 0 0-0.51 2c0.063 0.505 0.271 0.981 0.6 1.37 0.404 0.482 0.944 0.83 1.55 1a0.25 0.25 0 0 1 0.23 0.3 v2.08a2.15 2.15 0 0 1-0.05 0.13 h0.04zM4.17 22.47v2.22a0.71 0.71 0 0 1-0.44 0.65 0.78 0.78 0 0 1-0.92-0.23 0.73 0.73 0 0 1-0.12-0.35v-3.17a0.66 0.66 0 0 1 0.69-0.59h13.93c0.17 0 0.21-0.05 0.21 -0.22v-3.06a0.76 0.76 0 0 1 0.65-0.8 0.71 0.71 0 0 1 0.85 0.67 v3.17c0 0.23 0 0.23 0.24 0.23h12.36a0.7 0.7 0 0 1 0.7 0.33 0.8 0.8 0 0 1 0.12 0.38 v3a0.72 0.72 0 0 1-0.64 0.72 0.76 0.76 0 0 1-0.83-0.48 1.13 1.13 0 0 1 0-0.32v-1.94c0-0.16-0.05-0.22-0.21-0.22H19.23c-0.19 0-0.22 0.06 -0.22 0.23 v2a0.7 0.7 0 0 1-0.63 0.75 0.71 0.71 0 0 1-0.82-0.47 0.92 0.92 0 0 1 0-0.29v-2c0-0.16-0.05-0.21-0.21-0.21H4.17zM7.48 28v7.26c0 0.16 0 0.22-0.22 0.22 h-7c-0.22 0-0.24 0-0.24-0.23v-7C0 28 0.05 28 0.21 28h7.27zM28 28h7.24c0.24 0 0.24 0 0.24 0.23 v7c0 0.25 0 0.26-0.26 0.26 h-7c-0.24 0-0.24 0-0.24-0.25V28H28zM14 28h7.42V35.27c0 0.17-0.06 0.21 -0.23 0.21 h-7c-0.16 0-0.23 0-0.23-0.21v-7.09A1.28 1.28 0 0 1 14 28z" fill="#FFF"/>
  <path d="M18 10.38v-0.15-2c0-0.17 0.08 -0.2 0.21 -0.16 0.487 0.125 0.838 0.549 0.87 1.05a1.35 1.35 0 0 1-0.89 1.27 0.72 0.72 0 0 1-0.19-0.01zM17.11 3.86v2.05a1.24 1.24 0 0 1-0.79-0.86 1.07 1.07 0 0 1 0.79-1.19z" fill="#FFF"/>
</svg>
