<?xml version="1.0" ?>
<svg xmlns="http://www.w3.org/2000/svg" width="44" height="36" viewBox="0 0 44 36">
  <path d="M6.82 26V15.78c-0.21 0.17 -0.38 0.3 -0.54 0.45 -1.55 1.36-3.11 2.77-4.65 4.1-0.15 0.13 -0.23 0.14 -0.36 0-0.38-0.44-0.78-0.84-1.17-1.26-0.13-0.13-0.14-0.22 0-0.36 1.72-1.473 3.433-2.95 5.14-4.43 1.57-1.35 3.13-2.71 4.7-4a0.64 0.64 0 0 0 0.24-0.53V3.15h2.12v5a1.38 1.38 0 0 0 0.25-0.15l4.56-4L21.22 0.31 c0.48-0.41 0.49 -0.42 1 0L27 4.5l4.19 3.65 5.15 4.5 5.14 4.48 1.83 1.59c0.15 0.12 0.13 0.22 0 0.34-0.41 0.43 -0.81 0.85 -1.21 1.29-0.12 0.13 -0.2 0.1 -0.32 0l-4.64-4.08-0.56-0.48V26" fill="#FFF"/>
  <path d="M36.56 23.92V35.89H6.84V24" fill="#FFF"/>
  <path d="M26.3 30.65v0.05h-7.2c-0.16 0-0.23 0-0.22 0.21 0.01 0.21 0 0.58 0 0.87 0 0.14 0.05 0.19 0.19 0.2 0.53 0 1.06 0.08 1.59 0.13 l2.89 0.29 2.47 0.23 2.35 0.21 a0.48 0.48 0 0 1 0.26 0.12 c0.24 0.22 0.47 0.46 0.7 0.69 0.07 0.062 0.147 0.116 0.23 0.16 a0.52 0.52 0 0 0 0.58-0.19c1.07-1.07 2.14-2.13 3.2-3.2l1.64-1.64a0.49 0.49 0 0 0 0-0.79l-1-1a0.57 0.57 0 0 1-0.12-0.18c-0.14-0.37-0.27-0.76-0.42-1.13a13.69 13.69 0 0 0-1.61-3.08 6.82 6.82 0 0 0-2.51-2.26 4.2 4.2 0 0 0-1.8-0.45 4.6 4.6 0 0 0-1 0.12 4 4 0 0 0-2.11 1.2 4.46 4.46 0 0 0-1.23 2.42 4.09 4.09 0 0 0 1 3.48c0.08 0.09 0.08 0.15 0 0.23-0.1 0.08 -0.19 0.17 -0.27 0.27 a0.5 0.5 0 0 0 0 0.62l0.14 0.16 L25.69 30c0.2 0.25 0.4 0.45 0.61 0.65 z" fill="#699305"/>
  <path d="M26.3 30.65c-0.21-0.2-0.41-0.4-0.61-0.61L24 28.36l-0.14-0.16a0.5 0.5 0 0 1 0-0.62c0.08-0.1 0.17 -0.19 0.27 -0.27 0.08 -0.08 0.08 -0.14 0-0.23a4.09 4.09 0 0 1-1-3.48 4.46 4.46 0 0 1 1.23-2.42A4 4 0 0 1 26.49 20a4.6 4.6 0 0 1 1-0.12 4.2 4.2 0 0 1 1.8 0.45 6.82 6.82 0 0 1 2.51 2.26 13.69 13.69 0 0 1 1.61 3.08c0.15 0.37 0.28 0.76 0.42 1.13a0.57 0.57 0 0 0 0.12 0.18 l1 1a0.49 0.49 0 0 1 0 0.79l-1.65 1.65c-1.06 1.07-2.13 2.13-3.2 3.2a0.52 0.52 0 0 1-0.58 0.19 1.19 1.19 0 0 1-0.23-0.16c-0.23-0.23-0.46-0.47-0.7-0.69a0.48 0.48 0 0 0-0.26-0.12L26 32.63l-2.47-0.23-2.89-0.29c-0.53 0-1.06-0.1-1.59-0.13-0.14 0-0.19-0.06-0.19-0.2v-0.87c0-0.29 0.06 -0.21 0.22 -0.21h7.2l0.02-0.05zm5.55-5.72a1.22 1.22 0 0 0-0.07-0.17c-0.21-0.37-0.41-0.76-0.64-1.12a6.75 6.75 0 0 0-1.8-2 3.2 3.2 0 0 0-2.8-0.64 3.42 3.42 0 0 0-2.38 3 3.07 3.07 0 0 0 0.72 2.37c0.08 0.1 0.13 0.09 0.21 0l1.4-1.37c0.77-0.77 1.54-1.54 2.3-2.32a0.55 0.55 0 0 1 0.81 0c0.54 0.56 1.1 1.11 1.66 1.67 0.2 0.16 0.39 0.37 0.59 0.58z" fill="#699305"/>
  <path d="M31.85 24.93c-0.2-0.21-0.39-0.42-0.59-0.62-0.56-0.56-1.12-1.11-1.66-1.67a0.55 0.55 0 0 0-0.81 0c-0.76 0.78 -1.53 1.55-2.3 2.32l-1.4 1.39c-0.08 0.08 -0.13 0.09 -0.21 0a3.07 3.07 0 0 1-0.72-2.35 3.42 3.42 0 0 1 2.38-3 3.2 3.2 0 0 1 2.85 0.56 6.75 6.75 0 0 1 1.8 2c0.23 0.36 0.43 0.75 0.64 1.12 0.028 0.055 0.051 0.112 0.07 0.17l-0.05 0.08 z" fill="#FFF"/>
</svg>
