<?xml version="1.0" ?>
<svg xmlns="http://www.w3.org/2000/svg" width="35" height="36" viewBox="0 0 35 36">
  <path d="M20.33 21.62V34.7c0 0.36 0 0.36-0.37 0.36 h-5c-0.25 0-0.25 0-0.25-0.27V12.54 8.85a2.3 2.3 0 0 1 1.55-2.33 3.25 3.25 0 0 1 3.16 0.29 2 2 0 0 1 1 1.81v13h-0.09z" fill="#FFF"/>
  <path d="M27.1 5.4a4.89 4.89 0 0 0-6.05 1l-0.13-0.11a4.56 4.56 0 0 0-4.08-1.43A4.24 4.24 0 0 0 14 6.28c-0.09 0.1 -0.14 0.1 -0.24 0a4.57 4.57 0 0 0-3.71-1.5A4.49 4.49 0 0 0 8 5.36a0.38 0.38 0 0 1-0.11 0c-0.06-0.21-0.11-0.42-0.17-0.62a4.92 4.92 0 0 0-1.38-2.3 3.83 3.83 0 0 0-1.86-0.91A3.23 3.23 0 0 0 3 1.58a2 2 0 0 0-1.47 1.48 3.07 3.07 0 0 0 0.27 2.26A1.19 1.19 0 0 0 3.17 6a1.5 1.5 0 0 0 1.36-1.5c0-0.27 0-0.27 0.29 -0.27h1.06c0.11 0 0.17 0 0.16 0.15 a3.13 3.13 0 0 1-1.47 2.68 2.88 2.88 0 0 1-2.84 0.19 A2.89 2.89 0 0 1 0.34 5.59a4.49 4.49 0 0 1-0.27-2.48A3.6 3.6 0 0 1 2.57 0.18 4 4 0 0 1 3.86 0h27.38a3.67 3.67 0 0 1 3.61 2.75 4.5 4.5 0 0 1 0 2 3.88 3.88 0 0 1-0.76 1.81 2.54 2.54 0 0 1-2.47 0.93 2.88 2.88 0 0 1-1.79-0.83A3.39 3.39 0 0 1 29 4.4c0-0.11 0-0.16 0.15 -0.16h1.19c0.14 0 0.16 0.08 0.16 0.19 a2 2 0 0 0 0.3 1 1.66 1.66 0 0 0 1.88 0.51 1.41 1.41 0 0 0 0.67-0.79 3.34 3.34 0 0 0 0.17-2.07 2.11 2.11 0 0 0-1.86-1.54 4 4 0 0 0-3.93 2.25 6.21 6.21 0 0 0-0.63 1.61z" fill="#FFF"/>
  <path d="M8.2 21.1V7.47A0.53 0.53 0 0 1 8.4 7a3 3 0 0 1 2.54-0.73 2.92 2.92 0 0 1 1.74 0.84 c0.373 0.37 0.58 0.875 0.57 1.4v26.14c0 0.48 0.05 0.41-0.41 0.41 H8.45c-0.25 0-0.25 0-0.25-0.25V21.1zM26.79 21.08v13.71c0 0.27 0 0.27-0.26 0.27 H22c-0.25 0-0.25 0-0.25-0.25v-16-10a2.32 2.32 0 0 1 1.55-2.34 3.21 3.21 0 0 1 3.14 0.29 l0.12 0.09 a0.6 0.6 0 0 1 0.26 0.55 V21.03l-0.03 0.05 z" fill="#FFF"/>
</svg>
