<?xml version="1.0" ?>
<svg xmlns="http://www.w3.org/2000/svg" width="28" height="30" viewBox="0 0 28 30">
  <path d="M12 21.41l-0.66 0.68 a0.13 0.13 0 0 0 0 0.12c0.227 0.349 0.319 0.768 0.26 1.18-0.03 0.31 -0.16 0.6 -0.37 0.83 -0.43 0.45 -0.87 0.89 -1.33 1.31a1.62 1.62 0 0 1-0.91 0.39 4.89 4.89 0 0 1-0.59 0.08 4.2 4.2 0 0 1-1.52-0.33 9.13 9.13 0 0 1-3.63-2.76A7.57 7.57 0 0 1 2 20.71a4.19 4.19 0 0 1-0.32-1.79 2.15 2.15 0 0 1 0.6-1.43c0.4-0.39 0.78 -0.8 1.2-1.17a1.65 1.65 0 0 1 1.89-0.11 0.17 0.17 0 0 0 0.26 0c0.18-0.2 0.37 -0.37 0.56 -0.56a0.13 0.13 0 0 0 0-0.18 2.28 2.28 0 0 1-0.24-1.25 2.66 2.66 0 0 1 0.7-1.5c1-1.14 2-2.31 3-3.46l4.11-4.77L17 0.71a2 2 0 0 1 1.1-0.66 2.07 2.07 0 0 1 2 0.68A960.581 960.581 0 0 0 27 7.62a2 2 0 0 1 0.63 1.66 2 2 0 0 1-0.72 1.37l-3.6 3.1-4.54 3.92-3.48 3a7.17 7.17 0 0 1-1 0.73 1.94 1.94 0 0 1-1.46 0.24 l-0.83-0.23zM10.47 9.75h15.79c0.06 0 0.16 0 0.18-0.06a1.7 1.7 0 0 0 0.19-0.5 1 1 0 0 0-0.36-0.9l-2.65-2.65-4.33-4.33a1 1 0 0 0-0.74-0.31 1.21 1.21 0 0 0-1 0.5l-3.62 4.22L11 9.11l-0.53 0.64 zM8.46 25a1.37 1.37 0 0 0 1.12-0.47 10 10 0 0 1 0.8-0.8 0.8 0.8 0 0 0 0-1.21c-0.8-0.79-1.6-1.59-2.39-2.38-1-1-1.95-1.94-2.91-2.92a0.8 0.8 0 0 0-1.21 0c-0.27 0.31 -0.57 0.59 -0.87 0.87 a1.27 1.27 0 0 0-0.4 0.91 3.8 3.8 0 0 0 0.56 2 8.56 8.56 0 0 0 3.76 3.58 3.67 3.67 0 0 0 1.54 0.42 z" fill="#FFF"/>
  <path d="M 4.97 27.215 C 5.52228474983 27.215 5.97 27.6627152502 5.97 28.215 C 5.97 28.7672847498 5.52228474983 29.215 4.97 29.215 C 4.41771525017 29.215 3.97 28.7672847498 3.97 28.215 C 3.97 27.6627152502 4.41771525017 27.215 4.97 27.215 Z" fill="#FFF"/>
  <path d="M2.25 23.61a0.48 0.48 0 1 1-0.02 0.96 0.48 0.48 0 0 1 0.02-0.96zM0.5 27.25a0.5 0.5 0 1 1 0 1 0.5 0.5 0 0 1 0-1z" fill="#FFF"/>
  <path d="M 2.964 26.686 C 3.51628474983 26.686 3.964 27.1337152502 3.964 27.686 C 3.964 28.2382847498 3.51628474983 28.686 2.964 28.686 C 2.41171525017 28.686 1.964 28.2382847498 1.964 27.686 C 1.964 27.1337152502 2.41171525017 26.686 2.964 26.686 Z" fill="#FFF"/>
  <path d="M 2.611 28.513 C 3.16328474983 28.513 3.611 28.9607152502 3.611 29.513 C 3.611 30.0652847498 3.16328474983 30.513 2.611 30.513 C 2.05871525017 30.513 1.611 30.0652847498 1.611 29.513 C 1.611 28.9607152502 2.05871525017 28.513 2.611 28.513 Z" fill="#FFF"/>
  <path d="M2.12 25.6a0.47 0.47 0 0 1 0.49 0.47 0.5 0.5 0 0 1-0.48 0.49 0.5 0.5 0 0 1-0.49-0.49 0.48 0.48 0 0 1 0.48-0.47zM5 26.12a0.5 0.5 0 1 1-1 0 0.48 0.48 0 0 1 0.49-0.48 0.47 0.47 0 0 1 0.51 0.48 zM5 21.86a0.28 0.28 0 0 0-0.28 0.34 0.9 0.9 0 0 0 0.48 0.6 c0.24 0.12 0.42 0.11 0.5-0.1a0.48 0.48 0 0 0 0-0.29 0.89 0.89 0 0 0-0.7-0.55zm-1.43-1.28a0.91 0.91 0 0 0 0.54 0.74 c0.25 0.08 0.41 0 0.38-0.3a0.82 0.82 0 0 0-0.53-0.7 0.26 0.26 0 0 0-0.39 0.26 zm3 2.54a0.27 0.27 0 0 0-0.27 0.42 0.93 0.93 0 0 0 0.7 0.46 0.28 0.28 0 0 0 0.31-0.36 0.86 0.86 0 0 0-0.75-0.52h0.01z" fill="#FFF"/>
  <path d="M5 21.86a0.89 0.89 0 0 1 0.67 0.55 0.48 0.48 0 0 1 0 0.29c-0.08 0.21 -0.26 0.22 -0.5 0.1 a0.9 0.9 0 0 1-0.48-0.6 0.28 0.28 0 0 1 0.31-0.34zM3.57 20.58a0.26 0.26 0 0 1 0.4-0.26 0.82 0.82 0 0 1 0.53 0.7 c0 0.26-0.13 0.37 -0.38 0.3 a0.91 0.91 0 0 1-0.55-0.74zM6.56 23.12a0.86 0.86 0 0 1 0.75 0.54 A0.28 0.28 0 0 1 7 24a0.93 0.93 0 0 1-0.71-0.48 0.27 0.27 0 0 1 0.27-0.4z" fill="#FFF"/>
</svg>
