<?xml version="1.0" ?>
<svg xmlns="http://www.w3.org/2000/svg" width="44" height="30" viewBox="0 0 44 30">
  <path d="M38.69 13.39v-0.86a0.23 0.23 0 0 0-0.14-0.25A5.27 5.27 0 0 1 37 11a4.12 4.12 0 0 1-0.71-1.28 5.23 5.23 0 0 1-0.27-1.12 9 9 0 0 1 0-1.8c0.049-0.48 0.122 -0.957 0.22 -1.43 0.06 -0.35 0.14 -0.69 0.23 -1a5.69 5.69 0 0 1 0.63-1.51 5.11 5.11 0 0 1 1.45-1.55 1.71 1.71 0 0 1 2.12 0.06 4.75 4.75 0 0 1 1.39 1.57A8 8 0 0 1 42.57 4c0.14 0.4 0.24 0.81 0.34 1.22 0.06 0.24 0.08 0.5 0.13 0.75a6 6 0 0 1 0.14 1.34c0.002 0.421 -0.022 0.842 -0.07 1.26a5.08 5.08 0 0 1-0.19 0.86 4.09 4.09 0 0 1-0.68 1.35 5.23 5.23 0 0 1-1.76 1.51 0.2 0.2 0 0 0-0.1 0.18 c0 0.84 0.07 1.68 0.1 2.51v0.35c0 0.94 0 1.88 0.07 2.82 0 1.64 0.11 3.28 0.18 4.91 0 0.7 0.07 1.39 0.11 2.08 0.04 0.69 0.09 1.31 0.13 2 0 0.49 0.06 1 0.1 1.46a1.31 1.31 0 0 1-1 1.29 1.78 1.78 0 0 1-1.41-0.12 1.19 1.19 0 0 1-0.66-1.2c0.05-0.65 0.08 -1.3 0.12 -1.95 0.05 -0.94 0.1 -1.87 0.17 -2.81s0.1-2.08 0.12 -3.13c0-1.67 0.1 -3.34 0.16 -5 0-0.75 0-1.51 0.07 -2.27l0.05-0.02zM32.83 8.83v8.09c0 1.82 0.1 3.63 0.15 5.44 0 0.8 0 1.59 0.08 2.38 0 0.6 0.1 1.19 0.15 1.78l0.06 0.8 0.09 1.18v0.42a0.73 0.73 0 0 1-0.39 0.71 2.15 2.15 0 0 1-1.61 0.25 1.56 1.56 0 0 1-0.75-0.31 0.75 0.75 0 0 1-0.3-0.68c0.04-0.313 0.07 -0.623 0.09 -0.93 0-0.34 0.05 -0.69 0.08 -1 0-0.59 0.12 -1.18 0.16 -1.77 0.04 -0.59 0-1.14 0.07 -1.71 0-1.51 0.09 -3 0.14-4.53l0.15-2.68a0.22 0.22 0 0 0-0.1-0.22l-1.61-1.32a0.27 0.27 0 0 1-0.12-0.24v-3.73c0-1.24 0.07 -2.21 0.12 -3.32 0-0.55 0.07 -1.1 0.11 -1.65 0.04 -0.55 0.11 -1.09 0.18 -1.64 0.07 -0.55 0.14 -0.87 0.24 -1.3a4.88 4.88 0 0 1 0.75-1.79 2.44 2.44 0 0 1 1.23-1 2.05 2.05 0 0 1 0.93-0.06c0.1 0 0.09 0.07 0.09 0.14 v8.69h0.01zM25.93 5.94v3.55a1.63 1.63 0 0 1-0.6 1.33c-0.44 0.38 -0.87 0.79 -1.29 1.19a0.31 0.31 0 0 0-0.09 0.22 c0 1.71 0.09 3.41 0.14 5.12v1.56c0 1.27 0.07 2.53 0.12 3.8 0 0.68 0.08 1.37 0.12 2.05l0.18 2.83c0 0.36 0 0.72 0.06 1.08a1.19 1.19 0 0 1-0.7 1.14 1.73 1.73 0 0 1-1.09 0.17 1.44 1.44 0 0 1-1.13-0.77 1 1 0 0 1-0.11-0.46c0-0.62 0.07 -1.23 0.11 -1.84v-0.06c0.06-1.15 0.13 -2.3 0.18 -3.46 0.05 -1.16 0.17 -2.39 0.17 -3.63 0-1.5 0.09 -3 0.13-4.49 0-0.52 0-1 0.05-1.56s0-1 0.05-1.53a0.28 0.28 0 0 0-0.1-0.23c-0.48-0.46-1-0.92-1.43-1.4a1.43 1.43 0 0 1-0.41-1v-3-4.27a0.91 0.91 0 0 1 0.13-0.46 0.35 0.35 0 0 1 0.66 0.16 v5.9c0 0.18 0 0.18 0.19 0.18h0.52C22 8 22 8 22 7.81V1.62a0.36 0.36 0 0 1 0.42-0.38 0.33 0.33 0 0 1 0.3 0.3 v6.21c0 0.22 0 0.22 0.22 0.22h0.49c0.13 0 0.17 0 0.17-0.16v-6.2a0.36 0.36 0 0 1 0.21-0.34 0.35 0.35 0 0 1 0.39 0 0.37 0.37 0 0 1 0.13 0.31 v6.21c0 0.17 0 0.18 0.18 0.18h0.54c0.12 0 0.15 0 0.15-0.15v-6a0.34 0.34 0 0 1 0.38-0.36c0.16 0 0.21 0.16 0.25 0.27 0.06 0.143 0.09 0.296 0.09 0.45 v3.76h0.01zM7.36 18.53h6.84c0.24 0 0.54 0.09 0.82 0.14 0.342 0.057 0.673 0.169 0.98 0.33 a2.56 2.56 0 0 1 1.14 1.09c0.178 0.343 0.271 0.724 0.27 1.11a5.08 5.08 0 0 1-0.05 0.87 A3.78 3.78 0 0 1 16 24.42a4.59 4.59 0 0 1-1.41 0.76 9.34 9.34 0 0 1-1 0.27l-0.57 0.09 a0.19 0.19 0 0 0-0.11 0.09 c-0.21 0.27 -0.4 0.55 -0.62 0.81 a4.72 4.72 0 0 1-1.1 0.94 l-0.65 0.38 a0.51 0.51 0 0 1-0.25 0.06 H3.57a0.78 0.78 0 0 1-0.4-0.15 6.33 6.33 0 0 1-1.3-0.94A5.13 5.13 0 0 1 0.66 25a3.54 3.54 0 0 1-0.31-1.41v-4.91c0-0.18 0-0.18 0.18 -0.18l6.83 0.03 zm6.15 5.61h0.13a5.07 5.07 0 0 0 1.09-0.4 2.57 2.57 0 0 0 1.11-1 2.66 2.66 0 0 0 0.31-1.52 1.09 1.09 0 0 0-0.43-0.84 2.56 2.56 0 0 0-1.18-0.46c-0.28-0.05-0.57-0.06-0.86-0.09-0.29-0.03-0.17 0-0.17 0.15 v4.19-0.03zM6.93 29.77H0.54a0.55 0.55 0 0 1-0.54-0.56 0.54 0.54 0 0 1 0.57-0.48H13.3a0.56 0.56 0 0 1 0.54 0.36 0.52 0.52 0 0 1-0.46 0.68 H6.93zM7.67 7.56h0.12a5.41 5.41 0 0 1 1.32 0.85 c0.41 0.365 0.75 0.802 1 1.29a4 4 0 0 1 0.35 1c0.066 0.313 0.103 0.63 0.11 0.95 a2.62 2.62 0 0 1-1 2.15 11.21 11.21 0 0 0-0.93 0.89 2.38 2.38 0 0 0-0.54 0.92 3.63 3.63 0 0 0-0.1 1.25V17a0.41 0.41 0 0 1-0.07-0.11c-0.08-0.31-0.18-0.62-0.23-0.94a6.56 6.56 0 0 1 0-0.89 4.07 4.07 0 0 1 0-0.49 2.82 2.82 0 0 1 0.29-0.89c0.18-0.34 0.39 -0.67 0.57 -1a3 3 0 0 0 0.4-1.24 9.14 9.14 0 0 0 0-1.17 3.82 3.82 0 0 0-0.22-1A4.07 4.07 0 0 0 8 7.9c-0.1-0.11-0.21-0.21-0.32-0.31l-0.01-0.03zM6 17.35c-0.19-0.27-0.39-0.53-0.57-0.8a3.34 3.34 0 0 1-0.46-1 2.23 2.23 0 0 1 0-1.33c0.12-0.32 0.28 -0.63 0.43 -0.94a6.11 6.11 0 0 0 0.41-1.18 4.43 4.43 0 0 0 0.1-1.58 2.23 2.23 0 0 0-0.63-1.42c-0.1-0.1-0.22-0.18-0.33-0.29 0.118 0.03 0.235 0.067 0.35 0.11 0.281 0.121 0.552 0.265 0.81 0.43a2.8 2.8 0 0 1 1.1 1.37 3.7 3.7 0 0 1 0.24 1.44 3.14 3.14 0 0 1-0.56 1.7c-0.22 0.33 -0.44 0.66 -0.64 1a2.29 2.29 0 0 0-0.29 0.82 4 4 0 0 0 0 1 3.5 3.5 0 0 0 0.07 0.45 0.76 0.76 0 0 1 0 0.15l-0.03 0.07 z" fill="#FFF"/>
  <path d="M13.51 24.14V20c0-0.15 0-0.16 0.17 -0.15 0.17 0.01 0.58 0 0.86 0.09 0.426 0.052 0.831 0.21 1.18 0.46 0.263 0.2 0.422 0.51 0.43 0.84 a2.66 2.66 0 0 1-0.31 1.52 2.57 2.57 0 0 1-1.11 1 5.07 5.07 0 0 1-1.09 0.4 l-0.13-0.02z" fill="#85893A"/>
</svg>
