<?xml version="1.0" ?>
<svg xmlns="http://www.w3.org/2000/svg" width="29" height="30" viewBox="0 0 29 30">
  <path d="M13 17.23l-0.14-0.1a1.11 1.11 0 0 1-0.44-1.08 1.07 1.07 0 0 1 0.85-0.94c0.71-0.17 1.42-0.32 2.14-0.47l2-0.45 2-0.43a1.46 1.46 0 0 0 0.3-0.07 0.33 0.33 0 0 0 0.16-0.12c0.52-0.86 1-1.71 1.53-2.58 0.13 -0.277 0.243 -0.56 0.34 -0.85a5.34 5.34 0 0 1 1.78-2.41A3.86 3.86 0 0 1 25.89 7a1.28 1.28 0 0 1 1.27 1.5c-0.1 0.64 -0.2 1.29-0.26 1.94a5.57 5.57 0 0 1-0.54 1.75c-0.71 1.57-1.4 3.13-2.09 4.7-0.21 0.47 -0.44 0.95 -0.61 1.44a3.07 3.07 0 0 0-0.05 1.92c0.09 0.37 0.19 0.73 0.3 1.12h-0.18a3.82 3.82 0 0 0-1.39 0l-1.66 0.26 -1.68 0.24 c-0.54 0.08 -1.09 0.16 -1.64 0.26 a2.68 2.68 0 0 0-0.73 0.22 0.64 0.64 0 0 0-0.35 0.52 c-0.12 0.86 -0.26 1.71-0.39 2.57-0.13 0.86 -0.24 1.72-0.37 2.57-0.07 0.51 -0.15 1-0.23 1.51a0.47 0.47 0 0 1-0.44 0.38 h-1.76a0.48 0.48 0 0 1-0.44-0.52c0-0.62 0.08 -1.23 0.13 -1.84l0.15-2c0.05-0.7 0.09 -1.39 0.14 -2.09 0.05 -0.7 0.11 -1.48 0.15 -2.23A2.12 2.12 0 0 1 14.93 19l2.05-0.5L19 18l1.2-0.3a0.21 0.21 0 0 0 0.13-0.13c0.06-0.36 0.11 -0.72 0.17 -1.08 0-0.11 0-0.14-0.13-0.12l-1.32 0.19 -1.5 0.21 -1.38 0.2 -1.48 0.21 -0.73 0.11 s-0.08 0.08 -0.09 0.13 c-0.01 0.05 0 0.26 0 0.39a0.92 0.92 0 0 1-1 0.82h-2.46c-0.2 0-0.2 0-0.2 0.19 V28.83c0 0.07 0 0.11 0.11 0.12a0.72 0.72 0 0 1 0.63 0.91 H0A0.71 0.71 0 0 1 0.7 29h1.36c0.22 0 0.22 0 0.22-0.21v-9.9c0-0.21 0-0.21-0.2-0.21H1a0.94 0.94 0 0 1-1-1c0-0.4 0-0.4 0.4 -0.4H13v-0.05z" fill="#FFF"/>
  <path d="M25 24.4h-1.11a0.16 0.16 0 0 0-0.18 0.13 0.47 0.47 0 0 1-0.49 0.34 H21a0.46 0.46 0 0 1-0.48-0.33 0.16 0.16 0 0 0-0.19-0.14h-2.27a0.71 0.71 0 0 1-0.73-0.57A0.72 0.72 0 0 1 18 23l2.12-0.33 1.66-0.26c0.26 0 0.53-0.07 0.79 -0.13 0.48 -0.07 0.969 -0.03 1.43 0.12 l1.55 0.42 a0.09 0.09 0 0 0 0.13-0.09c0-0.26 0.09 -0.51 0.13 -0.77 0-0.07 0-0.13-0.08-0.15a1.07 1.07 0 0 1-0.94-0.92c-0.08-0.35-0.19-0.69-0.27-1a2.42 2.42 0 0 1 0.19-1.57c1-2.2 2-4.39 2.92-6.59a0.83 0.83 0 0 1 1.12-0.44 0.4 0.4 0 0 1 0.25 0.48 c-0.12 0.67 -0.25 1.34-0.38 2-0.13 0.66 -0.25 1.38-0.37 2.07l-0.33 1.88c-0.09 0.51 -0.17 1-0.25 1.54l-0.27 1.53c-0.09 0.51 -0.17 1-0.26 1.54s-0.16 1-0.27 1.55a0.66 0.66 0 0 1-0.69 0.53 H25v-0.01zM5.34 12.63v2.21c0 0.23 0 0.22 0.24 0.25 0.47 0 0.94 0.1 1.41 0.16 h0.13l1 0.11h0.09l0.88 0.07 c0.17 0.01 0.32 0.115 0.39 0.27 0 0.18 0 0.37-0.14 0.48 a1 1 0 0 1-0.56 0.1 H4.49a0.47 0.47 0 0 1-0.58-0.35 0.13 0.13 0 0 1 0-0.06l0.09-0.76v-0.07c0-0.31 0-0.62 0.07 -0.93 0.07 -0.31 0.07 -0.55 0.1 -0.83v-0.06c0-0.31 0-0.63 0.07 -0.94 0.07 -0.31 0.07 -0.85 0.12 -1.27 0.05 -0.42 0.08 -0.77 0.11 -1.15A0.51 0.51 0 0 1 5 9.35h0.82c0.1 0 0.17 0 0.13-0.16-0.12-0.42-0.23-0.85-0.35-1.28-0.12-0.43-0.2-0.81-0.31-1.21-0.11-0.4-0.13-0.49-0.2-0.73s0-0.26 0.16 -0.31L6 5.44c0.22-0.06 0.28 0 0.34 0.22 0.1 0.38 0.21 0.76 0.31 1.14l0.27 1c0.09 0.32 0.17 0.63 0.26 0.94 0.09 0.31 0.21 0.82 0.32 1.22 0.11 0.4 0.27 1 0.4 1.44l0.3 1.17c0.09 0.34 0.18 0.67 0.28 1a0.21 0.21 0 0 1-0.16 0.29 l-0.78 0.23 a0.25 0.25 0 0 1-0.32-0.22c-0.07-0.32-0.17-0.63-0.26-0.95-0.09-0.32-0.17-0.68-0.26-1-0.09-0.32-0.21-0.78-0.32-1.17 0-0.12-0.07-0.24-0.09-0.36a0.325 0.325 0 0 0-0.36-0.25 2.16 2.16 0 0 1-0.44 0c-0.11 0-0.15 0-0.15 0.13 v2.36zM27.73 2.17a4.67 4.67 0 0 1-0.92 2.64 3.23 3.23 0 0 1-1.22 1.07 1.35 1.35 0 0 1-1.65-0.3 3.13 3.13 0 0 1-0.71-1.33 4.55 4.55 0 0 1-0.17-1.6c0.01-0.62 0.19 -1.225 0.52 -1.75a1.86 1.86 0 0 1 1.47-0.9 2.72 2.72 0 0 1 1.84 0.47 c0.416 0.28 0.696 0.723 0.77 1.22 0.03 0.19 0.05 0.38 0.07 0.48zM20.54 26.52h0.95c0.13 0 0.17-0.05 0.16 -0.17a3.09 3.09 0 0 1 0-0.43s0.07-0.1 0.1 -0.1h0.7c0.09 0 0.12 0 0.11 0.12 -0.01 0.12 0 0.29 0 0.44 0 0.15 0 0.15 0.16 0.15h1.78a1.31 1.31 0 0 1 1.35 1c0.17 0.59 0.37 1.16 0.54 1.75a0.47 0.47 0 0 1-0.37 0.59 0.46 0.46 0 0 1-0.46-0.29c-0.11-0.28-0.19-0.57-0.28-0.86-0.09-0.29-0.21-0.67-0.31-1a0.38 0.38 0 0 0-0.43-0.3h-1.82c-0.13 0-0.16 0-0.16 0.16 v1.8a0.49 0.49 0 0 1-0.42 0.5 0.46 0.46 0 0 1-0.49-0.48v-1.75c0-0.21 0-0.21-0.21-0.21H19.7a0.4 0.4 0 0 0-0.47 0.35 c-0.18 0.58 -0.35 1.15-0.54 1.73a0.71 0.71 0 0 1-0.18 0.27 0.37 0.37 0 0 1-0.51 0 0.44 0.44 0 0 1-0.2-0.48c0.21-0.65 0.41 -1.31 0.62 -2a1.26 1.26 0 0 1 1.17-0.84l0.95 0.05 z" fill="#FFF"/>
</svg>
