<?xml version="1.0" ?>
<svg xmlns="http://www.w3.org/2000/svg" width="44" height="31" viewBox="0 0 44 31">
  <path d="M7.35 22.36H1.47c-0.28 0-0.35-0.09-0.34-0.36v-1.48c0-0.25 0.07 -0.34 0.33 -0.34h23c0.39 0 0.39 0 0.39 0.4 v1.48c0 0.23-0.08 0.29 -0.29 0.29 H18.6l0.4 1.25c0.09 0.24 0.21 0.48 0.27 0.73 0.06 0.25 0.2 0.29 0.43 0.29 h2.6c0.25 0 0.36 0.06 0.34 0.33 -0.02 0.27 0 0.52 0 0.78 0 0.42 0 0.42-0.41 0.42 h-1.87c-0.3 0-0.34 0.05 -0.24 0.32 0.1 0.27 0.3 0.78 0.44 1.18a0.38 0.38 0 0 0 0.43 0.29 h8.59c0.22 0 0.3-0.06 0.3 -0.29v-2.33-0.27l-1.21 0.26 c-1 0.2-2 0.42-3.07 0.6 -0.69 0.12 -1.38 0.2 -2.07 0.29 -0.35 0-0.37 0-0.37-0.32V24.4c0-0.21-0.07-0.29-0.28-0.28-0.21 0.01 -0.59 0-0.89 0V24l0.18-0.14c0.51-0.34 1-0.68 1.52-1a1.23 1.23 0 0 1 0.52-0.16 7 7 0 0 1 0.83 0c0.17 0 0.29-0.05 0.25 -0.24-0.14-0.67 0.22 -1.06 0.69 -1.48 0.84 -0.75 1.61-1.57 2.4-2.37a0.42 0.42 0 0 0 0.12-0.25l-0.9 0.14 a40.58 40.58 0 0 1-6.2 0.69 c-0.66 0-1.32-0.06-2-0.1a3.17 3.17 0 0 1-0.45-0.1c0.18-0.14 0.29 -0.23 0.41 -0.31 1.36-0.89 2.73-1.76 4.07-2.68a24.79 24.79 0 0 0 5.27-5.08l0.11-0.18-0.9 0.16 a13.44 13.44 0 0 1-3.29 0.37 5.76 5.76 0 0 1-0.74-0.12 1 1 0 0 1-0.22-0.12A29 29 0 0 0 31.29 0a34.68 34.68 0 0 0 3.18 6A27.26 27.26 0 0 0 39 11.06a2.18 2.18 0 0 1-0.31 0.13 6.71 6.71 0 0 1-2.71 0c-0.64-0.1-1.28-0.24-1.92-0.36h-0.26l0.31 0.41 a26 26 0 0 0 7.22 6.24c0.7 0.41 1.36 0.89 2 1.35l0.3 0.23 a4.64 4.64 0 0 1-0.45 0.11 16.9 16.9 0 0 1-4.39-0.06c-1.5-0.19-3-0.43-4.48-0.65H34a34.69 34.69 0 0 0 4.54 4.23 54.2 54.2 0 0 0 5.22 3.17v0.12c-0.53 0.1 -1.06 0.23 -1.59 0.29 a15.29 15.29 0 0 1-4.36-0.27c-1.62-0.29-3.22-0.63-4.83-1-0.18 0-0.25 0-0.25 0.19 v2.41c0 0.23 0.12 0.26 0.3 0.26h9.82c0.16 0 0.22 0.05 0.22 0.22 v2.09c0 0.22-0.12 0.24 -0.29 0.24 H0.46C0 30.47 0 30.47 0 30v-1.8c0-0.24 0.07 -0.31 0.31 -0.31h4.61a0.47 0.47 0 0 0 0.54-0.37c0.12-0.39 0.28 -0.77 0.43 -1.15 0.08 -0.21 0-0.28-0.2-0.27H3.6c-0.24 0-0.34-0.07-0.33-0.32a6.61 6.61 0 0 0 0-0.86c0-0.28 0.1 -0.35 0.36 -0.34h2.66c0.14 0 0.26 0 0.32-0.17 0.23 -0.64 0.47 -1.27 0.71 -1.9 0.014 -0.05 0.024 -0.1 0.03 -0.15zm0.22 5.54h10.52c0.31 0 0.33 0 0.23-0.32s-0.29-0.73-0.4-1.11c-0.11-0.38-0.25-0.37-0.55-0.37H8.81c-0.72 0-0.55-0.11-0.81 0.55 -0.15 0.42 -0.28 0.81 -0.43 1.25zm1.23-3.32h8.39c-0.26-0.72-0.51-1.4-0.77-2.07a0.32 0.32 0 0 0-0.25-0.15H9.82a0.36 0.36 0 0 0-0.26 0.19 c-0.19 0.45 -0.35 0.91 -0.52 1.37l-0.24 0.66 z" fill="#FFF"/>
</svg>
