<?xml version="1.0" ?>
<svg xmlns="http://www.w3.org/2000/svg" width="17" height="30" viewBox="0 0 17 30">
  <path d="M5.19 12.42H3.71a2.3 2.3 0 0 1-0.71-0.14 1.46 1.46 0 0 1-1-1c-0.07-0.29-0.09-0.6-0.13-0.89L1.7 8.65c0-0.23-0.05-0.46-0.07-0.69 0-0.55-0.09-1.1-0.15-1.64-0.06-0.54-0.13-1.34-0.19-2-0.05-0.45-0.1-0.9-0.14-1.35a11.9 11.9 0 0 1-0.1-1.33A1.63 1.63 0 0 1 2.23 0.08 1.75 1.75 0 0 1 2.74 0h11.15a1.61 1.61 0 0 1 1.57 1.18 2.49 2.49 0 0 1 0 1.12 5.71 5.71 0 0 0-0.08 0.71 c0 0.33-0.05 0.66 -0.09 1-0.05 0.51 -0.11 1-0.17 1.53 0 0.24-0.05 0.47 -0.07 0.71 -0.02 0.24 -0.05 0.68 -0.08 1 0 0.51-0.12 1-0.17 1.53 0 0.23-0.05 0.46 -0.07 0.69 -0.02 0.23 0 0.65-0.08 1 0 0.475-0.142 0.938 -0.41 1.33a1.72 1.72 0 0 1-1.28 0.62 h-1.57v0.7s0.06 0.07 0.1 0.08 c0.36 0.07 0.74 0.12 1.1 0.2 0.36 0.08 0.92 0.25 1.37 0.4 a6.69 6.69 0 0 1 1.57 0.76 c0.399 0.238 0.721 0.585 0.93 1 0.101 0.264 0.129 0.551 0.08 0.83 a5 5 0 0 1-0.11 0.76 9.55 9.55 0 0 1-0.34 1.3A8 8 0 0 1 14 21.56a8.92 8.92 0 0 1-2.35 1.54c-0.11 0-0.15 0.1 -0.13 0.2 l0.15 0.86 c0.06 0.29 0.12 0.57 0.17 0.86 L12 26l0.15 0.81 c0.05 0.31 0.1 0.61 0.17 0.92 a1.13 1.13 0 0 1-0.49 1.38 3.59 3.59 0 0 1-1.36 0.66 7.61 7.61 0 0 1-2.35 0.23 7.63 7.63 0 0 1-1.78-0.24 4.58 4.58 0 0 1-1.54-0.66 1.33 1.33 0 0 1-0.62-0.88 1.77 1.77 0 0 1 0.05-0.56c0-0.3 0.12 -0.59 0.17 -0.89l0.18-0.91 0.15 -0.84c0.06-0.3 0.12 -0.6 0.17 -0.9l0.15-0.84c0-0.1 0-0.16-0.12-0.21a8.59 8.59 0 0 1-2.85-2 7.94 7.94 0 0 1-1.64-2.68 8.12 8.12 0 0 1-0.43-2 1.73 1.73 0 0 1 0.74-1.61 5.7 5.7 0 0 1 1.74-0.92c0.39-0.14 0.78 -0.27 1.18-0.37 0.4 -0.1 0.71 -0.15 1.07-0.22l0.36-0.07a0.12 0.12 0 0 0 0.08-0.09c0.01-0.22 0.01 -0.44 0.01 -0.69zm3.1 5.19v0.05l2.6-0.19a6.15 6.15 0 0 0 0.86-0.13c0.41-0.09 0.83 -0.19 1.23-0.32a2.8 2.8 0 0 0 1-0.51 0.56 0.56 0 0 0 0.24-0.53 0.73 0.73 0 0 0-0.32-0.45 4.35 4.35 0 0 0-1.63-0.64 12 12 0 0 0-1.2-0.21 15.93 15.93 0 0 0-1.68-0.17c-1.06 0-2.12 0-3.18 0.06 a4.07 4.07 0 0 0-0.61 0.07 4 4 0 0 0-0.48 0.07 c-0.45 0.09 -0.9 0.19 -1.34 0.3 a3.22 3.22 0 0 0-1.19 0.54 0.59 0.59 0 0 0-0.3 0.54 0.65 0.65 0 0 0 0.32 0.48 c0.5 0.32 1.056 0.542 1.64 0.65 0.396 0.091 0.797 0.161 1.2 0.21 0.58 0.07 1.17 0.13 1.76 0.18 0.38 0.02 0.73 0 1.08 0zm-3-13.44a2.85 2.85 0 0 1 0.35-0.08L7 3.88a0.22 0.22 0 0 0 0.22-0.25v-0.27c0-0.23 0-0.27-0.26-0.27H4.1a0.82 0.82 0 0 0-0.22 0 1.13 1.13 0 0 0-0.8 1.4A1.11 1.11 0 0 0 4.87 5a1.19 1.19 0 0 0 0.39-0.83h0.03z" fill="#FFF"/>
  <path d="M8.29 17.61h-1c-0.59-0.05-1.18-0.11-1.76-0.18a11.55 11.55 0 0 1-1.2-0.21 4.58 4.58 0 0 1-1.64-0.65 0.65 0.65 0 0 1-0.32-0.48 0.59 0.59 0 0 1 0.3-0.54A3.22 3.22 0 0 1 3.81 15c0.44-0.11 0.89 -0.21 1.34-0.3a4 4 0 0 1 0.48-0.07 4.07 4.07 0 0 1 0.61-0.07c1.06 0 2.12-0.07 3.18-0.06a15.93 15.93 0 0 1 1.68 0.17 12 12 0 0 1 1.2 0.21 4.35 4.35 0 0 1 1.63 0.64 0.73 0.73 0 0 1 0.32 0.45 0.56 0.56 0 0 1-0.24 0.53 A2.8 2.8 0 0 1 13 17c-0.4 0.13 -0.82 0.23 -1.23 0.32 a6.15 6.15 0 0 1-0.86 0.13 l-2.6 0.19 -0.02-0.03z" fill="#676868"/>
</svg>
