<?xml version="1.0" ?>
<svg xmlns="http://www.w3.org/2000/svg" width="36" height="37" viewBox="0 0 36 37">
  <path d="M22.66 30.54v-4.68c0-0.487-0.05-0.973-0.15-1.45a4.57 4.57 0 0 0-1.71-2.61 4.44 4.44 0 0 0-1.56-0.8 4.79 4.79 0 0 0-2-0.11 4.66 4.66 0 0 0-2 0.88 4.59 4.59 0 0 0-1.54 2 5.11 5.11 0 0 0-0.35 1.93v9.89c0 0.32 0 0.32-0.3 0.32 H8.89c-0.18 0-0.26-0.06-0.28-0.24a0.5 0.5 0 0 0 0-0.12c0-0.49-0.05-1-0.09-1.46-0.07-1-0.15-2-0.23-3 0-0.59-0.08-1.17-0.13-1.75-0.08-0.67-0.16-1.42-0.16-2.17 0-0.34-0.06-0.67-0.08-1-0.02-0.33 0-1-0.09-1.47l-0.27-3.2c0-0.43 0-0.86-0.09-1.29-0.06-0.81-0.12-1.62-0.19-2.43a0.71 0.71 0 0 0-0.11-0.21 1.55 1.55 0 0 0-0.22 0.12 l-2 2L3.52 21c-0.18 0.18 -0.2 0.18 -0.38 0l-3-3c-0.18-0.18-0.18-0.21 0-0.4L16.4 1.49 17.75 0.15 c0.2-0.2 0.24 -0.2 0.43 0l7.52 7.46 10.09 10c0.19 0.19 0.2 0.23 0 0.41L32.85 21c-0.23 0.23 -0.25 0.23 -0.49 0l-3.53-3.54-0.09-0.09a0.14 0.14 0 0 0-0.23 0.11 c-0.05 0.57 -0.09 1.15-0.14 1.72-0.07 0.78 -0.13 1.56-0.2 2.33 0 0.31-0.05 0.63 -0.07 0.94 -0.02 0.31 -0.06 0.93 -0.1 1.4-0.06 0.75 -0.12 1.51-0.19 2.26 0 0.32 0 0.64-0.07 0.95 0 0.48-0.06 0.95 -0.1 1.42-0.06 0.75 -0.13 1.5-0.19 2.25 0 0.32-0.06 0.64 -0.08 1-0.02 0.36 -0.05 0.95 -0.09 1.42-0.06 0.73 -0.13 1.47-0.19 2.21v0.39c0 0.13 0 0.24-0.25 0.24 H22.9c-0.22 0-0.24 0-0.25-0.25v-5.22h0.01z" fill="#FFF"/>
</svg>
