<?xml version="1.0" ?>
<svg xmlns="http://www.w3.org/2000/svg" width="37" height="37" viewBox="0 0 37 37">
  <path d="M36.87 16.38H0l0.27-0.27 6.4-5.69a0.52 0.52 0 0 0 0.14-0.36v-5.2h2.3v3.33l0.3-0.2 6.66-5.94c0.73-0.66 1.47-1.3 2.19-1.95 0.15 -0.14 0.24 -0.13 0.39 0l7.9 7.05 6.15 5.46 3.95 3.5c0.08 0.08 0.17 0.14 0.25 0.21 l-0.03 0.06 zM23.11 29.68h-9.3v-0.27-8.89c0-0.24 0.09 -0.3 0.31 -0.3h8.65c0.35 0 0.35 0 0.35 0.36 v9.09l-0.01 0.01 zM18.46 33.67H4c-0.33 0-0.33 0-0.33-0.33v-1.75c0-0.24 0.08 -0.3 0.31 -0.3h28.9c0.32 0 0.33 0 0.33 0.33 v1.77c0 0.22-0.06 0.29 -0.28 0.29 H18.46v-0.01zM18.46 36.68H4.05c-0.34 0-0.34 0-0.34-0.33v-0.82c0-0.27 0.08 -0.28 0.29 -0.28h28.82c0.39 0 0.39 0 0.39 0.4 v0.77c0 0.26-0.06 0.26 -0.26 0.26 H18.46zM18.46 18.62H4c-0.25 0-0.34-0.06-0.31-0.31 0.03 -0.25 0-0.42 0-0.63 0-0.47-0.08-0.44 0.45 -0.44h28.69c0.38 0 0.38 0 0.38 0.39 v0.73c0 0.25-0.05 0.26 -0.25 0.26 h-14.5zM12.22 29.68H4c-0.25 0-0.32-0.07-0.31-0.31v-3.35c0-0.2 0-0.28 0.26 -0.28h8c0.15 0 0.24 0 0.24 0.21 v3.57a0.76 0.76 0 0 1 0.03 0.16 zM24.7 29.67v-0.22-3.42c0-0.21 0.07 -0.27 0.27 -0.27h8c0.2 0 0.29 0.06 0.28 0.28 v3.42c0 0.15 0 0.24-0.21 0.24 h-8.21l-0.13-0.03zM12.24 24.16H4c-0.33 0-0.33 0-0.33-0.33v-3.28c0-0.31 0-0.32 0.33 -0.32h7.84c0.35 0 0.35 0 0.35 0.36 v3.25l0.05 0.32 zM24.69 24.15v-3.73c0-0.14 0.06 -0.19 0.18 -0.19H33c0.15 0 0.21 0.06 0.21 0.22 V24c0 0.2-0.1 0.21 -0.25 0.21 h-8.27v-0.06z" fill="#FFF"/>
</svg>
