<?xml version="1.0" ?>
<svg xmlns="http://www.w3.org/2000/svg" width="19" height="32" viewBox="0 0 19 32">
  <path d="M15 14.37c0.32 0.13 0.575 0.382 0.71 0.7 a1.2 1.2 0 0 1-0.47 1.46l-0.55 0.37 c0.165 0.149 0.316 0.313 0.45 0.49 a1.2 1.2 0 0 1-0.46 1.68c-0.17 0.1 -0.34 0.21 -0.53 0.33 l0.15 0.1 c0.381 0.282 0.574 0.752 0.5 1.22a1.24 1.24 0 0 1-0.84 0.94 1.42 1.42 0 0 1-0.45 0H8.83A4.21 4.21 0 0 1 6.55 21c-0.39-0.25-0.75-0.55-1.12-0.82a0.37 0.37 0 0 0-0.2-0.06H3c-0.15 0-0.19 0-0.19-0.19v-6.08c0-0.18 0-0.2 0.2 -0.2h1.48a0.47 0.47 0 0 0 0.37-0.16l3.57-3.67a1.2 1.2 0 0 1 1-0.39 4 4 0 0 1 0.66 0.19 l0.65 0.22 c0.08 0 0.13 0.06 0.11 0.16 0 0.26-0.07 0.53 -0.1 0.79 0 0.11 0 0.15-0.16 0.15 h-0.35c-0.18 0-0.24 0.1 -0.17 0.26 a0.92 0.92 0 0 0 0.53 0.45 c0.238 0.095 0.494 0.14 0.75 0.13 h3.4a1.23 1.23 0 0 1 1.21 0.86 A1.21 1.21 0 0 1 15.5 14l-0.5 0.37 z" fill="#FFF"/>
  <path d="M16.49 0.15 l0.34 0.19 a4.34 4.34 0 0 1 1.72 2.09c0.115 0.325 0.202 0.66 0.26 1a3.7 3.7 0 0 1 0.05 0.66 3.16 3.16 0 0 1-0.74 2.07 6.9 6.9 0 0 1-1.33 1.26 2.59 2.59 0 0 0-0.79 0.98 5.32 5.32 0 0 0-0.5 1.44c-0.07 0.33 -0.13 0.67 -0.18 1 0 0.12-0.09 0.1 -0.16 0.1 h-3.5v-0.19c0-0.43 0.09 -0.86 0.13 -1.29a4.44 4.44 0 0 0-0.71-3 7.85 7.85 0 0 1-0.87-1.7 3 3 0 0 1-0.09-1.7A4.4 4.4 0 0 1 11.85 0.48 c0.24-0.17 0.5 -0.31 0.79 -0.48a2.13 2.13 0 0 1 0 0.22v3.09a0.94 0.94 0 0 0 0.63 0.94 3.12 3.12 0 0 0 1.73 0.24 2.27 2.27 0 0 0 1.1-0.39 0.81 0.81 0 0 0 0.36-0.7v-3c0.02-0.06 0.02 -0.13 0.03 -0.25zM12.87 31.1v-0.23-3.09a0.9 0.9 0 0 0-0.52-0.87 2.55 2.55 0 0 0-1.15-0.31 3.42 3.42 0 0 0-1.21 0.12 1.71 1.71 0 0 0-0.77 0.45 0.68 0.68 0 0 0-0.19 0.48 v3.31a3.46 3.46 0 0 1-0.84-0.56 4.44 4.44 0 0 1-1.32-2 4.83 4.83 0 0 1-0.22-1.4A3.56 3.56 0 0 1 8 24.23c0.26-0.24 0.55 -0.46 0.83 -0.69a2 2 0 0 0 0.57-0.81c0-0.08 0.07 -0.14 0.18 -0.14h4.12c0 0.2 0.08 0.4 0.12 0.6a4 4 0 0 0 0.51 1.22c0.29 0.54 0.6 1.07 0.86 1.62a2.75 2.75 0 0 1 0.26 1.64 4.35 4.35 0 0 1-1.4 2.61 4.92 4.92 0 0 1-0.55 0.43 c-0.19 0.14 -0.39 0.29 -0.63 0.39 zM0 13.25h1.89c0.13 0 0.17 0 0.17 0.17 v7.03h-1c0-0.28-0.08-0.56-0.13-0.83-0.05-0.27-0.11-0.66-0.16-1 0-0.16 0-0.33-0.07-0.49-0.08-0.51-0.16-1-0.23-1.53 0-0.33-0.09-0.66-0.14-1-0.05-0.34-0.11-0.67-0.16-1-0.05-0.33-0.09-0.64-0.14-1-0.03-0.08-0.03-0.2-0.03-0.35z" fill="#FFF"/>
</svg>
