<?xml version="1.0" ?>
<svg xmlns="http://www.w3.org/2000/svg" width="29" height="32" viewBox="0 0 29 32">
  <path d="M14.71 31.17c-0.16-0.52-0.32-1-0.47-1.55a0.82 0.82 0 0 1 0-0.22V6.92a0.35 0.35 0 0 1 0.09-0.25l2.14-1.74a1.07 1.07 0 0 0 0.25-0.22 1.06 1.06 0 0 1 0.93-0.37H22L21.31 4a9.44 9.44 0 0 1-2.9-2.07 8.5 8.5 0 0 1-0.6-0.84L17.7 0.91 l-0.21 0.66 a0.36 0.36 0 0 0 0-0.1 0.57 0.57 0 0 0-0.55-0.55 10.54 10.54 0 0 0-1.18-0.09h-4A2.93 2.93 0 0 0 11 1a0.51 0.51 0 0 0-0.4 0.57 0.1 0.1 0 0 1 0 0.08l-0.28-0.76c-0.11 0.19 -0.19 0.34 -0.28 0.48 a5.83 5.83 0 0 1-1.92 1.81c-0.61 0.38 -1.27 0.69 -1.91 1L6 4.34h4.62a0.54 0.54 0 0 1 0.38 0.14 l2.63 2.1a0.43 0.43 0 0 1 0.19 0.4 2.53 2.53 0 0 0 0 0.4c-0.34-0.27-0.67-0.34-1 0a0.52 0.52 0 0 0 0.05 0.65 c0.21 0.23 0.39 0.23 0.9 0v21.28a2.9 2.9 0 0 1-0.17 0.75 c-0.08 0.32 -0.19 0.63 -0.27 0.94 0 0.12-0.08 0.17 -0.2 0.16 l-2.34-0.14A7.58 7.58 0 0 1 10 31c-0.7-0.1-1.4-0.18-2.1-0.33a6.84 6.84 0 0 1-2.14-0.76 2.15 2.15 0 0 1-0.5-0.4 0.33 0.33 0 0 1-0.07-0.27c0.14-0.73 0.3 -1.45 0.43 -2.18 0.08 -0.45 0.12 -0.91 0.17 -1.37L6 24c0-0.27 0.06 -0.54 0.08 -0.81 0-0.45 0.07 -0.9 0.1 -1.35 0.07 -1.2 0.15 -2.4 0.19 -3.61v-2.44-0.65c0-0.63-0.11-1.26-0.16-1.89h-0.08c-0.06 0.16 -0.11 0.32 -0.16 0.49 -0.3 1-0.61 2-0.92 2.94-0.15 0.48 -0.32 1-0.45 1.46a2.68 2.68 0 0 0-0.08 0.7 v6.8A2.47 2.47 0 0 1 4.26 27 2.83 2.83 0 0 0 4 28.26a10.36 10.36 0 0 0-0.1 1.12c0 0.11 0 0.14-0.15 0.14 H1.14c-0.11 0-0.14-0.05-0.15-0.16-0.05-0.54-0.1-1.09-0.17-1.63a0.61 0.61 0 0 0-0.17-0.36 2 2 0 0 1-0.5-1.28C0 23.71 0 21.32 0 18.93c0-0.54 0-1.08 0.08 -1.62a6.83 6.83 0 0 1 0.25-1c0.14-0.49 0.29 -1 0.43-1.47s0.24-0.84 0.36 -1.31c0.12-0.47 0.17 -0.75 0.26 -1.12 0.09 -0.37 0.19 -0.8 0.28 -1.2 0.09 -0.4 0.16 -0.77 0.25 -1.15 0.09 -0.38 0.18 -0.74 0.28 -1.1 0.1 -0.36 0.21 -0.83 0.34 -1.24a8.08 8.08 0 0 1 1.35-2.95 3.66 3.66 0 0 1 1.61-1 14 14 0 0 0 2.22-0.87A7.47 7.47 0 0 0 9.79 1a6.49 6.49 0 0 1 0.67-0.72 1 1 0 0 1 0.73-0.28h5.75c0.34 0.004 0.663 0.158 0.88 0.42 l1 1.2A6.12 6.12 0 0 0 21 3.18c0.453 0.19 0.917 0.35 1.39 0.48 a3.76 3.76 0 0 1 2.5 2.19c0.32 0.711 0.58 1.447 0.78 2.2 0.18 0.71 0.36 1.41 0.53 2.11 0.17 0.7 0.3 1.36 0.46 2 0.16 0.64 0.39 1.53 0.59 2.29 0.2 0.76 0.43 1.38 0.6 2.09 0.102 0.372 0.159 0.755 0.17 1.14 0.04 1.28 0.06 2.56 0.06 3.84 0 0.87 0 1.74-0.07 2.61 0 0.63-0.07 1.26-0.15 1.89a2 2 0 0 1-0.58 1.34 0.66 0.66 0 0 0-0.15 0.34 c-0.05 0.33 -0.07 0.67 -0.1 1-0.03 0.33 0 0.46-0.08 0.68 0 0-0.1 0.09 -0.15 0.09 h-2.49c-0.16 0-0.22 0-0.23-0.21 0-0.62-0.09-1.25-0.16-1.88 0-0.15-0.16-0.29-0.22-0.45a3.51 3.51 0 0 1-0.21-0.72 7.58 7.58 0 0 1-0.09-1.06c0-1.57 0.05 -3.14 0.07 -4.7v-1.5a5.09 5.09 0 0 0-0.33-1.64c-0.17-0.51-0.34-1-0.5-1.53-0.16-0.53-0.35-1.08-0.52-1.62-0.07-0.23-0.12-0.46-0.18-0.69a0.39 0.39 0 0 0-0.13-0.22c0 0.27-0.08 0.54 -0.1 0.82 0 0.65-0.1 1.3-0.11 2v2.67c0 0.89 0.05 1.66 0.11 2.48 0.06 0.82 0.16 1.78 0.29 2.78 0.06 0.64 0.13 1.29 0.22 1.93 0.09 0.64 0.18 1.19 0.28 1.78 0.04 0.435 0.113 0.866 0.22 1.29 0.16 0.45-0.1 0.63 -0.38 0.82 a4.58 4.58 0 0 1-1.47 0.63 c-0.5 0.13 -1 0.26-1.51 0.36 -0.51 0.1 -0.84 0.13 -1.26 0.17 l-2.22 0.21 c-0.39 0-0.77-0.02-1.17-0.02zm-1.09-2.62a0.52 0.52 0 0 0-0.54-0.53 0.55 0.55 0 1 0 0.54 0.53 zm0-10.37a0.51 0.51 0 0 0-0.54-0.53 0.54 0.54 0 1 0 0 1.08 0.52 0.52 0 0 0 0.54-0.55zm-0.54-4.64a0.54 0.54 0 1 0 0-1.08 0.54 0.54 0 0 0 0 1.08zm0.54 9.83a0.5 0.5 0 0 0-0.54-0.53 0.53 0.53 0 0 0-0.54 0.54 0.58 0.58 0 0 0 0.56 0.55 0.55 0.55 0 0 0 0.52-0.56zM25 29a0.38 0.38 0 0 0 0.41-0.4 0.41 0.41 0 0 0-0.4-0.39 0.38 0.38 0 0 0-0.39 0.39 0.37 0.37 0 0 0 0.38 0.4 zm-21.46-0.38a0.4 0.4 0 0 0-0.39-0.41 0.45 0.45 0 0 0-0.4 0.4 0.39 0.39 0 0 0 0.41 0.38 0.35 0.35 0 0 0 0.38-0.37z" fill="#FFF"/>
  <path d="M11.11 2.44c0.28 0 0.52-0.07 0.76 -0.07h4.7c0.192 0.013 0.383 0.043 0.57 0.09 -0.12 0.23 -0.23 0.44 -0.35 0.63 a34.58 34.58 0 0 1-2.57 3.56c-0.1 0.12 -0.16 0.06 -0.22 0-0.43-0.54-0.88-1.06-1.27-1.62-0.53-0.76-1-1.55-1.53-2.33-0.03-0.08-0.05-0.15-0.09-0.26z" fill="#FFF"/>
</svg>
