<?xml version="1.0" ?>
<svg xmlns="http://www.w3.org/2000/svg" width="31" height="37" viewBox="0 0 31 37">
  <path d="M15.41 36H1.57c-0.37 0-0.37 0-0.45-0.36-0.08-0.36-0.23-0.88-0.33-1.32-0.1-0.44-0.16-0.76-0.24-1.15-0.08-0.39-0.18-0.94-0.26-1.41 0-0.18-0.06-0.37-0.08-0.56-0.06-0.58-0.13-1.17-0.15-1.75C0 28.33 0 27.18 0 26c0-0.68 0.11 -1.36 0.18 -2 0-0.42 0.09 -0.84 0.16 -1.25 0.07 -0.41 0.17 -0.88 0.26 -1.32 0.09 -0.44 0.15 -0.73 0.23 -1.1 0.08 -0.37 0.16 -0.68 0.25 -1 0.09-0.32 0.2 -0.75 0.31 -1.13 0.11 -0.38 0.25 -0.88 0.39 -1.32 0.14 -0.44 0.31 -1 0.46-1.45l0.52-1.59 0.53 -1.59 0.54 -1.62a7.55 7.55 0 0 0 0.23-0.73 0.43 0.43 0 0 0-0.06-0.31c-0.51-0.69-1-1.36-1.5-2.06a7.87 7.87 0 0 1-1-2.23 14.19 14.19 0 0 1-0.31-1.51A14.48 14.48 0 0 1 1.13 0.88 c0-0.24 0-0.48 0.07 -0.72S1.26 0 1.38 0h27.9c0.3 0 0.3 0 0.31 0.31 0 0.6 0.05 1.21 0 1.81a11.79 11.79 0 0 1-0.12 1.51 9.7 9.7 0 0 1-0.73 2.54 11.64 11.64 0 0 1-2.4 3.4 0.34 0.34 0 0 0-0.08 0.4 L27 11.9l0.59 1.6c0.23 0.62 0.45 1.23 0.67 1.85 0.22 0.62 0.46 1.29 0.68 1.94 0.22 0.65 0.35 1.11 0.52 1.66 0.17 0.55 0.28 0.92 0.4 1.39 0.12 0.47 0.21 0.87 0.31 1.31 0.1 0.44 0.18 0.83 0.26 1.25 0.08 0.42 0.12 0.7 0.16 1.06 0.07 0.63 0.13 1.26 0.2 1.89v2.57c0 0.75-0.08 1.45-0.15 2.18 0 0.51-0.12 1-0.21 1.51s-0.21 1.1-0.33 1.65l-0.3 1.38c-0.06 0.27 -0.14 0.53 -0.21 0.79 a0.14 0.14 0 0 1-0.09 0.08 0.77 0.77 0 0 1-0.18 0L15.41 36zm0-3.46h9.83c0.28 0 0.3 0 0.3-0.3a18.47 18.47 0 0 0-0.2-3.56c-0.06-0.36-0.09-0.72-0.17-1.07-0.14-0.62-0.29-1.24-0.47-1.84-0.18-0.6-0.41-1.3-0.67-1.93a14.34 14.34 0 0 0-1.79-3.2 9.86 9.86 0 0 0-2.57-2.44 7.94 7.94 0 0 0-7-0.73 8.06 8.06 0 0 0-2.5 1.5A11.32 11.32 0 0 0 8 21.57a16.2 16.2 0 0 0-1.56 3.32c-0.2 0.59 -0.36 1.19-0.51 1.79-0.15 0.6 -0.24 1-0.33 1.5a12.77 12.77 0 0 0-0.2 1.51c0 0.87-0.05 1.75-0.08 2.62 0 0.17 0.07 0.24 0.25 0.24l9.84-0.01z" fill="#FFF"/>
  <path d="M12.12 27.85V24.4c0-0.16 0-0.21 0.21 -0.21H15c0.23 0 0.23 0 0.24-0.23v-0.14c0-0.05 0-0.15 0.12 -0.14 0.12 0.01 0.17 0 0.18 0.13 0 0.38 0 0.38 0.43 0.38h2.41c0.25 0 0.26 0 0.26 0.25 v6.84c0 0.23 0 0.23-0.24 0.23 h-6.07c-0.17 0-0.22 0-0.22-0.22 0.01 -1.14 0.01 -2.29 0.01 -3.44zM15.75 19.71c0 0.2-0.09 0.38 -0.11 0.57 a1 1 0 0 0 0.24 0.74 5 5 0 0 1 0.55 0.74 1.2 1.2 0 0 1-0.51 1.59 1.15 1.15 0 0 1-1.71-1 2.25 2.25 0 0 1 0.55-1.65c0.27-0.33 0.57 -0.63 0.86 -0.94l0.13-0.05z" fill="#FFF"/>
</svg>
