<?xml version="1.0" ?>
<svg xmlns="http://www.w3.org/2000/svg" width="43" height="36" viewBox="0 0 43 36">
  <path d="M36.15 1.4c-0.2 0.22 -0.41 0.4 -0.57 0.61 a1.54 1.54 0 0 0 0.52 2.23 1.86 1.86 0 0 0 1.11 0.16 0.19 0.19 0 0 1 0.24 0.14 c0.23 0.55 0.46 1.1 0.7 1.64a0.21 0.21 0 0 1-0.1 0.29 1.54 1.54 0 0 0 0.27 2.75c0.32 0.116 0.667 0.14 1 0.07a0.16 0.16 0 0 1 0.2 0.12 c0.24 0.58 0.5 1.16 0.75 1.74 0 0.11 0 0.15-0.09 0.2 a1.54 1.54 0 0 0-0.76 1.42 1.49 1.49 0 0 0 1.09 1.37c0.293 0.02 0.587 0.02 0.88 0a0.25 0.25 0 0 1 0.17 0.1 c0.18 0.41 0.35 0.83 0.52 1.25a0.56 0.56 0 0 1 0 0.13L38.82 17l-2.2 0.94 c-0.56 0.24 -1.12 0.46 -1.68 0.69 l-2.24 0.94 -2.18 0.88 -1.92 0.8 -2 0.83-2.2 0.92 -1.73 0.72 -2.21 0.92 -2.18 0.89 -2.18 0.93 -1.57 0.62 -1.5 0.63 -1.59 0.66 -2.19 0.92 -2.18 0.89 a2.58 2.58 0 0 1-0.46 0.18 0.16 0.16 0 0 1-0.16-0.06c-0.18-0.4-0.34-0.8-0.51-1.2a0.2 0.2 0 0 1 0.11-0.28 1.5 1.5 0 0 0 0.6-0.76 1.53 1.53 0 0 0-0.74-1.92A1.31 1.31 0 0 0 4.8 26c-0.08 0-0.13 0-0.17-0.09-0.16-0.41-0.34-0.81-0.51-1.21l-0.23-0.54c-0.05-0.1 0-0.16 0.08 -0.23a1.56 1.56 0 0 0-0.39-2.83 1.52 1.52 0 0 0-0.82 0 0.21 0.21 0 0 1-0.18-0.1c-0.24-0.58-0.47-1.16-0.72-1.73-0.05-0.13 0-0.17 0.08 -0.23a1.6 1.6 0 0 0 0.7-1 1.44 1.44 0 0 0-0.18-1.14A1.57 1.57 0 0 0 1 16.13H0.9c-0.3 0.07 -0.3 0.07 -0.41-0.21L0 14.82c0-0.09 0-0.14 0.07 -0.18l2.26-0.93 2.43-1L6.51 12l2.21-0.92 2.2-0.9 2.18-0.92 1.53-0.62L16 8.05l1.52-0.62L18.68 7l1.38-0.57 1.57-0.65 1.5-0.62 1.61-0.67 2-0.82 1.73-0.72 2.2-0.95 1.54-0.64 2-0.83 1.11-0.46c0.23-0.1 0.25 -0.11 0.33 0.11l0.47 1.17c0 0.02 0.012 0.04 0.03 0.05zM3.69 15L8.9 27.57l0.59-0.25 1.79-0.73 1.59-0.66 1.51-0.62 1.62-0.66 1.8-0.75 1.75-0.72 1.45-0.62c0.74-0.3 1.47-0.62 2.21-0.93l2.19-0.9 2.6-1.07 2.19-0.89 2.39-1 3.21-1.31 2.4-1c0.14-0.06 0.14 -0.1 0.09 -0.23-0.16-0.37-0.32-0.75-0.47-1.13-0.24-0.57-0.47-1.16-0.71-1.73-0.3-0.73-0.62-1.46-0.93-2.19-0.31-0.73-0.59-1.47-0.89-2.2-0.3-0.73-0.73-1.73-1.09-2.6L33.24 3c-0.06-0.16-0.15-0.19-0.31-0.12l-1.56 0.65 -2.19 0.9 -2.18 0.92 c-0.64 0.27 -1.3 0.52 -1.95 0.79 -0.65 0.27 -1.45 0.62 -2.18 0.93 L20 8.24 18.29 9l-1.57 0.62 c-0.73 0.3 -1.45 0.62 -2.18 0.93 l-2 0.82-2.8 1.13-2.2 0.9 -3.23 1.34-0.62 0.26 zM12.62 32.05l-1.31-1.57a0.23 0.23 0 0 1 0-0.2 1.55 1.55 0 0 0 0.39-1c0-0.06 0.07 -0.13 0.12 -0.16l1.7-0.69a0.61 0.61 0 0 0 0.14-0.07 0.19 0.19 0 0 1 0.26 0.05 l1.21 1.46 1.44 1.75c0.14 0.17 0.29 0.33 0.42 0.51 s0.15 0.12 0.26 0L18.69 31l2.17-1.77L23.53 27c1.1-0.91 2.22-1.82 3.32-2.74 1.1-0.92 2-1.58 2.91-2.4a6 6 0 0 1 1.61-0.83c0.53-0.23 1.06-0.43 1.6-0.65l2-0.84 0.36 -0.16v0.05l-0.59 0.49 -3.41 2.81-3.28 2.77-3.6 3-2.23 1.8L19 33l-2.19 1.78-0.94 0.78 c-0.21 0.18 -0.21 0.18 -0.38 0l-0.78-0.93c-0.07-0.08-0.07-0.13 0-0.22a1.56 1.56 0 0 0-0.13-2.21 1.61 1.61 0 0 0-1.77-0.2l-0.19 0.05 z" fill="#FFF"/>
  <path d="M23.6 24.36l-1.06 0.88 -1.79 1.47c-0.58 0.46 -1.14 0.94 -1.72 1.41-0.28 0.23 -0.57 0.45 -0.84 0.69 -0.09 0.08 -0.14 0-0.19 0-0.05 0-0.27-0.32-0.4-0.49-0.13-0.17-0.08-0.17 0-0.26l2.17-1.78c0.3-0.24 0.58 -0.52 0.89 -0.73 0.26 -0.15 0.535 -0.273 0.82 -0.37l1.76-0.74 0.3 -0.11 0.06 0.03zM34.89 14.63c-0.12-0.27-0.23-0.5-0.33-0.75s-0.11-0.11-0.19-0.08l-0.88 0.38 -1.49 0.65 -2.23 0.91 -1.53 0.64 -2.2 0.9 -1.56 0.65 -2.21 0.91 -1.52 0.64 -2.21 0.91 L17 21l-1.56 0.63 c-0.73 0.3 -1.45 0.62 -2.19 0.92 l-2.57 1c-0.11 0-0.17 0.12 -0.11 0.24 l0.24 0.58 c0 0.1 0.1 0.14 0.21 0.09 0.72 -0.31 1.44-0.62 2.15-0.91 0.71 -0.29 1.36-0.56 2-0.84l2.12-0.88 2.18-0.83 2.26-0.95 2.17-0.9 1.6-0.65 1.5-0.59 2.19-0.91 2.2-0.9 1.61-0.68 1.89-0.79zm-3.33-8c-0.1-0.24-0.19-0.44-0.27-0.66-0.08-0.22-0.14-0.13-0.25-0.1l-0.28 0.13 -2 0.82-2.15 0.87 -2.18 0.93 -2.67 1.12L19 10.86l-1.73 0.7 c-0.66 0.28 -1.32 0.57 -2 0.84-0.68 0.27 -1.17 0.47 -1.75 0.72 l-2.25 0.94 -2.16 0.94 -1.77 0.73 c-0.14 0.05 -0.16 0.12 -0.11 0.23 0.05 0.11 0.16 0.4 0.25 0.6 a0.17 0.17 0 0 0 0.14 0.07 2.9 2.9 0 0 0 0.38-0.2l2.2-0.91 1.8-0.71c0.73-0.3 1.45-0.62 2.18-0.93l2.03-0.88 1.79-0.7 1.31-0.54 1.56-0.64 1.57-0.66 1.12-0.46c0.52-0.22 1.05-0.42 1.56-0.64l1.54-0.64 2-0.82 1.57-0.66 1.2-0.5a0.9 0.9 0 0 0 0.13-0.1v-0.01zm-7.42 9.44a1 1 0 0 0-0.1-0.14c-0.57-0.48-1.14-0.95-1.7-1.44a0.36 0.36 0 0 1-0.11-0.26c0.07-0.45 0.16 -0.91 0.23 -1.37a3.1 3.1 0 0 0 0-0.44l-0.68 0.25 a0.37 0.37 0 0 0-0.26 0.35 c0 0.35-0.07 0.7 -0.11 1.05 0 0.13-0.06 0.25 -0.1 0.42 l-0.58-1.38c-0.28 0.12 -0.53 0.22 -0.76 0.33 0 0-0.08 0.1 -0.07 0.15 0.01 0.05 0.12 0.29 0.18 0.44 l1.3 3.12h0.18a3.52 3.52 0 0 1 0.49-0.22c0.21-0.05 0.18 -0.17 0.13 -0.3-0.05-0.13-0.21-0.47-0.31-0.7a0.46 0.46 0 0 1 0.12-0.49l1 0.92a0.26 0.26 0 0 0 0.34 0.07 6.14 6.14 0 0 1 0.81-0.35v-0.01zm0.8-4.7l-1.81 0.77 c-0.34 0.14 -0.34 0.12 -0.19 0.47 0.23 0.53 0.45 1.07 0.67 1.61 0.22 0.54 0.44 1 0.65 1.57 0.06 0.16 0.13 0.16 0.26 0.11a88.654 88.654 0 0 1 1.83-0.78c0.15-0.06 0.19 -0.12 0.11 -0.27a1.57 1.57 0 0 1-0.12-0.3c-0.08-0.21-0.12-0.21-0.33-0.12l-1.1 0.45 -0.34-0.81 0.22 -0.12c0.27-0.11 0.55 -0.22 0.83 -0.35 0 0 0.1-0.11 0.09 -0.14-0.07-0.2-0.16-0.39-0.24-0.58h-0.07c-0.33 0.13 -0.66 0.27 -1 0.39h-0.17c-0.09-0.2-0.16-0.42-0.24-0.65l1.09-0.44c0.08 0 0.18-0.06 0.13 -0.19l-0.27-0.62zM18.87 14a1.6 1.6 0 0 0-0.92 0.3 1.38 1.38 0 0 0-0.46 0.5 1.34 1.34 0 0 0 0 1.11 11 11 0 0 0 0.67 1.54c0.33 0.59 0.67 0.77 1.21 0.69 a1.91 1.91 0 0 0 0.92-0.43 0.91 0.91 0 0 0 0.37-0.9c0-0.23-0.12-0.46-0.17-0.7-0.05-0.24-0.11-0.14-0.21-0.1l-0.55 0.23 c-0.12 0-0.13 0.1 -0.09 0.2 0.052 0.109 0.092 0.223 0.12 0.34 a0.92 0.92 0 0 1-0.05 0.53 c-0.16 0.24 -0.44 0.17 -0.61-0.14a10.72 10.72 0 0 1-0.85-2 0.37 0.37 0 0 1 0.19-0.42 0.3 0.3 0 0 1 0.42 0.08 2 2 0 0 1 0.22 0.37 c0.06 0.15 0.14 0.14 0.24 0.1 l0.36-0.15c0.31-0.12 0.32 -0.12 0.19 -0.42a1 1 0 0 0-1-0.73zM29 11.42c0.45 0.11 0.86 0.22 1.27 0.31 a0.21 0.21 0 0 1 0.21 0.22 c0 0.3 0.05 0.61 0.08 0.92 0 0.14 0 0.27 0.06 0.41h0.05l0.66-1.07a0.23 0.23 0 0 1 0.28-0.14l0.93 0.22 0.39 0.05 a0.56 0.56 0 0 0-0.11-0.19c-0.25-0.29-0.51-0.59-0.75-0.89a0.22 0.22 0 0 1 0-0.19c0.08-0.16 0.19 -0.31 0.29 -0.47 0.1 -0.16 0.29 -0.49 0.46 -0.77h-0.16l-1.09 0.46 a0.25 0.25 0 0 1-0.35-0.08c0-0.06-0.1-0.13-0.16-0.19l-0.73-0.85a2.52 2.52 0 0 0 0 0.28c0 0.37 0.05 0.74 0.09 1.1a0.24 0.24 0 0 1-0.18 0.29 l-1.08 0.45 s-0.06 0.08 -0.16 0.13 zM8.86 19.7c0.074 0.037 0.15 0.068 0.23 0.09 0.39 0.1 0.77 0.2 1.16 0.28 0.12 0 0.16 0.07 0.17 0.19 0 0.42 0.05 0.85 0.08 1.27v0.11c0.05-0.07 0.1 -0.11 0.13 -0.16 0.21 -0.33 0.4 -0.67 0.61 -1 0-0.06 0.14 -0.13 0.19 -0.12 0.26 0.05 0.52 0.13 0.78 0.19l0.58 0.13 v-0.05l-0.09-0.12-0.7-0.88a0.23 0.23 0 0 1 0-0.31c0.12-0.2 0.26 -0.4 0.38 -0.6l0.29-0.51v-0.05c-0.28 0.11 -0.56 0.21 -0.83 0.33 -0.54 0.25 -0.54 0.26 -0.92-0.2l-0.63-0.74v0.26c0 0.34 0 0.68 0.08 1 0.08 0.32 0 0.29-0.23 0.38 l-1.28 0.51 zm18.77-9.38a1.14 1.14 0 0 0-0.23 0l-2 0.84c-0.14 0-0.17 0.13 -0.12 0.25 0.05 0.144 0.11 0.285 0.18 0.42 a0.16 0.16 0 0 0 0.15 0.06 c0.15 0 0.29-0.12 0.44 -0.18 0.15 -0.06 0.26 0 0.33 0.14 l0.22 0.57 0.57 1.37 0.27 0.66c0 0.07 0.07 0.19 0.2 0.13a5 5 0 0 0 0.63-0.27 0.18 0.18 0 0 0 0.08-0.18c-0.14-0.36-0.3-0.73-0.45-1.09-0.25-0.59-0.49-1.17-0.74-1.78a6 6 0 0 0 0.63-0.28 0.18 0.18 0 0 0 0.09-0.16c-0.09-0.13-0.17-0.3-0.25-0.5zM16.1 19.39L15 16.65c-0.1-0.26-0.1-0.26 0.16 -0.37 0.51 -0.22 0.5 -0.22 0.29 -0.74-0.07-0.19-0.18-0.13-0.3-0.09-0.12 0.04 -0.24 0.11 -0.37 0.16 l-1.7 0.7 s-0.11 0.11 -0.09 0.15 c0.07 0.2 0.16 0.4 0.25 0.6 0.2-0.08 0.37 -0.16 0.55 -0.22 0.18 -0.06 0.2 -0.11 0.27 0s0.18 0.41 0.26 0.62 c0.28 0.67 0.57 1.34 0.83 2 0.08 0.21 0.15 0.25 0.35 0.15 0.2-0.1 0.39 -0.13 0.6 -0.22zm2-0.81c-0.21-0.53-0.42-1-0.63-1.55-0.27-0.66-0.55-1.31-0.81-2-0.06-0.14-0.13-0.16-0.25-0.12l-0.59 0.25 c-0.08 0-0.11 0.08 -0.06 0.19 0.16 0.36 0.31 0.73 0.46 1.09 0.31 0.76 0.63 1.52 0.93 2.29 0.06 0.17 0.15 0.16 0.27 0.12l0.68-0.27z" fill="#FFF"/>
  <path d="M34.89 14.63l-1.89 0.79 -1.57 0.66 -2.2 0.9 -2.23 0.93 -1.48 0.61 -1.6 0.65 -2.17 0.9 -2.28 0.93 -2.19 0.88 -2.12 0.88 c-0.68 0.28 -1.36 0.55 -2 0.84-0.64 0.29 -1.43 0.6 -2.15 0.91 -0.11 0-0.17 0-0.21-0.09l-0.24-0.58c-0.06-0.12 0-0.2 0.11 -0.24l2.57-1c0.74-0.3 1.46-0.62 2.19-0.92L17 21l1.54-0.64 2.21-0.91 1.52-0.64 2.21-0.91 1.52-0.62 2.2-0.9 1.53-0.64 2.27-0.91 1.54-0.65 0.88 -0.38c0.08 0 0.15 0 0.19 0.08 0.04 0.08 0.16 0.48 0.28 0.75 zM31.56 6.64a0.9 0.9 0 0 1-0.12 0.1 l-1.2 0.5 -1.57 0.66 -2 0.82-1.54 0.64 c-0.51 0.22 -1 0.42-1.56 0.64 l-1.11 0.46 -1.57 0.66 -1.56 0.64 -1.33 0.54 -1.8 0.74 -2.06 0.84 c-0.73 0.31 -1.45 0.63 -2.18 0.93 l-1.74 0.71 -2.22 0.91 a2.9 2.9 0 0 1-0.41 0.16 0.17 0.17 0 0 1-0.14-0.07c-0.09-0.2-0.17-0.4-0.25-0.6-0.08-0.2 0-0.18 0.11 -0.23l1.8-0.69 2.17-0.9 2.25-0.94c0.58-0.25 1.17-0.47 1.75-0.72 0.58 -0.25 1.33-0.56 2-0.84l1.73-0.7 2.76-1.12 2.69-1.12 2.18-0.93 2.15-0.87 2-0.82 0.21 -0.16c0.11 0 0.2 0 0.25 0.1 0.05 0.1 0.21 0.42 0.31 0.66 zM24.14 16.08a6.14 6.14 0 0 0-0.77 0.33 0.26 0.26 0 0 1-0.34-0.07l-1-0.92a0.46 0.46 0 0 0-0.12 0.49 c0.1 0.23 0.21 0.46 0.31 0.7 0.1 0.24 0.08 0.25 -0.13 0.3 a3.52 3.52 0 0 0-0.49 0.22 h-0.18L20.1 14c-0.06-0.15-0.13-0.29-0.18-0.44-0.05-0.15 0-0.14 0.07 -0.15 0.23 -0.11 0.48 -0.21 0.76 -0.33l0.58 1.38c0-0.17 0.08 -0.29 0.1 -0.42 0-0.35 0.08 -0.7 0.11 -1.05a0.37 0.37 0 0 1 0.26-0.35l0.68-0.25a3.1 3.1 0 0 1 0 0.44c-0.07 0.46 -0.16 0.92 -0.23 1.37 0 0.098 0.04 0.192 0.11 0.26 0.56 0.49 1.13 1 1.7 1.44a1 1 0 0 1 0.08 0.18 zM24.94 11.38l0.27 0.59 c0.05 0.13 -0.05 0.15 -0.13 0.19 L24 12.6c0.08 0.23 0.15 0.45 0.24 0.65 0 0 0.12 0.06 0.17 0 0.34-0.12 0.67 -0.26 1-0.39h0.07c0.08 0.19 0.17 0.38 0.24 0.58 0 0-0.05 0.12 -0.09 0.14 -0.28 0.13 -0.56 0.24 -0.83 0.35 l-0.22 0.12 0.34 0.81 1.1-0.45c0.21-0.09 0.25 -0.09 0.33 0.12 0.03 0.104 0.07 0.204 0.12 0.3 0.08 0.15 0 0.21-0.11 0.27 -0.613 0.253 -1.223 0.513 -1.83 0.78 -0.13 0.05 -0.2 0.05 -0.26-0.11-0.21-0.53-0.43-1.05-0.65-1.57-0.22-0.52-0.44-1.08-0.67-1.61-0.15-0.35-0.15-0.33 0.19 -0.47l1.8-0.74zM18.87 14a1 1 0 0 1 1 0.72c0.13 0.3 0.12 0.3 -0.19 0.42 l-0.36 0.15 c-0.1 0-0.18 0-0.24-0.1a2 2 0 0 0-0.22-0.37 0.3 0.3 0 0 0-0.42-0.08 0.37 0.37 0 0 0-0.19 0.42 c0.215 0.694 0.5 1.364 0.85 2 0.17 0.31 0.45 0.38 0.61 0.14 a0.92 0.92 0 0 0 0.05-0.53 1.74 1.74 0 0 0-0.12-0.34c0-0.1 0-0.16 0.09 -0.2l0.57-0.23c0.1 0 0.18 0 0.21 0.1 s0.14 0.47 0.17 0.7 a0.91 0.91 0 0 1-0.37 0.9 1.91 1.91 0 0 1-0.92 0.43 c-0.54 0.08 -0.88-0.1-1.21-0.69a11 11 0 0 1-0.67-1.54 1.34 1.34 0 0 1 0-1.11 1.38 1.38 0 0 1 0.46-0.5 1.6 1.6 0 0 1 0.9-0.29zM29 11.42c0.06-0.05 0.08 -0.09 0.12 -0.11l1.08-0.45a0.24 0.24 0 0 0 0.18-0.29c0-0.36-0.06-0.73-0.09-1.1a2.52 2.52 0 0 1 0-0.28l0.73 0.85 c0.06 0.06 0.11 0.13 0.16 0.19 a0.25 0.25 0 0 0 0.35 0.08 l1.09-0.46h0.16c-0.17 0.28 -0.31 0.53 -0.46 0.77 -0.15 0.24 -0.21 0.31 -0.29 0.47 a0.22 0.22 0 0 0 0 0.19c0.24 0.3 0.5 0.6 0.75 0.89 a0.56 0.56 0 0 1 0.11 0.19 l-0.39-0.05-0.93-0.22a0.23 0.23 0 0 0-0.28 0.14 l-0.66 1.07h-0.05c0-0.14-0.05-0.27-0.06-0.41 0-0.31-0.06-0.62-0.08-0.92a0.21 0.21 0 0 0-0.21-0.22c-0.33-0.11-0.74-0.22-1.23-0.33zM8.86 19.7l1.21-0.49c0.24-0.09 0.26 -0.11 0.23 -0.38s-0.05-0.68-0.08-1v-0.26l0.63 0.74 c0.38 0.46 0.38 0.45 0.92 0.2 0.27-0.12 0.55 -0.22 0.83 -0.33v0.05l-0.29 0.51 c-0.12 0.2 -0.26 0.4 -0.38 0.6 a0.23 0.23 0 0 0 0 0.31l0.75 0.89 0.09 0.12 v0.05l-0.58-0.13c-0.26-0.06-0.52-0.14-0.78-0.19-0.05 0-0.15 0.06 -0.19 0.12 -0.21 0.32 -0.4 0.66 -0.61 1 0 0.05-0.08 0.09 -0.13 0.16 v-0.11c0-0.42-0.06-0.85-0.08-1.27 0-0.12-0.05-0.16-0.17-0.19-0.39-0.08-0.77-0.18-1.16-0.28a1.26 1.26 0 0 1-0.21-0.12zM27.63 10.32c0.08 0.2 0.16 0.37 0.22 0.55 a0.18 0.18 0 0 1-0.09 0.16 6 6 0 0 1-0.63 0.28 c0.25 0.61 0.49 1.19 0.74 1.78 0.15 0.36 0.31 0.73 0.45 1.09a0.18 0.18 0 0 1-0.08 0.18 5 5 0 0 1-0.63 0.27 c-0.13 0.06 -0.16-0.06-0.2-0.13l-0.27-0.66-0.57-1.37-0.22-0.57c-0.07-0.19-0.15-0.22-0.33-0.14-0.18 0.08 -0.29 0.13 -0.44 0.18 a0.16 0.16 0 0 1-0.15-0.06 3.12 3.12 0 0 1-0.18-0.42c-0.05-0.12 0-0.2 0.12 -0.25l2-0.84a1.14 1.14 0 0 1 0.26-0.05zM16.1 19.39c-0.21 0.09 -0.43 0.16 -0.63 0.27 -0.2 0.11 -0.27 0.06 -0.35-0.15-0.26-0.68-0.55-1.35-0.83-2-0.08-0.21-0.17-0.41-0.26-0.62-0.09-0.21-0.18-0.06-0.27 0-0.09 0.06 -0.35 0.14 -0.55 0.22 -0.09-0.2-0.18-0.4-0.25-0.6 0 0 0-0.13 0.09 -0.15l1.7-0.7c0.13 0 0.24-0.12 0.37 -0.16 0.13 -0.04 0.23 -0.1 0.3 0.09 0.21 0.52 0.22 0.52-0.29 0.74 -0.26 0.11 -0.26 0.11 -0.16 0.37 l1.13 2.69zM18.07 18.58l-0.68 0.29 c-0.12 0-0.21 0.05 -0.27-0.12-0.3-0.77-0.62-1.53-0.93-2.29-0.15-0.36-0.3-0.73-0.46-1.09-0.05-0.11 0-0.16 0.06 -0.19l0.59-0.25c0.12 0 0.19 0 0.25 0.12 0.26 0.67 0.54 1.32 0.81 2 0.21 0.49 0.42 1 0.63 1.53z" fill="#FFF"/>
</svg>
