<?xml version="1.0" ?>
<svg xmlns="http://www.w3.org/2000/svg" width="44" height="22" viewBox="0 0 44 22">
  <path d="M22.05 16.21H7.63c-0.19 0-0.25 0.06 -0.25 0.25 v3.42c0 0.2 0.07 0.25 0.26 0.25h1a0.85 0.85 0 0 1 0.86 0.84 0.83 0.83 0 0 1-0.85 0.83 H4.38a0.83 0.83 0 0 1-0.86-0.8 0.85 0.85 0 0 1 0.85-0.83h1c0.34 0 0.26-0.06 0.26 -0.25v-3.5a0.32 0.32 0 0 0-0.32-0.42 4.73 4.73 0 0 1-1.87-0.84A5 5 0 0 1 1.28 11V8.56c0-0.36 0-0.36-0.36-0.38a0.89 0.89 0 0 1-0.87-0.61 0.81 0.81 0 0 1 0.26-0.93 1.2 1.2 0 0 1 0.58-0.23h2.6a0.9 0.9 0 0 1 0.87 0.73 0.85 0.85 0 0 1-0.48 1c-0.199 0.07 -0.41 0.1 -0.62 0.09 -0.21 0-0.3 0.06 -0.29 0.29 v2.62a3.41 3.41 0 0 0 2.4 3.15 4.53 4.53 0 0 0 1.17 0.16 h30.29a4.2 4.2 0 0 0 2.32-0.55 3.29 3.29 0 0 0 1.63-2.9V8.52c0-0.34 0-0.34-0.33-0.34a0.89 0.89 0 1 1-0.15-1.77h2.68a0.89 0.89 0 0 1 0 1.77c-0.53 0-0.53 0-0.53 0.58 v2.47a5.08 5.08 0 0 1-3.61 4.67c-0.35 0.1 -0.35 0.1 -0.35 0.47 v3.43c0 0.31 0 0.32 0.32 0.32h1a0.85 0.85 0 0 1 0.84 0.85 0.83 0.83 0 0 1-0.84 0.82 h-4.29a0.83 0.83 0 0 1-0.82-0.79 0.85 0.85 0 0 1 0.85-0.83h1c0.15 0 0.21-0.06 0.21 -0.2v-3.51c0-0.22-0.14-0.2-0.28-0.2H22.05v-0.05z" fill="#FFF"/>
  <path d="M6.06 4.31V1.5A1.4 1.4 0 0 1 7.53 0h5.37a1.36 1.36 0 0 1 1.43 1.44v5.75a1.39 1.39 0 0 1-1.42 1.44H7.52a1.41 1.41 0 0 1-1.46-1.46V4.31zM17.79 4.32V1.43A1.34 1.34 0 0 1 19.19 0h5.41A1.34 1.34 0 0 1 26 1.06c0.02 0.122 0.02 0.248 0 0.37v5.76a1.36 1.36 0 0 1-1.43 1.44h-4.88a5.7 5.7 0 0 1-0.83 0 1.32 1.32 0 0 1-1.07-1.3c-0.01-1.03 0-2.02 0-3.01zM37.68 4.32v2.9a1.34 1.34 0 0 1-1.35 1.41h-5.57a1.35 1.35 0 0 1-1.34-1.4V1.42A1.35 1.35 0 0 1 30.83 0h5.41a1.4 1.4 0 0 1 1.47 1.48v2.84h-0.03zM10.18 12.7h-4a1 1 0 0 1-1-0.64 1.25 1.25 0 0 1 0.45-1.64 1.41 1.41 0 0 1 0.57-0.14h8a1.05 1.05 0 0 1 1.1 1.09 1.12 1.12 0 0 1-0.56 1.19 1.75 1.75 0 0 1-0.64 0.14 h-3.94 0.02 zM21.81 10.28h4a1 1 0 0 1 1.07 0.71 c0.16 0.67 0.1 1.26-0.49 1.57a1.4 1.4 0 0 1-0.57 0.13 h-8a1 1 0 0 1-1.09-1.08 2.76 2.76 0 0 1 0.07-0.65 1 1 0 0 1 1-0.69h4l0.01 0.01 zM33.57 10.28h3.93a1.12 1.12 0 0 1 1.18 1.18 1.12 1.12 0 0 1-0.56 1.11 1.35 1.35 0 0 1-0.56 0.13 h-8a1 1 0 0 1-1.11-1.12 2.32 2.32 0 0 1 0-0.59 1 1 0 0 1 1.05-0.71h4.07z" fill="#FFF"/>
</svg>
