<?xml version="1.0" ?>
<svg xmlns="http://www.w3.org/2000/svg" width="20" height="30" viewBox="0 0 20 30">
  <path d="M16.57 25.44v-3a0.37 0.37 0 0 0-0.09-0.27l-4.13-5-2.17-2.63a0.2 0.2 0 0 0-0.22-0.07c-0.26 0.05 -0.52 0.11 -0.79 0.14 a2.91 2.91 0 0 1-0.66 0 5 5 0 0 1-0.77-0.13 3.65 3.65 0 0 1-1.3-0.63 4.06 4.06 0 0 1-1.34-1.8 3.69 3.69 0 0 1-0.25-1.74 4.21 4.21 0 0 1 1.31-2.6c2.18-2.167 4.357-4.343 6.53-6.53a4.23 4.23 0 0 1 1.73-1 3.65 3.65 0 0 1 1.67-0.13 4 4 0 0 1 3.14 2.44 4 4 0 0 1 0.32 1.85c0 0.92-0.05 1.84-0.06 2.77v21.21a1.42 1.42 0 0 1-0.62 1.25 1.47 1.47 0 0 1-2.24-0.75 1.54 1.54 0 0 1-0.06-0.48v-2.9zm0-7.83v-9l-0.12 0.13 -3.69 3.69c-0.26 0.26 -0.26 0.26 0 0.52a279.097 279.097 0 0 0 3.11 3.73l0.7 0.93 zM3 13.53a3 3 0 1 1 0 6 3 3 0 0 1 0-6z" fill="#FFF"/>
</svg>
