<?xml version="1.0" ?>
<svg xmlns="http://www.w3.org/2000/svg" width="36" height="36" viewBox="0 0 36 36">
  <path d="M0 17.56A17.55 17.55 0 1 1 17.55 35.1C7.866 35.089 0.017 27.244 0 17.56zm16.7 14.73v-4.58a10.3 10.3 0 0 1-9.38-9.38H2.81a14.8 14.8 0 0 0 13.89 14v-0.04zm11.07-14a10.28 10.28 0 0 1-9.37 9.39v4.62a14.71 14.71 0 0 0 10.65-5.52 14.45 14.45 0 0 0 3.24-8.46l-4.52-0.03zM7.29 16.63c0.11-0.55 0.18 -1.1 0.33 -1.63a12.87 12.87 0 0 1 0.63-1.84 10.35 10.35 0 0 1 5.55-5.23 8.59 8.59 0 0 1 2.06-0.55l0.67-0.09c0.13 0 0.19-0.07 0.19 -0.22v-4a1.94 1.94 0 0 0 0-0.22 14.64 14.64 0 0 0-10 4.81 14.5 14.5 0 0 0-3.83 9l4.4-0.03zm11.1-9.37a10.28 10.28 0 0 1 9.38 9.37h4.49A14.75 14.75 0 0 0 18.39 2.82v4.44zM9 18.32v0.17a7.65 7.65 0 0 0 0.38 1.72 8.15 8.15 0 0 0 1.52 2.73 8.41 8.41 0 0 0 5.61 3c0.14 0 0.17 0 0.17-0.14v-5.16c0-0.11 0-0.16-0.14-0.19a2.05 2.05 0 0 1-0.43-0.18 3.11 3.11 0 0 1-1.61-1.87c0-0.14-0.13-0.14-0.24-0.14H9v0.06zm17 0h-5.23a0.21 0.21 0 0 0-0.16 0.11 3.19 3.19 0 0 1-2 2.06 0.21 0.21 0 0 0-0.18 0.25 v5.07c0 0.1 0 0.21 0.14 0.19A8.35 8.35 0 0 0 23 24.12a8.57 8.57 0 0 0 3-5.32 3.57 3.57 0 0 0 0.07-0.47l-0.07-0.01zM9 16.63h5.45a3.21 3.21 0 0 1 2.21-2.21V9A8.48 8.48 0 0 0 9 16.63zm9.35-2.21a3.23 3.23 0 0 1 2.22 2.21h5.45a8.39 8.39 0 0 0-3.28-5.95A8.3 8.3 0 0 0 18.39 9l-0.04 5.42z" fill="#FFF"/>
</svg>
