<?xml version="1.0" ?>
<svg xmlns="http://www.w3.org/2000/svg" width="25" height="36" viewBox="0 0 25 36">
  <path d="M12.18 24.21l-0.62 0.21 -2.07 0.76 a0.5 0.5 0 0 0-0.24 0.19 l-3 5c-0.27 0.45 -0.5 0.93 -0.78 1.38a3.31 3.31 0 0 1-1.12 1.2 1.08 1.08 0 0 1-1.59-0.65 3.32 3.32 0 0 1 0-1.47 15.16 15.16 0 0 1 0.94-2.93c0.34-0.9 0.67 -1.81 1-2.7a15.39 15.39 0 0 1 0.85-2.06 3.34 3.34 0 0 1 1.67-1.43c0.71-0.3 1.41-0.63 2.11-1l2.92-1.33c0.42-0.19 0.43 -0.18 0.24 -0.59-0.53-1.13-1.07-2.26-1.6-3.4-0.23-0.47-0.46-0.94-0.67-1.42 0-0.11-0.09-0.13-0.2-0.06l-2.57 1.57a2.3 2.3 0 0 1-1.29 0.39 1.26 1.26 0 0 1-0.67-0.21l-3.82-2.57c-0.37-0.25-0.73-0.52-1.08-0.8a2 2 0 0 1-0.42-0.45 0.78 0.78 0 0 1-0.05-0.9 3.46 3.46 0 0 1 0.31-0.47 0.75 0.75 0 0 1 1-0.29c0.35 0.13 0.35 0.14 0.53-0.17 0.27 -0.48 0.53 -1 0.79-1.44a0.52 0.52 0 0 0 0.07-0.27A1.14 1.14 0 0 1 4.1 7.23a1.12 1.12 0 0 1 1 1 1.06 1.06 0 0 1-0.78 1.19 1 1 0 0 0-0.32 0.2 l-1.11 1.06c-0.13 0.12 -0.12 0.16 0 0.24l2.7 1.38a0.48 0.48 0 0 0 0.6 0c1-0.72 2.11-1.41 3.16-2.12 1.05-0.71 1.92-1.28 2.86-2 0.48-0.33 0.9 -0.74 1.36-1.11 1-0.84 2.08-1.68 3.14-2.5C18.1 3.49 19.52 2.43 21 1.46A12.53 12.53 0 0 1 23.29 0.18 a2.48 2.48 0 0 1 0.59-0.18 0.77 0.77 0 0 1 0.75 0.64 1.18 1.18 0 0 1-0.19 0.69 8.12 8.12 0 0 1-1.56 1.8 186.61 186.61 0 0 1-3.66 3.21c-1.24 1.05-2.62 2.13-3.93 3.19-0.1 0.07 -0.13 0.12 0 0.24 0.51 0.76 1 1.52 1.52 2.28l2.36 3.49c0.44 0.66 0.89 1.31 1.31 2 0.31 0.485 0.537 1.02 0.67 1.58 0.105 0.44 0.105 0.9 0 1.34a2.46 2.46 0 0 1-0.69 1.16 362.864 362.864 0 0 0-3.55 3.62c-0.12 0.11 -0.14 0.19 0 0.34L19 28.91c0.72 1.11 1.44 2.22 2.15 3.34a4.22 4.22 0 0 1 0.66 1.63 1.07 1.07 0 0 1-0.63 1.35 1.27 1.27 0 0 1-1.11-0.07 5 5 0 0 1-1.58-1.28c-0.6-0.68-1.16-1.38-1.72-2.07-1.3-1.6-2.59-3.21-3.87-4.81a4.12 4.12 0 0 1-0.74-1.06 2.12 2.12 0 0 1 0-1.51 1 1 0 0 0 0-0.1s0.02-0.04 0.02 -0.12zM4.89 8.3c0-0.05 0-0.14-0.08-0.23a0.87 0.87 0 0 0-1.34-0.33 0.15 0.15 0 0 0 0 0.25c0.23 0.322 0.54 0.577 0.9 0.74 0.39 0.17 0.42 0.16 0.53-0.25a0.59 0.59 0 0 0-0.01-0.18zm-0.62 0.83 l-1.1-0.82c-0.1 0.52 0.6 1.11 1.1 0.82 z" fill="#FFF"/>
  <path d="M5.43 5.22a3.27 3.27 0 1 1 6.54 0 3.27 3.27 0 0 1-6.54 0z" fill="#FFF"/>
</svg>
