<?xml version="1.0" ?>
<svg xmlns="http://www.w3.org/2000/svg" width="21" height="32" viewBox="0 0 21 32">
  <path d="M8.85 14.55H16c0.23 0 0.22 0 0.19 0.23 -0.1 0.58 -0.19 1.15-0.28 1.73l-0.21 1.29c-0.09 0.58 -0.19 1.16-0.28 1.73-0.09 0.57 -0.19 1.15-0.28 1.73l-0.21 1.31c-0.09 0.58 -0.19 1.16-0.28 1.74-0.09 0.58 -0.19 1.15-0.28 1.72l-0.27 1.68c-0.09 0.57 -0.19 1.15-0.28 1.72l-0.24 1.49c0 0.11-0.09 0.1 -0.17 0.1 h-9c-0.23 0-0.23 0-0.26-0.24-0.15-0.59-0.21-1.17-0.3-1.78-0.09-0.61-0.18-1.11-0.28-1.67-0.1-0.56-0.19-1.16-0.28-1.74L3 24c-0.09-0.58-0.19-1.16-0.28-1.73-0.09-0.57-0.18-1.17-0.28-1.75-0.1-0.58-0.19-1.12-0.28-1.68l-0.33-2.08c-0.1-0.57-0.19-1.14-0.29-1.72v-0.22c0-0.25 0-0.25 0.22 -0.25l7.09-0.02zM16.54 9.39H1.11A7.79 7.79 0 0 1 4.88 3.9a7.51 7.51 0 0 1 5.4-0.9A7.78 7.78 0 0 1 15 5.83l0.14-0.46c0.32-1.17 0.63 -2.35 0.95 -3.52a0.63 0.63 0 0 1 0.4-0.45L19.78 0.06 a0.6 0.6 0 0 1 0.87 0.38 0.57 0.57 0 0 1-0.35 0.7 l-2.58 1.05c-0.11 0-0.23 0.1 -0.34 0.13 -0.11 0.03 -0.22 0.16 -0.26 0.31 l-0.54 2c-0.19 0.71 -0.36 1.43-0.58 2.13a1.33 1.33 0 0 0 0.09 1c0.19 0.52 0.31 1.06 0.46 1.59 0.01 -0.03 0 0-0.01 0.04 zM8.85 10.64h8.62c0.23 0 0.23 0 0.23 0.22 v2.24c0 0.15-0.05 0.19 -0.19 0.19 H0.23c-0.23 0-0.23 0-0.23-0.22v-2.25c0-0.15 0-0.19 0.19 -0.19l8.66 0.01 z" fill="#FFF"/>
</svg>
