<?xml version="1.0" ?>
<svg xmlns="http://www.w3.org/2000/svg" width="43" height="36" viewBox="0 0 43 36">
  <path d="M6.7 25.5v-10c-0.21 0.17 -0.38 0.3 -0.53 0.44 L1.6 20c-0.15 0.12 -0.22 0.13 -0.35 0L0.1 18.72c-0.13-0.13-0.14-0.22 0-0.35l5-4.35 4.62-4a0.64 0.64 0 0 0 0.28-0.5V3.09h2.09V8a1.63 1.63 0 0 0 0.24-0.13l4.48-4c1.34-1.19 2.68-2.39 4-3.57 0.46 -0.41 0.48 -0.41 1 0l4.71 4.11C27.86 5.62 29.24 6.8 30.6 8l5 4.42 5.05 4.39c0.6 0.52 1.2 1.05 1.8 1.56 0.14 0.13 0.13 0.22 0 0.34L41.33 20c-0.12 0.13 -0.19 0.1 -0.31 0l-4.55-4-0.56-0.47v10" fill="#FFF"/>
  <path d="M35.89 23.47v11.76H6.72V23.57" fill="#FFF"/>
</svg>
