<?xml version="1.0" ?>
<svg xmlns="http://www.w3.org/2000/svg" width="37" height="36" viewBox="0 0 37 36">
  <path d="M36.33 26.19H1l0.18-0.5c0.47-1.1 0.93 -2.21 1.4-3.32 0.38 -0.92 0.77 -1.84 1.16-2.77l0.87-2.11a0.34 0.34 0 0 1 0.39-0.23c0.45 0 0.9-0.12 1.35-0.18l0.58-0.08 1.62-0.16 1.83-0.19c0.34 0 0.69-0.06 1-0.07 1.2-0.06 2.39-0.13 3.59-0.16 1.81 0 3.62-0.06 5.42-0.05 1.23 0 2.46 0.08 3.69 0.14 0.68 0 1.36 0.09 2 0.14 0.64 0.05 1.15 0.08 1.73 0.14 0.58 0.06 1.35 0.13 2 0.21 0.65 0.08 1.24 0.17 1.86 0.25 0.253 0.04 0.503 0.07 0.75 0.09 a0.2 0.2 0 0 1 0.21 0.15 l1.53 3.66c0.46 1.09 0.91 2.19 1.36 3.28l0.75 1.57c0.02 0.05 0.03 0.1 0.06 0.19 zM30.68 11.07h-24v-0.19-9.44A1.44 1.44 0 0 1 8.12 0h21.15c0.78 0.01 1.41 0.64 1.42 1.42v9.48a1.09 1.09 0 0 1-0.01 0.17 zm-6-1.46H27c0.18 0 0.358-0.028 0.53 -0.08a1.69 1.69 0 0 0 1.11-2A1.75 1.75 0 0 0 27 6.24h-4.67a1.78 1.78 0 0 0-0.72 0.14 1.65 1.65 0 0 0-0.86 2.23 1.62 1.62 0 0 0 1.6 1h2.33zm-11.92 0h2.35a1.75 1.75 0 0 0 0.55-0.08 1.69 1.69 0 0 0-0.55-3.29h-4.75a1.69 1.69 0 0 0-1.53 2.38 1.61 1.61 0 0 0 1.57 1l2.36-0.01zM36.36 27.67v5.4h-2.61c-0.24 0-0.25 0-0.25 0.26 v1.39a0.64 0.64 0 0 1-0.64 0.64 h-2.88a0.66 0.66 0 0 1-0.63-0.62v-1.45c0-0.16-0.06-0.21-0.21-0.21H8.36c-0.27 0-0.28 0-0.28 0.29 v1.33a0.69 0.69 0 0 1-0.68 0.68 H4.59a0.68 0.68 0 0 1-0.67-0.67v-1.39c0-0.17-0.06-0.23-0.22-0.23H1.23c-0.25 0-0.25 0-0.25-0.23v-5.19h35.38zM5.4 15.75l0.32-0.75c0.32-0.76 0.65 -1.51 1-2.27a0.25 0.25 0 0 1 0.27-0.2H30.4a0.27 0.27 0 0 1 0.3 0.21 c0.33 0.81 0.67 1.61 1 2.41 0.08 0.18 0.15 0.35 0.22 0.53a0.58 0.58 0 0 1 0 0.14 2.1 2.1 0 0 1-0.36 0l-1.74-0.2-2.36-0.26-0.89-0.07-1.47-0.09c-1.1-0.11-2.28-0.2-3.44-0.2H15.3c-1.2 0-2.19 0-3.3 0.1 -0.64 0-1.28 0.08 -1.92 0.14 -0.64 0.06 -1.51 0.13 -2.27 0.21 l-1.73 0.21 -0.68 0.09 z" fill="#FFF"/>
</svg>
