<?xml version="1.0" ?>
<svg xmlns="http://www.w3.org/2000/svg" width="38" height="36" viewBox="0 0 38 36">
  <path d="M18.61 35.25H2a11.5 11.5 0 0 1-1.17-0.08 0.93 0.93 0 0 1-0.83-0.8 1.15 1.15 0 0 1 0.17-0.59c0.53-0.91 1.08-1.8 1.61-2.7 0.53 -0.9 1-1.76 1.53-2.63 0.15 -0.27 0.29 -0.54 0.46 -0.79a1 1 0 0 0 0.16-0.6V13.81a2 2 0 0 1 0.36-1.26 1.9 1.9 0 0 1 1.44-0.82h25.56a2 2 0 0 1 1.24 0.36 c0.467 0.326 0.764 0.843 0.81 1.41v13.32a2 2 0 0 0 0.31 1.1c0.83 1.41 1.64 2.82 2.47 4.23 0.34 0.58 0.68 1.15 1 1.72a0.79 0.79 0 0 1-0.43 1.19 4.62 4.62 0 0 1-0.82 0.18 h-0.71l-16.55 0.01 zm2-12v-5.58a2.39 2.39 0 0 0-0.1-0.71 1.94 1.94 0 0 0-2.63-1.13 1.85 1.85 0 0 0-1.17 1.83v11.5c0 0.18 0 0.24 0.23 0.23h3.41c0.27 0 0.27 0 0.27-0.27l-0.01-5.87zm8.8 6.13a1.28 1.28 0 0 0 0-0.19V17.58a1.93 1.93 0 0 0-2.72-1.75 1.79 1.79 0 0 0-1.16 1.75v11.6a1.36 1.36 0 0 0 0 0.2h3.88zm-21.53 0h3.59c0.29 0 0.29 0 0.29-0.28V17.82a2.58 2.58 0 0 0-0.09-0.62 1.9 1.9 0 0 0-2.12-1.52 1.92 1.92 0 0 0-1.19 0.62 2 2 0 0 0-0.48 1.4v11.68zM4 9.76c0.11-0.1 0.17 -0.18 0.24 -0.23l3.49-2.31 3-2L13 3.72l2.73-1.82L18.46 0.06 a0.29 0.29 0 0 1 0.35 0l4.26 2.85 3.49 2.34L30.76 8 33 9.54l0.23 0.13 -0.07 0.09 H4z" fill="#FFF"/>
</svg>
