<?xml version="1.0" ?>
<svg xmlns="http://www.w3.org/2000/svg" width="40" height="37" viewBox="0 0 40 37">
  <path d="M29.1 23.91c-0.12 0.1 -0.25 0.19 -0.37 0.3 -0.28 0.25 -0.57 0.5 -0.83 0.77 a0.34 0.34 0 0 1-0.34 0.11 4 4 0 0 0-0.68-0.06 5.33 5.33 0 0 0-1 0.09 4.61 4.61 0 0 0-1.66 0.67 4.75 4.75 0 0 0-1.77 2.12 3.22 3.22 0 0 0-0.31 1.14 7 7 0 0 0 0 1.21 4.51 4.51 0 0 0 0.75 2.09A4.61 4.61 0 0 0 25 34.09c0.35 0.174 0.73 0.28 1.12 0.31 a8 8 0 0 0 1.29 0 4.06 4.06 0 0 0 1.59-0.46 4.65 4.65 0 0 0 2.09-2.2 5.21 5.21 0 0 0 0.32-0.94c0.07-0.285 0.11 -0.577 0.12 -0.87a5.17 5.17 0 0 0-0.07-1 4 4 0 0 0-0.74-1.85c-0.2-0.28-0.45-0.53-0.68-0.8-0.06-0.07-0.1-0.06-0.16 0A4.73 4.73 0 0 0 28.75 28a4.68 4.68 0 0 0 0.52 4.53c0.15 0.2 0.2 0.16 -0.05 0.35 a4 4 0 0 1-1.11 0.61 0.15 0.15 0 0 1-0.11-0.09c-0.2-0.35-0.43-0.69-0.6-1.06a6.26 6.26 0 0 1-0.39-1.1 4.49 4.49 0 0 1-0.17-1.36 8.72 8.72 0 0 1 0.07-1.14 6.18 6.18 0 0 1 0.75-2.12A6.29 6.29 0 0 1 30.47 24c0.27-0.13 0.56 -0.23 0.86 -0.35-0.06-0.08-0.12-0.17-0.19-0.25-0.62-0.74-1.24-1.49-1.87-2.23a0.18 0.18 0 0 1 0-0.25c0.48-0.7 0.95 -1.41 1.42-2.12a0.22 0.22 0 0 1 0.21-0.12h4.46a0.19 0.19 0 0 1 0.19 0.11 L37 21a0.13 0.13 0 0 1 0 0.2l-2 2.4a0.86 0.86 0 0 0-0.07 0.1 l0.58 0.22 a6 6 0 0 1 1.47 0.84 6.16 6.16 0 0 1 2.25 3.34 6.07 6.07 0 0 1 0.22 1.52 5.9 5.9 0 0 1-0.16 1.38 6.17 6.17 0 0 1-1.1 2.53 6.34 6.34 0 0 1-1.9 1.71 5.85 5.85 0 0 1-1.31 0.57 A5 5 0 0 1 34 36a8.84 8.84 0 0 1-1.36 0.05 8 8 0 0 1-1.07-0.18 5.68 5.68 0 0 1-1.49-0.6 0.22 0.22 0 0 0-0.16 0 5.84 5.84 0 0 1-1.37 0.57 3.93 3.93 0 0 1-0.83 0.16 c-0.448 0.047 -0.9 0.063 -1.35 0.05 a7.08 7.08 0 0 1-1.12-0.19 5.53 5.53 0 0 1-1.92-0.86 6.2 6.2 0 0 1-2.26-2.68 6.8 6.8 0 0 1-0.39-1.18 6.12 6.12 0 0 1-0.13-2 6.19 6.19 0 0 1 0.23-1.14 5.66 5.66 0 0 1 1-2 6.13 6.13 0 0 1 1.63-1.54 6 6 0 0 1 1.39-0.68c0.27-0.09 0.56 -0.15 0.85 -0.22a5.92 5.92 0 0 1 2.77 0.1 c0.24 0 0.47 0.13 0.7 0.2 l-0.02 0.05 zm2.25 1.47l0.08 0.1 a6.38 6.38 0 0 1 1.47 2.64c0.133 0.5 0.206 1.013 0.22 1.53a6.18 6.18 0 0 1-0.37 2.21 6.25 6.25 0 0 1-0.84 1.57c-0.15 0.2 -0.31 0.39 -0.47 0.59 0 0-0.1 0.09 0 0.13a4.18 4.18 0 0 0 1.13 0.29 4.9 4.9 0 0 0 2.08-0.23 4.69 4.69 0 0 0 3.07-3.43c0.085-0.36 0.125 -0.73 0.12 -1.1a4.77 4.77 0 0 0-0.8-2.55 4.66 4.66 0 0 0-3.31-2.06 4.36 4.36 0 0 0-2.38 0.31 zm2.51-3.48h-1.37c-0.1 0-0.12 0-0.08 0.14 l0.43 1.18c0.06 0.15 0.1 0.31 0.32 0.25 0.05 0 0.12-0.05 0.13 -0.08 0.21 -0.5 0.39 -0.98 0.57 -1.49zm-0.75-1.9l-0.63 1.12h1.26L33.11 20zm-2.27 0c-0.25 0.35 -0.47 0.68 -0.69 1h1.07l-0.38-1zm5.21 1v-0.1c-0.18-0.28-0.38-0.56-0.56-0.84-0.05-0.08-0.08-0.06-0.11 0l-0.34 0.93 1.01 0.01 zm-1.71-0.54a0.35 0.35 0 0 0 0.06-0.09l0.3-0.79c0-0.09 0-0.14-0.09-0.14h-0.69c-0.11 0-0.12 0-0.07 0.13 l0.49 0.89 zm-2.47 0l0.56-1h-0.8c-0.07 0-0.08 0-0.06 0.1 l0.09 0.21 c0.03 0.29 0.12 0.52 0.21 0.78 v-0.09zm2.36 2.65l1.1-1.32h-0.52a0.17 0.17 0 0 0-0.17 0.12 l-0.41 1.2zm-3.31-1.31L32 23.23v-0.06c-0.11-0.33-0.26-0.65-0.35-1a0.37 0.37 0 0 0-0.49-0.32 2 2 0 0 1-0.24 0.04 v-0.09z" fill="#FFF"/>
  <path d="M33.86 21.9c-0.18 0.51 -0.36 1-0.54 1.48l-0.13 0.08 c-0.22 0.06 -0.26-0.1-0.32-0.25L32.41 22c0-0.1 0-0.14 0.08 -0.14h1.26l0.11 0.04 zM33.11 20l0.63 1.12h-1.26zM30.84 20l0.38 1h-1.07c0.22-0.29 0.44 -0.62 0.69 -1zM36.05 21.07H35l0.34-0.93c0-0.07 0.06 -0.09 0.11 0 0.18 0.28 0.38 0.56 0.56 0.84 -0.01 0.02 -0.01 0.02 0.04 0.09 zM34.34 20.53l-0.49-0.88c-0.05-0.11 0-0.13 0.07 -0.13h0.69c0.1 0 0.12 0 0.09 0.14 l-0.3 0.79 a0.35 0.35 0 0 1-0.06 0.08 zM31.87 20.55c-0.09-0.26-0.18-0.49-0.26-0.72l-0.09-0.21c0-0.06 0-0.1 0.06 -0.1h0.8l-0.51 1.03zM34.23 23.2l0.43-1.2a0.17 0.17 0 0 1 0.17-0.12h0.52l-1.1 1.32h-0.02zM30.92 21.89a2 2 0 0 0 0.23 0 0.37 0.37 0 0 1 0.49 0.32 c0.09 0.33 0.24 0.65 0.35 1v0.06l-1.09-1.35 0.02 -0.03z" fill="#F9A66E"/>
  <path d="M4.68 11.62c0.05-0.71 0.1 -1.54 0.2 -2.36 0.075 -0.55 0.186 -1.094 0.33 -1.63 0.14 -0.552 0.31 -1.096 0.51 -1.63 0.228 -0.582 0.492 -1.15 0.79 -1.7a9.2 9.2 0 0 1 2.18-2.7A6.83 6.83 0 0 1 10.57 0.45 6.46 6.46 0 0 1 12 0.05a7.07 7.07 0 0 1 1.13 0 5 5 0 0 1 1.53 0.26 7 7 0 0 1 2.18 1.17A9.46 9.46 0 0 1 19 3.85c0.401 0.63 0.736 1.3 1 2 0.16 0.45 0.34 0.9 0.46 1.36 0.12 0.46 0.22 0.93 0.31 1.39a16 16 0 0 1 0.26 4.2c0 0.53-0.11 1.06-0.18 1.58-0.05 0.31 -0.09 0.61 -0.16 0.91 -0.07 0.3 -0.2 0.81 -0.32 1.21a6.88 6.88 0 0 1-0.3 0.87 c-0.26 0.6 -0.52 1.2-0.82 1.78a9.12 9.12 0 0 1-1.72 2.28 7.44 7.44 0 0 1-2 1.43 6 6 0 0 1-3.21 0.55 7.46 7.46 0 0 1-1.34-0.31A6 6 0 0 1 8.9 22a8.44 8.44 0 0 1-1.56-1.6 9.11 9.11 0 0 1-1-1.65A16 16 0 0 1 5.57 17a10.72 10.72 0 0 1-0.48-1.65c-0.14-0.65-0.22-1.32-0.3-2-0.08-0.68-0.07-1.07-0.11-1.73zm7.18-4.49a3.78 3.78 0 0 0-0.13-0.56 1.32 1.32 0 0 0-1.06-0.91 1.48 1.48 0 0 0-1.38 0.49 4.52 4.52 0 0 0-0.78 1.47c-0.15 0.37 -0.28 0.75 -0.4 1.14a9.32 9.32 0 0 0-0.23 0.91 c-0.06 0.33 -0.11 0.67 -0.15 1a13.46 13.46 0 0 0-0.11 1.55c0.006 0.94 0.134 1.874 0.38 2.78 0.094 0.384 0.215 0.762 0.36 1.13 0.2 0.51 0.45 1 0.68 1.5 0.185 0.43 0.551 0.756 1 0.89a1.45 1.45 0 0 0 1.82-1.11 1.53 1.53 0 0 0-0.17-1.14 7.93 7.93 0 0 1-0.52-1.15c-0.16-0.43-0.26-0.88-0.38-1.33a6.79 6.79 0 0 1-0.2-1.79A8.09 8.09 0 0 1 11 9.38c0.16-0.46 0.35 -0.91 0.54 -1.36a2 2 0 0 0 0.32-0.89z" fill="#FFF"/>
  <path d="M12.78 35.21H7.65A1.5 1.5 0 0 1 7 32.37a1.71 1.71 0 0 1 0.71-0.16h3.48c0.23 0 0.23 0 0.23-0.22v-3.55c0-0.2 0-0.19-0.21-0.23-0.4-0.09-0.81-0.18-1.2-0.3a9.47 9.47 0 0 1-1.05-0.4 10.47 10.47 0 0 1-2.3-1.36 13.33 13.33 0 0 1-1.68-1.51 15.8 15.8 0 0 1-1.78-2.31A17.32 17.32 0 0 1 2 20.22c-0.27-0.61-0.53-1.23-0.76-1.86-0.23-0.63-0.31-1-0.43-1.49S0.49 15.63 0.37 15c-0.09-0.48-0.13-1-0.21-1.45A18.54 18.54 0 0 1 0 10.87a1.42 1.42 0 0 1 0.74-1.33 1.49 1.49 0 0 1 2.21 1 1.5 1.5 0 0 1 0 0.2c0 0.53 0 1.06 0.07 1.59s0.12 1.17 0.2 1.75c0.08 0.58 0.13 0.89 0.23 1.33 0.1 0.44 0.25 1 0.39 1.46 0.14 0.46 0.23 0.73 0.36 1.08a15.3 15.3 0 0 0 1 2.25 14.36 14.36 0 0 0 1.28 1.9 10.07 10.07 0 0 0 2 1.91 7.6 7.6 0 0 0 1.84 1c0.38 0.13 0.78 0.21 1.16 0.31 a5.4 5.4 0 0 0 1.33 0.12 7.23 7.23 0 0 0 1.78-0.26 7.64 7.64 0 0 0 2-0.86 9.56 9.56 0 0 0 2-1.71 12 12 0 0 0 1.6-2.21c0.27-0.48 0.54 -1 0.77-1.49 0.23 -0.49 0.37 -0.91 0.54 -1.38 0.17 -0.47 0.28 -0.82 0.4 -1.24 0.12 -0.42 0.16 -0.61 0.22 -0.92 0.09 -0.48 0.19 -1 0.27-1.46a7 7 0 0 0 0.09-0.8c0.05-0.82 0.07 -1.64 0.14 -2.45a1.39 1.39 0 0 1 0.79-1.12 1.52 1.52 0 0 1 1.75 0.28 c0.278 0.277 0.43 0.657 0.42 1.05v1.58c0 0.53-0.11 1.26-0.2 1.89-0.09 0.63 -0.16 1-0.28 1.54-0.12 0.54 -0.29 1.23-0.49 1.83-0.25 0.76 -0.52 1.52-0.84 2.25a16.85 16.85 0 0 1-2.05 3.47 14.56 14.56 0 0 1-1.83 2 11.71 11.71 0 0 1-2.45 1.74 12 12 0 0 1-1.32 0.58 c-0.42 0.16 -0.86 0.28 -1.29 0.41 a4 4 0 0 1-0.48 0.08 c-0.12 0-0.18 0.06 -0.18 0.19 v3.65c0 0.14 0.07 0.15 0.18 0.15H18a1.44 1.44 0 0 1 1.18 0.58 1.48 1.48 0 0 1-0.87 2.37 4.07 4.07 0 0 1-0.61 0.05 l-4.92-0.02z" fill="#FFF"/>
</svg>
