<?xml version="1.0" ?>
<svg xmlns="http://www.w3.org/2000/svg" width="44" height="31" viewBox="0 0 44 31">
  <path d="M0 13h39.87a3.36 3.36 0 1 1-3.27 4.19 8.16 8.16 0 0 1-0.11-1c0-0.17 0.06 -0.22 0.22 -0.21h1c0.35 0 0.29 0.05 0.28 0.27 a1.77 1.77 0 0 0 0.55 1.43 1.89 1.89 0 1 0 1.37-3.22H38a4.21 4.21 0 0 0-2.68 0.94 l-9.22 7.35a14.11 14.11 0 0 1-1.82 1.38 5.66 5.66 0 0 1-6-0.07C13 20.87 7.67 17.65 2.36 14.46L0.18 13.15 0 13zM23.67 25.86c0.122 0.424 0.276 0.839 0.46 1.24a2.86 2.86 0 0 0 2.56 1.56 1.51 1.51 0 0 1 1.55 1.57c0 0.65 0 0.65-0.64 0.65 h-14c-0.23 0-0.33-0.05-0.3-0.3a7.39 7.39 0 0 1 0.08-0.85 1.44 1.44 0 0 1 1.37-1.07A4.44 4.44 0 0 0 18.88 26c0.07-0.15 0.15 -0.18 0.29 -0.13a7 7 0 0 0 4.32 0h0.14l0.04-0.01zM31.33 5.46h-4.51a0.49 0.49 0 0 0-0.43 0.2 1.44 1.44 0 0 1-1.84 0.34 1.48 1.48 0 0 1 0.78-2.77 1.39 1.39 0 0 1 1.06 0.55 0.46 0.46 0 0 0 0.41 0.19 h8.72a3.85 3.85 0 0 1 2.23 0.63 3.69 3.69 0 0 1 1.68 3.11v1.5a0.47 0.47 0 0 0 0.15 0.31 1.49 1.49 0 0 1 0.49 1.68 0.29 0.29 0 0 1-0.32 0.24 H37.6a0.28 0.28 0 0 1-0.31-0.22 1.45 1.45 0 0 1 0.48-1.68 0.42 0.42 0 0 0 0.23-0.36V7.71a2.22 2.22 0 0 0-2.24-2.24h-4.43v-0.01zM21.5 11.44h-4.16c-0.23 0-0.32 0-0.31-0.29 0.01 -0.29-0.03-0.79-0.03-1.15a1.48 1.48 0 0 1 1.49-1.48h6A1.49 1.49 0 0 1 26 10v1.26c0 0.2-0.07 0.23 -0.25 0.23 H21.5v-0.05zM20 4.56V2.48a1.5 1.5 0 0 1 3-0.06 1.77 1.77 0 0 1-0.22 1 2.57 2.57 0 0 0 0.09 2.75 1 1 0 0 1 0.13 0.63 0.21 0.21 0 0 1-0.15 0.15 h-2.67C20 7 20 6.83 20 6.73V4.56z" fill="#FFF"/>
</svg>
