<?xml version="1.0" ?>
<svg xmlns="http://www.w3.org/2000/svg" width="29" height="36" viewBox="0 0 29 36">
  <path d="M28.05 35.26h-28a1.49 1.49 0 0 1 0-0.21 6.62 6.62 0 0 1 2-5.31A11.87 11.87 0 0 1 6.07 27c0.59-0.25 1.21-0.46 1.82-0.66A1.06 1.06 0 0 0 8.56 25a6.51 6.51 0 0 0-1.2-2.13A15.34 15.34 0 0 1 5.62 20a1.16 1.16 0 0 0-0.85-0.66 3 3 0 0 1-2.34-2.11 4.42 4.42 0 0 1-0.09-2.62A2.87 2.87 0 0 1 3.45 13l0.12-0.09c0.22-0.14 0.27 -0.28 0.16 -0.5a1.58 1.58 0 0 1-0.14-0.8c0.05-1.033 0.188 -2.06 0.41 -3.07a9.82 9.82 0 0 1 3.21-5.07 11.24 11.24 0 0 1 4.28-2.29c0.42-0.12 0.85 -0.22 1.28-0.32a0.32 0.32 0 0 0 0.23-0.2 1.17 1.17 0 0 1 2.1 0 0.31 0.31 0 0 0 0.22 0.18 11.81 11.81 0 0 1 6.43 3.49c0.38 0.41 0.7 0.88 1 1.33a0.37 0.37 0 0 0 0.3 0.18 3.76 3.76 0 0 1 2 0.77A2.33 2.33 0 0 1 25.86 9a9 9 0 0 1-0.79 2c-0.22 0.48 -0.45 0.95 -0.68 1.42a0.35 0.35 0 0 0 0.1 0.46 3.23 3.23 0 0 1 1.43 3 3.21 3.21 0 0 1-1.27 2.75c-0.4 0.314 -0.85 0.56 -1.33 0.73 a1.19 1.19 0 0 0-0.8 0.79 7.44 7.44 0 0 1-1.4 2.3 7.85 7.85 0 0 0-1.29 1.88c-0.11 0.26 -0.22 0.53 -0.31 0.81 a1 1 0 0 0 0.74 1.22 13.78 13.78 0 0 1 5.27 2.84 7.75 7.75 0 0 1 2.14 2.93c0.4 0.988 0.538 2.063 0.4 3.12l-0.02 0.01 zM19.6 22.31a0.76 0.76 0 0 0 0.16-0.14c0.31-0.41 0.66 -0.79 0.94 -1.22a6.45 6.45 0 0 0 0.95-2.06 9 9 0 0 1 0.25-0.89 0.59 0.59 0 0 1 0.54-0.43 0.65 0.65 0 0 1 0.59 0.36 0.38 0.38 0 0 0 0.55 0.16 2.83 2.83 0 0 0 0.64-0.5c0.32-0.374 0.512 -0.84 0.55 -1.33a2.56 2.56 0 0 0-0.57-2.11 0.47 0.47 0 0 0-0.52-0.16 0.43 0.43 0 0 0-0.27 0.46 v1a0.56 0.56 0 0 1-0.59 0.6 h-0.13c-0.67 0-0.83-0.15-0.83-0.81v-1.89a0.64 0.64 0 0 0-0.71-0.71H14.8c-0.35 0-0.47 0.19 -0.37 0.53 0.096 0.326 0.16 0.661 0.19 1v1.9c0 0.41 0.14 0.55 0.54 0.56a0.56 0.56 0 0 1 0.54 0.57 0.55 0.55 0 0 1-0.54 0.59 h-2.25a0.51 0.51 0 0 1-0.47-0.27 0.59 0.59 0 0 1 0.5-0.89c0.33 0 0.51-0.16 0.52 -0.46v-2.14a1.49 1.49 0 0 0-1.28-1.4 7.85 7.85 0 0 0-1 0h-4.1a0.65 0.65 0 0 0-0.73 0.74 v2a0.57 0.57 0 0 1-0.61 0.62 h-0.36a0.54 0.54 0 0 1-0.57-0.59v-1.05a0.43 0.43 0 0 0-0.25-0.43 0.48 0.48 0 0 0-0.51 0.08 1.86 1.86 0 0 0-0.61 1 3.33 3.33 0 0 0 0 1.6 2 2 0 0 0 0.82 1.32c0.048 0.034 0.098 0.064 0.15 0.09 a0.4 0.4 0 0 0 0.59-0.27 0.58 0.58 0 0 1 1.12-0.12c0.078 0.176 0.135 0.36 0.17 0.55 0.09 0.35 0.14 0.72 0.26 1.06a8.88 8.88 0 0 0 1.78 2.94l0.17 0.15 v-0.25a5.35 5.35 0 0 1 0.27-1 5.21 5.21 0 0 1 4.05-2.78 0.68 0.68 0 0 1 0.76 0.49 0.71 0.71 0 0 1-0.33 0.84 2.25 2.25 0 0 1-0.61 0.23 A2.78 2.78 0 0 0 11 20.94a1.65 1.65 0 0 0-0.17 1.79 2 2 0 0 0 1.12 0.91 6.47 6.47 0 0 0 2.93 0.34 4.1 4.1 0 0 0 1.53-0.41 1.72 1.72 0 0 0 0.5-2.89 3.31 3.31 0 0 0-1.37-0.82 4.87 4.87 0 0 1-0.72-0.28 0.66 0.66 0 0 1-0.29-0.79 0.56 0.56 0 0 1 0.55-0.46 1.72 1.72 0 0 1 0.6 0 6.14 6.14 0 0 1 2.6 1.33 3.92 3.92 0 0 1 1.2 1.89c0.03 0.26 0.07 0.5 0.12 0.76 zm-4.66-10.84h7.88a1 1 0 0 0 1-0.57c0.287-0.587 0.557 -1.187 0.81 -1.8a1.69 1.69 0 0 0 0.09-1 1.25 1.25 0 0 0-0.84-0.86 4.38 4.38 0 0 0-1.72-0.28h-9.79A18.9 18.9 0 0 0 9 7.07 3 3 0 0 0 7.24 8 7.52 7.52 0 0 0 6 10a1 1 0 0 0 0.6 1.38c0.183 0.063 0.377 0.09 0.57 0.08 l7.77 0.01 zm-0.57 22.68a10.71 10.71 0 0 0 2.25-0.32A8.15 8.15 0 0 0 22.2 29a0.45 0.45 0 0 0-0.11-0.58 0.45 0.45 0 0 0-0.61 0.06 1 1 0 0 1-1.71-0.55 1.66 1.66 0 0 1 0-0.32 0.22 0.22 0 0 0-0.25-0.21 0.21 0.21 0 0 0-0.22 0.21 v0.26a0.5 0.5 0 0 1-0.26 0.45 0.62 0.62 0 0 1-0.9-0.51v-1.65c0-0.16 0-0.31-0.16-0.39a0.36 0.36 0 0 0-0.41 0 6.2 6.2 0 0 1-2.76 0.95 6.6 6.6 0 0 1-4.23-0.91 0.4 0.4 0 0 0-0.43 0c-0.15 0.09 -0.16 0.23 -0.16 0.39 v1.4a1.27 1.27 0 0 1 0 0.34 0.52 0.52 0 0 1-0.45 0.4 A0.5 0.5 0 0 1 9 28a1.13 1.13 0 0 1-0.11-0.41c0-0.2-0.1-0.29-0.26-0.28-0.16 0.01 -0.22 0.1 -0.22 0.31 a1.41 1.41 0 0 1 0 0.46 1.05 1.05 0 0 1-1.8 0.31 0.31 0.31 0 0 0-0.46-0.09 0.32 0.32 0 0 0-0.1 0.46 10.58 10.58 0 0 0 2.33 3.1 8.49 8.49 0 0 0 5.99 2.29z" fill="#FFF"/>
  <path d="M14.08 21.1h1.65a0.5 0.5 0 0 1 0.5 0.37 0.57 0.57 0 0 1-0.25 0.68 0.87 0.87 0 0 1-0.32 0.06 h-3.19a0.58 0.58 0 0 1-0.6-0.44 0.58 0.58 0 0 1 0.35-0.65 0.77 0.77 0 0 1 0.26 0h1.6v-0.02zM18.56 13.61a1.08 1.08 0 0 1 1.12 1.15 1.12 1.12 0 0 1-2.24 0 1.09 1.09 0 0 1 1.12-1.15zM10.64 14.73a1.12 1.12 0 0 1-2.24 0 1.1 1.1 0 0 1 1.13-1.16 1.08 1.08 0 0 1 1.11 1.16zM9.39 29.9a1.09 1.09 0 0 1-1.08 1 1 1 0 0 1-1-1 1.13 1.13 0 0 1 1.08-1.05 1 1 0 0 1 1 1.05zM15.52 33.39a1 1 0 0 1-1-1.06 0.94 0.94 0 0 1 1-1 1 1 0 0 1 1 1 1 1 0 0 1-1 1.06zM19 31.51a1 1 0 0 1-1 1 1.1 1.1 0 0 1-1-1.09 1 1 0 0 1 1-1 1.09 1.09 0 0 1 1 1.09zM13.7 32.36a1 1 0 1 1-2 0 1 1 0 0 1 2 0zM11.23 31.46a1.08 1.08 0 0 1-1 1.08 1 1 0 0 1-1-1 1.1 1.1 0 0 1 1-1.09 1 1 0 0 1 1 1.01zM19.8 30.85a1 1 0 0 1-1-1 1.1 1.1 0 0 1 1.05-1.08 1 1 0 0 1 1 1 1.08 1.08 0 0 1-1.05 1.08z" fill="#FFF"/>
</svg>
