<?xml version="1.0" ?>
<svg xmlns="http://www.w3.org/2000/svg" width="38" height="32" viewBox="0 0 38 32">
  <path d="M32 1.24c-0.18 0.17 -0.35 0.35 -0.51 0.54 a1.36 1.36 0 0 0 0.47 2 1.6 1.6 0 0 0 1 0.14 0.18 0.18 0 0 1 0.22 0.13 c0.2 0.487 0.403 0.97 0.61 1.45a0.18 0.18 0 0 1-0.08 0.25 1.37 1.37 0 0 0 0.24 2.44c0.27 0.092 0.56 0.113 0.84 0.06 a0.14 0.14 0 0 1 0.18 0.1 c0.21 0.52 0.43 1 0.66 1.54 0 0.1 0 0.13-0.08 0.17 a1.37 1.37 0 0 0-0.67 1.26 1.32 1.32 0 0 0 1 1.22c0.256 0.015 0.514 0.015 0.77 0a0.21 0.21 0 0 1 0.15 0.08 c0.16 0.37 0.31 0.74 0.46 1.11a0.35 0.35 0 0 1 0 0.11L34.34 15l-1.95 0.83 -1.49 0.61 -2 0.83-1.9 0.8 -1.69 0.7 -1.8 0.74 -1.92 0.81 L20 21l-2 0.82-1.93 0.79 -1.93 0.82 -1.38 0.56 -1.33 0.55 -1.4 0.59 -1.94 0.81 -1.93 0.79 c-0.14 0.06 -0.27 0.12 -0.41 0.16 a0.16 0.16 0 0 1-0.14-0.06c-0.16-0.35-0.3-0.71-0.45-1.06-0.05-0.12 0-0.19 0.1 -0.25a1.31 1.31 0 0 0 0.53-0.67 1.35 1.35 0 0 0-0.65-1.7 1.18 1.18 0 0 0-1-0.11c-0.08 0-0.12 0-0.15-0.08-0.14-0.36-0.3-0.71-0.45-1.06l-0.21-0.48c0-0.09 0-0.15 0.07 -0.21a1.38 1.38 0 0 0-1.07-2.51 0.2 0.2 0 0 1-0.16-0.1c-0.22-0.51-0.41-1-0.63-1.53 0-0.11 0-0.14 0.07 -0.2a1.38 1.38 0 0 0 0.72-0.87 1.28 1.28 0 0 0-0.15-1 1.42 1.42 0 0 0-1.28-0.74H0.8c-0.27 0.06 -0.27 0.06 -0.37-0.18l-0.41-1c0-0.07 0-0.12 0.06 -0.16l2-0.82 2.14-0.89 1.54-0.63 2-0.81L9.66 9l1.93-0.82 1.35-0.55 1.22-0.51 1.35-0.55 1-0.42 1.22-0.5 1.39-0.58 1.33-0.55 1.42-0.59 1.77-0.72 1.53-0.64 1.94-0.8 1.36-0.57 1.8-0.74 0.95 -0.4c0.2-0.09 0.22 -0.09 0.29 0.1l0.41 1 0.08 0.08 zm-28.71 12l4.6 11.11 0.52 -0.21 1.59-0.62 1.41-0.58 1.33-0.54 1.39-0.59 1.6-0.66 1.55-0.64L18.6 20l2-0.82 1.94-0.8 2.28-1 1.93-0.78 2.12-0.9 2.84-1.16 2.12-0.89c0.12-0.05 0.13 -0.09 0.08 -0.2-0.15-0.33-0.28-0.67-0.42-1-0.21-0.51-0.41-1-0.63-1.54-0.22-0.54-0.59-1.28-0.86-1.91-0.27-0.63-0.52-1.3-0.79-1.95l-1-2.3c-0.29-0.69-0.57-1.39-0.85-2.08-0.06-0.14-0.14-0.17-0.28-0.11l-1.37 0.58 -1.94 0.8 -1.92 0.8 -1.73 0.7 -1.93 0.82 -2.52 1-1.53 0.64 -1.38 0.55 -1.93 0.82 -1.76 0.73 -2.46 1-1.94 0.79 L3.81 13l-0.52 0.24 zM11.16 28.35c-0.39-0.47-0.78-0.92-1.15-1.39a0.19 0.19 0 0 1 0-0.18c0.216-0.24 0.34 -0.548 0.35 -0.87a0.19 0.19 0 0 1 0.11-0.14l1.5-0.62 0.12 -0.06a0.16 0.16 0 0 1 0.23 0l1.07 1.29L14.66 28c0.13 0.15 0.26 0.3 0.38 0.46 0.12 0.16 0.13 0.1 0.22 0l1.27-1 1.91-1.57 2.36-2 2.94-2.42c0.86-0.71 1.73-1.4 2.57-2.13a5.29 5.29 0 0 1 1.42-0.73c0.46-0.21 0.94 -0.39 1.41-0.58L31 17.3l0.32-0.14-0.52 0.44 -3 2.49-3 2.43-3.18 2.63-2 1.61-2.82 2.41-1.93 1.58-0.84 0.69 c-0.19 0.15 -0.19 0.16 -0.34 0l-0.69-0.85c-0.06-0.07-0.07-0.12 0-0.2a1.37 1.37 0 0 0-0.11-2 1.41 1.41 0 0 0-1.56-0.18l-0.17 0.14 z" fill="#FFF"/>
  <path d="M20.87 21.55l-0.93 0.77 -1.59 1.3-1.51 1.25c-0.25 0.2 -0.5 0.4 -0.75 0.62 -0.08 0.07 -0.12 0-0.17 0l-0.35-0.49a0.14 0.14 0 0 1 0-0.23l1.93-1.58c0.26-0.22 0.51 -0.46 0.79 -0.64 0.23 -0.132 0.47 -0.243 0.72 -0.33l1.56-0.65 0.26 -0.1 0.04 0.08zM21.8 15.66v-4.75h-0.22l-0.28 0.06 -0.26 0.05 -0.28 0.06 -0.37 0.08 h-0.24l-0.28 0.06 h-0.25l-0.28 0.05 -0.25 0.05 -0.3 0.06 -0.35 0.07 -0.4 0.08 -0.37 0.07 -0.27 0.06 h-0.25l-0.28 0.06 -0.36 0.07 h-0.14v5.19a1.38 1.38 0 0 1-0.34 0.9 2 2 0 0 1-0.67 0.52 2.37 2.37 0 0 1-0.47 0.18 l-0.3 0.05 a2.11 2.11 0 0 1-0.71-0.06 1.2 1.2 0 0 1-0.38-0.15 1 1 0 0 1-0.45-0.46 1 1 0 0 1-0.08-0.59 1.49 1.49 0 0 1 0.5-0.87 2.31 2.31 0 0 1 1-0.53c0.203-0.05 0.412 -0.07 0.62 -0.06 0.185 0.01 0.368 0.05 0.54 0.12V9.4h0.21l0.27-0.06 0.26 -0.05 0.39 -0.08 0.38 -0.07 0.41 -0.14h0.25l0.28-0.06 0.34 -0.07 0.4 -0.08 0.28 -0.05 0.36 -0.08h0.23l0.3-0.06 0.35 -0.07 0.51 -0.1 0.36 -0.07 0.27 -0.06 0.26 -0.05 0.38 -0.08 0.28 -0.05h0.09v8.49c0.012 0.37 -0.125 0.73 -0.38 1a1.94 1.94 0 0 1-0.62 0.47 3.1 3.1 0 0 1-0.41 0.17 2.52 2.52 0 0 1-0.36 0.07 h-0.24a1.77 1.77 0 0 1-0.56-0.08 1.35 1.35 0 0 1-0.48-0.25 1 1 0 0 1-0.33-0.5 1 1 0 0 1 0-0.32 1.29 1.29 0 0 1 0.14-0.51 1.66 1.66 0 0 1 0.42-0.53 1.91 1.91 0 0 1 0.48-0.31 3.33 3.33 0 0 1 0.45-0.17 2 2 0 0 1 0.72-0.06c0.166 0.013 0.328 0.054 0.48 0.12 v-0.05z" fill="#FFF"/>
</svg>
