<?xml version="1.0" ?>
<svg xmlns="http://www.w3.org/2000/svg" width="44" height="35" viewBox="0 0 44 35">
  <path d="M20.14 7.64H1.58A1.46 1.46 0 0 0 1 10.47c0.188 0.06 0.383 0.09 0.58 0.09 h14.1c0.31 0 0.31 0 0.31 0.31 v8.89c0 0.22-0.05 0.3 -0.29 0.32 -0.51 0.05 -1 0.15-1.53 0.23 l-0.72 0.1 c-0.73 0.1 -1.47 0.18 -2.19 0.3 a3.18 3.18 0 0 0-2.65 2.21 4.89 4.89 0 0 0-0.18 1.38V31.28a0.92 0.92 0 0 1-0.81 1c-0.68 0.16 -1.36 0.34 -2 0.54a0.79 0.79 0 0 0-0.55 0.68 1 1 0 0 0 0.34 0.91 1 1 0 0 0 0.72 0.22 H10a1.77 1.77 0 0 0 1.75-1.53c0.1-0.76 0.19 -1.53 0.29 -2.29l0.36-2.47 0.27 -1.83c0-0.21 0.06 -0.41 0.08 -0.62a0.22 0.22 0 0 1 0.21-0.21l2.5-0.36L17.2 25l2-0.33 0.7 -0.1c0.32-0.05 0.54 0.17 0.78 0.3l6.9 3.7c0.75 0.41 1.48 0.83 2.24 1.2 0.95 0.45 1.92 0.86 2.88 1.29l3.07 1.37L39.3 34c0.35 0.16 0.7 0.33 1.06 0.47 0.244 0.102 0.5 0.176 0.76 0.22 0.59 0.08 1.18 0.14 1.78 0.19 a1.3 1.3 0 0 0 0.51-0.11 0.68 0.68 0 0 0 0.33-0.95 6.12 6.12 0 0 0-2.27-2.64l-6.35-4c-1-0.67-2.06-1.38-3.13-2-1.07-0.62-2.47-1.33-3.7-2l-3.73-2a0.32 0.32 0 0 1-0.19-0.33v-10c0-0.29 0-0.29 0.3 -0.29h14.14a1.44 1.44 0 1 0 0.35-2.86 4.74 4.74 0 0 0-0.75-0.06H20.14zM23.52 3.35A3.33 3.33 0 0 0 20.14 0a3.37 3.37 0 1 0 3.38 3.35z" fill="#FFF"/>
</svg>
