<?xml version="1.0" ?>
<svg xmlns="http://www.w3.org/2000/svg" width="44" height="36" viewBox="0 0 44 36">
  <path d="M21.77 0H43.2a0.32 0.32 0 0 1 0.3 0.3 1.21 1.21 0 0 1 0 0.19v34.37a0.8 0.8 0 0 1 0 0.31 0.37 0.37 0 0 1-0.37 0.18 H0.44c-0.33 0-0.43-0.11-0.43-0.45C0.003 23.42 0 11.94 0 0.46 0 0.14 0.16 0 0.47 0h21.3zm-17 4.76V17h7.1V4.77l-7.1-0.01zm15.6 0h-7.1V17h7.1V4.76zM30.23 17V4.78h-7.1V17h7.1zm1.38 0h7.12V4.78h-7.12V17zM11.88 30.58V18.37h-7.1v12.21h7.1zm8.5 0V18.37h-7.1v12.21h7.1zm2.74 0h7.11V18.37h-7.11v12.21zm15.61-12.2h-7.11v12.2h7.11v-12.2z" fill="#FFF"/>
</svg>
