<?xml version="1.0" ?>
<svg xmlns="http://www.w3.org/2000/svg" width="33" height="35" viewBox="0 0 33 35">
  <path d="M6.37 33a1.47 1.47 0 0 1 0.88-1.15 4.61 4.61 0 0 1 1.88-0.56c0.54-0.04 1.079 0.1 1.53 0.4 0.1 0.07 0.16 0.06 0.21-0.06a0.59 0.59 0 0 1 0.6-0.39c0.395 0.01 0.786 0.08 1.16 0.21 l0.12 0.07 c0.17 0.12 0.27 0.11 0.39-0.07s0.12-0.19 0.19 -0.28c0.23-0.33 0.41 -0.3 0.69 -0.16 0.08 0 0.15 0.1 0.23 0.15 l0.24 0.16 0.11-0.32a1 1 0 0 1 0.72-0.49 1.84 1.84 0 0 1 1 0c0.09 0 0.16 0 0.17-0.1 0.01 -0.1 0-0.07 0-0.1l0.09-1.08c0.06-0.83 0.13 -1.66 0.18 -2.49v-1.5a0.61 0.61 0 0 0-0.16-0.32c-0.5-0.57-1-1.15-1.5-1.7-0.71-0.73-1.44-1.45-2.16-2.17-0.21-0.2-0.46-0.38-0.67-0.58-0.21-0.2-0.38-0.11-0.58-0.09-0.2 0.02 -0.28 0-0.41 0H9.95c-0.44 0-0.85-0.12-1.28-0.19a6.45 6.45 0 0 1-1.47-0.47 6.36 6.36 0 0 1-2-1.42 5.52 5.52 0 0 1-1-1.58c-0.23-0.55-0.44-1.12-0.64-1.7-0.2-0.58-0.37-1.17-0.56-1.76-0.07-0.24-0.16-0.47-0.24-0.71a1.13 1.13 0 0 1 0-0.14l0.25 0.15 a6 6 0 0 0 1.38 0.61 c0.36 0.1 0.73 0.15 1.1 0.22 0.69 0.12 1.39 0.2 2.08 0.35 a6.18 6.18 0 0 1 2.08 0.93 5.69 5.69 0 0 1 1.9 2.2c0.279 0.54 0.529 1.094 0.75 1.66 0.16 0.4 0.24 0.82 0.37 1.23a0.41 0.41 0 0 0 0.15 0.21 20.93 20.93 0 0 1 2.25 1.61L16.72 23l0.13 0.11 v-0.18c0-0.88-0.06-1.76-0.12-2.64a25.667 25.667 0 0 0-0.21-1.95c-0.07-0.5-0.17-1-0.25-1.48a1.84 1.84 0 0 1-0.06-0.4 0.24 0.24 0 0 0-0.19-0.22 8.91 8.91 0 0 1-1.48-0.66 8.85 8.85 0 0 1-2-1.41 7.3 7.3 0 0 1-1.38-1.7 8.49 8.49 0 0 1-0.79-1.8 8.24 8.24 0 0 1-0.31-3.08c0.054-0.495 0.138 -0.985 0.25 -1.47 0.08 -0.41 0.18 -0.82 0.29 -1.22 0.11 -0.4 0.26 -0.85 0.39 -1.27l0.29-1 0.24-0.85c0.09-0.3 0.17 -0.61 0.25 -0.92 0.08 -0.31 0.23 -0.55 0.23 -0.8V0c0.09 0.27 0.16 0.53 0.25 0.78 A7.09 7.09 0 0 0 14 3.31c0.65 0.65 1.31 1.29 2 1.93a8.77 8.77 0 0 1 1.37 1.67A5.7 5.7 0 0 1 18 8.54c0.11 0.46 0.25 0.92 0.32 1.38 0.062 0.508 0.088 1.019 0.08 1.53a6.46 6.46 0 0 1-0.08 1.24 6.64 6.64 0 0 1-0.58 1.9 7 7 0 0 1-0.92 1.47 0.34 0.34 0 0 0-0.05 0.24 c0.13 0.48 0.27 0.95 0.4 1.43s0.22 0.84 0.31 1.26c0.09 0.42 0.12 0.59 0.18 0.88 0.08 0.45 0.17 0.89 0.25 1.34 0 0.16 0.05 0.33 0.07 0.49l0.15 1.22c0.06 0.52 0.13 1 0.19 1.55 0 0.31 0.05 0.63 0.07 1a0.32 0.32 0 0 0 0.06 0.17 c0.12-0.21 0.24 -0.42 0.37 -0.62l1.24-1.91c0.23-0.36 0.44 -0.73 0.66 -1.1a0.17 0.17 0 0 0 0-0.14 4.84 4.84 0 0 1-0.39-1.24 4.52 4.52 0 0 1-0.12-1.37c0-0.42 0.12 -0.83 0.19 -1.24a6 6 0 0 1 0.48-1.49 6.89 6.89 0 0 1 0.75-1.29 9.74 9.74 0 0 1 1.82-1.69 7.23 7.23 0 0 0 1.65-1.57 4.24 4.24 0 0 0 0.63-1.4c0 0.1 0.07 0.17 0.09 0.24 0.06 0.31 0.11 0.61 0.17 0.92 0.06 0.31 0.15 0.78 0.21 1.17 0.06 0.39 0.15 1 0.19 1.43 0.04 0.43 0.06 1.15 0.06 1.73a5.68 5.68 0 0 1-0.39 2 6.29 6.29 0 0 1-2 2.74A6.08 6.08 0 0 1 22 21.89a2.32 2.32 0 0 1-0.45 0.13 c-0.2 0-0.27 0.19 -0.34 0.35 l-0.88 1.89c-0.25 0.54 -0.48 1.08-0.72 1.62s-0.35 0.83 -0.52 1.24l-0.48 1.28a0.34 0.34 0 0 0 0 0.1c0 0.61 0 1.22 0.05 1.83a0.41 0.41 0 0 0 0 0.07h0.52a1.3 1.3 0 0 1 0.74 0.21 3 3 0 0 1 0.35 0.37 1.85 1.85 0 0 1 2.52 0.82 1.14 1.14 0 0 1 1-0.34 5.49 5.49 0 0 1 1.94 0.49 3.65 3.65 0 0 1 1.2 0.74 0.16 0.16 0 0 0 0.12 0 2 2 0 0 1 1.42-0.19 4 4 0 0 1 1.33 0.54 0.46 0.46 0 0 0 0.21 0h0.72c0.404 0.037 0.805 0.1 1.2 0.19 0.297 0.094 0.588 0.208 0.87 0.34 h0.06c0.24 0.2 0.24 0.39 0 0.52a5.59 5.59 0 0 1-0.82 0.26 c-0.36 0.08 -0.72 0.13 -1.09 0.19 -0.37 0.06 -0.47 0.06 -0.7 0.08 l-1.59 0.12 -1.8 0.09 c-1.18 0-2.35 0.07 -3.53 0.08 -3.42 0-6.84 0-10.26 0.05 h-2.35c-1.77 0-3.54-0.08-5.3-0.14-0.78 0-1.57-0.07-2.35-0.13-0.62-0.05-1.24-0.12-1.85-0.21a4.63 4.63 0 0 1-1-0.26c-0.22-0.08-0.23-0.22 0-0.34a5.75 5.75 0 0 1 0.78-0.32 6.1 6.1 0 0 1 1-0.26 2.28 2.28 0 0 1 1.1 0c0.093 0.047 0.184 0.1 0.27 0.16 0.38-0.39 0.88 -0.64 1.42-0.71a1.82 1.82 0 0 1 1.58 0.25 z" fill="#FFF"/>
</svg>
