<?xml version="1.0" ?>
<svg xmlns="http://www.w3.org/2000/svg" width="44" height="25" viewBox="0 0 44 25">
  <path d="M13.69 5a2.2 2.2 0 0 1 0.39-1.51A7.44 7.44 0 0 1 15.88 1a4.4 4.4 0 0 1 1.63-0.85 3.52 3.52 0 0 1 1.82-0.06 5.2 5.2 0 0 1 1.8 0.8 l0.74 0.55 c0.17 0.13 0.29 0.12 0.54 0 0.25-0.12 0.31 -0.21 0.48 -0.3a1.9 1.9 0 0 1 1-0.05c0.56 0 1.12 0.07 1.68 0.14 0.56 0.07 1 0.15 1.43 0.24 0.43 0.09 0.73 0.15 1.09 0.24 a3.1 3.1 0 0 1 1.18 0.54 c0.213 0.137 0.457 0.217 0.71 0.23 0.53 0.11 1.06 0.21 1.58 0.34 a12.64 12.64 0 0 1 3 1.22 16.9 16.9 0 0 1 2.6 1.75 19.43 19.43 0 0 1 4.69 5.39c0.48 0.817 0.898 1.67 1.25 2.55 0.25 0.613 0.404 1.26 0.46 1.92 0 0.4 0.06 0.8 0.06 1.2a7 7 0 0 1-0.24 1.5 6.79 6.79 0 0 1-0.6 1.57A8.26 8.26 0 0 1 41.15 22 8.58 8.58 0 0 1 39 23.52a6.63 6.63 0 0 1-1.94 0.65 c-0.483 0.082 -0.97 0.129 -1.46 0.14 a6 6 0 0 1-1.74-0.31 8.92 8.92 0 0 0-1-0.18l-1.7-0.25c-0.28 0-0.55-0.06-0.82-0.08l-2.1-0.19-2.79-0.19-2.37-0.11-3.18-0.17c-1-0.06-2-0.1-3-0.15l-3.75-0.2-1.34-0.07-4.28-0.23-1.78-0.09C5 22 4.27 22 3.52 21.94s-1.23-0.08-1.83-0.17a1.9 1.9 0 0 1-1.62-1.45 2.45 2.45 0 0 1 0-1.11c0.11-0.49 0.18 -1 0.29-1.48 0.11 -0.48 0.2 -0.8 0.3 -1.2 0.1 -0.4 0.17 -0.63 0.29 -0.94 0.27 -0.73 0.53 -1.46 0.85 -2.17 0.287 -0.64 0.621 -1.26 1-1.85a19.41 19.41 0 0 1 1.47-2A12.08 12.08 0 0 1 7.26 7a10.67 10.67 0 0 1 2.18-1c0.49-0.17 1-0.36 1.48-0.49a12.22 12.22 0 0 1 1.34-0.27c0.48-0.14 0.96 -0.24 1.43-0.24zM35.4 20.82a0.19 0.19 0 0 0 0-0.07 1.15 1.15 0 0 1 0.48-0.7 4.42 4.42 0 0 0 1.34-1.48 1.16 1.16 0 0 0 0-1.18 3 3 0 0 0-0.45-0.56 14.68 14.68 0 0 0-3-2.21 0.94 0.94 0 0 1-0.16-1.62c0.41-0.37 0.85 -0.71 1.28-1.06l1-0.79A0.51 0.51 0 0 0 36 11s-0.06-0.08-0.1-0.09a5.64 5.64 0 0 0-0.9-0.15h-2.09a2.5 2.5 0 0 1-0.67-0.07 1 1 0 0 1-0.56-1.21c0.17-0.44 0.32 -0.88 0.48 -1.32a0.21 0.21 0 0 0-0.16-0.35c-0.51-0.25-1-0.52-1.52-0.75-0.52-0.23-1.07-0.46-1.61-0.67a1 1 0 0 1-0.53-1.08 0.58 0.58 0 0 0 0-0.53c-0.19-0.35-0.34-0.73-0.52-1.09a0.35 0.35 0 0 0-0.29-0.22c-0.14 0-0.27-0.07-0.41-0.09-0.65-0.11-1.3-0.23-1.95-0.32-0.49-0.06-1-0.08-1.47-0.1a0.59 0.59 0 0 0-0.34 0.08 3.82 3.82 0 0 1-1.17 0.42 1.72 1.72 0 0 1-1.4-0.46 4.5 4.5 0 0 0-1.72-1A1.83 1.83 0 0 0 18 2a2.61 2.61 0 0 0-1.14 0.73 A6.33 6.33 0 0 0 15.93 4c-0.15 0.29 -0.28 0.6 -0.43 0.91 l1.08 0.09 a8.24 8.24 0 0 1 2.1 0.35 c0.49 0.15 1 0.3 1.46 0.48 0.79 0.308 1.544 0.7 2.25 1.17a13.8 13.8 0 0 1 2.24 1.8c0.69 0.7 1.41 1.39 2 2.14 0.59 0.75 1.42 1.83 2.09 2.76 0.5 0.7 0.95 1.43 1.42 2.15a25.89 25.89 0 0 0 1.94 2.84 6.49 6.49 0 0 0 3.32 2.13zm-20.74-3.49a2.09 2.09 0 0 0-2.12-2.13 2.14 2.14 0 1 0 0 4.28 2.1 2.1 0 0 0 2.12-2.15zM12.54 13a1.5 1.5 0 1 0 0-3 1.5 1.5 0 0 0 0 3zM6.9 15.17a0.94 0.94 0 0 0 0.88 0.91 1 1 0 0 0 0.92-0.91 1 1 0 0 0-0.91-0.89 0.93 0.93 0 0 0-0.89 0.89 z" fill="#FFF"/>
</svg>
