<?xml version="1.0" ?>
<svg xmlns="http://www.w3.org/2000/svg" width="44" height="33" viewBox="0 0 44 33">
  <path d="M0 32.83v-0.23-7.52a1.61 1.61 0 0 1 1-1.53c0.2-0.069 0.41 -0.103 0.62 -0.1h27.9c0.15 0 0.24 0 0.24-0.21 0-4.48 0-9-0.06-13.45 0-0.46 0-0.38-0.39-0.38h-24a1.25 1.25 0 0 1-1.37-1.34V2.39 1.26A1.25 1.25 0 0 1 4.8 0.05 c0.133-0.02 0.267 -0.02 0.4 0h14.43C25.84 0 32 0 38.25 0a1.59 1.59 0 0 1 1.58 1.15c0.02 0.14 0.02 0.28 0 0.42v5.52c0 0.13 0 0.22-0.16 0.26 a1.87 1.87 0 0 0-1.13 1.2 6.85 6.85 0 0 0-0.3 3c0.042 0.496 0.153 0.984 0.33 1.45a2 2 0 0 0 1.13 1.26 0.25 0.25 0 0 1 0.17 0.26 v8.42a1 1 0 0 1 0 0.3c0 0.22 0.05 0.26 0.25 0.25h2.05a1.58 1.58 0 0 1 1.52 0.95 c0.077 0.16 0.121 0.333 0.13 0.51 v7.92L0 32.83zM26.61 4.62a2.16 2.16 0 0 0-2.2-2.2 2.2 2.2 0 0 0 0 4.4 2.16 2.16 0 0 0 2.2-2.2zm-11.39 0a2.19 2.19 0 1 0 4.37 0 2.19 2.19 0 1 0-4.37 0z" fill="#FFF"/>
  <path d="M11 11.73v4.65c0.022 0.456 -0.23 0.88 -0.64 1.08-0.13 0.06 -0.14 0.16 -0.14 0.28 v3.29c0 0.27-0.12 0.43 -0.33 0.46 a0.38 0.38 0 0 1-0.44-0.39v-2-1.43a0.37 0.37 0 0 0-0.16-0.26 1.11 1.11 0 0 1-0.61-0.95V12c0-0.28 0-0.28 0.29 -0.28h2l0.03 0.01 zM39.29 10.76c0.08-0.53 0.11 -1.07 0.24 -1.59a1 1 0 0 1 1.1-0.89 2.52 2.52 0 0 1 0.82 4.88 2.1 2.1 0 0 1-1.24 0.1 0.91 0.91 0 0 1-0.61-0.65 5 5 0 0 1-0.26-1.84l-0.05-0.01zM9.78 11H7.07a0.38 0.38 0 0 1-0.24-0.7 0.4 0.4 0 0 1 0.17-0.12h5.47a0.38 0.38 0 0 1 0.272 0.664 0.4 0.4 0 0 1-0.292 0.106 H9.74l0.04 0.05 z" fill="#FFF"/>
</svg>
