<?xml version="1.0" ?>
<svg xmlns="http://www.w3.org/2000/svg" width="44" height="36" viewBox="0 0 44 36">
  <path d="M31.61 24.86A29.24 29.24 0 0 1 41.15 26a7.6 7.6 0 0 1 1.64 0.75 c1.06 0.65 1.1 1.67 0 2.21A16.88 16.88 0 0 1 39 30.31a33.45 33.45 0 0 1-8.76 0.66 25.29 25.29 0 0 1-8.7-1.51 4.71 4.71 0 0 1-1-0.53c-0.89-0.67-0.9-1.56 0.07 -2.08a13 13 0 0 1 3-1.18 29 29 0 0 1 8-0.81zm7.28 2.74c-0.3-0.26-0.14-0.45 0.11 -0.61 0.52 -0.31 1-0.61 1.58-0.91-4-1.5-14.84-1.32-17.58 0 0.5 0.29 1.05 0.59 1.56 0.94 0.1 0.07 0.05 0.36 0.07 0.55 a16.61 16.61 0 0 1-1.86 0.13 1.18 1.18 0 0 1-0.82-0.39c-0.14-0.17 0-0.53 0-0.79-0.59 0.37 -0.65 0.81 0 1.12 0.713 0.36 1.47 0.63 2.25 0.8 a41.35 41.35 0 0 0 14.21 0.2 18.36 18.36 0 0 0 3.2-1 0.86 0.86 0 0 0 0.47-0.62c0-0.18-0.25-0.39-0.39-0.59 0.2 0.74 0 1.2-0.75 1.23a16.62 16.62 0 0 1-2.05-0.06zm-4.4 2.92c-0.33-0.9-0.42-1-1.19-1h-3.17c-0.69 0-0.87 0.19 -0.93 1h5.29z" fill="#FFF"/>
  <path d="M40 30.72a16.31 16.31 0 0 0-1.78 1.93 5.85 5.85 0 0 1-5.57 2.62c-1.35-0.05-2.71-0.1-4-0.26A4 4 0 0 1 26 33.37c-0.69-0.87-1.47-1.67-2.31-2.61A43.8 43.8 0 0 0 40 30.72zM38.89 27.6a2.86 2.86 0 0 1-0.76 0.42 31.37 31.37 0 0 1-3.69 0.57 28.9 28.9 0 0 1-9-0.55 4.07 4.07 0 0 1-0.82-0.44 29.65 29.65 0 0 1 14.27 0zm-8.2 0.24 h2.17v-0.27c-0.73 0.16 -1.46-0.41-2.17 0.27 z" fill="#FFF"/>
  <path d="M34.57 25.32c-0.23 1-0.47 1.25-1.34 1.25h-2.85c-0.9 0-1.17-0.22-1.37-1.25h5.56zM23.41 20.46l0.2-0.07 0.61 -0.26 0.71 -0.29 1-0.43L27 19l0.7-0.3 0.91 -0.38 0.8 -0.34 0.71 -0.28 1-0.43 0.92 -0.39 0.89 -0.37 1-0.41 1-0.42 1-0.42 0.78 -0.34 0.94 -0.38 1-0.42 0.88 -0.36 0.9 -0.38 0.49 -0.22a0.28 0.28 0 0 0 0.17-0.33 1.74 1.74 0 0 0-0.13-0.36c-0.13-0.3-0.26-0.61-0.42-0.9-0.24-0.46-0.48-0.92-0.76-1.36-0.28-0.44-0.6-0.89-0.91-1.33a18 18 0 0 0-1.25-1.52 19.16 19.16 0 0 0-1.43-1.42c-0.3-0.26-0.59-0.51-0.9-0.76-0.31-0.25-0.58-0.44-0.87-0.65a15 15 0 0 0-1.51-1c-0.29-0.16-0.58-0.3-0.87-0.44a5.79 5.79 0 0 0-1.13-0.45 0.24 0.24 0 0 0-0.31 0.11 2.37 2.37 0 0 0-0.17 0.36 L30 4.2l-0.42 1-0.41 1c-0.1 0.24 -0.2 0.49 -0.31 0.73 -0.11 0.24 -0.27 0.66 -0.41 1l-0.3 0.73 -0.42 1c-0.09 0.24 -0.2 0.48 -0.3 0.71 -0.1 0.23 -0.27 0.67 -0.41 1l-0.3 0.71 c-0.14 0.33 -0.27 0.67 -0.41 1-0.14 0.33 -0.31 0.73 -0.47 1.09-0.16 0.36 -0.29 0.73 -0.44 1.09-0.15 0.36 -0.4 0.93 -0.59 1.39l-0.33 0.79 c-0.14 0.34 -0.28 0.67 -0.43 1l-0.38 0.93 c-0.12 0.29 -0.25 0.58 -0.36 0.88 -0.1 0.08 -0.05 0.21 0.1 0.21 zM32 0.09a0.49 0.49 0 0 0-0.47 0.27 c-0.1 0.21 -0.19 0.43 -0.27 0.64 -0.08 0.21 -0.16 0.37 -0.22 0.56 a0.31 0.31 0 0 0 0 0.32c0.08 0.078 0.171 0.146 0.27 0.2 0.34 0.15 0.68 0.28 1 0.44 0.32 0.16 0.67 0.34 1 0.53 0.33 0.19 0.63 0.38 0.93 0.59 0.467 0.32 0.927 0.653 1.38 1A16.4 16.4 0 0 1 37.22 6l1 1c0.44 0.49 0.854 1.005 1.24 1.54 0.4 0.54 0.77 1.1 1.11 1.68a21.154 21.154 0 0 1 0.88 1.68c0.08 0.195 0.17 0.385 0.27 0.57 0.1 0.18 0.21 0.24 0.45 0.16 l0.46-0.18c0.25-0.1 0.5 -0.2 0.75 -0.32a0.42 0.42 0 0 0 0.23-0.53c-0.14-0.36-0.29-0.72-0.46-1.06-0.17-0.34-0.44-0.88-0.69-1.3-0.25-0.42-0.53-0.86-0.81-1.29-0.28-0.43-0.5-0.71-0.78-1-0.28-0.29-0.75-0.95-1.15-1.41-0.4-0.46-0.72-0.79-1.13-1.16-0.41-0.37-0.71-0.67-1.08-1-0.37-0.33-0.81-0.64-1.22-0.95a8.91 8.91 0 0 0-1-0.68c-0.36-0.21-0.85-0.51-1.29-0.75-0.44-0.24-0.66-0.35-1-0.51l-0.7-0.31-0.3-0.09z" fill="#FFF"/>
  <path d="M23.41 20.46c-0.15 0-0.2-0.13-0.15-0.26 0.11 -0.3 0.24 -0.59 0.36 -0.88l0.38-0.93c0.15-0.33 0.29 -0.66 0.43 -1l0.33-0.79c0.19-0.46 0.39 -0.93 0.59 -1.39 0.2 -0.46 0.29 -0.73 0.44 -1.09 0.15 -0.36 0.31 -0.72 0.47 -1.09 0.16 -0.37 0.27 -0.67 0.41 -1l0.3-0.71c0.14-0.33 0.28 -0.66 0.41 -1 0.13-0.34 0.21 -0.47 0.3 -0.71l0.42-1 0.3-0.73c0.14-0.33 0.28 -0.66 0.41 -1 0.13-0.34 0.21 -0.49 0.31 -0.73l0.41-1 0.42-1 0.45-1.07a2.37 2.37 0 0 1 0.17-0.36 0.24 0.24 0 0 1 0.31-0.11c0.39 0.127 0.765 0.294 1.12 0.5 0.29 0.14 0.58 0.28 0.87 0.44 a15 15 0 0 1 1.51 1c0.29 0.21 0.59 0.42 0.87 0.65 0.28 0.23 0.6 0.5 0.9 0.76 0.501 0.448 0.979 0.922 1.43 1.42a18 18 0 0 1 1.25 1.52c0.31 0.44 0.63 0.88 0.91 1.33 0.28 0.45 0.52 0.9 0.76 1.36 0.16 0.29 0.29 0.6 0.42 0.9 0.056 0.115 0.1 0.236 0.13 0.36a0.28 0.28 0 0 1-0.17 0.33 l-0.49 0.22 -0.9 0.38 -0.88 0.36 -1 0.42-0.94 0.38 -0.78 0.34 -1 0.42-1 0.42-1 0.41-0.89 0.37 -0.92 0.39 -1 0.43-0.71 0.28 -0.8 0.34 -0.91 0.38 L27 19l-1 0.41-1 0.43-0.71 0.29 -0.61 0.26 -0.27 0.07 zM34.67 14A1.67 1.67 0 1 0 33 12.31 1.66 1.66 0 0 0 34.67 14zm-1.36-6.4a1.43 1.43 0 1 0-2.86 0A1.43 1.43 0 0 0 31.88 9a1.42 1.42 0 0 0 1.43-1.43v0.03zm-4.14 5.16A1.27 1.27 0 1 0 30.45 14a1.27 1.27 0 0 0-1.28-1.27v0.03z" fill="#FFF"/>
  <path d="M32 0.09l0.27 0.09 0.69 0.3 c0.34 0.16 0.68 0.32 1 0.51 0.32 0.19 0.89 0.51 1.33 0.78 0.44 0.27 0.66 0.44 1 0.68 0.34 0.24 0.82 0.62 1.22 0.95 0.4 0.33 0.73 0.64 1.08 1 0.35 0.36 0.77 0.76 1.13 1.16 0.36 0.4 0.78 0.89 1.14 1.36 0.36 0.47 0.53 0.69 0.78 1 0.25 0.31 0.56 0.85 0.81 1.29 0.25 0.44 0.47 0.86 0.69 1.3 0.22 0.44 0.32 0.7 0.46 1.06a0.42 0.42 0 0 1-0.23 0.53 c-0.25 0.12 -0.5 0.22 -0.75 0.32 l-0.46 0.18 c-0.24 0.08 -0.35 0-0.45-0.16a5.94 5.94 0 0 1-0.27-0.57 21.33 21.33 0 0 0-0.88-1.68c-0.34-0.58-0.71-1.14-1.11-1.68A18.55 18.55 0 0 0 38.21 7c-0.32-0.35-0.65-0.68-1-1a16.4 16.4 0 0 0-1.53-1.35c-0.447-0.34-0.907-0.673-1.38-1-0.3-0.21-0.62-0.41-0.93-0.59-0.31-0.18-0.66-0.37-1-0.53-0.34-0.16-0.67-0.29-1-0.44a1.26 1.26 0 0 1-0.27-0.2 0.31 0.31 0 0 1 0-0.32c0.06-0.19 0.14 -0.37 0.22 -0.56 0.08 -0.19 0.17 -0.43 0.27 -0.64A0.49 0.49 0 0 1 32 0.09z" fill="#FFF"/>
  <path d="M34.1 14a1.64 1.64 0 0 1-1.66-1.66A1.67 1.67 0 1 1 34.1 14zM33.31 7.57A1.42 1.42 0 0 1 31.88 9a1.43 1.43 0 0 1-1.43-1.44 1.43 1.43 0 1 1 2.86 0v0.01zM29.17 12.73a1.27 1.27 0 1 1 0 2.54 1.27 1.27 0 0 1 0-2.54z" fill="#724833"/>
  <path d="M20.39 3.33l-0.33-0.11-1-0.28a5 5 0 0 0-1.44-0.14 2.81 2.81 0 0 0-0.85 0.18 c-0.19 0.07 -0.4 0.1 -0.59 0.16 a6.78 6.78 0 0 0-2.14 1 4.83 4.83 0 0 0-1.44 1.63 4.38 4.38 0 0 0-0.43 1.16 3.93 3.93 0 0 0-0.09 1.13c0 0.19 0 0.2-0.19 0.19 a7.34 7.34 0 0 1-0.81-0.05 2.89 2.89 0 0 1-1.18-0.39 1.46 1.46 0 0 1-0.37-0.33 0.56 0.56 0 0 1-0.1-0.33c0-0.43-0.07-0.86-0.07-1.3a7.12 7.12 0 0 1 0.06-1c0-0.34 0.12 -0.67 0.18 -1 0.04-0.21 0.09 -0.416 0.15 -0.62 0.09 -0.33 0.18 -0.65 0.29 -1 0.11-0.35 0.24 -0.66 0.39 -1a2.92 2.92 0 0 1 0.72-1 0.65 0.65 0 0 1 0.46-0.2h1.14c0.38 0 0.71 0.05 1.06 0.09 0.258 0.019 0.515 0.052 0.77 0.1 0.25 0 0.49 0.11 0.73 0.18 0.271 0.068 0.538 0.152 0.8 0.25 0.35 0.13 0.69 0.26 1 0.41l1.48 0.7 a4.48 4.48 0 0 1 1.75 1.51l0.05 0.06 zM19.41 12.41a0.62 0.62 0 0 0-0.11-0.41 1.28 1.28 0 0 0-0.91-0.63 3.26 3.26 0 0 0-1.49 0.09 0.21 0.21 0 0 1-0.21 0 5.31 5.31 0 0 1-1.12-1.1 1.24 1.24 0 0 1-0.22-0.7 4.42 4.42 0 0 1 0-0.63 2.17 2.17 0 0 1 0.86-1.61 3.05 3.05 0 0 1 0.9-0.41c0.28-0.09 0.56 -0.16 0.84 -0.23h0.3c0.43 0 0.86-0.06 1.29 0a3.66 3.66 0 0 1 1.76 0.51 3 3 0 0 1 1.21 1.39c0.125 0.299 0.215 0.61 0.27 0.93 a0.8 0.8 0 0 1-0.06 0.33 c-0.07 0.23 -0.14 0.46 -0.23 0.68 a6.12 6.12 0 0 1-0.71 1.24 5.76 5.76 0 0 1-1.45 1.42 6.36 6.36 0 0 1-1.56 0.79 1.17 1.17 0 0 1-0.61 0.09 1.63 1.63 0 0 1-1.05-0.52 0.93 0.93 0 0 1-0.16-0.8 3.1 3.1 0 0 1 0.23-0.6 0.35 0.35 0 0 1 0.18-0.16 1.49 1.49 0 0 1 0.95-0.15c0.293 0.043 0.57 0.164 0.8 0.35 0.11-0.04 0.19 0.04 0.3 0.13z" fill="#FFF"/>
  <path d="M14.88 9.84A3.8 3.8 0 0 1 13.42 9c-0.27-0.25-0.51-0.54-0.77-0.81a0.42 0.42 0 0 1-0.09-0.41 5.89 5.89 0 0 1 0.2-0.75 4.71 4.71 0 0 1 0.35-0.76 4.89 4.89 0 0 1 1.38-1.52 5.75 5.75 0 0 1 1.23-0.7c0.293-0.13 0.593 -0.24 0.9 -0.33 0.38 -0.09 0.78 -0.15 1.17-0.21 0.26 -0.02 0.52 -0.02 0.78 0a4.58 4.58 0 0 1 1.16 0.17 4 4 0 0 1 2.14 1.41 5.23 5.23 0 0 1 0.87 1.79c0.053 0.17 0.096 0.344 0.13 0.52 0.04 0.213 0.07 0.423 0.09 0.63 v0.09a0.13 0.13 0 0 1-0.12 0c-0.06-0.09-0.11-0.19-0.16-0.28A3.17 3.17 0 0 0 21 6.46a5.09 5.09 0 0 0-0.95-0.24 6.3 6.3 0 0 0-1.68 0 8.07 8.07 0 0 0-1.27 0.23 3 3 0 0 0-1.8 1.2 2.57 2.57 0 0 0-0.36 0.79 3.76 3.76 0 0 0-0.1 1.29l0.04 0.11 zM9 7.47l-0.26 0.06 c-0.619 0.05 -1.241 0.05 -1.86 0-0.15 0-0.29-0.05-0.43-0.07-0.14-0.02-0.09-0.06-0.09-0.13v-0.92c0-0.3-0.09-0.81-0.14-1.22a3.78 3.78 0 0 0-0.1-0.57c-0.06-0.22-0.12-0.48-0.22-0.73a4.86 4.86 0 0 0-0.25-0.67c-0.16-0.34-0.33-0.68-0.5-1v-0.16A4.5 4.5 0 0 1 6.59 1a3.74 3.74 0 0 1 1-0.32 5.54 5.54 0 0 1 1-0.07c0.235-0.005 0.47 0.015 0.7 0.06 0.207 0.036 0.41 0.086 0.61 0.15 0.08 0 0.06 0.08 0 0.14-0.06 0.06 -0.11 0.25 -0.16 0.38 l-0.36 1c-0.07 0.183 -0.13 0.37 -0.18 0.56 -0.06 0.23 -0.12 0.45 -0.16 0.68 -0.04 0.23 -0.13 0.71 -0.18 1.07a6 6 0 0 0-0.06 0.74 v1.29c0.053 0.247 0.12 0.49 0.2 0.73 a0.11 0.11 0 0 1 0 0.06zM5.8 7.05v0.48c0 0.06 0 0.09-0.08 0.1 l-1 0.24-1.21 0.33 c-0.31 0.08 -0.62 0.17 -0.94 0.23 -0.385 0.1 -0.787 0.12 -1.18 0.06 a0.78 0.78 0 0 1-0.68-0.69 1 1 0 0 1 0.54-1.07 0.29 0.29 0 0 1 0.13-0.05c0.11 0 0.11-0.09 0.11 -0.17a3 3 0 0 1 0.28-1.15 4.81 4.81 0 0 1 0.94-1.42 6.77 6.77 0 0 1 1-0.91l0.65-0.44h0.16c0.252 0.254 0.449 0.557 0.58 0.89 0.108 0.251 0.202 0.508 0.28 0.77 0.07 0.23 0.11 0.47 0.16 0.71 s0.09 0.49 0.13 0.73 c0.01 0.147 0.01 0.293 0 0.44 0.1 0.34 0.12 0.66 0.13 0.92zM5.36 27.5v-4.65a3.11 3.11 0 0 1 1.09-2.42A3.24 3.24 0 0 1 8 19.69a3.06 3.06 0 0 1 1.38 0c0.8 0.207 1.49 0.711 1.93 1.41 0.353 0.58 0.53 1.25 0.51 1.93v9.1a3.13 3.13 0 0 1-0.62 1.92 3.22 3.22 0 0 1-1.75 1.2 3 3 0 0 1-1.81 0 3.15 3.15 0 0 1-2.08-2.06 3.29 3.29 0 0 1-0.2-1.19c0.01-1.49 0-3 0-4.5z" fill="#FFF"/>
  <path d="M11.72 34.35c0.123-0.2 0.234 -0.406 0.33 -0.62a3.34 3.34 0 0 0 0.24-0.8c0.12-1.133 0.15 -2.273 0.09 -3.41v-6.63a3.9 3.9 0 0 0-0.61-2.12 3.18 3.18 0 0 0-0.37-0.47c-0.08-0.09-0.07-0.15 0-0.25a3.15 3.15 0 0 1 3.31-1.15 3.16 3.16 0 0 1 2 1.51 3.21 3.21 0 0 1 0.38 2.12c-0.08 0.61 -0.22 1.21-0.33 1.82-0.06 0.34 -0.11 0.7 -0.17 1l-0.27 1.42c-0.06 0.35 -0.11 0.69 -0.17 1l-0.27 1.46c-0.06 0.31 -0.1 0.61 -0.15 0.92 l-0.21 1.13c0 0.25-0.09 0.51 -0.15 0.76 a3 3 0 0 1-0.75 1.3 3.19 3.19 0 0 1-2.83 1l-0.07 0.01 zM5.43 34.37a3.64 3.64 0 0 1-1.58-0.11 3.18 3.18 0 0 1-1.8-1.46 3.53 3.53 0 0 1-0.42-1.27c0-0.36-0.13-0.71-0.19-1.07L1.35 30c-0.1-0.54-0.2-1.08-0.29-1.62-0.09-0.54-0.15-0.94-0.23-1.38-0.08-0.44-0.18-1-0.27-1.49-0.06-0.35-0.11-0.71-0.18-1.06C0.31 24.1 0.21 23.48 0.12 23a4 4 0 0 1-0.07-1.53A3.12 3.12 0 0 1 2 19a3.09 3.09 0 0 1 1.8-0.19 3.15 3.15 0 0 1 2 1.23 0.14 0.14 0 0 1 0 0.21 3.54 3.54 0 0 0-0.82 1.43 4.06 4.06 0 0 0-0.16 1.1v9.39c0.004 0.708 0.205 1.4 0.58 2a0.68 0.68 0 0 1 0.03 0.2 zM1 22l0.18 1.07 0.24 1.46a3.9 3.9 0 0 0 0.13 0.57 0.41 0.41 0 0 0 0.61 0.23 0.39 0.39 0 0 0 0.21-0.44c-0.05-0.37-0.11-0.74-0.17-1.11l-0.15-0.87c0-0.31-0.11-0.62-0.13-0.93a1.29 1.29 0 0 1 1-1.28 0.53 0.53 0 0 0 0.3-0.27 0.41 0.41 0 0 0-0.07-0.43c-0.23-0.23-0.47-0.14-0.71-0.05A2.23 2.23 0 0 0 1 22zM7.4 19.17c0.13-0.18 0.25 -0.36 0.39 -0.52a1 1 0 0 0 0.26-0.65v-4.2a2.44 2.44 0 0 0-1.57-2.35 2.55 2.55 0 0 0-0.87-0.18c-0.43 0-0.65-0.3-0.55-0.72a0.56 0.56 0 0 1 0.5-0.37c0.248 0.006 0.496 0.033 0.74 0.08 a3.58 3.58 0 0 1 1.51 0.74 c0.57 0.44 0.986 1.05 1.19 1.74 0.087 0.39 0.134 0.79 0.14 1.19v3.94a1.24 1.24 0 0 0 0.29 0.87 c0.117 0.142 0.218 0.296 0.3 0.46 a3.84 3.84 0 0 0-2.3 0l-0.03-0.03zM10.87 19.74c-0.13-0.18-0.25-0.33-0.36-0.49-0.24-0.32-0.47-0.65-0.7-1-0.23-0.35-0.07-0.46-0.07-0.7a0.24 0.24 0 0 1 0.13 0c0.21 0.12 0.42 0.24 0.62 0.37 a0.42 0.42 0 0 0 0.42 0.06 3.13 3.13 0 0 1 1.45-0.24 3.26 3.26 0 0 1 1.29 0.38 v0.05a3.82 3.82 0 0 0-2.78 1.57z" fill="#FFF"/>
  <path d="M3.44 18.16a2.91 2.91 0 0 1 0.35-0.16 3 3 0 0 1 1.57-0.23c0.304 0.047 0.602 0.124 0.89 0.23 a0.39 0.39 0 0 0 0.38 0c0.21-0.14 0.42 -0.27 0.64 -0.39 0.22 -0.12 0.17 0 0.2 0.11 a1.14 1.14 0 0 1-0.31 0.88 c-0.27 0.33 -0.53 0.67 -0.79 1-0.09 0.12 -0.15 0.13 -0.25 0a3.74 3.74 0 0 0-1.26-1 3.44 3.44 0 0 0-1.21-0.35h-0.19l-0.02-0.09z" fill="#FFF"/>
</svg>
