<?xml version="1.0" ?>
<svg xmlns="http://www.w3.org/2000/svg" width="44" height="30" viewBox="0 0 44 30">
  <path d="M38.69 13.39v-0.86a0.24 0.24 0 0 0-0.14-0.25A5.14 5.14 0 0 1 37 11a4.27 4.27 0 0 1-0.71-1.28 5.55 5.55 0 0 1-0.27-1.12 9 9 0 0 1 0-1.8 14 14 0 0 1 0.21-1.42c0.06-0.35 0.14 -0.7 0.23 -1a5.78 5.78 0 0 1 0.64-1.51 5 5 0 0 1 1.45-1.55A1.79 1.79 0 0 1 39.89 1c0.29 0.057 0.56 0.184 0.79 0.37 a4.77 4.77 0 0 1 1.39 1.57c0.194 0.34 0.361 0.694 0.5 1.06 0.14 0.4 0.24 0.81 0.35 1.22 0.06 0.25 0.08 0.5 0.13 0.75 0.094 0.44 0.141 0.89 0.14 1.34a12.05 12.05 0 0 1-0.07 1.25 5.22 5.22 0 0 1-0.19 0.86 4.31 4.31 0 0 1-0.68 1.36 5.45 5.45 0 0 1-1.76 1.51 0.17 0.17 0 0 0-0.1 0.18 l0.1 2.51v0.34c0 0.94 0 1.89 0.07 2.83 0.053 1.64 0.11 3.277 0.17 4.91 0 0.69 0.08 1.39 0.12 2.08 0.04 0.69 0.08 1.31 0.12 2 0 0.49 0.06 1 0.1 1.45a1.31 1.31 0 0 1-1 1.29 1.75 1.75 0 0 1-1.41-0.12 1.18 1.18 0 0 1-0.66-1.19c0-0.65 0.08 -1.3 0.12 -1.95 0.06 -0.94 0.1 -1.87 0.18 -2.81 0.08 -0.94 0.1 -2.09 0.12 -3.13 0-1.67 0.1 -3.34 0.15 -5 0-0.753 0.023 -1.51 0.07 -2.27l0.05-0.02zM32.83 8.83v8.09c0 1.81 0.1 3.63 0.15 5.44 0 0.79 0 1.58 0.08 2.38 0 0.6 0.1 1.19 0.14 1.78 0 0.26 0 0.53 0.06 0.79s0.06 0.79 0.09 1.18v0.42a0.73 0.73 0 0 1-0.39 0.71 2.18 2.18 0 0 1-1.62 0.26 1.59 1.59 0 0 1-0.74-0.32 0.73 0.73 0 0 1-0.3-0.68c0-0.31 0.06 -0.62 0.09 -0.92 0.03 -0.3 0-0.7 0.07 -1 0.05-0.59 0.12 -1.18 0.16 -1.77 0.04 -0.59 0.06 -1.14 0.07 -1.71 0-1.51 0.09 -3 0.14-4.53 0-0.88 0.03 -1.76 0.09 -2.64a0.25 0.25 0 0 0-0.1-0.23l-1.61-1.31a0.28 0.28 0 0 1-0.12-0.24V10.8c0-1.24 0.07 -2.21 0.12 -3.32 0-0.55 0.06 -1.1 0.11 -1.65 0.05 -0.55 0.1 -1.09 0.18 -1.63 0.08 -0.54 0.14 -0.87 0.23 -1.3a4.94 4.94 0 0 1 0.76-1.79 2.43 2.43 0 0 1 1.23-1A2.13 2.13 0 0 1 32.73 0c0.1 0 0.09 0.07 0.09 0.14 v8.67l0.01 0.02 zM25.93 5.94v3.55a1.62 1.62 0 0 1-0.6 1.33c-0.44 0.39 -0.87 0.79 -1.29 1.2a0.33 0.33 0 0 0-0.09 0.22 l0.14 5.11v1.57c0 1.27 0.08 2.53 0.13 3.79 0 0.68 0.08 1.37 0.12 2.05 0.06 0.947 0.117 1.893 0.17 2.84 0 0.36 0 0.72 0.07 1.07a1.19 1.19 0 0 1-0.7 1.14 1.74 1.74 0 0 1-1.09 0.17 1.43 1.43 0 0 1-1.13-0.76 1 1 0 0 1-0.1-0.47c0-0.61 0.07 -1.23 0.11 -1.84v-0.05c0.06-1.15 0.14 -2.31 0.19 -3.46 0.05 -1.15 0.14 -2.4 0.14 -3.64 0.047 -1.493 0.09 -2.99 0.13 -4.49V13.7c0-0.51 0-1 0.05-1.53a0.28 0.28 0 0 0-0.1-0.23c-0.48-0.46-1-0.92-1.43-1.4a1.42 1.42 0 0 1-0.41-1V6.49 2.23a1 1 0 0 1 0.13-0.46 0.36 0.36 0 0 1 0.42-0.18 0.34 0.34 0 0 1 0.24 0.34 V7.87c0 0.18 0 0.18 0.19 0.18h0.52c0.13 0 0.17 0 0.17-0.16V5.46 1.7a0.36 0.36 0 0 1 0.42-0.38 0.32 0.32 0 0 1 0.29 0.3 v6.21c0 0.22 0 0.22 0.22 0.22h0.49c0.13 0 0.17 0 0.17-0.16V5.06 1.69a0.35 0.35 0 0 1 0.2-0.34 0.36 0.36 0 0 1 0.39 0 0.37 0.37 0 0 1 0.13 0.32 v6.16c0 0.17 0 0.18 0.18 0.18h0.54c0.12 0 0.15 0 0.15-0.15V5.34 1.89a0.33 0.33 0 0 1 0.38-0.35c0.16 0 0.21 0.16 0.26 0.27 0.053 0.144 0.08 0.296 0.08 0.45 v3.73l0.12-0.05zM7.36 18.53h6.13a6.9 6.9 0 0 1 0.71 0c0.28 0 0.55 0.09 0.82 0.14 0.342 0.06 0.672 0.171 0.98 0.33 a2.52 2.52 0 0 1 1.13 1.09c0.185 0.34 0.28 0.722 0.28 1.11a5.42 5.42 0 0 1-0.06 0.87 A3.74 3.74 0 0 1 16 24.42a4.7 4.7 0 0 1-1.41 0.76 9.82 9.82 0 0 1-1 0.27c-0.19 0-0.38 0.06 -0.57 0.09 a0.21 0.21 0 0 0-0.11 0.08 c-0.21 0.27 -0.4 0.55 -0.62 0.81 a4.71 4.71 0 0 1-1.11 0.94 l-0.65 0.39 a0.52 0.52 0 0 1-0.24 0.06 H3.57a0.8 0.8 0 0 1-0.4-0.15 6.37 6.37 0 0 1-1.3-0.94A5.16 5.16 0 0 1 0.66 25a3.45 3.45 0 0 1-0.31-1.41v-4.92c0-0.18 0-0.18 0.18 -0.18h6.83v0.04zm6.16 5.62a0.47 0.47 0 0 0 0.13 0 5.37 5.37 0 0 0 1.09-0.4 2.57 2.57 0 0 0 1.1-1c0.254-0.468 0.365 -1 0.32-1.53a1.11 1.11 0 0 0-0.44-0.84 2.55 2.55 0 0 0-1.17-0.46c-0.28 0-0.58-0.06-0.86-0.09s-0.16 0-0.17 0.15 v0.88c-0.01 1.07-0.01 2.14-0.01 3.28l0.01 0.01 zM6.93 29.77H0.54a0.54 0.54 0 0 1-0.54-0.56 0.53 0.53 0 0 1 0.56-0.47H13.3a0.56 0.56 0 0 1 0.54 0.36 0.51 0.51 0 0 1-0.46 0.67 H6.93zM7.67 7.56h0.12a5.44 5.44 0 0 1 1.32 0.85 c0.411 0.363 0.75 0.801 1 1.29 0.161 0.316 0.279 0.652 0.35 1a5 5 0 0 1 0.1 1 2.63 2.63 0 0 1-1 2.15c-0.33 0.28 -0.64 0.58 -0.94 0.88 a2.47 2.47 0 0 0-0.54 0.93 3.65 3.65 0 0 0-0.08 1.2v0.12a0.48 0.48 0 0 1-0.07-0.11 8.73 8.73 0 0 1-0.23-0.94 5.85 5.85 0 0 1 0-0.89 3.49 3.49 0 0 1 0.05-0.5 2.77 2.77 0 0 1 0.28-0.88c0.18-0.34 0.39 -0.67 0.58 -1 0.218-0.38 0.35 -0.803 0.39 -1.24a9.38 9.38 0 0 0 0-1.17 3.72 3.72 0 0 0-0.22-1A4 4 0 0 0 8 7.9c-0.09-0.11-0.21-0.2-0.31-0.31l-0.02-0.03zM6 17.35c-0.19-0.27-0.39-0.53-0.57-0.8a3.24 3.24 0 0 1-0.46-1 2.21 2.21 0 0 1 0-1.33c0.12-0.32 0.28 -0.62 0.43 -0.93a5.7 5.7 0 0 0 0.42-1.18 4.58 4.58 0 0 0 0.1-1.59 2.2 2.2 0 0 0-0.64-1.42c-0.1-0.1-0.22-0.18-0.33-0.29 0.12 0.027 0.236 0.064 0.35 0.11 0.28 0.124 0.55 0.268 0.81 0.43 0.5 0.331 0.884 0.81 1.1 1.37 0.176 0.459 0.258 0.949 0.24 1.44a3.13 3.13 0 0 1-0.56 1.71c-0.22 0.33 -0.45 0.65 -0.65 1a2.49 2.49 0 0 0-0.29 0.82 4.54 4.54 0 0 0 0 1c0.018 0.151 0.045 0.302 0.08 0.45 v0.15l-0.03 0.06 z" fill="#FFF"/>
</svg>
