<?xml version="1.0" ?>
<svg xmlns="http://www.w3.org/2000/svg" width="16" height="37" viewBox="0 0 16 37">
  <path d="M2.79 26.17a0.57 0.57 0 0 1-0.39-0.35 1.55 1.55 0 0 1 0-0.21c0-0.33-0.06-0.67-0.11-1-0.05-0.33-0.13-0.8-0.19-1.2a1 1 0 0 0-0.25-0.57A6.88 6.88 0 0 1 0.4 20.47a7.11 7.11 0 0 1 1.5-7.19 0.62 0.62 0 0 0 0.15-0.28c0.1-0.61 0.2 -1.22 0.29 -1.84a3.62 3.62 0 0 0 0-0.47A0.54 0.54 0 0 1 3 10h2a0.55 0.55 0 0 1 0.6 0.57 2.64 2.64 0 0 0 0 0.29 0.28 0.28 0 0 0 0.34 0.26 l0.48-0.09a4 4 0 0 1 1.29 0l0.43 0.08 c0.26 0 0.4-0.07 0.4 -0.33a0.41 0.41 0 0 0 0-0.11 0.27 0.27 0 0 1-0.35 0.18 l-0.72-0.09a3.77 3.77 0 0 0-1.11 0.06 L6 10.9c-0.19 0-0.26-0.06-0.29-0.24a1.23 1.23 0 0 1 0-0.27 0.5 0.5 0 0 0-0.53-0.54h-2a2.33 2.33 0 0 0-0.34 0.05 1.33 1.33 0 0 1 0-0.2L3 7.23c0.06-0.7 0.13 -1.39 0.19 -2.09s0.11-1.4 0.17 -2.09c0-0.29 0.05 -0.57 0.08 -0.86 0.03 -0.29 0.07 -0.82 0.11 -1.23 0.01 -0.1 0.01 -0.2 0-0.3a0.87 0.87 0 0 1 0.28-0.57C3.89 0 4 0 4.08 0h6a0.37 0.37 0 0 1 0.36 0.19 0.87 0.87 0 0 1 0.14 0.39 c0 0.53 0.09 1.07 0.14 1.6 0.06 0.69 0.13 1.38 0.19 2.07s0.11 1.4 0.17 2.1c0 0.38 0.07 0.77 0.1 1.16l0.12 1.33c0 0.28 0.05 0.57 0.07 0.85a1 1 0 0 1 0 0.17H9.13a0.81 0.81 0 0 0-0.31 0.06 0.43 0.43 0 0 0-0.21 0.57 0.64 0.64 0 0 1 0-0.07 0.51 0.51 0 0 1 0.55-0.42h2.06c0.109 0.004 0.217 0.025 0.32 0.06 a0.5 0.5 0 0 1 0.3 0.47 c0.016 0.41 0.07 0.82 0.16 1.22 0.06 0.36 0.12 0.73 0.17 1.1a0.87 0.87 0 0 0 0.24 0.51 7.08 7.08 0 0 1 1.37 2.24c0.097 0.248 0.264 0.464 0.48 0.62 a1 1 0 0 0 0.33 0.13 c0.09 0.036 0.184 0.063 0.28 0.08 a0.5 0.5 0 0 1 0.38 0.42 0.77 0.77 0 0 1 0 0.15c0 0.34 0 0.29-0.27 0.39 a0.57 0.57 0 0 0-0.44 0.52 c-0.01 0.11 -0.01 0.22 0 0.33a0.61 0.61 0 0 0 0.47 0.54 h0.08c0.15 0 0.16 0.05 0.16 0.2 a0.84 0.84 0 0 1-0.1 0.51 0.53 0.53 0 0 1-0.31 0.21 l-0.42 0.12 a0.67 0.67 0 0 0-0.3 0.19 2 2 0 0 0-0.42 0.72 7.12 7.12 0 0 1-1.36 2.15 0.46 0.46 0 0 0-0.13 0.27 c-0.09 0.6 -0.19 1.2-0.29 1.8 0 0.23-0.05 0.46 -0.07 0.69 a0.56 0.56 0 0 1-0.55 0.5 H9.2a0.54 0.54 0 0 1-0.57-0.37h-0.06a0.66 0.66 0 0 0 0 0.21 0.46 0.46 0 0 0 0.43 0.32 h2.1a1.76 1.76 0 0 0 0.27-0.05 1.21 1.21 0 0 1 0 0.19c0 0.42-0.07 0.84 -0.1 1.25l-0.15 1.73-0.12 1.4c0 0.4-0.07 0.79 -0.11 1.18-0.04 0.39 -0.07 0.84 -0.1 1.26l-0.09 1-0.12 1.25a0.84 0.84 0 0 1-0.18 0.45 0.29 0.29 0 0 1-0.27 0.14 h-6a0.42 0.42 0 0 1-0.42-0.24 1 1 0 0 1-0.13-0.41c0-0.39-0.06-0.78-0.1-1.17l-0.11-1.38c0-0.38-0.06-0.76-0.1-1.14l-0.12-1.4c0-0.31 0-0.61-0.07-0.91-0.07-0.3-0.08-0.77-0.08-1.15-0.05-0.56-0.1-1.12-0.14-1.69-0.05-0.14-0.06-0.28-0.07-0.44zm9.45-8.08a5.15 5.15 0 1 0-5.17 5.15 5.14 5.14 0 0 0 5.17-5.15zm-3.71 7.36c0.07-0.25 0-0.4-0.24-0.39-0.24 0.01 -0.46 0.06 -0.68 0.1 a3.17 3.17 0 0 1-1 0c-0.22 0-0.43-0.08-0.65-0.1-0.22-0.02-0.28 0.06 -0.31 0.25 v0.33a0.5 0.5 0 0 1-0.31 0.48 0.86 0.86 0 0 1-0.28 0H2.92a0.27 0.27 0 0 0 0.28 0.13 h2a0.55 0.55 0 0 0 0.57-0.58 1.69 1.69 0 0 1 0-0.23 0.27 0.27 0 0 1 0.33-0.26h0.12c0.27 0 0.53 0.08 0.8 0.1 a4.21 4.21 0 0 0 1.12-0.1c0.14 0.04 0.3 0.04 0.39 0.27 zm-1.42-1.06v-0.09a3.68 3.68 0 0 0 0-0.47v-0.08c0-0.08-0.07 0.06 -0.07 0.09 v0.42c0 0.14 0.04 0.07 0.07 0.13zm-1-0.73h-0.06s-0.07 0.06 -0.07 0.09 a2 2 0 0 0-0.08 0.57 s0.09-0.05 0.09 -0.07l0.12-0.59zm2.13 0c-0.009 0.2 0.015 0.398 0.07 0.59 h0.1a0.88 0.88 0 0 0-0.19-0.63l0.02 0.04 zm2.88-1.53a0.84 0.84 0 0 0 0.43 0.44 c0.05-0.06 0-0.1 0-0.14-0.27-0.28-0.34-0.34-0.45-0.34l0.02 0.04 zm1.24-0.53a1.05 1.05 0 0 0-0.43-0.35 0.33 0.33 0 0 0-0.1 0 0.81 0.81 0 0 0 0.51 0.31 l0.02 0.04 zm-2.07 1.18c0 0.13 0 0.13 0.05 0.22s0.13 0.28 0.29 0.33 a1.15 1.15 0 0 0-0.36-0.59l0.02 0.04 zM12.64 17c0.43 0 0.55-0.08 0.61 -0.19h-0.05l-0.49 0.09 s-0.04 0.1 -0.07 0.1 zm-3.43 6.3c0.07 0.213 0.165 0.417 0.28 0.61 v-0.09c0-0.02-0.13-0.32-0.2-0.48-0.07-0.16-0.01-0.01-0.08-0.03v-0.01zM3.9 13.43h0.06a0.42 0.42 0 0 0 0-0.12c-0.1-0.14-0.16-0.3-0.31-0.39a1 1 0 0 0 0.25 0.51 zM5 23.32c-0.16 0.1 -0.17 0.28 -0.25 0.42 -0.08 0.14 0 0.1 0 0.15a0.2 0.2 0 0 0 0.08-0.08c0.03-0.16 0.17 -0.3 0.17 -0.49zm-1.38 0h0.14c0.01 0 0.21-0.31 0.31 -0.46h-0.11l-0.34 0.46 zm-1.69-3c-0.19 0-0.34 0.08 -0.51 0.14 0 0 0 0.06-0.06 0.09 a1.29 1.29 0 0 0 0.53-0.28l0.04 0.05 zm6.27-7.79a0.74 0.74 0 0 0 0.11-0.6 0.67 0.67 0 0 0-0.15 0.49 s0.02 0.06 0.04 0.11 zM0.94 16.88v0.06l0.52 0.11 0.08-0.08a1.38 1.38 0 0 0-0.6-0.09zm8.59-4.58h-0.06a2.58 2.58 0 0 0-0.25 0.56 h0.09l0.18-0.35c0.02-0.07 0.02 -0.14 0.04 -0.21zm-8.06 5.81a0.79 0.79 0 0 0-0.65 0c0.185 0.034 0.375 0.034 0.56 0 0 0 0.06 0.01 0.09 0zM6 12.56a1.64 1.64 0 0 0-0.08-0.56h-0.06s-0.05 0.06 -0.05 0.09 0.05 0.26 0.08 0.39 a0.6 0.6 0 0 0 0.11 0.08 zm6.39 7.68c0.15 0.11 0.32 0.19 0.5 0.24 h0.08a1.24 1.24 0 0 0-0.44-0.25l-0.14 0.01 zm0.32-1.06c0.15 0.14 0.35 0.11 0.52 0.15 0 0 0.05 0 0.08-0.06a1.28 1.28 0 0 0-0.65-0.09h0.05zM1 19.35a1.06 1.06 0 0 0 0.6-0.11s-0.08-0.07-0.11-0.06c-0.03 0.01 -0.38 0.02 -0.49 0.17 zm0.93-3.42a1.42 1.42 0 0 0-0.51-0.25 0.21 0.21 0 0 0-0.09 0.05 c0.151 0.104 0.321 0.179 0.5 0.22 0 0 0.03-0.01 0.07 -0.02h0.03zM5 12.85c-0.09-0.2-0.12-0.4-0.28-0.53a0.33 0.33 0 0 0 0 0.17c0.06 0.12 0.12 0.24 0.19 0.36 H5zm-3.1 1.78c0.08 0.18 0.25 0.25 0.4 0.34 0.15 0.09 0.07 0 0.1 0a1.53 1.53 0 0 0-0.5-0.34zm9.22-0.54a0.81 0.81 0 0 0 0.41-0.44c-0.11 0-0.16 0.07 -0.36 0.29 -0.04 0.06 -0.08 0.06 -0.05 0.15 zm-0.92-0.73c0.15 0 0.33-0.28 0.39 -0.49h-0.08a1.71 1.71 0 0 0-0.31 0.49 zm-7.51 9.19a1.92 1.92 0 0 0 0.46-0.44 0.09 0.09 0 0 0-0.14 0c-0.21 0.18 -0.33 0.32 -0.32 0.44 zm9.62-6.68l0.06 0.06 a1.36 1.36 0 0 0 0.51-0.18v-0.07c0-0.02-0.05 0-0.06 0l-0.51 0.19 zm-0.52-0.87a1.56 1.56 0 0 0 0.51-0.3v-0.09c-0.3 0.11 -0.47 0.21 -0.51 0.39 zm-9.16-1.32c0.106 0.154 0.23 0.295 0.37 0.42 h0.07c-0.07-0.23-0.29-0.42-0.44-0.42zm-0.23 7.56a1.66 1.66 0 0 0-0.48 0.29 v0.09c0.17-0.04 0.46 -0.25 0.48 -0.38zm4.74-8.83a0.88 0.88 0 0 0 0-0.59c-0.08 0.09 -0.09 0.18 -0.07 0.46 -0.01 0.06 -0.02 0.12 0.07 0.13 zm6.23 5.67a0.71 0.71 0 0 0-0.59 0c0.19 0.067 0.4 0.067 0.59 0z" fill="#FFF"/>
  <path d="M15.67 18.06v0.42a0.2 0.2 0 0 1-0.17 0.21 0.72 0.72 0 0 1-0.82-0.42 0.64 0.64 0 0 1 0.57-0.85c0.39 0 0.43 0 0.43 0.43 v0.21h-0.01zM12.1 18.11a5 5 0 1 1-10 0 5 5 0 0 1 10 0zm-0.39 0a4.62 4.62 0 1 0-4.56 4.61 4.61 4.61 0 0 0 4.56-4.62v0.01z" fill="#FFF"/>
  <path d="M7.34 18.18c-0.07 0-0.15 0-0.21 0.07 S7 18.26 7 18.2v-0.09c0-0.02 0-0.21-0.13-0.28l-2-1.92c-0.11-0.09-0.19-0.2-0.35-0.22a0.3 0.3 0 0 1-0.1-0.07 2.31 2.31 0 0 1-0.32-0.45 0.83 0.83 0 0 1 0.61 0.41 0.42 0.42 0 0 0 0.11 0.18 l2.15 2 0.14 0.12 a0.61 0.61 0 0 0 0.1-0.14c0.2-0.55 0.41 -1.11 0.61 -1.67v-0.12c0-0.03 0.05 -0.29 0.16 -0.4a0.39 0.39 0 0 0 0.1-0.08A0.46 0.46 0 0 1 8 16a1.3 1.3 0 0 0-0.19 0.37 l-0.5 1.35a0.53 0.53 0 0 0 0.03 0.46 zM6.67 13.92a0.86 0.86 0 0 1 0.85 0 2.65 2.65 0 0 1-0.41 0.75 2.21 2.21 0 0 1-0.44-0.75zM7.1 22.35a0.29 0.29 0 0 1-0.27-0.27 0.27 0.27 0 0 1 0.28-0.27 0.28 0.28 0 0 1 0.26 0.28 0.29 0.29 0 0 1-0.27 0.26 zM3.37 18.08a0.27 0.27 0 0 1-0.26 0.27 0.27 0.27 0 1 1 0-0.53c0.14 0.01 0.25 0.12 0.26 0.26 zM10.78 17.63a0.46 0.46 0 0 1 0.41 0.32 0.48 0.48 0 0 1-0.4 0.63 3.43 3.43 0 0 1-0.64 0 0.48 0.48 0 0 1-0.34-0.43 0.45 0.45 0 0 1 0.27-0.44 0.46 0.46 0 0 0 0.23 0.8 0.84 0.84 0 0 0 0.54 0 0.45 0.45 0 0 0 0.29-0.42 0.42 0.42 0 0 0-0.29-0.42l-0.07-0.04z" fill="#FFF"/>
  <path d="M10.44 18.06v-0.22h0.23l-0.05 0.18 c0.08 0.08 0.15 0.19 0 0.29-0.15 0.1 -0.12 0-0.18 0l0.14-0.11-0.14-0.14z" fill="#FFF"/>
</svg>
