<?xml version="1.0" ?>
<svg xmlns="http://www.w3.org/2000/svg" width="40" height="36" viewBox="0 0 40 36">
  <path d="M14.58 12.07V4.52a1.27 1.27 0 0 0-0.05-0.44 0.38 0.38 0 0 0-0.37-0.22H7.65a0.39 0.39 0 0 0-0.37 0.24 L4.43 9.43c-0.67 1.24-1.34 2.48-2 3.73a0.76 0.76 0 0 0-0.08 0.33 v9.59a1.37 1.37 0 0 1 0 0.35 0.47 0.47 0 0 1-0.49 0.3 H0.6a0.59 0.59 0 0 0-0.6 0.61 v5.4a0.48 0.48 0 0 0 0.53 0.55 h1.86a0.9 0.9 0 0 0 0.88-0.49c0.17-0.34 0.3 -0.7 0.49 -1a6.06 6.06 0 0 1 2.82-2.52 5.46 5.46 0 0 1 2.6-0.52 6 6 0 0 1 5.3 3.38c0.09 0.18 0.16 0.37 0.24 0.55 a1 1 0 0 0 0.95 0.64 h8.1c0.43 0 0.87 0 1.3-0.05a0.74 0.74 0 0 0 0.66-0.54 6.22 6.22 0 0 1 3.21-3.44 6.08 6.08 0 0 1 1.89-0.51 5.21 5.21 0 0 1 1.58 0A6 6 0 0 1 37 29.18c0.07 0.16 0.15 0.32 0.21 0.48 a0.93 0.93 0 0 0 1 0.64H39c0.51 0 0.64-0.13 0.64 -0.64v-5.34c0-0.47-0.12-0.59-0.59-0.59H25.93a0.9 0.9 0 0 1-0.23 0c-0.42-0.13-0.4-0.33-0.32-0.76 0.08 -0.43 0.19 -1 0.29-1.44 0.1 -0.44 0.19 -0.92 0.29 -1.37 0.1 -0.45 0.11 -0.61 0.17 -0.92 0.1 -0.47 0.2 -0.95 0.29 -1.42 0.07 -0.31 0.12 -0.61 0.18 -0.92 0.1 -0.47 0.2 -1 0.29-1.42l0.18-0.92c0.07-0.34 0.15 -0.68 0.21 -1 0.06-0.32 0.12 -0.63 0.18 -0.94 0.1 -0.47 0.2 -0.94 0.29 -1.41 0.07 -0.31 0.12 -0.63 0.19 -0.95 0.07 -0.32 0.19 -0.92 0.28 -1.39 0-0.19 0.08 -0.38 0.11 -0.57a0.38 0.38 0 0 1 0.54-0.35 4.23 4.23 0 0 0 2 0.24 0.49 0.49 0 0 1 0.6 0.55 4.85 4.85 0 0 0 0 0.66 0.21 0.21 0 0 1-0.15 0.22 2.79 2.79 0 1 0 3.52 3.74c0.17-0.351 0.25 -0.74 0.23 -1.13a0.86 0.86 0 0 0-0.9-0.82 0.92 0.92 0 0 0-0.75 0.73 1.4 1.4 0 0 1-0.45 1 1 1 0 0 1-1 0.18 1.08 1.08 0 0 1-0.71-0.78 1.15 1.15 0 0 1 1.09-1.38 0.77 0.77 0 0 0 0.81-0.84V7.46A0.64 0.64 0 0 1 33.3 7a4.11 4.11 0 0 0 1-1.72 3.88 3.88 0 0 0 0-2A4.06 4.06 0 0 0 32.18 0.47 a3.76 3.76 0 0 0-2.5-0.41 4.07 4.07 0 0 0-3.21 2.65 3.77 3.77 0 0 0-0.24 1.76c0.03 0.192 0.07 0.382 0.12 0.57 a0.71 0.71 0 0 1-0.12 0.67 c-1.19 1.56-2.36 3.13-3.54 4.7-1.593 2.127-3.19 4.253-4.79 6.38l-2.45 3.27c-0.22 0.28 -0.46 0.34 -0.69 0.16 a0.54 0.54 0 0 1-0.17-0.46v-7.72l-0.01 0.03 zm4.81 11.67h-3a0.51 0.51 0 0 1-0.5-0.26c-0.11-0.2 0-0.36 0.12 -0.52l2.27-3 3-4 2.34-3.09 0.79 -1a0.45 0.45 0 0 1 0.48-0.16 0.41 0.41 0 0 1 0.29 0.46 v0.31c-0.09 0.47 -0.19 0.95 -0.29 1.42l-0.18 0.9 c-0.09 0.47 -0.19 0.93 -0.29 1.4l-0.18 0.92 -0.21 1c-0.06 0.31 -0.11 0.61 -0.18 0.92 -0.07 0.31 -0.19 0.9 -0.28 1.35-0.09 0.45 -0.17 0.89 -0.26 1.33L23 23.09c-0.09 0.42 -0.14 0.65 -0.72 0.65 h-2.89zM12.65 9.91v3.13c0 0.35-0.14 0.55 -0.54 0.55 H5.9a0.4 0.4 0 0 1-0.3-0.52l0.91-2 2-4.43a0.52 0.52 0 0 1 0.52-0.36h3a0.48 0.48 0 0 1 0.55 0.52 v0.3l0.07 2.81zm15.81-5.85a1.89 1.89 0 1 1 3.77 0.08 1.9 1.9 0 0 1-2 1.83 1.84 1.84 0 0 1-1.77-1.91z" fill="#FFF"/>
  <path d="M35.39 31.85A3.9 3.9 0 0 0 31.5 28a3.9 3.9 0 0 0 0 7.79 3.89 3.89 0 0 0 3.89-3.94zM9.13 28a3.89 3.89 0 1 0-0.04 7.78A3.89 3.89 0 0 0 9.13 28z" fill="#FFF"/>
</svg>
