<?xml version="1.0" ?>
<svg xmlns="http://www.w3.org/2000/svg" width="31" height="36" viewBox="0 0 31 36">
  <path d="M18.78 23.41c0.09-0.26 0.19 -0.51 0.27 -0.76a4.44 4.44 0 0 0 0.08-2.26 7 7 0 0 0-1.23-2.45 4.54 4.54 0 0 1-0.79-2c-0.11-0.66-0.2-1.31-0.3-2a1.6 1.6 0 0 0-0.07-0.19 1.41 1.41 0 0 0-0.17 0.14 19.05 19.05 0 0 0-2.8 3.59 6.25 6.25 0 0 0-0.77 4.13A4.57 4.57 0 0 0 14 24c-0.24 0-0.41-0.08-0.57-0.13a8.38 8.38 0 0 1-4.53-3.29 7.86 7.86 0 0 1-1.2-2.51 8 8 0 0 1-0.34-2.66 7.34 7.34 0 0 1 1.46-4.17 15.38 15.38 0 0 1 2.84-2.86 0.34 0.34 0 0 1 0.21-0.08c-0.06 0.17 -0.11 0.33 -0.16 0.49 a7.6 7.6 0 0 0-0.53 2 3.6 3.6 0 0 0 0.3 1.55c0 0.05 0.07 0.08 0.12 0.14 0.12 -0.43 0.21 -0.84 0.34 -1.23 0.25 -0.74 0.51 -1.48 0.8 -2.2a14.67 14.67 0 0 1 3.4-4.53c0.46-0.47 0.94 -0.93 1.41-1.39l0.23-0.19v2.09a3 3 0 0 0 1.46 2.53l0.2 0.12 h0.1a13.48 13.48 0 0 1-0.91-3.77A11.44 11.44 0 0 1 19.12 0c0 0.07 0.05 0.09 0.05 0.12 0 0.56 0 1.14 0.12 1.7a4.58 4.58 0 0 0 1 2.4A10.72 10.72 0 0 1 22 7.11c0.31 0.77 0.59 1.55 0.83 2.34 0.15 0.53 0.22 1.09 0.32 1.64a9.84 9.84 0 0 1 0.16 2.36c-0.06 0.76 -0.14 1.51-0.26 2.26a14.35 14.35 0 0 1-0.4 1.84 12.22 12.22 0 0 1-2.24 4.61 7.77 7.77 0 0 1-1.57 1.29l-0.06-0.04zM15.33 35.9H3.74A0.77 0.77 0 0 1 3 34.82c0.21-0.58 0.34 -1.19 0.51 -1.79 0.17 -0.6 0.29 -1 0.44-1.47a1.8 1.8 0 0 0 0.1-0.4 0.78 0.78 0 0 1 0.87-0.69h20.82a0.83 0.83 0 0 1 0.86 0.5 c0.08 0.25 0.13 0.51 0.2 0.77 l0.42 1.47c0.14 0.51 0.29 1 0.43 1.52 0.036 0.077 0.062 0.157 0.08 0.24a0.72 0.72 0 0 1-0.75 0.93 H15.33zM15.31 29.78H4.87a0.78 0.78 0 0 1-0.77-0.41 0.67 0.67 0 0 1-0.1-0.31v-1.23a0.72 0.72 0 0 1 0.8-0.77h21a0.7 0.7 0 0 1 0.72 0.38 0.81 0.81 0 0 1 0.08 0.38 v1.15a0.79 0.79 0 0 1-0.84 0.82 H15.31v-0.01zm2.09-1.39a5.16 5.16 0 0 0-0.09-0.52c-0.06-0.22-0.22-0.29-0.5-0.25a0.36 0.36 0 0 0-0.35 0.37 v0.82a0.46 0.46 0 0 0 0.39 0.4 0.42 0.42 0 0 0 0.46-0.3 3.74 3.74 0 0 0 0.09-0.52zm5.26 0v0.4a0.45 0.45 0 0 0 0.39 0.42 0.41 0.41 0 0 0 0.46-0.3 4 4 0 0 0 0-0.91c0-0.32-0.22-0.42-0.55-0.38-0.33 0.04 -0.34 0.2 -0.35 0.49 l0.05 0.28 zm-12.41 0v0.38a0.46 0.46 0 0 0 0.41 0.43 0.4 0.4 0 0 0 0.45-0.31 3.63 3.63 0 0 0 0-0.93c0-0.31-0.22-0.4-0.54-0.35-0.32 0.05 -0.34 0.2 -0.34 0.47 l0.02 0.31 zm-3.11 0v0.42a0.44 0.44 0 0 0 0.43 0.41 0.41 0.41 0 0 0 0.43-0.4v-0.75c0-0.25-0.14-0.45-0.43-0.46a0.4 0.4 0 0 0-0.44 0.47 c0.02 0.1 0.01 0.2 0.01 0.31 zm6.21 0v0.43a0.44 0.44 0 0 0 0.42 0.41 0.43 0.43 0 0 0 0.44-0.4v-0.75c0-0.25-0.13-0.46-0.43-0.46s-0.44 0.15 -0.44 0.47 c0 0.09 0.01 0.19 0.01 0.29v0.01zm6.2 0v0.44a0.42 0.42 0 0 0 0.44 0.39 0.41 0.41 0 0 0 0.42-0.38v-0.78c0-0.31-0.14-0.44-0.44-0.44a0.41 0.41 0 0 0-0.43 0.46 c0.02 0.09 0.01 0.2 0.01 0.3 v0.01z" fill="#FFF"/>
  <path d="M0 29.85v-5.52c0-0.22 0.05 -0.31 0.28 -0.3h4.44c0.36 0 0.45 0.1 0.45 0.45 v0.87c0 0.31-0.1 0.41 -0.41 0.41 H2.34c-0.41 0-0.56 0.15 -0.56 0.55 v9c0 0.43-0.11 0.54 -0.53 0.54 h-0.7c-0.43 0-0.54-0.11-0.54-0.53v-3.85L0 29.85zM30.65 29.86v5.48c0 0.44-0.12 0.56 -0.57 0.56 h-0.75c-0.33 0-0.46-0.13-0.46-0.46v-6.09-3.06a0.47 0.47 0 0 0-0.53-0.52H26c-0.39 0-0.47-0.09-0.47-0.48v-0.85c0-0.29 0.09 -0.4 0.41 -0.41h4.53c0.21 0 0.22 0.1 0.22 0.26 v5.57h-0.04z" fill="#FFF"/>
</svg>
