<?xml version="1.0" ?>
<svg xmlns="http://www.w3.org/2000/svg" width="39" height="36" viewBox="0 0 39 36">
  <path d="M19.45 35.86h-6.73a0.73 0.73 0 0 1-0.74-0.44 10.4 10.4 0 0 0-2.62-3.24 15.94 15.94 0 0 0-3.74-2.33c-0.69-0.3-1.39-0.6-2.1-0.85-0.71-0.25-1.36-0.4-2-0.58-0.34-0.09-0.68-0.16-1-0.24a0.7 0.7 0 0 1-0.52-0.73 0.7 0.7 0 0 1 0.74-0.56h37.5a0.73 0.73 0 0 1 0.61 0.42 0.7 0.7 0 0 1-0.28 0.85 1.48 1.48 0 0 1-0.36 0.1 c-0.54 0.13 -1.08 0.25 -1.61 0.39 a20.12 20.12 0 0 0-4 1.55 14.44 14.44 0 0 0-3.6 2.54 10.26 10.26 0 0 0-2 2.7 0.7 0.7 0 0 1-0.68 0.43 l-6.87-0.01zM2.49 1.23a0.89 0.89 0 0 0-0.77-0.4 0.45 0.45 0 0 1-0.41-0.17 0.41 0.41 0 0 1 0.32-0.66c0.316-0.028 0.635 0.03 0.92 0.17a0.19 0.19 0 0 0 0.15 0c0.23-0.26 0.53 -0.19 0.81 -0.15 0.184 0.051 0.364 0.115 0.54 0.19 0.28 -0.36 0.88 -0.25 1.37 0A1.21 1.21 0 0 1 6.9 0.3 c0.286 0.193 0.511 0.464 0.65 0.78 a0.28 0.28 0 0 0 0.28 0.18 h1.92c0.81 0 1.62 0.11 2.42 0.18 0.274 0.021 0.545 0.068 0.81 0.14 0.18 0.078 0.343 0.19 0.48 0.33 0.25 0.21 0.48 0.46 0.74 0.68 0.32 0.28 0.735 0.427 1.16 0.41 h13.57c0.46 0 0.93 0 1.4-0.08 0.47 -0.08 1-0.14 1.45-0.22l0.64-0.08c0.49-0.05 1-0.1 1.48-0.17s0.84-0.13 1.26-0.2h2.39c0.438 0 0.834 0.264 1 0.67a6 6 0 0 1 0.26 0.92 c0.066 0.255 0.093 0.517 0.08 0.78 a5.47 5.47 0 0 1-0.19 1 2.67 2.67 0 0 1-0.21 0.62 0.91 0.91 0 0 1-0.82 0.53 h-2.93a10.38 10.38 0 0 1-1.22-0.21l-0.63-0.08c-0.32 0-0.64-0.07-1-0.12-0.5-0.06-1-0.15-1.49-0.2-0.49-0.05-0.83-0.16-1.28-0.16-3.75-0.12-7.49-0.06-11.24-0.07h-2.21a2.18 2.18 0 0 0-1.76 0.67 c-0.17 0.18 -0.36 0.34 -0.53 0.51 a1.08 1.08 0 0 1-0.69 0.32 c-0.76 0.07 -1.53 0.13 -2.29 0.17 -0.76 0.04 -1.55 0.06 -2.32 0.09 a1.77 1.77 0 0 0-0.2 0c0.035 0.063 0.075 0.124 0.12 0.18 a0.83 0.83 0 0 0 0.69 0.22 0.81 0.81 0 0 1 0.38 0.08 0.37 0.37 0 0 1 0.15 0.45 0.38 0.38 0 0 1-0.35 0.29 1.88 1.88 0 0 1-1-0.12 0.19 0.19 0 0 0-0.18 0 1.24 1.24 0 0 1-1 0.06 1.86 1.86 0 0 1-0.25-0.1 0.19 0.19 0 0 0-0.13 0 1.27 1.27 0 0 1-1 0.07 1.52 1.52 0 0 1-0.25-0.09 0.17 0.17 0 0 0-0.14 0 1.2 1.2 0 0 1-1 0.07 1.68 1.68 0 0 1-1.13-0.99 0.26 0.26 0 0 0-0.29-0.18H1.06a1.36 1.36 0 0 1-1-0.46 0.18 0.18 0 0 1 0-0.3 1.41 1.41 0 0 1 1-0.46h1.33c0.18 0 0.24-0.07 0.24 -0.24v-0.93c0-0.14-0.06-0.17-0.18-0.17H1.13a1.59 1.59 0 0 1-1.05-0.45C0 4.51 0 4.4 0.09 4.29a1.43 1.43 0 0 1 1.09-0.45h1.29c0.22 0 0.24 0 0.25-0.23 0.01 -0.23 0-0.61 0-0.92 0-0.14 0-0.17-0.18-0.17H1.17a1.53 1.53 0 0 1-1-0.41C0 2 0 1.85 0.12 1.7a1.4 1.4 0 0 1 0.94-0.43h1.19l0.24-0.04zM4.68 0.87 a0.36 0.36 0 0 0 0 0.11c0.078 0.148 0.136 0.306 0.17 0.47 0.08 0.466 0.13 0.937 0.15 1.41 0 1.38-0.1 2.75-0.14 4.12 0.001 0.307 0.115 0.602 0.32 0.83a0.63 0.63 0 0 0 0.57 0.26 2.28 2.28 0 0 1-0.33-1.4l0.06-1.31c0-0.63 0.06 -1.26 0.06 -1.89 0-0.63 0-1.26-0.06-1.88a0.85 0.85 0 0 0-0.8-0.72zm2.41 7.22C7.05 8 7 8 7 7.92a1.7 1.7 0 0 1-0.21-0.8V5.37c0-1.17 0-2.34 0.07 -3.51a1.07 1.07 0 0 0-0.24-0.66 0.78 0.78 0 0 0-0.5-0.34c0.097 0.355 0.17 0.716 0.22 1.08v1.62c0 1.13-0.06 2.25-0.1 3.38a1.21 1.21 0 0 0 0.28 0.84 0.83 0.83 0 0 0 0.57 0.31 zm-2.8 0l-0.07-0.19A3.64 3.64 0 0 1 4 7.13c0-0.79 0-1.58 0.05 -2.37V1.83A1 1 0 0 0 4 1.42a0.89 0.89 0 0 0-0.71-0.56c0.116 0.244 0.197 0.503 0.24 0.77 v2.73c0 0.91 0 1.82-0.07 2.73 0.002 0.273 0.11 0.534 0.3 0.73a0.7 0.7 0 0 0 0.53 0.26 v0.01zm3.9-3h-0.32c-0.14 0-0.21 0-0.21 0.19 v1a0.16 0.16 0 0 0 0.1 0.11 6.77 6.77 0 0 0 1-0.07 0.57 0.57 0 0 0 0.44-0.55 0.58 0.58 0 0 0-0.3-0.55 1.19 1.19 0 0 0-0.71-0.15v0.02zm-0.45-1.9v0.52c0 0.17 0.08 0.14 0.12 0.14a6.25 6.25 0 0 0 0.87-0.07 0.65 0.65 0 0 0 0.49-0.59 0.63 0.63 0 0 0-0.46-0.58 5.22 5.22 0 0 0-0.88-0.07s-0.1 0.09 -0.11 0.15 c-0.01 0.06 -0.03 0.31 -0.03 0.48 v0.02zM14.3 17.47c0.863 0.016 1.723 0.11 2.57 0.28 a10.77 10.77 0 0 1 2.53 0.91 10.23 10.23 0 0 1 2.66 2A10 10 0 0 1 24.28 24c0.2 0.54 0.37 1.09 0.55 1.64 0.06 0.29 0.05 0.31-0.25 0.3 h-0.25c-0.3 0-0.3 0-0.37-0.28a9.28 9.28 0 0 0-1.39-3.11 9.54 9.54 0 0 0-2.32-2.38 9.65 9.65 0 0 0-2.35-1.25c-0.53-0.18-1.08-0.3-1.63-0.43a7.67 7.67 0 0 0-2.27-0.14 11.13 11.13 0 0 0-1.52 0.22 8.83 8.83 0 0 0-2.58 1A9.48 9.48 0 0 0 5.74 24c-0.25 0.57 -0.4 1.18-0.61 1.77a0.23 0.23 0 0 1-0.16 0.13 H4.4c-0.12 0-0.15-0.06-0.13-0.16 0.18 -0.734 0.424 -1.45 0.73 -2.14a10.53 10.53 0 0 1 1.92-2.84 9.72 9.72 0 0 1 2-1.61 9.6 9.6 0 0 1 2.08-1 11.77 11.77 0 0 1 1.65-0.43c0.59-0.15 1.23-0.2 1.65-0.25z" fill="#FFF"/>
  <path d="M14.57 19l1.79 0.25 a8.35 8.35 0 0 1 3.07 1.22 8.63 8.63 0 0 1 1.89 1.63 8.24 8.24 0 0 1 1.52 2.42c0.17 0.43 0.31 0.87 0.47 1.3 0 0.11 0 0.18-0.13 0.18 h-0.57a0.26 0.26 0 0 1-0.18-0.14 8.09 8.09 0 0 0-3.13-4.45 7.43 7.43 0 0 0-2.08-1.06 9 9 0 0 0-1.54-0.35 12.37 12.37 0 0 0-1.68-0.13 6.65 6.65 0 0 0-1.65 0.29 7.69 7.69 0 0 0-2.05 0.91 A7.67 7.67 0 0 0 8.14 23a8.9 8.9 0 0 0-1.2 2.12 6.91 6.91 0 0 0-0.24 0.73 c0 0.1-0.08 0.14 -0.18 0.13 H6c-0.12 0-0.17 0-0.14-0.16 0.1 -0.3 0.17 -0.61 0.28 -0.9a9 9 0 0 1 1.25-2.3 9 9 0 0 1 4.27-3.1 9.4 9.4 0 0 1 2.9-0.52h0.01zM23.3 16.67a7.21 7.21 0 0 0-1 0 12.89 12.89 0 0 0-1.53 0.28 c-0.42 0.1 -0.82 0.27 -1.23 0.38 a0.59 0.59 0 0 1-0.28-0.06l-0.74-0.3a0.39 0.39 0 0 1-0.1-0.08s0-0.07 0.08 -0.08c0.55-0.22 1.09-0.45 1.65-0.63 0.42 -0.13 0.847 -0.233 1.28-0.31a5 5 0 0 1 0.66-0.1 9.8 9.8 0 0 1 2.86 0.06 l1.23 0.24 a10 10 0 0 1 2.11 0.75 A11.6 11.6 0 0 1 33 21.11 9 9 0 0 1 34 23c0.19 0.58 0.38 1.17 0.54 1.77 0.09 0.32 0.11 0.66 0.17 1 0 0.14 0 0.19-0.17 0.19 h-0.56a0.17 0.17 0 0 1-0.19-0.15c0-0.22-0.06-0.43-0.11-0.64-0.13-0.49-0.24-1-0.41-1.48a11.66 11.66 0 0 0-0.64-1.5 10.14 10.14 0 0 0-3.2-3.62A10.34 10.34 0 0 0 27 17.29a10.54 10.54 0 0 0-2-0.53c-0.57-0.09-1.16-0.1-1.74-0.15l0.04 0.06 z" fill="#FFF"/>
  <path d="M14.42 20.5a7.9 7.9 0 0 1 3.15 0.64 7.4 7.4 0 0 1 2.84 2.17 6.77 6.77 0 0 1 1.23 2.27c0.12 0.37 0.12 0.37 -0.27 0.36 -0.39-0.01-0.46 0-0.64-0.45a6.6 6.6 0 0 0-2.42-3 6.76 6.76 0 0 0-4.51-1.09 5.94 5.94 0 0 0-2.05 0.58 6.61 6.61 0 0 0-2.57 2.12 6 6 0 0 0-0.84 1.6c-0.06 0.16 -0.13 0.27 -0.33 0.25 a4.13 4.13 0 0 0-0.5 0c-0.11 0-0.14 0-0.11-0.14A7.85 7.85 0 0 1 8.24 24a7.12 7.12 0 0 1 1.46-1.69 7.48 7.48 0 0 1 2.57-1.43 9.57 9.57 0 0 1 2.15-0.38zM20.4 17.79l1.2-0.27a8.75 8.75 0 0 1 2.11-0.15 9.58 9.58 0 0 1 2.05 0.3 c0.8 0.2 1.57 0.506 2.29 0.91 0.803 0.445 1.54 1 2.19 1.65A10.47 10.47 0 0 1 32 22.64c0.307 0.59 0.552 1.21 0.73 1.85 0.12 0.41 0.18 0.83 0.26 1.25 0 0.15 0 0.22-0.19 0.21 h-0.54c-0.1 0-0.15 0-0.17-0.14a9.6 9.6 0 0 0-0.6-2.11 8.87 8.87 0 0 0-1.85-2.76 8.58 8.58 0 0 0-4.38-2.5 8.14 8.14 0 0 0-2.25-0.2c-0.52 0-1 0.13-1.55 0.19 a0.31 0.31 0 0 1-0.18 0l-0.73-0.43a0.8 0.8 0 0 1-0.15-0.21zM11.68 12.65c0 0.34-0.07 0.66 -0.12 1a0.39 0.39 0 0 1-0.47 0.33 0.46 0.46 0 0 1-0.34-0.48c0.05-0.441 0.07 -0.886 0.06 -1.33a2.07 2.07 0 0 0-0.66-1.48 1.7 1.7 0 0 0-2.05-0.2c-0.3 0.195 -0.59 0.406 -0.87 0.63 a3.3 3.3 0 0 1-1.57 0.76 3 3 0 0 1-3-1.08A3.54 3.54 0 0 1 1.91 9a1.21 1.21 0 0 1 0-0.68 0.4 0.4 0 0 1 0.39-0.26 0.38 0.38 0 0 1 0.36 0.28 0.86 0.86 0 0 1 0 0.28c0.02 0.93 0.55 1.772 1.38 2.19a2.21 2.21 0 0 0 1.63 0.19 3.42 3.42 0 0 0 1.21-0.67 4.35 4.35 0 0 1 1.33-0.83 2.35 2.35 0 0 1 1.29-0.06c0.532 0.1 1.016 0.37 1.38 0.77 0.37 0.41 0.607 0.923 0.68 1.47 0.04 0.32 0.08 0.66 0.12 0.97z" fill="#FFF"/>
  <path d="M19.61 25.93h-0.8s-0.1-0.1-0.13-0.16a4.84 4.84 0 0 0-2.21-2.26 5 5 0 0 0-2.59-0.51 4.84 4.84 0 0 0-3.5 1.74 10.7 10.7 0 0 0-0.74 1.11 0.34 0.34 0 0 1-0.2 0.13 h-0.7a5.78 5.78 0 0 1 10.87 0v-0.05zM22.26 19c0.48 0 0.95-0.05 1.43 0a9.86 9.86 0 0 1 1.53 0.2 7.69 7.69 0 0 1 1.77 0.65 8.58 8.58 0 0 1 2.45 1.91 7.26 7.26 0 0 1 1.23 1.91c0.21 0.5 0.39 1 0.56 1.52a4 4 0 0 1 0.1 0.6 c0 0.09 0 0.14-0.12 0.13 h-0.65a0.21 0.21 0 0 1-0.13-0.13c-0.08-0.28-0.15-0.56-0.23-0.84a6.6 6.6 0 0 0-0.91-1.89 7 7 0 0 0-2.86-2.46 11.34 11.34 0 0 0-1.52-0.52 5.54 5.54 0 0 0-1.72-0.18 0.41 0.41 0 0 1-0.24-0.08c-0.22-0.2-0.42-0.41-0.63-0.61a0.6 0.6 0 0 1-0.09-0.13l0.03-0.08z" fill="#FFF"/>
  <path d="M29.22 25.94c-0.46 0-0.44 0-0.57-0.45a5.37 5.37 0 0 0-1.11-2 5.53 5.53 0 0 0-1.74-1.34 4.62 4.62 0 0 0-1.26-0.45 0.33 0.33 0 0 1-0.19-0.11c-0.18-0.24-0.34-0.49-0.51-0.74v-0.14a0.36 0.36 0 0 1 0.14 0c0.46 0.09 0.92 0.16 1.36 0.29 a6.14 6.14 0 0 1 2.41 1.39A6.51 6.51 0 0 1 29 24.07a6.71 6.71 0 0 1 0.63 1.74c0 0.1 0 0.13-0.11 0.13 h-0.3zM18 25.94h-0.84c-0.08 0-0.15-0.12-0.21-0.2a3.38 3.38 0 0 0-1.31-1 3.5 3.5 0 0 0-2.07-0.25 3.28 3.28 0 0 0-2 1.16 0.68 0.68 0 0 1-0.68 0.3 h-0.48a4.28 4.28 0 0 1 4.23-2.33c1.29 0.1 3.2 1.38 3.36 2.32z" fill="#FFF"/>
  <path d="M25 22.62c0.11 0.05 0.23 0.08 0.34 0.14 a4.74 4.74 0 0 1 2.43 2.57c0.05 0.13 0.11 0.27 0.15 0.4 0.04 0.13 0 0.21-0.16 0.21 a4.87 4.87 0 0 0-0.54 0 0.24 0.24 0 0 1-0.26-0.19 4.1 4.1 0 0 0-1.36-1.82 1 1 0 0 1-0.21-0.34c-0.14-0.31-0.28-0.62-0.41-0.93l0.02-0.04z" fill="#FFF"/>
</svg>
