<?xml version="1.0" ?>
<svg xmlns="http://www.w3.org/2000/svg" width="44" height="36" viewBox="0 0 44 36">
  <path d="M21.71 32.12H8.61c-0.32 0-0.32 0-0.33 0.33 v1.75a1.36 1.36 0 0 1-1.31 1.16H2.73A1.4 1.4 0 0 1 1.37 34v-4.24a0.77 0.77 0 0 0-0.1-0.4 9.91 9.91 0 0 1-1.1-3.24 11.92 11.92 0 0 1-0.13-3 23.18 23.18 0 0 1 0.38-2.76c0.22-1 0.5-2.06 0.79 -3.08 0.17 -0.62 0.42 -1.22 0.61 -1.84a0.48 0.48 0 0 0 0-0.35 4.43 4.43 0 0 1-0.61-1.45 1.17 1.17 0 0 1 1.09-1.42c0.196-0.02 0.394 -0.02 0.59 0a0.28 0.28 0 0 0 0.32-0.2l0.87-2.25c0.76-1.89 1.48-3.8 2.3-5.66A6 6 0 0 1 9.8 0.85 a11.32 11.32 0 0 1 3.85-0.72C15.1 0.07 16.55 0 18 0h8.18c1.5 0 3 0.07 4.49 0.17 a8.51 8.51 0 0 1 4.15 1.27 6.51 6.51 0 0 1 2.51 3.16c0.967 2.453 1.93 4.92 2.89 7.4a0.34 0.34 0 0 0 0.34 0.23 3.22 3.22 0 0 1 0.88 0.11 c0.568 0.12 0.939 0.668 0.84 1.24A3.42 3.42 0 0 1 41.7 15a0.57 0.57 0 0 0-0.06 0.54 c0.41 1.26 0.82 2.52 1.17 3.8a17.19 17.19 0 0 1 0.55 3.27c0 0.62 0.08 1.24 0.07 1.86a10.28 10.28 0 0 1-1.26 4.91 0.77 0.77 0 0 0-0.09 0.36 v4.16a1.48 1.48 0 0 1-1.47 1.46h-4a1.47 1.47 0 0 1-1.46-1.43v-1.51c0-0.31 0-0.31-0.31-0.31H21.71v0.01zm15.46-19.75a1.18 1.18 0 0 0 0-0.21c-0.17-0.54-0.34-1.09-0.52-1.63-0.56-1.65-1.2-3.28-1.92-4.87a3.87 3.87 0 0 0-2.26-2.24A8 8 0 0 0 30 3c-1.54-0.06-3.09-0.11-4.64-0.12-3.42 0-6.84 0-10.26 0.05 a13.63 13.63 0 0 0-3.76 0.39 A3.71 3.71 0 0 0 9 5.18c-0.23 0.47 -0.44 0.94 -0.66 1.42a52.52 52.52 0 0 0-1.84 5c-0.08 0.24 -0.14 0.49 -0.23 0.78 h4.94c0.1 0 0.2 0 0.21-0.14a1 1 0 0 1 0.56-0.79 5.83 5.83 0 0 1 2.3-0.68 8.62 8.62 0 0 1 3 0.17 4.32 4.32 0 0 1 1.47 0.61 0.88 0.88 0 0 1 0.4 0.65 c0 0.15 0.07 0.19 0.21 0.18h4.85c0.1 0 0.22 0 0.22-0.13a1 1 0 0 1 0.57-0.8 5.66 5.66 0 0 1 2.23-0.67 8.47 8.47 0 0 1 3 0.16 4.25 4.25 0 0 1 1.46 0.6 0.86 0.86 0 0 1 0.41 0.62 c0 0.18 0.08 0.23 0.26 0.23h4.87l-0.06-0.02zM21.73 24.11h6.92A1 1 0 0 0 29.7 23a1.07 1.07 0 0 0-1.15-1H14.84a1.05 1.05 0 0 0-1 1.5 1 1 0 0 0 1 0.62l6.89-0.01zm14.91-3.26a2.39 2.39 0 1 0 0.309 4.77 2.39 2.39 0 0 0-0.309-4.77zm-29.81 0a2.38 2.38 0 1 0 2.37 2.42 2.39 2.39 0 0 0-2.37-2.42z" fill="#FFF"/>
  <path d="M28.2 9.84a2.9 2.9 0 1 1 2.92-2.9 2.91 2.91 0 0 1-2.92 2.9zM15.25 4a2.9 2.9 0 1 1-0.04 5.8 2.9 2.9 0 0 1 0.04-5.8z" fill="#FFF"/>
</svg>
