<?xml version="1.0" ?>
<svg xmlns="http://www.w3.org/2000/svg" width="36" height="36" viewBox="0 0 36 36">
  <path d="M28.05 35.53a26 26 0 0 1-11.36-3.69A36.82 36.82 0 0 1 6 22.33a30.21 30.21 0 0 1-4.56-8.2A23.77 23.77 0 0 1 0 7.58C-0.17 5 1.37 3.5 3.22 2.23a34.14 34.14 0 0 1 3.61-2 1.2 1.2 0 0 1 1.82 0.46 1078.58 1078.58 0 0 1 5.09 7.2 1.58 1.58 0 0 1-0.36 2.38c-0.69 0.56 -1.36 1.13-2.05 1.68-1.18 1-1.34 1.64-0.61 3a22.27 22.27 0 0 0 4.56 6.32 27.93 27.93 0 0 0 5.84 3.84 1.9 1.9 0 0 0 2.24-0.65c0.65-0.76 1.27-1.56 1.9-2.34a1.58 1.58 0 0 1 2.33-0.37c1.59 1.1 3.16 2.23 4.74 3.34 0.84 0.6 1.67 1.22 2.53 1.78a1.18 1.18 0 0 1 0.5 1.63 18 18 0 0 1-3.27 5.27 4.85 4.85 0 0 1-4.04 1.76z" fill="#FFF"/>
</svg>
