<?xml version="1.0" ?>
<svg xmlns="http://www.w3.org/2000/svg" width="44" height="31" viewBox="0 0 44 31">
  <path d="M0 13h39.87a3.36 3.36 0 1 1-3.27 4.19 6.52 6.52 0 0 1-0.11-1c0-0.17 0.06 -0.22 0.21 -0.21h1c0.22 0 0.3 0 0.28 0.27 a1.76 1.76 0 0 0 0.56 1.43 1.88 1.88 0 1 0 1.87-3.14 1.69 1.69 0 0 0-0.5-0.08H38a4.16 4.16 0 0 0-2.68 0.93 l-9.23 7.36a14.92 14.92 0 0 1-1.81 1.38 5.68 5.68 0 0 1-6-0.07C13 20.87 7.67 17.65 2.36 14.46L0.18 13.15 0 13zM23.67 25.86c0.118 0.427 0.269 0.845 0.45 1.25a2.87 2.87 0 0 0 2.56 1.56 1.51 1.51 0 0 1 1.55 1.57c0 0.65 0 0.65-0.64 0.65 h-14c-0.23 0-0.33 0-0.3-0.3a6 6 0 0 1 0.08-0.85 1.42 1.42 0 0 1 1.37-1.07A4.44 4.44 0 0 0 18.88 26c0.08-0.15 0.15 -0.18 0.3 -0.13a7 7 0 0 0 4.31 0h0.14s0.06 0 0.04-0.01zM31.33 5.46h-4.51a0.48 0.48 0 0 0-0.43 0.2 1.45 1.45 0 0 1-1.84 0.34 1.49 1.49 0 0 1-0.74-1.62 1.47 1.47 0 0 1 1.53-1.15 1.41 1.41 0 0 1 1.06 0.55 0.47 0.47 0 0 0 0.42 0.2 h8.71a3.87 3.87 0 0 1 2.24 0.63 3.7 3.7 0 0 1 1.68 3.11v1.49a0.46 0.46 0 0 0 0.15 0.31 c0.516 0.39 0.719 1.07 0.5 1.68a0.3 0.3 0 0 1-0.32 0.24 h-2.14a0.29 0.29 0 0 1-0.31-0.22 1.46 1.46 0 0 1 0.48-1.68 0.42 0.42 0 0 0 0.19-0.36V7.7a2.23 2.23 0 0 0-2.23-2.24h-4.44zM21.5 11.44h-4.16c-0.23 0-0.32 0-0.31-0.29v-1.2a1.48 1.48 0 0 1 1.49-1.48h6A1.49 1.49 0 0 1 26 10v1.26c0 0.19-0.07 0.23 -0.24 0.23 H21.5v-0.05zM20 4.56V2.48a1.5 1.5 0 0 1 3-0.06 1.78 1.78 0 0 1-0.23 1 2.58 2.58 0 0 0 0.09 2.74 0.94 0.94 0 0 1 0.14 0.64 0.2 0.2 0 0 1-0.14 0.15 h-2.68C20 7 20 6.83 20 6.73V4.56z" fill="#FFF"/>
</svg>
