<?xml version="1.0" ?>
<svg xmlns="http://www.w3.org/2000/svg" width="43" height="36" viewBox="0 0 43 36">
  <path d="M31 31H0V8.86h31V31zm-1.9-2v-0.2-17.86c0-0.14-0.05-0.17-0.17-0.17H2.12c-0.14 0-0.17 0-0.17 0.18 V29H29.1zM23.26 8.21h-0.84a0.37 0.37 0 0 1-0.14-0.09l-1.9-1.9-1.92-1.91-1.56-1.57-0.83-0.84a0.22 0.22 0 0 0-0.24-0.06 0.75 0.75 0 0 1-0.55 0 0.27 0.27 0 0 0-0.32 0.09 l-2 2-2.56 2.55-1.66 1.66s-0.07 0.07 -0.11 0.07 h-0.84l0.13-0.15 3.21-3.2L14 2l0.56-0.57a0.19 0.19 0 0 0 0.06-0.23 0.92 0.92 0 0 1 0.59-1.13 0.94 0.94 0 0 1 1.2 0.46 0.89 0.89 0 0 1 0.05 0.68 0.23 0.23 0 0 0 0.06 0.26 c0.94 0.94 1.88 1.89 2.83 2.83l3.14 3.12 0.67 0.67 0.1 0.12z" fill="#FFF"/>
  <path d="M28.47 28.4H2.79c-0.24 0-0.21 0-0.21-0.22V11.63c0-0.21 0-0.21 0.21 -0.21h25.46c0.22 0 0.22 0 0.22 0.21 V28.4zm-7.91-5h-0.33L17 23.33a5.07 5.07 0 0 1-1.45-0.19 4.72 4.72 0 0 1-1.24-0.54 7.88 7.88 0 0 1-2.14-2c-0.55-0.72-1.05-1.47-1.57-2.21a10 10 0 0 0-1-1.28 0.76 0.76 0 0 0-0.95-0.24 5.7 5.7 0 0 0-1.34 0.81 c-0.61 0.49 -1.22 1-1.8 1.51-0.77 0.71 -1.51 1.45-2.26 2.17a0.33 0.33 0 0 0-0.11 0.25 v6.15h24.69v-0.17l-0.06-3.71c0-0.13 0-0.18-0.15-0.2-0.54-0.11-1.08-0.24-1.62-0.34a2.59 2.59 0 0 1-1.1-0.48 6.31 6.31 0 0 1-1.31-1.37c-0.46-0.6-0.9-1.23-1.37-1.84a3.06 3.06 0 0 0-1.15-1 0.61 0.61 0 0 0-0.51-0.07 3.17 3.17 0 0 0-0.49 0.32 9.94 9.94 0 0 0-1.35 1.55c-0.4 0.54 -0.78 1.09-1.16 1.65-0.17 0.24 -0.33 0.49 -0.51 0.77 1.18 0.22 2.34 0.34 3.51 0.51 v0.02zm3-9.91a1.45 1.45 0 1 0 0 2.9 1.45 1.45 0 0 0 0-2.9zM29.71 34.05h0.36a2.32 2.32 0 0 0 1.19-0.28 2.2 2.2 0 0 0 0.9-1.05c0.2-0.45 0.38 -0.91 0.59 -1.36A4 4 0 0 1 34 29.87a3.43 3.43 0 0 1 1.21-0.56c0.13 0 0.27 0 0.41-0.06 0.14 -0.06 0-0.05 0-0.06a1.37 1.37 0 0 1-0.26-1.42c0.31-0.91 0.62 -1.82 0.94 -2.74 0.44 -1.3 0.89 -2.6 1.34-3.9 0.3 -0.89 0.61 -1.77 0.91 -2.66 0.45 -1.29 0.89 -2.58 1.33-3.88 0.35 -1 0.7-2 1-3 0.23-0.66 0.46 -1.33 0.7 -2a1.85 1.85 0 0 1 0.58-0.83 0.59 0.59 0 0 1 0.45-0.18 0.44 0.44 0 0 1 0.36 0.28 c0.16 0.429 0.16 0.901 0 1.33l-1.14 4.2c-0.42 1.58-0.85 3.16-1.27 4.74-0.42 1.58-0.91 3.38-1.37 5.07-0.32 1.19-0.64 2.38-1 3.57-0.1 0.36 -0.19 0.73 -0.31 1.09a1.25 1.25 0 0 1-0.68 0.71 l-0.22 0.1 c-0.07 0 0 0.07 0 0.12 0 0.05 0.1 0.34 0.14 0.51a4.6 4.6 0 0 1 0 2.47 2.85 2.85 0 0 1-0.94 1.42 2.71 2.71 0 0 1-0.85 0.51 9.84 9.84 0 0 1-1 0.36 7.37 7.37 0 0 1-1 0.17 5 5 0 0 1-1.92-0.14 3.76 3.76 0 0 1-1.57-0.85l-0.12-0.12-0.01-0.07z" fill="#FFF"/>
</svg>
