<?xml version="1.0" ?>
<svg xmlns="http://www.w3.org/2000/svg" width="44" height="34" viewBox="0 0 44 34">
  <path d="M43.53 33.29H0.64c-0.64 0-0.64 0-0.64-0.64v-10c0-0.36 0-0.38 0.37 -0.38h9.08V19a0.87 0.87 0 0 1 0.93-0.93h2.16a0.35 0.35 0 0 0 0.33-0.14 0.87 0.87 0 0 1 0.64-0.34 2.5 2.5 0 0 1 1.43 0.12 0.27 0.27 0 0 1 0.12 0.09 0.77 0.77 0 0 0 0.74 0.27 h4.17c0.3 0 0.31 0 0.31-0.31V10.2c0-0.09-0.05-0.26-0.09-0.27a0.46 0.46 0 0 0-0.33 0.07 c-0.41 0.29 -0.8 0.61 -1.2 0.91 l-2.38 1.81a0.17 0.17 0 0 1-0.28 0c-0.22-0.24-0.45-0.49-0.69-0.71-0.24-0.22-0.16-0.25 0-0.4l2.09-1.79 3.06-2.61 6.87-5.87L28.91 0l4.32 3.69v-1.9h-0.45c-0.16 0-0.26-0.06-0.25-0.24a4.69 4.69 0 0 0 0-0.53 0.17 0.17 0 0 1 0.19-0.19h3.35v0.84s-0.11 0.11 -0.18 0.11 c-0.52 0.05 -0.52 0.05 -0.52 0.56 v3a0.53 0.53 0 0 0 0.15 0.34 l4.32 3.71c0.86 0.74 1.71 1.48 2.58 2.2 0.16 0.13 0.14 0.21 0 0.35-0.14 0.14 -0.46 0.51 -0.68 0.78 -0.09 0.1 -0.15 0.11 -0.26 0l-2.61-2c-0.33-0.24-0.65-0.5-1-0.74a0.49 0.49 0 0 0-0.32-0.09c-0.06 0-0.1 0.19 -0.1 0.29 v11.81c0 0.22 0.07 0.28 0.29 0.28h5.54c0.19 0 0.24 0.06 0.24 0.24 V33.1c0.007 0.063 0.01 0.127 0.01 0.19 zm-33.18-11h-0.61c-0.19 0-0.28 0.07 -0.27 0.27 0.01 0.2 0 0.68 0 1 0 0.17-0.05 0.23 -0.23 0.23 H7.42a2.71 2.71 0 0 0-1.29 0.29 2.87 2.87 0 0 0-1.38 3.79 2.78 2.78 0 0 0 2.68 1.73h5a3 3 0 0 0 1.31-0.3 2.9 2.9 0 0 0-1.09-5.51H10.35v-1.56a0.71 0.71 0 0 0 0.2 0H20c0.19 0 0.25-0.08 0.24 -0.26v-2.62c0-0.2-0.06-0.28-0.27-0.28h-4.45a0.52 0.52 0 0 0-0.33 0.14 1.06 1.06 0 0 1-0.75 0.31 h-0.77a1 1 0 0 1-0.77-0.31 0.5 0.5 0 0 0-0.27-0.14h-1.57a0.65 0.65 0 0 0-0.71 0.72 c0.02 0.82 0 1.64 0 2.45v0.05zm18.88-4.75h2.92c0.17 0 0.18-0.09 0.18 -0.22v-2.66c0-0.19-0.06-0.24-0.25-0.24H29.23V17.54zm-3.65 0h2.88c0.17 0 0.18-0.09 0.18 -0.22v-2.7c0-0.15 0-0.22-0.21-0.22h-2.66c-0.15 0-0.2 0-0.2 0.19 v1.64l0.01 1.31zm3.06-5.38v-1.62c0-0.09 0-0.24-0.16-0.2a5.11 5.11 0 0 0-0.7 0.17 3.39 3.39 0 0 0-2.21 3.15c0 0.18 0.05 0.26 0.24 0.25h2.55c0.23 0 0.29-0.09 0.29 -0.29-0.01-0.5-0.01-1.01-0.01-1.51v0.05zm0.63-1.79a0.67 0.67 0 0 1 0 0.07v3.37c0 0.05 0.11 0.14 0.17 0.14h2.64c0.2 0 0.31-0.05 0.28 -0.27-0.03-0.22 0-0.33-0.07-0.5a3.1 3.1 0 0 0-0.75-1.63 3.45 3.45 0 0 0-2.27-1.23v0.05z" fill="#FFF"/>
  <path d="M13.64 16.59h-1.52c-0.14 0-0.3 0.06 -0.29-0.15 0.01 -0.21 0.16 -0.2 0.31 -0.2h1.47c0.08-0.19 0.15 -0.39 0.4 -0.39a0.32 0.32 0 0 1 0.38 0.22 0.22 0.22 0 0 0 0.27 0.17 h1.25a0.36 0.36 0 0 1 0.19 0 0.41 0.41 0 0 1 0.11 0.23 0.27 0.27 0 0 1-0.17 0.09 h-1.37c-0.18 0-0.26 0.05 -0.26 0.24 0 0.48 0 0.47-0.47 0.48 -0.23 0-0.33 0-0.3-0.29a3.05 3.05 0 0 0 0-0.4z" fill="#FFF"/>
</svg>
