<?xml version="1.0" ?>
<svg xmlns="http://www.w3.org/2000/svg" width="44" height="17" viewBox="0 0 44 17">
  <path d="M19.48 0h9.34a2.77 2.77 0 0 1 2.81 2.81v0.83c0 0.28 0.06 0.23 0.24 0.23l2.87-0.06a1.12 1.12 0 0 1 1.23 0.9 c0.62 2 1.23 4 1.84 5.93 0.08 0.24 0.15 0.48 0.24 0.71a0.26 0.26 0 0 0 0.19 0.14 H41c0.15 0 0.21-0.06 0.2 -0.21-0.01-0.15 0-0.15 0-0.23a0.55 0.55 0 0 1 0.54-0.57h1.19a0.52 0.52 0 0 1 0.57 0.57 l0.06 4.52a0.49 0.49 0 0 1-0.5 0.58 11 11 0 0 1-1.28 0 0.52 0.52 0 0 1-0.51-0.57c0-0.48 0.06 -0.42-0.43-0.41l-4.52 0.07 a2 2 0 0 1-0.65-0.1 1 1 0 0 1-0.62-0.75c-0.45-1.49-0.91-3-1.37-4.46-0.22-0.73-0.45-1.46-0.66-2.19a0.26 0.26 0 0 0-0.3-0.22 7.85 7.85 0 0 1-0.84 0c-0.21 0-0.26 0.08 -0.26 0.27 v5.48a2.78 2.78 0 0 1-2.79 2.89H10.19a2.75 2.75 0 0 1-2.75-2 3 3 0 0 1-0.12-0.79v-1.63c0-0.19 0-0.28-0.25-0.27l-2.41 0.1 a4.78 4.78 0 0 0-2 0.69 3.59 3.59 0 0 1-0.66 0.31 A1 1 0 0 1 0.79 12l-0.66-1.34a1 1 0 0 1 0.45-1.4c0.75-0.36 1.53-0.68 2.32-1a12.32 12.32 0 0 1 4-0.46c0.45 0 0.41 0 0.41-0.4V2.83A2.76 2.76 0 0 1 9.2 0.15 2.46 2.46 0 0 1 10 0h9.48z" fill="#FFF"/>
</svg>
