<?xml version="1.0" ?>
<svg xmlns="http://www.w3.org/2000/svg" width="17" height="36" viewBox="0 0 17 36">
  <path d="M5.6 1.94a1.76 1.76 0 0 1-0.14 0.23 c-0.33 0.38 -0.67 0.75 -1 1.12-0.15 0.16 -0.32 0.31 -0.48 0.46 a1.08 1.08 0 0 0-0.11 0.18 L4 4l0.82 0.07 h0.19A5.2 5.2 0 0 1 3.22 5.2c0.29 0.26 0.53 0.49 0.79 0.7 a23.36 23.36 0 0 0 2.87 1.95 4.06 4.06 0 0 1 1.51 1.54c0.06 0.12 0.114 0.244 0.16 0.37 0-0.07 0.09 -0.1 0.1 -0.14a3.62 3.62 0 0 1 1.61-1.78 21.91 21.91 0 0 0 3-2c0.21-0.18 0.4 -0.38 0.65 -0.62a4.08 4.08 0 0 1-1.81-1.13h0.2l0.78-0.09a0.58 0.58 0 0 0 0.17-0.06 0.67 0.67 0 0 0-0.09-0.14c-0.4-0.4-0.81-0.79-1.2-1.2a2.73 2.73 0 0 1-0.41-0.6h0.12a8.49 8.49 0 0 0 2.64 0.89 l0.75 0.14 a0.36 0.36 0 0 1 0.29 0.3 c0.12 0.53 0.26 1.06 0.35 1.6 0.09 0.54 0.18 1.14 0.25 1.71 0.07 0.57 0.17 1.36 0.24 2.05 0.07 0.69 0.17 1.66 0.24 2.49 0.09 1 0.18 2 0.25 3.06s0.14 2.09 0.19 3.13a66.09 66.09 0 0 1 0.13 6.74 5.38 5.38 0 0 1-0.07 0.69 0.26 0.26 0 0 1-0.17 0.17 3.47 3.47 0 0 1-1.47 0C15 25 15 25 15 24.66c-0.07-1.91-0.13-3.82-0.23-5.73-0.07-1.55-0.18-3.09-0.3-4.64-0.08-1.16-0.21-2.31-0.32-3.46 0-0.4-0.1-0.79-0.16-1.18a1.34 1.34 0 0 0-0.07-0.27h-0.06a2 2 0 0 0-0.15 0.29 l-0.33 1.21c-0.15 0.52 -0.32 1-0.46 1.56a7.42 7.42 0 0 0-0.3 2.34c0.034 0.307 0.133 0.604 0.29 0.87 0.31 0.67 0.66 1.33 1 2 0.12 0.258 0.203 0.53 0.25 0.81 a2.23 2.23 0 0 1-0.32 1.2 5.44 5.44 0 0 1-1.91 2.1c-0.45 0.32 -0.94 0.58 -1.4 0.88 -0.16 0.1 -0.24 0.05 -0.34-0.09A9.11 9.11 0 0 1 9 20.31c-0.16-0.44-0.3-0.9-0.47-1.39a1.71 1.71 0 0 0-0.09 0.22 A11.78 11.78 0 0 1 7 22.48c-0.16 0.25 -0.16 0.25 -0.42 0.1 a10.07 10.07 0 0 1-2.38-1.73A4.56 4.56 0 0 1 3 18.94a1.71 1.71 0 0 1 0.15-1.2c0.33-0.71 0.66 -1.41 1-2.1a3.09 3.09 0 0 0 0.25-1.82 11.17 11.17 0 0 0-0.56-2.35c-0.16-0.49-0.26-1-0.4-1.49-0.06-0.2-0.14-0.41-0.21-0.61h-0.05a1.34 1.34 0 0 0-0.07 0.18 c-0.12 0.95 -0.25 1.9-0.35 2.86-0.1 0.96 -0.17 1.88-0.24 2.82-0.07 0.94 -0.16 2.1-0.21 3.14-0.09 2.12-0.16 4.24-0.24 6.36 0 0.17 0 0.24-0.22 0.27 a4.14 4.14 0 0 1-1.49 0 0.21 0.21 0 0 1-0.21-0.22c0-0.34-0.09-0.68-0.1-1C0 21.81 0 19.9 0.09 18c0.08-1.42 0.15 -2.84 0.24 -4.26 0.07 -1 0.16-2 0.25-3s0.19-2.1 0.31 -3.12c0.09-0.79 0.2 -1.58 0.32 -2.37 0.08 -0.53 0.2 -1.06 0.3 -1.58 0-0.13 0.08 -0.24 0.11 -0.37A0.43 0.43 0 0 1 2 3a11.67 11.67 0 0 0 3-0.83l0.55-0.26 0.05 0.03z" fill="#FFF"/>
  <path d="M3 19.61a6.9 6.9 0 0 0 1 1.66 8.1 8.1 0 0 0 2.9 2.22c0.11 0.06 0.16 0 0.22-0.08a9 9 0 0 0 1.37-2.32 1.47 1.47 0 0 1 0.09-0.17l0.46 1a7.75 7.75 0 0 0 1 1.53 0.17 0.17 0 0 0 0.24 0.06 7.87 7.87 0 0 0 3.82-3.71l0.06-0.12h0.06c0 0.24 0.1 0.47 0.13 0.71 0.18 1.095 0.2 2.21 0.06 3.31a21.61 21.61 0 0 1-0.44 2.24 14.37 14.37 0 0 0-0.45 2.51c-0.05 0.88 -0.07 1.77-0.07 2.65a15.82 15.82 0 0 0 0.33 3c0 0.14-0.05 0.2 -0.15 0.24 a5.24 5.24 0 0 1-0.78 0.3 16.38 16.38 0 0 1-5.4 0.51 A14.89 14.89 0 0 1 5 34.76a8 8 0 0 1-1.26-0.39c-0.37-0.14-0.36-0.17-0.29-0.56a22.7 22.7 0 0 0 0.3-4 15.12 15.12 0 0 0-0.31-3c-0.11-0.59-0.28-1.16-0.42-1.73a9.92 9.92 0 0 1-0.32-2.23c0-0.75 0-1.5 0.07 -2.25 0.03 -0.296 0.08 -0.59 0.15 -0.88 0 0 0.08-0.03 0.08 -0.11zM6.37 3.62L5 3.44l0.08-0.15a6.64 6.64 0 0 0 0.86-1.85A1.78 1.78 0 0 1 7.12 0.23 4.2 4.2 0 0 1 10 0.28c0.53 0.191 0.937 0.627 1.09 1.17A5.91 5.91 0 0 0 12 3.33a0.28 0.28 0 0 1 0 0.12l-1.14 0.18 a7.43 7.43 0 0 0 2.06 1.74c-0.14 0.13 -0.26 0.25 -0.39 0.36 a28.55 28.55 0 0 1-2.63 2A3.33 3.33 0 0 0 8.74 9a0.83 0.83 0 0 1-0.08 0.12 H8.6L8.44 9a4.26 4.26 0 0 0-1.21-1.33c-0.56-0.4-1.12-0.82-1.66-1.24-0.54-0.42-0.75-0.61-1.12-0.92l-0.16-0.1a8.69 8.69 0 0 0 2.08-1.79zm2.08 4.85h0.05c0-0.11 0.05 -0.22 0.07 -0.32 0.16 -0.64 0.29 -1.28 0.47 -1.92 0.256 -0.77 0.577 -1.515 0.96 -2.23a4.19 4.19 0 0 0 0.55-1.83A1.25 1.25 0 0 0 9.88 1 2.85 2.85 0 0 0 7.51 0.8 a1.75 1.75 0 0 0-0.83 0.53 1.56 1.56 0 0 0-0.17 1.58c0.222 0.592 0.479 1.17 0.77 1.73 0.473 0.948 0.81 1.958 1 3l0.17 0.83 z" fill="#FFF"/>
</svg>
