<?xml version="1.0" ?>
<svg xmlns="http://www.w3.org/2000/svg" width="35" height="22" viewBox="0 0 35 22">
  <path d="M18.46 21.65v-2.32-0.65c0-0.62 0-1.25 0.09 -1.87 0.063 -0.608 0.16 -1.213 0.29 -1.81A4.8 4.8 0 0 1 20 12.57a4.73 4.73 0 0 1 2-1.27 7.62 7.62 0 0 1 1.73-0.3 0.74 0.74 0 0 0 0.54-0.28 69.741 69.741 0 0 1 2.84-3.28 2.66 2.66 0 0 1 1.51-0.82 1.72 1.72 0 0 1 1.88 0.82 2.2 2.2 0 0 1 0.19 1.45 3.35 3.35 0 0 1-0.89 1.64c-0.85 0.92 -1.67 1.86-2.47 2.81a3.12 3.12 0 0 0-0.67 1.45 1.63 1.63 0 0 0 0 0.85l0.06 0.13 0.14-0.08 2.26-2.58c0.6-0.67 1.22-1.34 1.82-2a3.6 3.6 0 0 0 0.89-1.76 4.9 4.9 0 0 0 0.17-1.1 3 3 0 0 0-0.43-1.5 0.59 0.59 0 0 1-0.09-0.31V2.63a5.79 5.79 0 0 1 0.21-1.75 1.14 1.14 0 0 1 1.4-0.88 1.64 1.64 0 0 1 1.37 1.4 7.58 7.58 0 0 1 0.2 1.9v4.59a6.45 6.45 0 0 1-0.45 2.34 15.71 15.71 0 0 1-2.05 3.64 20.84 20.84 0 0 1-2 2.39 10.8 10.8 0 0 1-3 2.11 2 2 0 0 0-1.08 1.18 4.26 4.26 0 0 0-0.15 0.69 c0 0.41-0.05 0.81 -0.06 1.22 0 0.12 0 0.16-0.17 0.16 h-7.24v0.03zM16.23 21.65H9c-0.15 0-0.19 0-0.2-0.19 0-0.4 0-0.81-0.06-1.21a2.22 2.22 0 0 0-1.34-1.91 11.08 11.08 0 0 1-3.74-3A25.33 25.33 0 0 1 1.88 13a14 14 0 0 1-1.39-2.61 5.77 5.77 0 0 1-0.43-1.68v-0.78V3.4a8.79 8.79 0 0 1 0.09-1.78A1.81 1.81 0 0 1 1 0.25 1.46 1.46 0 0 1 2.42 0.14 c0.287 0.16 0.497 0.432 0.58 0.75 0.18 0.58 0.268 1.183 0.26 1.79v3.81a0.42 0.42 0 0 1 0 0.2 3.23 3.23 0 0 0-0.47 2 4.06 4.06 0 0 0 1 2.39l2.77 3.22 1.26 1.4a0.41 0.41 0 0 0 0.11 0.07 l0.07-0.12a2.2 2.2 0 0 0-0.18-1.45 4 4 0 0 0-0.88-1.34c-0.78-0.87-1.56-1.74-2.33-2.62A2.66 2.66 0 0 1 4 8.91a2 2 0 0 1 0.2-1.53 1.55 1.55 0 0 1 1.06-0.75 2.38 2.38 0 0 1 2.3 0.82 c1 1.1 2 2.23 2.94 3.35a0.62 0.62 0 0 0 0.5 0.2 6.79 6.79 0 0 1 2.08 0.49 4.3 4.3 0 0 1 2.46 2.43c0.211 0.511 0.35 1.05 0.41 1.6 0.07 0.65 0.17 1.31 0.2 2 0.06 1.36 0.09 2.72 0.13 4.07-0.04-0.04-0.05 0-0.05 0.06 z" fill="#FFF"/>
  <path d="M30.32 5.63l-0.6-0.18h-0.32c-0.1 0-0.14-0.05-0.14-0.16 0-0.81 0-1.61 0.08 -2.42a2.89 2.89 0 0 1 0.32-1.17 0.91 0.91 0 0 1 0.79-0.52 1.2 1.2 0 0 1 0 0.19c0 0.4-0.11 0.8 -0.12 1.2v2.91l-0.01 0.15 zM4.34 5.64V5 2.38c0-0.36-0.08-0.72-0.12-1.08a1.21 1.21 0 0 1 0-0.2c0.301 0 0.58 0.16 0.73 0.42 0.186 0.305 0.305 0.646 0.35 1 0.113 0.872 0.157 1.751 0.13 2.63 0 0.16 0 0.21-0.21 0.23 -0.21 0.02 -0.44 0.11 -0.66 0.16 l-0.22 0.1 z" fill="#FFF"/>
</svg>
