<?xml version="1.0" ?>
<svg xmlns="http://www.w3.org/2000/svg" width="35" height="31" viewBox="0 0 35 31">
  <path d="M22.85 12.66l-0.71 0.07 H22l-1 0.06c-1.75 0.1 -3.5 0.08 -5.25 0.07 h-2.42l-1.21-0.11H12v1.55a0.71 0.71 0 0 1-0.7 0.69 h-2a0.71 0.71 0 0 1-0.71-0.71v-2.3a0.13 0.13 0 0 0-0.06-0.13 1.36 1.36 0 0 1-0.56-0.6 0.88 0.88 0 0 1-0.06-0.27V8.05a2.48 2.48 0 0 1 0.59-1.57 3.82 3.82 0 0 1 0.34-0.36c0.05 0 0.06-0.07 0-0.1A1.35 1.35 0 0 1 8 5.2a1.28 1.28 0 0 1 0-0.82 1.3 1.3 0 0 1 0.65-0.82 1.38 1.38 0 0 1 0.63-0.17h0.84a0.1 0.1 0 0 0 0.12-0.09c0.07-0.23 0.16 -0.47 0.24 -0.7 0.08 -0.23 0.14 -0.44 0.22 -0.65a2.87 2.87 0 0 1 1-1.36 2.94 2.94 0 0 1 1-0.46 2.89 2.89 0 0 1 0.73-0.13h8a2.86 2.86 0 0 1 2.28 1.1 3 3 0 0 1 0.5 0.95 c0.13 0.4 0.28 0.81 0.41 1.22 0 0.11 0.08 0.13 0.18 0.12h0.77a1.36 1.36 0 0 1 0.75 2.49A2.44 2.44 0 0 1 26 6c-0.08 0-0.06 0.06 0 0.1 0.209 0.188 0.388 0.408 0.53 0.65a2.81 2.81 0 0 1 0.37 1.44v2.54a1.11 1.11 0 0 1-0.49 0.93 0.83 0.83 0 0 0-0.15 0.11 0.14 0.14 0 0 0 0 0.11v2.35a0.66 0.66 0 0 1-0.47 0.62 0.85 0.85 0 0 1-0.23 0h-2a0.65 0.65 0 0 1-0.63-0.39 0.79 0.79 0 0 1-0.08-0.3v-1.5zm1.76-7.24c-0.07-0.23-0.13-0.44-0.2-0.65-0.07-0.21-0.19-0.55-0.29-0.83l-0.22-0.7c-0.1-0.28-0.19-0.56-0.29-0.85a3.11 3.11 0 0 0-0.31-0.7 2.17 2.17 0 0 0-1.84-1h-7.92a2.42 2.42 0 0 0-0.92 0.17 2 2 0 0 0-1.18 1.06c-0.15 0.33 -0.25 0.67 -0.37 1l-0.18 0.55 c-0.09 0.28 -0.19 0.56 -0.28 0.84 -0.09 0.28 -0.13 0.38 -0.2 0.58 -0.07 0.2 -0.11 0.34 -0.17 0.53 h14.37zm-14 4.74a1.35 1.35 0 1 0 0-2.7 1.35 1.35 0 0 0 0 2.7zm13.55 0a1.35 1.35 0 1 0 0-2.7 1.35 1.35 0 0 0 0 2.7zm-6.74-1.35h3.76a0.35 0.35 0 0 0 0.29-0.47 0.36 0.36 0 0 0-0.36-0.2H13.7a0.34 0.34 0 0 0-0.34 0.36 0.35 0.35 0 0 0 0.36 0.31 h3.7zm0 0.68h-3.07a0.34 0.34 0 0 0-0.28 0.47 0.35 0.35 0 0 0 0.35 0.2 h6.07a0.34 0.34 0 0 0 0.33-0.34 0.36 0.36 0 0 0-0.35-0.33h-3.05z" fill="#FFF"/>
  <path d="M24.61 5.42H10.24c0.06-0.19 0.11 -0.36 0.17 -0.53 0.06 -0.17 0.13 -0.39 0.2 -0.58 0.07 -0.19 0.19 -0.56 0.28 -0.84l0.18-0.55c0.12-0.34 0.22 -0.68 0.37 -1A2 2 0 0 1 12.62 0.85 a2.42 2.42 0 0 1 0.92-0.17h7.92a2.17 2.17 0 0 1 1.84 1c0.132 0.22 0.236 0.455 0.31 0.7 0.1 0.29 0.19 0.57 0.29 0.85 l0.22 0.7 c0.1 0.28 0.2 0.55 0.29 0.83 0.09 0.28 0.13 0.43 0.2 0.66 zM10.65 10.16a1.35 1.35 0 1 1 0-2.7 1.35 1.35 0 0 1 0 2.7zM24.2 10.16a1.35 1.35 0 1 1 1.36-1.34 1.34 1.34 0 0 1-1.36 1.34zM17.42 8.81h-3.7a0.35 0.35 0 0 1-0.36-0.31 0.34 0.34 0 0 1 0.34-0.36h7.41a0.36 0.36 0 0 1 0.36 0.2 0.35 0.35 0 0 1-0.29 0.47 h-3.76zM17.43 9.49h3a0.36 0.36 0 0 1 0.35 0.33 0.34 0.34 0 0 1-0.33 0.34 h-6.03a0.35 0.35 0 0 1-0.35-0.2 0.34 0.34 0 0 1 0.28-0.47h3.08z" fill="#474646"/>
  <path d="M18.46 30.38v-2.32-0.64c0-0.63 0-1.25 0.09 -1.88a16.66 16.66 0 0 1 0.27-1.84A4.76 4.76 0 0 1 20 21.31 4.64 4.64 0 0 1 22 20a7.1 7.1 0 0 1 1.71-0.34 0.78 0.78 0 0 0 0.54-0.28c0.93-1.09 1.88-2.18 2.84-3.25a2.66 2.66 0 0 1 1.51-0.82 1.74 1.74 0 0 1 1.88 0.83 c0.228 0.447 0.295 0.96 0.19 1.45a3.32 3.32 0 0 1-0.89 1.63c-0.85 0.92 -1.67 1.87-2.47 2.82a3.07 3.07 0 0 0-0.67 1.45 1.6 1.6 0 0 0 0 0.84l0.06 0.13 a0.39 0.39 0 0 0 0.14-0.08c0.75-0.85 1.5-1.72 2.26-2.57 0.6 -0.68 1.22-1.34 1.82-2a3.53 3.53 0 0 0 0.89-1.75c0.1-0.346 0.165 -0.7 0.19 -1.06a2.93 2.93 0 0 0-0.43-1.49 0.59 0.59 0 0 1-0.09-0.32v-3.81a5.77 5.77 0 0 1 0.25-1.74 1.14 1.14 0 0 1 1.4-0.84 1.64 1.64 0 0 1 1.37 1.39 7.71 7.71 0 0 1 0.2 1.91v4.58a6.5 6.5 0 0 1-0.49 2.32 15.91 15.91 0 0 1-2.05 3.64 20.84 20.84 0 0 1-2 2.39 11 11 0 0 1-3 2.11 2 2 0 0 0-1.08 1.18 4 4 0 0 0-0.15 0.69 c0 0.4-0.05 0.81 -0.06 1.21 0 0.13 0 0.17-0.17 0.17 h-7.24v-0.01zM16.23 30.39H9c-0.15 0-0.19 0-0.2-0.19 0-0.41 0-0.81-0.06-1.22a2.23 2.23 0 0 0-1.34-1.91 11.17 11.17 0 0 1-3.74-3 24.2 24.2 0 0 1-1.77-2.36 13.7 13.7 0 0 1-1.4-2.59 5.69 5.69 0 0 1-0.43-1.68v-0.77-4.54a8.86 8.86 0 0 1 0.15-1.78A1.81 1.81 0 0 1 1 9a1.51 1.51 0 0 1 1.43-0.11c0.277 0.16 0.481 0.422 0.57 0.73 a5.77 5.77 0 0 1 0.26 1.8v3.81a0.49 0.49 0 0 1 0 0.2 3.23 3.23 0 0 0-0.47 2 4.06 4.06 0 0 0 1 2.39L6.56 23l1.26 1.4a0.39 0.39 0 0 0 0.11 0.06 l0.07-0.07a2.23 2.23 0 0 0-0.18-1.46 4 4 0 0 0-0.88-1.33c-0.78-0.88-1.56-1.75-2.33-2.63A2.66 2.66 0 0 1 4 17.64a2 2 0 0 1 0.22-1.52 1.52 1.52 0 0 1 1.06-0.75 2.38 2.38 0 0 1 2.3 0.82 c1 1.09 2 2.22 2.94 3.35a0.61 0.61 0 0 0 0.46 0.15 7.42 7.42 0 0 1 2.08 0.49 4.3 4.3 0 0 1 2.46 2.43 6 6 0 0 1 0.41 1.61c0.07 0.65 0.17 1.3 0.2 2 0.06 1.35 0.09 2.71 0.13 4.07-0.02 0-0.03 0.04 -0.03 0.1 z" fill="#FFF"/>
  <path d="M30.32 14.37l-0.6-0.18a1.64 1.64 0 0 0-0.32 0c-0.1 0-0.14-0.06-0.14-0.17 0-0.8 0-1.61 0.08 -2.41a2.84 2.84 0 0 1 0.32-1.17 0.92 0.92 0 0 1 0.79-0.53 1.2 1.2 0 0 1 0 0.19c0 0.4-0.11 0.8 -0.12 1.21v2.91l-0.01 0.15 zM4.34 14.38v-0.61-2.62c0-0.36-0.08-0.72-0.12-1.09a1.15 1.15 0 0 1 0-0.19 0.83 0.83 0 0 1 0.73 0.41 c0.184 0.306 0.303 0.646 0.35 1a16.5 16.5 0 0 1 0.13 2.63c0 0.16 0 0.21-0.21 0.23 a5.28 5.28 0 0 0-0.66 0.16 1.21 1.21 0 0 0-0.22 0.08 z" fill="#FFF"/>
</svg>
