<?xml version="1.0" ?>
<svg xmlns="http://www.w3.org/2000/svg" width="32" height="32" viewBox="0 0 32 32">
  <path d="M14.5 29.83c0.144 0.54 0.605 0.937 1.16 1a2.32 2.32 0 0 0 1.78-0.34 2.68 2.68 0 0 0 1-1.43 2.74 2.74 0 0 0 0.17-0.74 2.21 2.21 0 0 0-0.06-0.57c-0.05-0.29-0.11-0.58-0.16-0.87-0.05-0.29-0.08-0.33-0.11-0.5-0.03-0.17-0.07-0.14-0.17-0.13H0.19c-0.14 0-0.2 0-0.19-0.19 0.01 -0.19 0-0.5 0-0.75s0-0.17 0.17 -0.17h17.69c0.23 0 0.24 0 0.21-0.24s-0.13-0.68-0.19-1c-0.06-0.32-0.13-0.22-0.36-0.18a5.34 5.34 0 0 1-1.74 0.06 c-0.36-0.06-0.72-0.11-1.07-0.19a4.93 4.93 0 0 1-1.71-0.81 5.49 5.49 0 0 1-1.65-1.93 0.23 0.23 0 0 0-0.23-0.13H0.18c-0.14 0-0.18 0-0.18-0.18v-0.81c0-0.27 0.05 -0.17 0.17 -0.17h10.62c0-0.21-0.08-0.4-0.11-0.6a4.17 4.17 0 0 1-0.1-0.6v-1.54a4.66 4.66 0 0 1 0.13-0.82c0.06-0.23 0.13 -0.47 0.21 -0.69 0.08 -0.22 0-0.17-0.09-0.17H0.14C0 15.13 0 15.09 0 15v-0.88C0 14 0.08 14 0.17 14h11.28a0.29 0.29 0 0 0 0.2-0.09 16.19 16.19 0 0 1 2.19-2.62c0.43-0.44 0.85 -0.9 1.28-1.34a0.21 0.21 0 0 0 0-0.28c0-0.11-0.12-0.11-0.21-0.11H0.2c-0.2 0-0.2 0-0.2-0.21v-0.73c0-0.2 0-0.21 0.22 -0.21h14.39c0.13 0 0.18 0 0.17-0.18 0-0.4-0.07-0.81 0-1.21 0-0.69 0.07 -1.37 0.12 -2.06 0-0.26 0.07 -0.53 0.11 -0.79 0.04 -0.26 0-0.19-0.17-0.19H0.23C0 4 0 4 0 3.76V3c0-0.26 0-0.18 0.18 -0.18H15a0.21 0.21 0 0 0 0.25-0.18A6 6 0 0 1 16 0.93c0.223-0.372 0.55 -0.67 0.94 -0.86a0.62 0.62 0 0 1 0.72 0.1 2.4 2.4 0 0 1 0.67 1.05c0.17 0.49 0.29 1 0.44 1.5 0 0 0.1 0.1 0.15 0.1 h12.2c0.12 0 0.16 0 0.15 0.16 v0.82c0 0.14-0.05 0.17 -0.18 0.17 H19.11c-0.13 0-0.17 0.05 -0.17 0.18 v1c0 0.52-0.09 1-0.18 1.56s-0.23 1-0.36 1.52c0 0.13 0 0.16 0.14 0.16H31c0.23 0 0.23 0 0.23 0.22 v0.74c0 0.25 0 0.17-0.17 0.17 h-13a0.2 0.2 0 0 0-0.23 0.13 8.14 8.14 0 0 1-1.5 2.1c-0.11 0.11 -0.07 0.24 0 0.37 0 0.29 0.1 0.58 0.16 0.88l0.18 0.87 c0 0.11 0.09 0.1 0.16 0.1h14.3c0.14 0 0.2 0 0.19 0.18 -0.01 0.18 0 0.51 0 0.77s-0.05 0.19 -0.19 0.18 H17.07a0.34 0.34 0 0 0-0.14 0 0.66 0.66 0 0 0-0.13 0.08 0.32 0.32 0 0 0 0.16 0A3.27 3.27 0 0 1 20.59 17a5.31 5.31 0 0 1 0.54 1.6c0.04 0.261 0.06 0.526 0.06 0.79 0 0.14 0 0.19 0.2 0.19h9.69c0.14 0 0.2 0 0.19 0.19 -0.01 0.19 0 0.53 0 0.8s0 0.17-0.17 0.17 h-9.91c-0.1 0-0.16 0-0.19 0.13 a4.26 4.26 0 0 1-0.71 1.45 3.15 3.15 0 0 1-1.67 1.17c-0.17 0.06 -0.2 0.12 -0.16 0.34 0.08 0.41 0.17 0.83 0.24 1.24 0 0.11 0.09 0.12 0.17 0.12H31c0.37 0 0.32 0 0.32 0.32 v0.61c0 0.2 0 0.18-0.17 0.18 h-12c-0.15 0-0.17 0-0.14 0.18 0.08 0.39 0.16 0.78 0.23 1.18 0 0.21 0.06 0.42 0.07 0.63-0.01 0.349 -0.1 0.69 -0.26 1a3.19 3.19 0 0 1-0.65 1.09 2.67 2.67 0 0 1-1.44 0.72 4 4 0 0 1-0.91 0.11 3.76 3.76 0 0 1-2.3-0.78 2.06 2.06 0 0 1-0.77-1.83 2 2 0 0 1 0.26-0.92 1.47 1.47 0 0 1 1.06-0.76c0.406-0.09 0.83 0.013 1.15 0.28 a1.3 1.3 0 0 1 0.49 1 1.53 1.53 0 0 1-0.3 1.13 1.33 1.33 0 0 1-0.88 0.53 l-0.26-0.03zm-1.71-10.27h1c0.23 0 0.24 0 0.22-0.23a4 4 0 0 1 0.43-2.26 2.77 2.77 0 0 1 1.74-1.5s0.06-0.08 0.06 -0.12v-0.12c0-0.04-0.09-0.2-0.23-0.2H12.94a0.31 0.31 0 0 0-0.19 0.11 6.86 6.86 0 0 0-0.81 1.48 5.79 5.79 0 0 0-0.38 1.54v1.1c0 0.14 0.06 0.18 0.19 0.18l1.04 0.02 zm-0.89 1.17v0.14a4.29 4.29 0 0 0 1.42 1.71 4.92 4.92 0 0 0 2.9 0.94 c0.47 0.028 0.94-0.009 1.4-0.11 0.11 0 0.11-0.09 0.09 -0.17-0.07-0.36-0.15-0.73-0.22-1.1-0.07-0.37-0.17-0.85-0.24-1.28 0-0.12-0.07-0.14-0.18-0.14H15.1l0.42 0.66 a0.26 0.26 0 0 1-0.19 0c-0.22-0.17-0.44-0.33-0.64-0.51a0.38 0.38 0 0 0-0.3-0.13H11.9v-0.01zM17.15 4H16c-0.06 0-0.15 0-0.16 0.09 -0.11 0.4 -0.22 0.81 -0.3 1.22-0.08 0.41 -0.09 0.72 -0.15 1.08a5.35 5.35 0 0 0 0.09 1.87 0.19 0.19 0 0 0 0.21 0.17 h0.62a0.41 0.41 0 0 0 0.33-0.15 6.72 6.72 0 0 0 1.7-2.91c0.09-0.39 0.11 -0.79 0.16 -1.18 0-0.14 0-0.2-0.2-0.2-0.39 0.01 -0.77 0.01 -1.15 0.01 zm2.91 15.57a3.05 3.05 0 0 0-1.24-2.18 2.48 2.48 0 0 0-1.63-0.39c0 0.25 0.07 0.47 0.11 0.69 0.12 0.59 0.24 1.17 0.35 1.77 0 0.13 0.08 0.16 0.2 0.15h2.21v-0.04zm-3.47-2.44h-0.08a1.52 1.52 0 0 0-0.78 0.39 2.53 2.53 0 0 0-0.83 2s0.07 0.09 0.11 0.09 h1.89c0.1 0 0.15 0 0.13-0.14-0.02-0.14-0.09-0.47-0.14-0.71-0.05-0.24-0.11-0.56-0.16-0.83-0.05-0.27-0.09-0.56-0.14-0.82v0.02zm1.8 6a2.81 2.81 0 0 0 1.66-2.41H18c-0.15 0-0.13 0.09 -0.11 0.18 0.08 0.41 0.15 0.81 0.23 1.21 0.08 0.4 0.19 0.68 0.27 1.03v-0.01zM13.82 14h2.06c0.13 0 0.12-0.08 0.1 -0.17-0.06-0.3-0.11-0.6-0.17-0.9-0.06-0.3-0.09-0.39-0.14-0.61A14.53 14.53 0 0 0 13.82 14zm2.47-11.19h1.88a1.84 1.84 0 0 0-0.65-0.91 0.37 0.37 0 0 0-0.37-0.07c-0.45 0.17 -0.63 0.57 -0.86 0.98 z" fill="#FFF"/>
</svg>
