<?xml version="1.0" ?>
<svg xmlns="http://www.w3.org/2000/svg" width="44" height="29" viewBox="0 0 44 29">
  <path d="M2.11 9.29c0 0.68-0.1 1.33-0.09 2a3.57 3.57 0 0 0 0.55 2 2.22 2.22 0 0 0 1.76 1 7.07 7.07 0 0 0 3-0.47c0.89-0.33 1.77-0.7 2.68-0.95a16 16 0 0 1 2.57-0.48c3.26-0.35 6.53-0.14 9.8-0.18h5.53a27.34 27.34 0 0 1 3.84 0.28 c1.283 0.2 2.536 0.56 3.73 1.07a8.1 8.1 0 0 0 3.49 0.76 2.39 2.39 0 0 0 2.33-1.91 7.06 7.06 0 0 0 0-2.93V9.4v-0.06h1.92c0.15 0 0.22 0 0.21 0.21 v3.76a2.84 2.84 0 0 1-0.48 1.44c-0.45 0.71 -0.93 1.4-1.39 2.09l-0.18 0.3 c-0.23 0.42 -0.2 0.52 0.13 0.84 0.394 0.42 0.612 0.974 0.61 1.55a7.2 7.2 0 0 1-0.57 3.07 6.5 6.5 0 0 0-0.34 3c0.09 0.73 0.09 1.47 0.11 2.21a1.21 1.21 0 0 1-0.09 0.49 0.33 0.33 0 0 1-0.21 0.17 c-0.43 0.05 -0.44 0-0.51-0.38-0.11-0.69-0.19-1.38-0.31-2.07-0.15-0.92-0.3-1.85-0.49-2.76a7.6 7.6 0 0 0-0.47-1.54A3.09 3.09 0 0 0 37.32 20a1.33 1.33 0 0 0-0.34 0H7.28a2.79 2.79 0 0 0-2.12 1 3.55 3.55 0 0 0-0.88 1.8c-0.2 1-0.4 2.06-0.58 3.09-0.14 0.82 -0.25 1.64-0.37 2.46 0 0.15-0.07 0.2 -0.21 0.2 h-0.68c-0.22 0-0.24-0.05-0.26-0.19a10.2 10.2 0 0 1-0.1-1.36c0-0.55 0.1 -1.1 0.17 -1.65a6.11 6.11 0 0 0-0.37-2.84 6.9 6.9 0 0 1-0.53-2.77 3.07 3.07 0 0 1 0.24-1.34 2 2 0 0 1 0.41-0.55c0.21-0.21 0.28 -0.34 0.13 -0.59-0.24-0.42-0.53-0.82-0.78-1.24C1 15.4 0.57 14.8 0.25 14.15a2.59 2.59 0 0 1-0.25-1.1V9.53c0-0.2 0.06 -0.27 0.26 -0.26H2l0.11 0.02 z" fill="#FFF"/>
  <path d="M38.69 7.63A3.24 3.24 0 0 0 35 11.51l-0.61-0.08c-1.14-0.13-2.28-0.3-3.43-0.4-1.15-0.1-2.58-0.18-3.87-0.22-1.63-0.05-3.26-0.05-4.9-0.06-0.2 0-0.27-0.05-0.27-0.27V2.14A1.91 1.91 0 0 1 23.73 0.08 a7.26 7.26 0 0 1 2.86 0.15 c1.14 0.26 2.26 0.6 3.39 0.86 0.79 0.19 1.59 0.35 2.4 0.47 1.29 0.2 2.58 0.35 3.87 0.55 a3.14 3.14 0 0 1 1.52 0.57 2.3 2.3 0 0 1 0.92 1.85v3.1zM8 11.51a3.24 3.24 0 0 0-3.69-3.88v-0.28-2.8a2.29 2.29 0 0 1 1.75-2.27c0.88-0.2 1.77-0.31 2.65-0.45 1.08-0.18 2.18-0.29 3.26-0.52 1.08-0.23 2.21-0.58 3.31-0.85A11.34 11.34 0 0 1 18.65 0a4.8 4.8 0 0 1 1.2 0.22 1.66 1.66 0 0 1 1.2 1.47c0.02 0.246 0.02 0.494 0 0.74v8c0 0.22-0.06 0.28 -0.28 0.28 -2.53 0-5.05 0-7.57 0.19 -1.54 0.12 -3.07 0.33 -4.61 0.49 l-0.59 0.12 z" fill="#FFF"/>
  <path d="M35.82 11.11a2.45 2.45 0 1 1 2.44 2.44 2.46 2.46 0 0 1-2.44-2.44zM4.71 13.55a2.45 2.45 0 1 1 2.46-2.39 2.46 2.46 0 0 1-2.46 2.39z" fill="#FFF"/>
</svg>
