<?xml version="1.0" ?>
<svg xmlns="http://www.w3.org/2000/svg" width="36" height="36" viewBox="0 0 36 36">
  <path d="M30.89 28.51v5.18c0 0.32 0 0.33 0.33 0.33h0.64c0.2 0 0.25-0.05 0.25 -0.25v-4.62a39.07 39.07 0 0 1 0.14-4.84 18.53 18.53 0 0 1 1.94-6.42c0.35-0.7 0.68 -1.42 1-2.14a2.84 2.84 0 0 0 0.19-1.84 4.73 4.73 0 0 0-0.76-1.46 40.74 40.74 0 0 0-2.68-3.19c-0.53-0.59-1.09-1.17-1.63-1.76a2.37 2.37 0 0 1-0.65-1.14 2.33 2.33 0 0 1 0.12-1.08c0.17-0.66 0.31 -1.33 0.48 -2a9.7 9.7 0 0 0 0.16-2.15A1.18 1.18 0 0 0 29.4 0a3.05 3.05 0 0 0-1.16 0.1 c-0.85 0.21 -1.71 0.4 -2.56 0.62 -0.85 0.22 -1.64 0.44 -2.45 0.69 -0.81 0.25 -1.82 0.56 -2.71 0.88 a30.19 30.19 0 0 0-6.07 2.76 11.13 11.13 0 0 0-2 1.6 4.76 4.76 0 0 0-0.55 0.78 c-0.11 0.18 -0.11 0.19 -0.26 0a3.15 3.15 0 0 0-1.11-0.94 1.45 1.45 0 0 0-2 0.66 1.84 1.84 0 0 0 0 1.42 3.83 3.83 0 0 0 1.94 2.15c0.2 0.11 0.18 0.12 0 0.29a10.06 10.06 0 0 0-0.74 1 15.43 15.43 0 0 0-1.42 2.81 6.82 6.82 0 0 1-1.07 1.87 2.68 2.68 0 0 1-1.8 1 1.2 1.2 0 0 0-0.27 0.08 0.52 0.52 0 0 0-0.32 0.54 0.61 0.61 0 0 0 0.59 0.5 3.11 3.11 0 0 0 1.46-0.38 4.63 4.63 0 0 0 2-2.09c0.42-0.83 0.78 -1.69 1.22-2.52 0.33 -0.62 0.73 -1.21 1.1-1.82 0.05 -0.08 0.1 -0.19 0.23 -0.14 0.13 0.05 0.16 0.14 0.16 0.26v4.16c0 1.58 0 3.15-0.09 4.73a17.9 17.9 0 0 1-0.34 3c-0.13 0.69 -0.27 1.37-0.43 2.05a3.43 3.43 0 0 1-1.52 2.07 8.9 8.9 0 0 1-1.84 0.87 L3.2 30.63a11.23 11.23 0 0 0-2 0.9c-0.26 0.17 -0.52 0.34 -0.76 0.53 a1.75 1.75 0 0 0-0.33 0.39 0.53 0.53 0 0 0 0.14 0.78 c0.23 0.153 0.483 0.268 0.75 0.34 a14 14 0 0 0 2.57 0.54 l2.2 0.26 2.75 0.31 2.28 0.26 2.31 0.25 2.6 0.25 a9.84 9.84 0 0 0 1.88 0 4.93 4.93 0 0 0 3.87-2.39 12.67 12.67 0 0 0 1-2.11 49.4 49.4 0 0 1 3.41-7 15.41 15.41 0 0 1 2.4-3.16c0.25-0.23 0.5 -0.47 0.77 -0.69a1.45 1.45 0 0 1 0.47-0.26 0.67 0.67 0 0 1 0.84 0.53 c0.12 0.42 0.21 0.85 0.29 1.28a35.72 35.72 0 0 1 0.27 5.37v1.46l-0.02 0.04 zM11.6 9.9c0 0.21 0 0.24-0.2 0.19 A3.37 3.37 0 0 1 9.83 8.9a1.73 1.73 0 0 1-0.34-0.9c0-0.32 0.1 -0.41 0.4 -0.31 0.248 0.089 0.461 0.253 0.61 0.47 0.34 0.5 0.67 1 1 1.52a1.7 1.7 0 0 1 0.1 0.22 zm1.75 3.65a0.71 0.71 0 0 1 1.41 0 0.69 0.69 0 0 1-0.71 0.65 0.68 0.68 0 0 1-0.7-0.65zm0.65 5.82a0.66 0.66 0 1 1-0.72 0.66 0.7 0.7 0 0 1 0.72-0.66zM13.75 11a0.66 0.66 0 1 1 0.7-0.65 0.67 0.67 0 0 1-0.7 0.65 zm0.31 6.47a0.65 0.65 0 1 1 0-1.3 0.7 0.7 0 0 1 0.71 0.65 0.68 0.68 0 0 1-0.71 0.62 v0.03zm-0.4 6.48a0.76 0.76 0 0 1-0.72-0.68 0.69 0.69 0 0 1 0.71-0.63 0.66 0.66 0 1 1 0 1.31h0.01z" fill="#FFF"/>
</svg>
