<?xml version="1.0" ?>
<svg xmlns="http://www.w3.org/2000/svg" width="44" height="32" viewBox="0 0 44 32">
  <path d="M21.48 20h-8.29c-0.32 0-0.33 0-0.38-0.3-0.09-0.53-0.15-1.07-0.25-1.6s-0.26-1.15-0.41-1.72a13.87 13.87 0 0 0-1-2.61 10.94 10.94 0 0 0-4-4.63c-0.15-0.14-0.31-0.28-0.5-0.4s-0.1-0.13 0-0.23a14 14 0 0 1 2.82-3.89 15.64 15.64 0 0 1 4.61-3.09 19.72 19.72 0 0 1 2.31-0.82C17 0.52 17.68 0.4 18.33 0.27 A18 18 0 0 1 22.7 0a13.2 13.2 0 0 1 1.78 0.23 c0.61 0.1 1.22 0.22 1.82 0.38 a17.23 17.23 0 0 1 2.9 1.11 16.31 16.31 0 0 1 3.41 2.16 14.33 14.33 0 0 1 3.74 4.64c0.07 0.14 0 0.19-0.07 0.24 a9.8 9.8 0 0 0-2.95 2.54 12 12 0 0 0-1.8 3 26.22 26.22 0 0 0-0.86 2.51c-0.18 0.62 -0.26 1.27-0.38 1.91-0.07 0.35 -0.12 0.71 -0.16 1.07 0 0.14-0.1 0.15 -0.21 0.16 h-8.44V20z" fill="#FFF"/>
  <path d="M21.75 27.6H11.24c-0.34 0-0.34 0-0.34 0.33 v2.63a1.39 1.39 0 0 1-1.66 1.37 1.3 1.3 0 0 1-1-1.17v-2.81c0-0.34 0-0.32-0.35-0.37a2.94 2.94 0 0 1-1.77-1 2.91 2.91 0 0 1-0.78-2.27c0.07-1.08 0-2.16 0-3.24a12.27 12.27 0 0 0-0.24-1.78 9.67 9.67 0 0 0-0.71-2.23 0.22 0.22 0 0 0-0.29-0.06 3.55 3.55 0 0 1-3.66-1.95 3.41 3.41 0 0 1-0.34-2.49 3.62 3.62 0 0 1 2.29-2.69 3.63 3.63 0 0 1 2-0.18 3.8 3.8 0 0 1 1 0.5 8.73 8.73 0 0 1 2.73 2.28 10.51 10.51 0 0 1 1.66 2.91c0.26 0.69 0.49 1.4 0.68 2.11 0.134 0.523 0.23 1.054 0.29 1.59 0.11 0.86 0.18 1.72 0.26 2.59 0 0.17 0.09 0.2 0.24 0.2h20.36c0.5 0 0.41 0 0.45-0.45 0.06 -0.78 0.14 -1.57 0.24 -2.35a14.07 14.07 0 0 1 0.29-1.57 14.24 14.24 0 0 1 1.35-3.5 9.53 9.53 0 0 1 2.58-3.06 14.1 14.1 0 0 1 1.35-0.83c0.23-0.14 0.48 -0.26 0.72 -0.38a0.55 0.55 0 0 1 0.18-0.05 4.05 4.05 0 0 1 4.43 2.56 2.94 2.94 0 0 1 0.24 1.76 3.71 3.71 0 0 1-1.17 2 3.54 3.54 0 0 1-1.73 0.87 5.19 5.19 0 0 1-1.1 0c-0.14 0-0.23 0-0.29 0.16 -0.19 0.55 -0.42 1.09-0.57 1.64-0.14 0.56 -0.25 1.128-0.33 1.7a6.52 6.52 0 0 0-0.09 1c0 0.91 0 1.81 0.05 2.72a3.08 3.08 0 0 1-2 3.22 2.52 2.52 0 0 1-0.65 0.16 c-0.18 0-0.23 0.07 -0.23 0.25 v2.61a1.42 1.42 0 0 1-1 1.47 1.33 1.33 0 0 1-1.65-0.8 1.92 1.92 0 0 1-0.09-0.62v-2.55c0-0.23-0.07-0.28-0.29-0.28l-10.55 0.05 z" fill="#FFF"/>
</svg>
