<?xml version="1.0" ?>
<svg xmlns="http://www.w3.org/2000/svg" width="35" height="33" viewBox="0 0 35 33">
  <path d="M18.07 22.09v5.24a2.64 2.64 0 0 1-1.55 2.47 2.73 2.73 0 0 1-3.81-1.66 4.26 4.26 0 0 1-0.13-0.89 9.39 9.39 0 0 1 0-1c0-0.21-0.07-0.27-0.26-0.25-0.19 0.02 -0.29 0-0.43 0s-0.2-0.05-0.18-0.2l0.18-1.29 0.36 -2.5c0.09-0.65 0.16 -1.29 0.26 -1.94a0.21 0.21 0 0 1 0.14-0.14h1.26c0.11 0 0.15 0 0.16 0.15 0.213 1.607 0.43 3.21 0.65 4.81 0 0.28 0.08 0.56 0.12 0.84 0.04 0.28 0 0.27-0.22 0.27 h-0.47c-0.11 0-0.17 0-0.17 0.16 v1.36a1.42 1.42 0 0 0 1.41 1.31 1.4 1.4 0 0 0 1.45-1.24v-2.05-8.4a3.52 3.52 0 0 1 0.74-2.28 3.32 3.32 0 0 1 2.63-1.32h3.73c0.2 0 0.26-0.06 0.26 -0.26 0-0.55 0-0.55 0.55 -0.55h8.16c0.26 0 0.26 0 0.26 0.26 v2.73c0 0.2-0.06 0.26 -0.26 0.25 h-2.24c-0.18 0-0.25 0-0.25 0.24 v3.52a0.6 0.6 0 0 0 0.12 0.36 c0.59 0.7 1.17 1.41 1.8 2.07A7 7 0 0 1 34.09 25a5 5 0 0 1 0.13 2.32 5.54 5.54 0 0 1-2.71 4 5.32 5.32 0 0 1-3.87 0.69 5.59 5.59 0 0 1-4.39-3.68 5.14 5.14 0 0 1 0.65-5A15.45 15.45 0 0 1 25 22c0.56-0.65 1.12-1.29 1.67-1.95a0.63 0.63 0 0 0 0.13-0.37v-3.52c0-0.19 0-0.25-0.24-0.25h-2.18c-0.19 0-0.26-0.06-0.25-0.25 0.01 -0.19 0-0.46 0-0.69 0-0.23 0-0.21-0.19-0.21h-3.77a2.17 2.17 0 0 0-2.1 2.24v5.12-0.03zM30.42 7.36v3.91c0 0.19 0 0.26-0.25 0.26 h-3.11c-0.27 0-0.27 0-0.27-0.28v-7.7c0-0.27 0-0.27-0.27-0.27h-1.23c-0.15 0-0.19-0.05-0.19-0.2V1.2c0-0.17 0.06 -0.21 0.22 -0.21h6.56c0.18 0 0.26 0.05 0.26 0.25 v1.74c0 0.16-0.05 0.22 -0.22 0.22 h-1.29c-0.17 0-0.21 0.06 -0.21 0.22 0.01 1.31 0 2.58 0 3.94z" fill="#FFF"/>
  <path d="M16.23 10.67a14.81 14.81 0 0 1-1.1 1.72 17.4 17.4 0 0 1-1.52 1.78 16.39 16.39 0 0 1-3.88 3 10.66 10.66 0 0 1-3.49 1.23 6.77 6.77 0 0 1-2.11 0 5.34 5.34 0 0 1-1.31-0.4l-0.31-0.13a0.57 0.57 0 0 1-0.29-0.72c0.267-0.65 0.571 -1.284 0.91 -1.9 0.21 -0.36 0.41 -0.72 0.64 -1.07 0.23 -0.35 0.41 -0.58 0.63 -0.86 0.22 -0.28 0.48 -0.6 0.74 -0.88a12.67 12.67 0 0 1 1.68-1.52 25.14 25.14 0 0 1 2.9-1.83 26.85 26.85 0 0 0 2.36-1.43 10.06 10.06 0 0 0 1.47-1.25 8.32 8.32 0 0 0 1.64-2.52c0.12-0.29 0.22 -0.58 0.33 -0.87a1.45 1.45 0 0 1 0.14-0.27 0.2 0.2 0 0 1 0.35 0c0.223 0.233 0.43 0.48 0.62 0.74 a5 5 0 0 1 0.84 3.33 7.92 7.92 0 0 1-0.35 1.81 11.57 11.57 0 0 1-0.89 2.04z" fill="#FCFCFC"/>
  <path d="M14.92 2a0.82 0.82 0 0 1 0.14 0.09 0.22 0.22 0 0 1 0 0.3 3.64 3.64 0 0 1-0.25 0.36 A12.08 12.08 0 0 1 11 6c-0.78 0.43 -1.57 0.82 -2.36 1.23A17.87 17.87 0 0 0 6 8.8a9 9 0 0 0-1.49 1.38A9.29 9.29 0 0 0 3 12.73c-0.2 0.49 -0.38 1-0.54 1.51a17.74 17.74 0 0 0-0.56 2.52 2.79 2.79 0 0 1-0.08 0.35 c0 0.17-0.15 0.2 -0.28 0.08 a7.31 7.31 0 0 1-0.54-0.63 4.7 4.7 0 0 1-1-2.65 7.05 7.05 0 0 1 0.25-2.26 11 11 0 0 1 1.31-3c0.28-0.45 0.57 -0.89 0.89 -1.32 0.32 -0.43 0.76 -1 1.18-1.41a16.24 16.24 0 0 1 2.88-2.44 12.48 12.48 0 0 1 3.69-1.76 7.72 7.72 0 0 1 2.74-0.26 5.8 5.8 0 0 1 1.74 0.42 h0.13l0.12 0.06 -0.01 0.06 z" fill="#FCFCFC"/>
</svg>
