<?xml version="1.0" ?>
<svg xmlns="http://www.w3.org/2000/svg" width="28" height="36" viewBox="0 0 28 36">
  <path d="M11.75 17.52h9.79c0.38-0.02 0.76 -0.02 1.14 0 0.44 0.05 0.87 0.15 1.31 0.22 a5.77 5.77 0 0 1 1.62 0.56 4 4 0 0 1 1.81 1.75 3.63 3.63 0 0 1 0.44 1.77c0.01 0.462 -0.02 0.923 -0.09 1.38a6 6 0 0 1-2.17 3.71 7.57 7.57 0 0 1-2.25 1.22 15.72 15.72 0 0 1-1.67 0.43 c-0.3 0.06 -0.6 0.09 -0.91 0.15 a0.3 0.3 0 0 0-0.17 0.13 c-0.33 0.43 -0.63 0.88 -1 1.29a7.46 7.46 0 0 1-1.77 1.5c-0.34 0.22 -0.68 0.43 -1 0.62a0.9 0.9 0 0 1-0.39 0.1 H5.7a1.25 1.25 0 0 1-0.64-0.25A9.82 9.82 0 0 1 3 30.63a8.26 8.26 0 0 1-1.92-2.72 5.39 5.39 0 0 1-0.49-2.25V17.8c0-0.28 0-0.28 0.29 -0.28h10.87zm9.83 9c0.07 0.005 0.14 0.005 0.21 0a8.85 8.85 0 0 0 1.74-0.64 4.15 4.15 0 0 0 1.77-1.68 4.34 4.34 0 0 0 0.5-2.43 1.74 1.74 0 0 0-0.7-1.34 4 4 0 0 0-1.87-0.74c-0.46-0.08-0.92-0.1-1.38-0.14-0.24 0-0.27 0-0.27 0.24 v6.73zM11.08 35.47H0.86a0.86 0.86 0 0 1-0.85-0.9 0.84 0.84 0 0 1 0.9-0.76h20.33a0.9 0.9 0 0 1 0.87 0.57 0.82 0.82 0 0 1-0.73 1.08h-10.3v0.01zM12.24 0l0.2 0.07 a9 9 0 0 1 2.11 1.35 7.05 7.05 0 0 1 1.65 2.07c0.256 0.5 0.444 1.03 0.56 1.58 0.108 0.5 0.162 1.009 0.16 1.52A4.18 4.18 0 0 1 15.37 10c-0.52 0.44 -1 0.92-1.5 1.41a4 4 0 0 0-0.87 1.5 5.85 5.85 0 0 0-0.32 1.94 1.21 1.21 0 0 1 0 0.19 0.67 0.67 0 0 1-0.11-0.18c-0.13-0.5-0.29-1-0.37-1.49a8.43 8.43 0 0 1 0-1.42 5.29 5.29 0 0 1 0.08-0.8 4.65 4.65 0 0 1 0.45-1.41c0.29-0.55 0.63 -1.07 0.92 -1.61a4.84 4.84 0 0 0 0.63-2c0.045-0.62 0.045 -1.24 0-1.86a6.29 6.29 0 0 0-0.35-1.59A6.47 6.47 0 0 0 12.71 0.54 c-0.15-0.17-0.33-0.32-0.5-0.48l0.03-0.06zM9.53 15.63c-0.31-0.42-0.63-0.84-0.92-1.28a5 5 0 0 1-0.73-1.66 3.49 3.49 0 0 1 0-2.12c0.19-0.51 0.45 -1 0.68-1.49a9.17 9.17 0 0 0 0.71-1.88c0.2-0.831 0.25 -1.691 0.15 -2.54a3.47 3.47 0 0 0-1-2.2c-0.16-0.16-0.35-0.29-0.52-0.46 0.19 0.046 0.377 0.103 0.56 0.17 0.444 0.202 0.875 0.432 1.29 0.69 a4.58 4.58 0 0 1 1.76 2.19c0.28 0.73 0.41 1.509 0.38 2.29a5 5 0 0 1-0.89 2.73c-0.35 0.52 -0.71 1-1 1.58A4 4 0 0 0 9.52 13a6.68 6.68 0 0 0 0 1.67c0.025 0.239 0.065 0.476 0.12 0.71 v0.24l-0.11 0.01 z" fill="#FFF"/>
</svg>
