<?xml version="1.0" ?>
<svg xmlns="http://www.w3.org/2000/svg" width="39" height="28" viewBox="0 0 39 28">
  <path d="M14 1.94h11.34a5.13 5.13 0 0 0 1.36-0.27L29.33 1l2.6-0.72c0.29-0.08 0.58 -0.17 0.88 -0.23a0.89 0.89 0 0 1 1 0.74l0.24 1c0 0.14 0.1 0.19 0.25 0.19h1.39a0.9 0.9 0 0 1 1 1v8.85c0.018 0.339 0.075 0.674 0.17 1 0.18 0.75 0.38 1.49 0.57 2.24 0.19 0.75 0.37 1.49 0.56 2.23 0.06 0.22 0.13 0.44 0.18 0.66a0.9 0.9 0 0 1-0.59 0.94 6.14 6.14 0 0 1-0.73 0.22 0.18 0.18 0 0 0-0.17 0.21 v1.27a1 1 0 0 1-1.07 1.06h-1.37c-0.16 0-0.22 0.05 -0.23 0.21 0 0.88-0.11 1.76-0.16 2.64a0.92 0.92 0 0 1-1 0.87c-1 0-1.92-0.12-2.88-0.18l-3.12-0.19-3.22-0.19-3.08-0.18c-0.93-0.05-1.86-0.08-2.79-0.17a3.44 3.44 0 0 0-1.2 0.2 l-2.63 0.72 -2.57 0.61 -2.85 0.77 -2.57 0.71 a6.06 6.06 0 0 1-0.61 0.16 0.89 0.89 0 0 1-1-0.75l-1-4.1c-0.08-0.34-0.17-0.68-0.24-1 0-0.16-0.11-0.24-0.29-0.23a1.81 1.81 0 0 1-0.52 0 0.88 0.88 0 0 1-0.75-0.91v-4.32a6.1 6.1 0 0 0-0.27-1.7c-0.18-0.63-0.34-1.28-0.51-1.92-0.17-0.64-0.37-1.5-0.57-2.25 0-0.22-0.12-0.43-0.17-0.65a0.92 0.92 0 0 1 0.58-0.94c0.237-0.09 0.481 -0.16 0.73 -0.21 0.15 0 0.18-0.11 0.18 -0.25V2.9a0.9 0.9 0 0 1 1-1l11.5 0.04 zm5 1.76H3.5c-0.19 0-0.25 0-0.24 0.24 V19.56c0 0.26 0 0.26 0.26 0.26H34.6c0.29 0 0.29 0 0.29-0.28V4.08c0-0.43 0-0.38-0.38-0.38H19zm1.64 18v-0.05H5c-0.21 0-0.23 0-0.18 0.22 l0.93 3.68c0.07 0.25 0.09 0.25 0.33 0.18 L8.67 25l2.87-0.78 2.58-0.71 2.29-0.63 2.87-0.78 1.36-0.4zm2.16 1.22v0.06h0.33l4.14 0.25 4.57 0.27 c0.17 0 0.22-0.05 0.23 -0.21 0-0.48 0.06 -1 0.1-1.44 0-0.25 0-0.26-0.22-0.26h-4.46L26 22l-2.31 0.63 -0.89 0.29 z" fill="#FFF"/>
  <path d="M17.09 11.76v5.55c0 0.16 0 0.22-0.21 0.22 H5.78c-0.17 0-0.22 0-0.22-0.22v-11c0-0.29 0-0.29 0.28 -0.29h11c0.19 0 0.22 0.06 0.22 0.23 v5.53l0.03-0.02zm-6.57-0.54l-0.74 0.86 a0.39 0.39 0 0 1-0.23 0.09 c-0.41 0-0.81-0.06-1.22-0.09h-0.09a0.92 0.92 0 0 0-0.91 0.22 4.42 4.42 0 0 0-0.44 0.53 c-0.11 0.13 -0.09 0.22 0.06 0.31 0.49 0.28 1 0.57 1.45 0.87 0.2 0.12 0.42 0.19 0.55 0.42 0.33 0.59 0.69 1.17 1 1.76 0.07 0.12 0.16 0.15 0.27 0.06 0.11 -0.09 0.38 -0.29 0.55 -0.45a0.92 0.92 0 0 0 0.24-0.84c0-0.15 0-0.29-0.05-0.44l-0.06-0.4v-0.61a0.2 0.2 0 0 1 0.06-0.13l0.89-0.77 0.07 0.07 0.53 1 1.07 2.14c0.07 0.14 0.17 0.18 0.3 0.09 0.13-0.09 0.49 -0.31 0.73 -0.49a0.89 0.89 0 0 0 0.38-0.8 5.71 5.71 0 0 0-0.17-0.8c-0.06-0.27-0.13-0.55-0.19-0.82-0.06-0.27-0.11-0.53-0.16-0.8a12 12 0 0 0-0.29-1.2c-0.12-0.31 0.05 -0.44 0.24 -0.59l0.18-0.16a6.68 6.68 0 0 0 0.85-0.83 1.91 1.91 0 0 0 0.46-1.53 0.91 0.91 0 0 0-0.94-0.7 3.06 3.06 0 0 0-1.17 0.43 5.32 5.32 0 0 0-1 1.08c-0.16 0.19 -0.28 0.38 -0.6 0.27 -0.32-0.11-0.81-0.19-1.21-0.28l-1.19-0.25c-0.29-0.07-0.57-0.14-0.85-0.19a2.46 2.46 0 0 0-0.65-0.08 0.94 0.94 0 0 0-0.67 0.46 l-0.42 0.64 a0.18 0.18 0 0 0 0.09 0.29 l2.95 1.5 0.33 0.16zM25.92 7.72H20.2c-0.17 0-0.23-0.05-0.22-0.22V6.14C20 6 20 6 20.17 6h11.51c0.15 0 0.21 0 0.2 0.2 v1.36c0 0.17-0.05 0.21 -0.21 0.21 h-5.75v-0.05zM25.94 9.24h5.68c0.26 0 0.26 0 0.26 0.25 v1.31c0 0.16 0 0.21-0.21 0.21 H20.22C20 11 20 11 20 10.77V9.45c0-0.17 0.05 -0.21 0.21 -0.21h5.73zM25.91 14.28h-5.66c-0.27 0-0.27 0-0.27-0.27v-1.27c0-0.17 0-0.22 0.22 -0.22h11.36c0.37 0 0.32 0 0.32 0.33 v1.2c0 0.18 0 0.24-0.23 0.24 l-5.74-0.01zM24.66 17.56h-4.43c-0.25 0-0.25 0-0.25-0.24V16c0-0.14 0-0.2 0.18 -0.2h9c0.15 0 0.19 0 0.19 0.19 v1.4c0 0.14-0.05 0.18 -0.19 0.18 l-4.5-0.01z" fill="#FFF"/>
</svg>
