<?xml version="1.0" ?>
<svg xmlns="http://www.w3.org/2000/svg" width="35" height="32" viewBox="0 0 35 32">
  <path d="M15.54 3.89V2a0.12 0.12 0 0 1 0.08-0.13L17 1.26l1.38-0.6 1.29-0.57 0.21 -0.09H20l0.71 0.24 1.55 0.5 1.53 0.51 0.69 0.23 c0.08 0 0.09 0.06 0.09 0.13 v13.21c0 0.14 0 0.14-0.14 0.14 h-2.85c-0.11 0-0.11 0-0.11-0.11v-10c0-0.12 0-0.12-0.13-0.16l-1-0.34-0.8-0.28-1.09-0.39-0.7-0.24-0.66-0.23a0.22 0.22 0 0 0-0.21 0l-1.31 0.6 -0.03 0.08 zm7.68-0.27V2.34s0-0.06-0.07-0.06h-0.52c-0.07 0-0.09 0-0.09 0.09 v1.25h0.68zm0 4.8V7.13s0-0.06-0.07-0.06h-0.52c-0.07 0-0.09 0-0.09 0.09 V8.41l0.68 0.01 zm0 4.82V12s0-0.06-0.07-0.06h-0.49c-0.12 0-0.12 0-0.12 0.12 V13.29l0.68-0.05zm0-7.89v-0.6c0-0.06 0-0.08-0.08-0.08h-0.5c-0.08 0-0.1 0-0.1 0.1 v1.16c0 0.07 0 0.09 0.1 0.09h0.49c0.07 0 0.09 0 0.09-0.09s0.01-0.39 0.01 -0.58h-0.01zm0 5.46V9.55h-0.55s-0.07 0-0.07 0.06 a2.26 2.26 0 0 1 0 0.26v0.94s0 0.08 0.06 0.08l0.56-0.08z" fill="#FFF"/>
  <path d="M16.65 4.17V14.9c0 0.08 0 0.1-0.11 0.1 H9.71c-0.11 0-0.11 0-0.11-0.11V7.46a0.11 0.11 0 0 1 0.09-0.13l0.89-0.41L12.63 6l1.58-0.72 1.31-0.59 1.06-0.48 0.07 -0.04zM15.12 9l-0.59 0.12 -0.67 0.14 -0.6 0.12 -0.65 0.14 -0.61 0.11 -0.67 0.14 -0.62 0.13 a0.1 0.1 0 0 0-0.09 0.11 v0.48c0 0.16 0 0.13 0.12 0.1l0.51-0.11 0.65 -0.13 0.93 -0.2 0.84 -0.17 0.74 -0.15 0.49 -0.1c0.18 0 0.18 0 0.18-0.21V9h0.04zm0 2.27h-0.06l-0.63 0.07 -0.77 0.08 -0.62 0.06 -1 0.12-1 0.09-0.37 0.05 a0.07 0.07 0 0 0-0.06 0.09 v0.44c0 0.15-0.05 0.18 0.18 0.16 l1.09-0.12 0.58 -0.05 1-0.12 1.3-0.14h0.29s0.07 0 0.07-0.06v-0.67zm-4.46-2.48l4.46-1.4V6.7H15l-0.58 0.18 -1.1 0.36 -1.21 0.37 -0.92 0.29 -0.48 0.15 a0.11 0.11 0 0 0-0.1 0.13 v0.48l0.05 0.13 zm4.46 4.77h-4.37c-0.08 0-0.1 0-0.1 0.1 v0.46c0 0.15 0 0.11 0.11 0.11h4.35l0.01-0.67zM17.36 4.07l1.17 0.41 0.78 0.28 1 0.36 0.38 0.12c0.08 0 0.12 0.06 0.12 0.16 v9.52c0 0.13 0 0.13-0.12 0.13 h-3.2c-0.12 0-0.12 0-0.12-0.13V4.07h-0.01z" fill="#FFF"/>
  <path d="M23.22 3.62h-0.62v-0.08-0.64-0.53c0-0.17 0-0.1 0.09 -0.09h0.52s0.07 0 0.07 0.06 v1.25s-0.06 0.01 -0.06 0.03 zM23.22 8.42h-0.62v-0.07-0.65-0.53c0-0.18 0-0.09 0.09 -0.09h0.52s0.07 0 0.07 0.06 v1.25l-0.06 0.03 zM23.23 13.24h-0.63v-0.07V12c0-0.12 0-0.12 0.12 -0.12h0.49s0.07 0 0.07 0.06 l-0.05 1.3zM23.23 5.35v0.58c0 0.19 0 0.09-0.09 0.09 h-0.49c-0.07 0-0.1 0-0.1-0.09V4.77c0-0.07 0-0.1 0.1 -0.1h0.5c0.06 0 0.08 0 0.08 0.08 v0.6zM23.21 10.81h-0.6c-0.06 0-0.06-0.05-0.06-0.08v-0.94a2.26 2.26 0 0 0 0-0.26s0-0.06 0.07 -0.06h0.55v1.26l0.04 0.08 zM15.12 9v0.52c0 0.18 0 0.18-0.18 0.21 l-0.49 0.1 -0.74 0.15 -0.84 0.17 -0.93 0.2 -0.65 0.13 -0.51 0.11 c-0.12 0-0.12 0-0.12-0.1v-0.48a0.1 0.1 0 0 1 0.09-0.11l0.62-0.13 0.63 -0.14 0.53 -0.11 0.65 -0.14 0.6 -0.12 0.67 -0.14 0.62 -0.12h0.05zM15.12 11.27v0.64s0 0.05-0.07 0.06 h-0.29l-1.27 0.13 -1 0.12-0.58 0.05 -1.09 0.12 c-0.23 0-0.18 0-0.18-0.16v-0.44a0.07 0.07 0 0 1 0.06-0.09l0.37-0.05 1-0.09 1-0.12 0.62 -0.06 0.77 -0.08 0.63 -0.07 0.03 0.04zM10.66 8.79v-0.12-0.48a0.11 0.11 0 0 1 0.1-0.13l0.48-0.15 0.92 -0.29 1.21-0.37 1.1-0.36 0.53 -0.18h0.08v0.69l-4.42 1.39zM15.12 13.56v0.67h-4.35c-0.11 0-0.11 0-0.11-0.11v-0.46c0-0.16 0-0.1 0.1 -0.1h4.37-0.01z" fill="#474646"/>
  <path d="M18.46 31.13V28.8v-0.64c0-0.62 0-1.25 0.09 -1.87a16.49 16.49 0 0 1 0.27-1.85A4.8 4.8 0 0 1 20 22.05a4.64 4.64 0 0 1 2-1.27 7.1 7.1 0 0 1 1.71-0.34 0.78 0.78 0 0 0 0.54-0.28c0.93-1.09 1.88-2.18 2.84-3.25a2.78 2.78 0 0 1 1.51-0.82 1.74 1.74 0 0 1 1.88 0.83 2.2 2.2 0 0 1 0.19 1.45A3.28 3.28 0 0 1 29.8 20c-0.85 0.92 -1.67 1.87-2.47 2.82a3.07 3.07 0 0 0-0.67 1.45 1.6 1.6 0 0 0 0 0.84l0.06 0.13 a0.39 0.39 0 0 0 0.14-0.08l2.26-2.57c0.6-0.68 1.22-1.34 1.82-2a3.6 3.6 0 0 0 0.89-1.76 5 5 0 0 0 0.17-1.1 2.94 2.94 0 0 0-0.43-1.5 0.59 0.59 0 0 1-0.09-0.32v-3.8a5.79 5.79 0 0 1 0.25-1.75 1.14 1.14 0 0 1 1.4-0.84 1.64 1.64 0 0 1 1.37 1.39 7.71 7.71 0 0 1 0.2 1.91v4.59a6.49 6.49 0 0 1-0.45 2.34 15.71 15.71 0 0 1-2.05 3.64 20.84 20.84 0 0 1-2 2.39 11 11 0 0 1-3 2.11 2 2 0 0 0-1.08 1.18 4 4 0 0 0-0.15 0.69 c0 0.4-0.05 0.81 -0.06 1.21 0 0.13 0 0.17-0.17 0.17 h-7.28v-0.01zM16.23 31.13H9c-0.15 0-0.19 0-0.2-0.19 0-0.4 0-0.81-0.06-1.21a2.22 2.22 0 0 0-1.34-1.91 11.2 11.2 0 0 1-3.74-3 24.2 24.2 0 0 1-1.77-2.36 13.92 13.92 0 0 1-1.4-2.59 5.76 5.76 0 0 1-0.43-1.69v-0.77-4.54a8.76 8.76 0 0 1 0.09-1.77A1.81 1.81 0 0 1 1 9.72a1.51 1.51 0 0 1 1.43-0.11c0.272 0.171 0.468 0.44 0.55 0.75 0.18 0.583 0.268 1.19 0.26 1.8v3.81a0.46 0.46 0 0 1 0 0.2 3.23 3.23 0 0 0-0.47 2 4.06 4.06 0 0 0 1 2.39l2.86 3.24 1.26 1.4c0.035 0.026 0.072 0.049 0.11 0.07 v-0.14a2.23 2.23 0 0 0-0.18-1.46 4.06 4.06 0 0 0-0.88-1.33l-2.33-2.62A2.65 2.65 0 0 1 4 18.38a2 2 0 0 1 0.22-1.52 1.52 1.52 0 0 1 1.06-0.75 2.38 2.38 0 0 1 2.3 0.82 c1 1.09 2 2.23 2.94 3.35a0.62 0.62 0 0 0 0.46 0.16 7.08 7.08 0 0 1 2.08 0.48 4.32 4.32 0 0 1 2.46 2.43 6 6 0 0 1 0.39 1.65c0.07 0.65 0.17 1.3 0.2 2 0.06 1.35 0.09 2.71 0.13 4.07 0-0.07-0.01 0-0.01 0.06 z" fill="#FFF"/>
  <path d="M30.32 15.11l-0.6-0.18a1.64 1.64 0 0 0-0.32 0 0.14 0.14 0 0 1-0.14-0.16c0-0.81 0-1.62 0.08 -2.42a2.84 2.84 0 0 1 0.32-1.17 0.92 0.92 0 0 1 0.79-0.53 1.2 1.2 0 0 1 0 0.19c0 0.41-0.11 0.81 -0.12 1.21v2.91l-0.01 0.15 zM4.34 15.12v-0.61-2.62c0-0.36-0.08-0.72-0.12-1.08a1.27 1.27 0 0 1 0-0.2 0.82 0.82 0 0 1 0.73 0.42 c0.187 0.304 0.306 0.645 0.35 1a16.5 16.5 0 0 1 0.13 2.63c0 0.16 0 0.21-0.21 0.23 a5.28 5.28 0 0 0-0.66 0.16 l-0.22 0.07 z" fill="#FFF"/>
</svg>
