<?xml version="1.0" ?>
<svg xmlns="http://www.w3.org/2000/svg" width="31" height="31" viewBox="0 0 31 31">
  <path d="M30.78 15.4c-0.006 8.5-6.9 15.386-15.4 15.38-8.5-0.006-15.386-6.9-15.38-15.4C0.006 6.88 6.9-0.006 15.4 0a15.35 15.35 0 0 1 15.38 15.4zM18 12.52c0-0.55-0.09-1.1-0.14-1.65l-0.21-2.14a0.86 0.86 0 0 0-0.61-0.85c-0.39-0.12-0.77-0.29-1.15-0.45l-2.22-0.88-2-0.82a0.86 0.86 0 0 0-0.87 0c-0.71 0.47 -1.45 0.9 -2.14 1.4C7.97 7.63 7.54 8 7 8.5a1 1 0 0 0-0.37 0.89 c0 0.44 0.05 0.89 0.08 1.33 0 0.27 0 0.54 0.07 0.81 0.06 0.61 0.12 1.22 0.17 1.84 0.05 0.62 0 1 0.08 1.52a0.89 0.89 0 0 0 0.48 0.81 c0.46 0.22 0.927 0.427 1.4 0.62 l2.49 1a0.64 0.64 0 0 0 0.68 0c0.79-0.55 1.58-1.09 2.38-1.62l3.22-2.17a0.55 0.55 0 0 0 0.29-0.5c0.03-0.15 0.03 -0.33 0.03 -0.51zm5.79 9.94c-0.07-0.43-0.13-0.85-0.2-1.28l-0.26-1.82-0.21-1.62c0-0.167-0.023-0.337-0.07-0.51-0.06-0.38-0.13-0.77-0.17-1.15a0.28 0.28 0 0 0-0.17-0.26c-0.3-0.13-0.6-0.27-0.9-0.39-0.89-0.34-1.78-0.69-2.68-1a1.09 1.09 0 0 0-0.51-0.06c-0.175 0.04 -0.34 0.11 -0.49 0.21 -1.29 0.75 -2.59 1.51-3.87 2.28-0.53 0.32 -1 0.68-1.54 1a0.22 0.22 0 0 0-0.11 0.27 c0.055 0.172 0.092 0.35 0.11 0.53 0 0.85 0.09 1.7 0.13 2.55 0 0.66 0 1.32 0.08 2a0.2 0.2 0 0 0 0.1 0.15 l1.36 0.6 2.15 0.94 2 0.88a0.91 0.91 0 0 0 0.7 0.11 4.25 4.25 0 0 0 1.09-0.59L22 24.09l1.67-1.26a0.33 0.33 0 0 0 0.11-0.37h0.01zm5.65-6.84a14.52 14.52 0 0 0-0.21-2.49c0-0.17 0-0.37-0.26-0.45-0.74-0.25-1.49-0.52-2.22-0.79-0.15-0.06-0.21 0-0.27 0.1 -0.37 0.64 -0.75 1.27-1.13 1.91-0.38 0.64 -0.82 1.33-1.22 2a1.25 1.25 0 0 0-0.2 0.87 c0.06 0.36 0.12 0.73 0.16 1.09 0.07 0.68 0.13 1.37 0.19 2.06s0.13 1.33 0.21 2c0 0.21 0.06 0.44 0.29 0.55 0.23 0.11 0.34 0.13 0.52 0.2l1.52 0.55 a0.21 0.21 0 0 0 0.31-0.1 14.29 14.29 0 0 0 1.68-3.56c0.22-0.705 0.38 -1.428 0.48 -2.16 0.08 -0.68 0.11 -1.34 0.15 -1.78zM11.74 2.86c0 0.51 0.06 1 0.09 1.54a0.48 0.48 0 0 0 0.28 0.45 l1 0.43c0.67 0.29 1.34 0.57 2 0.88 0.66 0.31 1.29 0.64 1.93 1a1 1 0 0 0 0.84 0.05 l0.73-0.27c0.41-0.14 0.82 -0.28 1.24-0.4 0.42 -0.12 0.84 -0.21 1.26-0.32l0.5-0.22a0.22 0.22 0 0 0 0.17-0.24c0-0.31 0-0.63 0.05 -0.94 0-0.55 0.06 -1.1 0.07 -1.65a0.25 0.25 0 0 0-0.1-0.17c-0.38-0.2-0.75-0.4-1.15-0.56-0.4-0.16-0.83-0.29-1.25-0.42-0.42-0.13-0.77-0.21-1.15-0.3a6.46 6.46 0 0 0-0.83-0.16c-0.45 0-0.9-0.06-1.36-0.08h-0.12a4.94 4.94 0 0 0-1.6 0c-0.57 0-1.13 0.14 -1.69 0.23 a6.53 6.53 0 0 0-0.82 0.21 0.21 0.21 0 0 0-0.1 0.16 c0 0.27 0.01 0.52 0.01 0.78zM5.88 9.19A1 1 0 0 1 5.9 9c0-0.13-0.05-0.18-0.15-0.22L3.86 8a0.2 0.2 0 0 0-0.29 0.09 11.38 11.38 0 0 0-1 1.93c-0.2 0.49 -0.37 1-0.52 1.48a11.94 11.94 0 0 0-0.28 1.23 12.28 12.28 0 0 0-0.23 1.5A14.88 14.88 0 0 0 1.7 18c0.09 0.47 0.21 0.94 0.34 1.41 0.13 0.47 0.16 0.37 0.42 0.32L4 19.47c0.13 0 0.3 0 0.36-0.2s0.17-0.51 0.27 -0.76a4.11 4.11 0 0 1 0.64-1.31c0.268-0.32 0.518 -0.654 0.75 -1 0.201-0.263 0.3 -0.59 0.28 -0.92 0-0.46-0.09-0.92-0.11-1.37-0.06-1-0.1-2.05-0.15-3.08v-0.48c-0.1-0.42-0.13-0.79-0.16-1.16zm9.37 20.23a15.83 15.83 0 0 0 2.57-0.22c0.36-0.07 0.72 -0.16 1.08-0.26a0.22 0.22 0 0 0 0.1-0.14 2.59 2.59 0 0 0 0-0.51c0-0.44 0-0.87-0.07-1.31a0.33 0.33 0 0 0-0.16-0.23c-0.473-0.233-0.95-0.457-1.43-0.67l-2.15-0.93-2-0.87a1.71 1.71 0 0 0-0.56-0.15 1.13 1.13 0 0 0-0.42 0.13 c-0.935 0.4 -1.916 0.682 -2.92 0.84 -0.34 0-0.67 0.11 -1 0.18-0.07 0-0.19 0.07 -0.2 0.12 -0.06 0.24 -0.1 0.48 -0.14 0.72 -0.04 0.24 -0.1 0.58 -0.17 0.86 a0.17 0.17 0 0 0 0.07 0.2 11.56 11.56 0 0 0 2.76 1.37c0.37 0.13 0.74 0.26 1.12 0.36 0.38 0.1 0.54 0.1 0.81 0.15 h0.12c0.281 0.094 0.568 0.168 0.86 0.22 0.61 0.09 1.17 0.11 1.73 0.14 zm13.66-17.57a1.11 1.11 0 0 0 0-0.26 6.06 6.06 0 0 0-0.27-0.9c-0.32-0.71-0.64-1.43-1-2.11a13 13 0 0 0-4.25-4.68L23 3.64v0.7c0.031 0.42 0.031 0.84 0 1.26a0.52 0.52 0 0 0 0.2 0.53 13.59 13.59 0 0 1 2 2.12 11.33 11.33 0 0 1 1.31 2.27c0.116 0.345 0.392 0.613 0.74 0.72 0.43 0.12 0.84 0.28 1.26 0.42 l0.4 0.19 zM3.7 20.46l-1 0.22c-0.12 0-0.12 0.09 -0.1 0.17 0.035 0.14 0.081 0.278 0.14 0.41 A16 16 0 0 0 4 23.48a14.24 14.24 0 0 0 2.4 2.61c0.25 0.22 0.53 0.41 0.79 0.61 0.07 0.05 0.13 0.07 0.16 0s0.09-0.37 0.14 -0.56c0.05-0.19 0.13 -0.57 0.22 -0.85a0.27 0.27 0 0 0-0.1-0.36l-0.11-0.09a9 9 0 0 1-1.94-2c-0.4-0.6-0.73-1.23-1.09-1.85-0.17-0.33-0.35-0.6-0.77-0.53z" fill="#FFF"/>
</svg>
