<?xml version="1.0" ?>
<svg xmlns="http://www.w3.org/2000/svg" width="26" height="32" viewBox="0 0 26 32">
  <path d="M12.94 26.51H3.4c-0.176 0-0.35 0.038 -0.51 0.11 a0.92 0.92 0 0 0 0.4 1.73h19.23a0.87 0.87 0 0 0 0.86-0.51 0.92 0.92 0 0 0-0.85-1.34l-9.59 0.01 zm5.68 2.63h-1.86c-0.15 0-0.2 0-0.19 0.19 v1a0.76 0.76 0 0 0 0.8 0.79 h2.47a0.78 0.78 0 0 0 0.82-0.82v-1c0-0.16-0.05-0.2-0.21-0.2l-1.83 0.04 zm-11.34 0H5.42c-0.14 0-0.2 0-0.19 0.18 v1a0.78 0.78 0 0 0 0.82 0.8 H8.5a0.78 0.78 0 0 0 0.83-0.82v-1c0-0.17-0.05-0.21-0.21-0.21l-1.84 0.05 zM12.94 25.66h-8.8c-0.28 0-0.28 0-0.28-0.29v-9.59c0-0.28 0-0.28-0.28-0.28h-2.2A1.44 1.44 0 0 1 0 14V4a1.54 1.54 0 0 1 0.24-0.88 1.48 1.48 0 0 1 1.28-0.72h2.1c0.24 0 0.23 0 0.24-0.24a8.54 8.54 0 0 1 0.05-1A1.43 1.43 0 0 1 5.19 0H20.48a1.44 1.44 0 0 1 1.43 0.93 c0.063 0.173 0.1 0.356 0.11 0.54 0.015 0.25 0.015 0.5 0 0.75 0 0.14 0.05 0.18 0.19 0.18h2.16a1.46 1.46 0 0 1 1.41 1c0.063 0.173 0.097 0.356 0.1 0.54 v10.11a1.46 1.46 0 0 1-1.45 1.47h-2.18c-0.19 0-0.23 0.06 -0.23 0.23 v9.65c0 0.25 0 0.25-0.25 0.25 h-8.83v0.01zm0-10.17H5.38c-0.25 0-0.25 0-0.25 0.24 v8.43c0 0.23 0 0.23 0.22 0.23h15.12c0.28 0 0.28 0 0.28-0.27v-8.35c0-0.28 0-0.28-0.27-0.28h-7.54zm0-1.66h8.54a0.92 0.92 0 0 0 1-1v-2.11a0.93 0.93 0 0 0-0.94-1H4.39a0.9 0.9 0 0 0-0.39 0.15 0.86 0.86 0 0 0-0.57 0.86 v2.1a0.9 0.9 0 0 0 1 1h8.51zm-2.51-6.52a0.66 0.66 0 0 0-0.68 0.69 c0.005 0.37 0.3 0.67 0.67 0.68 a0.7 0.7 0 0 0 0.69-0.68 0.67 0.67 0 0 0-0.68-0.69zM9 8a0.66 0.66 0 0 0-0.65-0.67 0.67 0.67 0 0 0-0.71 0.67 0.7 0.7 0 0 0 0.67 0.68 A0.68 0.68 0 0 0 9 8zM5.55 8a0.68 0.68 0 0 0 0.67 0.69 0.7 0.7 0 0 0 0.69-0.69c0-0.37-0.3-0.67-0.67-0.67a0.65 0.65 0 0 0-0.69 0.67 zm-1.41-0.69a0.65 0.65 0 0 0-0.68 0.69 0.66 0.66 0 0 0 0.66 0.68 0.7 0.7 0 0 0 0.69-0.68 0.66 0.66 0 0 0-0.67-0.69z" fill="#FFF"/>
  <path d="M12.94 26.51h9.59a0.92 0.92 0 0 1 0.85 1.34 0.87 0.87 0 0 1-0.86 0.51 H3.29a0.92 0.92 0 0 1-0.4-1.73c0.16-0.072 0.334 -0.11 0.51 -0.11h9.54v-0.01zM18.62 29.14h1.84c0.16 0 0.21 0 0.21 0.2 v1a0.78 0.78 0 0 1-0.82 0.82 h-2.47a0.76 0.76 0 0 1-0.8-0.79v-1c0-0.15 0-0.19 0.19 -0.19l1.85-0.04zM7.28 29.14h1.84c0.16 0 0.22 0 0.21 0.21 v1a0.78 0.78 0 0 1-0.83 0.82 H6.05a0.78 0.78 0 0 1-0.82-0.8v-1c0-0.14 0-0.18 0.19 -0.18l1.86-0.05zM12.93 20h2.35c0.17 0 0.24 0 0.23 0.23 -0.01 0.23 0 0.24 0.25 0.25a1.21 1.21 0 0 1 0.24 2.38c-0.13 0-0.27 0-0.4 0.06 a0.3 0.3 0 0 0-0.18 0.13 0.85 0.85 0 0 1-0.87 0.58 h-3.29a0.86 0.86 0 0 1-0.94-0.93v-2.47c0-0.17 0.06 -0.23 0.23 -0.22l2.38-0.01zm2.58 1.69v0.57c0 0.19 0 0.16 0.16 0.16a0.73 0.73 0 0 0 0.76-0.72 0.74 0.74 0 0 0-0.79-0.73c-0.1 0-0.13 0.05 -0.13 0.15 v0.58-0.01zM13 16h1.56c0.15 0 0.21 0 0.21 0.2 v1.4a0.74 0.74 0 0 1-0.8 0.8 h-0.17c-0.26 0-0.26 0-0.31 0.27 a0.43 0.43 0 0 1-0.33 0.37 c-0.44 0.12 -0.72-0.06-0.76-0.48 0-0.12-0.07-0.16-0.18-0.16a2.84 2.84 0 0 1-0.41 0 0.68 0.68 0 0 1-0.6-0.65v-1.61c0-0.12 0.07 -0.12 0.16 -0.12L13 16zM17.38 16h2.18a0.46 0.46 0 0 1 0.52 0.49 0.48 0.48 0 0 1-0.53 0.5 h-4.41c-0.15 0-0.21 0-0.2-0.19 0.01 -0.19 0-0.41 0-0.62 0-0.21 0-0.19 0.18 -0.18h2.26zM6.62 17v-0.87c0-0.13 0-0.17 0.17 -0.17 0.3 0 0.3 0 0.3 0.29 v1.4a0.89 0.89 0 0 0 0.12 0.39 c0.34 0.53 0.7 1.05 1 1.58a0.41 0.41 0 0 1 0.05 0.09 c0.09 0.14 0.07 0.27 -0.05 0.34 a0.23 0.23 0 0 1-0.3-0.05l-0.69-1c-0.17-0.25-0.34-0.49-0.49-0.74a0.81 0.81 0 0 1-0.11-0.33V17zM19.24 10.32a1.5 1.5 0 1 1 0 3 1.5 1.5 0 0 1 0-3zM15 10.32a1.48 1.48 0 0 1 1.49 1.5 1.49 1.49 0 1 1-1.49-1.5zM8.14 11.83a1.5 1.5 0 1 1-1.45-1.51 1.51 1.51 0 0 1 1.45 1.51zM10.84 10.32a1.5 1.5 0 1 1 0.02 3 1.5 1.5 0 0 1-0.02-3z" fill="#FFF"/>
</svg>
