<?xml version="1.0" ?>
<svg xmlns="http://www.w3.org/2000/svg" width="40" height="31" viewBox="0 0 40 31">
  <path d="M39.74 24.43h-5.8c1.34 2 2.69 3.85 4 5.79h-36l4.14-5.78H0v-0.25-7.49a2.64 2.64 0 0 1 0.51-1.61 3.32 3.32 0 0 1 1.94-1.38 5.69 5.69 0 0 1 2.36-0.08 3.38 3.38 0 0 1 2.7 2.2c0.159 0.429 0.24 0.883 0.24 1.34v1.17c0 0.08 0 0.23-0.11 0.24 a0.31 0.31 0 0 1-0.38-0.09c-0.28-0.43-0.59-0.85-0.89-1.27-0.3-0.42-0.76-1.13-1.18-1.67a2.07 2.07 0 0 0-2.19-0.8c-0.84 0.15 -1.5 0.802 -1.66 1.64a2.22 2.22 0 0 0 0.39 1.81c0.91 1.27 1.8 2.55 2.7 3.82a2 2 0 0 0 1.38 0.86 c0.241 0.04 0.485 0.06 0.73 0.06 h5.08a2.13 2.13 0 0 0 2-1.2 2.17 2.17 0 0 0-1.11-3 2.29 2.29 0 0 0-0.86-0.15h-1.36l0.19-0.28c0.34-0.51 0.34 -0.52 0.94 -0.52h17.21c0.73 0 0.84 0.07 1.18 0.79 H28a2.16 2.16 0 0 0-0.66 4.21c0.25 0.078 0.509 0.122 0.77 0.13 h5.29a2.37 2.37 0 0 0 2.06-1.12c0.78-1.13 1.57-2.26 2.37-3.38 0.236 -0.3 0.419 -0.638 0.54 -1a2.2 2.2 0 0 0-0.78-2.32 2.15 2.15 0 0 0-1.75-0.39 2 2 0 0 0-1.3 0.84 c-0.67 0.94 -1.34 1.89-2 2.84a0.36 0.36 0 0 1-0.37 0.18 c-0.11 0-0.17-0.06-0.17-0.16a12.44 12.44 0 0 1 0.09-2 3.34 3.34 0 0 1 2.22-2.62 3.22 3.22 0 0 1 1.3-0.23c0.47 0 0.94 0 1.41 0.08 a3 3 0 0 1 1.51 0.69 3.59 3.59 0 0 1 1.2 1.74 0.49 0.49 0 0 1 0 0.17v8.19h0.01z" fill="#FFF"/>
  <path d="M23.3 11.25h-0.7v5.32c0 0.19 0 0.25-0.25 0.25 h-5.18c-0.24 0-0.24 0-0.24-0.26v-5.31h-0.69a2.29 2.29 0 0 0 0 0.25v5.06c0 0.25 0 0.26-0.26 0.26 H14.1c-0.15 0-0.19-0.05-0.19-0.19v-5.49a3.67 3.67 0 0 1 1-2.36 4.09 4.09 0 0 1 2-1.21 5 5 0 0 1 1.22-0.14h3.28a4 4 0 0 1 3.73 2.24 3.5 3.5 0 0 1 0.44 1.64v5.31c0 0.14 0 0.19-0.19 0.19 h-1.92c-0.18 0-0.23-0.06-0.23-0.23V11.5l0.06-0.25zM35.4 5.79a3.64 3.64 0 1 1-3.65 3.59 3.62 3.62 0 0 1 3.65-3.59zM4.13 5.79A3.64 3.64 0 1 1 0.47 9.37a3.63 3.63 0 0 1 3.66-3.58zM23.22 3.47A3.47 3.47 0 1 1 19.76 0a3.45 3.45 0 0 1 3.46 3.47zM30.8 22.25h-2.68a1.43 1.43 0 0 1-1.37-0.82 1.44 1.44 0 0 1 0.82-2 1.81 1.81 0 0 1 0.56-0.08h4.43a0.36 0.36 0 0 0 0.33-0.17l2.12-3a1.44 1.44 0 0 1 1.63-0.67 1.42 1.42 0 0 1 1.1 1.26 1.76 1.76 0 0 1-0.35 1.17l-2.63 3.66a1.5 1.5 0 0 1-1.26 0.65 h-2.7zM8.94 22.25H6.59a1.91 1.91 0 0 1-1.82-1c-0.64-1-1.33-1.9-2-2.85a7.27 7.27 0 0 1-0.62-0.94 1.43 1.43 0 0 1 0.78-2 1.47 1.47 0 0 1 1.8 0.6 l2.11 3a0.39 0.39 0 0 0 0.36 0.18 h4.44a1.41 1.41 0 0 1 1.42 1 1.46 1.46 0 0 1-0.76 1.83 2.18 2.18 0 0 1-0.75 0.15 c-0.86 0.04 -1.74 0.03 -2.61 0.03 z" fill="#FFF"/>
</svg>
