<?xml version="1.0" ?>
<svg xmlns="http://www.w3.org/2000/svg" width="143" height="99" viewBox="0 0 143 99">
  <g transform="translate(-3,-10)">
    <path d="M37.945 28.546V26.12c2.285-0.223 3.88-0.595 4.782-1.116 0.902 -0.522 1.576-1.755 2.021-3.7h2.496V46.37H43.87V28.546h-5.924z" fill="#FFF"/>
    <path d="M37.945 28.546V26.12c2.285-0.223 3.88-0.595 4.782-1.116 0.902 -0.522 1.576-1.755 2.021-3.7h2.496V46.37H43.87V28.546h-5.924z" fill="#FFF"/>
    <path d="M37.945 28.546V26.12c2.285-0.223 3.88-0.595 4.782-1.116 0.902 -0.522 1.576-1.755 2.021-3.7h2.496V46.37H43.87V28.546h-5.924z" fill="#FFF"/>
  </g>
  <g transform="translate(45.75,34.37)">
    <path d="M3.445 17.176V14.75c2.285-0.223 3.88-0.595 4.782-1.116 0.902 -0.522 1.576-1.755 2.021-3.7h2.496V35H9.37V17.176H3.445zm29.637 2.03c0.785-0.78 1.178-1.708 1.178-2.786 0-0.938-0.375-1.799-1.125-2.584-0.75-0.785-1.893-1.178-3.428-1.178-1.523 0-2.625 0.393 -3.305 1.178-0.68 0.785 -1.02 1.705-1.02 2.76 0 1.183 0.44 2.11 1.32 2.777 0.878 0.668 1.915 1.002 3.11 1.002 1.395 0 2.485-0.39 3.27-1.169zm0.571 12.445c0.967-0.79 1.45-1.971 1.45-3.542 0-1.629-0.498-2.865-1.494-3.709-0.996-0.843-2.273-1.265-3.832-1.265-1.511 0-2.745 0.43 -3.7 1.292-0.955 0.861 -1.432 2.053-1.432 3.577 0 1.312 0.436 2.446 1.31 3.401 0.872 0.955 2.223 1.433 4.05 1.433 1.466 0 2.682-0.396 3.648-1.187zM23.45 20.27c-0.926-0.938-1.388-2.157-1.388-3.657 0-1.875 0.68 -3.486 2.039-4.834 1.359-1.347 3.287-2.021 5.783-2.021 2.414 0 4.306 0.636 5.678 1.907 1.37 1.272 2.056 2.757 2.056 4.456 0 1.57-0.398 2.842-1.195 3.815-0.445 0.55 -1.137 1.09-2.074 1.617 1.043 0.48 1.863 1.031 2.46 1.652 1.114 1.172 1.67 2.695 1.67 4.57 0 2.215-0.744 4.093-2.232 5.634-1.488 1.541-3.592 2.312-6.31 2.312-2.45 0-4.521-0.665-6.214-1.995-1.694-1.33-2.54-3.261-2.54-5.792 0-1.489 0.363 -2.775 1.09-3.859 0.726 -1.084 1.804-1.913 3.234-2.487-0.88-0.375-1.565-0.815-2.057-1.318z" fill="#FFF"/>
    <path d="M3.445 17.176V14.75c2.285-0.223 3.88-0.595 4.782-1.116 0.902 -0.522 1.576-1.755 2.021-3.7h2.496V35H9.37V17.176H3.445zm29.637 2.03c0.785-0.78 1.178-1.708 1.178-2.786 0-0.938-0.375-1.799-1.125-2.584-0.75-0.785-1.893-1.178-3.428-1.178-1.523 0-2.625 0.393 -3.305 1.178-0.68 0.785 -1.02 1.705-1.02 2.76 0 1.183 0.44 2.11 1.32 2.777 0.878 0.668 1.915 1.002 3.11 1.002 1.395 0 2.485-0.39 3.27-1.169zm0.571 12.445c0.967-0.79 1.45-1.971 1.45-3.542 0-1.629-0.498-2.865-1.494-3.709-0.996-0.843-2.273-1.265-3.832-1.265-1.511 0-2.745 0.43 -3.7 1.292-0.955 0.861 -1.432 2.053-1.432 3.577 0 1.312 0.436 2.446 1.31 3.401 0.872 0.955 2.223 1.433 4.05 1.433 1.466 0 2.682-0.396 3.648-1.187zM23.45 20.27c-0.926-0.938-1.388-2.157-1.388-3.657 0-1.875 0.68 -3.486 2.039-4.834 1.359-1.347 3.287-2.021 5.783-2.021 2.414 0 4.306 0.636 5.678 1.907 1.37 1.272 2.056 2.757 2.056 4.456 0 1.57-0.398 2.842-1.195 3.815-0.445 0.55 -1.137 1.09-2.074 1.617 1.043 0.48 1.863 1.031 2.46 1.652 1.114 1.172 1.67 2.695 1.67 4.57 0 2.215-0.744 4.093-2.232 5.634-1.488 1.541-3.592 2.312-6.31 2.312-2.45 0-4.521-0.665-6.214-1.995-1.694-1.33-2.54-3.261-2.54-5.792 0-1.489 0.363 -2.775 1.09-3.859 0.726 -1.084 1.804-1.913 3.234-2.487-0.88-0.375-1.565-0.815-2.057-1.318z" fill="#FFF"/>
    <path d="M3.445 17.176V14.75c2.285-0.223 3.88-0.595 4.782-1.116 0.902 -0.522 1.576-1.755 2.021-3.7h2.496V35H9.37V17.176H3.445zm29.637 2.03c0.785-0.78 1.178-1.708 1.178-2.786 0-0.938-0.375-1.799-1.125-2.584-0.75-0.785-1.893-1.178-3.428-1.178-1.523 0-2.625 0.393 -3.305 1.178-0.68 0.785 -1.02 1.705-1.02 2.76 0 1.183 0.44 2.11 1.32 2.777 0.878 0.668 1.915 1.002 3.11 1.002 1.395 0 2.485-0.39 3.27-1.169zm0.571 12.445c0.967-0.79 1.45-1.971 1.45-3.542 0-1.629-0.498-2.865-1.494-3.709-0.996-0.843-2.273-1.265-3.832-1.265-1.511 0-2.745 0.43 -3.7 1.292-0.955 0.861 -1.432 2.053-1.432 3.577 0 1.312 0.436 2.446 1.31 3.401 0.872 0.955 2.223 1.433 4.05 1.433 1.466 0 2.682-0.396 3.648-1.187zM23.45 20.27c-0.926-0.938-1.388-2.157-1.388-3.657 0-1.875 0.68 -3.486 2.039-4.834 1.359-1.347 3.287-2.021 5.783-2.021 2.414 0 4.306 0.636 5.678 1.907 1.37 1.272 2.056 2.757 2.056 4.456 0 1.57-0.398 2.842-1.195 3.815-0.445 0.55 -1.137 1.09-2.074 1.617 1.043 0.48 1.863 1.031 2.46 1.652 1.114 1.172 1.67 2.695 1.67 4.57 0 2.215-0.744 4.093-2.232 5.634-1.488 1.541-3.592 2.312-6.31 2.312-2.45 0-4.521-0.665-6.214-1.995-1.694-1.33-2.54-3.261-2.54-5.792 0-1.489 0.363 -2.775 1.09-3.859 0.726 -1.084 1.804-1.913 3.234-2.487-0.88-0.375-1.565-0.815-2.057-1.318z" fill="#FFF"/>
  </g>
  <g transform="translate(82.5,-9.88)">
    <path d="M18.826 10.25v2.76c-0.808 0.785 -1.884 2.15-3.225 4.095a41.528 41.528 0 0 0-3.56 6.293c-1.02 2.192-1.793 4.19-2.32 5.995-0.34 1.16-0.78 3.029-1.319 5.607H4.904c0.797-4.805 2.555-9.586 5.274-14.344 1.605-2.789 3.293-5.197 5.062-7.224H1.318V10.25h17.508z" fill="#FFF"/>
    <path d="M18.826 10.25v2.76c-0.808 0.785 -1.884 2.15-3.225 4.095a41.528 41.528 0 0 0-3.56 6.293c-1.02 2.192-1.793 4.19-2.32 5.995-0.34 1.16-0.78 3.029-1.319 5.607H4.904c0.797-4.805 2.555-9.586 5.274-14.344 1.605-2.789 3.293-5.197 5.062-7.224H1.318V10.25h17.508z" fill="#FFF"/>
    <path d="M18.826 10.25v2.76c-0.808 0.785 -1.884 2.15-3.225 4.095a41.528 41.528 0 0 0-3.56 6.293c-1.02 2.192-1.793 4.19-2.32 5.995-0.34 1.16-0.78 3.029-1.319 5.607H4.904c0.797-4.805 2.555-9.586 5.274-14.344 1.605-2.789 3.293-5.197 5.062-7.224H1.318V10.25h17.508z" fill="#FFF"/>
  </g>
  <g transform="translate(-3,62.87)">
    <path d="M3.445 17.176V14.75c2.285-0.223 3.88-0.595 4.782-1.116 0.902 -0.522 1.576-1.755 2.021-3.7h2.496V35H9.37V17.176H3.445zm19.45 16.057c-1.341-1.634-2.012-3.624-2.012-5.967h3.305c0.14 1.629 0.445 2.812 0.914 3.55 0.82 1.325 2.302 1.987 4.447 1.987 1.664 0 3-0.446 4.008-1.336 1.007-0.89 1.511-2.04 1.511-3.446 0-1.734-0.53-2.947-1.59-3.638-1.061-0.692-2.535-1.037-4.421-1.037a23.75 23.75 0 0 0-1.301 0.035 v-2.795c0.328 0.035 0.603 0.059 0.826 0.07 0.223 0.012 0.463 0.018 0.72 0.018 1.184 0 2.157-0.188 2.919-0.563 1.336-0.656 2.004-1.828 2.004-3.515 0-1.254-0.446-2.221-1.336-2.9-0.891-0.68-1.928-1.02-3.112-1.02-2.109 0-3.568 0.703 -4.377 2.11-0.445 0.773 -0.697 1.874-0.755 3.304h-3.13c0-1.875 0.376 -3.469 1.126-4.781 1.289-2.344 3.556-3.516 6.802-3.516 2.567 0 4.553 0.571 5.96 1.714 1.406 1.142 2.109 2.798 2.109 4.966 0 1.547-0.416 2.8-1.248 3.761-0.516 0.598 -1.184 1.067-2.004 1.407 1.324 0.363 2.358 1.063 3.102 2.1 0.744 1.037 1.117 2.306 1.117 3.806 0 2.402-0.791 4.36-2.374 5.871-1.582 1.512-3.826 2.268-6.732 2.268-2.977 0-5.136-0.818-6.477-2.453z" fill="#FFF"/>
    <path d="M3.445 17.176V14.75c2.285-0.223 3.88-0.595 4.782-1.116 0.902 -0.522 1.576-1.755 2.021-3.7h2.496V35H9.37V17.176H3.445zm19.45 16.057c-1.341-1.634-2.012-3.624-2.012-5.967h3.305c0.14 1.629 0.445 2.812 0.914 3.55 0.82 1.325 2.302 1.987 4.447 1.987 1.664 0 3-0.446 4.008-1.336 1.007-0.89 1.511-2.04 1.511-3.446 0-1.734-0.53-2.947-1.59-3.638-1.061-0.692-2.535-1.037-4.421-1.037a23.75 23.75 0 0 0-1.301 0.035 v-2.795c0.328 0.035 0.603 0.059 0.826 0.07 0.223 0.012 0.463 0.018 0.72 0.018 1.184 0 2.157-0.188 2.919-0.563 1.336-0.656 2.004-1.828 2.004-3.515 0-1.254-0.446-2.221-1.336-2.9-0.891-0.68-1.928-1.02-3.112-1.02-2.109 0-3.568 0.703 -4.377 2.11-0.445 0.773 -0.697 1.874-0.755 3.304h-3.13c0-1.875 0.376 -3.469 1.126-4.781 1.289-2.344 3.556-3.516 6.802-3.516 2.567 0 4.553 0.571 5.96 1.714 1.406 1.142 2.109 2.798 2.109 4.966 0 1.547-0.416 2.8-1.248 3.761-0.516 0.598 -1.184 1.067-2.004 1.407 1.324 0.363 2.358 1.063 3.102 2.1 0.744 1.037 1.117 2.306 1.117 3.806 0 2.402-0.791 4.36-2.374 5.871-1.582 1.512-3.826 2.268-6.732 2.268-2.977 0-5.136-0.818-6.477-2.453z" fill="#FFF"/>
    <path d="M3.445 17.176V14.75c2.285-0.223 3.88-0.595 4.782-1.116 0.902 -0.522 1.576-1.755 2.021-3.7h2.496V35H9.37V17.176H3.445zm19.45 16.057c-1.341-1.634-2.012-3.624-2.012-5.967h3.305c0.14 1.629 0.445 2.812 0.914 3.55 0.82 1.325 2.302 1.987 4.447 1.987 1.664 0 3-0.446 4.008-1.336 1.007-0.89 1.511-2.04 1.511-3.446 0-1.734-0.53-2.947-1.59-3.638-1.061-0.692-2.535-1.037-4.421-1.037a23.75 23.75 0 0 0-1.301 0.035 v-2.795c0.328 0.035 0.603 0.059 0.826 0.07 0.223 0.012 0.463 0.018 0.72 0.018 1.184 0 2.157-0.188 2.919-0.563 1.336-0.656 2.004-1.828 2.004-3.515 0-1.254-0.446-2.221-1.336-2.9-0.891-0.68-1.928-1.02-3.112-1.02-2.109 0-3.568 0.703 -4.377 2.11-0.445 0.773 -0.697 1.874-0.755 3.304h-3.13c0-1.875 0.376 -3.469 1.126-4.781 1.289-2.344 3.556-3.516 6.802-3.516 2.567 0 4.553 0.571 5.96 1.714 1.406 1.142 2.109 2.798 2.109 4.966 0 1.547-0.416 2.8-1.248 3.761-0.516 0.598 -1.184 1.067-2.004 1.407 1.324 0.363 2.358 1.063 3.102 2.1 0.744 1.037 1.117 2.306 1.117 3.806 0 2.402-0.791 4.36-2.374 5.871-1.582 1.512-3.826 2.268-6.732 2.268-2.977 0-5.136-0.818-6.477-2.453z" fill="#FFF"/>
  </g>
  <g transform="translate(-3,-10)">
    <path d="M109.374 101.873c-1.342-1.634-2.013-3.624-2.013-5.967h3.305c0.14 1.629 0.445 2.812 0.914 3.55 0.82 1.325 2.303 1.987 4.447 1.987 1.664 0 3-0.446 4.008-1.336 1.008-0.89 1.512-2.04 1.512-3.446 0-1.734-0.53-2.947-1.59-3.638-1.061-0.692-2.535-1.037-4.422-1.037a23.75 23.75 0 0 0-1.3 0.035 v-2.795c0.328 0.035 0.603 0.059 0.826 0.07 0.222 0.012 0.462 0.018 0.72 0.018 1.184 0 2.156-0.188 2.918-0.563 1.336-0.656 2.004-1.828 2.004-3.515 0-1.254-0.445-2.221-1.336-2.9-0.89-0.68-1.928-1.02-3.111-1.02-2.11 0-3.568 0.703 -4.377 2.11-0.445 0.773 -0.697 1.874-0.756 3.304h-3.129c0-1.875 0.375 -3.469 1.125-4.781 1.29-2.344 3.557-3.516 6.803-3.516 2.566 0 4.553 0.571 5.959 1.714 1.406 1.142 2.11 2.798 2.11 4.966 0 1.547-0.417 2.8-1.249 3.761-0.515 0.598 -1.183 1.067-2.004 1.407 1.325 0.363 2.359 1.063 3.103 2.1 0.744 1.037 1.116 2.306 1.116 3.806 0 2.402-0.791 4.36-2.373 5.871-1.582 1.512-3.826 2.268-6.732 2.268-2.977 0-5.136-0.818-6.478-2.453zm19.617-3.893c0.78-1.606 2.3-3.065 4.562-4.377l3.375-1.951c1.511-0.88 2.572-1.63 3.181-2.25 0.961 -0.973 1.442-2.086 1.442-3.34 0-1.465-0.44-2.628-1.319-3.49-0.878-0.86-2.05-1.291-3.515-1.291-2.168 0-3.668 0.82 -4.5 2.46-0.446 0.88 -0.692 2.098-0.738 3.657h-3.217c0.035-2.192 0.44 -3.979 1.213-5.362 1.37-2.437 3.79-3.656 7.26-3.656 2.882 0 4.989 0.78 6.319 2.338 1.33 1.559 1.995 3.293 1.995 5.203 0 2.016-0.71 3.739-2.127 5.168-0.82 0.832 -2.291 1.84-4.412 3.024l-2.408 1.336c-1.149 0.632 -2.051 1.236-2.707 1.81-1.172 1.02-1.91 2.15-2.215 3.393h13.746v2.988h-17.28c0.118-2.168 0.566 -4.055 1.345-5.66z" fill="#FFF"/>
    <path d="M109.374 101.873c-1.342-1.634-2.013-3.624-2.013-5.967h3.305c0.14 1.629 0.445 2.812 0.914 3.55 0.82 1.325 2.303 1.987 4.447 1.987 1.664 0 3-0.446 4.008-1.336 1.008-0.89 1.512-2.04 1.512-3.446 0-1.734-0.53-2.947-1.59-3.638-1.061-0.692-2.535-1.037-4.422-1.037a23.75 23.75 0 0 0-1.3 0.035 v-2.795c0.328 0.035 0.603 0.059 0.826 0.07 0.222 0.012 0.462 0.018 0.72 0.018 1.184 0 2.156-0.188 2.918-0.563 1.336-0.656 2.004-1.828 2.004-3.515 0-1.254-0.445-2.221-1.336-2.9-0.89-0.68-1.928-1.02-3.111-1.02-2.11 0-3.568 0.703 -4.377 2.11-0.445 0.773 -0.697 1.874-0.756 3.304h-3.129c0-1.875 0.375 -3.469 1.125-4.781 1.29-2.344 3.557-3.516 6.803-3.516 2.566 0 4.553 0.571 5.959 1.714 1.406 1.142 2.11 2.798 2.11 4.966 0 1.547-0.417 2.8-1.249 3.761-0.515 0.598 -1.183 1.067-2.004 1.407 1.325 0.363 2.359 1.063 3.103 2.1 0.744 1.037 1.116 2.306 1.116 3.806 0 2.402-0.791 4.36-2.373 5.871-1.582 1.512-3.826 2.268-6.732 2.268-2.977 0-5.136-0.818-6.478-2.453zm19.617-3.893c0.78-1.606 2.3-3.065 4.562-4.377l3.375-1.951c1.511-0.88 2.572-1.63 3.181-2.25 0.961 -0.973 1.442-2.086 1.442-3.34 0-1.465-0.44-2.628-1.319-3.49-0.878-0.86-2.05-1.291-3.515-1.291-2.168 0-3.668 0.82 -4.5 2.46-0.446 0.88 -0.692 2.098-0.738 3.657h-3.217c0.035-2.192 0.44 -3.979 1.213-5.362 1.37-2.437 3.79-3.656 7.26-3.656 2.882 0 4.989 0.78 6.319 2.338 1.33 1.559 1.995 3.293 1.995 5.203 0 2.016-0.71 3.739-2.127 5.168-0.82 0.832 -2.291 1.84-4.412 3.024l-2.408 1.336c-1.149 0.632 -2.051 1.236-2.707 1.81-1.172 1.02-1.91 2.15-2.215 3.393h13.746v2.988h-17.28c0.118-2.168 0.566 -4.055 1.345-5.66z" fill="#FFF"/>
    <path d="M109.374 101.873c-1.342-1.634-2.013-3.624-2.013-5.967h3.305c0.14 1.629 0.445 2.812 0.914 3.55 0.82 1.325 2.303 1.987 4.447 1.987 1.664 0 3-0.446 4.008-1.336 1.008-0.89 1.512-2.04 1.512-3.446 0-1.734-0.53-2.947-1.59-3.638-1.061-0.692-2.535-1.037-4.422-1.037a23.75 23.75 0 0 0-1.3 0.035 v-2.795c0.328 0.035 0.603 0.059 0.826 0.07 0.222 0.012 0.462 0.018 0.72 0.018 1.184 0 2.156-0.188 2.918-0.563 1.336-0.656 2.004-1.828 2.004-3.515 0-1.254-0.445-2.221-1.336-2.9-0.89-0.68-1.928-1.02-3.111-1.02-2.11 0-3.568 0.703 -4.377 2.11-0.445 0.773 -0.697 1.874-0.756 3.304h-3.129c0-1.875 0.375 -3.469 1.125-4.781 1.29-2.344 3.557-3.516 6.803-3.516 2.566 0 4.553 0.571 5.959 1.714 1.406 1.142 2.11 2.798 2.11 4.966 0 1.547-0.417 2.8-1.249 3.761-0.515 0.598 -1.183 1.067-2.004 1.407 1.325 0.363 2.359 1.063 3.103 2.1 0.744 1.037 1.116 2.306 1.116 3.806 0 2.402-0.791 4.36-2.373 5.871-1.582 1.512-3.826 2.268-6.732 2.268-2.977 0-5.136-0.818-6.478-2.453zm19.617-3.893c0.78-1.606 2.3-3.065 4.562-4.377l3.375-1.951c1.511-0.88 2.572-1.63 3.181-2.25 0.961 -0.973 1.442-2.086 1.442-3.34 0-1.465-0.44-2.628-1.319-3.49-0.878-0.86-2.05-1.291-3.515-1.291-2.168 0-3.668 0.82 -4.5 2.46-0.446 0.88 -0.692 2.098-0.738 3.657h-3.217c0.035-2.192 0.44 -3.979 1.213-5.362 1.37-2.437 3.79-3.656 7.26-3.656 2.882 0 4.989 0.78 6.319 2.338 1.33 1.559 1.995 3.293 1.995 5.203 0 2.016-0.71 3.739-2.127 5.168-0.82 0.832 -2.291 1.84-4.412 3.024l-2.408 1.336c-1.149 0.632 -2.051 1.236-2.707 1.81-1.172 1.02-1.91 2.15-2.215 3.393h13.746v2.988h-17.28c0.118-2.168 0.566 -4.055 1.345-5.66z" fill="#FFF"/>
  </g>
</svg>
