<?xml version="1.0" ?>
<svg xmlns="http://www.w3.org/2000/svg" width="22" height="31" viewBox="0 0 22 31">
  <path d="M11.11 30.49H1.42a1.36 1.36 0 0 1-1.25-0.64A1.26 1.26 0 0 1 1 28a1.57 1.57 0 0 1 0.34 0 1.38 1.38 0 0 0 1.3-1.06c0.096-0.466 0.216 -0.927 0.36 -1.38a6.46 6.46 0 0 1 1.07-2 7 7 0 0 1 2.66-2.14A11 11 0 0 1 8.07 21a6.33 6.33 0 0 1 1.91-0.2h2.83a5.77 5.77 0 0 1 1.4 0.24 7 7 0 0 1 2.47 1.23 7.21 7.21 0 0 1 2.31 3c0.193 0.466 0.33 0.952 0.41 1.45A1.38 1.38 0 0 0 20.76 28 1.28 1.28 0 0 1 22 29.45a1.19 1.19 0 0 1-1.11 1H11.11v0.04zm-3-7.59a0.63 0.63 0 0 0-0.91-0.57 5.62 5.62 0 0 0-1.5 1A6.2 6.2 0 0 0 4 25.68a0.82 0.82 0 0 0-0.09 0.59 0.71 0.71 0 0 0 0.59 0.48 0.68 0.68 0 0 0 0.62-0.42c0-0.08 0.06 -0.17 0.09 -0.25a4.78 4.78 0 0 1 2.46-2.54 0.64 0.64 0 0 0 0.46-0.64h-0.02zM9.32 19.47v-0.2-17.5a1.65 1.65 0 0 1 0.94-1.59 1.66 1.66 0 0 1 2.33 0.91 c0.079 0.225 0.12 0.462 0.12 0.7 v17.47c0 0.2 0 0.2-0.21 0.2 H9.32v0.01z" fill="#FFF"/>
</svg>
