<?xml version="1.0" ?>
<svg xmlns="http://www.w3.org/2000/svg" width="37" height="36" viewBox="0 0 37 36">
  <path d="M17.67 23l-1-0.32-1.67-0.49-1.35-0.42a0.45 0.45 0 0 1-0.19-0.14c-0.34-0.45-0.68-0.89-1-1.35A0.71 0.71 0 0 0 12 20a6.34 6.34 0 0 1-0.75-0.23l0.63-0.26 1.84-0.61c0.3-0.092 0.603 -0.169 0.91 -0.23 0.07 0 0.17 0.06 0.24 0.11 a6.59 6.59 0 0 0 1.94 1c0.535 0.18 1.088 0.3 1.65 0.36 a6.69 6.69 0 0 0 1.79 0 7.12 7.12 0 0 0 3.24-1.36c0.21-0.17 0.39 -0.06 0.56 0 0.53 0.13 1.05 0.29 1.57 0.44 0.232 0.068 0.459 0.152 0.68 0.25 0.05 0 0.09 0.14 0.09 0.22 v2.56c0.01 0.12 0.01 0.24 0 0.36 0 0.06-0.08 0.16 -0.14 0.17 a3.14 3.14 0 0 0-2.17 1.63 6.74 6.74 0 0 0-0.73 1.85 16.55 16.55 0 0 0-0.35 4.49A2.34 2.34 0 0 0 24.48 33a5 5 0 0 0 0.79 0.14 1 1 0 0 1 0.31 0.1 0.71 0.71 0 0 0 1-0.23 0.66 0.66 0 0 0-0.3-1 0.78 0.78 0 0 0-0.58 0 1 1 0 0 1-1 0 1.38 1.38 0 0 1-0.83-1.31v-2.14c0.046-0.91 0.204 -1.81 0.47 -2.68A4 4 0 0 1 25.47 24a2 2 0 0 1 1.79-0.47A2.3 2.3 0 0 1 29 25a7.12 7.12 0 0 1 0.58 1.74 17.89 17.89 0 0 1 0.33 3.93 1.49 1.49 0 0 1-1.08 1.45 0.87 0.87 0 0 1-0.7-0.07 0.68 0.68 0 0 0-0.93 0.25 0.69 0.69 0 0 0 0.28 1 0.75 0.75 0 0 0 0.7 0 0.92 0.92 0 0 1 0.33-0.11 2.29 2.29 0 0 0 2-1.32 3.2 3.2 0 0 0 0.27-1.64c0-0.42 0-0.85-0.07-1.27-0.06-0.57-0.12-1.14-0.22-1.7a14.06 14.06 0 0 0-0.42-1.7 4.12 4.12 0 0 0-1.66-2.37 2.5 2.5 0 0 0-1-0.37 0.25 0.25 0 0 1-0.16-0.17v-2.66a0.26 0.26 0 0 1 0-0.1c0.22 0.09 0.45 0.17 0.67 0.27 a22 22 0 0 1 3.3 1.81 12.79 12.79 0 0 1 4.31 4.61 8 8 0 0 1 0.76 2c0.106 0.425 0.186 0.856 0.24 1.29a2.31 2.31 0 0 1-1 2.24 15.31 15.31 0 0 1-3.63 1.84c-0.81 0.28 -1.62 0.55 -2.44 0.79 -0.82 0.24 -1.48 0.38 -2.22 0.53 -0.54 0.12 -1.09 0.19 -1.63 0.26 -0.77 0.11 -1.54 0.21 -2.32 0.3 -0.37 0-0.75 0.07 -1.12 0.08 -1.42 0-2.83 0.08 -4.25 0.07 -0.92 0-1.85-0.08-2.77-0.15-0.71-0.06-1.41-0.15-2.12-0.24-0.5-0.06-1-0.15-1.5-0.23-0.25 0-0.26-0.06-0.24-0.32 0-0.56 0.06 -1.13 0.1 -1.69l0.21-2.8v-0.83c0-0.28 0.06 -0.23 0.24 -0.23 0.58 0 1.16 0 1.74-0.09a3.27 3.27 0 0 0 2.21-1.32 7.41 7.41 0 0 0 1.29-2.59c0.15-0.57 0.27 -1.15 0.4 -1.72 0.11 -0.25 0.14 -0.47 0.19 -0.77zM10.26 9.16c0-0.52 0.05 -1.05 0.14 -1.56a9.42 9.42 0 0 1 1.46-3.7 9 9 0 0 1 3.29-3A8.69 8.69 0 0 1 17 0.24 8.49 8.49 0 0 1 19.29 0a8.2 8.2 0 0 1 2.5 0.47 8.58 8.58 0 0 1 3.34 2.15 8.81 8.81 0 0 1 2 3.21c0.304 0.831 0.499 1.699 0.58 2.58a8.6 8.6 0 0 1 0 2 9.2 9.2 0 0 1-3.57 6.2A8.27 8.27 0 0 1 21.39 18a8.05 8.05 0 0 1-3.12 0.31 8.53 8.53 0 0 1-5.78-3 9.28 9.28 0 0 1-1.69-2.94 7.55 7.55 0 0 1-0.43-1.88c-0.03-0.49-0.07-0.89-0.11-1.33z" fill="#FFF"/>
  <path d="M16.05 23.93a7.21 7.21 0 0 1-0.21 0.86 17.73 17.73 0 0 1-0.7 1.75A2.48 2.48 0 0 1 14 27.82a2.5 2.5 0 0 1-1 0.18c-0.8 0-1.6 0-2.4-0.05h-0.23c0 0.11-0.05 0.21 -0.06 0.31 0 0.54-0.06 1.08-0.1 1.62-0.07 1-0.14 1.91-0.22 2.87 0 0.42-0.06 0.84 -0.08 1.26-0.02 0.42 -0.07 1.08-0.1 1.62 0 0.17-0.06 0.25 -0.25 0.25 H3.07A3 3 0 0 1 0.25 34a2.89 2.89 0 0 1 0-2.39c0.31-0.76 0.61 -1.52 0.91 -2.29l0.75-1.93c0.27-0.644 0.475 -1.314 0.61 -2 0.09-0.53 0.24 -1.05 0.36 -1.57s0.17-0.82 0.26 -1.23c0.09-0.41 0.2 -0.82 0.29 -1.23 0.09 -0.41 0.17 -0.8 0.26 -1.21 0.09 -0.41 0.2 -0.84 0.29 -1.26 0.09 -0.42 0.19 -0.85 0.29 -1.32l0.36 0.46 L6 20a0.44 0.44 0 0 0 0.34 0.19 c0.39 0 0.79 0.14 1.18 0.2 l0.54 0.07 1.11-2.75h0.05c0.12 0.34 0.23 0.69 0.35 1 0.17 0.53 0.35 1.06 0.53 1.59 0.041 0.11 0.075 0.224 0.1 0.34a0.4 0.4 0 0 0 0.33 0.36 c0.24 0.05 0.47 0.1 0.71 0.17 a0.44 0.44 0 0 1 0.23 0.15 c0.34 0.44 0.68 0.87 1 1.33 0.16 0.24 0.41 0.26 0.64 0.33 0.48 0.17 1 0.32 1.47 0.47 l1.47 0.48 zm-7.31 0a0.49 0.49 0 0 0 0.53-0.49 0.6 0.6 0 0 0-0.57-0.56 0.49 0.49 0 0 0-0.5 0.48 0.52 0.52 0 0 0 0.54 0.56 v0.01z" fill="#FFF"/>
  <path d="M8.74 23.92a0.52 0.52 0 0 1-0.54-0.57 0.49 0.49 0 0 1 0.5-0.48 0.6 0.6 0 0 1 0.57 0.56 0.49 0.49 0 0 1-0.53 0.49 z" fill="#FFF"/>
</svg>
