<?xml version="1.0" ?>
<svg xmlns="http://www.w3.org/2000/svg" width="41" height="37" viewBox="0 0 41 37">
  <path d="M8.83 36.71h7.57a13.07 13.07 0 0 0 1.53-0.08 3.44 3.44 0 0 0 2.53-1.55c0.75-1.1 1.51-2.19 2.25-3.29 1.15-1.68 2.28-3.36 3.42-5.05 0.9 -1.33 1.81-2.66 2.7-4l3.68-5.49 4.32-6.44c1.25-1.86 2.49-3.74 3.74-5.6 0.12 -0.18 0-0.26-0.08-0.35-0.67-0.48-1.33-1-2-1.42-1.33-0.9-2.68-1.78-4-2.67-0.16-0.12-0.25-0.09-0.35 0.05 -0.58 0.87 -1.17 1.73-1.75 2.59l-2.72 4-3.11 4.62c-1.06 1.6-2.127 3.193-3.2 4.78l-2.7 4-3.75 5.54a17.66 17.66 0 0 1-1.05 1.51 4.26 4.26 0 0 1-0.92 0.69 1.17 1.17 0 0 1-0.69 0.2 l-11 0.05H1.12a1.17 1.17 0 0 0-1.06 1C0 31.72 0 33.53 0 35.34a1.38 1.38 0 0 0 0.85 1.27 0.69 0.69 0 0 0 0.25 0l7.73 0.1 z" fill="#FFF"/>
  <path d="M22.12 4.43v3a2 2 0 0 1-0.32 1.15c-0.75 1.15-1.48 2.31-2.22 3.47a1.45 1.45 0 0 1-0.63 0.44 c-1.3 0.74 -2.6 1.47-3.88 2.23a1.83 1.83 0 0 0-0.56 0.61 541.305 541.305 0 0 0-3 4.58c-0.17 0.26 -0.3 0.54 -0.47 0.8 a1 1 0 0 0 0 0.89 1.64 1.64 0 0 0 1.52 1.15 1.25 1.25 0 0 0 1.15-0.6l1.67-2.49c0.45-0.66 0.89 -1.33 1.31-2a1.71 1.71 0 0 1 0.92-0.69l4-1.53c0.33-0.13 0.66 -0.28 1-0.42a2.78 2.78 0 0 0 1.13-1.22c1.05-1.8 2.17-3.54 3.26-5.32a2.49 2.49 0 0 0 0.45-1.26 2 2 0 0 0-0.71-1.56 2.27 2.27 0 0 0-2-0.62c-0.17 0-0.17-0.07-0.17-0.19V1.98a9.18 9.18 0 0 0-0.05-1.17 0.81 0.81 0 0 0-0.47-0.62 1.22 1.22 0 0 0-1.65 0.32 0.77 0.77 0 0 0-0.17 0.49 c-0.05 1.27-0.08 2.55-0.11 3.43z" fill="#FFF"/>
  <path d="M25.8 2.56a2.32 2.32 0 0 0 2.26 2.28 2.29 2.29 0 0 0 2.37-2.33 2.32 2.32 0 0 0-4.63 0.05 z" fill="#FFF"/>
</svg>
