<?xml version="1.0" ?>
<svg xmlns="http://www.w3.org/2000/svg" width="29" height="36" viewBox="0 0 29 36">
  <path d="M28.13 17.63v12.83a10.86 10.86 0 0 1-0.13 2.07A3.22 3.22 0 0 1 25.94 35a3 3 0 0 1-1.1 0.24 H3.41a3.43 3.43 0 0 1-3.35-2.86 11.37 11.37 0 0 1 0-1.75V15.91C0.02 11.81 0 7.71 0 3.61a3.47 3.47 0 0 1 0.73-2.26A3.22 3.22 0 0 1 3.32 0h21.3a3.4 3.4 0 0 1 2.89 1.47 3 3 0 0 1 0.6 1.76v14.4h0.02zM14.05 5.18H5.49c-0.28 0-0.3 0-0.3 0.32 v11.84c0 0.3 0 0.31 0.31 0.31h4.71c0.41 0 0.41 0 0.41-0.4v-4.62c0-0.22 0.07 -0.3 0.29 -0.29 0.22 0.01 0.68 0 1 0h5.4c0.33 0 0.33 0 0.33-0.34V9c0-0.33 0-0.33-0.33-0.33h-3c-0.2 0-0.25-0.08-0.25-0.26V7.23c0-0.18 0.07 -0.23 0.25 -0.23h4.71c0.19 0 0.25 0.06 0.25 0.25 v6.41c0 0.31 0 0.31-0.32 0.31 h-6.39c-0.31 0-0.32 0-0.32 0.32 v3c0 0.31 0 0.32 0.31 0.32h10.07c0.32 0 0.34 0 0.34-0.33V5.49c0-0.28-0.05-0.33-0.33-0.33H17.1l-3.05 0.02 zM3.44 26.44v1.5c0 0.31 0 0.32 0.32 0.32h2.91c0.21 0 0.28 0.08 0.28 0.27 a2.43 2.43 0 0 0 0 0.27v2.68c0 0.31 0 0.34 0.34 0.34h3c0.36 0 0.38 0 0.38-0.39v-2.87c0-0.29 0-0.3 0.29 -0.3h2.89c0.31 0 0.32 0 0.32-0.32v-1.39-1.66c0-0.2-0.08-0.28-0.27-0.27a2.08 2.08 0 0 1-0.25 0h-2.64c-0.32 0-0.33 0-0.33-0.33v-2.91c0-0.28 0-0.31-0.29-0.31H7.26c-0.3 0-0.33 0-0.33 0.35 v2.93c0 0.14 0 0.22-0.21 0.22 H3.69c-0.18 0-0.25 0.07 -0.25 0.25 0.01 0.57 0 1.09 0 1.62zm14.09 1.79a1.83 1.83 0 1 0 1.88-1.85 1.84 1.84 0 0 0-1.88 1.85zm7.17-3.53a1.81 1.81 0 1 0-3.62 0 1.84 1.84 0 0 0 1.8 1.77 1.8 1.8 0 0 0 1.82-1.77z" fill="#FFF"/>
  <path d="M14.05 5.18h8.58c0.28 0 0.33 0 0.33 0.33 v11.81c0 0.32 0 0.33-0.34 0.33 H12.55c-0.3 0-0.31 0-0.31-0.32v-3c0-0.31 0-0.32 0.32 -0.32H19c0.32 0 0.32 0 0.32-0.31v-4-2.41c0-0.19-0.06-0.25-0.25-0.25h-4.71c-0.18 0-0.25 0-0.25 0.23 v1.18c0 0.18 0.05 0.27 0.25 0.26h3c0.32 0 0.33 0 0.33 0.33 v3c0 0.33 0 0.34-0.33 0.34 h-6.4c-0.32 0-0.29 0.07 -0.29 0.29 v4.62c0 0.4 0 0.4-0.41 0.4 H5.5c-0.31 0-0.31 0-0.31-0.31V5.5c0-0.3 0-0.32 0.3 -0.32h8.56zM10.5 7.87v-0.66c0-0.06-0.09-0.16-0.14-0.16H8.97a0.2 0.2 0 0 0-0.14 0.14 v1.39c0 0.05 0.08 0.14 0.13 0.14h1.41c0.05 0 0.14-0.1 0.14 -0.16 0-0.23-0.01-0.46-0.01-0.69zM3.44 26.44v-1.58c0-0.18 0.07 -0.25 0.25 -0.25H6.72c0.16 0 0.21-0.08 0.21 -0.22v-2.96c0-0.32 0-0.35 0.33 -0.35h3.06c0.27 0 0.29 0 0.29 0.31 v2.91c0 0.32 0 0.33 0.33 0.33h2.64c0.083 0.005 0.167 0.005 0.25 0 0.19 0 0.27 0.07 0.27 0.27 v3.05c0 0.46 0 0.32-0.32 0.32 h-2.89c-0.29 0-0.29 0-0.29 0.3 v2.87c0 0.37 0 0.39-0.38 0.39 h-3c-0.31 0-0.34 0-0.34-0.34v-2.68a2.43 2.43 0 0 1 0-0.27c0-0.19-0.07-0.27-0.28-0.27H3.76c-0.32 0-0.32 0-0.32-0.32v-1.51zM17.53 28.23a1.83 1.83 0 1 1 3.66 0 1.83 1.83 0 0 1-3.66 0zM24.7 24.7a1.8 1.8 0 0 1-1.82 1.8 1.84 1.84 0 0 1-1.8-1.77 1.81 1.81 0 1 1 3.62 0v-0.03z" fill="#224099"/>
  <path d="M10.5 7.87v0.69c0 0.06-0.09 0.16 -0.14 0.16 H8.94s-0.13-0.09-0.13-0.14V7.19A0.2 0.2 0 0 1 9 7.05h1.39c0.05 0 0.13 0.1 0.14 0.16 v0.66h-0.03z" fill="#FFF"/>
</svg>
