<?xml version="1.0" ?>
<svg xmlns="http://www.w3.org/2000/svg" width="44" height="26" viewBox="0 0 44 26">
  <path d="M24 1.94h0.14c0.39 0 0.77 0.18 1.17 0a0.89 0.89 0 0 0 0.52-0.79 0.84 0.84 0 0 0-0.62-0.74L24 0.3 22.14 0.11 c-0.27 0-0.53-0.08-0.8-0.1a1.85 1.85 0 0 0-0.6 0 0.76 0.76 0 0 0-0.49 0.91 0.81 0.81 0 0 0 0.7 0.62 l0.84 0.09 c0.11 0 0.17 0.06 0.15 0.18 -0.06 0.29 -0.13 0.57 -0.2 0.86 L21.44 4c-0.1 0.44 -0.19 0.88 -0.29 1.32l-0.31 1.35L20.57 8l-0.31 1.4-0.26 1.28-0.31 1.4-0.21 1H1.29c-0.38 0-0.38 0-0.38 0.38 v9.16a4 4 0 0 0 0.3 1.69 2.65 2.65 0 0 0 2 1.57 6.76 6.76 0 0 0 1.32 0.12 h36.78c0.234 0.003 0.467-0.03 0.69 -0.1a1.91 1.91 0 0 0 1.21-1.27 6.36 6.36 0 0 0 0.34-2.14v-9.14-0.25h-20.5c0-0.53 0.07 -1 0.11-1.53 0.07 -0.8 0.16 -1.6 0.23 -2.4 0-0.51 0.07 -1 0.11-1.54 0-0.35 0.06 -0.7 0.09 -1.06 0.08 -0.84 0.16 -1.67 0.23 -2.51 0-0.49 0.07 -1 0.11-1.46 0.01 -0.25 0.07 -0.45 0.07 -0.66zM35.57 2c-0.25 0-0.47-0.08-0.7-0.09a7.84 7.84 0 0 0-4.28 0.95 c-0.15 0.08 -0.18 0.17 -0.09 0.34 a7.51 7.51 0 0 1 0.89 3.49c0 0.5-0.05 1-0.09 1.5 0 0.17 0.05 0.23 0.21 0.26 0.42 0.09 0.84 0.2 1.27 0.3 l1 0.21c0.12 0 0.17 0 0.2-0.14 0.08 -0.4 0.18 -0.79 0.28 -1.19 0.1 -0.4 0.27 -1 0.39-1.57 0.12 -0.57 0.2 -1.06 0.35 -1.57 0.15 -0.51 0.32 -1.28 0.48 -1.92 0.02 -0.17 0.05 -0.36 0.09 -0.57zm-0.89 7.2l0.5 0.11 1.49 0.37 s0.12-0.05 0.15 -0.1c0.04-0.076 0.07 -0.157 0.09 -0.24a7.39 7.39 0 0 1 1.85-3c0.51-0.5 1.1-0.92 1.67-1.39l-0.09-0.12a7.44 7.44 0 0 0-2.82-2.23 10 10 0 0 0-1-0.36c-0.14 0-0.22 0-0.24 0.16 -0.02 0.16 -0.12 0.56 -0.19 0.84 l-0.32 1.29-0.28 1.19L35.21 7l-0.3 1.25c-0.08 0.3 -0.15 0.61 -0.23 0.96 V9.2zm7.14 1.71a4.31 4.31 0 0 0 0.1-0.57 9 9 0 0 0-0.14-2.47A8.29 8.29 0 0 0 41 5.84c-0.07-0.12-0.13-0.13-0.23-0.06-0.32 0.23 -0.66 0.43 -1 0.68a7 7 0 0 0-2.15 3.16c-0.09 0.28 -0.08 0.31 0.14 0.36 l1.23 0.28 2.26 0.57 0.57 0.08 zM29.73 3.46a2.42 2.42 0 0 0-0.27 0.17 7.82 7.82 0 0 0-2.31 3.26c0 0.13-0.14 0.3 -0.09 0.4 0.05 0.1 0.24 0.12 0.37 0.17 l1.57 0.4 1.27 0.31 c0.14 0 0.2 0 0.22-0.14 0-0.3 0.07 -0.6 0.08 -0.91a7.49 7.49 0 0 0-0.88-3.66h0.04zm-2.9 4.68a5 5 0 0 0-0.1 0.54 8.37 8.37 0 0 0 0.34 3.26c0.11 0.33 0.1 0.33 0.45 0.33 0.17 0.011 0.34 0.011 0.51 0a0.64 0.64 0 0 0 0.33-0.13A6.91 6.91 0 0 0 30 9.78c0.11-0.25 0.19 -0.52 0.29 -0.79l-3.46-0.85zm2.58 4.07v0.05H33c0.06 0 0.15-0.09 0.16 -0.15 0.07 -0.26 0.13 -0.52 0.19 -0.78 0.1 -0.41 0.18 -0.82 0.29 -1.23 0.11 -0.41 0.07 -0.33-0.23-0.39-0.3-0.06-0.84-0.2-1.27-0.31l-0.9-0.21c-0.1 0-0.16 0-0.2 0.12 a8.15 8.15 0 0 1-1.27 2.44l-0.36 0.46 zM4 6.82a1.4 1.4 0 0 0-1.44 1.39A1.38 1.38 0 0 0 3.94 9.6 1.39 1.39 0 0 0 4 6.82zm32.59 3.69l-0.29-0.09c-0.54-0.13-1.08-0.24-1.62-0.38-0.15 0-0.18 0-0.21 0.13 -0.1 0.42 -0.21 0.84 -0.32 1.26-0.07 0.27 -0.12 0.54 -0.18 0.84 h2c0.46 0 0.45 0 0.48-0.45 0.03 -0.45 0.08 -0.82 0.11 -1.31h0.03zm5.06 1.2l-1.29-0.29-1.08-0.26c-0.52-0.13-1-0.28-1.57-0.39-0.57-0.11-0.34 0-0.35 0.27 v0.19c0 0.35 0 0.7-0.06 1.06h4.1a0.17 0.17 0 0 0 0.14-0.08c-0.01-0.21 0.03 -0.33 0.08 -0.5h0.03z" fill="#FFF"/>
  <path d="M24 1.94c0 0.21-0.07 0.41 -0.09 0.61 0 0.49-0.07 1-0.11 1.46-0.07 0.84 -0.15 1.67-0.23 2.51 0 0.35-0.06 0.7 -0.09 1.06 0 0.51-0.06 1-0.11 1.54-0.07 0.8 -0.15 1.6-0.23 2.4 0 0.5-0.07 1-0.11 1.53h20.5v9.39a6.36 6.36 0 0 1-0.34 2.14A1.91 1.91 0 0 1 42 25.85a2.22 2.22 0 0 1-0.69 0.1 H4.53a6.76 6.76 0 0 1-1.33-0.09 2.65 2.65 0 0 1-2-1.57 4 4 0 0 1-0.3-1.69v-9.16c0-0.38 0-0.38 0.38 -0.38h18.16l0.21-1 0.31-1.4 0.28 -1.28 0.33 -1.38 0.28 -1.3 0.31 -1.35c0.1-0.44 0.19 -0.88 0.29 -1.32l0.3-1.33c0.07-0.29 0.13 -0.57 0.2 -0.86 0-0.12 0-0.17-0.15-0.18l-0.8-0.09a0.81 0.81 0 0 1-0.7-0.62 0.76 0.76 0 0 1 0.44-0.95 1.85 1.85 0 0 1 0.6 0c0.27 0 0.53 0.07 0.8 0.1 L24 0.3l1.26 0.16 a0.84 0.84 0 0 1 0.62 0.74 0.89 0.89 0 0 1-0.52 0.79 c-0.4 0.15 -0.78 0-1.17 0L24 1.94z" fill="#FFF"/>
  <path d="M0 4.91l2.62-3.1 1.27 1.07c0.41 0.35 0.82 0.69 1.23 1a0.32 0.32 0 0 0 0.43 0C6.42 3.5 7.31 3 8.18 2.57a0.29 0.29 0 0 1 0.39 0.06 l2.1 1.77 3.73 3.15c1 0.84 2 1.68 3 2.51a0.39 0.39 0 0 1 0.12 0.51 l-0.48 1.41-0.11 0.3 H9a0.59 0.59 0 0 1-0.41-0.15c-0.9-0.753-1.807-1.52-2.72-2.3-0.17-0.14-0.18-0.23-0.06-0.41a2.17 2.17 0 0 0-1-3.23 2.19 2.19 0 0 0-2.41 0.46 c-0.09 0.09 -0.16 0.12 -0.28 0C1.48 6.11 0.83 5.55 0.17 5A1 1 0 0 0 0 4.91zM10 8c0.48-0.57 0.95 -1.13 1.42-1.68 0.12 -0.13 0.09 -0.2 0-0.3-0.39-0.32-0.77-0.65-1.15-1L8.48 3.61l-0.14 0.15 -1.25 1.48c-0.16 0.19 -0.16 0.22 0 0.38L9 7.24 10 8zm1.26 1v0.05l2.9 2.47c0.09 0.08 0.17 0.06 0.25 0l1.42-1.68-0.12-0.13-2.81-2.37c-0.11-0.1-0.16-0.06-0.23 0l-0.85 1-0.56 0.66 zM35.57 2c0 0.2-0.07 0.38 -0.11 0.56 l-0.48 1.92c-0.16 0.64 -0.24 1.05-0.37 1.58s-0.26 1-0.39 1.57c-0.13 0.57 -0.2 0.79 -0.28 1.19 0 0.13-0.08 0.17 -0.2 0.14 l-1-0.21c-0.42-0.1-0.84-0.22-1.27-0.3-0.16 0-0.23-0.09-0.21-0.26 0-0.5 0.09 -1 0.09-1.5a7.51 7.51 0 0 0-0.85-3.49c-0.08-0.17-0.06-0.25 0.09 -0.34a7.84 7.84 0 0 1 4.28-0.95c0.23 0.02 0.45 0.09 0.7 0.09 zM34.68 9.21c0.08-0.35 0.15 -0.66 0.23 -1l0.3-1.21 0.31 -1.27 0.28 -1.19 0.32 -1.29c0.07-0.28 0.14 -0.56 0.19 -0.84 0.05 -0.28 0.1 -0.21 0.24 -0.16a10 10 0 0 1 1 0.36 7.44 7.44 0 0 1 2.82 2.24l0.09 0.12 c-0.57 0.47 -1.16 0.89 -1.67 1.39a7.39 7.39 0 0 0-1.85 3 1.07 1.07 0 0 1-0.09 0.24 s-0.11 0.11 -0.15 0.1 l-1.49-0.37-0.53-0.12zM41.82 10.92l-0.51-0.1-2.31-0.57-1.19-0.25c-0.22 0-0.24-0.08-0.14-0.36a7 7 0 0 1 2.15-3.16c0.3-0.25 0.63 -0.45 1-0.68 0.1 -0.07 0.17 -0.06 0.23 0.06a8.29 8.29 0 0 1 0.77 2.05 9 9 0 0 1 0.14 2.47 4.31 4.31 0 0 1-0.14 0.54 zM29.73 3.46a7.49 7.49 0 0 1 0.88 3.66c0 0.3-0.05 0.61 -0.08 0.91 0 0.13-0.07 0.18 -0.22 0.14 L29 7.86l-1.59-0.39c-0.13-0.05-0.32-0.08-0.37-0.17-0.05-0.09 0-0.27 0.09 -0.4a7.82 7.82 0 0 1 2.31-3.26 2.42 2.42 0 0 1 0.29-0.18zM26.83 8.15L30.3 9c-0.1 0.28 -0.18 0.54 -0.29 0.79 a6.91 6.91 0 0 1-1.66 2.36 0.64 0.64 0 0 1-0.33 0.13 3.92 3.92 0 0 1-0.51 0c-0.35 0-0.34 0-0.45-0.33a8.37 8.37 0 0 1-0.34-3.26 5 5 0 0 1 0.11-0.54zM29.41 12.22l0.36-0.45A8.15 8.15 0 0 0 31 9.34c0-0.12 0.09 -0.15 0.2 -0.12l0.9 0.21 c0.42 0.1 0.84 0.22 1.27 0.31 0.43 0.09 0.31 0.08 0.23 0.39 -0.08 0.31 -0.19 0.82 -0.29 1.23-0.06 0.26 -0.11 0.52 -0.19 0.78 0 0.06-0.11 0.15 -0.16 0.15 h-3.51l-0.04-0.07z" fill="#FFF"/>
  <path d="M4 6.82A1.39 1.39 0 0 1 4 9.6a1.38 1.38 0 0 1-1.38-1.4A1.4 1.4 0 0 1 4 6.82zM36.56 10.51c0 0.45-0.06 0.88 -0.09 1.32-0.03 0.44 0 0.45-0.48 0.45 h-2c0.07-0.3 0.12 -0.57 0.18 -0.84 0.1 -0.42 0.22 -0.84 0.32 -1.26 0-0.13 0.06 -0.17 0.21 -0.13 0.54 0.14 1.08 0.25 1.62 0.38 l0.24 0.08 zM41.62 11.71c0 0.18-0.09 0.34 -0.14 0.49 a0.17 0.17 0 0 1-0.14 0.08 h-4.1c0-0.36 0-0.71 0.06 -1.06v-0.19c0-0.3 0-0.34 0.35 -0.27s1 0.26 1.57 0.39 l1.08 0.26 1.32 0.3 z" fill="#FFF"/>
</svg>
