<?xml version="1.0" ?>
<svg xmlns="http://www.w3.org/2000/svg" width="33" height="37" viewBox="0 0 33 37">
  <path d="M11.7 7.2l-1 0.68a10.09 10.09 0 0 0-2 1.87 0.34 0.34 0 0 1-0.23 0.11 5.1 5.1 0 0 0-3.92 1.85 5.06 5.06 0 0 0-1.15 3.83 5.11 5.11 0 0 0 3.07 4.11A4.77 4.77 0 0 0 8.6 20a5 5 0 0 0 4.52-3 3.93 3.93 0 0 0 0.41-1.77 1.67 1.67 0 0 1 0.39-1.09 3.38 3.38 0 0 1 1.84-1.26c0.24-0.05 0.485 -0.08 0.73 -0.09a0.19 0.19 0 0 1 0.14 0.1 c0.21 0.772 0.3 1.57 0.27 2.37a8.75 8.75 0 0 1-0.31 2A8.42 8.42 0 0 1 15.23 20a8.31 8.31 0 0 1-3.08 2.56c-0.42 0.19 -0.86 0.34 -1.3 0.5 a0.18 0.18 0 0 0-0.14 0.19 v3.05a0.84 0.84 0 0 0 0.81 0.78 h2.68a0.89 0.89 0 0 1 0.88 0.88 v2.91a0.88 0.88 0 0 1-0.87 0.86 h-2.67a0.91 0.91 0 0 0-0.84 0.86 v2.68a0.87 0.87 0 0 1-0.85 0.84 H7.13a0.87 0.87 0 0 1-0.91-0.91v-2.58a0.82 0.82 0 0 0-0.58-0.84 0.7 0.7 0 0 0-0.29 0H2.76a0.86 0.86 0 0 1-0.91-0.9v-2.84a0.85 0.85 0 0 1 0.91-0.9h2.56a0.88 0.88 0 0 0 0.9-0.9v-2.82c0-0.2-0.06-0.27-0.26-0.33a7.72 7.72 0 0 1-2-0.92A8.49 8.49 0 0 1 0.87 18.7a7.73 7.73 0 0 1-0.6-1.65A8.52 8.52 0 0 1 0 14.92a8.2 8.2 0 0 1 0.27-2 8.41 8.41 0 0 1 5-5.74 8.24 8.24 0 0 1 1.51-0.48 10.17 10.17 0 0 1 1.65-0.19 6.53 6.53 0 0 1 1.25 0.11 c0.452 0.075 0.9 0.175 1.34 0.3 0.218 0.062 0.432 0.139 0.64 0.23 0 0 0.03 0.03 0.04 0.05 z" fill="#FFF"/>
  <path d="M8.49 18.37a8.09 8.09 0 0 1-0.3-2.55c0.039-0.49 0.102 -0.977 0.19 -1.46a7.52 7.52 0 0 1 0.93-2.45 8.35 8.35 0 0 1 4-3.57 8.66 8.66 0 0 1 4.15-0.64 8 8 0 0 1 3.12 1 0.26 0.26 0 0 0 0.42-0.1l3.8-3.85a1 1 0 0 0 0.35-0.63 0.89 0.89 0 0 0-0.3-0.74c-0.64-0.63-1.27-1.28-1.92-1.91a0.82 0.82 0 0 1 0.15-1.35 0.84 0.84 0 0 1 0.41-0.12h8.38a0.86 0.86 0 0 1 0.85 0.85 v8.37a0.81 0.81 0 0 1-0.49 0.77 0.75 0.75 0 0 1-0.93-0.17c-0.66-0.65-1.32-1.29-2-1.95a0.92 0.92 0 0 0-1.32 0c-1.29 1.31-2.6 2.61-3.91 3.91a0.21 0.21 0 0 0-0.05 0.31 7.77 7.77 0 0 1 0.7 1.72 8.41 8.41 0 0 1 0.33 2.54 9.78 9.78 0 0 1-0.25 1.78 8.34 8.34 0 0 1-2.78 4.46 7.94 7.94 0 0 1-2.54 1.46 6 6 0 0 1-1.76 0.42 15.14 15.14 0 0 1-2 0 7.28 7.28 0 0 1-2.21-0.47h-0.06l-0.08-0.06 0.63 -0.39a10 10 0 0 0 2.36-2.14 0.36 0.36 0 0 1 0.27-0.14 5.05 5.05 0 0 0 4.27-2.32c0.33-0.5 0.563 -1.055 0.69 -1.64a4.64 4.64 0 0 0 0.12-1.57 5.07 5.07 0 0 0-3.17-4.3 5.3 5.3 0 0 0-1.36-0.33 5 5 0 0 0-3 0.62 5 5 0 0 0-2.23 2.48 4.11 4.11 0 0 0-0.37 1.79 1.33 1.33 0 0 1-0.24 0.8 3.3 3.3 0 0 1-2 1.46c-0.26 0.01 -0.55 0.05 -0.85 0.11 z" fill="#FFF"/>
</svg>
