<?xml version="1.0" ?>
<svg xmlns="http://www.w3.org/2000/svg" width="26" height="36" viewBox="0 0 26 36">
  <path d="M0.7 7.34l0.68 0.27 c0.11 0.033 0.218 0.076 0.32 0.13 0.14 0.09 0.2 0 0.25-0.11l0.76-1.84c0-0.12 0.1 -0.15 0.22 -0.1l1.8 0.75 c0.22 0.09 0.23 0.09 0.33-0.13 0.24 -0.59 0.49 -1.18 0.72 -1.77 0.06 -0.14 0.12 -0.18 0.28 -0.11l1.84 0.77 c0.11 0 0.17 0 0.21-0.09l0.39-0.93A0.8 0.8 0 0 1 8.58 4c0.07 0.23 0.14 0.41 0.19 0.59 A6.28 6.28 0 0 1 9 6.51 4.81 4.81 0 0 1 7.76 9.7a0.28 0.28 0 0 0-0.07 0.37 0.35 0.35 0 0 1-0.05 0.39 0.3 0.3 0 0 0 0 0.34c0.86 1.94 1.73 3.87 2.59 5.8l2.35 5.29a1.11 1.11 0 0 1-0.62 1.53 1.14 1.14 0 0 1-1.47-0.69L8 16.29c-0.62-1.63-1.25-3.29-1.87-4.88a0.3 0.3 0 0 0-0.26-0.22 0.39 0.39 0 0 1-0.34-0.29 0.2 0.2 0 0 0-0.21-0.15 5.27 5.27 0 0 1-4.19-2.6 7.94 7.94 0 0 1-0.4-0.7 0.6 0.6 0 0 1-0.03-0.11zM17 18.79v0.95c0 0.28 0 0.28 0.28 0.28h1.87c0.17 0 0.21 0 0.21 0.21 v1.93c0 0.22 0 0.23 0.22 0.23h1.93c0.18 0 0.22 0.05 0.22 0.22 v1.91c0 0.23 0 0.23 0.23 0.23H23a0.82 0.82 0 0 1-0.14 0.16 A6.43 6.43 0 0 1 20 26.37a4.61 4.61 0 0 1-2.52-0.22 0.19 0.19 0 0 0-0.24 0.06 0.45 0.45 0 0 1-0.48 0.14 0.37 0.37 0 0 0-0.28 0.12 L14.06 29l-5.94 6.23a1.19 1.19 0 0 1-0.84 0.41 A1.15 1.15 0 0 1 6.22 35a1.1 1.1 0 0 1 0.24-1.25c0.34-0.34 0.69 -0.66 1-1l7.72-7.32a0.46 0.46 0 0 0 0.19-0.46 0.39 0.39 0 0 1 0.11-0.32 0.29 0.29 0 0 0 0.07-0.36 4.4 4.4 0 0 1-0.27-1.72 5.88 5.88 0 0 1 1.16-3.19c0.14-0.2 0.3 -0.39 0.45 -0.58l0.11-0.01z" fill="#FFF"/>
  <path d="M22.29 23v-1c0-0.15-0.05-0.19-0.19-0.19h-2c-0.17 0-0.23 0-0.23-0.22v-1.93c0-0.16-0.05-0.22-0.21-0.22h-1.87c-0.18 0-0.24-0.05-0.23-0.23 0.01 -0.18 0-0.61 0-0.92a0.44 0.44 0 0 1 0.11-0.24 5.79 5.79 0 0 1 4.23-1.49 3.47 3.47 0 0 1 3.18 2.64 5 5 0 0 1-0.54 3.63 13.05 13.05 0 0 1-0.79 1.2 0.36 0.36 0 0 1-0.26 0.12 h-1c-0.13 0-0.18 0-0.17-0.17V23h-0.03zM0 4.41a4.81 4.81 0 0 1 1.05-3.16A3.36 3.36 0 0 1 3 0.07 4.06 4.06 0 0 1 6.12 0.8 c0.88 0.59 1.59 1.4 2.06 2.35a0.33 0.33 0 0 1 0 0.26c-0.12 0.31 -0.26 0.61 -0.38 0.91 -0.12 0.3 -0.13 0.18 -0.27 0.12 l-1.72-0.73c-0.25-0.1-0.25-0.11-0.35 0.14 C5.22 4.43 5 5 4.74 5.6c-0.06 0.15 -0.12 0.19 -0.28 0.12 -0.59-0.26-1.19-0.5-1.78-0.74-0.2-0.09-0.22-0.08-0.3 0.11 l-0.72 1.77c-0.08 0.2 -0.1 0.21 -0.3 0.12 l-0.79-0.31a0.38 0.38 0 0 1-0.27-0.29A6.86 6.86 0 0 1 0 4.41z" fill="#FFF"/>
</svg>
