<?xml version="1.0" ?>
<svg xmlns="http://www.w3.org/2000/svg" width="44" height="31" viewBox="0 0 44 31">
  <path d="M43.56 13.5H13.17l0.22-0.22c1.76-1.56 3.53-3.12 5.28-4.69a0.53 0.53 0 0 0 0.12-0.3V4h1.9v2.75a1.37 1.37 0 0 0 0.24-0.17l5.49-4.89L28.24 0.08 c0.12-0.11 0.19 -0.1 0.31 0l6.51 5.81 5.08 4.51 3.25 2.88 0.21 0.17-0.04 0.05 zM32.22 24.46h-7.66v-0.22-7.32c0-0.21 0.07 -0.25 0.25 -0.25h7.13c0.29 0 0.29 0 0.29 0.29 v7.49l-0.01 0.01 zM28.39 27.75H16.5c-0.27 0-0.27 0-0.27-0.27v-1.44c0-0.2 0.06 -0.25 0.25 -0.25h23.8c0.26 0 0.27 0 0.27 0.27 v1.46c0 0.19 0 0.24-0.23 0.24 H28.39v-0.01zM28.39 30.23H16.51c-0.28 0-0.28 0-0.28-0.26v-0.68c0-0.22 0.06 -0.24 0.24 -0.24h23.75c0.32 0 0.32 0 0.33 0.32 0.01 0.32 0 0.43 0 0.64 0 0.21 0 0.22-0.22 0.22 H28.39zM28.39 15.35H16.48c-0.2 0-0.27-0.06-0.25-0.26a4.51 4.51 0 0 0 0-0.52c0-0.39-0.06-0.36 0.37 -0.36h23.64c0.31 0 0.31 0 0.31 0.32 v0.6c0 0.2 0 0.22-0.21 0.22 h-12 0.05zM23.24 24.47h-6.76c-0.2 0-0.25-0.05-0.25-0.26v-2.76c0-0.16 0-0.23 0.21 -0.23h6.62c0.13 0 0.2 0 0.2 0.18 v2.94a0.74 0.74 0 0 1-0.02 0.13 zM33.53 24.46v-0.19-2.82c0-0.17 0-0.22 0.22 -0.22h6.58c0.16 0 0.23 0.05 0.23 0.23 v2.82c0 0.13 0 0.2-0.17 0.2 h-6.86v-0.02zM23.26 19.91H16.5c-0.27 0-0.27 0-0.27-0.27v-2.7c0-0.25 0-0.26 0.27 -0.26H23c0.3 0 0.3 0 0.3 0.3 v2.94l-0.04-0.01zM33.52 19.9v-3.07c0-0.11 0-0.15 0.15 -0.15h6.7c0.13 0 0.18 0.05 0.18 0.18 v2.88c0 0.17-0.09 0.17 -0.21 0.17 h-6.82v-0.01zM12.68 24.92a0.86 0.86 0 0 1 0.75 0.48 c0.213 0.4 0.413 0.8 0.6 1.2 0.09 0.17 0.18 0.34 0.25 0.51a0.32 0.32 0 0 1-0.16 0.4 0.34 0.34 0 0 1-0.45-0.14L13 26.13V26l0.53 2.59H13c-0.07 0-0.09 0-0.09 0.08 v1.27a0.36 0.36 0 0 1-0.46 0.37 0.38 0.38 0 0 1-0.27-0.35V28.6H12V30a0.36 0.36 0 0 1-0.46 0.38 0.38 0.38 0 0 1-0.26-0.34v-1.41h-0.56c0.18-0.867 0.36 -1.727 0.54 -2.58l-0.25 0.48 -0.45 0.87 a0.34 0.34 0 0 1-0.45 0.11 0.34 0.34 0 0 1-0.14-0.42c0.24-0.48 0.47 -1 0.71-1.45a1.16 1.16 0 0 1 0.51-0.6 0.82 0.82 0 0 1 0.37-0.1c0.37-0.03 0.74 -0.02 1.12-0.02zM12.11 24.79a0.81 0.81 0 1 1-0.18-1.61 0.81 0.81 0 0 1 0.18 1.61zM8.64 20.2a1.13 1.13 0 1 1 0 2.26 1.13 1.13 0 0 1 0-2.26zM7.46 27.71c0-0.17-0.08-0.33-0.11-0.49l-0.09-0.46c0-0.16-0.07-0.32-0.11-0.48-0.04-0.16-0.06-0.32-0.1-0.48-0.04-0.16-0.05-0.34-0.05-0.52a0.15 0.15 0 0 1 0-0.11l0.42-0.83c0-0.08 0.09 -0.15 0.13 -0.22v3.78h-0.07c-0.01-0.07-0.01-0.13-0.02-0.19zM6.72 21.33a1.13 1.13 0 1 1-2.26 0c0-0.622 0.498 -1.13 1.12-1.14a1.16 1.16 0 0 1 1.14 1.14zM3 23.9a0.8 0.8 0 1 1-1.6 0 0.8 0.8 0 0 1 1.6 0z" fill="#FFF"/>
  <path d="M11 24.16c0.11 0.2 0.2 0.41 0.3 0.61 0.1 0.2 0 0.08 0 0.1a1 1 0 0 0-0.57 0.52 l-0.09 0.15 -0.71-1.39v5.63a0.52 0.52 0 0 1-0.32 0.54 0.49 0.49 0 0 1-0.78-0.32 0.59 0.59 0 0 1 0-0.23V27a0.13 0.13 0 0 0-0.2-0.12v2.93a0.5 0.5 0 0 1-0.35 0.52 0.48 0.48 0 0 1-0.61-0.27 0.6 0.6 0 0 1 0-0.26v-5.67c0 0.07-0.09 0.14 -0.13 0.22 l-0.54 0.82 a0.15 0.15 0 0 0 0 0.11c0 0.18 0.07 0.35 0.1 0.52 0.03 0.17 0.07 0.32 0.1 0.48 0.03 0.16 0.08 0.32 0.11 0.48l0.09 0.46 c0 0.16 0.07 0.32 0.11 0.49 0.04 0.17 0 0.12 0 0.2h-0.68c-0.09 0-0.12 0-0.12 0.11 v1.81a0.49 0.49 0 0 1-0.32 0.49 0.49 0.49 0 0 1-0.65-0.25 0.67 0.67 0 0 1 0-0.24v-1.78c0-0.14 0-0.14-0.15-0.14h-0.11V29.84a0.51 0.51 0 0 1-0.65 0.5 0.47 0.47 0 0 1-0.37-0.52V28c0-0.09 0-0.12-0.11-0.11h-0.69v-0.16a2.3 2.3 0 0 1 0.06-0.28 0.56 0.56 0 0 0-0.11-0.4L3 25.88A0.53 0.53 0 0 0 3 26v4a0.38 0.38 0 0 1-0.2 0.35 0.36 0.36 0 0 1-0.52-0.3v-2.22h-0.17v2.11a0.39 0.39 0 0 1-0.39 0.4 0.36 0.36 0 0 1-0.33-0.34v-4-0.09l-0.16 0.29 c-0.19 0.37 -0.37 0.74 -0.57 1.1a0.3 0.3 0 0 1-0.34 0.18 0.32 0.32 0 0 1-0.32-0.34 0.62 0.62 0 0 1 0.09-0.26c0.15-0.32 0.3 -0.64 0.46 -1a4 4 0 0 1 0.45-0.74 0.85 0.85 0 0 1 0.66-0.31h1a0.94 0.94 0 0 1 0.87 0.56 c0.15 0.27 0.28 0.55 0.42 0.83 a18.17 18.17 0 0 0 0.44-2.08l-0.34 0.65 -0.34 0.66 a2.55 2.55 0 0 0-0.14-0.24 1 1 0 0 0-0.41-0.39c-0.15-0.06-0.15-0.06-0.08-0.2l0.4-0.81a3.87 3.87 0 0 1 0.43-0.7 1 1 0 0 1 0.76-0.41h1.84c0.177 0.012 0.349 0.067 0.5 0.16 a2.14 2.14 0 0 0-0.39 0.55 0.32 0.32 0 0 0 0 0.27l0.13-0.22a1.53 1.53 0 0 1 0.65-0.66 0.92 0.92 0 0 1 0.36-0.1h1.86a1 1 0 0 1 0.81 0.51 c0.19 0.29 0.35 0.62 0.57 0.95 z" fill="#FFF"/>
  <path d="M1.39 23.9a0.79 0.79 0 0 0 0.8 0.8 0.8 0.8 0 1 0-0.8-0.8zm6.16-2.57a1.13 1.13 0 1 0 2.26 0 1.13 1.13 0 0 0-2.26 0zm-0.83 0a1.16 1.16 0 0 0-1.14-1.14 1.14 1.14 0 0 0-1.12 1.14 1.13 1.13 0 1 0 2.26 0zm0 6.69c0-0.09 0-0.12 0.12 -0.11h0.72v1.9a0.6 0.6 0 0 0 0 0.26 0.48 0.48 0 0 0 0.61 0.27 0.5 0.5 0 0 0 0.35-0.52V27v-0.1a0.13 0.13 0 0 1 0.2 0.12 v2.8a0.59 0.59 0 0 0 0 0.23 0.49 0.49 0 0 0 0.67 0.28 0.52 0.52 0 0 0 0.32-0.54v-5.53-0.11l0.71 1.39 0.09 -0.15a1 1 0 0 1 0.57-0.52v-0.1c0-0.05-0.19-0.41-0.3-0.61-0.11-0.2-0.33-0.66-0.52-1a1 1 0 0 0-0.81-0.51H7.59a0.92 0.92 0 0 0-0.36 0.1 1.53 1.53 0 0 0-0.65 0.66 l-0.13 0.22 a0.32 0.32 0 0 1 0-0.27 2.14 2.14 0 0 1 0.55-0.52 1.09 1.09 0 0 0-0.5-0.16H4.66a1 1 0 0 0-0.76 0.41 3.87 3.87 0 0 0-0.43 0.7 l-0.4 0.81 c-0.07 0.14 -0.07 0.14 0.08 0.2 a1 1 0 0 1 0.41 0.39 c0.051 0.077 0.098 0.158 0.14 0.24 l0.34-0.66 0.34 -0.65a18.17 18.17 0 0 1-0.38 2.1c-0.14-0.28-0.27-0.56-0.42-0.83a0.94 0.94 0 0 0-0.87-0.56h-1a0.85 0.85 0 0 0-0.66 0.31 4 4 0 0 0-0.44 0.78 c-0.16 0.32 -0.31 0.64 -0.46 1a0.62 0.62 0 0 0-0.09 0.26 0.32 0.32 0 0 0 0.29 0.31 0.3 0.3 0 0 0 0.34-0.18c0.2-0.36 0.38 -0.73 0.57 -1.1l0.16-0.29V30c0.01 0.18 0.15 0.325 0.33 0.34 a0.39 0.39 0 0 0 0.39-0.4v-2.11h0.16V30a0.36 0.36 0 0 0 0.52 0.3 A0.38 0.38 0 0 0 3 30v-4a0.53 0.53 0 0 1 0-0.13l0.64 1.19a0.56 0.56 0 0 1 0.11 0.4 2.3 2.3 0 0 0-0.06 0.28 v0.16h0.68c0.08 0 0.11 0 0.11 0.11 v1.8a0.47 0.47 0 0 0 0.37 0.52 0.51 0.51 0 0 0 0.65-0.5V28v-0.11h0.08c0.18 0 0.15 0 0.15 0.14 v1.78a0.67 0.67 0 0 0 0 0.24 0.49 0.49 0 0 0 0.65 0.25 0.49 0.49 0 0 0 0.32-0.49c0.02-0.59 0.02 -1.19 0.01 -1.81l0.01 0.02 zm5.4-3.23a0.81 0.81 0 1 0-0.18-1.61 0.81 0.81 0 0 0 0.18 1.61zm-0.82 1.26c-0.18 0.847 -0.36 1.707-0.54 2.58h0.56V30a0.38 0.38 0 0 0 0.26 0.34 A0.36 0.36 0 0 0 12 30v-1.36h0.17V30a0.38 0.38 0 0 0 0.27 0.35 0.36 0.36 0 0 0 0.46-0.37v-1.27c0-0.06 0-0.08 0.09 -0.08h0.48L13 26l0.06 0.1 0.63 1.24a0.34 0.34 0 0 0 0.45 0.14 0.32 0.32 0 0 0 0.16-0.4c-0.07-0.17-0.16-0.34-0.25-0.51-0.187-0.4-0.387-0.8-0.6-1.2a0.86 0.86 0 0 0-0.75-0.48h-1.13a0.82 0.82 0 0 0-0.37 0.1 1.16 1.16 0 0 0-0.51 0.6 c-0.24 0.48 -0.47 1-0.71 1.45a0.34 0.34 0 0 0 0.14 0.42 0.34 0.34 0 0 0 0.45-0.11l0.45-0.87 0.25 -0.48 0.03 0.05z" fill="#FFF"/>
</svg>
