<?xml version="1.0" ?>
<svg xmlns="http://www.w3.org/2000/svg" width="38" height="31" viewBox="0 0 38 31">
  <path d="M18.83 0h18.32a1.39 1.39 0 0 1 0.22 0c0.14 0.01 0.25 0.12 0.26 0.26 a1.57 1.57 0 0 1 0 0.17v29.72a0.61 0.61 0 0 1 0 0.26 0.32 0.32 0 0 1-0.32 0.16 H0.38c-0.28 0-0.38-0.09-0.38-0.38V0.39C0 0.12 0.14 0 0.41 0h18.42zM4.13 4.13v10.56h6.14V4.13H4.13zm13.49 0h-6.14v10.56h6.15l-0.01-10.56zm8.52 10.56V4.13H20v10.56h6.14zm1.2 0h6.16V4.13h-6.16v10.56zM10.28 26.45V15.89H4.14v10.56h6.14zm7.35 0V15.89h-6.15v10.56h6.15zm2.37 0h6.15V15.89H20v10.56zm13.5-10.56h-6.15v10.55h6.15V15.89z" fill="#FFF"/>
</svg>
