<?xml version="1.0" ?>
<svg xmlns="http://www.w3.org/2000/svg" width="37" height="31" viewBox="0 0 37 31">
  <path d="M26.76 26.69H0V7.64h26.76v19.05zM25.08 25v-0.17-15.4c0-0.12 0-0.14-0.15-0.14H1.83c-0.12 0-0.15 0-0.15 0.15 V25h23.4zM20 7.08h-0.72a0.22 0.22 0 0 1-0.07-0.08l-1.64-1.64-1.65-1.65-1.35-1.35-0.72-0.73a0.17 0.17 0 0 0-0.2 0 0.65 0.65 0 0 1-0.48 0 0.23 0.23 0 0 0-0.28 0.07 l-1.71 1.67L9 5.59 7.53 7a0.16 0.16 0 0 1-0.09 0.06 h-0.72l0.1-0.13 2.77-2.74 2.49-2.49 0.48 -0.48a0.18 0.18 0 0 0 0.05-0.2 0.8 0.8 0 0 1 0.49-1 0.81 0.81 0 0 1 1 0.4 0.78 0.78 0 0 1 0 0.59 0.19 0.19 0 0 0 0.05 0.22 l2.53 2.47 2.7 2.69L20 7v0.08z" fill="#FFF"/>
  <path d="M24.54 24.48H2.4c-0.21 0-0.18 0-0.18-0.19V10.02c0-0.18 0-0.18 0.18 -0.18h21.95c0.19 0 0.19 0 0.19 0.18 v14.46zm-6.82-4.33h-3.09a4.59 4.59 0 0 1-1.26-0.16 4.46 4.46 0 0 1-1.06-0.47 6.69 6.69 0 0 1-1.85-1.7c-0.47-0.62-0.91-1.27-1.36-1.91a9 9 0 0 0-0.83-1.1 0.67 0.67 0 0 0-0.83-0.21 4.82 4.82 0 0 0-1.15 0.71 c-0.53 0.42 -1.05 0.85 -1.55 1.3-0.66 0.61 -1.3 1.24-2 1.87a0.27 0.27 0 0 0-0.09 0.22 v5.32H24v-0.14-3.2c0-0.11 0-0.15-0.13-0.17-0.47-0.09-0.93-0.21-1.4-0.29a2.23 2.23 0 0 1-0.94-0.42 5.58 5.58 0 0 1-1.13-1.18c-0.4-0.52-0.78-1.06-1.18-1.59a2.64 2.64 0 0 0-1-0.88 0.49 0.49 0 0 0-0.43-0.06 2.08 2.08 0 0 0-0.42 0.28 8.2 8.2 0 0 0-1.16 1.33c-0.35 0.47 -0.67 0.95 -1 1.42-0.14 0.21 -0.28 0.42 -0.44 0.67 0.94 0.11 1.94 0.21 2.95 0.36 zm2.56-8.54a1.25 1.25 0 1 0 0 2.5 1.25 1.25 0 0 0 0-2.5zM25.6 29.35h0.31a2 2 0 0 0 1-0.24 1.93 1.93 0 0 0 0.77-0.9c0.18-0.39 0.33 -0.79 0.52 -1.17a3.4 3.4 0 0 1 1.07-1.29 2.87 2.87 0 0 1 1-0.48c0.11 0 0.23 0 0.36-0.05a0.16 0.16 0 0 0 0-0.06 1.18 1.18 0 0 1-0.23-1.22l0.81-2.36 1.16-3.37 0.79 -2.29 1.15-3.34 0.9 -2.62c0.2-0.58 0.39 -1.15 0.6 -1.72a1.66 1.66 0 0 1 0.49-0.72 0.52 0.52 0 0 1 0.39-0.15 0.37 0.37 0 0 1 0.31 0.24 1.67 1.67 0 0 1 0 1.15c-0.32 1.21-0.65 2.41-1 3.62l-1 4.08-1.18 4.37L33 23.9c-0.09 0.31 -0.16 0.63 -0.27 0.94 a1 1 0 0 1-0.59 0.61 l-0.19 0.09 c-0.06 0 0 0.06 0 0.1 0 0.04 0.09 0.29 0.12 0.44a4 4 0 0 1 0 2.13 2.48 2.48 0 0 1-0.81 1.22 2.52 2.52 0 0 1-0.73 0.44 9.36 9.36 0 0 1-0.9 0.31 7 7 0 0 1-0.89 0.14 4.29 4.29 0 0 1-1.65-0.12 3.26 3.26 0 0 1-1.35-0.73l-0.1-0.1-0.04-0.02z" fill="#FFF"/>
</svg>
