<?xml version="1.0" ?>
<svg xmlns="http://www.w3.org/2000/svg" width="28" height="31" viewBox="0 0 28 31">
  <path d="M8.64 25.33v-5.18a2.84 2.84 0 0 1 1-2.23 1.6 1.6 0 0 1 0.66-0.28c0.32-0.09 0.64 -0.17 1-0.23a5.54 5.54 0 0 1 0.85-0.13c0.8 0 1.6-0.07 2.4-0.06a8.53 8.53 0 0 1 1.23 0.16 c0.35 0.06 0.7 0.15 1.05 0.2 a2.23 2.23 0 0 1 1.85 1.51c0.181 0.444 0.27 0.92 0.26 1.4v10.24c0 0.22 0 0.22-0.22 0.22 h-9.9c-0.15 0-0.19-0.05-0.19-0.19 0.007 -1.84 0.01 -3.65 0.01 -5.43zM10.59 0.63 l1.59 4.14v-0.22V0.38c0-0.27 0-0.27 0.27 -0.29 0.43 0 0.86-0.1 1.29-0.1 0.455 0.016 0.91 0.056 1.36 0.12 0 0 0.11 0.1 0.11 0.16 v4.29a2 2 0 0 0 0 0.2l1.71-4.1a8.48 8.48 0 0 1 1.56 0.92 8.7 8.7 0 0 1 2.67 3.22c0.21 0.43 0.35 0.89 0.52 1.35 0 0.12 0.09 0.2 0.25 0.18 0.16 -0.02 0.43 0 0.66 0V7.5H4.95V6.33h0.45c0.5 0 0.36 0.07 0.51-0.38a9.31 9.31 0 0 1 1-2.15 8.29 8.29 0 0 1 2.44-2.45c0.39-0.26 0.81 -0.47 1.24-0.72zM13.77 8.82h6.56c0.22 0 0.23 0 0.22 0.22 a8.76 8.76 0 0 1-0.29 1.87 7.32 7.32 0 0 1-1.49 2.81 6.66 6.66 0 0 1-2.39 1.79A6.58 6.58 0 0 1 13 16a6.31 6.31 0 0 1-2.61-0.93A7.14 7.14 0 0 1 7.67 12a5.89 5.89 0 0 1-0.52-1.61C7.08 9.93 7 9.46 7 9c0-0.15 0-0.19 0.19 -0.19l6.58 0.01 zM20 18.71c0.37 0.21 0.71 0.4 1 0.6a13.72 13.72 0 0 1 3.62 3.33 13 13 0 0 1 1.77 3.1c0.21 0.54 0.4 1.1 0.56 1.66 0.137 0.486 0.24 0.98 0.31 1.48 0.09 0.62 0.12 1.25 0.18 1.88 0 0.15 0 0.2-0.19 0.2 h-6.84c-0.16 0-0.19-0.06-0.19-0.2v-2.87-7.11a9.84 9.84 0 0 0 0-1c0-0.3-0.11-0.6-0.17-0.9-0.05-0.05-0.05-0.08-0.05-0.17zM7.55 18.73c0 0.15-0.06 0.27 -0.08 0.38 a7.3 7.3 0 0 1-0.15 0.92 4 4 0 0 0-0.08 1.17v9.52c0 0.23 0 0.23-0.23 0.23 H0.2C0 31 0 31 0 30.75c0-0.58 0-1.16 0.14 -1.73a15.42 15.42 0 0 1 0.43-2 13.32 13.32 0 0 1 2.06-4.16 13.51 13.51 0 0 1 4-3.67l0.8-0.46h0.12z" fill="#FFF"/>
</svg>
