<?xml version="1.0" ?>
<svg xmlns="http://www.w3.org/2000/svg" width="132" height="153" viewBox="0 0 132 153">
  <path d="M64.408 136.525c9.552-9.45 11.932-25.574 9.943-31.476-1.989-5.901-9.943-5.901-14.512-8.673-4.57-2.772-2.39-0.45-5.373-5.097-1.989-3.099-2.652-15.558-1.989-37.377L56.454 48h-4.971l-0.199 1.967h-9.346V48h-5.37l3.978 5.902c0 20.983-0.928 33.442-2.784 37.377-1.493 3.166-3.425 4.161-5.17 5.097-6.086 3.261-11.931 4.739-13.92 8.673-1.988 3.935 0.182 21.819 9.943 31.476 1.988 1.967 33.805 1.967 35.793 0z" fill="#FFF"/>
  <path d="M40.162 33h12a3 3 0 0 1 3 3v0.214a4.33 4.33 0 0 1-2.89 4.084c-1.31 0.462 -2.116 0.887 -2.415 1.273-0.477 0.618 -0.73 2.76-0.758 6.429h-5.494c0.179-3.512-0.074-5.655-0.758-6.429-0.436-0.493-1.364-0.962-2.783-1.406a4.14 4.14 0 0 1-2.902-3.95V36a3 3 0 0 1 3-3z" fill="#FFF"/>
  <path d="M95.1 53.1h18.51c1.44 0 1.5 0 1.32 1.44-0.27 2.34-0.48 4.65-0.75 6.99s-0.75 5.37-1.08 8.07c-0.33 2.7-0.48 4.59-0.78 6.87-0.21 1.77-0.48 3.54-0.69 5.31-0.21 1.77-0.33 3-0.48 4.41-0.24 2.43-0.45 4.86-0.72 7.29-0.27 2.43-0.6 4.71-0.87 7.05-0.36 3-0.63 5.76-0.99 8.64-0.36 2.88-0.75 5.43-1.11 8.16 0 0.96-0.18 1.92-0.24 3a0.99 0.99 0 0 1-1.14 1.02H84.21a1.02 1.02 0 0 1-1.2-1.08c-0.24-2.52-0.42-5.07-0.72-7.62-0.45-3.66-1.02-7.35-1.47-11.04-0.3-2.34-0.51-4.71-0.78-7.08-0.36-3-0.75-6-1.11-9-0.27-2.34-0.48-4.68-0.75-6.99-0.27-2.31-0.54-3.81-0.75-5.7-0.27-2.37-0.48-4.74-0.72-7.08 0-1.23-0.3-2.46-0.45-3.69-0.33-2.73-0.66-5.46-1.05-8.16 0-0.87 0.48 -0.69 0.93 -0.69H95.1v-0.12zM95.07 48.9H76.44c-1.05 0-1.44-0.27-1.38-1.32V42.3c0-0.96 0.27 -1.26 1.23-1.26h37.47c1.02 0 1.32 0.39 1.29 1.35v5.28c0 0.96-0.33 1.23-1.26 1.23H95.07zM95.22 125.4h10.53c0.99 0 1.26 0.33 1.26 1.26v6.93a3.81 3.81 0 0 1-3.66 3.75H87.21a3.81 3.81 0 0 1-3.87-4.08v-6.63c0-0.9 0.27 -1.26 1.23-1.26h10.68l-0.03 0.03 z" fill="#FFF"/>
</svg>
