<?xml version="1.0" ?>
<svg xmlns="http://www.w3.org/2000/svg" width="44" height="29" viewBox="0 0 44 29">
  <path d="M21.71 0H39.9a3.32 3.32 0 0 1 3.19 2c0.19 0.393 0.285 0.824 0.28 1.26v21.87a3.34 3.34 0 0 1-2.14 3 3.63 3.63 0 0 1-1.35 0.25 H3.45a3.35 3.35 0 0 1-2.63-1.1 3 3 0 0 1-0.74-1.55 5.29 5.29 0 0 1-0.08-0.79V3.47A3.36 3.36 0 0 1 1.18 0.83 2.93 2.93 0 0 1 2.74 0.08 6.4 6.4 0 0 1 3.6 0h18.11zm0 27.11H40A2 2 0 0 0 42 25V3.46a2 2 0 0 0-0.47-1.35 2.05 2.05 0 0 0-1.67-0.76H3.47c-0.258 0-0.515 0.04 -0.76 0.12 a2.07 2.07 0 0 0-1.36 2v21.58a2 2 0 0 0 0.22 0.9 2 2 0 0 0 1.87 1.12l18.27 0.04 z" fill="#FFF"/>
  <path d="M17.62 24.4H6.17a2.07 2.07 0 0 1-2-1.36 2.23 2.23 0 0 1-0.11-0.73V6.13a2 2 0 0 1 1.38-1.95 2.21 2.21 0 0 1 0.77-0.11h22.91a2 2 0 0 1 1.95 1.38c0.074 0.25 0.107 0.51 0.1 0.77 v15.71a4.4 4.4 0 0 1-0.08 1 1.89 1.89 0 0 1-1.09 1.3 2.2 2.2 0 0 1-0.95 0.17 H17.62zM36.59 8.13h-2.28a0.74 0.74 0 0 1-0.77-0.75V4.79a0.67 0.67 0 0 1 0.72-0.73h4.66a0.67 0.67 0 0 1 0.72 0.72 v2.64a0.68 0.68 0 0 1-0.73 0.71 h-2.32zM33.89 21.67a2.71 2.71 0 1 1 2.72 2.73 2.7 2.7 0 0 1-2.72-2.73zM39 16.27a0.68 0.68 0 0 1-0.67-0.67 0.7 0.7 0 0 1 0.68-0.68c0.37 0.02 0.665 0.32 0.68 0.69 a0.69 0.69 0 0 1-0.69 0.66 zM34.23 16.27a0.65 0.65 0 0 1-0.68-0.65 0.68 0.68 0 1 1 1.35 0 0.65 0.65 0 0 1-0.67 0.65 zM36.59 16.27a0.65 0.65 0 0 1-0.67-0.67 0.71 0.71 0 0 1 0.68-0.68 0.72 0.72 0 0 1 0.68 0.7 0.68 0.68 0 0 1-0.69 0.65 zM36.6 10.16c0.37 0.005 0.67 0.3 0.68 0.67 a0.69 0.69 0 1 1-1.37 0 0.69 0.69 0 0 1 0.69-0.67zM34.24 12.53a0.65 0.65 0 0 1 0.66 0.68 0.68 0.68 0 1 1-1.35 0 0.66 0.66 0 0 1 0.69-0.68zM39 12.53a0.67 0.67 0 0 1 0.68 0.67 0.7 0.7 0 0 1-0.69 0.68 0.69 0.69 0 0 1-0.67-0.69 0.66 0.66 0 0 1 0.68-0.66zM34.22 10.16a0.68 0.68 0 0 1 0.69 0.66 0.72 0.72 0 0 1-0.68 0.69 0.69 0.69 0 0 1-0.68-0.68 0.65 0.65 0 0 1 0.67-0.67zM39 10.16a0.66 0.66 0 0 1 0.69 0.65 0.7 0.7 0 0 1-0.67 0.7 0.69 0.69 0 0 1-0.69-0.68 0.65 0.65 0 0 1 0.67-0.67zM36.62 12.53a0.65 0.65 0 0 1 0.65 0.69 0.68 0.68 0 0 1-0.67 0.66 0.69 0.69 0 0 1-0.68-0.7 0.66 0.66 0 0 1 0.7-0.65z" fill="#FFF"/>
</svg>
