<?xml version="1.0" ?>
<svg xmlns="http://www.w3.org/2000/svg" width="31" height="36" viewBox="0 0 31 36">
  <path d="M14.43 18.09H9.58a1.47 1.47 0 0 0-1.45 1l-3 7.28c-0.33 0.82 -0.67 1.64-1 2.46-0.06 0.13 -0.12 0.19 -0.27 0.16 l-2-0.32a1.61 1.61 0 0 0-1.23 0.17 1.39 1.39 0 0 0-0.63 1.4 1.36 1.36 0 0 0 1.12 1.09l2.63 0.41 c0.29 0.05 0.58 0.08 0.87 0.14 a1.45 1.45 0 0 0 1.66-1c0.77-1.88 1.54-3.72 2.3-5.58l1.74-4.3a0.24 0.24 0 0 1 0.25-0.18H21a1.38 1.38 0 0 0 1.28-0.82 1.44 1.44 0 0 0 0.09-0.4l0.3-5.24c0.08-1.4 0.17 -2.8 0.25 -4.2 0-1 0.1-1.92 0.16 -2.88 0-0.58 0.06 -1.16 0.1 -1.73a0.63 0.63 0 0 1 0.1-0.27 3.25 3.25 0 0 0 0.54-2.49 3.23 3.23 0 0 0-2.1-2.56A2.91 2.91 0 0 0 20.18 0a3.32 3.32 0 0 0-0.46 6.51l0.46 0.08 c0.11 0 0.16 0.07 0.15 0.19 -0.07 1.22-0.15 2.44-0.21 3.66v0.8c0 0.27 0 0.24-0.25 0.24 h-6.21a1.36 1.36 0 0 0-1.35 1 1.37 1.37 0 0 0 0.95 1.75c0.164 0.04 0.332 0.06 0.5 0.06 h5.92c0.21 0 0.22 0 0.21 0.21 -0.07 1.15-0.14 2.3-0.2 3.44 0 0.14-0.08 0.15 -0.19 0.15 h-5.07z" fill="#FFF"/>
  <path d="M24.37 14v0.18c-0.06 0.91 -0.1 1.81-0.16 2.72a0.32 0.32 0 0 0 0.15 0.3 8.54 8.54 0 0 1 3.12 4.28c0.37 1.1 0.5 2.266 0.38 3.42A8.38 8.38 0 0 1 24 31.3a8.08 8.08 0 0 1-5.61 1.34 8.39 8.39 0 0 1-6.89-5 7.61 7.61 0 0 1-0.72-2.93v-0.16a1.74 1.74 0 0 0-0.11 0.15 L9 28.63a0.3 0.3 0 0 0 0 0.29 11.41 11.41 0 0 0 6.92 6 9.83 9.83 0 0 0 2.22 0.45 c0.51 0 1 0.06 1.53 0.05 a10.62 10.62 0 0 0 2.33-0.28 10.9 10.9 0 0 0 3.28-1.38A11.37 11.37 0 0 0 29.55 29a10.74 10.74 0 0 0 1.05-5.68 11.2 11.2 0 0 0-6-9.19l-0.23-0.13z" fill="#FFF"/>
</svg>
