<?xml version="1.0" ?>
<svg xmlns="http://www.w3.org/2000/svg" width="30" height="30" viewBox="0 0 30 30">
  <path d="M15.79 0h12.44a1.13 1.13 0 0 1 1.14 0.71 c0.06 0.146 0.091 0.302 0.09 0.46 V13.2c0 0.16-0.05 0.2 -0.21 0.2 H17.77c-0.25 0-0.25 0-0.25-0.24V9.27a2.73 2.73 0 0 0-1.71-2.67 3.52 3.52 0 0 0-1.59-0.34H2.73a0.94 0.94 0 0 1-0.94-0.56 1.13 1.13 0 0 1-0.09-0.44V1.73A1.71 1.71 0 0 1 3 0a2.3 2.3 0 0 1 0.57 0h12.22zM14.52 28H1.13a1 1 0 0 1-1.06-1.3c0.18-0.82 0.3 -1.65 0.45 -2.48 0.043 -0.3 0.107 -0.598 0.19 -0.89a1.27 1.27 0 0 1 1.22-0.81h12.56a1.77 1.77 0 0 0 1.76-1.42c0.25-1 0.5-2 0.7-3 0.2-1 0.29-1.84 0.42 -2.76 0.06 -0.4 0.1 -0.81 0.13 -1.21 0-0.15 0.1 -0.15 0.21 -0.15H29.2c0.39 0 0.32 0 0.32 0.32 v12.14A1.49 1.49 0 0 1 28.41 28a1.24 1.24 0 0 1-0.35 0H14.52zm9.33-8.15a2.63 2.63 0 1 0 2.62 2.64 2.63 2.63 0 0 0-2.63-2.62l0.01-0.02zm-1.48-2.07h1a0.44 0.44 0 0 0 0.43-0.27 0.45 0.45 0 0 0-0.42-0.66h-2a0.24 0.24 0 0 1-0.25-0.14 1.28 1.28 0 0 0-1-0.65 1.267 1.267 0 0 0-0.41 2.5 1.27 1.27 0 0 0 1.37-0.66 0.2 0.2 0 0 1 0.2-0.12h1.08z" fill="#FFF"/>
  <path d="M16.19 12.91v0.21A13.22 13.22 0 0 1 14.9 18a7.83 7.83 0 0 1-2.1 2.67A6.7 6.7 0 0 1 10.35 22a8.66 8.66 0 0 1-3.69 0.18 A6.78 6.78 0 0 1 2.2 19.5a10 10 0 0 1-1.57-3.12A14.49 14.49 0 0 1 0 13.15c0-0.26 0-0.25 0.24 -0.21 0.59 0.1 1.17 0.22 1.77 0.28 1.07 0.11 2.14 0.21 3.21 0.27 a50.41 50.41 0 0 0 5.89 0c1.11-0.07 2.21-0.19 3.32-0.3 0.54 -0.06 1.07-0.17 1.6-0.25l0.16-0.03zM9.68 12.9h-2.5c-0.12 0-0.18 0-0.17-0.17v-1.48c0-0.15 0.05 -0.2 0.2 -0.19 1.43 0 2.86 0 4.29 0.09 1 0 2.1 0.16 3.14 0.28 0.436 0.074 0.866 0.174 1.29 0.3 h0.06c0.07 0.07 0.18 0.14 0.19 0.21 0.01 0.07 -0.11 0.16 -0.19 0.19 -0.346 0.12 -0.7 0.217 -1.06 0.29 a40.36 40.36 0 0 1-5.25 0.48 zM8.27 6.83h3.87c0.22 0 0.22 0 0.22 0.21 v0.85a0.43 0.43 0 0 1-0.46 0.47 H4.63a0.45 0.45 0 0 1-0.47-0.47v-0.83c0-0.28 0-0.23 0.22 -0.23h3.89z" fill="#FFF"/>
  <path d="M5 12v0.72c0 0.24 0 0.16-0.17 0.15 -1.12-0.11-2.25-0.19-3.37-0.32a9 9 0 0 1-1.21-0.3l-0.1-0.05C0 12 0 11.92 0.17 11.82a1.76 1.76 0 0 1 0.46-0.19c0.48-0.1 1-0.22 1.43-0.27 0.88 -0.1 1.76-0.17 2.64-0.25h0.16c0.1 0 0.14 0 0.14 0.13 V12zM2.76 28.62H4c0.14 0 0.18 0 0.17 0.18 A1.3 1.3 0 0 1 3 30a1.45 1.45 0 0 1-1.33-0.4 1.57 1.57 0 0 1-0.35-0.83c0-0.13 0.07 -0.13 0.15 -0.13h1.29v-0.02zM26.77 30a1.34 1.34 0 0 1-1.42-0.77 1.55 1.55 0 0 1-0.1-0.34c0-0.25 0-0.25 0.21 -0.25h2.35c0.2 0 0.22 0 0.19 0.21 A1.23 1.23 0 0 1 26.77 30zM9 10.24h-0.73c-0.11 0-0.17 0-0.17-0.15v-1c0-0.11 0-0.15 0.16 -0.15h1.57C10 9 10 9 10 9.13v0.94c0 0.13-0.05 0.17 -0.17 0.17 H9zM6.08 10.26h-0.75c-0.12 0-0.16 0-0.16-0.16v-1c0-0.11 0-0.17 0.16 -0.17h1.48C6.92 9 7 9 7 9.1v1c0 0.12 0 0.15-0.16 0.15 h-0.76v0.01zM6.43 12v0.93c0 0.11 0 0.17-0.15 0.16 h-0.55c-0.09 0-0.14 0-0.14-0.13v-1.9c0-0.09 0-0.13 0.12 -0.13h0.6c0.1 0 0.12 0 0.12 0.13 V12zM23.87 20.46a2 2 0 1 1 0 4 2 2 0 0 1 0-4z" fill="#FFF"/>
</svg>
