<?xml version="1.0" ?>
<svg xmlns="http://www.w3.org/2000/svg" width="37" height="36" viewBox="0 0 37 36">
  <path d="M6.62 20.27c0-7.84 5.19-13 11.53-13a11.56 11.56 0 1 1 0 23.12 11.15 11.15 0 0 1-7.8-3c-2.45-2.32-3.7-5.18-3.73-7.12zM5.2 13.53c-0.1 0.36 -0.21 0.71 -0.3 1.07-0.09 0.36 -0.19 0.79 -0.27 1.19l-0.2 1a5.73 5.73 0 0 0-0.07 0.58 1.67 1.67 0 0 1-0.18 0.79 0.7 0.7 0 0 1-0.72 0.42 0.53 0.53 0 0 1-0.19-0.06c-0.76-0.65-1.53-1.28-2.27-1.95a3.58 3.58 0 0 1-0.94-1.24C0 15.18 0 15.08 0.15 15a9.7 9.7 0 0 1 1.23-0.66c0.88-0.35 1.78-0.67 2.67-1l0.67-0.23c0.29-0.11 0.42 0 0.43 0.29 v0.14l0.05-0.01zM32.05 17.62c-0.06-0.34-0.11-0.69-0.17-1-0.06-0.31-0.11-0.78-0.18-1.16-0.07-0.38-0.16-0.74-0.26-1.1a0.92 0.92 0 0 1 0.48-1 0.64 0.64 0 0 1 0.47 0c0.51 0.18 1 0.38 1.51 0.55 a8.4 8.4 0 0 1 1.6 0.69 6 6 0 0 1 0.72 0.52 c0.24 0.19 0.26 0.31 0.06 0.54 a8.58 8.58 0 0 1-1 1c-0.84 0.75 -1.72 1.46-2.58 2.19-0.33 0.28 -0.46 0.14 -0.59-0.16a1.34 1.34 0 0 1-0.07-0.18c0-0.31-0.07-0.61-0.1-0.91l0.11 0.02 zM10.55 30.77c0-0.35 0.19 -0.46 0.51 -0.36 0.408 0.157 0.806 0.34 1.19 0.55 0.5 0.24 1 0.42 1.55 0.62 l0.72 0.25 c0.17 0.05 0.35 0.07 0.52 0.12 0.328 0.084 0.6 0.312 0.74 0.62 a0.51 0.51 0 0 1-0.18 0.65 c-0.37 0.32 -0.73 0.64 -1.11 1a9.9 9.9 0 0 1-1.83 1.32 3.65 3.65 0 0 1-0.69 0.27 0.28 0.28 0 0 1-0.37-0.2 12.08 12.08 0 0 1-0.38-1.16c-0.11-0.42-0.19-0.84-0.28-1.27-0.09-0.43-0.1-0.63-0.15-1-0.05-0.37-0.15-0.83-0.22-1.24-0.01-0.07-0.02-0.14-0.02-0.17zM6.14 5.55c0-0.4 0.07 -0.71 0.11 -1 0.04-0.29 0.14 -0.35 0.38 -0.32a5.35 5.35 0 0 1 1 0.18c0.78 0.24 1.56 0.51 2.33 0.78 l1.45 0.53 c0.23 0.08 0.29 0.24 0.13 0.43 a3.06 3.06 0 0 1-0.55 0.53 c-0.3 0.22 -0.64 0.38 -0.93 0.61 -0.55 0.43 -1.08 0.88 -1.61 1.34-0.2 0.17 -0.38 0.37 -0.59 0.53 a0.78 0.78 0 0 1-0.78 0.13 0.53 0.53 0 0 1-0.36-0.42c-0.1-0.49-0.2-1-0.28-1.48-0.08-0.48-0.22-1.29-0.3-1.84zM25.73 31.31c-0.05 0.28 -0.1 0.54 -0.14 0.8 l-0.09 0.53 c-0.05 0.34 -0.08 0.69 -0.16 1-0.08 0.31 -0.26 0.91 -0.42 1.36a3.92 3.92 0 0 1-0.32 0.65 c-0.14 0.23 -0.24 0.24 -0.47 0.12 a9.14 9.14 0 0 1-1.59-1.09L21 33.44l-0.75-0.63a0.3 0.3 0 0 1 0.07-0.55 2.53 2.53 0 0 1 1-0.32 6 6 0 0 0 1.33-0.38l1.3-0.5c0.28-0.11 0.55 -0.24 0.83 -0.33a0.74 0.74 0 0 1 0.9 0.39 c0.021 0.062 0.038 0.126 0.05 0.19 zM5.3 28.12h-1a5.42 5.42 0 0 1-1.83-0.32c-0.26-0.09-0.41-0.19-0.29-0.55A10.52 10.52 0 0 1 3 25.42c0.45-0.79 0.92 -1.56 1.35-2.36 0.22 -0.39 0.47 -0.3 0.64 0a5 5 0 0 1 0.49 0.94 c0.142 0.349 0.316 0.684 0.52 1 0.25 0.45 0.49 0.89 0.75 1.33 0.12 0.21 0.29 0.39 0.4 0.61a0.87 0.87 0 0 1 0.05 0.8 0.52 0.52 0 0 1-0.49 0.33 H5.27l0.03 0.05 zM20.52 4.82l-1.1-0.17H16.2a0.76 0.76 0 0 1-0.72-0.62 0.65 0.65 0 0 1 0.1-0.36c0.42-0.67 0.82 -1.41 1.24-2.12A5.07 5.07 0 0 1 18 0.17c0.27-0.23 0.4 -0.23 0.64 0a7 7 0 0 1 1 1.35c0.25 0.45 0.53 0.89 0.79 1.33 0.26 0.44 0.57 1 0.84 1.47a0.24 0.24 0 0 1-0.16 0.38 l-0.59 0.12 zM30.81 28.11h-1.82c-0.28 0-0.4-0.16-0.29-0.42a3.14 3.14 0 0 1 0.38-0.67 11.18 11.18 0 0 0 1.21-1.86c0.11-0.19 0.24 -0.37 0.34 -0.56 0.1 -0.19 0.21 -0.48 0.34 -0.72a1.16 1.16 0 0 1 0.62-0.57 0.52 0.52 0 0 1 0.66 0.23 c0.36 0.58 0.68 1.17 1 1.74a7.92 7.92 0 0 1 0.8 1.75c0.05 0.207 0.08 0.418 0.09 0.63 a0.2 0.2 0 0 1-0.18 0.23 c-0.31 0.05 -0.62 0.13 -0.93 0.15 -0.75 0.05 -1.51 0.07 -2.26 0.11 l0.04-0.04zM30.29 5.12a64.763 64.763 0 0 1-0.49 3.25l-0.21 1v0.18c0 0.21-0.18 0.31 -0.37 0.21 a2.75 2.75 0 0 1-0.53-0.36c-0.29-0.3-0.55-0.64-0.86-0.92-0.31-0.28-0.91-0.76-1.38-1.12-0.22-0.18-0.46-0.34-0.69-0.52a1.17 1.17 0 0 1-0.41-0.57c-0.12-0.46 0.05 -0.71 0.52 -0.87 0.47 -0.16 1.13-0.4 1.75-0.63a6.37 6.37 0 0 1 1.61-0.42c0.2 0 0.41-0.06 0.61 0s0.39 0.09 0.4 0.4 v0.41l0.05-0.04z" fill="#FFF"/>
</svg>
