<?xml version="1.0" ?>
<svg xmlns="http://www.w3.org/2000/svg" width="24" height="31" viewBox="0 0 24 31">
  <path d="M11.85 30.53H9.98a0.48 0.48 0 0 1-0.45-0.22 10.11 10.11 0 0 1-1.06-1.8 15.59 15.59 0 0 1-0.56-1.46 13 13 0 0 1-0.35-1.28c-0.12-0.52-0.22-1.05-0.3-1.58a17 17 0 0 1-0.18-1.74c0-1-0.06-1.95 0-2.92 0.036 -0.61 0.106 -1.218 0.21 -1.82a9 9 0 0 1 0.19-1c0.1-0.37 0.21 -0.74 0.33 -1.11 0.12 -0.37 0.24 -0.67 0.37 -1 0.13-0.33 0.34 -0.78 0.51 -1.17 0.17 -0.39 0.43 -1 0.64-1.5 0.11 -0.28 0.19 -0.57 0.3 -0.85a0.26 0.26 0 0 1 0.14-0.08c0.195-0.03 0.392 -0.05 0.59 -0.06a21.94 21.94 0 0 1 3.08 0h0.38c0.28 0 0.28 0 0.37 0.3 0.16 0.47 0.34 0.93 0.52 1.39 0.18 0.46 0.28 0.64 0.42 1 0.14 0.36 0.31 0.69 0.45 1 0.14 0.31 0.31 0.83 0.45 1.25 0.14 0.42 0.21 0.68 0.29 1 0.08 0.32 0.09 0.45 0.13 0.68 0.04 0.23 0.11 0.71 0.16 1.07 0.039 0.275 0.062 0.552 0.07 0.83v2.51c0 0.84-0.13 1.42-0.21 2.13 0 0.29-0.08 0.58 -0.13 0.87 -0.05 0.29 -0.11 0.47 -0.16 0.7 -0.05 0.23 -0.12 0.52 -0.19 0.78 s-0.21 0.69 -0.34 1c-0.13 0.31 -0.35 0.87 -0.56 1.29-0.21 0.42 -0.46 0.79 -0.69 1.17-0.09 0.15 -0.22 0.28 -0.31 0.43 a0.2 0.2 0 0 1-0.2 0.1 l-2.04 0.09 zM4.11 30.53H2.4a0.2 0.2 0 0 1-0.19-0.1c-0.25-0.4-0.52-0.78-0.76-1.19a7.19 7.19 0 0 1-0.64-1.5c-0.14-0.46-0.29-0.92-0.4-1.39-0.11-0.47-0.13-0.74-0.2-1.12A13.9 13.9 0 0 1 0 23c0-0.81 0-1.63 0.05 -2.44a9 9 0 0 1 0.22-1.36c0.1-0.47 0.22 -0.94 0.37 -1.4 0.15 -0.46 0.29 -0.76 0.45 -1.14 0.24 -0.57 0.5 -1.14 0.74 -1.72 0.13 -0.33 0.24 -0.66 0.36 -1a0.12 0.12 0 0 1 0.07-0.07 1 1 0 0 1 0.25-0.05c0.74 0 1.47-0.05 2.21 0 0.39 0 0.78 0.06 1.18 0.09 0.11 0 0.15 0.06 0.18 0.16 0.12 0.36 0.25 0.71 0.38 1.06 0.13 0.35 0.18 0.4 0.26 0.6a0.4 0.4 0 0 1 0 0.22c-0.09 0.37 -0.2 0.73 -0.29 1.09-0.09 0.36 -0.17 0.76 -0.22 1.14-0.07 0.447 -0.113 0.898 -0.13 1.35v2.67c0 0.54 0.09 1.09 0.15 1.63 0 0.33 0.07 0.66 0.14 1 0.1 0.5 0.21 1 0.34 1.49 0.13 0.49 0.24 0.8 0.36 1.19 0.05 0.16 0.11 0.317 0.18 0.47a0.36 0.36 0 0 1 0 0.31 9.63 9.63 0 0 1-0.82 1.62c-0.13 0.21 -0.28 0.41 -0.44 0.6 a0.21 0.21 0 0 1-0.15 0.05 l-1.73-0.03zM19.59 30.53H17.9a0.23 0.23 0 0 1-0.21-0.1 8.68 8.68 0 0 1-1-1.6 5.58 5.58 0 0 1-0.24-0.58 0.34 0.34 0 0 1 0-0.21c0.15-0.44 0.32 -0.88 0.46 -1.33a11.915 11.915 0 0 0 0.48-2.07c0.05-0.36 0.14 -1 0.19-1.44 0.048 -0.355 0.078 -0.712 0.09 -1.07v-2.62c0-0.5-0.1-1-0.16-1.5a8.1 8.1 0 0 0-0.13-0.83 11.92 11.92 0 0 0-0.3-1.18 0.74 0.74 0 0 1 0-0.58c0.14-0.34 0.27 -0.68 0.41 -1 0-0.13 0.08 -0.26 0.13 -0.39a0.18 0.18 0 0 1 0.1-0.09 1 1 0 0 1 0.26 0c0.68 0 1.36-0.06 2-0.05 0.45 0 0.9 0.07 1.35 0.1 0.17 0 0.13 0.15 0.16 0.24 0.23 0.54 0.43 1.09 0.66 1.64 0.23 0.55 0.46 1.07 0.67 1.61 0.15 0.39 0.29 0.79 0.41 1.2 0.12 0.41 0.14 0.61 0.2 0.92a15 15 0 0 1 0.21 3.4c0 0.62-0.08 1.23-0.15 1.84a10.63 10.63 0 0 1-0.21 1.33c-0.15 0.61 -0.33 1.22-0.52 1.81a8.68 8.68 0 0 1-1.2 2.36 0.59 0.59 0 0 1-0.58 0.29 c-0.4-0.11-0.9-0.1-1.39-0.1zM13.82 6.47a8.07 8.07 0 0 0-3.91 0c0-0.33-0.09-0.64-0.14-1-0.05-0.36-0.14-0.75-0.22-1.13-0.08-0.38-0.11-0.51-0.16-0.77a4.41 4.41 0 0 1-0.16-1 2.64 2.64 0 1 1 5.25 0.43 c0 0.31-0.14 0.61 -0.21 0.91 -0.07 0.3 -0.1 0.43 -0.14 0.64 -0.08 0.427 -0.157 0.85 -0.23 1.27-0.03 0.18 -0.05 0.43 -0.08 0.65 zM21.27 10h-0.32c-0.37 0-0.73-0.11-1.1-0.11a11.07 11.07 0 0 0-1.19 0.07 5.68 5.68 0 0 0-0.59 0.11 c-0.11 0-0.15 0-0.17-0.13-0.06-0.43-0.12-0.86-0.19-1.29-0.07-0.43-0.15-0.62-0.21-0.94a4.32 4.32 0 0 1-0.13-0.92 2.2 2.2 0 0 1 1.21-2A2.1 2.1 0 0 1 20 4.55a2.19 2.19 0 0 1 1.58 1.2c0.218 0.432 0.295 0.922 0.22 1.4 0 0.3-0.14 0.6 -0.2 0.89 -0.06 0.29 -0.09 0.45 -0.13 0.68 -0.04 0.23 -0.11 0.66 -0.16 1-0.02 0.09 -0.02 0.19 -0.04 0.28 zM4.25 4.52a2.17 2.17 0 0 1 1.67 0.9 c0.198 0.267 0.334 0.574 0.4 0.9 a2.38 2.38 0 0 1-0.06 1.15c-0.08 0.3 -0.13 0.61 -0.19 0.91 -0.06 0.3 -0.15 0.8 -0.22 1.19v0.33c0 0.11-0.05 0.12 -0.14 0.09 a3.79 3.79 0 0 0-1.29-0.17c-0.41 0-0.81 0-1.22 0.07 a6 6 0 0 0-0.6 0.11 c-0.1 0-0.13 0-0.14-0.12 0-0.34-0.11-0.69-0.16-1-0.05-0.31-0.08-0.47-0.13-0.71S2 7.73 2 7.52a2.65 2.65 0 0 1 0-1.23 2.18 2.18 0 0 1 0.74-1.24 2.14 2.14 0 0 1 1.51-0.53zM13.76 9.48h-0.25a12.61 12.61 0 0 0-2.41-0.05l-1.1 0.09 c-0.09 0-0.1 0-0.1-0.1S10 9 10 8.8v-0.67c0-0.22 0.06 -0.18 0.17 -0.19a12 12 0 0 1 2.06-0.13l1.11 0.07 0.3 0.05 a0.12 0.12 0 0 1 0.08 0.08 c0 0.48 0 1 0.06 1.43l-0.02 0.04 zM5.69 11.28l0.06 1.32a13.09 13.09 0 0 0-3.25 0v-0.49-0.72c0-0.08 0-0.12 0.11 -0.14a9.77 9.77 0 0 1 2.15-0.12c0.34 0.05 0.64 0.11 0.93 0.15 zM21.23 12.6a13.1 13.1 0 0 0-3.27 0v-0.23-1c0-0.08 0-0.13 0.11 -0.15a9.63 9.63 0 0 1 2.07-0.13c0.31 0 0.62 0.08 0.93 0.12 a0.1 0.1 0 0 1 0.06 0.07 c0.07 0.47 0.09 0.88 0.1 1.32z" fill="#FFF"/>
</svg>
