<?xml version="1.0" ?>
<svg xmlns="http://www.w3.org/2000/svg" width="40" height="36" viewBox="0 0 40 36">
  <path d="M3.35 13.63a0.92 0.92 0 0 0 0 0.16v4a0.75 0.75 0 0 0 0 0.15 0.88 0.88 0 0 1-0.41 1.06 2 2 0 0 1-1.69 0.34 1.84 1.84 0 0 1-0.92-0.44 1 1 0 0 1-0.33-0.66 0.94 0.94 0 0 1 0.3-0.72 1.58 1.58 0 0 1 1-0.48 2.25 2.25 0 0 1 1.56 0.3 V12.4c0-0.1 0-0.22 0.11 -0.25a0.32 0.32 0 0 1 0.39 0.13 2.73 2.73 0 0 0 1.47 1.18c0.485 0.15 0.996 0.198 1.5 0.14 a3.22 3.22 0 0 0 0.6-0.13c0.15 0 0.18 0 0.18 0.14 V15c0 0.1 0 0.16-0.14 0.19 a3.22 3.22 0 0 1-3.45-1.37 1.84 1.84 0 0 0-0.17-0.22v0.03zM33.59 12.28V4.13c0-0.54 0.08 -0.63 0.61 -0.49a12.43 12.43 0 0 1 1.86 0.65 5.88 5.88 0 0 1 2.48 2.1 4.83 4.83 0 0 1 0.78 1.89c0 0.27 0.09 0.54 0.13 0.81a0.31 0.31 0 0 1-0.07 0.26 c-0.17-0.31-0.33-0.62-0.52-0.93A9.36 9.36 0 0 0 36 5.26a9.75 9.75 0 0 0-1.25-0.63c-0.16-0.07-0.28 0-0.28 0.2 v0.37c0 0.12 0.1 0.29 0.25 0.36a9.18 9.18 0 0 1 3.52 2.57c0.39 0.47 0.74 1 1.1 1.48 0 0.05 0 0.12 0.09 0.14-0.31-0.27-0.63-0.54-0.94-0.83A8.76 8.76 0 0 0 35.63 7a8.27 8.27 0 0 0-1.12-0.25c-0.18-0.04-0.27 0.04 -0.27 0.24 v6.31a1.62 1.62 0 0 1-1.07 1.56 3 3 0 0 1-2.92-0.21 1.27 1.27 0 0 1-0.65-1.53 1.68 1.68 0 0 1 1.09-1.05 3.16 3.16 0 0 1 2.62 0.1 l0.28 0.11 zM20.07 7.79V0.08h0.07c0.56-0.09 0.58 -0.07 0.58 0.49v8.61A1.43 1.43 0 0 1 20 10.4a3.18 3.18 0 0 1-2.36 0.44 2.43 2.43 0 0 1-1.7-1A1.32 1.32 0 0 1 16.23 8a2.84 2.84 0 0 1 1.5-0.66 3.22 3.22 0 0 1 2.07 0.35 0.38 0.38 0 0 0 0.1 0l0.17 0.1 zM0.51 26.16c0.26-0.23 0.51 -0.43 0.74 -0.67l2.55-2.72a24.07 24.07 0 0 1 2.47-2.37A19.39 19.39 0 0 1 11 17.59a7 7 0 0 1 1.75-0.48 3.52 3.52 0 0 1 1.63 0.28 c0.6 0.21 1.19 0.44 1.8 0.6 a4.29 4.29 0 0 0 2.46 0c0.64-0.21 1.28-0.45 1.9-0.7a2.56 2.56 0 0 1 1.34-0.15c1.243 0.2 2.446 0.603 3.56 1.19a13.79 13.79 0 0 1 3.47 2.59c1.25 1.21 2.44 2.47 3.66 3.7 0.34 0.34 0.68 0.67 1 1 0.32 0.33 0.49 0.37 0.79 0.61 a0.38 0.38 0 0 0-0.12 0.05 A21.26 21.26 0 0 0 31.38 29c-0.85 0.9 -1.7 1.81-2.59 2.67a13.81 13.81 0 0 1-4.17 2.75 16.12 16.12 0 0 1-3 0.9 23 23 0 0 1-5.11 0.37 21.9 21.9 0 0 1-3.32-0.37A14.81 14.81 0 0 1 9 33.78a16.81 16.81 0 0 1-4-3.2c-0.87-0.92-1.71-1.86-2.6-2.76-0.55-0.55-1.17-1-1.76-1.55l-0.13-0.11zm3.8 0.17 l2.9 0.67 c0.88 0.18 1.75 0.36 2.63 0.51 0.88 0.15 1.78 0.27 2.68 0.35 1.22 0.11 2.44 0.21 3.67 0.25 A41.75 41.75 0 0 0 22 27.9c0.56-0.06 1.13-0.13 1.69-0.22s1.37-0.23 2-0.37c0.63-0.14 1.32-0.28 2-0.42l2-0.44 0.77 -0.16a2 2 0 0 0-0.3-0.14c-0.79-0.33-1.58-0.64-2.35-1A15.54 15.54 0 0 0 23 23.63a4.91 4.91 0 0 0-2 0.12 12 12 0 0 1-2.35 0.54 9 9 0 0 1-2.43-0.05c-0.81-0.15-1.62-0.33-2.44-0.45a8.49 8.49 0 0 0-3.51 0.23 22.22 22.22 0 0 0-3.45 1.28l-1.94 0.85 a5.4 5.4 0 0 1-0.57 0.18 z" fill="#FFF"/>
</svg>
