<?xml version="1.0" ?>
<svg xmlns="http://www.w3.org/2000/svg" width="44" height="29" viewBox="0 0 44 29">
  <path d="M31.89 22.25l0.26 0.15 c0.413 0.263 0.92 0.335 1.39 0.2 a1.8 1.8 0 0 0 0.88-2.94l-1.48-1.73-5.38-6.27c-0.47-0.54-0.92-1.08-1.39-1.61a3.87 3.87 0 0 0-0.47-0.43 1.05 1.05 0 0 0-1.55 0.11 l-2.67 2.69a3.15 3.15 0 0 1-3.31 0.86 A3.21 3.21 0 0 1 16 10.49a3.26 3.26 0 0 1 1-2.57c1.26-1.24 2.5-2.49 3.75-3.73 0.13 -0.13 0.16 -0.21 0-0.34A3.8 3.8 0 0 0 18.42 3a6.65 6.65 0 0 0-3 0.73c-1.67 0.78 -3.34 1.59-5 2.39a0.55 0.55 0 0 1-0.47 0l-2.24-0.79c-0.18-0.07-0.26 0-0.27 0.15 a0.69 0.69 0 0 0 0 0.13C7.27 7 7.13 8.41 7 9.82c-0.13 1.41-0.3 3-0.46 4.52-0.18 1.78-0.37 3.55-0.56 5.33 0 0.44 0 0.44 0.37 0.59l0.34 0.13 0.48 0.16 v-0.06-0.08A2.56 2.56 0 0 1 7.88 19c1-1.08 2-2.16 3-3.22a2.6 2.6 0 0 1 1.94-0.78A2.81 2.81 0 0 1 15 16a0.28 0.28 0 0 0 0.36 0.1 2.46 2.46 0 0 1 0.66-0.11 2.78 2.78 0 0 1 2.62 1.47 0.26 0.26 0 0 0 0.3 0.16 2.62 2.62 0 0 1 1.46 0.27 2.74 2.74 0 0 1 1.61 2.47c0 0.13 0 0.23 0.17 0.3a2.83 2.83 0 0 1 1.33 4.23c-0.41 0.63 -0.82 1.26-1.24 1.88a0.26 0.26 0 0 0 0 0.4c0.16 0.15 0.29 0.35 0.46 0.5 a1.71 1.71 0 0 0 1.81 0.38 1.68 1.68 0 0 0 1.17-1.32c0-0.16 0.05 -0.34 0.08 -0.53a1.84 1.84 0 0 0 3-2 1.83 1.83 0 0 0 3.06-1.92l0.04-0.03zM17 10.3a5 5 0 0 0 0.19 0.76 2.16 2.16 0 0 0 3.57 0.71 c0.51-0.49 1-1 1.5-1.51s0.88-0.9 1.34-1.33a1.93 1.93 0 0 1 2-0.5 3 3 0 0 1 1.35 1L31.72 15l4.5 5.24a0.29 0.29 0 0 0 0.38 0.1 c0.27-0.11 0.54 -0.22 0.82 -0.31a0.2 0.2 0 0 0 0.16-0.26c0-0.22 0-0.44-0.07-0.66-0.1-0.95-0.19-1.9-0.29-2.85l-0.3-2.9c-0.1-0.95-0.2-1.9-0.29-2.85-0.09-0.95-0.21-2-0.31-3-0.08-0.7-0.15-1.4-0.22-2.09 0-0.17-0.09-0.21-0.24-0.15l-2.5 0.88 a0.6 0.6 0 0 1-0.51 0l-4.13-2a10.82 10.82 0 0 0-3-1.09 3.82 3.82 0 0 0-3.46 1c-1.59 1.56-3.15 3.13-4.71 4.7A2.25 2.25 0 0 0 17 10.3zm-2.28 7.51a0.7 0.7 0 0 1 0-0.14 1.72 1.72 0 0 0-1.26-1.55 1.7 1.7 0 0 0-1.83 0.47 c-1 1-1.89 2-2.83 3-0.24 0.248 -0.4 0.56 -0.46 0.9 a1.79 1.79 0 0 0 2.32 2l0.32-0.1a1.77 1.77 0 0 0 0.21 2.32 1.81 1.81 0 0 0 2.57 0l-0.1 0.45 a1.8 1.8 0 0 0 3.22 1.36l0.24-0.28c0 0.28-0.09 0.52 -0.09 0.75 a1.8 1.8 0 0 0 1.43 1.71 1.69 1.69 0 0 0 1.83-0.71c0.86-1.28 1.72-2.56 2.53-3.87a1.75 1.75 0 0 0-1.08-2.62 5.92 5.92 0 0 0-1-0.08 1.76 1.76 0 0 0-0.27-2.37 1.79 1.79 0 0 0-2.46 0 1.76 1.76 0 0 0-1.12-2 1.82 1.82 0 0 0-2.22 0.76 h0.05zm23.87 2.82l0.21-0.06 4.59-2.15a0.3 0.3 0 0 0 0.21-0.32V0.24a1.93 1.93 0 0 0 0-0.23c-2.26 1.11-4.41 2.2-6.6 3.31a0.3 0.3 0 0 0-0.14 0.24 c0.09 1.12 0.2 2.24 0.31 3.36 0.12 1.28 0.25 2.57 0.38 3.85 0.13 1.28 0.24 2.64 0.37 4 0.13 1.36 0.27 2.81 0.41 4.21 0.09 0.51 0.15 1.02 0.21 1.65h0.05zM0 0V18.08a0.34 0.34 0 0 0 0.22 0.35 l4.57 2.14c0.065 0.026 0.132 0.046 0.2 0.06 a0.45 0.45 0 0 0 0-0.13c0.17-1.68 0.33 -3.36 0.5 -5 0.2-2.05 0.39 -4.09 0.59 -6.14 0.2 -2.05 0.36 -3.82 0.55 -5.73a0.28 0.28 0 0 0-0.18-0.31A547.54 547.54 0 0 0 0 0z" fill="#FFF"/>
  <path d="M31.89 22.25a1.83 1.83 0 0 1-3.06 1.92 1.84 1.84 0 0 1-3 2c0 0.19 0 0.37-0.08 0.53 a1.68 1.68 0 0 1-1.17 1.32 1.71 1.71 0 0 1-1.81-0.38c-0.17-0.15-0.3-0.35-0.46-0.5a0.26 0.26 0 0 1 0-0.4c0.42-0.62 0.83 -1.25 1.24-1.88a2.83 2.83 0 0 0-1.33-4.23c-0.16-0.07-0.16-0.17-0.17-0.3a2.74 2.74 0 0 0-1.61-2.47 2.62 2.62 0 0 0-1.44-0.22 0.26 0.26 0 0 1-0.3-0.16A2.78 2.78 0 0 0 16.06 16a2.46 2.46 0 0 0-0.66 0.11 0.28 0.28 0 0 1-0.4-0.11 2.81 2.81 0 0 0-2.22-1 2.6 2.6 0 0 0-1.92 0.79 c-1 1.06-2 2.14-3 3.22a2.56 2.56 0 0 0-0.65 1.41v0.14l-0.48-0.16-0.34-0.13c-0.42-0.15-0.42-0.15-0.37-0.59 0.19 -1.78 0.38 -3.55 0.56 -5.33 0.16 -1.51 0.3 -3 0.46-4.52 0.16 -1.52 0.23 -2.83 0.38 -4.22a0.69 0.69 0 0 1 0-0.13c0-0.2 0.09 -0.22 0.27 -0.15l2.31 0.79 a0.55 0.55 0 0 0 0.47 0c1.67-0.8 3.34-1.61 5-2.39a6.65 6.65 0 0 1 3-0.73 3.8 3.8 0 0 1 2.32 0.87 c0.16 0.13 0.13 0.21 0 0.34-1.3 1.22-2.54 2.47-3.79 3.71a3.26 3.26 0 0 0-1 2.57 3.21 3.21 0 0 0 2.18 2.79 3.15 3.15 0 0 0 3.31-0.86l2.67-2.69a1.05 1.05 0 0 1 1.55-0.11c0.168 0.13 0.325 0.274 0.47 0.43 0.47 0.53 0.92 1.07 1.39 1.61l5.38 6.27 1.48 1.73a1.8 1.8 0 0 1-0.88 2.94 1.71 1.71 0 0 1-1.39-0.2l-0.27-0.15z" fill="#FFF"/>
  <path d="M17 10.3a2.25 2.25 0 0 1 0.63-1.53c1.56-1.57 3.12-3.14 4.71-4.7a3.82 3.82 0 0 1 3.46-1c1.048 0.213 2.06 0.58 3 1.09l4.13 2a0.6 0.6 0 0 0 0.51 0l2.5-0.88c0.15-0.06 0.22 0 0.24 0.15 0.07 0.69 0.14 1.39 0.22 2.09 0.1 1 0.2 2 0.31 3 0.11 1 0.19 1.9 0.29 2.85l0.3 2.9c0.1 0.95 0.19 1.9 0.29 2.85 0 0.22 0.05 0.44 0.07 0.66a0.2 0.2 0 0 1-0.16 0.26 c-0.28 0.09 -0.55 0.2 -0.82 0.31 a0.29 0.29 0 0 1-0.38-0.1L31.72 15l-4.79-5.6a3 3 0 0 0-1.35-1 1.93 1.93 0 0 0-2 0.5c-0.46 0.43 -0.9 0.89 -1.34 1.33-0.44 0.44 -1 1-1.5 1.51a2.16 2.16 0 0 1-3.57-0.71 5 5 0 0 1-0.17-0.73zM14.67 17.81a1.82 1.82 0 0 1 2.18-0.63 1.76 1.76 0 0 1 1.12 2 1.79 1.79 0 0 1 2.46 0c0.693 0.6 0.81 1.63 0.27 2.37a5.92 5.92 0 0 1 1 0.08 1.75 1.75 0 0 1 1.08 2.62c-0.81 1.31-1.67 2.59-2.53 3.87a1.69 1.69 0 0 1-1.83 0.71 A1.8 1.8 0 0 1 17 27.09c0-0.23 0.06 -0.47 0.09 -0.75l-0.24 0.28 a1.8 1.8 0 0 1-3.22-1.36l0.1-0.45a1.81 1.81 0 0 1-2.57 0 1.77 1.77 0 0 1-0.21-2.32l-0.32 0.1 a1.79 1.79 0 0 1-2.32-2c0.06-0.34 0.22 -0.652 0.46 -0.9 0.94 -1 1.87-2 2.83-3a1.7 1.7 0 0 1 1.83-0.47 1.72 1.72 0 0 1 1.26 1.55 0.7 0.7 0 0 0-0.02 0.04 zM38.54 20.63c-0.06-0.59-0.12-1.14-0.17-1.7-0.14-1.4-0.28-2.8-0.41-4.21-0.13-1.41-0.25-2.63-0.37-4s-0.26-2.57-0.38-3.85C37.1 5.8 37 4.68 36.9 3.56a0.3 0.3 0 0 1 0.1-0.24c2.15-1.11 4.3-2.2 6.49-3.31a1.93 1.93 0 0 1 0 0.23V18.1a0.3 0.3 0 0 1-0.21 0.32 l-4.59 2.15-0.15 0.06 zM0 0c2.19 1.11 4.33 2.21 6.48 3.29a0.28 0.28 0 0 1 0.18 0.31 573.135 573.135 0 0 0-0.55 5.73c-0.2 2.05-0.39 4.09-0.59 6.14-0.17 1.67-0.33 3.35-0.5 5a0.45 0.45 0 0 1 0 0.13 1.17 1.17 0 0 1-0.2-0.06l-4.6-2.11a0.34 0.34 0 0 1-0.22-0.35V0z" fill="#FFF"/>
</svg>
