<?xml version="1.0" ?>
<svg xmlns="http://www.w3.org/2000/svg" width="44" height="27" viewBox="0 0 44 27">
  <path d="M29.63 18.57l0.26 0.14 a13 13 0 0 0 2.73 1.38 0.58 0.58 0 0 0 0.65-0.1 4.37 4.37 0 0 1 1.06-0.71 2.15 2.15 0 0 1 2.2 0.31 c0.91 0.66 1.81 1.33 2.73 1.95a9.18 9.18 0 0 0 2.29 1.17c0.24 0.083 0.488 0.137 0.74 0.16 a1.06 1.06 0 0 0 1.23-1.14 7.59 7.59 0 0 0-0.21-1.31c-0.18-1.09-0.43-2.17-0.52-3.26a36.14 36.14 0 0 1-0.12-3.75c0.03-1.308 0.18 -2.61 0.45 -3.89l0.45-2.24a1.37 1.37 0 0 0 0-0.29c0-0.82-0.54-1.07-1.24-0.93a8.84 8.84 0 0 0-3.18 1.45c-0.82 0.53 -1.61 1.1-2.38 1.69a2.54 2.54 0 0 1-2.12 0.61 2.49 2.49 0 0 1-1.12-0.57A25 25 0 0 0 29 6.15a0.28 0.28 0 0 1-0.19-0.34c0.15-1 0.29-1.93 0.45 -2.88 0.09 -0.52 0.23 -1 0.3-1.56 0.14 -0.83-0.4-1.21-1.1-1.32a7.05 7.05 0 0 0-2.7 0.23 22.56 22.56 0 0 0-5.32 2c-0.69 0.36 -1.32 0.81 -2 1.21a0.75 0.75 0 0 1-0.38 0.13 20.56 20.56 0 0 0-5 0.81A22.84 22.84 0 0 0 5.91 8a27.46 27.46 0 0 0-5.53 5.46 1.49 1.49 0 0 0 0 2 26.87 26.87 0 0 0 6.89 6.39 22.25 22.25 0 0 0 5.88 2.65c2.46 0.706 5.03 0.954 7.58 0.73 a22.06 22.06 0 0 0 4.78-1 0.25 0.25 0 0 1 0.36 0.14 c0.16 0.32 0.35 0.62 0.52 0.94 a2.32 2.32 0 0 0 2.43 1.3A5.27 5.27 0 0 0 32 25.3a2.32 2.32 0 0 0 0.86-2.19 2.73 2.73 0 0 0-0.56-1.25L29.85 19c-0.09-0.1-0.17-0.22-0.26-0.33l0.04-0.1zM14.93 21h-0.09a13.83 13.83 0 0 0 2-10.86 1 1 0 0 1 0.22 0.23 8.59 8.59 0 0 1 1.78 4.18 6 6 0 0 1-0.59 3.64 6.31 6.31 0 0 1-3 2.75l-0.32 0.06 zM9.09 10.77a2.16 2.16 0 1 1-2.16 2.17 2.15 2.15 0 0 1 2.16-2.17z" fill="#FFF"/>
</svg>
