<?xml version="1.0" ?>
<svg xmlns="http://www.w3.org/2000/svg" width="27" height="32" viewBox="0 0 27 32">
  <path d="M12.64 15.85H8.39a1.3 1.3 0 0 0-1.27 0.86 c-0.86 2.127-1.727 4.25-2.6 6.37l-0.87 2.16a0.19 0.19 0 0 1-0.24 0.14 l-1.78-0.28a1.42 1.42 0 0 0-1.08 0.15 A1.22 1.22 0 0 0 0 26.5a1.19 1.19 0 0 0 1 0.95l2.3 0.36 0.76 0.12 a1.27 1.27 0 0 0 1.46-0.88c0.65-1.64 1.33-3.26 2-4.89 0.507 -1.24 1-2.487 1.48-3.74a0.2 0.2 0 0 1 0.22-0.15h9.1a1.19 1.19 0 0 0 1.16-0.78 1.09 1.09 0 0 0 0.08-0.35c0.09-1.53 0.17 -3.06 0.26 -4.59 0.07 -1.23 0.15 -2.45 0.22 -3.68 0-0.84 0.09 -1.69 0.14 -2.53 0-0.5 0.06 -1 0.09-1.51a0.5 0.5 0 0 1 0.08-0.24 2.82 2.82 0 0 0 0.48-2.18A2.83 2.83 0 0 0 19 0.2a2.59 2.59 0 0 0-1.32-0.2 2.87 2.87 0 0 0-2.32 1.71 2.9 2.9 0 0 0 1.92 4l0.4 0.08 c0.1 0 0.14 0.06 0.13 0.16 a488.97 488.97 0 0 0-0.19 3.21v0.7c0 0.24 0 0.21-0.22 0.21 H12a1.2 1.2 0 0 0-1.19 0.84 1.21 1.21 0 0 0 0.84 1.53 2 2 0 0 0 0.43 0.05 h5.19c0.19 0 0.2 0 0.19 0.19 -0.06 1-0.12 2-0.17 3 0 0.12-0.07 0.13 -0.17 0.13 h-4.48v0.04z" fill="#FFF"/>
  <path d="M21.36 12.27a1.35 1.35 0 0 0 0 0.16c0 0.79-0.09 1.58-0.14 2.38a0.27 0.27 0 0 0 0.13 0.26 7.48 7.48 0 0 1 2.73 3.76 7.09 7.09 0 0 1 0.34 3 7.36 7.36 0 0 1-3.42 5.6 7.08 7.08 0 0 1-4.92 1.17 7.37 7.37 0 0 1-6-4.4 6.7 6.7 0 0 1-0.63-2.57v-0.14a0.88 0.88 0 0 0-0.09 0.13 l-1.47 3.47a0.29 0.29 0 0 0 0 0.26 10 10 0 0 0 3 3.74 9.87 9.87 0 0 0 3 1.55 8.46 8.46 0 0 0 1.94 0.39 c0.45 0 0.9 0.06 1.35 0.05 a9.23 9.23 0 0 0 2-0.28 9.62 9.62 0 0 0 2.87-1.21 9.9 9.9 0 0 0 3.74-4.19 9.4 9.4 0 0 0 0.92-5 9.81 9.81 0 0 0-5.28-8.06l-0.07-0.07z" fill="#FFF"/>
</svg>
