<?xml version="1.0" ?>
<svg xmlns="http://www.w3.org/2000/svg" width="37" height="36" viewBox="0 0 37 36">
  <path d="M36.64 15a11.89 11.89 0 0 1-0.57 3.48A18.41 18.41 0 0 1 33.18 24 29.36 29.36 0 0 1 28 29.34a33.38 33.38 0 0 1-7 4.35 25.83 25.83 0 0 1-4 1.49 20.18 20.18 0 0 1-5.92 0.76 16.57 16.57 0 0 1-3.23-0.4A14.85 14.85 0 0 1 3.71 34a7.05 7.05 0 0 1-3.42-4.3 8 8 0 0 1-0.24-3A12.32 12.32 0 0 1 1.56 22a20.83 20.83 0 0 1 3.09-4.23 29.67 29.67 0 0 1 3.79-3.44 0.26 0.26 0 0 0 0.1-0.35 14 14 0 0 0-2.09-3.78 6 6 0 0 1-1.2-2.95 7.26 7.26 0 0 1 0-2.42A5.78 5.78 0 0 1 8.93 0.33 a4.74 4.74 0 0 1 2.4-0.33A5.57 5.57 0 0 1 14 1.21a7.27 7.27 0 0 1 2.38 3.12 29.54 29.54 0 0 0 2.22 4.33 0.25 0.25 0 0 0 0.34 0.12 c1.26-0.38 2.5-0.78 3.76-1.11A20.21 20.21 0 0 1 28.39 7a10.43 10.43 0 0 1 4 0.83 6.91 6.91 0 0 1 3.48 3.42 8.46 8.46 0 0 1 0.77 3.75zM9.36 18.66l-0.15 0.13 a17.41 17.41 0 0 0-2.1 2.55A8.61 8.61 0 0 0 5.61 25a4.24 4.24 0 0 0 0.14 1.8A4.19 4.19 0 0 0 7.52 29 7.8 7.8 0 0 0 12 30.29a13.21 13.21 0 0 0 3.7-0.56A21.16 21.16 0 0 0 19.79 28a32.51 32.51 0 0 0 7-5.07 19.61 19.61 0 0 0 3.48-4.2 7.73 7.73 0 0 0 1.22-3.42 3.36 3.36 0 0 0-0.3-1.73A3.58 3.58 0 0 0 29.46 12a8.86 8.86 0 0 0-3.81-0.84 15.43 15.43 0 0 0-2.26 0.14 c-0.77 0.1 -1.53 0.29 -2.29 0.45 a0.89 0.89 0 0 0-0.17 0.07 l0.07 0.11 A9.85 9.85 0 0 0 23.65 14a4.71 4.71 0 0 0 2.47 0.6 c0.26 0 0.52-0.06 0.79 -0.09a0.74 0.74 0 0 1 0.83 0.64 0.76 0.76 0 0 1-0.6 0.82 5.9 5.9 0 0 1-2 0.07A7 7 0 0 1 22.33 15a14.13 14.13 0 0 1-3.58-3.48 30.84 30.84 0 0 1-3.19-5.37c-0.29-0.6-0.54-1.22-0.82-1.82a5.39 5.39 0 0 0-2.09-2.23 3.4 3.4 0 0 0-3-0.44 4.37 4.37 0 0 0-3 3.57A6.31 6.31 0 0 0 6.72 7a4.72 4.72 0 0 0 1 2.37 15.22 15.22 0 0 1 2.79 6 16.24 16.24 0 0 1 0.39 3.23 17.26 17.26 0 0 1-0.38 4.24c-0.18 0.8 -0.42 1.6-0.66 2.39a0.73 0.73 0 0 1-1 0.49 0.77 0.77 0 0 1-0.44-1c0.23-0.81 0.49 -1.62 0.64 -2.45 0.15 -0.83 0.21 -1.67 0.29 -2.52 0.04 -0.36 0.01 -0.75 0.01 -1.09z" fill="#FFF"/>
</svg>
