<?xml version="1.0" ?>
<svg xmlns="http://www.w3.org/2000/svg" width="44" height="14" viewBox="0 0 44 14">
  <path d="M15.61 0v13.17h-6a6 6 0 0 0-0.24-0.75A996.2 996.2 0 0 0 6.86 7c-0.1-0.2-0.21-0.39-0.35-0.67-0.68 1.49-1.31 2.89-1.92 4.3-0.36 0.84 -0.68 1.69-1 2.54H0.33c-0.11 0-0.22-0.1-0.33-0.15a6.33 6.33 0 0 0 0.48-0.71C2.44 8.203 4.393 4.1 6.34 0h0.49L13 12.86c0.15-2.06 0.14 -4.06 0.15 -6 0-2.267 0.017 -4.537 0.05 -6.81L15.61 0zM39.44 10.72h-2.16c0-1.91-0.33-3.87 1.5-5.25L37 2.44h2c0.18 0 0.37 0.28 0.48 0.48 a27.94 27.94 0 0 0 2 3.06v-3.5h2.12c0.07 1.82 0.22 3.62-1.55 4.88l1.78 3.2c-1.37 0.53 -2.1 0.28 -2.69-0.84a25 25 0 0 0-1.7-2.91v3.91zM32.6 2.43h1.52a2 2 0 0 1 1.81 1.17 5.63 5.63 0 0 1-2 6.67 12.85 12.85 0 0 1-1.81 0.7 c-0.2-0.78-0.17-1.24 0.53 -1.66 1.27-0.78 1.92-3.74 1.19-5a2 2 0 0 0-0.74-0.54 0.89 0.89 0 0 0-0.4 0c-2.21-0.05-2.41-0.31-2-2.59h1.8l0.1 1.25zM24.43 3.7V2.46c1.06 0 2.08-0.07 3.09 0a2.17 2.17 0 0 1 1.87 1.6 5.34 5.34 0 0 1-0.91 5.42l1.41 0.07 v1.15h-5.46V9.54h1.35a1.35 1.35 0 0 0 1.45-0.94 5.79 5.79 0 0 0 0.06-4 1.24 1.24 0 0 0-1.36-0.92c-0.48 0.04 -0.93 0.02 -1.5 0.02 zM18.11 2.45c1.07 0 2.09-0.06 3.11 0a2 2 0 0 1 2.06 1.92c0.1 2.1 0 4.2 0 6.34h-2v-5c0-1.73-0.25-2-2-2H19c-1.09 0.01 -1.1-0.02-0.89-1.26z" fill="#FFF"/>
</svg>
