<?xml version="1.0" ?>
<svg xmlns="http://www.w3.org/2000/svg" width="42" height="36" viewBox="0 0 42 36">
  <path d="M7.44 5.51a1.94 1.94 0 0 1-2 2 2 2 0 1 1 2-2zM9.66 8.84a0.82 0.82 0 0 1-0.74 0.82 0.56 0.56 0 0 1-0.47-0.2C8.06 9 7.68 8.49 7.32 8a0.48 0.48 0 0 1 0.24-0.75 0.6 0.6 0 0 1 0.56 0.13 c0.44 0.32 0.86 0.66 1.29 1a0.67 0.67 0 0 1 0.25 0.46 zM2.13 1.38c0.2 0.003 0.388 0.09 0.52 0.24 0.33 0.42 0.66 0.84 1 1.27 0.068 0.104 0.125 0.214 0.17 0.33a0.43 0.43 0 0 1-0.13 0.45 0.43 0.43 0 0 1-0.46 0.12 2.94 2.94 0 0 1-0.81-0.54c-0.25-0.18-0.48-0.37-0.72-0.56a0.6 0.6 0 0 1-0.29-0.59 0.78 0.78 0 0 1 0.49-0.64l0.23-0.08zM9.66 2.14a0.66 0.66 0 0 1-0.24 0.52 l-1.25 1a1.44 1.44 0 0 1-0.33 0.16 0.37 0.37 0 0 1-0.45-0.11 0.39 0.39 0 0 1-0.12-0.51c0.17-0.26 0.35 -0.52 0.53 -0.77 0.18 -0.25 0.38 -0.46 0.53 -0.7a0.71 0.71 0 0 1 1-0.16 0.81 0.81 0 0 1 0.33 0.57 zM1.4 8.86a0.67 0.67 0 0 1 0.27-0.52c0.41-0.29 0.81 -0.62 1.21-0.92a0.87 0.87 0 0 1 0.33-0.17 0.41 0.41 0 0 1 0.46 0.13 0.4 0.4 0 0 1 0.11 0.47 3 3 0 0 1-0.29 0.49 c-0.27 0.36 -0.55 0.7 -0.82 1.05a0.68 0.68 0 0 1-1.08 0 0.79 0.79 0 0 1-0.19-0.53zM10.24 6.25l-0.76-0.13c-0.23 0-0.47 0-0.7-0.08a1.9 1.9 0 0 1-0.39-0.11 0.41 0.41 0 0 1-0.26-0.42 0.42 0.42 0 0 1 0.29-0.43c0.19-0.043 0.385 -0.07 0.58 -0.08l0.84-0.12c0.193-0.01 0.387 -0.01 0.58 0a0.73 0.73 0 0 1 0.11 1.43 1.17 1.17 0 0 1-0.29-0.06zM0.75 6.24A0.7 0.7 0 0 1 0 5.65a0.79 0.79 0 0 1 0.41-0.81 0.76 0.76 0 0 1 0.3 0l0.74 0.08 c0.33 0 0.66 0.08 1 0.14a0.48 0.48 0 0 1 0.41 0.3 0.47 0.47 0 0 1-0.09 0.54 1.11 1.11 0 0 1-0.45 0.1 c-0.44 0.07 -0.88 0.12 -1.33 0.18 l-0.24 0.06 zM6.25 10.25a0.71 0.71 0 0 1-0.64 0.78 0.7 0.7 0 0 1-0.8-0.66c0-0.35 0.08 -0.69 0.12 -1 0-0.2 0-0.4 0.07 -0.6a1.82 1.82 0 0 1 0.14-0.39 0.4 0.4 0 0 1 0.43-0.21 0.45 0.45 0 0 1 0.43 0.3 c0 0.22 0.09 0.43 0.12 0.64 0.04 0.38 0.08 0.76 0.13 1.14zM6.23 1c0 0.29-0.11 0.77 -0.18 1.25a0.78 0.78 0 0 1-0.19 0.5 0.52 0.52 0 0 1-0.69 0 1 1 0 0 1-0.17-0.5c0-0.38-0.09-0.75-0.14-1.13V0.69A0.7 0.7 0 0 1 5.72 0 1 1 0 0 1 6 0.2c0.25 0.2 0.25 0.24 0.23 0.8 zM20.47 6l0.46-0.28a6.41 6.41 0 0 1 1.38-0.58 6 6 0 0 1 1.51-0.26 2 2 0 0 1 1.18 0.25 c0.2 0.13 0.43 0.46 0.35 0.68 a1.56 1.56 0 0 1-0.29 0.5 6.11 6.11 0 0 1-1.49 1.13l-0.25 0.16 0.34 0.09 c0.388 0.084 0.772 0.188 1.15 0.31 0.432 0.139 0.853 0.31 1.26 0.51 a12 12 0 0 1 1.32 0.73 c0.387 0.23 0.726 0.532 1 0.89 0.29 0.4 0.22 0.61-0.18 0.87 a2.68 2.68 0 0 1-1 0.36 11.54 11.54 0 0 1-3.16 0.11 H23.88c0.058 0.094 0.121 0.184 0.19 0.27 a6.7 6.7 0 0 1 1 1.71c0.104 0.26 0.174 0.532 0.21 0.81 a4 4 0 0 1 0.06 0.92 1.94 1.94 0 0 1-0.17 0.6 0.6 0.6 0 0 1-0.59 0.36 3.23 3.23 0 0 1-1.9-0.42c-0.32-0.16-0.63-0.36-1-0.56l0.36 0.56 c0.24 0.42 0.49 0.84 0.71 1.27 0.22 0.43 0.48 1 0.69 1.55 0.21 0.55 0.43 1.2 0.64 1.81 0.13 0.39 0.26 0.8 0.38 1.2 0.12 0.4 0.14 0.54 0.21 0.82 0.07 0.28 0.17 0.61 0.24 0.92 0.07 0.31 0.15 0.66 0.23 1l0.24 1.08 0.15 0.73c0.05 0.29 0.11 0.58 0.17 0.87 0.06 0.29 0.1 0.56 0.16 0.84 0.06 0.28 0.13 0.6 0.18 0.9 0.03 0.218 0.108 0.427 0.23 0.61 0.15 0.19 0.34 0.2 0.45 0a1.78 1.78 0 0 0 0.19-0.5c0.12-0.42 0.22 -0.85 0.33 -1.27 0.11 -0.42 0.26 -0.94 0.41 -1.4 0.15 -0.46 0.34 -0.94 0.52 -1.41s0.34-0.92 0.54 -1.37c0.29-0.66 0.57 -1.32 0.9 -2 0.33-0.68 0.69 -1.26 1-1.89 0.12 -0.21 0.28 -0.4 0.43 -0.61H31c-0.53 0.3 -1 0.6-1.59 0.88 a1.85 1.85 0 0 1-0.52 0.16 c-0.28 0.05 -0.39-0.09-0.42-0.38a2.48 2.48 0 0 1 0.14-1.05 10 10 0 0 1 0.49-1.17 4.51 4.51 0 0 1 0.89-1.2L30 16h-0.22c-0.3 0-0.61 0-0.92-0.08a4.56 4.56 0 0 1-1.57-0.45c-0.29-0.16-0.34-0.37-0.12-0.64a3.82 3.82 0 0 1 1.14-0.89c0.35-0.19 0.71 -0.35 1.07-0.51 0.36 -0.16 0.62 -0.21 1-0.33-0.25-0.12-0.48-0.23-0.7-0.36a6.76 6.76 0 0 1-0.72-0.46 0.62 0.62 0 0 1 0.2-1.06 3 3 0 0 1 1.15-0.22 9.85 9.85 0 0 1 1.08 0.1 6.85 6.85 0 0 1 1.82 0.53 l-0.09-0.23a1.9 1.9 0 0 1-0.18-0.91 0.75 0.75 0 0 1 0.09-0.3 0.35 0.35 0 0 1 0.24-0.15 0.88 0.88 0 0 1 0.71 0.22 3.23 3.23 0 0 1 1.18 1.38c0 0.1 0.06 0.21 0.1 0.33 0.21 -0.22 0.4 -0.44 0.61 -0.62a1.91 1.91 0 0 1 0.54-0.3c0.25-0.09 0.64 0.21 0.69 0.5a1.7 1.7 0 0 1-0.16 1 1 1 0 0 1 0 0.11l0.28-0.08a3.81 3.81 0 0 1 1.46-0.17 1 1 0 0 1 0.68 0.25 1.1 1.1 0 0 1 0.28 0.37 0.39 0.39 0 0 1-0.34 0.56 l-0.84 0.11 h-0.16c0.25 0.11 0.48 0.21 0.69 0.32 a5 5 0 0 1 1.94 1.51c0.233 0.285 0.375 0.633 0.41 1a1.33 1.33 0 0 1-0.06 0.52 c0 0.15-0.29 0.23 -0.48 0.2 a8.23 8.23 0 0 1-1.53-0.48l-0.18-0.05c0.08 0.14 0.13 0.23 0.19 0.32 0.254 0.399 0.447 0.834 0.57 1.29 0.08 0.32 0.19 0.65 0.24 1 0.09 0.63 0.09 1.27 0 1.9 0 0.13-0.06 0.26 -0.09 0.39 a0.36 0.36 0 0 1-0.48 0.2 2.85 2.85 0 0 1-1-0.73A13.46 13.46 0 0 1 37 19.37c-0.11-0.16-0.23-0.31-0.36-0.49v0.16c0 0.5 0 1-0.06 1.49a6.17 6.17 0 0 1-0.47 2 1.27 1.27 0 0 1-0.26 0.39 c-0.16 0.17 -0.37 0.16 -0.6 0a2 2 0 0 1-0.58-0.89c-0.19-0.55-0.36-1.11-0.52-1.66-0.07-0.25-0.1-0.51-0.15-0.76-0.05-0.25-0.05-0.23-0.09-0.4-0.15 0.21 -0.29 0.38 -0.41 0.56 a14.42 14.42 0 0 0-1.19 2.09c-0.25 0.55 -0.47 1.12-0.69 1.69-0.22 0.57 -0.31 0.91 -0.45 1.37-0.14 0.46 -0.15 0.69 -0.22 1a11.22 11.22 0 0 0-0.17 3.57c0.06 0.58 0.19 1.15 0.23 1.73a13.1 13.1 0 0 1 0 1.66 4.25 4.25 0 0 1-0.2 0.94 2.77 2.77 0 0 1-1.13 1.51 3.76 3.76 0 0 1-1.48 0.56 7.54 7.54 0 0 1-1.64 0.1 A14.63 14.63 0 0 1 25 35.8a8.62 8.62 0 0 1-1.33-0.33 3.26 3.26 0 0 1-2-1.75 4.28 4.28 0 0 1-0.29-1.81c0.013-0.67 0.08 -1.34 0.2 -2a3.7 3.7 0 0 0 0.07-0.57 15 15 0 0 0 0-2.51v-0.35c-0.06-0.65-0.11-1.31-0.18-2 0-0.39-0.09-0.79-0.16-1.18-0.07-0.39-0.16-0.87-0.24-1.31 0-0.24-0.09-0.49-0.14-0.74-0.05-0.25-0.16-0.71-0.25-1.06-0.09-0.35-0.09-0.43-0.15-0.63-0.12-0.46-0.25-0.91-0.38-1.37-0.13-0.46-0.23-0.76-0.36-1.14-0.13-0.38-0.21-0.6-0.32-0.91-0.05 0.21 -0.11 0.42 -0.16 0.64 L19 18c-0.07 0.25 -0.14 0.51 -0.23 0.76 a2.36 2.36 0 0 1-0.4 0.79 0.43 0.43 0 0 1-0.7 0 2.87 2.87 0 0 1-0.39-0.59 6.76 6.76 0 0 1-0.5-1.58 12.08 12.08 0 0 1-0.27-1.9c0-0.19 0-0.39-0.07-0.64-0.12 0.2 -0.22 0.37 -0.33 0.53 a16.67 16.67 0 0 1-1.77 2.42 4.11 4.11 0 0 1-1 0.83c-0.38 0.21 -0.7 0.1 -0.8-0.33a7.41 7.41 0 0 1-0.16-2.15c0-0.32 0-0.65 0.09 -1 0.03-0.25 0.08 -0.498 0.15 -0.74 0.09 -0.3 0.19 -0.59 0.3 -0.88 0.11 -0.29 0.24 -0.52 0.36 -0.78 0 0 0-0.07 0.06 -0.13l-0.67 0.42 a2.15 2.15 0 0 1-1.4 0.3 0.9 0.9 0 0 1-0.72-0.65 1.41 1.41 0 0 1 0.23-1.27 6.06 6.06 0 0 1 1.86-1.71 7.73 7.73 0 0 1 1.48-0.78 3.81 3.81 0 0 1-0.54-0.17 2.59 2.59 0 0 1-0.58-0.34 0.51 0.51 0 0 1-0.13-0.62 1.16 1.16 0 0 1 1-0.7 3.55 3.55 0 0 1 1.34 0 5.52 5.52 0 0 1 1.68 0.5 l0.16 0.06 0.19-0.39a6.76 6.76 0 0 1 1.48-2.08 2.22 2.22 0 0 1 1-0.59c0.3-0.103 0.63 -0.066 0.9 0.1a0.45 0.45 0 0 1 0.18 0.34 1.41 1.41 0 0 1-0.26 0.89 l-0.07 0.08 zm16.37 6.86v-0.07l-0.25 0.1 v0.06l0.25-0.09z" fill="#FFF"/>
</svg>
