<?xml version="1.0" ?>
<svg xmlns="http://www.w3.org/2000/svg" width="44" height="32" viewBox="0 0 44 32">
  <path d="M5.36 17.35V12.7A3.21 3.21 0 0 1 8 9.54a3 3 0 0 1 1.38 0A3.17 3.17 0 0 1 11.29 11c0.353 0.58 0.53 1.25 0.51 1.93v9.11a3.13 3.13 0 0 1-0.62 1.92 3.21 3.21 0 0 1-1.75 1.2 3 3 0 0 1-1.81 0A3.15 3.15 0 0 1 5.53 23a3.53 3.53 0 0 1-0.17-1.18c0.01-1.46 0-2.96 0-4.47z" fill="#FFF"/>
  <path d="M11.72 24.21a6.41 6.41 0 0 0 0.33-0.63 3.9 3.9 0 0 0 0.24-0.79 22.24 22.24 0 0 0 0.08-3.41v-6.63a3.89 3.89 0 0 0-0.61-2.12 3.22 3.22 0 0 0-0.37-0.47c-0.09-0.09-0.08-0.15 0-0.25A3.07 3.07 0 0 1 13 8.78a3.13 3.13 0 0 1 1.7 0 3.2 3.2 0 0 1 2.4 3.63c-0.08 0.61 -0.22 1.21-0.33 1.82-0.06 0.35 -0.11 0.7 -0.17 1-0.06 0.3 -0.18 1-0.27 1.43-0.09 0.43 -0.11 0.69 -0.17 1-0.06 0.31 -0.18 1-0.27 1.46-0.06 0.31 -0.1 0.61 -0.15 0.92 -0.05 0.31 -0.13 0.75 -0.2 1.13-0.07 0.38 -0.09 0.52 -0.16 0.77 a2.92 2.92 0 0 1-0.75 1.3 3.19 3.19 0 0 1-2.83 0.95 l-0.08 0.02 zM5.43 24.22a3.65 3.65 0 0 1-1.58-0.11A3.18 3.18 0 0 1 2 22.65a3.4 3.4 0 0 1-0.42-1.27c-0.05-0.36-0.13-0.71-0.2-1.06l-0.09-0.48c-0.1-0.54-0.2-1.08-0.29-1.62-0.09-0.54-0.15-0.92-0.23-1.37-0.08-0.45-0.19-1-0.27-1.49-0.08-0.49-0.11-0.71-0.18-1.07-0.07-0.36-0.17-0.95-0.26-1.42A4 4 0 0 1 0 11.33a3.15 3.15 0 0 1 2-2.44 3.09 3.09 0 0 1 1.8-0.19 3.15 3.15 0 0 1 2 1.23c0.06 0.08 0 0.14 0 0.21a3.46 3.46 0 0 0-0.82 1.43 4.28 4.28 0 0 0-0.16 1.1v9.38a3.72 3.72 0 0 0 0.58 2s0 0.1 0.03 0.17zM1 11.87l0.18 1.08c0.08 0.48 0.16 1 0.24 1.45 0.031 0.196 0.075 0.39 0.13 0.58a0.42 0.42 0 0 0 0.61 0.23 0.39 0.39 0 0 0 0.21-0.44c-0.05-0.37-0.11-0.74-0.17-1.12-0.06-0.38-0.1-0.58-0.15-0.87-0.05-0.29-0.11-0.61-0.13-0.92a1.29 1.29 0 0 1 1-1.29 0.52 0.52 0 0 0 0.3-0.27 0.4 0.4 0 0 0-0.09-0.45c-0.22-0.22-0.47-0.13-0.7 0A2.24 2.24 0 0 0 1 11.87zM7.4 9c0.13-0.17 0.25 -0.35 0.39 -0.52a1 1 0 0 0 0.26-0.68V3.61a2.44 2.44 0 0 0-1.57-2.34 2.85 2.85 0 0 0-0.87-0.18 0.54 0.54 0 0 1-0.55-0.72 0.57 0.57 0 0 1 0.5-0.37c0.248 0.006 0.496 0.033 0.74 0.08 A3.52 3.52 0 0 1 7.81 0.8 3.38 3.38 0 0 1 9 2.59a5 5 0 0 1 0.14 1.18v3.95a1.24 1.24 0 0 0 0.29 0.87 c0.117 0.142 0.218 0.296 0.3 0.46 a3.77 3.77 0 0 0-2.3 0L7.4 9zM10.87 9.59l-0.37-0.49-0.7-1c-0.15-0.22-0.07-0.47-0.06-0.7a0.2 0.2 0 0 1 0.13 0c0.21 0.11 0.42 0.23 0.61 0.36 a0.4 0.4 0 0 0 0.42 0.06 3.12 3.12 0 0 1 1.45-0.24c0.458 0.049 0.9 0.192 1.3 0.42 v0.05a3.83 3.83 0 0 0-2.78 1.54z" fill="#FFF"/>
  <path d="M3.44 8a3 3 0 0 1 0.35-0.18 3.18 3.18 0 0 1 1.57-0.22c0.304 0.05 0.602 0.13 0.89 0.24 a0.39 0.39 0 0 0 0.38 0l0.64-0.39c0.13-0.08 0.17 0 0.2 0.11 a1.08 1.08 0 0 1-0.31 0.87 c-0.27 0.33 -0.53 0.67 -0.78 1-0.09 0.12 -0.15 0.13 -0.25 0a3.68 3.68 0 0 0-1.26-1 3.27 3.27 0 0 0-1.22-0.33h-0.19L3.44 8z" fill="#FFF"/>
  <path d="M24.3 17.93l0.11-1-0.29 0.08 a4 4 0 0 1-1.23 0.13 A4.3 4.3 0 0 1 20 15.82a6.78 6.78 0 0 1-0.76-1v-0.1c0.31-0.1 0.61 -0.22 0.93 -0.31a3.69 3.69 0 0 1 1.28-0.11A4.11 4.11 0 0 1 24 15.41c0.211 0.213 0.412 0.436 0.6 0.67 l0.06 0.07 0.05-0.08a3.88 3.88 0 0 1 1.64-1.68h0.16c0.04 0 0.21 0.44 0.32 0.66 0.11 0.22 0 0.11 0 0.15a2.88 2.88 0 0 0-1.28 1.36 3.08 3.08 0 0 0-0.28 1.23c0 0.08 0 0.1 0.1 0.09 0.41 -0.08 0.81 -0.17 1.23-0.22a6.85 6.85 0 0 1 2 0 5.19 5.19 0 0 1 2.7 1.35l0.41 0.38 0.08 0.09 -0.49 0.21 a3.35 3.35 0 0 0-1.49 1.06 3.22 3.22 0 0 0-0.71 2.46 3.28 3.28 0 0 0 1.82 2.61 3.37 3.37 0 0 0 1 0.32l0.38 0.08 -0.2 0.47 a10.88 10.88 0 0 1-1.64 2.73 7.23 7.23 0 0 1-1.2 1.22 3.72 3.72 0 0 1-1.72 0.72 3.88 3.88 0 0 1-1.62-0.11c-0.35-0.1-0.7-0.19-1.05-0.26a0.73 0.73 0 0 0-0.31 0l-1.1 0.28 a3.71 3.71 0 0 1-1.33 0.07 3.75 3.75 0 0 1-1.8-0.7 6.19 6.19 0 0 1-1-1 10.47 10.47 0 0 1-1.7-2.65 10.83 10.83 0 0 1-0.63-1.68 9.62 9.62 0 0 1-0.31-2.45 5.2 5.2 0 0 1 5.61-5.22c0.42 0 0.83 0.08 1.25 0.14 0.26 0.03 0.5 0.09 0.75 0.15 z" fill="#F9F9F9"/>
  <path d="M42 9.39l-0.16-0.24c-0.42-0.61-0.83-1.23-1.26-1.83A6.8 6.8 0 0 0 39.31 6h-0.08a0.93 0.93 0 0 1 0.39-0.17c0.17 0 0.35 0 0.52-0.06a0.64 0.64 0 0 1 0.57 0.17 c0.475 0.36 0.908 0.773 1.29 1.23a6.68 6.68 0 0 1 1.46 3.15c0.11 0.614 0.13 1.24 0.06 1.86a6.69 6.69 0 0 1-1.44 3.44 7.62 7.62 0 0 1-2.74 2.15 8.39 8.39 0 0 1-2 0.65 9 9 0 0 1-1.61 0.16 8.53 8.53 0 0 1-1.29-0.09 8.34 8.34 0 0 1-1.79-0.49 8 8 0 0 1-1.65-0.93A7.58 7.58 0 0 1 29.66 16a6.94 6.94 0 0 1-1.33-2.06 6.68 6.68 0 0 1-0.44-1.61 6.38 6.38 0 0 1 0-1.64c0.07-0.58 0.217 -1.15 0.44 -1.69a7.26 7.26 0 0 1 2.14-2.87c0.11-0.09 0.12 -0.09 0.18 0 0.163 0.312 0.376 0.596 0.63 0.84 a0.08 0.08 0 0 1 0 0.13 5.45 5.45 0 0 0-0.85 1.78 8.46 8.46 0 0 0-0.19 1.22c0 0.06 0 0.08 0.07 0.09a4.29 4.29 0 0 0 1.52 0.27 5.15 5.15 0 0 0 1.45-0.24h0.13a3.63 3.63 0 0 0 1.23 1.34 6 6 0 0 0 1.23 0.63 0.13 0.13 0 0 0 0.15 0 5.56 5.56 0 0 0 1.39-1.76A4.17 4.17 0 0 0 37.83 9c0-0.09 0-0.13 0.13 -0.13h1.08c0.36 0 0.73 0.09 1.09 0.15 0.36 0.06 0.6 0.13 0.9 0.19 l0.89 0.19 0.08-0.01z" fill="#F6F6F6"/>
  <path d="M40.36 8.27L40 8.21c-0.35 0-0.71-0.1-1.06-0.13-0.35-0.03-0.61 0-0.92 0a2.34 2.34 0 0 0-0.77 0.13 h-0.11a0.13 0.13 0 0 0-0.07 0.13 c0.014 0.22 0.014 0.44 0 0.66a3.68 3.68 0 0 1-0.67 1.61c-0.17 0.25 -0.38 0.46 -0.58 0.69 a0.09 0.09 0 0 1-0.12 0 3.45 3.45 0 0 1-1.5-1.22 1.7 1.7 0 0 1-0.28-0.84c0-0.09 0-0.1-0.11-0.06a5.59 5.59 0 0 1-1.08 0.36 3.63 3.63 0 0 1-1.39 0.08 h-0.21c-0.07 0-0.1-0.05-0.08-0.13 0.1 -0.34 0.18 -0.69 0.3 -1 0.15-0.417 0.37 -0.806 0.65 -1.15 0.11 -0.14 0.23 -0.26 0.36 -0.38 0.13 -0.12 0.06 -0.08 0-0.12a2.64 2.64 0 0 1-1.25-1.58 0.09 0.09 0 0 1 0.06-0.13l0.93-0.42a4.34 4.34 0 0 1 1-0.27 3.33 3.33 0 0 1 1.42 0c0.08 0 0.1 0 0.11-0.07a7 7 0 0 1 0.2-1.14 6 6 0 0 1 0.73-1.68c0.133-0.229 0.28 -0.45 0.44 -0.66a0.51 0.51 0 0 1 0.73 0 0.53 0.53 0 0 1 0 0.71 4.55 4.55 0 0 0-1 1.88c-0.07 0.26 -0.11 0.52 -0.17 0.79 a1.31 1.31 0 0 0 0 0.17h0.1a3.53 3.53 0 0 1 1.8-0.21 5.52 5.52 0 0 1 2.12 0.76 h0.06l-0.33 0.09 a2.17 2.17 0 0 0-1.21 0.88 v0.18c0.265 0.118 0.513 0.27 0.74 0.45 0.325 0.249 0.62 0.534 0.88 0.85 0.18 0.22 0.35 0.46 0.53 0.69 l0.08 0.13 0.03 0.01 z" fill="#F6F6F6"/>
</svg>
