<?xml version="1.0" ?>
<svg xmlns="http://www.w3.org/2000/svg" width="38" height="35" viewBox="0 0 38 35">
  <path d="M10.26 20.74l1.14-0.54-0.55-1.2c0.44 0 0.84-0.08 1.24-0.1l2.57-0.11c0.94-0.05 1.88-0.1 2.83-0.17a1.57 1.57 0 0 0 0.86-0.36l3.37-2.5c0.12-0.09 0.19 -0.12 0.3 0 0.27 0.41 0.57 0.81 0.87 1.21 0.08 0.12 0.07 0.19-0.06 0.28 L20.34 19l-2.8 2c-0.29 0.2 -0.56 0.42 -0.86 0.6 a2.28 2.28 0 0 0-0.93 1.3c-0.25 0.75 -0.53 1.48-0.8 2.22-0.27 0.74 -0.48 1.34-0.73 2l-0.64 1.74-0.72 2c-0.24 0.66 -0.46 1.34-0.73 2a1.44 1.44 0 0 0 0.63 1.92 1.4 1.4 0 0 0 1.88-0.6c0.6-1.25 1.19-2.51 1.79-3.77l1.92-4c0.23-0.5 0.49 -1 0.71-1.5a0.86 0.86 0 0 1 0.4-0.42l5.68-3.38 0.24 -0.13c0.05 0.2 0.11 0.39 0.15 0.58 0.09 0.47 0.18 1 0.28 1.43 0.1 0.43 0.21 0.94 0.31 1.42s0.19 0.94 0.28 1.41c0.09 0.47 0.16 0.83 0.27 1.24a2 2 0 0 0 0.81 1c1.12 0.8 2.23 1.62 3.35 2.43l3.94 2.87c0.24 0.18 0.48 0.37 0.73 0.53 a1.34 1.34 0 0 0 1.5 0 1.31 1.31 0 0 0 0.66-1.28 1.37 1.37 0 0 0-0.48-1L33 27.88c-0.75-0.68-1.5-1.37-2.28-2a1.25 1.25 0 0 1-0.47-0.94c-0.06-0.77-0.12-1.53-0.19-2.29-0.09-0.91-0.18-1.82-0.26-2.72-0.08-0.9-0.14-1.68-0.26-2.51a5.26 5.26 0 0 0-0.44-1.32c-0.42-0.88-0.89-1.73-1.33-2.6-0.81-1.61-1.61-3.22-2.42-4.82a4.85 4.85 0 0 0-1-1.56 3.55 3.55 0 0 0-1.73-0.84 3.42 3.42 0 0 0-3 0.84c-2 1.68-3.95 3.37-5.93 5a2 2 0 0 1-0.63 0.26 c-0.56 0.18 -1.12 0.34 -1.68 0.5 l-1.9 0.54 -0.89 0.26 c-0.12 0-0.19 0-0.23-0.12-0.13-0.51-0.29-1-0.41-1.53s-0.24-1.03-0.34-1.62a1.58 1.58 0 0 1 0-0.38c0-1.06 0.09 -2.12 0.12 -3.18A6.26 6.26 0 0 0 7.51 5 5.88 5.88 0 0 0 6.3 2.65a4.54 4.54 0 0 0-2-1.39 3.08 3.08 0 0 0-4 1.8A4.38 4.38 0 0 0 0 5.17 5.92 5.92 0 0 0 1.14 8a6.93 6.93 0 0 0 1.92 1.82 13 13 0 0 1 3.84 3.94v0.06a0.58 0.58 0 0 1 0.08 0.82 1.44 1.44 0 0 0 0.71 2.08c0.11 0.06 0.14 0.11 0.09 0.21 a1.52 1.52 0 0 0 1 2.08 1 1 0 0 0 0.34 0 0.29 0.29 0 0 1 0.34 0.22 c0.2 0.45 0.41 0.89 0.62 1.34a1 1 0 0 0 0.18 0.17 zm-3.94-9.91a0.38 0.38 0 0 1-0.11-0.08 15.51 15.51 0 0 0-2.55-2.09 6.18 6.18 0 0 1-1.27-1.12 4.92 4.92 0 0 1-1.06-2.37 2.86 2.86 0 0 1 0.42-2 1.84 1.84 0 0 1 2.51-0.48 4 4 0 0 1 2.11 3.37c0.08 1-0.06 2.1-0.08 3.14-0.01 0.54 0.02 1.07 0.03 1.63zm6.07 5v-0.06l1.61-0.49a4.92 4.92 0 0 0 1-0.32 8.27 8.27 0 0 0 1-0.77l2.92-2.5c0.13-0.11 0.2 -0.08 0.29 0l0.44 0.63 0.54 0.76 -0.17 0.14 c-0.95 0.7 -1.89 1.41-2.85 2.11a1 1 0 0 1-0.48 0.23 c-1.34 0.08 -2.69 0.14 -4 0.2a0.67 0.67 0 0 1-0.3 0.03 v0.04z" fill="#FFF"/>
  <path d="M18.72 6.42a3.2 3.2 0 0 0 3.22-3.23 3.21 3.21 0 0 0-6.41 0 3.2 3.2 0 0 0 3.19 3.23zM1.52 23.46A1.5 1.5 0 0 0 3 25a1.5 1.5 0 0 0 1.53-1.53 1.52 1.52 0 1 0-3 0l-0.01-0.01z" fill="#FFF"/>
</svg>
