<?xml version="1.0" ?>
<svg xmlns="http://www.w3.org/2000/svg" width="32" height="32" viewBox="0 0 32 32">
  <path d="M26.56 19.32c0.22-0.22 0.42 -0.46 0.66 -0.66a0.8 0.8 0 0 1 0.36-0.09l0.49-0.07a0.18 0.18 0 0 0 0.09-0.14 5 5 0 0 0 0-0.55V11c0-0.31 0-0.31-0.31-0.29l-2 0.14-1.44 0.15 -2.36 0.19 -1.5 0.12 -2.33 0.18 -1.51 0.12 -1.25 0.12 a0.26 0.26 0 0 1-0.24-0.1c-0.13-0.19-0.28-0.36-0.46-0.58v3l-0.62-0.14v-0.19-3.22a0.57 0.57 0 0 0-0.13-0.38c-0.48-0.58-1-1.16-1.43-1.75-0.73-0.89-1.44-1.79-2.17-2.68L8.69 3.52c-0.17-0.2-0.34-0.41-0.5-0.62a0.52 0.52 0 0 1-0.08-0.11l-0.82 1L5.49 6 3.25 8.79c-0.18 0.22 -0.36 0.43 -0.53 0.66 a0.45 0.45 0 0 0-0.07 0.23 v9.19c0 0.2 0 0.22 0.22 0.23l0.75 0.08 -0.08 0.59 h-0.37l-0.93-0.11c-0.2 0-0.21 0-0.21-0.22v-9.08H2c-0.13 0.15 -0.25 0.31 -0.39 0.45 a0.29 0.29 0 0 1-0.2 0.11 H0c0.14-0.18 0.27 -0.35 0.41 -0.51L2.9 7.29C4.07 5.85 5.24 4.4 6.42 3c0.28-0.35 0.55 -0.69 0.84 -1a0.27 0.27 0 0 1 0.19-0.1h8.15v2.96c0 0.15 0 0.19 0.19 0.19h4.58c0.14 0 0.18 0 0.18-0.18V2.08c0-0.15 0-0.2 0.2 -0.19h2.42a0.27 0.27 0 0 1 0.23 0.1 l3.47 3.82 4.13 4.5a0.74 0.74 0 0 1 0.08 0.13 H31l-1.09 0.08 -0.91 0.08 c-0.14 0-0.2 0.06 -0.2 0.22 v8c0 0.13 0 0.21-0.17 0.22 -0.17 0.01 -0.48 0.07 -0.72 0.1 l-1.07 0.16 c-0.09 0.01 -0.18 0.01 -0.27 0l-0.01 0.02 z" fill="#FFF"/>
  <path d="M10.55 30.88l-0.28-0.12a0.8 0.8 0 0 0-0.15 0v0.43l-0.83-0.26s-0.06 0-0.09-0.09c-0.17-0.23-0.35-0.45-0.51-0.68a0.47 0.47 0 0 1 0-0.68l3.48-4.28c0.4-0.51 0.81 -1 1.22-1.52 0.09 -0.1 0.07 -0.16 0-0.25l-1-1c-0.09-0.1-0.09-0.17 0-0.25a1.9 1.9 0 0 0 0.19-0.21L10 19.4l-0.07 0.06 a0.44 0.44 0 0 1-0.56 0 2.8 2.8 0 0 0-1.17-0.67 0.71 0.71 0 0 0-0.65 0.1 2.25 2.25 0 0 0-0.73 0.89 1.44 1.44 0 0 0-0.1 0.5 0.62 0.62 0 0 1-0.18 0.43 c-0.18 0.15 -0.33 0.33 -0.5 0.49 -0.17 0.16 -0.27 0.2 -0.47 0l-1.26-1.42a0.24 0.24 0 0 1 0-0.37c0.18-0.2 0.37 -0.39 0.57 -0.57a0.33 0.33 0 0 1 0.21-0.09 1.39 1.39 0 0 0 1.27-0.95 1.23 1.23 0 0 0 0-0.19 1.63 1.63 0 0 1 0.54-1.26 12.75 12.75 0 0 1 2.17-1.64 3.41 3.41 0 0 1 0.83-0.29 8.48 8.48 0 0 1 2.51-0.16 15 15 0 0 1 1.62 0.22 c0.33 0.06 0.66 0.16 1 0.25a0.2 0.2 0 0 1 0.09 0.09 v0.45l-0.62-0.07c-0.31 0-0.61-0.08-0.92-0.1-0.31-0.02-0.71 0-1.06 0a3.73 3.73 0 0 0-1.64 0.42 1.21 1.21 0 0 0-0.3 0.25 0.48 0.48 0 0 0 0 0.6c0.2 0.3 0.43 0.57 0.65 0.85 l0.07 0.07 c0.29 0.34 0.29 0.48 0 0.81-0.07 0.07 -0.06 0.12 0 0.19l2.39 2.39c0.09 0.09 0.14 0.07 0.22 0 0.08-0.07 0.2 -0.2 0.41 0l0.75 0.74 c0.09 0.09 0.13 0.08 0.21 0L17.19 19l1.56 1.59a1 1 0 0 1 0.92-0.26 1 1 0 0 1 0.52 0.29 c0.23 0.22 0.46 0.44 0.7 0.64 a0.93 0.93 0 0 0 1.17 0 0.92 0.92 0 0 1 1.08 0c0.224 0.17 0.411 0.385 0.55 0.63 0.04 0.13 0.04 0.27 0 0.4h-0.15a2.48 2.48 0 0 1-0.3-0.13v0.45l-0.41-0.17v0.44l-0.45-0.17v0.33a0.36 0.36 0 0 1 0 0.1h-0.09L22 23v0.43l-0.45-0.15v0.31c0 0.1 0 0.15-0.12 0.09 l-0.33-0.14V23.95H21l-0.3-0.13v0.31a0.69 0.69 0 0 1 0 0.13h-0.11l-0.32-0.13v0.44l-0.47-0.16v0.3a0.5 0.5 0 0 1 0 0.12h-0.11l-0.33-0.13v0.44L19 25a0.47 0.47 0 0 0 0.13 0.43 c0.86 0.82 1.71 1.66 2.56 2.49l0.1 0.1 -0.1 0.12 -2 2c-0.09 0.09 -0.14 0.1 -0.23 0-0.953-1.06-1.91-2.113-2.87-3.16l-0.08-0.08c0 0.21-0.11 0.15 -0.22 0.1 a1.79 1.79 0 0 0-0.26-0.1v0.44l-0.33-0.13h-0.11a0.13 0.13 0 0 0 0 0.11 2.19 2.19 0 0 0 0 0.31l-0.47-0.17v0.44l-0.33-0.13c-0.1-0.047-0.14-0.017-0.12 0.09 v0.32l-0.32-0.18v0.45l-0.3-0.12h-0.14V28.75l-0.47-0.17v0.45l-0.33-0.13H13a0.22 0.22 0 0 0 0 0.11 2 2 0 0 0 0 0.31l-0.47-0.17v0.44l-0.33-0.12h-0.11a0.43 0.43 0 0 0 0 0.11v0.31l-0.45-0.16V30l-0.43-0.17v0.44l-0.21-0.11v0.43l-0.32-0.13h-0.1a0.43 0.43 0 0 0 0 0.11c-0.05 0.08 -0.04 0.17 -0.03 0.31 zm-0.88-0.8a0.42 0.42 0 1 0-0.42-0.41 0.41 0.41 0 0 0 0.42 0.41 z" fill="#FFF"/>
  <path d="M17.25 18.53l1.81-2.08a0.42 0.42 0 0 1 0.37-0.2A0.62 0.62 0 0 0 20 16l1.75-1.83c0.38-0.4 0.74 -0.81 1.11-1.21l0.14-0.11a0.93 0.93 0 0 1 0.17 0.67 2.25 2.25 0 0 0 0.46 1.56 14.43 14.43 0 0 0 1.87 2.19c0.1 0.09 0.18 0.19 0.28 0.28 a1 1 0 0 0 0.65 0.27 0.87 0.87 0 0 1 0.34 0.12 c0.11 0.07 0.12 0.16 0 0.27-0.44 0.43 -0.86 0.87 -1.28 1.31l-1 1.07a1.08 1.08 0 0 1-0.71 0.32 2.68 2.68 0 0 1-0.84-0.09A1.27 1.27 0 0 0 22 21l-0.24 0.14 c-0.32 0.14 -0.56 0-0.78-0.23a5.52 5.52 0 0 1-0.49-0.48 1.38 1.38 0 0 0-1.58-0.3 0.15 0.15 0 0 1-0.13 0l-1.47-1.51a0.21 0.21 0 0 0-0.06-0.09zm3.41-1.78a0.74 0.74 0 0 0 0.19 0.42 c0.74 0.83 1.49 1.65 2.21 2.51a0.87 0.87 0 0 0 1.23 0.09 0.85 0.85 0 0 0 0.18-1.21l-2.22-2.51a0.79 0.79 0 0 0-0.82-0.3 1 1 0 0 0-0.77 1zm-2.44 1.43h0.68v-0.11a0.32 0.32 0 0 0-0.33-0.19c-0.16 0-0.27 0.12 -0.35 0.3 zM21.67 20H21a0.17 0.17 0 0 0 0 0.11 0.34 0.34 0 0 0 0.34 0.19 0.35 0.35 0 0 0 0.33-0.3zm-3.44-1.68c0.1 0.22 0.25 0.32 0.41 0.3 a0.33 0.33 0 0 0 0.29-0.3h-0.7zm3.45 1.52c-0.1-0.21-0.27-0.32-0.41-0.29a0.33 0.33 0 0 0-0.3 0.29 h0.71zM21.08 0v1.27h-5.81c-0.15 0-0.2 0-0.19-0.18V0.15c0-0.1 0-0.15 0.14 -0.15h5.86zM21 31.15l-1.1-0.66c-0.14-0.09-0.15-0.12 0-0.23l2-2c0.08-0.08 0.14 -0.1 0.21 0l0.61 1a0.2 0.2 0 0 1 0 0.2c-0.53 0.55 -1.08 1.09-1.62 1.63l-0.1 0.06 zM14.15 15.76l0.52 0.07 s0.07 0.1 0.07 0.15 v4.16c-0.19-0.18-0.37-0.35-0.55-0.54v-3.71a0.83 0.83 0 0 1-0.04-0.13zM10.56 20.61L9 20.44l-1.48-0.17c-0.09 0-0.12-0.06-0.1-0.12a1.83 1.83 0 0 1 0.24-0.46c0-0.06 0.22 0 0.33 0l0.88 0.11 a0.48 0.48 0 0 1 0.22 0.08 1 1 0 0 0 0.79 0.22 0.35 0.35 0 0 1 0.33 0.13 l0.35 0.38 z" fill="#FFF"/>
  <path d="M18.22 18.18c0.08-0.21 0.19 -0.3 0.36 -0.31a0.32 0.32 0 0 1 0.33 0.19 v0.11l-0.69 0.01 zM21.67 20a0.35 0.35 0 0 1-0.34 0.3 0.34 0.34 0 0 1-0.34-0.19A0.17 0.17 0 0 1 21 20h0.67zM18.23 18.32h0.7a0.33 0.33 0 0 1-0.29 0.3 c-0.16 0.02 -0.31-0.08-0.41-0.3zM21.68 19.84H21a0.33 0.33 0 0 1 0.3-0.29c0.11-0.03 0.28 0.08 0.38 0.29z" fill="#FFF"/>
</svg>
