<?xml version="1.0" ?>
<svg xmlns="http://www.w3.org/2000/svg" width="43" height="36" viewBox="0 0 43 36">
  <path d="M31 31H0V8.86h31V31zm-1.9-2v-0.2-17.86c0-0.14 0-0.17-0.17-0.17H2.12c-0.14 0-0.17 0-0.17 0.18 V29H29.1zM23.26 8.21h-0.84a0.26 0.26 0 0 1-0.14-0.09l-1.9-1.9-1.92-1.91-1.56-1.57-0.84-0.84a0.2 0.2 0 0 0-0.23-0.05 0.76 0.76 0 0 1-0.55 0 0.27 0.27 0 0 0-0.32 0.08 c-0.65 0.67 -1.32 1.32-2 2L10.4 6.48 8.74 8.14a0.19 0.19 0 0 1-0.1 0.06 h-0.85l0.12-0.15 3.21-3.2L14 2l0.56-0.56a0.21 0.21 0 0 0 0.06-0.23 0.93 0.93 0 0 1 0.59-1.14 1 1 0 0 1 1.2 0.46 0.91 0.91 0 0 1 0.05 0.69 0.22 0.22 0 0 0 0.06 0.25 l2.83 2.83 3.14 3.12 0.67 0.67 0.1 0.12z" fill="#FFF"/>
  <path d="M28.47 28.4H2.79c-0.24 0-0.21 0-0.21-0.22V11.63c0-0.21 0-0.21 0.21 -0.21h25.46c0.22 0 0.22 0 0.22 0.21 V28.4zm-7.91-5h-0.33L17 23.33a5.33 5.33 0 0 1-1.46-0.19 5.18 5.18 0 0 1-1.23-0.54 7.76 7.76 0 0 1-2.14-2c-0.55-0.72-1.05-1.47-1.57-2.21-0.3-0.452-0.634-0.88-1-1.28a0.77 0.77 0 0 0-1-0.25 5.59 5.59 0 0 0-1.34 0.82 c-0.61 0.49 -1.22 1-1.8 1.51-0.77 0.7 -1.51 1.44-2.26 2.17a0.32 0.32 0 0 0-0.1 0.25 v6.15h24.73v-0.17c0-1.24 0-2.48-0.06-3.71 0-0.12 0-0.18-0.16-0.2-0.54-0.11-1.08-0.24-1.62-0.33a2.58 2.58 0 0 1-1.1-0.48 6.48 6.48 0 0 1-1.31-1.37c-0.46-0.61-0.9-1.23-1.36-1.84a3.06 3.06 0 0 0-1.16-1 0.57 0.57 0 0 0-0.5-0.07 2.41 2.41 0 0 0-0.49 0.32 9.52 9.52 0 0 0-1.35 1.54c-0.4 0.54 -0.78 1.1-1.17 1.65-0.17 0.24 -0.32 0.49 -0.51 0.77 1.19 0.22 2.35 0.34 3.52 0.51 v0.02zm3-9.91A1.45 1.45 0 1 0 25 14.92a1.46 1.46 0 0 0-1.47-1.45l0.03 0.02 zM29.71 34.05h0.36a2.34 2.34 0 0 0 1.19-0.28 2.24 2.24 0 0 0 0.9-1c0.21-0.45 0.39 -0.91 0.6 -1.36A4 4 0 0 1 34 29.87a3.33 3.33 0 0 1 1.21-0.56c0.13 0 0.27 0 0.41-0.06a0.19 0.19 0 0 0 0-0.06 1.37 1.37 0 0 1-0.26-1.42l0.92-2.77 1.34-3.91 0.92 -2.65 1.33-3.88 1-3c0.23-0.67 0.45 -1.34 0.7 -2a1.92 1.92 0 0 1 0.57-0.84 0.61 0.61 0 0 1 0.46-0.18 0.43 0.43 0 0 1 0.36 0.28 c0.157 0.43 0.157 0.9 0 1.33-0.37 1.4-0.76 2.8-1.13 4.2l-1.28 4.74-1.37 5.07-1 3.56c-0.1 0.37 -0.19 0.74 -0.31 1.09a1.21 1.21 0 0 1-0.68 0.71 l-0.22 0.1 c-0.07 0-0.05 0.07 0 0.12 0.05 0.05 0.1 0.34 0.14 0.51a4.68 4.68 0 0 1 0 2.47 2.88 2.88 0 0 1-0.94 1.42 2.93 2.93 0 0 1-0.85 0.51 10.86 10.86 0 0 1-1 0.36 8.1 8.1 0 0 1-1 0.16 5 5 0 0 1-1.93-0.17 3.79 3.79 0 0 1-1.57-0.85l-0.12-0.11 0.01 0.01z" fill="#FFF"/>
</svg>
