<?xml version="1.0" ?>
<svg xmlns="http://www.w3.org/2000/svg" width="28" height="30" viewBox="0 0 28 30">
  <path d="M20.24 8.61v5.69c0 0.15 0 0.21 0.2 0.23 2.012 0.2 3.983 0.695 5.85 1.47 0.38 0.17 0.75 0.38 1.12 0.57 a0.64 0.64 0 0 1 0.36 0.65 v8.49a1.84 1.84 0 0 1-1 1.74 7.35 7.35 0 0 1-1.91 0.83 21.12 21.12 0 0 1-3.86 0.82 88.86 88.86 0 0 1-4.61 0.38 c-1.17 0.07 -2.35 0.09 -3.52 0.06 -1.48 0-3-0.15-4.44-0.26-0.85-0.06-1.7-0.17-2.55-0.3a15.74 15.74 0 0 1-4.32-1.15 3.12 3.12 0 0 1-1.33-1A1.41 1.41 0 0 1 0 26v-8.37a1.36 1.36 0 0 1 0.7-1.09 7 7 0 0 1 1.89-0.93 22.26 22.26 0 0 1 3.14-0.82 34.73 34.73 0 0 1 4.53-0.56c0.16 0 0.16-0.09 0.16 -0.21V7.53 3.12A3 3 0 0 1 12.3 0.28 a3.43 3.43 0 0 1 4.51 1.89c0.11 0.322 0.167 0.66 0.17 1a0.75 0.75 0 0 1-0.77 0.72 0.79 0.79 0 0 1-0.82-0.7 1.66 1.66 0 0 0-1.2-1.56 1.73 1.73 0 0 0-2 1.14 1.08 1.08 0 0 0 0 0.23v4.12c0 0.15 0 0.18 0.19 0.18h5.93c0.16 0 0.19-0.06 0.19 -0.2v-4a3.08 3.08 0 0 1 2.32-3 3.26 3.26 0 0 1 3.86 2c0.125 0.318 0.186 0.658 0.18 1a0.78 0.78 0 0 1-0.7 0.73 0.76 0.76 0 0 1-0.76-0.56c-0.06-0.23-0.07-0.48-0.14-0.7a1.61 1.61 0 0 0-1.36-1 1.49 1.49 0 0 0-1.48 0.86 1.39 1.39 0 0 0-0.11 0.54 v5.64h-0.07zM14 15.87c-1.61 0-2.9 0-4.19 0.11 -0.94 0-1.89 0.12 -2.82 0.24 -0.93 0.12 -1.89 0.3 -2.83 0.48 a10.42 10.42 0 0 0-2.08 0.65 0.45 0.45 0 0 0-0.33 0.53 c0 0.12 0 0.21 0.15 0.25 0.434 0.19 0.878 0.357 1.33 0.5 0.79 0.21 1.59 0.4 2.39 0.53 1 0.17 2 0.31 3.08 0.4 1.08 0.09 2 0.13 3 0.18a56.53 56.53 0 0 0 8.73-0.32 22.7 22.7 0 0 0 4.14-0.79 7.62 7.62 0 0 0 1.22-0.52 0.4 0.4 0 0 0 0-0.76 5 5 0 0 0-1-0.37c-0.84-0.2-1.67-0.4-2.52-0.52-1.21-0.18-2.42-0.33-3.64-0.41-1.63-0.1-3.31-0.13-4.63-0.18zm1.35-4h-3c-0.09 0-0.18 0-0.18 0.13 v2.13a0.16 0.16 0 0 0 0.09 0.12 c0.179 0.054 0.363 0.088 0.55 0.1 h5.53c0.15 0 0.2 0 0.2-0.2v-2c0-0.25 0-0.25-0.24-0.25l-2.95-0.03zm0-1.16h3c0.14 0 0.19 0 0.19-0.19v-2c0-0.13 0-0.16-0.17-0.16h-6c-0.14 0-0.19 0-0.19 0.18 v1.93c0 0.16 0 0.2 0.2 0.2l2.97 0.04 z" fill="#FFF"/>
</svg>
