<?xml version="1.0" ?>
<svg xmlns="http://www.w3.org/2000/svg" width="31" height="31" viewBox="0 0 31 31">
  <path d="M0.26 30.65l0.3-0.11 0.92 -0.39 1.07-0.43 1.52-0.65 1.51-0.62 1-0.45L8 27.43l1.19-0.51 1.08-0.43 1.51-0.65 1.39-0.57 1.34-0.56 1.5-0.62 1.52-0.64 1.51-0.63 1.17-0.5 1.41-0.58 1.52-0.63 1.31-0.54 1.37-0.57c0.25-0.1 0.5 -0.21 0.74 -0.33a0.44 0.44 0 0 0 0.26-0.49c-0.06-0.18-0.12-0.36-0.2-0.54-0.2-0.45-0.4-0.91-0.63-1.36-0.37-0.69-0.73-1.38-1.15-2-0.42-0.62-0.9-1.34-1.37-2a25.58 25.58 0 0 0-1.87-2.29 28.93 28.93 0 0 0-2.16-2.13c-0.44-0.44-0.89-0.86-1.35-1.2-0.46-0.34-0.87-0.66-1.31-1a21.62 21.62 0 0 0-2.28-1.45c-0.43-0.24-0.87-0.45-1.31-0.67a9.19 9.19 0 0 0-1.69-0.68 0.4 0.4 0 0 0-0.5 0.14 4.64 4.64 0 0 0-0.26 0.55 c-0.23 0.53 -0.45 1.07-0.68 1.6l-0.59 1.52-0.62 1.5c-0.15 0.36 -0.31 0.72 -0.46 1.09-0.15 0.37 -0.42 1-0.62 1.5s-0.31 0.72 -0.46 1.09c-0.15 0.37 -0.41 1-0.62 1.48l-0.45 1.07-0.62 1.5-0.46 1.1-0.62 1.52-0.7 1.63c-0.22 0.55 -0.44 1.09-0.67 1.64l-0.88 2.1c-0.17 0.39 -0.33 0.79 -0.49 1.19-0.16 0.4 -0.44 1-0.65 1.5-0.21 0.5 -0.38 0.93 -0.58 1.4-0.2 0.47 -0.37 0.83 -0.57 1.27 0 0.2 0 0.39 0.26 0.4zM13.22 0a0.71 0.71 0 0 0-0.7 0.41 c-0.15 0.31 -0.28 0.64 -0.41 1-0.13 0.36 -0.23 0.56 -0.33 0.85 a0.44 0.44 0 0 0 0.05 0.48 c0.119 0.12 0.258 0.218 0.41 0.29 0.5 0.23 1 0.43 1.52 0.67 0.52 0.24 1 0.51 1.49 0.79 s0.95 0.57 1.4 0.89 c0.71 0.48 1.41 1 2.08 1.5a23.46 23.46 0 0 1 2.31 2c0.5 0.5 1 1 1.48 1.53a27.74 27.74 0 0 1 1.87 2.31c0.59 0.82 1.15 1.66 1.67 2.53 0.24 0.42 0.48 0.85 0.71 1.29 0.23 0.44 0.41 0.82 0.61 1.23 0.2 0.41 0.25 0.59 0.41 0.87 0.16 0.28 0.32 0.36 0.67 0.24 0.35 -0.12 0.47 -0.18 0.7 -0.27 0.23 -0.09 0.76 -0.3 1.12-0.48a0.66 0.66 0 0 0 0.36-0.81c-0.21-0.54-0.44-1.07-0.7-1.59-0.26-0.52-0.66-1.31-1-2-0.34-0.69-0.8-1.3-1.23-1.94-0.43-0.64-0.75-1.07-1.16-1.59-0.56-0.69-1.13-1.38-1.72-2-0.59-0.62-1.15-1.2-1.74-1.75-0.59-0.55-1.09-1-1.63-1.45-0.54-0.45-1.2-1-1.82-1.43-0.62-0.43-1-0.7-1.47-1-0.65-0.41-1.32-0.8-2-1.18-0.49-0.27-1-0.51-1.51-0.76-0.34-0.16-0.69-0.3-1-0.45L13.22 0z" fill="#FFF"/>
  <path d="M0.26 30.65c-0.23 0-0.31-0.2-0.23-0.4 0.17 -0.44 0.36 -0.87 0.54 -1.31 0.18 -0.44 0.39 -0.93 0.58 -1.4 0.19 -0.47 0.43 -1 0.65-1.5 0.22 -0.5 0.32 -0.8 0.49 -1.19l0.88-2.1c0.23-0.55 0.45 -1.09 0.67 -1.64l0.7-1.63 0.62 -1.48 0.46 -1.06 0.62 -1.5 0.45 -1.07c0.21-0.49 0.41 -1 0.62-1.48 0.21 -0.48 0.3 -0.73 0.46 -1.09 0.16 -0.36 0.41 -1 0.62-1.5 0.21 -0.5 0.31 -0.73 0.46 -1.09l0.62-1.5 0.62 -1.49c0.23-0.53 0.45 -1.07 0.68 -1.6A4.64 4.64 0 0 1 11 4a0.4 0.4 0 0 1 0.47-0.17 9.19 9.19 0 0 1 1.69 0.68 c0.44 0.22 0.88 0.43 1.31 0.67 0.79 0.442 1.552 0.933 2.28 1.47 0.44 0.32 0.88 0.64 1.31 1 0.43 0.36 0.91 0.76 1.35 1.15a28.93 28.93 0 0 1 2.16 2.13 25.58 25.58 0 0 1 1.87 2.29c0.47 0.66 1 1.32 1.37 2 0.37 0.68 0.78 1.35 1.15 2 0.23 0.45 0.43 0.91 0.63 1.36 0.08 0.18 0.14 0.36 0.2 0.54a0.44 0.44 0 0 1-0.26 0.49 9.8 9.8 0 0 1-0.74 0.33 l-1.36 0.58 -1.31 0.54 -1.52 0.63 -1.41 0.58 -1.17 0.5 -1.51 0.63 -1.51 0.69 -1.5 0.62 -1.34 0.56 -1.39 0.57 -1.51 0.65 -1.08 0.43 -1.18 0.51 -1.37 0.57 -1 0.45-1.51 0.62 -1.52 0.65 -1.07 0.43 -0.92 0.39 -0.35 0.11 zm16.94-9.76a2.51 2.51 0 1 0 0-5 2.51 2.51 0 1 0 0 5zm-2-9.63A2.15 2.15 0 1 0 13 13.4a2.13 2.13 0 0 0 2.15-2.14h0.05zM8.93 19a1.91 1.91 0 1 0 0 3.82 1.91 1.91 0 0 0 0-3.82z" fill="#FFF"/>
  <path d="M13.22 0l0.42 0.14 c0.34 0.15 0.69 0.29 1 0.45 0.51 0.25 1 0.49 1.51 0.76 0.67 0.38 1.34 0.77 2 1.18 0.5 0.32 0.99 0.653 1.47 1 0.62 0.46 1.23 0.93 1.82 1.43 0.59 0.5 1.11 1 1.63 1.47 0.52 0.47 1.18 1.16 1.73 1.77 0.55 0.61 1.16 1.35 1.72 2 0.41 0.52 0.79 1 1.16 1.59 0.37 0.59 0.85 1.28 1.23 1.94 0.38 0.66 0.71 1.29 1 2 0.29 0.71 0.49 1 0.7 1.59a0.66 0.66 0 0 1-0.36 0.81 c-0.36 0.18 -0.75 0.33 -1.12 0.48 -0.37 0.15 -0.46 0.19 -0.7 0.27 -0.24 0.08 -0.52 0-0.67-0.24-0.15-0.24-0.27-0.58-0.41-0.87-0.14-0.29-0.39-0.83-0.61-1.23-0.22-0.4-0.47-0.87-0.71-1.29a35.65 35.65 0 0 0-1.67-2.53 27.74 27.74 0 0 0-1.87-2.31c-0.48-0.52-1-1-1.48-1.53a23.46 23.46 0 0 0-2.31-2c-0.67-0.53-1.37-1-2.08-1.5-0.45-0.32-0.92-0.61-1.4-0.89-0.48-0.28-1-0.54-1.49-0.79s-1-0.44-1.52-0.67a1.46 1.46 0 0 1-0.41-0.29 0.44 0.44 0 0 1-0.05-0.48c0.1-0.29 0.21 -0.57 0.33 -0.85 0.12 -0.28 0.26 -0.65 0.41 -1a0.71 0.71 0 0 1 0.73-0.41z" fill="#FFF"/>
  <path d="M16.35 20.89a2.51 2.51 0 1 1 2.51-2.5 2.49 2.49 0 0 1-2.51 2.5zM15.15 11.26A2.15 2.15 0 1 1 13 9.1a2.12 2.12 0 0 1 2.15 2.16zM8.93 19A1.91 1.91 0 1 1 7 20.92 1.9 1.9 0 0 1 8.93 19z" fill="#EC1C24"/>
</svg>
