<?xml version="1.0" ?>
<svg xmlns="http://www.w3.org/2000/svg" width="44" height="26" viewBox="0 0 44 26">
  <path d="M20.93 6.14V1l-0.93 0.34 -1.27 0.53 a0.33 0.33 0 0 0-0.24 0.37 v4.28c0 0.22-0.06 0.31 -0.28 0.29 -0.22-0.02-0.2 0-0.3 0a0.59 0.59 0 0 0-0.71 0.39 0.09 0.09 0 0 1 0 0.06 1.92 1.92 0 0 0-0.43 1.54c0 0.22-0.06 0.27 -0.27 0.27 H5.38a4.09 4.09 0 0 0-1.89 0.36 2.82 2.82 0 0 0-1.64 2.65v4.11c0 0.29 0 0.29-0.3 0.29 H0.23c-0.18 0-0.23 0.06 -0.23 0.22 v1.77a0.51 0.51 0 0 0 0.08 0.28 c0.37 0.54 0.74 1.07 1.12 1.59a0.37 0.37 0 0 0 0.28 0.15 H5c0.22 0 0.22-0.1 0.23 -0.27a8.09 8.09 0 0 1 1.26-4.27 5.5 5.5 0 0 1 3.51-2.4 7.84 7.84 0 0 1 3.82 0.13 5.32 5.32 0 0 1 3.44 3 7.91 7.91 0 0 1 0.79 3.55c0 0.29 0 0.29 0.28 0.29h8.97c0.33 0 0.32 0 0.33-0.34a7.22 7.22 0 0 1 1.64-4.82A5.33 5.33 0 0 1 32 13.65a8.53 8.53 0 0 1 3.66-0.16A5.21 5.21 0 0 1 40 17.21a7.23 7.23 0 0 1 0.36 3c0 0.18 0 0.24 0.22 0.24h2.22a0.24 0.24 0 0 0 0.28-0.2c0.22-0.78 0.46 -1.56 0.69 -2.34a0.49 0.49 0 0 0 0-0.15h-1.24c-0.18 0-0.24-0.05-0.24-0.23v-3.24-2.24a0.48 0.48 0 0 0-0.16-0.39c-0.41-0.39-0.81-0.82-1.25-1.19a0.68 0.68 0 0 1-0.25-0.6v-2.4a0.63 0.63 0 0 0-0.14-0.37c-0.28-0.33-0.58-0.63-0.86-1a0.5 0.5 0 0 0-0.4-0.17h-6.58c-0.32 0-0.32 0-0.32-0.33V1.34a1.2 1.2 0 0 0-0.76-1.23 1.5 1.5 0 0 0-1.6 0.3 1.31 1.31 0 0 0-0.31 0.93 v1.75c0 0.18-0.06 0.29 -0.25 0.25 -0.42-0.09-0.62 0.12 -0.82 0.47 a2.7 2.7 0 0 0-0.41 1.54v4.72a0.55 0.55 0 0 1-0.24 0.48 c-0.8 0.62 -0.48 0.53 -1.5 0.53 h-1.65a1.13 1.13 0 0 0-1.17 0.81 1.91 1.91 0 0 0 0.06 1.5 0.85 0.85 0 0 0 0.83 0.54 h1.22c0.2 0 0.26 0.07 0.25 0.25 -0.01 0.18 0 0.21 0 0.31a0.69 0.69 0 0 1-0.21 0.52 1.11 1.11 0 0 1-1 0.4h-3.6c-0.22 0-0.29-0.06-0.29-0.28v-4.36H21c0.06 0.12 0.11 0.25 0.18 0.36 0.16 0.266 0.345 0.517 0.55 0.75 a1 1 0 0 0 1.47 0 2.68 2.68 0 0 0 0.68-1.13 6.76 6.76 0 0 0-0.07-4.69 2.47 2.47 0 0 0-0.66-1 0.93 0.93 0 0 0-1.39 0 6.56 6.56 0 0 0-0.65 1 0.53 0.53 0 0 0-0.06 0.1 l-0.12-0.02zm15.17 4.2h-3.53c-0.18 0-0.24-0.05-0.24-0.23V7.16c0-0.3 0-0.3 0.3 -0.3h5.79c0.9 0 0.61-0.12 1.25 0.55 a0.6 0.6 0 0 1 0.18 0.45 v2.23c0 0.19-0.06 0.26 -0.26 0.26 l-3.49-0.01zM23.33 8.46v0.65a4.39 4.39 0 0 1-0.42 1.79c-0.11 0.2 -0.22 0.42 -0.49 0.41 -0.27-0.01-0.39-0.22-0.46-0.43a10.18 10.18 0 0 1-0.36-1.31 6.56 6.56 0 0 1 0.1-2.79A3 3 0 0 1 22 6c0.26-0.47 0.58 -0.46 0.87 0 0.05 0.078 0.09 0.162 0.12 0.25 a5.59 5.59 0 0 1 0.34 2.21z" fill="#FFF"/>
  <path d="M34 25.56a5.9 5.9 0 1 0-5.91-5.92A6 6 0 0 0 34 25.56zm0-3.69a2.21 2.21 0 1 1 2.21-2.18A2.14 2.14 0 0 1 34 21.87zM5.66 19.67a6 6 0 0 0 5.83 5.89 5.9 5.9 0 1 0 0.12-11.8 6 6 0 0 0-5.95 5.91zm3.69 0a2.12 2.12 0 0 1 2.2-2.2 2.21 2.21 0 1 1 0 4.41 2.14 2.14 0 0 1-2.2-2.22v0.01z" fill="#FFF"/>
</svg>
