<?xml version="1.0" ?>
<svg xmlns="http://www.w3.org/2000/svg" width="34" height="37" viewBox="0 0 34 37">
  <path d="M12 7.9v7.58c0 0.29 0 0.27 0.3 0.34 0.41 0.089 0.814 0.202 1.21 0.34 a0.16 0.16 0 0 0 0.24-0.09l1.11-1.94 4.56-7.91c1.18-2 2.353-4.03 3.52-6.09 0.08 -0.13 0.14 -0.15 0.28 -0.07l2.79 1.61c0.11 0.06 0.15 0.11 0.07 0.25 l-2.6 4.57c-1 1.75-2 3.51-3 5.26-0.92 1.59-1.84 3.19-2.77 4.78-0.26 0.45 -0.51 0.91 -0.78 1.36-0.06 0.1 0 0.15 0 0.22 0.34 0.33 0.68 0.66 1 1a0.17 0.17 0 0 0 0.25 0l5.15-3 6.21-3.58 1.93-1.12c0.15-0.09 0.23 -0.07 0.31 0.07 0.53 0.93 1.06 1.87 1.6 2.79 0.07 0.13 0.06 0.17-0.06 0.24 l-4.76 2.74-4 2.3L20 22.24a0.23 0.23 0 0 0-0.12 0.33 c0.08 0.29 0.17 0.58 0.24 0.88 a5.5 5.5 0 0 1 0.2 1c0.073 0.7 0.097 1.406 0.07 2.11a10 10 0 0 1-2 5.45 9.79 9.79 0 0 1-3.84 3.08c-0.62 0.28 -1.263 0.511 -1.92 0.69 a9.13 9.13 0 0 1-3.49 0.22 10.17 10.17 0 0 1-7-3.93 8.94 8.94 0 0 1-1.49-2.74 15.18 15.18 0 0 1-0.52-2A9.07 9.07 0 0 1 0 24.91a9.78 9.78 0 0 1 0.47-2.26 10.35 10.35 0 0 1 1.41-2.77 10.17 10.17 0 0 1 4.2-3.38 10.06 10.06 0 0 1 2.2-0.7 0.2 0.2 0 0 0 0.13-0.14 0.49 0.49 0 0 0 0-0.21V0.4c0-0.4 0-0.4 0.4 -0.4h3c0.2 0 0.25 0.07 0.25 0.25 V7.9H12zm-1.78 24.52a6.61 6.61 0 1 0-6.6-6.55 6.58 6.58 0 0 0 6.6 6.55z" fill="#FFF"/>
</svg>
