<?xml version="1.0" ?>
<svg xmlns="http://www.w3.org/2000/svg" width="47" height="32" viewBox="0 0 47 32">
  <path d="M12.25 21.71l1.34-0.87 2.68-1.71 2.8-1.79L22 15.47l2.64-1.7c0.16-0.1 0.19 -0.17 0.07 -0.33-0.51-0.71-1-1.44-1.49-2.16l-1.84-2.63C20.9 8 20.42 7.27 20 6.57a2.4 2.4 0 0 1-0.42-1.64A1.53 1.53 0 0 1 20 4a0.66 0.66 0 0 1 0.29-0.14l1.67-0.38L23.7 3l1.62-0.37 1.39-0.35L28.06 2l1.28-0.31 0.91 -0.23L32 1l1.41-0.32c0.44-0.11 0.87 -0.23 1.32-0.33A6.27 6.27 0 0 1 37 0a1.61 1.61 0 0 1 1.4 1.11c0.18 0.444 0.215 0.934 0.1 1.4-0.13 0.53 -0.5 0.97 -1 1.19a9.46 9.46 0 0 1-1.21 0.38 l-1.21 0.33 -1.19 0.31 -1.21 0.28 -1.27 0.33 -1.53 0.42 -1.21 0.32 -1.23 0.34 -1.14 0.29 -0.82 0.3 c0.15 0.21 0.27 0.4 0.41 0.58 l2.88 3.82c0.63 0.84 1.28 1.68 1.89 2.53 0.61 0.85 1.22 1.74 1.82 2.61 0.6 0.87 1.28 1.88 1.91 2.82 0.41 0.62 0.8 1.24 1.19 1.87 0 0 0 0.09 0.08 0.17h-0.29a5.08 5.08 0 0 0-3 1c-0.41 0.3 -0.8 0.65 -1.21 1a2.4 2.4 0 0 1-2 0.34 5.52 5.52 0 0 1-2.66-1.58 5.2 5.2 0 0 0-2.5-1.43 7.17 7.17 0 0 0-1.36-0.24 4.49 4.49 0 0 0-1.56 0.24 5.57 5.57 0 0 0-1.65 0.8 c-0.49 0.36 -0.94 0.76 -1.4 1.16a3.88 3.88 0 0 1-1.47 0.87 2.31 2.31 0 0 1-1.25 0 7.55 7.55 0 0 1-2.38-1.38c-0.21-0.18-0.43-0.3-0.68-0.47zM44.23 31.15a6.64 6.64 0 0 1-2.7-0.7c-0.72-0.38-1.42-0.79-2.11-1.23a4.64 4.64 0 0 0-3.22-0.73c-0.63 0.1 -1.24 0.296 -1.81 0.58 a11.78 11.78 0 0 0-1.86 1.2 5.15 5.15 0 0 1-1.81 0.8 4.49 4.49 0 0 1-1.81 0.06 A5.4 5.4 0 0 1 26.3 30c-0.44-0.36-0.86-0.75-1.27-1.13a4.12 4.12 0 0 0-1.83-1 2.77 2.77 0 0 0-2.4 0.55 c-0.53 0.38 -1 0.82-1.53 1.24a5.56 5.56 0 0 1-2.15 1.1 4.28 4.28 0 0 1-1.9 0.05 7.18 7.18 0 0 1-2.49-1c-0.6-0.39-1.18-0.82-1.79-1.2A4.41 4.41 0 0 0 9.23 28a3.51 3.51 0 0 0-2.58 0.68 c-0.57 0.39 -1.09 0.85 -1.68 1.22a5.55 5.55 0 0 1-3.56 0.87 2 2 0 0 1-1.05-0.37 0.94 0.94 0 0 1-0.24-1.19 0.89 0.89 0 0 1 1.09-0.42 2.5 2.5 0 0 0 1.22 0.09 5.6 5.6 0 0 0 2.64-1.38 6.72 6.72 0 0 1 1.79-1.06 5.19 5.19 0 0 1 2.51-0.33A6 6 0 0 1 12 27c0.61 0.38 1.19 0.81 1.79 1.2a5 5 0 0 0 1.81 0.76 2.73 2.73 0 0 0 2.4-0.56c0.4-0.36 0.76 -0.75 1.18-1.09a6 6 0 0 1 2.09-1.15 4.38 4.38 0 0 1 2.15-0.16 5.11 5.11 0 0 1 3 1.75 4.6 4.6 0 0 0 1.91 1.33 3.22 3.22 0 0 0 1.62 0.2 3.35 3.35 0 0 0 1.62-0.67 9.77 9.77 0 0 1 2.32-1.42 10.24 10.24 0 0 1 1.59-0.49 7.33 7.33 0 0 1 1.41-0.17 5.75 5.75 0 0 1 3.15 0.86 c0.53 0.32 1 0.7 1.57 1a4.92 4.92 0 0 0 2.64 0.8 1.45 1.45 0 0 0 0.79-0.26 1.17 1.17 0 0 1 0.61-0.23 0.82 0.82 0 0 1 0.82 0.47 0.86 0.86 0 0 1 0 0.92 1.87 1.87 0 0 1-1.12 0.78 9.77 9.77 0 0 1-1.12 0.28 z" fill="#FFF"/>
  <path d="M44.16 27.18a5.43 5.43 0 0 1-2.35-0.51 15.57 15.57 0 0 1-2.34-1.32 4.33 4.33 0 0 0-3.24-0.78 6.87 6.87 0 0 0-2.52 0.95 c-0.42 0.25 -0.81 0.56 -1.21 0.84 a5.14 5.14 0 0 1-2.07 0.84 5.34 5.34 0 0 1-2.58-0.26 6.24 6.24 0 0 1-2.63-1.75 3.94 3.94 0 0 0-2.57-1.28 2.66 2.66 0 0 0-1.47 0.39 9.69 9.69 0 0 0-1.7 1.32 6.16 6.16 0 0 1-2.16 1.22 4.36 4.36 0 0 1-2.31 0.07 7 7 0 0 1-2.22-0.95c-0.65-0.42-1.27-0.88-1.93-1.28A3.92 3.92 0 0 0 8.62 24a3.81 3.81 0 0 0-2.09 0.78 c-0.55 0.39 -1.07 0.83 -1.65 1.19a4.73 4.73 0 0 1-1.78 0.71 l-0.57 0.1 a3.67 3.67 0 0 1-1.8-0.13 1 1 0 0 1-0.73-0.72 0.93 0.93 0 0 1 0.45-1c0.283-0.09 0.587 -0.09 0.87 0a5 5 0 0 0 1.23 0 5 5 0 0 0 2.17-1.07c0.41-0.328 0.838 -0.635 1.28-0.92a5.21 5.21 0 0 1 4-0.61 6.88 6.88 0 0 1 2.55 1.23 9.91 9.91 0 0 0 2.18 1.3c0.436 0.19 0.904 0.296 1.38 0.31 a2.78 2.78 0 0 0 2.08-0.89 7.35 7.35 0 0 1 2.27-1.72 7.19 7.19 0 0 1 1.32-0.43 3.8 3.8 0 0 1 1-0.08 5 5 0 0 1 2.4 0.77 c0.522 0.319 0.99 0.717 1.39 1.18a4.3 4.3 0 0 0 2 1.25 3.34 3.34 0 0 0 3.25-0.65 9.56 9.56 0 0 1 2.68-1.5 6.92 6.92 0 0 1 3.39-0.39 5.9 5.9 0 0 1 2.7 1.12 8.1 8.1 0 0 0 2.37 1.25 7.59 7.59 0 0 0 1 0.24A1.53 1.53 0 0 0 45 25.1a2.61 2.61 0 0 1 0.57-0.27 0.88 0.88 0 0 1 1 0.53 1 1 0 0 1-0.44 1.27 3.05 3.05 0 0 1-1.97 0.55 zM44 14.07A5.07 5.07 0 1 1 39 9a5 5 0 0 1 5 5.07z" fill="#FFF"/>
</svg>
