<?xml version="1.0" ?>
<svg xmlns="http://www.w3.org/2000/svg" width="26" height="36" viewBox="0 0 26 36">
  <path d="M14.51 20.42a0.67 0.67 0 0 1 0 0.66h0.2c0.65 0 1.29 0 1.93 0.09 0.64 0.09 1.19 0.15 1.79 0.25 0.6 0.1 1 0.18 1.47 0.31 a14.27 14.27 0 0 1 1.57 0.49 10.81 10.81 0 0 1 2.11 1 5.34 5.34 0 0 1 1.85 1.81c0.256 0.43 0.394 0.92 0.4 1.42v3.73a3.17 3.17 0 0 1-1 2.24A7 7 0 0 1 22.48 34a18.43 18.43 0 0 1-1.74 0.68 c-0.38 0.13 -0.77 0.22 -1.15 0.31 -0.53 0.12 -1.07 0.24 -1.61 0.33 -0.443 0.075 -0.89 0.125 -1.34 0.15 -1.1 0-2.2 0.08 -3.29 0.06 -0.68 0-1.36-0.11-2-0.18a10.45 10.45 0 0 1-1.1-0.17c-0.45-0.09-0.89-0.2-1.34-0.32-0.45-0.12-1.06-0.31-1.57-0.5a8.55 8.55 0 0 1-3.23-2 3.3 3.3 0 0 1-1-2.22v-3.21a6 6 0 0 1 0.15-1.27c0.136-0.49 0.39 -0.94 0.74 -1.31a7.49 7.49 0 0 1 2.35-1.66c0.38-0.18 0.79 -0.33 1.18-0.5 0 0 0.09-0.1 0.08 -0.13a1.23 1.23 0 0 1 0.27-1.25 10.52 10.52 0 0 1-6.71-5.42 10.13 10.13 0 0 1-0.41-8.65 10.49 10.49 0 0 1 11-6.68 10.52 10.52 0 0 1 9.23 8 10.32 10.32 0 0 1-0.99 7.42 10.53 10.53 0 0 1-5.49 4.94zm0.42 9.68a19.88 19.88 0 0 0 3.36-0.29c0.5-0.09 1-0.18 1.5-0.3a11 11 0 0 0 2.1-0.76 4.64 4.64 0 0 0 1.66-1.25 1.69 1.69 0 0 0 0.18-1.95 3.45 3.45 0 0 0-1.16-1.12 10.8 10.8 0 0 0-3.51-1.31 14 14 0 0 0-1.7-0.27 20.51 20.51 0 0 0-2.22-0.14 18.93 18.93 0 0 0-3.83 0.32 c-0.48 0.09 -1 0.18-1.42 0.3 a9.86 9.86 0 0 0-2.15 0.83 4.18 4.18 0 0 0-1.53 1.24 1.66 1.66 0 0 0-0.29 1.36c0.113 0.43 0.357 0.816 0.7 1.1a7.31 7.31 0 0 0 3 1.51c0.51 0.15 1 0.27 1.56 0.37 0.56 0.1 1.14 0.2 1.71 0.25 0.57 0.05 1.36 0.08 2.04 0.11 zm3.6-19.51a7.9 7.9 0 1 0-8 7.87 7.89 7.89 0 0 0 8-7.87zm3.56 19.49h-0.11a15 15 0 0 1-2.45 0.73 c-0.64 0.14 -1.28 0.26 -1.93 0.35 -0.65 0.09 -1.32 0.17 -2 0.2a21.41 21.41 0 0 1-4-0.18c-0.6-0.08-1.21-0.17-1.81-0.28a9.68 9.68 0 0 1-1.29-0.31A16.85 16.85 0 0 1 6.84 30a7.82 7.82 0 0 1-2.15-1.36 6.06 6.06 0 0 1-1-1.19 0.09 0.09 0 0 0 0 0.07 5.32 5.32 0 0 0 1.83 2.26 10.61 10.61 0 0 0 4 1.68c0.518 0.12 1.042 0.21 1.57 0.27 a18.1 18.1 0 0 0 1.94 0.15 19 19 0 0 0 3.46-0.12c0.49-0.08 1-0.13 1.49-0.24 0.66 -0.15 1.31-0.34 2-0.53a10.51 10.51 0 0 0 2.11-0.91z" fill="#FFF"/>
  <path d="M16.34 28a0.55 0.55 0 0 0 0.57 0.57 0.55 0.55 0 0 0 0.57-0.57 0.57 0.57 0 0 0-1.14 0zm7.12-1.7a0.46 0.46 0 0 0-0.45-0.44 0.45 0.45 0 0 0 0 0.89 0.46 0.46 0 0 0 0.45-0.48v0.03zm-15.14-0.47a0.35 0.35 0 0 0 0.38-0.37 0.39 0.39 0 0 0-0.36-0.4 0.42 0.42 0 0 0-0.41 0.39 0.38 0.38 0 0 0 0.39 0.38 zm3.5 2.09a0.38 0.38 0 0 0-0.35-0.35 0.39 0.39 0 0 0-0.34 0.35 0.38 0.38 0 0 0 0.35 0.34 0.35 0.35 0 0 0 0.34-0.34zm1.36-3.06a0.3 0.3 0 0 0 0.3-0.27 0.32 0.32 0 0 0-0.3-0.3 0.31 0.31 0 0 0-0.3 0.3 0.28 0.28 0 0 0 0.3 0.27 zm8.67 2.31a0.23 0.23 0 0 0-0.25-0.25 0.23 0.23 0 0 0-0.26 0.25 0.24 0.24 0 0 0 0.25 0.26 0.25 0.25 0 0 0 0.26-0.26zm-7 1.92a0.23 0.23 0 0 0-0.24 0.23 0.28 0.28 0 0 0 0.24 0.25 0.24 0.24 0 0 0 0.22-0.24c0.04-0.16-0.07-0.23-0.19-0.24h-0.03zm4.91-3.62c-0.14 0-0.19 0.09 -0.21 0.2 -0.02 0.11 0.11 0.22 0.21 0.22 0.1 0 0.24-0.12 0.23 -0.22-0.01-0.1 0.01 -0.22-0.2-0.2h-0.03zm-5.26 1.05c-0.11-0.09-0.18-0.19-0.26-0.19-0.08 0-0.19 0.12 -0.18 0.17 a0.28 0.28 0 0 0 0.18 0.2 c0.06 0.02 0.14-0.09 0.26 -0.18zm-6 0.46c-0.16 0-0.21 0.11 -0.21 0.22 s0.06 0.18 0.18 0.17 c0.12-0.01 0.2 -0.07 0.17 -0.18-0.03-0.11-0.13-0.14-0.18-0.19l0.04-0.02zM18.07 24c-0.08-0.05-0.12-0.11-0.16-0.1a0.13 0.13 0 0 0-0.1 0.09 s0.06 0.12 0.09 0.12 a1.11 1.11 0 0 0 0.17-0.11z" fill="#FFF"/>
  <path d="M18.53 10.59a7.9 7.9 0 1 1-7.62-7.9 7.91 7.91 0 0 1 7.62 7.9zm-7.91-7.15a7.14 7.14 0 1 0 7.17 7.14 7.12 7.12 0 0 0-7.17-7.14z" fill="#F9A66E"/>
  <path d="M16.34 28a0.57 0.57 0 0 1 1.14 0 0.55 0.55 0 0 1-0.57 0.57 0.55 0.55 0 0 1-0.57-0.57zM23.46 26.27a0.46 0.46 0 0 1-0.44 0.45 0.45 0.45 0 0 1 0-0.89 0.46 0.46 0 0 1 0.44 0.44 zM8.32 25.83a0.38 0.38 0 0 1-0.39-0.38 0.42 0.42 0 0 1 0.41-0.39 0.39 0.39 0 0 1 0.36 0.4 0.35 0.35 0 0 1-0.38 0.37 zM11.82 27.92a0.35 0.35 0 0 1-0.34 0.34 0.38 0.38 0 0 1-0.35-0.34 0.39 0.39 0 0 1 0.34-0.35 0.38 0.38 0 0 1 0.35 0.35 zM13.18 24.86a0.28 0.28 0 0 1-0.3-0.27 0.31 0.31 0 0 1 0.3-0.3 0.32 0.32 0 0 1 0.3 0.3 0.3 0.3 0 0 1-0.3 0.27 zM21.85 27.17a0.25 0.25 0 0 1-0.26 0.26 0.24 0.24 0 0 1-0.25-0.26 0.23 0.23 0 0 1 0.26-0.25 0.23 0.23 0 0 1 0.25 0.25 zM14.88 29.09c0.16 0 0.23 0.08 0.22 0.24 a0.24 0.24 0 0 1-0.22 0.24 0.28 0.28 0 0 1-0.24-0.25 0.23 0.23 0 0 1 0.24-0.23zM19.79 25.47c0.16 0 0.21 0.09 0.23 0.2 0.02 0.11 -0.13 0.22 -0.23 0.22 s-0.23-0.13-0.21-0.22c0.02-0.09 0.07 -0.22 0.21 -0.2zM14.5 26.52c-0.12 0.09 -0.2 0.2 -0.26 0.18 a0.28 0.28 0 0 1-0.18-0.2c0-0.05 0.12 -0.17 0.18 -0.17s0.15 0.1 0.26 0.19 zM8.46 27c0 0.07 0.13 0.13 0.14 0.21 0.01 0.08 0 0.17-0.17 0.18 -0.17 0.01 -0.19 0-0.18-0.17 0.01 -0.17 0.05 -0.22 0.21 -0.22zM18.07 24a1.11 1.11 0 0 1-0.17 0.11 s-0.09-0.08-0.09-0.12a0.13 0.13 0 0 1 0.1-0.09s0.09 0.1 0.16 0.1 zM10.62 3.44a7.14 7.14 0 1 1-7.15 7.12 7.13 7.13 0 0 1 7.15-7.12zm4.11 2.2a0.16 0.16 0 0 0 0-0.07l-0.16-0.18c-0.16-0.17-0.16-0.17-0.33 0l-2.62 2.43-4.91 4.64c-0.22 0.2 -0.22 0.2 0 0.42 0.22 0.22 0.18 0.19 0.36 0l2.45-2.32L13.27 7l1.46-1.36zm-1.17 2.63l-0.12 0.1 c-2.24 2.113-4.477 4.227-6.71 6.34-0.25 0.23 -0.24 0.23 0 0.47 0.24 0.24 0.13 0.09 0.23 0l2-1.89L13.6 8.9c0.32-0.31 0.32 -0.31 0-0.62l-0.04-0.01z" fill="#FFF"/>
  <path d="M14.73 5.64L13.27 7l-3.76 3.57-2.45 2.32c-0.18 0.18 -0.18 0.18 -0.36 0s-0.21-0.22 0-0.42l4.91-4.64 2.59-2.45c0.17-0.16 0.17 -0.16 0.33 0l0.16 0.18 a0.16 0.16 0 0 1 0.04 0.08 zM13.56 8.27c0.33 0.31 0.33 0.31 0 0.62L9 13.29l-2 1.89c-0.1 0.09 -0.14 0.1 -0.23 0s-0.24-0.24 0-0.47c2.233-2.12 4.47-4.233 6.71-6.34l0.08-0.1z" fill="#F9A66E"/>
</svg>
