<?xml version="1.0" ?>
<svg xmlns="http://www.w3.org/2000/svg" width="31" height="32" viewBox="0 0 31 32">
  <path d="M28 19.92l-0.71-0.36-2.88-1.48a0.33 0.33 0 0 0-0.27 0L21 19.88l-0.17 0.07 c0-0.24 0.05 -0.44 0.09 -0.64 0.04 -0.2 0.09 -0.47 0.13 -0.7 0.07 -0.43 0.13 -0.86 0.2 -1.28 0.07 -0.42 0.14 -0.81 0.21 -1.21a0.42 0.42 0 0 0-0.12-0.47c-0.67-0.57-1.31-1.16-2-1.74l-0.71-0.64a0.35 0.35 0 0 1 0-0.08l0.52-0.1 1.36-0.19 1.3-0.23 0.75 -0.09a0.29 0.29 0 0 0 0.28-0.19c0.26-0.6 0.52 -1.19 0.79 -1.78l0.67-1.51s0.06-0.07 0.07 -0.07a0.18 0.18 0 0 1 0.08 0.08 l0.79 1.56 0.94 1.89a0.36 0.36 0 0 0 0.33 0.21 l2.1 0.21 1.24 0.11 h0.31a2 2 0 0 1-0.14 0.18 l-2.68 2.64a0.33 0.33 0 0 0-0.12 0.32 l0.19 0.89 c0.1 0.48 0.2 1 0.3 1.43 0.1 0.43 0.2 0.87 0.3 1.31l-0.01 0.06 zM15.43 30.66c0-0.18 0.12 -0.44 0.19 -0.69 0.07 -0.25 0.21 -0.77 0.3 -1.17 0.09 -0.4 0.15 -0.74 0.22 -1.11 0.07 -0.37 0.08 -0.48 0.1 -0.73a15.43 15.43 0 0 0 0-3.25 16.66 16.66 0 0 0-0.3-1.67 14.56 14.56 0 0 0-0.44-1.64 22.27 22.27 0 0 0-0.84-2.07c-0.4-0.86-0.84-1.69-1.28-2.53-0.44-0.84-1-1.76-1.43-2.66a17.08 17.08 0 0 1-1-2.38 8.1 8.1 0 0 1-0.44-2.31c0.006-0.469 0.043 -0.936 0.11 -1.4a5.59 5.59 0 0 1 0.58-1.81 10.39 10.39 0 0 1 1.27-2A20.51 20.51 0 0 1 14.83 0.82 c0.25-0.22 0.51 -0.43 0.77 -0.65a0.6 0.6 0 0 1 0.89 0 0.61 0.61 0 0 1-0.11 0.89 c-0.44 0.38 -0.88 0.75 -1.3 1.14A13 13 0 0 0 13 4.65a7.38 7.38 0 0 0-1 2.28 6.12 6.12 0 0 0-0.09 2.35 9.29 9.29 0 0 0 1 2.93c0.58 1.14 1.2 2.25 1.79 3.38 0.39 0.75 0.79 1.49 1.14 2.26 0.35 0.77 0.61 1.45 0.87 2.2 0.26 0.75 0.4 1.28 0.55 1.93 0.1 0.39 0.12 0.81 0.19 1.21 0.145 0.872 0.195 1.757 0.15 2.64 0 0.51-0.09 1-0.15 1.52 0 0.27-0.05 0.53 -0.1 0.8 s-0.14 0.69 -0.22 1c-0.08 0.31 -0.16 0.71 -0.26 1.06-0.1 0.35 -0.16 0.5 -0.24 0.75 a0.62 0.62 0 0 1-0.65 0.37 0.65 0.65 0 0 1-0.55-0.67z" fill="#FFF"/>
  <path d="M9.43 20.81l0.83 1.63 0.68 1.32a0.26 0.26 0 0 0 0.13 0.11 0.93 0.93 0 0 0 0.25 0.05 l1.22 0.1 1.66 0.19 -1 1-1.42 1.42a0.27 0.27 0 0 0-0.07 0.2 c0.09 0.43 0.2 0.85 0.29 1.28 0.09 0.43 0.12 0.61 0.19 0.91 0.07 0.3 0.09 0.38 0.13 0.57 0.04 0.19 0 0.16 0.05 0.3l-0.51-0.25-2.46-1.31a0.24 0.24 0 0 0-0.19 0L7 29.6l-0.48 0.28 a1.59 1.59 0 0 1 0-0.22c0.07-0.43 0.14 -0.85 0.22 -1.28 0-0.17 0.05 -0.34 0.08 -0.51 0.07 -0.43 0.14 -0.87 0.19 -1.3a0.34 0.34 0 0 0-0.1-0.25l-2.08-1.86a2 2 0 0 0-0.19-0.13v-0.06l0.92-0.17 1.46-0.22 0.82 -0.12a0.32 0.32 0 0 0 0.29-0.22c0.31-0.72 0.64 -1.43 1-2.14l0.25-0.6 0.05 0.01zM8.88 4.68l-2 0.89c-0.33 0.15 -0.65 0.29 -1 0.45a0.52 0.52 0 0 0-0.23 0.24 c-0.34 0.83 -0.67 1.67-1 2.5 0 0.08-0.08 0.16 -0.14 0.28 l-0.31-0.66c-0.34-0.76-0.69-1.52-1-2.28-0.08-0.18-0.24-0.23-0.39-0.29l-2.46-1-0.17-0.1 1.18-0.53c0.64-0.28 1.26-0.56 1.87-0.85a0.44 0.44 0 0 0 0.16-0.23L4.31 0.81 c0.06-0.14 0.12 -0.28 0.2 -0.46l0.35 0.76 c0.34 0.74 0.67 1.47 1 2.21 0.08 0.17 0.23 0.21 0.37 0.26l2 0.79 0.51 0.2 0.14 0.11zM12.82 8.48l0.18-0.12 2.4-1.09 0.36 -0.18a0.29 0.29 0 0 0 0.15-0.09l0.75-1.86 0.34 -0.89a1.09 1.09 0 0 1 0.08-0.13l0.54 1.18 0.63 1.37a0.9 0.9 0 0 1 0.06 0.15 c0.09 0.34 0.35 0.47 0.64 0.59 0.78 0.3 1.55 0.61 2.32 0.92 a1 1 0 0 1 0.15 0.1 L20.14 9l-1.67 0.76 a0.32 0.32 0 0 0-0.15 0.15 c-0.2 0.48 -0.4 1-0.59 1.45l-0.5 1.25s-0.05 0.06 -0.08 0.09 -0.06-0.05-0.08-0.08c-0.43-0.94-0.86-1.87-1.28-2.82-0.09-0.19-0.26-0.21-0.41-0.27l-2.54-1-0.02-0.05zM25 31l-0.63-1.39c-0.2-0.45-0.41-0.89-0.62-1.34a0.39 0.39 0 0 0-0.19-0.18l-2.43-1a1 1 0 0 1-0.15-0.1l1.88-0.85c0.3-0.14 0.61 -0.26 0.89 -0.42a0.64 0.64 0 0 0 0.2-0.31l0.92-2.28a0.43 0.43 0 0 1 0.08-0.1 0.45 0.45 0 0 1 0.07 0.09 c0.37 0.81 0.76 1.62 1.11 2.43a0.68 0.68 0 0 0 0.43 0.4 l1.57 0.63 0.7 0.29 0.08 0.06 s0 0.07-0.08 0.08 l-2 0.89c-0.2 0.09 -0.42 0.17 -0.61 0.28 a0.48 0.48 0 0 0-0.2 0.22 c-0.33 0.8 -0.66 1.61-1 2.41A1.46 1.46 0 0 1 25 31zM2 30.66c0-0.09 0-0.25 0.1 -0.41A5.73 5.73 0 0 0 2.33 28a4.8 4.8 0 0 0-0.43-1.67c-0.34-0.71-0.72-1.4-1.07-2.11a12.11 12.11 0 0 1-0.66-1.5 3 3 0 0 1 0.36-2.65 8.09 8.09 0 0 1 1.73-1.84 0.59 0.59 0 0 1 0.77 0 0.55 0.55 0 0 1 0.06 0.81 c-0.17 0.19 -0.38 0.35 -0.57 0.53 -0.39 0.34 -0.713 0.75 -0.95 1.21a2.26 2.26 0 0 0-0.15 1.62c0.25 0.696 0.568 1.366 0.95 2 0.28 0.57 0.55 1.13 0.79 1.71a6.2 6.2 0 0 1 0.38 3.1A10.56 10.56 0 0 1 3.16 31a0.57 0.57 0 0 1-0.64 0.37 0.61 0.61 0 0 1-0.52-0.71zM20.2 24.35l-0.42-0.93a0.35 0.35 0 0 0-0.17-0.15l-0.86-0.36a5 5 0 0 1 0.74-0.35A0.73 0.73 0 0 0 20 22c0.07-0.19 0.15 -0.37 0.24 -0.6 0.1 0.19 0.19 0.35 0.26 0.51 0.064 0.137 0.12 0.277 0.17 0.42 0.06 0.17 0.21 0.21 0.35 0.27l0.73 0.3 c-0.34 0.16 -0.64 0.29 -0.94 0.44 a0.55 0.55 0 0 0-0.22 0.24 c-0.12 0.25 -0.22 0.52 -0.33 0.78 l-0.06-0.01zM7.65 17.14l-0.23-0.46a0.45 0.45 0 0 1 0-0.1c-0.1-0.46-0.47-0.61-0.86-0.74l-0.35-0.13 0.34 -0.19 0.6 -0.26c0.19-0.08 0.22 -0.28 0.29 -0.44 0.07 -0.16 0.12 -0.32 0.19 -0.47 0.07 -0.15 0.05 -0.06 0.09 -0.1 0.15 0.32 0.29 0.63 0.44 0.93a0.38 0.38 0 0 0 0.17 0.16 c0.22 0.1 0.45 0.18 0.68 0.27 a1 1 0 0 1 0.16 0.11 l-0.81 0.35 a0.59 0.59 0 0 0-0.37 0.39 c-0.07 0.22 -0.17 0.44 -0.26 0.66 l-0.08 0.02 zM23.4 6.22a8 8 0 0 1-0.4-0.79 0.71 0.71 0 0 0-0.47-0.43c-0.2-0.07-0.39-0.16-0.63-0.26 0.3 -0.14 0.55 -0.27 0.82 -0.37a0.65 0.65 0 0 0 0.41-0.44c0.07-0.22 0.17 -0.44 0.27 -0.7l0.29 0.65 c0.12 0.27 0.22 0.53 0.57 0.6 0.214 0.068 0.422 0.155 0.62 0.26 l-0.49 0.24 c-0.15 0.07 -0.32 0.12 -0.46 0.21 a0.48 0.48 0 0 0-0.18 0.21 c-0.12 0.23 -0.22 0.5 -0.35 0.82 zM0.21 11.38l0.54-0.26L1 11c0.36-0.11 0.39 -0.45 0.51 -0.72l0.18-0.41c0.17 0.37 0.31 0.68 0.46 1a0.42 0.42 0 0 0 0.2 0.16 l0.82 0.35 a5.32 5.32 0 0 1-0.78 0.35 c-0.32 0.09 -0.39 0.34 -0.49 0.58 a3.14 3.14 0 0 1-0.24 0.52 l-0.22-0.46c-0.07-0.14-0.11-0.3-0.19-0.43a0.52 0.52 0 0 0-0.21-0.2c-0.24-0.13-0.51-0.23-0.83-0.36zM13.63 21.33a0.6 0.6 0 1 1-0.59-0.6 0.59 0.59 0 0 1 0.59 0.6 zM18.39 17.14a0.63 0.63 0 0 1 0.63 0.6 0.67 0.67 0 0 1-0.62 0.61 0.64 0.64 0 0 1-0.62-0.6 0.61 0.61 0 0 1 0.61-0.61zM6.66 8.51a0.57 0.57 0 0 1 0.61-0.58 0.61 0.61 0 0 1 0.41 1.05 0.6 0.6 0 0 1-0.45 0.16 0.58 0.58 0 0 1-0.57-0.63zM26.87 23.22a0.58 0.58 0 0 1 0.6-0.61 0.63 0.63 0 0 1 0.61 0.6 0.64 0.64 0 0 1-0.62 0.62 0.59 0.59 0 0 1-0.59-0.61zM28.69 3.13a0.59 0.59 0 0 1-0.59 0.61 0.61 0.61 0 0 1-0.62-0.61 0.59 0.59 0 0 1 0.61-0.6 0.56 0.56 0 0 1 0.6 0.6 zM2.34 14.45a0.59 0.59 0 0 1 0.61 0.61 0.62 0.62 0 0 1-0.59 0.61 0.63 0.63 0 0 1-0.62-0.61 0.59 0.59 0 0 1 0.6-0.61z" fill="#FFF"/>
</svg>
