<?xml version="1.0" ?>
<svg xmlns="http://www.w3.org/2000/svg" width="31" height="36" viewBox="0 0 31 36">
  <path d="M30.71 8.75c-0.08 0.13 -0.14 0.26 -0.2 0.37 l-2.29 4-2.56 4.45a0.26 0.26 0 0 0 0 0.21c0.63 1.12 1.28 2.24 1.92 3.36l2.73 4.75c0.13 0.23 0.26 0.44 0.42 0.7 H20.67a0.32 0.32 0 0 0-0.34 0.19 c-0.72 1.27-1.46 2.53-2.19 3.79-0.62 1.08-1.24 2.16-1.87 3.24l-0.75 1.31c0 0.07-0.1 0.13 -0.15 0.2 a1.12 1.12 0 0 1-0.17-0.21c-0.56-1-1.11-1.93-1.67-2.9l-2.11-3.66c-0.36-0.61-0.71-1.22-1.06-1.84a0.23 0.23 0 0 0-0.25-0.12H0c0.09-0.15 0.15 -0.29 0.23 -0.42l2.67-4.62a309.91 309.91 0 0 0 2.17-3.81 0.21 0.21 0 0 0 0-0.19l-2.18-3.81c-0.82-1.427-1.643-2.857-2.47-4.29C0.29 9.23 0.16 9 0 8.74h10a0.37 0.37 0 0 0 0.37-0.2c0.71-1.26 1.44-2.51 2.16-3.76l1.87-3.24 0.82 -1.37a1.92 1.92 0 0 1 0.13-0.17c0.059 0.052 0.112 0.108 0.16 0.17 l2.55 4.44c0.76 1.32 1.53 2.64 2.29 4a0.26 0.26 0 0 0 0.27 0.15 h10l0.09-0.01zm-15.35 2.19h-3.61a0.27 0.27 0 0 0-0.27 0.15 l-1.59 2.77-2.1 3.64a0.24 0.24 0 0 0 0 0.29l1.1 1.92 2.58 4.47a0.28 0.28 0 0 0 0.29 0.18 h7.05a0.55 0.55 0 0 0 0.55-0.33c1.18-2.08 2.38-4.16 3.58-6.23a0.25 0.25 0 0 0 0-0.31c-0.47-0.8-0.92-1.6-1.38-2.4l-2.32-4a0.26 0.26 0 0 0-0.26-0.14l-3.62-0.01zm9 8.93c-0.87 1.51-1.74 3-2.58 4.48h5.16l-2.58-4.48zm-17.89 0c-0.87 1.51-1.73 3-2.58 4.48H9l-2.53-4.48zM26.89 11h-5.17l2.59 4.47L26.89 11zM6.42 15.43L9 11H3.84l2.58 4.43zm11.44-6.71c0-0.08-0.06-0.13-0.09-0.18l-2-3.41c-0.13-0.21-0.25-0.43-0.37-0.64-0.12-0.21-0.1-0.09-0.15 0l-0.07 0.11 -2.02 3.56c-0.1 0.18 -0.19 0.36 -0.31 0.56 h5.01zm-5 17.86l0.07 0.15 1.45 2.51 0.85 1.49c0.12 0.2 0.15 0.2 0.27 0l1.77-3.07c0.2-0.34 0.39 -0.68 0.59 -1l-5-0.08z" fill="#FFF"/>
</svg>
