<?xml version="1.0" ?>
<svg xmlns="http://www.w3.org/2000/svg" width="44" height="16" viewBox="0 0 44 16">
  <path d="M38.09 0.77 h-4.26a0.78 0.78 0 0 1-0.33-0.1A5.43 5.43 0 0 0 31.68 0.1 28.57 28.57 0 0 0 28 0H14.64a6.49 6.49 0 0 0-2.5 0.58 1.55 1.55 0 0 1-0.52 0.1 h-7A4 4 0 0 0 3 1a2.22 2.22 0 0 0-1.15 1.3A23.4 23.4 0 0 0 1 4.55C0.77 5.4 0.6 6.27 0.38 7.13a18.84 18.84 0 0 0-0.38 5.3 0.36 0.36 0 0 0 0.11 0.23 c0.252 0.227 0.581 0.349 0.92 0.34 l4.33 0.12 c0.22 0 0.29-0.06 0.29 -0.27a2.62 2.62 0 0 1 1.45-2.39 2.68 2.68 0 0 1 3.77 1.32c0.154 0.388 0.228 0.803 0.22 1.22 0 0.19 0 0.27 0.26 0.28 2.19 0 4.37 0.12 6.56 0.18 l6.65 0.18 5 0.14c0.44 0 0.42 0 0.44-0.42a7.42 7.42 0 0 1 0.13-1.34 2.43 2.43 0 0 1 1.37-1.64 2.68 2.68 0 0 1 3.7 1.52c0.122 0.432 0.18 0.88 0.17 1.33 0 0.61 0 0.63 0.62 0.6l3.67-0.2 3-0.17a1.63 1.63 0 0 0 1.01-0.46 1 1 0 0 0 0.3-0.76c0-1.89-0.11-3.77-0.17-5.66-0.06-1.55-0.11-3.11-0.17-4.66a1.25 1.25 0 0 0-1.3-1.3h-4.24v0.15zm4.1 5.39H25.11c-4.79 0-9.57 0-14.35-0.06a7.9 7.9 0 0 0-2.37 0.34 A6.15 6.15 0 0 0 5.82 8c-0.48 0.48 -0.89 1-1.36 1.52a5.34 5.34 0 0 1-1.81 1.35c-0.42 0.16 -0.63 0-0.63-0.4a25.08 25.08 0 0 1 0.25-4.24 9.84 9.84 0 0 1 0.56-2.13A2.83 2.83 0 0 1 5.6 2.2c1.68-0.05 3.37 0 5.05 0h31.54v3.96z" fill="#FFF"/>
  <path d="M8.41 15.56a2.31 2.31 0 0 0 2.22-2.21 2.36 2.36 0 0 0-2.24-2.23 2.38 2.38 0 0 0-2.22 2.25 2.32 2.32 0 0 0 2.24 2.19zm0-1.26a0.86 0.86 0 0 1-1-0.94 0.88 0.88 0 0 1 1-1 0.87 0.87 0 0 1 0.95 1c-0.01 0.64 -0.3 0.94 -0.94 0.94 h-0.01zM32.67 15.57a2.35 2.35 0 0 0 2.23-2.18 2.23 2.23 0 0 0-4.45-0.11 2.33 2.33 0 0 0 2.22 2.29zm0-1.27a0.86 0.86 0 0 1-1-1 0.89 0.89 0 0 1 1-1 0.91 0.91 0 0 1 1 1 0.86 0.86 0 0 1-1 1z" fill="#FFF"/>
</svg>
