<?xml version="1.0" ?>
<svg xmlns="http://www.w3.org/2000/svg" width="44" height="15" viewBox="0 0 44 15">
  <path d="M13.15 8.5c0 3.44-1.67 5.17-5 5.17H5a4.47 4.47 0 0 1-3.58-1.44A5.49 5.49 0 0 1 0.24 8.5V0.34h2.58V9a0.13 0.13 0 0 0 0.18 0.17 1.83 1.83 0 0 0 1.21-0.65A4.55 4.55 0 0 0 5.4 5.13V0.34H8v4a5.9 5.9 0 0 1-1.65 4.43 5.86 5.86 0 0 1-3.5 1.5 2.2 2.2 0 0 0 0.73 1.49c0.409 0.398 0.96 0.618 1.53 0.61 H8a2.19 2.19 0 0 0 2-1.11 4.5 4.5 0 0 0 0.57-2.37V0.34h2.58V8.5zM26.84 0.94 a2 2 0 0 1-0.1 0.73 h-1.37v12h-2.56v-12H17a3.4 3.4 0 0 1-0.13-0.67s0-0.23 0.14 -0.64h9.73c0.046 0.191 0.079 0.385 0.1 0.58 zM43.62 7.27a7.06 7.06 0 0 1-1.58 5 5.76 5.76 0 0 1-4.45 1.71c-4 0-6-2.037-6-6.11V5.89a13.59 13.59 0 0 1 0.84-3.42h-1.9V0.24h13.09v7.03zm-2.79 1V2.44h-6.48v5.94a3.2 3.2 0 0 0 0.8 2.46c0.693 0.54 1.564 0.8 2.44 0.73 2.16 0 3.24-1.107 3.24-3.32v0.02z" fill="#FFF" stroke-width=".48" stroke="#FFF"/>
</svg>
