<?xml version="1.0" ?>
<svg xmlns="http://www.w3.org/2000/svg" width="45" height="28" viewBox="0 0 45 28">
  <path d="M0 21.4V20h9.13c0.21 0 0.28-0.07 0.3 -0.27 0.06 -0.57 0.09 -0.46-0.4-0.46H4.51c-0.2 0-0.24-0.06-0.23-0.24v-1.17h5.29c0.21 0 0.36 0 0.39-0.27a3.74 3.74 0 0 1 0.14-0.45H2.15V15.7h8.7a0.45 0.45 0 0 0 0.38-0.19c0.3-0.36 0.62 -0.69 0.95 -1 0.08-0.09 0.21 -0.13 0.31 -0.23h-6v-2.15h0.38c0.34 0 0.31 0 0.31-0.33V8.02 2.37c0-0.26 0-0.26-0.26-0.26h-0.48V0H25v2.11h-0.47c-0.15 0-0.24 0.05 -0.24 0.23 v9.57c0 0.18 0 0.24 0.23 0.22 0.23 -0.02 0.31 0 0.48 0v2.12h-0.53a0.31 0.31 0 0 0-0.21 0.09 2.31 2.31 0 0 1-1.16 0.72 l-0.8 0.24 a0.15 0.15 0 0 0-0.14 0.18 v4a0.18 0.18 0 0 0 0.15 0.2 c0.36 0.09 0.73 0.2 1.1 0.28 0.37 0.08 1 0.19 1.47 0.27 0.35 0.055 0.705 0.085 1.06 0.09 h2.31a9.41 9.41 0 0 0 2.14-0.32c0.27-0.08 0.55 -0.13 0.83 -0.19 0.28 -0.06 0.22 -0.1 0.21 -0.26v-1.26a4.07 4.07 0 0 1 0.49-1.9 3.35 3.35 0 0 0 0.29-1.79 9.85 9.85 0 0 0-0.15-1.09c-0.06-0.38-0.17-0.75-0.24-1.13-0.07-0.38-0.18-0.93-0.27-1.4-0.09-0.47-0.18-0.81-0.26-1.23L31 8.24c-0.07-0.32-0.15-0.64-0.22-1 0-0.13-0.09-0.17-0.23-0.17h-2.68V5.71h2.15a2.64 2.64 0 0 1 1.18 0.22 c0.29 0.13 0.6 0.21 0.93 0.33 0.42-1.46 1.56-1.65 2.85-1.63V10h-1.44c0.09 0.26 0.14 0.49 0.24 0.71 0.236 0.5 0.577 0.944 1 1.3 0.236 0.155 0.502 0.26 0.78 0.31 0.67 0.23 1.34 0.43 2 0.69a10.43 10.43 0 0 1 3 1.94 9.73 9.73 0 0 1 1.81 2.28c0.371 0.63 0.667 1.3 0.88 2 0.12 0.42 0.21 0.847 0.27 1.28 0 0.14 0.08 0.18 0.21 0.17 0.13 -0.01 0.33 0 0.52 0v1s-0.06 0.11 -0.12 0.14 l-2.71 1.7a0.3 0.3 0 0 0-0.11 0.14 4.61 4.61 0 0 1-2.06 2.8 4.09 4.09 0 0 1-1.49 0.57 3.92 3.92 0 0 1-3.28-1A4.58 4.58 0 0 1 33.07 24a0.79 0.79 0 0 1-0.07-0.2c0-0.26-0.27-0.35-0.41-0.53a1.16 1.16 0 0 0-1-0.47h-9.91a0.51 0.51 0 0 0-0.4 0.16 c-0.18 0.2 -0.4 0.37 -0.59 0.57 a0.77 0.77 0 0 0-0.12 0.31 4.49 4.49 0 0 1-2.46 2.87 3.58 3.58 0 0 1-2 0.38 4.31 4.31 0 0 1-2.33-1 5 5 0 0 1-1.52-2.39 0.21 0.21 0 0 0-0.13-0.13 3.39 3.39 0 0 1-1.22-0.6 8.8 8.8 0 0 1-1.46-1.4 0.4 0.4 0 0 0-0.33-0.15H0v-0.02zM14.53 7.58a0.49 0.49 0 0 1-0.11 0.13 C13.61 8.35 12.79 9 12 9.64A3 3 0 0 0 11 11c-0.06 0.22 0 0.48 0.2 0.49a1.1 1.1 0 0 0 0.48-0.05c0.5-0.246 0.93 -0.614 1.25-1.07 0.6 -0.73 1.18-1.48 1.77-2.22 0.22 -0.27 0.22 -0.25 0.44 0 0.59 0.75 1.19 1.5 1.8 2.23a2.75 2.75 0 0 0 1.18 0.89 c0.33 0.13 0.65 0 0.59-0.33a1.14 1.14 0 0 0-0.19-0.45 9.1 9.1 0 0 0-1-1.07c-0.68-0.59-1.41-1.14-2.11-1.71-0.13-0.1-0.21-0.2-0.06-0.33 0.39 -0.35 0.78 -0.7 1.19-1 0.05-0.05 0.18 0 0.25 0 0.534 0.3 1.186 0.3 1.72 0a2.44 2.44 0 0 0 1.33-2.13c0.03-0.3-0.03-0.603-0.17-0.87a1.33 1.33 0 0 0-1.35-0.67 2.53 2.53 0 0 0-2 1.09 1.79 1.79 0 0 0-0.24 1.77c0.07 0.19 0.16 0.37 0 0.55l-1 1.06a0.71 0.71 0 0 1-0.18 0.12 0.51 0.51 0 0 0-0.15-0.58c-0.6-0.6-1.16-1.18-1.75-1.72l-2.2-2.23c-0.18-0.18-0.33-0.15-0.44 0.08 a0.31 0.31 0 0 0 0 0.19c0.066 0.34 0.156 0.674 0.27 1a3.77 3.77 0 0 0 1 1.58 18.56 18.56 0 0 0 2.17 1.55c0.236 0.15 0.48 0.286 0.73 0.41 zm4.76 14.9a2.88 2.88 0 1 0-2.84 2.86 2.9 2.9 0 0 0 2.84-2.86zm15 0a2.87 2.87 0 1 0 2.89-2.86 2.88 2.88 0 0 0-2.91 2.84l0.02 0.02 z" fill="#FFF"/>
  <path d="M17.83 22.48a1.42 1.42 0 1 1-2.84-0.02 1.42 1.42 0 0 1 2.84 0.02 zM37.15 21.05a1.42 1.42 0 1 1 0 2.84 1.42 1.42 0 0 1 0-2.84z" fill="#FFF"/>
</svg>
