<?xml version="1.0" ?>
<svg xmlns="http://www.w3.org/2000/svg" width="36" height="36" viewBox="0 0 36 36">
  <path d="M8.35 3.69L13 15.56H11.39a0.26 0.26 0 0 1-0.28-0.19l-1.2-3.08c-0.4-1-0.8-2-1.19-3-0.39-1-0.72-1.82-1.06-2.73l-0.9-2.27-0.08-0.15c-0.08 0.17 -0.14 0.3 -0.19 0.43 l-1.17 3-1.2 3.03L3 13.35c-0.26 0.69 -0.53 1.38-0.81 2.06 0 0.07-0.12 0.16 -0.19 0.16 H0.33c0.1-0.27 0.19 -0.53 0.29 -0.78 0.59 -1.49 1.17-3 1.76-4.45L4 6.43c0.46-1.17 0.91 -2.34 1.36-3.51a0.24 0.24 0 0 0 0-0.22A1.68 1.68 0 0 1 6.17 0.17 1.51 1.51 0 0 1 7 0.12c0.221 0.045 0.445 0.075 0.67 0.09 0.47 0.05 0.9 0.09 1.33 0.15 0.43 0.06 0.68 0.12 1 0.18l0.9 0.16 1.2 0.24 1 0.25 1.24 0.31 1.53 0.44 c0.14 0 0.2 0 0.2-0.19 0.01 -0.48 0.216 -0.935 0.57 -1.26A1.63 1.63 0 0 1 19 0.53c0.301 0.323 0.47 0.748 0.47 1.19 0 0.45 0 0.9 0.07 1.35a0.32 0.32 0 0 0 0.17 0.19 c0.44 0.18 0.89 0.34 1.33 0.54 0.94 0.43 1.9 0.85 2.83 1.31 0.93 0.46 1.7 0.89 2.53 1.37 0.83 0.48 1.74 1.08 2.6 1.62a0.26 0.26 0 0 1 0.13 0.24 v1.08a0.18 0.18 0 0 1-0.16 0.2 c-0.83 0.176 -1.64 0.434 -2.42 0.77 a0.28 0.28 0 0 1-0.23 0c-0.56-0.34-1.09-0.7-1.66-1-1-0.56-2.08-1.1-3.14-1.63-0.54-0.28-1.11-0.52-1.66-0.77-0.15-0.06-0.18 0-0.16 0.13 0.02 0.13 0 0.45 0 0.68 0 0.87 0.07 1.74 0.1 2.62v0.72c0 0.92 0.09 1.84 0.13 2.76v0.4c0 0.82 0 1.64 0.08 2.46 0 0.56 0 1.12 0.07 1.68 0 0.95 0.08 1.91 0.13 2.86s0.09 1.63 0.12 2.44c0 0.47 0 0.94 0.05 1.41v0.67c0 0.71 0 1.41 0.08 2.12a5.92 5.92 0 0 0 1.65 3.81 5.17 5.17 0 0 0 2.39 1.44 5.55 5.55 0 0 0 1.81 0.22 c0.27 0 0.29 0 0.33 0.31 0.04 0.31 0.12 0.63 0.18 0.95 0.06 0.32 0.11 0.56 0.15 0.85 0 0-0.06 0.1 -0.11 0.12 a0.37 0.37 0 0 1-0.15 0H8.63c-0.12 0-0.15-0.06-0.13-0.17l0.33-1.66c0.08-0.41 0.08 -0.41 0.49 -0.41a5.54 5.54 0 0 0 3.14-0.91 5.27 5.27 0 0 0 2.06-2.53c0.167-0.434 0.304 -0.878 0.41 -1.33a3.17 3.17 0 0 0 0.07-0.73c0-0.79 0.05 -1.58 0.09 -2.38 0.04 -0.8 0.08 -1.51 0.12 -2.26v-0.09c0-0.82 0-1.64 0.08 -2.46l0.15-3.56c0-1.13 0.09 -2.26 0.13 -3.39 0.04 -1.13 0.1 -2.09 0.14 -3.14 0-0.49 0-1 0.07-1.47 0-0.72 0.09 -1.44 0.12 -2.17V5.56s-0.07-0.12-0.12-0.14L14.53 5l-1.36-0.38c-0.33-0.08-0.66-0.17-1-0.24-0.5-0.12-1-0.24-1.48-0.34-0.48-0.1-0.89-0.15-1.33-0.23l-0.61-0.11c-0.11 0-0.24 0-0.4-0.01z" fill="#FFF"/>
  <path d="M32.73 9.36l0.47-0.69c0.17-0.25 0.16 -0.26 0.42 -0.12 0.6 0.32 1.2 0.66 1.81 1 0.12 0.07 0.17 0.13 0.11 0.28 -0.35 0.88 -0.67 1.76-1 2.64 0 0.1-0.09 0.13 -0.21 0.1 -0.45-0.14-0.9-0.25-1.36-0.36a0.23 0.23 0 0 0-0.21 0.07 c0 0.09 0.06 0.26 0.18 0.31l0.59 0.22 0.79 0.28 a0.21 0.21 0 0 1 0.16 0.24 4.82 4.82 0 0 1-0.3 1.5 0.56 0.56 0 0 0 0 0.36 5.1 5.1 0 0 1 0.32 1.73v5.28a0.4 0.4 0 0 0 0.27 0.44 c0.421 0.169 0.719 0.55 0.78 1 0 0.29 0 0.29-0.24 0.29 H22.54c-0.3 0-0.35-0.08-0.26-0.36a1.49 1.49 0 0 1 0.85-1 0.35 0.35 0 0 0 0.23-0.36v-1-0.82-2c0-0.3 0.07 -0.59 0.11 -0.89 0.04 -0.3 0.09 -0.62 0.16 -0.92a7.5 7.5 0 0 1 1.38-3 6.34 6.34 0 0 1 3.4-2.2c0.6-0.16 1.21-0.27 1.82-0.4h0.36c0.15 0 0.2-0.1 0.2 -0.25V8.65c0-0.28 0-0.28 0.27 -0.28h1.37c0.18 0 0.25 0 0.24 0.22 -0.01 0.22 0 0.47 0 0.71l0.06 0.06 zm-3.66 4.76h-0.33c-0.12 0-0.17 0-0.17 0.16 v0.49a0.34 0.34 0 0 1-0.25 0.34 A1.75 1.75 0 0 0 27 16.52c-0.065 0.385 0.04 0.78 0.29 1.08 0.364 0.401 0.837 0.69 1.36 0.83 a2.2 2.2 0 0 1 0.91 0.47 0.54 0.54 0 0 1-0.07 0.77 1.11 1.11 0 0 1-0.74 0.2 7.28 7.28 0 0 1-1.21-0.27c-0.25-0.07-0.38 0-0.43 0.24 -0.05 0.24 -0.05 0.3 -0.09 0.44 -0.04 0.14 0 0.31 0.19 0.38s0.7 0.19 1.06 0.26 c0.11 0 0.15 0.07 0.15 0.18 v0.62c0 0.2 0.05 0.18 0.17 0.17h0.64a0.18 0.18 0 0 0 0.2-0.2v-0.54a0.34 0.34 0 0 1 0.28-0.36 1.7 1.7 0 0 0 1.37-1.36 1.54 1.54 0 0 0-0.33-1.36 3.27 3.27 0 0 0-1.34-0.77 2.22 2.22 0 0 1-0.86-0.45 0.41 0.41 0 0 1 0-0.63 1 1 0 0 1 0.79-0.22c0.339 0.047 0.673 0.12 1 0.22 0.16 0 0.26 0 0.31-0.14a4.44 4.44 0 0 0 0.16-0.6 0.21 0.21 0 0 0-0.14-0.27A4.67 4.67 0 0 0 30 15c-0.39 0-0.42 0-0.42-0.43s-0.03-0.46-0.51-0.45zM6.7 17.24h6.41c0.25 0 0.24 0 0.25 0.25 a2.94 2.94 0 0 1-0.28 1.51 2.84 2.84 0 0 1-1.75 1.45 2.15 2.15 0 0 1-0.61 0.09 h-8a2.66 2.66 0 0 1-2.18-1.1A3 3 0 0 1 0 17.37c0-0.1 0-0.13 0.14 -0.13H6.7zM28.92 25.58h6.41c0.27 0 0.26 0 0.27 0.26 a3 3 0 0 1-0.28 1.52 2.74 2.74 0 0 1-1.77 1.47 2.23 2.23 0 0 1-0.63 0.09 H25a2.83 2.83 0 0 1-2.56-1.88 3.81 3.81 0 0 1-0.14-1.34c0-0.14 0.1 -0.13 0.19 -0.13h6.48l-0.05 0.01 z" fill="#FFF"/>
</svg>
