<?xml version="1.0" ?>
<svg xmlns="http://www.w3.org/2000/svg" width="36" height="31" viewBox="0 0 36 31">
  <path d="M24.37 22.59h-11c-0.34 0-0.34 0-0.34-0.33v-7.69c0-0.29 0-0.29 0.28 -0.29h22c0.28 0 0.28 0 0.28 0.29 v7.71c0 0.31 0 0.31-0.32 0.31 h-10.9zM0 10.12V3.6a2.74 2.74 0 0 1 0.26-1.26 2 2 0 0 1 1.51-1.09 5.93 5.93 0 0 1 0.94-0.05h10.05c0.33 0 0.33 0 0.33 0.34 v0.61c0 0.2-0.05 0.26 -0.25 0.25 H2.08a0.87 0.87 0 0 0-0.87 0.87 2.29 2.29 0 0 0 0 0.37v12.92a2.56 2.56 0 0 0 0.07 0.62 0.78 0.78 0 0 0 0.74 0.62 c0.19 0.01 0.38 0.01 0.57 0h6.52c0.29 0 0.29 0 0.29 0.29 v0.58c0 0.33 0 0.33-0.32 0.33 H2.46a3 3 0 0 1-1.32-0.25A1.94 1.94 0 0 1 0 17.1v-6.98zM19.8 3.58H15c-0.53 0-0.75-0.22-0.75-0.75V0.74c0-0.53 0.22 -0.74 0.75 -0.74h9.65c0.3 0 0.3 0 0.3 0.28 v3c0 0.22-0.07 0.27 -0.27 0.27 -1.62 0.02 -3.25 0.03 -4.88 0.03 zM27.36 23.79H33c0.29 0 0.29 0 0.29 0.28 v1.21a1.93 1.93 0 0 1-0.09 0.49 0.51 0.51 0 0 1-0.59 0.39 H22.1a0.57 0.57 0 0 1-0.66-0.58v-1.65c0-0.05 0.08 -0.11 0.13 -0.14a0.74 0.74 0 0 1 0.21 0h5.58zM28.54 2.38h-2.13c-0.2 0-0.27-0.07-0.26-0.26 0.01 -0.19 0-0.49 0-0.73s0-0.22 0.2 -0.22h4.34c0.16 0 0.21 0.07 0.21 0.22 v0.77c0 0.26-0.07 0.22 -0.22 0.22 h-2.14zM11.89 18.44v1.52c0 0.22-0.07 0.28 -0.28 0.27 -0.21-0.01-0.49 0-0.73 0s-0.18 0-0.18-0.18v-3.23c0-0.13 0-0.18 0.19 -0.18h0.79c0.16 0 0.21 0.06 0.2 0.21 l0.01 1.59zM30.91 28.94v1.38a0.58 0.58 0 0 1-0.86 0.53 0.56 0.56 0 0 1-0.32-0.53v-2.79c0-0.12 0.05 -0.19 0.17 -0.19h0.86c0.29 0 0.17 0.11 0.17 0.23 v1.37h-0.02zM25 29v1.32a0.59 0.59 0 0 1-0.59 0.65 0.61 0.61 0 0 1-0.6-0.66v-2.67c0-0.18 0-0.26 0.23 -0.25 0.236 0.015 0.474 0.015 0.71 0 0.21 0 0.25 0.07 0.25 0.26 V29z" fill="#FFF"/>
</svg>
