<?xml version="1.0" ?>
<svg xmlns="http://www.w3.org/2000/svg" width="44" height="25" viewBox="0 0 44 25">
  <path d="M38.5 3.07h0.06V5.1a0.93 0.93 0 0 0 1 0.94 0.92 0.92 0 0 0 1-0.82c0-0.13 0.07 -0.27-0.14-0.29-0.21-0.02-0.31 0-0.34 0.2 a0.51 0.51 0 0 1-0.74 0.44 c-0.31-0.11-0.34-0.36-0.34-0.62V3.28c0-0.76-0.11-0.55 0.52 -1a0.5 0.5 0 0 0 0.33-0.28v-0.95a0.65 0.65 0 0 0-0.43-0.63c-0.33-0.13-0.68-0.23-1-0.34a0.77 0.77 0 0 0-0.62 0.11 c-2 1-3.94 2.12-6 3.09-3.17 1.52-6.38 3-9.57 4.44-2.85 1.32-5.65 2.72-8.38 4.27a0.42 0.42 0 0 0-0.23 0.4 v3.95c0 0.19 0 0.25 0.24 0.25h4.36a0.8 0.8 0 0 0 0.42-0.13c0.5-0.32 1-0.66 1.48-1L38.1 3.33l0.4-0.26z" fill="#FFF"/>
  <path d="M8 4.11h5c0.4 0 0.36 0 0.36 0.37 0.06 3.887 0.123 7.773 0.19 11.66 0 0.62 0 0.54 0.55 0.54H43c0.29 0 0.3 0 0.31 0.28 0 1.13 0.08 2.26 0.13 3.39 0 0.2-0.06 0.26 -0.27 0.29 l-2.76 0.36 c-0.26 0-0.53 0.07 -0.79 0.12 -0.26 0.05 -0.25 0-0.25-0.23A3.83 3.83 0 0 0 38.05 18a4 4 0 0 0-6.34 1.5 3.56 3.56 0 0 0-0.27 1.4c0 0.23-0.08 0.28 -0.28 0.28 h-5.78L12 21.2c-0.35 0-0.35 0-0.35-0.35a4 4 0 0 0-7.75-1.26A4.22 4.22 0 0 0 3.69 21c0 0.16 0 0.21-0.21 0.21 H0.29c-0.2 0-0.22-0.09-0.22-0.25v-4.89-2.32a3.51 3.51 0 0 1 0.35-1.71 0.92 0.92 0 0 1 0.31-0.34 0.35 0.35 0 0 0 0.2-0.32l0.39-2.91c0.1-0.77 0.2 -1.54 0.31 -2.32 0.05 -0.36 0.11 -0.71 0.17 -1.07a1.47 1.47 0 0 1 1.2-0.9h5v-0.07zm4 7.45V4.83c0-0.2-0.06-0.26-0.26-0.26H4.34a2.6 2.6 0 0 0-1.65 0.48 1.07 1.07 0 0 0-0.46 0.75 c-0.08 0.57 -0.18 1.14-0.27 1.71-0.14 0.83 -0.27 1.66-0.4 2.48-0.11 0.66 -0.22 1.32-0.31 2-0.09 0.68 -0.17 1.22-0.25 1.85-0.08 0.63 0 1.16 0 1.67v5c0 0.19 0.05 0.24 0.24 0.24h1.94c0.12 0 0.18 0 0.21-0.16 0.07 -0.31 0.15 -0.62 0.23 -0.92a3.63 3.63 0 0 1 1.21-2 3.91 3.91 0 0 1 2.13-1 4.23 4.23 0 0 1 3.78 1.41 1.07 1.07 0 0 0 1 0.41c0.15 0 0.22 0 0.22-0.22 0.04 -2.2 0.04 -4.45 0.04 -6.71z" fill="#FFF"/>
  <path d="M38.5 3.07l-0.4 0.26 -17.88 12.08c-0.49 0.33 -1 0.67-1.48 1a0.8 0.8 0 0 1-0.42 0.13 H14c-0.2 0-0.24-0.06-0.24-0.25v-3.95a0.42 0.42 0 0 1 0.23-0.4c2.66-1.55 5.46-2.94 8.31-4.27 3.19-1.48 6.4-2.92 9.57-4.44 2-1 4-2 6-3.09a0.77 0.77 0 0 1 0.58-0.14c0.34 0.11 0.69 0.21 1 0.34a0.65 0.65 0 0 1 0.45 0.66 v1a0.5 0.5 0 0 1-0.27 0.39 c-0.63 0.43 -0.52 0.22 -0.52 1v1.67c0 0.26 0 0.51 0.34 0.62a0.51 0.51 0 0 0 0.74-0.44c0-0.24 0.17 -0.22 0.34 -0.2 0.17 0.02 0.16 0.16 0.14 0.29a0.92 0.92 0 0 1-1 0.82 0.93 0.93 0 0 1-1-0.94v-2.1l-0.17-0.04zM31.63 21a3.78 3.78 0 1 1 3.7 3.79 3.75 3.75 0 0 1-3.7-3.79zm1 0a2.78 2.78 0 1 0 2.79-2.77A2.77 2.77 0 0 0 32.65 21h-0.02zM3.89 20.79a3.77 3.77 0 1 1 3.73 3.78 3.76 3.76 0 0 1-3.73-3.78zM7.7 18a2.78 2.78 0 1 0-0.06 5.56A2.78 2.78 0 0 0 7.7 18z" fill="#FFF"/>
  <path d="M12 11.56v6.76c0 0.18-0.07 0.2 -0.22 0.22 a1.07 1.07 0 0 1-1-0.41A4.23 4.23 0 0 0 7 16.72a3.91 3.91 0 0 0-2.13 1 3.63 3.63 0 0 0-1.21 2c-0.08 0.3 -0.16 0.61 -0.23 0.92 0 0.13-0.09 0.16 -0.21 0.16 H1.28c-0.19 0-0.24-0.05-0.24-0.24v-5-1.67c0-0.55 0.12 -1.25 0.21 -1.88 0.09 -0.63 0.2 -1.31 0.31 -2 0.13-0.82 0.26 -1.65 0.4 -2.48 0.09 -0.57 0.19 -1.14 0.27 -1.71a1.07 1.07 0 0 1 0.46-0.75 2.6 2.6 0 0 1 1.65-0.48H11.72c0.2 0 0.26 0.06 0.26 0.26 v6.73l0.02-0.02zm-0.1 0V5.32c0-0.72 0.1 -0.64-0.63-0.64h-6.9A2.61 2.61 0 0 0 3 5a1.17 1.17 0 0 0-0.63 0.9 c-0.07 0.57 -0.18 1.14-0.27 1.71-0.14 0.84 -0.27 1.67-0.4 2.51-0.11 0.65 -0.21 1.3-0.31 2a8.64 8.64 0 0 0-0.2 1.43v6.93c0 0.22 0.08 0.28 0.28 0.27H3.1a0.28 0.28 0 0 0 0.32-0.26c0.09-0.35 0.17 -0.69 0.28 -1a3.92 3.92 0 0 1 3.22-2.77 4.5 4.5 0 0 1 2.6 0.38 A4.34 4.34 0 0 1 11 18.19a0.7 0.7 0 0 0 0.59 0.25 c0.33 0 0.33 0 0.33-0.33-0.02-2.18-0.01-4.36-0.01-6.54l-0.01-0.01z" fill="#FFF"/>
  <path d="M11.91 11.57v6.54c0 0.33 0 0.32-0.33 0.33 a0.7 0.7 0 0 1-0.59-0.25A4.34 4.34 0 0 0 9.46 17a4.5 4.5 0 0 0-2.6-0.38 3.92 3.92 0 0 0-3.22 2.78c-0.11 0.34 -0.19 0.68 -0.28 1a0.28 0.28 0 0 1-0.32 0.26 H1.41c-0.2 0-0.28-0.05-0.28-0.27v-6.93a8.64 8.64 0 0 1 0.2-1.43c0.1-0.65 0.2 -1.3 0.31 -2 0.13-0.84 0.26 -1.67 0.4 -2.51 0.09 -0.57 0.2 -1.14 0.27 -1.71A1.17 1.17 0 0 1 3 5a2.61 2.61 0 0 1 1.42-0.3h6.87c0.73 0 0.62-0.08 0.63 0.64v6.25l-0.01-0.02zm-5.43 1.57h4.6c0.2 0 0.27-0.05 0.27 -0.26V5.2c0-0.3 0-0.31-0.31-0.31H4.11a1.78 1.78 0 0 0-1.27 0.54 0.93 0.93 0 0 0-0.23 0.41 c-0.08 0.44 -0.13 0.88 -0.19 1.33C2.3 8.11 2.18 9 2.05 10s-0.27 1.94-0.4 2.91c0 0.26 0 0.26 0.25 0.26l4.58-0.03z" fill="#FFF"/>
</svg>
