<?xml version="1.0" ?>
<svg xmlns="http://www.w3.org/2000/svg" width="31" height="31" viewBox="0 0 31 31">
  <path d="M18.24 12.42a0.54 0.54 0 0 1 0.07 0.13 c0 0.32 0.09 0.65 0.14 1 0.05 0.35 0.14 0.91 0.22 1.36 0 0.13 0 0.21-0.13 0.27 l-2.66 1.17c-0.49 0.22 -1 0.43-1.47 0.66 -0.29 0.145 -0.5 0.413 -0.57 0.73 -0.13 0.51 -0.27 1-0.41 1.53-0.14 0.53 -0.21 0.85 -0.32 1.28-0.11 0.43 -0.27 1-0.4 1.5s-0.22 0.83 -0.31 1.25c-0.07 0.508 0.215 0.998 0.69 1.19a1.26 1.26 0 0 0 1.72-0.82c0.19-0.6 0.42 -1.19 0.64 -1.79l0.63-1.8c0.1-0.29 0.19 -0.58 0.31 -0.85 0-0.08 0.16 -0.13 0.25 -0.16l1.36-0.46 1.47-0.44a10.49 10.49 0 0 1 1-0.3c0.183 0.011 0.362 0.055 0.53 0.13 v0.07c0 0.25 0.09 0.5 0.13 0.75 0.04 0.25 0.11 0.54 0.16 0.81s0.09 0.53 0.14 0.8 c0.029 0.385 0.127 0.76 0.29 1.11 0.063 0.095 0.137 0.182 0.22 0.26l3.74 3.56c0.26 0.24 0.5 0.5 0.78 0.72 a1.22 1.22 0 0 0 1.85-0.49 1.06 1.06 0 0 0-0.2-1.26c-0.66-0.72-1.33-1.42-2-2.13l-1.48-1.57a0.44 0.44 0 0 1-0.13-0.31c0-0.593-0.023-1.187-0.07-1.78 0-0.74-0.08-1.49-0.12-2.23 0-0.36 0-0.71-0.06-1.07-0.06-0.36-0.1-0.63-0.15-0.95 0-0.15 0-0.31-0.07-0.46-0.07-0.47-0.13-0.94-0.2-1.41l-0.24-1.6c-0.05-0.35-0.11-0.69-0.18-1.06h0.25l1.44 0.24 a0.21 0.21 0 0 1 0.12 0.09 0.33 0.33 0 0 1 0 0.14c0 0.49 0.09 1 0.14 1.47 0.05 0.47 0.11 0.91 0.16 1.36 0 0.26 0.05 0.53 0.08 0.79a1.21 1.21 0 0 0 2.35 0.41 1.59 1.59 0 0 0 0.06-0.5c0-0.92-0.09-1.85-0.14-2.77a90.793 90.793 0 0 0-0.12-1.9 1.23 1.23 0 0 0-0.94-1.26c-0.54-0.19-1.09-0.33-1.64-0.5l-1.67-0.52-1.5-0.48c-0.22-0.07-0.45-0.14-0.67-0.19a3 3 0 0 0-1.07-0.07 3.79 3.79 0 0 0-1.1 0.31 3 3 0 0 0-1.37 1.35l-1.72 3.17a0.26 0.26 0 0 1-0.26 0.15 h-3.82a1.89 1.89 0 0 0-0.84 0.15 1.17 1.17 0 0 0-0.58 1.33c0.098 0.403 0.397 0.728 0.79 0.86 0.116 0.042 0.237 0.069 0.36 0.08 l1.08 0.07 2.1 0.17 1.1 0.07 a5 5 0 0 0 0.65 0 1.21 1.21 0 0 0 1-0.58l0.59-0.78z" fill="#FFF"/>
  <path d="M3.29 12.48a4.87 4.87 0 0 0-2.9 2.71 3.66 3.66 0 0 0-0.33 1.25c0 0.39-0.05 0.78 -0.05 1.17v12.27a1 1 0 0 0 0.79 1 1 1 0 0 0 0.26 0h28.8a1.19 1.19 0 0 0 0.67-0.21 0.92 0.92 0 0 0-0.12-1.59A1.57 1.57 0 0 0 30 29l-1.21-0.17-0.52-0.07-1.67-0.2-1.4-0.18-1.4-0.18-1.47-0.2-1.4-0.18-1.4-0.18-1.4-0.18-1.86-0.24-1.9-0.22-1.37-0.18-1.91-0.24-1.37-0.18-1.59-0.22L7 26l-1.2-0.13-0.51-0.07-1.2-0.14-1.59-0.21-0.57-0.06v-0.17-8.23a2.89 2.89 0 0 1 1.8-2.61l0.47-0.16c0.08 0 0.12 0 0.17 0.08 l0.89 1.54c0.2 0.34 0.39 0.69 0.6 1a0.89 0.89 0 0 0 1 0.37 0.85 0.85 0 0 0 0.67-0.53 1 1 0 0 0-0.08-0.95L3.87 9.61A0.94 0.94 0 0 0 3 9.13a0.92 0.92 0 0 0-0.83 0.7 1 1 0 0 0 0.11 0.78 c0.33 0.56 0.66 1.13 1 1.7a0.93 0.93 0 0 1 0.01 0.17 zM18.67 5.32A2.66 2.66 0 1 0 16 2.67a2.65 2.65 0 0 0 2.67 2.65z" fill="#FFF"/>
</svg>
