<?xml version="1.0" ?>
<svg xmlns="http://www.w3.org/2000/svg" width="37" height="28" viewBox="0 0 37 28">
  <path d="M25.55 27.05a0.41 0.41 0 0 0 0-0.07v-0.44a5.21 5.21 0 0 1 1.45-3.7c0.19-0.224 0.413 -0.42 0.66 -0.58 0.39 -0.25 0.6 -0.13 0.6 0.33v4.48h1.27c0.22 0 0.29-0.05 0.29 -0.29v-4.81a2.77 2.77 0 0 0 0-0.49 0.74 0.74 0 0 0-0.74-0.69 2.08 2.08 0 0 0-1.36 0.33 5.66 5.66 0 0 0-1.91 2.26 1.86 1.86 0 0 0-0.1 0.2 c-0.05-0.64 0-1.27-0.05-1.89a0.83 0.83 0 0 0-0.93-0.91 1.79 1.79 0 0 0-1.11 0.29 5.32 5.32 0 0 0-1 0.83c-0.43 0.52 -0.79 1.09-1.17 1.63v-2.64h-1.6v6.18H21c0.38 0 0.4 0 0.37-0.38a5.29 5.29 0 0 1 1.45-3.91 2.34 2.34 0 0 1 0.59-0.5 0.59 0.59 0 0 1 0.47-0.09c0.1 0 0.15 0.28 0.15 0.43 V27.05h1.52zm-8.78 0h1.22c0.4 0 0.34-0.05 0.33 -0.32v-5.86h-1.55v0.89a5.3 5.3 0 0 1-2.16 3.86c-0.42 0.253 -0.63 0.133 -0.63-0.36V20.9h-1.59v5.34c0 0.6 0.35 0.93 0.94 0.91a2.36 2.36 0 0 0 0.95-0.22 5.62 5.62 0 0 0 2.33-2.47l0.15-0.27 0.01 2.86zm-9.14-2.16c0.47-0.12 0.92 -0.21 1.37-0.35a3.78 3.78 0 0 0 1.88-1.09 1.53 1.53 0 0 0-0.78-2.56 3.29 3.29 0 0 0-2.35 0.19 A3.48 3.48 0 0 0 6 24.91a2.7 2.7 0 0 0 2.23 2.21 3.06 3.06 0 0 0 3-1.24l-0.32-0.34a10 10 0 0 1-1 0.66 1.47 1.47 0 0 1-2.1-0.84c-0.08-0.16-0.13-0.31-0.18-0.47zm-4.38-6.28v8.44h1.51v-8.44H3.25zm29.59 2.26h-1.27c-0.24 0-0.29 0.07 -0.29 0.29 V27.05h1.55l0.01-6.18zm-1.55-2.26v1.1c0 0.05 0.11 0.13 0.17 0.13h1.2a0.23 0.23 0 0 0 0.17-0.13v-1.1h-1.54z" fill="#000"/>
  <path d="M25.55 27.05H24v-0.32-4.11c0-0.15-0.05-0.39-0.15-0.43a0.59 0.59 0 0 0-0.47 0.09 2.34 2.34 0 0 0-0.59 0.5 5.29 5.29 0 0 0-1.45 3.91c0 0.38 0 0.38-0.37 0.38 h-1.12v-6.18h1.52v2.64c0.38-0.54 0.74 -1.11 1.17-1.63a5.32 5.32 0 0 1 1-0.83 1.79 1.79 0 0 1 1.11-0.29 0.83 0.83 0 0 1 0.93 0.91 c0 0.62 0 1.25 0.05 1.89a1.86 1.86 0 0 1 0.1-0.2 5.66 5.66 0 0 1 1.91-2.26 2.08 2.08 0 0 1 1.36-0.33 0.74 0.74 0 0 1 0.74 0.69 2.77 2.77 0 0 1 0 0.49v4.81c0 0.24-0.07 0.3 -0.29 0.29 h-1.27v-4.48c0-0.46-0.21-0.58-0.6-0.33a3.05 3.05 0 0 0-0.66 0.58 5.21 5.21 0 0 0-1.39 3.7v0.44a0.41 0.41 0 0 1 0.02 0.07 zM16.77 27.07v-2.88l-0.15 0.27 a5.62 5.62 0 0 1-2.33 2.47 2.36 2.36 0 0 1-0.95 0.22 c-0.59 0-0.9-0.31-0.94-0.91V20.9h1.54v4.41c0 0.493 0.21 0.613 0.63 0.36a5.3 5.3 0 0 0 2.16-3.86v-0.89h1.55v5.86c0 0.27-0.08 0.34 -0.33 0.32 -0.25-0.02-0.76-0.03-1.18-0.03zM7.63 24.89c0 0.16 0.1 0.31 0.16 0.47a1.47 1.47 0 0 0 2.1 0.84 10 10 0 0 0 1-0.66l0.32 0.34 a3.06 3.06 0 0 1-3 1.24A2.7 2.7 0 0 1 6 24.91a3.48 3.48 0 0 1 1.74-3.83 3.29 3.29 0 0 1 2.35-0.19 1.53 1.53 0 0 1 0.78 2.56A3.78 3.78 0 0 1 9 24.54c-0.45 0.14 -0.9 0.23 -1.37 0.35 zm-0.09-0.68a3.9 3.9 0 0 0 2-1 1.35 1.35 0 0 0 0.24-0.48c0.19-0.68-0.1-1.19-0.7-1.25a1 1 0 0 0-0.77 0.3 3.15 3.15 0 0 0-0.77 2.43zM3.25 18.61h1.51v8.44H3.25zM32.84 20.87v6.18h-1.55v-0.28-5.61c0-0.22 0-0.3 0.29 -0.29 0.42 0.02 0.82 0 1.26 0zM31.29 18.61h1.55v1.1a0.23 0.23 0 0 1-0.17 0.13 h-1.2c-0.06 0-0.17-0.08-0.17-0.13-0.01-0.36-0.01-0.71-0.01-1.1zM0 17.57V0h36.35v17.57H0zM26 14l-1.91-2.58c-0.23-0.31-0.24-0.31 0.09 -0.47a2.61 2.61 0 0 0 1.25-1.18 3.77 3.77 0 0 0 0.28-1.69v-0.92h-1.86v2.5a2.08 2.08 0 0 1-0.15 0.69 c-0.08 0.22 -0.18 0.22 -0.31 0-0.74-1-1.48-2-2.2-3a0.41 0.41 0 0 0-0.38-0.2H18.78L20.5 9.5c0.12 0.16 0.14 0.24 -0.07 0.34 a2.42 2.42 0 0 0-1.5 2.06v2h1.87v-2.56a5.37 5.37 0 0 1 0.14-0.88 0.29 0.29 0 0 1 0.17-0.17s0.12 0.08 0.16 0.14 c0.81 1.11 1.6 2.23 2.41 3.34a0.28 0.28 0 0 0 0.2 0.14 L26 14zM6.6 14h2c0.06-0.57 0.12 -1.11 0.18 -1.66 0.08 -0.82 0.15 -1.64 0.26 -2.45a3.42 3.42 0 0 1 0.59-1.6 1 1 0 0 1 1.13-0.39c0.456 0.191 0.775 0.61 0.84 1.1a7.29 7.29 0 0 1 0.05 3.05 1.85 1.85 0 0 1-0.49 1 1.13 1.13 0 0 1-0.94 0.33 s-0.13 0.06 -0.14 0.11 c-0.01 0.05 -0.05 0.36 -0.08 0.56 h1.4a2.32 2.32 0 0 0 2.09-1.65 5.8 5.8 0 0 0 0.21-3 2.46 2.46 0 0 0-2.61-2.3H6.75v0.69h1.84v0.07a2.09 2.09 0 0 1-0.22 0.2 2.77 2.77 0 0 0-1.31 1.87c-0.11 0.72 -0.18 1.44-0.27 2.17-0.09 0.73 -0.13 1.24-0.19 1.9zm20.26-8.66v2a0.42 0.42 0 0 0 0.33 0.41 c0.167 0.036 0.339 0.053 0.51 0.05 h1.61A1.37 1.37 0 0 1 30.74 9c0.062 0.397 0.079 0.8 0.05 1.2a3.66 3.66 0 0 1-0.72 2.08 2.92 2.92 0 0 1-1.59 1.13v0.68L29 14a4.72 4.72 0 0 0 2.72-1.34 4 4 0 0 0 1.16-3 3.74 3.74 0 0 0-0.21-1.37 1.94 1.94 0 0 0-1.87-1.16h-1.5c-0.5 0-0.48-0.11-0.48-0.48V5.34h-1.96zm-9.58 1.81h-1.63c-0.23 0-0.31 0.05 -0.31 0.3 v6.52h1.92l0.02-6.82zm-14 4.3c0.62-0.23 1.17-0.42 1.72-0.64a0.33 0.33 0 0 0 0.16-0.27V7.41 7.2H3.31l-0.03 4.25z" fill="#FFF"/>
  <path d="M26 14h-2.15a0.28 0.28 0 0 1-0.2-0.14c-0.81-1.11-1.6-2.23-2.41-3.34 0-0.06-0.12-0.15-0.16-0.14a0.29 0.29 0 0 0-0.17 0.17 5.37 5.37 0 0 0-0.14 0.88 v2.56H18.9v-2a2.42 2.42 0 0 1 1.5-2.06c0.21-0.1 0.19 -0.18 0.07 -0.34l-1.7-2.43H20.8a0.41 0.41 0 0 1 0.38 0.2 c0.72 1 1.46 2 2.2 3 0.13 0.19 0.23 0.19 0.31 0 0.089-0.22 0.14 -0.453 0.15 -0.69V7.16h1.89v0.92a3.77 3.77 0 0 1-0.28 1.69A2.61 2.61 0 0 1 24.21 11c-0.33 0.16 -0.32 0.16 -0.09 0.47 L26 14zM6.6 14c0.06-0.64 0.12 -1.26 0.19 -1.88 0.07 -0.62 0.16 -1.45 0.27 -2.17A2.77 2.77 0 0 1 8.41 8.1a2.09 2.09 0 0 0 0.22-0.2v-0.07H6.75v-0.69h4.34a2.46 2.46 0 0 1 2.61 2.3 5.8 5.8 0 0 1-0.21 3 2.32 2.32 0 0 1-2.09 1.65H10c0-0.2 0-0.39 0.08 -0.56 0.08 -0.17 0.1 -0.12 0.14 -0.11 0.348 0.042 0.695 -0.08 0.94 -0.33a1.85 1.85 0 0 0 0.49-1A7.29 7.29 0 0 0 11.6 9a1.39 1.39 0 0 0-0.85-1.12 1 1 0 0 0-1.13 0.39 A3.42 3.42 0 0 0 9 9.87c-0.11 0.81 -0.18 1.63-0.26 2.45-0.06 0.55 -0.12 1.09-0.18 1.66L6.6 14zM26.86 5.34h1.92v1.32c0 0.37 0.11 0.48 0.48 0.48h1.5a1.94 1.94 0 0 1 1.87 1.16c0.155 0.44 0.226 0.904 0.21 1.37a4 4 0 0 1-1.16 3A4.72 4.72 0 0 1 29 14l-0.48 0.07 v-0.68a2.92 2.92 0 0 0 1.59-1.13c0.448-0.603 0.7 -1.33 0.72 -2.08A5.34 5.34 0 0 0 30.74 9a1.37 1.37 0 0 0-1.43-1.15H27.7a2.21 2.21 0 0 1-0.51-0.05 0.42 0.42 0 0 1-0.33-0.41c-0.01-0.7 0-1.39 0-2.05zM17.28 7.15V14h-1.92v-0.25-6.27c0-0.25 0.08 -0.3 0.31 -0.3 0.52 -0.02 1.05-0.03 1.61-0.03zM3.31 11.45V7.2h1.87v3.34a0.33 0.33 0 0 1-0.16 0.27 c-0.54 0.19 -1.09 0.41 -1.71 0.64 zM7.54 24.21a3.9 3.9 0 0 0 2-1 1.35 1.35 0 0 0 0.24-0.48c0.19-0.68-0.1-1.19-0.7-1.25a1 1 0 0 0-0.77 0.3 3.15 3.15 0 0 0-0.77 2.43z" fill="#8A8D8E"/>
</svg>
