<?xml version="1.0" ?>
<svg xmlns="http://www.w3.org/2000/svg" width="36" height="36" viewBox="0 0 36 36">
  <path d="M0 17.86V2.49A2.38 2.38 0 0 1 1.33 0.27 2.39 2.39 0 0 1 2.44 0h30.78a2.36 2.36 0 0 1 2.23 1.34c0.176 0.34 0.265 0.718 0.26 1.1V33.18a2.46 2.46 0 0 1-2.48 2.54H2.51a2.38 2.38 0 0 1-2.16-1.19A2.27 2.27 0 0 1 0 33.32V17.86zm17.86-16H2.53a0.65 0.65 0 0 0-0.69 0.68 v30.67a0.59 0.59 0 0 0 0.66 0.66 h30.73a0.58 0.58 0 0 0 0.64-0.63V12.71 2.49a0.72 0.72 0 0 0 0-0.25c-0.1-0.29-0.29-0.39-0.65-0.39l-15.36 0.01 z" fill="#FFF"/>
  <path d="M5.63 31.93h1.82a1.17 1.17 0 0 0 0.38-0.05 0.89 0.89 0 0 0 0.57-1.11 1 1 0 0 0-0.91-0.68h-3.7a0.89 0.89 0 0 0-1 0.84 0.91 0.91 0 0 0 0.92 1c0.67-0.02 1.29 0 1.92 0zm22.57 0h1.95a0.91 0.91 0 0 0 0.75-1.32 1 1 0 0 0-0.93-0.53h-3.33a2.75 2.75 0 0 0-0.57 0.05 0.9 0.9 0 0 0-0.67 1 0.92 0.92 0 0 0 0.94 0.81 l1.86-0.01z" fill="#AA2BAD"/>
  <path d="M30.25 16.34c0 0.64 0.05 1.28 0.07 1.92 0.01 0.19 0.01 0.38 0 0.57-0.07 0.55 -0.13 1.09-0.22 1.63a11.68 11.68 0 0 1-1.3 3.63 12.71 12.71 0 0 1-2.93 3.6 12.08 12.08 0 0 1-3.53 2.15 15.58 15.58 0 0 1-1.71 0.57 9.1 9.1 0 0 1-1.46 0.25 16.27 16.27 0 0 1-1.85 0.13 12.77 12.77 0 0 1-1.74-0.15 13.18 13.18 0 0 1-2.81-0.78A12.81 12.81 0 0 1 7.51 26a12.22 12.22 0 0 1-1.94-3.36 10.81 10.81 0 0 1-0.59-2c-0.09-0.49-0.18-1-0.22-1.48a14.22 14.22 0 0 1-0.06-1.73 14.39 14.39 0 0 1 0.2-1.72c0.076-0.48 0.183 -0.954 0.32 -1.42 0.235 -0.79 0.543 -1.557 0.92 -2.29a12.89 12.89 0 0 1 3.72-4.32 12 12 0 0 1 3-1.67 11.7 11.7 0 0 1 2-0.59c0.54-0.09 1.09-0.14 1.64-0.23a9 9 0 0 1 2.49 0 15.46 15.46 0 0 1 2 0.42A12 12 0 0 1 25 7.53a12.29 12.29 0 0 1 3.16 3.27c0.38 0.58 0.7 1.2 1 1.8a0.31 0.31 0 0 1 0 0.19c-0.08 0.38 -0.15 0.77 -0.25 1.14-0.1 0.37 -0.26 0.92 -0.42 1.37a8.54 8.54 0 0 1-2.63 3.94c-0.35 0.27 -0.76 0.47 -1.13 0.71 a0.14 0.14 0 0 1-0.22 0 1 1 0 0 0-0.94-0.36 0.86 0.86 0 0 0-0.59 0.25 c-0.3 0.3 -0.61 0.6 -0.9 0.91 a1 1 0 0 0 0 1.4c0.3 0.32 0.61 0.63 0.92 0.93 a1.05 1.05 0 0 0 1.4 0c0.31-0.3 0.61 -0.6 0.91 -0.91a0.73 0.73 0 0 0 0.19-0.31c0-0.14 0.14 -0.19 0.25 -0.25a8.63 8.63 0 0 0 2.78-2.32 12 12 0 0 0 1.64-2.93l0.08-0.02zM13.52 18a4 4 0 1 0 8 0 4 4 0 0 0-8 0zm-4.75-0.31V18a1 1 0 0 0 0.72 0.92 0.9 0.9 0 0 0 1.07-0.52 3.58 3.58 0 0 0 0.15-1 6.06 6.06 0 0 1 0.29-1.63 6.82 6.82 0 0 1 6.14-4.62c0.192 0 0.383-0.02 0.57 -0.06a0.9 0.9 0 0 0 0.7-0.77 1 1 0 0 0-1-1.1 14.25 14.25 0 0 0-1.41 0.15 8.8 8.8 0 0 0-1.53 0.39 8.39 8.39 0 0 0-2.94 1.82 8.7 8.7 0 0 0-2.27 3.47 9 9 0 0 0-0.49 2.62v0.02z" fill="#FFF"/>
  <path d="M30.21 16c0-0.21-0.08-0.43-0.14-0.64-0.18-0.65-0.36-1.3-0.56-1.94-0.06-0.21-0.18-0.39-0.24-0.6a0.87 0.87 0 0 1 0-0.36c0.07-0.59 0.18 -1.18 0.22 -1.76 0.07 -0.85 0.1 -1.7 0.13 -2.55 0-0.25 0-0.25-0.25-0.25h-2a1 1 0 0 1-0.95-1V3.72c0-0.52 0.42 -0.94 0.94 -0.94h3.2a1 1 0 0 1 0.92 0.93 V8.07c0 0.79 0 1.58-0.08 2.37s-0.12 1.31-0.23 2c-0.11 0.69 -0.27 1.43-0.44 2.14-0.12 0.48 -0.3 1-0.45 1.44l-0.07-0.02zm-0.59-10.65v-0.54c0-0.1 0-0.14-0.14-0.14h-1.1s-0.11 0.08 -0.11 0.12 v1.08c0 0.1 0 0.16 0.15 0.16h1.06c0.11 0 0.15 0 0.15-0.16l-0.01-0.52zM5.63 31.93H3.75a0.91 0.91 0 0 1-0.92-1 0.89 0.89 0 0 1 1-0.84h3.7a1 1 0 0 1 0.91 0.68 0.89 0.89 0 0 1-0.57 1.11 1.17 1.17 0 0 1-0.38 0.05 H5.63zM28.2 31.93h-1.86a0.92 0.92 0 0 1-0.94-0.81 0.9 0.9 0 0 1 0.67-1 2.75 2.75 0 0 1 0.57-0.05H30a1 1 0 0 1 0.93 0.53 0.91 0.91 0 0 1-0.75 1.32H28.2v0.01zM17.5 20a2.08 2.08 0 1 1 0-4.15 2.08 2.08 0 1 1 0 4.15z" fill="#FFF"/>
</svg>
