<?xml version="1.0" ?>
<svg xmlns="http://www.w3.org/2000/svg" width="15" height="31" viewBox="0 0 15 31">
  <path d="M6.43 10.63h4a3.4 3.4 0 0 1 1.49 0.25 c0.498 0.21 0.837 0.681 0.88 1.22a2.76 2.76 0 0 1 0 0.76 2 2 0 0 1-0.27 0.55 l-3 5.31-1.62 2.86v0.09h4.45v0.06l-9.64 9.09-0.22-1.11-0.24-1.13-0.15-0.78-0.24-1.16-0.15-0.78-0.24-1.16-0.16-0.78c-0.08-0.39-0.16-0.78-0.24-1.16-0.08-0.38-0.12-0.66-0.19-1H4a0.22 0.22 0 0 0 0.25-0.17c0.33-0.86 0.68 -1.71 1-2.57l0.94-2.41 0.3 -0.61a1.18 1.18 0 0 0 0-0.18H2.85a3.69 3.69 0 0 1-1.92-0.47 1.73 1.73 0 0 1-0.86-1.14 3.13 3.13 0 0 1 0.3-2.05c0.38-0.83 0.77 -1.66 1.15-2.49l1.35-2.94L4.14 4 5.57 0.88 C5.68 0.64 5.8 0.4 5.9 0.16 A0.22 0.22 0 0 1 6.14 0h8.53L6.43 10.63z" fill="#FFF"/>
</svg>
