<?xml version="1.0" ?>
<svg xmlns="http://www.w3.org/2000/svg" width="24" height="36" viewBox="0 0 24 36">
  <path d="M4.66 11.85c0 0.36-0.07 0.72 -0.11 1.08-0.1 1-0.19 1.89-0.29 2.84-0.1 0.95 -0.17 1.71-0.26 2.57-0.09 0.86 -0.18 1.66-0.26 2.45-0.08 0.79 -0.12 1.44-0.21 2.21s-0.22 1.31-0.36 2c-0.09 0.43 -0.22 0.85 -0.33 1.28a1 1 0 0 0 0 0.24v2.42a0.28 0.28 0 0 1-0.21 0.3 4.36 4.36 0 0 1-2 0.11c-0.05 0-0.13-0.1-0.14-0.16C0.4 28.06 0.32 27 0.26 26 0.17 24.35 0.08 22.75 0 21.14v-3c0-0.65 0.11 -1.29 0.19 -1.94 0.08 -0.65 0.18 -1.55 0.28 -2.33l0.27-2.37L1 9.25a19.78 19.78 0 0 1 0.6-3 10.06 10.06 0 0 1 0.77-2 2.81 2.81 0 0 1 1.53-1.2l1.58-0.62h0.09l-0.18 0.32 a5.68 5.68 0 0 0-0.7 1.64c0 0.08-0.12 0.15 -0.2 0.18 -0.51 0.2 -1 0.38-1.56 0.57 l-0.19 0.1 c0.37 0.22 0.69 0.43 1 0.61a19.6 19.6 0 0 1 5.59 4.24 9.52 9.52 0 0 1 2 3.15c0 0.12 0.08 0.25 0.13 0.37s0.08 0.1 0.12 0.15 c0.04 0.05 0.07-0.13 0-0.18-0.19-0.56-0.36-1.13-0.6-1.66a12.84 12.84 0 0 0-3.4-4.27 24.93 24.93 0 0 0-2.8-2.1l-0.08-0.08 3.59-1.19v-0.06H5.87c-0.21 0-0.22 0-0.15-0.2A6.93 6.93 0 0 1 8.27 0.61 3.48 3.48 0 0 1 10.43 0c1.06 0 2.13 0 3.2 0.07 0.45 0.026 0.878 0.198 1.22 0.49 0.6 0.48 1.23 0.94 1.79 1.48 0.247 0.297 0.44 0.636 0.57 1a9 9 0 0 1 0.31 0.87 c0.06 0.19 0 0.22-0.17 0.22 H15v0.06l3.28 1.11v0.06l-0.35 0.17 a15.19 15.19 0 0 0-5.43 3.94c-0.33 0.38 -0.62 0.8 -0.93 1.21a1.51 1.51 0 0 0-0.1 0.17 l0.14-0.14a14.73 14.73 0 0 1 5.55-4.11 16.28 16.28 0 0 1 3.13-1.07 3.45 3.45 0 0 0 0.42-0.14v-0.07l-1-0.34c-0.34-0.11-0.69-0.21-1-0.33a0.32 0.32 0 0 1-0.15-0.13c-0.28-0.59-0.55-1.18-0.83-1.76a1.76 1.76 0 0 0-0.12-0.23c0.16 0.05 0.27 0.07 0.37 0.11 l1.79 0.73 c0.526 0.243 0.946 0.67 1.18 1.2 0.403 0.798 0.698 1.645 0.88 2.52a38.93 38.93 0 0 1 0.64 4.31c0.17 1.45 0.31 2.9 0.53 4.34a32.65 32.65 0 0 1 0.13 6.26c-0.07 1.43-0.14 2.85-0.22 4.28-0.05 0.9 -0.13 1.81-0.19 2.71 0 0.18-0.06 0.26 -0.25 0.26 a5.07 5.07 0 0 1-1.9-0.14 0.26 0.26 0 0 1-0.2-0.28v-2a4 4 0 0 0-0.19-1.23 15.19 15.19 0 0 1-0.6-3.35c-0.08-1-0.19-1.94-0.28-2.9l-0.3-2.62c-0.09-0.82-0.18-1.65-0.26-2.47-0.08-0.82-0.14-1.49-0.22-2.24a1.64 1.64 0 0 0 0-0.22h-0.07c0 0.15-0.09 0.3 -0.13 0.45 l-0.69 2.28a10.13 10.13 0 0 0-0.58 3.13 8.34 8.34 0 0 0 0.58 2.66c0.37 1 0.7 2.07 1 3.13 0.3 1.06 0.47 2 0.68 3.06 0.16 0.86 0.29 1.73 0.42 2.59 0.13 0.86 0.24 1.73 0.36 2.59 0 0.42 0.1 0.83 0.13 1.25a0.45 0.45 0 0 1-0.13 0.3 3.14 3.14 0 0 1-1.12 0.71 14.14 14.14 0 0 1-2.77 0.87 c-0.89 0.19 -1.78 0.36 -2.68 0.52 -0.36 0.06 -0.73 0.08 -1.09 0.12 -0.14 0-0.2-0.05-0.21-0.19-0.1-1.57-0.21-3.15-0.32-4.72-0.08-1.13-0.17-2.25-0.25-3.38a3 3 0 0 0-0.06-0.32 0.29 0.29 0 0 0 0 0.09l-0.42 3.37c-0.11 0.94 -0.24 1.87-0.36 2.8-0.09 0.72 -0.18 1.45-0.26 2.17-0.05 0.42 0 0.43-0.46 0.36 -0.93-0.14-1.86-0.25-2.78-0.45a10.45 10.45 0 0 1-3.47-1.24 4.61 4.61 0 0 1-0.73-0.67 0.54 0.54 0 0 1-0.11-0.37c0.1-1 0.21-2 0.35-2.95 0.14 -0.95 0.27 -1.87 0.44 -2.8 0.17 -0.93 0.36 -1.95 0.57 -2.91a25.54 25.54 0 0 1 1.28-4.12A6.38 6.38 0 0 0 6.1 17a11.73 11.73 0 0 0-0.4-1.85c-0.29-1.05-0.61-2.08-0.92-3.13 0-0.06-0.06-0.12-0.08-0.18l-0.04 0.01 zm6.77-2.24l0.1-0.15c0.27-0.58 0.52 -1.17 0.83 -1.72 0.58 -1 1.2-2.06 1.78-3.1a3.54 3.54 0 0 0 0.44-1 6.54 6.54 0 0 0-0.1-2.33 0.34 0.34 0 0 0-0.28-0.31 1.86 1.86 0 0 0-0.34-0.07 13.69 13.69 0 0 0-3.5-0.16C9.88 0.83 9.4 0.91 8.93 1a0.36 0.36 0 0 0-0.32 0.33 c0 0.27-0.09 0.54 -0.12 0.81 A3.88 3.88 0 0 0 9 4.67c0.59 1 1.12 2 1.65 3.08 0.26 0.59 0.5 1.25 0.78 1.86zm0.14 9.79h1.15a0.58 0.58 0 0 0 0.63-0.58v-1.45a0.57 0.57 0 0 0-0.62-0.58H10.4a0.59 0.59 0 0 0-0.61 0.62 v1.37a0.59 0.59 0 0 0 0.63 0.62 h1.15zm4.74-1.27v-1c0-0.35 0-0.22-0.34-0.22s-0.2 0.08 -0.19 0.23 c0 0.58 0.05 1.17 0.07 1.75 0 0.35 0 0.34 0.36 0.34 0.15 0 0.2-0.06 0.19 -0.21-0.01-0.15-0.07-0.59-0.09-0.89zm-8.95 0v-0.94c0-0.13 0-0.21-0.19-0.22-0.19-0.01-0.34 0-0.35 0.2 0 0.63 0 1.26-0.08 1.89 0 0.15 0 0.23 0.19 0.23s0.34 0 0.34-0.21 0.09 -0.67 0.09 -0.99v0.04z" fill="#FFF"/>
  <path d="M11.56 18.93h-1.07c-0.16 0-0.23 0-0.23-0.21v-1.25c0-0.15 0.06 -0.21 0.21 -0.21h2.21c0.15 0 0.2 0.07 0.21 0.21 0 0.35 0 0.36-0.33 0.36 h-0.66c-0.2 0-0.3 0.1 -0.31 0.26 -0.01 0.16 0.11 0.27 0.31 0.27 h0.78c0.26 0 0.21 0.05 0.21 0.2 0 0.35 0 0.37-0.35 0.37 h-0.98z" fill="#FFF"/>
</svg>
