<?xml version="1.0" ?>
<svg xmlns="http://www.w3.org/2000/svg" width="46" height="32" viewBox="0 0 46 32">
  <path d="M45.32 14.13h-31.8a2.47 2.47 0 0 1 0.23-0.23c1.84-1.64 3.69-3.27 5.52-4.92a0.41 0.41 0 0 0 0.12-0.3V4.19h2v2.88l0.25-0.18 5.75-5.13L29.28 0.08 a0.21 0.21 0 0 1 0.33 0l6.82 6.08 5.31 4.71 3.4 3 0.22 0.17 -0.04 0.09 zM33.45 25.6h-8v-7.9c0-0.21 0.07 -0.26 0.26 -0.26h7.46c0.31 0 0.31 0 0.31 0.31 v7.6l-0.03 0.25 zM29.44 29H17c-0.28 0-0.28 0-0.28-0.28v-1.51c0-0.21 0.07 -0.26 0.26 -0.26h24.9c0.28 0 0.28 0 0.28 0.28 v1.53c0 0.19-0.05 0.25 -0.25 0.25 H29.44V29zM29.44 31.64H17c-0.29 0-0.29 0-0.29-0.28v-0.71c0-0.23 0.07 -0.25 0.25 -0.25h24.86c0.34 0 0.34 0 0.34 0.35 v0.67c0 0.23-0.05 0.22 -0.23 0.22 H29.44zM29.44 16.06H17c-0.21 0-0.28-0.06-0.26-0.27 0.01 -0.18 0.01 -0.36 0-0.54 0-0.41-0.07-0.38 0.39 -0.38h24.71c0.32 0 0.32 0 0.32 0.33 v0.63c0 0.21-0.05 0.23 -0.22 0.23 h-12.5zM24.06 25.6H17c-0.21 0-0.26-0.06-0.26-0.27v-2.89c0-0.17 0-0.24 0.22 -0.24h6.93c0.13 0 0.21 0 0.21 0.18 v3.08a0.57 0.57 0 0 1-0.04 0.14 zM34.83 25.6a1.68 1.68 0 0 1 0-0.2v-2.95c0-0.18 0.06 -0.23 0.23 -0.23h6.88c0.18 0 0.25 0.05 0.25 0.24 v2.95c0 0.13 0 0.2-0.18 0.2 h-7.18v-0.01zM24.07 20.84H17c-0.29 0-0.29 0-0.29-0.29v-2.82c0-0.27 0-0.28 0.29 -0.28h6.76c0.3 0 0.3 0 0.3 0.31 v3.08h0.01zM34.81 20.83v-3.21c0-0.12 0-0.17 0.16 -0.17h7c0.13 0 0.19 0.05 0.19 0.19 v3c0 0.18-0.09 0.19 -0.22 0.19 h-7.13zM9.85 24.51l0.52 0.08 0.54 0.1 0.49 0.11 c0.23 0.06 0.45 0.11 0.67 0.19 0.22 0.08 0.58 0.22 0.86 0.34 0.28 0.12 0.3 0.16 0.45 0.24 a0.25 0.25 0 0 1 0.12 0.23 v4.33a0.78 0.78 0 0 1-0.38 0.64 2.59 2.59 0 0 1-0.8 0.39 c-0.28 0.093 -0.56 0.173 -0.84 0.24 -0.22 0.05 -0.43 0.08 -0.65 0.11 l-0.86 0.13 h-0.38l-0.59 0.09 -1.66 0.09 H6.17c-0.39 0-1 0-1.43-0.07l-0.78-0.07c-0.29 0-0.59-0.06-0.88-0.11-0.29-0.05-0.65-0.1-1-0.17a5.27 5.27 0 0 1-1.43-0.49 1.23 1.23 0 0 1-0.54-0.47 0.66 0.66 0 0 1-0.1-0.37v-1.95-2a0.73 0.73 0 0 1 0.34-0.66 3.06 3.06 0 0 1 0.85-0.42l0.73-0.23a4.7 4.7 0 0 1 0.51-0.12l0.63-0.13 0.5 -0.08 0.83 -0.1H5.08v-0.1-5.31A1.5 1.5 0 0 1 6 17.59a1.79 1.79 0 0 1 0.68-0.13 1.75 1.75 0 0 1 1.48 1c0.07 0.171 0.108 0.355 0.11 0.54 a0.4 0.4 0 0 1-0.79 0 0.81 0.81 0 0 0-0.54-0.69 0.86 0.86 0 0 0-1 0.41 0.65 0.65 0 0 0 0 0.2V21H9v-2a1.4 1.4 0 0 1 0.52-1.13 1.56 1.56 0 0 1 0.78-0.36 1.52 1.52 0 0 1 1.48 0.61 c0.212 0.255 0.323 0.579 0.31 0.91 a0.38 0.38 0 0 1-0.33 0.35 0.38 0.38 0 0 1-0.38-0.28 2.05 2.05 0 0 0-0.07-0.34 0.79 0.79 0 0 0-0.63-0.5 0.74 0.74 0 0 0-0.76 0.43 0.57 0.57 0 0 0 0 0.22v5.55c-0.08 0-0.07 0.02 -0.07 0.05 zm-3.28 0.67 l-1.91 0.05 h-0.09l-1.3 0.13 a5.59 5.59 0 0 0-0.59 0.08 c-0.3 0.06 -0.61 0.12 -0.91 0.2 -0.3 0.08 -0.5 0.17 -0.75 0.25 -0.25 0.08 -0.2 0.11 -0.17 0.26 a0.12 0.12 0 0 0 0.08 0.13 c0.129 0.064 0.263 0.117 0.4 0.16 0.42 0.12 0.84 0.23 1.27 0.32 0.304 0.062 0.611 0.109 0.92 0.14 l1.06 0.1 H9.97l0.63-0.1c0.22 0 0.45-0.06 0.67 -0.11 0.22 -0.05 0.59 -0.15 0.88 -0.24a2.44 2.44 0 0 0 0.43-0.21 0.19 0.19 0 0 0 0-0.32l-0.2-0.1a4.26 4.26 0 0 0-0.93-0.25c-0.31-0.06-0.63-0.12-0.94-0.16-0.31-0.04-0.62-0.08-0.93-0.11-0.31-0.03-0.67-0.06-1-0.07l-2.01-0.15zM9 24.46v-1.2H5.91v1.16H9v0.04zm-3.09-2.89v1.11H9v-1.11H5.91z" fill="#FFF"/>
</svg>
