<?xml version="1.0" ?>
<svg xmlns="http://www.w3.org/2000/svg" width="43" height="32" viewBox="0 0 43 32">
  <path d="M42.38 5.3a3.52 3.52 0 0 0-0.48 0.14 c-0.64 0.23 -1.27 0.47 -1.9 0.72 -0.47 0.19 -0.93 0.39 -1.39 0.61 -0.64 0.31 -1.28 0.63 -1.9 1a12.7 12.7 0 0 0-3 2.18l-0.33 0.36 A34.9 34.9 0 0 0 22.34 5 21.16 21.16 0 0 0 24 0c-0.22 0.08 -0.42 0.13 -0.6 0.21 -0.52 0.23 -1.05 0.47 -1.57 0.72 -0.74 0.36 -1.48 0.72 -2.21 1.12a20.82 20.82 0 0 0-3 2 0.54 0.54 0 0 1-0.3 0.1 c-1 0-1.93 0-2.89 0.09 -0.65 0-1.29 0.2 -1.94 0.3 l-0.56 0.1 c0.073 0.108 0.153 0.212 0.24 0.31 a11 11 0 0 1 1.64 2.65c0.269 0.619 0.49 1.257 0.66 1.91a11.58 11.58 0 0 1 0.38 3.88 14.24 14.24 0 0 1-0.33 2.24 11.27 11.27 0 0 1-1.74 3.93c-0.21 0.32 -0.47 0.61 -0.7 0.92 0 0-0.08 0.1 -0.07 0.13 0.01 0.03 0.09 0.06 0.14 0.07 l1.63 0.32 c0.252 0.041 0.505 0.068 0.76 0.08 a18.8 18.8 0 0 0 3.27 0c0.51-0.05 1-0.06 1.54-0.1l0.53-0.08a0.51 0.51 0 0 1 0.24 0.07 28.71 28.71 0 0 0 3.23 2c0.69 0.35 1.4 0.68 2.1 1 0.42 0.2 0.86 0.38 1.28 0.56 l0.23 0.05 c-0.06-0.3-0.11-0.57-0.18-0.84-0.07-0.27-0.21-0.72-0.31-1.08a17 17 0 0 0-1-2.48l-0.01-0.18c-0.13-0.28-0.13-0.28 0.17 -0.38a30.67 30.67 0 0 0 3.68-1.47 28.37 28.37 0 0 0 3.07-1.67c0.66-0.43 1.29-0.89 1.94-1.34 0.11 -0.07 0.17 -0.07 0.26 0a11.17 11.17 0 0 0 2.47 2 21 21 0 0 0 2.86 1.49l2.66 1.08 0.59 0.22c0.076 0.008 0.154 0.008 0.23 0-0.15-0.38-0.28-0.74-0.43-1.08a23 23 0 0 0-1.88-3.49A14.74 14.74 0 0 0 38 12.79c-0.18-0.18-0.18-0.19 0-0.34a8.75 8.75 0 0 0 1.54-1.62 15.91 15.91 0 0 0 1.84-3.07c0.34-0.72 0.63 -1.46 1-2.19-0.05-0.07-0.04-0.14 0-0.27z" fill="#FFF"/>
  <path d="M12.63 12.52c-0.07-0.6-0.11-1.28-0.22-1.95a10 10 0 0 0-1-3A10.12 10.12 0 0 0 9.62 5.1c-0.18-0.18-0.32 0-0.45 0-0.6 0.22 -1.2 0.44 -1.78 0.71 -0.58 0.27 -1.23 0.61 -1.82 1a16.83 16.83 0 0 0-2.74 2 12.72 12.72 0 0 0-2.17 2.43c-0.22 0.34 -0.39 0.72 -0.58 1.08-0.19 0.36 0 0.6 0.13 0.88a11.79 11.79 0 0 0 2.24 2.74 17.74 17.74 0 0 0 3.9 2.83c0.72 0.39 1.47 0.7 2.21 1 0.27 0.12 0.54 0.21 0.81 0.31 a0.24 0.24 0 0 0 0.28-0.06 9 9 0 0 0 1.95-2.82 18.32 18.32 0 0 0 0.64-1.75 8.53 8.53 0 0 0 0.25-1.32c0.06-0.51 0.09 -1.02 0.14 -1.61zM6 11.3a1.33 1.33 0 1 1 2.66-0.04A1.33 1.33 0 0 1 6 11.3zM31.51 25.32l-0.09-0.08a1.72 1.72 0 0 1-0.33-0.33 0.33 0.33 0 0 0-0.16-0.12 2.29 2.29 0 0 1-0.84-0.88c-0.06-0.11-0.14-0.21-0.19-0.32a3.29 3.29 0 0 1-0.27-0.73l-0.06-0.27c0-0.21-0.05-0.42-0.06-0.63a2.17 2.17 0 0 1 0-0.44c0.02-0.132 0.05 -0.262 0.09 -0.39a2.42 2.42 0 0 1 0.12-0.35 6.07 6.07 0 0 1 0.5-0.9 7.61 7.61 0 0 1 0.81-1l0.2-0.2a0.1 0.1 0 0 1 0.15 0 0.11 0.11 0 0 1 0 0.14l-0.12 0.37 c0 0.12-0.08 0.25 -0.11 0.38 l-0.12 0.36 c-0.05 0.16 -0.1 0.31 -0.14 0.47 -0.04 0.16 -0.06 0.25 -0.09 0.37 s-0.05 0.27 -0.07 0.4 a0.37 0.37 0 0 1 0 0.11c0.05-0.09 0.12 -0.17 0.17 -0.26l0.12-0.27 0.15 -0.42c0-0.1 0.07 -0.21 0.1 -0.32l0.18-0.48v-0.1a0.11 0.11 0 0 1 0.12-0.09 0.13 0.13 0 0 1 0.11 0.11 V20c0.01 0.187 0.01 0.373 0 0.56 0 0.13 0 0.25-0.05 0.37 s-0.08 0.27 -0.12 0.4 c-0.04 0.13 -0.09 0.25 -0.14 0.37 a1.88 1.88 0 0 1-0.29 0.52 0.11 0.11 0 0 0 0 0.08c0 0.12-0.05 0.25 -0.06 0.38 a1.46 1.46 0 0 1-0.12 0.39 c-0.05 0.11 -0.09 0.22 -0.13 0.33 a0.06 0.06 0 0 0 0 0.09c0.174 0.1 0.327 0.232 0.45 0.39 a1.7 1.7 0 0 1 0.26 0.43 h0.06a1.1 1.1 0 0 1 0.44 0.11 l0.1 0.05 0.19-0.42a4 4 0 0 1 0.44-0.78 0.33 0.33 0 0 0 0-0.14c0.015-0.15 0.015 -0.3 0-0.45 0-0.18-0.05-0.36-0.07-0.55a2.4 2.4 0 0 0-0.16-0.52c0-0.06-0.06-0.12-0.09-0.19a0.28 0.28 0 0 1 0-0.22c0-0.06 0.09 -0.06 0.13 0 0.04 0.06 0.09 0.18 0.12 0.27 0.059 0.15 0.11 0.304 0.15 0.46 0.03 0.121 0.05 0.245 0.06 0.37 v0.7a0.44 0.44 0 0 1 0.42 0v-0.32a2.22 2.22 0 0 1 0.07-0.57 3 3 0 0 1 0.08-0.32c0-0.13 0.09 -0.26 0.14 -0.38a0.61 0.61 0 0 1 0.07-0.14 0.12 0.12 0 0 1 0.07 0 0.09 0.09 0 0 1 0.07 0.06 0.22 0.22 0 0 1 0 0.22 3 3 0 0 0-0.19 0.5 2.73 2.73 0 0 0-0.12 0.75 v0.56c0.11 0.24 0.24 0.48 0.35 0.71 0.11 0.23 0.16 0.34 0.24 0.5 a1.46 1.46 0 0 1 0.19-0.07l0.34-0.08c0.05 0 0.07 0 0.09-0.07a1.76 1.76 0 0 1 0.45-0.6 2.48 2.48 0 0 1 0.26-0.19c-0.07-0.18-0.14-0.34-0.2-0.52a0.48 0.48 0 0 1-0.05-0.17v-0.37a0.94 0.94 0 0 0-0.06-0.15 3.62 3.62 0 0 1-0.24-0.43 4.87 4.87 0 0 1-0.21-0.53 4.52 4.52 0 0 1-0.11-0.47 3.76 3.76 0 0 1-0.06-0.74 5.85 5.85 0 0 1 0-0.59 0.13 0.13 0 0 1 0.1-0.1 0.12 0.12 0 0 1 0.12 0.07 c0.06 0.15 0.11 0.31 0.16 0.46 0.05 0.15 0.09 0.27 0.14 0.4 0.05 0.13 0.14 0.43 0.22 0.64 0.05 0.091 0.106 0.178 0.17 0.26 a0.49 0.49 0 0 0 0.11 0.14 0.34 0.34 0 0 0 0-0.1v-0.23l-0.06-0.37a2 2 0 0 0-0.09-0.26l0.21-0.5-0.12-0.4c0-0.12-0.07-0.24-0.11-0.35-0.04-0.11-0.09-0.31-0.14-0.46-0.05-0.15 0-0.11 0-0.15 0-0.04 0.09 0 0.15 0 0.107 0.092 0.208 0.193 0.3 0.3 0.21 0.26 0.43 0.51 0.63 0.78 0.211 0.276 0.386 0.579 0.52 0.9 0.081 0.167 0.148 0.341 0.2 0.52 0.085 0.275 0.115 0.564 0.09 0.85 0 0.18 0 0.36-0.06 0.54 -0.06 0.18 -0.11 0.43 -0.17 0.64 a1.89 1.89 0 0 1-0.23 0.5 c-0.1 0.16 -0.2 0.32 -0.31 0.48 a2 2 0 0 1-0.68 0.59 0.65 0.65 0 0 0-0.17 0.16 c-0.11 0.12 -0.23 0.22 -0.35 0.33 h0.4a0.14 0.14 0 0 0 0.12-0.08 1.39 1.39 0 0 1 0.28-0.39 0.82 0.82 0 0 1 0.42-0.2h0.21a0.11 0.11 0 0 1 0.13 0 0.12 0.12 0 0 1 0 0.15c-0.24 0.26 -0.48 0.52 -0.71 0.79 a0.41 0.41 0 0 1-0.3 0.14 l-0.51 0.07 h-0.4v0.24l0.55-0.05h0.61a0.078 0.078 0 0 0 0.12 0.1 3.16 3.16 0 0 1 0.53-0.62 2.31 2.31 0 0 1 0.56-0.38l0.39-0.2a0.12 0.12 0 0 1 0.14 0 0.12 0.12 0 0 1 0 0.14l-0.33 0.38 -0.71 0.78 a3.33 3.33 0 0 1-0.25 0.28 0.22 0.22 0 0 1-0.14 0.05 h-0.36l-0.54 0.07 H34.72v0.05h0.17l0.38 0.06 0.38 0.07 a1.9 1.9 0 0 0 0.25 0h0.06a1.26 1.26 0 0 1 0.69-0.43 2.09 2.09 0 0 1 0.61-0.08 0.12 0.12 0 0 1 0.13 0.08 s0 0.1-0.06 0.14 l-0.87 0.57 -0.26 0.16 a0.19 0.19 0 0 1-0.1 0l-0.47-0.05h-0.33l-0.58-0.06h-0.12l0.19 0.09 0.67 0.3 a0.11 0.11 0 0 0 0.08 0 2.71 2.71 0 0 1 0.3-0.13 2.66 2.66 0 0 1 0.39-0.07h0.58c0.06 0 0.11 0.07 0.1 0.12 a0.13 0.13 0 0 1-0.1 0.11 l-0.61 0.19 -0.62 0.19 a0.23 0.23 0 0 1-0.14 0l-0.44-0.16-0.41-0.16-0.14-0.06c-0.06 0-0.09 0-0.09 0.06 a0.76 0.76 0 0 0 0 0.21 0.29 0.29 0 0 1 0 0.27 0.09 0.09 0 0 0 0 0.11 0.33 0.33 0 0 1 0 0.4v0.12a0.34 0.34 0 0 1 0 0.35 0.13 0.13 0 0 0 0 0.12c0.11 0.24 0.23 0.48 0.35 0.72 0.12 0.24 0.19 0.4 0.29 0.59 a0.42 0.42 0 0 1-0.34 0.59 h-0.26a0.44 0.44 0 0 1-0.33 0.1 c-0.095 0.01 -0.19 0.03 -0.28 0.06 a0.37 0.37 0 0 1-0.34 0 0.1 0.1 0 0 0-0.09 0 0.41 0.41 0 0 1-0.45-0.06 0.09 0.09 0 0 0-0.1 0 0.38 0.38 0 0 1-0.38-0.06 0.13 0.13 0 0 0-0.13 0 0.4 0.4 0 0 1-0.51-0.26 0.42 0.42 0 0 1 0-0.36c0.08-0.15 0.15 -0.3 0.23 -0.46l0.27-0.55 0.13 -0.28a0.14 0.14 0 0 0 0-0.09 0.35 0.35 0 0 1 0-0.39v-0.06a0.38 0.38 0 0 1 0-0.44 0.14 0.14 0 0 0 0-0.09 0.35 0.35 0 0 1-0.06-0.22 0.53 0.53 0 0 1 0-0.12v-0.16c0-0.05 0-0.07-0.09-0.05l-0.57 0.22 -0.43 0.17 h-0.13l-0.4-0.12-0.46-0.15-0.28-0.08a0.35 0.35 0 0 1-0.13 0 0.17 0.17 0 0 1-0.06-0.1 0.1 0.1 0 0 1 0.08-0.1h0.28a1.48 1.48 0 0 1 0.47 0c0.191 0.019 0.376 0.08 0.54 0.18 a0.11 0.11 0 0 0 0.08 0l0.6-0.27 0.25 -0.11a0.1 0.1 0 0 0 0-0.05h-0.06l-0.59 0.07 H30.62a0.24 0.24 0 0 1-0.2 0l-0.86-0.56-0.22-0.15a0.11 0.11 0 0 1 0-0.19h0.05a1.8 1.8 0 0 1 0.52 0.05 l0.4 0.13 c0.162 0.075 0.302 0.188 0.41 0.33 a0.06 0.06 0 0 0 0.08 0l0.42-0.07 0.38 -0.06 0.35 -0.06a0.06 0.06 0 0 0 0-0.05h-0.07l-0.6-0.08h-0.22l-0.58-0.06c-0.14 0-0.21-0.09-0.29-0.18l-0.86-1-0.3-0.34c-0.05-0.06-0.06-0.11 0-0.16s0.09-0.07 0.17 0c0.333 0.143 0.644 0.335 0.92 0.57 a2.8 2.8 0 0 1 0.53 0.61 s0 0.05 0.09 0.05l0.91 0.1 h0.22v-0.21h-0.27l-0.7-0.09a0.36 0.36 0 0 1-0.25-0.16l-0.67-0.75a0.18 0.18 0 0 1-0.05-0.12 0.09 0.09 0 0 1 0.07-0.09c0.193 0.005 0.382 0.056 0.55 0.15 a0.8 0.8 0 0 1 0.27 0.28 c0.044 0.068 0.084 0.138 0.12 0.21 a0.17 0.17 0 0 0 0.12 0.06 h0.43l0.02 0.02 z" fill="#FFF"/>
</svg>
