<?xml version="1.0" ?>
<svg xmlns="http://www.w3.org/2000/svg" width="44" height="36" viewBox="0 0 44 36">
  <path d="M17.59 14.1a6.27 6.27 0 0 0 8.79 0c0.29 0.24 0.56 0.48 0.85 0.69 a6.51 6.51 0 0 0 2 0.93 6 6 0 0 0 2.35 0.14 5.77 5.77 0 0 0 3-1.26c0.16-0.12 0.31 -0.25 0.45 -0.39 0.12 -0.12 0.21 -0.1 0.32 0a6 6 0 0 0 1.91 1.23c0.695 0.31 1.45 0.46 2.21 0.44 0.54 0 1.08-0.07 1.65-0.11v16.9h0.61a0.78 0.78 0 0 1 0.82 0.81 v1.18a0.78 0.78 0 0 1-0.83 0.82 H2.31a0.85 0.85 0 0 1-0.9-0.9v-1.11a0.79 0.79 0 0 1 0.82-0.82c0.19 0 0.46 0.06 0.55 0 0.09-0.06 0.05 -0.37 0.05 -0.57V15.71a5.66 5.66 0 0 0 2.23 0.16 5.63 5.63 0 0 0 2.73-1 9.24 9.24 0 0 0 0.84-0.68c0.12-0.09 0.18 -0.09 0.28 0a6 6 0 0 0 4.22 1.7 6 6 0 0 0 4.21-1.59l0.25-0.2zm10.79 15.73H35c0.38 0 0.5-0.13 0.5 -0.51v-9c0-0.37-0.13-0.5-0.5-0.5H21.76c-0.37 0-0.49 0.13 -0.49 0.5 v9c0 0.37 0.12 0.5 0.5 0.5l6.61 0.01 zm-12.77-3.31v-5.83a0.84 0.84 0 0 0-0.84-0.84h-5.5a0.84 0.84 0 0 0-0.8 0.79 V32.4c0 0.21 0.06 0.27 0.27 0.27h6.57c0.29 0 0.29 0 0.29-0.29l0.01-5.86z" fill="#FFF"/>
  <path d="M35.19 10.33a4.44 4.44 0 0 1-8.79 0 4.45 4.45 0 0 1-8.82-0.07A4.43 4.43 0 0 1 10.17 13a4.27 4.27 0 0 1-1.38-2.73c-0.07 0.25 -0.13 0.5 -0.19 0.75 a4.12 4.12 0 0 1-2 2.55 4.13 4.13 0 0 1-2.51 0.6 4.28 4.28 0 0 1-3.85-2.73 3.18 3.18 0 0 1-0.24-1 2.16 2.16 0 0 1 0.48-1.37c0.89-1.27 1.78-2.54 2.7-3.8C4.26 3.78 5.36 2.32 6.44 0.83 A1.89 1.89 0 0 1 8.08 0H35.7a2 2 0 0 1 1.42 0.38 c0.27 0.277 0.514 0.578 0.73 0.9 0.65 0.87 1.3 1.74 1.93 2.62 1.28 1.773 2.55 3.55 3.81 5.33 0.312 0.392 0.46 0.891 0.41 1.39a3.6 3.6 0 0 1-0.63 1.59 4.25 4.25 0 0 1-2.15 1.68 4.39 4.39 0 0 1-2.19 0.23 4.43 4.43 0 0 1-2.66-1.37 3.8 3.8 0 0 1-1.05-2.09 2.13 2.13 0 0 0-0.13-0.33zM18.46 2.84H12.19A0.41 0.41 0 0 0 12 3L9.67 7.74c-0.12 0.24 -0.23 0.49 -0.35 0.77 h8.43l0.71-5.67zm16.19 5.67a2 2 0 0 0-0.08-0.23c-0.84-1.75-1.69-3.5-2.52-5.26a0.3 0.3 0 0 0-0.34-0.2h-6.19l0.71 5.68 8.42 0.01 zM11.35 25.57A1.38 1.38 0 0 1 12.73 27a1.4 1.4 0 1 1-2.79 0 1.39 1.39 0 0 1 1.41-1.43z" fill="#FFF"/>
</svg>
