<?xml version="1.0" ?>
<svg xmlns="http://www.w3.org/2000/svg" width="38" height="31" viewBox="0 0 38 31">
  <path d="M6.62 4.9a1.72 1.72 0 0 1-1.74 1.76 1.76 1.76 0 0 1-1.75-1.75 1.77 1.77 0 0 1 1.75-1.76A1.74 1.74 0 0 1 6.62 4.9zM8.59 7.87a0.72 0.72 0 0 1-0.66 0.72 0.47 0.47 0 0 1-0.42-0.17c-0.34-0.43-0.68-0.86-1-1.3a0.42 0.42 0 0 1 0.21-0.66 0.49 0.49 0 0 1 0.49 0.12 c0.39 0.28 0.77 0.58 1.14 0.88 a0.57 0.57 0 0 1 0.24 0.41 zM1.9 1.23a0.62 0.62 0 0 1 0.46 0.21 l0.87 1.13c0.064 0.089 0.114 0.187 0.15 0.29 a0.36 0.36 0 0 1-0.12 0.4 0.38 0.38 0 0 1-0.41 0.11 2.63 2.63 0 0 1-0.72-0.48l-0.64-0.5a0.54 0.54 0 0 1-0.26-0.53 0.68 0.68 0 0 1 0.43-0.56l0.24-0.07zM8.59 1.9a0.56 0.56 0 0 1-0.21 0.46 l-1.11 0.86 a1.35 1.35 0 0 1-0.27 0.14 0.35 0.35 0 0 1-0.4-0.1c-0.12-0.13-0.21-0.28-0.1-0.46 0.11 -0.18 0.3 -0.46 0.47 -0.69 0.17 -0.23 0.34 -0.4 0.47 -0.62a0.63 0.63 0 0 1 0.88-0.13 0.7 0.7 0 0 1 0.27 0.54 zM1.24 7.88a0.59 0.59 0 0 1 0.24-0.46c0.37-0.26 0.71 -0.55 1.08-0.82a1 1 0 0 1 0.29-0.15 0.39 0.39 0 0 1 0.42 0.12 0.37 0.37 0 0 1 0.1 0.42 2.41 2.41 0 0 1-0.26 0.44 c-0.23 0.31 -0.48 0.62 -0.72 0.93 a0.6 0.6 0 0 1-1 0 0.68 0.68 0 0 1-0.15-0.48zM9.11 5.56l-0.68-0.11-0.62-0.07a1.55 1.55 0 0 1-0.35-0.1 0.38 0.38 0 0 1-0.24-0.37 0.39 0.39 0 0 1 0.26-0.39A3.32 3.32 0 0 1 8 4.4l0.75-0.1a3.75 3.75 0 0 1 0.52 0 0.65 0.65 0 0 1 0.56 0.61 0.67 0.67 0 0 1-0.46 0.66 1.24 1.24 0 0 1-0.26-0.01zM0.67 5.55A0.62 0.62 0 0 1 0 5a0.69 0.69 0 0 1 0.36-0.72 0.58 0.58 0 0 1 0.27 0l0.65 0.07 c0.3 0 0.59 0.07 0.89 0.12 0.161 0.015 0.3 0.12 0.36 0.27 a0.4 0.4 0 0 1-0.08 0.48 1 1 0 0 1-0.4 0.16 c-0.39 0.07 -0.78 0.11 -1.17 0.17 H0.67zM5.56 9.12a0.62 0.62 0 0 1-0.56 0.69 0.62 0.62 0 0 1-0.72-0.58c0-0.31 0.07 -0.62 0.11 -0.93 0.04 -0.31 0-0.36 0.07 -0.54a1.33 1.33 0 0 1 0.12-0.34 0.36 0.36 0 0 1 0.42-0.19 0.4 0.4 0 0 1 0.36 0.31 c0 0.19 0.08 0.38 0.11 0.57 0.03 0.19 0.05 0.67 0.09 1.01zM5.54 0.91 c0 0.26-0.1 0.69 -0.16 1.12a0.72 0.72 0 0 1-0.17 0.44 0.46 0.46 0 0 1-0.61 0A0.83 0.83 0 0 1 4.44 2c0-0.34-0.09-0.68-0.13-1V0.62A0.64 0.64 0 0 1 5.09 0a0.91 0.91 0 0 1 0.27 0.15 c0.2 0.21 0.2 0.24 0.18 0.76 zM19.2 4.06l0.41-0.24a5.59 5.59 0 0 1 1.22-0.52 5 5 0 0 1 1.34-0.23c0.35-0.02 0.698 0.063 1 0.24 0.18 0.11 0.39 0.41 0.31 0.6a1.45 1.45 0 0 1-0.26 0.45 5.48 5.48 0 0 1-1.32 1l-0.22 0.14 0.3 0.07 c0.35 0.08 0.71 0.14 1.05 0.26 a9 9 0 0 1 1.12 0.45 c0.402 0.195 0.793 0.412 1.17 0.65 0.34 0.202 0.638 0.467 0.88 0.78 0.26 0.35 0.19 0.54 -0.16 0.77 a2.48 2.48 0 0 1-0.88 0.31 c-0.921 0.16 -1.86 0.194 -2.79 0.1 h-0.1c0.06 0.08 0.11 0.17 0.17 0.24 a6 6 0 0 1 0.85 1.51 3.3 3.3 0 0 1 0.18 0.72 c0.044 0.268 0.06 0.539 0.05 0.81 a1.8 1.8 0 0 1-0.15 0.53 0.56 0.56 0 0 1-0.53 0.32 2.93 2.93 0 0 1-1.68-0.37c-0.29-0.15-0.56-0.32-0.87-0.5 0.11 0.18 0.22 0.34 0.31 0.5 0.21 0.37 0.44 0.74 0.63 1.12 0.19 0.38 0.43 0.91 0.61 1.37 0.18 0.46 0.38 1.06 0.56 1.59 0.12 0.35 0.24 0.71 0.34 1.07 0.1 0.36 0.12 0.48 0.18 0.72s0.15 0.54 0.22 0.82 c0.07 0.28 0.13 0.58 0.2 0.87 l0.21 1c0 0.21 0.09 0.43 0.13 0.64l0.15 0.77 c0 0.25 0.09 0.5 0.14 0.75 0.05 0.25 0.11 0.53 0.16 0.79 0.025 0.194 0.097 0.38 0.21 0.54 0.13 0.17 0.29 0.17 0.4 0a2 2 0 0 0 0.17-0.45c0.1-0.37 0.19 -0.75 0.29 -1.12 0.1 -0.37 0.23 -0.83 0.36 -1.24 0.13 -0.41 0.3 -0.83 0.45 -1.25 0.15 -0.42 0.31 -0.81 0.48 -1.21 0.25 -0.58 0.51 -1.17 0.8 -1.74 0.29 -0.57 0.61 -1.12 0.93 -1.67 0.11 -0.19 0.24 -0.35 0.38 -0.55h-0.09c-0.47 0.26 -0.94 0.53 -1.41 0.78 -0.145 0.07 -0.3 0.117 -0.46 0.14 -0.25 0-0.34-0.08-0.37-0.34a2.19 2.19 0 0 1 0.13-0.93 8.58 8.58 0 0 1 0.43-1 3.92 3.92 0 0 1 0.76-1.12l0.08-0.09h-0.23c-0.27 0-0.54 0-0.81-0.08a4 4 0 0 1-1.4-0.39 0.33 0.33 0 0 1-0.11-0.56 3.33 3.33 0 0 1 1-0.79 10 10 0 0 1 0.95-0.45c0.27-0.11 0.55 -0.19 0.85 -0.29-0.22-0.11-0.43-0.21-0.62-0.32a6.33 6.33 0 0 1-0.63-0.41 0.54 0.54 0 0 1 0.18-0.93 2.44 2.44 0 0 1 1-0.14c0.335 0.007 0.67 0.038 1 0.09a5.77 5.77 0 0 1 1.61 0.47 c0-0.09 0-0.15-0.08-0.2a1.62 1.62 0 0 1-0.16-0.8 0.58 0.58 0 0 1 0.08-0.27 0.35 0.35 0 0 1 0.2-0.13 0.82 0.82 0 0 1 0.63 0.2 c0.44 0.306 0.786 0.728 1 1.22 0.035 0.095 0.065 0.192 0.09 0.29 0.17 -0.192 0.35 -0.376 0.54 -0.55 0.141 -0.112 0.3 -0.2 0.47 -0.26 0.22 -0.08 0.57 0.18 0.62 0.44a1.56 1.56 0 0 1-0.14 0.9 v0.09L34 10a3.41 3.41 0 0 1 1.29-0.15 1 1 0 0 1 0.6 0.22 1 1 0 0 1 0.25 0.33 0.34 0.34 0 0 1-0.31 0.49 l-0.74 0.1 h-0.15l0.61 0.28 a4.63 4.63 0 0 1 1.72 1.34c0.196 0.249 0.32 0.546 0.36 0.86 a1.29 1.29 0 0 1-0.06 0.46 c0 0.13-0.25 0.21 -0.43 0.18 a7.31 7.31 0 0 1-1.35-0.43h-0.16l0.17 0.28 c0.224 0.352 0.392 0.737 0.5 1.14 0.085 0.286 0.155 0.576 0.21 0.87a5.65 5.65 0 0 1 0 1.68c0 0.12 0 0.23-0.07 0.34 a0.32 0.32 0 0 1-0.43 0.18 2.57 2.57 0 0 1-0.9-0.65 11.48 11.48 0 0 1-1.32-1.58l-0.33-0.44v0.15c0 0.44 0 0.88-0.06 1.31a5.47 5.47 0 0 1-0.4 1.71 1.29 1.29 0 0 1-0.23 0.34 c-0.14 0.15 -0.33 0.14 -0.53 0a1.67 1.67 0 0 1-0.51-0.79c-0.17-0.48-0.32-1-0.46-1.47-0.06-0.22-0.09-0.44-0.13-0.67-0.04-0.23-0.05-0.21-0.09-0.35-0.13 0.18 -0.25 0.33 -0.36 0.49 a13 13 0 0 0-1 1.85c-0.23 0.49 -0.42 1-0.61 1.49s-0.28 0.8 -0.4 1.21c-0.12 0.41 -0.13 0.61 -0.2 0.92 a9.7 9.7 0 0 0-0.21 1.93 10 10 0 0 0 0.06 1.23c0.05 0.51 0.17 1 0.2 1.53 0.034 0.49 0.034 0.98 0 1.47-0.03 0.282 -0.09 0.56 -0.18 0.83 a2.41 2.41 0 0 1-1 1.34c-0.41 0.257 -0.87 0.42 -1.35 0.48 a6.16 6.16 0 0 1-1.45 0.09 13 13 0 0 1-1.33-0.15 7.23 7.23 0 0 1-1.18-0.3 2.86 2.86 0 0 1-1.75-1.54A3.78 3.78 0 0 1 20 27c0.012-0.6 0.072 -1.2 0.18 -1.79a4 4 0 0 0 0.06-0.51 13.42 13.42 0 0 0 0-2.22v-0.3c-0.05-0.58-0.1-1.16-0.16-1.74 0-0.35-0.08-0.7-0.14-1-0.06-0.3-0.14-0.77-0.21-1.16 0-0.22-0.08-0.44-0.13-0.65-0.05-0.21-0.14-0.63-0.22-0.94-0.08-0.31-0.08-0.37-0.13-0.56-0.11-0.4-0.22-0.8-0.34-1.21-0.12-0.41-0.2-0.67-0.31-1-0.11-0.33-0.19-0.54-0.29-0.8l-0.14 0.56 c-0.09 0.35 -0.17 0.7 -0.27 1.05-0.1 0.35 -0.12 0.45 -0.2 0.67 a2 2 0 0 1-0.36 0.7 0.38 0.38 0 0 1-0.62 0 2.46 2.46 0 0 1-0.34-0.52 6.08 6.08 0 0 1-0.45-1.4 10.27 10.27 0 0 1-0.24-1.67c0-0.18 0-0.35-0.06-0.57l-0.29 0.47 a15.13 15.13 0 0 1-1.57 2.13 3.48 3.48 0 0 1-0.87 0.74 c-0.34 0.19 -0.62 0.08 -0.7-0.29a6.46 6.46 0 0 1-0.14-1.9c0-0.28 0-0.57 0.07 -0.85 0.03 -0.22 0.077 -0.437 0.14 -0.65 0.08 -0.26 0.16 -0.52 0.27 -0.77 0.11 -0.25 0.21 -0.46 0.32 -0.69l0.05-0.12-0.59 0.37 a1.85 1.85 0 0 1-1.24 0.27 0.8 0.8 0 0 1-0.64-0.57 1.28 1.28 0 0 1 0.2-1.13 5.44 5.44 0 0 1 1.63-1.55 6.3 6.3 0 0 1 1.31-0.68 4.13 4.13 0 0 1-0.48-0.15 2.81 2.81 0 0 1-0.54-0.3 0.46 0.46 0 0 1-0.11-0.55A1 1 0 0 1 13.3 5a3.23 3.23 0 0 1 1.19 0 5.22 5.22 0 0 1 1.51 0.51 l0.14 0.05 0.17-0.34a6 6 0 0 1 1.31-1.84 1.94 1.94 0 0 1 0.86-0.52 0.94 0.94 0 0 1 0.8 0.09 0.39 0.39 0 0 1 0.16 0.3 c0.018 0.28 -0.06 0.559 -0.22 0.79 l-0.02 0.02 zm14.47 6.07v-0.06l-0.22 0.08 v0.05l0.22-0.07z" fill="#FFF"/>
</svg>
