<?xml version="1.0" ?>
<svg xmlns="http://www.w3.org/2000/svg" width="44" height="30" viewBox="0 0 44 30">
  <path d="M22.84 27.88h-4c-0.82 0-1.64 0.08 -2.46 0.14 -0.54 0-1.08 0.11 -1.61 0.19 s-1.12 0.2 -1.68 0.31 c-0.56 0.11 -1.05 0.21 -1.57 0.35 -0.69 0.19 -1.37 0.42 -2.06 0.62 -0.52 0.15 -1 0.31-1.58 0.41 a7 7 0 0 1-2.98-0.13 6.38 6.38 0 0 1-3.22-2.05 6.52 6.52 0 0 1-1.31-2.25A6 6 0 0 1 0 23.29a6.24 6.24 0 0 1 1.18-3.43 4.56 4.56 0 0 1 1.14-1A6.61 6.61 0 0 1 4 18a4.76 4.76 0 0 1 5.21 1.45c0.383 0.454 0.669 0.981 0.84 1.55a4.6 4.6 0 0 1 0.21 1.65 3.63 3.63 0 0 1-2.09 3.08 2.51 2.51 0 0 1-1.41 0.37 3.12 3.12 0 0 1-2.66-1.67 1.75 1.75 0 0 1-0.16-0.79 2.29 2.29 0 0 1 0.36-1.24 1.37 1.37 0 0 1 1.88-0.46 0.52 0.52 0 0 1 0.19 0.2 0.18 0.18 0 0 1 0 0.16h-0.13a0.604 0.604 0 0 0-0.14 1.2 1.24 1.24 0 0 0 1.4-0.88c0.161-0.475 0.028 -1-0.34-1.34A1.91 1.91 0 0 0 6 20.67c-0.14 0-0.27-0.05-0.41-0.06a2.4 2.4 0 0 0-1.95 0.82 2.63 2.63 0 0 0-0.71 1.37 5.41 5.41 0 0 0-0.12 0.9 2.85 2.85 0 0 0 0.68 1.89 4.23 4.23 0 0 0 2 1.42c0.326 0.102 0.66 0.176 1 0.22a4 4 0 0 0 2.93-0.89 5.53 5.53 0 0 0 1.67-2c0.23-0.42 0.488 -0.824 0.77 -1.21l2.46-3.68 2.45-3.7c0.07-0.11 0.16 -0.1 0.27 -0.1h15.27a0.77 0.77 0 0 1 0.4 0.1 0.54 0.54 0 0 1 0.16 0.73 l-1.62 3.58c-0.68 1.51-1.38 3-2.06 4.54-0.45 1-0.89 2-1.34 3a0.54 0.54 0 0 1-0.53 0.33 h-4.48v-0.05z" fill="#FFF"/>
  <path d="M11.42 21.78a5.81 5.81 0 0 0-3-4.41 6.1 6.1 0 0 0-5.34-0.2l0.36-0.54L6 12.88c0.48-0.71 1-1.43 1.46-2.12a3.9 3.9 0 0 1 0.79-0.66 6 6 0 0 1 1.88-0.92A5.08 5.08 0 0 1 12.24 9a4.87 4.87 0 0 1 2.29 1A4.44 4.44 0 0 1 16 12.14c0.2 0.646 0.265 1.327 0.19 2a2.56 2.56 0 0 1-0.53 1.31c-1.25 1.87-2.48 3.74-3.73 5.61l-0.43 0.64 -0.08 0.08 zM38.34 20.14c-0.35 0.11 -0.56-0.11-0.78-0.33l-4.11-4.12c-0.1-0.11-0.16-0.11-0.27 0-1.44 1.45-2.9 2.89-4.34 4.35a0.35 0.35 0 0 1-0.27 0.11 3 3 0 0 0-0.52 0 0.42 0.42 0 0 1-0.35-0.15l-4.35-4.35a0.64 0.64 0 0 1-0.1-0.24 0.4 0.4 0 0 1 0-0.11 1.16 1.16 0 0 1 0.44-1.1c1.35-1.31 2.67-2.66 4-4 0.11-0.11 0.11 -0.17 0-0.28L23.36 5.6a0.32 0.32 0 0 1-0.11-0.27v-0.58a0.4 0.4 0 0 1 0.1-0.24C24.81 3 26.28 1.58 27.74 0.12 A0.56 0.56 0 0 1 28 0h0.36a0.7 0.7 0 0 1 0.64 0.27 l4.17 4.19c0.11 0.11 0.17 0.11 0.28 0C34.9 3 36.35 1.57 37.79 0.12 a0.32 0.32 0 0 1 0.27-0.12h0.54a0.4 0.4 0 0 1 0.32 0.13 L41.77 3c0.5 0.5 1 1 1.5 1.51a0.64 0.64 0 0 1 0.11 0.25 v0.17a1 1 0 0 1-0.39 1c-1.36 1.34-2.71 2.7-4.06 4.05-0.11 0.11 -0.11 0.16 0 0.27l4.35 4.34a0.32 0.32 0 0 1 0.11 0.27 v0.57a0.32 0.32 0 0 1-0.11 0.27 A666.027 666.027 0 0 0 38.9 20a0.35 0.35 0 0 1-0.29 0.12 l-0.27 0.02 zm4.57-15.09a1 1 0 0 0-0.08-0.11C41.37 3.49 39.92 2 38.47 0.58 c-0.1-0.1-0.16-0.09-0.25 0l-4.33 4.34c-0.1 0.09 -0.11 0.15 0 0.26 1.45 1.44 2.89 2.89 4.34 4.34 0.08 0.08 0.14 0.1 0.22 0l4.38-4.38 0.08 -0.09zM32.85 15.11l-0.09-0.11-4.35-4.36c-0.1-0.09-0.16-0.09-0.25 0L23.85 15c-0.14 0.14 -0.16 0.13 0 0.29l4.32 4.34c0.09 0.09 0.15 0.07 0.23 0l1-1 3.39-3.38 0.06 -0.14zm10.06 0l-0.1-0.12-4.33-4.34c-0.11-0.1-0.16-0.1-0.27 0A1313.643 1313.643 0 0 1 33.9 15c-0.12 0.11 -0.11 0.17 0 0.28a656.766 656.766 0 0 1 4.31 4.31c0.1 0.1 0.16 0.11 0.26 0 0.69-0.7 1.38-1.38 2.07-2.07s1.52-1.51 2.27-2.27l0.1-0.14zM28.29 0.48 a0.53 0.53 0 0 0-0.11 0.09 l-4.37 4.36c-0.09 0.09 -0.09 0.14 0 0.23l4.36 4.35c0.09 0.09 0.15 0.1 0.25 0l0.89-0.9 3.45-3.44c0.09-0.09 0.1 -0.15 0-0.25s-0.36-0.34-0.53-0.51L28.4 0.58 l-0.11-0.1zm5 5l-0.12 0.11 L28.86 10c-0.1 0.1 -0.11 0.15 0 0.26l4.31 4.31c0.13 0.12 0.13 0.15 0.28 0l4.33-4.32c0.1-0.1 0.09 -0.15 0-0.25l-1.95-2c-0.8-0.8-1.59-1.6-2.39-2.39l-0.15-0.13z" fill="#FFF"/>
  <path d="M30.37 0h0.81c0.06 0 0.12 0.06 0.17 0.1 L33.18 2c0.1 0.11 0.16 0.11 0.27 0 0.6-0.61 1.22-1.22 1.84-1.83a0.37 0.37 0 0 1 0.25-0.1h0.7a1.32 1.32 0 0 1-0.12 0.16 l-2.69 2.7c-0.08 0.08 -0.14 0.09 -0.22 0L30.48 0.14 30.37 0zM23.25 13v-0.8a0.33 0.33 0 0 1 0.1-0.17c0.61-0.61 1.22-1.23 1.84-1.84 0.1 -0.1 0.11 -0.16 0-0.26L23.4 8.16a0.42 0.42 0 0 1-0.16-0.36v-0.67c0.07 0.07 0.13 0.1 0.17 0.15 L26.09 10c0.1 0.1 0.1 0.15 0 0.25-0.9 0.89 -1.79 1.78-2.68 2.68l-0.16 0.07 zM43.34 13c-0.11-0.1-0.21-0.19-0.31-0.3l-2.5-2.49c-0.09-0.09-0.1-0.15 0-0.24l2.68-2.69 0.17 -0.13v0.82s0 0.1-0.09 0.14 L41.43 10c-0.1 0.09 -0.1 0.16 0 0.26L43.27 12a0.32 0.32 0 0 1 0.11 0.27 V13h-0.04zM30.38 20.14a1.28 1.28 0 0 1 0.12-0.14c0.9-0.91 1.81-1.81 2.71-2.71 0.08 -0.09 0.14 -0.08 0.22 0L36.12 20l0.13 0.16 h-0.84s-0.09-0.06-0.13-0.1l-1.84-1.86c-0.09-0.1-0.16-0.1-0.26 0L31.35 20a0.36 0.36 0 0 1-0.28 0.12 l-0.69 0.02 zM38.32 2.11l3 3-0.69 0.66 -2.12 2.1c-0.16 0.17 -0.13 0.16 -0.29 0l-2.73-2.71c-0.06-0.06-0.12-0.11 0-0.21l2.82-2.81s0.01-0.02 0.01 -0.03zm2.07 2.94a1 1 0 0 0-0.08-0.11c-0.62-0.61-1.23-1.23-1.84-1.84-0.1-0.1-0.15-0.1-0.25 0L36.4 4.92c-0.1 0.09 -0.1 0.16 0 0.25L38.23 7c0.09 0.08 0.15 0.08 0.23 0l1.85-1.86 0.08 -0.09zM28.32 18.05l-3-3 1.19-1.17c0.55-0.54 1.1-1.09 1.64-1.64 0.1 -0.1 0.15 -0.09 0.25 0L31.14 15c0.07 0.07 0.11 0.11 0 0.2l-2.8 2.8s-0.01 0.05 -0.02 0.05 zm0-5l-0.11 0.09 L26.32 15c-0.07 0.07 -0.09 0.12 0 0.2l1.89 1.88c0.07 0.07 0.11 0.06 0.17 0l1.89-1.89c0.07-0.08 0.06 -0.12 0-0.19-0.63-0.62-1.25-1.25-1.87-1.87l-0.08-0.08zM41.28 15.09l-3 3-0.63-0.65-2.15-2.21c-0.1-0.1-0.1-0.15 0-0.24l2.73-2.73c0.07-0.07 0.11 -0.12 0.21 0L41.23 15a0.12 0.12 0 0 1 0.05 0.09 zm-2.94 2.06l0.11-0.08 1.86-1.86c0.08-0.08 0.08 -0.13 0-0.21-0.62-0.62-1.24-1.23-1.86-1.86-0.08-0.08-0.14-0.07-0.22 0L36.39 15c-0.08 0.08 -0.09 0.14 0 0.23l1.86 1.85 0.09 0.07zM25.35 5.07l3-3c0.28 0.29 0.57 0.59 0.87 0.88 0.64 0.65 1.29 1.3 1.94 1.94 0.1 0.1 0.09 0.15 0 0.25L28.4 7.89c-0.07 0.07 -0.11 0.13 -0.21 0l-2.83-2.8-0.01-0.02zm5 0L30.26 5c-0.63-0.63-1.27-1.26-1.9-1.9-0.06-0.06-0.1-0.06-0.16 0-0.63 0.64 -1.26 1.27-1.9 1.9-0.06 0.07 -0.06 0.11 0 0.17L28.18 7c0.07 0.08 0.13 0.08 0.2 0l1.87-1.87 0.1 -0.06zM36.26 10.08l-0.08 0.1 L33.41 13c-0.07 0.07 -0.12 0.08 -0.19 0l-2.78-2.77c-0.07-0.08-0.07-0.13 0-0.2l2.78-2.83c0.07-0.07 0.12 -0.06 0.2 0 0.92 0.93 1.84 1.85 2.77 2.77a0.61 0.61 0 0 1 0.07 0.11 zM33.31 8a0.65 0.65 0 0 0-0.12 0.11 l-1.81 1.8c-0.1 0.1 -0.11 0.16 0 0.27 0.62 0.6 1.22 1.21 1.83 1.83 0.09 0.08 0.15 0.08 0.23 0 0.58-0.58 1.16-1.15 1.73-1.73 0.26 -0.26 0.25 -0.19 0-0.44-0.57-0.58-1.15-1.15-1.72-1.72L33.31 8z" fill="#FFF"/>
  <path d="M39.1 5.05l-0.1 0.08 -0.61 0.61 c-0.07 0.08 -0.12 0.06 -0.19 0l-0.59-0.59a0.11 0.11 0 0 1 0-0.18l0.62-0.61a0.16 0.16 0 0 1 0.15 0l0.63 0.63 a0.28 0.28 0 0 1 0.09 0.06 zM29 15.11v0.09l-0.59 0.6 c-0.06 0.06 -0.11 0.08 -0.19 0s-0.4-0.41-0.6-0.61c-0.2-0.2-0.06-0.11 0-0.17 0.06 -0.06 0.4 -0.41 0.61 -0.61a0.18 0.18 0 0 1 0.16 0c0.21 0.2 0.42 0.4 0.62 0.61 l-0.01 0.09 zM38.34 15.87l-0.1-0.08c-0.19-0.19-0.38-0.39-0.58-0.58-0.2-0.19-0.08-0.14 0-0.21 0.08 -0.07 0.39 -0.38 0.58 -0.58 0.19 -0.2 0.14 -0.07 0.21 0L39 15c0.07 0.07 0.08 0.13 0 0.2l-0.59 0.6 -0.07 0.07 zM28.29 5.81l-0.09-0.07-0.61-0.6c-0.07-0.07-0.06-0.12 0-0.19l0.59-0.59c0.07-0.08 0.12 -0.07 0.19 0L29 5c0.06 0.06 0.07 0.11 0 0.17l-0.61 0.62 -0.1 0.02 zM34.07 10.08l-0.06 0.08 c-0.2 0.2 -0.41 0.4 -0.6 0.61 -0.19 0.21 -0.12 0.07 -0.19 0s-0.4-0.41-0.6-0.6c-0.2-0.19-0.07-0.12 0-0.18l0.61-0.61a0.1 0.1 0 0 1 0.17 0l0.6 0.62 a0.35 0.35 0 0 1 0.07 0.08 z" fill="#FFF"/>
</svg>
