<?xml version="1.0" ?>
<svg xmlns="http://www.w3.org/2000/svg" width="42" height="36" viewBox="0 0 42 36">
  <path d="M30.93 29.57l0.18-0.2a5 5 0 0 1 8.78 1.42c0.135 0.471 0.228 0.953 0.28 1.44 0 0.16 0.07 0.23 0.24 0.22h1c0.21 0 0.28-0.06 0.27 -0.27V26v-1.09c0-0.2-0.05-0.27-0.26-0.27h-9.61c-0.19 0-0.26 0-0.26-0.25V5.21a1.35 1.35 0 0 1 0.05-0.29h0.06c0.13 0.21 0.25 0.43 0.4 0.63 a3.37 3.37 0 0 0 2.41 1.38 0.28 0.28 0 0 1 0.28 0.25 c0.22 0.86 0.45 1.72 0.67 2.59 0 0.06-0.06 0.18 -0.12 0.22 a3.56 3.56 0 0 0-1.18 1.48 3.14 3.14 0 0 0 1.46 4.07 3.3 3.3 0 0 0 4-0.6 3.19 3.19 0 0 0 0.82-2.83 0.91 0.91 0 0 0-0.58-0.83 0.8 0.8 0 0 0-0.86 0.11 0.88 0.88 0 0 0-0.3 0.89 1.5 1.5 0 0 1-1 1.85 1.63 1.63 0 0 1-1.95-0.94 1.51 1.51 0 0 1 0.92-2 1 1 0 0 0 0.64-1.38c-0.28-1-0.54-2-0.81-3a0.23 0.23 0 0 1 0.13-0.3 3.39 3.39 0 0 0 1.61-2.18A3.3 3.3 0 0 0 37.15 0.89 a3.46 3.46 0 0 0-5.3 0.83 16.36 16.36 0 0 1-1.27 1.64c-1 1.24-2 2.48-3 3.71l-9.9 12.06c-1.05 1.27-2.09 2.55-3.14 3.83l-0.21 0.23 V10c0-0.31 0-0.31-0.32-0.31H6.47a0.39 0.39 0 0 0-0.38 0.22 c-1.66 2.81-3.34 5.61-5 8.42a0.81 0.81 0 0 0-0.11 0.41 v5.62c0 0.21-0.06 0.29 -0.27 0.27 -0.21-0.02-0.3 0-0.45 0-0.15 0-0.26 0.07 -0.26 0.26 V32.18c0 0.28 0 0.28 0.28 0.28h2.13c0.19 0 0.26-0.05 0.28 -0.25a4.87 4.87 0 0 1 2.48-4.11 5.05 5.05 0 0 1 7.36 2.71c0.132 0.447 0.219 0.906 0.26 1.37 0 0.28 0 0.28 0.32 0.28h8.37c0.16 0 0.27 0 0.27-0.25a4.75 4.75 0 0 1 0.93-2.69 5 5 0 0 1 8.08-0.2l0.17 0.25 zM29.71 7.3h0.08v17.09c0 0.21-0.09 0.23 -0.26 0.23 H15.47L29.71 7.3zM3.51 18.11a2.16 2.16 0 0 1 0.09-0.2c1.17-2.15 2.35-4.3 3.51-6.45a0.3 0.3 0 0 1 0.29-0.17h4.84c0.17 0 0.22 0.06 0.22 0.23 v6.37c0 0.18-0.05 0.24 -0.23 0.24 H3.75l-0.24-0.02zm31.34-13a1.63 1.63 0 0 1-1.69-1.67 1.69 1.69 0 1 1 1.69 1.67z" fill="#FFF"/>
  <path d="M26.76 35.73a3.29 3.29 0 1 0-3.29-3.26 3.28 3.28 0 0 0 3.29 3.26zM35.12 35.73a3.29 3.29 0 1 0-0.02-6.58 3.29 3.29 0 0 0 0.02 6.58zM7.72 35.73a3.29 3.29 0 1 0 0.037-6.58 3.29 3.29 0 0 0-0.037 6.58z" fill="#FFF"/>
</svg>
