<?xml version="1.0" ?>
<svg xmlns="http://www.w3.org/2000/svg" width="24" height="37" viewBox="0 0 24 37">
  <path d="M4.48 10.12v3.05a0.62 0.62 0 0 0 0.6 0.59 h13.41a0.61 0.61 0 0 0 0.61-0.61v-3.04h3.29a1.1 1.1 0 0 1 1.08 0.67 c0.063 0.138 0.097 0.288 0.1 0.44 v9.2a6.89 6.89 0 0 1-0.1 0.76 l-0.09 0.57 c-0.05 0.43 -0.1 0.86 -0.16 1.3-0.06 0.44 -0.13 0.83 -0.19 1.25-0.06 0.42 -0.1 0.85 -0.16 1.27-0.06 0.42 -0.13 0.84 -0.18 1.26a7.79 7.79 0 0 0-0.09 1v7a1.16 1.16 0 0 1-1.2 1.19H2.17A1.17 1.17 0 0 1 1 34.73v-7a8.36 8.36 0 0 0-0.12-1c0-0.19-0.06-0.38-0.08-0.57-0.06-0.43-0.1-0.87-0.16-1.3-0.1-0.58-0.2-1.16-0.28-1.75-0.06-0.41-0.1-0.83-0.16-1.25-0.06-0.42-0.12-0.86-0.2-1.27a1.28 1.28 0 0 1 0-0.19v-9.13a1.06 1.06 0 0 1 0.67-1 0.92 0.92 0 0 1 0.4-0.11h3.41v-0.04zm7.31 10.38h6.7a0.61 0.61 0 0 0 0.61-0.61v-3.28a0.61 0.61 0 0 0-0.62-0.63H5.09a0.62 0.62 0 0 0-0.62 0.62 v3.26a0.62 0.62 0 0 0 0.65 0.64 c2.22-0.01 4.45 0 6.67 0zm5.46 13.2h2.4a0.55 0.55 0 0 0 0.57-0.57v-1.39a0.62 0.62 0 0 0-0.6-0.59h-4.74a0.56 0.56 0 0 0-0.58 0.6 v1.35a0.59 0.59 0 0 0 0.6 0.6 c0.78-0.02 1.57 0 2.35 0zm3-9.7v-0.74a0.53 0.53 0 0 0-0.53-0.53h-1.2a0.53 0.53 0 0 0-0.53 0.53 v1.47a0.54 0.54 0 0 0 0.55 0.54 h1.16a0.54 0.54 0 0 0 0.55-0.55V24zm-9.56 4.21v0.72a0.54 0.54 0 0 0 0.55 0.55 h1.17a0.54 0.54 0 0 0 0.54-0.53v-1.46a0.54 0.54 0 0 0-0.55-0.55h-1.19a0.54 0.54 0 0 0-0.55 0.55 c-0.01 0.24 0 0.51 0 0.72h0.03zm7.3 0v0.72a0.54 0.54 0 0 0 0.56 0.56 h1.14a0.54 0.54 0 0 0 0.56-0.55V27.5a0.55 0.55 0 0 0-0.58-0.56h-1.15a0.55 0.55 0 0 0-0.56 0.56 l0.03 0.71 zM9.27 24v-0.7a0.55 0.55 0 0 0-0.57-0.57H7.56a0.53 0.53 0 0 0-0.55 0.55 c-0.007 0.48 -0.01 0.96 -0.01 1.44a0.54 0.54 0 0 0 0.55 0.55 h1.17a0.55 0.55 0 0 0 0.55-0.55V24zm1.39 0v0.74a0.54 0.54 0 0 0 0.53 0.53 h1.19a0.54 0.54 0 0 0 0.54-0.53v-1.46a0.54 0.54 0 0 0-0.55-0.55h-1.16a0.54 0.54 0 0 0-0.55 0.55 c-0.01 0.24 0 0.48 0 0.72zm2.26 8.44v-0.74a0.56 0.56 0 0 0-0.56-0.55h-1.14a0.54 0.54 0 0 0-0.56 0.56 v1.42a0.55 0.55 0 0 0 0.55 0.57 h1.15a0.55 0.55 0 0 0 0.56-0.56v-0.7zm-7.3-4.21v-0.74a0.55 0.55 0 0 0-0.56-0.55H3.92a0.55 0.55 0 0 0-0.57 0.57 v1.4a0.55 0.55 0 0 0 0.57 0.57 h1.14a0.54 0.54 0 0 0 0.56-0.55v-0.7zm0 4.22v-0.72a0.56 0.56 0 0 0-0.57-0.58H3.93a0.56 0.56 0 0 0-0.58 0.57 v1.41a0.56 0.56 0 0 0 0.57 0.57 h1.14a0.56 0.56 0 0 0 0.56-0.55v-0.7zm11-8.45v-0.72a0.55 0.55 0 0 0-0.55-0.55h-1.16a0.54 0.54 0 0 0-0.55 0.55 v1.44a0.54 0.54 0 0 0 0.55 0.55 H16a0.54 0.54 0 0 0 0.55-0.55l0.07-0.72zm-7.3 4.23v-0.72a0.56 0.56 0 0 0-0.57-0.57H7.56a0.54 0.54 0 0 0-0.55 0.55 v1.44a0.53 0.53 0 0 0 0.55 0.55 h1.16a0.54 0.54 0 0 0 0.55-0.55l0.05-0.7zM7 32.42v0.74c0 0.298 0.242 0.54 0.54 0.54h1.18a0.55 0.55 0 0 0 0.55-0.55v-1.43a0.56 0.56 0 0 0-0.56-0.57H7.55a0.55 0.55 0 0 0-0.55 0.55 v0.72zM3.35 24v0.72a0.56 0.56 0 0 0 0.56 0.57 h1.16a0.55 0.55 0 0 0 0.55-0.56v-1.45a0.54 0.54 0 0 0-0.56-0.55H3.9a0.55 0.55 0 0 0-0.55 0.55 V24zm11 4.23v0.72a0.53 0.53 0 0 0 0.55 0.55 H16a0.54 0.54 0 0 0 0.56-0.55v-1.46a0.54 0.54 0 0 0-0.55-0.55h-1.15a0.54 0.54 0 0 0-0.55 0.55 c-0.01 0.24 0 0.51 0 0.72l0.04 0.02 z" fill="#FFF"/>
  <path d="M14.58 0h5.29a3.68 3.68 0 0 1 2.45 0.8 3.22 3.22 0 0 1 1.16 2.09 5.87 5.87 0 0 1-0.39 2.59c-0.09 0.27 -0.2 0.53 -0.29 0.81 a0.57 0.57 0 0 1-0.62 0.4 h-3.91c-0.34 0-0.34 0-0.35 0.33 v4.79c0 0.16-0.05 0.22 -0.21 0.21 h-0.65c-0.14 0-0.19 0-0.19-0.18V3.68a4 4 0 0 1 0.45-2c0.1-0.16 0.22 -0.31 0.33 -0.47 0.11 -0.16 0.05 -0.18-0.09-0.21h-8.7a2.14 2.14 0 0 0-1.78 1 2.21 2.21 0 0 0-0.4 1.35v8.34c0 0.26 0 0.26-0.26 0.26 h-0.57c-0.15 0-0.2 0-0.2-0.19V7.74 3.63A3.9 3.9 0 0 1 6 1.83 3.27 3.27 0 0 1 7.78 0.28 a3.19 3.19 0 0 1 1-0.21C9.32 0 9.87 0 10.41 0h4.17zM20 5.65h1.83c0.1 0 0.18 0 0.23-0.12a5.44 5.44 0 0 0 0.49-2.28 2.1 2.1 0 0 0-1.14-1.88 2.18 2.18 0 0 0-2.6 0.22 2.1 2.1 0 0 0-0.84 1.68v2.14c0 0.23 0 0.25 0.23 0.25l1.8-0.01z" fill="#FFF"/>
  <path d="M10.24 8.37H8.52c-0.15 0-0.21 0-0.2-0.2 0.01 -0.2 0-0.42 0-0.63 0-0.21 0-0.21 0.21 -0.21H12c0.14 0 0.19 0 0.19 0.18 v0.65c0 0.21 0 0.22-0.21 0.21 h-1.74zM13.61 11.18h-1.44c-0.16 0-0.21 0-0.2-0.2 0.01 -0.2 0-0.46 0-0.68 0-0.22 0-0.16 0.16 -0.16h3c0.12 0 0.17 0 0.17 0.17 v0.7c0 0.24 0 0.17-0.18 0.17 h-1.51zM13.89 5.56h-1.15c-0.15 0-0.22 0-0.21-0.19 0.01 -0.19 0-0.45 0-0.67 0-0.22 0-0.18 0.17 -0.18h2.39c0.11 0 0.17 0 0.17 0.16 v0.71c0 0.24-0.06 0.18 -0.19 0.18 l-1.18-0.01zM9.55 5.56H8.5c-0.14 0-0.19 0-0.18-0.18v-0.69c0-0.11 0-0.17 0.16 -0.17h2.12c0.12 0 0.16 0.05 0.16 0.17 v0.7c0 0.23 0 0.18-0.18 0.18 l-1.03-0.01zM9.28 10.14H10c0.13 0 0.18 0 0.17 0.17 V11c0 0.12 0 0.16-0.17 0.16 H8.49c-0.13 0-0.18 0-0.17-0.18v-0.7c0-0.12 0-0.16 0.17 -0.16l0.79 0.02 zM14.6 7.33h0.5c0.1 0 0.16 0 0.16 0.15 v0.72c0 0.24 0 0.17-0.16 0.17 h-1c-0.09 0-0.14 0-0.14-0.13v-0.77a0.12 0.12 0 0 1 0.14-0.14h0.5zM17.92 18.24v-0.91c0-0.12 0-0.17-0.16-0.17h-0.72c-0.24 0-0.16 0-0.16 0.15 v1.85c0 0.13 0.06 0.17 0.18 0.16h0.69c0.14 0 0.18-0.06 0.18 -0.19-0.01-0.29-0.01-0.59-0.01-0.89zm-2 0v-0.91c0-0.13 0-0.19-0.17-0.18-0.17 0.01 -0.47 0-0.7 0-0.23 0-0.17 0.05 -0.17 0.18 v1.81c0 0.14 0.05 0.18 0.19 0.18h0.64c0.15 0 0.22 0 0.21-0.19-0.01-0.19 0.08 -0.59 0.08 -0.88l-0.08-0.01zm-2 0v-0.93c0-0.11 0-0.16-0.15-0.16h-0.72c-0.12 0-0.17 0-0.17 0.16 v1.84c0 0.12 0.05 0.17 0.17 0.16h0.7c0.14 0 0.18-0.06 0.18 -0.19 0.07 -0.28 0.07 -0.58 0.07 -0.87l-0.08-0.01z" fill="#FFF"/>
  <path d="M17.92 18.24v0.9c0 0.13 0 0.19-0.18 0.19 h-0.69c-0.12 0-0.18 0-0.18-0.16v-1.85c0-0.11 0.05 -0.15 0.16 -0.15h0.72c0.24 0 0.17 0.05 0.16 0.17 v0.91l0.01-0.01zM16 18.25v0.88c0 0.3-0.06 0.2 -0.21 0.19 h-0.64c-0.14 0-0.19 0-0.19-0.18v-1.8c0-0.13 0-0.18 0.17 -0.18h0.7c0.23 0 0.17 0.05 0.17 0.18 v0.91zM14 18.25v0.89c0 0.13 0 0.19-0.18 0.19 h-0.7c-0.12 0-0.17 0-0.17-0.16v-1.85c0-0.12 0.05 -0.17 0.17 -0.16h0.72c0.11 0 0.15 0.05 0.15 0.16 v0.93H14z" fill="#FFF"/>
</svg>
