<?xml version="1.0" ?>
<svg xmlns="http://www.w3.org/2000/svg" width="36" height="36" viewBox="0 0 36 36">
  <path d="M12 27.36c0-0.25 0.21 -0.31 0.42 -0.36 0.21 -0.05 0.49 -0.17 0.73 -0.24a0.83 0.83 0 0 1 1 0.61 1 1 0 0 1-0.16 0.57 2.54 2.54 0 0 0-0.26 0.85 c-0.08 0.44 -0.21 0.87 -0.33 1.3-0.06 0.23 -0.13 0.46 -0.18 0.69 -0.05 0.23 -0.08 0.15 -0.2 0.17 a2.45 2.45 0 0 1-1.59-0.48 19.36 19.36 0 0 1-2.8-1.89 4.8 4.8 0 0 1-1-1c-0.08-0.13-0.26-0.19-0.36-0.31a1.21 1.21 0 0 1-0.28-0.4 0.7 0.7 0 0 1 0.3-0.83c0.77-0.59 1.54-1.17 2.33-1.73a8 8 0 0 1 1-0.62 5.13 5.13 0 0 0 0.72-0.28 5 5 0 0 1 1.4-0.51c0.34-0.12 0.71 -0.19 1.06-0.28a5.24 5.24 0 0 1 0.53-0.08c0.53 0 1-0.12 1.57-0.14 0.289 0.008 0.577 0.042 0.86 0.1 0.24 0 0.48 0.07 0.72 0.09 a0.15 0.15 0 0 1 0.16 0.14 c0.06 0.36 0.14 0.71 0.18 1.07 0.08 0.58 0.17 1.16 0.2 1.75 0.03 0.59 0 1.16 0 1.74a9.45 9.45 0 0 1-0.1 1.07c-0.08 0.51 -0.17 1-0.28 1.52a10.53 10.53 0 0 1-0.38 1.36c-0.26 0.72 -0.52 1.45-0.84 2.15-0.32 0.7 -0.75 1.4-1.14 2.1a0.36 0.36 0 0 1-0.47 0.21 c-0.5-0.14-1-0.19-1.51-0.34-0.77-0.23-1.53-0.5-2.28-0.79a15.88 15.88 0 0 1-3.43-1.88A18.21 18.21 0 0 1 4 29.21a18.52 18.52 0 0 1-2.15-3.37 0.26 0.26 0 0 1 0.06-0.32 15.24 15.24 0 0 1 3.29-3 33.57 33.57 0 0 1 4-2.3c1.15-0.56 2.32-1.1 3.5-1.61 0.88 -0.39 1.78-0.72 2.67-1.08l0.59-0.23c0.23-0.07 0.29 -0.28 0.37 -0.45 0.43 -0.9 0.87 -1.79 1.25-2.71 0.246 -0.62 0.456 -1.255 0.63 -1.9 0.14 -0.5 0.24 -1 0.35-1.54a3.56 3.56 0 0 0 0.08-0.57c0-0.77 0.08 -1.54 0.06 -2.31a19.66 19.66 0 0 0-0.21-2 9.72 9.72 0 0 0-0.93-3 4.37 4.37 0 0 1-0.18-0.46c0-0.09-0.08-0.17-0.2-0.15-0.57 0.07 -1.15 0.12 -1.72 0.2 -0.37 0.06 -0.738 0.14 -1.1 0.24 -0.47 0.12 -0.94 0.24 -1.39 0.4 -0.62 0.22 -1.23 0.45 -1.82 0.72 a10.09 10.09 0 0 0-3.39 2.16 5.82 5.82 0 0 1-0.45 0.4 0.45 0.45 0 0 0-0.07 0.72 17.17 17.17 0 0 0 3.29 3.36c0.89 0.66 1.81 1.28 2.73 1.9 0.119 0.076 0.246 0.136 0.38 0.18a0.26 0.26 0 0 0 0.37-0.14 5.45 5.45 0 0 0 0.29-0.89 16.34 16.34 0 0 0 0.25-2.7v-0.58a0.82 0.82 0 0 0-0.09-0.55 0.66 0.66 0 0 1 0-0.25c0-0.24-0.05-0.47-0.08-0.76l-0.47 0.11 -1.14 0.35 c-0.17 0-0.21 0.14 -0.15 0.29 a0.54 0.54 0 0 0 0.37 0.31 c0.12 0 0.13 0.08 0.13 0.18 a5.51 5.51 0 0 1-0.28 1.93 0.29 0.29 0 0 0 0 0.09 0.38 0.38 0 0 1-0.57 0.3 c-0.38-0.24-0.77-0.46-1.13-0.74a8.55 8.55 0 0 1-1.8-1.9 0.35 0.35 0 0 1 0-0.3 1.94 1.94 0 0 1 0.82-0.88 9.39 9.39 0 0 1 2.14-1.23c0.47-0.19 1-0.35 1.45-0.5A8.12 8.12 0 0 1 16 4.26a0.49 0.49 0 0 1 0.49 0.31 3 3 0 0 1 0.3 1.19c0 0.84 0.07 1.67 0.06 2.5a8.81 8.81 0 0 1-0.15 1.7c-0.11 0.55 -0.31 1.09-0.47 1.64-0.09 0.29 -0.16 0.59 -0.25 0.88 a8.47 8.47 0 0 1-1 2.42c-0.1 0.13 -0.18 0.27 -0.29 0.4 a0.56 0.56 0 0 1-0.71 0.1 c-0.63-0.26-1.26-0.52-1.88-0.81a21.59 21.59 0 0 1-3.73-2.07c-0.5-0.412-0.958-0.87-1.37-1.37-0.35-0.4-0.73-0.78-1-1.22a11 11 0 0 1-0.8-1.32c-0.33-0.61-0.61-1.15-0.88-1.74a0.54 0.54 0 0 1 0.09-0.64 18.07 18.07 0 0 1 5.76-4.43 18.27 18.27 0 0 1 2.53-1 14.74 14.74 0 0 1 1.59-0.4c0.65-0.13 1.3-0.22 1.95-0.31a17.59 17.59 0 0 1 3.08 0 0.26 0.26 0 0 1 0.19 0.12 c0.23 0.47 0.47 0.94 0.67 1.43 0.2 0.49 0.35 1 0.5 1.55 0.15 0.55 0.23 0.95 0.32 1.43s0.19 1 0.27 1.51c0.04 0.22 0.07 0.44 0.09 0.66 0 0.62 0.09 1.24 0.07 1.85a12.88 12.88 0 0 1-0.19 1.52c0 0.36-0.1 0.72 -0.17 1.08a6.06 6.06 0 0 1-0.48 1.71 5.07 5.07 0 0 0-0.25 0.78 c-0.16 0.44 -0.34 0.86 -0.5 1.3a4.4 4.4 0 0 0-0.24 0.86 c-0.035 0.429 0.11 0.852 0.4 1.17 1.2 1.52 2.3 3.1 3.64 4.5A9.91 9.91 0 0 0 27.28 24c0.72 0.27 1.45 0.51 2.18 0.74 0.52 0.16 1 0.3 1.56 0.43 0.263 0.067 0.53 0.114 0.8 0.14 a0.87 0.87 0 0 0 0.84-0.4c0.304-0.47 0.53 -0.987 0.67 -1.53 0.13 -0.42 0.25 -0.83 0.36 -1.25 0.11 -0.42 0.12 -0.62 0.17 -0.93 0.05 -0.31 0.15 -0.92 0.19 -1.39 0.04 -0.47 0-1 0.05-1.5v-0.91c0-0.64-0.08-1.27-0.17-1.9a2.54 2.54 0 0 0-0.27-1.08 0.4 0.4 0 0 0-0.4-0.24c-0.62 0-1.25 0-1.87 0.1 a11.71 11.71 0 0 0-5.57 2.23l-0.65 0.44 a0.21 0.21 0 0 0 0 0.16c0.166 0.466 0.452 0.88 0.83 1.2a12.37 12.37 0 0 0 2.42 1.63c0.31 0.18 0.64 0.34 1 0.49 0.36 0.15 0.54 0.05 0.61 -0.31v-1.49a3.38 3.38 0 0 1-2-0.83l-0.22-0.19c-0.24-0.25-0.24-0.5 0-0.68 0.417 -0.286 0.855 -0.54 1.31-0.76 0.4 -0.188 0.82 -0.332 1.25-0.43a1.64 1.64 0 0 1 1.23 0 0.64 0.64 0 0 1 0.34 0.49 A20 20 0 0 1 32 19c0.025 0.28 0.025 0.56 0 0.84-0.07 0.54 -0.16 1.08-0.27 1.61-0.11 0.53 -0.2 0.79 -0.32 1.17a3.18 3.18 0 0 1-0.24 0.53 0.17 0.17 0 0 1-0.13 0.07 3.93 3.93 0 0 1-1.44-0.2c-0.17-0.08-0.32-0.21-0.5-0.28-0.4-0.18-0.82-0.3-1.2-0.49a11.83 11.83 0 0 1-2.06-1.46 29.66 29.66 0 0 1-3.21-3c-0.22-0.25-0.43-0.51-0.64-0.77a0.4 0.4 0 0 1 0-0.57 10.9 10.9 0 0 1 1.09-0.95 32.28 32.28 0 0 1 4.36-2.65 9.92 9.92 0 0 1 1.67-0.64 17.42 17.42 0 0 1 1.9-0.43 10.69 10.69 0 0 1 2.88-0.17c0.246 0.015 0.494 0.015 0.74 0a0.24 0.24 0 0 1 0.27 0.2 c0.2 0.63 0.41 1.25 0.58 1.89 0.12 0.42 0.18 0.86 0.26 1.28a16.37 16.37 0 0 1 0.26 3.43 17.53 17.53 0 0 1-0.15 1.92 20.93 20.93 0 0 1-0.44 2.23 17.86 17.86 0 0 1-2.55 5.58 0.27 0.27 0 0 1-0.29 0.14 c-0.55-0.07-1.1-0.13-1.65-0.22a13.73 13.73 0 0 1-1.41-0.33 16 16 0 0 1-4.56-2.17 29.92 29.92 0 0 1-3.73-3.1c-0.6-0.57-1.23-1.1-1.86-1.63a1.63 1.63 0 0 0-1.13-0.37h-2.35a15.7 15.7 0 0 0-1.94 0.16 11.89 11.89 0 0 0-5.38 2.28c-0.67 0.5 -1.35 1-2 1.51A6.42 6.42 0 0 0 5 26.22a0.86 0.86 0 0 0 0.06 1 15.38 15.38 0 0 0 5 4.46c0.68 0.36 1.37 0.69 2.06 1 0.093 0.047 0.184 0.1 0.27 0.16 0.236 0.188 0.528 0.29 0.83 0.29 a0.28 0.28 0 0 0 0.22-0.11 10.08 10.08 0 0 0 1-2c0.18-0.53 0.35 -1.06 0.5 -1.59 0.15 -0.53 0.16 -0.83 0.25 -1.25a17.48 17.48 0 0 0 0.26-2.6v-1c0-0.12-0.05-0.19-0.18-0.16l-1 0.26c-0.23 0.07 -0.47 0.12 -0.71 0.2 a0.56 0.56 0 0 0-0.24 0.13 1 1 0 0 1-0.57 0.31 3.87 3.87 0 0 0-1.2 0.52 c-0.48 0.29 -1 0.58-1.42 0.89 -0.18 0.12 -0.17 0.21 0 0.39a2.3 2.3 0 0 0 1.18 0.78 0.15 0.15 0 0 0 0.15-0.07c0.13-0.37 0.17 -0.41 0.54 -0.47z" fill="#FFF"/>
  <path d="M21.61 0.33 a17.71 17.71 0 0 1 6.67 2.87 18.11 18.11 0 0 1 5.81 6.8h-0.71c-0.36 0-0.72-0.05-1.07 0a7.36 7.36 0 0 0-0.82 0.12 c-0.58 0.08 -1.17 0.14 -1.74 0.25 -0.76 0.14 -1.52 0.32 -2.27 0.5 a10.55 10.55 0 0 0-3.12 1.19c-0.4 0.24 -0.75 0.56 -1.13 0.84 a3.07 3.07 0 0 1-0.42 0.28 0.36 0.36 0 0 1-0.53-0.35 4 4 0 0 1 0.09-0.68 9.31 9.31 0 0 0 0.24-1.26c0.05-1.64 0.09 -3.27 0.09 -4.91a15.25 15.25 0 0 0-0.21-2 8.89 8.89 0 0 0-0.24-1.25c-0.13-0.45-0.3-0.89-0.47-1.32a1.52 1.52 0 0 1-0.17-1.08zm3.08 3.4c0 0.2 0 0.34 0.06 0.48 0.12 0.65 0.26 1.3 0.34 2A11.45 11.45 0 0 1 25 8.57v0.55l0.31-0.12c0.51-0.2 1-0.45 1.54-0.61 1-0.3 1.93-0.55 2.9-0.81 0.12 0 0.15-0.06 0.09 -0.18a1.67 1.67 0 0 0-0.34-0.48c-0.67-0.59-1.33-1.18-2-1.72-0.716-0.55-1.503-1-2.34-1.34-0.16-0.05-0.3-0.08-0.47-0.13zM3 8.14a5.9 5.9 0 0 0 1.42 2.75A21.33 21.33 0 0 0 9.07 15c0.5 0.34 1 0.63 1.57 0.93 a5 5 0 0 1 0.52 0.26 c0.2 0.13 0.18 0.28 0 0.4-0.91 0.51 -1.83 1-2.74 1.54A37.15 37.15 0 0 0 4 21.08a11.1 11.1 0 0 0-2.47 2.51c-0.14 0.2 -0.25 0.42 -0.39 0.67 a4.67 4.67 0 0 1-0.35-1.06 18 18 0 0 1 0.69-12.4A13.29 13.29 0 0 1 3 8.14zm4 8.29v-0.07a1.48 1.48 0 0 1-0.21-0.13c-0.37-0.32-0.73-0.66-1.11-1l-2.56-2.1c-0.14-0.12-0.19-0.1-0.24 0.08 a13.34 13.34 0 0 0-0.56 2.06 8.88 8.88 0 0 0-0.16 1.12c0 0.89 0 1.78 0.07 2.67 0 0.17 0.07 0.22 0.23 0.15a6.13 6.13 0 0 0 0.84-0.45c0.7-0.48 1.38-1 2.07-1.48a6.16 6.16 0 0 1 1.55-0.85H7zM19.83 24.27a0.47 0.47 0 0 1 0.69 0.23 c0.311 0.528 0.747 0.97 1.27 1.29a19.82 19.82 0 0 0 3.83 2c0.72 0.3 1.44 0.61 2.18 0.86 0.74 0.25 1.42 0.41 2.14 0.6 0.165 0.03 0.335 0.03 0.5 0 0.27 0 0.53-0.09 0.8 -0.1a5.58 5.58 0 0 1 0.67 0 2 2 0 0 1-0.12 0.22 18.09 18.09 0 0 1-5.31 4.33 17 17 0 0 1-2.63 1.15c-0.65 0.22 -1.31 0.38 -2 0.55a13.88 13.88 0 0 1-2.65 0.38 l-1.91 0.05 a0.64 0.64 0 0 1-0.17-0.05 0.44 0.44 0 0 1 0.07-0.17c0.303-0.39 0.537 -0.83 0.69 -1.3 0.204 -0.448 0.43 -0.885 0.68 -1.31 0.339 -0.637 0.61 -1.307 0.81 -2 0.14-0.59 0.28 -1.17 0.37 -1.77 0.16 -1.083 0.19 -2.18 0.09 -3.27-0.04-0.57 0-1.12 0-1.69zm2.22 4.34c0 0.24-0.05 0.45 -0.05 0.65 a8.55 8.55 0 0 1-0.43 2.36c-0.19 0.58 -0.37 1.15-0.54 1.73-0.1 0.36 -0.09 0.37 0.28 0.32 a7.46 7.46 0 0 0 1.91-0.55c1.13-0.48 2.25-1 3.37-1.5a1.3 1.3 0 0 0 0.58-0.6c-0.83-0.35-1.64-0.68-2.44-1-0.8-0.32-1.38-0.63-2.06-1a6 6 0 0 1-0.62-0.41z" fill="#FFF"/>
</svg>
