<?xml version="1.0" ?>
<svg xmlns="http://www.w3.org/2000/svg" width="31" height="31" viewBox="0 0 31 31">
  <path d="M13.32 12.7h4.45c0.22 0 0.22 0 0.22-0.23V8.31a1.19 1.19 0 0 1 2.32-0.43c0.04 0.143 0.06 0.291 0.06 0.44 v4.21c0 0.14 0 0.18 0.18 0.18a5.59 5.59 0 0 1 0.77 0.05 c0.484 0.11 0.85 0.508 0.92 1a6.33 6.33 0 0 1 0 0.71v3.92a5 5 0 0 1-1.6 3.72 4.9 4.9 0 0 1-1.85 1.11 4.44 4.44 0 0 1-1.48 0.25 c-0.14 0-0.2 0-0.2 0.19 v2a2.2 2.2 0 0 0 0.25 1.08 0.89 0.89 0 0 0 0.69 0.45 c0.45 0.047 0.904 0.01 1.34-0.11a8.92 8.92 0 0 0 2.93-1.19A11.83 11.83 0 0 0 24.59 24a12.27 12.27 0 0 0 2.3-3.47 9.9 9.9 0 0 0 0.61-1.73c0.113-0.487 0.217 -0.977 0.31 -1.47 0.168 -0.991 0.201 -2 0.1-3a11.79 11.79 0 0 0-0.29-1.66 13.12 13.12 0 0 0-0.45-1.54A11.71 11.71 0 0 0 26 8.76a12.6 12.6 0 0 0-2.78-3.08 12 12 0 0 0-3-1.76 14.28 14.28 0 0 0-1.71-0.57A10.72 10.72 0 0 0 17 3.09 13.71 13.71 0 0 0 15.18 3a12.84 12.84 0 0 0-1.87 0.18 12.15 12.15 0 0 0-4.8 1.92 12.41 12.41 0 0 0-4.18 4.74 12.07 12.07 0 0 0-0.78 1.92c-0.14 0.45 -0.23 0.92 -0.33 1.39A10.67 10.67 0 0 0 3 15.81c0.029 0.54 0.086 1.077 0.17 1.61 0.064 0.445 0.154 0.886 0.27 1.32 0.214 0.798 0.509 1.572 0.88 2.31A12.54 12.54 0 0 0 7.38 25c0.596 0.485 1.224 0.93 1.88 1.33a7.6 7.6 0 0 1 1.55 1 1.5 1.5 0 0 1 0.51 1.21 1.29 1.29 0 0 1-1.07 1.15 2.44 2.44 0 0 1-1.53-0.33 15.69 15.69 0 0 1-3.92-2.72 15.09 15.09 0 0 1-3.17-4.29 18.9 18.9 0 0 1-0.83-2 15 15 0 0 1-0.48-1.71c-0.1-0.45-0.14-0.92-0.21-1.38A12 12 0 0 1 0 14.9c0-0.55 0.09 -1.1 0.16 -1.64 0.048 -0.404 0.118 -0.804 0.21 -1.2 0.118 -0.487 0.262 -0.968 0.43 -1.44 0.21 -0.59 0.43 -1.18 0.69 -1.75A14.35 14.35 0 0 1 3.22 6a15.45 15.45 0 0 1 1.8-2 14.76 14.76 0 0 1 3.47-2.4 19 19 0 0 1 1.85-0.71 14.36 14.36 0 0 1 1.6-0.46 14 14 0 0 1 1.53-0.29A15.83 15.83 0 0 1 16.24 0c0.41 0 0.82 0.06 1.23 0.12 0.41 0.06 1 0.18 1.52 0.29 a10.7 10.7 0 0 1 1.07 0.27 c0.43 0.14 0.85 0.31 1.28 0.47 a14 14 0 0 1 2.85 1.52 15.37 15.37 0 0 1 3 2.67 15.82 15.82 0 0 1 2.16 3.25c0.364 0.734 0.668 1.497 0.91 2.28 0.134 0.43 0.244 0.868 0.33 1.31 0.127 0.601 0.22 1.209 0.28 1.82a11 11 0 0 1 0 2.3c0 0.32 0 0.64-0.08 1s-0.14 0.92 -0.23 1.38a10.25 10.25 0 0 1-0.26 1.06c-0.17 0.54 -0.36 1.08-0.55 1.62a14 14 0 0 1-1.17 2.38 14.34 14.34 0 0 1-3.32 3.84 11.23 11.23 0 0 1-2.94 1.75c-0.58 0.23 -1.17 0.42 -1.76 0.6 -0.36 0.11 -0.74 0.13 -1.12 0.21 a9.92 9.92 0 0 1-1.86 0.14 c-0.43 0-0.85 0-1.28-0.07l-0.55-0.21a1.5 1.5 0 0 1-1-0.64 3.17 3.17 0 0 1-0.54-1.3 9.85 9.85 0 0 1-0.11-2v-2.48c0-0.2 0-0.22-0.2-0.22a4.92 4.92 0 0 1-3.75-1.83A4.71 4.71 0 0 1 9.28 20 5 5 0 0 1 9 18.39V14a1.28 1.28 0 0 1 1.29-1.28h0.43c0.14 0 0.16-0.05 0.16 -0.17v-2.06-2.15a1.21 1.21 0 0 1 0.68-1.17 1.17 1.17 0 0 1 1.67 0.77 c0.035 0.164 0.052 0.332 0.05 0.5 v4.1c0.03 0.04 0.03 0.09 0.04 0.16 z" fill="#FFF"/>
</svg>
