<?xml version="1.0" ?>
<svg xmlns="http://www.w3.org/2000/svg" width="36" height="36" viewBox="0 0 36 36">
  <path d="M17.44 0A17.17 17.17 0 0 0 5.13 5.2 17 17 0 0 0 0 17.6a17 17 0 0 0 5.45 12.77 17 17 0 0 0 12.16 4.86 17 17 0 0 0 12.5-5.18 17 17 0 0 0 5.13-12.42 17.06 17.06 0 0 0-5.56-12.85A17.36 17.36 0 0 0 17.44 0z" fill="#FFF"/>
  <path d="M17.44 0a17.36 17.36 0 0 1 12.24 4.78 17.06 17.06 0 0 1 5.56 12.85 17 17 0 0 1-5.13 12.42 17 17 0 0 1-12.5 5.18 17 17 0 0 1-12.16-4.86A17 17 0 0 1 0 17.6 17 17 0 0 1 5.13 5.2 17.17 17.17 0 0 1 17.44 0zm6.18 5.77a2.42 2.42 0 0 0 0 0.27 1.07 1.07 0 0 1-0.23 0.8 c-0.05 0 0 0.18 0 0.27a0.94 0.94 0 0 0 0.16 0.2 0.22 0.22 0 0 1 0 0.32 5.62 5.62 0 0 1-0.41 0.44 0.9 0.9 0 0 0-0.3 0.65 1.37 1.37 0 0 1-0.05 0.28 c-0.06 0.19 -0.16 0.24 -0.33 0.12 a0.51 0.51 0 0 1-0.18-0.25c0-0.16 0-0.34-0.08-0.5a0.61 0.61 0 0 0-0.12-0.27 5.07 5.07 0 0 0-0.61-0.52c-0.31-0.22-0.64-0.41-1-0.61a0.94 0.94 0 0 1-0.27-1.17 1.7 1.7 0 0 1 0.63-0.62l0.39-0.18a3.37 3.37 0 0 1 0.37-0.29 3.17 3.17 0 0 1 0.55-0.28 0.39 0.39 0 0 1 0.3 0c0.11 0.07 0 0.16 0 0.24a1.66 1.66 0 0 0-0.1 0.29 c0 0.12 0.06 0.15 0.19 0.13a1 1 0 0 1 0.35 0c0.105 0.03 0.209 0.067 0.31 0.11 0.05 0.01 0.1 0.01 0.15 0a1 1 0 0 0-0.1-0.2 0.26 0.26 0 0 0-0.1-0.07l-0.57-0.52s-0.06-0.11 0-0.14a0.17 0.17 0 0 1 0.14-0.06h0.33a0.21 0.21 0 0 0 0.25-0.18c0-0.11 0.07 -0.22 0.1 -0.34a0.34 0.34 0 0 0 0-0.14c0-0.21 0-0.27 0.23 -0.19 0.262 0.084 0.499 0.232 0.69 0.43 0.13 0.19 0.31 0.34 0.44 0.53a0.25 0.25 0 0 1 0 0.24 4.13 4.13 0 0 1-0.25 0.38 0.19 0.19 0 0 1-0.26 0.08 1.38 1.38 0 0 0-0.31-0.02 0.18 0.18 0 0 0-0.09 0 0.08 0.08 0 0 0 0 0.08 0.6 0.6 0 0 0 0.38 0.24 0.31 0.31 0 0 1 0.16 0.06 l0.32 0.26 0.7 0.69 a0.29 0.29 0 0 0 0.41 0c0.09-0.09 0.05 -0.19 0-0.29a3.62 3.62 0 0 1-0.2-0.45v-0.14c0-0.05 0.1 0 0.13 0 0.092 0.088 0.179 0.182 0.26 0.28 0.17-0.13 0.23 -0.28 0.15 -0.4-0.08-0.12-0.3-0.41-0.44-0.62a0.58 0.58 0 0 1-0.09-0.26 0.71 0.71 0 0 0-0.37-0.66 1.21 1.21 0 0 1-0.2-0.19 0.92 0.92 0 0 0-0.05-0.12 1.72 1.72 0 0 1-0.52-0.48 1.13 1.13 0 0 0-0.36-0.33c-0.25-0.11-0.53-0.18-0.79-0.29a1 1 0 0 0-0.88 0c-0.17 0.08 -0.19 0.14 -0.1 0.29 0.09 0.15 0 0.06 0 0.09s0.05 0.2 0.17 0.25 c0.12 0.05 0.32 0.07 0.3 0.23 -0.02 0.16 -0.16 0.25 -0.25 0.36 a0.21 0.21 0 0 1-0.1 0.06 c-0.09 0-0.18 0-0.22-0.09a0.55 0.55 0 0 0-0.39-0.38 0.41 0.41 0 0 1-0.15-0.07 0.17 0.17 0 0 1 0-0.14v-0.26-0.37c0-0.13 0.05 -0.14 0.15 -0.15l0.45-0.07-1.13-0.27a0.27 0.27 0 0 0-0.3 0.11 0.47 0.47 0 0 0 0 0.46c0.08 0.25 0.08 0.29 -0.14 0.45 -0.22 0.16 -0.31 0.25 -0.47 0.36 a0.31 0.31 0 0 1-0.18 0.07 4.42 4.42 0 0 1-0.73-0.1 0.53 0.53 0 0 1-0.44-0.33 2.23 2.23 0 0 1 0.23 0c0.15 0.015 0.3 0.015 0.45 0 0.12-0.02 0.237 -0.054 0.35 -0.1a1.23 1.23 0 0 1-0.11-0.39c0.022-0.15 0.07 -0.295 0.14 -0.43 0-0.1 0-0.15-0.09-0.15l-0.63 0.09 a0.84 0.84 0 0 1-0.71-0.05h-0.12c-0.04 0-0.09 0-0.1-0.05-0.01-0.05-0.21-0.14-0.33-0.15a3.24 3.24 0 0 0-1.28 0.13 c-0.1 0-0.19 0.1 -0.29 0.15 0.184 0.043 0.371 0.073 0.56 0.09 a0.75 0.75 0 0 1 0.49 0.28 l-0.28 0.15 0.17 0.14 a0.58 0.58 0 0 1 0.1 0.12 h-0.15a3 3 0 0 1-1.13-0.25 3.28 3.28 0 0 0-0.73-0.24c-0.336 0-0.67 0.034 -1 0.1a3.39 3.39 0 0 1-1 0.17l-0.39-0.07c-0.35 0-0.7 0-1-0.1a3.33 3.33 0 0 0-1.63 0.12 c-0.5 0.16 -1 0.33-1.49 0.53 a0.63 0.63 0 0 0-0.5 0.66 v0.08a4.15 4.15 0 0 1-0.34 0.24 s-0.08 0-0.11-0.05a0.58 0.58 0 0 1 0-0.11 1.51 1.51 0 0 0-0.82 0.69 v0.14a0.18 0.18 0 0 0 0.13 0 1.24 1.24 0 0 1 0.16 0 0.47 0.47 0 0 1 0.16 0v0.16a2.87 2.87 0 0 1-0.5 0.36 2.21 2.21 0 0 0-1.38 1.22 0.06 0.06 0 0 0 0 0.06 0.66 0.66 0 0 1 0.06 0.48 c-0.02 0.1 0.05 0.1 0.19 0.1 a0.48 0.48 0 0 1 0.17 0c0.12 0 0.16 0.06 0.1 0.17 -0.06 0.11 -0.09 0.14 -0.14 0.2 -0.36 0.42 -0.72 0.82 -1.07 1.24-0.11 0.12 -0.21 0.26 -0.32 0.39 l0.07-0.05c0.58-0.6 1.17-1.2 1.74-1.8 0.2 -0.22 0.37 -0.47 0.56 -0.69a0.54 0.54 0 0 1 0.22-0.15h0.24c0.26-0.16 0.52 -0.34 0.77 -0.51 0.1 -0.072 0.203 -0.14 0.31 -0.2h0.14c0.05 0 0.08 0.16 0.16 0.19 0.095 0.036 0.192 0.066 0.29 0.09 0.302 0.102 0.544 0.333 0.66 0.63 0.01 0.05 0.01 0.1 0 0.15a2.13 2.13 0 0 0 0 0.44c0.06 0.25 0 0.53 0.24 0.74a0.15 0.15 0 0 1 0 0.23l-0.14 0.06 0.1 0.13 c0.171 0.177 0.28 0.405 0.31 0.65 a0.64 0.64 0 0 1-0.18 0.49 c-0.17 0.18 -0.15 0.27 0 0.41 0.15 0.14 0.15 0.12 0.24 0.17 0.09 0.05 0.19 0.25 0.15 0.45-0.04 0.2 -0.05 0.22 -0.07 0.33 -0.02 0.11 0 0.15 0 0.21-0.11 0.31 -0.25 0.61 -0.34 0.93 a8.92 8.92 0 0 0-0.25 1c-0.05 0.365 -0.08 0.732 -0.09 1.1a0.63 0.63 0 0 0 0.1 0.4 c0.11 0.17 0.169 0.368 0.17 0.57 a0.74 0.74 0 0 0 0.37 0.7 c0.313 0.154 0.546 0.434 0.64 0.77 0.07 0.24 0.13 0.49 0.22 0.73 0.147 0.24 0.223 0.518 0.22 0.8 0.24 0.38 0.48 0.77 0.74 1.14 0.06 0.08 0.19 0.11 0.32 0.18a1.09 1.09 0 0 0 0-0.13l-0.31-0.69c-0.16-0.37-0.32-0.75-0.47-1.13a0.56 0.56 0 0 1 0-0.13H12a0.43 0.43 0 0 1 0.13 0.09 c0.16 0.19 0.34 0.38 0.48 0.58 0.28 0.41 0.55 0.85 0.83 1.26 0.197 0.255 0.34 0.548 0.42 0.86a0.54 0.54 0 0 0 0.08 0.19 c0.217 0.287 0.498 0.52 0.82 0.68 0.326 0.12 0.66 0.217 1 0.29 0.35 0.08 0.72 0.12 1.08 0.2 0.36 0.08 1 0.23 1.53 0.37 0.348 0.082 0.656 0.284 0.87 0.57 0.135 0.191 0.308 0.351 0.51 0.47 0.286 0.148 0.584 0.272 0.89 0.37 a0.36 0.36 0 0 0 0.46-0.11 0.17 0.17 0 0 1 0.1 0 0.76 0.76 0 0 1 0.54 0.44 c0.06 0.347 -0.01 0.703 -0.2 1a4.51 4.51 0 0 1-0.4 0.47 0.65 0.65 0 0 0-0.22 0.54 1.75 1.75 0 0 1-0.23 1.05 0.43 0.43 0 0 0 0.1 0.5 c0.16 0.21 0.33 0.41 0.47 0.63 0.201 0.357 0.514 0.638 0.89 0.8 0.19 0.08 0.39 0.14 0.58 0.24 a1 1 0 0 1 0.43 0.32 c0.1 0.198 0.14 0.42 0.12 0.64 a5.68 5.68 0 0 1-0.19 0.93 2.77 2.77 0 0 0-0.17 1 0.68 0.68 0 0 1-0.18 0.51 c-0.06 0.08 -0.14 0.15 -0.19 0.23 a0.6 0.6 0 0 0-0.08 0.31 0.4 0.4 0 0 1-0.11 0.35 l-0.21 0.24 0.24 0.13 a0.94 0.94 0 0 1-0.17 0.11 c-0.08 0.05 -0.17 0.1 -0.13 0.2 a0.46 0.46 0 0 0 0.14 0.2 c0.227 0.151 0.488 0.24 0.76 0.26 a0.69 0.69 0 0 0 0.46-0.14c-0.07 0-0.12 0-0.15-0.05a0.52 0.52 0 0 1-0.18-0.21s0.07-0.13 0.12 -0.18c0.05-0.05 0.14 -0.09 0.2 -0.15s0-0.09 0.07 -0.14a0.68 0.68 0 0 1 0.1-0.21c0.2-0.18 0.41 -0.34 0.61 -0.5a0.67 0.67 0 0 1-0.14-0.09s0-0.08 0.06 -0.09a1.47 1.47 0 0 0 0.54-0.45s0.06 0 0.09-0.06c0.19-0.15 0.39 -0.3 0.57 -0.46a1 1 0 0 0 0.16-0.26 1.56 1.56 0 0 1 0.16-0.28c0.16-0.2 0.35 -0.39 0.51 -0.59 0.06 -0.102 0.11 -0.209 0.15 -0.32 0.12 -0.21 0.26 -0.41 0.36 -0.62 0.1 -0.21 0.17 -0.53 0.28 -0.78 0.11 -0.25 0.29 -0.56 0.44 -0.83a4 4 0 0 0 0.37-0.58 4.67 4.67 0 0 0 0.2-0.82c0.07-0.42 0.11 -0.85 0.17 -1.27 0-0.24 0.08 -0.48 0.1 -0.71 0.02 -0.23 0-0.61 0-0.91a0.31 0.31 0 0 0-0.05-0.12 0.45 0.45 0 0 0-0.12 0.06 0.23 0.23 0 0 1-0.3 0.07 0.6 0.6 0 0 0-0.19-0.06c-0.19 0-0.25-0.16-0.31-0.3-0.06-0.14-0.12-0.28-0.19-0.42a0.37 0.37 0 0 0-0.36-0.21 1 1 0 0 1-1-1 1.33 1.33 0 0 1-0.28 0.16 3.84 3.84 0 0 1-0.6 0.2 0.94 0.94 0 0 1-0.47 0 1.67 1.67 0 0 0-0.65-0.15 0.53 0.53 0 0 1-0.12 0 0.32 0.32 0 0 0-0.37 0.07 c-0.22 0.18 -0.42 0.37 -0.65 0.55 a1.28 1.28 0 0 1-0.93 0.38 2.21 2.21 0 0 0-0.35 0 1.9 1.9 0 0 1-0.79 0c-0.24-0.08-0.34-0.16-0.34-0.41 0-0.25 0-0.51 0.05 -0.76s-0.07-0.35-0.3-0.35h-0.63c-0.48-0.05-0.6-0.29-0.32-0.69a2.05 2.05 0 0 0 0.33-1h-0.05a1 1 0 0 0-1 0.56 0.6 0.6 0 0 1-0.34 0.39 1.71 1.71 0 0 1-1.24 0 0.6 0.6 0 0 1-0.26-0.14 1.71 1.71 0 0 1-0.28-1.51 3.6 3.6 0 0 1 0.87-1.53 0.67 0.67 0 0 1 0.34-0.22 6.2 6.2 0 0 1 1-0.07 1 1 0 0 0 0.57-0.18 1.13 1.13 0 0 1 1.06-0.24c0.33 0.063 0.612 0.278 0.76 0.58 a5 5 0 0 0 0.45 0.77 0.6 0.6 0 0 0 0.21 0.17 c0.08 0 0.17 0 0.18-0.07a1.69 1.69 0 0 0 0-0.55c-0.07-0.24-0.2-0.46-0.29-0.69-0.09-0.23-0.12-0.32-0.06-0.42a2.09 2.09 0 0 1 0.65-0.8 5.44 5.44 0 0 0 0.62-0.45 1.15 1.15 0 0 0 0.33-0.5 4.63 4.63 0 0 1 0.58-1.35c0.13-0.2 0.25 -0.4 0.52 -0.42 0.27 -0.02 0.29 -0.19 0.36 -0.36 0.07 -0.17 0.05 -0.13 0.07 -0.19 0.14 -0.3 0.27 -0.37 0.54 -0.3s0.29 0.11 0.44 0.15 a0.38 0.38 0 0 0 0.21 0l0.51-0.2c0.29-0.09 0.3 -0.25 0.11 -0.45h-0.06c-0.15-0.13-0.3-0.25-0.44-0.39s-0.06-0.12 0-0.15 0-0.22-0.1-0.29a0.41 0.41 0 0 1-0.14-0.12s-0.07-0.15 0-0.18a0.22 0.22 0 0 1 0.19-0.07 1 1 0 0 1 0.28 0.12 0.49 0.49 0 0 0 0.44 0 4.91 4.91 0 0 1 0.71-0.19 0.32 0.32 0 0 0 0-0.1c-0.06-0.23-0.11-0.45-0.18-0.67-0.07-0.22-0.16-0.35-0.25-0.53a4.74 4.74 0 0 1-0.26-0.5c-0.1-0.3-0.18-0.61-0.27-0.91a2.82 2.82 0 0 0-0.14-0.35 0.52 0.52 0 0 1-0.11 0.15 c-0.09 0.09 -0.2 0.26 -0.3 0.25 -0.1-0.01-0.22-0.16-0.31-0.27-0.09-0.11 0-0.13 0-0.2 0.01 -0.1 0.01 -0.2 0-0.3a0.5 0.5 0 0 0-0.13-0.22 3 3 0 0 1-0.34-0.25 1.59 1.59 0 0 0-1.13-0.49zm-0.83 13.78v-0.05s-0.06-0.06-0.09-0.07l-0.51-0.25a4.4 4.4 0 0 0-0.76-0.29 2.53 2.53 0 0 0-1.09 0.09 l-0.08 0.05 c0.103 0.014 0.207 0.014 0.31 0a1.57 1.57 0 0 1 1 0.34 0.83 0.83 0 0 0 0.71 0.22 h0.18l0.33-0.04zm4.45-7.86a0.65 0.65 0 0 0-0.08-0.7 0.86 0.86 0 0 1-0.2-0.48 0.9 0.9 0 0 0-0.07-0.14l-0.3 0.54 a0.25 0.25 0 0 0 0.12 0.35 c0.06 0 0.16 0.07 0.18 0.13 a0.45 0.45 0 0 0 0.35 0.3 zm-4.13 8.44l0.54-0.14a1.68 1.68 0 0 0 0.35-0.09c0.05 0 0.07-0.09 0.11 -0.14a1 1 0 0 0-0.15-0.07 5.24 5.24 0 0 0-0.56 0 2.26 2.26 0 0 0-0.43 0.11 c-0.12 0-0.12 0.17 0 0.24 0.12 0.07 0.08 0.06 0.14 0.09zm0.94-17.87a0.28 0.28 0 0 0-0.26-0.26c-0.28-0.07-0.57-0.13-0.85-0.21-0.12 0-0.23-0.11-0.35-0.15-0.12-0.04-0.11 0.05 -0.17 0.07 -0.06 0.02 0.08 0.1 0.13 0.12 0.293 0.126 0.593 0.233 0.9 0.32 0.196 0.054 0.397 0.09 0.6 0.11 zm-5.46-0.83a6.26 6.26 0 0 0 1.78 0.07 9.64 9.64 0 0 0-1.78-0.07zm3.37 0.4 c-0.12-0.13-0.22-0.22-0.31-0.31a0.11 0.11 0 0 0-0.07 0h-0.75c0.34 0.13 0.75 0.12 1.17 0.31 h-0.04zm0.16 18.42v-0.05a0.23 0.23 0 0 0-0.28 0.2 l0.28-0.15z" fill="#FFF"/>
  <path d="M23.62 5.77c0.36 0.051 0.692 0.224 0.94 0.49 a3 3 0 0 0 0.34 0.25 0.5 0.5 0 0 1 0.13 0.22 A1.5 1.5 0 0 1 25 7v0.2c0 0.04 0.2 0.26 0.31 0.27 0.11 0.01 0.21 -0.16 0.3 -0.25a0.52 0.52 0 0 0 0.11-0.15c0.054 0.113 0.101 0.23 0.14 0.35 0.09 0.3 0.17 0.61 0.27 0.91 0.077 0.172 0.163 0.339 0.26 0.5 0.09 0.18 0.18 0.35 0.25 0.53 0.07 0.18 0.12 0.44 0.18 0.67 a0.32 0.32 0 0 1 0 0.1 4.91 4.91 0 0 0-0.71 0.19 0.49 0.49 0 0 1-0.44 0 1 1 0 0 0-0.28-0.12 0.22 0.22 0 0 0-0.19 0.07 v0.18a0.41 0.41 0 0 0 0.14 0.12 c0.11 0.07 0.18 0.15 0.1 0.29 -0.08 0.14 0 0.12 0 0.15s0.29 0.26 0.44 0.39 h0.06c0.19 0.2 0.18 0.36 -0.11 0.45 l-0.51 0.2 a0.38 0.38 0 0 1-0.21 0c-0.15 0-0.29-0.11-0.44-0.15-0.15-0.04-0.4 0-0.54 0.3 0 0.06 0 0.12-0.07 0.19 s-0.14 0.34 -0.36 0.36 c-0.22 0.02 -0.39 0.22 -0.52 0.42 a4.63 4.63 0 0 0-0.58 1.35 1.15 1.15 0 0 1-0.33 0.5 5.44 5.44 0 0 1-0.62 0.45 2.09 2.09 0 0 0-0.65 0.8 c-0.06 0.1 0 0.28 0.06 0.42 0.06 0.14 0.22 0.45 0.29 0.69 0.03 0.182 0.03 0.368 0 0.55 0 0.09-0.1 0.12 -0.18 0.07 a0.6 0.6 0 0 1-0.21-0.17 5 5 0 0 1-0.45-0.77 1.07 1.07 0 0 0-0.76-0.58 1.13 1.13 0 0 0-1.06 0.24 1 1 0 0 1-0.57 0.18 6.2 6.2 0 0 0-1 0.07 0.67 0.67 0 0 0-0.34 0.22 3.6 3.6 0 0 0-0.86 1.55 1.71 1.71 0 0 0 0.28 1.51 0.6 0.6 0 0 0 0.26 0.14 1.71 1.71 0 0 0 1.24 0 0.6 0.6 0 0 0 0.34-0.39 1 1 0 0 1 1-0.56h0.05a2.05 2.05 0 0 1-0.33 1c-0.28 0.4 -0.16 0.64 0.32 0.69 h0.63c0.21 0 0.32 0.12 0.3 0.35 -0.02 0.23 0 0.51-0.05 0.76 s0.1 0.33 0.34 0.41 c0.26 0.055 0.53 0.055 0.79 0 0.116-0.01 0.234 -0.01 0.35 0a1.28 1.28 0 0 0 0.93-0.38c0.23-0.18 0.43 -0.37 0.65 -0.55a0.32 0.32 0 0 1 0.37-0.07 0.53 0.53 0 0 0 0.12 0c0.225 0.006 0.446 0.057 0.65 0.15 a0.94 0.94 0 0 0 0.47 0 3.84 3.84 0 0 0 0.6-0.2c0.1-0.042 0.194 -0.096 0.28 -0.16a1 1 0 0 0 1 1 0.37 0.37 0 0 1 0.36 0.21 c0.07 0.14 0.13 0.28 0.19 0.42 0.06 0.14 0.12 0.29 0.31 0.3 a0.6 0.6 0 0 1 0.19 0.06 0.23 0.23 0 0 0 0.3-0.07 0.45 0.45 0 0 1 0.12-0.06 0.31 0.31 0 0 1 0.05 0.12 v0.91c0 0.31-0.07 0.47 -0.1 0.71 -0.06 0.42 -0.1 0.85 -0.17 1.27a4.67 4.67 0 0 1-0.2 0.82 4 4 0 0 1-0.37 0.58 c-0.15 0.27 -0.31 0.55 -0.44 0.83 -0.13 0.28 -0.17 0.53 -0.28 0.78 -0.11 0.25 -0.24 0.41 -0.36 0.62 a1.87 1.87 0 0 1-0.15 0.32 c-0.16 0.2 -0.35 0.39 -0.51 0.59 a1.56 1.56 0 0 0-0.16 0.28 1 1 0 0 1-0.16 0.26 c-0.18 0.16 -0.38 0.31 -0.57 0.46 0 0-0.07 0-0.09 0.06 a1.47 1.47 0 0 1-0.54 0.45 s-0.06 0.08 -0.06 0.09 a0.67 0.67 0 0 0 0.14 0.09 c-0.2 0.16 -0.41 0.32 -0.61 0.5 a0.68 0.68 0 0 0-0.1 0.21 c0 0.05 0 0.1-0.07 0.14 -0.07 0.04 -0.14 0.09 -0.2 0.15 s-0.14 0.14 -0.12 0.18 a0.52 0.52 0 0 0 0.18 0.21 s0.08 0 0.15 0.05 a0.69 0.69 0 0 1-0.46 0.14 1.57 1.57 0 0 1-0.76-0.26 0.46 0.46 0 0 1-0.14-0.2c0-0.1 0-0.15 0.13 -0.2a0.94 0.94 0 0 0 0.17-0.11l-0.24-0.13 0.21 -0.24a0.4 0.4 0 0 0 0.11-0.35 0.6 0.6 0 0 1 0.08-0.31c0.05-0.08 0.13 -0.15 0.19 -0.23a0.68 0.68 0 0 0 0.18-0.51 2.77 2.77 0 0 1 0.17-1 5.68 5.68 0 0 0 0.19-0.93 1.18 1.18 0 0 0-0.12-0.64 1 1 0 0 0-0.43-0.32c-0.19-0.1-0.39-0.16-0.58-0.24a1.87 1.87 0 0 1-0.89-0.8c-0.14-0.22-0.31-0.42-0.47-0.63a0.43 0.43 0 0 1-0.1-0.5 1.75 1.75 0 0 0 0.23-1.05 0.65 0.65 0 0 1 0.22-0.54 4.51 4.51 0 0 0 0.4-0.47c0.19-0.297 0.26 -0.653 0.2 -1a0.76 0.76 0 0 0-0.54-0.44 0.17 0.17 0 0 0-0.1 0 0.36 0.36 0 0 1-0.46 0.11 5.76 5.76 0 0 1-0.89-0.37 1.64 1.64 0 0 1-0.51-0.47 1.52 1.52 0 0 0-0.87-0.57c-0.51-0.14-1-0.26-1.53-0.37-0.53-0.11-0.73-0.12-1.08-0.2a7.25 7.25 0 0 1-1-0.29 2.34 2.34 0 0 1-0.82-0.68 0.54 0.54 0 0 1-0.08-0.19 2.38 2.38 0 0 0-0.42-0.86c-0.28-0.41-0.55-0.85-0.83-1.26-0.14-0.2-0.32-0.39-0.48-0.58a0.43 0.43 0 0 0 0.08 0.01 h-0.13a0.56 0.56 0 0 0 0 0.13c0.15 0.38 0.31 0.76 0.47 1.13l0.31 0.69 a1.09 1.09 0 0 1 0 0.13c-0.13-0.07-0.26-0.1-0.32-0.18-0.26-0.37-0.5-0.76-0.74-1.14a1.51 1.51 0 0 0-0.22-0.8c-0.09-0.24-0.15-0.49-0.22-0.73a1.23 1.23 0 0 0-0.64-0.77 0.74 0.74 0 0 1-0.37-0.7 1.06 1.06 0 0 0-0.17-0.57 0.63 0.63 0 0 1-0.1-0.4c0.013-0.375 0.047 -0.749 0.1 -1.12a8.92 8.92 0 0 1 0.25-1c0.09-0.32 0.23 -0.62 0.34 -0.93v-0.21c0-0.07 0.05 -0.22 0.07 -0.33 0.02 -0.11 0-0.35-0.15-0.45-0.15-0.1-0.16-0.12-0.24-0.17-0.08-0.05-0.22-0.23 0-0.41a0.64 0.64 0 0 0 0.18-0.49 1.13 1.13 0 0 0-0.31-0.65l-0.11-0.2 0.13 -0.08a0.15 0.15 0 0 0 0-0.23c-0.21-0.21-0.18-0.49-0.24-0.74a2.13 2.13 0 0 1 0-0.44 0.36 0.36 0 0 0 0-0.15 1.08 1.08 0 0 0-0.66-0.63 2.46 2.46 0 0 1-0.29-0.09c-0.08 0-0.22 0-0.16-0.19s-0.11-0.06-0.14 0a3.28 3.28 0 0 0-0.31 0.2 c-0.25 0.17 -0.51 0.35 -0.77 0.51 h-0.24a0.54 0.54 0 0 0-0.22 0.15 c-0.19 0.22 -0.36 0.47 -0.56 0.69 -0.57 0.6 -1.16 1.2-1.74 1.8L4.73 9c0.11-0.13 0.21 -0.27 0.32 -0.39 0.35 -0.42 0.71 -0.82 1.07-1.24 0-0.06 0.09 -0.13 0.14 -0.2 0.05 -0.07 0-0.17-0.1-0.17A0.48 0.48 0 0 0 6 7c-0.1 0-0.17 0-0.16-0.11a0.66 0.66 0 0 0-0.06-0.48 0.06 0.06 0 0 1 0-0.06 2.21 2.21 0 0 1 1.04-1.26 2.87 2.87 0 0 0 0.5-0.36v-0.16a0.47 0.47 0 0 0-0.16 0 1.24 1.24 0 0 0-0.16 0 0.18 0.18 0 0 1-0.13 0v-0.14a1.51 1.51 0 0 1 0.82-0.69 0.58 0.58 0 0 0 0 0.11s0.09 0.06 0.11 0.05 a4.15 4.15 0 0 0 0.34-0.24v-0.08a0.63 0.63 0 0 1 0.5-0.66c0.49-0.2 1-0.37 1.49-0.53a3.33 3.33 0 0 1 1.63-0.12c0.34 0.06 0.69 0.07 1 0.1l0.39 0.07 a3.39 3.39 0 0 0 1-0.17c0.33-0.066 0.664 -0.1 1-0.1 0.252 0.051 0.497 0.132 0.73 0.24a3 3 0 0 0 1.13 0.25 h0.15a0.58 0.58 0 0 0-0.1-0.12l-0.17-0.14 0.28 -0.15a0.75 0.75 0 0 0-0.49-0.28 4.06 4.06 0 0 1-0.56-0.09c0.1-0.05 0.19 -0.11 0.29 -0.15a3.24 3.24 0 0 1 1.28-0.13c0.12 0 0.26 0 0.33 0.15 s0.07 0 0.1 0.05 0.09 0 0.12 0a0.84 0.84 0 0 0 0.71 0.05 l0.63-0.09c0.1 0 0.12 0.05 0.09 0.15 a1.36 1.36 0 0 0-0.14 0.43 c0.015 0.135 0.052 0.267 0.11 0.39 a1.61 1.61 0 0 1-0.35 0.1 c-0.15 0.015 -0.3 0.015 -0.45 0a2.23 2.23 0 0 0-0.23 0 0.53 0.53 0 0 0 0.44 0.33 c0.24 0.054 0.484 0.087 0.73 0.1 a0.31 0.31 0 0 0 0.18-0.07c0.16-0.11 0.31 -0.24 0.47 -0.36 0.16 -0.12 0.22 -0.2 0.14 -0.45a0.47 0.47 0 0 1 0-0.46 0.27 0.27 0 0 1 0.3-0.11l1.13 0.27 -0.45 0.07 c-0.1 0-0.15 0-0.15 0.15 v0.63a0.17 0.17 0 0 0 0 0.14 0.41 0.41 0 0 0 0.15 0.07 0.55 0.55 0 0 1 0.39 0.38 c0 0.13 0.13 0.12 0.22 0.09a0.21 0.21 0 0 0 0.1-0.06c0.09-0.11 0.23 -0.23 0.25 -0.36 0.02 -0.13-0.18-0.19-0.3-0.23-0.12-0.04-0.21-0.1-0.17-0.25 0.04 -0.15 0-0.06 0-0.09s-0.07-0.21 0.1 -0.29a1 1 0 0 1 0.88 0c0.26 0.11 0.54 0.18 0.79 0.29 0.143 0.082 0.265 0.195 0.36 0.33 0.125 0.194 0.289 0.36 0.48 0.49 a0.92 0.92 0 0 1 0.14 0.14 c0.06 0.07 0.126 0.134 0.2 0.19 a0.71 0.71 0 0 1 0.37 0.66 0.58 0.58 0 0 0 0.09 0.26 c0.14 0.21 0.3 0.41 0.44 0.62 0.14 0.21 0 0.27-0.15 0.4 a3.32 3.32 0 0 0-0.26-0.28h-0.13c-0.05 0 0 0.1 0 0.14 0.056 0.154 0.123 0.305 0.2 0.45 0 0.1 0.08 0.2 0 0.29a0.29 0.29 0 0 1-0.41 0l-0.7-0.69-0.32-0.26a0.31 0.31 0 0 0-0.16-0.06 0.6 0.6 0 0 1-0.38-0.24 0.08 0.08 0 0 1 0-0.08 0.18 0.18 0 0 1 0.09 0c0.1 0.016 0.197 0.043 0.29 0.08 a0.262 0.262 0 0 0 0.52-0.06 4.13 4.13 0 0 0 0.25-0.38 0.25 0.25 0 0 0 0-0.24c-0.13-0.19-0.31-0.34-0.44-0.53a1.67 1.67 0 0 0-0.69-0.43c-0.19-0.08-0.26 0-0.23 0.19 a0.34 0.34 0 0 1 0 0.14c0 0.12-0.07 0.23 -0.1 0.34 a0.21 0.21 0 0 1-0.25 0.18 h-0.33a0.17 0.17 0 0 0-0.14 0.06 v0.14l0.57 0.52 a0.26 0.26 0 0 1 0.1 0.07 1 1 0 0 1 0.06 0.16 0.38 0.38 0 0 1-0.15 0 2.83 2.83 0 0 0-0.31-0.11 1 1 0 0 0-0.35 0c-0.13 0-0.2 0-0.19-0.13 0.024 -0.1 0.058 -0.197 0.1 -0.29 0-0.08 0.15 -0.17 0-0.24a0.39 0.39 0 0 0-0.3 0 3.17 3.17 0 0 0-0.55 0.28 3.37 3.37 0 0 0-0.37 0.29 l-0.33 0.23 a1.7 1.7 0 0 0-0.63 0.62 0.94 0.94 0 0 0 0.33 1.13c0.32 0.2 0.65 0.39 1 0.61 0.217 0.157 0.42 0.33 0.61 0.52a0.61 0.61 0 0 1 0.12 0.27 c0 0.16 0 0.34 0.08 0.5a0.51 0.51 0 0 0 0.18 0.25 c0.17 0.12 0.27 0.07 0.33-0.12a1.37 1.37 0 0 0 0.05-0.28 0.9 0.9 0 0 1 0.3-0.65 5.62 5.62 0 0 0 0.41-0.44 0.22 0.22 0 0 0 0-0.32 0.94 0.94 0 0 1-0.16-0.2c0-0.09-0.06-0.22 0-0.27a1.07 1.07 0 0 0 0.23-0.8 2.42 2.42 0 0 1-0.06-0.3zm-3 5a1.4 1.4 0 0 0 0.31-0.09 0.24 0.24 0 0 0 0.07-0.21 0.55 0.55 0 0 0-0.48-0.37 0.38 0.38 0 0 0-0.45 0.17 2.5 2.5 0 0 1-0.22 0.24 c0 0.05-0.08 0.14 -0.07 0.16 a0.5 0.5 0 0 0 0.19 0.1 s0.09 0 0.13-0.06a0.26 0.26 0 0 1 0.32 0 0.7 0.7 0 0 0 0.16 0.05 l0.04 0.01 zm0.42 0.51 a0.49 0.49 0 0 0-0.62 0.17 1.39 1.39 0 0 0-0.08 0.9 c0 0.1 0.1 0.1 0.15 0a0.86 0.86 0 0 0 0.14-0.29 1 1 0 0 1 0.29-0.64 0.74 0.74 0 0 0 0.08-0.15l0.04 0.01 zm0.47-0.24c-0.05 0.06 -0.13 0.12 -0.12 0.17 0.033 0.182 0.087 0.36 0.16 0.53 0.08 0.19 0.22 0.19 0.32 0a3.52 3.52 0 0 0 0.13-0.44 0.16 0.16 0 0 0-0.06-0.13l-0.43-0.13zm-6-7.49l0.32-0.06s0.05 0 0.08-0.07-0.05-0.08-0.08-0.09a2.19 2.19 0 0 0-0.33-0.12 0.62 0.62 0 0 0-0.23 0c-0.1 0-0.15 0.06 -0.08 0.17 0.07 0.11 0.08 0.19 0.25 0.16 l0.07 0.01 z" fill="#672AEA"/>
  <path d="M22.79 19.55l-0.31 0.06 h-0.18a0.83 0.83 0 0 1-0.71-0.22 1.57 1.57 0 0 0-1-0.34 1.12 1.12 0 0 1-0.31 0l0.08-0.05a2.53 2.53 0 0 1 1.09-0.09 4.4 4.4 0 0 1 0.76 0.29 l0.51 0.25 s0.06 0.05 0.09 0.07 l-0.02 0.03 zM27.24 11.69a0.45 0.45 0 0 1-0.35-0.3c0-0.06-0.12-0.09-0.18-0.13a0.25 0.25 0 0 1-0.12-0.35l0.3-0.54a0.9 0.9 0 0 1 0.07 0.14 0.86 0.86 0 0 0 0.2 0.48 0.65 0.65 0 0 1 0.08 0.7 zM23.11 20.13c-0.06 0-0.13 0-0.18-0.07-0.05-0.07-0.11-0.2 0-0.24 0.14 -0.05 0.283 -0.088 0.43 -0.11 0.187 -0.01 0.373 -0.01 0.56 0a1 1 0 0 1 0.15 0.07 s-0.06 0.12 -0.11 0.14 c-0.103 0.04 -0.21 0.07 -0.32 0.09 l-0.53 0.12 zM24.05 2.26a3.53 3.53 0 0 1-0.6-0.07 7.42 7.42 0 0 1-0.9-0.32c-0.05 0-0.08-0.08-0.13-0.12-0.05-0.04 0.12 -0.08 0.17 -0.07 0.05 0.01 0.23 0.11 0.35 0.15 0.28 0.08 0.57 0.14 0.85 0.21a0.28 0.28 0 0 1 0.26 0.22 zM18.59 1.43a9.64 9.64 0 0 1 1.78 0.07 6.26 6.26 0 0 1-1.78-0.07zM22 1.83c-0.38-0.19-0.79-0.18-1.13-0.38h0.75a0.11 0.11 0 0 1 0.07 0c0.05 0.16 0.15 0.25 0.31 0.38 zM22.12 20.25l-0.3 0.15 a0.23 0.23 0 0 1 0.28-0.2l0.02 0.05 zM20.58 10.76a0.7 0.7 0 0 1-0.2-0.08 0.26 0.26 0 0 0-0.32 0s-0.09 0.07 -0.13 0.06 a0.5 0.5 0 0 1-0.19-0.1s0-0.11 0.07 -0.16a2.5 2.5 0 0 0 0.22-0.24 0.38 0.38 0 0 1 0.45-0.17 0.55 0.55 0 0 1 0.48 0.37 0.24 0.24 0 0 1-0.07 0.21 1.4 1.4 0 0 1-0.31 0.11 zM21 11.27a0.74 0.74 0 0 1-0.12 0.17 1 1 0 0 0-0.29 0.64 0.86 0.86 0 0 1-0.14 0.29 c-0.05 0.07 -0.13 0.07 -0.15 0a1.39 1.39 0 0 1 0.08-0.9 0.49 0.49 0 0 1 0.62-0.2zM21.47 11l0.43 0.14 a0.16 0.16 0 0 1 0.06 0.13 3.52 3.52 0 0 1-0.18 0.45 c-0.1 0.18 -0.24 0.18 -0.32 0a2.49 2.49 0 0 1-0.16-0.53c0-0.05 0.07 -0.11 0.12 -0.17l0.05-0.02zM15.44 3.54c-0.17 0-0.25-0.06-0.32-0.19s0-0.15 0.08 -0.17a0.62 0.62 0 0 1 0.23 0c0.113 0.031 0.223 0.071 0.33 0.12 0 0 0.06 0.06 0.08 0.09 0.02 0.03 -0.05 0.06 -0.08 0.07 l-0.32 0.08 z" fill="#FFF"/>
</svg>
