<?xml version="1.0" ?>
<svg xmlns="http://www.w3.org/2000/svg" width="44" height="35" viewBox="0 0 44 35">
  <path d="M0.53 12.47l0.32-0.1 0.72 -0.24c0.2-0.06 0.39 -0.13 0.59 -0.18a0.7 0.7 0 0 0 0.55-0.42 1 1 0 0 0 0-0.53c0-0.13-0.07-0.25-0.09-0.38a0.13 0.13 0 0 0-0.09-0.11l-0.68-0.22A6.11 6.11 0 0 1 0.24 9.5 0.53 0.53 0 0 1 0 9V5.7h0.13l1.61 0.84 a0.64 0.64 0 0 0 0.41 0 1 1 0 0 0 0.54-0.49 1.32 1.32 0 0 1 0.12-0.2 0.14 0.14 0 0 0 0-0.18 10.24 10.24 0 0 1-0.66-1.37 6 6 0 0 1-0.24-0.83A0.55 0.55 0 0 1 2 3v-0.09L4.33 0.62 l0.1-0.09c0.05 0.14 0.09 0.26 0.12 0.38 l0.23 0.71 c0.084 0.193 0.157 0.39 0.22 0.59 a0.71 0.71 0 0 0 0.77 0.56 2.7 2.7 0 0 0 0.39-0.08h0.07c0.17 0 0.18 0 0.22-0.19A8.64 8.64 0 0 1 7.28 0.4 a0.9 0.9 0 0 1 0.34-0.4 0.53 0.53 0 0 1 0.18 0h3.4l-0.13 0.28 c-0.26 0.48 -0.52 1-0.76 1.46a0.65 0.65 0 0 0 0 0.34 0.87 0.87 0 0 0 0.48 0.58 l0.25 0.15 a0.14 0.14 0 0 0 0.11 0c0.41-0.2 0.81 -0.41 1.23-0.59a6.09 6.09 0 0 1 0.94-0.31 0.75 0.75 0 0 1 0.51 0 0.5 0.5 0 0 1 0.12 0.08 l2.37 2.36 0.06 0.07-0.38 0.12 -0.61 0.19 -0.59 0.19 a2.15 2.15 0 0 0-0.36 0.11 0.69 0.69 0 0 0-0.29 0.36 0.83 0.83 0 0 0 0 0.54c0.033 0.104 0.056 0.211 0.07 0.32 0 0.1 0.07 0.12 0.14 0.15a9.2 9.2 0 0 1 2 0.79c0.148 0.092 0.289 0.196 0.42 0.31 a0.37 0.37 0 0 1 0.12 0.3 v3.4l-0.25-0.12-1.48-0.78a0.61 0.61 0 0 0-0.44 0 1 1 0 0 0-0.52 0.49 0.39 0.39 0 0 1-0.08 0.14 0.2 0.2 0 0 0 0 0.29c0.24 0.422 0.443 0.864 0.61 1.32a6.2 6.2 0 0 1 0.23 0.69 c0.02 0.173 0.02 0.347 0 0.52a0.31 0.31 0 0 1-0.11 0.19 L13 15.82l-0.46 0.47 -0.09 0.07 c-0.13-0.4-0.25-0.79-0.37-1.17-0.07-0.22-0.13-0.44-0.21-0.66a0.6 0.6 0 0 0-0.34-0.34 0.94 0.94 0 0 0-0.64 0 0.8 0.8 0 0 1-0.21 0.05 c-0.14 0-0.18 0.09 -0.21 0.2 -0.12 0.36 -0.24 0.71 -0.37 1.07a5.55 5.55 0 0 1-0.46 1 2.8 2.8 0 0 1-0.32 0.38 0.28 0.28 0 0 1-0.18 0.06 H5.7l0.17-0.34c0.25-0.47 0.5 -0.94 0.73 -1.41a0.62 0.62 0 0 0 0-0.33 0.93 0.93 0 0 0-0.52-0.61l-0.2-0.11a0.13 0.13 0 0 0-0.12 0c-0.42 0.2 -0.82 0.41 -1.24 0.59 a6.83 6.83 0 0 1-1 0.31 0.63 0.63 0 0 1-0.43 0 0.44 0.44 0 0 1-0.09-0.14l-2.4-2.4-0.07-0.04zm10.54-4a2.64 2.64 0 1 0-2.64 2.63 2.63 2.63 0 0 0 2.64-2.64v0.01zM4 9.09a0.64 0.64 0 1 0 0-1.28 0.65 0.65 0 0 0-0.64 0.69 0.63 0.63 0 0 0 0.64 0.59 zm4.42-4.41a0.65 0.65 0 1 0-0.001-1.3 0.65 0.65 0 0 0 0.001 1.3zm0 8.83a0.64 0.64 0 0 0 0.66-0.64 0.67 0.67 0 0 0-0.64-0.65 0.66 0.66 0 0 0-0.66 0.64 0.64 0.64 0 0 0 0.63 0.65 h0.01zm4.42-4.42a0.62 0.62 0 0 0 0.65-0.64 0.64 0.64 0 0 0-0.64-0.64 0.65 0.65 0 0 0-0.66 0.64 0.63 0.63 0 0 0 0.64 0.64 h0.01z" fill="#FFF"/>
  <path d="M8.45 6.32A2.14 2.14 0 1 1 6.3 8.48a2.12 2.12 0 0 1 2.15-2.16zM37.38 31.71l-1 0.1h-0.15l-1.43 0.08 c-2.5 0.15 -5 0.12-7.5 0.1 -0.81 0-1.62 0-2.42-0.07-0.35 0-0.7 0-1.05-0.05l-1.72-0.17h-0.21a0.92 0.92 0 0 0 0 0.16v2.06a1 1 0 0 1-1 1h-2.83a1 1 0 0 1-1-1v-3.28a0.2 0.2 0 0 0-0.09-0.19 1.9 1.9 0 0 1-0.8-0.86 1.29 1.29 0 0 1-0.08-0.39v-4.18a3.62 3.62 0 0 1 0.79-2.13c0.15-0.18 0.32 -0.35 0.49 -0.52 0.17 -0.17 0.08 -0.1 0-0.14a2 2 0 0 1-1.15-1.17 1.81 1.81 0 0 1 0-1.17 1.88 1.88 0 0 1 0.93-1.17c0.276-0.16 0.59 -0.243 0.91 -0.24h1.2c0.09 0 0.13 0 0.17-0.13 0.1 -0.34 0.22 -0.68 0.33 -1 0.11-0.32 0.21 -0.63 0.32 -0.93a4.06 4.06 0 0 1 1.42-1.94 4.31 4.31 0 0 1 1.4-0.67 4.59 4.59 0 0 1 1.11-0.17h11.41a4.16 4.16 0 0 1 4 2.91c0.19 0.58 0.41 1.16 0.59 1.75a0.21 0.21 0 0 0 0.25 0.18 h1.11a2 2 0 0 1 1.82 1.31 1.92 1.92 0 0 1-0.86 2.21 1.71 1.71 0 0 1-0.4 0.21 c-0.12 0-0.09 0.08 0 0.14a4.06 4.06 0 0 1 1.17 2c0.075 0.328 0.111 0.664 0.11 1v3.63a1.58 1.58 0 0 1-0.7 1.33 1.77 1.77 0 0 0-0.22 0.16 0.23 0.23 0 0 0-0.06 0.16 V34a0.93 0.93 0 0 1-0.66 0.89 1.26 1.26 0 0 1-0.33 0.05 H38.4a0.93 0.93 0 0 1-0.91-0.56 1 1 0 0 1-0.1-0.42V31.9l-0.01-0.19zm2.52-10.35c-0.1-0.33-0.19-0.63-0.29-0.93-0.1-0.3-0.28-0.79-0.41-1.18-0.13-0.39-0.21-0.67-0.32-1-0.11-0.33-0.28-0.81-0.41-1.22A4.26 4.26 0 0 0 38 16a3.07 3.07 0 0 0-2.63-1.43H24.05a3.51 3.51 0 0 0-1.32 0.24 2.88 2.88 0 0 0-1.69 1.52c-0.21 0.46 -0.35 1-0.52 1.44-0.09 0.26 -0.17 0.52 -0.26 0.78 l-0.4 1.2c-0.1 0.28 -0.19 0.55 -0.28 0.83 -0.09 0.28 -0.16 0.49 -0.24 0.76 l20.56 0.02 zm-20 6.78a1.94 1.94 0 1 0-0.278-3.87 1.94 1.94 0 0 0 0.278 3.87zm19.38 0a1.94 1.94 0 1 0 0-3.87 1.94 1.94 0 1 0 0 3.87zm-9.69-1.93H35a0.49 0.49 0 0 0 0.41-0.68 0.51 0.51 0 0 0-0.5-0.28H24.3a0.46 0.46 0 0 0-0.48 0.51 0.48 0.48 0 0 0 0.51 0.45 h5.26zm0 1h-4.4a0.49 0.49 0 0 0-0.41 0.67 0.51 0.51 0 0 0 0.51 0.29 H34a0.49 0.49 0 0 0 0.48-0.49 0.52 0.52 0 0 0-0.51-0.47c-1.45-0.02-2.9-0.03-4.34-0.03l-0.04 0.03 z" fill="#FFF"/>
  <path d="M39.9 21.36H19.36c0.08-0.27 0.15 -0.51 0.24 -0.76s0.18-0.55 0.28 -0.83l0.4-1.2c0.09-0.26 0.17 -0.52 0.26 -0.78 0.17 -0.48 0.31 -1 0.52-1.44a2.88 2.88 0 0 1 1.69-1.52 3.51 3.51 0 0 1 1.32-0.24h11.32A3.07 3.07 0 0 1 38 16c0.192 0.313 0.344 0.649 0.45 1 0.13 0.41 0.27 0.81 0.41 1.22 0.14 0.41 0.21 0.66 0.32 1 0.11 0.34 0.27 0.79 0.41 1.18 0.14 0.39 0.21 0.6 0.31 0.96zM19.93 28.14a1.94 1.94 0 1 1 1.94-1.92 1.93 1.93 0 0 1-1.94 1.92zM39.31 28.14a1.94 1.94 0 1 1 1.95-1.92 1.93 1.93 0 0 1-1.95 1.92zM29.62 26.21h-5.29a0.48 0.48 0 0 1-0.51-0.45 0.46 0.46 0 0 1 0.48-0.51h10.6a0.51 0.51 0 0 1 0.5 0.28 0.49 0.49 0 0 1-0.41 0.68 h-5.37zM29.63 27.18h4.34a0.52 0.52 0 0 1 0.51 0.47 0.49 0.49 0 0 1-0.48 0.49 h-8.67a0.51 0.51 0 0 1-0.51-0.29 0.49 0.49 0 0 1 0.41-0.67h4.4z" fill="#037230"/>
</svg>
