<?xml version="1.0" ?>
<svg xmlns="http://www.w3.org/2000/svg" width="32" height="32" viewBox="0 0 32 32">
  <path d="M10.63 1.92l0.7 0.14 1.24 0.24 0.82 0.14 0.77 0.15 0.86 0.17 1.21 0.24 c0.27 0 0.55 0.09 0.82 0.15 l1.2 0.23 0.79 0.14 0.88 0.17 c0.28 0 0.55 0.12 0.82 0.15 0.43 0 0.62 0.22 0.62 0.64 v23.16a0.62 0.62 0 0 1-0.56 0.68 l-1.65 0.32 -1.8 0.36 c-0.39 0.07 -0.78 0.13 -1.16 0.21 l-1.48 0.29 c-0.38 0.08 -0.77 0.14 -1.15 0.21 l-1.16 0.23 -0.78 0.15 -0.82 0.15 -0.87 0.16 -0.8 0.16 -0.87 0.16 -1.2 0.28 c-0.26 0.05 -0.53 0.11 -0.8 0.15 a0.64 0.64 0 0 0-0.47 0.24 0.78 0.78 0 0 1-0.61 0.28 H0.74A0.83 0.83 0 0 1 0 31a0.92 0.92 0 0 1 0.85-1.24h3.12c0.25 0 0.25 0 0.25-0.26V0.92a0.84 0.84 0 0 1 0.62-0.85A1.2 1.2 0 0 1 5.3 0h21.06a0.87 0.87 0 0 1 0.89 0.47 c0.076 0.162 0.114 0.34 0.11 0.52 V29.15c0 0.22 0 0.23 0.23 0.23h3a1.1 1.1 0 0 1 0.84 0.29 1 1 0 0 1 0.18 1 0.82 0.82 0 0 1-0.82 0.58 h-4.42a0.92 0.92 0 0 1-0.85-0.83V4 2.05c0-0.14-0.05-0.19-0.2-0.19H10.63v0.06zm7 13.48v-2a0.61 0.61 0 0 0-0.9-0.55 0.66 0.66 0 0 0-0.35 0.66 v3.7a1 1 0 0 0 0.08 0.38 0.64 0.64 0 0 0 0.71 0.32 0.62 0.62 0 0 0 0.46-0.59c0.06-0.62 0.05 -1.27 0.05 -1.92h-0.05z" fill="#FFF"/>
</svg>
