<?xml version="1.0" ?>
<svg xmlns="http://www.w3.org/2000/svg" width="35" height="36" viewBox="0 0 35 36">
  <path d="M15.88 6c0.09 0.19 0.18 0.4 0.29 0.61 0.31 0.64 0.62 1.28 0.94 1.92 0.08 0.18 0.16 0.36 0.25 0.53a0.21 0.21 0 0 0 0.17 0.09 c0.3 0 0.59-0.08 0.89 -0.12 0.3 -0.04 0.47 -0.08 0.71 -0.1 0.24 -0.02 0.64 -0.07 1-0.09 0.66 -0.05 1.31-0.11 2-0.12a10.59 10.59 0 0 1 1.6 0.08 c0.675 0.076 1.343 0.2 2 0.37a8.35 8.35 0 0 1 3.1 1.5c0.398 0.33 0.776 0.684 1.13 1.06 0 0 0.07 0.1 0.13 0.18 H16.23a2.25 2.25 0 0 1-0.81-0.25c-0.54-0.2-1.08-0.43-1.61-0.65L12 10.27a1.94 1.94 0 0 0-0.22-0.07c0 0.12 0.05 0.22 0.08 0.32a2 2 0 0 1 0 1 2.81 2.81 0 0 1-1 1.56 2.74 2.74 0 0 1-1.58 0.65 3 3 0 0 1-3.11-2.07 2.9 2.9 0 0 1-0.14-1 3 3 0 0 1 3.56-2.8c0.37 0.082 0.734 0.19 1.09 0.32 l1.32 0.41 1.3 0.41 0.82 0.26 c0.29 0.09 0.58 0.19 0.88 0.27 0.082 0.024 0.165 0.041 0.25 0.05 0.2-0.29 0-0.51-0.07-0.73-0.21-0.5-0.43-1-0.64-1.49l-0.63-1.44c-0.24-0.57-0.47-1.15-0.74-1.71a2.83 2.83 0 0 1-0.27-1.1A2.91 2.91 0 0 1 14.26 0.5 a2.88 2.88 0 0 1 2.39-0.4 2.82 2.82 0 0 1 2 1.76 2.78 2.78 0 0 1 0.11 1.89A3 3 0 0 1 18 5.18a2.3 2.3 0 0 1-1.14 0.63 l-0.98 0.19 zM9.05 9.49a1.28 1.28 0 0 0-1.31 1.3 1.31 1.31 0 0 0 2.61 0 1.3 1.3 0 0 0-1.3-1.3zM14.62 3a1.28 1.28 0 0 0 1.29 1.33A1.3 1.3 0 0 0 17.22 3a1.33 1.33 0 0 0-1.28-1.32A1.3 1.3 0 0 0 14.62 3zm2.74 7.5a0.74 0.74 0 0 0-0.76-0.79 0.78 0.78 0 0 0 0 1.55 0.74 0.74 0 0 0 0.76-0.8v0.04zM7.07 22.83c0.06-0.5 0.09 -1 0.19-1.5a3.36 3.36 0 0 1 1.48-2.25 2.63 2.63 0 0 1 1.26-0.42 5.34 5.34 0 0 1 0.69-0.05 3.18 3.18 0 0 1 2.47 1.14c0.316 0.38 0.553 0.818 0.7 1.29a6.07 6.07 0 0 1 0.27 2 6.22 6.22 0 0 1-0.36 2 3.17 3.17 0 0 1-1.67 1.83 2.67 2.67 0 0 1-1.18 0.26 7.15 7.15 0 0 1-1.31-0.09 2.73 2.73 0 0 1-1.4-0.83 3.89 3.89 0 0 1-0.91-1.68 8.21 8.21 0 0 1-0.23-1.7zm4.24 0.08 a8.81 8.81 0 0 0 0-0.89 4.48 4.48 0 0 0-0.21-0.82 0.5 0.5 0 0 0-0.92 0 2.5 2.5 0 0 0-0.2 0.64 c-0.053 0.498 -0.077 1-0.07 1.5-0.009 0.412 0.06 0.822 0.2 1.21a0.57 0.57 0 0 0 0.5 0.43 0.53 0.53 0 0 0 0.5-0.33 2.26 2.26 0 0 0 0.2-0.88c0.01-0.3 0-0.58 0-0.86zM12 32.51h-0.42a0.56 0.56 0 0 1-0.46-0.89c0.45-0.85 0.92 -1.69 1.39-2.54l1.57-2.83 1.65-3c0.36-0.66 0.74 -1.31 1.11-2 0.26-0.48 0.51 -1 0.78-1.45a2.05 2.05 0 0 1 1.16-0.8 3.39 3.39 0 0 1 1.14-0.09 0.57 0.57 0 0 1 0.52 0.9 c-0.3 0.56 -0.62 1.12-0.93 1.67-0.31 0.55 -0.66 1.19-1 1.79l-2 3.55c-0.49 0.89 -1 1.76-1.48 2.64-0.39 0.7 -0.75 1.4-1.15 2.08a1.92 1.92 0 0 1-1.15 0.9 c-0.25 0.07 -0.5 0.09 -0.76 0.14 l0.03-0.07zM34.46 17.84v2a0.49 0.49 0 0 1-0.43 0.54 0.53 0.53 0 0 1-0.61-0.34 0.44 0.44 0 0 1 0-0.2V17.1a0.68 0.68 0 0 0-0.74-0.73h-2.6a0.57 0.57 0 0 1-0.54-0.49 0.54 0.54 0 0 1 0.34-0.56c0.07-0.006 0.14 -0.006 0.21 0h3.85a0.49 0.49 0 0 1 0.55 0.53 c-0.04 0.66 -0.03 1.32-0.03 1.99z" fill="#FFF"/>
  <path d="M15.2 12c0.17 0.056 0.338 0.123 0.5 0.2 0.173 0.079 0.36 0.12 0.55 0.12 H18c0.05 0.39 0.1 0.78 0.14 1.16 0.04 0.38 0.06 0.57 0.1 0.86 0 0.12 0 0.17-0.16 0.16 h-2.84c-0.09 0-0.16 0-0.15-0.13 0-0.77 0.05 -1.53 0.07 -2.3l0.04-0.07zM24.45 16.38h-1.92a0.59 0.59 0 0 1-0.57-0.55 0.53 0.53 0 0 1 0.56-0.53h3.86a0.54 0.54 0 0 1 0.57 0.52 0.55 0.55 0 0 1-0.57 0.55 l-1.93 0.01 zM16.89 16.38H15a0.63 0.63 0 0 1-0.55-0.41 0.55 0.55 0 0 1 0.3-0.62 0.64 0.64 0 0 1 0.24 0h3.87a0.56 0.56 0 0 1 0.57 0.52 0.54 0.54 0 0 1-0.56 0.55 l-1.98-0.04zM22.42 34.77h1.93a0.52 0.52 0 0 1 0.57 0.51 0.54 0.54 0 0 1-0.57 0.56 H20.5a0.53 0.53 0 0 1-0.57-0.54 0.53 0.53 0 0 1 0.57-0.53h1.92zM33.39 25.45v-1.91a0.53 0.53 0 0 1 0.51-0.54 0.52 0.52 0 0 1 0.56 0.55 v3.89a0.54 0.54 0 0 1-0.915 0.388 0.51 0.51 0 0 1-0.145-0.388v-2l-0.01 0.01 zM34.46 33v1.93a0.53 0.53 0 0 1-0.8 0.48 0.49 0.49 0 0 1-0.26-0.47v-3.4-0.5a0.54 0.54 0 0 1 0.53-0.54 0.52 0.52 0 0 1 0.54 0.53 c0 0.64-0.01 1.3-0.01 1.97zM9.38 16.38H7.49A0.57 0.57 0 0 1 7 16a0.53 0.53 0 0 1 0.22-0.62 0.57 0.57 0 0 1 0.29-0.07h3.87a0.52 0.52 0 0 1 0.57 0.52 0.53 0.53 0 0 1-0.57 0.55 h-2zM14.87 35.84H13a0.56 0.56 0 0 1-0.54-0.4 0.54 0.54 0 0 1 0.31-0.63 0.64 0.64 0 0 1 0.24 0h3.87a0.53 0.53 0 0 1 0 1.06h-0.94l-1.07-0.03zM30 34.77h1.94a0.51 0.51 0 0 1 0.54 0.52 0.52 0.52 0 0 1-0.53 0.55 H28a0.55 0.55 0 0 1-0.56-0.38 0.54 0.54 0 0 1 0.31-0.65 0.75 0.75 0 0 1 0.26 0l1.99-0.04zM7.39 34.77h1.93a0.51 0.51 0 0 1 0.55 0.49 0.53 0.53 0 0 1-0.54 0.58 h-3.9a0.5 0.5 0 0 1-0.53-0.55 0.51 0.51 0 0 1 0.55-0.51l1.94-0.01zM1.07 28.32v1.95a0.53 0.53 0 0 1-0.51 0.54 0.55 0.55 0 0 1-0.56-0.55v-3.9a0.53 0.53 0 0 1 0.38-0.51 0.5 0.5 0 0 1 0.59 0.2 c0.058 0.093 0.09 0.2 0.09 0.31 v2l0.01-0.04zM1.07 20.8v2a0.51 0.51 0 0 1-0.37 0.51 0.5 0.5 0 0 1-0.57-0.18 0.58 0.58 0 0 1-0.13-0.37v-3.91a0.5 0.5 0 0 1 0.56-0.52 0.48 0.48 0 0 1 0.51 0.52 v1.95zM2.21 16.38H0.53a0.55 0.55 0 0 1-0.53-0.49 0.53 0.53 0 0 1 0.43-0.57h3.51a0.52 0.52 0 0 1 0.44 0.56 0.53 0.53 0 0 1-0.5 0.5 H2.21zM1.3 35.84H0.63a0.59 0.59 0 0 1-0.63-0.62v-1.39a0.53 0.53 0 0 1 0.54-0.53 0.49 0.49 0 0 1 0.52 0.53 0.81 0.81 0 0 0 0.36 0.8 0.72 0.72 0 0 0 0.42 0.13 0.55 0.55 0 0 1 0.53 0.73 c-0.09 0.33 -0.11 0.35 -0.46 0.35 H1.3zM19 28.36a3.28 3.28 0 0 1 3.17-3.58 3.18 3.18 0 0 1 0 6.36 3.08 3.08 0 0 1-2.14-0.83A3 3 0 0 1 19 28.36zM18.62 26.5c0 0.1-0.06 0.2 -0.08 0.3 -0.02 0.1 -0.05 0.21 -0.08 0.32 -0.03 0.11 0 0.19-0.05 0.29 a0.88 0.88 0 0 0 0 0.16 0.38 0.38 0 0 1-0.05 0.21 0.19 0.19 0 0 1-0.2 0.12 h-0.05l-0.63-0.53a1.2 1.2 0 0 1-0.25-0.34v-0.11c0.108-0.07 0.222 -0.13 0.34 -0.18l0.73-0.28 0.19 -0.06c0.08 0 0.11 0 0.12 0.08 l0.01 0.02 zM26 27.63v-0.29c0-0.1 0-0.21-0.05-0.32-0.05-0.11-0.05-0.2-0.07-0.3a0.25 0.25 0 0 1 0.13-0.28 0.2 0.2 0 0 1 0.13 0c0.13 0.05 0.27 0.11 0.41 0.15 0.153 0.049 0.3 0.112 0.44 0.19 a1 1 0 0 1 0.2 0.15 c0.07 0 0.07 0.08 0 0.15a3.57 3.57 0 0 1-0.27 0.28 c-0.23 0.21 -0.47 0.4 -0.71 0.6 -0.24 0.2 -0.12 0-0.16 0-0.04 0 0 0 0-0.05v-0.25l-0.05-0.03zM20.09 31.24c0-0.09 0.05 -0.12 0.14 -0.1 0.113 0.044 0.223 0.094 0.33 0.15a3.2 3.2 0 0 0 0.43 0.17 l0.19 0.07 h0.14a0.3 0.3 0 0 1 0.21 0.17 0.15 0.15 0 0 1-0.05 0.18 l-0.31 0.26 c-0.151 0.14 -0.32 0.26 -0.5 0.36 l-0.19 0.07 h-0.1a2 2 0 0 1-0.1-0.32 2.21 2.21 0 0 1-0.08-0.35 2.34 2.34 0 0 1 0-0.26l-0.06-0.34a0.11 0.11 0 0 1-0.05-0.06zM18.88 24.31v-0.28c0-0.08 0-0.1 0.1 -0.09 0.09 -0.01 0.18 -0.01 0.27 0l0.64 0.21 0.4 0.15 c0.06 0 0.08 0.07 0 0.12a0.67 0.67 0 0 1-0.15 0.14 c-0.08 0.07 -0.17 0.11 -0.25 0.17 l-0.45 0.37 -0.16 0.15 a0.22 0.22 0 0 1-0.21 0 0.14 0.14 0 0 1-0.1-0.11c0-0.14-0.06-0.27-0.08-0.41-0.02-0.14 0.01 -0.27-0.01-0.42zM24.26 31.39v0.36a2.54 2.54 0 0 1 0 0.29c-0.03 0.127 -0.07 0.25 -0.12 0.37 a0.51 0.51 0 0 1-0.09 0.18 c0 0.06-0.06 0.07 -0.13 0a2.38 2.38 0 0 1-0.43-0.3L23 32l-0.21-0.18c-0.06-0.05-0.05-0.11 0-0.15a0.86 0.86 0 0 1 0.27-0.09 1.56 1.56 0 0 0 0.37-0.1l0.35-0.14 0.23 -0.09a0.21 0.21 0 0 1 0.25 0.11 0.07 0.07 0 0 1 0 0.03zM18.65 30.51h-0.29a1.69 1.69 0 0 1-0.5-0.08c-0.07 0-0.11-0.06-0.08-0.16a3.27 3.27 0 0 1 0.24-0.5l0.37-0.65c0.06-0.11 0.13 -0.08 0.17 0a0.94 0.94 0 0 1 0.14 0.26 c0.04 0.105 0.09 0.205 0.15 0.3 l0.2 0.36 c0.04 0.054 0.077 0.111 0.11 0.17 a0.24 0.24 0 0 1 0 0.22 0.14 0.14 0 0 1-0.14 0.09 l-0.37-0.01zM22.83 24.11l-0.3-0.05h-0.62a1.15 1.15 0 0 1-0.26 0 0.2 0.2 0 0 1-0.2-0.17 0.13 0.13 0 0 1 0-0.09c0.12-0.2 0.23 -0.4 0.35 -0.59a1.15 1.15 0 0 1 0.31-0.38c0.07-0.07 0.11 -0.07 0.18 0 0.098 0.115 0.185 0.239 0.26 0.37 0.07 0.12 0.14 0.24 0.22 0.36 0.08 0.12 0.15 0.27 0.23 0.41 a0.07 0.07 0 0 1-0.05 0.1 l-0.12 0.04 zM25.66 30.51h-0.5c-0.08 0-0.11 0-0.08-0.12a0.67 0.67 0 0 1 0.11-0.18 4 4 0 0 0 0.33-0.51l0.09-0.15 0.09 -0.2a0.35 0.35 0 0 1 0.18-0.16 0.16 0.16 0 0 1 0.18 0.06 c0.1 0.16 0.19 0.32 0.28 0.48 0.097 0.148 0.172 0.31 0.22 0.48 0.005 0.06 0.005 0.12 0 0.18a0.06 0.06 0 0 1-0.05 0.06 2.34 2.34 0 0 1-0.26 0h-0.62l0.03 0.06 zM25.52 24.19c0 0.16-0.05 0.33 -0.07 0.49 -0.02 0.16 0 0.27-0.07 0.4 s0 0.18-0.05 0.27 c0 0.06-0.05 0.09 -0.1 0.06 a0.65 0.65 0 0 1-0.15-0.1l-0.23-0.25c-0.12-0.11-0.25-0.21-0.38-0.31l-0.19-0.14a0.23 0.23 0 0 1-0.11-0.16c0-0.12 0-0.19 0.14 -0.24l0.48-0.17a1.74 1.74 0 0 1 0.45-0.11h0.17c0.08 0 0.1 0 0.1 0.11 a0.48 0.48 0 0 1 0 0.12l0.01 0.03 z" fill="#FFF"/>
</svg>
