<?xml version="1.0" ?>
<svg xmlns="http://www.w3.org/2000/svg" width="36" height="36" viewBox="0 0 36 36">
  <path d="M0 23.22a2.34 2.34 0 0 1 0.81-1.89l2.1-2.1 2.41-2.4 3.46-3.43c0.93-0.94 1.87-1.86 2.81-2.79l4-4 2.78-2.77L20.26 2c0.47-0.47 0.94 -0.94 1.42-1.39A2 2 0 0 1 23.07 0h0.25A2.19 2.19 0 0 1 25 0.71a358.098 358.098 0 0 1 3.19 3.17l2.93 2.94 2 2c0.54 0.53 1.07 1.06 1.59 1.6a2.5 2.5 0 0 1-0.24 3.58c-0.76 0.74 -1.49 1.49-2.24 2.24l-2.95 2.94-2.61 2.62L24 24.5c-0.67 0.67 -1.32 1.34-2 2l-2.34 2.33-2 2-2 2-1.78 1.77a2.4 2.4 0 0 1-1.33 0.7 2.52 2.52 0 0 1-2.28-0.83c-0.8-0.81-1.61-1.61-2.41-2.41l-3.23-3.24-2.31-2.29C1.75 26 1.18 25.39 0.63 24.82a2 2 0 0 1-0.63-1.6zM11.74 18a5.68 5.68 0 1 0 0 11.36 5.68 5.68 0 0 0 0-11.36zm19.36-5.89a1.68 1.68 0 0 0 1.69 1.7 1.71 1.71 0 1 0 0-3.41 1.68 1.68 0 0 0-1.69 1.71zm-9.67-2.72a1.7 1.7 0 1 0 3.39 0 1.68 1.68 0 0 0-1.69-1.72 1.66 1.66 0 0 0-1.7 1.72zm3.23 6.37A1.68 1.68 0 0 0 23 14a1.71 1.71 0 1 0 1.7 1.72l-0.04 0.04 zm-5 5A1.71 1.71 0 1 0 17.93 19a1.69 1.69 0 0 0 1.73 1.71v0.05zm3.06 3.1A1.71 1.71 0 1 0 21 22.09a1.67 1.67 0 0 0 1.72 1.72v0.05zm3.48-13a1.7 1.7 0 1 0 1.72 1.71 1.67 1.67 0 0 0-1.72-1.78v0.07zm3.09 6.48A1.65 1.65 0 0 0 31 15.59a1.71 1.71 0 0 0-3.42 0 1.66 1.66 0 0 0 1.71 1.68v0.07zm-9.45-2.91a1.71 1.71 0 1 0 0.261-3.41 1.71 1.71 0 0 0-0.261 3.41zm4.51 4.49a1.7 1.7 0 1 0 3.4 0 1.7 1.7 0 0 0-3.4 0zm-2.63-12.6a1.7 1.7 0 1 0-3.4-0.09A1.72 1.72 0 0 0 20 8a1.7 1.7 0 0 0 1.72-1.68zm-5 4.94a1.7 1.7 0 1 0-1.199-0.494 1.7 1.7 0 0 0 1.239 0.494 h-0.04zm-3.28 3.24a1.66 1.66 0 0 0 1.71-1.65 1.71 1.71 0 1 0-3.41 0 1.65 1.65 0 0 0 1.7 1.65zm3.1 3.11a1.7 1.7 0 1 0-1.7-1.69 1.68 1.68 0 0 0 1.7 1.69z" fill="#FFF"/>
  <path d="M16.46 23.66A4.75 4.75 0 1 1 11.71 19a4.76 4.76 0 0 1 4.75 4.66zm-5.76-3.1l-0.48 0.23 a3.17 3.17 0 0 0-1 0.8c-0.12 0.14 -0.11 0.19 0 0.32 0.44 0.42 0.87 0.86 1.3 1.29 0.09 0.09 0.08 0.16 0 0.25L9 25a0.18 0.18 0 0 0 0 0.26c0.29 0.506 0.711 0.925 1.22 1.21a0.16 0.16 0 0 0 0.22 0L11.72 25c0.36-0.36 0.24 -0.32 0.58 0 0.34 0.32 0.74 0.74 1.11 1.11 0.13 0.14 0.18 0.14 0.33 0a3.47 3.47 0 0 0 0.29-0.25 3.65 3.65 0 0 0 0.71-1.06 0.28 0.28 0 0 0-0.08-0.38c-0.35-0.33-0.68-0.67-1-1-0.15-0.15-0.15-0.18 0-0.33l0.89-0.88c0.09-0.09 0.11 -0.15 0-0.26a3.23 3.23 0 0 0-1.24-1.22 0.14 0.14 0 0 0-0.19 0l-1 1c-0.09 0.1 -0.15 0.09 -0.24 0-0.36-0.37-0.73-0.73-1.09-1.09l-0.09-0.08z" fill="#FFF"/>
</svg>
