<?xml version="1.0" ?>
<svg xmlns="http://www.w3.org/2000/svg" width="32" height="30" viewBox="0 0 32 30">
  <path d="M16.75 17c0.07-0.19 0.14 -0.39 0.23 -0.58a3 3 0 0 1 2.25-1.72 7.5 7.5 0 0 1 1.34 0c0.13 0 0.17 0.09 0.17 0.2 a3.59 3.59 0 0 1-1.2 2.76A5.94 5.94 0 0 1 17 18.91c-0.28 0.06 -0.32 0.1 -0.32 0.38 v2.3h0.08l0.15-0.38a2.88 2.88 0 0 1 2-1.85 3.26 3.26 0 0 1 1.64-0.09c0.15 0 0.2 0.1 0.19 0.24 a3.54 3.54 0 0 1-1.4 2.85 6.32 6.32 0 0 1-2.53 1.14 0.25 0.25 0 0 0-0.16 0.2 v2.28a0.48 0.48 0 0 0 0.05 0.17 h0.06l0.13-0.33a2.91 2.91 0 0 1 2.18-1.94 4.39 4.39 0 0 1 1.49-0.06c0.14 0 0.19 0.09 0.19 0.23 a3.54 3.54 0 0 1-1.24 2.75 5.8 5.8 0 0 1-2.56 1.22c-0.28 0.06 -0.31 0.09 -0.31 0.38 v1c0 0.27-0.12 0.45 -0.3 0.44 -0.18-0.01-0.29-0.19-0.29-0.45v-1.07a0.25 0.25 0 0 0-0.21-0.29 6.7 6.7 0 0 1-1.78-0.66 3.83 3.83 0 0 1-1.83-1.87 4.63 4.63 0 0 1-0.29-1.47 0.2 0.2 0 0 1 0.21-0.24 4 4 0 0 1 2.16 0.31 2.88 2.88 0 0 1 1.47 1.65l0.15 0.36 H16v-0.25-2.16c0-0.18-0.08-0.24-0.25-0.28a5.34 5.34 0 0 1-3.15-1.78 3 3 0 0 1-0.6-1.43c0-0.22-0.06-0.45-0.08-0.68-0.02-0.23 0-0.18 0.17 -0.21a3.16 3.16 0 0 1 3.77 2.24s0 0.06 0.1 0.09a1 1 0 0 0 0.06-0.23v-2.23c0-0.2-0.13-0.23-0.27-0.27-0.31-0.09-0.63-0.16-0.93-0.27a5.34 5.34 0 0 1-1.78-1 2.94 2.94 0 0 1-1-1.63c-0.07-0.34-0.12-0.7-0.16-1.05a0.31 0.31 0 0 1 0.15-0.2 4.32 4.32 0 0 1 1.82 0.14 2.94 2.94 0 0 1 2 2.06 0.42 0.42 0 0 0 0 0.1h0.07a1.12 1.12 0 0 0 0.06-0.23v-2.2c0-0.17-0.08-0.23-0.24-0.27a5.48 5.48 0 0 1-3.14-1.76A3 3 0 0 1 12 11c0-0.22-0.06-0.44-0.08-0.65-0.02-0.21 0-0.2 0.18 -0.24a3.2 3.2 0 0 1 3.66 2c0.041 0.13 0.106 0.252 0.19 0.36 a0.86 0.86 0 0 0 0.07-0.21V10c0-0.13-0.06-0.18-0.18-0.22a12.3 12.3 0 0 1-1.48-0.51 4 4 0 0 1-1.93-1.6 3.8 3.8 0 0 1-0.51-1.89 0.2 0.2 0 0 1 0.2-0.25c0.96-0.15 1.94 0.09 2.72 0.67 0.48 0.398 0.827 0.931 1 1.53a0.29 0.29 0 0 0 0.11 0.16 0.83 0.83 0 0 0 0.05-0.18V5.93a0.39 0.39 0 0 0 0-0.22 3.9 3.9 0 0 1-1-2.14 4 4 0 0 1 1.2-3.5c0.1-0.09 0.18 -0.1 0.28 0a4.11 4.11 0 0 1 1.1 1.73 4 4 0 0 1-0.85 3.9 0.44 0.44 0 0 0-0.09 0.27 v1.67a1.87 1.87 0 0 0 0 0.25h0.07c0.07-0.18 0.14 -0.37 0.22 -0.55a2.82 2.82 0 0 1 2.09-1.7 9.86 9.86 0 0 1 1.44-0.08c0.21 0 0.25 0.12 0.24 0.3 a3.6 3.6 0 0 1-1.57 3 7.13 7.13 0 0 1-2.32 1c-0.17 0-0.22 0.12 -0.22 0.28 v2.09a1.35 1.35 0 0 0 0 0.28h0.07l0.13-0.31a2.89 2.89 0 0 1 2.4-2 3.1 3.1 0 0 1 1.25 0c0.17 0 0.22 0.11 0.21 0.27 A3.59 3.59 0 0 1 19 13.5a6.67 6.67 0 0 1-2.18 0.88 0.27 0.27 0 0 0-0.17 0.2 v2.27a0.61 0.61 0 0 0 0.05 0.18 l0.05-0.03zM8.71 16.85v2.1a0.74 0.74 0 0 1-0.16 0.41 4.56 4.56 0 0 1-2.72 1.57 4.5 4.5 0 0 1-4-1.05 5.33 5.33 0 0 1-1.44-2.34 8.87 8.87 0 0 1-0.33-3.69 6.14 6.14 0 0 1 1.43-3.52A4.23 4.23 0 0 1 3.73 9a4.35 4.35 0 0 1 2.15 0 3.89 3.89 0 0 1 2.45 1.8c0.1 0.16 0.18 0.33 0.28 0.48 0.1 0.15 0.06 0.18 0 0.24l-1.47 0.7 c-0.1 0-0.15 0-0.22-0.08a5.09 5.09 0 0 0-0.7-0.89 2.09 2.09 0 0 0-3 0.26 4 4 0 0 0-0.86 1.83 7.54 7.54 0 0 0-0.15 2.17 5.07 5.07 0 0 0 0.67 2.37 2.21 2.21 0 0 0 2.49 1.17 1.92 1.92 0 0 0 1.2-0.6 0.53 0.53 0 0 0 0.15-0.35v-1.52c0-0.18-0.07-0.25-0.25-0.25h-2c-0.19 0-0.26 0-0.26-0.25v-1.41c0-0.16 0.06 -0.22 0.23 -0.22h4c0.19 0 0.22 0.08 0.22 0.24 v2.16h0.05zM25 14.91V9.28c0-0.3 0-0.3 0.29 -0.3h6.05c0.19 0 0.26 0 0.25 0.23 v1.42c0 0.22-0.08 0.27 -0.29 0.27 h-3.8c-0.37 0-0.37 0-0.37 0.37 v2.27c0 0.3 0 0.31 0.31 0.31h3.74c0.3 0 0.3 0 0.3 0.29 v1.35c0 0.21-0.07 0.25 -0.26 0.25 h-3.69c-0.37 0-0.37 0-0.37 0.36 v4.49c0 0.22-0.07 0.28 -0.28 0.28 h-1.6c-0.22 0-0.27-0.08-0.26-0.28v-5.68H25z" fill="#FFF"/>
</svg>
