<?xml version="1.0" ?>
<svg xmlns="http://www.w3.org/2000/svg" width="38" height="37" viewBox="0 0 38 37">
  <path d="M0 23.13v-6.2a0.86 0.86 0 0 1 0.19-0.58 0.68 0.68 0 0 1 0.81-0.07 16.9 16.9 0 0 0 3.08 1.5c0.7 0.26 1.42 0.49 2.14 0.7 0.72 0.21 1.35 0.36 2 0.52 0.65 0.16 1.38 0.29 2.07 0.42 0.4 0.07 0.82 0.12 1.22 0.17 l2.16 0.27 c0.31 0 0.63 0.06 0.94 0.08 l1.78 0.09 c0.82 0 1.63 0.06 2.45 0.06 0.82 0 1.71 0 2.56-0.07 0.68 0 1.37-0.08 2.05-0.15 0.68 -0.07 1.31-0.13 2-0.22s1.28-0.18 1.91-0.3c0.63-0.12 1.44-0.27 2.14-0.45a29 29 0 0 0 3.5-1.08 18 18 0 0 0 3.15-1.56 0.63 0.63 0 0 1 0.92 0.22 c0.07 0.15 0.104 0.314 0.1 0.48 v11.85a3.72 3.72 0 0 1-1.51 3.24 10.54 10.54 0 0 1-2.56 1.54c-0.667 0.293 -1.333 0.56 -2 0.8-0.54 0.19 -1.1 0.32 -1.66 0.47 l-1.39 0.34 c-0.3 0.07 -0.6 0.12 -0.9 0.17 l-1.1 0.2 -0.53 0.08 -1.47 0.17 -2 0.2H22c-1.82 0.1 -3.63 0.12 -5.45 0.07 -0.77 0-1.54-0.08-2.31-0.15-0.77-0.07-1.36-0.13-2-0.22-0.64-0.09-1.27-0.18-1.89-0.3-0.62-0.12-1.44-0.24-2.14-0.42-0.92-0.24-1.84-0.51-2.74-0.82a14 14 0 0 1-3.19-1.54A5.78 5.78 0 0 1 0.41 30.8 3 3 0 0 1 0 29.29v-6.16zm13.06 4.48v-0.54-4.4a1.11 1.11 0 0 0-1-1.09 1.22 1.22 0 0 0-1.41 1.24v9.57c0.003 0.208 0.051 0.412 0.14 0.6 a1.15 1.15 0 0 0 1.33 0.65 1.24 1.24 0 0 0 0.91-1.24c-0.03-1.58 0.03 -3.19 0.03 -4.79zm11.11 0v4.9a1.22 1.22 0 0 0 1 1.16 1.21 1.21 0 0 0 1.38-1.21v-9.64a1.51 1.51 0 0 0-0.13-0.59 1.14 1.14 0 0 0-1.33-0.62 1.24 1.24 0 0 0-0.91 1.26c0 1.59-0.01 3.13-0.01 4.75v-0.01zm9.08-1.55v-4.8a1.33 1.33 0 0 0-0.09-0.54 1.13 1.13 0 0 0-1.44-0.67 1.2 1.2 0 0 0-0.84 1.24v9.52c0 0.215 0.047 0.426 0.14 0.62a1.14 1.14 0 0 0 1.55 0.54 1.17 1.17 0 0 0 0.67-1.11v-4.79l0.01-0.01zm-15.82 2.35v4.9a1.2 1.2 0 0 0 1.25 1.17 1.22 1.22 0 0 0 1.12-1.22v-9.59a1.9 1.9 0 0 0-0.07-0.51 1.22 1.22 0 0 0-1.46-0.75 1.28 1.28 0 0 0-0.85 1.21c0.02 1.6 0.01 3.2 0.01 4.79zM4 26.05v4.8a1.37 1.37 0 0 0 0.09 0.52 1.15 1.15 0 0 0 1.71 0.54 1.24 1.24 0 0 0 0.57-1.09v-9.57a1.37 1.37 0 0 0-0.14-0.58 1.14 1.14 0 0 0-1.47-0.58A1.13 1.13 0 0 0 4 21.23v4.82z" fill="#FFF"/>
  <path d="M10.09 5.16c-0.34 0.11 -0.66 0.2 -1 0.32a4.92 4.92 0 0 0-2.65 2.41c-0.07 0.13 -0.13 0.27 -0.2 0.41 -0.16 0.247 -0.4 0.43 -0.68 0.52 a4.6 4.6 0 0 0-1.44 1 1.63 1.63 0 0 0-0.46 1.05 1.6 1.6 0 0 0 0.37 1 5.14 5.14 0 0 0 1.83 1.33 14.36 14.36 0 0 0 2.31 0.87 c0.54 0.16 1.1 0.28 1.66 0.4 0.56 0.12 1.16 0.25 1.75 0.35 0.59 0.1 0.9 0.12 1.36 0.17 l1.82 0.2 c0.36 0 0.71 0.07 1.07 0.08 1.14 0 2.29 0.08 3.43 0.07 1.14-0.01 2.19-0.08 3.28-0.14 0.7 0 1.4-0.12 2.1-0.22 0.7 -0.1 1.38-0.22 2.07-0.35 0.52 -0.09 1-0.19 1.55-0.32s1.1-0.32 1.65-0.49A9.89 9.89 0 0 0 32 13a4.08 4.08 0 0 0 1.22-1 1.55 1.55 0 0 0-0.14-2.16c-0.15-0.16-0.36-0.27-0.53-0.42a0.56 0.56 0 0 1-0.17-0.27 5 5 0 0 0-2.42-3.28 0.23 0.23 0 0 1-0.07-0.05 1.16 1.16 0 0 1-0.07-0.13h0.13c0.22 0.05 0.44 0.11 0.65 0.18 0.54 0.18 1.09 0.36 1.62 0.57 a11.58 11.58 0 0 1 3.89 2.29 3.79 3.79 0 0 1 1 1.44 2.48 2.48 0 0 1 0 1.73 4.6 4.6 0 0 1-1.74 2.09A12.85 12.85 0 0 1 32 15.71c-0.73 0.26 -1.47 0.5 -2.21 0.72 -0.56 0.16 -1.14 0.28 -1.72 0.4 -0.58 0.12 -1.36 0.26 -2 0.37-0.53 0.09 -1.07 0.16 -1.61 0.22 -0.88 0.09 -1.77 0.19 -2.65 0.23 -1.34 0.06 -2.68 0.08 -4 0.11H16.4c-0.81 0-1.61-0.09-2.42-0.16-0.63-0.05-1.25-0.13-1.87-0.22-0.62-0.09-1.34-0.22-2-0.35-0.66-0.13-1.06-0.2-1.59-0.32s-1-0.27-1.52-0.42c-0.52-0.15-1.11-0.34-1.65-0.54a12.59 12.59 0 0 1-3.71-2 4.16 4.16 0 0 1-1.47-1.91 2.53 2.53 0 0 1 0-1.54A4.22 4.22 0 0 1 1.7 8.14 10.41 10.41 0 0 1 4.19 6.7c0.69-0.3 1.4-0.54 2.11-0.77 0.71 -0.23 1.15-0.36 1.7-0.51 0.55 -0.15 1-0.21 1.51-0.32 0.21 -0.04 0.4 -0.1 0.58 0.06z" fill="#FFF"/>
  <path d="M30.13 10.35a2.47 2.47 0 0 1-1.52 2.31 2.59 2.59 0 0 1-3.31-1.1 2.81 2.81 0 0 1-0.36-1.28 0.21 0.21 0 0 0-0.13-0.21l-5.24-2.7a0.71 0.71 0 0 0-0.69 0l-4.43 2.24-0.82 0.4 a0.25 0.25 0 0 0-0.15 0.24 2.61 2.61 0 0 1-1.59 2.4 2.52 2.52 0 0 1-3.29-1.2 2.41 2.41 0 0 1-0.28-1.52A2.54 2.54 0 0 1 9.9 7.87a3.16 3.16 0 0 1 0.91-0.22c0.462-0.02 0.92 0.103 1.31 0.35 a0.34 0.34 0 0 0 0.36 0L16 6.15l0.24-0.15c0.19-0.12 0.19 -0.29 0-0.39l-2.6-1.31-3.81-1.95a1.26 1.26 0 0 1-0.7-1.06C9.152 0.76 9.498 0.3 10 0.13a1.6 1.6 0 0 1 1.22 0.26 l4.39 2.19 3.31 1.65a0.69 0.69 0 0 0 0.65 0l5.82-3L27.6 0.12 a1.18 1.18 0 0 1 1.64 0.88 1.25 1.25 0 0 1-0.82 1.39C26.69 3.23 25 4.11 23.26 5l-1.07 0.56 a0.29 0.29 0 0 0-0.15 0.2 0.29 0.29 0 0 0 0.15 0.2 l2.62 1.32c0.36 0.18 0.71 0.37 1.07 0.53 a0.54 0.54 0 0 0 0.38 0 3.83 3.83 0 0 1 1.21-0.31 2.25 2.25 0 0 1 1.67 0.63 2.9 2.9 0 0 1 0.99 2.22z" fill="#FFF"/>
</svg>
