<?xml version="1.0" ?>
<svg xmlns="http://www.w3.org/2000/svg" width="27" height="32" viewBox="0 0 27 32">
  <path d="M13.2 8.59h12.43c0.57 0 0.74 0.15 0.74 0.64 s-0.19 0.72 -0.73 0.72 h-1.91c-0.37 0-0.5 0.09 -0.5 0.48 v20.42c0 0.5-0.13 0.63 -0.64 0.65 -1.11 0-1.2 0-1.19-1.16v-0.87c0-0.29-0.1-0.47-0.4-0.47H5.47c-0.55 0-0.56 0-0.56 0.55 v1.37a0.5 0.5 0 0 1-0.53 0.55 c-1.38 0.1 -1.28-0.03-1.28-1.1v-19.8c0-0.61 0-0.61-0.62-0.61H0.7c-0.55 0-0.7-0.17-0.7-0.73 0-0.56 0.14 -0.63 0.69 -0.63H13.2v-0.01zm-0.06 19.07h7.75c0.42 0 0.54-0.13 0.54 -0.54V14.69c0-0.61 0-0.61-0.63-0.61H5.51c-0.59 0-0.6 0-0.6 0.61 v12.43c0 0.55 0 0.55 0.56 0.55l7.67-0.01zm0-14.42h7.7c0.54 0 0.55 0 0.55-0.56v-1.74c0-0.58 0-0.61-0.6-0.61H5.45c-0.39 0-0.55 0.12 -0.54 0.52 v1.82c0 0.61 0 0.56 0.55 0.56l7.68 0.01 zM19.42 7.65c0.3 0.51 0.19 0.71 -0.39 0.72 h-2.32a0.59 0.59 0 0 1-0.44-0.22c-0.06-0.11 0-0.31 0.09 -0.51l-0.23-0.1a1.66 1.66 0 0 1-1.28-1.76v-3.6a1.06 1.06 0 0 0-0.39-0.91 3.46 3.46 0 0 1-0.62-0.66c-0.08-0.11 0-0.32 0-0.48h0.48c0.46 0.69 1.16 0.66 1.88 0.65 h4.1a1.25 1.25 0 0 0 1-0.47c0.17-0.19 0.37 -0.52 0.67 -0.22 0.3 0.3 0 0.53-0.19 0.69 a2.08 2.08 0 0 0-0.84 2c0.07 0.92 0 1.85 0 2.77a1.73 1.73 0 0 1-1.39 2l-0.13 0.1 zM6.91 7.6l-0.3-0.1a1.61 1.61 0 0 1-1.19-1.34 1.2 1.2 0 0 1 0-0.37A2.1 2.1 0 0 0 4.5 3.6c-0.19-0.14-0.36-0.37-0.14-0.6 0.22 -0.23 0.46 -0.08 0.6 0.11a1.51 1.51 0 0 0 1.39 0.54 h4.47a1.22 1.22 0 0 0 1-0.44c0.16-0.19 0.37 -0.53 0.67 -0.24 0.3 0.29 0 0.52-0.19 0.72 a1.2 1.2 0 0 1-0.15 0.15 1.72 1.72 0 0 0-0.68 1.62c0.05 1.32-0.26 1.7-1.49 2.13h-0.07c0 0.2 0.19 0.45 0.12 0.54a0.76 0.76 0 0 1-0.54 0.2 H7.25a0.68 0.68 0 0 1-0.49-0.2c-0.01-0.07 0.11 -0.29 0.15 -0.53z" fill="#FFF"/>
  <path d="M13.19 15.14H8.72c-1 0-1.3 0.33 -1.31 1.29v4.1c0 0.94 0.33 1.26 1.28 1.26h9.07a1 1 0 0 0 1.17-1.18v-4.35a1 1 0 0 0-1.07-1.11c-1.55-0.02-3.11-0.01-4.67-0.01zm0 11.4h4.6c0.79 0 1.15-0.38 1.16-1.17v-1.08c0-1-0.31-1.36-1.35-1.36H8.47A1 1 0 0 0 7.42 24v1.41a1 1 0 0 0 1.16 1.13h4.61z" fill="#FFF"/>
  <path d="M13.19 15.14h4.68a1 1 0 0 1 1.07 1.11v4.35a1 1 0 0 1-1.17 1.18H8.7c-1 0-1.28-0.32-1.28-1.26v-4.1c0-1 0.33-1.29 1.31-1.29h4.47l-0.01 0.01 zm0 0.78h-1c-0.25 0-0.32 0.11 -0.25 0.34 a1.25 1.25 0 0 0 2.37 0c0.07-0.24 0-0.34-0.25-0.34h-0.87zM13.18 26.54h-4.6a1 1 0 0 1-1.16-1.13V24a1 1 0 0 1 1.06-1.07h9.1c1 0 1.35 0.31 1.35 1.36v1.08c0 0.79-0.37 1.17-1.16 1.17h-4.6 0.01 zm0-2.83h-0.91c-0.3 0-0.36 0.13 -0.26 0.39 a1.25 1.25 0 0 0 1.19 0.79 1.27 1.27 0 0 0 1.17-0.89c0.07-0.21 0-0.32-0.22-0.32l-0.97 0.03 zM17.38 11.77a0.74 0.74 0 0 1-0.73 0.75 0.72 0.72 0 0 1-0.06-1.43 0.73 0.73 0 0 1 0.79 0.68 zM14.32 11.08a0.72 0.72 0 1 1 0 1.44 0.72 0.72 0 0 1 0-1.44zM12.77 11.8a0.75 0.75 0 0 1-0.72 0.71 0.76 0.76 0 0 1-0.75-0.72 0.74 0.74 0 0 1 1.47 0v0.01zM9.72 11.08a0.74 0.74 0 0 1 0.75 0.71 0.74 0.74 0 0 1-1.48 0 0.73 0.73 0 0 1 0.73-0.71zM7.45 12.51a0.71 0.71 0 0 1-0.527-1.206 0.73 0.73 0 0 1 1.018-0.033 0.7 0.7 0 0 1 0.219 0.489 0.71 0.71 0 0 1-0.71 0.75 zM18.22 11.77a0.69 0.69 0 0 1 0.72-0.69 0.7 0.7 0 0 1 0.71 0.74 0.71 0.71 0 1 1-1.42-0.06l-0.01 0.01 z" fill="#FFF"/>
  <path d="M13.2 23.71h1c0.23 0 0.29 0.11 0.22 0.32 a1.27 1.27 0 0 1-1.15 0.86 A1.25 1.25 0 0 1 12 24.1c-0.1-0.26 0-0.4 0.26 -0.39H13.2z" fill="#FFF"/>
</svg>
