<?xml version="1.0" ?>
<svg xmlns="http://www.w3.org/2000/svg" width="32" height="32" viewBox="0 0 32 32">
  <path d="M5.22 9.9V1.21a1.14 1.14 0 0 1 0.52-1 1.11 1.11 0 0 1 1.67 0.65 2.53 2.53 0 0 1 0 0.49v17.43c0 0.21 0 0.21 0.22 0.21h4.54c0.27 0 0.26 0 0.29 0.27 a19 19 0 0 1 0.13 2.53c0 0.63 0 1.25-0.07 1.88 0 0.29 0 0.59-0.08 0.88 -0.08 0.29 -0.11 0.68 -0.17 1-0.06 0.32 -0.11 0.6 -0.2 0.89 -0.14 0.47 -0.28 0.94 -0.45 1.4a6.86 6.86 0 0 1-0.91 1.62 5.1 5.1 0 0 1-2.16 1.71 4.64 4.64 0 0 1-1.44 0.37 9.63 9.63 0 0 1-1.42 0 5.15 5.15 0 0 1-2.93-1.13 6.13 6.13 0 0 1-1.57-2 9.93 9.93 0 0 1-0.73-2C0.4 26 0.33 25.55 0.25 25.08a19.51 19.51 0 0 1-0.23-4c0-0.62 0.08 -1.24 0.13 -1.86 0-0.23 0-0.24 0.28 -0.24H5c0.21 0 0.21 0 0.21-0.22 0.007 -2.947 0.01 -5.9 0.01 -8.86zM18.67 3.74V2.09 0.69 a0.66 0.66 0 0 1 0.41-0.63 0.61 0.61 0 0 1 0.83 0.38 c0.05 0.124 0.08 0.256 0.09 0.39 V3.73h2.62v-0.18V0.7A0.67 0.67 0 0 1 23 0.06a0.61 0.61 0 0 1 0.83 0.36 c0.043 0.122 0.063 0.25 0.06 0.38 v2.95h2.45c0.14 0 0.18 0 0.17-0.17V0.73a0.68 0.68 0 0 1 0.4-0.67 0.61 0.61 0 0 1 0.83 0.34 1 1 0 0 1 0.06 0.36 V3.73h2.46c0.14 0 0.17 0 0.17-0.18V0.72a0.69 0.69 0 0 1 0.4-0.68 0.61 0.61 0 0 1 0.82 0.34 0.91 0.91 0 0 1 0.06 0.34 v3.86a0.56 0.56 0 0 1-0.58 0.57 h-6.8c-0.15 0-0.19 0-0.19 0.19 v25.02a1.33 1.33 0 0 1-0.15 0.81 0.93 0.93 0 0 1-1.64-0.17 1.07 1.07 0 0 1 0-0.35v-4.73-5.91-5.3-5.89-3.39c0-0.22 0-0.22-0.22-0.22h-6.79a0.56 0.56 0 0 1-0.6-0.6V0.75a0.67 0.67 0 0 1 0.41-0.66 0.62 0.62 0 0 1 0.83 0.4 c0.02 0.122 0.026 0.246 0.02 0.37 v2.72c0 0.1 0 0.17 0.13 0.17h2.49l0.05-0.01z" fill="#FFF"/>
</svg>
