<?xml version="1.0" ?>
<svg xmlns="http://www.w3.org/2000/svg" width="44" height="25" viewBox="0 0 44 25">
  <path d="M3.65 8.66a0.93 0.93 0 0 0-0.21 0.08 c-0.12 0-0.27 0.08 -0.33 0.18 -0.06 0.1 0 0.21 0.05 0.33a0.34 0.34 0 0 1-0.16 0.42 0.31 0.31 0 0 1-0.43-0.2c-0.19-0.42-0.36-0.84-0.53-1.26a0.31 0.31 0 0 1 0.16-0.4 0.34 0.34 0 0 1 0.45 0.13 c0.06 0.1 0.11 0.28 0.18 0.29 a1.2 1.2 0 0 0 0.4-0.11c0.17-0.06 0.2 -0.16 0.13 -0.31a5.86 5.86 0 0 1-0.28-0.69 0.5 0.5 0 0 1 0-0.36 0.55 0.55 0 0 0 0-0.47l-0.52-1.22a0.4 0.4 0 0 0-0.38-0.29 0.77 0.77 0 0 1-0.72-0.55L0.61 2.16a0.46 0.46 0 0 0-0.33-0.32C0.13 1.79 0 1.71 0 1.53a0.32 0.32 0 0 1 0.25-0.33C1 0.9 1.67 0.59 2.4 0.31 a0.48 0.48 0 0 1 0.38 0.07 0.27 0.27 0 0 1 0 0.4 0.48 0.48 0 0 0 0 0.45c0.31 0.72 0.6 1.44 0.9 2.16a0.68 0.68 0 0 1-0.12 0.78 0.43 0.43 0 0 0-0.09 0.52 c0.19 0.42 0.35 0.86 0.54 1.28a0.53 0.53 0 0 0 0.28 0.23 0.54 0.54 0 0 1 0.31 0.32 c1.08 2.62 2.17 5.24 3.25 7.87a0.25 0.25 0 0 0 0.24 0.19 c0.19 0 0.28 0.15 0.34 0.31 l0.27 0.65 c0 0.12 0.11 0.15 0.23 0.1 0.48 -0.18 0.48 -0.17 0.29 -0.65-0.06-0.16-0.12-0.32-0.19-0.47a0.74 0.74 0 0 0-0.21-0.31c-0.49-0.26-0.59-0.74-0.78-1.18-0.19-0.44-0.32-0.74-0.45-1.12a1.12 1.12 0 0 1-0.06-0.54 10.9 10.9 0 0 1 12.32-8.8 10.78 10.78 0 0 1 6.68 3.64 10.62 10.62 0 0 1 2.28 4.23 10.65 10.65 0 0 1 0.31 4.42 10.78 10.78 0 0 1-5.35 8 10.1 10.1 0 0 1-5.67 1.47A12.62 12.62 0 0 1 7 17.48c-0.31-0.55-0.51-1.16-0.77-1.74a0.32 0.32 0 0 1 0.07-0.39 0.25 0.25 0 0 0 0-0.31l-1.65-4-0.9-2.19c-0.02-0.05-0.06-0.11-0.1-0.19zm14.16 11a7.18 7.18 0 1 0-7.19-7.11 7.16 7.16 0 0 0 7.19 7.08v0.03z" fill="#FFF"/>
  <path d="M24.22 23.46c0.56-0.42 1.09-0.78 1.59-1.2a11.36 11.36 0 0 0 3.36-4.75 11.06 11.06 0 0 0 0.74-4.58c0-0.75-0.19-1.5-0.3-2.24a0.43 0.43 0 0 1 0.1-0.42 34.59 34.59 0 0 0 3.59-4.43 10.67 10.67 0 0 0 1.29-2.57 3.23 3.23 0 0 0 0-2.27 2.74 2.74 0 0 1-0.17-0.48 0.4 0.4 0 0 1 0.23-0.46 0.5 0.5 0 0 1 0.56 0.06 c0.19 0.17 0.37 0.36 0.55 0.54 2.553 2.547 5.107 5.1 7.66 7.66 0.092 0.099 0.179 0.202 0.26 0.31a0.41 0.41 0 0 1 0 0.49 0.39 0.39 0 0 1-0.46 0.19 4.41 4.41 0 0 0-3.7 0.44 19.19 19.19 0 0 0-3.87 2.64 49.36 49.36 0 0 0-4.18 3.87c-0.13 0.13 -0.2 0.22 0 0.38a0.32 0.32 0 0 1 0 0.42 16 16 0 0 1-5.87 5.8c-0.37 0.21 -0.77 0.37 -1.16 0.55 l-0.22 0.05 z" fill="#FFF"/>
</svg>
