<?xml version="1.0" ?>
<svg xmlns="http://www.w3.org/2000/svg" width="26" height="36" viewBox="0 0 26 36">
  <path d="M14.44 17.84h8.86c0.22 0 0.22 0 0.22 0.24 V33.02a2.76 2.76 0 0 1-2 2.69 4.08 4.08 0 0 1-1.1 0.16 H8.27a2.75 2.75 0 0 1-2.62-1.62A2.86 2.86 0 0 1 5.37 33V18.1c0-0.26 0-0.26 0.27 -0.26h8.8zm-2.81 10.52a1.74 1.74 0 0 0 1.72-1.67 1.75 1.75 0 1 0-1.72 1.67zm4.81 0a1.77 1.77 0 0 0 1.74-1.75 1.75 1.75 0 1 0-3.49 0.06 1.74 1.74 0 0 0 1.75 1.69zm-8.56-6.5a1.74 1.74 0 1 0 1.59-1.72 1.73 1.73 0 0 0-1.59 1.72zm11.39 7.76a1.74 1.74 0 1 0-0.02 3.48 1.74 1.74 0 0 0 0.02-3.48zm-3.1 1.75a1.74 1.74 0 1 0-1.72 1.74 1.76 1.76 0 0 0 1.72-1.74zm3.08-7.77A1.72 1.72 0 0 0 21 21.94a1.76 1.76 0 0 0-1.63-1.8 1.74 1.74 0 0 0-1.86 1.72 1.71 1.71 0 0 0 1.74 1.74zm-7.92 7.76a1.74 1.74 0 0 0-1.78-1.75 1.81 1.81 0 0 0-1.68 1.85 1.77 1.77 0 0 0 1.76 1.64 1.71 1.71 0 0 0 1.69-1.74h0.01zm3.12-11.21a1.7 1.7 0 0 0-1.76 1.74 1.74 1.74 0 1 0 1.76-1.74zM9.62 16.67H5.55c-0.13 0-0.2 0-0.24-0.17-0.14-0.5-0.31-1-0.47-1.49-0.16-0.49-0.41-1.23-0.61-1.85-0.2-0.62-0.34-1.09-0.52-1.64l-0.53-1.6-0.45-1.4-0.53-1.65c-0.15-0.45-0.3-0.9-0.43-1.35a0.16 0.16 0 0 1 0.08-0.13L2.9 5l1.94-0.75L5.4 4a0.14 0.14 0 0 1 0.12 0.06 c0.22 0.66 0.43 1.33 0.65 2 0.22 0.67 0.5 1.5 0.75 2.25s0.43 1.37 0.66 2c0.23 0.63 0.5 1.5 0.75 2.25s0.48 1.5 0.73 2.24c0.17 0.53 0.36 1 0.53 1.58 0.018 0.096 0.028 0.193 0.03 0.29zM17.38 16.66h-1.1v-1.25h-1.65a0.59 0.59 0 0 1-0.53-0.41 0.53 0.53 0 0 1 0.2-0.62 0.72 0.72 0 0 1 0.35-0.11H16.26v-2.5h-1.64a0.59 0.59 0 0 1-0.51-0.36 0.54 0.54 0 0 1 0.19-0.62 0.75 0.75 0 0 1 0.37-0.12H16.27V8.13h-1.63a0.55 0.55 0 0 1-0.56-0.56 0.54 0.54 0 0 1 0.55-0.57h1.63V4.47h-1.63a0.58 0.58 0 0 1-0.53-0.37 0.53 0.53 0 0 1 0.2-0.62 0.72 0.72 0 0 1 0.35-0.11H16.25V1.53H11.5v15.13h-1.1v-0.18V1.05a0.62 0.62 0 0 1 0.6-0.64h5.72a0.65 0.65 0 0 1 0.64 0.65 v15.43l0.02 0.17 zM22.72 7.35l-0.21 0.76 -0.32 1.21-0.31 1.16-0.32 1.19-0.31 1.17-0.31 1.16-0.25 0.94 -0.31 1.16c0 0.15-0.07 0.29 -0.12 0.43 -0.05 0.14 -0.08 0.13 -0.12 0.13 h-1l0.23-0.85 0.32 -1.17 0.31 -1.16 0.32 -1.17 0.33 -1.19 0.25 -1.12 0.32 -1.17c0.1-0.36 0.22 -0.72 0.3 -1.09a7.48 7.48 0 0 1 1-2.44c0.79-1.32 1.55-2.66 2.32-4a0.52 0.52 0 0 1 0.53-0.3 0.54 0.54 0 0 1 0.43 0.58 v5.8a3.72 3.72 0 0 1-0.15 0.82 c-0.1 0.42 -0.22 0.83 -0.33 1.24l-0.32 1.2-0.31 1.19-0.32 1.17-0.37 1.24-0.31 1.19c-0.08 0.32 -0.18 0.64 -0.25 1s-0.06 0.29 -0.33 0.29 h-0.81c0-0.16 0.06 -0.29 0.1 -0.42 0.18 -0.69 0.36 -1.38 0.55 -2.06 0.19 -0.68 0.32 -1.12 0.47 -1.69 0.15 -0.57 0.29 -1.14 0.45 -1.71 0.16 -0.57 0.36 -1.3 0.54 -2l0.2-0.84c0-0.11 0-0.17-0.12-0.21-0.58-0.11-1.16-0.27-1.77-0.44zm0.47-1l1.62 0.41 v-2c-0.18 0-0.34-0.11-0.51-0.14a0.23 0.23 0 0 0-0.19 0.08 c-0.3 0.49 -0.59 1-0.87 1.5a0.71 0.71 0 0 0-0.05 0.16 v-0.01zM3.52 16.68a0.54 0.54 0 0 1-1.06 0.17 c-0.2-0.62-0.41-1.24-0.57-1.87-0.16-0.63-0.3-1.26-0.42-1.9-0.12-0.64-0.2-1.08-0.29-1.63C1.09 10.9 1 10.31 0.9 9.73 0.8 9.15 0.68 8.52 0.54 7.93 0.4 7.34 0.2 6.63 0 6a0.6 0.6 0 0 1 0.31-0.65 0.54 0.54 0 0 1 0.71 0.3 c0.15 0.5 0.3 1 0.43 1.52s0.23 1 0.33 1.46c0.06 0.31 0.1 0.63 0.16 0.94 0.06 0.31 0.13 0.72 0.19 1.08 0.06 0.36 0.1 0.67 0.16 1 0.06 0.33 0.13 0.72 0.19 1.08 0.06 0.36 0.1 0.54 0.16 0.8s0.14 0.72 0.24 1.07c0.1 0.35 0.26 0.9 0.4 1.35 0 0.16 0.11 0.32 0.16 0.48 0.05 0.16 0.06 0.15 0.08 0.25zM1.1 1.57a1.54 1.54 0 0 1 1-1.43c0.204-0.083 0.42 -0.13 0.64 -0.14A1.28 1.28 0 0 1 4 0.84c0.21 0.58 0.39 1.17 0.58 1.76l0.18 0.54 c0.06 0.18 0 0.25-0.14 0.32 l-2.07 0.8 c-0.16 0.06 -0.32 0.13 -0.49 0.18 a0.16 0.16 0 0 1-0.14-0.06c-0.15-0.46-0.29-0.91-0.43-1.37-0.14-0.46-0.21-0.7-0.31-1a3.33 3.33 0 0 1-0.08-0.44z" fill="#FFF"/>
</svg>
