<?xml version="1.0" ?>
<svg xmlns="http://www.w3.org/2000/svg" width="33" height="30" viewBox="0 0 33 30">
  <path d="M31.22 0.71 h-0.75c-0.34 0-0.3 0-0.31-0.32-0.01-0.32 0-0.39 0.4 -0.39h1.66c0.21 0 0.23 0 0.23 0.23 V2c0 0.16-0.05 0.22 -0.21 0.21 -0.55 0-0.49 0.06 -0.49-0.48v-0.45l-1.16 1.17h0.77a1.1 1.1 0 0 1 1 0.66c0.07 0.15 0.108 0.314 0.11 0.48 v20.1a1.11 1.11 0 0 1-0.67 1.08 1.21 1.21 0 0 1-0.49 0.11 H20.43c-0.21 0-0.23 0-0.2 0.24 0.13 1 0.26 2 0.38 3v0.37a0.29 0.29 0 0 0 0.25 0.31 0.54 0.54 0 0 1 0.42 0.5 0.56 0.56 0 0 1-0.31 0.55 1.1 1.1 0 0 1-0.4 0.08 h-8.7a0.66 0.66 0 0 1-0.61-0.28 0.55 0.55 0 0 1 0.32-0.86 0.3 0.3 0 0 0 0.25-0.29c0.1-0.85 0.2 -1.7 0.31 -2.56 0-0.27 0.07 -0.54 0.1 -0.82 0.03 -0.28 0-0.24-0.19-0.24H1.19A1.14 1.14 0 0 1 0 23.7V11.47 3.74a1.23 1.23 0 0 1 1.3-1.3h28a0.48 0.48 0 0 0 0.37-0.15L31.06 0.88 l0.16-0.17zm-29.5 18.6a1.4 1.4 0 0 0 0.16-0.14c1.58-1.5 3.163-2.997 4.75-4.49a0.34 0.34 0 0 0 0.11-0.4 1.1 1.1 0 0 1 1.15-1.35 1.12 1.12 0 0 1 1 1.42 0.23 0.23 0 0 0 0.08 0.27 l1 1a0.16 0.16 0 0 0 0.23 0 1 1 0 0 1 0.93 0 0.33 0.33 0 0 0 0.44-0.08 547.607 547.607 0 0 1 4.61-4.12 0.33 0.33 0 0 0 0.11-0.37 1.11 1.11 0 0 1 1-1.32 1.1 1.1 0 0 1 1.15 1.22 0.23 0.23 0 0 0 0.13 0.25 l0.48 0.3 a0.17 0.17 0 0 0 0.25 0 1 1 0 0 1 1.07-0.15 0.28 0.28 0 0 0 0.35-0.08l4.84-4.85a0.28 0.28 0 0 0 0.1-0.33A1 1 0 0 1 26 4.93a1.08 1.08 0 0 1 1.13-0.26h0.14l0.49-0.46v-0.06H2c-0.25 0-0.25 0-0.25 0.26 v14.9h-0.03zm24.53-12.6L26 6.9l-4.8 4.84a0.41 0.41 0 0 0-0.14 0.4 1 1 0 0 1-0.49 1.1 0.31 0.31 0 0 0-0.16 0.3 v6.17c0 0.26 0 0.26 0.26 0.26h5.39c0.18 0 0.22-0.06 0.22 -0.23V6.94a1.31 1.31 0 0 0-0.03-0.23zm4.55 5.37V4.38c0-0.13 0-0.21-0.18-0.21h-1.7a0.37 0.37 0 0 0-0.25 0.1 c-0.29 0.28 -0.58 0.56 -0.86 0.86 a0.26 0.26 0 0 0 0 0.21 1.09 1.09 0 0 1-0.43 1.27 0.37 0.37 0 0 0-0.18 0.36 v12.77c0 0.17 0.06 0.22 0.23 0.22h3.07c0.3 0 0.3 0 0.3-0.29v-7.59zm-13.86 3.77V12a1.05 1.05 0 0 0-0.06-0.24 0.84 0.84 0 0 0-0.23 0.12 l-2.23 2-2.52 2.26a0.3 0.3 0 0 0-0.1 0.23 c0.087 0.457 -0.12 0.92 -0.52 1.16a0.24 0.24 0 0 0-0.14 0.25 v1.95c0 0.24 0 0.24 0.25 0.24h5.27c0.28 0 0.28 0 0.28-0.27v-3.85zm0.87 0v3.92c0 0.17 0.06 0.21 0.22 0.21h1.31c0.17 0 0.22 0 0.22-0.22v-6.25a0.25 0.25 0 0 0-0.14-0.25 0.87 0.87 0 0 1-0.49-0.67 0.75 0.75 0 0 0-0.49-0.7c-0.1-0.05-0.19-0.13-0.28-0.18a0.28 0.28 0 0 0-0.18 0c-0.14 0-0.17 0.15 -0.17 0.29 V15.85zM2.14 20h5.01c0.23 0 0.24 0 0.24-0.24v-3.4-1.18a0.18 0.18 0 0 0-0.06-0.13h-0.12a0.27 0.27 0 0 0-0.07 0.08 l-4.82 4.61c-0.07 0.08 -0.13 0.167 -0.18 0.26 zm6.11-2.46v2.26c0 0.16 0 0.22 0.2 0.22h1.63c0.14 0 0.2 0 0.2-0.19v-2a0.3 0.3 0 0 0-0.12-0.2 1.15 1.15 0 0 1-0.53-1.14 0.35 0.35 0 0 0-0.08-0.26l-1.06-1a1 1 0 0 0-0.18-0.09 0.77 0.77 0 0 0-0.05 0.19 l-0.01 2.21zm8.82 5.68a0.82 0.82 0 0 0-0.84-0.81 0.84 0.84 0 0 0-0.79 0.81 0.82 0.82 0 1 0 1.63 0z" fill="#FFF"/>
  <path d="M14 9a3.66 3.66 0 1 1-3.7-3.67A3.65 3.65 0 0 1 14 9zm-3.52-1.19c0.22 0.05 0.23 0.05 0.4 0.27 a0.33 0.33 0 0 0 0.45 0.09 0.31 0.31 0 0 0 0-0.44 1 1 0 0 0-0.63-0.4c-0.16 0-0.27-0.07-0.28-0.26-0.01-0.19-0.11-0.14-0.18-0.14a0.2 0.2 0 0 0-0.17 0.13 c0 0.2-0.12 0.25 -0.29 0.27 a0.57 0.57 0 0 0-0.22 0.07 0.87 0.87 0 0 0-0.56 0.87 0.85 0.85 0 0 0 0.59 0.85 c0.11 0.05 0.23 0.07 0.34 0.12 a0.21 0.21 0 0 1 0.13 0.15 v0.69c0 0.23-0.08 0.16 -0.17 0.11 a1.16 1.16 0 0 1-0.29-0.25 0.33 0.33 0 0 0-0.43-0.12 0.31 0.31 0 0 0-0.08 0.49 c0.202 0.237 0.49 0.384 0.8 0.41 0.1 0 0.16 0 0.18 0.17 a0.22 0.22 0 0 0 0.16 0.15 0.24 0.24 0 0 0 0.19-0.1c0-0.22 0.19 -0.21 0.34 -0.26 0.09 -0.02 0.177 -0.05 0.26 -0.09a0.94 0.94 0 0 0 0.57-0.93 0.88 0.88 0 0 0-0.63-0.8c-0.12 0-0.25-0.07-0.37-0.11-0.12-0.04-0.13-0.08-0.13-0.12 0.01 -0.26 0.02 -0.53 0.02 -0.82z" fill="#FFF"/>
  <path d="M10.48 9.37c0.31 0 0.48 0.18 0.49 0.4 a0.41 0.41 0 0 1-0.35 0.44 0.2 0.2 0 0 1-0.13 0c-0.01-0.31-0.01-0.57-0.01-0.84zM10.08 8.19v0.26c0 0.15-0.07 0.19 -0.2 0.11 a0.37 0.37 0 0 1-0.23-0.38 0.4 0.4 0 0 1 0.27-0.35c0.1 0 0.15 0 0.16 0.1 v0.26z" fill="#FFF"/>
</svg>
