<?xml version="1.0" ?>
<svg xmlns="http://www.w3.org/2000/svg" width="40" height="31" viewBox="0 0 40 31">
  <path d="M39.51 30.21H0.58c-0.57 0-0.57 0-0.57-0.57v-9.08c0-0.33 0-0.34 0.33 -0.34h8.24V20v-2.73a0.78 0.78 0 0 1 0.84-0.85h2a0.33 0.33 0 0 0 0.3-0.13 0.8 0.8 0 0 1 0.58-0.31 2.28 2.28 0 0 1 1.29 0.11 0.3 0.3 0 0 1 0.11 0.08 0.7 0.7 0 0 0 0.67 0.25 h3.79c0.28 0 0.28 0 0.28-0.28V9.29c0-0.08 0-0.23-0.08-0.24a0.42 0.42 0 0 0-0.3 0.06 c-0.37 0.27 -0.73 0.55 -1.09 0.82 l-2.15 1.64a0.16 0.16 0 0 1-0.26 0c-0.2-0.22-0.4-0.45-0.62-0.65-0.22-0.2-0.14-0.22 0-0.36 0.63 -0.53 1.25-1.07 1.88-1.6l2.78-2.37 6.2-5.37L26.24 0l3.92 3.35V1.62h-0.41c-0.15 0-0.23-0.05-0.22-0.22 0.01 -0.17 0-0.32 0-0.48 0-0.16 0-0.18 0.17 -0.18h3v0.76s-0.1 0.09 -0.16 0.1 c-0.47 0-0.47 0-0.47 0.51 V4.8a0.47 0.47 0 0 0 0.14 0.31 l3.91 3.36c0.78 0.67 1.56 1.34 2.35 2 0.14 0.12 0.13 0.19 0 0.31l-0.61 0.71 c-0.08 0.09 -0.13 0.1 -0.24 0L35.3 9.73c-0.3-0.23-0.59-0.46-0.89-0.68a0.41 0.41 0 0 0-0.3-0.08c-0.05 0-0.09 0.17 -0.09 0.26 C34.007 12.81 34 16.4 34 20c0 0.2 0.07 0.25 0.26 0.25h5c0.17 0 0.22 0 0.22 0.22 v9.62s0.03 0.05 0.03 0.12 zm-30.12-10h-0.55c-0.18 0-0.25 0.07 -0.25 0.24 v0.93c0 0.16 0 0.22-0.21 0.21 H6.73a2.43 2.43 0 0 0-1.17 0.26 2.61 2.61 0 0 0-1.25 3.45 2.54 2.54 0 0 0 2.43 1.57h4.53a2.8 2.8 0 0 0 1.19-0.27 2.63 2.63 0 0 0-1-5H9.39v-1.42a0.91 0.91 0 0 0 0.18 0h8.62c0.17 0 0.22-0.06 0.22 -0.23v-2.42c0-0.19-0.06-0.25-0.25-0.25h-4.08a0.51 0.51 0 0 0-0.3 0.12 1 1 0 0 1-0.68 0.28 h-0.7a0.9 0.9 0 0 1-0.69-0.29 0.4 0.4 0 0 0-0.24-0.12h-1.43a0.59 0.59 0 0 0-0.64 0.73 c0.01 0.71 -0.01 1.44-0.01 2.18v0.03zm17.14-4.31h2.65c0.15 0 0.16-0.08 0.16 -0.2v-2.42c0-0.18-0.06-0.22-0.22-0.22h-2.59v2.84zm-3.32 0h2.61c0.15 0 0.17-0.08 0.17 -0.2v-2.44c0-0.13 0-0.2-0.19-0.2h-2.41c-0.14 0-0.18 0-0.18 0.18 V15.9zM26 11v-0.14-1.28c0-0.09 0-0.22-0.15-0.19a4.07 4.07 0 0 0-0.63 0.16 3.06 3.06 0 0 0-2 2.85c0 0.17 0 0.23 0.22 0.23h2.31c0.2 0 0.26-0.08 0.26 -0.27C26 11.9 26 11.45 26 11zm0.57-1.62v3.12s0.1 0.12 0.15 0.13 c0.05 0.01 0.39 0 0.58 0h1.82c0.18 0 0.28 0 0.25-0.25-0.03-0.25 0-0.3-0.06-0.45a2.78 2.78 0 0 0-0.68-1.48 3.07 3.07 0 0 0-2.06-1.08v0.01z" fill="#FFF"/>
  <path d="M12.38 15.06H11c-0.11 0-0.27 0-0.27-0.13s0.15-0.19 0.29 -0.18h1.33c0.07-0.18 0.14 -0.35 0.37 -0.36 0.23 -0.01 0.29 0 0.34 0.2 0.05 0.2 0.12 0.16 0.25 0.16 H14.63a0.36 0.36 0 0 1 0.09 0.2 s-0.1 0.08 -0.15 0.08 h-1.24c-0.17 0-0.23 0-0.23 0.22 0 0.44 0 0.43-0.43 0.44 -0.21 0-0.3 0-0.27-0.27 0-0.12-0.007-0.24-0.02-0.36z" fill="#FFF"/>
</svg>
