<?xml version="1.0" ?>
<svg xmlns="http://www.w3.org/2000/svg" width="34" height="36" viewBox="0 0 34 36">
  <path d="M31.4 22.38l-0.8-0.38-3.23-1.66a0.42 0.42 0 0 0-0.31 0l-3.47 2a1.48 1.48 0 0 1-0.18 0.09 c0-0.27 0.06 -0.5 0.1 -0.73 0.04 -0.23 0.1 -0.52 0.14 -0.78 0.08 -0.48 0.14 -1 0.22-1.44l0.24-1.36a0.48 0.48 0 0 0-0.14-0.53c-0.75-0.64-1.48-1.3-2.21-1.95l-0.76-0.73a0.2 0.2 0 0 1-0.06-0.09l0.59-0.12 1.47-0.21 1.45-0.26 0.84 -0.1a0.34 0.34 0 0 0 0.32-0.22c0.28-0.66 0.58 -1.33 0.88 -2l0.75-1.7s0.06-0.08 0.07 -0.07a0.2 0.2 0 0 1 0.1 0.08 l0.91 1.78c0.36 0.71 0.71 1.41 1.06 2.12a0.38 0.38 0 0 0 0.37 0.23 c0.79 0.07 1.57 0.16 2.36 0.24 l1.39 0.13 h0.35a2.3 2.3 0 0 1-0.16 0.2 l-3 3a0.34 0.34 0 0 0-0.13 0.36 l0.21 1c0.11 0.53 0.22 1.07 0.34 1.6 0.12 0.53 0.22 1 0.34 1.48l-0.05 0.02 zM17.33 34.44a35.029 35.029 0 0 0 0.55-2.09c0.1-0.44 0.17 -0.83 0.25 -1.25a7.5 7.5 0 0 0 0.11-0.81 17.81 17.81 0 0 0 0-3.65c-0.08-0.63-0.21-1.26-0.35-1.88a14.53 14.53 0 0 0-0.49-1.83 21.4 21.4 0 0 0-0.94-2.33c-0.45-1-0.94-1.9-1.44-2.84s-1.1-2-1.61-3a21 21 0 0 1-1.14-2.67 9.64 9.64 0 0 1-0.49-2.6c0.009-0.526 0.052 -1.05 0.13 -1.57a6.26 6.26 0 0 1 0.66-2A11.47 11.47 0 0 1 14 3.67 23.13 23.13 0 0 1 16.66 0.92 c0.28-0.25 0.58 -0.48 0.87 -0.72a0.68 0.68 0 0 1 1 0 0.68 0.68 0 0 1-0.12 1c-0.49 0.42 -1 0.84-1.46 1.28a14.07 14.07 0 0 0-2.35 2.7 8.32 8.32 0 0 0-1.15 2.56 6.7 6.7 0 0 0-0.1 2.64 10.62 10.62 0 0 0 1.09 3.29c0.65 1.27 1.35 2.52 2 3.79 0.44 0.84 0.88 1.68 1.28 2.54 0.4 0.86 0.68 1.64 1 2.47 0.32 0.83 0.45 1.44 0.63 2.17 0.1 0.44 0.13 0.9 0.21 1.35a14 14 0 0 1 0.17 3c0 0.57-0.11 1.14-0.17 1.71 0 0.3-0.06 0.6 -0.11 0.89 -0.05 0.29 -0.16 0.78 -0.25 1.17-0.09 0.39 -0.18 0.8 -0.29 1.19-0.11 0.39 -0.18 0.56 -0.26 0.84 a0.72 0.72 0 0 1-0.73 0.42 0.73 0.73 0 0 1-0.59-0.77z" fill="#FFF"/>
  <path d="M10.59 23.37c0.31 0.61 0.62 1.22 0.94 1.83 0.32 0.61 0.5 1 0.76 1.49a0.3 0.3 0 0 0 0.15 0.12 0.64 0.64 0 0 0 0.28 0.06 c0.46 0 0.92 0.07 1.37 0.12 l1.87 0.2 c-0.37 0.38 -0.72 0.73 -1.08 1.08l-1.59 1.59a0.3 0.3 0 0 0-0.08 0.23 c0.1 0.48 0.22 1 0.32 1.44 0.1 0.44 0.14 0.68 0.21 1l0.15 0.64 c0 0.09 0 0.19 0.06 0.34l-0.56-0.27c-1-0.48-1.88-1-2.83-1.44a0.26 0.26 0 0 0-0.21 0l-2.49 1.45-0.54 0.31 a2.06 2.06 0 0 1 0-0.25c0.08-0.48 0.17 -1 0.25-1.43l0.09-0.57c0.07-0.49 0.15 -1 0.21-1.46a0.38 0.38 0 0 0-0.11-0.29c-0.77-0.7-1.55-1.39-2.34-2.08a1.59 1.59 0 0 0-0.21-0.15v-0.07l1-0.19 1.64-0.25 0.92 -0.13a0.35 0.35 0 0 0 0.33-0.25c0.35-0.81 0.71 -1.6 1.07-2.4 0.1 -0.23 0.19 -0.45 0.29 -0.67h0.13zM10 5.26l-2.21 1c-0.36 0.17 -0.73 0.33 -1.09 0.51 a0.62 0.62 0 0 0-0.28 0.23 C6 8 5.66 8.91 5.29 9.84l-0.15 0.31 c-0.13-0.27-0.25-0.5-0.35-0.74-0.39-0.85-0.79-1.7-1.15-2.56a0.69 0.69 0 0 0-0.44-0.33L0.43 5.4l-0.19-0.11 1.32-0.6c0.69-0.31 1.38-0.62 2.06-1a0.41 0.41 0 0 0 0.18-0.26c0.35-0.85 0.7 -1.72 1-2.58l0.27-0.46c0.14 0.31 0.27 0.58 0.39 0.86 0.38 0.82 0.76 1.65 1.13 2.48 0.08 0.19 0.26 0.23 0.42 0.29l2.19 0.9 0.58 0.22 0.22 0.12 zM14.4 9.52l0.23-0.13 2.7-1.22 0.4 -0.2a0.38 0.38 0 0 0 0.14-0.14l0.84-2.09 0.39 -1 0.09-0.14 0.61 1.4c0.23 0.51 0.47 1 0.71 1.54a0.85 0.85 0 0 1 0.06 0.17 1 1 0 0 0 0.72 0.66 c0.88 0.34 1.74 0.69 2.61 1a0.67 0.67 0 0 1 0.17 0.12 l-1.45 0.66 -1.88 0.85 a0.4 0.4 0 0 0-0.17 0.17 c-0.23 0.54 -0.45 1.09-0.67 1.63-0.22 0.54 -0.37 0.94 -0.56 1.4a0.43 0.43 0 0 1-0.09 0.1 s-0.07-0.05-0.09-0.09c-0.48-1.05-1-2.1-1.44-3.16-0.09-0.22-0.29-0.24-0.45-0.31l-2.86-1.16-0.01-0.06zM28 34.81l-0.7-1.56c-0.23-0.5-0.46-1-0.7-1.5a0.45 0.45 0 0 0-0.21-0.2l-2.69-1.11a1.5 1.5 0 0 1-0.17-0.11l2.11-1c0.34-0.15 0.68 -0.29 1-0.47a0.66 0.66 0 0 0 0.22-0.35c0.35-0.85 0.69 -1.71 1-2.56a0.5 0.5 0 0 1 0.1-0.11 0.87 0.87 0 0 1 0.08 0.1 c0.42 0.91 0.85 1.81 1.24 2.73a0.78 0.78 0 0 0 0.49 0.45 l1.76 0.71 0.79 0.33 a0.33 0.33 0 0 1 0.1 0.06 s-0.05 0.08 -0.09 0.1 l-2.2 1c-0.23 0.1 -0.46 0.19 -0.69 0.31 a0.6 0.6 0 0 0-0.22 0.25 c-0.37 0.9 -0.74 1.81-1.1 2.71l-0.12 0.22 zM2.27 34.44a3.61 3.61 0 0 1 0.11-0.44c0.24-0.81 0.319 -1.66 0.23 -2.5a5.55 5.55 0 0 0-0.48-1.88c-0.39-0.8-0.81-1.58-1.2-2.37a13.25 13.25 0 0 1-0.75-1.68 3.36 3.36 0 0 1 0.4-3 9.36 9.36 0 0 1 1.95-2.07 0.67 0.67 0 0 1 0.86 0.05 0.62 0.62 0 0 1 0.07 0.92 c-0.19 0.21 -0.43 0.4 -0.64 0.59 a4.58 4.58 0 0 0-1.07 1.37 2.54 2.54 0 0 0-0.16 1.82c0.277 0.79 0.633 1.55 1.06 2.27 0.31 0.63 0.62 1.27 0.89 1.93A6.86 6.86 0 0 1 4 32.92a12.18 12.18 0 0 1-0.43 1.88 0.62 0.62 0 0 1-0.72 0.41 0.69 0.69 0 0 1-0.58-0.77zM22.69 27.35c-0.16-0.34-0.31-0.7-0.48-1a0.42 0.42 0 0 0-0.18-0.17l-1-0.4a5.05 5.05 0 0 1 0.83-0.39 0.84 0.84 0 0 0 0.57-0.61c0.07-0.21 0.16 -0.41 0.27 -0.68 0.11 0.22 0.21 0.39 0.29 0.57 0.075 0.156 0.142 0.317 0.2 0.48 0.07 0.18 0.24 0.23 0.39 0.29l0.82 0.34 c-0.38 0.17 -0.72 0.32 -1.05 0.49 a0.63 0.63 0 0 0-0.25 0.26 c-0.14 0.29 -0.25 0.58 -0.37 0.87 l-0.04-0.05zM8.59 19.25l-0.25-0.51a0.61 0.61 0 0 1-0.05-0.12c-0.11-0.52-0.52-0.68-1-0.82l-0.39-0.15c0.16-0.09 0.27 -0.16 0.38 -0.21 0.11 -0.05 0.45 -0.2 0.68 -0.3 0.23 -0.1 0.25 -0.31 0.33 -0.49 0.08 -0.18 0.13 -0.36 0.21 -0.54l0.1-0.11c0.17 0.36 0.33 0.71 0.5 1.05a0.47 0.47 0 0 0 0.19 0.18 c0.25 0.11 0.51 0.2 0.76 0.3 a1.3 1.3 0 0 1 0.19 0.13 c-0.33 0.14 -0.62 0.28 -0.92 0.4 a0.63 0.63 0 0 0-0.41 0.43 c-0.08 0.25 -0.2 0.5 -0.29 0.74 l-0.03 0.02 zM26.29 7a7.22 7.22 0 0 1-0.4-0.88 0.83 0.83 0 0 0-0.58-0.53 7.14 7.14 0 0 1-0.71-0.29c0.34-0.15 0.62 -0.3 0.91 -0.41a0.72 0.72 0 0 0 0.47-0.5c0.08-0.25 0.19 -0.49 0.31 -0.79 0.12 0.28 0.23 0.51 0.33 0.74 0.1 0.23 0.25 0.59 0.63 0.68 0.243 0.07 0.478 0.168 0.7 0.29l-0.55 0.27 c-0.17 0.08 -0.36 0.14 -0.52 0.23 a0.59 0.59 0 0 0-0.2 0.24 c-0.13 0.28 -0.25 0.58 -0.39 0.95 zM0.23 12.78l0.61-0.3 0.3 -0.12c0.41-0.12 0.43 -0.51 0.58 -0.81l0.2-0.46c0.19 0.42 0.35 0.77 0.52 1.12a0.56 0.56 0 0 0 0.22 0.18 l0.93 0.39 a6.37 6.37 0 0 1-0.87 0.39 c-0.36 0.1 -0.44 0.38 -0.55 0.66 a3.73 3.73 0 0 1-0.28 0.57 l-0.25-0.51a5.16 5.16 0 0 0-0.21-0.49 0.56 0.56 0 0 0-0.24-0.22c-0.29-0.18-0.59-0.25-0.96-0.4zM15.31 24a0.67 0.67 0 0 1-0.69 0.68 A0.66 0.66 0 0 1 14 24a0.67 0.67 0 0 1 0.69-0.68 0.68 0.68 0 0 1 0.62 0.68 zM20.66 19.25a0.7 0.7 0 0 1 0.71 0.67 0.78 0.78 0 0 1-0.7 0.69 0.72 0.72 0 0 1-0.69-0.67 0.68 0.68 0 0 1 0.68-0.69zM7.48 9.56a0.65 0.65 0 0 1 0.69-0.66 0.69 0.69 0 0 1 0.67 0.69 0.67 0.67 0 0 1-0.73 0.67 0.64 0.64 0 0 1-0.63-0.7zM30.19 26.08a0.65 0.65 0 0 1 0.67-0.68c0.37 0 0.674 0.29 0.69 0.66 a0.72 0.72 0 0 1-0.7 0.7 0.66 0.66 0 0 1-0.66-0.68zM32.23 3.51a0.66 0.66 0 0 1-0.66 0.68 0.69 0.69 0 0 1-0.7-0.69 0.67 0.67 0 0 1 0.69-0.66 0.62 0.62 0 0 1 0.67 0.67 zM2.63 16.23a0.66 0.66 0 0 1 0.68 0.68 0.69 0.69 0 0 1-0.66 0.68 0.7 0.7 0 0 1-0.7-0.68 0.66 0.66 0 0 1 0.68-0.68z" fill="#FFF"/>
</svg>
