<?xml version="1.0" ?>
<svg xmlns="http://www.w3.org/2000/svg" width="29" height="30" viewBox="0 0 29 30">
  <path d="M23.35 7.5l-2.69 2.66c-0.55 0.55 -1.1 1.09-1.64 1.64a0.51 0.51 0 0 1-0.4 0.17 h-3.39a1.72 1.72 0 0 0-1 0.2 2.44 2.44 0 0 0-0.4 0.32 l-7.38 7.36A1.49 1.49 0 0 0 7 22.36 1.42 1.42 0 0 0 8.57 22L12 18.53l2.73-2.74 0.2 -0.17v4.23a0.28 0.28 0 0 1-0.18 0.29 L11 22l-3.88 2-3.59 1.75c-0.91 0.45 -1.84 0.89 -2.75 1.38a1.49 1.49 0 0 0 0.22 2.7c0.441 0.16 0.93 0.12 1.34-0.11L8 26.86l6-3 2.69-1.34a0.51 0.51 0 0 1 0.25-0.05h8.3c0.19 0 0.22 0.07 0.22 0.23 v5.69a1.48 1.48 0 1 0 2.89 0.51 1.67 1.67 0 0 0 0.08-0.49v-7.45a1.52 1.52 0 0 0-1.53-1.51h-5.67c-0.27 0-0.27 0-0.27-0.27v-4.89a0.53 0.53 0 0 1 0.15-0.34l4.57-4.57c0.26-0.27 0.53 -0.54 0.8 -0.8a1.54 1.54 0 0 0 0-2.18c-1.22-1.22-2.43-2.4-3.65-3.67-0.76-0.73-1.53-1.5-2.27-2.27a1.5 1.5 0 0 0-2.45 0.42 1.53 1.53 0 0 0 0.4 1.76l4.65 4.65 0.19 0.21z" fill="#FFF"/>
  <path d="M13.49 7.47a3 3 0 1 0 6 0 3 3 0 0 0-6 0z" fill="#FFF"/>
</svg>
