<?xml version="1.0" ?>
<svg xmlns="http://www.w3.org/2000/svg" width="43" height="32" viewBox="0 0 43 32">
  <path d="M31.89 20.77a0.61 0.61 0 0 1-0.1-0.14c-0.14-0.34-0.27-0.69-0.42-1-0.27-0.64-0.54-1.27-0.82-1.89-0.28-0.62-0.5-1.09-0.77-1.62s-0.5-1-0.78-1.44c-0.28-0.44-0.71-1.13-1.06-1.7a0.63 0.63 0 0 1-0.1-0.32 7.48 7.48 0 0 1 0-0.82c0-0.4 0-0.8 0.05 -1.2 0.05 -0.4 0.11 -1.1 0.11 -1.64 0-0.37 0.06 -0.75 0.11 -1.13 0.05 -0.38 0.11 -0.73 0.17 -1.09 0-0.19 0-0.37 0.07 -0.55 0.07 -0.18 0.1 -0.57 0.16 -0.85s0.16-0.77 0.26 -1.15c0.128-0.501 0.281 -0.995 0.46 -1.48A8.75 8.75 0 0 1 30 1.28 2.59 2.59 0 0 1 31.34 0.12 a1.93 1.93 0 0 1 1.88 0.29 c0.375 0.305 0.694 0.674 0.94 1.09A8.81 8.81 0 0 1 35 3.58c0.14 0.43 0.22 0.86 0.33 1.3 0.11 0.44 0.16 0.69 0.23 1 0.07 0.31 0.09 0.66 0.14 1 0.05 0.34 0.11 0.75 0.16 1.12 0.05 0.37 0 0.65 0.09 1s0.06 0.68 0.1 1c0 0.54 0.06 1.09 0.06 1.63a1.28 1.28 0 0 1-0.21 0.5 c-0.4 0.73 -0.83 1.45-1.22 2.2-0.39 0.75 -0.75 1.67-1.12 2.47-0.37 0.8 -0.63 1.42-0.93 2.13-0.3 0.71 -0.45 1.16-0.68 1.74l-0.06 0.1 zM42.82 13.68l-0.44-0.24-1.81-1a0.84 0.84 0 0 0-0.14-0.06 0.29 0.29 0 0 0-0.33 0.11 4.51 4.51 0 0 0-0.71 1.31c-0.27 0.65 -0.51 1.31-0.73 2-0.16 0.46 -0.3 0.93 -0.43 1.39-0.13 0.46 -0.24 1-0.35 1.47-0.11 0.47 -0.21 1-0.3 1.47s-0.2 1.1-0.31 1.65c-0.11 0.55 -0.2 1.13-0.32 1.7-0.07 0.33 -0.17 0.66 -0.25 1-0.08 0.34 -0.14 0.7 -0.24 1.05-0.16 0.61 -0.34 1.21-0.53 1.81a11.47 11.47 0 0 1-0.51 1.31A4.6 4.6 0 0 1 34 30.56a3.09 3.09 0 0 1-1.31 0.58 4.89 4.89 0 0 1-0.55 0.05 c-0.07 0-0.11 0-0.12-0.11-0.06-0.4-0.13-0.81-0.19-1.22-0.06-0.41-0.08-0.69-0.12-1a1.41 1.41 0 0 1 0-0.2v-0.63-1-0.49-0.58c0-0.19 0-0.45 0.06 -0.68l0.23-1.21c0-0.24 0.08 -0.49 0.13 -0.72a8 8 0 0 1 0.21-0.81c0.19-0.61 0.36 -1.23 0.59 -1.84 0.29 -0.77 0.61 -1.53 0.94 -2.28 0.39 -0.9 0.79 -1.8 1.22-2.69 0.43 -0.89 0.79 -1.56 1.22-2.32 0.43 -0.76 1-1.67 1.52-2.51a4 4 0 0 1 0.73-1c0.247-0.24 0.555 -0.41 0.89 -0.49 0.411 -0.11 0.85 0.008 1.15 0.31 A7.39 7.39 0 0 1 41.62 11a9.58 9.58 0 0 1 1 2c0.067 0.173 0.124 0.35 0.17 0.53 0 0 0.02 0.08 0.03 0.15 zM21.37 17.16v-0.32c0-0.36 0.07 -0.73 0.12 -1.1 0.05 -0.37 0.14 -0.64 0.22 -1 0.124-0.5 0.298 -0.985 0.52 -1.45 0.218 -0.467 0.5 -0.902 0.84 -1.29a1.76 1.76 0 0 1 1.63-0.64c0.22 0.042 0.432 0.116 0.63 0.22 0.476 0.238 0.893 0.58 1.22 1A15.25 15.25 0 0 1 28.17 15c0.32 0.55 0.63 1.1 0.92 1.67 0.29 0.57 0.45 0.95 0.67 1.43 0.15 0.32 0.3 0.64 0.44 1 0.22 0.54 0.43 1.07 0.64 1.61 0.21 0.54 0.32 0.8 0.47 1.19 0.053 0.108 0.093 0.222 0.12 0.34a1.22 1.22 0 0 1 0 0.32c-0.08 0.35 -0.17 0.7 -0.24 1-0.07 0.3 -0.16 0.84 -0.23 1.26 0 0.19-0.05 0.39 -0.07 0.59 0 0.6-0.08 1.19-0.1 1.79v1.3c0 0.42 0 0.84 0.06 1.26 0.06 0.42 0.1 0.68 0.15 1 0.004 0.08 0.004 0.16 0 0.24-0.17-0.09-0.35-0.17-0.51-0.27A4.84 4.84 0 0 1 29 29.36a9.28 9.28 0 0 1-0.58-0.95c-0.2-0.42-0.36-0.85-0.52-1.29-0.16-0.44-0.24-0.72-0.34-1.09-0.1-0.37-0.14-0.6-0.21-0.9-0.07-0.3-0.15-0.68-0.21-1-0.06-0.32-0.1-0.57-0.15-0.85l-0.09-0.48c0-0.21-0.06-0.41-0.1-0.62-0.04-0.21-0.07-0.38-0.1-0.57a2.47 2.47 0 0 1-0.05-0.38l-0.15-1.06c0-0.28-0.11-0.56-0.17-0.83-0.06-0.27 0-0.27-0.07-0.4-0.08-0.36-0.15-0.72-0.23-1.07a8.83 8.83 0 0 0-0.32-1.08 11.38 11.38 0 0 0-0.47-1.08 3.94 3.94 0 0 0-0.78-1 0.59 0.59 0 0 0-0.8-0.07 4.65 4.65 0 0 0-0.73 0.67 c-0.34 0.4 -0.64 0.84 -1 1.26-0.14 0.19 -0.27 0.38 -0.41 0.56 a1.27 1.27 0 0 1-0.13 0.11 l-0.02-0.08zM5.36 23.07v-4.66A3.11 3.11 0 0 1 6.46 16 3.14 3.14 0 0 1 8 15.26a3.06 3.06 0 0 1 1.38 0c0.8 0.207 1.49 0.711 1.93 1.41 0.353 0.58 0.53 1.25 0.51 1.93v9.1a3.13 3.13 0 0 1-0.62 1.92 3.22 3.22 0 0 1-1.75 1.2 3 3 0 0 1-1.81 0 3.15 3.15 0 0 1-2.08-2.06 3.29 3.29 0 0 1-0.17-1.17c-0.02-1.51-0.03-3.02-0.03-4.52z" fill="#FFF"/>
  <path d="M11.72 29.92a4.76 4.76 0 0 0 0.33-0.63 3.14 3.14 0 0 0 0.24-0.79c0.12-1.133 0.15 -2.273 0.09 -3.41v-6.63a3.9 3.9 0 0 0-0.61-2.12 3.18 3.18 0 0 0-0.37-0.47c-0.08-0.09-0.07-0.15 0-0.25a3.15 3.15 0 0 1 3.31-1.15 3.16 3.16 0 0 1 2 1.51 3.21 3.21 0 0 1 0.38 2.12c-0.08 0.61 -0.22 1.21-0.33 1.82-0.06 0.34 -0.11 0.7 -0.17 1l-0.27 1.43c-0.06 0.35 -0.11 0.69 -0.17 1l-0.27 1.46c-0.06 0.31 -0.1 0.61 -0.15 0.92 l-0.21 1.13c0 0.25-0.09 0.51 -0.15 0.76 a3 3 0 0 1-0.75 1.3 3.19 3.19 0 0 1-2.83 0.95 l-0.07 0.05 zM5.43 29.94a3.64 3.64 0 0 1-1.58-0.11 3.18 3.18 0 0 1-1.8-1.46 3.53 3.53 0 0 1-0.42-1.27c0-0.36-0.13-0.71-0.19-1.07l-0.09-0.48c-0.1-0.54-0.2-1.08-0.29-1.62-0.09-0.54-0.15-0.93-0.23-1.38-0.08-0.45-0.18-1-0.27-1.49C0.5 20.71 0.45 20.35 0.38 20c-0.07-0.35-0.17-0.94-0.26-1.41A4 4 0 0 1 0.05 17a3.12 3.12 0 0 1 2-2.43 3.09 3.09 0 0 1 1.8-0.19 3.15 3.15 0 0 1 2 1.23 0.14 0.14 0 0 1 0 0.21 3.54 3.54 0 0 0-0.82 1.43 4.06 4.06 0 0 0-0.16 1.1v9.39c0.004 0.708 0.205 1.4 0.58 2a0.68 0.68 0 0 1-0.02 0.2 zM1 17.59l0.18 1.07 0.24 1.46a3.9 3.9 0 0 0 0.13 0.57 0.41 0.41 0 0 0 0.61 0.23 0.39 0.39 0 0 0 0.21-0.44c-0.05-0.37-0.11-0.74-0.17-1.11l-0.15-0.88a9.26 9.26 0 0 1-0.13-0.92 1.29 1.29 0 0 1 1-1.28 0.53 0.53 0 0 0 0.3-0.27 0.41 0.41 0 0 0-0.09-0.45c-0.23-0.23-0.47-0.14-0.71-0.05A2.22 2.22 0 0 0 1 17.59zM7.4 14.74c0.13-0.18 0.25 -0.36 0.39 -0.52a1 1 0 0 0 0.26-0.68v-4.2A2.44 2.44 0 0 0 6.48 7a2.55 2.55 0 0 0-0.87-0.18c-0.43 0-0.65-0.3-0.55-0.72a0.56 0.56 0 0 1 0.5-0.37c0.248 0.006 0.496 0.033 0.74 0.08 a3.58 3.58 0 0 1 1.51 0.72 A3.43 3.43 0 0 1 9 8.31c0.087 0.388 0.134 0.783 0.14 1.18v3.95a1.24 1.24 0 0 0 0.29 0.87 c0.12 0.14 0.22 0.294 0.3 0.46 a3.84 3.84 0 0 0-2.3 0l-0.03-0.03zM10.87 15.31c-0.13-0.18-0.25-0.33-0.36-0.49-0.24-0.32-0.47-0.65-0.7-1-0.23-0.35-0.07-0.46-0.07-0.7a0.24 0.24 0 0 1 0.13 0c0.21 0.12 0.42 0.23 0.62 0.36 a0.4 0.4 0 0 0 0.42 0.07 3.13 3.13 0 0 1 1.45-0.24 3.26 3.26 0 0 1 1.29 0.38 v0.05a3.82 3.82 0 0 0-2.78 1.57z" fill="#FFF"/>
  <path d="M3.44 13.73a3 3 0 0 1 1.92-0.41c0.304 0.047 0.602 0.124 0.89 0.23 a0.37 0.37 0 0 0 0.38-0.05c0.21-0.13 0.42 -0.26 0.64 -0.38 0.22 -0.12 0.17 0 0.2 0.11 a1.14 1.14 0 0 1-0.31 0.88 c-0.27 0.33 -0.53 0.67 -0.79 1-0.09 0.12 -0.15 0.13 -0.25 0a3.74 3.74 0 0 0-1.26-1 3.44 3.44 0 0 0-1.21-0.35h-0.19l-0.02-0.03z" fill="#FFF"/>
</svg>
