<?xml version="1.0" ?>
<svg xmlns="http://www.w3.org/2000/svg" width="30" height="32" viewBox="0 0 30 32">
  <path d="M18.7 22.17a15.14 15.14 0 0 1 0.31-3 14.87 14.87 0 0 1 0.68-2.54c0.07-0.18 0.14 -0.36 0.22 -0.53 0.08 -0.17 0-0.17-0.09-0.21A4.22 4.22 0 0 1 17 13a6.7 6.7 0 0 1-0.26-2.35c0-0.47 0.09 -0.94 0.15 -1.41a0.77 0.77 0 0 1 1.52 0.11 c0 0.22-0.05 0.45 -0.08 0.68 a6.35 6.35 0 0 0 0.09 2.34 2.71 2.71 0 0 0 2.18 2.16c0.304 0.055 0.611 0.085 0.92 0.09 a8.73 8.73 0 0 1 2.31 0.54 0.65 0.65 0 0 0 0.31 0 5.22 5.22 0 0 0 2-0.71 2.85 2.85 0 0 0 1.36-2.23 0.77 0.77 0 0 1 0.66-0.71 0.79 0.79 0 0 1 0.86 0.58 1.13 1.13 0 0 1 0 0.41 4.42 4.42 0 0 1-1.32 2.67 5.35 5.35 0 0 1-2.13 1.22 4 4 0 0 1-0.46 0.14 c-0.1 0-0.15 0.08 -0.13 0.19 0.08 0.75 0.14 1.51 0.26 2.26 0.12 0.75 0.31 1.49 0.5 2.23 0.128 0.41 0.282 0.81 0.46 1.2 0.06 0.13 0.06 0.22-0.07 0.28 l-1.21 0.53 c-0.18 0.08 -0.19 0.08 -0.11 0.26 a2.46 2.46 0 0 0 2.05 1.45c0.282 0.037 0.566 0.053 0.85 0.05 a1 1 0 0 1 0.29 1.94l-0.27 0.06 a5.41 5.41 0 0 1-3.07-0.71 4.51 4.51 0 0 1-1.82-2.2c-0.05-0.12-0.11-0.13-0.21-0.1l-0.65 0.19 c-0.08 0-0.14 0.05 -0.12 0.16 0.143 0.791 0.357 1.568 0.64 2.32 0.34 0.88 0.783 1.715 1.32 2.49a1 1 0 0 1-0.11 1.3 1 1 0 0 1-1.52-0.15 13.1 13.1 0 0 1-1.44-2.62 15.24 15.24 0 0 1-0.75-2.57 1.77 1.77 0 0 1-0.05-0.32c0-0.13-0.08-0.14-0.2-0.13a2.79 2.79 0 0 1-0.5 0c-0.13 0-0.2-0.08-0.24-0.21a6.74 6.74 0 0 1-0.31-2.26zM11.07 27.51a11.63 11.63 0 0 1-0.4 2.82 1.2 1.2 0 0 1-1.11 0.87 1.24 1.24 0 0 1-1.22-0.81 1.81 1.81 0 0 1 0-1 7.67 7.67 0 0 0 0.18-2.7 5.13 5.13 0 0 0-0.92-2.45l-0.1-0.12c-0.16-0.2-0.16-0.2-0.4-0.08a0.22 0.22 0 0 0-0.13 0.23 4.86 4.86 0 0 1-0.35 1.81 2.79 2.79 0 0 1-2.13 1.77 4.11 4.11 0 0 1-2-0.16 12.53 12.53 0 0 1-1.32-0.53 1.2 1.2 0 0 1-0.63-1.67A1.23 1.23 0 0 1 2.25 25c0.427 0.232 0.89 0.39 1.37 0.47 h0.1c0.42 0.06 0.62-0.07 0.71 -0.48a3.22 3.22 0 0 0-0.06-1.74c-0.21-0.66-0.38-1.34-0.54-2a17.9 17.9 0 0 1-0.42-3.86 0.18 0.18 0 0 0-0.13-0.19A6.44 6.44 0 0 1 0.94 15a5.58 5.58 0 0 1-0.89-2.5 9.85 9.85 0 0 1 0-1.33 7.18 7.18 0 0 1 0.14-1.23 0.76 0.76 0 0 1 0.86-0.53 0.77 0.77 0 0 1 0.62 0.89 6.21 6.21 0 0 0-0.08 2.15A4.38 4.38 0 0 0 3 15.11a7.84 7.84 0 0 0 1.07 0.74 c0.16 0.089 0.337 0.143 0.52 0.16 0.73 0.12 1.47 0.22 2.21 0.33 l0.25 0.05 a1.42 1.42 0 0 0 1-0.27 5.46 5.46 0 0 0 2.78-3.35c0.128-0.42 0.232 -0.848 0.31 -1.28a0.78 0.78 0 0 1 0.87-0.65 0.73 0.73 0 0 1 0.65 0.79 7.93 7.93 0 0 1-1.25 3.48 6.93 6.93 0 0 1-3.15 2.61 0.18 0.18 0 0 0-0.13 0.2 13.25 13.25 0 0 0 0.67 3.74 2.4 2.4 0 0 0 0.45 0.81 7 7 0 0 1 1.47 2.92c0.069 0.27 0.122 0.544 0.16 0.82 0.12 0.43 0.12 0.87 0.19 1.3zM12.6 7.68a3.84 3.84 0 1 1 0-7.68 3.84 3.84 0 0 1 0 7.68zM13.82 7l-0.24-0.44a18.65 18.65 0 0 1-1.15-3.16c0-0.1 0-0.14-0.15-0.11a0.87 0.87 0 0 1-0.67-0.05 0.15 0.15 0 0 0-0.2 0A4.89 4.89 0 0 0 10 5.56a0.59 0.59 0 0 0 0.17 0.65 3.39 3.39 0 0 0 3 1 4.37 4.37 0 0 0 0.65-0.21zM16 3.69a2.19 2.19 0 0 0 0-0.29 6.28 6.28 0 0 0-0.23-0.85A3.4 3.4 0 0 0 14.06 0.79 a0.26 0.26 0 0 0-0.32 0l-0.94 0.83 a0.11 0.11 0 0 0 0 0.17 0.68 0.68 0 0 1 0.13 0.27 c0 0.13 0.1 0.16 0.2 0.19l0.47 0.14 a7.7 7.7 0 0 1 1.78 0.8 c0.18 0.17 0.37 0.33 0.62 0.5 zm-6.39-1.4H11a0.13 0.13 0 0 0 0.1-0.09 1.07 1.07 0 0 1 0.46-0.64 0.19 0.19 0 0 0 0.08-0.17c0-0.21 0-0.41-0.07-0.62-0.07-0.21-0.07-0.13-0.18-0.08a3.35 3.35 0 0 0-1.71 1.46 0.91 0.91 0 0 0-0.07 0.14 z" fill="#FFF"/>
  <path d="M3.46 12.52a2.69 2.69 0 1 1 2.68 2.69 2.68 2.68 0 0 1-2.68-2.69zM24.88 11.66a2.46 2.46 0 1 1-4.92-0.021 2.46 2.46 0 0 1 4.92 0.021 z" fill="#FFF"/>
</svg>
