<?xml version="1.0" ?>
<svg xmlns="http://www.w3.org/2000/svg" width="29" height="30" viewBox="0 0 29 30">
  <path d="M14.23 17.65c-2.22-0.06-4.44-0.1-6.66-0.2-1.11-0.05-2.22-0.22-3.33-0.35a1.7 1.7 0 0 1-0.33-0.1 0.37 0.37 0 0 1-0.28-0.38v-1.35c0-3.26 0.077 -6.52 0.23 -9.78 0-0.2-0.06-0.26-0.25-0.26h-0.88c-0.29 0-0.25 0.07 -0.25 0.26 v3.68a1.76 1.76 0 0 1-0.07 0.48 0.7 0.7 0 0 1-0.55 0.54 4.09 4.09 0 0 1-1.11 0A0.82 0.82 0 0 1 0 9.38V4.65a0.86 0.86 0 0 1 0.91-0.89h0.72a0.8 0.8 0 0 1 0.76 0.58 0.28 0.28 0 0 0 0.32 0.23 h0.93c0.17 0 0.25-0.05 0.26 -0.24 0-0.42 0-0.84 0.08 -1.25a0.58 0.58 0 0 1 0.16-0.34A7.56 7.56 0 0 1 6.6 1.27a17.71 17.71 0 0 1 4.25-1 25.84 25.84 0 0 1 6.3-0.1 15.69 15.69 0 0 1 5.47 1.47 17 17 0 0 1 1.61 1 0.5 0.5 0 0 1 0.22 0.43 c0 0.4 0 0.81 0.06 1.21 0 0.18 0.09 0.24 0.26 0.24h1a0.23 0.23 0 0 0 0.23-0.13 0.89 0.89 0 0 1 1-0.64h0.61a0.83 0.83 0 0 1 0.82 0.82 v4.82a0.8 0.8 0 0 1-0.71 0.82 3.72 3.72 0 0 1-1 0 0.85 0.85 0 0 1-0.72-0.89v-3.8c0-0.24-0.07-0.32-0.3-0.3a7.23 7.23 0 0 1-0.84 0c-0.21 0-0.27 0.06 -0.26 0.27 0.06 1.12 0.13 2.23 0.15 3.35 0 2.6 0 5.2 0.06 7.8a0.33 0.33 0 0 1-0.29 0.38 11 11 0 0 1-1.28 0.24 c-1.52 0.11 -3 0.23-4.55 0.28 -1.55 0.05 -2.95 0-4.42 0l-0.04 0.11 zm-7-2.1v0.07h0.3l5.89-0.1c0.31 0 0.32 0 0.32-0.33V4.1c0-0.34 0-0.34-0.33-0.34H5.72a1 1 0 0 0-0.99 1.08v10.52c0 0.21 0.06 0.3 0.28 0.29 0.22 -0.01 0.64 0 1 0a0.52 0.52 0 0 0 0.31-0.13c1.62-1.56 3.237-3.127 4.85-4.7a0.61 0.61 0 0 0 0.16-0.38V8.9 7.08a0.34 0.34 0 0 1 0.33-0.38 0.37 0.37 0 0 1 0.34 0.37 v6.34a1 1 0 0 1 0 0.25 0.32 0.32 0 0 1-0.64 0 1.78 1.78 0 0 1 0-0.26v-1.84-0.32l-4.13 4.31zm9.92-4.32h-0.07v2.25a0.34 0.34 0 0 1-0.32 0.38 c-0.2 0-0.34-0.14-0.34-0.39V7.02c0-0.08 0-0.2 0.07 -0.23a0.54 0.54 0 0 1 0.34-0.12c0.18 0 0.25 0.18 0.25 0.37 v3.33a0.49 0.49 0 0 0 0.16 0.39 l3.81 3.69c0.108 0.086 0.23 0.153 0.36 0.2 0.44 0.2 0.9 0.37 1.32 0.61 0.247 0.157 0.517 0.275 0.8 0.35 0.29 0.07 0.32 0 0.32-0.25V4.74a1 1 0 0 0-1-1h-7.73c-0.33 0-0.33 0-0.33 0.32 v11.11c0 0.32 0.21 0.44 0.5 0.28l0.11-0.08a4.58 4.58 0 0 1 1.79-0.79 9.15 9.15 0 0 1 2.57-0.19h0.3l-2.91-3.16zM3.7 18l0.64 0.12 a59.31 59.31 0 0 0 8.76 0.47 c2.58 0 5.15-0.08 7.73-0.15 0.92 0 1.84-0.14 2.76-0.23 0.3 0 0.59-0.1 0.89 -0.16 0.3 -0.06 0.28 0 0.27 0.22 -0.073 1.793-0.15 3.583-0.23 5.37 0 0.59-0.06 1.18-0.12 1.77a1.43 1.43 0 0 1-0.74 1.22 0.34 0.34 0 0 0-0.1 0.25 v2a0.87 0.87 0 0 1-0.94 1h-2.4a0.89 0.89 0 0 1-1-1v-2c0-0.2 0-0.27-0.26-0.27H9.43c-0.2 0-0.27 0.07 -0.27 0.27 v2a0.91 0.91 0 0 1-1 1H5.87a0.91 0.91 0 0 1-1-1v-2a0.31 0.31 0 0 0-0.17-0.31 1.46 1.46 0 0 1-0.7-1.24c-0.11-2.33-0.21-4.67-0.31-7-0.01-0.1 0-0.2 0.01 -0.33zm16 6.08h0.79l0.81-0.06a1.18 1.18 0 0 0 1.28-1.32 0.89 0.89 0 0 0-1-1l-2.58 0.14 a0.81 0.81 0 0 0-0.81 0.66 2.82 2.82 0 0 0 0 0.9 0.8 0.8 0 0 0 0.93 0.73 l0.58-0.05zm-10.85 0h0.56a0.76 0.76 0 0 0 0.85-0.63 3.27 3.27 0 0 0 0-0.88 0.84 0.84 0 0 0-0.72-0.77c-0.94-0.07-1.87-0.13-2.81-0.17a0.8 0.8 0 0 0-0.83 0.84 v0.46A1.07 1.07 0 0 0 7 24c0.63 0 1.23 0.06 1.84 0.1 l0.01-0.02z" fill="#FFF"/>
</svg>
