<?xml version="1.0" ?>
<svg xmlns="http://www.w3.org/2000/svg" width="36" height="36" viewBox="0 0 36 36">
  <path d="M27 12.66V4.53a3 3 0 0 0-1.17-2.42 2.5 2.5 0 0 0-1.33-0.58c-0.36 0-0.71-0.06-1.07-0.07H7.75c0.05 0.07 0.103 0.136 0.16 0.2 a3.83 3.83 0 0 1 0.87 1.67c0.125 0.416 0.199 0.846 0.22 1.28v26.83a2.92 2.92 0 0 0 1.77 2.7 2.77 2.77 0 0 0 1.88 0.2 3.06 3.06 0 0 0 2-1.49A3 3 0 0 0 15 31.3v-1.2c0-0.15 0.06 -0.18 0.19 -0.18h11.56c0.21 0 0.21 0 0.21-0.21v-6.34a0.4 0.4 0 0 1 0.13-0.31c0.41-0.4 0.81 -0.81 1.22-1.22l0.12-0.09v7.87c0 0.26 0 0.26 0.27 0.26h7.24v1.5a4.47 4.47 0 0 1-1.28 3.14 4.13 4.13 0 0 1-1.9 1.12 5.55 5.55 0 0 1-1.47 0.2 H12.05a4.57 4.57 0 0 1-2.49-0.69A4 4 0 0 1 8 33.5a9.28 9.28 0 0 1-0.41-1.11 3.17 3.17 0 0 1-0.08-0.82V6.18c0-0.22 0-0.22-0.22-0.22H1.5A1.35 1.35 0 0 1 0.11 5 1.85 1.85 0 0 1 0 4c0-0.19 0.07 -0.39 0.11 -0.59a4.06 4.06 0 0 1 0.69-1.5A4.22 4.22 0 0 1 1.91 0.79 4.68 4.68 0 0 1 3.15 0.21 6.61 6.61 0 0 1 5.08 0h18.8a4.54 4.54 0 0 1 2.48 0.69 4.18 4.18 0 0 1 1.57 1.71 4.47 4.47 0 0 1 0.49 2v6.61a0.39 0.39 0 0 1-0.12 0.3 c-0.42 0.41 -0.84 0.83 -1.25 1.25l-0.05 0.1 z" fill="#FFF"/>
  <path d="M29.44 12.35l0.15 0.12 1.84 1.85 1 1c0.09 0.09 0.1 0.15 0 0.25l-1.73 1.71c-0.58 0.58 -1.16 1.18-1.75 1.76l-2.05 2-1.72 1.73-1 1c-0.08 0.07 -0.13 0-0.19 0l-1.88-1.87-1-1c-0.15-0.15-0.15-0.15 0-0.29 0.7 -0.71 1.4-1.41 2.11-2.11l2.05-2 1.54-1.5 1.68-1.66 0.82 -0.84 0.13 -0.15zM18 9h7.2c0.23 0 0.23 0 0.23 0.23 v1.05c0 0.15-0.05 0.19 -0.2 0.19 h-14.5c-0.24 0-0.24 0-0.24-0.23v-1c0-0.16 0-0.2 0.2 -0.2L18 9zM18 7.45h-7.32c-0.13 0-0.19 0-0.19-0.19v-1c0-0.3 0-0.23 0.23 -0.23h14.5c0.19 0 0.21 0 0.21 0.2 v1c0 0.19 0 0.21-0.21 0.21 H18v0.01zM33.54 14.27l-3.06-3.08 0.42 -0.43L32 9.67a1.92 1.92 0 0 1 1.08-0.54c0.277-0.05 0.559 -0.07 0.84 -0.06a1.73 1.73 0 0 1 1.38 0.72 3.6 3.6 0 0 1 0.44 0.82 c0.04 0.225 0.04 0.455 0 0.68a1.81 1.81 0 0 1-0.2 0.78 3.45 3.45 0 0 1-0.73 0.92 l-1.26 1.25-0.01 0.03 zM15 16.43h-4.26c-0.24 0-0.25 0-0.25-0.25v-1c0-0.23 0-0.23 0.25 -0.23h8.49c0.21 0 0.21 0 0.21 0.22 v1c0 0.16-0.05 0.2 -0.21 0.2 l-4.23 0.06 zM15 12h4.26c0.16 0 0.21 0 0.21 0.2 v1.09c0 0.14-0.05 0.18 -0.18 0.18 h-8.57c-0.23 0-0.23 0-0.23-0.22V12.2c0-0.14 0-0.19 0.19 -0.19L15 12zM18.34 26.54l1.58-4.6 3 3z" fill="#FFF"/>
</svg>
