<?xml version="1.0" ?>
<svg xmlns="http://www.w3.org/2000/svg" width="44" height="30" viewBox="0 0 44 30">
  <path d="M22.84 27.88h-4c-0.82 0-1.64 0.07 -2.46 0.14 -0.54 0-1.08 0.11 -1.62 0.19 s-1.12 0.19 -1.68 0.31 c-0.56 0.12 -1.05 0.21 -1.57 0.35 -0.69 0.19 -1.37 0.42 -2.06 0.62 -0.52 0.15 -1 0.31-1.58 0.41 a7 7 0 0 1-2.97-0.13 6.72 6.72 0 0 1-4.53-4.3A5.93 5.93 0 0 1 0 23.29a6.21 6.21 0 0 1 1.19-3.43 4.47 4.47 0 0 1 1.14-1A6.74 6.74 0 0 1 4 18a4.68 4.68 0 0 1 1.68-0.26 4.74 4.74 0 0 1 3.53 1.71 4.61 4.61 0 0 1 1 3.18 3.61 3.61 0 0 1-2.08 3.07 2.55 2.55 0 0 1-1.41 0.37 3.11 3.11 0 0 1-2.62-1.64 1.68 1.68 0 0 1-0.16-0.78 2.24 2.24 0 0 1 0.36-1.25 1.36 1.36 0 0 1 1-0.65c0.3-0.032 0.602 0.034 0.86 0.19a0.64 0.64 0 0 1 0.19 0.2 0.22 0.22 0 0 1 0 0.17h-0.13a0.61 0.61 0 0 0-0.65 0.39 0.6 0.6 0 0 0 0.5 0.78 1.23 1.23 0 0 0 1.4-0.87 1.29 1.29 0 0 0-0.33-1.35A1.89 1.89 0 0 0 6 20.67c-0.13 0-0.27-0.05-0.4-0.06a2.38 2.38 0 0 0-1.95 0.81 2.74 2.74 0 0 0-0.72 1.37 5.31 5.31 0 0 0-0.12 0.9 c-0.01 0.695 0.23 1.37 0.68 1.9a4.26 4.26 0 0 0 2 1.41c0.326 0.104 0.66 0.178 1 0.22a4 4 0 0 0 2.93-0.89 5.44 5.44 0 0 0 1.67-2c0.235-0.417 0.492 -0.82 0.77 -1.21l2.46-3.68 2.45-3.7c0.07-0.11 0.16 -0.1 0.27 -0.1h15.27a0.75 0.75 0 0 1 0.4 0.1 0.54 0.54 0 0 1 0.16 0.73 L31.25 20l-2.07 4.54c-0.45 1-0.89 2-1.33 3a0.54 0.54 0 0 1-0.53 0.32 h-4.48v0.02z" fill="#FFF"/>
  <path d="M11.42 21.78a5.8 5.8 0 0 0-3-4.41 6.12 6.12 0 0 0-5.35-0.2l0.36-0.54L6 12.88c0.49-0.71 1-1.43 1.47-2.11a3.43 3.43 0 0 1 0.79-0.67 6.09 6.09 0 0 1 1.88-0.91 4.77 4.77 0 0 1 4.38 0.83 A4.43 4.43 0 0 1 16 12.14a5 5 0 0 1 0.2 2 2.71 2.71 0 0 1-0.53 1.32c-1.25 1.86-2.49 3.73-3.73 5.6l-0.44 0.64 -0.08 0.08 zM38.34 20.14c-0.35 0.1 -0.56-0.11-0.77-0.33l-4.11-4.13c-0.1-0.1-0.16-0.11-0.27 0L28.84 20a0.33 0.33 0 0 1-0.27 0.11 4.41 4.41 0 0 0-0.52 0 0.41 0.41 0 0 1-0.35-0.11l-4.35-4.36a0.62 0.62 0 0 1-0.1-0.24v-0.11a1.16 1.16 0 0 1 0.44-1.1c1.35-1.31 2.67-2.66 4-4 0.11-0.11 0.11 -0.17 0-0.28L23.36 5.6a0.33 0.33 0 0 1-0.11-0.27v-0.58a0.4 0.4 0 0 1 0.1-0.24L27.74 0.12 A0.47 0.47 0 0 1 28 0h0.37a0.69 0.69 0 0 1 0.63 0.27 l4.17 4.19c0.11 0.11 0.17 0.11 0.28 0L37.79 0.12 a0.33 0.33 0 0 1 0.27-0.12h0.54a0.39 0.39 0 0 1 0.32 0.13 L41.77 3l1.5 1.51a0.59 0.59 0 0 1 0.1 0.25 v0.17a1 1 0 0 1-0.39 1c-1.37 1.34-2.71 2.7-4.07 4-0.11 0.1 -0.11 0.16 0 0.27l4.35 4.34a0.33 0.33 0 0 1 0.11 0.27 v0.57a0.33 0.33 0 0 1-0.11 0.27 L38.9 20a0.33 0.33 0 0 1-0.28 0.11 l-0.28 0.03 zM42.91 5l-0.08-0.11L38.47 0.58 c-0.1-0.1-0.15-0.08-0.24 0l-4.34 4.34c-0.1 0.1 -0.1 0.15 0 0.26l4.34 4.34c0.08 0.08 0.14 0.1 0.22 0l4.37-4.38 0.09 -0.14zM32.85 15.11l-0.09-0.11-4.35-4.35c-0.09-0.09-0.15-0.1-0.25 0L23.85 15c-0.14 0.14 -0.16 0.13 0 0.29l4.32 4.33c0.09 0.09 0.15 0.08 0.23 0l1-1 3.38-3.38 0.07 -0.13zm10.07 0l-0.1-0.12-4.33-4.33c-0.11-0.11-0.16-0.1-0.27 0L33.9 15c-0.11 0.11 -0.1 0.17 0 0.28l4.31 4.31c0.1 0.1 0.16 0.11 0.26 0l2.07-2.07 2.27-2.27 0.11 -0.14zM28.29 0.48 l-0.11 0.09 -4.37 4.36c-0.09 0.08 -0.08 0.14 0 0.22l4.35 4.35c0.09 0.09 0.15 0.1 0.25 0l0.9-0.9 3.44-3.44c0.09-0.09 0.1 -0.15 0-0.25s-0.35-0.34-0.53-0.52L28.4 0.58 l-0.11-0.1zm5 5l-0.13 0.11 -4.3 4.36c-0.1 0.1 -0.11 0.16 0 0.26l4.31 4.31c0.12 0.12 0.13 0.15 0.28 0l4.32-4.32c0.1-0.1 0.09 -0.16 0-0.25L35.83 8l-2.39-2.38-0.15-0.14z" fill="#FFF"/>
  <path d="M30.37 0h0.81a0.32 0.32 0 0 1 0.17 0.11 L33.18 2c0.1 0.11 0.16 0.11 0.27 0A35.23 35.23 0 0 1 35.29 0.12 a0.42 0.42 0 0 1 0.25-0.1h0.71a1.6 1.6 0 0 1-0.12 0.16 l-2.7 2.7c-0.08 0.08 -0.14 0.09 -0.22 0L30.48 0.14 30.37 0zM23.25 13v-0.8a0.29 0.29 0 0 1 0.09-0.16l1.85-1.85c0.1-0.1 0.11 -0.16 0-0.26L23.4 8.16a0.43 0.43 0 0 1-0.15-0.36v-0.66l0.17 0.14 L26.09 10c0.1 0.1 0.1 0.15 0 0.25l-2.68 2.68-0.16 0.07 zM43.34 13l-0.31-0.3-2.5-2.5c-0.09-0.09-0.1-0.14 0-0.24l2.69-2.68 0.17 -0.13v0.81c0 0.05-0.06 0.1 -0.1 0.15 l-1.86 1.84c-0.1 0.1 -0.1 0.16 0 0.26L43.27 12a0.33 0.33 0 0 1 0.11 0.27 v0.66l-0.04 0.07 zM30.38 20.14a1.65 1.65 0 0 1 0.12-0.14l2.71-2.71c0.09-0.09 0.14 -0.07 0.22 0l2.7 2.7c0.043 0.051 0.083 0.105 0.12 0.16 h-0.84s-0.09-0.06-0.13-0.1l-1.84-1.85c-0.1-0.1-0.16-0.1-0.26 0L31.35 20a0.35 0.35 0 0 1-0.28 0.12 l-0.69 0.02 zM38.32 2.11l3 3-0.7 0.66 -2.13 2.09c-0.16 0.16 -0.13 0.16 -0.29 0l-2.71-2.7c-0.06-0.06-0.12-0.11 0-0.21l2.82-2.81 0.01 -0.03zM40.39 5l-0.08-0.11-1.84-1.79c-0.1-0.1-0.15-0.09-0.25 0L36.4 4.92c-0.09 0.09 -0.1 0.15 0 0.25L38.23 7c0.08 0.09 0.14 0.08 0.23 0l1.85-1.86 0.08 -0.14zM28.32 18.05l-3-3 1.19-1.17 1.64-1.64c0.1-0.1 0.15 -0.09 0.25 0L31.14 15c0.07 0.07 0.11 0.12 0 0.21L28.34 18a0.11 0.11 0 0 0-0.02 0.05 zm0-5l-0.11 0.08 L26.32 15c-0.07 0.07 -0.08 0.12 0 0.2l1.89 1.88c0.07 0.07 0.11 0.06 0.17 0l1.89-1.89c0.08-0.08 0.06 -0.12 0-0.19l-1.87-1.87-0.08-0.08zM41.28 15.09l-3 3-0.63-0.65-2.15-2.21c-0.09-0.09-0.09-0.14 0-0.24l2.73-2.73c0.07-0.07 0.12 -0.12 0.22 0L41.23 15l0.05 0.09 zm-2.94 2.07l0.11-0.08 1.86-1.86c0.08-0.08 0.08 -0.13 0-0.21l-1.86-1.86c-0.09-0.09-0.15-0.07-0.23 0L36.39 15c-0.08 0.08 -0.09 0.14 0 0.23l1.86 1.86 0.09 0.07zM25.35 5.07l3-3 0.87 0.89 1.94 1.94c0.1 0.1 0.1 0.15 0 0.25L28.4 7.89c-0.07 0.07 -0.12 0.13 -0.22 0l-2.82-2.8-0.01-0.02zm5 0L30.26 5l-1.9-1.9c-0.06-0.06-0.1-0.06-0.16 0L26.3 5c-0.07 0.07 -0.07 0.11 0 0.17L28.18 7c0.07 0.07 0.13 0.08 0.2 0l1.87-1.87 0.1 -0.06zM36.26 10.08l-0.08 0.1 -2.76 2.77c-0.07 0.07 -0.12 0.08 -0.2 0l-2.77-2.77c-0.08-0.08-0.07-0.12 0-0.2l2.77-2.78c0.08-0.08 0.13 -0.07 0.2 0l2.77 2.8 0.07 0.08zM33.31 8l-0.12 0.11 -1.81 1.83c-0.1 0.1 -0.11 0.16 0 0.27L33.2 12c0.09 0.09 0.15 0.08 0.24 0l1.73-1.73c0.26-0.26 0.25 -0.18 0-0.44l-1.73-1.69-0.13-0.14z" fill="#FFF"/>
  <path d="M39.1 5l-0.1 0.13 -0.61 0.61 c-0.07 0.08 -0.12 0.06 -0.19 0l-0.59-0.59c-0.06-0.06-0.07-0.11 0-0.18l0.62-0.62a0.15 0.15 0 0 1 0.15 0c0.21 0.2 0.42 0.42 0.63 0.63 l0.09 0.02 zM29 15.11v0.09l-0.59 0.6 c-0.06 0.06 -0.11 0.08 -0.19 0l-0.61-0.61c-0.07-0.07-0.06-0.11 0-0.18 0.06 -0.07 0.4 -0.41 0.61 -0.6a0.16 0.16 0 0 1 0.16 0c0.21 0.2 0.41 0.41 0.62 0.61 a0.62 0.62 0 0 1 0 0.09zM38.34 15.87l-0.1-0.08-0.58-0.58c-0.08-0.08-0.08-0.14 0-0.21l0.57-0.57c0.08-0.08 0.14 -0.07 0.21 0L39 15c0.07 0.07 0.09 0.12 0 0.2l-0.6 0.59 -0.06 0.08 zM28.29 5.81l-0.08-0.06-0.61-0.61c-0.07-0.07-0.06-0.12 0-0.19l0.6-0.6c0.07-0.07 0.12 -0.07 0.19 0L29 5c0.06 0.06 0.08 0.11 0 0.18l-0.62 0.62 -0.09 0.01 zM34.07 10.08l-0.07 0.09 -0.6 0.6 c-0.07 0.07 -0.12 0.07 -0.19 0l-0.6-0.6c-0.07-0.07-0.07-0.11 0-0.18l0.61-0.61a0.1 0.1 0 0 1 0.17 0L34 10l0.07 0.08 z" fill="#FFF"/>
</svg>
