<?xml version="1.0" ?>
<svg xmlns="http://www.w3.org/2000/svg" width="43" height="36" viewBox="0 0 43 36">
  <path d="M6.68 25.43v-10c-0.21 0.16 -0.37 0.29 -0.53 0.43 l-4.56 4c-0.14 0.13 -0.22 0.13 -0.35 0-0.37-0.39-0.76-0.79-1.14-1.19-0.13-0.13-0.14-0.22 0-0.35l5-4.34 4.6-4a0.62 0.62 0 0 0 0.3-0.48V3.08h2V8a1.23 1.23 0 0 0 0.24-0.13l4.47-4 4-3.56c0.46-0.41 0.48 -0.41 0.95 0l4.7 4.1L30.52 8c1.68 1.47 3.35 3 5 4.41l5 4.38c0.6 0.52 1.19 1 1.79 1.56 0.14 0.12 0.13 0.21 0 0.33-0.4 0.42 -0.8 0.84 -1.19 1.27-0.11 0.12 -0.19 0.1 -0.31 0l-4.54-4-0.55-0.47v10" fill="#FFF"/>
  <path d="M35.78 23.41V35.13H6.7V23.5" fill="#FFF"/>
</svg>
