<?xml version="1.0" ?>
<svg xmlns="http://www.w3.org/2000/svg" width="39" height="30" viewBox="0 0 39 30">
  <path d="M38.36 23.82v5.5c0 0.27 0 0.27-0.27 0.27 h-11c-0.31 0-0.31 0-0.31-0.3v-3.61c0-0.33 0-0.33 0.33 -0.33h6.73c0.28 0 0.28 0 0.28-0.29V18.4c0-0.45-0.06-0.4 0.4 -0.4h3.63c0.18 0 0.23 0.05 0.23 0.23 -0.02 1.86-0.02 3.77-0.02 5.59zM38.36 5.81v5.55c0 0.19-0.07 0.23 -0.24 0.22 h-3.75c-0.26 0-0.26 0-0.26-0.27V4.56c0-0.32 0-0.32-0.31-0.32h-6.69c-0.33 0-0.33 0-0.33-0.34V0.29c0-0.28 0-0.29 0.29 -0.29h11.05c0.2 0 0.25 0.06 0.25 0.25 -0.01 1.85-0.01 3.75-0.01 5.56zM0 23.78v-5.5C0 18 0 18 0.28 18H4c0.26 0 0.26 0 0.26 0.26 v6.79c0 0.31 0 0.31 0.31 0.31h6.73c0.29 0 0.29 0 0.29 0.3 v3.72c0 0.17 0 0.23-0.23 0.23 H0.27c-0.26 0-0.27 0-0.27-0.27v-5.56zM5.81 0h5.5c0.28 0 0.28 0 0.28 0.29 v3.72c0 0.19-0.06 0.23 -0.24 0.23 H4.57c-0.33 0-0.33 0-0.33 0.33 v6.75c0 0.26 0 0.26-0.26 0.26 H0.26c-0.26 0-0.26 0-0.26-0.27V0.25C0 0 0 0 0.27 0h5.54z" fill="#FFF"/>
</svg>
