<?xml version="1.0" ?>
<svg xmlns="http://www.w3.org/2000/svg" width="47" height="26" viewBox="0 0 47 26">
  <path d="M35.38 25.63H24.09c-0.18 0-0.18 0-0.17-0.18 0-0.36 0.06 -0.72 0.09 -1.08v-0.09c0-0.34 0-0.68 0.06 -1 0-0.5 0.08 -1 0.12-1.5 0-0.34 0-0.69 0.08 -1 0.08-0.31 0.06 -0.65 0.08 -1 0.02-0.35 0-0.46 0.05 -0.68 0.05 -0.22 0-0.7 0.07 -1.06 0.07 -0.36 0.05 -0.62 0.08 -0.93 0.03 -0.31 0-0.47 0.05 -0.71s0-0.65 0.06 -1 0.06-0.64 0.09 -1v-0.06c0-0.35 0-0.7 0.06 -1.06 0.06 -0.36 0.05 -0.6 0.08 -0.9v-0.08c0-0.34 0-0.69 0.06 -1 0-0.5 0.08 -1 0.12-1.49 0-0.26 0-0.52 0.06 -0.77s0-0.65 0.06 -1 0.05-0.62 0.08 -0.93c0.03-0.31 0-0.5 0.06 -0.75s0-0.67 0.07 -1c0.07-0.33 0.05 -0.61 0.08 -0.92 0.03 -0.31 0-0.34 0-0.52s0-0.15 0.13 -0.16c0.13-0.01 0.12 -0.08 0.18 -0.12a3.24 3.24 0 0 0 1.11-1.08 1.36 1.36 0 0 0 0-1.42 0.72 0.72 0 0 1 0.36-1.14c0.086-0.01 0.174 -0.01 0.26 0h15.33a0.77 0.77 0 0 1 0.78 0.55 0.67 0.67 0 0 1-0.15 0.63 1.28 1.28 0 0 0-0.29 0.6 0.94 0.94 0 0 0 0.15 0.68 3.1 3.1 0 0 0 1 0.94l0.65 0.39 c0.15 0 0.16 0.08 0.17 0.19 0 0.33 0 0.66 0.06 1 0 0.53 0.09 1.07 0.13 1.6 0 0.3 0 0.59 0.06 0.89 0.06 0.3 0.06 0.75 0.09 1.12 0.03 0.37 0 0.49 0.06 0.73s0 0.65 0.06 1c0 0.48 0.033 0.963 0.1 1.45 0 0.43 0.07 0.85 0.1 1.28 0.03 0.43 0.07 0.92 0.1 1.38 0 0.65 0.1 1.3 0.15 2 0 0.45 0.06 0.89 0.1 1.34 0.04 0.45 0.07 0.91 0.11 1.37 0.04 0.46 0.06 0.85 0.09 1.28 0.05 0.68 0.1 1.36 0.16 2 0 0.43 0.06 0.85 0.09 1.28 0.03 0.43 0.1 1.05 0.14 1.58v0.3c0 0.1 0 0.09-0.09 0.09 H35.38v-0.04zM28.86 8.48l0.07 1.18v0.06c0 0.31 0.09 0.63 0.14 0.94 0.05 0.31 0.09 0.6 0.16 0.89 0.07 0.29 0.19 0.7 0.29 1 0.17 0.588 0.39 1.16 0.66 1.71a9.2 9.2 0 0 0 1.11 1.78 6.06 6.06 0 0 0 2.28 1.82c0.473 0.205 0.976 0.33 1.49 0.37 a4.15 4.15 0 0 0 1.61-0.2 4.74 4.74 0 0 0 1.2-0.58 6.88 6.88 0 0 0 1.86-1.87 10.84 10.84 0 0 0 1.47-3.18c0.16-0.55 0.27 -1.12 0.37 -1.68 0.1 -0.56 0.13 -0.91 0.18 -1.37 0.05 -0.46 0.05 -0.86 0.06 -1.28a0.79 0.79 0 0 0-0.58-0.78 0.76 0.76 0 0 0-0.89 0.47 2.84 2.84 0 0 0-0.05 0.45 c0 0.57-0.08 1.14-0.14 1.71A10.2 10.2 0 0 1 40 11c-0.08 0.36 -0.18 0.71 -0.28 1.06a9.35 9.35 0 0 1-0.61 1.6 6.85 6.85 0 0 1-1.71 2.3c-0.5 0.44 -1.12 0.721 -1.78 0.81 a2.6 2.6 0 0 1-1.25-0.17 4.32 4.32 0 0 1-1.82-1.4 8.42 8.42 0 0 1-1.21-2.09 11.92 11.92 0 0 1-0.57-1.78 12.13 12.13 0 0 1-0.28-1.33c-0.06-0.48-0.08-1-0.11-1.43v-0.45a1.47 1.47 0 0 0-0.06-0.35 0.75 0.75 0 0 0-1.45 0.19 c-0.01 0.15 -0.01 0.34 -0.01 0.52 zm13.7-4.68l-0.31-0.39a2.36 2.36 0 0 1-0.5-1.3v-0.48c0-0.16 0-0.18-0.17-0.18H28.67a0.3 0.3 0 0 0-0.12 0s-0.08 0.06 -0.07 0.09 c0.04 0.245 0.04 0.495 0 0.74A2.92 2.92 0 0 1 28 3.45l-0.22 0.35 h14.78zM15.4 7.66h7.13c0.42 0.01 0.76 0.35 0.77 0.77 v4a0.85 0.85 0 0 1-0.72 0.72 h-9.23c-0.16 0-0.17 0-0.17-0.17v-5-0.11c0-0.04 0-0.1-0.1-0.1h-2.82c-0.1 0-0.14 0-0.14 0.13 v5.16c0 0.1 0 0.13-0.14 0.13 H0.74a0.76 0.76 0 0 1-0.74-0.8v-4a0.82 0.82 0 0 1 0.77-0.77h7.15l-0.7-0.18-0.68-0.22a7.53 7.53 0 0 1-1.47-0.65A6.44 6.44 0 0 1 4.12 6a4.47 4.47 0 0 1-0.78-0.83 2.63 2.63 0 0 1-0.48-1 3.16 3.16 0 0 1-0.08-0.67 3 3 0 0 1 0.64-1.74A2.43 2.43 0 0 1 4.7 0.81 c0.21-0.053 0.424 -0.09 0.64 -0.11h0.22c0.4-0.013 0.798 0.041 1.18 0.16 a6.5 6.5 0 0 1 1.76 0.82 c0.32 0.21 0.63 0.43 0.93 0.66 a9.4 9.4 0 0 1 1.22 1.19c0.37 0.417 0.705 0.866 1 1.34v0.06c0.14-0.22 0.26 -0.41 0.39 -0.6s0.38-0.51 0.59 -0.76a8.81 8.81 0 0 1 1.2-1.19 7.08 7.08 0 0 1 1.42-1c0.38-0.18 0.76 -0.36 1.15-0.51a2.92 2.92 0 0 1 0.69-0.16 5.41 5.41 0 0 1 0.88 0A2.49 2.49 0 0 1 20 1.91c0.167 0.259 0.291 0.542 0.37 0.84 0.091 0.298 0.125 0.61 0.1 0.92 a3.17 3.17 0 0 1-0.65 1.6 4.89 4.89 0 0 1-1.59 1.31c-0.42 0.22 -0.84 0.43 -1.27 0.61 a9.26 9.26 0 0 1-1 0.3l-0.56 0.17 zm-2.62-1.41h0.07c0.494 0.023 0.99 0 1.48-0.07l0.88-0.18a8.64 8.64 0 0 0 0.79-0.18 7.44 7.44 0 0 0 1.51-0.66 3.59 3.59 0 0 0 1-0.86 1.26 1.26 0 0 0 0.28-1.12 1.14 1.14 0 0 0-1.27-0.89l-0.44 0.08 a4.13 4.13 0 0 0-1 0.37A7.69 7.69 0 0 0 14 4.4a7.16 7.16 0 0 0-1 1.43l-0.22 0.42 zm-2.26 0L10.4 6a5.59 5.59 0 0 0-0.85-1.3c-0.29-0.33-0.6-0.64-0.92-0.95a6.14 6.14 0 0 0-1.19-0.85 4.46 4.46 0 0 0-1.68-0.61 1.55 1.55 0 0 0-0.6 0.05 1.14 1.14 0 0 0-0.76 1c-0.028 0.308 0.07 0.615 0.27 0.85 a3.2 3.2 0 0 0 1.07 0.91 c0.353 0.191 0.717 0.362 1.09 0.51 a9.9 9.9 0 0 0 1 0.32c0.21 0.06 0.424 0.106 0.64 0.14 a9.21 9.21 0 0 0 1.53 0.2 h0.54l-0.02-0.02zM10.12 20.18v5.23c0 0.04 0 0.1-0.1 0.1 h-7.7a0.78 0.78 0 0 1-0.74-0.57 0.89 0.89 0 0 1 0-0.19v-5.13-4.61c0-0.19 0-0.18 0.19 -0.18H10c0.1 0 0.11 0.06 0.11 0.14 v5.2l0.01 0.01 zM13.18 20.17v-5.2c0-0.14 0-0.15 0.16 -0.15h8.26c0.14 0 0.15 0 0.15 0.15 v9.57a0.89 0.89 0 0 1-0.16 0.63 0.72 0.72 0 0 1-0.56 0.29 h-7.72c-0.11 0-0.13 0-0.13-0.14v-3.81-1.34z" fill="#FFF"/>
  <path d="M3.5 7.67h16.04v5.45H3.5z" fill="#FFF"/>
</svg>
