<?xml version="1.0" ?>
<svg xmlns="http://www.w3.org/2000/svg" width="44" height="37" viewBox="0 0 44 37">
  <path d="M21.89 0h19.89a1.83 1.83 0 0 1 1.82 1.18c0.074 0.178 0.115 0.368 0.12 0.56 0 3.21 0.05 6.42 0 9.62a3.61 3.61 0 0 1-2.13 3.24 4 4 0 0 1-2 0.43H11.24C8.82 15 6.4 15 4 15a3.82 3.82 0 0 1-3.5-2 3.55 3.55 0 0 1-0.5-1.74V1.78A1.81 1.81 0 0 1 1.34 0.08 3.5 3.5 0 0 1 2 0h19.89zm0 9.56H3.4a0.66 0.66 0 0 0-0.67 0.67 0.7 0.7 0 0 0 0.74 0.69 h36.8a0.69 0.69 0 1 0-0.05-1.37l-18.33 0.01 zm0 2.74H3.38a0.66 0.66 0 0 0-0.58 0.95 0.72 0.72 0 0 0 0.73 0.41 h36.76a0.68 0.68 0 0 0 0.62-1 0.71 0.71 0 0 0-0.72-0.37l-18.3 0.01 zm0-9.57h-3.4a0.7 0.7 0 0 0-0.73 0.72 0.72 0.72 0 0 0 0.73 0.65 h6.73a0.7 0.7 0 0 0 0.78-0.64 0.69 0.69 0 0 0-0.71-0.72l-3.4-0.01zM27.6 29.41l1 0.66c0.73 0.46 1.45 0.93 2.17 1.4a0.68 0.68 0 0 1-0.09 1.2 0.69 0.69 0 0 1-0.7-0.1C29.17 32 28.33 31.5 27.5 31a0.93 0.93 0 0 0-0.17-0.08c0 0.25 0.07 0.46 0.12 0.67 0.12 0.59 0.27 1.19 0.39 1.78a0.72 0.72 0 0 1-0.58 0.81 0.74 0.74 0 0 1-0.77-0.61c-0.13-0.65-0.28-1.3-0.41-1.95-0.1-0.46-0.19-0.92-0.28-1.39a0.72 0.72 0 0 0-0.36-0.57c-0.68-0.41-1.35-0.86-2-1.29a0.38 0.38 0 0 0-0.52 0.27 v3.09a0.38 0.38 0 0 0 0.14 0.24 c0.77 0.8 1.55 1.59 2.33 2.39a0.79 0.79 0 0 1 0.16 0.81 0.69 0.69 0 0 1-0.66 0.38 0.89 0.89 0 0 1-0.43-0.22c-0.46-0.44-0.9-0.89-1.34-1.34a1 1 0 0 1-0.12-0.17h-0.07a1.62 1.62 0 0 0 0 0.22v2.11a0.76 0.76 0 0 1-0.39 0.66 0.68 0.68 0 0 1-1-0.6v-2.42a3.47 3.47 0 0 0-0.26 0.24 c-0.42 0.43 -0.84 0.86 -1.27 1.28a0.64 0.64 0 0 1-1.08-0.18 0.73 0.73 0 0 1 0.16-0.8c0.78-0.79 1.55-1.58 2.31-2.38a0.44 0.44 0 0 0 0.13-0.31V28.8a0.23 0.23 0 0 0-0.16-0.25 1 1 0 0 1-0.31-0.13c-0.19-0.17-0.34-0.11-0.53 0-0.52 0.36 -1.06 0.7 -1.59 1a0.52 0.52 0 0 0-0.24 0.38 c-0.09 0.48 -0.2 1-0.31 1.44-0.11 0.44 -0.12 0.67 -0.2 1-0.1 0.49 -0.2 1-0.34 1.46a0.63 0.63 0 0 1-0.77 0.4 0.74 0.74 0 0 1-0.49-0.85c0.09-0.37 0.16 -0.75 0.24 -1.12 0.08 -0.37 0.21 -0.94 0.32 -1.41v-0.13l-0.41 0.25 -2.36 1.56a0.66 0.66 0 0 1-0.93-0.16 0.68 0.68 0 0 1 0.21-1l2.67-1.72 0.25 -0.2-1.66-0.47a7.46 7.46 0 0 1-0.8-0.26 0.65 0.65 0 0 1-0.27-0.89 0.68 0.68 0 0 1 0.81-0.35c0.45 0.14 0.91 0.26 1.36 0.39 0.45 0.13 1.1 0.31 1.64 0.48 a0.8 0.8 0 0 0 0.84-0.1c0.45-0.34 0.95 -0.63 1.44-0.94a0.2 0.2 0 0 0 0.1-0.26v-0.63c0-0.21 0-0.17-0.08-0.2-0.6-0.4-1.21-0.79-1.82-1.18a0.31 0.31 0 0 0-0.19 0l-2.3 0.64 c-0.44 0.12 -0.87 0.26 -1.31 0.39 a0.7 0.7 0 0 1-0.81-0.47 0.72 0.72 0 0 1 0.47-0.87l2-0.6 0.49 -0.13-0.85-0.56-2-1.31a0.69 0.69 0 0 1-0.2-0.95 0.67 0.67 0 0 1 0.93-0.2c0.76 0.48 1.51 1 2.26 1.46l0.19 0.12 a0.92 0.92 0 0 0 0-0.15l-0.3-1.36c-0.07-0.37-0.15-0.73-0.2-1.1a0.66 0.66 0 0 1 0.54-0.7 0.65 0.65 0 0 1 0.75 0.5 c0.12 0.51 0.22 1 0.33 1.53 0.11 0.53 0.21 0.95 0.32 1.43 0.06 0.27 0.11 0.55 0.18 0.82a0.31 0.31 0 0 0 0.12 0.16 l2 1.33a0.27 0.27 0 0 0 0.33 0c0.14-0.1 0.31 -0.15 0.46 -0.24a0.28 0.28 0 0 0 0.13-0.18v-2.92a0.37 0.37 0 0 0-0.12-0.23c-0.77-0.8-1.55-1.6-2.33-2.39a0.72 0.72 0 0 1-0.15-0.79 0.61 0.61 0 0 1 0.67-0.39 0.84 0.84 0 0 1 0.45 0.25 l1.51 1.46v-0.2-2.2a0.7 0.7 0 0 1 0.47-0.64 0.64 0.64 0 0 1 0.74 0.26 0.91 0.91 0 0 1 0.14 0.45 V19.53l0.19-0.17c0.44-0.45 0.89 -0.89 1.32-1.35a0.68 0.68 0 0 1 1 0 0.75 0.75 0 0 1 0 1c-0.78 0.79 -1.55 1.59-2.34 2.38a0.47 0.47 0 0 0-0.14 0.35 v2.84c0 0.3 0.22 0.33 0.37 0.44 0.15 0.11 0.18 0 0.26-0.09 0.64 -0.4 1.26-0.82 1.9-1.21a0.73 0.73 0 0 0 0.37-0.52c0.09-0.46 0.18 -0.92 0.28 -1.39 0.1 -0.47 0.21 -0.93 0.31 -1.4a7.16 7.16 0 0 1 0.19-0.8 0.63 0.63 0 0 1 0.79-0.4 0.7 0.7 0 0 1 0.46 0.86 c-0.08 0.32 -0.14 0.64 -0.22 1-0.08 0.36 -0.16 0.74 -0.23 1.12v0.31l0.44-0.26c0.78-0.51 1.56-1 2.35-1.51a0.67 0.67 0 0 1 0.71 1.13c-0.64 0.44 -1.3 0.85 -1.95 1.28l-1.27 0.82 1 0.29c0.56 0.17 1.13 0.31 1.67 0.51 a0.63 0.63 0 0 1 0.31 0.89 0.69 0.69 0 0 1-0.84 0.35 c-0.44-0.14-0.89-0.26-1.34-0.38l-1.64-0.48a6.52 6.52 0 0 0-0.63-0.18 0.4 0.4 0 0 0-0.22 0.08 l-1.7 1.1c-0.15 0.09 -0.22 0.17 -0.16 0.37 a1.12 1.12 0 0 1 0 0.48c0 0.12 0 0.19 0.1 0.27l1.8 1.16a0.41 0.41 0 0 0 0.27 0l2.25-0.62 1.34-0.4a0.71 0.71 0 0 1 0.86 0.53 0.73 0.73 0 0 1-0.55 0.81 l-2 0.58-0.57 0.09 zm-6.06-2.8a0.68 0.68 0 0 0 0.67 0.7 0.69 0.69 0 0 0 0.69-0.66 0.71 0.71 0 0 0-0.66-0.7 0.68 0.68 0 0 0-0.7 0.66 z" fill="#FFF"/>
</svg>
