<?xml version="1.0" ?>
<svg xmlns="http://www.w3.org/2000/svg" width="31" height="31" viewBox="0 0 31 31">
  <path d="M28.16 5.06a1.57 1.57 0 0 1-0.88 1 1.53 1.53 0 0 1-2-0.71 1.18 1.18 0 0 0-0.13-0.18 0.78 0.78 0 0 0 0 0.21V25.64c0 0.03 0.06 0 0.07-0.05 0.01 -0.05 0.12 -0.22 0.19 -0.32 0.35 -0.51 0.98 -0.75 1.58-0.6 0.48 0.093 0.88 0.425 1.06 0.88 0 0.06 0.05 0.12 0.08 0.19a2 2 0 0 1 2.06 0.56 2 2 0 0 1 0.56 1.57 2 2 0 0 1-0.88 1.52 1.94 1.94 0 0 1-1.71 0.29 c-0.105 0.2 -0.225 0.39 -0.36 0.57 a1.45 1.45 0 0 1-1.4 0.52 1.46 1.46 0 0 1-1.13-0.88 0.22 0.22 0 0 0-0.23-0.13H5.77a0.29 0.29 0 0 0-0.31 0.19 1.52 1.52 0 0 1-2.81-0.22v-0.05a2 2 0 0 1-2.08-0.6A2 2 0 0 1 0 27.5 2 2 0 0 1 0.91 26a2 2 0 0 1 1.72-0.27c0.1-0.28 0.268 -0.531 0.49 -0.73a1.54 1.54 0 0 1 2.36 0.47 c0.037 0.059 0.077 0.116 0.12 0.17 a0.84 0.84 0 0 0 0.05-0.2V5.36a1.55 1.55 0 0 0 0-0.21 1.24 1.24 0 0 0-0.14 0.18 1.5 1.5 0 0 1-1.17 0.81 1.53 1.53 0 0 1-1.71-1.09l-0.24 0.06 A2.05 2.05 0 0 1 1 1.32a1.72 1.72 0 0 1 1.24-0.27c0.3 0.06 0.41 0 0.55-0.28a1.35 1.35 0 0 1 0.94-0.71 1.51 1.51 0 0 1 1.75 0.83 0.23 0.23 0 0 0 0.24 0.11 h19.35a0.2 0.2 0 0 0 0.23-0.12A1.5 1.5 0 0 1 26.9 0c0.528 0.069 0.98 0.416 1.18 0.91 0.08 0.18 0.09 0.19 0.28 0.15 a1.93 1.93 0 0 1 1.89 0.63 1.9 1.9 0 0 1 0.52 1.63A2 2 0 0 1 29.45 5c-0.38 0.15 -0.797 0.17 -1.19 0.06 h-0.1zM10 10.77H7.71a0.52 0.52 0 0 0-0.44 0.79 C8 12.78 8.73 14 9.47 15.23a0.24 0.24 0 0 1 0 0.3L7.3 19.17a0.58 0.58 0 0 0 0 0.58 0.57 0.57 0 0 0 0.53 0.27 h4.05a0.74 0.74 0 0 1 0.78 0.43 c0.51 0.91 1.06 1.79 1.6 2.68 0.25 0.43 0.5 0.85 0.76 1.27a0.51 0.51 0 0 0 0.87 0c0.16-0.25 0.3 -0.5 0.45 -0.75 0.7 -1.16 1.4-2.32 2.09-3.49a0.24 0.24 0 0 1 0.23-0.12h4.46a0.52 0.52 0 0 0 0.48-0.77c-0.12-0.21-0.26-0.4-0.38-0.61l-1.88-3.13a0.18 0.18 0 0 1 0-0.22l1.9-3.31c0.08-0.15 0.18 -0.29 0.26 -0.43a0.58 0.58 0 0 0 0-0.57 0.53 0.53 0 0 0-0.51-0.27h-4.36a0.26 0.26 0 0 1-0.28-0.16L17 8.38l-1.18-2a0.54 0.54 0 0 0-0.87 0c-0.16 0.29 -0.35 0.57 -0.52 0.86 -0.68 1.12-1.35 2.25-2 3.38a0.22 0.22 0 0 1-0.22 0.12 l-2.21 0.03 zm15.17-8.7H5.66v2h19.47l0.04-2zm0 24.63H5.66v2h19.47l0.04-2zm2.01-23.62v-1.5a0.66 0.66 0 0 0 0-0.25 0.5 0.5 0 0 0-0.6-0.33 0.54 0.54 0 0 0-0.42 0.53 v3a0.55 0.55 0 0 0 0.52 0.54 0.53 0.53 0 0 0 0.51-0.54c-0.02-0.44-0.01-0.95-0.01-1.45zM3.61 27.7v1.51a0.5 0.5 0 0 0 0.6 0.54 0.54 0.54 0 0 0 0.42-0.53v-3a0.7 0.7 0 0 0-0.09-0.29 0.49 0.49 0 0 0-0.54-0.25 0.52 0.52 0 0 0-0.35 0.47 c-0.04 0.52 -0.04 1.03-0.04 1.55zm23.57 0v-1.56a0.48 0.48 0 0 0-0.48-0.5 0.51 0.51 0 0 0-0.54 0.49 v3.11a0.53 0.53 0 0 0 0.5 0.5 0.52 0.52 0 0 0 0.52-0.49V27.7zM3.6 3.08v1.5a0.72 0.72 0 0 0 0 0.25 0.5 0.5 0 0 0 0.61 0.28 0.54 0.54 0 0 0 0.38-0.51v-3a0.69 0.69 0 0 0-0.09-0.31A0.49 0.49 0 0 0 4 1a0.53 0.53 0 0 0-0.39 0.51 c0 0.55-0.01 1.06-0.01 1.57z" fill="#FFF"/>
  <path d="M15.39 19h-2.31a0.2 0.2 0 0 1-0.21-0.1l-2-3.42a0.13 0.13 0 0 1 0-0.18l1.6-2.67c0.15-0.24 0.29 -0.49 0.44 -0.72a0.25 0.25 0 0 1 0.19-0.11h4.69a0.25 0.25 0 0 1 0.22 0.14 c0.38 0.65 0.77 1.3 1.16 2 0.28 0.47 0.56 0.95 0.86 1.43a0.15 0.15 0 0 1 0 0.18c-0.47 0.79 -0.95 1.58-1.42 2.38l-0.58 1a0.27 0.27 0 0 1-0.26 0.15 L15.39 19zM13.55 20h3.7l-1.84 3.09zM17.22 10.76h-3.67l0.16-0.29 1.6-2.65c0.08-0.14 0.09 -0.14 0.18 0l1.69 2.82a0.83 0.83 0 0 1 0.04 0.12 zM11.68 19h-3a0.54 0.54 0 0 1 0-0.15c0.47-0.77 0.94 -1.55 1.4-2.33 0.06 -0.09 0.08 -0.11 0.14 0l1.41 2.34s0.04 0.07 0.05 0.14 zM19.14 11.8h3c-0.5 0.88 -1 1.71-1.54 2.6l-1.54-2.56 0.08 -0.04zM8.64 11.8h3c0.003 0.05 0.003 0.1 0 0.15l-1.37 2.29c-0.08 0.13 -0.11 0.13 -0.19 0l-1.39-2.3a0.84 0.84 0 0 1-0.05-0.14zM20.63 16.4l1.55 2.6h-3.09c0.5-0.89 1.01-1.73 1.54-2.6z" fill="#FFF"/>
</svg>
