<?xml version="1.0" ?>
<svg xmlns="http://www.w3.org/2000/svg" width="19" height="32" viewBox="0 0 19 32">
  <path d="M9.41 8.14H5.75c-0.13 0-0.18 0-0.21-0.17-0.1-0.65-0.23-1.3-0.34-1.97l-0.33-1.89-0.34-1.92-0.28-1.6A0.66 0.66 0 0 0 4 0.08a0.4 0.4 0 0 0-0.41 0 0.41 0.41 0 0 0-0.27 0.39 c0.012 0.175 0.036 0.348 0.07 0.52 l0.47 2.63a7962570436429312 7962570436429312 0 0 1 0.729 6.296c0.207 0.349 0.585 0.56 0.991 0.554 a0.87 0.87 0 0 1 0.62 0.28 719.94 719.94 0 0 0 3.25 3.13 0.26 0.26 0 0 1 0.09 0.29 c-0.1 0.34 -0.2 0.68 -0.29 1 0 0.09-0.07 0.11 -0.16 0.09 l-2-0.52-1.4-0.34a1.26 1.26 0 0 0-1 0.2l-2.58 1.72-1.49 1A1.35 1.35 0 0 0 0 18.76c0.086 0.528 0.48 0.954 1 1.08 0.424 0.145 0.892 0.07 1.25-0.2l3.25-2.26a0.41 0.41 0 0 1 0.38-0.07l1.83 0.46 2.07 0.52 c0.53 0.13 1 0.28 1.58 0.37 a1.56 1.56 0 0 0 1.87-1.02c0-0.1 0.08 -0.1 0.15 0l1.14 1.09a0.26 0.26 0 0 1 0.06 0.16 A1.14 1.14 0 0 0 15.79 20a0.26 0.26 0 0 1 0.17 0c0.39 0.38 0.8 0.73 1.16 1.14a2.25 2.25 0 0 1 0.43 2.3c-0.23 0.7 -0.51 1.38-0.79 2.06a8.26 8.26 0 0 0-0.7 3.61c0.033 0.543 0.13 1.08 0.29 1.6a0.45 0.45 0 0 0 0.57 0.33 0.48 0.48 0 0 0 0.28-0.6 11.44 11.44 0 0 1-0.2-1.16 6.32 6.32 0 0 1 0.47-3c0.28-0.73 0.58 -1.44 0.85 -2.17a4 4 0 0 0 0.28-1.54 3 3 0 0 0-0.66-1.78 15.55 15.55 0 0 0-1.1-1.15 0.22 0.22 0 0 1-0.05-0.29c0.2-0.5 0.39 -1 0.57-1.5 0.38 -1 0.74-2 1.14-3a1.17 1.17 0 0 0-0.14-1.15L16.55 11l-0.79-1.19A3.64 3.64 0 0 0 13.5 8.2a2.48 2.48 0 0 0-0.5-0.06H9.41zM15 12.88c0.34 0.51 0.69 1 1 1.54a0.24 0.24 0 0 1 0 0.19l-1.14 3c-0.06 0.15 -0.08 0.16 -0.19 0-0.34-0.32-0.67-0.65-1-1a0.24 0.24 0 0 1-0.07-0.31l1.09-2.91 0.31 -0.51zm-7.75-2.39h3.08c0.21 0 0.22 0 0.17 0.22 l-0.5 1.91c0 0.11-0.07 0.23 -0.12 0.37 l-2.63-2.5z" fill="#FFF"/>
  <path d="M12.8 7.2a2.79 2.79 0 0 0 2.81-2.81 2.82 2.82 0 0 0-5.63 0A2.81 2.81 0 0 0 12.8 7.2zM11.14 19.55l-0.49-0.12L8.79 19l-1-0.26a0.29 0.29 0 0 0-0.21 0l-1.27 0.94 a1.64 1.64 0 0 0-0.55 0.83 C5.3 21.7 4.85 22.87 4.42 24a3 3 0 0 0-0.22 0.84 1.37 1.37 0 0 0 1.14 1.46 1.41 1.41 0 0 0 1.56-0.9c0.45-1.19 0.9 -2.39 1.36-3.58a0.54 0.54 0 0 1 0.17-0.22L11 19.68l0.14-0.13z" fill="#FFF"/>
</svg>
