<?xml version="1.0" ?>
<svg xmlns="http://www.w3.org/2000/svg" width="33" height="31" viewBox="0 0 33 31">
  <path d="M15.66 7.66v-3.6a6.56 6.56 0 0 1 0.17-1.47 3.27 3.27 0 0 1 1.51-2 3.59 3.59 0 0 1 4.65 0.7 3.64 3.64 0 0 1 0.86 1.62 2 2 0 0 1 0 0.35v3.79a1.9 1.9 0 0 0 1.19 1.75 1.29 1.29 0 0 0 1.4-0.53 4.6 4.6 0 0 0 0.38-0.85 0.7 0.7 0 0 1 0.79-0.52 0.73 0.73 0 0 1 0.57 0.71 2.66 2.66 0 0 1-0.5 1.49A2.85 2.85 0 0 1 24 10.41a3 3 0 0 1-2.64-2.27 4.38 4.38 0 0 1-0.09-0.88V3.98a1.93 1.93 0 0 0-1-1.71 1.94 1.94 0 0 0-2.65 1.16 5 5 0 0 0-0.16 1.26V11.5c0 0.17 0 0.24 0.21 0.28a1.45 1.45 0 0 1 1.19 1.48 2.09 2.09 0 0 0 0.05 0.56 0.67 0.67 0 0 0 0.84 0.51 c0.41-0.09 0.82 -0.19 1.22-0.31a17.42 17.42 0 0 0 2.56-1.09 5.16 5.16 0 0 1 3.37-0.48 5.58 5.58 0 0 1 3.52 2.29 12.64 12.64 0 0 1 1.75 3.48c0.271 0.806 0.478 1.632 0.62 2.47a16 16 0 0 1 0.21 3.84 7 7 0 0 1-2 4.55 4.72 4.72 0 0 1-2.52 1.35 5.15 5.15 0 0 1-3.04-0.43 8 8 0 0 1-2.06-1.37 12.52 12.52 0 0 0-3.17-2.11 8.94 8.94 0 0 0-2.16-0.63 10 10 0 0 0-2.68-0.11 8 8 0 0 0-4.23 1.63c-0.453 0.36 -0.883 0.74 -1.29 1.14a7.48 7.48 0 0 1-2.75 1.81 4.88 4.88 0 0 1-5.7-1.76 7.18 7.18 0 0 1-1.19-2.73A9.06 9.06 0 0 1 0.05 23c0.1-1 0.24-2 0.43-2.93a12.91 12.91 0 0 1 1.74-4.48 7.71 7.71 0 0 1 1.85-2.13 5.33 5.33 0 0 1 4-1 6.3 6.3 0 0 1 2.29 0.86 9.62 9.62 0 0 0 2.57 1 1.8 1.8 0 0 0 0.38 0.07 0.86 0.86 0 0 0 1-0.87c0-0.241 0.02 -0.482 0.06 -0.72a1.23 1.23 0 0 1 1.12-1c0.18 0 0.21-0.09 0.21 -0.25V7.66h-0.04zM7.44 24.08h0.24a0.74 0.74 0 0 0 0.76-0.64 4.47 4.47 0 0 0 0-0.73 0.59 0.59 0 0 1 0.58-0.59h0.41a0.89 0.89 0 0 0 1-1.14v-0.05a0.82 0.82 0 0 0-0.74-0.74c-0.25 0-0.5 0-0.75-0.06a0.43 0.43 0 0 1-0.4-0.31 5.73 5.73 0 0 1-0.07-0.58 2.13 2.13 0 0 0-0.1-0.57 1 1 0 0 0-1.17-0.47 0.82 0.82 0 0 0-0.68 0.86 v0.45a0.56 0.56 0 0 1-0.55 0.61 h-0.42a0.91 0.91 0 0 0-1 0.7 1.6 1.6 0 0 0 0 0.44A0.71 0.71 0 0 0 5 22a4.6 4.6 0 0 0 0.83 0.11 0.6 0.6 0 0 1 0.65 0.67 v0.67A0.64 0.64 0 0 0 7 24c0.142 0.049 0.29 0.076 0.44 0.08 z" fill="#FFF"/>
  <path d="M 25.5 17.99 C 26.0522847498 17.99 26.5 18.4377152502 26.5 18.99 C 26.5 19.5422847498 26.0522847498 19.99 25.5 19.99 C 24.9477152502 19.99 24.5 19.5422847498 24.5 18.99 C 24.5 18.4377152502 24.9477152502 17.99 25.5 17.99 Z" fill="#E82AE3"/>
  <path d="M 25.5 22.28 C 26.0522847498 22.28 26.5 22.7277152502 26.5 23.28 C 26.5 23.8322847498 26.0522847498 24.28 25.5 24.28 C 24.9477152502 24.28 24.5 23.8322847498 24.5 23.28 C 24.5 22.7277152502 24.9477152502 22.28 25.5 22.28 Z" fill="#E82AE3"/>
  <path d="M 27.64 20.13 C 28.1922847498 20.13 28.64 20.5777152502 28.64 21.13 C 28.64 21.6822847498 28.1922847498 22.13 27.64 22.13 C 27.0877152502 22.13 26.64 21.6822847498 26.64 21.13 C 26.64 20.5777152502 27.0877152502 20.13 27.64 20.13 Z" fill="#E82AE3"/>
  <path d="M 23.35 20.13 C 23.9022847498 20.13 24.35 20.5777152502 24.35 21.13 C 24.35 21.6822847498 23.9022847498 22.13 23.35 22.13 C 22.7977152502 22.13 22.35 21.6822847498 22.35 21.13 C 22.35 20.5777152502 22.7977152502 20.13 23.35 20.13 Z" fill="#E82AE3"/>
</svg>
