<?xml version="1.0" ?>
<svg xmlns="http://www.w3.org/2000/svg" width="23" height="32" viewBox="0 0 23 32">
  <path d="M11 6.88c-0.06-0.13-0.11-0.27-0.17-0.4C10.54 6 10.28 5.52 10 5a1.8 1.8 0 0 1-0.15-1.1v-0.06a0.44 0.44 0 0 0-0.18-0.49 3.28 3.28 0 0 1-1.12-1.52 2.27 2.27 0 0 1 0-1.58 0.19 0.19 0 0 1 0.07-0.1s0.11-0.05 0.15 0a0.18 0.18 0 0 1 0.06 0.14 v0.56a2 2 0 0 0 0.92 1.77c0.297 0.193 0.604 0.37 0.92 0.53 0.22-0.72 0.38 -0.89 0.86 -0.86 0.48 0.03 0.89 0.14 0.93 1 0.275-0.094 0.52 -0.26 0.71 -0.48a2.58 2.58 0 0 0 0.6-1.28c0.09-0.41 0.2 -0.82 0.32 -1.22 0-0.11 0.1 -0.26 0.24 -0.24 0.14 0.02 0.11 0.19 0.11 0.29A4.3 4.3 0 0 1 13.58 3a5.65 5.65 0 0 1-0.44 0.54 0.28 0.28 0 0 0-0.08 0.25 3.08 3.08 0 0 1-0.41 2.1l-0.43 0.75 a0.33 0.33 0 0 0 0 0.11 1.65 1.65 0 0 0 0 0.18 0.66 0.66 0 0 0 0.22 0l0.73-0.43A3 3 0 0 1 14 6a0.31 0.31 0 0 0 0.16-0.12 1.46 1.46 0 0 1 1.29-0.61 0.82 0.82 0 0 0 0.72-0.27 1.88 1.88 0 0 1 1.23-0.6c0.15 0 0.18-0.15 0.2 -0.26a0.25 0.25 0 0 0-0.17-0.3c-0.21-0.09-0.44-0.16-0.64-0.26a1 1 0 0 1-0.58-0.66 0.45 0.45 0 0 1 0-0.18 1 1 0 0 1 0.09-0.21 0.84 0.84 0 0 1 0.16 0.11 0.76 0.76 0 0 0 0.43 0.28 0.34 0.34 0 0 0 0.37-0.16 0.79 0.79 0 0 0 0-0.87 1.62 1.62 0 0 0-0.93-0.62c-0.36-0.11-0.73-0.21-1.1-0.31h-0.08S15 0.87 15 0.84a0.15 0.15 0 0 1 0.09-0.09 1.15 1.15 0 0 1 0.32-0.07c0.316-0.02 0.634 -0.02 0.95 0 0.408 0.058 0.793 0.22 1.12 0.47 A3.46 3.46 0 0 1 18.83 3c0.101 0.325 0.165 0.66 0.19 1a2.86 2.86 0 0 1-0.62 2 3 3 0 0 1-1.35 1 2.2 2.2 0 0 1-1.05 0.12 L15.05 7a0.22 0.22 0 0 0-0.15 0.06 2.69 2.69 0 0 0-0.64 0.86 0.45 0.45 0 0 0 0.2 0.62 c0.212 0.092 0.434 0.162 0.66 0.21 0.348 0.02 0.689 0.113 1 0.27 0.12 0.09 0.23 0 0.34-0.06L17 8.7a0.71 0.71 0 0 1 0.56 0c0.294 0.109 0.595 0.199 0.9 0.27 a3 3 0 0 0 0.82 0 2.29 2.29 0 0 1 1 0.16c0.138 0.05 0.283 0.08 0.43 0.09 h0.89a2.09 2.09 0 0 1 1.17 0.37 0.76 0.76 0 0 1 0.31 0.43 l-0.3-0.02c-0.33-0.06-0.66-0.13-1-0.16a1.76 1.76 0 0 0-1 0.27 2.22 2.22 0 0 1-1.12 0.34 1.67 1.67 0 0 1-0.92-0.26 0.31 0.31 0 0 0-0.29 0 2.81 2.81 0 0 1-1 0.16 2.06 2.06 0 0 1-1-0.28 1.22 1.22 0 0 0-1.71 0.41 0.23 0.23 0 0 0 0 0.27 12.5 12.5 0 0 0 1 1.65c0.215 0.285 0.536 0.472 0.89 0.52 a2.69 2.69 0 0 1 2 1.48 0.85 0.85 0 0 0 0.37 0.33 c0.57 0.321 1.107 0.7 1.6 1.13 0.096 0.098 0.186 0.202 0.27 0.31 0.252 0.25 0.542 0.46 0.86 0.62 0.19 0.11 0.374 0.23 0.55 0.36a0.65 0.65 0 0 1 0.2 0.74 3.9 3.9 0 0 1-0.16 0.45 0.93 0.93 0 0 1-0.13 0.18 v-0.31c0.016-0.15 0.016 -0.3 0-0.45 0-0.27-0.27-0.36-0.5-0.41-0.39-0.09-0.78-0.15-1.16-0.27a3.43 3.43 0 0 1-1.75-1.15 0.83 0.83 0 0 0-0.5-0.27 3 3 0 0 1-1.77-1.09 2.29 2.29 0 0 0-1.26-0.89 1.42 1.42 0 0 0-0.25 0c0.09 0.17 0.17 0.31 0.23 0.47 0.162 0.39 0.162 0.83 0 1.22v0.14c0.355 0.213 0.583 0.587 0.61 1a1.38 1.38 0 0 1-0.25 1c-0.06 0.08 0 0.14 0.06 0.17a1.31 1.31 0 0 1 0.19 2.32v0.05c0.367 0.169 0.647 0.485 0.77 0.87 a1.49 1.49 0 0 1-0.8 1.84c-0.17 0.06 -0.07 0.12 0 0.18a1.52 1.52 0 0 1-0.16 2.33 3.24 3.24 0 0 1-0.53 0.23 l-0.17 0.08 c0.208 0.173 0.355 0.408 0.42 0.67 a1.45 1.45 0 0 1-0.55 1.64 5.38 5.38 0 0 1-0.92 0.35 c-0.18 0.06 -0.19 0.06 -0.14 0.25 a2.49 2.49 0 0 1 0 1.2 3.87 3.87 0 0 1-0.11 0.39 c-0.12 0.34 -0.42 0.47 -0.71 0.63 a3 3 0 0 1-1.55 0.41 3.49 3.49 0 0 1-1.7-0.59 1.19 1.19 0 0 1-0.51-0.87 2.49 2.49 0 0 1 0-1c0-0.08 0-0.15 0.06 -0.22s0-0.17-0.13-0.21c-0.31-0.1-0.62-0.21-0.92-0.34a1 1 0 0 1-0.55-0.69 1.59 1.59 0 0 1 0.18-1.4 0.94 0.94 0 0 1 0.13-0.15c0.09-0.09 0.07 -0.13 0-0.16A1.56 1.56 0 0 1 7 25.1a1.52 1.52 0 0 1-0.36-1.28 1.46 1.46 0 0 1 0.47-0.88c0.08-0.07 0.07 -0.11 0-0.15a1.38 1.38 0 0 1-0.86-1.31A1.41 1.41 0 0 1 7 20.12c0.1-0.05 0.07 -0.09 0-0.13a1.27 1.27 0 0 1-0.66-0.99A1.28 1.28 0 0 1 7 17.69l0.29-0.13c-0.09-0.22-0.19-0.42-0.25-0.62a1.38 1.38 0 0 1 0.55-1.49 0.18 0.18 0 0 0 0.07-0.15 1.71 1.71 0 0 1 0.12-1.55v-0.08a4.89 4.89 0 0 0-0.6 0.37 3.89 3.89 0 0 0-0.51 0.55 2.71 2.71 0 0 1-1.18 0.84 c-0.26 0.1 -0.54 0.17 -0.81 0.25 a0.27 0.27 0 0 0-0.12 0.08 A3.68 3.68 0 0 1 2.88 17c-0.27 0.09 -0.56 0.14 -0.84 0.21 l-0.64 0.16 A0.56 0.56 0 0 0 1 18v0.41a0.77 0.77 0 0 1-0.13-0.18 3.25 3.25 0 0 1-0.18-0.62 0.67 0.67 0 0 1 0.38-0.61l1-0.62a1 1 0 0 0 0.27-0.23A6.08 6.08 0 0 1 4 14.82a3.68 3.68 0 0 1 0.36-0.21c0.22-0.11 0.27 -0.33 0.38 -0.51a2.62 2.62 0 0 1 1.57-1.15l0.57-0.14a1.15 1.15 0 0 0 0.61-0.47 9.72 9.72 0 0 0 1-1.66 0.2 0.2 0 0 0 0-0.17 1.21 1.21 0 0 0-1.18-0.67 2.17 2.17 0 0 0-0.69 0.25 2.07 2.07 0 0 1-1.13 0.19 c-0.3 0-0.59-0.12-0.88-0.17a0.27 0.27 0 0 0-0.16 0.05 1.71 1.71 0 0 1-1.11 0.27 2.3 2.3 0 0 1-0.92-0.32 2.08 2.08 0 0 0-1.4-0.27 8.92 8.92 0 0 0-0.87 0.2 h-0.19c0-0.07 0.05 -0.11 0.07 -0.15a1.35 1.35 0 0 1 0.8-0.54 4.46 4.46 0 0 1 1.42-0.12c0.255 0.018 0.51-0.02 0.75 -0.11A2.43 2.43 0 0 1 4.07 9c0.242 0.032 0.488 0.032 0.73 0a10 10 0 0 0 1-0.29 0.82 0.82 0 0 1 0.64 0.11 c0.15 0.07 0.28 0.17 0.43 0.23 A0.36 0.36 0 0 0 7.1 9a1.94 1.94 0 0 1 0.68-0.2 2.34 2.34 0 0 0 0.91-0.23 0.46 0.46 0 0 0 0.22-0.65 2.64 2.64 0 0 0-0.64-0.86C8.14 7 8 7 7.84 7c-0.42 0-0.83 0.09 -1.25 0.1 a1.89 1.89 0 0 1-1.14-0.46 3.22 3.22 0 0 1-1.17-1.58 2.66 2.66 0 0 1-0.1-1.32 4.47 4.47 0 0 1 0.63-1.69A3.2 3.2 0 0 1 6.49 0.75 c0.26-0.072 0.53 -0.102 0.8 -0.09A5 5 0 0 1 8 0.73c0.06 0 0.11 0.07 0.16 0.11 C8.21 0.88 8.1 1 8 1l-0.9 0.25 a2 2 0 0 0-1.1 0.58 0.82 0.82 0 0 0-0.16 0.85 0.39 0.39 0 0 0 0.62 0.19 2.24 2.24 0 0 0 0.24-0.21l0.15-0.11c0 0.06 0.09 0.12 0.1 0.18a0.73 0.73 0 0 1-0.16 0.5 1.72 1.72 0 0 1-0.79 0.55 l-0.17 0.06 a0.28 0.28 0 0 0-0.21 0.32 c0 0.17 0.1 0.23 0.29 0.26 0.515 0.092 0.982 0.36 1.32 0.76 a0.3 0.3 0 0 0 0.29 0.12 1.65 1.65 0 0 1 1.58 0.65 0.2 0.2 0 0 0 0.06 0.05 3.29 3.29 0 0 1 1 0.49l0.59 0.36 c0.05 0.005 0.1 0.005 0.15 0l0.1 0.03 z" fill="#FFF"/>
</svg>
