<?xml version="1.0" ?>
<svg xmlns="http://www.w3.org/2000/svg" width="32" height="31" viewBox="0 0 32 31">
  <path d="M24.81 12.61H26c0.17 0 0.18 0 0.18-0.19V7.86c0-0.2 0-0.21-0.21-0.21H6.09c-0.16 0-0.2 0-0.2 0.19 v4.59c0 0.18 0.05 0.18 0.18 0.18H7.8a0.33 0.33 0 0 1 0.35 0.18 c0.43 0.73 0.89 1.45 1.32 2.18 0.43 0.73 0.76 1.36 1.1 2 0.34 0.64 0.66 1.45 1 2.18 0.12 0.28 0.22 0.56 0.34 0.83v0.15h-9a2.46 2.46 0 0 1-1.49-0.53 3.3 3.3 0 0 1-1.06-1.26 3.05 3.05 0 0 1-0.3-1.11c0-0.32-0.06-0.64-0.06-1V3.4A3.47 3.47 0 0 1 1.09 0.78 2.59 2.59 0 0 1 2.33 0.09 4.91 4.91 0 0 1 3.19 0h25.75a2.84 2.84 0 0 1 2.66 1.68c0.227 0.424 0.344 0.899 0.34 1.38v13.93a3.85 3.85 0 0 1-0.73 2.31 2 2 0 0 1-1 0.79c-0.16 0.05 -0.324 0.08 -0.49 0.09 h-1.18a0.17 0.17 0 0 1-0.18-0.14c-0.23-0.57-0.46-1.15-0.7-1.72-0.24-0.57-0.46-1.1-0.71-1.65-0.34-0.72-0.69-1.44-1.06-2.16-0.37-0.72-0.65-1.18-1-1.77-0.03-0.02-0.04-0.06-0.08-0.13zM7.87 4.7H10a0.71 0.71 0 0 0 0.32-0.07 0.73 0.73 0 0 0 0.4-0.71 0.77 0.77 0 0 0-0.81-0.64h-4a1.19 1.19 0 0 0-0.42 0.06 0.67 0.67 0 0 0-0.41 0.89 c0.1 0.298 0.387 0.49 0.7 0.47 h2.09zm6.66 0h2.13a0.75 0.75 0 0 0 0.34-0.08 0.7 0.7 0 0 0 0.34-1 0.72 0.72 0 0 0-0.64-0.39h-4.25a0.71 0.71 0 0 0-0.75 0.61 0.69 0.69 0 0 0 0.66 0.8 c0.72 0.07 1.45 0.06 2.17 0.06 z" fill="#FFF"/>
  <path d="M14.85 9.94h6.45a0.3 0.3 0 0 1 0.28 0.15 c0.36 0.55 0.73 1.08 1.07 1.63 0.45 0.72 0.88 1.45 1.31 2.19 0.3 0.52 0.59 1 0.86 1.58 0.41 0.83 0.8 1.67 1.18 2.52 0.3 0.68 0.57 1.37 0.84 2.07 0.27 0.7 0.39 1.12 0.57 1.68 0.18 0.56 0.31 1 0.45 1.54s0.29 1.11 0.42 1.67c0.07 0.27 0.11 0.55 0.16 0.83 l0.24 1.31c0 0.21 0.05 0.41 0.07 0.61 0.02 0.2 0.08 0.58 0.11 0.87 0 0.44 0.06 0.89 0.08 1.33a0.12 0.12 0 0 1-0.13 0.14 h-12.9c-0.34 0-0.34 0-0.36-0.37-0.02-0.37-0.08-0.85-0.13-1.28 0-0.24 0-0.49-0.07-0.73s-0.08-0.46-0.12-0.69c-0.04-0.23 0-0.3-0.07-0.45-0.08-0.43-0.16-0.86-0.25-1.29 0-0.23-0.08-0.46-0.14-0.7-0.06-0.24-0.11-0.43-0.17-0.64-0.06-0.21-0.13-0.51-0.2-0.76s-0.18-0.67-0.29-1c-0.11-0.33-0.23-0.71-0.35-1.07-0.12-0.36-0.26-0.75-0.4-1.13l-0.48-1.2c-0.22-0.51-0.43-1-0.67-1.51-0.35-0.74-0.7-1.47-1.09-2.19-0.48-0.87-1-1.74-1.5-2.59-0.5-0.85-0.95-1.46-1.42-2.18a0.41 0.41 0 0 1 0-0.26s0.15-0.08 0.23 -0.08h6.42z" fill="#FFF"/>
</svg>
