<?xml version="1.0" ?>
<svg xmlns="http://www.w3.org/2000/svg" width="28" height="36" viewBox="0 0 28 36">
  <path d="M20 22.5a4.4 4.4 0 0 0 0-0.49 35.07 35.07 0 0 1 0.6-4.44c0.2-1.1 0.48 -2.19 0.75 -3.27a15.12 15.12 0 0 0 0.65-2.74c0-0.54 0.05 -1.08 0-1.62 0-0.71-0.11-1.41-0.21-2.12-0.1-0.71-0.23-1.24-0.32-1.82-0.09-0.58-0.18-1.38-0.27-2.06-0.05-0.39-0.12-0.77-0.17-1.15-0.05-0.38-0.12-1-0.21-1.55a1.12 1.12 0 0 0-0.48-0.81 2.05 2.05 0 0 0-1.1-0.43 2.41 2.41 0 0 0-1.95 0.71 1.2 1.2 0 0 0-0.35 1c0.17 1.21 0.35 2.42 0.52 3.63 0 0.21 0.05 0.43 0.08 0.68h-0.37c-0.09 0-0.13 0-0.14-0.12-0.05-0.37-0.09-0.73-0.14-1.1-0.1-0.71-0.19-1.42-0.3-2.13a0.57 0.57 0 0 0-0.59-0.5 2.55 2.55 0 0 0-0.55 0 1.12 1.12 0 0 0-0.9 1.27c0.1 0.72 0.21 1.43 0.32 2.15 0 0.25 0.07 0.5 0.11 0.76l-0.46 0.1 c0-0.25-0.09-0.48-0.12-0.72-0.08-0.64-0.16-1.3-0.24-1.95a0.52 0.52 0 0 0-0.59-0.5 2.91 2.91 0 0 0-0.55 0.13 1 1 0 0 0-0.69 1.15c0.14 0.78 0.22 1.58 0.32 2.38v0.13a2.52 2.52 0 0 1-0.33 0.13 0.45 0.45 0 0 1 0-0.13c-0.08-0.5-0.16-1-0.22-1.51a0.58 0.58 0 0 0-0.8-0.55 1.34 1.34 0 0 0-0.26 0.09 c-0.529 0.2 -0.83 0.758 -0.71 1.31l0.24 1.68a0.24 0.24 0 0 1 0 0.19 2.41 2.41 0 0 1-0.37 0.22 c0-0.37-0.07-0.69-0.12-1a5.39 5.39 0 0 0-0.16-0.8 0.36 0.36 0 0 0-0.46-0.24 1.39 1.39 0 0 0-0.54 0.31 1.58 1.58 0 0 0-0.48 1 4 4 0 0 0 0 0.69c0.07 0.6 0.16 1.2 0.23 1.8a0.46 0.46 0 0 1 0 0.23 2.76 2.76 0 0 0-0.24 1.13c0.063 0.995 0.245 1.978 0.54 2.93 0.16 -0.29 0.3 -0.55 0.43 -0.81l0.83-1.71 1-2c0.28-0.53 0.52 -1.09 0.83 -1.61a1.36 1.36 0 0 1 2-0.52 3 3 0 0 1 1.34 1.64 2.21 2.21 0 0 1 0 1.73c-0.16 0.37 -0.28 0.76 -0.42 1.13-0.37 1-0.73 1.9-1.1 2.84-0.37 0.94 -0.66 1.61-1 2.42a0.8 0.8 0 0 0 0 0.34c0 0.41 0.08 0.83 0.1 1.24a15.13 15.13 0 0 1-0.47 4.24 2.84 2.84 0 0 0-0.14 0.74 12.21 12.21 0 0 1-0.25 2.78 1.53 1.53 0 0 0 0 0.64c0.16 0.48 0.28 1 0.43 1.45 0.15 0.45 0.4 1.26 0.63 1.88a3.11 3.11 0 0 0 1.56 2 6.22 6.22 0 0 0 1.11 0.43 6 6 0 0 0 1.75 0.09 3.16 3.16 0 0 0 1.62-0.59 4.32 4.32 0 0 0 0.39-0.34c-0.37-0.27-0.71-0.5-1-0.76a2.81 2.81 0 0 1-1-1.34c-0.17-0.49-0.31-1-0.46-1.48-0.25-0.83-0.5-1.66-0.74-2.49-0.24-0.83-0.54-1.94-0.82-2.9-0.28-0.96-0.61-2-0.9-3.05-0.2-0.69-0.42-1.37-0.57-2.07a2.12 2.12 0 0 1 0.54-2 2.08 2.08 0 0 1 2.28-0.47 2.16 2.16 0 0 1 1.37 1.42l0.63 1.75c0.14 0.41 0.3 0.82 0.44 1.23 0.23 0.7 0.44 1.38 0.62 2.1zM7.21 19.3a2 2 0 0 0 0-0.25 5.9 5.9 0 0 1 0.42-1.6c0.25-0.64 0.57 -1.25 0.86 -1.88a0.4 0.4 0 0 0 0-0.24c-0.15-0.6-0.32-1.19-0.47-1.78 0-0.16-0.07-0.32-0.11-0.5l-0.07 0.05 -1.49 1.33-0.26 0.26 c-0.29 0.26 -0.6 0.5 -0.87 0.78 a2 2 0 0 0-0.51 1.18c-0.11 0.89 -0.21 1.78-0.34 2.67-0.13 0.89 -0.24 1.58-0.37 2.37s-0.28 1.8-0.41 2.71a1.28 1.28 0 0 1-0.33 0.75 c-0.53 0.57 -1 1.16-1.56 1.74-0.22 0.25 -0.46 0.48 -0.67 0.73 a0.16 0.16 0 0 0 0 0.16c0.17 0.29 0.34 0.58 0.52 0.86 s0.23 0.33 0.35 0.5 c0.26 0.36 0.5 0.73 0.78 1.08 0.28 0.35 0.5 0.57 0.76 0.85s0.68 0.72 1.05 1.06c0.37 0.34 0.66 0.54 1 0.8l0.87 0.65 s0.11 0.05 0.13 0a4 4 0 0 0 0.4-0.27c0.48-0.37 0.94 -0.75 1.42-1.11l1-0.77c0.22-0.17 0.46 -0.34 0.67 -0.53a3.47 3.47 0 0 0 0.62-0.65 5.31 5.31 0 0 0 0.7-1.64c0.218-0.915 0.342 -1.85 0.37 -2.79v-0.26l-1.13 1.69a6.21 6.21 0 0 1 0.2-0.61c0.322-0.702 0.58 -1.432 0.77 -2.18 0.17 -0.64 0.32 -1.29 0.45 -1.94a12.38 12.38 0 0 0 0.16-4.58 0.22 0.22 0 0 1 0-0.14c0.15-0.39 0.29 -0.77 0.44 -1.15l0.63-1.65c0.25-0.63 0.51 -1.25 0.75 -1.88 0.24 -0.63 0.44 -1.13 0.66 -1.69a2.49 2.49 0 0 0 0.2-0.62 2.53 2.53 0 0 0-1-2.32 0.89 0.89 0 0 0-1.14 0 1.61 1.61 0 0 0-0.38 0.48 c-0.27 0.51 -0.52 1-0.77 1.55s-0.54 1.12-0.81 1.68c-0.27 0.56 -0.47 1-0.71 1.48s-0.57 1.16-0.86 1.74l-0.34 0.58 L8 17.76c-0.16 0.34 -0.33 0.68 -0.49 1l-0.3 0.54 zm14.47 16.23c0.28-0.1 0.56 -0.18 0.82 -0.29 0.26 -0.11 0.82 -0.36 1.21-0.56 0.39 -0.2 0.83 -0.45 1.24-0.69a9 9 0 0 0 0.74-0.52c0.37-0.26 0.75 -0.51 1.1-0.79 0.35 -0.28 0.7 -0.64 1.05-0.95a0.17 0.17 0 0 0 0.05-0.23c-0.19-0.41-0.37-0.83-0.54-1.25a1.33 1.33 0 0 1-0.09-0.49v-1.71c0-1.21 0.07 -2.42 0.11 -3.63v-1.7a1.85 1.85 0 0 0-0.63-1.4 0.25 0.25 0 0 1-0.08-0.18 2.21 2.21 0 0 0-0.65-1.37c-0.3-0.33-0.65-0.61-1-0.92a2.9 2.9 0 0 0-0.36-0.34 0.8 0.8 0 0 1-0.45-0.69 0.28 0.28 0 0 0 0-0.09c-0.18-1.13-0.35-2.26-0.54-3.4a1.2 1.2 0 0 0-0.91-0.88l-0.33-0.06c-0.28-0.07-0.28-0.07-0.36 0.22 -0.13 0.56 -0.28 1.12-0.41 1.68-0.22 1-0.45 2-0.62 3-0.17 1-0.34 2.14-0.44 3.22-0.1 1.08-0.12 2.2-0.17 3.31a0.52 0.52 0 0 1 0 0.11L20 23.61c-0.2-0.56-0.41-1.12-0.62-1.68-0.21-0.56-0.43-1.22-0.64-1.82-0.21-0.6-0.39-1.1-0.56-1.66a4 4 0 0 0-0.6-1.3 1.86 1.86 0 0 0-1.79-0.7 1 1 0 0 0-0.69 0.34 1.89 1.89 0 0 0-0.38 1.58c0.1 0.54 0.25 1.07 0.4 1.59 0.2 0.72 0.41 1.43 0.62 2.15 0.21 0.72 0.43 1.43 0.65 2.15l0.78 2.61c0.17 0.56 0.33 1.13 0.51 1.7 0.18 0.57 0.34 1 0.47 1.49a2.58 2.58 0 0 0 0.85 1.39c0.254 0.191 0.525 0.358 0.81 0.5 a0.77 0.77 0 0 1 0.3 0.32 l1.2 2.54 0.37 0.72z" fill="#FFF"/>
  <path d="M20 22.5c-0.22-0.72-0.43-1.4-0.66-2.09-0.14-0.41-0.3-0.82-0.44-1.23l-0.63-1.75A2.16 2.16 0 0 0 16.94 16a2.08 2.08 0 0 0-2.28 0.45 2.12 2.12 0 0 0-0.54 2c0.15 0.7 0.37 1.38 0.57 2.07 0.29 1 0.6 2 0.9 3.05 0.3 1.05 0.54 1.93 0.82 2.9 0.28 0.97 0.49 1.66 0.74 2.49 0.15 0.49 0.29 1 0.46 1.48a2.81 2.81 0 0 0 1 1.34c0.33 0.26 0.67 0.49 1 0.76a4.32 4.32 0 0 1-0.39 0.34 3.16 3.16 0 0 1-1.62 0.59 6 6 0 0 1-1.75-0.09 6.22 6.22 0 0 1-1.11-0.38 3.11 3.11 0 0 1-1.56-2c-0.23-0.62-0.43-1.25-0.63-1.88-0.2-0.63-0.27-1-0.43-1.45a1.53 1.53 0 0 1 0-0.64 12.21 12.21 0 0 0 0.05-2.77c0.014-0.252 0.06 -0.5 0.14 -0.74a15.13 15.13 0 0 0 0.47-4.24c0-0.41-0.08-0.83-0.1-1.24a0.8 0.8 0 0 1 0-0.34c0.33-0.81 0.67 -1.61 1-2.42 0.33 -0.81 0.73 -1.89 1.1-2.84 0.14 -0.37 0.26 -0.76 0.42 -1.13a2.21 2.21 0 0 0 0-1.73 3 3 0 0 0-1.34-1.64 1.36 1.36 0 0 0-2 0.52c-0.31 0.52 -0.55 1.08-0.83 1.61l-1 2-0.83 1.71c-0.13 0.26 -0.27 0.52 -0.43 0.81 a12.58 12.58 0 0 1-0.54-2.93c0-0.39 0.081 -0.774 0.24 -1.13a0.46 0.46 0 0 0 0-0.23c-0.07-0.6-0.16-1.2-0.23-1.8a4 4 0 0 1 0-0.69 1.58 1.58 0 0 1 0.48-1 1.39 1.39 0 0 1 0.54-0.31 0.36 0.36 0 0 1 0.46 0.24 c0.073 0.262 0.127 0.53 0.16 0.8 0 0.33 0.08 0.65 0.12 1a2.41 2.41 0 0 0 0.37-0.22 0.24 0.24 0 0 0 0-0.19l-0.09-1.68A1.14 1.14 0 0 1 11 5.14a1.34 1.34 0 0 1 0.26-0.09 0.58 0.58 0 0 1 0.8 0.55 c0.06 0.5 0.14 1 0.22 1.51a0.45 0.45 0 0 0 0 0.13 2.52 2.52 0 0 0 0.33-0.13v-0.13c-0.1-0.8-0.18-1.6-0.32-2.38a1 1 0 0 1 0.69-1.15 2.91 2.91 0 0 1 0.55-0.13 0.52 0.52 0 0 1 0.59 0.5 c0.08 0.65 0.16 1.31 0.24 1.95 0 0.24 0.08 0.47 0.12 0.72l0.46-0.1c0-0.26-0.07-0.51-0.11-0.76-0.11-0.72-0.22-1.43-0.32-2.15a1.12 1.12 0 0 1 0.9-1.27c0.183-0.02 0.367 -0.02 0.55 0a0.57 0.57 0 0 1 0.56 0.53 c0.11 0.71 0.2 1.42 0.3 2.13 0 0.37 0.09 0.73 0.14 1.1 0 0.08 0 0.13 0.14 0.12h0.37c0-0.25-0.05-0.47-0.08-0.68-0.17-1.21-0.35-2.42-0.52-3.63a1.2 1.2 0 0 1 0.35-1A2.41 2.41 0 0 1 19.24 0c0.396 0.018 0.778 0.15 1.1 0.38 0.271 0.186 0.447 0.483 0.48 0.81 0.09 0.52 0.14 1 0.21 1.55 0.07 0.55 0.12 0.76 0.17 1.15 0.09 0.68 0.16 1.37 0.27 2.06 0.11 0.69 0.24 1.24 0.32 1.87 0.08 0.63 0.21 1.41 0.21 2.12v1.62a15.12 15.12 0 0 1-0.55 2.74c-0.27 1.08-0.55 2.17-0.75 3.27a35.07 35.07 0 0 0-0.6 4.44 4.4 4.4 0 0 1-0.1 0.49 z" fill="#FFF"/>
  <path d="M7.21 19.3l0.28-0.53c0.16-0.33 0.33 -0.67 0.49 -1L8.79 16l0.31-0.62c0.29-0.58 0.58 -1.16 0.86 -1.74 0.28 -0.58 0.47 -1 0.71-1.48s0.53-1.12 0.81 -1.68c0.28-0.56 0.5 -1 0.77-1.55a1.61 1.61 0 0 1 0.38-0.48 0.89 0.89 0 0 1 1.14 0 2.53 2.53 0 0 1 1 2.32 2.49 2.49 0 0 1-0.2 0.62 c-0.22 0.56 -0.43 1.12-0.66 1.69-0.23 0.57 -0.5 1.25-0.75 1.88l-0.66 1.61c-0.15 0.38 -0.29 0.76 -0.44 1.15a0.22 0.22 0 0 0 0 0.14 12.38 12.38 0 0 1-0.16 4.58c-0.13 0.65 -0.28 1.3-0.45 1.94a12.82 12.82 0 0 1-0.77 2.18 6.21 6.21 0 0 0-0.2 0.61 l1.13-1.66v0.26a13.86 13.86 0 0 1-0.37 2.79 5.31 5.31 0 0 1-0.7 1.64 3.47 3.47 0 0 1-0.62 0.65 c-0.21 0.19 -0.45 0.36 -0.67 0.53 l-1 0.77c-0.48 0.36 -0.94 0.74 -1.42 1.11a4 4 0 0 1-0.4 0.27 H6.3l-0.87-0.65c-0.34-0.26-0.69-0.51-1-0.8-0.31-0.29-0.71-0.7-1.05-1.06-0.34-0.36-0.52-0.55-0.76-0.85-0.24-0.3-0.52-0.72-0.78-1.08-0.12-0.17-0.24-0.33-0.35-0.5-0.11-0.17-0.35-0.57-0.52-0.86a0.16 0.16 0 0 1 0-0.16c0.21-0.25 0.45 -0.48 0.67 -0.73 0.52 -0.58 1-1.17 1.56-1.74 0.19 -0.207 0.305 -0.47 0.33 -0.75 0.13 -0.91 0.27 -1.81 0.41 -2.71 0.14 -0.9 0.25 -1.58 0.36 -2.37 0.11 -0.79 0.23 -1.78 0.34 -2.67a2 2 0 0 1 0.51-1.18c0.27-0.28 0.58 -0.52 0.87 -0.78l0.26-0.26 1.48-1.34 0.14 -0.04c0 0.18 0.06 0.34 0.11 0.5 0.15 0.59 0.32 1.18 0.47 1.78a0.4 0.4 0 0 1 0 0.24c-0.29 0.63 -0.61 1.24-0.86 1.88a5.9 5.9 0 0 0-0.44 1.6 2 2 0 0 1 0 0.25l0.03 0.05 zM21.68 35.53l-0.36-0.72-1.2-2.54a0.77 0.77 0 0 0-0.3-0.32 5.19 5.19 0 0 1-0.81-0.5 2.58 2.58 0 0 1-0.91-1.39c-0.13-0.51-0.32-1-0.47-1.49-0.15-0.49-0.34-1.14-0.51-1.7l-0.78-2.61c-0.22-0.72-0.44-1.44-0.65-2.15-0.21-0.71-0.42-1.43-0.62-2.15a16.8 16.8 0 0 1-0.4-1.59 1.89 1.89 0 0 1 0.38-1.58 1 1 0 0 1 0.69-0.34 1.86 1.86 0 0 1 1.79 0.7 4 4 0 0 1 0.6 1.3c0.17 0.56 0.37 1.11 0.56 1.66 0.19 0.55 0.43 1.21 0.64 1.82 0.21 0.61 0.42 1.12 0.62 1.68l0.5 1.35a0.52 0.52 0 0 0 0-0.11c0-1.11 0.07 -2.21 0.17 -3.31s0.25-2.15 0.44 -3.22c0.19-1.07 0.4 -2 0.62-3 0.13-0.56 0.28 -1.12 0.41 -1.68 0.08 -0.29 0.08 -0.29 0.36 -0.22l0.33 0.06 a1.2 1.2 0 0 1 0.91 0.88 c0.19 1.14 0.36 2.27 0.54 3.4a0.28 0.28 0 0 1 0 0.09 0.8 0.8 0 0 0 0.45 0.69 c0.13 0.103 0.25 0.217 0.36 0.34 0.33 0.31 0.68 0.59 1 0.92 0.371 0.366 0.602 0.851 0.65 1.37 0 0.068 0.03 0.133 0.08 0.18 0.403 0.353 0.633 0.864 0.63 1.4v1.7c0 1.21-0.07 2.42-0.11 3.63v1.71c-0.001 0.168 0.03 0.334 0.09 0.49 0.17 0.42 0.35 0.84 0.54 1.25a0.17 0.17 0 0 1-0.05 0.23 c-0.35 0.31 -0.69 0.65 -1.05 0.95 -0.36 0.3 -0.73 0.53 -1.1 0.79 a9 9 0 0 1-0.72 0.5 c-0.41 0.24 -0.82 0.47 -1.24 0.69 -0.42 0.22 -0.8 0.39 -1.21 0.56 -0.41 0.17 -0.55 0.18 -0.87 0.28 z" fill="#FFF"/>
</svg>
