<?xml version="1.0" ?>
<svg xmlns="http://www.w3.org/2000/svg" width="32" height="32" viewBox="0 0 32 32">
  <path d="M20.71 4.12a2.57 2.57 0 0 1-2.53 2.21 2.54 2.54 0 0 1-2.59-1.8 2.56 2.56 0 0 1-2.73 1.79 2.53 2.53 0 0 1-2.38-2.23 1.7 1.7 0 0 0-0.08 0.21 A2.43 2.43 0 0 1 9.18 6a2.52 2.52 0 0 1-2.08 0.24 2.5 2.5 0 0 1-1.56-1.32 7.18 7.18 0 0 1-0.28-0.78 0.29 0.29 0 0 0-0.06 0.09 2.44 2.44 0 0 1-1.39 1.84A2.49 2.49 0 0 1 2 6.26a2.59 2.59 0 0 1-1.53-1 3.58 3.58 0 0 1-0.4-1A4.59 4.59 0 0 1 0 2.84V0.23C0 0 0 0 0.23 0H30.9a0.41 0.41 0 0 1 0.1 0 0.26 0.26 0 0 1 0.11 0.11 v3.8a0.93 0.93 0 0 1-0.05 0.22 c0 0.13-0.06 0.26 -0.1 0.39 a2.5 2.5 0 0 1-1.58 1.65 2.28 2.28 0 0 1-1 0.17A2.58 2.58 0 0 1 26.23 5a4.76 4.76 0 0 1-0.23-0.77 0.69 0.69 0 0 0 0-0.09s-0.06 0.06 -0.06 0.09 a2.43 2.43 0 0 1-1.07 1.65 2.46 2.46 0 0 1-1.46 0.46 2.58 2.58 0 0 1-2.2-1.17 1.89 1.89 0 0 1-0.35-0.87 0.84 0.84 0 0 0-0.15-0.18zM25.84 6.7c0.37 0.22 0.69 0.45 1 0.61 0.29 0.128 0.596 0.22 0.91 0.27a4 4 0 0 0 0.94 0.06 3.45 3.45 0 0 0 2.15-0.84 0.57 0.57 0 0 1 0.16-0.06 0.8 0.8 0 0 1 0 0.14v23.91c0 0.21 0 0.22-0.22 0.22 h-5.35c-0.13 0-0.15 0-0.13-0.16l0.24-1.28c0.05-0.26 0.12 -0.52 0.17 -0.78 0.05 -0.26 0.08 -0.47 0.13 -0.71s0.12-0.6 0.17 -0.9c0.05-0.3 0.09 -0.51 0.14 -0.76 0.05 -0.25 0.11 -0.56 0.17 -0.84l0.08-0.41 0.24 -1.24 0.13 -0.73 0.28 -1.48c0.06-0.3 0.11 -0.6 0.16 -0.9 0.05 -0.3 0.16 -0.74 0.23 -1.11 0.07 -0.37 0.09 -0.51 0.14 -0.76 0.05 -0.25 0.15 -0.77 0.22 -1.15 0.07 -0.38 0.12 -0.64 0.15 -1 0.027-0.35 0.027 -0.7 0-1.05a6.94 6.94 0 0 0-0.16-1c-0.05-0.27-0.12-0.53-0.19-0.79s-0.11-0.44-0.17-0.65l-0.14-0.56-0.28-1.14c-0.1-0.38-0.19-0.77-0.29-1.15l-0.35-1.35c-0.07-0.27-0.13-0.54-0.2-0.8-0.12-0.47-0.24-0.94-0.36-1.4 0.006 -0.07 0.016 -0.14 0.03 -0.21zM5.26 6.67a0.72 0.72 0 0 1 0 0.15L5 7.76c-0.07 0.27 -0.13 0.54 -0.2 0.8 L4.47 9.9l-0.2 0.76 L4 11.75c-0.1 0.37 -0.19 0.75 -0.29 1.12-0.1 0.37 -0.2 0.72 -0.3 1.08-0.1 0.36 -0.13 0.53 -0.19 0.79 a6.49 6.49 0 0 0-0.16 0.81 4.5 4.5 0 0 0 0 0.91c0 0.41 0.14 0.81 0.22 1.21 0.08 0.4 0.15 0.75 0.23 1.12 0.08 0.37 0.09 0.47 0.13 0.71 0.04 0.24 0.12 0.61 0.18 0.92 0.06 0.31 0.12 0.69 0.19 1 0.07 0.31 0.12 0.61 0.18 0.91 0.06 0.3 0.1 0.55 0.15 0.83 0.09 0.48 0.19 1 0.29 1.45 0 0.26 0.09 0.52 0.14 0.78 0.05 0.26 0.12 0.57 0.18 0.85s0.12 0.7 0.19 1c0.07 0.3 0.16 0.8 0.24 1.21 0.08 0.41 0.09 0.54 0.15 0.82 0.06 0.28 0.15 0.75 0.22 1.13l0.07 0.38 c0 0.1 0 0.14-0.13 0.14 H0.31c-0.23 0-0.24 0-0.24-0.23V28.9 6.84a0.88 0.88 0 0 1 0-0.1c0-0.08 0-0.12 0.11 -0.05a3.65 3.65 0 0 0 1.23 0.69 3.77 3.77 0 0 0 1.8 0.16 3.91 3.91 0 0 0 1.43-0.44c0.2-0.1 0.36 -0.27 0.62 -0.43zM20.12 20.52V15.2h-0.24l-0.31 0.06 -0.29 0.06 -0.32 0.06 -0.42 0.09 -0.27 0.05 -0.31 0.06 -0.28 0.05 -0.31 0.06 -0.28 0.06 -0.34 0.07 -0.39 0.07 -0.44 0.09 -0.42 0.08 -0.3 0.06 -0.28 0.05 -0.31 0.07 -0.4 0.08 h-0.16a0.16 0.16 0 0 0 0 0.05v5.81a1.54 1.54 0 0 1-0.38 1 2.26 2.26 0 0 1-0.75 0.58 2.65 2.65 0 0 1-0.53 0.2 l-0.34 0.06 c-0.13 0.01 -0.26 0.01 -0.39 0a3.63 3.63 0 0 1-0.4-0.07 1.34 1.34 0 0 1-0.43-0.17 1.16 1.16 0 0 1-0.5-0.52 1.11 1.11 0 0 1-0.09-0.66 1.67 1.67 0 0 1 0.55-1 2.46 2.46 0 0 1 0.62-0.41 2.59 2.59 0 0 1 0.51-0.18 2.37 2.37 0 0 1 0.69-0.06c0.21 0.008 0.416 0.052 0.61 0.13 h0.05v-7.56h0.24l0.3-0.06 0.29 -0.06 0.44 -0.09 0.43 -0.08 0.41 -0.09 0.28 -0.05L16 13l0.38-0.07 0.44 -0.09 0.31 -0.06 0.41 -0.09 0.26 -0.05 0.34 -0.07 0.39 -0.07 0.57 -0.12 0.4 -0.07 0.3 -0.06 0.29 -0.06 0.42 -0.09 0.31 -0.06h0.1v9.45a1.56 1.56 0 0 1-0.42 1.12 2.17 2.17 0 0 1-0.69 0.52 3.47 3.47 0 0 1-0.46 0.19 2.82 2.82 0 0 1-0.41 0.08 h-0.27a2 2 0 0 1-0.63-0.09 1.51 1.51 0 0 1-0.53-0.28 1.06 1.06 0 0 1-0.37-0.55 1.17 1.17 0 0 1 0-0.36 1.45 1.45 0 0 1 0.15-0.57 1.86 1.86 0 0 1 0.47-0.6 2.14 2.14 0 0 1 0.53-0.34 3.73 3.73 0 0 1 0.5-0.19 2.23 2.23 0 0 1 0.8-0.07c0.186 0.013 0.369 0.057 0.54 0.13 l-0.01 0.04 z" fill="#FFF"/>
</svg>
