<?xml version="1.0" ?>
<svg xmlns="http://www.w3.org/2000/svg" width="32" height="36" viewBox="0 0 32 36">
  <path d="M10 29.36v-6a3.32 3.32 0 0 1 1.21-2.59 1.86 1.86 0 0 1 0.77-0.32 11.38 11.38 0 0 1 1.12-0.27 6.89 6.89 0 0 1 1-0.16c0.9-0.02 1.9-0.08 2.78-0.02a10 10 0 0 1 1.43 0.19 c0.4 0.06 0.81 0.18 1.22 0.23 a2.56 2.56 0 0 1 2.14 1.75 3.94 3.94 0 0 1 0.3 1.63v11.82c0 0.26 0 0.26-0.25 0.26 h-11.5c-0.18 0-0.21-0.05-0.21-0.22l-0.01-6.3zM12.28 0.73 l1.84 4.8h0.05a2.11 2.11 0 0 0 0-0.25V0.45c0-0.31 0-0.31 0.31 -0.33C15 0.08 15.5 0 16 0a13.84 13.84 0 0 1 1.58 0.14 c0.06 0 0.13 0.12 0.13 0.18 V5.29a2 2 0 0 0 0 0.24l1.9-4.76a9.37 9.37 0 0 1 1.81 1.07 10 10 0 0 1 3.09 3.73c0.25 0.5 0.41 1 0.61 1.56 0.05 0.14 0.1 0.23 0.28 0.21 0.18 -0.02 0.5 0 0.77 0v1.35H5.74V7.34h0.52c0.59 0 0.42 0.08 0.59-0.44A10.55 10.55 0 0 1 8 4.41a9.63 9.63 0 0 1 2.8-2.85c0.49-0.3 0.98 -0.56 1.48-0.83zM16 10.22h7.6c0.26 0 0.27 0 0.25 0.25 a10 10 0 0 1-0.33 2.17 8.42 8.42 0 0 1-1.73 3.26A7.76 7.76 0 0 1 19 18a7.79 7.79 0 0 1-3.94 0.59 7.23 7.23 0 0 1-3-1.09 8.29 8.29 0 0 1-3.17-3.6 6.75 6.75 0 0 1-0.6-1.9c-0.08-0.53-0.13-1.07-0.2-1.6 0-0.18 0-0.23 0.22 -0.23l7.69 0.05 zM23.17 21.68c0.43 0.25 0.83 0.46 1.2 0.7 a16.09 16.09 0 0 1 4.2 3.86 15.1 15.1 0 0 1 2.05 3.6c0.248 0.628 0.461 1.269 0.64 1.92 0.16 0.561 0.28 1.132 0.36 1.71 0.1 0.73 0.14 1.46 0.21 2.18 0 0.17 0 0.23-0.22 0.23 h-8c-0.18 0-0.22-0.07-0.22-0.23V24.08c0.02-0.393 0.02 -0.787 0-1.18a8.92 8.92 0 0 0-0.2-1 1.54 1.54 0 0 1-0.02-0.22zM8.75 21.71l-0.1 0.45 a9.91 9.91 0 0 1-0.17 1.07c-0.1 0.443 -0.13 0.898 -0.09 1.35v11c0 0.27 0 0.27-0.26 0.27 H0.24c-0.24 0-0.25 0-0.24-0.24 0.05 -0.67 0.06 -1.34 0.16 -2 0.118-0.77 0.285 -1.531 0.5 -2.28a15.42 15.42 0 0 1 2.39-4.82 15.83 15.83 0 0 1 4.64-4.25l0.93-0.53 0.13 -0.02z" fill="#FFF"/>
</svg>
