<?xml version="1.0" ?>
<svg xmlns="http://www.w3.org/2000/svg" width="44" height="31" viewBox="0 0 44 31">
  <path d="M29.37 15.29h9.54c0.33 0 0.77 0.13 1.15 0.2 0.493 0.083 0.97 0.245 1.41 0.48 A3.49 3.49 0 0 1 43 17.52a3.18 3.18 0 0 1 0.39 1.54 8 8 0 0 1-0.08 1.21 5.22 5.22 0 0 1-1.9 3.24 6.68 6.68 0 0 1-2 1.07c-0.47 0.16 -1 0.25-1.45 0.37 l-0.8 0.13 a0.31 0.31 0 0 0-0.15 0.11 c-0.29 0.38 -0.55 0.77 -0.86 1.13a6.45 6.45 0 0 1-1.54 1.31c-0.3 0.193 -0.6 0.373 -0.9 0.54 a0.81 0.81 0 0 1-0.34 0.08 h-9.29a1.13 1.13 0 0 1-0.56-0.21 8.88 8.88 0 0 1-1.81-1.31A7.32 7.32 0 0 1 20 24.37a5 5 0 0 1-0.43-2v-6.86c0-0.25 0-0.25 0.25 -0.25l9.55 0.03 zM38 23.12c0.06 0.01 0.12 0.01 0.18 0a7.46 7.46 0 0 0 1.52-0.55 3.57 3.57 0 0 0 1.54-1.44 3.84 3.84 0 0 0 0.39-2.13 1.55 1.55 0 0 0-0.63-1.17 3.49 3.49 0 0 0-1.64-0.64c-0.398-0.06-0.798-0.1-1.2-0.12-0.2 0-0.23 0-0.23 0.2 v5.85H38zM28.78 31h-8.92a0.76 0.76 0 0 1-0.75-0.79 0.74 0.74 0 0 1 0.79-0.66h17.75a0.79 0.79 0 0 1 0.76 0.5 0.72 0.72 0 0 1-0.64 0.94 h-9l0.01 0.01 zM29.8 0l0.2 0.06 a8 8 0 0 1 1.85 1.18 6.33 6.33 0 0 1 1.44 1.81c0.224 0.433 0.389 0.894 0.49 1.37a6.6 6.6 0 0 1 0.14 1.33 3.66 3.66 0 0 1-1.36 3c-0.47 0.392 -0.916 0.81 -1.34 1.25-0.34 0.37 -0.596 0.81 -0.75 1.29A5.11 5.11 0 0 0 30.2 13v0.17a0.51 0.51 0 0 1-0.09-0.16 9.86 9.86 0 0 1-0.32-1.3 8.57 8.57 0 0 1 0-1.24 5.56 5.56 0 0 1 0.08-0.7c0.058-0.43 0.19 -0.846 0.39 -1.23 0.25 -0.48 0.55 -0.93 0.81 -1.41a4.39 4.39 0 0 0 0.55-1.73c0.03-0.543 0.03 -1.087 0-1.63a5.51 5.51 0 0 0-0.31-1.38A5.62 5.62 0 0 0 30.2 0.48 a5.81 5.81 0 0 0-0.43-0.43L29.8 0zM27.42 13.65c-0.26-0.38-0.54-0.74-0.79-1.12a4.29 4.29 0 0 1-0.63-1.45 3.07 3.07 0 0 1 0-1.85c0.17-0.45 0.39 -0.87 0.6 -1.3a8.09 8.09 0 0 0 0.58-1.65 6.58 6.58 0 0 0 0.14-2.21 3.1 3.1 0 0 0-0.87-1.92c-0.14-0.14-0.31-0.25-0.46-0.4a2 2 0 0 1 0.49 0.15 c0.39 0.17 0.767 0.368 1.13 0.59 a4 4 0 0 1 1.53 1.92 4.88 4.88 0 0 1 0.34 2 4.41 4.41 0 0 1-0.78 2.38c-0.31 0.46 -0.62 0.91 -0.9 1.38a3.28 3.28 0 0 0-0.4 1.15 6 6 0 0 0-0.05 1.46c0.022 0.209 0.059 0.416 0.11 0.62 0.005 0.07 0.005 0.14 0 0.21l-0.04 0.04 zM14.72 25.24a3.37 3.37 0 0 0-0.06-0.36c-0.07-0.37-0.14-0.74-0.22-1.11a5.21 5.21 0 0 0-0.59-1.47 3.1 3.1 0 0 0-0.6-0.75c-0.17-0.15-0.31-0.33-0.46-0.49a8.18 8.18 0 0 0-2.07-1.58 5.23 5.23 0 0 0-2.32-0.6 4.83 4.83 0 0 0-1.4 0.17 4.31 4.31 0 0 0-1.15 0.48 c-0.18 0.1 -0.19 0.11 -0.28-0.09a8.33 8.33 0 0 1-0.36-0.81A3.12 3.12 0 0 1 5 17.28a1.72 1.72 0 0 1 0.14-0.54 0.81 0.81 0 0 1 0.26-0.26c0.41-0.25 0.81 -0.5 1.23-0.73 0.42 -0.23 0.7 -0.32 1-0.46 0.3 -0.14 0.71 -0.23 1.07-0.33a5.2 5.2 0 0 1 0.68-0.17c0.36-0.08 0.72 -0.15 1.09-0.2a9 9 0 0 1 1.15-0.12 3.35 3.35 0 0 1 1.37 0.18 0.78 0.78 0 0 1 0.43 0.35 c0.19 0.37 0.42 0.73 0.6 1.1 0.18 0.37 0.31 0.71 0.45 1.08 0.111 0.261 0.208 0.528 0.29 0.8a11.1 11.1 0 0 1 0.37 1.72c0.04 0.31 0.09 0.81 0.11 1.21 0 0.6 0.06 1.2 0.07 1.8a5 5 0 0 1-0.58 2.48s0.02 0.04 -0.01 0.05 zM5.37 28.89a0.61 0.61 0 0 0 0.31-0.3 1.41 1.41 0 0 0 0.16-1.2A3.49 3.49 0 0 0 5 26a0.24 0.24 0 0 1-0.07-0.23 5.64 5.64 0 0 1 0.51-1.65 1.31 1.31 0 0 1 0.56-0.59 4.48 4.48 0 0 1 0.62-0.31 2.32 2.32 0 0 1 2 0c0.32 0.173 0.61 0.395 0.86 0.66 0.22 0.23 0.43 0.47 0.65 0.71 0.074 0.082 0.138 0.172 0.19 0.27 0.24 0.41 0.5 0.81 0.7 1.23a4.09 4.09 0 0 1 0.39 2 3.29 3.29 0 0 1-0.72 1.91 4.83 4.83 0 0 1-0.77 0.73 0.85 0.85 0 0 1-0.35 0.11 7 7 0 0 1-0.78 0.12 7 7 0 0 1-1.58-0.06 6.46 6.46 0 0 1-2.12-0.7 7.18 7.18 0 0 1-1.56-1.12 1.29 1.29 0 0 1-0.4-0.55 1.79 1.79 0 0 1 0-1.29 1 1 0 0 1 0.7-0.56 3.34 3.34 0 0 1 0.7-0.08 0.4 0.4 0 0 1 0.25 0.09 c0.294 0.214 0.515 0.515 0.63 0.86 0.112 0.321 0.133 0.668 0.06 1-0.04 0.07 -0.07 0.2 -0.1 0.34 z" fill="#FFF"/>
  <path d="M5.58 23.17a4 4 0 0 1 0.07-1.85c0.11-0.39 0.28 -0.77 0.41 -1.17a0.43 0.43 0 0 1 0.35-0.29 7.86 7.86 0 0 1 0.84-0.19 5.5 5.5 0 0 1 0.91 0 5.29 5.29 0 0 1 2.19 0.58 c0.47 0.228 0.91 0.513 1.31 0.85 0.273 0.218 0.53 0.455 0.77 0.71 0.285 0.318 0.552 0.652 0.8 1a5.42 5.42 0 0 1 0.85 1.97c0.1 0.446 0.13 0.905 0.09 1.36a4.26 4.26 0 0 1-0.38 1.45 5.85 5.85 0 0 1-0.89 1.35 5.29 5.29 0 0 1-0.41 0.41 c-0.15 0.13 -0.29 0.27 -0.45 0.39 a5.89 5.89 0 0 1-0.57 0.41 h-0.11a0.14 0.14 0 0 1 0-0.14l0.19-0.29c0.4-0.678 0.559 -1.47 0.45 -2.25a5.5 5.5 0 0 0-0.24-1 7.26 7.26 0 0 0-0.82-1.65 9.42 9.42 0 0 0-0.88-1.12A3.27 3.27 0 0 0 7 22.5a4.38 4.38 0 0 0-1.31 0.57 l-0.11 0.1 zM4.91 16.24c-0.06-0.09-0.13-0.15-0.19-0.23a12.55 12.55 0 0 1-1-1.8c-0.07-0.14-0.09-0.3-0.15-0.45-0.06-0.15 0-0.12 0.08 -0.15 0.3 -0.16 0.61 -0.3 0.9 -0.47 0.29 -0.17 0.75 -0.5 1.12-0.75 0.183 -0.12 0.36 -0.25 0.53 -0.39 0.22 -0.2 0.43 -0.41 0.63 -0.62a4.86 4.86 0 0 0 0.53-0.58c0.25-0.33 0.49 -0.67 0.73 -1a0.13 0.13 0 0 1 0.16-0.06 5 5 0 0 1 1.79 0.84 3.9 3.9 0 0 1 0.8 0.77 7 7 0 0 1 0.58 0.94 c0.116 0.233 0.216 0.473 0.3 0.72 0.07 0.22 0.11 0.44 0.16 0.67 0.05 0.23 -0.06 0.11 -0.12 0.11 h-0.45c-0.39 0-0.77 0.1 -1.16 0.15 -0.21 0-0.43 0.07 -0.64 0.12 l-0.75 0.18 -1.13 0.37 a5.09 5.09 0 0 0-0.76 0.32 c-0.42 0.22 -0.83 0.45 -1.23 0.7 a8.46 8.46 0 0 0-0.64 0.57 l-0.09 0.04 zM3.69 12.89l-0.46 0.24 h-0.15c-0.25-0.3-0.5-0.6-0.76-0.89l-0.91-1c-0.24-0.26-0.49-0.52-0.71-0.79a3.65 3.65 0 0 1-0.65-1.14 0.85 0.85 0 0 1 0.33-1 1.1 1.1 0 0 1 1.32 0 0.36 0.36 0 0 1 0.11 0.1 c0.07 0.1 0.15 0.06 0.23 0a3.2 3.2 0 0 1 1.26-0.32 5.57 5.57 0 0 1 1.86 0.2 c0.488 0.13 0.96 0.31 1.41 0.54 0.26 0.13 0.5 0.28 0.76 0.41 a0.11 0.11 0 0 1 0.06 0.16 3 3 0 0 1-0.57 1c-0.2 0.23 -0.4 0.46 -0.62 0.67 a7.49 7.49 0 0 1-0.61 0.51 l-0.59 0.53 -0.41 0.27 -0.9 0.51 z" fill="#FFF"/>
</svg>
