<?xml version="1.0" ?>
<svg xmlns="http://www.w3.org/2000/svg" width="38" height="32" viewBox="0 0 38 32">
  <path d="M31.77 5.79H17.82a1.49 1.49 0 0 0 0 0.21v11.15c0 0.19 0.06 0.23 0.23 0.23h13.5c0.18 0 0.24 0 0.24-0.22V5.79h-0.02zM8.58 23a1.89 1.89 0 0 0 0.8-0.49c0.51-0.45 1-0.9 1.52-1.39a12.66 12.66 0 0 1 3.53-2.44c0.93-0.44 1.87-0.86 2.81-1.28 0.14 -0.06 0.15 -0.16 0.15 -0.29V9.87 6.02a0.31 0.31 0 0 0-0.23-0.34c-0.66-0.28-1.32-0.56-2-0.88-0.83-0.42-1.67-0.84-2.45-1.33a12.13 12.13 0 0 1-1.51-1.23c-0.61-0.53-1.2-1.1-1.79-1.63a8.43 8.43 0 0 0-0.78-0.55L8.58 0.1 V23zM31.75 20.14v-0.17-2.17c0-0.14 0-0.19-0.18-0.19h-6.59c-0.15 0-0.18 0.06 -0.18 0.19 v2.15c0 0.16 0.06 0.19 0.2 0.19h0.94l-0.21 0.56 c-0.31 0.76 -0.62 1.52-0.92 2.28L24 25c-0.3 0.75 -0.61 1.5-0.91 2.24-0.3 0.74 -0.69 1.62-1 2.45a0.49 0.49 0 0 1-0.6 0.38 h-0.79c-0.26 0-0.17 0-0.16 0.16 v1c0 0.11 0 0.17 0.16 0.16h5.55c0.28 0 0.28 0 0.28-0.29v-0.15a3.41 3.41 0 0 1 0.34-1.75c0.46-1.06 0.88 -2.14 1.32-3.21 0.36 -0.89 0.73 -1.77 1.09-2.66 0.36 -0.89 0.8 -2 1.19-3a0.23 0.23 0 0 1 0.24-0.16l1.04-0.03zM32.26 5.79V17.13c0 0.19 0 0.25 0.25 0.24a5.66 5.66 0 0 0 4.6-2.63 5.49 5.49 0 0 0 0.76-1.74 5.78 5.78 0 0 0 0.13-2.15 5.55 5.55 0 0 0-1.4-3.07 5.53 5.53 0 0 0-2.6-1.7 6.73 6.73 0 0 0-0.86-0.21 8 8 0 0 0-0.88-0.08zM0 11.65c0.05 0.59 0.11 1.3 0.18 2 0.07 0.7 0.1 1.15 0.18 1.72 0.08 0.57 0.14 0.93 0.21 1.4 0.07 0.47 0.11 0.9 0.18 1.34 0.07 0.44 0.14 0.89 0.25 1.26 0.11 0.37 0.11 0.77 0.18 1.16 0.07 0.39 0.14 0.84 0.21 1.26 0.07 0.42 0.13 0.73 0.18 1.1 0 0.14 0.06 0.19 0.19 0.17l0.62-0.06c0.15 0 0.18-0.12 0.16 -0.26l-0.09-0.52c-0.1-0.63-0.21-1.26-0.31-1.89-0.1-0.63-0.22-1.32-0.32-2-0.1-0.68-0.21-1.43-0.31-2.15s-0.2-1.73-0.32-2.59a13.48 13.48 0 0 1-0.13-2.69c0-0.69 0.13 -1.37 0.21 -2.06 0-0.28 0.05 -0.57 0.09 -0.86 0.07 -0.52 0.14 -1 0.22-1.55 0.08 -0.55 0.11 -0.8 0.17 -1.21 0.06 -0.41 0.15 -0.97 0.25 -1.44l0.18-1.14 0.21 -1.26 0.18 -1c0-0.13 0-0.21-0.15-0.23L1.69 0c-0.1 0-0.14 0-0.16 0.14 -0.09 0.57 -0.2 1.14-0.3 1.71-0.07 0.41 -0.11 0.82 -0.18 1.23-0.07 0.41 -0.14 0.81 -0.21 1.21a5.81 5.81 0 0 0-0.09 0.58 C0.66 5.51 0.58 6.14 0.5 6.78L0.2 8.92c0 0.31-0.06 0.61 -0.09 0.92 C0.07 10.4 0 11 0 11.65z" fill="#FFF"/>
  <path d="M3.84 5.69c-0.12 0.33 -0.23 0.64 -0.33 0.95 -0.18 0.55 -0.37 1.1-0.53 1.66-0.16 0.56 -0.3 1-0.42 1.58a8.32 8.32 0 0 0-0.25 1.41 5.43 5.43 0 0 0 0.08 1.2 10 10 0 0 0 0.25 1.21c0.11 0.41 0.22 0.81 0.35 1.22 0.13 0.41 0.34 1.09 0.52 1.63 0.08 0.26 0.17 0.51 0.25 0.76 0.08 0.25 0.15 0.17 0.28 0.12 0.193 -0.08 0.39 -0.15 0.59 -0.21 0.13 0 0.15-0.12 0.11 -0.22-0.16-0.5-0.34-1-0.5-1.5-0.16-0.5-0.29-1-0.43-1.44-0.14-0.44-0.2-0.7-0.29-1.05a4.63 4.63 0 0 1-0.17-2c0.12-0.6 0.28 -1.2 0.44 -1.78 0.21 -0.75 0.43 -1.47 0.66 -2.23 0.08 -0.27 0.18 -0.54 0.28 -0.81 0.1 -0.27 0.04 -0.19-0.11-0.19l-0.78-0.31zM8 11.61V9.1c0-0.25 0-0.26-0.27-0.25a2.76 2.76 0 0 0-2.43 3.33A2.61 2.61 0 0 0 6.77 14c0.32 0.142 0.656 0.246 1 0.31 0.24 0.07 0.29 0 0.29-0.24L8 11.61z" fill="#FFF"/>
</svg>
