<?xml version="1.0" ?>
<svg xmlns="http://www.w3.org/2000/svg" width="30" height="37" viewBox="0 0 30 37">
  <path d="M7 16.13l-0.46 0.12 a2.25 2.25 0 0 1-1.76-0.19 0.5 0.5 0 0 0-0.58 0c-1.24 0.7 -2.5 1.39-3.75 2.08-0.13 0.08 -0.28 0.21 -0.41 0.05 -0.13-0.16 0-0.29 0.1 -0.4 0.29 -0.31 0.58 -0.63 0.9 -0.91 0.73 -0.63 1.48-1.24 2.22-1.87a0.42 0.42 0 0 0 0.14-0.25 5.75 5.75 0 0 1 0.72-2.21 2.28 2.28 0 0 1 2-1.12 8.17 8.17 0 0 1 2.64 0.4 4.1 4.1 0 0 1 0.59 0.2 c0.17 0.07 0.25 0 0.33-0.12 0.44 -0.73 0.91 -1.45 1.33-2.2 0.555 -1 0.995-2.06 1.31-3.16 0.2 -0.71 0.34 -1.44 0.48 -2.17A14.75 14.75 0 0 0 13 1V0.41l0.2 0.13 a4.51 4.51 0 0 1 1.58 2.26 5.25 5.25 0 0 1 0.13 2.2c-0.05 0.46 -0.15 0.91 -0.22 1.36v0.11l0.2-0.12 0.86 -0.62c0.12-0.09 0.19 -0.07 0.27 0a1.8 1.8 0 0 1 0.22 1.75 3.19 3.19 0 0 0-0.14 0.59 C20.55 5.4 25 2.69 29.4 0h0.06c0 0.24-0.07 0.47 -0.12 0.71 A9 9 0 0 1 26.4 5.4a21.68 21.68 0 0 1-3 2.26l-0.27 0.19 2.83-1v0.05l-0.27 0.83 a9.77 9.77 0 0 1-1 2.07 5.42 5.42 0 0 1-2.15 1.85c-0.46 0.23 -0.93 0.44 -1.39 0.65 l-0.1 0.06 v0.06l2.27-0.19a9.68 9.68 0 0 1-5.77 3.63v0.06H20l-0.06 0.12 a7.28 7.28 0 0 1-2.3 1.83c-0.6 0.242 -1.215 0.45 -1.84 0.62 -0.32 0.1 -0.64 0.16 -1 0.23a0.16 0.16 0 0 0-0.14 0.2 c0.11 0.92 0.21 1.84 0.31 2.76a19 19 0 0 1 0.11 3.2c0 0.61-0.16 1.22-0.23 1.84a0.48 0.48 0 0 0 0 0.29 13.63 13.63 0 0 0 3.24 3.77c0.35 0.27 0.73 0.5 1.1 0.75 a2.66 2.66 0 0 1 1 1 1.15 1.15 0 0 1-0.11 1.23 3.48 3.48 0 0 1-1.37 1.09c-0.934 0.464 -1.926 0.8 -2.95 1a10 10 0 0 1-2.5 0.2 3.83 3.83 0 0 1-1.9-0.5 1.7 1.7 0 0 1-0.74-2 5.66 5.66 0 0 1 0.8-1.66 5.58 5.58 0 0 0 0.65-1.43 6.5 6.5 0 0 0 0.1-2.11 2.56 2.56 0 0 0-0.05-0.27 0.9 0.9 0 0 0-0.48-0.72 8.36 8.36 0 0 1-3.63-4.25 12.28 12.28 0 0 1-0.89-3.77c-0.08-1-0.09-2-0.14-3 0.012-0.07 0.018 -0.14 0.02 -0.21z" fill="#FFF"/>
</svg>
