<?xml version="1.0" ?>
<svg xmlns="http://www.w3.org/2000/svg" width="44" height="26" viewBox="0 0 44 26">
  <path d="M0 18.31a3.14 3.14 0 0 0 1.64 2.51c0.278 0.137 0.58 0.215 0.89 0.23 H6.3c0.18 0 0.21-0.07 0.22 -0.23a5.41 5.41 0 0 1 3.42-4.77 5 5 0 0 1 2.85-0.33A5.35 5.35 0 0 1 16.93 19a5.72 5.72 0 0 1 0.44 1.9c0 0.19 0.11 0.18 0.24 0.18h10.48c0.23 0 0.29-0.06 0.3 -0.29a5.15 5.15 0 0 1 1.14-3 5.34 5.34 0 0 1 2.61-1.82 5.47 5.47 0 0 1 6.32 2.46 4.61 4.61 0 0 1 0.62 1.68c0.04 0.273 0.07 0.543 0.09 0.81 0 0.15 0.07 0.19 0.2 0.18h1.84a2.32 2.32 0 0 0 1.61-0.9 3.08 3.08 0 0 0 0.77-2v-3.87a8.65 8.65 0 0 0 0-1c-0.06-1-0.11-1.95-0.2-2.93a37.597 37.597 0 0 0-0.27-2.25c-0.13-0.84-0.28-1.68-0.44-2.52-0.12-0.68-0.23-1.37-0.39-2a7 7 0 0 0-0.72-2.27A2.61 2.61 0 0 0 39.35 0H10.41a2.47 2.47 0 0 0-2 1.07L5.27 5.16 2 9.49 0.74 11.14a3.43 3.43 0 0 0-0.65 2v0.75c0 0.25 0.07 0.24 0.24 0.24h2.83a1.26 1.26 0 0 1 1.21 0.7 c0.075 0.153 0.116 0.32 0.12 0.49 v1.58a1.33 1.33 0 0 1-0.83 1.3 2 2 0 0 1-0.62 0.13 H0v-0.02zm12-8.66H6.84A1.19 1.19 0 0 1 5.71 9a1.22 1.22 0 0 1 0.12-1.34 444.519 444.519 0 0 1 3.77-5 1.1 1.1 0 0 1 0.91-0.48h6.81a0.84 0.84 0 0 1 0.31 0c0.575 0.165 0.952 0.714 0.9 1.31v4.83a1.27 1.27 0 0 1-1.35 1.36L12 9.65zm13.72 0H23.3a1.3 1.3 0 0 1-1.3-1.3V3.49a1.3 1.3 0 0 1 1.37-1.37h4.67c0.213 0.003 0.424 0.047 0.62 0.13 0.497 0.2 0.81 0.695 0.78 1.23v4.88a1.32 1.32 0 0 1-1.29 1.32c-0.81-0.03-1.62-0.01-2.42-0.01l-0.01-0.02zm9.17 0H32.46a1.28 1.28 0 0 1-1.29-1.28V3.45a1.3 1.3 0 0 1 1.34-1.35h4.71c0.2 0 0.397 0.041 0.58 0.12 0.516 0.212 0.836 0.734 0.79 1.29v4.81a1.3 1.3 0 0 1-1.36 1.34c-0.77-0.02-1.55 0.01 -2.33 0.01 l-0.01-0.02zm-18.11 2.68h-0.69a0.47 0.47 0 0 1-0.44-0.44 0.47 0.47 0 0 1 0.42-0.48h1.42a0.48 0.48 0 0 1 0.42 0.47 0.45 0.45 0 0 1-0.44 0.46 l-0.69-0.01z" fill="#FFF"/>
  <path d="M37.91 21.08a4.06 4.06 0 1 0-8.12 0.06 4.06 4.06 0 0 0 8.12-0.06zm-4 2.31a2.31 2.31 0 1 1 0-4.61 2.31 2.31 0 1 1 0 4.61zM8 21.1a4.06 4.06 0 1 0 8.12 0A4.11 4.11 0 0 0 12 17a4.07 4.07 0 0 0-4 4.1zm4 2.29a2.31 2.31 0 1 1 0.02-4.62 2.31 2.31 0 0 1-0.02 4.62zM1.89 14.89H0.72a0.69 0.69 0 0 0-0.64 0.71 v1c0 0.45 0.23 0.78 0.67 0.79 0.796 0.04 1.594 0.04 2.39 0a0.57 0.57 0 0 0 0.53-0.61v-1.24a0.62 0.62 0 0 0-0.59-0.64c-0.39-0.04-0.79-0.01-1.19-0.01z" fill="#FFF"/>
</svg>
