<?xml version="1.0" ?>
<svg xmlns="http://www.w3.org/2000/svg" width="19" height="36" viewBox="0 0 19 36">
  <path d="M6.41 29.35A1.29 1.29 0 0 1 7.27 28l1-0.31 0.19 -0.1a1.88 1.88 0 0 1-1-1.63l-0.46 0.59 c-0.35 0.52 -0.7 1-1 1.57-0.14 0.22 -0.26 0.46 -0.4 0.68 a1.14 1.14 0 0 1-0.82 0.52 4.91 4.91 0 0 1-1 0.07 1.38 1.38 0 0 1-0.64-0.23c-0.29-0.18-0.31-0.43-0.15-0.84 0.11 -0.25 0.08 -0.33-0.14-0.47l-0.22-0.14a0.33 0.33 0 0 1-0.18-0.39c0.08-0.3 0.24 -0.6 0.63 -0.63l0.93-0.06c0.15 0 0.19-0.06 0.2 -0.2 0-0.56 0.07 -1.13 0.09 -1.7 0-1 0.06-2.07 0-3.11a17.2 17.2 0 0 0-0.16-2.27 6.94 6.94 0 0 0-1-2.72A16.65 16.65 0 0 1 2.12 15a5.53 5.53 0 0 1-0.28-1.08 5.73 5.73 0 0 1-0.13-1.75A11.1 11.1 0 0 1 1.9 11c0.05-0.27 0.12 -0.54 0.16 -0.82 0.04 -0.28 0.06 -0.58 0.08 -0.87a1.48 1.48 0 0 0-0.47-1.21c-0.36-0.35-0.74-0.68-1.09-1a1.76 1.76 0 0 1-0.41-0.54A5.11 5.11 0 0 1 0 5.68c0-0.34 0-0.57 0.41 -0.68a1.66 1.66 0 0 0 0.4-0.2 1.64 1.64 0 0 0 0.6-0.68c0.05-0.097 0.108 -0.19 0.17 -0.28a1.21 1.21 0 0 1 0.79-0.49l1.11-0.28a0.45 0.45 0 0 0 0.34-0.48c0-0.48-0.07-1-0.11-1.44a1.34 1.34 0 0 1 0.1-0.9C4 0 4.1-0.06 4.38 0.07 c0.44 0.207 0.793 0.56 1 1 0.091 0.185 0.149 0.385 0.17 0.59 a1.9 1.9 0 0 0 1 1.53c0.45 0.27 0.88 0.58 1.31 0.87 0.33 0.235 0.544 0.598 0.59 1 0.07 0.56 0.13 1.12 0.16 1.68a4.24 4.24 0 0 0 1 2.42 4.42 4.42 0 0 0 2 1.4c0.73 0.3 1.45 0.62 2.17 0.95 a3.27 3.27 0 0 1 1.28 1.17 26.68 26.68 0 0 1 2.68 4.63c0.15 0.395 0.261 0.803 0.33 1.22a19.44 19.44 0 0 1 0.2 4.31c0 0.7-0.08 1.39-0.15 2.08-0.07 0.69 -0.14 1.26-0.21 1.89a6 6 0 0 1-0.13 0.72 c-0.03 0.248 0.027 0.499 0.16 0.71 a6.78 6.78 0 0 1 0.55 3.2 4.1 4.1 0 0 1-1.94 3.25 7.72 7.72 0 0 1-2.11 0.9 9.9 9.9 0 0 1-3.38 0.33 8.27 8.27 0 0 1-1.84-0.33 6.25 6.25 0 0 1-2.17-1.05 2.59 2.59 0 0 1-0.48-0.54 0.6 0.6 0 0 1 0.19-0.89 0.73 0.73 0 0 1 0.41-0.07c0.374 0.063 0.745 0.147 1.11 0.25 0.58 0.18 1.14 0.39 1.71 0.58 a7.36 7.36 0 0 0 2.28 0.37 5.43 5.43 0 0 0 2.27-0.56 4.53 4.53 0 0 0 1.57-1.14 3.12 3.12 0 0 0 0.73-1.54 3.4 3.4 0 0 0-0.15-1.52c-0.05-0.15-0.13-0.14-0.23-0.14h-10l-0.05 0.01 z" fill="#FFF"/>
</svg>
