<?xml version="1.0" ?>
<svg xmlns="http://www.w3.org/2000/svg" width="44" height="32" viewBox="0 0 44 32">
  <path d="M40.87 29.53H2.72v-0.24V9.13c0-0.23 0.06 -0.29 0.29 -0.29h37.54c0.32 0 0.32 0 0.32 0.32 v20.37zm-11.82-1.28V28v-7.85c0-0.24-0.08-0.29-0.3-0.29H14.81c-0.23 0-0.3 0.06 -0.3 0.3 v7.87a2.18 2.18 0 0 0 0 0.25h3.17v-0.31-5.6c0-0.2 0.06 -0.26 0.26 -0.26h7.65c0.2 0 0.27 0.05 0.27 0.26 V28a2.46 2.46 0 0 0 0 0.28l3.19-0.03zm-25 0H7.8c0.2 0.02 0.2-0.09 0.2 -0.25v-7.91c0-0.21-0.07-0.26-0.27-0.26H4.28c-0.22 0-0.28 0.07 -0.28 0.29 V28.25h0.05zm5.26 0H13c0.22 0 0.28-0.05 0.28 -0.27V20.1c0-0.22-0.06-0.29-0.28-0.29H9.56c-0.3 0-0.3 0-0.3 0.32 v8.11l0.05 0.01 zm25.06 0V28v-7.86c0-0.22-0.06-0.3-0.29-0.3h-3.45c-0.3 0-0.3 0-0.3 0.3 v8.11h4.04zm5.25 0c0.003-0.05 0.003 -0.1 0-0.15v-8c0-0.19-0.07-0.23-0.24-0.23h-3.5c-0.2 0-0.25 0.07 -0.25 0.27 V28c0 0.21 0.06 0.25 0.26 0.25h3.73zm-15.8-9.71a0.62 0.62 0 0 0 0-0.12v-8.06c0-0.19-0.1-0.21-0.24-0.21H20c-0.18 0-0.24 0.06 -0.24 0.25 v7.9a1.93 1.93 0 0 0 0 0.24h4.06zm-5.26 0v-0.23-7.86c0-0.29 0-0.3-0.31-0.3h-3.4c-0.21 0-0.29 0-0.29 0.27 v7.88a1.93 1.93 0 0 0 0 0.24h4zm10.53 0a0.88 0.88 0 0 0 0-0.14v-8c0-0.2-0.11-0.21-0.26-0.21h-3.5c-0.2 0-0.27 0.06 -0.27 0.27 v7.88a1.94 1.94 0 0 0 0 0.24l4.03-0.04zm5.27 0v-0.24-7.9c0-0.21-0.09-0.25-0.27-0.25h-3.48c-0.21 0-0.28 0.06 -0.28 0.28 v8.11h4.03zm5.27 0v-8.17c0-0.2-0.08-0.23-0.24-0.23h-3.51c-0.21 0-0.29 0.06 -0.28 0.28 v8.11l4.03 0.01 zm-26.33 0v-8.09c0-0.29 0-0.3-0.31-0.3H9.54c-0.21 0-0.29 0-0.29 0.27 V18.54h4.05zm-5.3 0v-0.18-8c0-0.23-0.12-0.24-0.28-0.24H4.23c-0.19 0-0.25 0.06 -0.25 0.25 v8.14l4.02 0.03 zM35.43 7.91H8.16a2.18 2.18 0 0 1 0-0.25V0.28c0-0.21 0.06 -0.28 0.28 -0.28h26.7c0.22 0 0.3 0 0.3 0.28 v7.38l-0.01 0.25 zM0 31.62v-1.37H43.32c0.21 0 0.28 0.06 0.27 0.27 v1.13L0 31.62z" fill="#FFF"/>
  <path d="M22 6.48h0.82c0.12 0 0.15 0 0.15-0.15V5.19c0-0.11 0-0.15 0.15 -0.15h1.09c0.19 0 0.19 0 0.19-0.2V3.65v-0.36c0-0.12 0-0.17-0.18-0.17h-1.09c-0.18 0-0.19 0-0.19-0.18v-1.1c0-0.15 0-0.17-0.17-0.17h-1.58c-0.16 0-0.17 0-0.17 0.18 v1.06c0 0.19 0 0.2-0.22 0.21 h-1.05c-0.15 0-0.17 0-0.17 0.16 V4.9c0 0.11 0 0.15 0.14 0.15h1.14c0.13 0 0.16 0 0.16 0.16 v1.11c0 0.16 0 0.16 0.16 0.16H22z" fill="#00ADEE"/>
</svg>
