<?xml version="1.0" ?>
<svg xmlns="http://www.w3.org/2000/svg" width="44" height="28" viewBox="0 0 44 28">
  <path d="M32.9 17.47v-6c0-0.29 0-0.28 0.28 -0.28h10c0.37 0 0.4-0.09 0.4 0.38v12c0 0.29 0 0.29-0.28 0.29 h-10c-0.33 0-0.3 0-0.3-0.31l-0.1-6.08zM37.45 14h-2.12c-0.13 0-0.13 0.1 -0.13 0.19 v1.74c0 0.22 0.08 0.3 0.28 0.29h1.68c0.28 0 0.29 0 0.29-0.3V14zm0 6.22v-2.07c0-0.14-0.08-0.15-0.18-0.15H35.4c-0.14 0-0.2 0.06 -0.2 0.21 v1.8c0 0.16 0.07 0.19 0.21 0.19h2l0.04 0.02 zM39.06 14v2.07c0 0.05 0.1 0.14 0.15 0.14h1.87c0.06 0 0.16-0.11 0.16 -0.16v-1.92s-0.07-0.12-0.11-0.12L39.06 14zm0 6.19h2.09c0.12 0 0.14-0.06 0.14 -0.16v-1.84c0-0.13 0-0.19-0.18-0.19h-1.83c-0.15 0-0.19 0.06 -0.19 0.2 v1.06l-0.03 0.93 zM10.34 17.6v6.16c0 0.22-0.06 0.28 -0.28 0.28 H0.31C0 24 0 24 0 23.74v-6.38-5.88c0-0.32 0-0.32 0.31 -0.32h9.76c0.2 0 0.26 0.06 0.26 0.26 0 2.05 0.01 4.12 0.01 6.18zm-2.17 0.07 H6.08c-0.15 0-0.16 0.1 -0.16 0.2 v1.81c0 0.16 0.06 0.22 0.23 0.22h1.78c0.16 0 0.21-0.05 0.21 -0.21v-1.32l0.03-0.7zm0-1.81v-2.08c0-0.13-0.08-0.15-0.18-0.15H6.16c-0.14 0-0.21 0.06 -0.21 0.21 v1.84c0 0.14 0.06 0.18 0.2 0.18h2.02zm-6 2.88v0.92c0 0.14 0 0.21 0.21 0.21h1.74c0.16 0 0.24-0.05 0.24 -0.23v-1.79c0-0.18-0.07-0.21-0.23-0.21H2.38c-0.17 0-0.2 0.06 -0.2 0.21 l-0.01 0.89 zm0-2.9h2.02c0.14 0 0.18-0.06 0.18 -0.19v-1.79c0-0.19-0.08-0.25-0.25-0.25H2.44c-0.2 0-0.27 0.07 -0.26 0.26 v1.76c0 0.07 0.007 0.14 0.02 0.21h-0.03zM31.63 6.48H11.44a3.25 3.25 0 0 1 0.28-0.23l4-2.57L20.09 0.9 c0.44-0.28 0.91 -0.55 1.31-0.84a0.26 0.26 0 0 1 0.34 0l3.79 2.42 3 2 2.79 1.78a2 2 0 0 1 0.29 0.22 h0.02zM31.78 10H11.61c-0.19 0-0.25-0.06-0.25-0.25v-2c0-0.2 0.06 -0.27 0.27 -0.27h19.83c0.32 0 0.32 0 0.32 0.31 V10zM33.7 27.77H9.89c0.13-0.34 0.26 -0.65 0.38 -0.95 0-0.45 0.34 -0.49 0.73 -0.49h21.62a0.39 0.39 0 0 1 0.4 0.23 c0.21 0.37 0.44 0.77 0.68 1.21zM32.56 25.7H11.08c-0.33 0-0.34 0-0.2-0.32s0.27-0.59 0.38 -0.89a0.29 0.29 0 0 1 0.33-0.24h19.93a0.36 0.36 0 0 1 0.39 0.23 c0.19 0.37 0.41 0.72 0.61 1.07a0.5 0.5 0 0 1 0.04 0.15 zM13.64 17.08v5.61c0 0.2 0 0.28-0.27 0.28 h-1.78c-0.17 0-0.24 0-0.24-0.22V11.41c0-0.19 0.06 -0.25 0.25 -0.25h1.76c0.21 0 0.28 0.06 0.28 0.28 v5.64zM15.91 17.06V11.4c0-0.19 0.06 -0.25 0.26 -0.25h1.73c0.28 0 0.28 0 0.28 0.29 v11.28c0 0.21-0.07 0.25 -0.26 0.24 h-1.76c-0.2 0-0.27 0-0.27-0.25 0.02 -1.89 0.02 -3.77 0.02 -5.65zM27.24 17.07v5.65c0 0.19 0 0.25-0.23 0.24 h-1.77C25 23 25 23 25 22.68V12v-0.68c0-0.23 0.06 -0.2 0.2 -0.2H27c0.2 0 0.21 0.11 0.21 0.26 l0.03 5.69zM31.78 17.08v5.56c0 0.36 0 0.32-0.33 0.32 h-1.74c-0.15 0-0.21 0-0.21-0.2V11.38c0-0.17 0.05 -0.23 0.22 -0.23h1.81c0.2 0 0.25 0.07 0.25 0.26 -0.01 1.89 0 3.78 0 5.67zM20.45 17.07v-5.61c0-0.3 0-0.3 0.31 -0.3h1.64c0.32 0 0.32 0 0.32 0.3 V22.72c0 0.19 0 0.25-0.23 0.24 h-1.72c-0.32 0-0.32 0-0.32-0.31v-5.58zM32.9 10V8c0-0.36 0-0.36 0.35 -0.36h9.92c0.36 0 0.36 0 0.36 0.37 v1.72c0 0.18-0.05 0.25 -0.24 0.25 H32.9V10zM10.34 10H0.26C0.06 10 0 10 0 9.75V8c0-0.2 0.06 -0.29 0.28 -0.29h9.8c0.2 0 0.26 0.07 0.26 0.27 V10z" fill="#FFF"/>
</svg>
