<?xml version="1.0" ?>
<svg xmlns="http://www.w3.org/2000/svg" width="44" height="36" viewBox="0 0 44 36">
  <path d="M9.47 6.34H10c0-0.22 0-0.41-0.09-0.6L9.7 4.39c-0.07-0.43-0.15-0.87-0.2-1.31 0-0.18-0.1-0.24-0.27-0.27l-2-0.35-1.79-0.3-0.9-0.16c0-0.23 0-0.45 0.07 -0.66 0.06 -0.4 0.11 -0.8 0.18 -1.2A0.24 0.24 0 0 1 5 0c0.26 0 0.52 0.04 0.78 0.12 l1.28 0.24 L8.3 0.6 l1.22 0.21 1.57 0.29 c0.05 0 0.11 0.11 0.12 0.18 0.07 0.62 0.13 1.24 0.2 1.86l0.27 2.49c0 0.22 0.07 0.45 0.11 0.7h1.43v7.87c0 0.2 0.07 0.28 0.27 0.28h5.28a5.12 5.12 0 0 0 4-1.87 5 5 0 0 0 1.08-2.18c0.151-0.969 0.202 -1.95 0.15 -2.93V4.85a1.91 1.91 0 0 1 1.48-1.92 5 5 0 0 1 1.17-0.06h13.54a1.88 1.88 0 0 1 1.87 1.23 2 2 0 0 1 0.14 0.81 V13.72a0.69 0.69 0 0 0 0.64 0.75 c0.306 0.08 0.577 0.259 0.77 0.51 a0.35 0.35 0 0 1 0 0.21v12a2.72 2.72 0 0 1-2 2.58c-0.1 0-0.19 0.06 -0.32 0.1 v-0.29c0-0.68 0-1.38-0.1-2.06A8.85 8.85 0 0 0 40.08 24a9.41 9.41 0 0 0-3.62-3.49 9.25 9.25 0 0 0-4.93-1.12 9.18 9.18 0 0 0-4.19 1.3 9.51 9.51 0 0 0-3.68 4.09 10 10 0 0 0-0.66 2.07 13.44 13.44 0 0 0-0.17 3c0 0.21 0 0.28-0.27 0.28 h-6.77c-0.15 0-0.23 0-0.26-0.19-0.06-0.36-0.14-0.72-0.23-1.08a6.82 6.82 0 0 0-1.49-2.76 6.91 6.91 0 0 0-2.9-1.95A6.28 6.28 0 0 0 8 23.76a6.74 6.74 0 0 0-5.5 4 6.66 6.66 0 0 0-0.58 2.45c0 0.19-0.09 0.26 -0.28 0.25 -0.6 0-0.6 0-0.83-0.59-0.23-0.59-0.37-1-0.53-1.49a4.27 4.27 0 0 1-0.19-0.93A20.48 20.48 0 0 1 0 25.34c0-0.59 0.14 -1.18 0.21 -1.77v-0.2c0-0.73 0.07 -1.45 0.12 -2.17 0.023 -0.8 0.087 -1.597 0.19 -2.39A4.83 4.83 0 0 1 2 16.12a5.69 5.69 0 0 1 2.39-1.43 5.66 5.66 0 0 1 1.74-0.22h3c0.33 0 0.35 0 0.35-0.36V6.34h-0.01zm26.93 7.25V7.45c0-0.21-0.08-0.23-0.25-0.23h-6.4c-0.3 0-0.3 0-0.3 0.3 v5.8c0 0.21 0.07 0.26 0.28 0.26h6.67v0.01z" fill="#FFF"/>
  <path d="M32.07 35.9A7 7 0 1 1 39 29a6.92 6.92 0 0 1-6.93 6.9zM3.67 31a4.92 4.92 0 1 1 9.84 0 5 5 0 0 1-5 4.9A4.94 4.94 0 0 1 3.67 31z" fill="#FFF"/>
</svg>
