<?xml version="1.0" ?>
<svg xmlns="http://www.w3.org/2000/svg" width="34" height="31" viewBox="0 0 34 31">
  <path d="M16.08 25v-0.54-1.32a0.5 0.5 0 0 0-0.16-0.39l-4.6-4.6C9.18 16 7 13.89 4.88 11.77a1.58 1.58 0 0 1-0.57-1.39c0-0.49 0-0.49 0.5 -0.49h0.51c0.11 0 0.17 0 0.16 0.15 -0.01 0.15 0 0 0 0.06-0.054 0.412 0.118 0.82 0.45 1.07 3.333 3.28 6.64 6.567 9.92 9.86l0.23 0.2 v-0.26-1.64a0.54 0.54 0 0 0-0.18-0.43l-5.36-5.36-2.21-2.2a0.47 0.47 0 0 1-0.15-0.34v-0.89c0-0.13 0-0.18 0.18 -0.18h0.81c0.13 0 0.2 0 0.18 0.17 a1.24 1.24 0 0 0 0.51 1.18l6 6 0.19 0.16 v-0.25-1.64a0.5 0.5 0 0 0-0.17-0.39l-3.74-3.74a0.51 0.51 0 0 1-0.17-0.41v-0.85c0-0.28 0.06 -0.21 0.21 -0.21H13c0.13 0 0.19 0 0.18 0.17 -0.01 0.17 0 0 0 0a1.15 1.15 0 0 0 0.48 1.13c0.76 0.69 1.48 1.42 2.22 2.14l0.19 0.16 v-0.27-5.11c0-0.27 0-0.27 0.28 -0.27h0.67c0.22 0 0.21 0.05 0.21 0.21 v5.44l0.2-0.16 2.57-2.5a0.49 0.49 0 0 0 0.17-0.41c0-0.19-0.06-0.45 0-0.54 0.06 -0.09 0.37 0 0.56-0.05a2.12 2.12 0 0 1 0.4 0c0.06 0 0.14 0.09 0.14 0.14 v1a0.48 0.48 0 0 1-0.15 0.27 l-3.73 3.73a0.58 0.58 0 0 0-0.2 0.46 v1.86l0.22-0.19 6.35-6.3a0.51 0.51 0 0 0 0.17-0.41c0-0.19 0-0.45 0.06 -0.56 0.06 -0.11 0.36 0 0.54 0 0.57 0 0.53 0 0.57 0.56 a1.47 1.47 0 0 1-0.52 1.25c-2.42 2.38-4.8 4.79-7.2 7.18a0.58 0.58 0 0 0-0.19 0.46 V21.22l0.2-0.16 10.24-10.2a0.59 0.59 0 0 0 0.15-0.48c0-0.5 0-0.5 0.5 -0.5h0.49c0.12 0 0.17 0 0.17 0.16 v1a0.51 0.51 0 0 1-0.16 0.28 L23 17.22l-5.55 5.55a0.54 0.54 0 0 0-0.18 0.43 v1.9l0.19-0.16 14.09-14.08a0.59 0.59 0 0 0 0.13-0.32c0.016-0.15 0.016 -0.3 0-0.45 0-0.16 0.06 -0.21 0.22 -0.21h0.77c0.14 0 0.2 0 0.19 0.19 v1a0.58 0.58 0 0 1-0.18 0.32 l-4 4-11.26 11.22a0.58 0.58 0 0 0-0.19 0.46 v1.46c0 0.3 0 0.31 0.3 0.31h5.72c0.3 0 0.3 0 0.3 0.3 v0.59c0 0.2 0 0.28-0.29 0.28 H10c-0.27 0-0.27 0-0.28-0.28-0.01-0.28 0-0.43 0-0.65 0-0.22 0-0.25 0.24 -0.25h5.84c0.18 0 0.25 0 0.25-0.24v-1.56a0.5 0.5 0 0 0-0.16-0.39l-5-5L2 12.71 0.6 11.33A0.47 0.47 0 0 1 0.44 11v-0.87c0-0.14 0-0.2 0.19 -0.19h0.81c0.13 0 0.19 0.05 0.18 0.18 -0.06 0.438 0.13 0.874 0.49 1.13 4.593 4.54 9.173 9.093 13.74 13.66l0.18 0.15 0.05-0.06zM17.45 0a0.83 0.83 0 0 0 0.06 1.16c0.292 0.364 0.51 0.782 0.64 1.23 0.099 0.333 0.066 0.69-0.09 1a3.26 3.26 0 0 1-1.3 1.39 1.12 1.12 0 0 0-0.27-1.22 3.13 3.13 0 0 1-0.58-1.21 1.3 1.3 0 0 1 0.09-0.87A3.22 3.22 0 0 1 17.29 0.06 l0.16-0.06z" fill="#FFF"/>
  <path d="M5.89 8.57v0.81c0 0.27-0.05 0.19 -0.19 0.19 H4c-0.14 0-0.19 0-0.19-0.19V7.72c0-0.14 0.06 -0.19 0.19 -0.19h1.7c0.14 0 0.19 0.05 0.19 0.19 v0.85zM1 9.56H0.19c-0.14 0-0.2 0-0.19-0.18V7.74c0-0.15 0-0.22 0.2 -0.22h1.65c0.15 0 0.2 0.06 0.2 0.2 v1.62c0 0.18-0.07 0.22 -0.23 0.21 L1 9.56zM9.76 8.57v0.83c0 0.12 0 0.17-0.17 0.16 H7.9c-0.14 0-0.17-0.06-0.17-0.18V7.7c0-0.13 0-0.18 0.18 -0.17h1.67c0.15 0 0.18 0.06 0.18 0.19 v0.85zM23.55 8.54v-0.83c0-0.12 0-0.19 0.17 -0.18h1.7c0.12 0 0.16 0 0.16 0.17 v1.7c0 0.12 0 0.16-0.17 0.16 h-1.7c-0.13 0-0.16-0.05-0.16-0.17 0.01 -0.28 0-0.56 0-0.85zM17.65 6.52v0.81c0 0.27 0 0.21-0.2 0.2 h-1.64c-0.15 0-0.21 0-0.2-0.2V5.67c0-0.13 0-0.18 0.18 -0.18h1.68c0.15 0 0.18 0.06 0.18 0.2 v0.83zM28.4 9.56h-0.85c-0.13 0-0.18 0-0.18-0.17V7.71c0-0.13 0-0.18 0.17 -0.18h1.68c0.13 0 0.18 0 0.18 0.17 v1.68c0 0.15-0.06 0.19 -0.19 0.18 h-0.81zM13.63 8.55v0.81c0 0.27 0 0.21-0.2 0.21 h-1.66c-0.13 0-0.18 0-0.18-0.18V7.71c0-0.13 0.06 -0.18 0.18 -0.18h1.66c0.16 0 0.2 0.07 0.19 0.21 -0.01 0.14 0.01 0.54 0.01 0.81 zM20.71 9.56h-0.83c-0.14 0-0.2 0-0.19-0.19V7.71c0-0.15 0.07 -0.19 0.2 -0.19h1.66c0.13 0 0.18 0 0.18 0.18 v1.68c0 0.13-0.06 0.18 -0.18 0.17 l-0.84 0.01 zM32.26 9.56h-0.83c-0.14 0-0.19-0.05-0.19-0.19V7.69c0-0.12 0-0.17 0.17 -0.17h1.68c0.14 0 0.19 0 0.19 0.19 v1.66c0 0.14-0.05 0.19 -0.19 0.19 h-0.83zM32.26 7.12a3.19 3.19 0 0 1-0.46-0.4 1.62 1.62 0 0 1-0.53-1.1 1.67 1.67 0 0 1 0.35-0.87l0.21-0.27a0.62 0.62 0 0 0 0.17-0.67l0.17 0.11 c0.314 0.238 0.567 0.546 0.74 0.9 a1.1 1.1 0 0 1-0.1 1.07 4.71 4.71 0 0 1-0.38 0.55 0.54 0.54 0 0 0-0.08 0.64 l-0.09 0.04 zM24.22 3.83c0.268 0.147 0.5 0.352 0.68 0.6 a1.26 1.26 0 0 1 0 1.7l-0.18 0.24 a0.6 0.6 0 0 0-0.11 0.71 3.52 3.52 0 0 1-0.45-0.4 1.6 1.6 0 0 1-0.54-1.11 1.74 1.74 0 0 1 0.35-0.87l0.16-0.21a0.63 0.63 0 0 0 0.09-0.66zM28.43 7.09a2.32 2.32 0 0 1-0.82-0.81 1 1 0 0 1-0.1-1.09c0.11-0.23 0.245 -0.448 0.4 -0.65a0.67 0.67 0 0 0 0.14-0.72h0.11c0.37 0.248 0.665 0.594 0.85 1a1 1 0 0 1-0.08 0.9 4.45 4.45 0 0 1-0.34 0.53 c-0.15 0.3 -0.34 0.52 -0.16 0.84 z" fill="#FFF"/>
</svg>
