<?xml version="1.0" ?>
<svg xmlns="http://www.w3.org/2000/svg" width="31" height="30" viewBox="0 0 31 30">
  <path d="M12.69 14.51v8.07A6.14 6.14 0 0 1 9 28.4a6.34 6.34 0 0 1-8.46-3.2A6.59 6.59 0 0 1 0 22.61V6.37a6.34 6.34 0 0 1 12.2-2.48 6.44 6.44 0 0 1 0.5 2.6c-0.01 2.67-0.01 5.35-0.01 8.02zM6.37 15H2.25C2 15 2 15 2 15.26v7.42a4 4 0 0 0 0.3 1.6 4.41 4.41 0 0 0 8.51-1.7v-7.3c0-0.23-0.06-0.3-0.29-0.3L6.37 15zM30.31 7.16v3.86a2.89 2.89 0 0 1-1.45 2.58 3.18 3.18 0 0 1-1.74 0.41 h-7.3a4 4 0 0 1-0.78-0.07A2.77 2.77 0 0 1 16.8 12a3.22 3.22 0 0 1-0.16-1V3.36A2.89 2.89 0 0 1 18.85 0.42 a2.78 2.78 0 0 1 0.76-0.09h7.73a2.92 2.92 0 0 1 2.88 2.21c0.065 0.285 0.095 0.577 0.09 0.87 0.013 1.253 0.013 2.503 0 3.75zm-11.73 0V11a1 1 0 0 0 1 1.05h7.72a1 1 0 0 0 1-1.05V3.32a1 1 0 0 0-1.06-1h-7.6a1 1 0 0 0-1.06 1.06v3.78zM23.47 16a6.84 6.84 0 1 1-6.84 6.84A6.87 6.87 0 0 1 23.47 16zm4.89 6.85a4.89 4.89 0 1 0-4.87 4.89 4.87 4.87 0 0 0 4.87-4.92v0.03z" fill="#FFF"/>
  <path d="M23 5.2V3.99c0-0.19 0.07 -0.26 0.25 -0.25h0.46c0.2 0 0.25 0.08 0.25 0.27 v2.38c0 0.23 0.06 0.31 0.3 0.3h2.38c0.2 0 0.3 0.05 0.28 0.27 -0.02 0.15 -0.02 0.3 0 0.45 0 0.2-0.07 0.24 -0.25 0.24 h-2.39c-0.33 0-0.33 0-0.33 0.35 v2.31c0 0.21 0 0.3-0.27 0.29 -0.69 0-0.69 0-0.69-0.69v-2c0-0.2-0.07-0.26-0.26-0.26h-2.41c-0.22 0-0.31-0.06-0.28-0.28a3.09 3.09 0 0 0 0-0.43c0-0.2 0.06 -0.25 0.24 -0.25h2.42c0.24 0 0.31-0.07 0.3 -0.29V5.2zM26.19 24.89a1.71 1.71 0 0 1-0.11 0.14 c-0.11 0.12 -0.24 0.23 -0.35 0.36 -0.11 0.13 -0.24 0.14 -0.38 0l-3.78-3.79-0.7-0.7c-0.11-0.11-0.13-0.19 0-0.3l0.4-0.4c0.1-0.11 0.18 -0.1 0.28 0l4.53 4.54 0.11 0.15z" fill="#FFF"/>
</svg>
