<?xml version="1.0" ?>
<svg xmlns="http://www.w3.org/2000/svg" width="44" height="25" viewBox="0 0 44 25">
  <path d="M11.07 1.41l0.26 0.76 c0.573 1.74 1.14 3.48 1.7 5.22l1.32 4.09 1.42 4.33 0.81 2.52a0.77 0.77 0 0 0 0.07 0.16 0.53 0.53 0 0 0 0.13 0.13 0.65 0.65 0 0 0 0-0.19c-0.05-0.25-0.12-0.5-0.19-0.74l-0.83-3.26-0.76-3.16-0.81-3.2c-0.3-1.17-0.61-2.34-0.91-3.52-0.23-0.89-0.46-1.78-0.68-2.67v-0.15c0.38-0.32 0.76 -0.62 1.18-1 0.08 0.28 0.14 0.52 0.2 0.75 l1.2 4.73 1.24 4.92c0.38 1.52 0.77 3 1.16 4.55 0.19 0.74 0.36 1.47 0.55 2.2 0.04 0.105 0.098 0.203 0.17 0.29a1.82 1.82 0 0 0 0-0.32c-0.12-0.69-0.25-1.38-0.38-2.07s-0.26-1.36-0.38-2l-0.48-2.54-0.48-2.59c-0.16-0.84-0.31-1.68-0.46-2.52-0.15-0.84-0.31-1.64-0.46-2.47-0.15-0.83-0.29-1.52-0.42-2.29a0.24 0.24 0 0 1 0-0.19L16.5 0.33 c0.06 0.28 0.11 0.52 0.15 0.76 0.17 0.9 0.33 1.79 0.49 2.68 0.12 0.69 0.25 1.37 0.37 2.06L18 8.44l0.39 2.17c0.12 0.69 0.25 1.38 0.38 2.07l0.39 2.16c0.13 0.71 0.26 1.41 0.38 2.11 0.06 0.31 0.11 0.62 0.17 0.93a0.88 0.88 0 0 0 0.12 0.17 0.47 0.47 0 0 0 0.07-0.22c-0.16-1.44-0.33-2.89-0.5-4.34l-0.48-4.06c-0.16-1.35-0.3-2.69-0.46-4-0.12-1.11-0.26-2.21-0.39-3.32 0-0.34-0.08-0.68-0.11-1C18 1 18 0.87 18 0.84c0.38-0.26 0.77 -0.5 1.2-0.76 0.024 0.092 0.04 0.186 0.05 0.28L19.57 3c0.11 0.91 0.21 1.82 0.31 2.73l0.3 2.61 0.3 2.6c0.1 0.86 0.19 1.73 0.29 2.6l0.3 2.61c0.06 0.56 0.13 1.11 0.2 1.66 0 0.06 0.07 0.12 0.1 0.18s0.09-0.13 0.08 -0.2c0-0.65-0.05-1.31-0.09-2L20.88 6a828.8 828.8 0 0 1-0.23-5.09 0.3 0.3 0 0 1 0.07-0.24c0.39-0.23 0.8 -0.45 1.21-0.68l0.07 0.17 c0.08 1.86 0.17 3.73 0.25 5.59 0.08 1.62 0.16 3.25 0.23 4.88s0.13 3 0.2 4.49c0 0.86 0.07 1.72 0.11 2.57v0.09l0.11 0.15 c0-0.05 0.08 -0.1 0.08 -0.15v-1.05c0.087-4.567 0.18 -9.133 0.28 -13.7 0-0.71 0-1.42 0.07 -2.14a0.3 0.3 0 0 1 0.07-0.2l1.28-0.62v0.26c-0.08 3.76-0.15 7.53-0.22 11.29-0.04 2.08-0.077 4.153-0.11 6.22a1 1 0 0 0 0.08 0.26 0.6 0.6 0 0 0 0.1-0.25c0.21-2.29 0.4 -4.59 0.6 -6.89 0.13 -1.48 0.27 -3 0.4-4.44 0.13 -1.44 0.25 -3 0.37-4.44 0-0.34 0.05 -0.68 0.1 -1a0.33 0.33 0 0 1 0.13-0.22l1.16-0.48h0.13c0 0.33-0.05 0.64 -0.07 1-0.11 1.24-0.21 2.48-0.32 3.72l-0.3 3.43c-0.1 1.13-0.2 2.26-0.29 3.4-0.09 1.14-0.21 2.4-0.31 3.6-0.08 0.9 -0.16 1.8-0.23 2.69a0.7 0.7 0 0 0 0.06 0.19 c0-0.06 0.12 -0.11 0.13 -0.17 0.21 -1.34 0.41 -2.68 0.62 -4 0.18-1.18 0.38 -2.36 0.56 -3.55 0.18 -1.19 0.36 -2.38 0.55 -3.57l0.48-3c0.13-0.83 0.26 -1.65 0.37 -2.48 0-0.24 0.11 -0.4 0.38 -0.46s0.58-0.19 0.88 -0.29h0.21C30 2 29.78 3.21 29.6 4.4c-0.18 1.19-0.37 2.4-0.55 3.6-0.18 1.2-0.37 2.41-0.56 3.62-0.19 1.21-0.35 2.4-0.54 3.6-0.19 1.2-0.38 2.36-0.53 3.55h0.11a0.7 0.7 0 0 0 0.09-0.17c0.18-0.8 0.36 -1.59 0.53 -2.38l0.57-2.49c0.18-0.82 0.36 -1.64 0.55 -2.46 0.19 -0.82 0.37 -1.64 0.55 -2.46l0.57-2.53c0.21-0.94 0.43 -1.89 0.64 -2.83 0.1 -0.46 0.21 -0.91 0.3 -1.36 0-0.23 0.11 -0.41 0.39 -0.45 0.28 -0.04 0.71 -0.16 1.12-0.26-0.06 0.32 -0.11 0.6 -0.17 0.87 -0.22 1-0.45 2-0.67 3.05-0.22 1.05-0.44 2-0.65 2.93-0.21 0.93 -0.42 2-0.64 2.92-0.22 0.92 -0.43 2-0.65 3l-0.72 3.32-0.34 1.64a0.86 0.86 0 0 0 0 0.21c0.05-0.05 0.12 -0.1 0.14 -0.16l0.64-2.16 0.91 -3c0.33-1.12 0.66 -2.23 1-3.35l0.81-2.72 0.9 -3.08 0.6 -2.17a0.27 0.27 0 0 1 0.24-0.22l1.12-0.18a0.71 0.71 0 0 1 0.3 0.1 0.35 0.35 0 0 1 0.11 0.1 3.31 3.31 0 0 0 1.66 1.12c0.21 0.06 0.21 0.17 0.14 0.33 l-1.4 3.38-2.7 6.52c-0.88 2.11-1.75 4.21-2.62 6.32-0.24 0.57 -0.48 1.13-0.7 1.7-0.07 0.16 -0.15 0.17 -0.28 0.11 l-0.63-0.27a0.92 0.92 0 0 0-0.76 0c-0.43 0.16 -0.52 0.13 -0.73-0.28l-0.24-0.41-0.43 0.26 c-0.3 0.18 -0.46 0.14 -0.65-0.16l-0.29-0.44-0.47 0.34 a0.35 0.35 0 0 1-0.55-0.09c-0.09-0.11-0.17-0.23-0.25-0.35-0.08-0.12-0.15-0.12-0.25 0s-0.22 0.2 -0.34 0.29 a0.32 0.32 0 0 1-0.49 0c-0.1-0.11-0.2-0.23-0.29-0.35-0.09-0.12-0.16-0.14-0.27 0l-0.24 0.24 c-0.26 0.24 -0.39 0.24 -0.63 0l-0.11-0.11c-0.29-0.32-0.24-0.33-0.55 0a1.62 1.62 0 0 1-0.18 0.19 0.32 0.32 0 0 1-0.46 0l-0.35-0.34c-0.09-0.09-0.16-0.09-0.23 0s-0.2 0.25 -0.3 0.36 a0.33 0.33 0 0 1-0.51 0.05 2.66 2.66 0 0 1-0.31-0.26c-0.13-0.13-0.21-0.1-0.3 0s-0.17 0.23 -0.26 0.34 a0.33 0.33 0 0 1-0.49 0.08 l-0.5-0.37-0.31 0.48 a0.38 0.38 0 0 1-0.61 0.14 l-0.45-0.3-0.3 0.55 c-0.14 0.25 -0.27 0.35 -0.52 0.22 -0.465-0.2-1-0.152-1.42 0.13 l-0.33 0.13 c-0.12-0.28-0.24-0.55-0.35-0.82L10.14 13C9.1 10.52 8.05 8 7 5.5c-0.22-0.5-0.43-1.09-0.66-1.62-0.06-0.14 0-0.2 0.1 -0.25 0.1 -0.05 0.21 -0.09 0.32 -0.12A2.61 2.61 0 0 0 8 2.63c0.1-0.12 0.2 -0.24 0.29 -0.37l0.1 0.05 c0.11 0.28 0.23 0.55 0.35 0.83 L11 8.57c0.94 2.313 1.873 4.62 2.8 6.92l1.4 3.45c0 0.08 0.1 0.16 0.15 0.24h0.08a2.13 2.13 0 0 0 0-0.25c-0.62-1.88-1.25-3.75-1.87-5.62l-1.68-5C11.21 6.49 10.65 4.73 10 3a0.62 0.62 0 0 1 0.23-0.84c0.31-0.22 0.54 -0.48 0.84 -0.75zM0 7.21a1.44 1.44 0 0 1 0.89-1.27l4.48-1.87c0.17-0.07 0.27 -0.07 0.36 0.14 0.83 2 1.68 4.07 2.52 6.1l2.27 5.49 2.61 6.28c0.1 0.26 0.1 0.26 -0.16 0.37 l-4.5 1.86a1.33 1.33 0 0 1-1.75-0.72c-0.64-1.5-1.26-3-1.88-4.52-0.76-1.82-1.51-3.65-2.27-5.47L0.14 7.74A5.18 5.18 0 0 1 0 7.21zm12 14.9a2.89 2.89 0 0 1-0.16-0.42c-0.06-0.18-0.15-0.21-0.32-0.14l-1.9 0.79 c-0.47 0.18 -0.37 0.28 -0.6-0.26-0.06-0.14 0-0.21 0.11 -0.27l1.95-0.81c0.5-0.21 0.44 -0.11 0.26 -0.61-0.06-0.15-0.14-0.2-0.31-0.13-0.64 0.28 -1.29 0.55 -1.94 0.81 -0.39 0.15 -0.34 0.24 -0.54-0.22-0.08-0.18-0.05-0.27 0.14 -0.35 0.69 -0.28 1.38-0.58 2.08-0.85 0.18 -0.07 0.2 -0.17 0.13 -0.33a5.38 5.38 0 0 1-0.24-0.55c-0.05-0.14-0.11-0.16-0.25-0.1l-1.94 0.8 c-0.42 0.17 -0.42 0.16 -0.6-0.26-0.06-0.15 0-0.21 0.12 -0.27 0.49 -0.19 1-0.4 1.44-0.6l0.89-0.38c-0.06-0.15-0.12-0.27-0.16-0.4-0.04-0.13-0.16-0.22-0.33-0.14l-1.83 0.8 c-0.49 0.19 -0.37 0.26 -0.6-0.26-0.07-0.14 0-0.22 0.12 -0.27L9 17.07c0.28-0.11 0.54 -0.23 0.82 -0.36-0.06-0.15-0.11-0.26-0.15-0.39-0.04-0.13-0.15-0.23-0.35-0.15-0.63 0.28 -1.27 0.54 -1.91 0.8 -0.37 0.16 -0.37 0.16 -0.53-0.21-0.16-0.37-0.1-0.26 0.15 -0.36l2.09-0.87c0.14 0 0.17-0.13 0.11 -0.26-0.06-0.13-0.23-0.38-0.23-0.57 0-0.19-0.12-0.2-0.29-0.13l-1.91 0.79 c-0.43 0.18 -0.42 0.17 -0.61-0.25-0.06-0.14 0-0.21 0.12 -0.27l2-0.81c0.39-0.16 0.38 -0.16 0.23 -0.56-0.08-0.21-0.17-0.22-0.35-0.15l-1.88 0.78 c-0.41 0.17 -0.4 0.17 -0.58-0.22-0.08-0.18 0-0.26 0.14 -0.32l1.4-0.56 0.82 -0.36c-0.11-0.27-0.22-0.51-0.31-0.76s-0.13-0.17-0.28-0.11c-0.63 0.27 -1.26 0.54 -1.89 0.79 -0.63 0.25 -0.41 0.25 -0.63-0.26-0.07-0.16 0-0.21 0.12 -0.26L7 11.2c0.48-0.2 0.49 -0.08 0.24 -0.66 0-0.13-0.11-0.15-0.24-0.1-0.64 0.28 -1.29 0.54 -1.93 0.8 -0.44 0.18 -0.43 0.17 -0.62-0.26-0.06-0.15 0-0.2 0.12 -0.25l2-0.83c0.38-0.16 0.36 -0.15 0.21 -0.55-0.08-0.22-0.19-0.22-0.37-0.14L4.53 10c-0.42 0.17 -0.41 0.17 -0.6-0.26-0.06-0.14 0-0.21 0.11 -0.26l0.63-0.26 1.52-0.63c0.14-0.05 0.21 -0.11 0.12 -0.28a3.83 3.83 0 0 1-0.22-0.56C6 7.57 6 7.53 5.78 7.61c-0.65 0.28 -1.31 0.54 -2 0.81-0.36 0.15 -0.36 0.14 -0.5-0.2s-0.08-0.22 0.2 -0.39l1.81-0.75c0.49-0.2 0.47 -0.1 0.25 -0.64 0-0.14-0.11-0.17-0.25-0.11l-1.94 0.8 c-0.43 0.17 -0.42 0.16 -0.6-0.27 0-0.13 0-0.19 0.1 -0.25 0.66 -0.26 1.31-0.54 2-0.81 0.46 -0.2 0.41 -0.11 0.23 -0.59C5 5 4.89 5 4.71 5.07L1.16 6.55a0.68 0.68 0 0 0-0.39 0.94 c0.45 1.1 0.91 2.2 1.37 3.3L5 17.7c0.76 1.84 1.52 3.69 2.29 5.53a0.7 0.7 0 0 0 1 0.41l2.41-1 1.3-0.53zM43.92 7.37c-0.06 0.17 -0.16 0.49 -0.29 0.79 A854.28 854.28 0 0 1 41 14.52a947.57 947.57 0 0 0-3 7.35c-0.23 0.57 -0.46 1.15-0.71 1.72a1.34 1.34 0 0 1-1.77 0.71 c-1.53-0.62-3-1.26-4.58-1.89-0.16-0.06-0.17-0.13-0.11-0.27L34.56 13l3-7.32c0.2-0.51 0.42 -1 0.61-1.51 0.08 -0.19 0.17 -0.22 0.35 -0.14 0.91 0.39 1.83 0.76 2.75 1.14l1.77 0.74 c0.583 0.24 0.94 0.833 0.88 1.46zm-0.67-0.12a0.73 0.73 0 0 0-0.45-0.7l-3.58-1.48c-0.2-0.09-0.27 0-0.34 0.15 L38 7.35c-0.93 2.24-1.85 4.47-2.78 6.7-1.067 2.6-2.143 5.2-3.23 7.8-0.09 0.2 -0.05 0.28 0.15 0.36 l3.51 1.45a0.7 0.7 0 0 0 1-0.42c0.14-0.32 0.28 -0.64 0.41 -1l3.21-7.76a2153.1 2153.1 0 0 0 2.87-6.93 1.85 1.85 0 0 0 0.11-0.3z" fill="#FFF"/>
  <path d="M36.9 20.69a0.32 0.32 0 0 1-0.32 0.33 0.35 0.35 0 0 1-0.35-0.33 0.38 0.38 0 0 1 0.33-0.34 0.34 0.34 0 0 1 0.34 0.34 zM36.38 22a0.34 0.34 0 0 1-0.34 0.33 0.36 0.36 0 0 1-0.33-0.33 0.34 0.34 0 0 1 0.32-0.33 0.33 0.33 0 0 1 0.35 0.33 zM39.62 7a0.34 0.34 0 0 1-0.32 0.33 A0.34 0.34 0 0 1 39 7a0.33 0.33 0 0 1 0.32-0.33 0.34 0.34 0 0 1 0.3 0.33 zM39.54 14.35a0.36 0.36 0 0 1-0.35 0.33 0.32 0.32 0 0 1-0.32-0.33 0.35 0.35 0 0 1 0.34-0.34 0.38 0.38 0 0 1 0.33 0.34 zM41.62 9.29a0.32 0.32 0 0 1-0.32 0.32 0.34 0.34 0 0 1-0.3-0.34 0.37 0.37 0 0 1 0.33-0.33 0.34 0.34 0 0 1 0.29 0.35 zM36.61 16.66A0.36 0.36 0 0 1 37 17a0.34 0.34 0 0 1-0.33 0.35 0.33 0.33 0 0 1-0.33-0.32 0.34 0.34 0 0 1 0.27-0.37zM41.1 10.56a0.35 0.35 0 0 1-0.33 0.33 0.37 0.37 0 0 1-0.33-0.35 0.34 0.34 0 0 1 0.33-0.32 0.32 0.32 0 0 1 0.33 0.34 zM38.72 12.26a0.34 0.34 0 1 1 0-0.67 0.32 0.32 0 0 1 0.33 0.34 0.33 0.33 0 0 1-0.33 0.33 zM38.66 16a0.32 0.32 0 0 1-0.31-0.35 0.31 0.31 0 0 1 0.33-0.31 0.33 0.33 0 1 1 0 0.66h-0.02zM36 15.83a0.32 0.32 0 0 1-0.32 0.33 0.33 0.33 0 0 1-0.35-0.32 0.33 0.33 0 0 1 0.33-0.33c0.18 0 0.33 0.14 0.34 0.32 zM35.42 17.11a0.33 0.33 0 0 1-0.35 0.32 0.31 0.31 0 0 1-0.31-0.34 0.34 0.34 0 0 1 0.35-0.32 0.35 0.35 0 0 1 0.31 0.34 zM34.55 18a0.34 0.34 0 0 1 0.34 0.33 0.33 0.33 0 0 1-0.32 0.33 0.31 0.31 0 0 1-0.33-0.31 0.32 0.32 0 0 1 0.31-0.35zM36.11 14.9a0.36 0.36 0 0 1-0.31-0.35 0.33 0.33 0 0 1 0.38-0.3 0.31 0.31 0 0 1 0.28 0.36 0.32 0.32 0 0 1-0.35 0.29 zM36.67 13a0.34 0.34 0 0 1 0.32 0.35 0.35 0.35 0 0 1-0.33 0.32 0.35 0.35 0 0 1-0.33-0.35 0.34 0.34 0 0 1 0.34-0.32zM38.18 12.87a0.32 0.32 0 0 1 0.34 0.33 0.32 0.32 0 0 1-0.33 0.32 0.36 0.36 0 0 1-0.34-0.32 0.33 0.33 0 0 1 0.33-0.33zM37.19 12.36a0.32 0.32 0 0 1-0.33-0.32c0-0.18 0.14 -0.33 0.32 -0.34a0.33 0.33 0 0 1 0.33 0.34 0.31 0.31 0 0 1-0.32 0.32 zM38.76 7.9a0.32 0.32 0 0 1 0.33 0.32 0.36 0.36 0 0 1-0.33 0.35 0.33 0.33 0 0 1-0.32-0.33 0.31 0.31 0 0 1 0.32-0.34zM40.06 13.08a0.34 0.34 0 0 1-0.32 0.33 0.33 0.33 0 0 1-0.35-0.31 0.33 0.33 0 0 1 0.33-0.34c0.18 0 0.33 0.14 0.34 0.32 zM37.67 14.13a0.33 0.33 0 0 1 0.33 0.33 0.32 0.32 0 0 1-0.33 0.32 0.33 0.33 0 0 1-0.34-0.31 0.34 0.34 0 0 1 0.34-0.34zM40.58 11.81a0.32 0.32 0 0 1-0.32 0.33 0.34 0.34 0 0 1-0.35-0.32 0.32 0.32 0 0 1 0.33-0.32 0.31 0.31 0 0 1 0.34 0.31 zM37.48 15.74a0.34 0.34 0 0 1-0.36 0.31 0.32 0.32 0 0 1-0.31-0.33 0.35 0.35 0 0 1 0.33-0.33 0.38 0.38 0 0 1 0.34 0.35 zM39.57 10.66a0.32 0.32 0 0 1-0.32 0.33 0.34 0.34 0 0 1-0.34-0.34 0.35 0.35 0 0 1 0.33-0.33 0.34 0.34 0 0 1 0.33 0.34 zM34.52 22.4a0.36 0.36 0 0 1-0.34-0.35 0.37 0.37 0 0 1 0.34-0.32 0.33 0.33 0 0 1 0.32 0.35 0.32 0.32 0 0 1-0.32 0.32 zM41.82 8.34A0.31 0.31 0 0 1 41.5 8a0.33 0.33 0 0 1 0.32-0.34 0.34 0.34 0 0 1 0.33 0.35 0.31 0.31 0 0 1-0.33 0.33 zM35.77 18.25a0.29 0.29 0 0 1 0.32-0.31 0.32 0.32 0 0 1 0.33 0.32 0.35 0.35 0 0 1-0.34 0.34 0.33 0.33 0 0 1-0.31-0.35zM37.94 18.16a0.3 0.3 0 0 1-0.32 0.32 0.33 0.33 0 0 1-0.33-0.32 0.32 0.32 0 0 1 0.34-0.33 0.3 0.3 0 0 1 0.31 0.33 zM40.09 9.38a0.3 0.3 0 0 1-0.31 0.33 0.3 0.3 0 0 1-0.34-0.32 0.33 0.33 0 0 1 0.65 0v-0.01zM34.37 19.65A0.36 0.36 0 0 1 34 20a0.34 0.34 0 0 1-0.32-0.36 0.32 0.32 0 0 1 0.34-0.31 0.33 0.33 0 0 1 0.35 0.32 zM38.16 16.56a0.33 0.33 0 0 1 0.32 0.33 0.35 0.35 0 0 1-0.33 0.33 0.32 0.32 0 0 1-0.32-0.35 0.3 0.3 0 0 1 0.33-0.31zM37.11 19.09a0.33 0.33 0 0 1 0.31 0.36 0.3 0.3 0 0 1-0.32 0.3 0.32 0.32 0 0 1-0.33-0.34 0.34 0.34 0 0 1 0.34-0.32zM35.56 19.21a0.3 0.3 0 0 1 0.33 0.31 0.32 0.32 0 0 1-0.32 0.34 0.32 0.32 0 0 1-0.33-0.32 0.31 0.31 0 0 1 0.32-0.33zM40.62 8.12a0.33 0.33 0 0 1-0.35 0.33 0.31 0.31 0 0 1-0.3-0.34 0.3 0.3 0 0 1 0.33-0.31 0.31 0.31 0 0 1 0.32 0.32 zM38.57 9.49c0 0.18-0.14 0.33 -0.32 0.34 a0.33 0.33 0 0 1-0.34-0.32 0.3 0.3 0 0 1 0.33-0.33 0.32 0.32 0 0 1 0.33 0.31 zM35.36 20.81a0.29 0.29 0 0 1-0.32 0.31 0.32 0.32 0 0 1-0.33-0.32 0.33 0.33 0 0 1 0.35-0.33 0.31 0.31 0 0 1 0.3 0.34 zM33.84 20.91a0.32 0.32 0 0 1-0.33 0.32 0.31 0.31 0 0 1-0.32-0.34 0.3 0.3 0 0 1 0.33-0.31 0.32 0.32 0 0 1 0.32 0.33 zM37.7 10.44a0.33 0.33 0 1 1 0 0.65 0.3 0.3 0 0 1-0.34-0.32 0.32 0.32 0 0 1 0.34-0.33zM40.82 6.53a0.33 0.33 0 0 1 0.33 0.33 0.35 0.35 0 0 1-0.33 0.33 0.34 0.34 0 0 1-0.232-0.577 0.31 0.31 0 0 1 0.232-0.083z" fill="#FFF"/>
</svg>
