<?xml version="1.0" ?>
<svg xmlns="http://www.w3.org/2000/svg" width="30" height="36" viewBox="0 0 30 36">
  <path d="M25.23 34.42c0.06-0.26 0.11 -0.52 0.18 -0.78a7 7 0 0 0-2.18-7.2c-1-1-2.09-1.8-3.15-2.68a10.46 10.46 0 0 1-3.27-4.91c-0.07-0.21-0.12-0.43-0.19-0.64-0.07-0.21-0.13-0.42-0.18-0.56-0.91 1.11-1.84 2.2-2.73 3.33a4.38 4.38 0 0 0-0.71 1.34 2 2 0 0 1-1.51 1.4c-1.07 0.28 -2.155 0.5 -3.25 0.66 a6.15 6.15 0 0 0-5.54 4.47 14.68 14.68 0 0 0-0.61 4.7v0.68a3.34 3.34 0 0 1-1.56-1.72 7 7 0 0 1-0.38-4.16c0.14-0.79 0.29 -1.58 0.5 -2.35a12.52 12.52 0 0 1 2-4.29 5.41 5.41 0 0 0 0.78-4.54c-0.25-1.2-0.56-2.38-0.84-3.57a29.34 29.34 0 0 1-0.71-3.16 12.39 12.39 0 0 1 0.07-2.65 6.71 6.71 0 0 1 1.2-3.12 9.6 9.6 0 0 1 4.37-3.59A13.18 13.18 0 0 1 19.63 2a19.44 19.44 0 0 1 8.16 9.25 28.29 28.29 0 0 1 1.44 4.37 25.86 25.86 0 0 1 0.77 6.43 28.35 28.35 0 0 1-0.23 3.81 20.62 20.62 0 0 1-2.68 7.82c-0.39 0.64 -0.85 1.24-1.28 1.86h-0.14c0-0.141 0.017 -0.282 0.05 -0.42a24.18 24.18 0 0 0 1-2.77 8 8 0 0 0-0.05-3.58c-0.43-2-1.331-3.87-2.63-5.45a41.51 41.51 0 0 0-3.49-3.53c-0.38-0.38-0.82-0.7-1.23-1a0.19 0.19 0 0 0-0.21 0l0.25 0.26 c1.37 1.44 2.79 2.82 4.09 4.31A12.18 12.18 0 0 1 26 27.75c0.286 0.948 0.444 1.93 0.47 2.92a6.53 6.53 0 0 1-1.05 3.67l-0.09 0.1 -0.1-0.02zM6.8 6.64a0.63 0.63 0 0 0-0.18 0.12 5.87 5.87 0 0 0-1.31 3 5.13 5.13 0 0 0 0.56 3.11 2.45 2.45 0 0 1 0.33 1.79 3.1 3.1 0 0 0 0.35 2.54c0.52 0.88 1.06 1.75 1.62 2.61A2.26 2.26 0 0 0 10.53 21a5.88 5.88 0 0 0 1.27-0.41 12.82 12.82 0 0 0 4.2-3.3c0.53-0.59 0.32 -0.94-0.22-1.24a29.56 29.56 0 0 1-4.92-3.15 11.09 11.09 0 0 1-3.21-4c-0.31-0.74-0.56-1.5-0.85-2.26z" fill="#FFF"/>
</svg>
