<?xml version="1.0" ?>
<svg xmlns="http://www.w3.org/2000/svg" width="31" height="30" viewBox="0 0 31 30">
  <path d="M10.77 16.2c0-0.37 0-0.74 0.12 -1.11a5.9 5.9 0 0 1 3.35-4.24 6.26 6.26 0 0 1 1.76-0.48 5.86 5.86 0 0 1 1.89 0.09 5.09 5.09 0 0 1 1.7 0.65 c0.33 0.2 0.63 0.43 0.93 0.66 0.3 0.23 0.16 0.14 0.06 0.31 a21.8 21.8 0 0 1-2.28 3.22 23.47 23.47 0 0 1-2 2c-0.49 0.46 -1 0.89-1.54 1.3-0.54 0.41 -1.24 0.9 -1.86 1.35l-0.37 0.24 c-0.08 0.06 -0.13 0-0.19 0a6 6 0 0 1-1.11-1.73 6.11 6.11 0 0 1-0.46-2.26zM18.87 22.94a7.19 7.19 0 0 0 4.42-4.21l0.7 1 2.34 3.24L28 25.18l1.59 2.19c0.181 0.234 0.345 0.482 0.49 0.74 0.192 0.36 0.192 0.79 0 1.15a1.33 1.33 0 0 1-0.92 0.74 1.4 1.4 0 0 1-1.21-0.26l-1.27-1-1.48-1.02-1.49-1.12-1.39-1.05-2.4-1.79-1-0.74-0.05-0.08zM13.55 21.19a25.39 25.39 0 0 0 8-8.2 5.72 5.72 0 0 1 0.65 5 5.7 5.7 0 0 1-4.73 4 5.61 5.61 0 0 1-3.41-0.53c-0.14-0.06-0.31-0.16-0.51-0.27zM5.54 5.89v3.46a0.42 0.42 0 0 0 0 0.13 0.75 0.75 0 0 1-0.34 0.89 c-0.41 0.298 -0.929 0.4 -1.42 0.28 a1.55 1.55 0 0 1-0.78-0.37 0.82 0.82 0 0 1-0.27-0.53 0.77 0.77 0 0 1 0.27-0.6 1.35 1.35 0 0 1 0.86-0.4A1.84 1.84 0 0 1 5.15 9v-0.23-3.91c0-0.08 0-0.18 0.09 -0.21a0.28 0.28 0 0 1 0.33 0.11 c0.278 0.47 0.714 0.824 1.23 1 0.408 0.12 0.837 0.158 1.26 0.11 0.17-0.02 0.337 -0.057 0.5 -0.11 0.12 0 0.15 0 0.15 0.12 v1.17c0 0.08 0 0.13-0.11 0.16 a2.69 2.69 0 0 1-2.88-1.16l-0.14-0.19-0.04 0.03 zM25.73 7.82V7.6 3.43c0-0.29 0-0.34 0.32 -0.26 0.342 0.09 0.677 0.207 1 0.35a3.15 3.15 0 0 1 1.33 1.13c0.21 0.299 0.354 0.64 0.42 1 0 0.15 0.05 0.29 0.07 0.43a0.18 0.18 0 0 1 0 0.14c-0.09-0.17-0.18-0.34-0.28-0.5A5 5 0 0 0 27 4a5.41 5.41 0 0 0-0.67-0.34c-0.08 0-0.15 0-0.15 0.11 a1.79 1.79 0 0 1 0 0.2 0.18 0.18 0 0 0 0.14 0.19 5 5 0 0 1 1.89 1.39c0.21 0.25 0.4 0.53 0.59 0.79 v0.08L28.39 6a4.69 4.69 0 0 0-1.56-1 4 4 0 0 0-0.6-0.13c-0.1 0-0.15 0-0.15 0.13 v3.39a0.88 0.88 0 0 1-0.58 0.84 A1.61 1.61 0 0 1 24 9.1a0.68 0.68 0 0 1-0.35-0.83 0.89 0.89 0 0 1 0.58-0.56 1.7 1.7 0 0 1 1.41 0.05 l0.09 0.06 zM3.55 19.48v-0.2-4.14-0.17a0.91 0.91 0 0 1 0.29 0V20.19a0.84 0.84 0 0 1-0.47 0.8 1.88 1.88 0 0 1-1.4 0.21 1.53 1.53 0 0 1-0.75-0.37 0.8 0.8 0 0 1 0.11-1.32 1.58 1.58 0 0 1 0.9-0.31 1.89 1.89 0 0 1 1.14 0.24 l0.18 0.04 zM17.87 4.43V0c0.32 0 0.33 0 0.33 0.28 v4.9a0.82 0.82 0 0 1-0.42 0.72 1.81 1.81 0 0 1-1.34 0.25 1.36 1.36 0 0 1-1-0.56 0.76 0.76 0 0 1 0.17-1 1.61 1.61 0 0 1 0.86-0.37 1.83 1.83 0 0 1 1.18 0.2 h0.05l0.17 0.01 z" fill="#FFF"/>
</svg>
