<?xml version="1.0" ?>
<svg xmlns="http://www.w3.org/2000/svg" width="36" height="36" viewBox="0 0 36 36">
  <path d="M16.87 0h1.99A17.29 17.29 0 0 1 24 1a17.79 17.79 0 0 1 6.9 4.66 17 17 0 0 1 4.61 9.74c0.07 0.53 0.11 1.07 0.17 1.6v1.6a1.88 1.88 0 0 0-0.05 0.33 17.41 17.41 0 0 1-6.32 12.47 16.46 16.46 0 0 1-9.07 4l-1.49 0.17 h-1.88c-0.11 0-0.22-0.05-0.33-0.06a17.18 17.18 0 0 1-4.21-0.77 17.79 17.79 0 0 1-7.83-5.09A16.73 16.73 0 0 1 0.21 20.7c-0.08-0.59-0.14-1.18-0.21-1.78v-2.16c0-0.14 0-0.28 0.05 -0.42a16.79 16.79 0 0 1 0.78-4.1A17.63 17.63 0 0 1 6 4.5 16.88 16.88 0 0 1 15.35 0.16 L16.87 0zm-6.21 26.33l0.05-0.07v0.08a1.33 1.33 0 0 0 0 0.2 8.47 8.47 0 0 0 2.71 5.64A9.31 9.31 0 0 0 18 34.45a9.8 9.8 0 0 0 5.82-0.25 17.88 17.88 0 0 0 9-7.57A16.82 16.82 0 0 0 35 15.51a15.85 15.85 0 0 0-2.8-7.45C28.58 3 23.73 0.36 17.46 0.46 h-0.17l0.07 0.06 0.21 0.08 a14.87 14.87 0 0 1 5.36 3.43 7.57 7.57 0 0 1 2.15 7.23 8.14 8.14 0 0 1-2.6 4.25 0.3 0.3 0 0 0-0.09 0.39 c0.165 0.434 0.302 0.878 0.41 1.33 0.34 1.45 0.42 1.43-0.8 2.67l-0.11 0.09 -3 3a6.48 6.48 0 0 0 0.63-0.23 4 4 0 0 1 1-0.25 2.7 2.7 0 0 1 2.2 0.94 0.36 0.36 0 0 0 0.28 0.12 3.44 3.44 0 0 1 2.2 0.39 c0.48 0.16 0.904 0.455 1.22 0.85 a0.44 0.44 0 0 0 0.43 0.23 1.58 1.58 0 0 1 1.12 0.33 0.71 0.71 0 0 1 0.1 1c-0.22 0.25 -0.47 0.47 -0.71 0.7 a4 4 0 0 1-3 1.26h-0.37a3.25 3.25 0 0 0-1.19 0.25 c-0.82 0.35 -1.65 0.67 -2.49 1-0.84 0.33 -1.69 0.52 -2.51 0.84 a7.27 7.27 0 0 1-2.8 0.54 2.05 2.05 0 0 1-2-1.64 8.17 8.17 0 0 1-0.14-0.84 0.91 0.91 0 0 0-0.45-0.81 6.31 6.31 0 0 1-0.62-0.54l-1.13-0.8zm2.05-9.95h0.07a0.23 0.23 0 0 1 0 0.09 10.44 10.44 0 0 0 0.07 2.9 0.54 0.54 0 0 0 0.26 0.43 c0.51 0.32 1 0.67 1.49 1 0.18 0.12 0.37 0.22 0.55 0.33 0.18 0.11 0.28 0.22 0.43 0.32 0.15 0.1 0.33 0.26 0.49 0.25 a1.4 1.4 0 0 0 0.72-0.23 6.7 6.7 0 0 0 2.28-2.92v-0.05a0.91 0.91 0 0 1-0.31 0.12 2.94 2.94 0 0 1-0.49-0.08c0.08-0.13 0.12 -0.3 0.23 -0.39 0.28 -0.24 0.6 -0.43 0.9 -0.65 0.457 -0.31 0.69 -0.856 0.6 -1.4a3.51 3.51 0 0 1 0-0.65 0.84 0.84 0 0 1 0.09-0.25c0.06 0.29 0 0.57 0.07 0.83 0.14 0.61 0.34 1.2 0.49 1.81a0.65 0.65 0 0 1-0.09 0.47 c-0.48 0.67 -1 1.33-1.49 2-0.383 0.48 -0.794 0.938 -1.23 1.37a1.43 1.43 0 0 1-1.41 0.4 5.29 5.29 0 0 0-2.34 0.09 6.22 6.22 0 0 0-0.84 0.25 c-0.14 0.06 -0.31 0.15 -0.13 0.36 0 0 0 0.16-0.1 0.21 -0.1 0.05 -0.13 0.06 -0.2 0.08 a1.1 1.1 0 0 0 1 0.61 11.91 11.91 0 0 1 3.18-0.16 1.93 1.93 0 0 0 1.67-0.52 6.56 6.56 0 0 0 0.67-0.62A26.53 26.53 0 0 1 22 19.75c0.247-0.239 0.471 -0.5 0.67 -0.78a0.93 0.93 0 0 0 0.2-0.85c-0.12-0.49-0.2-1-0.36-1.49-0.29-0.87-0.64-1.72-0.95-2.59-0.17-0.46-0.3-0.94-0.45-1.41a1.37 1.37 0 0 0-1.25-1c-0.31 0-0.62-0.09-0.93-0.16-0.31-0.07-0.27 0-0.39 0.17 -0.32 0.45 -0.67 0.87 -1 1.3-0.13 0.18 -0.25 0.37 -0.37 0.56 a9.48 9.48 0 0 1-0.61 1 0.75 0.75 0 0 1-1.17 0.08 2.71 2.71 0 0 1-0.55-0.71 3.89 3.89 0 0 1-0.51-2h-0.5a3.09 3.09 0 0 0-3.07 2.9c-0.07 0.76 -0.2 1.52-0.34 2.28a19 19 0 0 0-0.44 2.52c-0.032 0.467 0.18 0.917 0.56 1.19a9.82 9.82 0 0 0 2.43 1.41 0.46 0.46 0 0 0 0.26 0c0.31-0.09 0.62 -0.21 0.93 -0.27 0.31 -0.06 0.88 -0.15 1.39-0.22-0.15-0.14-0.25-0.26-0.37-0.35-0.66-0.49-1.33-1-2-1.48a10.8 10.8 0 0 1-1-0.81 0.31 0.31 0 0 1-0.06-0.29 3.54 3.54 0 0 0 0.49-1.79 4.1 4.1 0 0 1 0.1-0.58zM14.44 25l0.07-0.08c0.61 0.34 0.93 1 1.42 1.48a1.4 1.4 0 0 0 0.2-0.26 3.23 3.23 0 0 0 0.22-1.89 0.44 0.44 0 0 0-0.22-0.27 2 2 0 0 0-1.57-0.3c-0.17 0.05 -0.36 0-0.53 0.07 a1.1 1.1 0 0 1-1-0.26 0.9 0.9 0 0 1-0.33-0.4c0-0.08 0.14 -0.23 0.21 -0.34v-0.07a7.61 7.61 0 0 0-0.79 0.31 1.39 1.39 0 0 0-0.57 0.43 5.93 5.93 0 0 0-0.8 2.12 0.61 0.61 0 0 0 0 0.43 2 2 0 0 0 1.43 0.83 0.38 0.38 0 0 0 0.43-0.29c0.12-0.177 0.25 -0.348 0.39 -0.51l0.1 0.05 c0 0.27 0 0.54-0.08 0.81 a6.4 6.4 0 0 0 0.13 2.82 1.25 1.25 0 0 0 1.55 0.93 c0.3-0.07 0.6 -0.15 0.91 -0.21a2 2 0 0 1 0.42 0v0.09l-0.43 0.4 h0.15a7.78 7.78 0 0 0 4.41-2.11 0.3 0.3 0 0 0 0.05-0.26c0-0.09-0.14-0.21-0.23-0.22a7.53 7.53 0 0 0-0.83-0.11v-0.12l0.51-0.1c0-0.25 0-0.24-0.18-0.3a1.11 1.11 0 0 1-0.39-0.2 6.88 6.88 0 0 1-0.54-0.54 0.77 0.77 0 0 1-0.22-0.65c0-0.29 0-0.59 0.05 -0.88a0.46 0.46 0 0 0-0.42-0.52 3.24 3.24 0 0 0-0.88 0c-0.43 0.06 -0.51 0.17 -0.57 0.6 -0.06 0.43 -0.09 0.79 -0.13 1.18-0.06 0.57 0.28 0.84 0.82 0.67 a0.86 0.86 0 0 1 1.16 0.68 1.2 1.2 0 0 1-0.2 0c-0.24-0.07-0.48-0.17-0.73-0.23a2 2 0 0 0-2 0.31 1.5 1.5 0 0 1-0.4 0.2 l-0.07-0.11 0.37 -0.3c0.08-0.06 0.21 -0.09 0.25 -0.17a1.35 1.35 0 0 0 0.12-1.25 3.72 3.72 0 0 0-1-1.23l-0.26-0.23zm3-13.35l-0.1-0.11c0.16-0.2 0.3 -0.41 0.48 -0.6a0.5 0.5 0 0 1 0.31-0.14c0.65 0 0.65 0 0.81-0.68 0-0.09 0-0.18 0.05 -0.28a2.22 2.22 0 0 0-0.51-2.09A2.83 2.83 0 0 0 17 7a1.69 1.69 0 0 0-1.85 0.61 A2.62 2.62 0 0 0 14.6 9a0.34 0.34 0 0 1-0.19 0.34 c-0.24 0.12 -0.47 0.75 -0.33 0.92 0.24 0.342 0.364 0.752 0.35 1.17a1.55 1.55 0 0 0 0.62 1.26c0.42 0.3 0.83 0.6 1.25 0.88 h0.25a5.2 5.2 0 0 0 1.62-1.58c0.16-0.23 0.29 -0.48 0.44 -0.72a0.82 0.82 0 0 0-1.13 0.41 l-0.04-0.03zM19.82 28v0.09c0.88 0.08 1.76 0.2 2.65 0.23 0.72 0 1.44-0.07 2.16-0.08a3.13 3.13 0 0 0 1.92-0.67 0.74 0.74 0 0 0 0.23-0.71h-0.55a0.49 0.49 0 0 1 0.53-0.33 1.27 1.27 0 0 0 1-0.41c0.24-0.25 0.27 -0.37 0-0.59a1 1 0 0 0-0.5-0.25 9.32 9.32 0 0 0-1.67 0 4.89 4.89 0 0 0-2.61 0.93 8.2 8.2 0 0 1-3 1.69c-0.06 0.04 -0.11 0.1 -0.16 0.1 zm3.08-4.22a2.66 2.66 0 0 1 0.64 1.84c0.48-0.13 0.92 -0.28 1.37-0.38 0.45 -0.1 0.9 -0.14 1.36-0.21a3.77 3.77 0 0 0-3.37-1.21v-0.04zm-11.23-2a6.74 6.74 0 0 0-0.67 2.5 2.41 2.41 0 0 1 2-1.75l-0.05-0.08-1.28-0.67zm6.59 1.67a1.93 1.93 0 0 1-1.25 0.14 2.28 2.28 0 0 0-0.45 0 1.19 1.19 0 0 0-0.29 0.12 c0.09 0.07 0.18 0.19 0.28 0.19 h0.94a0.78 0.78 0 0 0 0.77-0.39v-0.06zM16.54 25l0.94-0.72h-0.94V25z" fill="#FFF"/>
  <path d="M17.35 25.65c0.04 0.178 0.07 0.359 0.09 0.54 l-0.13 0.13 c-0.04 0.04 -0.11-0.08-0.11-0.13a4.61 4.61 0 0 1 0-0.52l0.15-0.02z" fill="#FFF"/>
</svg>
