<?xml version="1.0" ?>
<svg xmlns="http://www.w3.org/2000/svg" width="50" height="34" viewBox="0 0 50 34">
  <path d="M28.19 14.76a2 2 0 0 0-0.15 0.45 10.21 10.21 0 0 0 0.19 4.15c0.68 2.18 1.25 4.39 1.87 6.6 0.2 0.72 0 1-0.76 1h-1c-0.55 0-0.75 0.26 -0.76 0.81 v4.2a3.48 3.48 0 0 1-0.14 1 1.27 1.27 0 0 1-1.59 0.94 1.23 1.23 0 0 1-1.08-1.25c0-1.69 0-3.38-0.07-5.07a1.37 1.37 0 0 0-0.16-0.52 0.35 0.35 0 0 0-0.3 0 0.94 0.94 0 0 0-0.18 0.47 v4.29a4.34 4.34 0 0 1-0.37 1.54c-0.23 0.55 -0.8 0.7 -1.52 0.55 a1.15 1.15 0 0 1-0.9-1.08c-0.05-1.57-0.08-3.15-0.1-4.72 0-1-0.12-1.12-1.07-1.13h-0.63c-0.76 0-1-0.26-0.79-1 0.23-0.93 0.49 -1.85 0.73 -2.77 0.47 -1.76 1-3.49 1.37-5.28a18.6 18.6 0 0 0 0-3.42h-0.17c-0.07 0.06 -0.16 0.1 -0.2 0.17 a10.8 10.8 0 0 0-1.09 3.32c-0.08 0.41 -0.13 0.83 -0.22 1.24a1.27 1.27 0 0 1-1.27 1 1.13 1.13 0 0 1-1.13-1.35c0.159-1.188 0.4 -2.365 0.72 -3.52a14.24 14.24 0 0 1 3.32-5.67 4.12 4.12 0 0 1 2.61-1.36 7 7 0 0 1 2.94 0.21 A4.24 4.24 0 0 1 28.2 10a14.32 14.32 0 0 1 2.9 4.86 11.88 11.88 0 0 1 0.83 4.14 1.09 1.09 0 0 1-0.6 1.08c-0.77 0.39 -1.55-0.12-1.77-1.07-0.26-1.17-0.59-2.32-0.91-3.47a4.12 4.12 0 0 0-0.34-0.74l-0.12-0.04zM45.49 16.41v14.74a5.51 5.51 0 0 1-0.21 1.57c-0.35 1-0.77 1.3-1.76 1.22-0.72-0.06-1.1-0.46-1.31-1.47a8.38 8.38 0 0 1-0.21-1.69v-6.11c0-0.47-0.11-0.76-0.6-0.76s-0.61 0.3 -0.61 0.78 v6.94a3.9 3.9 0 0 1-0.48 1.62 1.37 1.37 0 0 1-1.65 0.63 1.35 1.35 0 0 1-1.1-1.14 8.94 8.94 0 0 1-0.24-1.86V15.71a2.92 2.92 0 0 0-1 2 23.63 23.63 0 0 0-0.45 2.4c-0.046 0.32 -0.14 0.63 -0.28 0.92 a1.13 1.13 0 0 1-1.27 0.62 1.15 1.15 0 0 1-1-1 7.9 7.9 0 0 1 0.38-3.86 13.6 13.6 0 0 1 2.78-4.83c1.72-1.92 3.88-2.18 6.2-2 2.32 0.18 3.74 1.82 4.93 3.75a13.86 13.86 0 0 1 1.87 5.61 4.37 4.37 0 0 1 0 1.53 1.22 1.22 0 0 1-2.32-0.13c-0.26-0.94-0.42-1.91-0.7-2.83a11.57 11.57 0 0 0-0.7-1.57l-0.27 0.09 zM28.2 4a3.86 3.86 0 1 1-7.72-0.1 3.86 3.86 0 0 1 7.72 0.1 zM10.54 16.37c-0.057 0.132 -0.1 0.27 -0.13 0.41 a9.38 9.38 0 0 0 0.17 3.8c0.63 2 1.15 4 1.71 6.05 0.19 0.66 0 0.93-0.69 0.94 h-0.89c-0.5 0-0.69 0.24 -0.7 0.75 v3.85a3.23 3.23 0 0 1-0.14 0.87 1.16 1.16 0 0 1-1.45 0.86 1.13 1.13 0 0 1-1-1.14c0-1.55 0-3.1-0.07-4.65a1.06 1.06 0 0 0-0.14-0.48 0.31 0.31 0 0 0-0.28 0 0.84 0.84 0 0 0-0.16 0.43 v3.93a4 4 0 0 1-0.33 1.41c-0.22 0.5 -0.74 0.64 -1.4 0.51 a1.06 1.06 0 0 1-0.82-1c0-1.45-0.08-2.89-0.09-4.33 0-0.89-0.11-1-1-1h-0.59c-0.69 0-0.89-0.25-0.72-0.93 0.21 -0.85 0.45 -1.69 0.67 -2.54 0.43 -1.61 1-3.2 1.25-4.83a17.43 17.43 0 0 0 0-3.15h-0.16c-0.06 0.05 -0.15 0.09 -0.18 0.16 a9.9 9.9 0 0 0-1 3c-0.06 0.37 -0.11 0.76 -0.2 1.13a1.15 1.15 0 0 1-1.2 0.91 1 1 0 0 1-1-1.17 23.43 23.43 0 0 1 0.67-3.23 13.07 13.07 0 0 1 3-5.19 3.77 3.77 0 0 1 2.39-1.25 6.44 6.44 0 0 1 2.69 0.19 3.86 3.86 0 0 1 1.8 1.32 12.92 12.92 0 0 1 2.66 4.46 10.8 10.8 0 0 1 0.79 3.76 1 1 0 0 1-0.55 1c-0.7 0.36 -1.42-0.11-1.62-1-0.24-1.07-0.54-2.13-0.83-3.18a5.93 5.93 0 0 0-0.31-0.68l-0.15 0.01 zM10.56 6.46a3.54 3.54 0 1 1-7.08-0.1A3.44 3.44 0 0 1 7 2.84a3.47 3.47 0 0 1 3.56 3.62zM41.31 9.56a3.66 3.66 0 0 1-3.73-3.67 3.71 3.71 0 1 1 7.41 0 3.64 3.64 0 0 1-3.68 3.67z" fill="#FFF"/>
</svg>
