<?xml version="1.0" ?>
<svg xmlns="http://www.w3.org/2000/svg" width="32" height="36" viewBox="0 0 32 36">
  <path d="M8.77 22a10.57 10.57 0 0 0 14.1 0v4.48h3.25c0.28 0 0.3 0 0.3-0.31v-4.45c0.28 0.13 0.52 0.22 0.74 0.35 a6.94 6.94 0 0 1 3.11 3.58 7.9 7.9 0 0 1 0.41 1.66c0.15 1 0.26 2 0.38 3 0.1 0.75 0.19 1.51 0.29 2.26 0.1 0.75 0.18 1.51 0.28 2.27 0 0.1 0 0.2 0.06 0.32h-4.96c-0.33 0-0.33 0-0.33-0.34V28.5c0-0.39 0-0.39-0.39-0.39H5.61c-0.35 0-0.36 0-0.36 0.36 v6.34c0 0.35 0 0.35-0.35 0.35 H0.25C0 35.23 0 35.2 0 35c0.1-0.65 0.14 -1.3 0.22 -2 0.11-0.85 0.24 -1.7 0.35 -2.55 0.08 -0.62 0.13 -1.24 0.21 -1.86a10 10 0 0 1 0.92-3.68A7.25 7.25 0 0 1 5 21.8c0.17-0.09 0.23 0 0.23 0.2 v4.22c0 0.17 0.07 0.24 0.24 0.24h3.06c0.2 0 0.23-0.08 0.23 -0.25v-3.88l0.01-0.33zM5.28 10.58a2.91 2.91 0 0 1 0.26-1.38A3.52 3.52 0 0 1 7 7.55a0.35 0.35 0 0 0 0.16-0.23 8.78 8.78 0 0 1 0.9-2.64 8.61 8.61 0 0 1 4-3.82 12.58 12.58 0 0 1 1.83-0.62A7.76 7.76 0 0 1 17 0.08a8.51 8.51 0 0 1 3.47 1.23 8.83 8.83 0 0 1 3.25 3.58c0.34 0.643 0.58 1.334 0.71 2.05 0.014 0.146 0.044 0.29 0.09 0.43a0.4 0.4 0 0 0 0.16 0.18 3.52 3.52 0 0 1 1.59 2c0.08 0.301 0.13 0.61 0.15 0.92 0 0.18-0.1 0.16 -0.21 0.16 H5.28v-0.05zM15.71 7a1.76 1.76 0 0 0 0.37-3.5 1.76 1.76 0 0 0-2 1.6A1.74 1.74 0 0 0 15.71 7zM15.85 12.38h6.74c0.22 0 0.3 0.06 0.29 0.28 v1.58a6.94 6.94 0 0 1-4 6.22 6.63 6.63 0 0 1-4 0.63 7 7 0 0 1-5.19-3.58 5.24 5.24 0 0 1-0.75-2.2c-0.08-0.91-0.08-1.83-0.12-2.75 0-0.18 0.11 -0.18 0.24 -0.18h6.86-0.07z" fill="#FFF"/>
  <path d="M22.87 31.75v3.33c0 0.17-0.1 0.17 -0.22 0.17 H9.2a0.75 0.75 0 0 1-0.26 0c-0.06 0-0.16-0.11-0.16-0.17v-3.33h14.09z" fill="#FFF"/>
</svg>
