<?xml version="1.0" ?>
<svg xmlns="http://www.w3.org/2000/svg" width="23" height="36" viewBox="0 0 23 36">
  <path d="M16.65 9.07c0.18 0.18 0.34 0.32 0.46 0.49 0.31 0.405 0.528 0.873 0.64 1.37a5.05 5.05 0 0 1 0.11 1.67 3.41 3.41 0 0 1-0.69 1.71c-0.34 0.47 -0.71 0.92 -1 1.4a1.76 1.76 0 0 0-0.31 1.18c0 0.486 0.291 0.924 0.74 1.11 0.284 0.093 0.587 0.11 0.88 0.05a2 2 0 0 0 1.45-1.18 2 2 0 0 0 0.11-0.41l0.06-0.22h0.06c0.14 0.33 0.3 0.66 0.42 1a5.13 5.13 0 0 1 0.27 2.09 11.58 11.58 0 0 1-0.26 1.6 8.35 8.35 0 0 1-1.65 3.36 7.67 7.67 0 0 1-3.06 2.3c-0.26 0.11 -0.53 0.19 -0.8 0.28 a0.5 0.5 0 0 1-0.14 0 4.6 4.6 0 0 0 2.38-4.6c-0.1 0.14 -0.2 0.29 -0.31 0.42 a1.4 1.4 0 0 1-1.1 0.62 1.16 1.16 0 0 1-1-0.83 4.18 4.18 0 0 1-0.05-1.82 6.31 6.31 0 0 1 0.43-1.21 4.72 4.72 0 0 0 0.36-2.35 0.35 0.35 0 0 0 0-0.08l-0.09 0.11 A6.08 6.08 0 0 1 14 18a0.85 0.85 0 0 1-1.4 0 3.19 3.19 0 0 1-0.6-1.22 12.21 12.21 0 0 1-0.39-1.67 4.9 4.9 0 0 1 0.12-2.24l0.06-0.16v-0.07a3.48 3.48 0 0 0-0.29 0.25 2.93 2.93 0 0 0-0.72 1.34c-0.11 0.49 -0.18 1-0.28 1.47a3 3 0 0 1-0.33 1 0.8 0.8 0 0 1-1.44 0 4.65 4.65 0 0 1-0.21-0.7l-0.08-0.22h-0.06a4.4 4.4 0 0 0-0.19 0.76 5.49 5.49 0 0 0 0 1.23c0.086 0.492 0.21 0.977 0.37 1.45a4.34 4.34 0 0 1 0.3 1.78 1.64 1.64 0 0 1-1.17 1.44A1.58 1.58 0 0 1 6.08 22a0.51 0.51 0 0 0-0.15-0.11 6.55 6.55 0 0 0 2.58 5l-0.35-0.08a7.31 7.31 0 0 1-5-4.7 12.84 12.84 0 0 1-0.49-1.8 13.05 13.05 0 0 1-0.25-3.12c0-0.57 0.12 -1.14 0.18 -1.71h0.07l0.14 0.28 c0.237 0.527 0.66 0.948 1.19 1.18a1.67 1.67 0 0 0 1.88-0.43 2.36 2.36 0 0 0 0.62-1.33 9.48 9.48 0 0 0 0-1.54 4.4 4.4 0 0 0-0.5-1.58c-0.26-0.5-0.49-1.014-0.69-1.54a3.44 3.44 0 0 1-0.18-1.75 2.37 2.37 0 0 1 0.77-1.45L6 7.3v0.21A1.7 1.7 0 0 0 7.11 9.2a2.22 2.22 0 0 0 1.36 0 2.76 2.76 0 0 0 1.87-1.64 3 3 0 0 0 0.23-1.9 4.84 4.84 0 0 0-0.69-1.5c-0.22-0.36-0.43-0.73-0.61-1.11A1.74 1.74 0 0 1 9.19 2a2.77 2.77 0 0 1 0.93-1.61 5.43 5.43 0 0 1 0.57-0.39c-0.07 0.32 -0.14 0.59 -0.19 0.86 a1.73 1.73 0 0 0 0.58 1.77c0.5 0.42 1 0.77 1.56 1.16a4.6 4.6 0 0 1 1.47 1.58c0.192 0.36 0.298 0.761 0.31 1.17 0.002 0.458-0.025 0.915 -0.08 1.37a7.42 7.42 0 0 1-0.23 0.92 3.88 3.88 0 0 0-0.11 1.56c0.056 0.425 0.34 0.786 0.74 0.94 a1.23 1.23 0 0 0 1.49-0.22 1.75 1.75 0 0 0 0.45-1.79 0.49 0.49 0 0 1 0-0.1s-0.04-0.06-0.03-0.15z" fill="#FFF"/>
  <path d="M16 30.88l0.62 0.2 1.31 0.4 1.48 0.43 1.49 0.46 c0.24 0.07 0.48 0.13 0.71 0.22 0.466 0.226 0.708 0.748 0.58 1.25a3.22 3.22 0 0 1-0.36 0.94 1.13 1.13 0 0 1-1.17 0.37 c-0.49-0.17-1-0.29-1.48-0.44l-1.49-0.46-1.5-0.44-1.48-0.46-1.48-0.43c-0.57-0.17-1.15-0.34-1.72-0.53a1.2 1.2 0 0 0-0.81 0c-0.34 0.12 -0.69 0.22 -1 0.32l-1.27 0.38 -1.25 0.38 -1.28 0.39 -1.24 0.37 -1.3 0.39 -1.27 0.38 c-0.17 0-0.34 0.09 -0.5 0.15 a1.1 1.1 0 0 1-1.39-0.78 2.85 2.85 0 0 0-0.14-0.49 1.13 1.13 0 0 1 0.8-1.37c0.69-0.17 1.37-0.4 2-0.61l1.95-0.6 1.26-0.36a1.25 1.25 0 0 0 0.18-0.09l-0.79-0.24-1.28-0.39L3 29.85l-1.28-0.39-1-0.3A1.09 1.09 0 0 1 0 27.88c0.08-0.282 0.177 -0.56 0.29 -0.83a1.1 1.1 0 0 1 1.33-0.46c0.41 0.14 0.83 0.25 1.25 0.38 l1.27 0.38 1.24 0.37 1 0.3 1.27 0.39 1.3 0.4 1 0.29 1 0.31a0.26 0.26 0 0 0 0.13 0L12.6 29l1-0.3 1.25-0.38 1.27-0.38 1.27-0.38 1.24-0.37c0.43-0.13 0.86 -0.28 1.3-0.39a3.2 3.2 0 0 1 1.21-0.24c0.423 0.062 0.773 0.361 0.9 0.77 0.06 0.19 0.1 0.4 0.16 0.59 a1.09 1.09 0 0 1-0.64 1.26c-0.54 0.18 -1.08 0.33 -1.62 0.49 l-1.48 0.45 -1.27 0.37 -1.19 0.35 v0.04z" fill="#FFF"/>
</svg>
