<?xml version="1.0" ?>
<svg xmlns="http://www.w3.org/2000/svg" width="29" height="36" viewBox="0 0 29 36">
  <path d="M3.36 23.54l0.08-0.12c0.63-1.45 1.27-2.89 1.89-4.34 0.25 -0.58 0.47 -1.17 0.73 -1.75a1.65 1.65 0 0 1 1-1 1.62 1.62 0 0 1 0.53-0.11h13.49a2.25 2.25 0 0 1 1 0.18c0.413 0.205 0.729 0.564 0.88 1 0.3 0.73 0.56 1.46 0.86 2.19 0.45 1.09 0.91 2.18 1.37 3.27 0.068 0.185 0.148 0.366 0.24 0.54a1.1 1.1 0 0 0 0.09 0.14 h0.05v-0.3a0.29 0.29 0 0 1 0.28-0.31l1.15-0.18 1-0.12a0.42 0.42 0 0 1 0.52 0.24 c0.1 0.19 0.23 0.36 0.33 0.55 a0.37 0.37 0 0 1-0.2 0.58 l-1.9 0.65 -0.46 0.16 a0.14 0.14 0 0 0-0.09 0.22 6.35 6.35 0 0 1 0.32 3 7.14 7.14 0 0 1-1.26 3.54 7.18 7.18 0 0 1-0.88 0.95 1.71 1.71 0 0 0-0.54 0.73 1.12 1.12 0 0 0 0 0.32 8.27 8.27 0 0 1-0.08 0.87 0.85 0.85 0 0 1-0.75 0.64 5.65 5.65 0 0 1-1 0.07 1.22 1.22 0 0 1-0.46-0.09 0.89 0.89 0 0 1-0.58-0.85v-0.67c0-0.22-0.08-0.37-0.11-0.55-0.03-0.18-0.11-0.15-0.23-0.15h-12c-0.3 0-0.34 0-0.37 0.31 -0.03 0.31 -0.05 0.7 -0.07 1a0.91 0.91 0 0 1-0.58 0.86 1 1 0 0 1-0.28 0.08 A2.61 2.61 0 0 1 5.6 35a1 1 0 0 1-0.46-0.78 2.16 2.16 0 0 1 0-0.44 1.22 1.22 0 0 0-0.53-1.15 5 5 0 0 1-1.12-1.27 7.49 7.49 0 0 1-0.76-1.71 8.39 8.39 0 0 1-0.33-3.07 5.09 5.09 0 0 1 0.32-1.48 2.18 2.18 0 0 0 0.06-0.22l-0.78-0.3L0.27 24a0.37 0.37 0 0 1-0.21-0.55c0.13-0.21 0.25 -0.44 0.38 -0.65a0.42 0.42 0 0 1 0.44-0.18c0.29 0 0.58 0.09 0.87 0.12 0.29 0.03 0.64 0.06 1 0.09 0.133 0.005 0.265 0.032 0.39 0.08a0.46 0.46 0 0 1 0.19 0.26 1 1 0 0 1 0 0.35l0.03 0.02 zm12.05 0.21 a3.4 3.4 0 0 1 0.36-1.43 2.94 2.94 0 0 1 2.62-1.6 2.84 2.84 0 0 1 2.08 0.82 2.7 2.7 0 0 1 0.86 1.58c0.035 0.272 0.055 0.546 0.06 0.82 0 0.11 0 0.16 0.15 0.16H22.68c0.26 0 0.41-0.15 0.41 -0.29a1.54 1.54 0 0 0 0-0.48c-0.08-0.27-0.2-0.53-0.3-0.8l-1.2-3.32A2 2 0 0 0 19.93 18c-1.26 0-2.51-0.06-3.77-0.05-2.34 0-4.67 0-7 0.06a1.84 1.84 0 0 0-1.69 1.15c-0.38 0.82 -0.71 1.67-1 2.51-0.23 0.55 -0.43 1.12-0.64 1.68a0.53 0.53 0 0 0 0.19 0.67 0.76 0.76 0 0 0 0.36 0.11 c0.32 0 0.64 0 1-0.06l2-0.14 2.62-0.12h3.19l0.22-0.06zM4 27.75v0.66a0.59 0.59 0 0 0 0.45 0.6 c0.275 0.078 0.556 0.132 0.84 0.16 0.53 0.05 1.06 0.1 1.59 0.1 s0.81-0.07 1.22-0.11a0.56 0.56 0 0 0 0.47-0.64 0.94 0.94 0 0 0-0.57-0.63c-0.76-0.32-1.52-0.63-2.28-1a2.23 2.23 0 0 0-1.3-0.15 0.45 0.45 0 0 0-0.38 0.31 c-0.04 0.25 -0.04 0.48 -0.04 0.7 zm18.26 1.48a6 6 0 0 0 2.13-0.2 0.67 0.67 0 0 0 0.51-0.53v-1.2a0.56 0.56 0 0 0-0.4-0.52 1.39 1.39 0 0 0-0.9 0l-2.82 1.12a0.68 0.68 0 0 0 0.22 1.33c0.37 0.02 0.78 0 1.22 0h0.04zm-3.8-7.62h-0.32a3.52 3.52 0 0 0-0.43 0.13 2.08 2.08 0 0 0-1.35 1.81c0 0.22 0 0.23 0.23 0.23l2.23 0.09 a1.81 1.81 0 0 1 0.23 0l1.35 0.1 c0.09 0 0.14 0 0.13-0.14-0.01-0.14 0-0.48-0.06-0.71a2.07 2.07 0 0 0-2.05-1.51h0.04zM14.46 8.31h-7a1.2 1.2 0 0 1-0.83-0.26 0.65 0.65 0 0 1-0.17-0.72 0.68 0.68 0 0 1 0.64-0.56h0.14c0.38 0 0.38 0 0.46-0.39a4.6 4.6 0 0 1 1-2 3.78 3.78 0 0 1 1.95-1.17 6.12 6.12 0 0 1 1.9-0.2c0.18 0 0.23-0.06 0.23 -0.23V0.26c0-0.16 0-0.22 0.21 -0.22h3c0.17 0 0.21 0.06 0.21 0.22 v2.47c0 0.24 0 0.26 0.25 0.27 0.441 0.005 0.882 0.035 1.32 0.09 a4 4 0 0 1 2.65 1.48c0.312 0.431 0.543 0.916 0.68 1.43a2.7 2.7 0 0 1 0.08 0.39 0.4 0.4 0 0 0 0.45 0.39 0.7 0.7 0 0 1 0.68 0.3 0.78 0.78 0 0 1 0.07 0.83 0.76 0.76 0 0 1-0.71 0.41 h-7.21v-0.01z" fill="#FFF"/>
</svg>
