<?xml version="1.0" ?>
<svg xmlns="http://www.w3.org/2000/svg" width="32" height="32" viewBox="0 0 32 32">
  <path d="M9.93 17.82l0.15 0.13 5.65 6.15a0.25 0.25 0 0 1 0.06 0.28 A2 2 0 0 0 17.08 27a2 2 0 0 0 1.54-0.12c0.12-0.06 0.16 0 0.21 0.08 a6.28 6.28 0 0 0 3.77 3.78A5.85 5.85 0 0 0 26 31a6.18 6.18 0 0 0 4.52-3.58 5.89 5.89 0 0 0 0.48-3.6 6.3 6.3 0 0 0-6.88-5.25 5.64 5.64 0 0 0-1.64 0.41 c-0.13 0.05 -0.19 0-0.26-0.09l-1.34-2.23a0.84 0.84 0 0 1-0.11-0.64l0.09-0.35a0.38 0.38 0 0 1 0.25-0.3c0.62-0.23 1.24-0.47 1.87-0.69 0.3 -0.11 0.62 -0.16 0.93 -0.26a0.54 0.54 0 0 0 0.4-0.63 5.16 5.16 0 0 0-0.15-0.64 0.51 0.51 0 0 0-0.57-0.41c-0.18 0-0.23-0.07-0.26-0.23a9 9 0 0 0-0.86-2.46 13.26 13.26 0 0 0-3.6-4.34 2.74 2.74 0 0 0-3.13-0.16 1.64 1.64 0 0 0-0.75 1.81 0.33 0.33 0 0 1-0.16 0.41 c-2.09 1.35-4.08 2.85-6 4.38-0.25 0.19 -0.52 0.37 -0.77 0.56 a1.19 1.19 0 0 0-0.56 1.1c0 0.13-0.07 0.13 -0.17 0.14 a1.93 1.93 0 0 0-1.59 1.4 1.81 1.81 0 0 0 1 2.07 4 4 0 0 0 0.83 0.2 c0.15 0 0.24-0.07 0.3 -0.2a0.71 0.71 0 0 0 0-0.59c-0.07-0.15-0.21-0.17-0.36-0.19a0.9 0.9 0 0 1-0.81-0.58 0.85 0.85 0 0 1 0.54-1.06 1.73 1.73 0 0 1 0.42-0.05h1.43c0.14 0 0.16 0.05 0.13 0.18 a34.64 34.64 0 0 1-1 3.44c-0.08 0.23 -0.09 0.24 -0.32 0.18 a6.11 6.11 0 0 0-2.5-0.13 6.13 6.13 0 0 0-3.63 1.89 6.2 6.2 0 0 0-1.66 3.18 6.29 6.29 0 0 0 3.6 6.89 5.93 5.93 0 0 0 3.39 0.5 6.17 6.17 0 0 0 5.14-4.19 5.81 5.81 0 0 0 0.2-3.39 6.21 6.21 0 0 0-2.85-4c-0.2-0.13-0.2-0.12-0.12-0.35 0.14 -0.41 0.28 -0.82 0.42 -1.24l0.04-0.09zM6.25 29.74a4.26 4.26 0 0 1-1.83-0.37 4.78 4.78 0 0 1-3-4.09 4.57 4.57 0 0 1 1.17-3.62 4.77 4.77 0 0 1 4.79-1.58c0.2 0 0.22 0.06 0.14 0.24 -0.08 0.18 -0.22 0.56 -0.35 0.83 -0.53 1.12-1.07 2.24-1.6 3.36a1 1 0 0 0-0.09 0.48 c0.03 0.3 0.261 0.54 0.56 0.58 a0.73 0.73 0 0 0 0.75-0.39 43.79 43.79 0 0 0 2-4.26c0.09-0.23 0.1 -0.24 0.3 -0.1a4.89 4.89 0 0 1-2.84 8.9v0.02zM23 20.31l0.13-0.08a4.8 4.8 0 0 1 3.44 0.08 4.86 4.86 0 0 1 2.84 6 4.74 4.74 0 0 1-3.69 3.33 4.65 4.65 0 0 1-3.26-0.46 4.86 4.86 0 0 1-2.26-2.5c-0.07-0.16 0-0.2 0.13 -0.23l0.43-0.09 1.91-0.43 2.24-0.49a1.21 1.21 0 0 0 0.42-0.12 0.94 0.94 0 0 0 0.47-1 0.93 0.93 0 0 0-0.7-0.78 0.45 0.45 0 0 1-0.23-0.18c-0.39-0.64-0.77-1.28-1.16-1.92L23 20.31zM10.12 14l0.14-0.11L16 9.73c0.12-0.09 0.18 -0.06 0.26 0.05l2.1 2.9c0.13 0.18 0.13 0.18 0 0.34l-3.27 2.78a0.47 0.47 0 0 1-0.32 0.12 H10.46c0.07-0.3 0.13 -0.58 0.2 -0.86a0.77 0.77 0 0 0-0.51-1l-0.03-0.06zm0.93 3.16h3.3c0.1 0 0.13 0 0.16 0.14 0.058 0.26 0.15 0.512 0.27 0.75 0.58 1 1.18 1.9 1.78 2.84l1.09 1.71a0.32 0.32 0 0 1-0.22 0.48 c-0.202 0.039 -0.4 0.1 -0.59 0.18 a0.23 0.23 0 0 1-0.32-0.06l-5.34-5.83-0.13-0.21zm12.81 6.39h-0.1l-1.45-0.11a0.24 0.24 0 0 1-0.15-0.11l-1-1.6c-0.07-0.11-0.08-0.18 0-0.27 0.27 -0.23 0.53 -0.47 0.8 -0.7 0.27 -0.23 0.17 -0.12 0.27 0.05l1.54 2.54 0.09 0.2zm-3.5-5.74l0.07 0.06 0.91 1.49c0.06 0.11 0 0.15-0.07 0.21 l-0.87 0.69 -0.15 0.13 c-0.15-0.23-0.28-0.44-0.41-0.65a0.23 0.23 0 0 1 0-0.16l0.37-1.3 0.15 -0.47zm-3.71 7.76c0.23 0 0.42 0 0.59 0.12 a0.52 0.52 0 0 0 0.67 0 0.62 0.62 0 0 1 0.4-0.11 0.3 0.3 0 0 1 0.2 0.08 c0.06 0.09 0 0.18-0.07 0.25 a1.17 1.17 0 0 1-1.79-0.38v0.04zM19 18.28h-0.1l-0.47-0.78a0.12 0.12 0 0 1 0-0.11 0.81 0.81 0 0 1 0.66-0.29c0.14 0 0.17 0.07 0.13 0.19 l-0.14 0.49 -0.08 0.5 zm5.23 6.84v0.06l-2 0.43c0.1-0.22 0.17 -0.36 0.42 -0.37 0.48 0 1-0.09 1.43-0.13l0.15 0.01 zM22.47 24H24s0.06 0 0.09 0.07 -0.07 0.05 -0.1 0.06 l-1.14 0.12 c-0.33 0.05 -0.36 0.03 -0.38-0.25zM11.8 2.63a2.58 2.58 0 0 0 2.58 2.57A2.63 2.63 0 0 0 17 2.57a2.58 2.58 0 1 0-5.16 0.06 h-0.04z" fill="#FFF"/>
</svg>
