<?xml version="1.0" ?>
<svg xmlns="http://www.w3.org/2000/svg" width="21" height="31" viewBox="0 0 21 31">
  <path d="M21 9.33a12.14 12.14 0 0 1-0.81 4.58 8.84 8.84 0 0 1-2.35 3.36 10.36 10.36 0 0 1-3.79 2.08 17.53 17.53 0 0 1-5.28 0.71 H6.25v9.81a0.66 0.66 0 0 1-0.15 0.43 1.08 1.08 0 0 1-0.51 0.31 5 5 0 0 1-0.95 0.19 13.2 13.2 0 0 1-1.52 0.07 13.26 13.26 0 0 1-1.52-0.07 5 5 0 0 1-1-0.19 1 1 0 0 1-0.5-0.31 0.69 0.69 0 0 1-0.1-0.43V2.23A2.22 2.22 0 0 1 0.58 0.56 2.12 2.12 0 0 1 2.11 0h7.25c0.727 0 1.42 0.027 2.08 0.08 0.793 0.077 1.58 0.197 2.36 0.36 a10.44 10.44 0 0 1 2.79 1A8.3 8.3 0 0 1 19 3.31a7.77 7.77 0 0 1 1.52 2.64A10.29 10.29 0 0 1 21 9.33zm-6.53 0.45 a5.52 5.52 0 0 0-0.57-2.66 3.94 3.94 0 0 0-1.4-1.54A4.64 4.64 0 0 0 10.79 5a13.34 13.34 0 0 0-1.89-0.13H6.25v10.38H9a6.78 6.78 0 0 0 2.51-0.4 4.29 4.29 0 0 0 1.65-1.13 4.88 4.88 0 0 0 1-1.73 7 7 0 0 0 0.35-2.21h-0.04z" fill="#FFF"/>
</svg>
