<?xml version="1.0" ?>
<svg xmlns="http://www.w3.org/2000/svg" width="32" height="31" viewBox="0 0 32 31">
  <path d="M6 23.17h-0.7c-0.06 0.31 -0.12 0.61 -0.19 0.91 -0.07 0.3 -0.15 0.69 -0.23 1-0.08 0.31 -0.09 0.46 -0.14 0.69 -0.05 0.23 -0.15 0.71 -0.23 1.07l-0.21 1c-0.07 0.35 -0.15 0.69 -0.22 1-0.07 0.31 -0.11 0.45 -0.14 0.68 a1.59 1.59 0 0 1-1 1.31 1.49 1.49 0 0 1-0.91 0 1.41 1.41 0 0 1-1-0.82A1.48 1.48 0 0 1 1 29.2c0.06-0.24 0.1 -0.48 0.15 -0.71 0.05 -0.23 0.16 -0.69 0.23 -1 0.07-0.31 0.1 -0.45 0.14 -0.67l0.24-1.06c0.07-0.32 0.13 -0.64 0.2 -1s0.15-0.7 0.23 -1c0-0.18 0.07 -0.35 0.1 -0.55H0.16C0 23.17 0 23.14 0 23c0-0.14 0.11 -0.59 0.17 -0.88 0.06 -0.29 0.09 -0.52 0.14 -0.77 0.05 -0.25 0.16 -0.76 0.23 -1.14l0.15-0.77c0.05-0.27 0.11 -0.54 0.16 -0.82l0.15-0.77c0.05-0.27 0.11 -0.54 0.16 -0.82l0.15-0.77c0.05-0.27 0.11 -0.54 0.17 -0.81 0.06 -0.27 0.09 -0.5 0.14 -0.75 0.05 -0.25 0.16 -0.78 0.23 -1.18 0.07 -0.4 0.15 -0.52 0.15 -0.77s0.15-0.75 0.22 -1.12c0.07-0.37 0.1 -0.5 0.14 -0.74l0.24-1.18c0.05-0.26 0.09 -0.52 0.14 -0.78a3.2 3.2 0 0 1 0.38-1.24c0.26-0.42 0.7 -0.696 1.19-0.75 0.55 0 1.11 0 1.66-0.05h2.95c0.264-0.01 0.529 0.027 0.78 0.11 0.296 0.137 0.526 0.385 0.64 0.69 0.52 1.1 1.05 2.19 1.57 3.29a0.23 0.23 0 0 0 0.24 0.14 H19a0.25 0.25 0 0 0 0.27-0.17c0.54-1.13 1.08-2.27 1.63-3.39a1.08 1.08 0 0 1 1-0.66c1.55 0 3.1-0.05 4.66 0 0.712 0 1.35 0.437 1.61 1.1 0.06 0.172 0.103 0.35 0.13 0.53 0.11 0.52 0.21 1 0.31 1.56s0.13 0.74 0.2 1.11c0.07 0.37 0.16 0.73 0.23 1.1 0.07 0.37 0.09 0.52 0.14 0.78 0.05 0.26 0.15 0.74 0.23 1.12 0.08 0.38 0.09 0.5 0.14 0.75 0.05 0.25 0.11 0.56 0.17 0.83 0.06 0.27 0.09 0.5 0.14 0.75 0.05 0.25 0.16 0.77 0.23 1.16l0.15 0.78 c0.07 0.37 0.15 0.75 0.23 1.13 0.08 0.38 0.09 0.52 0.14 0.77 0.05 0.25 0.15 0.76 0.23 1.14 0 0.21 0.09 0.43 0.13 0.65 0.04 0.22 0.09 0.53 0.14 0.79 0.05 0.26 0 0.19-0.17 0.19 h-2.37c0.07 0.37 0.15 0.73 0.22 1.08 0.07 0.35 0.09 0.51 0.14 0.76 0.05 0.25 0.16 0.79 0.23 1.18 0.07 0.39 0.09 0.5 0.14 0.74l0.24 1.2c0.05 0.26 0.09 0.53 0.14 0.79 0.05 0.26 0.05 0.28 0.07 0.43 a1.47 1.47 0 0 1-2.74 0.95 3.89 3.89 0 0 1-0.25-0.84c-0.09-0.4-0.16-0.81-0.24-1.21-0.08-0.4-0.09-0.54-0.14-0.81-0.05-0.27-0.15-0.75-0.23-1.12-0.08-0.37-0.09-0.49-0.14-0.74-0.05-0.25-0.16-0.8-0.23-1.2-0.05-0.24-0.1-0.49-0.14-0.74-0.04-0.25 0-0.27-0.07-0.4a0.15 0.15 0 0 0-0.11-0.08h-0.69c-0.09 0.41 -0.17 0.81 -0.26 1.21-0.09 0.4 -0.15 0.66 -0.22 1l-0.21 1c-0.07 0.34 -0.15 0.69 -0.23 1-0.08 0.31 -0.13 0.64 -0.2 1s-0.15 0.7 -0.24 1.05a4.48 4.48 0 0 1-0.2 0.74 1.51 1.51 0 0 1-2.79-0.1 1.67 1.67 0 0 1 0-0.94c0.06-0.24 0.11 -0.49 0.17 -0.73 0.06 -0.24 0.15 -0.69 0.23 -1 0.08-0.31 0.13 -0.65 0.2 -1s0.16-0.7 0.23 -1.05l0.21-1c0.07-0.34 0.15 -0.67 0.23 -1v-0.12h-2.04c-0.17 0-0.19 0-0.16-0.2 0.07 -0.36 0.12 -0.72 0.18 -1.08 0.06 -0.36 0.11 -0.67 0.16 -1 0.05-0.33 0.1 -0.61 0.14 -0.91l0.18-1.1c0.05-0.32 0.09 -0.64 0.14 -1 0.05-0.36 0.11 -0.68 0.16 -1 0-0.15 0.05 -0.31 0.08 -0.47l0.24-1.57c0.05-0.34 0.09 -0.68 0.15 -1 0.06-0.32 0.15 -0.92 0.22 -1.37 0-0.2 0.05 -0.39 0.08 -0.58l-0.33 0.65 a1.24 1.24 0 0 1-0.55 0.68 1.68 1.68 0 0 1-0.53 0.15 c-1.73 0-3.47 0.05 -5.2 0.06 -1.08 0-2.15 0-3.22-0.06a1.09 1.09 0 0 1-1-0.69 7.68 7.68 0 0 0-0.43-0.79 0.65 0.65 0 0 0 0 0.14c0.07 0.46 0.16 0.92 0.23 1.37 0.07 0.45 0.09 0.67 0.14 1 0.05 0.33 0.15 0.92 0.23 1.38 0.08 0.46 0.09 0.65 0.14 1 0.05 0.35 0.11 0.69 0.17 1 0 0.16 0 0.32 0.07 0.48 0.08 0.52 0.17 1 0.24 1.55 0 0.34 0.09 0.68 0.15 1 0.06 0.32 0.11 0.65 0.16 1s0.09 0.62 0.14 0.93 c0.007 0.088 0.024 0.175 0.05 0.26 0 0.17 0 0.2-0.16 0.2 H9.1c0 0.14 0.02 0.27 0.06 0.39 0.11 0.56 0.21 1.12 0.32 1.67 0.11 0.55 0.2 1.1 0.31 1.66 0.11 0.56 0.21 1.1 0.31 1.65 0.076 0.35 0.133 0.704 0.17 1.06A1.52 1.52 0 0 1 9.15 31a1.54 1.54 0 0 1-1.78-1 5.42 5.42 0 0 1-0.14-0.7c-0.08-0.39-0.16-0.77-0.23-1.16l-0.15-0.78c-0.07-0.38-0.15-0.77-0.23-1.16-0.08-0.39-0.09-0.52-0.14-0.77-0.05-0.25-0.15-0.78-0.23-1.17-0.08-0.39-0.09-0.5-0.14-0.74-0.05-0.24-0.05-0.22-0.11-0.35zM12 3.05a3.12 3.12 0 0 1-6.23 0A3.07 3.07 0 0 1 8.86 0 3.06 3.06 0 0 1 12 3.05zM19.15 3.05a3.12 3.12 0 0 1 6.23 0 3.12 3.12 0 0 1-6.23 0z" fill="#FFF"/>
</svg>
