<?xml version="1.0" ?>
<svg xmlns="http://www.w3.org/2000/svg" width="35" height="36" viewBox="0 0 35 36">
  <path d="M10.33 4.76c1.08 0.15 2.16 0.28 3.23 0.46 a0.86 0.86 0 0 0 1-0.47c0.28-0.54 0.52 -1.1 0.82 -1.64a15.85 15.85 0 0 1 1.13-1.79A3.27 3.27 0 0 1 19.39 0a4.26 4.26 0 0 1 3.88 2.11 5.76 5.76 0 0 1 0.58 2.61c0 0.57 0 1.13 0.08 1.69 0.07 0.72 0.17 0.82 0.87 1 0.7 0.18 1.59 0.36 2.37 0.59 a5.42 5.42 0 0 1 2.55 1.41 3.83 3.83 0 0 1-0.14 5.42 6.81 6.81 0 0 1-3.59 2c-0.5 0.11 -0.64 0.22 -0.6 0.75 0.05 0.77 0.17 1.52 0.28 2.28a8 8 0 0 1 0 3 3.88 3.88 0 0 1-3.93 2.85 2.33 2.33 0 0 1-1.63-0.84c-0.46-0.53-0.84-1.13-1.29-1.67a9.6 9.6 0 0 0-1.36-1.48 2.85 2.85 0 0 0-3.22-0.25c-0.58 0.28 -1.11 0.66 -1.67 1a15.26 15.26 0 0 1-1.48 0.81 A2.23 2.23 0 0 1 8.86 23a3.84 3.84 0 0 1-2-3.1 4.33 4.33 0 0 1 0.45-2.13c0.4-0.81 0.86 -1.58 1.28-2.37 0.19 -0.36 0.38 -0.72 0.55 -1.09a0.57 0.57 0 0 0-0.26-0.79 6.45 6.45 0 0 1-2.77-3.65 3.81 3.81 0 0 1 3.56-5h0.65l0.01-0.11zm8.29 11.52a1.13 1.13 0 0 0 1.14-1.11 1.5 1.5 0 0 1 1.13-1.29 4.72 4.72 0 0 0 0.56-0.24 0.67 0.67 0 0 0 0.08-1.2 4.76 4.76 0 0 0-0.47-0.31 1.69 1.69 0 0 1-0.91-1.64 3.13 3.13 0 0 0-0.07-0.81 0.53 0.53 0 0 0-0.89-0.33 5.37 5.37 0 0 0-0.57 0.5 0.8 0.8 0 0 1-1.16 0.06 c-0.15-0.1-0.29-0.22-0.44-0.31a1 1 0 0 0-1.47 0.78 2.81 2.81 0 0 0 0 0.65c0.24 1.25 0.28 1.14-0.78 1.91a0.92 0.92 0 0 0-0.23 1.41c0.181 0.25 0.442 0.43 0.74 0.51 0.467 0.08 0.943 0.08 1.41 0a0.6 0.6 0 0 1 0.75 0.36 c0.057 0.157 0.13 0.308 0.22 0.45 0.201 0.348 0.56 0.576 0.96 0.61 zM30.11 28.06h3.59c1 0 1.39 0.5 1.12 1.46a8.58 8.58 0 0 1-0.52 1.26c-0.39 0.85 -0.77 1.71-1.21 2.53a3.94 3.94 0 0 1-3.69 2.31h-3.49c-0.86 0-1.13-0.27-1.06-1.13 0.11 -1.47 0.25 -2.94 0.38 -4.41l0.09-1a1 1 0 0 1 1.19-1.06l3.6 0.04 zm-1.42 5.84a1.41 1.41 0 0 0 1.42-0.79c0.42-0.87 0.81 -1.76 1.18-2.66 0.2 -0.47 0-0.7-0.49-0.71-0.49-0.01-1.18 0-1.76 0-0.36 0-0.48 0.13 -0.52 0.46 -0.12 1-0.26 2-0.4 3-0.12 0.64 -0.04 0.7 0.57 0.7 zM0 35.52A3.81 3.81 0 0 1 1.25 34a0.73 0.73 0 0 1 0.49-0.06 2.28 2.28 0 0 0 2.72-1.82c0.19-0.58 0.47 -1.13 0.7 -1.69 0.23 -0.56 0.07 -0.59-0.39-0.6H1.89c-0.85 0-1.18-0.41-1-1.23 0.18 -0.82 0.36 -1.32 0.52 -2a0.59 0.59 0 0 1 0.45-0.45A5.13 5.13 0 0 1 4.4 26c0.23 0.05 0.3 0.15 0.23 0.38 -0.11 0.39 -0.21 0.78 -0.31 1.18-0.1 0.4 0 0.48 0.36 0.48h2.74c0.143-0.01 0.287 -0.01 0.43 0a0.94 0.94 0 0 1 0.89 1.24 12.56 12.56 0 0 1-0.58 1.62c-0.2 0.51 -0.43 1-0.62 1.53a4.36 4.36 0 0 1-3.62 3c-1.27 0.18 -2.58 0.13 -3.87 0.19 l-0.05-0.1zM12.31 35.6a3.44 3.44 0 0 1 1.25-1.6c0.22-0.13 0.58 0 0.88-0.06 1 0 0.8 0.17 1.08-0.84 0.21 -0.76 0.41 -1.53 0.61 -2.3 0.2 -0.77-0.07-1-0.75-1-0.24 0-0.55 0.13 -0.71-0.19a1.67 1.67 0 0 1-0.18-1.29 0.4 0.4 0 0 1 0.29-0.19h3.09c0.228 0.017 0.452 0.06 0.67 0.13 a1.38 1.38 0 0 1 1 1.57c-0.07 0.461 -0.163 0.919 -0.28 1.37-0.29 1.1-0.59 2.2-0.88 3.3a1.36 1.36 0 0 1-1.52 1.18h-4.14l-0.41-0.08zM13.5 28.11c-0.1 0.42 -0.19 0.79 -0.29 1.15-0.53 2-1.07 4-1.59 6-0.07 0.28 -0.18 0.4 -0.48 0.39 H8.18l0.49-1.88c0.46-1.74 0.93 -3.47 1.38-5.22a0.46 0.46 0 0 1 0.54-0.41h2.52l0.39-0.03zM19.31 35.63l0.29-1.12 1.62-6.07c0.05-0.2 0.1 -0.36 0.36 -0.36h2.77a2 2 0 0 1 0.27 0.05 3.29 3.29 0 0 1-0.07 0.36 C24 30.73 23.36 33 22.78 35.2c-0.08 0.32 -0.22 0.45 -0.56 0.43 h-2.91z" fill="#FFF"/>
  <path d="M18.62 16.28a1.23 1.23 0 0 1-0.94-0.59 2.35 2.35 0 0 1-0.22-0.45 0.6 0.6 0 0 0-0.75-0.36 4.17 4.17 0 0 1-1.41 0 1.35 1.35 0 0 1-0.74-0.51 0.92 0.92 0 0 1 0.23-1.41c1.06-0.77 1-0.66 0.78 -1.91a2.81 2.81 0 0 1 0-0.65A1 1 0 0 1 17 9.6c0.15 0.09 0.29 0.21 0.44 0.31 a0.8 0.8 0 0 0 1.16-0.06 5.37 5.37 0 0 1 0.57-0.5 0.53 0.53 0 0 1 0.89 0.33 c0.058 0.266 0.082 0.538 0.07 0.81 a1.69 1.69 0 0 0 0.91 1.64c0.163 0.094 0.32 0.197 0.47 0.31 a0.67 0.67 0 0 1-0.08 1.2 4.72 4.72 0 0 1-0.56 0.24 1.5 1.5 0 0 0-1.13 1.29 1.13 1.13 0 0 1-1.12 1.11z" fill="#FFBC00"/>
</svg>
