<?xml version="1.0" ?>
<svg xmlns="http://www.w3.org/2000/svg" width="36" height="30" viewBox="0 0 36 30">
  <path d="M5.6 21.31v-8.37c-0.17 0.15 -0.31 0.25 -0.45 0.37 l-3.82 3.37c-0.11 0.1 -0.18 0.11 -0.29 0-0.31-0.35-0.64-0.69-1-1-0.1-0.1-0.12-0.18 0-0.29l4.22-3.63c1.28-1.11 2.56-2.23 3.85-3.33A0.52 0.52 0 0 0 8.36 8V2.58h1.74v4.09a0.84 0.84 0 0 0 0.2-0.11L14 3.24l3.37-3c0.39-0.34 0.4 -0.35 0.79 0a250.862 250.862 0 0 1 3.94 3.44l3.44 3 4.22 3.7L34 14.05c0.5 0.43 1 0.87 1.5 1.3 0.12 0.11 0.11 0.18 0 0.28l-1 1.06c-0.1 0.11 -0.16 0.09 -0.26 0l-3.8-3.35-0.47-0.4v8.37" fill="#FFF"/>
  <path d="M30 19.62v9.82H5.61v-9.75" fill="#FFF"/>
  <path d="M21.36 22.75l-0.28 0.09 -0.92 0.34 a0.2 0.2 0 0 0-0.1 0.08 l-1.34 2.2c-0.12 0.2 -0.22 0.41 -0.35 0.61 -0.117 0.217 -0.29 0.4 -0.5 0.53 a0.47 0.47 0 0 1-0.7-0.29 1.58 1.58 0 0 1 0-0.65 6.48 6.48 0 0 1 0.42-1.29l0.45-1.2a6 6 0 0 1 0.38-0.91 1.5 1.5 0 0 1 0.74-0.64c0.313-0.133 0.623 -0.273 0.93 -0.42l1.3-0.59c0.18-0.08 0.18 -0.08 0.1 -0.25-0.23-0.51-0.47-1-0.71-1.51l-0.3-0.63s0-0.06-0.08 0l-1.13 0.69 a1 1 0 0 1-0.57 0.18 0.59 0.59 0 0 1-0.29-0.1l-1.7-1.13a5.627 5.627 0 0 1-0.48-0.36 0.7 0.7 0 0 1-0.18-0.2 0.36 0.36 0 0 1 0-0.4c0-0.07 0.09 -0.14 0.14 -0.21a0.33 0.33 0 0 1 0.46-0.12c0.16 0.05 0.16 0.06 0.24-0.08l0.35-0.64a0.24 0.24 0 0 0 0-0.12 0.5 0.5 0 0 1 0.55-0.47 0.49 0.49 0 0 1 0.44 0.46 0.46 0.46 0 0 1-0.34 0.52 0.57 0.57 0 0 0-0.13 0.08 l-0.51 0.47 c-0.06 0 0 0.07 0 0.11l1.18 0.61 a0.23 0.23 0 0 0 0.27 0l1.39-0.94 1.27-0.86c0.21-0.15 0.4 -0.33 0.6 -0.5 0.46 -0.37 0.92 -0.74 1.39-1.1 0.62 -0.49 1.25-1 1.9-1.39a5.61 5.61 0 0 1 1-0.56 1.12 1.12 0 0 1 0.26-0.08 0.34 0.34 0 0 1 0.33 0.29 0.52 0.52 0 0 1-0.08 0.3 c-0.192 0.3 -0.428 0.57 -0.7 0.8 -0.53 0.48 -1.07 1-1.62 1.42-0.55 0.42 -1.16 0.94 -1.74 1.41 0 0-0.05 0.05 0 0.11l0.68 1c0.34 0.52 0.69 1 1 1.55 0.19 0.29 0.39 0.58 0.58 0.88 0.139 0.215 0.24 0.451 0.3 0.7a1.35 1.35 0 0 1 0 0.6 1.09 1.09 0 0 1-0.31 0.51 l-1.57 1.6a0.1 0.1 0 0 0 0 0.15c0.33 0.49 0.65 1 1 1.48s0.65 1 1 1.48c0.146 0.217 0.244 0.462 0.29 0.72 a0.47 0.47 0 0 1-0.28 0.6 0.56 0.56 0 0 1-0.49 0 2.15 2.15 0 0 1-0.7-0.57c-0.26-0.3-0.51-0.61-0.76-0.92-0.58-0.7-1.15-1.41-1.72-2.13a1.65 1.65 0 0 1-0.32-0.46 0.91 0.91 0 0 1 0-0.67l-0.04-0.18zm-3.23-7a0.76 0.76 0 0 0 0-0.11 0.38 0.38 0 0 0-0.59-0.14c-0.05 0-0.05 0.06 0 0.11a1 1 0 0 0 0.4 0.32 c0.17 0.08 0.19 0.08 0.24-0.1a0.25 0.25 0 0 1-0.05-0.12v0.04zm-0.28 0.36 l-0.48-0.36a0.35 0.35 0 0 0 0.48 0.32 v0.04z" fill="#672AEA"/>
  <path d="M18.37 14.34a1.43 1.43 0 0 1 1.44-1.45 1.45 1.45 0 1 1-1.44 1.45z" fill="#672AEA"/>
</svg>
