<?xml version="1.0" ?>
<svg xmlns="http://www.w3.org/2000/svg" width="26" height="36" viewBox="0 0 26 36">
  <path d="M0 22.44a8.65 8.65 0 0 1 0.22-1.76 16.34 16.34 0 0 1 1-3 40.37 40.37 0 0 1 2.76-5.3C5.06 10.53 6.27 8.72 7.55 7 8.69 5.4 9.86 3.87 11 2.34c0.59-0.77 1.22-1.51 1.83-2.26 0.07 -0.1 0.13 -0.11 0.21 0 1.13 1.43 2.28 2.85 3.4 4.29a85.23 85.23 0 0 1 4 5.67c1.09 1.65 2.12 3.35 3 5.1a28.73 28.73 0 0 1 1.52 3.34c0.23 0.63 0.39 1.28 0.58 1.92a7.56 7.56 0 0 1 0.26 2.5c0 0.54-0.12 1.07-0.19 1.6-0.056 0.38 -0.133 0.758 -0.23 1.13-0.14 0.5 -0.31 1-0.5 1.5a12.33 12.33 0 0 1-1.27 2.41 13.3 13.3 0 0 1-2.77 3 12.41 12.41 0 0 1-2.87 1.7 12.67 12.67 0 0 1-1.46 0.52 c-0.42 0.13 -0.86 0.23 -1.29 0.32 a5.62 5.62 0 0 1-1 0.14 18.33 18.33 0 0 1-2 0.06 17 17 0 0 1-1.73-0.28 11.11 11.11 0 0 1-3.18-1A12.93 12.93 0 0 1 1 27.29a12.57 12.57 0 0 1-0.66-2.08 11.38 11.38 0 0 1-0.27-1.83c-0.01-0.31-0.07-0.63-0.07-0.94zm10.91 8.89l-0.11-0.07a0.18 0.18 0 0 0-0.07-0.05 12.76 12.76 0 0 1-3.57-3.1A11.38 11.38 0 0 1 5 23.76a13.7 13.7 0 0 1-0.34-2 15 15 0 0 1 0-2.6c0-0.24 0-0.49 0.07 -0.73 0.08 -0.487 0.17 -0.963 0.27 -1.43 0.07 -0.34 0.16 -0.67 0.24 -1 0.08-0.33 0.1 -0.4 0.16 -0.6a0.8 0.8 0 0 0-0.25 0.23 c-0.32 0.49 -0.65 1-0.94 1.48a9.78 9.78 0 0 0-0.93 2.33c-0.13 0.46 -0.23 0.927 -0.3 1.4-0.08 0.56 -0.15 1.12-0.18 1.67a8.82 8.82 0 0 0 0.2 2.3c0.115 0.538 0.262 1.07 0.44 1.59a7.39 7.39 0 0 0 2.08 3 8.1 8.1 0 0 0 2.42 1.43 7.4 7.4 0 0 0 1.63 0.44 l0.74 0.11 c0.17-0.04 0.36 -0.05 0.6 -0.05z" fill="#FFF"/>
</svg>
