<?xml version="1.0" ?>
<svg xmlns="http://www.w3.org/2000/svg" width="29" height="36" viewBox="0 0 29 36">
  <path d="M27.61 8.56H0.73a0.68 0.68 0 0 1-0.67-0.4C0 8 0 7.83 0.2 7.71l4.66-2.57c1.34-0.74 2.68-1.5 4-2.24 1.11-0.62 2.22-1.21 3.34-1.82l1.8-1a0.49 0.49 0 0 1 0.52 0L17 1.41l4.21 2.25 3.38 1.82 4.18 2.22c0.25 0.13 0.29 0.25 0.16 0.49 a0.71 0.71 0 0 1-0.66 0.38 h-0.66v-0.01zM12 21.44v-7.68a2.55 2.55 0 0 1 0-0.39 0.93 0.93 0 0 1 1-0.84h3a1 1 0 0 1 1.14 1.12v15.52a1.16 1.16 0 0 1-0.19 0.78 1 1 0 0 1-0.81 0.4 h-3.07a1 1 0 0 1-1-1V21.46l-0.07-0.02zM21.75 21.36v-7.83a0.9 0.9 0 0 1 1-1h3.1a1 1 0 0 1 1 0.85v15.88a1 1 0 0 1-1.06 1h-2.9a1.11 1.11 0 0 1-1.14-1.12v-7.88 0.1 zM2.22 21.38v-7.85a0.93 0.93 0 0 1 0.59-0.94 0.91 0.91 0 0 1 0.32-0.06h3.2a1 1 0 0 1 1 1.09v15.32c0.015 0.22 0.015 0.44 0 0.66a0.93 0.93 0 0 1-0.88 0.74 H3.22a0.9 0.9 0 0 1-0.93-1V21.38h-0.07zM14.51 35.54h-13a0.75 0.75 0 0 1-0.79-0.78c0-0.53 0.27 -0.82 0.78 -0.82h26.17a0.59 0.59 0 0 1 0.62 0.65 v0.27a0.62 0.62 0 0 1-0.67 0.67 H14.51v0.01zM14.5 9.57h11.68a0.69 0.69 0 0 1 0.71 0.42 0.92 0.92 0 0 1-0.17 1c-0.17 0.1 -0.363 0.154 -0.56 0.16 H2.86a0.7 0.7 0 0 1-0.71-0.33 1 1 0 0 1 0-0.95 0.61 0.61 0 0 1 0.6-0.33H14.5v0.03zM14.48 33H2.75a0.63 0.63 0 0 1-0.67-0.56 1.51 1.51 0 0 1 0-0.52 0.54 0.54 0 0 1 0.58-0.48h23.76a0.51 0.51 0 0 1 0.48 0.43 c0.04 0.215 0.04 0.435 0 0.65a0.58 0.58 0 0 1-0.62 0.48 h-11.8z" fill="#FFF"/>
</svg>
