<?xml version="1.0" ?>
<svg xmlns="http://www.w3.org/2000/svg" width="31" height="32" viewBox="0 0 31 32">
  <path d="M4.42 12.74c0 1.527 0.027 3.05 0.08 4.57a1 1 0 0 0 0 0.27s0.06 0.1 0.09 0.1 a0.15 0.15 0 0 0 0.12-0.08 3 3 0 0 0 0.16-0.44c0.16-0.63 0.3 -1.26 0.45 -1.88l0.45-1.84 0.4 -1.65 0.47 -1.93c0.13-0.52 0.26 -1 0.38-1.57A0.36 0.36 0 0 1 7.36 8L9 7.63l1.81-0.42h0.07s0.11-0.08 0.12 -0.12a0.18 0.18 0 0 0-0.09-0.14 5.78 5.78 0 0 0-0.53-0.22l-2.54-0.95a0.29 0.29 0 0 1-0.22-0.29v-0.84a0.42 0.42 0 0 1 0.24-0.41A13.49 13.49 0 0 1 10.69 3 13 13 0 0 1 13 2.57a10.5 10.5 0 0 1 2.34 0c0.66 0.08 1.32 0.15 2 0.28a12 12 0 0 1 2.85 1 13.32 13.32 0 0 1 3 2 0.67 0.67 0 0 1 0.24 0.52 v1.9a0.51 0.51 0 0 1-0.37 0.53 0.56 0.56 0 0 0-0.39 0.59 v2.63a0.44 0.44 0 0 1-0.09 0.28 c-0.14 0.15 -0.34 0.09 -0.45-0.11-0.11-0.2-0.35-0.68-0.56-1a8.34 8.34 0 0 0-4-3.27 8.21 8.21 0 0 0-3.62-0.6 8.45 8.45 0 0 0-7.34 5.22 8.2 8.2 0 0 0-0.59 4 8.35 8.35 0 0 0 3.7 6.22 7.81 7.81 0 0 0 2.62 1.17 8.46 8.46 0 0 0 7-1.35c0.08-0.06 0.168 -0.11 0.26 -0.15 0.15 -0.06 0.24 0 0.23 0.15 -0.01 0.15 -0.05 0.61 -0.09 0.91 -0.07 0.58 -0.15 1.15-0.23 1.73l-0.2 1.47c0 0.25-0.08 0.5 -0.1 0.76 a0.81 0.81 0 0 1-0.64 0.82 12.8 12.8 0 0 1-2.33 0.54 c-0.893 0.14 -1.8 0.17 -2.7 0.09 -0.66-0.07-1.33-0.14-2-0.27A11.84 11.84 0 0 1 9 27.72a13.16 13.16 0 0 1-5.5-4.61 13 13 0 0 1-1.75-3.73 12.84 12.84 0 0 1-0.52-3.63c0.017-0.67 0.07 -1.337 0.16 -2a11.17 11.17 0 0 1 0.68-2.65A12.93 12.93 0 0 1 3.73 8a0.37 0.37 0 0 1 0.42-0.17c0.15 0 0.21 0.16 0.22 0.36 l0.05 4.59v-0.04zM17.23 6.3v-0.08a0.91 0.91 0 0 0-0.17-0.08l-1-0.27-1.82-0.46-1-0.26a0.26 0.26 0 0 1-0.24-0.28V4.2c0-0.22 0-0.69-0.05-1a0.62 0.62 0 0 0-0.11-0.2l-0.14 0.14 -0.7 1.77a0.31 0.31 0 0 1-0.25 0.22 l-1.12 0.23 a1.21 1.21 0 0 0-0.27 0.13 c0.089 0.05 0.182 0.09 0.28 0.12 l1 0.17c0.2 0 0.24 0.09 0.25 0.3 0.01 0.21 0 0.39 0 0.58a0.5 0.5 0 0 0 0.07 0.16 0.49 0.49 0 0 0 0.13-0.08c0.13-0.17 0.27 -0.34 0.39 -0.51a0.32 0.32 0 0 1 0.31-0.14l3.16 0.2 0.9 0.05 a2.31 2.31 0 0 0 0.38-0.04z" fill="#FFF"/>
  <path d="M14.69 23.36a8.09 8.09 0 0 1-2-0.19 7.7 7.7 0 0 1-5.42-4.67 7.44 7.44 0 0 1-0.49-3.63 7.68 7.68 0 0 1 8.75-6.77 7.55 7.55 0 0 1 5 2.89c0.325 0.386 0.59 0.817 0.79 1.28a0.32 0.32 0 0 1-0.14 0.46 c-0.18 0.12 -0.39 0.21 -0.57 0.32 -0.18 0.11 -0.39 0.23 -0.57 0.36 a0.47 0.47 0 0 0-0.17 0.7 c0.25 0.48 0.52 0.95 0.8 1.41 0.134 0.23 0.18 0.5 0.13 0.76-0.1 0.7 -0.19 1.39-0.29 2.09-0.07 0.53 -0.15 1.06-0.22 1.59a5.2 5.2 0 0 1-0.13 0.73 1 1 0 0 1-0.25 0.41 7.52 7.52 0 0 1-3.27 1.9 7.32 7.32 0 0 1-1.95 0.36 z" fill="#FFF"/>
  <path d="M25.31 31.3h-2.94a2.46 2.46 0 0 1-2.29-1.43 2.58 2.58 0 0 1-0.2-1.55l0.23-1.66 0.21 -1.53 0.22 -1.65 0.21 -1.54c0.07-0.54 0.14 -1.08 0.22 -1.62 0.08 -0.54 0.15 -1 0.22-1.57 0.07 -0.57 0.14 -1 0.21-1.53 0.07 -0.53 0.09 -0.74 0.15 -1.1a1 1 0 0 0-0.12-0.72l-0.53-0.94-0.06-0.11c-0.14-0.29-0.1-0.49 0.19 -0.63 0.428 -0.21 0.869 -0.395 1.32-0.55a9.6 9.6 0 0 1 3.61-0.43 8.83 8.83 0 0 1 3.54 0.9 c0.45 0.23 0.5 0.39 0.25 0.83 -0.15 0.26 -0.28 0.53 -0.45 0.78 -0.2 0.33 -0.265 0.724 -0.18 1.1 0.1 0.7 0.19 1.4 0.29 2.1l0.21 1.55 0.2 1.51 0.18 1.6 0.22 1.6 0.21 1.53 0.22 1.63c0 0.19 0 0.37 0.07 0.56a2.46 2.46 0 0 1-1.89 2.78 3.06 3.06 0 0 1-0.66 0.07 l-2.86 0.02 zm0-5.16h3.21c0.27 0 0.37-0.13 0.34 -0.4-0.06-0.58-0.14-1.16-0.21-1.74-0.07-0.58-0.14-1-0.21-1.54l-0.22-1.62c-0.07-0.51-0.15-1-0.21-1.54a0.5 0.5 0 0 0-0.55-0.51h-4.3a0.46 0.46 0 0 0-0.51 0.41 c-0.08 0.52 -0.15 1-0.22 1.56-0.09 0.67 -0.17 1.34-0.26 2-0.09 0.66 -0.23 1.63-0.34 2.45a5.16 5.16 0 0 0-0.06 0.55 0.32 0.32 0 0 0 0.33 0.38 h3.21zM5.27 12.16a1.19 1.19 0 0 1 0-0.17c0-0.96-0.027-1.917-0.08-2.87V7.39c0-0.18-0.06-0.25-0.23-0.29l-1-0.16-1.42-0.22-1.36-0.21-1-0.18a0.67 0.67 0 0 1-0.18-0.1v-0.06a1 1 0 0 1 0.23-0.07h0.9L5 6c0.35 0 0.39 0 0.45-0.38 0.15 -0.77 0.31 -1.55 0.47 -2.32 0.16 -0.77 0.26 -1.34 0.39 -2 0.12-0.35 0.19 -0.72 0.28 -1.1a1.26 1.26 0 0 1 0.08-0.2 0.69 0.69 0 0 1 0 0.15v0.38c0 1.793 0.023 3.587 0.07 5.38 0 0.32 0 0.34 0.32 0.45l1.16 0.42 0.21 0.1 v0.05L8 7.06c-0.47 0.11 -0.93 0.2 -1.4 0.32 a0.31 0.31 0 0 0-0.19 0.19 c-0.17 0.68 -0.33 1.37-0.5 2.06L5.39 12a1.72 1.72 0 0 1-0.08 0.2 l-0.04-0.04zM25.32 11.93h-1.47c-0.34 0-0.45-0.11-0.45-0.44V9.9c0-0.28 0.13 -0.41 0.41 -0.41h3a0.38 0.38 0 0 1 0.41 0.41 v1.6a0.38 0.38 0 0 1-0.43 0.43 h-1.5 0.03 zM25.31 8.72h-0.78a0.35 0.35 0 0 1-0.37-0.37v-0.79a0.34 0.34 0 0 1 0.34-0.37h1.65a0.32 0.32 0 0 1 0.33 0.36 v0.81a0.34 0.34 0 0 1-0.37 0.37 l-0.8-0.01z" fill="#FFF"/>
</svg>
