<?xml version="1.0" ?>
<svg xmlns="http://www.w3.org/2000/svg" width="36" height="36" viewBox="0 0 36 36">
  <path d="M18.34 20.94V9.19c0-0.47 0-0.42 0.42 -0.42H35c0.29 0 0.29 0 0.29 0.3 V29.33a3.22 3.22 0 0 1-1.15 2.5A5.15 5.15 0 0 1 32 32.92a8 8 0 0 1-2.24 0.22 c-0.26 0-0.26 0-0.26 0.26 v1.06a1.1 1.1 0 0 1-0.81 1.13 1.06 1.06 0 0 1-1.31-0.76 11.67 11.67 0 0 1-0.07-1.18v-0.32c0-0.11-0.05-0.19-0.19-0.19h-8.53c-0.21 0-0.25 0-0.25-0.27V20.94zm4.39-2v-2.2a0.65 0.65 0 0 0-0.56-0.66c-0.47 0-0.82 0.16 -0.85 0.55 -0.03 0.39 0 0.92 0 1.39v3.06a0.83 0.83 0 0 0 0.1 0.41 0.72 0.72 0 0 0 1.35-0.35l-0.04-2.2zM16.92 11.4v11c0 0.32 0 0.32-0.31 0.33 H0.26c-0.27 0-0.24 0-0.24-0.27V3.84A3.24 3.24 0 0 1 1.3 1.25 5.36 5.36 0 0 1 3.18 0.31 a4.28 4.28 0 0 1 0.88-0.17C5.71 0 7.37 0.09 9 0.07h7.58c0.31 0 0.32 0 0.32 0.32 l0.02 11.01zm-4.39 0.78 v2.23a0.72 0.72 0 0 0 1 0.62 0.75 0.75 0 0 0 0.44-0.76v-4.18a1 1 0 0 0-0.08-0.42 0.72 0.72 0 0 0-0.89-0.38 0.71 0.71 0 0 0-0.5 0.7 c0.04 0.73 0.03 1.46 0.03 2.19zM8.47 24.08h8.12c0.29 0 0.3 0 0.3 0.3 v8.56c0 0.24 0 0.27-0.26 0.27 H8.26c-0.26 0-0.26 0-0.26 0.25 v1.06a1.13 1.13 0 0 1-0.63 1.06A1.07 1.07 0 0 1 5.92 35a1.8 1.8 0 0 1-0.1-0.57v-1.06c0-0.14-0.06-0.19-0.2-0.19-0.51 0-1 0-1.52-0.08a5.68 5.68 0 0 1-1.67-0.46 4.36 4.36 0 0 1-1.85-1.43A2.48 2.48 0 0 1 0.06 30v-0.86-4.71c0-0.27 0-0.3 0.3 -0.3l8.11-0.05zm0.2 4.24h1.84a0.61 0.61 0 0 0 0.56-0.29 0.78 0.78 0 0 0 0-0.77 0.74 0.74 0 0 0-0.67-0.42H6.88a0.72 0.72 0 0 0-0.72 0.76 0.75 0.75 0 0 0 0.74 0.72 h1.77zM26.83 7.37h-8.18c-0.25 0-0.27 0-0.27-0.27V5.76 4.04 2.16v-1-0.92c0-0.31 0-0.23 0.24 -0.23h12a5.73 5.73 0 0 1 1.91 0.37 5 5 0 0 1 1.85 1.17c0.372 0.373 0.643 0.834 0.79 1.34 0.08 0.364 0.111 0.738 0.09 1.11v3c0 0.29 0 0.3-0.29 0.3 l-8.14 0.07 zm-1.09-1.92h1.79a0.7 0.7 0 0 0 0.72-0.77 0.7 0.7 0 0 0-0.72-0.68H24a0.76 0.76 0 0 0-0.72 0.71 0.78 0.78 0 0 0 0.75 0.77 l1.71-0.03z" fill="#FFF"/>
</svg>
