<?xml version="1.0" ?>
<svg xmlns="http://www.w3.org/2000/svg" width="44" height="29" viewBox="0 0 44 29">
  <path d="M 22.14 0 C 23.1506810922 0 23.97 0.81931890781 23.97 1.83 C 23.97 2.84068109219 23.1506810922 3.66 22.14 3.66 C 21.1293189078 3.66 20.31 2.84068109219 20.31 1.83 C 20.31 0.81931890781 21.1293189078 0 22.14 0 Z" fill="#FFF"/>
  <path d="M2.73 23.39c0-10.604 8.596-19.2 19.2-19.2s19.2 8.596 19.2 19.2" fill="#FFF"/>
  <path d="M 1.05 26.28 L 42.59 26.28 Q 43.64 26.28 43.64 27.33 L 43.64 27.56 Q 43.64 28.61 42.59 28.61 L 1.05 28.61 Q 0 28.61 0 27.56 L 0 27.33 Q 0 26.28 1.05 26.28 Z" fill="#FFF"/>
</svg>
