<?xml version="1.0" ?>
<svg xmlns="http://www.w3.org/2000/svg" width="38" height="31" viewBox="0 0 38 31">
  <path d="M27.31 21.47a25.54 25.54 0 0 1 8.24 1c0.497 0.16 0.974 0.378 1.42 0.65 0.91 0.56 0.95 1.44 0 1.91a14.76 14.76 0 0 1-3.25 1.14 28.94 28.94 0 0 1-7.57 0.56 21.68 21.68 0 0 1-7.52-1.3 3.83 3.83 0 0 1-0.83-0.46c-0.77-0.58-0.78-1.34 0.06 -1.79a11.45 11.45 0 0 1 2.59-1 25.32 25.32 0 0 1 6.86-0.71zm6.29 2.37c-0.26-0.23-0.12-0.39 0.09 -0.52l1.37-0.79c-3.44-1.29-12.82-1.14-15.19 0 0.44 0.26 0.91 0.51 1.35 0.81 0.09 0.06 0 0.31 0.06 0.48a14.75 14.75 0 0 1-1.61 0.11 1 1 0 0 1-0.71-0.34c-0.12-0.15 0-0.46 0-0.68-0.51 0.32 -0.56 0.7 0 1a8 8 0 0 0 1.94 0.69 35.59 35.59 0 0 0 12.28 0.18 15.94 15.94 0 0 0 2.77-0.82 0.77 0.77 0 0 0 0.4-0.54c0-0.15-0.21-0.34-0.33-0.51 0.17 0.64 0 1-0.65 1.06a15 15 0 0 1-1.77-0.12v-0.01zm-3.81 2.52c-0.28-0.78-0.36-0.83-1-0.83H26c-0.59 0-0.75 0.16 -0.8 0.83 h4.59z" fill="#FFF"/>
  <path d="M34.56 26.54A13.71 13.71 0 0 0 33 28.21a5.06 5.06 0 0 1-4.81 2.27c-1.17 0-2.34-0.09-3.51-0.23a3.41 3.41 0 0 1-2.26-1.41c-0.6-0.75-1.28-1.45-2-2.25a37.83 37.83 0 0 0 14.14-0.05zM33.6 23.84a2.43 2.43 0 0 1-0.66 0.36 25.38 25.38 0 0 1-3.19 0.5 25 25 0 0 1-7.75-0.48 3.5 3.5 0 0 1-0.72-0.38 25.7 25.7 0 0 1 12.32 0zm-7.09 0.21 h1.88v-0.24c-0.63 0.19 -1.26-0.35-1.88 0.25 v-0.01z" fill="#FFF"/>
  <path d="M29.86 21.88c-0.19 0.9 -0.41 1.08-1.15 1.08h-2.46c-0.78 0-1-0.19-1.19-1.08h4.8zM20.23 17.68c-0.13 0-0.18-0.12-0.13-0.23 0.05 -0.11 0.21 -0.5 0.31 -0.75l0.33-0.8 0.37 -0.86 0.28 -0.68 0.51 -1.2 0.39 -0.94 0.4 -0.94 0.36 -0.87 0.26 -0.61 0.36 -0.86 0.26 -0.61 0.36 -0.85 0.26 -0.63 0.35 -0.85 0.27 -0.63 0.35 -0.86 0.36 -0.85 0.39 -0.92a2.53 2.53 0 0 1 0.15-0.32 0.22 0.22 0 0 1 0.27-0.09 5.5 5.5 0 0 1 1 0.39c0.25 0.13 0.51 0.25 0.75 0.39 0.454 0.252 0.892 0.532 1.31 0.84 0.25 0.19 0.51 0.37 0.75 0.57 0.24 0.2 0.52 0.43 0.77 0.66 0.435 0.388 0.849 0.798 1.24 1.23a14.6 14.6 0 0 1 1.08 1.31c0.27 0.38 0.54 0.76 0.79 1.15 0.25 0.39 0.45 0.78 0.66 1.17 0.21 0.39 0.25 0.52 0.36 0.78 0.042 0.101 0.08 0.205 0.11 0.31a0.25 0.25 0 0 1-0.15 0.28 l-0.43 0.19 -0.78 0.33 -0.76 0.31 -0.87 0.36 -0.81 0.33 -0.67 0.29 -0.87 0.36 -0.87 0.37 -0.86 0.35 -0.77 0.32 -0.8 0.33 -0.87 0.37 -0.62 0.25 -0.69 0.29 -0.79 0.33 -0.61 0.26 -0.87 0.36 -0.87 0.37 -0.62 0.25 -0.53 0.22 -0.17 0.03 zM30 12.07a1.44 1.44 0 1 0 0-2.88 1.44 1.44 0 0 0 0 2.88zm-1.22-5.53a1.23 1.23 0 1 0-1.24 1.23 1.22 1.22 0 0 0 1.24-1.23zM25.21 11a1.1 1.1 0 1 0 0 2.2 1.1 1.1 0 0 0 0-2.2z" fill="#FFF"/>
  <path d="M27.67 0.08 l0.24 0.08 0.6 0.26 c0.29 0.14 0.58 0.28 0.87 0.43 0.29 0.15 0.77 0.44 1.14 0.68 0.37 0.24 0.57 0.38 0.85 0.59 0.28 0.21 0.71 0.54 1 0.82 0.29 0.28 0.63 0.55 0.93 0.85 0.3 0.3 0.67 0.66 1 1 0.33 0.34 0.67 0.78 1 1.17 0.33 0.39 0.46 0.6 0.67 0.91a15.099 15.099 0 0 1 1.3 2.23c0.18 0.38 0.28 0.6 0.4 0.92 a0.38 0.38 0 0 1-0.2 0.46 c-0.21 0.1 -0.43 0.19 -0.65 0.27 l-0.4 0.15 a0.27 0.27 0 0 1-0.39-0.14c-0.09-0.16-0.15-0.33-0.23-0.5-0.08-0.17-0.23-0.48-0.35-0.71-0.12-0.23-0.27-0.5-0.41-0.74-0.29-0.5-0.61-1-1-1.45A15.82 15.82 0 0 0 33 6.05c-0.28-0.3-0.56-0.59-0.85-0.88A13.7 13.7 0 0 0 30.84 4c-0.39-0.3-0.79-0.58-1.19-0.86-0.4-0.28-0.53-0.35-0.81-0.51-0.28-0.16-0.57-0.31-0.86-0.45-0.29-0.14-0.58-0.25-0.87-0.39a0.82 0.82 0 0 1-0.23-0.17 0.26 0.26 0 0 1 0-0.28c0.02-0.15 0.12 -0.34 0.12 -0.47 0-0.13 0.15 -0.37 0.24 -0.55a0.41 0.41 0 0 1 0.43-0.24zM17.61 2.88l-0.28-0.09-0.85-0.24a4 4 0 0 0-1.24-0.12 2.37 2.37 0 0 0-0.74 0.15 c-0.16 0.06 -0.34 0.09 -0.51 0.14 a6.16 6.16 0 0 0-1.84 0.87 A4 4 0 0 0 10.51 6a3.65 3.65 0 0 0-0.08 1c0 0.16 0 0.17-0.16 0.16 a6 6 0 0 1-0.7 0 2.47 2.47 0 0 1-1-0.33 1.41 1.41 0 0 1-0.32-0.29 0.54 0.54 0 0 1-0.09-0.28c0-0.37-0.06-0.75-0.06-1.12 0-0.301 0.02 -0.602 0.06 -0.9 0-0.29 0.1 -0.58 0.15 -0.86 0.05 -0.28 0.08 -0.36 0.12 -0.53 0.04 -0.17 0.16 -0.56 0.26 -0.84 0.1 -0.28 0.21 -0.57 0.33 -0.85A2.6 2.6 0 0 1 9.63 0.2 0.58 0.58 0 0 1 10 0h1c0.34 0 0.61 0 0.91 0.08 0.3 0.08 0.45 0 0.67 0.09 0.22 0.09 0.43 0.09 0.64 0.15 0.21 0.06 0.46 0.13 0.69 0.22 0.23 0.09 0.6 0.23 0.89 0.36 l1.28 0.6 a3.84 3.84 0 0 1 1.52 1.3 0.2 0.2 0 0 1 0.01 0.08 zM16.77 10.72a0.52 0.52 0 0 0-0.1-0.33 1.11 1.11 0 0 0-0.78-0.55 2.83 2.83 0 0 0-1.29 0.08 0.19 0.19 0 0 1-0.18 0 4.59 4.59 0 0 1-1-1 1.05 1.05 0 0 1-0.19-0.6 4.45 4.45 0 0 1 0-0.54A1.87 1.87 0 0 1 14 6.39a2.68 2.68 0 0 1 0.79-0.39l0.73-0.2a1.31 1.31 0 0 1 0.26 0c0.37 0 0.74-0.05 1.11 0a3.21 3.21 0 0 1 1.52 0.44 c0.45 0.287 0.8 0.706 1 1.2 0.107 0.257 0.184 0.525 0.23 0.8a0.63 0.63 0 0 1 0 0.28 5.32 5.32 0 0 1-0.82 1.67 5.15 5.15 0 0 1-1.25 1.23 5.64 5.64 0 0 1-1.35 0.68 1 1 0 0 1-0.53 0.08 1.39 1.39 0 0 1-0.9-0.45 0.79 0.79 0 0 1-0.14-0.69 2.65 2.65 0 0 1 0.2-0.52 0.34 0.34 0 0 1 0.15-0.14 1.36 1.36 0 0 1 0.83-0.13c0.253 0.04 0.491 0.148 0.69 0.31 l0.25 0.16 z" fill="#FFF"/>
  <path d="M12.86 8.5a3.15 3.15 0 0 1-1.26-0.72c-0.24-0.22-0.44-0.47-0.67-0.7a0.36 0.36 0 0 1-0.07-0.36 4.79 4.79 0 0 1 0.14-0.65 4.51 4.51 0 0 1 0.3-0.65 4.21 4.21 0 0 1 1.22-1.32 4.88 4.88 0 0 1 1.06-0.61 5.9 5.9 0 0 1 0.78-0.28 9.06 9.06 0 0 1 1-0.18A4 4 0 0 1 16 3a4.46 4.46 0 0 1 1 0.15c0.353 0.091 0.69 0.236 1 0.43 0.333 0.212 0.627 0.48 0.87 0.79 0.257 0.34 0.466 0.713 0.62 1.11 0.052 0.144 0.095 0.29 0.13 0.44 0 0.15 0.09 0.3 0.11 0.45 0.02 0.15 0.06 0.36 0.08 0.55V7a0.13 0.13 0 0 1-0.1 0c-0.05-0.08-0.09-0.16-0.14-0.24a2.74 2.74 0 0 0-1.38-1.13 4.22 4.22 0 0 0-0.82-0.21 5.39 5.39 0 0 0-1.45 0 7.17 7.17 0 0 0-1.1 0.2 2.61 2.61 0 0 0-1.56 1 2.53 2.53 0 0 0-0.32 0.69 3.41 3.41 0 0 0-0.08 1.11v0.08zM7.79 6.45l-0.23 0.05 a9.83 9.83 0 0 1-1.61 0c-0.12 0-0.24 0-0.37-0.07s-0.08 0-0.08-0.11v-0.8c0-0.27-0.07-0.7-0.12-1.05A4.16 4.16 0 0 0 5.3 4c-0.06-0.23-0.12-0.45-0.2-0.67a5.39 5.39 0 0 0-0.22-0.57c-0.14-0.3-0.29-0.58-0.44-0.87a0.1 0.1 0 0 1 0-0.14A4 4 0 0 1 5.69 0.83 a3.19 3.19 0 0 1 0.83-0.28 5.62 5.62 0 0 1 0.87-0.06A3.51 3.51 0 0 1 8 0.54c0.179 0.034 0.356 0.077 0.53 0.13 0.07 0 0.06 0.08 0 0.12-0.06 0.04 -0.1 0.21 -0.14 0.32 L8.1 2c-0.1 0.15 -0.1 0.31 -0.1 0.47 0 0.16-0.1 0.39 -0.14 0.59 -0.04 0.2 -0.11 0.61 -0.15 0.92 a4.55 4.55 0 0 0-0.05 0.64 v1.11a6 6 0 0 0 0.13 0.67 v0.05zM5 6.09v0.41c0 0.12 0 0.08-0.08 0.09 L4 6.8l-1 0.28c-0.27 0.07 -0.54 0.15 -0.81 0.2 a2.71 2.71 0 0 1-1 0 0.67 0.67 0 0 1-0.58-0.6 0.85 0.85 0 0 1 0.47-0.92 0.36 0.36 0 0 1 0.11 0c0.1 0 0.1-0.08 0.1 -0.15a2.58 2.58 0 0 1 0.24-1 4.24 4.24 0 0 1 0.81-1.21 5.74 5.74 0 0 1 0.88-0.79l0.56-0.38a0.09 0.09 0 0 1 0.14 0c0.215 0.222 0.385 0.483 0.5 0.77 0.092 0.219 0.172 0.442 0.24 0.67 0.06 0.2 0.1 0.41 0.14 0.61 0.04 0.2 0.08 0.42 0.12 0.63 0.04 0.21 0 0.25 0 0.38s0.08 0.58 0.08 0.8 zM4.63 23.76v-4A2.78 2.78 0 0 1 6.9 17a2.57 2.57 0 0 1 1.19 0 2.74 2.74 0 0 1 1.66 1.21 3 3 0 0 1 0.44 1.66v7.87a2.7 2.7 0 0 1-0.54 1.66 2.78 2.78 0 0 1-1.51 1 2.61 2.61 0 0 1-1.56 0 2.72 2.72 0 0 1-1.8-1.78 3 3 0 0 1-0.15-1c0.01-1.26 0-2.56 0-3.86z" fill="#FFF"/>
  <path d="M10.13 29.68a5.54 5.54 0 0 0 0.29-0.54 3.37 3.37 0 0 0 0.21-0.68c0.099-0.98 0.122 -1.966 0.07 -2.95v-5.73a3.36 3.36 0 0 0-0.53-1.83 2.78 2.78 0 0 0-0.32-0.41c-0.08-0.08-0.07-0.13 0-0.21a2.66 2.66 0 0 1 1.39-1 2.7 2.7 0 0 1 1.47 0 2.77 2.77 0 0 1 2.07 3.14c-0.07 0.53 -0.19 1-0.29 1.57-0.05 0.3 -0.09 0.61 -0.15 0.91 -0.06 0.3 -0.16 0.82 -0.23 1.23-0.07 0.41 -0.1 0.6 -0.15 0.89 -0.05 0.29 -0.16 0.84 -0.23 1.26 0 0.26-0.09 0.53 -0.13 0.79 -0.04 0.26 -0.12 0.65 -0.18 1s-0.08 0.45 -0.13 0.66 a2.52 2.52 0 0 1-0.65 1.12 2.76 2.76 0 0 1-2.44 0.82 l-0.07-0.04zM4.69 29.69a3.16 3.16 0 0 1-1.37-0.09 2.74 2.74 0 0 1-1.55-1.26 2.94 2.94 0 0 1-0.36-1.1c0-0.31-0.11-0.61-0.17-0.92l-0.07-0.42c-0.09-0.46-0.17-0.9-0.25-1.4-0.08-0.5-0.13-0.79-0.2-1.19-0.07-0.4-0.16-0.86-0.24-1.31-0.08-0.45-0.1-0.61-0.15-0.92-0.05-0.31-0.15-0.79-0.23-1.2a3.48 3.48 0 0 1-0.1-1.33 2.72 2.72 0 0 1 1.69-2.1 2.67 2.67 0 0 1 1.55-0.16A2.72 2.72 0 0 1 5 17.35c0.05 0.07 0 0.12 0 0.18a3 3 0 0 0-0.71 1.23 3.7 3.7 0 0 0-0.14 0.95 v8.11c0 0.61 0.174 1.205 0.5 1.72 0 0 0.01 0.09 0.04 0.15 zM0.86 19L1 20c0.07 0.42 0.14 0.84 0.21 1.25 0.026 0.169 0.063 0.336 0.11 0.5a0.36 0.36 0 0 0 0.53 0.2 0.34 0.34 0 0 0 0.18-0.38c0-0.32-0.1-0.64-0.15-1-0.05-0.36-0.09-0.5-0.13-0.75-0.04-0.25-0.09-0.53-0.11-0.8a1.11 1.11 0 0 1 0.88-1.11 0.45 0.45 0 0 0 0.26-0.23 0.34 0.34 0 0 0-0.08-0.39c-0.19-0.19-0.41-0.12-0.61 0A1.94 1.94 0 0 0 0.86 19zM6.4 16.56c0.11-0.15 0.22 -0.3 0.34 -0.45a0.89 0.89 0 0 0 0.26-0.59V11.9a2.11 2.11 0 0 0-1.35-2 2.46 2.46 0 0 0-0.76-0.15 0.47 0.47 0 0 1-0.47-0.62 0.49 0.49 0 0 1 0.44-0.32c0.212 0.006 0.422 0.03 0.63 0.07 a3 3 0 0 1 1.31 0.62 2.92 2.92 0 0 1 1 1.55c0.078 0.328 0.119 0.663 0.12 1v3.41a1.07 1.07 0 0 0 0.25 0.75 c0.101 0.123 0.189 0.257 0.26 0.4 a3.26 3.26 0 0 0-2 0l-0.03-0.05zM9.39 17.06l-0.32-0.42-0.6-0.85c-0.13-0.19-0.06-0.4-0.06-0.61a0.18 0.18 0 0 1 0.11 0c0.18 0.1 0.36 0.2 0.53 0.31 a0.35 0.35 0 0 0 0.36 0.05 2.69 2.69 0 0 1 1.26-0.21 2.89 2.89 0 0 1 1.11 0.33 3.31 3.31 0 0 0-2.39 1.4z" fill="#FFF"/>
  <path d="M3 15.69a2.63 2.63 0 0 1 0.3-0.16c0.43-0.18 0.897 -0.25 1.36-0.2 0.263 0.043 0.521 0.114 0.77 0.21a0.34 0.34 0 0 0 0.33 0l0.55-0.33c0.11-0.06 0.15 0 0.17 0.1 a0.93 0.93 0 0 1-0.27 0.76 c-0.23 0.29 -0.46 0.58 -0.68 0.88 -0.08 0.1 -0.13 0.11 -0.22 0a3.18 3.18 0 0 0-1.09-0.84 2.83 2.83 0 0 0-1-0.3h-0.16L3 15.69z" fill="#FFF"/>
</svg>
