<?xml version="1.0" ?>
<svg xmlns="http://www.w3.org/2000/svg" width="53" height="30" viewBox="0 0 53 30">
  <path d="M25.85 2.6l-6.47 0.06 c-0.38 0-0.38 0-0.38-0.37v-1a1.33 1.33 0 0 0-2.66 0v1.1c0 0.22-0.07 0.29 -0.29 0.29 -2.08 0-4.15-0.05-6.23-0.11-1.89-0.06-3.82-0.16-5.66-0.24-0.39 0-0.79-0.06-1.18-0.07a1.56 1.56 0 0 0-1.55 1 1.52 1.52 0 0 0 1.36 2c0.87 0 1.73-0.11 2.6-0.14C7.21 5 9 4.94 10.85 4.9c1.85-0.04 3.4 0 5.1-0.07 0.23 0 0.31 0.08 0.3 0.3 v1.34c0 0.24-0.08 0.31 -0.32 0.32 -1 0-2 0.06-3 0.16A10 10 0 0 0 8.1 8.89 13.76 13.76 0 0 0 3 15.7a12.31 12.31 0 0 0-0.7 2.88A4.35 4.35 0 0 0 4.55 23a10.31 10.31 0 0 0 3.35 1.21 34.05 34.05 0 0 0 8.51 0.33 c1.19-0.07 2.38-0.14 3.57-0.24a16.32 16.32 0 0 0 5.13-1.11 7 7 0 0 0 3.35-2.92 6.17 6.17 0 0 1 3.3-2.59 15.5 15.5 0 0 1 5-0.82c2.667-0.1 5.333-0.183 8-0.25 1.67 0 3.35-0.05 5-0.09 0.49 0 1-0.08 1.47-0.12a0.89 0.89 0 0 0 0.81-0.71 2.84 2.84 0 0 0 0.11-0.75v-3.21a1.64 1.64 0 0 0-0.15-0.63 4.21 4.21 0 0 0-2-2.4 3.19 3.19 0 0 0-4.36 1.84 5.27 5.27 0 0 1-0.38 0.89 1.46 1.46 0 0 1-1.35 0.8 c-2.14 0-4.28 0.09 -6.41 0.11 a13.25 13.25 0 0 1-1.91-0.1 9.16 9.16 0 0 1-3.15-1.13c-1.18-0.64-2.34-1.34-3.52-2a15.89 15.89 0 0 0-4.83-1.72c-1-0.18-2-0.24-2.95-0.34-0.65-0.07-1.31-0.12-2-0.16-0.2 0-0.27-0.1-0.26-0.3V5.14c0-0.25 0.06 -0.33 0.32 -0.33 2.07 0 4.14 0 6.2 0.11 2.06 0.11 4.41 0.2 6.62 0.3 a1.66 1.66 0 0 0 1.73-0.92 1.53 1.53 0 0 0-1.47-2.09l-3.23 0.19 -3.23 0.13 0.03 0.07 zm-13 20a26.1 26.1 0 0 1-4.72-0.43 8.27 8.27 0 0 1-2.5-0.92 2.31 2.31 0 0 1-1.23-2.42A11.53 11.53 0 0 1 5.61 15 13 13 0 0 1 9 10.93a8.69 8.69 0 0 1 5.3-2.09h3.15c0.21 0 0.25 0.1 0.21 0.28 -0.23 1.18-0.47 2.37-0.69 3.55-0.26 1.38-0.51 2.77-0.77 4.15-0.35 1.83-0.7 3.66-1 5.49 0 0.2-0.12 0.3 -0.35 0.3 -0.85 0.01 -1.55 0.02 -1.96 0.02 l-0.04-0.03zm9-4.91v-0.87c0-0.37 0-0.37-0.38-0.37h-1.76c-0.21 0-0.3-0.06-0.3-0.29v-1.5c0-0.22 0.08 -0.29 0.29 -0.29h1.9c0.19 0 0.26-0.06 0.26 -0.26v-1.92c0-0.19 0.05 -0.26 0.25 -0.26h1.63c0.2 0 0.26 0.07 0.25 0.26 v1.92c0 0.2 0.06 0.26 0.26 0.25h1.89c0.21 0 0.3 0.06 0.3 0.28 v1.5c0 0.22-0.08 0.29 -0.3 0.29 h-1.88c-0.22 0-0.29 0.08 -0.28 0.29 v1.87c0 0.23-0.08 0.31 -0.31 0.3 h-1.55c-0.2 0-0.29-0.06-0.28-0.27 0.01 -0.21 0.02 -0.62 0.01 -0.9v-0.03zM48.8 10a2 2 0 1 1 0 4 2 2 0 0 1 0-4z" fill="#FFF"/>
  <path d="M14.9 29.66H25.21a1.3 1.3 0 0 0 0.7-0.23 0.74 0.74 0 0 0 0.19-1c-0.18-0.33-0.37-0.65-0.58-1a1.79 1.79 0 0 0-1.52-0.85H13.72c-2.91 0-5.82 0.1 -8.73 0.16 a2.62 2.62 0 0 1-1.18-0.2 5.34 5.34 0 0 1-2.51-2.4 3.36 3.36 0 0 1-0.24-0.74 0.48 0.48 0 0 0-0.51-0.4 0.43 0.43 0 0 0-0.44 0.38 c-0.06 0.42 -0.08 0.85 -0.1 1.27a3.74 3.74 0 0 0 0.68 2.19 5.72 5.72 0 0 0 1.49 1.67 6 6 0 0 0 1.95 0.89 c0.123 0.015 0.247 0.015 0.37 0l9 0.1c0.46 0 0.93 0 1.39 0.06 l0.01 0.1 z" fill="#FFF"/>
</svg>
