<?xml version="1.0" ?>
<svg xmlns="http://www.w3.org/2000/svg" width="32" height="32" viewBox="0 0 32 32">
  <path d="M29.42 9.94c0.015 0.14 0.015 0.28 0 0.42-0.08 0.48 -0.16 1-0.26 1.44-0.1 0.44 -0.17 0.72 -0.28 1.07a8.73 8.73 0 0 1-0.4 1.13 13.41 13.41 0 0 1-0.75 1.52 18 18 0 0 1-1.16 1.73 12.06 12.06 0 0 1-2.34 2.34 13.42 13.42 0 0 1-2.15 1.36l-0.4 0.2 c-0.1 0-0.12 0.11 -0.12 0.21 v2.22H10.22v-0.19-2a0.25 0.25 0 0 0-0.17-0.25A11.56 11.56 0 0 1 8 19.85a13.59 13.59 0 0 1-2.44-2.23 13 13 0 0 1-2-3.06c-0.26-0.58-0.46-1.18-0.67-1.77a9.56 9.56 0 0 1-0.46-2c0-0.29-0.08-0.58-0.11-0.88l27.1 0.03 zM21.89 27.49l0.69 0.15 1.75 0.35 0.83 0.15 1 0.19 0.84 0.16 0.95 0.19 0.89 0.17 1 0.19 0.91 0.17c0.142 0.03 0.28 0.077 0.41 0.14 a0.55 0.55 0 0 1 0.18 0.74 0.61 0.61 0 0 1-0.67 0.29 c-0.17 0-0.35-0.06-0.53-0.09l-1.16-0.17-2-0.33-0.62-0.09-1.17-0.19-0.5-0.08-1.56-0.23-1.83-0.29-1.76-0.27-1.55-0.26a2 2 0 0 0-0.92 0 8.15 8.15 0 0 1-0.86 0.16 l-1.29 0.25 -0.95 0.18 -1.25 0.26 -0.86 0.16 -1 0.19-0.83 0.16 -0.95 0.26 -0.85 0.17 -1 0.21-1.23 0.17 -1.34 0.26 -0.94 0.19 -1.26 0.25 -0.85 0.16 a2.42 2.42 0 0 1-0.47 0.07 1.11 1.11 0 0 1-0.21-2.2c0.52-0.06 1-0.17 1.54-0.26l1.59-0.23 1.55-0.27 0.5 -0.07 1.77-0.28L9 28l1.11-0.19 1.05-0.16 1.19-0.2 1.05-0.16 1.19-0.19 1-0.15 1.25-0.2 1.16-0.18 1.46-0.23 1.24-0.18 1.09-0.2 0.48 -0.08 1.59-0.23 1.81-0.28 2.21-0.37 1.81-0.29 1-0.15a0.54 0.54 0 0 1 0.64 0.47 0.55 0.55 0 0 1-0.36 0.62 4.77 4.77 0 0 1-0.51 0.13 l-1.29 0.22 -2 0.4c-0.42 0.09 -0.84 0.15 -1.26 0.23 l-1.56 0.37 -1.35 0.23 -1.13 0.23 0.02 0.03 zM14.05 26a1 1 0 0 1-0.15 0.07 l-1.05 0.15 -1.15 0.19 -0.5 0.09 -1.6 0.23 c-0.3 0.05 -0.6 0.1 -0.9 0.13 -0.14 0.02 -0.28 0.02 -0.42 0l-1.57-0.26-1-0.16-1.15-0.19-0.56-0.08-1.62-0.24c-0.51-0.08-1-0.15-1.53-0.26a1.06 1.06 0 0 1-0.81-0.77 1.12 1.12 0 0 1 0.64-1.33 1.15 1.15 0 0 1 0.66-0.06c0.28 0.07 0.56 0.11 0.84 0.16 l1 0.19L4 24l1 0.2 0.89 0.16 1.26 0.25 1 0.18 1.18 0.24 1 0.18 0.9 0.2 0.84 0.15 0.95 0.19 0.87 0.16 0.11 0.09h0.05zM19.94 8.8h-1.52a0.57 0.57 0 0 1-0.64-0.39C17.55 8 17.26 7.5 17 7a1.11 1.11 0 0 0-0.11-0.11l-0.36 0.66 -0.63 1.16a0.17 0.17 0 0 1-0.11 0.08 h-1.85c0.09-0.16 0.16 -0.33 0.25 -0.49L15.45 6c0.39-0.69 0.78 -1.39 1.16-2.09 0.38 -0.7 0.69 -1.23 1-1.85 0.31 -0.62 0.6 -1.09 0.92 -1.64a0.79 0.79 0 0 1 0.89-0.42 0.82 0.82 0 0 1 0.7 0.61 0.91 0.91 0 0 1-0.12 0.71 c-0.43 0.76 -0.86 1.54-1.28 2.31-0.26 0.46 -0.51 0.92 -0.77 1.37a0.28 0.28 0 0 0 0 0.29c0.59 1 1.17 2 1.75 3 0.08 0.17 0.15 0.33 0.24 0.51 zM5.23 8.8H3.66c-0.11 0-0.17 0-0.18-0.15 0-0.38-0.08-0.76-0.07-1.14a6.83 6.83 0 0 1 0.46-2.31 6.82 6.82 0 0 1 3.82-3.85 6.66 6.66 0 0 1 3-0.47c0.462 0.048 0.92 0.132 1.37 0.25 0.24 0.06 0.47 0.16 0.7 0.23 0.23 0.07 0.15 0.1 0.08 0.22 -0.23 0.4 -0.45 0.81 -0.68 1.22 0 0.09-0.1 0.12 -0.23 0.08 a6 6 0 0 0-0.93-0.24 5.13 5.13 0 0 0-0.95-0.07 4.84 4.84 0 0 0-2.66 0.84 5 5 0 0 0-1.71 1.92 3.91 3.91 0 0 0-0.45 1.28 8.52 8.52 0 0 0-0.11 1.23c0.01 0.27 0.043 0.537 0.1 0.8 a0.76 0.76 0 0 1 0.01 0.16 zM26.55 8.77a5 5 0 0 0-1.23-4.55 5 5 0 0 0-4.4-1.61l0.44-0.79c0.15-0.27 0.32 -0.54 0.47 -0.82a0.2 0.2 0 0 1 0.24-0.12c0.494 0.068 0.985 0.162 1.47 0.28 a7.94 7.94 0 0 1 1.31 0.56 6.6 6.6 0 0 1 2.28 2A7 7 0 0 1 28 5.39c0.121 0.373 0.218 0.754 0.29 1.14a6.59 6.59 0 0 1 0.08 1.6 5.4 5.4 0 0 1-0.08 0.58 s-0.06 0.08 -0.09 0.08 h-1.6l-0.05-0.02zM10.53 8.77l0.24-0.46c0.3-0.55 0.61 -1.09 0.92 -1.64L13.19 4l1.46-2.59c0.185-0.344 0.389 -0.678 0.61 -1a0.8 0.8 0 0 1 0.85-0.41 0.84 0.84 0 0 1 0.62 0.8 1.41 1.41 0 0 1-0.29 0.79 l-1.27 2.3c-0.61 1.11-1.23 2.25-1.85 3.36-0.26 0.48 -0.53 0.96 -0.81 1.44a0.22 0.22 0 0 1-0.15 0.1 h-1.75l-0.08-0.02z" fill="#FFF"/>
  <path d="M22.88 8.79a7.4 7.4 0 0 0 0.32-0.71 1.49 1.49 0 0 0-0.11-1.17 1.61 1.61 0 0 0-1-0.86 1.58 1.58 0 0 0-1.4 0.15 1.05 1.05 0 0 0-0.11 0.07 c-0.09 0.08 -0.13 0-0.18 0-0.25-0.45-0.51-0.89-0.79-1.38 0.24 -0.12 0.46 -0.24 0.69 -0.34a3.22 3.22 0 0 1 1.62-0.22 3.42 3.42 0 0 1 2.88 2.26 3.12 3.12 0 0 1 0.1 1.66 2.36 2.36 0 0 1-0.08 0.4 c0 0.06-0.1 0.14 -0.16 0.14 h-1.78zM11.22 4.42c0 0.08-0.06 0.15 -0.09 0.21 -0.23 0.41 -0.47 0.81 -0.7 1.23a0.19 0.19 0 0 1-0.19 0.1 1.65 1.65 0 0 0-1.55 1 1.57 1.57 0 0 0 0.06 1.57l0.18 0.29 H7.16A0.16 0.16 0 0 1 7 8.67a2.92 2.92 0 0 1-0.16-1.28A3.42 3.42 0 0 1 8.7 4.62a3.3 3.3 0 0 1 1.83-0.34c0.22 0.02 0.47 0.09 0.69 0.14 z" fill="#FFF"/>
</svg>
