<?xml version="1.0" ?>
<svg xmlns="http://www.w3.org/2000/svg" width="44" height="21" viewBox="0 0 44 21">
  <path d="M32.47 0h-7.74a15.84 15.84 0 0 0-7.39 1.82A9.07 9.07 0 0 0 15.89 3C14 4.48 12.14 6 10.26 7.54a0.53 0.53 0 0 1-0.3 0.12 c-1 0.09-2.05 0.13 -3.06 0.28 a11.08 11.08 0 0 0-4.69 1.68 3.51 3.51 0 0 0-1.45 1.69c0 0.1-0.06 0.21 -0.09 0.31 -0.16 0.46 -0.33 0.91 -0.49 1.36a3.49 3.49 0 0 0 1.3 3.94 0.74 0.74 0 0 0 0.39 0.11 h1.77c0.21 0 0.3 0 0.32 0.28 a3.67 3.67 0 0 0 1.92 3 3.75 3.75 0 0 0 5.38-2.08c0.09-0.293 0.15 -0.595 0.18 -0.9 0-0.23 0.09 -0.31 0.32 -0.3h20.55c0.2 0 0.27 0 0.29 0.26 a3.66 3.66 0 0 0 2.59 3.31 3.76 3.76 0 0 0 4.68-2.28 5 5 0 0 0 0.21-1c0-0.23 0.11 -0.29 0.32 -0.28h2.73c0.3 0 0.31 0 0.31-0.3 0-2.93 0-5.87-0.1-8.8 0-1.37-0.26-2.73-0.43-4.09A10.51 10.51 0 0 0 42.14 1a5.21 5.21 0 0 0-0.28-0.52A0.94 0.94 0 0 0 41 0h-8.53zM22.11 4.36v1.18a2 2 0 0 1-0.08 0.6 1.72 1.72 0 0 1-1.64 1.2l-3.25 0.27 -3.05 0.21 a1.63 1.63 0 0 1-0.49-0.05 0.28 0.28 0 0 1-0.21-0.4 2.13 2.13 0 0 1 0.25-0.5 10.48 10.48 0 0 1 3.46-3.23 9 9 0 0 1 4.22-1.22c0.57 0 0.79 0.21 0.79 0.77 0.01 0.39 0 0.81 0 1.17zM7.76 19.42a2.38 2.38 0 0 1-2.43-2.29 2.45 2.45 0 0 1 2.36-2.52A2.39 2.39 0 0 1 10.16 17a2.36 2.36 0 0 1-2.4 2.42zm28.63 0A2.37 2.37 0 0 1 34 17.06a2.41 2.41 0 0 1 4.82 0 2.37 2.37 0 0 1-2.43 2.36z" fill="#FFF"/>
</svg>
