<?xml version="1.0" ?>
<svg xmlns="http://www.w3.org/2000/svg" width="33" height="36" viewBox="0 0 33 36">
  <path d="M21 6.8c2.785 0.78 5.715 0.89 8.55 0.32 2.78-0.51 2.78-0.53 3.14 2.37 0.07 0.6 0.12 1.21 0.14 1.81a5.24 5.24 0 0 1-3.36 5.34 32.42 32.42 0 0 1-15.12 2.5 28.88 28.88 0 0 1-11.09-2.59 4.84 4.84 0 0 1-3.17-4.5 24.42 24.42 0 0 1 0.31-4c0.21-1.35 0.6 -1.48 1.88-0.93 2 0.86 4 1.71 6 2.5a5.69 5.69 0 0 0 2.32 0.33 L8.4 8.2A3.82 3.82 0 0 1 7 3.68c0.12-0.37 0.21 -0.75 0.34 -1.12 0.9 -2.39 0.95 -2.35 3.3-1.43A16.46 16.46 0 0 0 24.49 0.48 c1.68-0.83 2-0.68 2.1 1.21 0.17 2.33-0.23 3.05-2.44 4-0.94 0.43 -1.93 0.69 -3.15 1.11zM32.8 28v3c0 0.75-0.32 1.12-1.1 1.09-0.78-0.03-1.39 0-2.08 0-0.69 0-1.47 0.22 -1.51-0.89 0-0.84-0.15-1.68 1.1-1.78 0.26 0 0.6-0.53 0.69 -0.86a6.11 6.11 0 0 0 0-1.42c0-1.56-0.21-1.7-1.72-1.63-0.8 0-1.05 0.39 -1 1.13 0 1.47-0.05 2.95 0 4.42 0 1.06-0.63 1-1.36 1-0.73 0-1.44 0.06 -1.42-1 0-1.3 0.06 -2.6 0-3.89a6.4 6.4 0 0 0-0.61-2.17c-0.47-1 0.44-1.4 0.92 -1.88a1.32 1.32 0 0 1 1.27 0.08 c0.56 0.45 0.85 0.27 1.49 0.12 a10.9 10.9 0 0 1 4.26-0.07c0.44 0.07 0.88 1.19 1 1.89a15 15 0 0 1 0 2.85l0.07 0.01 zM13.61 22.86h3.38c0.9 0 1.34 0.4 1.19 1.26a22.41 22.41 0 0 1-0.71 2.88c-0.43 1.36-0.9 2.71-1.39 4.06a2.17 2.17 0 0 1-2.8 0.89 1.2 1.2 0 0 1-0.16-1c0.46-1.4 0.94 -2.79 1.5-4.16 0.37 -0.92 0.29 -1.36-0.85-1.29-1.14 0.07 -2.25 0-3.38 0-1 0-1.31-0.39-1.31-1.32s0.29-1.37 1.27-1.33c0.98 0.04 2.17 0 3.26 0v0.01zM8.36 28v2.86c0.08 1.11-0.52 1.25-1.44 1.26-0.92 0.01 -1.47-0.25-1.44-1.3v-4.16c0-0.84-0.33-1.17-1.16-1.14H1.07C-0.02 25.52 0 24.9 0 24.13c0-0.77 0.16 -1.28 1.06-1.27h5.33a1.79 1.79 0 0 1 2 2c0.05 1 0 2.08 0 3.12l-0.03 0.02 z" fill="#FFF"/>
  <path d="M12.34 31.18v3.63c0 1.21-0.68 1.11-1.47 1.11-0.79 0-1.36-0.11-1.34-1.1v-6.48c0-0.95 0.29 -1.66 1.5-1.65 0.93 0 1.35 0.27 1.3 1.26-0.05 0.99 0 2.15 0 3.23h0.01zM22.91 25.68v1.16c0 1.48-0.18 1.59-1.66 1.57-0.9 0-1.24-0.38-1.21-1.25 0.03 -0.87 0.12 -1.48-0.84-1.95-0.29-0.14-0.28-1.2-0.17-1.79 0-0.25 0.71 -0.51 1.11-0.54 2.76-0.17 2.76-0.15 2.77 2.8zM3.08 29.53v0.91C3.05 31.93 2 32.6 0.7 32c-0.14-0.07-0.36-0.22-0.36-0.32a27.6 27.6 0 0 1 0.27-4.08c0.05-0.27 1.11-0.5 1.68-0.46 0.28 0 0.61 0.67 0.75 1.09a4.26 4.26 0 0 1 0 1.29l0.04 0.01 z" fill="#FFF"/>
</svg>
