<?xml version="1.0" ?>
<svg xmlns="http://www.w3.org/2000/svg" width="29" height="32" viewBox="0 0 29 32">
  <path d="M11.08 25c0-0.747 0.02 -1.493 0.06 -2.24 0-1.247 0.033 -2.493 0.1 -3.74v-1.27c0-0.11 0-0.16-0.15-0.15a1.27 1.27 0 0 1-1.29-0.79c-0.53-1.32-1-2.65-1.58-4a1.25 1.25 0 0 1 0.16-1.25C9 10.78 9.51 10 10.07 9.22c0.24-0.34 0.48 -0.68 0.73 -1a3.58 3.58 0 0 1 2.27-1.37 5.82 5.82 0 0 1 2.77 0.15 3.51 3.51 0 0 1 1.9 1.41l2.21 3.12c0.316 0.406 0.377 0.954 0.16 1.42a269.41 269.41 0 0 0-1.53 3.83 1.29 1.29 0 0 1-1.4 0.82 c-0.13 0-0.14 0-0.13 0.14 0 0.43 0 0.86 0.05 1.29 0 1.39 0.09 2.79 0.13 4.18 0.04 1.39 0.1 2.65 0.15 4a1.326 1.326 0 1 1-2.65 0.1 c0-1-0.11-2-0.16-3 0-0.46 0-0.92-0.07-1.38 0-0.68-0.08-1.36-0.11-2-0.03-0.64-0.05-1.14-0.08-1.71a0.3 0.3 0 0 0 0-0.15 0.18 0.18 0 0 0-0.13-0.07 0.17 0.17 0 0 0-0.11 0.09 0.5 0.5 0 0 0 0 0.18c0 0.62 0 1.23-0.07 1.85-0.07 0.62 -0.07 1.32-0.1 2-0.03 0.68 -0.05 1.11-0.07 1.67 0 0.93-0.07 1.87-0.13 2.8a1.11 1.11 0 0 1-0.8 1 1.4 1.4 0 0 1-1.43-0.24 1.14 1.14 0 0 1-0.4-1c0-0.74 0.02 -1.483 0.06 -2.23l-0.05-0.12zm5.69-13.53v2.86a0.37 0.37 0 0 0 0.11-0.15c0.21-0.52 0.42 -1 0.62-1.56a0.24 0.24 0 0 0 0-0.19c-0.19-0.28-0.39-0.56-0.58-0.83a1.23 1.23 0 0 0-0.15-0.15v0.02zm-5.17 2.87v-2.87a0.58 0.58 0 0 0-0.1 0.08 c-0.21 0.29 -0.42 0.58 -0.62 0.88 a0.23 0.23 0 0 0 0 0.18c0.13 0.34 0.26 0.68 0.4 1l0.32 0.73 z" fill="#FFF"/>
  <path d="M4.54 18.13l-0.3 0.12 a1.13 1.13 0 0 1-1.44-0.81c-0.227-0.96-0.453-1.933-0.68-2.92-0.05-0.22-0.12-0.44-0.18-0.66a1.28 1.28 0 0 1 0.14-1.09 346.085 346.085 0 0 0 2.28-3.72 3 3 0 0 1 2.3-1.48A3.12 3.12 0 0 1 9 8.22c0.12 0.09 0.13 0.16 0 0.29-0.56 0.78 -1.11 1.56-1.66 2.35a2.37 2.37 0 0 0-0.34 1.9c0.076 0.304 0.176 0.602 0.3 0.89 0.467 1.213 0.943 2.423 1.43 3.63 0.144 0.398 0.401 0.746 0.74 1a0.38 0.38 0 0 1 0.17 0.32 c0.04 0.84 0.083 1.677 0.13 2.51 0 0.65 0.11 1.3 0.11 2 0 1 0 2-0.06 3a0.38 0.38 0 0 1-0.1 0.21 1.25 1.25 0 0 1-1.72 0.09 1.15 1.15 0 0 1-0.47-0.83 138.69 138.69 0 0 1-0.11-1.66c0-0.73-0.08-1.45-0.11-2.18 0-0.43 0-0.86-0.06-1.29-0.06-0.43 0-1.13-0.08-1.7a0.94 0.94 0 0 0-0.08-0.24 0.94 0.94 0 0 0-0.08 0.23 c-0.05 0.67 -0.09 1.34-0.14 2-0.05 0.66 -0.11 1.15-0.16 1.72-0.05 0.57 -0.1 1.18-0.14 1.77 0 0.43 0 0.86-0.09 1.28a1.2 1.2 0 0 1-0.89 1.09 1.22 1.22 0 0 1-1.34-0.44 1.17 1.17 0 0 1-0.25-0.82c0.07-1 0.13-2 0.21-3 0.08-1 0.15-1.75 0.22 -2.63 0-0.47 0.05 -0.95 0.08 -1.42 0.04 -0.04 0.04 -0.08 0.03 -0.16zM4.63 13h-0.06l-0.31 0.58 v0.06l0.29 1.27v0.06L4.63 13zM21.23 18.52a1.86 1.86 0 0 0 0 0.21c0 0.35 0 0.7-0.07 1 0 0.72-0.06 1.43-0.1 2.15-0.05 1.09-0.1 2.18-0.16 3.27a2.48 2.48 0 0 1-0.11 0.65 1.23 1.23 0 0 1-2.08 0.42 0.44 0.44 0 0 1-0.1-0.26c0-0.83-0.07-1.66-0.09-2.48 0-0.39 0-0.78 0.05 -1.16 0-0.86 0.1 -1.71 0.15 -2.57 0-0.4 0.02 -0.8 0.06 -1.2a0.4 0.4 0 0 1 0.17-0.33 2.63 2.63 0 0 0 0.83-1.19c0.493-1.253 0.99 -2.5 1.49-3.74a2.55 2.55 0 0 0-0.35-2.59L19.3 8.48c-0.08-0.11-0.06-0.18 0-0.26a3.14 3.14 0 0 1 2.36-0.64 3 3 0 0 1 2.14 1.2c0.29 0.39 0.52 0.83 0.78 1.25l1.5 2.44a6 6 0 0 1 0.32 0.57 1.36 1.36 0 0 1 0 0.95l-0.6 2.46c-0.09 0.38 -0.17 0.77 -0.29 1.14a1.1 1.1 0 0 1-1.51 0.61 c-0.15-0.07-0.18-0.06-0.17 0.1 0 0.81 0.1 1.62 0.16 2.43 0 0.62 0.1 1.25 0.15 1.87 0.05 0.62 0.11 1.36 0.16 2a6.18 6.18 0 0 1 0 1 1.23 1.23 0 0 1-2.42 0.07 c-0.07-0.45-0.08-0.9-0.12-1.36-0.05-0.65-0.1-1.3-0.16-1.95l-0.24-2.81c0-0.3 0-0.6-0.07-0.91a0.94 0.94 0 0 0 0-0.15l-0.06 0.03 zM23.76 15a7.64 7.64 0 0 1 0.2-0.82 1 1 0 0 0-0.16-1l-0.04-0.18v2z" fill="#FFF"/>
  <path d="M25.48 23.59l0.32 0.13 a5.75 5.75 0 0 1 2.05 1.42 1.92 1.92 0 0 1 0.15 2.54A4.72 4.72 0 0 1 26.31 29a12.29 12.29 0 0 1-2.82 1c-0.68 0.17 -1.36 0.33 -2.05 0.46 -0.69 0.13 -1.57 0.24 -2.35 0.33 -0.78 0.09 -1.72 0.16 -2.58 0.23 H12.7c-0.89 0-1.79-0.1-2.68-0.17-0.61 0-1.22-0.12-1.82-0.2-0.6-0.08-1.2-0.14-1.83-0.27-0.78-0.17-1.56-0.38-2.37-0.59a8.88 8.88 0 0 1-2.88-1.38 3 3 0 0 1-1-1.25 1.86 1.86 0 0 1 0.33-1.91A4.58 4.58 0 0 1 2 24c0.26-0.14 0.53 -0.26 0.8 -0.39s0.15 0 0.14 0.1 c0 0.42-0.05 0.84 -0.08 1.26a0.27 0.27 0 0 1-0.16 0.25 c-0.23 0.12 -0.44 0.26 -0.66 0.4 a1.73 1.73 0 0 0-0.28 0.24 0.76 0.76 0 0 0 0 1.23 5 5 0 0 0 1.61 0.91 c0.946 0.381 1.928 0.67 2.93 0.86 0.93 0.18 1.86 0.34 2.79 0.47 0.93 0.13 1.64 0.16 2.46 0.2 0.82 0.04 1.91 0.09 2.86 0.08 1.11 0 2.21-0.07 3.32-0.14 0.82 -0.05 1.63-0.15 2.44-0.26 0.62 -0.08 1.24-0.22 1.86-0.34a16.74 16.74 0 0 0 2.5-0.68 6.93 6.93 0 0 0 1.83-0.89 2.22 2.22 0 0 0 0.36-0.33 0.7 0.7 0 0 0 0-1 3 3 0 0 0-1-0.72 0.26 0.26 0 0 1-0.17-0.25c0-0.41 0-0.83-0.07-1.24-0.01-0.04 0-0.08 0-0.17zM14.21 0a3.1 3.1 0 0 1 3.12 3.13 3.13 3.13 0 0 1-6.25 0A3.09 3.09 0 0 1 14.21 0zM24 4.28a2.755 2.755 0 1 1-5.51 0.09 A2.755 2.755 0 0 1 24 4.28zM4.42 4.29a2.75 2.75 0 1 1 2.81 2.77 2.74 2.74 0 0 1-2.81-2.77z" fill="#FFF"/>
</svg>
