<?xml version="1.0" ?>
<svg xmlns="http://www.w3.org/2000/svg" width="36" height="32" viewBox="0 0 36 32">
  <path d="M10.63 10.84l-1.15 0.94 -1.77 1.49a1.38 1.38 0 0 1-1.4 0.19 c-1.14-0.38-2.28-0.76-3.42-1.16a35.16 35.16 0 0 1-2-0.77 1.33 1.33 0 0 1-0.87-1 0.83 0.83 0 0 1 0-0.44 1.13 1.13 0 0 1 1.45-0.59l3 0.93c0.52 0.15 1 0.28 1.57 0.43 a0.26 0.26 0 0 0 0.27-0.1c1.21-1.19 2.38-2.38 3.57-3.54a5.52 5.52 0 0 1 2.4-1.39 2.38 2.38 0 0 1 0.7 0 16.78 16.78 0 0 1 3 0.62c0.71 0.15 1.41 0.33 2.12 0.5 l2.43 0.6 1 0.23a0.78 0.78 0 0 1 0.65 0.88 c-0.13 1.36-0.24 2.72-0.38 4.08-0.05 0.52 -0.12 1-0.2 1.56a0.87 0.87 0 0 1-0.9 0.82 0.82 0.82 0 0 1-0.75-0.58 2.8 2.8 0 0 1-0.19-1.07v-3.43c0-0.18-0.07-0.23-0.23-0.26l-2.08-0.32-1.66-0.25h-0.16c0.08 0.28 0.14 0.54 0.22 0.8 0.32 1 0.63 2.09 1 3.14 0.26 0.83 0.54 1.65 0.8 2.48a2.65 2.65 0 0 1-0.62 2.74 4 4 0 0 1-1 0.77l-2.74 1.54c-0.65 0.37 -1.28 0.75 -1.94 1.1a0.79 0.79 0 0 0-0.41 0.95 c0.17 0.85 0.36 1.7 0.54 2.55l0.53 2.5c0.14 0.68 0.29 1.36 0.42 2a1.27 1.27 0 0 1-0.14 0.87 0.81 0.81 0 0 1-0.58 0.41 1 1 0 0 1-1.19-0.61 7.26 7.26 0 0 1-0.49-1.21c-0.31-0.93-0.59-1.88-0.88-2.82l-0.79-2.57c-0.2-0.65-0.39-1.3-0.6-1.95a2.18 2.18 0 0 1 0.72-2.2c1.15-0.84 2.29-1.72 3.43-2.58a1.8 1.8 0 0 0 0.68-0.72 1.73 1.73 0 0 0 0-1.39l-1.71-4-0.25-0.17z" fill="#FFF"/>
  <path d="M15.57 20.36l1-0.56 0.76 -0.44a1.77 1.77 0 0 0 1-1.33c0.06 0.12 0.11 0.21 0.15 0.31 l1.62 4.06a0.4 0.4 0 0 0 0.23 0.25 l5 2.06a6.17 6.17 0 0 1 1.48 0.77 2 2 0 0 1 0.7 0.84 1 1 0 0 1-1 1.43 3.6 3.6 0 0 1-0.71-0.22l-3.65-1.28-3.68-1.3-0.26-0.09a0.87 0.87 0 0 1-0.53-0.44l-2.07-4a0.47 0.47 0 0 1-0.04-0.06zM11.12 5.62A2.8 2.8 0 0 1 8.24 2.9a2.811 2.811 0 0 1 5.62-0.18 2.79 2.79 0 0 1-2.74 2.9zM29.3 12.12h-5.12A0.92 0.92 0 0 1 24 10.3H34.41a0.923 0.923 0 0 1 0.25 1.83H29.3v-0.01zM28.19 15.7h-4a0.9 0.9 0 0 1-0.84-0.48 0.92 0.92 0 0 1 0.83-1.37h8.08a0.93 0.93 0 0 1 0.79 1.477 0.92 0.92 0 0 1-0.74 0.373 h-4.12zM26.17 17.36h3.51a0.93 0.93 0 0 1 0.9 0.68 0.91 0.91 0 0 1-0.51 1.08 1.09 1.09 0 0 1-0.43 0.09 h-7a0.94 0.94 0 0 1-1-0.78 0.93 0.93 0 0 1 0.67-1 1.19 1.19 0 0 1 0.34 0l3.52-0.07z" fill="#FFF"/>
</svg>
