<?xml version="1.0" ?>
<svg xmlns="http://www.w3.org/2000/svg" width="27" height="36" viewBox="0 0 27 36">
  <path d="M15.62 25.13v10.2c0 0.35-0.07 0.42 -0.42 0.42 h-3.61c-0.35 0-0.42-0.07-0.42-0.42V14.94c0-0.32-0.1-0.42-0.42-0.42H0.29a0.27 0.27 0 0 1-0.29-0.29v-3.88c0-0.19 0.13 -0.29 0.35 -0.29h10.44c0.27 0 0.37-0.11 0.37 -0.38V0.43c0-0.36 0.06 -0.42 0.42 -0.42C12.78 0 14 0 15.18 0c0.36 0 0.45 0.14 0.45 0.44 v9.2a0.38 0.38 0 0 0 0.43 0.43 H26.4c0.3 0 0.39 0.1 0.39 0.4 v3.67c0 0.31-0.09 0.39 -0.4 0.39 H16c-0.27 0-0.38 0.11 -0.38 0.38 v10.22z" fill="#FFF"/>
</svg>
