<?xml version="1.0" ?>
<svg xmlns="http://www.w3.org/2000/svg" width="40" height="36" viewBox="0 0 40 36">
  <path d="M14.62 2.37v-0.86A1.35 1.35 0 0 1 15.69 0.08 1.63 1.63 0 0 1 17 0.19c0.51 0.22 0.829 0.735 0.8 1.29v0.86l0.77 0.09 c0.5 0.07 1 0.12 1.49 0.2 0.49 0.08 1 0.2 1.54 0.33 s1.1 0.28 1.63 0.46 A17 17 0 0 1 26.58 5a13.86 13.86 0 0 1 3.5 2.93 9.86 9.86 0 0 1 1.68 2.69c0.216 0.516 0.403 1.043 0.56 1.58a0.82 0.82 0 0 1-0.58 1.15 1.14 1.14 0 0 1-0.66 0c-0.46-0.11-0.91-0.28-1.37-0.41a12.21 12.21 0 0 0-1.33-0.31 9.87 9.87 0 0 0-1.44-0.11 6.84 6.84 0 0 0-3.23 0.77 c-0.3 0.16 -0.56 0.37 -0.85 0.53 a1 1 0 0 1-0.88 0c-0.67-0.25-1.33-0.49-2-0.71-0.42-0.13-0.85-0.23-1.29-0.32-0.29-0.06-0.6-0.08-0.93-0.13v14.73c0 0.29 0 0.29-0.32 0.29 h-2.52c-0.3 0-0.3 0-0.3-0.26V12.65c-0.28 0-0.53 0-0.77 0.1 -0.52 0.12 -1 0.24-1.55 0.41 a6.4 6.4 0 0 0-1.87 0.87 c-0.4 0.32 -0.97 0.32 -1.37 0a5.45 5.45 0 0 0-1.82-0.76 7.29 7.29 0 0 0-2.55-0.14 7 7 0 0 0-1.86 0.4 c-0.49 0.2 -1 0.38-1.48 0.56 a1 1 0 0 1-1.35-0.7 1.18 1.18 0 0 1 0-0.56A17.23 17.23 0 0 1 0.63 11a10.81 10.81 0 0 1 0.91-1.71 13 13 0 0 1 4.1-4 16.8 16.8 0 0 1 3.29-1.64c0.73-0.25 1.48-0.46 2.22-0.68a12.51 12.51 0 0 1 2.29-0.43c0.39-0.04 0.78 -0.11 1.18-0.17z" fill="#FFF"/>
  <path d="M26.65 32.64c0.33 0.39 0.62 0.75 0.93 1.1a1 1 0 0 1-0.51 1.63A1.37 1.37 0 0 1 25.7 35l-1.89-2.2a0.39 0.39 0 0 0-0.34-0.15h-9.34a0.37 0.37 0 0 0-0.33 0.15 c-0.61 0.71 -1.23 1.42-1.84 2.14a1.35 1.35 0 0 1-1.34 0.46 1.07 1.07 0 0 1-0.84-1.1 1.26 1.26 0 0 1 0.32-0.64c0.25-0.28 0.48 -0.56 0.72 -0.84l0.11-0.16H6.46a2 2 0 0 1-2-1.13 1.56 1.56 0 0 1 0.54-1.9 2.13 2.13 0 0 1 1.42-0.44h13.66a0.5 0.5 0 0 0 0.44-0.21c0.65-0.81 1.32-1.6 2-2.4 0.21 -0.25 0.42 -0.5 0.62 -0.77a0.4 0.4 0 0 1 0.37-0.17h8a0.59 0.59 0 0 0 0.48-0.21c0.76-0.83 1.53-1.65 2.3-2.48 0.51 -0.55 1-1.11 1.54-1.66a1.91 1.91 0 0 1 1.37-0.59 2 2 0 0 1 1.74 0.74 1.57 1.57 0 0 1-0.13 2.08l-2.45 2.64-2.38 2.58-2.79 3c-0.22 0.24 -0.45 0.47 -0.66 0.72 a0.44 0.44 0 0 1-0.38 0.16 h-3.5v0.02zm-3.37-3.48H28.35a0.25 0.25 0 0 0 0.18-0.08c0.27-0.27 0.53 -0.56 0.79 -0.84l0.48-0.52h-5.21a0.41 0.41 0 0 0-0.23 0.11 c-0.17 0.2 -0.33 0.4 -0.49 0.61 l-0.59 0.72 z" fill="#FFF"/>
</svg>
