<?xml version="1.0" ?>
<svg xmlns="http://www.w3.org/2000/svg" width="44" height="32" viewBox="0 0 44 32">
  <path d="M10.65 16.67l-0.26 0.18 c-0.34 0.29 -0.68 0.58 -1 0.88-0.14 0.14 -0.23 0.12 -0.33 0-0.29-0.42-0.56-0.84-0.85-1.24-0.15-0.2-0.1-0.31 0.08 -0.46l2.61-2.18 7-5.84c1.23-1 2.47-2 3.69-3.09a0.37 0.37 0 0 1 0.57 0l5.91 5 6.67 5.56 0.74 0.62a0.23 0.23 0 0 1 0.06 0.36 c-0.31 0.42 -0.59 0.85 -0.88 1.28-0.1 0.14 -0.19 0.18 -0.34 0-0.32-0.32-0.67-0.61-1-0.9a1.83 1.83 0 0 0-0.32-0.2v8.46c0 0.73-0.2 0.79 -0.82 0.8 H11.54a2.07 2.07 0 0 1-0.35 0 0.45 0.45 0 0 1-0.46-0.52v-8.67l-0.08-0.04zm9.12 4.14h1c0.2 0 0.28-0.08 0.28 -0.27v-1.92c0-0.18-0.08-0.27-0.25-0.27h-2a0.24 0.24 0 0 0-0.26 0.27 v1.94c0 0.18 0.08 0.26 0.26 0.26l0.97-0.01zm0-5.72h-1c-0.18 0-0.26 0.07 -0.26 0.25 v1.92c0 0.19 0.07 0.26 0.25 0.26h2c0.17 0 0.26-0.06 0.26 -0.25v-1.92c0-0.2-0.09-0.27-0.29-0.26h-0.96zm5.36 1.21v-1c0-0.35-0.07-0.24-0.24-0.24h-2c-0.16 0-0.23 0.07 -0.23 0.22 v2a0.29 0.29 0 0 0 0.2 0.2 h2c0.18 0 0.23-0.09 0.23 -0.25 0.06 -0.23 0.06 -0.61 0.06 -0.93h-0.02zm-1.31 4.51h1c0.19 0 0.25-0.07 0.25 -0.25v-2c0-0.15-0.05-0.24-0.21-0.24h-2c-0.17 0-0.22 0.1 -0.22 0.26 v2c0 0.16 0.06 0.24 0.23 0.23h0.95z" fill="#FFF"/>
  <path d="M34.33 22.89h2.59c0.06 0 0.14 0.08 0.19 0.14 l4.24 5.51 2.13 2.75c0.06 0.08 0.11 0.17 0.2 0.31 H0l0.58-0.8L5.05 25c0.51-0.65 1-1.31 1.53-2a0.34 0.34 0 0 1 0.21-0.15h2.55v2.53a1.85 1.85 0 0 0 1.75 1.83h21.13a2 2 0 0 0 1.78-0.73 1.49 1.49 0 0 0 0.33-0.94v-2.65zM8.09 15a2.15 2.15 0 0 1-0.09-0.32v-3a0.61 0.61 0 0 1 0.25-0.51L15 5.59C17.21 3.77 19.41 2 21.59 0.12 a0.35 0.35 0 0 1 0.53 0l3.1 2.59 5.92 4.92C32.57 8.83 34 10 35.43 11.2a0.65 0.65 0 0 1 0.25 0.54 v3a1 1 0 0 1-0.05 0.24 1.33 1.33 0 0 1-0.24-0.11l-5-4.14-4.79-4.07c-1.17-1-2.34-1.94-3.5-2.92a0.33 0.33 0 0 0-0.51 0 667.136 667.136 0 0 1-5.21 4.36 363.06 363.06 0 0 1-6.86 5.74L8.09 15z" fill="#FFF"/>
</svg>
