<?xml version="1.0" ?>
<svg xmlns="http://www.w3.org/2000/svg" width="26" height="36" viewBox="0 0 26 36">
  <path d="M8.33 35.59c-0.13 0-0.28-0.08-0.43-0.14-0.62-0.28-1.26-0.55-1.87-0.86a10.79 10.79 0 0 1-2.2-1.49 18 18 0 0 1-1.4-1.36A8 8 0 0 1 1.23 30c-0.23-0.48-0.43-0.92-0.6-1.38a12.19 12.19 0 0 1-0.34-1.22A10.83 10.83 0 0 1 0 24.14a14.36 14.36 0 0 1 0.19-1.59 14 14 0 0 1 0.31-1.43c0.13-0.47 0.3 -0.93 0.47 -1.39 0.17 -0.46 0.33 -0.87 0.52 -1.29 0.19 -0.42 0.49 -1.05 0.76 -1.57 0.36 -0.69 0.73 -1.37 1.11-2.05 0.38 -0.68 0.71 -1.18 1.06-1.77 0.35 -0.59 0.84 -1.38 1.23-2.05 0.39 -0.67 0.81 -1.42 1.19-2.15 0.38 -0.73 0.8 -1.65 1.16-2.47 0.28 -0.61 0.53 -1.24 0.77 -1.87 0.24 -0.63 0.42 -1.19 0.6 -1.8 0.18 -0.61 0.44 -1.45 0.63 -2.17 0-0.13 0.05 -0.27 0.08 -0.4a1.21 1.21 0 0 1 0.07-0.14 0.41 0.41 0 0 1 0.15 0.07 l1.14 1.07c0.91 0.88 1.82 1.75 2.71 2.64 0.74 0.74 1.46 1.5 2.17 2.27s1.35 1.44 2 2.2c0.65 0.76 1.44 1.75 2.13 2.75 0.53 0.7 1 1.43 1.48 2.17s0.82 1.43 1.19 2.16c0.37 0.73 0.6 1.28 0.86 1.93 0.26 0.65 0.4 1.07 0.56 1.61 0.16 0.54 0.26 1.1 0.38 1.66 0.12 0.56 0.19 1 0.26 1.46 0.041 0.248 0.068 0.499 0.08 0.75 0 1 0.08 1.93 0 2.9a9.06 9.06 0 0 1-0.31 2 11.75 11.75 0 0 1-0.75 2.16c-0.33 0.71 -0.74 1.381-1.22 2a11 11 0 0 1-1.72 1.82 10.27 10.27 0 0 1-3.91 2l-0.83 0.2 h-0.18l0.39-0.32a9.34 9.34 0 0 0 1.69-1.75 11.91 11.91 0 0 0 1.26-2c0.26-0.54 0.47 -1.11 0.68 -1.68 0.13 -0.34 0.24 -0.7 0.34 -1.06 0.1 -0.36 0.11 -0.49 0.15 -0.73 0.19 -0.988 0.264 -1.995 0.22 -3a11.08 11.08 0 0 0-0.26-2.14c-0.12-0.52-0.23-1-0.4-1.56s-0.43-1.17-0.67-1.75a14.15 14.15 0 0 0-1.09-2A16.94 16.94 0 0 0 17 15.41c-0.6-0.67-1.21-1.33-1.83-2-0.32-0.34-0.68-0.63-1.05-1v0.23c0.05 0.73 0.12 1.45 0.14 2.18a15.92 15.92 0 0 1-0.07 1.69c0 0.44-0.12 0.88 -0.2 1.31-0.08 0.43 -0.19 1.05-0.31 1.57-0.07 0.3 -0.17 0.58 -0.26 0.87 -0.09 0.29 -0.23 0.78 -0.38 1.15-0.27 0.69 -0.56 1.38-0.88 2.05-0.22 0.48 -0.5 0.93 -0.75 1.4l-0.11 0.14 a8.46 8.46 0 0 0-2.82-5.56c-0.06 0.16 -0.1 0.31 -0.15 0.45 -0.19 0.56 -0.36 1.14-0.57 1.7-0.21 0.56 -0.37 0.94 -0.58 1.4-0.21 0.46 -0.57 1.16-0.83 1.75-0.26 0.59 -0.51 1.14-0.72 1.72a9 9 0 0 0-0.4 1.63 11.32 11.32 0 0 0-0.13 1.74c0.011 0.407 0.078 0.811 0.2 1.2a8.21 8.21 0 0 0 1.85 3.26c0.36 0.48 0.78 0.89 1.18 1.3z" fill="#FFF"/>
</svg>
