<?xml version="1.0" ?>
<svg xmlns="http://www.w3.org/2000/svg" width="35" height="36" viewBox="0 0 35 36">
  <path d="M5.69 10.24c0.06-2.85 0.38 -5.84 2.75-7.63S15-0.11 17.91 0c2.91 0.11 9 1.15 10 4.5a31.49 31.49 0 0 1 0.95 7.82 2.28 2.28 0 0 0 1.81 1.9 5.25 5.25 0 0 1 3.78 5c0.1 2.91-1.73 9.11-2.36 11.32-0.63 2.21-1.48 3.86-3 4.34S10 35.29 10 35.29s-3.19 0.15 -4.47-0.66c-1.28-0.81-2.83-3-3.82-6.23C0.72 25.17-0.28 23 0.07 19.82c0.31-2.75 1-4.25 3.54-5.32 0.84 -0.34 1.76-2.39 1.76-2.39l0.32-1.87z" fill="#FFF"/>
  <path d="M7.41 23.51s0 4.42 4.09 5.46 11.66 1 11.66 1" fill="none" stroke-width="1" stroke="#00D351"/>
</svg>
