<?xml version="1.0" ?>
<svg xmlns="http://www.w3.org/2000/svg" width="44" height="18" viewBox="0 0 44 18">
  <path d="M38.35 6.76a5.2 5.2 0 0 0-0.51-0.53 1 1 0 0 0-1.67 0.58 2.89 2.89 0 0 0-0.08 0.72 v5c-0.04 0.284 0.008 0.575 0.14 0.83 0.3 0.32 0.74 0.76 1.08 0.73 0.34-0.03 0.73 -0.51 1-0.89s0.06-0.63 0.06 -1V9.51c0.07-1.23 0.79 -2 1.77-1.92 0.83 0 1.23 0.58 1.27 1.89v3.3c0 0.67 0.22 1.26 1 1.32a1 1 0 0 0 1.17-1.1c0-1.7 0-3.41-0.13-5.11A2.19 2.19 0 0 0 41.61 6a4.07 4.07 0 0 0-3.26 0.76 zM25.6 5.09h2.52c0.56 0 1.07-0.3 1.05-1-0.02-0.7-0.47-0.91-1.07-0.95H21.38a1.77 1.77 0 0 0-0.84 0.07 c-0.32 0.19 -0.78 0.53 -0.77 0.79 0.071 0.416 0.32 0.78 0.68 1 0.38 0.143 0.787 0.195 1.19 0.15 1.64 0 1.64 0 1.64 1.71v5.87c0 1 0.48 1.51 1.24 1.47 0.76 -0.04 1-0.51 1.06-1.51 0.06 -1 0-1.79 0-2.69l0.02-4.91zM17.76 8.68a8.72 8.72 0 0 1-8.93 8.66A8.67 8.67 0 1 1 8.86 0a8.66 8.66 0 0 1 8.9 8.68zm-6.62-5a5 5 0 0 0-5.22 5A5 5 0 0 0 11 13.71a5 5 0 0 0 5.21-5 4.92 4.92 0 0 0-5.07-5.06v0.03zm-8 4.82c0 0.37 0.06 0.61 0.07 0.85v3.07a1.22 1.22 0 0 0 1 1.37 2 2 0 0 0 1.44-0.32c0.56-0.43 0.44 -1.08 0.1 -1.67a5.46 5.46 0 0 1-0.44-0.87 5.8 5.8 0 0 1 0.42-5.29 1.37 1.37 0 0 0-0.19-1.88 1.26 1.26 0 0 0-1.78 0.14 23.8 23.8 0 0 0-2.27 2.2 1.36 1.36 0 0 0 0.86 2.32c0.272 0.035 0.546 0.052 0.82 0.05 l-0.03 0.03 z" fill="#FFF"/>
  <path d="M29.35 10.59c0.43 2 1.72 2.58 3.2 1.68 0.35 -0.21 0.62 -0.58 1-0.71a1.39 1.39 0 0 1 1.08 0c0.16 0.09 0.13 0.65 0.05 1a1.6 1.6 0 0 1-0.5 0.67 5 5 0 0 1-5.2 0.44 4.22 4.22 0 0 1-1.89-4.43 3.64 3.64 0 0 1 2.45-3.09 4.16 4.16 0 0 1 4.26 0.66 c0.398 0.347 0.715 0.777 0.93 1.26 0.73 1.64 0.17 2.48-1.63 2.51-1.22 0.03 -2.43 0.01 -3.75 0.01 zm3.4-1.29c-0.31-1.42-0.83-1.91-1.76-1.83-0.93 0.08 -1.38 0.63 -1.46 1.83h3.22zM38.35 6.76A4.07 4.07 0 0 1 41.61 6a2.19 2.19 0 0 1 1.84 1.9c0.15 1.7 0.15 3.41 0.13 5.11a1 1 0 0 1-1.17 1.14c-0.76-0.06-1-0.65-1-1.32v-3.3c0-1.31-0.44-1.86-1.27-1.89-1 0-1.7 0.69 -1.77 1.92-0.06 0.9 0 1.8 0 2.69 0 0.33 0.09 0.72-0.06 1s-0.61 0.87 -1 0.89c-0.39 0.02 -0.78-0.41-1.08-0.73a1.38 1.38 0 0 1-0.14-0.83v-5a2.89 2.89 0 0 1 0.08-0.72 1 1 0 0 1 1.67-0.58 5.2 5.2 0 0 1 0.51 0.48 z" fill="#FFF"/>
  <path d="M25.6 5.09v7.6c0 0.89-0.37 1.47-1.06 1.51-0.69 0.04 -1.23-0.46-1.24-1.47V6.86c0-1.69 0-1.68-1.64-1.71A2.57 2.57 0 0 1 20.45 5a1.46 1.46 0 0 1-0.68-1c0-0.26 0.45 -0.6 0.77 -0.79 0.27 -0.09 0.558 -0.115 0.84 -0.07H28.1c0.6 0 1 0.31 1.07 0.95 0.07 0.64 -0.49 0.93 -1.05 1-0.76 0.04 -1.53 0-2.52 0zM8.05 8.72a3 3 0 1 1 5.997-0.18 3 3 0 0 1-5.997 0.18 z" fill="#FFF"/>
</svg>
