<?xml version="1.0" ?>
<svg xmlns="http://www.w3.org/2000/svg" width="34" height="36" viewBox="0 0 34 36">
  <path d="M10.94 13.4l0.82-0.83a0.44 0.44 0 0 0 0.08-0.15l0.48-1.42c0.21-0.62 0.43 -1.23 0.64 -1.85 0.21 -0.62 0.43 -1.27 0.66 -1.9a0.49 0.49 0 0 0-0.13-0.63c-0.65-0.61-1.27-1.26-1.89-1.89a0.31 0.31 0 0 0-0.4-0.08l-1 0.34c-0.61 0.22 -1.24 0.42 -1.85 0.63 l-2.12 0.73 a1.39 1.39 0 0 0-0.7 0.41 3.33 3.33 0 0 1-0.42 0.42 c-0.13 0.12 -0.12 0.18 0 0.31 1.633 1.64 3.263 3.27 4.89 4.89 0.3 0.32 0.61 0.67 0.94 1.02zm0.53 15.37h0.82a0.35 0.35 0 0 0 0.29-0.13l8.77-9c0.13-0.13 0.35 -0.27 0.34 -0.39-0.01-0.12-0.23-0.27-0.34-0.41-0.11-0.14-0.2-0.1-0.3 0l-8.79 9c-0.26 0.36 -0.52 0.65 -0.79 0.93 zm1.79 0h0.81a0.52 0.52 0 0 0 0.43-0.18l4-4 4.13-4.17c0.12-0.11 0.13 -0.19 0-0.3a1.54 1.54 0 0 1-0.26-0.25c-0.1-0.13-0.19-0.11-0.3 0l-8.65 8.73-0.16 0.17 zm3.53 0.32 H9V30c0 0.26 0.07 0.34 0.34 0.33a8.72 8.72 0 0 0 1.35-0.06 4.67 4.67 0 0 1 0.91 0.05 c0.45 0.028 0.903 0.012 1.35-0.05a5 5 0 0 1 0.94 0.05 7 7 0 0 0 1.37-0.05c0.262-0.07 0.538 -0.07 0.8 0 0.289 0.04 0.581 0.04 0.87 0h0.46v-0.4h-0.58l-0.02-0.78zM13.51 8.51a5.81 5.81 0 0 1-0.2 0.56 0.2 0.2 0 0 0 0.07 0.3 l2.55 2.19 5.87 5c0.41 0.35 0.3 0.32 0.65 0 0.35-0.32 0.26 -0.27 0-0.5-1.42-1.21-2.84-2.4-4.26-3.6L14.5 9.39l-0.99-0.88zm9.7 11.85l0.16-0.13c0.6-0.6 1.19-1.2 1.79-1.79 0.13 -0.12 0.12 -0.2 0-0.31-0.6-0.59-1.19-1.19-1.78-1.78l-0.18-0.15c-0.65 0.67 -1.3 1.32-1.95 2a0.14 0.14 0 0 0 0 0.22l0.64 0.64 1.32 1.3zm-2.08-2.48l0.43-0.42c0.12-0.11 0.13 -0.17 0-0.29l-2.21-1.82c-0.91-0.76-1.83-1.5-2.73-2.26l-3.45-2.91L13 10a4 4 0 0 1-0.17 0.49 c-0.12 0.21 0 0.33 0.13 0.46 0.66 0.54 1.29 1.09 1.94 1.63l4.64 3.91 1.59 1.39zM9.22 33.7v-1.38c0-0.15-0.07-0.24-0.2-0.25-0.13-0.01-0.2 0.09 -0.19 0.24 v3.18c0 0.14 0 0.24 0.19 0.23 0.19 -0.01 0.2 -0.1 0.2 -0.24V34.4c0-0.36 0-0.3 0.29 -0.3h6.85c0.14 0 0.2 0.06 0.19 0.21 v1.16c0 0.14 0 0.26 0.2 0.25 0.2 -0.01 0.19 -0.12 0.19 -0.25v-3.13c0-0.16-0.06-0.26-0.19-0.27-0.13-0.01-0.2 0.11 -0.2 0.25 v1.13c0 0.25 0 0.25-0.25 0.25 H9.22zM30.86 19h2.21c0.18 0 0.28-0.11 0.22 -0.26-0.06-0.15-0.16-0.12-0.26-0.12h-4.35-0.11c-0.03 0-0.14 0.12 -0.15 0.19 -0.01 0.07 0.11 0.2 0.24 0.2 0.73-0.01 1.47-0.01 2.2-0.01zM14 5.53a0.36 0.36 0 0 0-0.05-0.09l-1-1a0.19 0.19 0 0 0-0.16 0c-0.15 0.13 -0.29 0.28 -0.43 0.42 -0.14 0.14 -0.07 0.13 0 0.21l1 1c0.1 0.09 0.16 0.09 0.25 0l0.37-0.38s-0.04-0.13 0.02 -0.16zm16.4-2.3h0.53c0.17 0 0.15-0.1 0.15 -0.21 0-0.11 0-0.23-0.16-0.22h-1.08c-0.15 0-0.18 0.08 -0.18 0.2 0 0.12 0 0.24 0.17 0.23 0.17 -0.01 0.18 0.07 0.18 0.2v1c0 0.15 0 0.21 0.2 0.21s0.19-0.07 0.19 -0.22c-0.04-0.42-0.03-0.77-0.03-1.19h0.03zm-4.43 0.45 v-0.1c0-0.34 0-0.34 0.37 -0.35 0.12 0 0.16 0 0.17-0.16 0.01 -0.16 0-0.27-0.25-0.27s-0.26 0-0.26-0.28 0-0.26-0.26-0.25h-0.13v0.53h-0.34c-0.16 0-0.13 0.13 -0.13 0.22 s0 0.21 0.13 0.21h0.34v0.45h0.36zm-0.83 26.65h0.2c0.26 0 0.26 0 0.26 0.27 v0.32a0.21 0.21 0 0 0 0.07 0.13 c0.19 0.08 0.31 0 0.32-0.22v-0.17c0-0.33 0-0.34 0.32 -0.33 0.16 0 0.23 0 0.23-0.2s-0.08-0.19-0.22-0.19c-0.32 0-0.3 0.07 -0.35-0.29h-0.36v0.29h-0.44l-0.03 0.39 zM16.69 2.8h-0.6c-0.18 0.01 -0.09 0.2 -0.09 0.2 s0 0.19 0.12 0.19h1.17c0.16 0 0.13-0.11 0.13 -0.2 0-0.09 0-0.23-0.14-0.23l-0.59 0.04 zm-11.42 0.43 h0.58c0.15 0.01 0.15-0.08 0.15 -0.18 0-0.1 0.07 -0.25-0.13-0.25H4.7c-0.19 0-0.12 0.15 -0.13 0.25 -0.01 0.1 0 0.19 0.14 0.18h0.56zm18.25 0h0.56c0.17 0 0.14-0.11 0.14 -0.2 0-0.09 0.05 -0.23-0.14-0.23h-1.12c-0.18 0-0.16 0.11 -0.16 0.23 0 0.12 0 0.21 0.16 0.2h0.56zm4.56-0.43h-0.58c-0.18 0-0.13 0.13 -0.13 0.23 s0 0.2 0.13 0.2h1.14c0.15 0 0.15-0.09 0.15 -0.19s0-0.24-0.15-0.24h-0.56zm-18.25 0.43 h0.56c0.15 0 0.17-0.08 0.17 -0.2 0-0.12 0-0.23-0.16-0.23H9.27c-0.19 0-0.12 0.14 -0.13 0.24 -0.01 0.1 0 0.2 0.15 0.19h0.54zm2.29 0h0.56c0.16 0 0.14-0.1 0.14 -0.2s0-0.23-0.13-0.23h-1.13c-0.17 0-0.16 0.11 -0.16 0.23 0 0.12 0 0.21 0.17 0.2h0.55zm9.1 0h0.58c0.15 0 0.16-0.1 0.16 -0.21 0-0.11 0-0.22-0.17-0.22h-1.12c-0.18 0-0.13 0.13 -0.13 0.23 s0 0.21 0.13 0.2h0.55zM3 3.23h0.54c0.16 0 0.19-0.08 0.19 -0.21s0-0.22-0.18-0.22h-1.1c-0.2 0-0.14 0.14 -0.14 0.24 0 0.1 0 0.2 0.15 0.19H3zm29.63 0h0.56c0.15 0 0.16-0.09 0.16 -0.21s0-0.22-0.16-0.22h-1.12c-0.19 0-0.13 0.14 -0.14 0.24 -0.01 0.1 0 0.2 0.16 0.19h0.54zM0.74 2.8H0.16C0 2.8 0 2.9 0 3s0 0.21 0.16 0.21h1.12c0.17 0 0.14-0.11 0.14 -0.2 0-0.09 0-0.23-0.13-0.23l-0.55 0.02 zM19 3.23h0.54c0.16 0 0.15-0.1 0.14 -0.2-0.01-0.1 0.05 -0.23-0.13-0.23H18.4c-0.15 0-0.17 0.11 -0.17 0.22 s0 0.22 0.17 0.21h0.6zm-4.56 0H15c0.15 0 0.16-0.09 0.16 -0.2 0-0.11 0-0.23-0.15-0.23h-1.17c-0.18 0-0.13 0.14 -0.14 0.23 -0.01 0.09 0 0.21 0.15 0.2h0.59zm-6.85 0h0.52c0.18 0 0.18-0.09 0.18 -0.21s0-0.22-0.17-0.22H7.06c-0.18 0-0.17 0.11 -0.18 0.22 -0.01 0.11 0 0.22 0.19 0.21h0.52zm22.78 17.31v-1.2c0-0.15-0.05-0.19-0.19-0.19s-0.21 0-0.2 0.19 v0.94c0 0.33 0 0.33 0.33 0.29l0.06-0.03zm-26.32 0v1.36h0.37v-1.07c0-0.35 0-0.35-0.37-0.32v0.03zM26 21.91v-1.17c0-0.25 0-0.25-0.25-0.24h-0.13v1.39l0.38 0.02 zm4.4 1.82h-0.12c-0.26 0-0.26 0-0.26 0.24 v1.17h0.38v-1.41zM4.05 26.49c0.087 0.005 0.173 0.005 0.26 0a0.18 0.18 0 0 0 0.11-0.1v-1.31h-0.37v1.41zm21.52 0h0.15c0.2 0 0.25 0 0.24-0.24-0.01-0.24 0-0.51 0-0.76v-0.41h-0.39v1.41zM4.42 28.74v-1.29a0.18 0.18 0 0 0-0.13-0.11c-0.23 0-0.25 0-0.26 0.22 v1.18h0.39zm21.15 0a2.6 2.6 0 0 0 0.28 0s0.1-0.06 0.1 -0.1v-1.2c0-0.14-0.11-0.12-0.2-0.12-0.09 0-0.18 0-0.18 0.12 v1.3zm4.8-0.44H30v1.28c0 0.15 0.11 0.12 0.2 0.12 0.09 0 0.19 0 0.19-0.11l-0.02-1.29zm-29 1.63H0.14c-0.14 0.01 -0.14 0.07 -0.14 0.2 s0 0.2 0.14 0.2h1.27l-0.04-0.4zm0.9 0.39 H3.6c0.17 0 0.12-0.13 0.12 -0.22s0-0.17-0.14-0.17H2.31l-0.04 0.39 zM6 30H4.57a2.25 2.25 0 0 0 0 0.26s0.06 0.1 0.09 0.1 H6V30zm14.57 0v0.39h1.3c0.16 0 0.09-0.14 0.1 -0.23 0.01 -0.09 0-0.15-0.13-0.15L20.57 30zm2.26 0a0.66 0.66 0 0 0 0 0.13c0 0.25 0 0.25 0.24 0.25h1.13V30h-1.37zm6 0h-1.45v0.37h1.14c0.28 0 0.28 0 0.27-0.29a0.24 0.24 0 0 0-0.02-0.08h0.06zm2.27 0h-1.35c-0.15 0-0.11 0.12 -0.12 0.2 -0.01 0.08 0 0.19 0.14 0.19H31l0.1-0.39zM4 0v1.31c0 0.15 0.11 0.11 0.2 0.12 0.09 0.01 0.18 0 0.18-0.14V0H4zm21.58 0v1.23c0 0.14 0.05 0.18 0.19 0.18s0.21 0 0.21-0.18V0.31c0-0.31 0.02 -0.31-0.4-0.31zM4.4 3.68V2.54c0-0.29 0-0.29-0.29-0.27h-0.06v1.4l0.35 0.01 zm26 3.21V5.5H30v1.09c0 0.41 0 0.41 0.36 0.3h0.04zM4 8.25h0.13c0.25 0 0.25 0 0.25-0.24V6.85H4v1.4zm21.54-1.4v1.39C26 8.3 26 8.3 26 8V6.85h-0.46zM4.42 10.51V9.23c0-0.16-0.11-0.13-0.21-0.13-0.1 0-0.21 0-0.21 0.14 v1.27h0.42zm21.15 0h0.29s0.09-0.06 0.09 -0.08V9.19c0-0.16-0.15-0.09-0.23-0.1-0.08-0.01-0.15 0-0.15 0.11 v1.31zm4.8-0.46h-0.29s-0.1 0.07 -0.1 0.1 v1.2c0 0.15 0.12 0.12 0.21 0.12s0.18 0 0.18-0.12v-1.3zm0 2.27h-0.13c-0.25 0-0.25 0-0.25 0.24 v1.17h0.38v-1.41zM4 15.08h0.37v-1.4H4v1.4zm21.53 3.17v1.22c0 0.15 0.05 0.2 0.2 0.19 0.15 -0.01 0.2 0 0.2-0.18v-0.92c0-0.31 0.07 -0.35-0.36-0.31h-0.04zM4 18.25v1.28c0 0.16 0.12 0.12 0.21 0.13 0.09 0.01 0.19 0 0.18-0.15v-1.26H4zm26-1.35V18c0 0.34 0 0.34 0.34 0.3v-1.4H30zm-4.4-3.22v1.4h0.36v-1.4h-0.36zm6.35 16.26a1.24 1.24 0 0 0 0 0.28 0.16 0.16 0 0 0 0.11 0.1 h1.18c0.14 0 0.12-0.11 0.12 -0.2 0-0.09 0-0.19-0.13-0.19l-1.28 0.01 zM4 29.65v1.23c0 0.14 0.06 0.18 0.19 0.18s0.21 0 0.2-0.19v-1c0-0.28 0-0.28-0.27-0.26l-0.12 0.04 zm15.59 0.29 H18.4c-0.15 0-0.17 0.08 -0.17 0.2 0 0.12 0 0.19 0.18 0.19h1c0.31 0 0.31 0 0.28-0.31a0.2 0.2 0 0 0-0.07-0.08h-0.03zM30.37 9.16V7.93c0-0.14-0.05-0.18-0.19-0.18s-0.21 0-0.2 0.19 v1c0 0.28 0 0.28 0.27 0.27l0.12-0.05zm0 12.3a3 3 0 0 0-0.3 0s-0.09 0.06 -0.09 0.09 v1.22c0 0.14 0.13 0.1 0.22 0.11 0.09 0.01 0.17 0 0.17-0.13v-1.29zM4 11.42v1.23c0 0.15 0.08 0.18 0.2 0.18 0.12 0 0.2 0 0.19-0.18v-1c0-0.26 0-0.26-0.25-0.26l-0.14 0.03 zm21.54 0v1.2c0 0.15 0.05 0.2 0.2 0.2 0.15 0 0.2-0.05 0.2 -0.2v-0.92c0-0.31 0.06 -0.33-0.37-0.27l-0.03-0.01zm0-5.47h0.29a0.17 0.17 0 0 0 0.17-0.1V4.67c0-0.14-0.12-0.11-0.2-0.11-0.08 0-0.19 0-0.18 0.12 l-0.08 1.27zM4 4.57V6h0.38V4.8c0-0.16-0.06-0.21-0.2-0.19L4 4.57zM30.36 16v-1.35c-0.33-0.1-0.38-0.06-0.38 0.26 v0.92c0 0.15 0.06 0.2 0.2 0.19l0.18-0.02zM4 17.35c0.086 0.01 0.174 0.01 0.26 0 0 0 0.12-0.07 0.12 -0.1v-1.18c0-0.15-0.12-0.12-0.2-0.13-0.08-0.01-0.19 0-0.19 0.13 0.01 0.42 0.01 0.84 0.01 1.28zm21.53 0h0.28s0.1-0.06 0.1 -0.1v-1.18c0-0.14-0.11-0.13-0.2-0.13-0.09 0-0.18 0-0.18 0.13 v1.28zm4.8 10v-1.21c0-0.15-0.06-0.18-0.2-0.19-0.14-0.01-0.2 0.06 -0.19 0.2 v0.9c0.06 0.39 0.06 0.39 0.43 0.34 l-0.04-0.04zM4 22.82v1.22c0 0.15 0.08 0.16 0.19 0.16s0.21 0 0.2-0.16v-0.93c0.03-0.35 0.03 -0.35-0.39-0.29zm3.53 7.51h0.56c0.17 0 0.13-0.11 0.13 -0.21 0-0.1 0-0.18-0.13-0.18H7c-0.15 0-0.14 0.09 -0.15 0.2 -0.01 0.11 0 0.2 0.15 0.19h0.53zm18-6.83v0.56c0 0.19 0.09 0.15 0.18 0.14 0.09 -0.01 0.22 0 0.22-0.13v-1.14c0-0.17-0.12-0.12-0.21-0.13-0.09-0.01-0.19 0-0.19 0.14 s0.04 0.37 0.04 0.56 h-0.04zM4 31.92v0.38a0.45 0.45 0 0 0 0 0.11h0.4c0.1-0.49 0.05 -0.55-0.4-0.49zm21.55 0v0.57c0.14 0 0.33 0 0.35-0.08a0.64 0.64 0 0 0 0-0.43c0.01-0.09-0.18-0.08-0.32-0.1l-0.03 0.04 z" fill="#FFF"/>
  <path d="M10.94 13.4c-0.33-0.35-0.64-0.7-1-1a841.285 841.285 0 0 1-4.81-4.87c-0.13-0.13-0.13-0.19 0-0.31a3.33 3.33 0 0 0 0.42-0.42 1.39 1.39 0 0 1 0.7-0.41l2.12-0.73C9 5.45 9.61 5.25 10.22 5l1-0.34a0.31 0.31 0 0 1 0.4 0.08 c0.62 0.63 1.24 1.28 1.89 1.89a0.49 0.49 0 0 1 0.13 0.63 c-0.23 0.63 -0.44 1.27-0.66 1.9-0.22 0.63 -0.43 1.23-0.64 1.85l-0.48 1.38a0.44 0.44 0 0 1-0.08 0.15 l-0.84 0.86 zM11.47 28.77c0.27-0.28 0.54 -0.57 0.81 -0.84l8.79-9c0.1-0.11 0.18 -0.15 0.3 0s0.33 0.27 0.34 0.41 c0.01 0.14 -0.21 0.26 -0.34 0.39 l-8.77 9a0.35 0.35 0 0 1-0.29 0.13 h-0.82l-0.02-0.09zM13.26 28.81l0.15-0.18 8.65-8.73c0.11-0.11 0.2 -0.13 0.3 0 0.077 0.093 0.164 0.177 0.26 0.25 0.12 0.11 0.11 0.19 0 0.3l-4.13 4.17-4 4a0.52 0.52 0 0 1-0.43 0.18 c-0.24 0-0.5 0.01 -0.8 0.01 zM16.79 29.13v0.8h0.58v0.4h-0.46a3.15 3.15 0 0 1-0.87 0 1.57 1.57 0 0 0-0.8 0 7 7 0 0 1-1.37 0.05 5 5 0 0 0-0.94-0.05 6.78 6.78 0 0 1-1.35 0.05 4.67 4.67 0 0 0-0.91-0.05 8.72 8.72 0 0 1-1.35 0.06 c-0.27 0-0.34-0.07-0.34-0.33v-0.87l7.81-0.06zM13.51 8.51l1 0.88 3.67 3.08c1.42 1.2 2.84 2.39 4.26 3.6 0.28 0.23 0.28 0.24 0 0.5s-0.24 0.37 -0.65 0l-5.87-5-2.54-2.2a0.2 0.2 0 0 1-0.07-0.3 5.81 5.81 0 0 0 0.2-0.56zM23.21 20.36L21.9 19l-0.64-0.64a0.14 0.14 0 0 1 0-0.22c0.65-0.65 1.3-1.3 1.95-2l0.18 0.15 c0.59 0.59 1.18 1.19 1.78 1.78 0.12 0.11 0.13 0.19 0 0.31-0.6 0.59 -1.19 1.19-1.79 1.79l-0.17 0.19 zM21.13 17.88l-1.61-1.36-4.64-3.91c-0.65-0.54-1.28-1.09-1.94-1.63-0.16-0.13-0.25-0.25-0.13-0.46A4 4 0 0 0 13 10l0.18 0.15 3.45 2.91c0.9 0.76 1.82 1.5 2.73 2.26l2.21 1.82c0.14 0.12 0.13 0.18 0 0.29l-0.44 0.45 zM9.22 33.7h7.08c0.25 0 0.25 0 0.25-0.25v-1.13c0-0.14 0.05 -0.26 0.2 -0.25 0.15 0.01 0.19 0.11 0.19 0.27v3.13c0 0.13 0 0.25-0.19 0.25 s-0.2-0.11-0.2-0.25v-1.16c0-0.15-0.05-0.21-0.19-0.21H9.51c-0.29 0-0.29 0-0.29 0.3 v1.08c0 0.14 0 0.24-0.2 0.24 s-0.19-0.09-0.19-0.23v-3.18c0-0.15 0.05 -0.25 0.19 -0.24 0.14 0.01 0.2 0.1 0.2 0.25-0.01 0.45 0 0.89 0 1.38zM30.86 19h-2.2c-0.13 0-0.26 0-0.24-0.2 0.02 -0.2 0.09 -0.13 0.15 -0.19s0.08 0 0.11 0H33c0.1 0 0.22 0 0.26 0.12 0.04 0.12 0 0.26-0.22 0.26 h-2.18V19zM14 5.53s-0.05 0.08 -0.09 0.11 l-0.4 0.36 c-0.09 0.1 -0.15 0.1 -0.25 0l-1-1c-0.07-0.08-0.09-0.13 0-0.21 0.09 -0.08 0.28 -0.29 0.43 -0.42a0.19 0.19 0 0 1 0.16 0l1 1a0.36 0.36 0 0 1 0.15 0.16 zM30.37 3.23v1.19c0 0.15 0 0.22-0.19 0.22 S30 4.58 30 4.43v-1c0-0.13 0-0.21-0.18-0.2-0.18 0.01 -0.17-0.11-0.17-0.23 0-0.12 0-0.2 0.18 -0.2h1.08c0.19 0 0.16 0.11 0.16 0.22 s0 0.22-0.15 0.21 h-0.55zM25.94 3.68h-0.37v-0.45h-0.34c-0.17 0-0.14-0.12-0.13-0.21 0.01 -0.09 0-0.22 0.13 -0.22h0.34v-0.52h0.13c0.26 0 0.26 0 0.26 0.25 s0 0.28 0.29 0.28 0.27 0.05 0.25 0.27c-0.02 0.22 -0.05 0.16 -0.17 0.16 -0.35 0-0.35 0-0.37 0.35 0.04 0.02 0.04 0.05 -0.02 0.09 zM25.11 30.33v-0.39h0.44v-0.29h0.36c0 0.36 0 0.29 0.35 0.29 0.14 0 0.21 0 0.22 0.19 0.01 0.19 -0.07 0.21 -0.23 0.2 -0.32 0-0.32 0-0.32 0.33 v0.17c0 0.21-0.13 0.3 -0.32 0.22 a0.21 0.21 0 0 1-0.07-0.13v-0.32c0-0.27 0-0.27-0.26-0.27h-0.17zM16.69 2.8h0.56c0.18 0 0.14 0.13 0.14 0.23 s0 0.2-0.13 0.2 h-1.17c-0.15 0-0.13-0.1-0.12-0.19 0.01 -0.09-0.06-0.23 0.12 -0.24h0.6zM5.27 3.23h-0.56c-0.14 0-0.15-0.08-0.14-0.18 0.01 -0.1-0.06-0.25 0.13 -0.25h1.16c0.2 0 0.11 0.16 0.13 0.25 0.02 0.09 0 0.19-0.14 0.18 h-0.58zM23.52 3.23H23c-0.16 0-0.17-0.08-0.16-0.2 0.01 -0.12 0-0.23 0.16 -0.23h1.12c0.19 0 0.13 0.13 0.14 0.23 0.01 0.1 0 0.21-0.14 0.2 h-0.6zM28.08 2.8h0.56c0.18 0 0.14 0.13 0.15 0.24 0.01 0.11 0 0.19-0.15 0.19 H27.5c-0.17 0-0.13-0.11-0.13-0.2 0-0.09-0.05-0.23 0.13 -0.23h0.58zM9.83 3.23h-0.54c-0.16 0-0.16-0.08-0.15-0.19 0.01 -0.11-0.06-0.24 0.13 -0.24h1.13c0.17 0 0.16 0.12 0.16 0.23 0 0.11 0 0.21-0.17 0.2 h-0.56zM12.12 3.23h-0.55c-0.14 0-0.18-0.07-0.17-0.2 0.01 -0.13 0-0.23 0.16 -0.23h1.13c0.18 0 0.12 0.14 0.13 0.23 0.01 0.09 0 0.21-0.14 0.2 h-0.56zM21.22 3.23h-0.55c-0.16 0-0.14-0.11-0.13-0.2 0.01 -0.09-0.05-0.23 0.13 -0.23h1.12c0.16 0 0.17 0.1 0.17 0.22 s0 0.21-0.16 0.21 h-0.58zM3 3.23h-0.54c-0.16 0-0.16-0.08-0.15-0.19 0.01 -0.11-0.06-0.24 0.14 -0.24h1.1c0.16 0 0.18 0.1 0.18 0.22 s0 0.22-0.19 0.21 H3zM32.63 3.23h-0.54c-0.15 0-0.17-0.08-0.16-0.19 0.01 -0.11-0.05-0.24 0.14 -0.24h1.12c0.15 0 0.16 0.1 0.16 0.22 s0 0.21-0.16 0.21 h-0.56zM0.74 2.8h0.55c0.17 0 0.13 0.13 0.13 0.23 s0 0.2-0.14 0.2 H0.16C0 3.23 0 3.13 0 3s0-0.2 0.16 -0.2h0.58zM19 3.23h-0.6c-0.15 0-0.17-0.09-0.17-0.21s0-0.22 0.17 -0.22h1.12c0.18 0 0.13 0.14 0.13 0.23 s0 0.21-0.14 0.2 H19zM14.41 3.23h-0.56c-0.17 0-0.15-0.1-0.15-0.2s0-0.23 0.14 -0.23H15c0.16 0 0.15 0.13 0.15 0.23 s0 0.2-0.16 0.2 h-0.58zM7.56 3.23H7c-0.17 0-0.19-0.08-0.19-0.21s0-0.22 0.18 -0.22h1.06c0.18 0 0.16 0.11 0.17 0.22 0.01 0.11 0 0.23-0.18 0.21 h-0.48zM30.37 20.54h-0.06c-0.33 0-0.33 0-0.33-0.29v-0.94c0-0.15 0.05 -0.19 0.2 -0.19 0.15 0 0.19 0 0.19 0.19 -0.01 0.43 0 0.84 0 1.23zM4.05 20.51c0.37 0 0.37 0 0.37 0.32 v1.07h-0.37v-1.39zM26 21.91h-0.38v-1.39h0.13c0.25 0 0.25 0 0.25 0.24 v1.15zM30.36 23.73v1.4H30V24c0-0.25 0-0.25 0.26 -0.24l0.1-0.03zM4.05 26.49v-1.41h0.37v1.31a0.18 0.18 0 0 1-0.11 0.1 2.25 2.25 0 0 1-0.26 0zM25.57 26.48v-1.4H26v1.17c0 0.25 0 0.28-0.24 0.24 l-0.19-0.01zM4.42 28.74H4v-1.18c0-0.23 0-0.26 0.26 -0.22a0.18 0.18 0 0 1 0.13 0.11 l0.03 1.29zM25.57 28.75v-1.3c0-0.13 0.09 -0.12 0.18 -0.12s0.2 0 0.2 0.12 v1.2s-0.06 0.09 -0.1 0.1 a2.6 2.6 0 0 1-0.28 0zM30.37 28.31v1.29c0 0.14-0.11 0.11 -0.19 0.11 s-0.2 0-0.2-0.12v-1.28h0.39zM1.41 29.94v0.39H0.14c-0.15 0-0.14-0.1-0.14-0.2s0-0.19 0.14 -0.19h1.27zM2.31 30.33v-0.39h1.27c0.13 0 0.16 0.06 0.14 0.17 -0.02 0.11 0 0.22-0.12 0.22 H2.31zM6 30v0.37H4.66s-0.08-0.06-0.09-0.1a2.25 2.25 0 0 1 0-0.26L6 30zM20.55 29.94h1.27c0.11 0 0.15 0.06 0.13 0.15 -0.02 0.09 0.06 0.23 -0.1 0.23 h-1.3v-0.38zM22.81 30h1.39v0.38H23c-0.25 0-0.25 0-0.24-0.25a0.66 0.66 0 0 1 0.05-0.13zM28.77 30a0.24 0.24 0 0 1 0 0.08c0 0.29 0 0.29-0.27 0.29 h-1.12V30h1.39zM31 29.94v0.39h-1.23c-0.14 0-0.15-0.09-0.14-0.19 0.01 -0.1 0-0.2 0.12 -0.2H31zM4 0h0.38v1.29c0 0.14-0.08 0.14 -0.18 0.14 -0.1 0-0.2 0-0.2-0.12V0zM25.58 0C26 0 26 0 26 0.33v0.92c0 0.3-0.08 0.18 -0.21 0.18 s-0.19 0-0.19-0.18V0.09c-0.03-0.02-0.02-0.04-0.02-0.09zM4.4 3.68h-0.35v-1.4h0.08c0.29 0 0.29 0 0.29 0.27 v1.06s-0.01 0.03 -0.02 0.07 zM30.36 6.89C30 7 30 7 30 6.59V5.5h0.38l-0.02 1.39zM4 8.25v-1.4h0.38V8c0 0.25 0 0.25-0.25 0.24 L4 8.25zM25.58 6.85H26V8c0 0.35 0 0.35-0.38 0.29 l-0.04-1.44zM4.42 10.51H4v-0.41-0.86c0-0.29 0.08 -0.15 0.18 -0.14 0.1 0.01 0.21 0 0.21 0.13 l0.03 1.28zM25.57 10.52V9.21c0-0.11 0.07 -0.12 0.15 -0.11 0.08 0.01 0.28 -0.1 0.28 0.1v1.24s-0.06 0.07 -0.09 0.08 h-0.34zM30.37 10.06v1.3c0 0.14-0.1 0.12 -0.18 0.12 -0.08 0-0.21 0-0.21-0.12v-1.2s0.06-0.09 0.1 -0.1h0.29zM30.36 12.33v1.4H30v-1.17c0-0.24 0-0.24 0.25 -0.24l0.11 0.01 zM4 15.08v-1.4h0.37v1.4zM25.57 18.25c0.39 0 0.39 0 0.39 0.31 v0.92c0 0.15-0.07 0.18 -0.2 0.18 s-0.2 0-0.2-0.19c0.01-0.4 0.01 -0.8 0.01 -1.22zM4 18.25h0.39v1.26c0 0.14-0.07 0.16 -0.18 0.15 -0.11-0.01-0.21 0-0.21-0.13v-1.28zM30 16.9h0.38v1.38c-0.34 0-0.34 0-0.34-0.3L30 16.9zM25.58 13.68h0.36v1.4h-0.36zM31.93 29.94h1.29c0.14 0 0.14 0.09 0.13 0.19 -0.01 0.1 0 0.2-0.12 0.2 h-1.18a0.16 0.16 0 0 1-0.11-0.1 1.24 1.24 0 0 1-0.01-0.29zM4 29.65h0.12c0.27 0 0.27 0 0.27 0.26 v1c0 0.16-0.06 0.19 -0.2 0.19 S4 31 4 30.88v-1.23zM19.62 29.94a0.2 0.2 0 0 1 0 0.08c0 0.31 0 0.31-0.28 0.31 h-1c-0.14 0-0.18-0.06-0.18-0.19s0-0.2 0.17 -0.2h1.29zM30.37 9.16h-0.12c-0.27 0-0.27 0-0.27-0.27v-1c0-0.16 0.07 -0.19 0.2 -0.19s0.19 0 0.19 0.18 c-0.01 0.46 0 0.86 0 1.28zM30.37 21.46v1.29c0 0.12-0.08 0.13 -0.17 0.13 -0.09 0-0.21 0-0.22-0.11v-1.22s0.06-0.08 0.09 -0.09a3 3 0 0 1 0.3 0zM4 11.42h0.14c0.25 0 0.25 0 0.25 0.26 v1c0 0.14-0.06 0.18 -0.19 0.18 s-0.2 0-0.2-0.18v-1.26zM25.57 11.43c0.39-0.06 0.39 -0.06 0.39 0.28v0.92c0 0.15-0.06 0.2 -0.2 0.2 s-0.2-0.05-0.2-0.2c0.01-0.4 0.01 -0.8 0.01 -1.2zM25.57 6V4.68c0-0.14 0.09 -0.12 0.18 -0.12s0.2 0 0.2 0.11 v1.18a0.17 0.17 0 0 1-0.09 0.11 l-0.29 0.04 zM4 4.57h0.19c0.14 0 0.2 0 0.2 0.19 v1.2H4V4.57zM30.36 16h-0.19c-0.14 0-0.2 0-0.2-0.19v-0.92c0-0.31 0.05 -0.36 0.38 -0.26l0.01 1.37zM4 17.35v-1.28c0-0.13 0.1 -0.13 0.19 -0.13s0.2 0 0.2 0.13 v1.18s-0.07 0.09 -0.12 0.1 c-0.09 0.01 -0.18 0.01 -0.27 0zM25.57 17.35v-1.28c0-0.14 0.09 -0.13 0.18 -0.13s0.2 0 0.2 0.13 v1.18s-0.06 0.09 -0.1 0.1 h-0.28zM30.37 27.39c-0.39 0.05 -0.39 0.05 -0.39-0.3v-0.9c0-0.14 0.05 -0.2 0.19 -0.2s0.21 0 0.2 0.19 c-0.01 0.4 0 0.82 0 1.21zM4 22.82c0.39-0.06 0.39 -0.06 0.39 0.29V24c0 0.17-0.09 0.16 -0.2 0.16 -0.11 0-0.19 0.03 -0.19-0.16v-1.18zM7.56 30.33H7c-0.15 0-0.15-0.09-0.15-0.19s0-0.2 0.15 -0.2h1.12c0.15 0 0.14 0.09 0.13 0.18 -0.01 0.09 0 0.22-0.13 0.21 h-0.56zM25.57 23.5v-0.56c0-0.18 0.09 -0.14 0.19 -0.14s0.21 0 0.21 0.13 v1.14c0 0.16-0.12 0.13 -0.22 0.13 s-0.18 0-0.18-0.14v-0.56zM4 31.92c0.42-0.06 0.47 0 0.37 0.49 h-0.32a0.45 0.45 0 0 1 0-0.11C4 32.17 4 32.05 4 31.92zM25.58 31.88c0.14 0 0.33 0 0.34 0.06 a0.64 0.64 0 0 1 0 0.43c0 0.06-0.21 0.05 -0.35 0.08 l0.01-0.57z" fill="#FFF"/>
</svg>
