<?xml version="1.0" ?>
<svg xmlns="http://www.w3.org/2000/svg" width="30" height="30" viewBox="0 0 30 30">
  <path d="M15 0h14.6c0.31 0 0.31 0 0.31 0.31 v2.48c0 0.22 0 0.23-0.24 0.23 h-1.46c-0.26 0-0.26 0-0.26 0.27 V14.75c0 0.21 0 0.23 0.23 0.23h1.16c0.23 0 0.24 0 0.24 0.24 V26.84c0 0.72-0.37 0.92 -0.93 0.92 H1.44a2.14 2.14 0 0 1-0.43 0 0.76 0.76 0 0 1-0.65-0.8v-1.49-10.16c0-0.3 0-0.3 0.31 -0.3h1.06C2 15 2 15 2 14.73V7.19 3.31C2 3 2 3 1.72 3H0.22C0 3 0 3 0 2.8V0.23C0 0 0 0 0.23 0H15zm0 3H3.45c-0.3 0-0.3 0-0.3 0.31 v11.43c0 0.24 0 0.25 0.25 0.25h1.19c0.24 0 0.26 0 0.26-0.26v-3.27-4.71c0-0.43 0.19 -0.62 0.62 -0.62h10.94a0.59 0.59 0 0 1 0.65 0.63 v7.91c0 0.33 0 0.33 0.32 0.33h9.06c0.32 0 0.32 0 0.32-0.32V3.36c0-0.33 0-0.33-0.34-0.33L15 3zm-4 4.25H6.24c-0.21 0-0.24 0-0.24 0.19 v3.12c0 0.15 0.07 0.2 0.21 0.2H7c0.3 0 0.3 0 0.3-0.31V8.92a0.56 0.56 0 0 1 0.77-0.54 0.53 0.53 0 0 1 0.36 0.51 v1.65c0 0.18 0 0.21 0.21 0.21h0.51c0.18 0 0.21 0 0.21-0.21v-0.37-1.31a0.54 0.54 0 0 1 0.52-0.53 0.57 0.57 0 0 1 0.58 0.44 1.44 1.44 0 0 1 0 0.32v1.46c0 0.15 0.06 0.21 0.2 0.2H11c0.35 0 0.35 0 0.35-0.35V8.85a0.55 0.55 0 0 1 0.7-0.51 0.57 0.57 0 0 1 0.43 0.58 v1.62c0 0.15 0.06 0.21 0.2 0.2h0.39c0.31 0 0.31 0 0.31-0.31V8.96a0.57 0.57 0 0 1 0.76-0.6 0.56 0.56 0 0 1 0.38 0.58 v1.59c0 0.19 0 0.22 0.22 0.22h0.86c0.25 0 0.26 0 0.26-0.27v-3-0.12a0.13 0.13 0 0 0-0.15-0.15H11v0.04zm0 4.64H6.23c-0.19 0-0.22 0-0.22 0.22 v2.69c0 0.13 0.06 0.19 0.19 0.19h0.7c0.47 0 0.42 0 0.43-0.42 0.01 -0.42 0-1 0-1.49a0.565 0.565 0 1 1 1.13 0v1.68c0 0.19 0 0.22 0.21 0.22h0.54c0.12 0 0.18-0.05 0.18 -0.18v-0.48-1.26a0.54 0.54 0 0 1 0.53-0.56 0.57 0.57 0 0 1 0.58 0.46 1.4 1.4 0 0 1 0 0.31v1.52c0 0.14 0 0.21 0.2 0.2h0.45c0.24 0 0.25 0 0.25-0.25v-0.12-1.58a0.55 0.55 0 0 1 0.71-0.51 0.58 0.58 0 0 1 0.42 0.58 v1.67c0 0.14 0 0.22 0.19 0.21h0.54c0.12 0 0.17 0 0.17-0.17v-0.59-1.1a0.57 0.57 0 0 1 1.14 0v1.64c0 0.12 0 0.2 0.17 0.2h1c0.12 0 0.17-0.05 0.17 -0.17v-2.74a0.16 0.16 0 0 0-0.18-0.18H11v0.01zM5.51 29.91h-0.87c-0.13 0-0.18-0.05-0.18-0.18v-1c0-0.13 0.05 -0.18 0.18 -0.18h1.78c0.12 0 0.18 0.05 0.18 0.18 v1c0 0.13-0.05 0.18 -0.18 0.18 h-0.91zM24.35 29.91h-0.88c-0.13 0-0.19-0.05-0.18-0.19v-0.94c0-0.13 0.05 -0.19 0.18 -0.19h1.77c0.13 0 0.18 0.05 0.18 0.18 v1c0 0.13-0.05 0.18 -0.18 0.18 l-0.89-0.04z" fill="#FFF"/>
  <path d="M21.53 14.09H24c0.18 0 0.21 0 0.21-0.21a7.22 7.22 0 0 0 0-0.74 3.19 3.19 0 0 0-0.14-0.8 2.69 2.69 0 0 0-3.34-1.64 2.6 2.6 0 0 0-1.86 2.51v0.64c0 0.21 0 0.24 0.24 0.24h2.42zM22.84 8a1.31 1.31 0 0 0-1.33-1.3A1.33 1.33 0 0 0 20.2 8a1.32 1.32 0 1 0 2.64 0z" fill="#FFF"/>
  <path d="M21.53 14.09h-2.44c-0.22 0-0.24 0-0.24-0.24v-0.64a2.6 2.6 0 0 1 1.86-2.51 2.69 2.69 0 0 1 3.34 1.64c0.08 0.26 0.128 0.528 0.14 0.8 a7.22 7.22 0 0 1 0 0.74c0 0.18 0 0.21-0.21 0.21 h-2.45zM22.84 8a1.32 1.32 0 1 1-2.64 0 1.33 1.33 0 0 1 1.31-1.31A1.31 1.31 0 0 1 22.84 8z" fill="#FFF"/>
</svg>
