<?xml version="1.0" ?>
<svg xmlns="http://www.w3.org/2000/svg" width="44" height="26" viewBox="0 0 44 26">
  <path d="M29.17 18.47h14.16c0.33 0 0.33 0 0.33-0.33V1.5a2.45 2.45 0 0 0-0.1-0.66 1 1 0 0 0-1-0.74C40.06 0.07 37.54 0 35 0H21.77c-2 0-3.93 0.05 -5.9 0.08 a2.18 2.18 0 0 0-0.62 0.11 0.67 0.67 0 0 0-0.55 0.59 c0 0.42-0.07 0.83 -0.08 1.25v16.09c0 0.35 0 0.35 0.35 0.35h14.2zm-11.92 5.68v-0.33-2.84c0-0.2 0.06 -0.26 0.25 -0.26h3.3c0.22 0 0.3 0.07 0.29 0.3 v3.12h0.68V21.07c0-0.34 0-0.34 0.34 -0.34h3.57a0.32 0.32 0 0 0 0.32-0.19c0.19-0.31 0.4 -0.61 0.62 -0.9a2.9 2.9 0 0 1 0.38-0.34v-0.07H14.11c-0.23 0-0.31 0-0.31-0.3v-7.67-3.44c0-0.4-0.15-0.63-0.45-0.69a3.42 3.42 0 0 0-0.63-0.13h-5.9c-0.09 0-0.23 0.08 -0.24 0.15 -0.13 0.78 -0.24 1.57-0.35 2.36l-0.39 2.72c0 0.27-0.08 0.54 -0.13 0.83 H0.29c-0.19 0-0.28 0.06 -0.28 0.25 v0.16l0.09 8v0.21c0 0.07 0.09 0.23 0.26 0.21 0.17 -0.01 0.34 -0.01 0.51 0 0.18 0 0.24-0.06 0.29 -0.23a8.58 8.58 0 0 1 0.37-1.22 3.24 3.24 0 0 1 3-2 3.39 3.39 0 0 1 1.17 0.17 3.28 3.28 0 0 1 2.09 1.71c0.235 0.472 0.359 0.992 0.36 1.52H9.9c0.07-0.38 0.07 -0.38 0.45 -0.38h2.9c0.55 0 0.55 0 0.56-0.56 0-0.16 0-0.23 0.21 -0.22h2.26c0.18 0 0.23 0.06 0.23 0.23 v3c0 0.07 0.08 0.2 0.13 0.21 0.202 0.025 0.406 0.035 0.61 0.03zM4.62 19.42a3.12 3.12 0 0 0-1.72 0.47 3 3 0 0 0-1.18 3.54 3 3 0 0 0 3.7 1.89 2.75 2.75 0 0 0 2.21-2.54 2.92 2.92 0 0 0-3-3.36h-0.01zm27.6 3a2.87 2.87 0 0 0-2.95-3 3 3 0 0 0-0.09 6 2.88 2.88 0 0 0 3.04-2.99v-0.01zm7.55-0.16a2.92 2.92 0 0 0-3.44-2.83 2.86 2.86 0 0 0-2.63 3.2 3.04 3.04 0 1 0 6.07-0.37zm-0.88-3.06c0 0.05 0 0.09 0.06 0.12a3.62 3.62 0 0 1 1 1.27 0.29 0.29 0 0 0 0.22 0.13 h3c0.16 0 0.23-0.06 0.22 -0.22v-1c0-0.31-0.08-0.29-0.3-0.29h-4.2v-0.01zm-7.53 0l0.2 0.21 c0.243 0.225 0.452 0.484 0.62 0.77 a0.82 0.82 0 0 0 1 0.54c0.12 0 0.19 0 0.27-0.16 0.22 -0.36 0.48 -0.71 0.74 -1.06 0.093 -0.11 0.197 -0.21 0.31 -0.3h-3.14z" fill="#FFF"/>
  <path d="M29.17 18.47H15c-0.35 0-0.35 0-0.35-0.35V2.03c0-0.42 0.05 -0.83 0.08 -1.25a0.67 0.67 0 0 1 0.55-0.59c0.2-0.066 0.41 -0.104 0.62 -0.11 2 0 3.94-0.07 5.9-0.08H35c2.52 0 5 0.06 7.55 0.09 a1 1 0 0 1 1 0.74c0.063 0.214 0.097 0.436 0.1 0.66 v16.64c0 0.33 0 0.33-0.33 0.33 l-14.15 0.01 z" fill="#FFF"/>
  <path d="M17.25 24.15a4.07 4.07 0 0 1-0.61 0c-0.05 0-0.13-0.14-0.13-0.21v-2-1c0-0.17-0.05-0.24-0.23-0.23H14c-0.17 0-0.23 0.06 -0.21 0.22 0 0.56 0 0.56-0.56 0.56 h-2.9c-0.38 0-0.38 0-0.45 0.38 H8.11a3.43 3.43 0 0 0-0.36-1.52 3.28 3.28 0 0 0-2.09-1.71 3.39 3.39 0 0 0-1.17-0.17 3.24 3.24 0 0 0-2.95 2 8.58 8.58 0 0 0-0.37 1.22c0 0.17-0.11 0.25 -0.29 0.23 a4.34 4.34 0 0 0-0.51 0c-0.17 0-0.26 0-0.26-0.21v-0.21l-0.11-8v-0.16c0-0.05 0.09 -0.25 0.28 -0.25h5.43c0-0.29 0.1 -0.56 0.13 -0.83l0.39-2.72c0.11-0.79 0.22 -1.58 0.35 -2.36 0-0.07 0.15 -0.15 0.24 -0.15C7.76 7 8.7 7 9.64 7s2 0 3.08 0.07 c0.212 0.01 0.423 0.04 0.63 0.09 0.3 0.06 0.45 0.29 0.45 0.69 v11.11c0 0.25 0.08 0.3 0.31 0.3h12.87v0.07a2.9 2.9 0 0 0-0.36 0.34 c-0.22 0.29 -0.43 0.59 -0.62 0.9 a0.32 0.32 0 0 1-0.32 0.19 h-3.54c-0.34 0-0.34 0-0.34 0.34 V24.17h-0.7v-0.27-2.85c0-0.23-0.07-0.3-0.29-0.3h-3.3c-0.19 0-0.25 0.06 -0.25 0.26 v2.84l-0.01 0.3 zM10 13.08h2.4c0.15 0 0.23 0 0.23-0.21V8.62c0-0.62 0.06 -0.62-0.7-0.73L7.67 7.8c-0.2 0-0.27 0.07 -0.27 0.28 v4.75c0 0.19 0.06 0.25 0.25 0.25H10z" fill="#FFF"/>
  <path d="M4.62 19.42a2.92 2.92 0 0 1 3 3.36 2.75 2.75 0 0 1-2.21 2.54 3 3 0 0 1-3.7-1.89 3 3 0 0 1 1.19-3.54 3.12 3.12 0 0 1 1.72-0.47zm-2 3a1.91 1.91 0 0 0 2 2 2 2 0 1 0 0.07-4 1.92 1.92 0 0 0-2.09 2h0.02zM32.22 22.43a2.88 2.88 0 0 1-3 3 3 3 0 1 1 0.09-6 2.87 2.87 0 0 1 2.91 3zm-3-2a1.9 1.9 0 0 0-2 1.95 2 2 0 1 0 2-1.95zM39.77 22.27a3.04 3.04 0 0 1-6.07 0.37 2.86 2.86 0 0 1 2.63-3.2 2.92 2.92 0 0 1 3.44 2.83zm-3-1.82a1.9 1.9 0 0 0-2 1.94 2 2 0 1 0 4 0 1.91 1.91 0 0 0-2.02-1.94h0.02zM38.89 19.21H43c0.22 0 0.31 0.06 0.3 0.29 -0.01 0.23 0 0.69 0 1 0 0.16-0.06 0.22 -0.22 0.22 h-3a0.29 0.29 0 0 1-0.22-0.13 3.62 3.62 0 0 0-1-1.27s0.06-0.06 0.03 -0.11zM31.36 19.21h3.21a2.25 2.25 0 0 0-0.31 0.3 c-0.26 0.35 -0.52 0.7 -0.74 1.06-0.08 0.13 -0.15 0.17 -0.27 0.16 a0.82 0.82 0 0 1-1-0.54 3.38 3.38 0 0 0-0.62-0.77l-0.27-0.21z" fill="#FFF"/>
  <path d="M10 13.08H7.66c-0.19 0-0.26-0.06-0.25-0.25V8.08c0-0.21 0.07 -0.28 0.27 -0.28l4.26 0.09 c0.76 0.11 0.69 0.11 0.7 0.73 v4.25c0 0.18-0.08 0.21 -0.23 0.21 H10zM2.6 22.42a1.92 1.92 0 0 1 2.05-2 2 2 0 0 1-0.07 4 1.91 1.91 0 0 1-1.98-2zM29.2 20.45a1.91 1.91 0 0 1 2 2 2 2 0 1 1-4 0 1.9 1.9 0 0 1 2-2zM36.75 20.45a1.91 1.91 0 0 1 2 2 2 2 0 1 1-4 0 1.9 1.9 0 0 1 2-2zM38.86 3.21c0 0.09 0 0.18-0.07 0.26 -0.07 0.08 0 0.22-0.07 0.33 -0.07 0.11 0 0.09 0 0.14a0.35 0.35 0 0 1-0.13 0.3 s-0.1 0.07 -0.15 0a0.13 0.13 0 0 0-0.09 0s-0.05 0-0.05 0.06 a2 2 0 0 1-0.08 0.48 3.69 3.69 0 0 0-0.08 0.46 c0 0.13-0.05 0.26 -0.08 0.39 s-0.05 0.2 -0.07 0.29 c-0.02 0.09 -0.07 0.26 -0.1 0.39 s-0.09 0.26 -0.13 0.39 c-0.04 0.13 -0.07 0.27 -0.11 0.4 -0.04 0.13 -0.07 0.15 -0.1 0.24 s0 0.09 0 0.14c0 0.05-0.09 0.21 -0.13 0.31 a5.45 5.45 0 0 1-0.56 1.07c-0.1 0.14 -0.09 0.15 0 0.25 0.09 0.08 0.1 0.14 0 0.2a5 5 0 0 0-0.47 0.45 0.25 0.25 0 0 0-0.08 0.29 0.12 0.12 0 0 1 0 0.12l-0.24 0.21 s-0.08 0.08 -0.07 0.11 l0.12 0.39 c0.04 0.13 0.11 0.34 0.17 0.51 0.06 0.17 0.15 0.42 0.23 0.63 0.114 0.221 0.208 0.452 0.28 0.69 a2 2 0 0 1 0 0.24 0.25 0.25 0 0 0 0.08 0.24 v0.12c0 0.21-0.11 0.2 0.11 0.35 a0.28 0.28 0 0 1 0.11 0.13 2 2 0 0 1 0.08 0.22 c0.06 0.21 0.13 0.42 0.2 0.63 0.07 0.21 0.15 0.43 0.22 0.65 l0.21 0.62 c0.042 0.099 0.069 0.203 0.08 0.31 0 0.08 0 0.16 0.05 0.25a0.4 0.4 0 0 1 0 0.18 0.47 0.47 0 0 0 0 0.31 0.66 0.66 0 0 0 0.07 0.15 2.09 2.09 0 0 1 0.23-0.3 0.88 0.88 0 0 1 0.12-0.15 0.19 0.19 0 0 0 0.07-0.17 1.48 1.48 0 0 1 0-0.21c0-0.13 0-0.27 0.07 -0.4a0.24 0.24 0 0 1 0-0.08 0.45 0.45 0 0 0 0.07-0.3 0.33 0.33 0 0 1 0-0.14 0.76 0.76 0 0 1 0.11-0.36 2.4 2.4 0 0 0 0.18-0.26 0.24 0.24 0 0 0 0-0.08c0-0.09 0-0.17-0.05-0.25a0.3 0.3 0 0 1 0-0.18A1 1 0 0 0 39 14v-0.05c0.1-0.08 0.07 -0.17 0-0.26a0.31 0.31 0 0 1 0-0.1 0.14 0.14 0 0 1 0-0.09l0.1-0.31a1.37 1.37 0 0 1 0.07-0.29c0.06-0.13 0.13 -0.25 0.2 -0.38a0.45 0.45 0 0 0 0.07-0.25 0.19 0.19 0 0 1 0.09-0.2c0.06 0 0.06-0.06 0.06 -0.11a0.38 0.38 0 0 1 0.19-0.39c0.09-0.05 0.1 -0.08 0.06 -0.18a0.13 0.13 0 0 1 0-0.06c0-0.11 0-0.18 0.1 -0.26a0.39 0.39 0 0 0 0-0.46l-0.11-0.15a0.18 0.18 0 0 1 0-0.2c0-0.06 0.07 -0.13 0.11 -0.18a0.92 0.92 0 0 0 0.15-0.6v-0.07a0.62 0.62 0 0 0-0.24 0 3.94 3.94 0 0 0-0.45 0.36 0.53 0.53 0 0 1-0.24 0.11 1.31 1.31 0 0 1-0.44 0 1.47 1.47 0 0 0-0.36 0 0.14 0.14 0 0 1-0.18 0c0-0.06-0.08-0.12 0-0.19a0.91 0.91 0 0 1 0.09-0.17 0.36 0.36 0 0 0 0.09-0.26v-0.11a0.56 0.56 0 0 1 0.27-0.41 2.44 2.44 0 0 0 0.33-0.23 0.32 0.32 0 0 1 0.34-0.08v-0.09a0.43 0.43 0 0 0 0-0.05c0-0.087-0.04-0.127-0.12-0.12a0.83 0.83 0 0 1-0.35-0.1c-0.05 0-0.09-0.05-0.12 0a0.74 0.74 0 0 1-0.21 0s0-0.08-0.06-0.13 0 0 0.07 0h0.16v-0.15a0.24 0.24 0 0 1-0.11-0.18 0.56 0.56 0 0 0 0.06-0.33 1.05 1.05 0 0 1-0.05-0.19 0.4 0.4 0 0 0-0.07-0.3v-0.12a1.07 1.07 0 0 0 0.16-0.14 0.15 0.15 0 0 0 0-0.11c-0.06-0.07 0-0.13 0-0.2a0.1 0.1 0 0 1 0.05-0.11s0.07-0.06 0.06 -0.07c-0.01-0.01 0-0.1 0-0.14 0-0.04 0-0.28 0.22 -0.31l0.25-0.2s0.07-0.06 0.11 0a0.27 0.27 0 0 0 0.33 0.09 0.23 0.23 0 0 1 0.28 0.23 v0.07c0 0.07 0 0.11 0.12 0.11a0.47 0.47 0 0 1 0.16 0H40.45c0.03-0.087 0.05 -0.178 0.06 -0.27 0-0.08 0-0.13-0.06-0.18l0.09-0.14a1.22 1.22 0 0 1 0-0.17 0.2 0.2 0 0 1 0-0.11 1.45 1.45 0 0 1 0.16-0.18l-0.1-0.09 0.05 -0.07c0.12-0.11 0.09 -0.25 0.1 -0.38a0.26 0.26 0 0 0-0.19-0.3c-0.05 0-0.09-0.1 0-0.16a0.28 0.28 0 0 0-0.08-0.28s0.07-0.1 0.11 -0.11c0.04-0.01 0.07 0 0.07-0.09a0.13 0.13 0 0 1 0-0.06c0.019-0.1 0.032 -0.2 0.04 -0.3a0.53 0.53 0 0 1 0-0.28s0-0.08-0.07-0.06a0.16 0.16 0 0 1-0.2-0.1 0.48 0.48 0 0 0-0.11 0.34 c0.01 0.09 0.01 0.18 0 0.27l-0.07 0.08 H40a0.08 0.08 0 0 0-0.07 0 0.34 0.34 0 0 1-0.28 0.1 0.22 0.22 0 0 1-0.14-0.18h-0.16-0.27l-0.22 0.04 z" fill="#0CAF61"/>
  <path d="M38.86 3.21h0.64a0.22 0.22 0 0 0 0.14 0.18 0.34 0.34 0 0 0 0.28-0.1 0.08 0.08 0 0 1 0.07 0h0.13l0.07-0.08c0.01-0.09 0.01 -0.18 0-0.27a0.48 0.48 0 0 1 0.11-0.34c0 0.11 0.1 0.14 0.2 0.1 0.1 -0.04 0.08 0 0.07 0.06 a0.53 0.53 0 0 0 0 0.28 2.76 2.76 0 0 1-0.08 0.27 0.13 0.13 0 0 0 0 0.06c0 0.05 0 0.08-0.07 0.09 -0.07 0.01 -0.07 0.07 -0.11 0.11 -0.04 0.04 0 0 0 0a0.28 0.28 0 0 1 0.08 0.28 c-0.08 0.06 0 0.11 0 0.16a0.26 0.26 0 0 1 0.06 0.24 c0 0.13 0 0.27-0.1 0.38 l-0.05 0.07 0.1 0.09 a1.45 1.45 0 0 0-0.16 0.18 0.2 0.2 0 0 0 0 0.11 1.22 1.22 0 0 0 0 0.17l-0.09 0.14 c0.08 0.05 0.06 0.1 0.06 0.18 a1.18 1.18 0 0 1-0.06 0.27 H39.94a0.47 0.47 0 0 0-0.16 0c-0.08 0-0.12 0-0.12-0.11v-0.07a0.23 0.23 0 0 0-0.28-0.23 0.27 0.27 0 0 1-0.33-0.09c0-0.06-0.08 0-0.11 0l-0.25 0.2 c-0.17 0-0.2 0.17 -0.22 0.31 -0.02 0.14 -0.05 0.08 0 0.14 0.05 0.06 0 0.06-0.06 0.07 a0.1 0.1 0 0 0-0.05 0.11 v0.2a0.15 0.15 0 0 1 0 0.11 1.07 1.07 0 0 1-0.16 0.14 s-0.06 0.08 0 0.12a0.4 0.4 0 0 1 0.07 0.3 c0.01 0.065 0.027 0.128 0.05 0.19 a0.56 0.56 0 0 1-0.06 0.33 0.24 0.24 0 0 0 0.11 0.18 v0.15h-0.16-0.07s0 0.12 0.06 0.13c0.07 0.01 0.14 0.01 0.21 0h0.12a0.83 0.83 0 0 0 0.35 0.1 c0.08 0 0.12 0.04 0.12 0.12 a0.43 0.43 0 0 1 0 0.05v0.09a0.32 0.32 0 0 0-0.34 0.08 2.44 2.44 0 0 1-0.33 0.23 0.56 0.56 0 0 0-0.27 0.41 v0.13a0.36 0.36 0 0 1-0.09 0.26 0.91 0.91 0 0 0-0.09 0.17 v0.19a0.14 0.14 0 0 0 0.18 0c0.12-0.015 0.24 -0.015 0.36 0 0.146 0.025 0.294 0.025 0.44 0a0.53 0.53 0 0 0 0.24-0.11 3.94 3.94 0 0 1 0.45-0.36 0.62 0.62 0 0 1 0.24 0v0.07a0.92 0.92 0 0 1-0.15 0.6 s-0.07 0.12 -0.11 0.18 a0.18 0.18 0 0 0 0 0.2l0.11 0.15 c0.1 0.137 0.1 0.323 0 0.46-0.05 0.08 -0.12 0.15 -0.1 0.26 a0.13 0.13 0 0 0 0 0.06c0 0.1 0 0.13-0.06 0.18 a0.38 0.38 0 0 0-0.19 0.39 c0 0.05 0 0.08-0.06 0.11 a0.19 0.19 0 0 0-0.09 0.2 0.45 0.45 0 0 1-0.07 0.25 c-0.07 0.13 -0.14 0.25 -0.2 0.38 a1.37 1.37 0 0 0-0.07 0.29 l-0.1 0.31 a0.14 0.14 0 0 0 0 0.09 0.31 0.31 0 0 0 0 0.1c0.05 0.09 0.08 0.18 0 0.26l0.3 0.08 a1 1 0 0 1 0 0.25 0.3 0.3 0 0 0 0 0.18c0 0.08 0 0.16 0.05 0.25a0.24 0.24 0 0 1 0 0.08 2.4 2.4 0 0 1-0.18 0.26 0.76 0.76 0 0 0-0.11 0.36 0.33 0.33 0 0 0 0 0.14 0.45 0.45 0 0 1-0.07 0.3 0.24 0.24 0 0 0 0 0.08c0 0.13-0.05 0.27 -0.07 0.4 a1.48 1.48 0 0 0 0 0.21 0.19 0.19 0 0 1-0.07 0.17 0.88 0.88 0 0 0-0.12 0.15 2.09 2.09 0 0 0-0.23 0.3 0.66 0.66 0 0 1-0.07-0.15 0.47 0.47 0 0 1 0-0.31 0.4 0.4 0 0 0 0-0.18c0-0.09-0.05-0.17-0.05-0.25a1.09 1.09 0 0 0-0.08-0.31l-0.21-0.62c-0.07-0.22-0.15-0.43-0.22-0.65-0.07-0.22-0.14-0.42-0.2-0.63a2 2 0 0 0-0.08-0.22 0.28 0.28 0 0 0-0.11-0.13c-0.22-0.15-0.15-0.14-0.11-0.35v-0.12a0.25 0.25 0 0 1-0.08-0.24 2 2 0 0 0 0-0.24 4.15 4.15 0 0 0-0.28-0.69c-0.08-0.21-0.16-0.42-0.23-0.63-0.07-0.21-0.11-0.34-0.17-0.51a3.26 3.26 0 0 1-0.12-0.39c-0.03-0.13 0-0.08 0.07 -0.11l0.24-0.21a0.12 0.12 0 0 0 0-0.12 0.25 0.25 0 0 1 0.08-0.29 5 5 0 0 1 0.47-0.45c0.11-0.06 0.1 -0.12 0-0.2-0.13-0.1-0.14-0.11 0-0.25a5.45 5.45 0 0 0 0.56-1.07c0-0.1 0.09 -0.2 0.13 -0.31 0.04 -0.11 0-0.1 0-0.14 0-0.04 0.08 -0.16 0.1 -0.24 0.02 -0.08 0.07 -0.27 0.11 -0.4 0.04 -0.13 0.09 -0.26 0.13 -0.39C38.12 6.2 38 6 38 5.9c0-0.1 0-0.19 0.07 -0.29 0.07 -0.1 0.06 -0.26 0.08 -0.39a3.69 3.69 0 0 1 0.08-0.46 2 2 0 0 0 0.08-0.48l0.05-0.06a0.13 0.13 0 0 1 0.09 0c0.05 0.07 0.11 0 0.15 0a0.35 0.35 0 0 0 0.13-0.3v-0.14c0-0.05 0.05 -0.22 0.07 -0.33 0.02 -0.11 0.03 -0.15 0.06 -0.24z" fill="#0CAF61"/>
</svg>
