<?xml version="1.0" ?>
<svg xmlns="http://www.w3.org/2000/svg" width="42" height="38" viewBox="0 0 42 38">
  <path d="M40.33 15.7L29 23.84l4.31 12.92L33 37l-11.25-8-11.18 8-0.34-0.15c0.43-1.38 0.83 -2.76 1.28-4.13 0.84 -2.55 1.67-5.11 2.59-7.64a1.43 1.43 0 0 0-0.67-2c-3.12-2.16-6.19-4.4-9.28-6.61-0.35-0.25-0.66-0.55-1.22-1 0.68 0 1.09-0.09 1.5-0.09h11.55a1.36 1.36 0 0 0 1.6-1.11c1.28-4 2.66-7.94 4.1-12.21 0.27 0.6 0.47 1 0.6 1.32 1.19 3.55 2.4 7.1 3.53 10.68a1.6 1.6 0 0 0 1.86 1.33c3.76-0.07 7.52 0 11.28 0 0.43 0 0.85 0 1.28 0.05 l0.1 0.26 zm-29.1 19.73c0.21 0 0.32 0.06 0.37 0 3.1-2.18 6.193-4.37 9.28-6.57 0.24 -0.17 0.53 -0.46 0.53 -0.71 0.05 -2 0-4 0-6.24-2.19 0.69 -4.11 1.29-6 1.93a0.94 0.94 0 0 0-0.49 0.56 c-1.24 3.67-2.45 7.33-3.69 11.03zm27.25-19.16l-0.09-0.27h-12a0.76 0.76 0 0 0-0.57 0.25 c-1.16 1.63-2.29 3.28-3.5 5 1.68 0.59 3.13 1 4.48 1.61 0.99 0.515 2.2 0.338 3-0.44 1.67-1.3 3.44-2.47 5.17-3.69l3.51-2.46zm-16.41 5.8v5.43a1.91 1.91 0 0 0 1 1.84c2.64 1.77 5.24 3.61 7.85 5.41 0.37 0.26 0.76 0.5 1.46 1-1.38-4-2.61-7.56-3.87-11.13a1.29 1.29 0 0 0-0.69-0.72c-1.88-0.66-3.73-1.21-5.75-1.83zm-0.44-18.13c-1.3 4-2.46 7.54-3.59 11.1a1.16 1.16 0 0 0 0.09 0.86 c1.05 1.67 2.14 3.32 3.33 5.17 1.35-1.85 2.6-3.54 3.81-5.27 0.13 -0.265 0.152 -0.57 0.06 -0.85-1.18-3.55-2.33-7.1-3.7-11.01zM5.2 16.18c0.17 0.26 0.22 0.39 0.31 0.45 3 2.05 6 4.11 9 6.13 0.32 0.216 0.71 0.298 1.09 0.23 1.69-0.48 3.36-1 5.16-1.6-1-1.54-1.92-3-2.79-4.45a1.69 1.69 0 0 0-1.74-0.94c-3.22 0.06 -6.45 0-9.67 0.08 -0.41 0.01 -0.82 0.06 -1.36 0.1 z" fill="#000" stroke-width="1.5" stroke="#FFF"/>
</svg>
