<?xml version="1.0" ?>
<svg xmlns="http://www.w3.org/2000/svg" width="34" height="31" viewBox="0 0 34 31">
  <path d="M16.08 25v-0.5-1.32a0.45 0.45 0 0 0-0.16-0.39l-4.6-4.61a432.12 432.12 0 0 0-6.44-6.41 1.6 1.6 0 0 1-0.57-1.39c0.05-0.49 0-0.49 0.5 -0.49h0.5c0.11 0 0.17 0 0.16 0.15 -0.01 0.15 0 0.05 0 0.07-0.057 0.41 0.116 0.817 0.45 1.06 3.333 3.28 6.64 6.57 9.92 9.87l0.22 0.19 v-0.26-1.64a0.5 0.5 0 0 0-0.18-0.43l-5.36-5.36-2.21-2.2a0.45 0.45 0 0 1-0.13-0.34v-0.89c0-0.12 0.05 -0.18 0.18 -0.18h0.81c0.13 0 0.2 0 0.18 0.17 a1.25 1.25 0 0 0 0.5 1.19l6 6 0.19 0.17 v-0.25-1.65a0.49 0.49 0 0 0-0.16-0.39l-3.75-3.73A0.53 0.53 0 0 1 12 11v-0.85c0-0.28 0.06 -0.22 0.22 -0.21H13c0.13 0 0.19 0 0.18 0.17 a1.14 1.14 0 0 0 0.48 1.13c0.76 0.69 1.48 1.43 2.22 2.14l0.19 0.16 V8.13c0-0.27 0-0.27 0.28 -0.27H17c0.16 0 0.21 0 0.2 0.21 V13.5c0.08-0.07 0.14 -0.1 0.19 -0.15L20 10.89a0.47 0.47 0 0 0 0.17-0.4c0-0.19-0.06-0.46 0-0.54 0.06 -0.08 0.37 0 0.56-0.06 0.133 -0.01 0.267 -0.01 0.4 0a0.23 0.23 0 0 1 0.15 0.14 v1a0.52 0.52 0 0 1-0.15 0.27 c-1.24 1.24-2.48 2.49-3.73 3.73a0.56 0.56 0 0 0-0.19 0.46 v1.85a1.77 1.77 0 0 0 0.22-0.18l6.35-6.3a0.53 0.53 0 0 0 0.17-0.41c0-0.19 0-0.45 0.05 -0.56 0.05 -0.11 0.36 0 0.55 0 0.57 0 0.53 0 0.57 0.57 a1.46 1.46 0 0 1-0.52 1.25c-2.41 2.38-4.8 4.78-7.2 7.18a0.56 0.56 0 0 0-0.19 0.46 V21.24l0.2-0.17 10.25-10.2a0.6 0.6 0 0 0 0.15-0.47c0-0.51 0-0.51 0.5 -0.51h0.48c0.12 0 0.18 0 0.17 0.16 v1a0.6 0.6 0 0 1-0.16 0.29 L23 17.22l-5.55 5.55a0.54 0.54 0 0 0-0.18 0.42 v1.9a2.3 2.3 0 0 0 0.2-0.16l14.1-14.07a0.61 0.61 0 0 0 0.13-0.32 3.2 3.2 0 0 0 0-0.44c0-0.16 0.06 -0.22 0.21 -0.21h0.77c0.14 0 0.2 0 0.2 0.19 v0.95a0.55 0.55 0 0 1-0.18 0.32 l-4 4-11.28 11.26a0.58 0.58 0 0 0-0.19 0.46 v1.46c0 0.31 0 0.31 0.3 0.31h5.72c0.3 0 0.3 0 0.3 0.3 v0.59c0 0.28 0 0.28-0.29 0.28 H10c-0.27 0-0.27 0-0.27-0.28v-0.65c0-0.21 0.05 -0.25 0.24 -0.25h5.85c0.17 0 0.25-0.05 0.24 -0.24v-1.56a0.45 0.45 0 0 0-0.16-0.39l-5-5L2 12.71 0.6 11.33A0.49 0.49 0 0 1 0.44 11v-0.88c0-0.13 0-0.19 0.19 -0.19h0.81c0.13 0 0.19 0 0.18 0.18 a1.18 1.18 0 0 0 0.49 1.13l13.74 13.67c0.052 0.058 0.109 0.112 0.17 0.16 l0.06-0.07zM17.45 0a0.83 0.83 0 0 0 0.05 1.16c0.29 0.365 0.508 0.783 0.64 1.23a1.41 1.41 0 0 1-0.09 1 3.25 3.25 0 0 1-1.3 1.38 1.13 1.13 0 0 0-0.27-1.22 3 3 0 0 1-0.58-1.21 1.24 1.24 0 0 1 0.1-0.86A3.19 3.19 0 0 1 17.29 0.06 l0.16-0.06z" fill="#FFF"/>
  <path d="M5.89 8.57v0.81c0 0.14 0 0.19-0.19 0.19 H4c-0.14 0-0.19 0-0.19-0.18V7.73c0-0.15 0.06 -0.19 0.19 -0.19h1.7c0.15 0 0.2 0 0.19 0.19 v0.84zM1 9.56H0.19c-0.13 0-0.19 0-0.19-0.19V7.73c0-0.15 0-0.22 0.2 -0.21h1.65c0.15 0 0.19 0 0.19 0.2 v1.62c0 0.18-0.07 0.22 -0.23 0.22 H1zM9.76 8.57v0.83c0 0.12 0 0.17-0.16 0.17 H7.9c-0.14 0-0.18-0.06-0.17-0.19V7.7c0-0.13 0-0.17 0.18 -0.17h1.67c0.15 0 0.19 0.06 0.18 0.19 v0.85zM23.55 8.54v-0.83c0-0.12 0-0.18 0.17 -0.18h1.7c0.13 0 0.17 0 0.17 0.17 v1.7c0 0.13-0.05 0.17 -0.17 0.16 h-1.71c-0.12 0-0.16-0.05-0.16-0.17 0.01 -0.28 0-0.56 0-0.85zM17.65 6.52v0.81c0 0.14 0 0.21-0.2 0.2 h-1.64c-0.14 0-0.2 0-0.2-0.19V5.68c0-0.13 0-0.18 0.18 -0.18h1.68c0.14 0 0.18 0.07 0.18 0.2 v0.82zM28.4 9.56h-0.85c-0.13 0-0.18 0-0.18-0.18V7.71c0-0.13 0-0.18 0.17 -0.18h1.69c0.12 0 0.18 0 0.18 0.17 v1.68c0 0.15-0.06 0.19 -0.2 0.19 l-0.81-0.01zM13.63 8.55v0.81c0 0.27 0 0.21-0.2 0.21 h-1.66c-0.13 0-0.18 0-0.18-0.17V7.7c0-0.13 0.05 -0.17 0.18 -0.17h1.66c0.16 0 0.2 0.06 0.2 0.21 v0.81zM20.71 9.56h-0.83c-0.14 0-0.2 0-0.2-0.18V7.71c0-0.14 0.07 -0.18 0.2 -0.18h1.66c0.13 0 0.18 0 0.18 0.18 v1.68c0 0.13 0 0.18-0.18 0.17 h-0.83zM32.26 9.56h-0.83c-0.14 0-0.19-0.06-0.19-0.19V7.69c0-0.13 0.05 -0.17 0.17 -0.17h1.68c0.14 0 0.19 0 0.19 0.19 v1.67c0 0.14-0.05 0.19 -0.19 0.19 l-0.83-0.01zM32.26 7.12a2.54 2.54 0 0 1-0.46-0.4 1.6 1.6 0 0 1-0.53-1.1c0.03-0.318 0.152 -0.62 0.35 -0.87 0.06 -0.09 0.14 -0.18 0.21 -0.27a0.65 0.65 0 0 0 0.17-0.67l0.17 0.11 c0.315 0.237 0.569 0.545 0.74 0.9 0.153 0.35 0.115 0.754 -0.1 1.07a3.87 3.87 0 0 1-0.38 0.55 0.53 0.53 0 0 0-0.07 0.64 l-0.1 0.04 zM24.22 3.83c0.264 0.154 0.492 0.362 0.67 0.61 a1.25 1.25 0 0 1 0 1.7l-0.18 0.24 a0.59 0.59 0 0 0-0.12 0.71 3.47 3.47 0 0 1-0.46-0.4 1.59 1.59 0 0 1-0.53-1.11 1.71 1.71 0 0 1 0.35-0.87l0.16-0.21a0.64 0.64 0 0 0 0.11-0.67zM28.43 7.09a2.27 2.27 0 0 1-0.82-0.81 1 1 0 0 1-0.09-1.09c0.11-0.23 0.244 -0.448 0.4 -0.65a0.69 0.69 0 0 0 0.14-0.72h0.11c0.372 0.249 0.67 0.595 0.86 1a1 1 0 0 1-0.09 0.9 4.13 4.13 0 0 1-0.33 0.52 c-0.17 0.31 -0.36 0.53 -0.18 0.85 z" fill="#FFF"/>
</svg>
