<?xml version="1.0" ?>
<svg xmlns="http://www.w3.org/2000/svg" width="36" height="36" viewBox="0 0 36 36">
  <path d="M3.76 10h1.12a0.33 0.33 0 0 0 0.39-0.28c0.19-0.55 0.34 -1.1 0.55 -1.63a12.6 12.6 0 0 1 4.23-5.47 12.73 12.73 0 0 1 4.19-2.1 13.14 13.14 0 0 1 11.27 1.91A12.69 12.69 0 0 1 30 8.21c0.18 0.46 0.31 0.95 0.46 1.43 0.08 0.3 0.17 0.38 0.47 0.38h1.93a2.8 2.8 0 0 1 2.84 2.38 0.76 0.76 0 0 1-0.25 0.7 L21.12 27.2a4.58 4.58 0 0 1-6.41 0C10 22.6 5.29 18 0.57 13.35a1.27 1.27 0 0 1-0.25-1.81A2.82 2.82 0 0 1 2.85 10h0.91zm14.14 0h10.58c0.34 0 0.49-0.2 0.37 -0.51-0.17-0.46-0.33-0.93-0.54-1.37A11.2 11.2 0 0 0 24 3.24a11.12 11.12 0 0 0-4.87-1.68 11.48 11.48 0 0 0-12.23 8 0.34 0.34 0 0 0 0.31 0.46 H17.9V10zM5.64 14.89c0.14 0 0.29 0 0.44-0.08a1.55 1.55 0 0 0 1.22-1.32 1.63 1.63 0 0 0-0.67-1.62c-0.15-0.12-0.22-0.09-0.24 0.11 -0.02 0.2 0 0.52 0 0.78a0.78 0.78 0 0 1-0.77 0.78 0.77 0.77 0 0 1-0.75-0.8v-0.77a0.83 0.83 0 0 0-0.06-0.21 0.68 0.68 0 0 0-0.2 0.07 1.63 1.63 0 0 0-0.71 1.32 1.74 1.74 0 0 0 1.74 1.74zm25.29-2.54v0.52a0.77 0.77 0 0 1-0.77 0.67 0.79 0.79 0 0 1-0.75-0.69c0-0.28 0-0.57-0.06-0.86a0.56 0.56 0 0 0-0.07-0.19 0.89 0.89 0 0 0-0.17 0.08 1.65 1.65 0 0 0-0.61 1.74 1.74 1.74 0 0 0 1.5 1.25A1.7 1.7 0 0 0 31.84 13a1.55 1.55 0 0 0-0.74-1.16s-0.12-0.05-0.14 0a0.2 0.2 0 0 0-0.06 0.15 c0 0.08 0.02 0.22 0.03 0.36z" fill="#FFF"/>
  <path d="M17.9 35.79H3a2.85 2.85 0 0 1-2.74-1.72A2.68 2.68 0 0 1 0 32.85v-11-5.14a0.67 0.67 0 0 1 0-0.2c0-0.08 0.06 -0.19 0.12 -0.21a0.28 0.28 0 0 1 0.25 0.05 c0.166 0.136 0.323 0.283 0.47 0.44 L13 28.77a6.91 6.91 0 0 0 6.19 1.94 6.81 6.81 0 0 0 3.65-1.95c4.153-4.1 8.31-8.19 12.47-12.27l0.08-0.08c0.09 0 0.21-0.1 0.28 -0.07a0.33 0.33 0 0 1 0.13 0.26 V32.86a2.79 2.79 0 0 1-1.43 2.53 3 3 0 0 1-1.55 0.4 H17.9z" fill="#FFF"/>
</svg>
