<?xml version="1.0" ?>
<svg xmlns="http://www.w3.org/2000/svg" width="20" height="36" viewBox="0 0 20 36">
  <path d="M19.18 25.3c0.06 0.39 0.11 0.76 0.16 1.13 0.05 0.37 0.13 0.85 0.19 1.27 0 0.18 0 0.36 0.08 0.54 0.07 0.48 0.14 1 0.19 1.43 0 0-0.05 0.13 -0.11 0.16 l-1.49 1c-1.16 0.73 -2.31 1.46-3.48 2.17s-2.11 1.22-3.18 1.8a3.54 3.54 0 0 1-1.12 0.33 3.66 3.66 0 0 1-1.28 0 4.26 4.26 0 0 1-1.3-0.49c-1.9-1-3.72-2.16-5.53-3.31L0.14 29.86a0.23 0.23 0 0 1-0.14-0.29c0.07-0.42 0.11 -0.84 0.16 -1.26 0.05 -0.42 0.14 -0.86 0.2 -1.31 0-0.25 0-0.5 0.09 -0.75s0.09-0.63 0.13 -1a25.3 25.3 0 0 0 9.31 1.54 26 26 0 0 0 9.29-1.49zM18.18 0h0.87v0.41c0 0.39-0.08 0.78 -0.11 1.17-0.03 0.39 -0.05 0.95 -0.09 1.42-0.05 0.73 -0.12 1.46-0.18 2.19 0 0.43-0.08 0.86 -0.08 1.29 0.025 0.202 0.076 0.4 0.15 0.59 0.14 0.48 0.28 0.95 0.4 1.43 0.109 0.448 0.19 0.902 0.24 1.36a5.23 5.23 0 0 1 0 1.53 8.6 8.6 0 0 1-0.45 1.61 4.93 4.93 0 0 1-2.5 2.75 3.07 3.07 0 0 1-1.87 0.17 7.89 7.89 0 0 1-1.05-0.23 3.82 3.82 0 0 1-2.43-2 7.39 7.39 0 0 1-0.41-1.2 0.79 0.79 0 0 1 0.17-0.64A8.23 8.23 0 0 1 12.43 10a19.26 19.26 0 0 1 3.67-2.66c0.42-0.2 0.802 -0.47 1.13-0.8a2.11 2.11 0 0 0 0.6-1.48V3.99c0.05-0.8 0.13 -1.6 0.19 -2.4l0.09-1c0.01-0.2 0.04 -0.39 0.07 -0.59zM0.71 0.06 h0.89c0.033 0.104 0.056 0.211 0.07 0.32 l0.09 1.09c0.06 0.66 0.13 1.32 0.18 2 0.049 0.432 0.069 0.866 0.06 1.3a2.45 2.45 0 0 0 1.43 2.46 18.22 18.22 0 0 1 4.83 3.67c0.349 0.343 0.627 0.75 0.82 1.2a0.61 0.61 0 0 1 0 0.35 4 4 0 0 1-2.44 3 4.33 4.33 0 0 1-1.41 0.37 c-0.35 0-0.69 0.06 -1 0.07a2.74 2.74 0 0 1-1.33-0.45 4.79 4.79 0 0 1-1.84-2 6.88 6.88 0 0 1-0.6-1.7A4.14 4.14 0 0 1 0.36 10c0.1-0.48 0.12 -1 0.24-1.44 0.12 -0.44 0.4 -1.2 0.55 -1.81 0.03 -0.25 0.03 -0.5 0-0.75v-0.18l-0.09-1.48C1 3.7 1 3.07 0.92 2.43 0.84 1.79 0.83 1.26 0.78 0.67 0.76 0.47 0.74 0.27 0.71 0.06z" fill="#FFF"/>
  <path d="M1 14.58c0.25 0.28 0.48 0.57 0.75 0.82 a4 4 0 0 0 1.65 1c0.405 0.14 0.832 0.2 1.26 0.18 0.53-0.05 1-0.15 1.57-0.25a4.47 4.47 0 0 0 1.87-0.84 3.9 3.9 0 0 0 1.31-1.76c0.13-0.378 0.21 -0.771 0.24 -1.17 0-0.22 0.17 -0.15 0.29 -0.16 0.12 -0.01 0.19 0 0.19 0.17 a4 4 0 0 0 0.23 1.12 3.71 3.71 0 0 0 1.24 1.73 4.76 4.76 0 0 0 2 0.91 10.53 10.53 0 0 0 1.59 0.25 3.78 3.78 0 0 0 2.52-0.84c0.317-0.275 0.618 -0.57 0.9 -0.88l0.14-0.17a0.5 0.5 0 0 1 0 0.19c-0.12 0.43 -0.25 0.86 -0.38 1.29-0.08 0.27 -0.15 0.55 -0.24 0.82 a0.33 0.33 0 0 1-0.16 0.17 0.58 0.58 0 0 1-0.26 0.05 h-2.44a10.86 10.86 0 0 1-1.42-0.21c-0.47-0.08-0.93-0.18-1.39-0.3-0.46-0.12-0.77-0.24-1.15-0.37a3.93 3.93 0 0 0-1.92-0.22 12.22 12.22 0 0 0-1.32 0.35 c-0.45 0.13 -0.9 0.28 -1.36 0.39 a13.45 13.45 0 0 1-1.41 0.26 c-0.51 0.06 -1 0.08-1.55 0.09 -0.55 0.01 -1.08 0-1.62 0a1.37 1.37 0 0 1-0.28-0.05 0.26 0.26 0 0 1-0.15-0.15c-0.2-0.67-0.38-1.35-0.57-2L1 14.58z" fill="#FFF"/>
</svg>
