<?xml version="1.0" ?>
<svg xmlns="http://www.w3.org/2000/svg" width="42" height="36" viewBox="0 0 42 36">
  <path d="M1.81 15c0.626 0.22 1.3 0.268 1.95 0.14 A3.64 3.64 0 0 0 5.8 14c0.37-0.39 0.652 -0.853 0.83 -1.36 0-0.07 0.18 -0.13 0.27 -0.14h3.79a0.29 0.29 0 0 1 0.32 0.22 3.79 3.79 0 0 0 1.8 2 3.7 3.7 0 0 0 2.84 0.26 3.65 3.65 0 0 0 2.41-2.26c0.07-0.17 0.15 -0.27 0.36 -0.26h4.24c0.19 0 0.24 0.12 0.28 0.25 a3.77 3.77 0 0 0 1.83 2 3.43 3.43 0 0 0 1.61 0.4 3.7 3.7 0 0 0 3.45-2.08c0.066-0.11 0.12 -0.228 0.16 -0.35 0-0.22 0.17 -0.25 0.36 -0.25H34c0.35 0 0.35 0 0.47 0.31 a3.63 3.63 0 0 0 1.53 1.9 3.53 3.53 0 0 0 2.39 0.52 l0.81-0.16a1.7 1.7 0 0 1 0 0.26V30.41a0.84 0.84 0 0 1-0.49 0.84 1.34 1.34 0 0 1-0.45 0.09 H2.79a0.9 0.9 0 0 1-0.94-0.55 0.93 0.93 0 0 1-0.06-0.37V15.28c0-0.09 0.01 -0.18 0.02 -0.28zm23 10.39v-4.54a3.09 3.09 0 0 0-0.18-1 2.64 2.64 0 0 0-2.37-1.68h-3.65c-0.242 0-0.482 0.04 -0.71 0.12 a2.66 2.66 0 0 0-1.77 2.49v9.44c0 0.2 0 0.26 0.26 0.26h8.13c0.29 0 0.29 0 0.29-0.28v-4.81zM20.5 32.54h18a0.83 0.83 0 0 1 0.88 0.82 v1.27a0.85 0.85 0 0 1-0.85 0.67 h-36a0.87 0.87 0 0 1-0.89-0.54 0.78 0.78 0 0 1-0.06-0.31v-1a0.85 0.85 0 0 1 0.9-0.89h18l0.02-0.02zM41.1 10.25h-5.9a0.35 0.35 0 0 1-0.37-0.27c-0.31-0.79-0.64-1.58-0.95-2.37-0.25-0.61-0.49-1.22-0.73-1.83l-1-2.37c-0.09-0.24-0.2-0.47-0.29-0.71-0.09-0.24 0-0.21 0.17 -0.22h4.42a0.3 0.3 0 0 1 0.3 0.18 l2.05 3.57 2 3.48 0.3 0.54zM0.07 10.25l0.66-1.18c0.5-0.86 1-1.73 1.48-2.59L3.62 4c0.26-0.45 0.51 -0.9 0.78 -1.35a0.37 0.37 0 0 1 0.25-0.15h4.47c0.18 0 0.21 0.06 0.15 0.22 l-0.86 2.14c-0.35 0.86 -0.71 1.7-1 2.55-0.29 0.85 -0.66 1.53-0.96 2.29 0 0.06-0.06 0.11 -0.07 0.16 0 0.39-0.31 0.41 -0.63 0.41 H0.31l-0.24-0.02zM26.55 10.27H23.8c-0.29 0-0.29 0-0.32-0.31-0.06-0.65-0.14-1.3-0.22-2 0-0.29-0.07-0.58-0.1-0.87L23 5.19c-0.08-0.61-0.17-1.22-0.25-1.83 0-0.23-0.05-0.46-0.06-0.7 0-0.05 0.07 -0.12 0.12 -0.15a0.53 0.53 0 0 1 0.18 0h4.24c0.16 0 0.25 0 0.29 0.2 l0.3 1c0.11 0.37 0.2 0.74 0.31 1.11 0.11 0.37 0.21 0.76 0.32 1.13 0.11 0.37 0.29 1 0.43 1.47s0.25 0.9 0.37 1.34c0.12 0.44 0.22 0.77 0.34 1.15 0.12 0.38 0.06 0.32-0.22 0.32 l-2.82 0.04 zM11.56 10.23c0.19-0.68 0.39 -1.33 0.57 -2 0.18-0.67 0.31 -1.13 0.47 -1.7l0.4-1.4c0.13-0.47 0.25 -0.94 0.38 -1.4l0.3-1A0.25 0.25 0 0 1 14 2.5h4.3c0.19 0 0.24 0.07 0.21 0.25 l-0.3 2.77-0.27 2.24c-0.09 0.75 -0.18 1.5-0.26 2.25 0 0.19-0.09 0.26 -0.29 0.26 h-5.58l-0.25-0.04zM3.85 1.16v-1C3.85 0 3.94 0 4 0h32.91c0.26 0 0.26 0 0.26 0.27 v0.66c0 0.22-0.07 0.23 -0.24 0.23 H3.85z" fill="#FFF"/>
  <path d="M26.46 11.42h2.84c0.24 0 0.28 0 0.25 0.26 A3.09 3.09 0 0 1 23.79 13a2.59 2.59 0 0 1-0.39-1.34c0-0.16 0-0.22 0.21 -0.22l2.85-0.02zM14.54 11.42h2.83c0.25 0 0.27 0 0.25 0.26 A2.94 2.94 0 0 1 16.29 14a2.82 2.82 0 0 1-2 0.54 3 3 0 0 1-2.59-1.94 7.32 7.32 0 0 1-0.24-0.92c0-0.17 0-0.23 0.23 -0.23h2.85v-0.03zM3.07 11.42h2.81c0.25 0 0.26 0 0.25 0.28 a3 3 0 0 1-0.86 1.88 2.8 2.8 0 0 1-1.27 0.77 2.79 2.79 0 0 1-1.1 0.17 A3.1 3.1 0 0 1 0.38 13 2.59 2.59 0 0 1 0 11.68c0-0.25 0-0.26 0.24 -0.26h2.83zM38 11.42h2.81c0.25 0 0.27 0 0.25 0.26 a3 3 0 0 1-1.76 2.52 2.91 2.91 0 0 1-2.26 0.17 3 3 0 0 1-1.9-1.71 4.79 4.79 0 0 1-0.24-1.06c0-0.16 0.08 -0.18 0.21 -0.18H38z" fill="#FFF"/>
</svg>
