<?xml version="1.0" ?>
<svg xmlns="http://www.w3.org/2000/svg" width="31" height="31" viewBox="0 0 31 31">
  <path d="M15.45 31A15.48 15.48 0 1 1 31 15.7c-0.077 8.516-7.034 15.361-15.55 15.3zm3.74-9.26c-0.1-0.12-0.18-0.23-0.27-0.32L17.55 20c-0.18-0.18-0.22-0.18-0.4 0l-1.52 1.52c-0.09 0.09 -0.15 0.13 -0.26 0L13.85 20c-0.19-0.19-0.23-0.2-0.43 0-0.5 0.48 -1 0.95-1.49 1.43-0.15 0.15 -0.23 0.12 -0.36 0L10 20c-0.11-0.11-0.2-0.12-0.32 0l-2.03 2c-0.12 0.12 -0.1 0.21 0 0.32l0.61 0.61 c0.17 0.17 0.2 0.17 0.37 0 0.37-0.37 0.75 -0.74 1.11-1.12 0.11 -0.11 0.18 -0.11 0.29 0l1.51 1.45c0.19 0.18 0.21 0.18 0.4 0l1.42-1.37c0.23-0.22 0.23 -0.22 0.45 0l1.45 1.45c0.19 0.19 0.22 0.19 0.41 0l1.48-1.5c0.13-0.13 0.21 -0.13 0.34 0L19 23.41c0.17 0.17 0.2 0.17 0.37 0l1.52-1.52c0.12-0.12 0.2 -0.12 0.32 0 0.37 0.38 0.74 0.74 1.11 1.12 0.09 0.09 0.16 0.13 0.27 0l0.73-0.73a0.15 0.15 0 0 0 0-0.24L21.25 20c-0.13-0.13-0.22-0.11-0.35 0l-1.5 1.51-0.21 0.23 zm0.65-7.25a6.28 6.28 0 0 0 0.78-0.19 2 2 0 0 0 1.17-2.71 2.17 2.17 0 0 0-2.71-1.06 2 2 0 0 0-1 3.06 2.3 2.3 0 0 0 1.75 0.85 l0.01 0.05 zm-8.71 0a2.08 2.08 0 0 0 2.09-2 2.11 2.11 0 0 0-2.16-2.08 2.14 2.14 0 0 0-2 2 2.08 2.08 0 0 0 2.06 2.02l0.01 0.06 z" fill="#FFF"/>
</svg>
