<?xml version="1.0" ?>
<svg xmlns="http://www.w3.org/2000/svg" width="37" height="29" viewBox="0 0 37 29">
  <path d="M28.85 24.48l-1.37 0.14 h-0.2l-1.93 0.1 c-3.38 0.2 -6.76 0.16 -10.15 0.14 -1.09 0-2.18-0.06-3.28-0.09-0.47 0-0.94 0-1.41-0.08-0.78-0.06-1.55-0.15-2.33-0.22a2.8 2.8 0 0 0-0.29 0V27.46c0 0.74-0.6 1.34-1.34 1.34H2.71a1.38 1.38 0 0 1-1.38-1.38v-4.44a0.26 0.26 0 0 0-0.12-0.26A2.51 2.51 0 0 1 0.14 21.6a1.37 1.37 0 0 1-0.14-0.53v-5.65a4.84 4.84 0 0 1 1.07-2.88c0.2-0.25 0.44 -0.48 0.66 -0.71 0.22 -0.23 0.11 -0.13 0-0.19a2.66 2.66 0 0 1-1.57-1.58A2.54 2.54 0 0 1 0.1 8.47a2.61 2.61 0 0 1 1.26-1.58 2.66 2.66 0 0 1 1.23-0.33h1.62c0.13 0 0.19 0 0.23-0.17 0.14 -0.46 0.31 -0.91 0.46 -1.37 0.15 -0.46 0.28 -0.84 0.43 -1.26a5.42 5.42 0 0 1 1.92-2.61A5.8 5.8 0 0 1 9.14 0.24 a5.8 5.8 0 0 1 1.5-0.24h15.44a5.53 5.53 0 0 1 4.43 2.11 5.75 5.75 0 0 1 1 1.83c0.26 0.79 0.55 1.57 0.79 2.37 0.07 0.21 0.16 0.24 0.35 0.24h1.49a2.62 2.62 0 0 1 1.45 4.8 2.31 2.31 0 0 1-0.54 0.28 c-0.16 0.06 -0.12 0.11 0 0.2 0.397 0.365 0.734 0.79 1 1.26a5.31 5.31 0 0 1 0.71 2.78v4.9a2.15 2.15 0 0 1-1 1.81c-0.103 0.06 -0.2 0.131 -0.29 0.21 a0.34 0.34 0 0 0-0.07 0.22 v4.54a1.27 1.27 0 0 1-0.89 1.2 1.76 1.76 0 0 1-0.45 0.07 h-3.83a1.35 1.35 0 0 1-1.37-1.32v-2.79l-0.01-0.23zm3.41-14c-0.14-0.44-0.26-0.84-0.4-1.25-0.14-0.41-0.37-1.06-0.55-1.6-0.18-0.54-0.28-0.9-0.43-1.35-0.15-0.45-0.37-1.09-0.56-1.64a5.32 5.32 0 0 0-0.6-1.36 4.14 4.14 0 0 0-3.56-1.93H10.85a5 5 0 0 0-1.79 0.32 A3.9 3.9 0 0 0 6.78 3.7c-0.29 0.63 -0.48 1.3-0.71 2-0.07 0.3 -0.23 0.66 -0.35 1.01-0.18 0.54 -0.36 1.08-0.55 1.62-0.12 0.37 -0.25 0.75 -0.38 1.12-0.13 0.37 -0.21 0.67 -0.32 1l27.79 0.03 zm-27 9.18a2.62 2.62 0 1 0-0.324-5.23 2.62 2.62 0 0 0 0.324 5.23zm26.21 0a2.62 2.62 0 1 0-1.866-0.79 2.6 2.6 0 0 0 1.856 0.78 l0.01 0.01 zM18.35 17h7.26a0.67 0.67 0 0 0 0.57-0.92 0.69 0.69 0 0 0-0.69-0.38H11.15a0.64 0.64 0 0 0-0.65 0.7 0.67 0.67 0 0 0 0.7 0.6 h7.15zm0 1.31h-5.94a0.64 0.64 0 0 0-0.54 0.9 0.69 0.69 0 0 0 0.68 0.4 h11.73a0.66 0.66 0 0 0 0.65-0.66 0.7 0.7 0 0 0-0.69-0.64h-5.89z" fill="#FFF"/>
  <path d="M32.26 10.47H4.47c0.11-0.35 0.21 -0.69 0.32 -1 0.11-0.31 0.26 -0.75 0.38 -1.12 0.19 -0.54 0.37 -1.08 0.55 -1.62 0.12 -0.35 0.23 -0.71 0.35 -1.06 0.23 -0.65 0.42 -1.32 0.71 -1.95a3.9 3.9 0 0 1 2.28-2.08 5 5 0 0 1 1.79-0.32h15.31a4.14 4.14 0 0 1 3.56 1.93c0.263 0.423 0.465 0.88 0.6 1.36 0.19 0.55 0.38 1.09 0.56 1.64 0.18 0.55 0.28 0.9 0.43 1.35 0.15 0.45 0.37 1.07 0.55 1.6 0.18 0.53 0.26 0.8 0.4 1.27zM5.25 19.65a2.62 2.62 0 1 1 2.62-2.59 2.61 2.61 0 0 1-2.62 2.59zM31.46 19.65a2.62 2.62 0 1 1 2.64-2.59 2.6 2.6 0 0 1-2.64 2.59zM18.35 17H11.2a0.67 0.67 0 0 1-0.7-0.6 0.64 0.64 0 0 1 0.65-0.7h14.34a0.69 0.69 0 0 1 0.69 0.38 0.67 0.67 0 0 1-0.57 0.92 h-7.26zM18.36 18.36h5.88a0.7 0.7 0 0 1 0.69 0.64 0.66 0.66 0 0 1-0.65 0.66 H12.55a0.69 0.69 0 0 1-0.68-0.4 0.64 0.64 0 0 1 0.54-0.9h5.95z" fill="#00B050"/>
</svg>
