<?xml version="1.0" ?>
<svg xmlns="http://www.w3.org/2000/svg" width="43" height="36" viewBox="0 0 43 36">
  <path d="M34.22 26.75L26 24.09a1.88 1.88 0 0 0 0.3-1.22v-3.54a1.66 1.66 0 0 0-0.49-1.25l-2.09-2.28a0.43 0.43 0 0 1-0.13-0.28v-5.24a1.37 1.37 0 0 1 0-0.16l1 0.33 1.62 0.56 a0.56 0.56 0 0 1 0.23 0.2 l2.23 4.1a1.28 1.28 0 0 0 2.39-0.8 3.92 3.92 0 0 0-0.4-0.89c-0.76-1.42-1.54-2.83-2.3-4.24a1.46 1.46 0 0 0-0.93-0.68l-1.94-0.63-1.65-0.53c-0.47-0.15-0.94-0.31-1.41-0.44a2.49 2.49 0 0 0-0.66-0.1h-5a0.75 0.75 0 0 1-0.41-0.14 242.64 242.64 0 0 1-4.08-2.95 1.31 1.31 0 0 0-1.75 0.08 1.26 1.26 0 0 0 0.15 1.93C12.2 7 13.77 8.14 15.33 9.27c0.233 0.16 0.508 0.247 0.79 0.25 h2.41v4.79c-0.21 0-0.41 0.07 -0.61 0.08 l-1.63 0.11 c-0.44 0-0.87 0.08 -1.31 0.15 a1.44 1.44 0 0 0-1 0.74 323.605 323.605 0 0 0-2.46 4 0.25 0.25 0 0 1-0.32 0.14 L9.51 19l-1.74-0.54L6.3 18l-1.48-0.46-1.47-0.44-1.46-0.45-1.25-0.39-0.27-0.05c0.07 0.26 0.1 0.48 0.17 0.69 a9.21 9.21 0 0 0 3 4 19.39 19.39 0 0 0 3.85 2.56c1.2 0.6 2.42 1.17 3.65 1.71 0.75 0.33 1.53 0.59 2.31 0.86 0.62 0.23 1.24 0.44 1.87 0.64 0.63 0.2 1.22 0.35 1.83 0.53 l1.66 0.46 c0.35 0.1 0.71 0.17 1.07 0.27 a0.83 0.83 0 0 1 0.29 0.16 12.77 12.77 0 0 0 3.3 2.36 7 7 0 0 0 1.89 0.64 c0.29 0 0.59 0.07 0.88 0.12 0.29 0.05 0.23 0 0.22-0.21v-3.26h0.29c0.95 0.05 1.91 0.13 2.86 0.13 a17.81 17.81 0 0 0 2.31-0.16 5.07 5.07 0 0 0 2.12-0.71c0.05 0 0.11-0.07 0.15 -0.11a0.94 0.94 0 0 0 0.13-0.14zM23.1 23.19l-1.1-0.33-1.74-0.52-1.75-0.56-1.74-0.52c-0.68-0.21-1.35-0.43-2-0.63-0.17-0.05-0.17-0.13-0.1-0.24 0.52 -0.85 1-1.7 1.57-2.55a0.27 0.27 0 0 1 0.17-0.12l1.72-0.16c0.42 0 0.84-0.06 1.25-0.11 0.41 -0.05 0.73 -0.08 1.09-0.13a0.43 0.43 0 0 1 0.42 0.15 c0.7 0.76 1.41 1.5 2.1 2.26a0.51 0.51 0 0 1 0.11 0.31 v2.92c0.02 0.04 0.01 0.13 0 0.23z" fill="#FFF"/>
  <path d="M32.92 28.73a6.45 6.45 0 0 0-4.53 1.76c-0.46 0.41 -0.92 0.82 -1.41 1.19a2.85 2.85 0 0 1-1.48 0.53 3.64 3.64 0 0 1-3-1.1 9.64 9.64 0 0 0-2.18-1.67 5.29 5.29 0 0 0-2-0.63 12.22 12.22 0 0 0-1.48-0.07 5.62 5.62 0 0 0-3.29 1.09c-0.67 0.49 -1.28 1.05-1.92 1.58a3.36 3.36 0 0 1-2.13 0.82 3.57 3.57 0 0 1-2.51-1 13.47 13.47 0 0 0-2-1.65 6.13 6.13 0 0 0-1.84-0.74 7.7 7.7 0 0 0-1.58-0.16 1.65 1.65 0 0 0-1.5 1.2 1.62 1.62 0 0 0 1 2c0.14 0.055 0.29 0.083 0.44 0.08 A3.59 3.59 0 0 1 4.2 33.1a9.8 9.8 0 0 0 2.15 1.64 6.41 6.41 0 0 0 1.53 0.57 7.26 7.26 0 0 0 2.13 0.14 5.84 5.84 0 0 0 3.12-1.11c0.68-0.52 1.32-1.09 2-1.64a3.29 3.29 0 0 1 1.95-0.74 3.64 3.64 0 0 1 2.78 1.12 10.43 10.43 0 0 0 2.18 1.67 5.44 5.44 0 0 0 2 0.63c0.478 0.048 0.96 0.072 1.44 0.07 a6 6 0 0 0 3.56-1.27c0.57-0.44 1.1-0.92 1.65-1.39a3.29 3.29 0 0 1 2.17-0.83 3.54 3.54 0 0 1 2.49 1 13.14 13.14 0 0 0 2.06 1.66 6.32 6.32 0 0 0 1.83 0.73 8.83 8.83 0 0 0 1.53 0.16 1.7 1.7 0 0 0 1.54-1.16 1.6 1.6 0 0 0-1.2-2 3.31 3.31 0 0 0-0.55-0.06 3 3 0 0 1-1.91-0.72c-0.56-0.46-1.09-0.94-1.65-1.4A6 6 0 0 0 34.8 29a6.64 6.64 0 0 0-1.88-0.27zM21.69 0a3 3 0 1 0 0 6 3 3 0 0 0 0-6z" fill="#FFF"/>
</svg>
