<?xml version="1.0" ?>
<svg xmlns="http://www.w3.org/2000/svg" width="45" height="28" viewBox="0 0 45 28">
  <path d="M9.11 1.91h13v11h-13z" fill="#FFF"/>
  <path d="M0 21.4V20h9.13c0.21 0 0.28-0.07 0.3 -0.27 0.06 -0.57 0.09 -0.46-0.4-0.46H4.51c-0.2 0-0.24-0.06-0.23-0.24v-1.17h5.29c0.21 0 0.36 0 0.39-0.27a3.74 3.74 0 0 1 0.14-0.45H2.15V15.7h8.7a0.45 0.45 0 0 0 0.38-0.19c0.3-0.36 0.62 -0.69 0.95 -1 0.08-0.09 0.21 -0.13 0.31 -0.23h-6v-2.15h0.38c0.34 0 0.31 0 0.31-0.33V8.02 2.37c0-0.26 0-0.26-0.26-0.26h-0.48V0H25v2.11h-0.47c-0.15 0-0.24 0.05 -0.24 0.23 v9.57c0 0.18 0 0.24 0.23 0.22 0.23 -0.02 0.31 0 0.48 0v2.12h-0.53a0.31 0.31 0 0 0-0.21 0.09 2.31 2.31 0 0 1-1.16 0.72 l-0.8 0.24 a0.15 0.15 0 0 0-0.14 0.18 v4a0.18 0.18 0 0 0 0.15 0.2 c0.36 0.09 0.73 0.2 1.1 0.28 0.37 0.08 1 0.19 1.47 0.27 0.35 0.055 0.705 0.085 1.06 0.09 h2.31a9.41 9.41 0 0 0 2.14-0.32c0.27-0.08 0.55 -0.13 0.83 -0.19 0.28 -0.06 0.22 -0.1 0.21 -0.26v-1.26a4.07 4.07 0 0 1 0.49-1.9 3.35 3.35 0 0 0 0.29-1.79 9.85 9.85 0 0 0-0.15-1.09c-0.06-0.38-0.17-0.75-0.24-1.13-0.07-0.38-0.18-0.93-0.27-1.4-0.09-0.47-0.18-0.81-0.26-1.23L31 8.24c-0.07-0.32-0.15-0.64-0.22-1 0-0.13-0.09-0.17-0.23-0.17h-2.68V5.71h2.15a2.64 2.64 0 0 1 1.18 0.22 c0.29 0.13 0.6 0.21 0.93 0.33 0.42-1.46 1.56-1.65 2.85-1.63V10h-1.44c0.09 0.26 0.14 0.49 0.24 0.71 0.236 0.5 0.577 0.944 1 1.3 0.236 0.155 0.502 0.26 0.78 0.31 0.67 0.23 1.34 0.43 2 0.69a10.43 10.43 0 0 1 3 1.94 9.73 9.73 0 0 1 1.81 2.28c0.371 0.63 0.667 1.3 0.88 2 0.12 0.42 0.21 0.847 0.27 1.28 0 0.14 0.08 0.18 0.21 0.17 0.13 -0.01 0.33 0 0.52 0v1s-0.06 0.11 -0.12 0.14 l-2.71 1.7a0.3 0.3 0 0 0-0.11 0.14 4.61 4.61 0 0 1-2.06 2.8 4.09 4.09 0 0 1-1.49 0.57 3.92 3.92 0 0 1-3.28-1A4.58 4.58 0 0 1 33.07 24a0.79 0.79 0 0 1-0.07-0.2c0-0.26-0.27-0.35-0.41-0.53a1.16 1.16 0 0 0-1-0.47h-9.91a0.51 0.51 0 0 0-0.4 0.16 c-0.18 0.2 -0.4 0.37 -0.59 0.57 a0.77 0.77 0 0 0-0.12 0.31 4.49 4.49 0 0 1-2.46 2.87 3.58 3.58 0 0 1-2 0.38 4.31 4.31 0 0 1-2.33-1 5 5 0 0 1-1.52-2.39 0.21 0.21 0 0 0-0.13-0.13 3.39 3.39 0 0 1-1.22-0.6 8.8 8.8 0 0 1-1.46-1.4 0.4 0.4 0 0 0-0.33-0.15H0v-0.02zM14.53 7.58a0.49 0.49 0 0 1-0.11 0.13 C13.61 8.35 12.79 9 12 9.64A3 3 0 0 0 11 11c-0.06 0.22 0 0.48 0.2 0.49a1.1 1.1 0 0 0 0.48-0.05c0.5-0.246 0.93 -0.614 1.25-1.07 0.6 -0.73 1.18-1.48 1.77-2.22 0.22 -0.27 0.22 -0.25 0.44 0 0.59 0.75 1.19 1.5 1.8 2.23a2.75 2.75 0 0 0 1.18 0.89 c0.33 0.13 0.65 0 0.59-0.33a1.14 1.14 0 0 0-0.19-0.45 9.1 9.1 0 0 0-1-1.07c-0.68-0.59-1.41-1.14-2.11-1.71-0.13-0.1-0.21-0.2-0.06-0.33 0.39 -0.35 0.78 -0.7 1.19-1 0.05-0.05 0.18 0 0.25 0 0.534 0.3 1.186 0.3 1.72 0a2.44 2.44 0 0 0 1.33-2.13c0.03-0.3-0.03-0.603-0.17-0.87a1.33 1.33 0 0 0-1.35-0.67 2.53 2.53 0 0 0-2 1.09 1.79 1.79 0 0 0-0.24 1.77c0.07 0.19 0.16 0.37 0 0.55l-1 1.06a0.71 0.71 0 0 1-0.18 0.12 0.51 0.51 0 0 0-0.15-0.58c-0.6-0.6-1.16-1.18-1.75-1.72l-2.2-2.23c-0.18-0.18-0.33-0.15-0.44 0.08 a0.31 0.31 0 0 0 0 0.19c0.066 0.34 0.156 0.674 0.27 1a3.77 3.77 0 0 0 1 1.58 18.56 18.56 0 0 0 2.17 1.55c0.236 0.15 0.48 0.286 0.73 0.41 zm4.76 14.9a2.88 2.88 0 1 0-2.84 2.86 2.9 2.9 0 0 0 2.84-2.86zm15 0a2.87 2.87 0 1 0 2.89-2.86 2.88 2.88 0 0 0-2.91 2.84l0.02 0.02 z" fill="#FFF"/>
  <path d="M17.83 22.48a1.42 1.42 0 1 1-2.84-0.02 1.42 1.42 0 0 1 2.84 0.02 zM37.15 21.05a1.42 1.42 0 1 1 0 2.84 1.42 1.42 0 0 1 0-2.84z" fill="#FFF"/>
  <path d="M16.66 1.81c0 0.11-0.06 0.2 -0.08 0.3 -0.02 0.1 -0.06 0.26 -0.08 0.39 -0.02 0.13 0 0.1 0 0.15a0.53 0.53 0 0 1-0.15 0.36 c-0.06 0.05 -0.12 0.08 -0.18 0a0.13 0.13 0 0 0-0.11 0s-0.05 0-0.05 0.06 a2.84 2.84 0 0 1-0.1 0.57 2.93 2.93 0 0 0-0.09 0.53 c0 0.15-0.06 0.3 -0.09 0.45 l-0.05 0.38 c0 0.15-0.07 0.3 -0.12 0.45 l-0.15 0.45 c-0.05 0.15 -0.07 0.31 -0.12 0.46 a2.36 2.36 0 0 1-0.12 0.28 v0.17l-0.17 0.31 a5.94 5.94 0 0 1-0.65 1.25c-0.11 0.16 -0.11 0.17 0 0.29 0.11 0.09 0.11 0.15 0 0.23a4.51 4.51 0 0 0-0.55 0.52 0.29 0.29 0 0 0-0.09 0.34 0.14 0.14 0 0 1 0 0.14c-0.08 0.08 -0.19 0.15 -0.28 0.24 -0.09 0.09 -0.09 0.09 -0.08 0.13 0.01 0.04 0.09 0.31 0.14 0.46 0.05 0.15 0.13 0.39 0.2 0.58 0.07 0.19 0.17 0.5 0.27 0.74 0.136 0.254 0.243 0.522 0.32 0.8 a1.45 1.45 0 0 1 0 0.28 0.29 0.29 0 0 0 0.09 0.28 0.15 0.15 0 0 1 0 0.15c0 0.24-0.13 0.23 0.13 0.41 0.056 0.038 0.1 0.09 0.13 0.15 a2 2 0 0 1 0.08 0.26 l0.24 0.72 c0.08 0.26 0.17 0.51 0.26 0.76 l0.24 0.73 c0.049 0.111 0.079 0.23 0.09 0.35 0.014 0.102 0.037 0.202 0.07 0.3 a0.52 0.52 0 0 1 0 0.21 0.62 0.62 0 0 0 0.08 0.53 l0.11-0.15c0.05-0.07 0.11 -0.13 0.16 -0.19a0.79 0.79 0 0 1 0.14-0.18 0.22 0.22 0 0 0 0.08-0.2 1 1 0 0 1 0-0.24 3.81 3.81 0 0 1 0.07-0.47 0.16 0.16 0 0 1 0-0.09 0.54 0.54 0 0 0 0.08-0.35 0.43 0.43 0 0 1 0-0.16 0.94 0.94 0 0 1 0.13-0.43 2.23 2.23 0 0 0 0.2-0.3 0.14 0.14 0 0 0 0-0.09l-0.06-0.3c0-0.07-0.06-0.14 0-0.2a1 1 0 0 0 0.07-0.29v-0.06c0-0.06 0.09 -0.19 0-0.3a0.34 0.34 0 0 1-0.06-0.12 0.17 0.17 0 0 1 0-0.1c0-0.13 0.08 -0.25 0.12 -0.37a3.18 3.18 0 0 1 0.08-0.33c0.07-0.15 0.15 -0.3 0.23 -0.44a0.47 0.47 0 0 0 0.08-0.3 0.23 0.23 0 0 1 0.12-0.23c0.06 0 0.06-0.07 0.06 -0.13a0.44 0.44 0 0 1 0.22-0.45c0.11-0.07 0.11 -0.1 0.07 -0.22a0.13 0.13 0 0 1 0-0.06c0-0.13 0.06 -0.22 0.12 -0.31a0.43 0.43 0 0 0 0-0.53l-0.13-0.18a0.2 0.2 0 0 1 0-0.23l0.12-0.22a1.06 1.06 0 0 0 0.18-0.69L18 9h-0.27a4.17 4.17 0 0 0-0.53 0.41 0.72 0.72 0 0 1-0.28 0.13 1.8 1.8 0 0 1-0.52 0 1.43 1.43 0 0 0-0.41 0 0.18 0.18 0 0 1-0.22-0.06c0-0.07-0.09-0.13 0-0.22a0.93 0.93 0 0 1 0.11-0.19 0.4 0.4 0 0 0 0.1-0.31v-0.03a0.7 0.7 0 0 1 0.32-0.48 3.39 3.39 0 0 0 0.37-0.25 0.37 0.37 0 0 1 0.39-0.09V7.8v-0.06c0-0.06 0-0.14-0.14-0.13a1 1 0 0 1-0.41-0.12c-0.06 0-0.1-0.06-0.14 0a0.06 0.06 0 0 1-0.05 0 0.59 0.59 0 0 1-0.23 0s-0.09-0.04-0.09-0.1c0-0.06 0 0 0.07-0.06h0.19v-0.17a0.28 0.28 0 0 1-0.12-0.22 0.6 0.6 0 0 0 0.06-0.37c0-0.08-0.05-0.15-0.05-0.22a0.44 0.44 0 0 0-0.1-0.35v-0.14a1 1 0 0 0 0.18-0.17v-0.13-0.23c0-0.08 0-0.09 0.07 -0.12s0.07-0.08 0.06 -0.09c-0.01-0.01 0-0.11 0-0.17 0-0.06 0.07 -0.31 0.26 -0.35h0.05l0.33-0.31s0.08-0.07 0.13 0a0.3 0.3 0 0 0 0.38 0.1 0.27 0.27 0 0 1 0.33 0.27 v0.08c0 0.08 0 0.13 0.13 0.13a1.06 1.06 0 0 1 0.19 0c0.062 0.025 0.125 0.045 0.19 0.06 h0.05a1.5 1.5 0 0 0 0.08-0.32c0-0.08 0-0.15-0.07-0.21l0.1-0.15v-0.21-0.12c0-0.03 0.13 -0.15 0.19 -0.22l-0.12-0.1a0.28 0.28 0 0 1 0.06-0.08c0.13-0.12 0.1 -0.29 0.11 -0.44 0.01 -0.15 0-0.2-0.07-0.28-0.07-0.08-0.1-0.11 0-0.18 0.1 -0.07 0 0 0 0a0.33 0.33 0 0 0-0.09-0.32l-0.05-0.06c-0.05-0.06 0.08 -0.11 0.13 -0.12 0.05 -0.01 0.09 -0.05 0.09 -0.1a0.16 0.16 0 0 1 0-0.07c0-0.11 0.07 -0.21 0.1 -0.32a0.56 0.56 0 0 1 0-0.34s0-0.08-0.09-0.06c-0.09 0.02 -0.18 0-0.23-0.12-0.05-0.12 0 0 0-0.05a0.55 0.55 0 0 0-0.12 0.39 2.87 2.87 0 0 1-0.05 0.31 0.09 0.09 0 0 1 0 0.05l-0.09 0.1 H18a0.13 0.13 0 0 0-0.09 0.05 0.41 0.41 0 0 1-0.31 0.04 c-0.09 0-0.13-0.1-0.16-0.21h-0.18c-0.07 0-0.13 0.05 -0.19 0a0.5 0.5 0 0 1-0.13 0l-0.28 0.02 z" fill="#F05A28"/>
  <path d="M16.66 1.81h0.24a0.5 0.5 0 0 0 0.13 0h0.37c0 0.11 0.07 0.18 0.16 0.21a0.41 0.41 0 0 0 0.33-0.11 0.13 0.13 0 0 1 0.11-0.1h0.14l0.09-0.1a0.09 0.09 0 0 0 0-0.05 2.87 2.87 0 0 0 0.05-0.31 0.55 0.55 0 0 1 0.12-0.39v0.05c0 0.05 0.11 0.16 0.23 0.12 0.12 -0.04 0.1 0 0.09 0.06 a0.56 0.56 0 0 0 0 0.34c0 0.11-0.07 0.21 -0.1 0.32 a0.16 0.16 0 0 0 0 0.07c0 0.05 0 0.09-0.09 0.1 -0.09 0.01 -0.09 0.08 -0.13 0.12 -0.04 0.04 0 0 0.05 0.06 a0.33 0.33 0 0 1 0.09 0.32 v0.18c0 0.06 0.08 0.17 0.07 0.28-0.01 0.11 0 0.32-0.11 0.44 a0.28 0.28 0 0 0-0.06 0.08 l0.12 0.1 c-0.06 0.07 -0.13 0.14 -0.19 0.22 -0.06 0.08 0 0.08 0 0.12v0.21l-0.1 0.15 c0.09 0.06 0.07 0.13 0.07 0.21 a1.5 1.5 0 0 1-0.08 0.32 h-0.05a1.39 1.39 0 0 1-0.19-0.06 1.06 1.06 0 0 0-0.19 0c-0.09 0-0.13 0-0.13-0.13v-0.08a0.27 0.27 0 0 0-0.33-0.27 0.3 0.3 0 0 1-0.38-0.1c-0.05-0.07-0.09 0-0.13 0l-0.29 0.23 h-0.05c-0.19 0-0.23 0.19 -0.26 0.35 -0.03 0.16 -0.06 0.11 0 0.17 0.06 0.06 0 0.07-0.06 0.09 -0.06 0.02 -0.08 0.06 -0.07 0.12 0.01 0.06 0 0.16 0 0.23v0.13a1 1 0 0 1-0.18 0.17 c-0.06 0-0.07 0.09 0 0.14a0.44 0.44 0 0 1 0.09 0.35 c0 0.07 0.05 0.14 0.05 0.22a0.6 0.6 0 0 1-0.06 0.37 0.28 0.28 0 0 0 0.12 0.22 v0.17h-0.19s-0.08 0-0.07 0.06 c0.01 0.06 0 0.14 0.07 0.15a0.59 0.59 0 0 0 0.23 0 0.06 0.06 0 0 0 0.05 0c0-0.08 0.08 0 0.14 0a1 1 0 0 0 0.41 0.12 c0.1 0 0.14 0 0.14 0.13 V7.78a0.37 0.37 0 0 0-0.39 0.09 3.39 3.39 0 0 1-0.39 0.27 0.7 0.7 0 0 0-0.32 0.48 v0.15a0.4 0.4 0 0 1-0.1 0.31 0.93 0.93 0 0 0-0.11 0.19 c-0.05 0.09 0 0.15 0 0.22a0.18 0.18 0 0 0 0.22 0.06 c0.136-0.02 0.274 -0.02 0.41 0a1.8 1.8 0 0 0 0.52 0 0.72 0.72 0 0 0 0.28-0.13 4.17 4.17 0 0 1 0.7-0.42h0.27c0.09 0 0 0.06 0 0.08a1.06 1.06 0 0 1-0.18 0.69 l-0.12 0.22 a0.2 0.2 0 0 0 0 0.23l0.13 0.18 a0.43 0.43 0 0 1 0 0.53c-0.06 0.09 -0.15 0.18 -0.12 0.31 a0.13 0.13 0 0 0 0 0.06c0 0.12 0 0.15-0.07 0.22 a0.44 0.44 0 0 0-0.22 0.45 c0 0.06 0 0.1-0.06 0.13 a0.23 0.23 0 0 0-0.12 0.23 0.47 0.47 0 0 1-0.08 0.3 c-0.08 0.14 -0.16 0.29 -0.23 0.44 a3.18 3.18 0 0 0-0.08 0.33 c0 0.12-0.09 0.24 -0.12 0.37 a0.17 0.17 0 0 0 0 0.1 0.34 0.34 0 0 0 0.06 0.12 c0.07 0.11 0.1 0.21 0 0.3s0 0 0 0.06a1 1 0 0 1-0.07 0.29 v0.2l0.06 0.3 c0.01 0.03 0.01 0.06 0 0.09a2.23 2.23 0 0 1-0.2 0.3 0.94 0.94 0 0 0-0.13 0.43 0.43 0.43 0 0 0 0 0.16 0.54 0.54 0 0 1-0.08 0.35 0.16 0.16 0 0 0 0 0.09 3.81 3.81 0 0 0-0.07 0.47 1 1 0 0 0 0 0.24 0.22 0.22 0 0 1-0.08 0.2 0.79 0.79 0 0 0-0.14 0.18 c-0.05 0.06 -0.11 0.12 -0.16 0.19 l-0.11 0.15 a0.62 0.62 0 0 1-0.08-0.53 0.52 0.52 0 0 0 0-0.21 1.63 1.63 0 0 1-0.07-0.3 1.13 1.13 0 0 0-0.09-0.35l-0.24-0.73c-0.09-0.25-0.18-0.5-0.26-0.76l-0.24-0.72a2 2 0 0 0-0.08-0.26 0.38 0.38 0 0 0-0.13-0.15c-0.26-0.18-0.18-0.17-0.13-0.41a0.15 0.15 0 0 0 0-0.15 0.29 0.29 0 0 1-0.09-0.28 1.45 1.45 0 0 0 0-0.28 3.93 3.93 0 0 0-0.32-0.8c-0.1-0.24-0.18-0.49-0.27-0.74-0.09-0.25-0.13-0.38-0.2-0.58-0.07-0.2-0.1-0.31-0.14-0.46-0.04-0.15 0-0.1 0.08 -0.13s0.2-0.16 0.28 -0.24a0.14 0.14 0 0 0 0-0.14 0.29 0.29 0 0 1 0.09-0.34 4.51 4.51 0 0 1 0.55-0.52c0.12-0.08 0.12 -0.14 0-0.23-0.15-0.12-0.15-0.13 0-0.29A5.94 5.94 0 0 0 15 7.12l0.16-0.36v-0.17a2.36 2.36 0 0 0 0.12-0.28c0.05-0.15 0.08 -0.3 0.12 -0.46 0.04 -0.16 0.11 -0.3 0.15 -0.45l0.12-0.45 0.09 -0.35c0-0.15 0.07 -0.3 0.09 -0.45a2.93 2.93 0 0 1 0.15-0.53 2.84 2.84 0 0 0 0.1-0.57s0-0.06 0.05 -0.06a0.13 0.13 0 0 1 0.11 0c0.06 0.08 0.12 0.05 0.18 0a0.53 0.53 0 0 0 0.15-0.36v-0.15c0-0.05 0.05 -0.26 0.08 -0.39s-0.04-0.17-0.01-0.28z" fill="#F05A28"/>
</svg>
