<?xml version="1.0" ?>
<svg xmlns="http://www.w3.org/2000/svg" width="33" height="30" viewBox="0 0 33 30">
  <path d="M18.06 18.6a2.53 2.53 0 0 1-0.49 1.84 1.4 1.4 0 0 0 0.43 2.13 1.43 1.43 0 0 0 1.79-0.41l0.19-0.25c0.07 0.19 0.12 0.37 0.19 0.53 a1.39 1.39 0 0 0 2.51 0.08 c0.247-0.426 0.4 -0.9 0.45 -1.39 0-0.54 0.06 -1.09 0.08 -1.63 0-0.27 0-0.28 0.27 -0.26 0.59 0 1.18 0 1.76 0.11 A10.32 10.32 0 0 1 30 21a5.34 5.34 0 0 1 2.07 2.7 5.13 5.13 0 0 1 0.23 2 5.29 5.29 0 0 1-0.47 1.94 2.56 2.56 0 0 1-1 1.13 1.2 1.2 0 0 1-0.45 0.14 l-2.24 0.24 c-0.34 0-0.68 0.07 -1 0.09-0.67 0-1.35 0.08 -2 0.1-1.06 0-2.13 0.08 -3.19 0.06 -1.06-0.02-2-0.09-2.94-0.17-0.73-0.06-1.47-0.15-2.2-0.25-0.73-0.1-1.52-0.26-2.28-0.4L13 28.37c-0.33-0.07-0.65-0.15-1-0.23h-0.21c-0.14 0-0.19 0-0.19 0.18 v0.86a0.64 0.64 0 0 1-0.7 0.69 H2.49a0.64 0.64 0 0 1-0.68-0.68v-1.1a0.28 0.28 0 0 0-0.21-0.31A2.2 2.2 0 0 1 0.35 26.4 6.11 6.11 0 0 1 0 23.71a12.64 12.64 0 0 1 0.55-2.85c0.31-0.92 0.397 -1.9 0.25 -2.86-0.07-0.44-0.12-0.88-0.2-1.31 0-0.26-0.15-0.52-0.21-0.78a1.26 1.26 0 0 1 0-0.28 0.85 0.85 0 0 1 0.29 0.06 5.22 5.22 0 0 0 1.93 0.71 12.77 12.77 0 0 0 3 0.14c0.66 0 1.32-0.14 2-0.23A14.18 14.18 0 0 0 9.15 16c0.68-0.18 1.36-0.37 2-0.61a8.2 8.2 0 0 0 2.18-1.1c0.41-0.31 0.76 -0.68 1.15-1a2.09 2.09 0 0 1 0.24-0.16c0.048 0.081 0.085 0.169 0.11 0.26 a5.8 5.8 0 0 0 1 2.8 0.34 0.34 0 0 1 0 0.44c-0.22 0.36 -0.38 0.77 -0.62 1.11a2.67 2.67 0 0 1-0.71 0.63 1.42 1.42 0 0 0-0.74 1.41 1.4 1.4 0 0 0 2.13 1 5.44 5.44 0 0 0 2-2l0.17-0.18zm-11.4 9.89H10c0.08 0 0.22 0 0.23-0.06a0.94 0.94 0 0 0 0-0.42s-0.17-0.08-0.26-0.08H3.41c-0.27 0-0.29 0-0.29 0.3 s0 0.27 0.29 0.27l3.25-0.01zM28.47 10.25l-0.27 1c-0.14 0.5 -0.25 1-0.42 1.5a0.62 0.62 0 0 1-0.86 0.36 0.74 0.74 0 0 1-0.39-0.85 15.1 15.1 0 0 0 0.39-1.46l0.24-0.89-0.57-0.18-0.29 1.07c-0.14 0.5 -0.26 1-0.43 1.5a0.62 0.62 0 0 1-0.8 0.35 0.67 0.67 0 0 1-0.43-0.84c0.16-0.6 0.31 -1.21 0.46 -1.82 0-0.18 0.1 -0.35 0.15 -0.55a1.81 1.81 0 0 0-0.21-0.11c-0.27-0.1-0.39 0-0.46 0.23 -0.16 0.6 -0.3 1.2-0.46 1.8a2 2 0 0 1-0.26 0.6 0.66 0.66 0 0 1-1.12-0.61l0.6-2.29c0-0.1 0-0.15-0.11-0.18-0.54-0.16-0.43-0.12-0.57 0.36 -0.14 0.48 -0.26 1-0.38 1.44 0 0.16-0.09 0.31 -0.13 0.47 a0.64 0.64 0 0 1-0.73 0.51 0.57 0.57 0 0 1-0.57-0.6 3.75 3.75 0 0 1 0.14-0.78c0.09-0.39 0.2 -0.77 0.31 -1.15 0-0.16 0.08 -0.33 0.13 -0.49 0.05 -0.16 0.06 -0.27-0.15-0.28a0.9 0.9 0 0 1-0.16-0.06c-0.14 0-0.23 0-0.27 0.15 -0.15 0.61 -0.32 1.21-0.49 1.81-0.046 0.202 -0.11 0.4 -0.19 0.59 a0.62 0.62 0 0 1-0.67 0.32 c-0.37-0.1-0.58-0.3-0.54-0.63a7.59 7.59 0 0 1 0.22-1.06c0.12-0.47 0.25 -0.93 0.38 -1.4a0.16 0.16 0 0 0-0.14-0.22c-0.34-0.06-0.35-0.07-0.45 0.27 -0.15 0.5 -0.27 1-0.4 1.5-0.06 0.22 -0.11 0.44 -0.18 0.66 a0.72 0.72 0 0 1-0.71 0.4 0.63 0.63 0 0 1-0.55-0.61 8 8 0 0 1 0.21-1c0.09-0.39 0.2 -0.78 0.31 -1.18 0.08 -0.42 0.09 -0.42-0.33-0.51a0.22 0.22 0 0 0-0.18 0.1 c-0.1 0.36 -0.19 0.72 -0.28 1.07-0.09 0.35 -0.22 0.87 -0.35 1.3a0.68 0.68 0 0 1-0.76 0.39 0.62 0.62 0 0 1-0.51-0.62 7.21 7.21 0 0 1 0.21-1c0.12-0.48 0.26 -1 0.39-1.44 0.05 -0.2 0-0.26-0.29-0.31-0.29-0.05-0.27 0-0.32 0.2 -0.12 0.51 -0.26 1-0.4 1.53-0.06 0.23 -0.12 0.47 -0.19 0.7 a0.64 0.64 0 0 1-0.85 0.4 0.68 0.68 0 0 1-0.41-0.86l0.5-1.88v-0.1c0.13-0.36 0-0.51-0.35-0.5-0.07 0-0.17 0.1 -0.19 0.18 -0.19 0.7 -0.37 1.4-0.54 2.11a0.7 0.7 0 0 1-0.82 0.57 0.65 0.65 0 0 1-0.54-0.75c0.08-0.37 0.19 -0.73 0.29 -1.09L12 6.08c0-0.13 0-0.2-0.15-0.22a2.87 2.87 0 0 1-0.37-0.09l-0.27 1c-0.14 0.51 -0.26 1-0.43 1.52a0.61 0.61 0 0 1-0.86 0.34 0.68 0.68 0 0 1-0.37-0.83c0.14-0.49 0.26 -1 0.38-1.49a7.09 7.09 0 0 1 0.19-0.7c0.07-0.19 0-0.22-0.17-0.26-0.32-0.08-0.64-0.15-0.95-0.25a0.66 0.66 0 0 1-0.41-0.82c0.14-0.49 0.27 -1 0.39-1.49A3.62 3.62 0 0 1 10 0.72 2.86 2.86 0 0 1 12.39 0a14 14 0 0 1 1.47 0.38 l1.47 0.38 1.46 0.39 1.47 0.39 1.46 0.46 1.46 0.39 1.52 0.41 1.4 0.37 1.53 0.41 1.47 0.38 1.46 0.4 c0.49 0.13 1 0.24 1.47 0.38 a5.05 5.05 0 0 1 1.97 0.67 3 3 0 0 1 1 1.77 3.46 3.46 0 0 1-0.16 1.7c-0.13 0.49 -0.25 1-0.38 1.47-0.08 0.34 -0.19 0.65 -0.59 0.73 a0.49 0.49 0 0 1-0.21 0l-1.09-0.3c-0.21-0.06-0.29 0-0.35 0.2 -0.16 0.63 -0.33 1.27-0.5 1.9a2.33 2.33 0 0 1-0.08 0.29 0.67 0.67 0 0 1-0.92 0.42 0.71 0.71 0 0 1-0.35-0.89c0.16-0.48 0.26 -1 0.38-1.47l0.18-0.7c0-0.13 0-0.2-0.16-0.21a2.48 2.48 0 0 1-0.3-0.07z" fill="#FFF"/>
  <path d="M20.18 18.78a5.09 5.09 0 0 1-0.86 2.8 0.79 0.79 0 0 1-0.71 0.43 0.65 0.65 0 0 1-0.55-0.36 0.59 0.59 0 0 1 0-0.67 3.61 3.61 0 0 0 0.74-2.42 0.72 0.72 0 0 1 0.41-0.72 0.67 0.67 0 0 1 0.94 0.53 c0.03 0.13 0.03 0.27 0.03 0.41 zM17.12 16.65a0.67 0.67 0 0 1 0.61 0.91 5.31 5.31 0 0 1-2.05 2.58 0.8 0.8 0 0 1-1 0 0.65 0.65 0 0 1 0.12-1 3.83 3.83 0 0 0 1.65-2 0.63 0.63 0 0 1 0.67-0.49zM22.51 19.94a5.12 5.12 0 0 1-0.44 2.16 0.67 0.67 0 0 1-0.57 0.43 0.58 0.58 0 0 1-0.65-0.35 0.88 0.88 0 0 1 0-0.61 3.72 3.72 0 0 0 0.23-2.24 1 1 0 0 1 0.06-0.85 0.66 0.66 0 0 1 0.72-0.25 0.58 0.58 0 0 1 0.47 0.46 c0.08 0.45 0.14 0.93 0.18 1.25z" fill="#FFF"/>
</svg>
