<?xml version="1.0" ?>
<svg xmlns="http://www.w3.org/2000/svg" width="36" height="36" viewBox="0 0 36 36">
  <path d="M35.38 17.71c-0.011 9.769-7.938 17.68-17.707 17.67C7.905 35.37-0.007 27.445 0 17.677 0.007 7.908 7.931-0.006 17.7 0a17.64 17.64 0 0 1 17.68 17.71zm-14.7-3.32c-0.06-0.63-0.11-1.26-0.17-1.89-0.07-0.82-0.16-1.64-0.24-2.45a1 1 0 0 0-0.69-1c-0.45-0.14-0.89-0.33-1.33-0.51l-2.55-1-2.33-0.94a1 1 0 0 0-1 0c-0.81 0.54 -1.66 1-2.46 1.61-0.64 0.46 -1.23 1-1.83 1.52a1.18 1.18 0 0 0-0.42 1c0 0.51 0.06 1 0.09 1.53 0 0.31 0.06 0.62 0.08 0.93 0.07 0.71 0.15 1.41 0.2 2.11 0.05 0.7 0 1.17 0.09 1.76a1 1 0 0 0 0.55 0.93 c0.53 0.25 1.07 0.49 1.61 0.71 1 0.4 1.91 0.78 2.87 1.17a0.73 0.73 0 0 0 0.78 0c0.9-0.64 1.82-1.25 2.73-1.87l3.7-2.49a0.65 0.65 0 0 0 0.33-0.58c-0.02-0.13-0.01-0.33-0.01-0.54zm6.66 11.43c-0.08-0.49-0.16-1-0.23-1.47l-0.3-2.1-0.24-1.85c0-0.2-0.05-0.39-0.08-0.59-0.07-0.44-0.15-0.88-0.2-1.32a0.31 0.31 0 0 0-0.2-0.3c-0.34-0.15-0.68-0.31-1-0.44-1-0.4-2-0.79-3.09-1.17a1.32 1.32 0 0 0-0.59-0.07 1.73 1.73 0 0 0-0.56 0.24 c-1.49 0.87 -3 1.73-4.45 2.62-0.61 0.36 -1.18 0.78 -1.77 1.18a0.24 0.24 0 0 0-0.13 0.31 c0.065 0.198 0.105 0.403 0.12 0.61 0.06 1 0.11 2 0.15 2.93l0.09 2.27a0.25 0.25 0 0 0 0.11 0.17 l1.56 0.69 L19 28.61l2.3 1c0.242 0.15 0.533 0.196 0.81 0.13 a5.21 5.21 0 0 0 1.25-0.68l1.91-1.38 1.91-1.45a0.38 0.38 0 0 0 0.16-0.41zM33.83 18a16 16 0 0 0-0.24-2.86c0-0.19 0-0.43-0.3-0.52-0.85-0.3-1.71-0.6-2.55-0.92-0.18-0.06-0.24 0-0.32 0.12 L29.13 16c-0.47 0.77 -0.95 1.53-1.41 2.3a1.43 1.43 0 0 0-0.23 1c0.07 0.42 0.14 0.83 0.19 1.25 0.08 0.79 0.14 1.58 0.22 2.37 0.08 0.79 0.15 1.53 0.24 2.29 0 0.24 0.07 0.51 0.34 0.63l0.59 0.22 1.75 0.64 a0.25 0.25 0 0 0 0.36-0.11 16.65 16.65 0 0 0 1.93-4.09 15.05 15.05 0 0 0 0.55-2.5c0.1-0.78 0.13 -1.54 0.17 -2zM13.49 3.28c0 0.59 0.07 1.18 0.11 1.77a0.55 0.55 0 0 0 0.32 0.52 l1.08 0.49 c0.76 0.33 1.54 0.65 2.3 1 0.76 0.35 1.47 0.74 2.22 1.1a1.19 1.19 0 0 0 1 0.06c0.28-0.11 0.55 -0.22 0.83 -0.31 0.48 -0.16 1-0.33 1.43-0.46 0.43 -0.13 1-0.25 1.45-0.37 0.21 0 0.42-0.09 0.62 -0.15a0.24 0.24 0 0 0 0.2-0.27c0-0.37 0-0.72 0.06 -1.09 0.04 -0.633 0.07 -1.263 0.09 -1.89a0.29 0.29 0 0 0-0.12-0.22 13.29 13.29 0 0 0-1.31-0.65c-0.47-0.19-1-0.33-1.44-0.48-0.44-0.15-0.9-0.23-1.33-0.33-0.43-0.1-0.63-0.15-0.95-0.19-0.52-0.05-1-0.07-1.56-0.09h-0.14c-0.61-0.1-1.23-0.1-1.84 0-0.65 0.05 -1.3 0.16 -1.95 0.27 a8 8 0 0 0-0.93 0.24 0.25 0.25 0 0 0-0.11 0.19 c-0.03 0.28 -0.03 0.58 -0.03 0.86 zm-6.73 7.28a1 1 0 0 1 0-0.24c0-0.15-0.06-0.21-0.17-0.26l-2.16-0.88a0.23 0.23 0 0 0-0.33 0.1 13 13 0 0 0-1.16 2.22c-0.22 0.56 -0.42 1.13-0.59 1.7A13.68 13.68 0 0 0 2 14.61a12.8 12.8 0 0 0-0.27 1.72A16.76 16.76 0 0 0 2 20.69c0.1 0.54 0.24 1.08 0.38 1.62 0.1 0.37 0.19 0.42 0.49 0.37l1.74-0.3c0.15 0 0.34 0 0.41-0.23 0.07 -0.23 0.2 -0.59 0.31 -0.87A4.62 4.62 0 0 1 6 19.77c0.32-0.36 0.57 -0.8 0.86 -1.2 0.23 -0.304 0.344 -0.68 0.32 -1.06 0-0.52-0.1-1.05-0.13-1.58-0.05-1.18-0.05-2.36-0.14-3.54v-0.55c-0.08-0.43-0.11-0.84-0.15-1.28zm10.76 23.25a18.29 18.29 0 0 0 3-0.25c0.42-0.07 0.83 -0.18 1.24-0.29a0.25 0.25 0 0 0 0.16-0.17 2.83 2.83 0 0 0 0-0.58c0-0.51 0-1-0.08-1.51a0.42 0.42 0 0 0-0.18-0.27c-0.54-0.27-1.09-0.52-1.65-0.77l-2.47-1.07-2.3-1a2.4 2.4 0 0 0-0.65-0.17 1.56 1.56 0 0 0-0.48 0.15 14 14 0 0 1-3.35 1c-0.39 0-0.78 0.13 -1.16 0.21 -0.09 0-0.21 0.07 -0.23 0.14 -0.07 0.27 -0.11 0.55 -0.16 0.82 -0.05 0.27 -0.12 0.66 -0.2 1a0.19 0.19 0 0 0 0.08 0.23 13.42 13.42 0 0 0 3.17 1.58c0.43 0.15 0.85 0.29 1.29 0.41 0.44 0.12 0.62 0.12 0.93 0.18 h0.14c0.327 0.108 0.66 0.192 1 0.25 0.62 0.06 1.27 0.08 1.9 0.11 zm15.7-20.19c0.01-0.1 0.01 -0.2 0-0.3a6.11 6.11 0 0 0-0.31-1c-0.37-0.82-0.73-1.64-1.16-2.42a14.89 14.89 0 0 0-4.87-5.38c-0.16-0.11-0.33-0.21-0.5-0.31 0 0.27 0 0.54 0.05 0.81a10 10 0 0 1 0 1.45 0.58 0.58 0 0 0 0.23 0.61 15.58 15.58 0 0 1 2.29 2.44 12.32 12.32 0 0 1 1.51 2.61 1.3 1.3 0 0 0 0.85 0.83 c0.49 0.13 1 0.32 1.45 0.48 l0.46 0.18 zm-29 9.9v-0.06l-1.2 0.26 c-0.14 0-0.14 0.1 -0.11 0.2 0.035 0.158 0.085 0.312 0.15 0.46 A19.32 19.32 0 0 0 4.61 27a16.05 16.05 0 0 0 2.76 3c0.29 0.25 0.61 0.47 0.91 0.71 0.08 0.06 0.14 0.08 0.18 0 0.04-0.08 0.1 -0.42 0.16 -0.63 0.06 -0.21 0.14 -0.66 0.25 -1a0.29 0.29 0 0 0-0.12-0.41l-0.13-0.1a10.35 10.35 0 0 1-2.22-2.34c-0.46-0.69-0.85-1.42-1.26-2.13-0.2-0.35-0.41-0.67-0.89-0.58h-0.03z" fill="#FFF"/>
</svg>
