<?xml version="1.0" ?>
<svg xmlns="http://www.w3.org/2000/svg" width="44" height="29" viewBox="0 0 44 29">
  <path d="M2.11 9.29c0 0.68-0.1 1.34-0.09 2a3.58 3.58 0 0 0 0.55 2 2.2 2.2 0 0 0 1.76 1 6.9 6.9 0 0 0 3-0.47c0.89-0.32 1.77-0.69 2.67-0.94a15.92 15.92 0 0 1 2.57-0.49c3.26-0.34 6.53-0.14 9.8-0.18h5.54a26 26 0 0 1 3.84 0.27 15.43 15.43 0 0 1 3.73 1.08 8.22 8.22 0 0 0 3.5 0.75 2.38 2.38 0 0 0 2.33-1.9 7.14 7.14 0 0 0 0-2.93 0.65 0.65 0 0 1 0-0.09 0.22 0.22 0 0 1 0-0.06h1.91c0.16 0 0.22 0 0.22 0.21 v3.76a2.76 2.76 0 0 1-0.48 1.43c-0.44 0.71 -0.92 1.4-1.39 2.1l-0.18 0.3 c-0.23 0.41 -0.2 0.52 0.13 0.84 0.394 0.419 0.61 0.975 0.6 1.55a7.22 7.22 0 0 1-0.56 3.07 6.35 6.35 0 0 0-0.34 3c0.09 0.73 0.09 1.47 0.11 2.2 0 0.167-0.03 0.333 -0.09 0.49 a0.31 0.31 0 0 1-0.21 0.17 c-0.43 0-0.44 0-0.51-0.38-0.11-0.69-0.2-1.39-0.31-2.08-0.15-0.92-0.3-1.84-0.5-2.75a7.62 7.62 0 0 0-0.47-1.54 3.07 3.07 0 0 0-1.92-1.7 1.09 1.09 0 0 0-0.34 0H7.28a2.77 2.77 0 0 0-2.11 1 3.51 3.51 0 0 0-0.89 1.8c-0.2 1-0.4 2.06-0.58 3.09-0.14 0.82 -0.25 1.64-0.36 2.47 0 0.15-0.07 0.2 -0.22 0.19 h-0.68c-0.14 0-0.24 0-0.25-0.18A9 9 0 0 1 2.08 27c0-0.55 0.1 -1.1 0.16 -1.65a6 6 0 0 0-0.36-2.84 7 7 0 0 1-0.54-2.77 3.21 3.21 0 0 1 0.24-1.35c0.112-0.2 0.253 -0.382 0.42 -0.54 0.2 -0.2 0.27 -0.34 0.13 -0.59-0.24-0.42-0.53-0.82-0.78-1.24C1 15.4 0.57 14.8 0.25 14.15a2.65 2.65 0 0 1-0.25-1.1V9.53c0-0.2 0.06 -0.26 0.26 -0.26h1.71l0.14 0.02 z" fill="#FFF"/>
  <path d="M38.69 7.63A3.24 3.24 0 0 0 35 11.51l-0.6-0.08c-1.14-0.14-2.28-0.3-3.43-0.4-1.15-0.1-2.58-0.18-3.87-0.22-1.63 0-3.27-0.05-4.9-0.06-0.21 0-0.27 0-0.27-0.26V2.15a1.92 1.92 0 0 1 1.8-2.07 7.28 7.28 0 0 1 2.87 0.15 c1.13 0.26 2.25 0.59 3.38 0.86 0.79 0.19 1.59 0.35 2.4 0.47 1.29 0.2 2.59 0.35 3.88 0.54 a3.17 3.17 0 0 1 1.52 0.58 2.29 2.29 0 0 1 0.92 1.85v2.85l-0.01 0.25 zM8 11.51a3.24 3.24 0 0 0-3.69-3.88v-0.28-2.8a2.3 2.3 0 0 1 1.75-2.27c0.87-0.19 1.76-0.31 2.65-0.45 1.09-0.17 2.18-0.29 3.26-0.51 1.08-0.22 2.21-0.59 3.31-0.86A11.4 11.4 0 0 1 18.65 0a4.82 4.82 0 0 1 1.2 0.23 1.67 1.67 0 0 1 1.2 1.46 5.75 5.75 0 0 1 0 0.74v8c0 0.22-0.05 0.28 -0.28 0.28 -2.52 0-5 0-7.57 0.2 -1.54 0.12 -3.07 0.32 -4.61 0.49 l-0.59 0.11 z" fill="#FFF"/>
  <path d="M35.82 11.11a2.44 2.44 0 1 1 2.44 2.44 2.45 2.45 0 0 1-2.44-2.44zM4.71 13.55a2.44 2.44 0 1 1 2.46-2.39 2.46 2.46 0 0 1-2.46 2.39z" fill="#FFF"/>
</svg>
