<?xml version="1.0" ?>
<svg xmlns="http://www.w3.org/2000/svg" width="35" height="31" viewBox="0 0 35 31">
  <path d="M0 11.79V1.27A1.27 1.27 0 0 1 0.86 0.06 c0.143-0.02 0.287 -0.02 0.43 0h14.32c0.28-0.01 0.56 0.02 0.83 0.09 0.56 0.189 0.9 0.757 0.8 1.34 0 0.11-0.07 0.13 -0.16 0.13 a5 5 0 0 0-0.55 0 0.75 0.75 0 0 0-0.67 0.62 0.77 0.77 0 0 0 0.45 0.79 1 1 0 0 0 0.31 0.06 H17c0.26 0 0.26 0 0.26 0.26 v0.5c0 0.54 0.08 0.46-0.46 0.47 a2 2 0 0 0-0.34 0 0.73 0.73 0 0 0 0.1 1.44h0.55c0.11 0 0.15 0 0.15 0.15 v0.92c0 0.12-0.05 0.16 -0.17 0.16 a5 5 0 0 0-0.67 0 0.72 0.72 0 0 0-0.55 0.78 0.74 0.74 0 0 0 0.7 0.66 h0.53c0.11 0 0.15 0 0.15 0.15 v0.92c0 0.12 0 0.16-0.16 0.16 a4 4 0 0 0-0.7 0.05 0.71 0.71 0 0 0-0.52 0.78 0.76 0.76 0 0 0 0.72 0.66 h0.51c0.1 0 0.15 0 0.15 0.14 v0.94c0 0.11 0 0.14-0.15 0.15 a3.64 3.64 0 0 0-0.74 0.05 0.72 0.72 0 0 0-0.49 0.78 0.75 0.75 0 0 0 0.71 0.65 h0.51c0.11 0 0.17 0 0.16 0.16 v0.91c0 0.12-0.05 0.17 -0.17 0.16 h-0.49a0.75 0.75 0 0 0-0.73 0.73 c0 0.401 0.31 0.734 0.71 0.76h0.53c0.17 0 0.14 0 0.14 0.14 v0.94c0 0.1 0 0.15-0.15 0.15 a3.53 3.53 0 0 0-0.46 0 0.74 0.74 0 0 0-0.77 0.73 0.76 0.76 0 0 0 0.76 0.75 h0.46c0.11 0 0.17 0 0.16 0.16 v0.9c0 0.12-0.05 0.18 -0.18 0.17 h-0.45a0.74 0.74 0 0 0-0.76 0.71 0.75 0.75 0 0 0 0.73 0.77 h0.47c0.13 0 0.18 0 0.19 0.18 a1.22 1.22 0 0 1-0.82 1.3 1.33 1.33 0 0 1-0.49 0.08 H1.34a1.21 1.21 0 0 1-1.29-0.91 1.08 1.08 0 0 1 0-0.36C0 18.81 0 15.3 0 11.79zm2 0v9.53c0 0.23 0 0.23 0.22 0.23H15c0.2 0 0.21 0 0.21-0.23V8.46 2.27c0-0.17-0.05-0.23-0.23-0.23H2.29c-0.24 0-0.24 0-0.24 0.24 L2 11.79zM27.72 23.53l0.11-0.12c0.57-0.58 1.15-1.15 1.73-1.73a0.37 0.37 0 0 1 0.31-0.13h2.7c0.17 0 0.22 0 0.22-0.21v-19c0-0.27 0-0.28-0.28-0.28h-12.6c-0.29 0-0.29 0-0.29 0.28 v19c0 0.28 0 0.28 0.29 0.28H21.05l-0.15 0.16 -1.71 1.72a0.44 0.44 0 0 1-0.35 0.14 1.25 1.25 0 0 1-1.26-1.43c0-0.11 0.07 -0.12 0.16 -0.13 0.09 -0.01 0.45 0 0.66 0a0.73 0.73 0 0 0-0.12-1.44h-0.54c-0.11 0-0.16 0-0.16-0.15v-0.94c0-0.11 0.07 -0.13 0.17 -0.14a5 5 0 0 0 0.67 0 0.73 0.73 0 0 0 0.58-0.91 0.74 0.74 0 0 0-0.71-0.66 4.51 4.51 0 0 0-0.52 0c-0.11 0-0.16-0.05-0.16-0.15v-0.92c0-0.12 0.05 -0.16 0.16 -0.16a3.35 3.35 0 0 0 0.71-0.06 0.7 0.7 0 0 0 0.51-0.77 0.74 0.74 0 0 0-0.71-0.66h-0.51c-0.1 0-0.16 0-0.16-0.14v-0.94c0-0.11 0.05 -0.14 0.16 -0.15a3 3 0 0 0 0.73-0.06 0.69 0.69 0 0 0 0.49-0.78 0.73 0.73 0 0 0-0.7-0.64h-0.51c-0.13 0-0.17-0.05-0.17-0.17v-0.91c0-0.11 0.05 -0.16 0.17 -0.15h0.47a0.75 0.75 0 0 0 0-1.49h-0.49c-0.13 0-0.18 0-0.18-0.16v-0.89c0-0.13 0.05 -0.19 0.18 -0.18h0.44a0.74 0.74 0 0 0 0-1.48 3.68 3.68 0 0 0-0.47 0c-0.13 0-0.18 0-0.18-0.17v-0.88c0-0.14 0.05 -0.19 0.19 -0.18h0.52a0.74 0.74 0 0 0 0.74-0.7 0.72 0.72 0 0 0-0.59-0.75 4.16 4.16 0 0 0-0.61 0c-0.13 0-0.19 0-0.19-0.18v-0.86c0-0.29 0.06 -0.19 0.2 -0.19 0.187 0.01 0.373 0.01 0.56 0a0.73 0.73 0 0 0 0-1.44h-0.61c-0.2 0-0.14 0-0.16-0.14a1.23 1.23 0 0 1 0.84-1.43c0.14-0.04 0.285 -0.06 0.43 -0.06h14.44c0.298-0.031 0.6 0.02 0.87 0.15 0.4 0.2 0.649 0.613 0.64 1.06v21.16a1.24 1.24 0 0 1-1.28 1.22h-5.8l-0.02-0.06z" fill="#FFF"/>
  <path d="M18.79 29.61a1.35 1.35 0 0 0-1.44-1.47l0.13-0.16c2.92-2.92 5.84-5.83 8.76-8.76 0.1 -0.11 0.17 -0.09 0.27 0 0.4 0.41 0.8 0.81 1.21 1.21 0.11 0.11 0.1 0.17 0 0.27l-5.64 5.63L19 29.44a1.81 1.81 0 0 1-0.21 0.17 zM17.07 27.83a1.45 1.45 0 0 0-0.2-0.82s0.05-0.14 0.1 -0.19L19 24.74l6.33-6.32c0.16-0.16 0.16 -0.17 0.33 0l0.24 0.24 c0.16 0.16 0.16 0.16 0 0.32l-2 2-6.64 6.64-0.19 0.21 zM19.14 29.83l0.11-0.12L28 21c0.12-0.11 0.2 -0.14 0.31 0 0.089 0.104 0.186 0.201 0.29 0.29 0.11 0.09 0.1 0.16 0 0.26l-1.81 1.75-6.65 6.7a0.25 0.25 0 0 1-0.34 0.06 4.24 4.24 0 0 0-0.66-0.23zM30.36 20.05a1.71 1.71 0 0 1-0.11 0.14 c-0.35 0.35 -0.71 0.7 -1.06 1.06-0.1 0.11 -0.17 0.08 -0.26 0L27 19.3 25.71 18c-0.11-0.11-0.11-0.17 0-0.28 0.36 -0.35 0.7 -0.7 1.05-1 0.09-0.1 0.16 -0.1 0.26 0l3.22 3.23 0.12 0.1zM26.3 6.39h3.55c0.27 0 0.27 0 0.27 0.27 v0.55c0 0.18-0.05 0.21 -0.2 0.2 h-7.21c-0.25 0-0.25 0-0.25-0.26v-0.57c0-0.19 0.06 -0.19 0.19 -0.19h3.65zM26.27 12.31H22.7c-0.24 0-0.24 0-0.24-0.25a5.23 5.23 0 0 0 0-0.56c0-0.16 0.05 -0.22 0.22 -0.22h7.19c0.26 0 0.26 0 0.26 0.26 v0.52c0 0.22 0 0.23-0.23 0.24 h-3.63v0.01zM31.5 18.36a3.14 3.14 0 0 1-0.25 0.45 c-0.21 0.24 -0.46 0.45 -0.68 0.69 -0.22 0.24 -0.17 0.11 -0.28 0l-2.35-2.36-0.52-0.51c-0.08-0.08-0.1-0.14 0-0.23 0.25 -0.23 0.48 -0.48 0.73 -0.71a0.6 0.6 0 0 1 0.89 0c0.74 0.73 1.49 1.47 2.22 2.22 0.093 0.143 0.174 0.293 0.24 0.45zM17.92 30.69l-0.76 0.13 -0.71 0.09 a0.35 0.35 0 0 1-0.42-0.44c0.06-0.41 0.11 -0.82 0.17 -1.23a1.8 1.8 0 0 1 0.06-0.22l1.66 1.67zM8.54 7.41h-3.6c-0.22 0-0.23 0-0.23-0.23V6.6c0-0.19 0-0.21 0.21 -0.21h7.16c0.29 0 0.29 0 0.29 0.28 v0.53c0 0.18 0 0.21-0.21 0.21 H8.54zM8.56 11.29h3.56c0.25 0 0.25 0 0.25 0.24 v0.54c0 0.23 0 0.23-0.23 0.24 h-7.2c-0.22 0-0.23 0-0.23-0.23v-0.56c0-0.23 0-0.23 0.22 -0.23h3.63zM8.54 17.2H5c-0.24 0-0.24 0-0.24-0.25v-0.57c0-0.19 0.06 -0.2 0.2 -0.2h7.23c0.24 0 0.24 0 0.24 0.25 V17c0 0.22 0 0.23-0.23 0.23 H8.54v-0.03z" fill="#FFF"/>
</svg>
