<?xml version="1.0" ?>
<svg xmlns="http://www.w3.org/2000/svg" width="31" height="36" viewBox="0 0 31 36">
  <path d="M5.09 16.77h20.72c0.15 0 0.19 0.05 0.19 0.19 0 0.76 0.05 1.53 0.11 2.29s0.12 1.37 0.21 2.06 0.23 1.43 0.36 2.15c0.1 0.48 0.23 1 0.35 1.43 0.12 0.43 0.17 0.68 0.28 1 0.11 0.32 0.25 0.73 0.4 1.09 0.24 0.53 0.49 1.07 0.76 1.58s0.63 1.15 1 1.7c0.5 0.78 1 1.54 1.58 2.33a4.87 4.87 0 0 1-0.45 0.27 c-0.78 0.41 -1.54 0.84 -2.33 1.23s-1.47 0.7 -2.22 1a13.11 13.11 0 0 1-1.53 0.52 1.38 1.38 0 0 1-1.3-0.31 14.41 14.41 0 0 1-1.81-1.77l-0.41-0.46c-0.21-0.25-0.2-0.24-0.51-0.17-0.31 0.07 -0.86 0.21 -1.3 0.29 a16.57 16.57 0 0 1-3.72 0.27 c-0.75 0-1.5-0.08-2.25-0.15-0.53-0.05-1.06-0.12-1.59-0.2-0.35 0-0.69-0.13-1-0.2a0.36 0.36 0 0 0-0.4 0.13 14.71 14.71 0 0 1-2 2.06 4.3 4.3 0 0 1-0.81 0.52 c-0.264 0.1 -0.556 0.1 -0.82 0a6.09 6.09 0 0 1-0.83-0.25c-0.4-0.14-0.8-0.29-1.19-0.46-0.6-0.27-1.18-0.55-1.76-0.84l-2.4-1.2a3.47 3.47 0 0 0-0.33-0.18c-0.11 0-0.12-0.1 0-0.21 0.62 -0.92 1.25-1.84 1.85-2.78a19.75 19.75 0 0 0 1.4-2.7c0.28-0.66 0.55 -1.32 0.79 -2 0.172-0.488 0.316 -0.985 0.43 -1.49 0.1 -0.45 0.17 -0.91 0.24 -1.37 0.1 -0.74 0.21 -1.48 0.26 -2.23 0.07 -0.955 0.07 -1.915 0-2.87l0.03-0.27zm15.12 15.41c-0.45-0.63-0.88-1.21-1.28-1.82a16.09 16.09 0 0 1-0.87-1.36c-0.31-0.56-0.61-1.14-0.89-1.73a8.53 8.53 0 0 1-0.58-1.95c-0.06-0.28-0.12-0.57-0.17-0.86-0.05-0.29-0.1-0.6-0.16-0.89L16 22.34c-0.1-0.48-0.2-0.95-0.31-1.43 0 0 0-0.07-0.09-0.13-0.05 0.15 -0.09 0.26 -0.12 0.37 l-0.51 2-0.42 1.59c-0.13 0.53 -0.23 1.08-0.38 1.61-0.14 0.496 -0.318 0.98 -0.53 1.45a24 24 0 0 1-1.16 2.11c-0.39 0.64 -0.84 1.23-1.27 1.85l-0.3 0.4 0.24 0.06 0.68 0.11 1.17 0.18 0.83 0.08 c0.55 0.06 1.1 0.12 1.65 0.15 0.48 0.035 0.96 0.035 1.44 0 0.6 0 1.19-0.16 1.79-0.26l1.5-0.3zM15.15 16.06H4c-0.47 0-0.64-0.17-0.64-0.64v-3.89c0-0.39 0.09 -0.5 0.45 -0.65a3.85 3.85 0 0 1 1.35-0.3 7.61 7.61 0 0 0 1.33-0.19c0.55-0.11 1.1-0.22 1.63-0.38 0.74 -0.23 1.47-0.5 2.19-0.78s1.32-0.53 2-0.82c0.68-0.29 1.23-0.59 1.85-0.9L15.1 7a0.25 0.25 0 0 0 0.16-0.26V0.65c0-0.27 0-0.27 0.27 -0.27 0.46 0 0.46 0 0.46 0.46 v5.92a0.24 0.24 0 0 0 0.15 0.25 c1 0.49 1.94 1 2.93 1.45 0.83 0.4 1.69 0.75 2.55 1.09 0.64 0.25 1.3 0.47 2 0.66a10 10 0 0 0 2.25 0.41 c0.385 0.024 0.745 0.2 1 0.49a0.48 0.48 0 0 1 0.08 0.27 v4.09a1.17 1.17 0 0 1-0.13 0.44 0.29 0.29 0 0 1-0.29 0.15 H15.15z" fill="#FFF"/>
  <path d="M16.71 4.6V0.73c0-0.35 0-0.36 0.34 -0.43a9.06 9.06 0 0 1 2.37-0.3 5.85 5.85 0 0 1 2 0.44c0.32 0.134 0.656 0.225 1 0.27a20.51 20.51 0 0 0 4.43 0.14 c0.26 0 0.51 0 0.77-0.06h0.2a0.83 0.83 0 0 1-0.09 0.15 10.18 10.18 0 0 1-2.63 2.22 4.14 4.14 0 0 1-2.1 0.61 4.21 4.21 0 0 1-1-0.18 5.28 5.28 0 0 0-1.67-0.21 7.16 7.16 0 0 0-1.39 0.19 6.14 6.14 0 0 0-2.08 0.95 l-0.08 0.06 -0.07 0.02 z" fill="#FFF"/>
</svg>
