<?xml version="1.0" ?>
<svg xmlns="http://www.w3.org/2000/svg" width="36" height="35" viewBox="0 0 36 35">
  <path d="M16.26 4.14c0 0.19 0.1 0.39 0.14 0.59a10.28 10.28 0 0 1 0.1 3.32 23.37 23.37 0 0 1-0.45 2.5c-0.23 0.912 -0.51 1.81-0.84 2.69a24.92 24.92 0 0 1-3.38 6.07c-2 2.69-3.72 5.52-5.41 8.39-0.2 0.34 -0.4 0.69 -0.61 1a0.61 0.61 0 0 1-0.2 0.19 L3.63 30a0.2 0.2 0 0 1-0.28 0c-0.25-0.26-0.49-0.53-0.76-0.76a1.1 1.1 0 0 1-0.35-0.67 7.18 7.18 0 0 1 0.52-4.14 14.23 14.23 0 0 1 2.79-4.11c1.45-1.61 2.91-3.17 4.32-4.77a33.07 33.07 0 0 0 4.39-6.3 21.16 21.16 0 0 0 1.52-3.57c0.14-0.46 0.24 -0.93 0.37 -1.4a0.88 0.88 0 0 1 0.05-0.15l0.06 0.01 zM3.87 30.45l1.27-0.69A65.63 65.63 0 0 0 11 26.14a40.23 40.23 0 0 1 4.61-2.81 15.11 15.11 0 0 1 2.84-1.12 0.72 0.72 0 0 1 0.69 0.13 5.79 5.79 0 0 1 1.63 1.95c0.06 0.11 0 0.15-0.09 0.2 L18.47 26c-1.44 1-2.77 2.16-4.11 3.28A21.56 21.56 0 0 1 10.59 32a8.08 8.08 0 0 1-2.37 0.84 4.91 4.91 0 0 1-1.91 0 0.49 0.49 0 0 1-0.2-0.11L4 30.57l-0.13-0.12zM0 31.18l1.73-1.72 0.06 -0.06c0.1-0.13 0.18 -0.12 0.3 0L5.64 33c0.16 0.16 0.16 0.17 0 0.32l-1.77 1.74L0 31.18z" fill="#FFF"/>
  <path d="M19.66 22h0.79a4.13 4.13 0 0 1 3.4 2.25 3.64 3.64 0 0 1 0.33 2.49A4.18 4.18 0 0 1 22.79 29c-0.27 0.25 -0.57 0.46 -0.85 0.69 l-0.17 0.1 A7.53 7.53 0 0 0 19.66 22zM17.08 10.6c0-0.1 0-0.23 0.09 -0.3 0.21 -0.255 0.445 -0.49 0.7 -0.7a0.6 0.6 0 0 1 0.77 0.1 l0.77 0.77 a0.69 0.69 0 0 1 0 0.92c-0.14 0.16 -0.29 0.31 -0.45 0.45 a0.68 0.68 0 0 1-0.94 0c-0.25-0.24-0.49-0.48-0.73-0.73a0.72 0.72 0 0 1-0.21-0.51zM15.53 20c0.164 0.057 0.319 0.138 0.46 0.24 0.27 0.24 0.52 0.49 0.77 0.76 a0.65 0.65 0 0 1 0 0.95 4.45 4.45 0 0 1-0.62 0.53 0.55 0.55 0 0 1-0.71-0.1c-0.27-0.25-0.54-0.52-0.8-0.79a0.66 0.66 0 0 1 0-0.93 5.4 5.4 0 0 1 0.42-0.41 3.42 3.42 0 0 1 0.48-0.25zM20.16 10.36a0.64 0.64 0 0 1-0.48-0.19L19 9.43a0.67 0.67 0 0 1 0-1l0.36-0.36a0.68 0.68 0 0 1 1 0l0.7 0.7 a0.68 0.68 0 0 1 0 1c-0.13 0.156 -0.274 0.3 -0.43 0.43 a2.35 2.35 0 0 1-0.45 0.22 l-0.02-0.06zM22.15 12.34a0.61 0.61 0 0 1-0.48-0.19c-0.25-0.24-0.5-0.48-0.74-0.74a0.66 0.66 0 0 1 0-1l0.39-0.39a0.68 0.68 0 0 1 1 0c0.24 0.23 0.48 0.47 0.71 0.71 a0.67 0.67 0 0 1 0 1 4 4 0 0 1-0.41 0.41 3.21 3.21 0 0 1-0.45 0.24 l-0.02-0.04zM20.84 18.72c0.159 0.067 0.31 0.15 0.45 0.25 0.262 0.234 0.513 0.48 0.75 0.74 a0.66 0.66 0 0 1 0 0.94c-0.14 0.15 -0.28 0.3 -0.43 0.44 a0.68 0.68 0 0 1-0.93 0c-0.26-0.25-0.52-0.51-0.76-0.77a0.65 0.65 0 0 1 0-0.9 4.35 4.35 0 0 1 0.48-0.48 2.46 2.46 0 0 1 0.44-0.22zM16.63 17.88a0.79 0.79 0 0 1-0.06 0.22 1.83 1.83 0 0 1-0.83 0.82 0.6 0.6 0 0 1-0.67-0.14c-0.26-0.25-0.52-0.51-0.77-0.78a0.66 0.66 0 0 1 0-0.92c0.14-0.15 0.29 -0.3 0.44 -0.44a0.65 0.65 0 0 1 0.92 0c0.27 0.25 0.53 0.5 0.77 0.77 0.098 0.134 0.176 0.283 0.23 0.44 l-0.03 0.03 zM18.3 16.17c0 0.14 0 0.26-0.1 0.33 a1.79 1.79 0 0 1-0.85 0.78 0.59 0.59 0 0 1-0.63-0.16c-0.26-0.25-0.52-0.5-0.76-0.77a0.66 0.66 0 0 1 0-0.94 5.55 5.55 0 0 1 0.42-0.42 0.66 0.66 0 0 1 0.93 0c0.26 0.25 0.53 0.5 0.77 0.77 a2 2 0 0 1 0.22 0.41 zM18.87 16.74c0.158 0.067 0.31 0.151 0.45 0.25 0.26 0.23 0.5 0.48 0.74 0.73 a0.67 0.67 0 0 1 0 1 5.55 5.55 0 0 1-0.42 0.42 0.68 0.68 0 0 1-0.94 0l-0.7-0.79a0.67 0.67 0 0 1 0-1 5.52 5.52 0 0 1 0.63-0.55 0.57 0.57 0 0 1 0.26-0.08l-0.02 0.02 zM26.1 16.37a2.61 2.61 0 0 1-0.47-0.26c-0.25-0.23-0.49-0.48-0.73-0.72a0.67 0.67 0 0 1 0-1c0.13-0.14 0.26 -0.27 0.4 -0.4a0.68 0.68 0 0 1 1 0c0.25 0.24 0.5 0.49 0.74 0.74 a0.68 0.68 0 0 1 0 0.95 2.78 2.78 0 0 1-0.42 0.42 3.57 3.57 0 0 1-0.52 0.27 zM20.19 11.46c0.157 0.066 0.308 0.146 0.45 0.24 0.26 0.23 0.49 0.48 0.73 0.73 a0.68 0.68 0 0 1 0 1l-0.37 0.37 a0.68 0.68 0 0 1-1 0l-0.69-0.69a0.67 0.67 0 0 1 0-1l0.39-0.39a0.57 0.57 0 0 1 0.48-0.18l0.01-0.08zM19.92 14.56a1.44 1.44 0 0 1-1.09 1 0.69 0.69 0 0 1-0.48-0.2l-0.72-0.72a0.68 0.68 0 0 1 0-1l0.4-0.4a0.66 0.66 0 0 1 0.94 0c0.27 0.25 0.53 0.5 0.77 0.77 0.091 0.134 0.165 0.278 0.22 0.43 l-0.04 0.12 zM17.21 18.39c0.156 0.062 0.304 0.142 0.44 0.24 0.268 0.238 0.522 0.492 0.76 0.76 a0.66 0.66 0 0 1 0 0.94c-0.13 0.14 -0.28 0.28 -0.42 0.42 a0.66 0.66 0 0 1-0.94 0c-0.26-0.25-0.52-0.5-0.76-0.76a0.6 0.6 0 0 1-0.13-0.73 1.91 1.91 0 0 1 0.84-0.8 1.25 1.25 0 0 1 0.19 0l0.02-0.07zM24.11 14.38a2.18 2.18 0 0 1-0.43-0.23 9.45 9.45 0 0 1-0.78-0.77 0.66 0.66 0 0 1 0-0.94l0.42-0.42a0.67 0.67 0 0 1 0.93 0c0.27 0.25 0.53 0.51 0.77 0.78 a0.65 0.65 0 0 1 0 0.87 3.65 3.65 0 0 1-0.52 0.52 2.61 2.61 0 0 1-0.39 0.19 zM21.91 16.55a0.78 0.78 0 0 1 0 0.16 1.65 1.65 0 0 1-0.89 0.89 0.6 0.6 0 0 1-0.68-0.18l-0.69-0.69a0.69 0.69 0 0 1 0-1l0.38-0.37a0.67 0.67 0 0 1 1 0c0.25 0.24 0.49 0.49 0.73 0.74 a0.61 0.61 0 0 1 0.15 0.45 zM21.07 14.56v-0.06a1.51 1.51 0 0 1 1-1 0.64 0.64 0 0 1 0.51 0.19 c0.25 0.24 0.5 0.48 0.74 0.73 a0.68 0.68 0 0 1 0 1c-0.12 0.127 -0.25 0.257 -0.39 0.39 a0.67 0.67 0 0 1-1 0c-0.24-0.23-0.48-0.47-0.71-0.71a0.63 0.63 0 0 1-0.15-0.54zM23.91 18.55a0.81 0.81 0 0 1-0.11 0.32 4.57 4.57 0 0 1-0.67 0.65 0.63 0.63 0 0 1-0.8-0.09c-0.25-0.25-0.5-0.49-0.75-0.75a0.69 0.69 0 0 1 0-1l0.4-0.4a0.67 0.67 0 0 1 1 0c0.24 0.23 0.47 0.47 0.71 0.71 0.15 0.147 0.23 0.35 0.22 0.56 zM24.46 18a1.89 1.89 0 0 1-0.45-0.24 9.45 9.45 0 0 1-0.78-0.77 0.66 0.66 0 0 1 0-0.94l0.4-0.4a0.69 0.69 0 0 1 1 0c0.25 0.24 0.49 0.48 0.72 0.73 a0.66 0.66 0 0 1 0 1 3.18 3.18 0 0 1-0.41 0.41 4.12 4.12 0 0 1-0.48 0.21 zM15 19.56a0.58 0.58 0 0 1-0.05 0.2 1.91 1.91 0 0 1-0.83 0.81 0.58 0.58 0 0 1-0.65-0.12c-0.28-0.26-0.54-0.53-0.81-0.81s-0.18-0.33 0-0.56l0.47-0.69a0.57 0.57 0 0 1 0.88-0.14l0.09 0.07 0.7 0.71 a0.68 0.68 0 0 1 0.2 0.53 zM27.38 12c0.144 0.06 0.281 0.133 0.41 0.22 0.24 0.21 0.45 0.44 0.67 0.66 a0.64 0.64 0 0 1 0 0.92c-0.15 0.17 -0.31 0.33 -0.47 0.48 a0.67 0.67 0 0 1-0.93 0l-0.66-0.66a0.6 0.6 0 0 1-0.08-0.8 4.44 4.44 0 0 1 0.65-0.65c0.11-0.09 0.25 -0.1 0.41 -0.17zM24.31 11.26a2.27 2.27 0 0 1 0.23-0.44 5.1 5.1 0 0 1 0.46-0.47 0.64 0.64 0 0 1 0.93 0l0.67 0.66 a0.61 0.61 0 0 1 0.09 0.76 1.89 1.89 0 0 1-0.81 0.75 0.55 0.55 0 0 1-0.63-0.13c-0.25-0.23-0.5-0.47-0.73-0.72a1.79 1.79 0 0 1-0.21-0.41zM23.76 10.75a2.18 2.18 0 0 1-0.42-0.24 8.33 8.33 0 0 1-0.67-0.66 0.64 0.64 0 0 1 0-0.93c0.14-0.15 0.29 -0.3 0.44 -0.44a0.66 0.66 0 0 1 0.95 0l0.65 0.65 a0.62 0.62 0 0 1 0.06 0.86 c-0.173 0.21 -0.367 0.4 -0.58 0.57 a1.83 1.83 0 0 1-0.43 0.19 zM23 7.73a1.23 1.23 0 0 1-0.09 0.29 2 2 0 0 1-0.84 0.77 0.57 0.57 0 0 1-0.63-0.15L20.78 8a0.64 0.64 0 0 1 0-0.89 5.9 5.9 0 0 1 0.5-0.5 0.65 0.65 0 0 1 0.91 0l0.65 0.65 a0.71 0.71 0 0 1 0.16 0.47 zM28.39 9.74a4 4 0 0 1-0.25 0.46 3.57 3.57 0 0 1-0.43 0.44 0.66 0.66 0 0 1-1 0c-0.17-0.19-0.36-0.36-0.54-0.55a0.55 0.55 0 0 1-0.12-0.73 2 2 0 0 1 0.82-0.79 0.54 0.54 0 0 1 0.63 0.12 c0.22 0.22 0.45 0.43 0.65 0.66 a2 2 0 0 1 0.24 0.39 zM27.74 11.39a2.46 2.46 0 0 1 0.25-0.45 3.11 3.11 0 0 1 0.44-0.45 0.63 0.63 0 0 1 0.95 0c0.17 0.17 0.35 0.34 0.52 0.52 a0.64 0.64 0 0 1 0.1 0.99 4.45 4.45 0 0 1-0.49 0.48 0.64 0.64 0 0 1-0.93 0l-0.58-0.62a0.56 0.56 0 0 1-0.19-0.44l-0.07-0.03zM26.6 7.94a2.71 2.71 0 0 1-0.23 0.45 5.44 5.44 0 0 1-0.47 0.49 0.66 0.66 0 0 1-0.94 0c-0.17-0.2-0.37-0.37-0.55-0.56a0.56 0.56 0 0 1-0.11-0.75 2 2 0 0 1 0.83-0.78 0.52 0.52 0 0 1 0.59 0.11 c0.246 0.22 0.48 0.454 0.7 0.7 0.072 0.107 0.132 0.22 0.18 0.34 zM23.61 7.32a3.18 3.18 0 0 1-0.4-0.23c-0.21-0.19-0.4-0.39-0.59-0.59a0.57 0.57 0 0 1-0.11-0.74c0.193-0.323 0.47 -0.59 0.8 -0.77a0.55 0.55 0 0 1 0.66 0.12 l0.6 0.6 a0.6 0.6 0 0 1 0.07 0.84 5 5 0 0 1-0.61 0.6 1.91 1.91 0 0 1-0.42 0.17 zM12.2 22.31a2.46 2.46 0 0 1-0.45-0.25c-0.22-0.19-0.42-0.41-0.63-0.62a0.15 0.15 0 0 1 0-0.22c0.32-0.44 0.63 -0.88 0.94 -1.33 0.06 -0.09 0.12 -0.1 0.21 0l0.15 0.11 c0.24 0.23 0.48 0.47 0.71 0.71 a0.66 0.66 0 0 1 0 1 7 7 0 0 1-0.65 0.55 0.71 0.71 0 0 1-0.22 0.06 l-0.06-0.01zM17.94 12.58a1 1 0 0 1 0 0.19 1.67 1.67 0 0 1-0.93 0.88 0.59 0.59 0 0 1-0.6-0.16A6.2 6.2 0 0 1 16 13a0.23 0.23 0 0 1 0-0.21l0.46-1.48c0.05-0.15 0.13 -0.22 0.27 -0.17 0.14 0.044 0.272 0.112 0.39 0.2 0.25 0.23 0.48 0.48 0.72 0.73a0.61 0.61 0 0 1 0.1 0.51 zM12.74 22.84c0.06-0.16 0.138 -0.315 0.23 -0.46a5 5 0 0 1 0.46-0.46 0.64 0.64 0 0 1 0.9 0c0.27 0.25 0.54 0.52 0.8 0.79 s0.15 0.21 -0.06 0.33 l-1.35 0.77 a0.19 0.19 0 0 1-0.27 0c-0.14-0.15-0.31-0.29-0.44-0.45a3.15 3.15 0 0 1-0.27-0.52zM26.42 4.75c0.01 0.06 0.01 0.12 0 0.18a1.73 1.73 0 0 1-0.78 0.78 0.46 0.46 0 0 1-0.55-0.1A8 8 0 0 1 24.4 5a0.54 0.54 0 0 1 0-0.75 5.21 5.21 0 0 1 0.47-0.47 0.56 0.56 0 0 1 0.81 0c0.193 0.177 0.377 0.364 0.55 0.56 0.089 0.117 0.163 0.245 0.22 0.38 l-0.03 0.03 zM25.91 6.33A1.12 1.12 0 0 1 26 6c0.21-0.246 0.445 -0.47 0.7 -0.67a0.47 0.47 0 0 1 0.62 0.08 c0.22 0.2 0.43 0.42 0.63 0.63 a0.53 0.53 0 0 1 0 0.71c-0.16 0.2 -0.34 0.38 -0.54 0.54 a0.55 0.55 0 0 1-0.76 0c-0.18-0.19-0.38-0.36-0.55-0.56a2.4 2.4 0 0 1-0.19-0.4zM31.5 9.76a1.84 1.84 0 0 1-0.07 0.24 1.72 1.72 0 0 1-0.82 0.78 0.46 0.46 0 0 1-0.51-0.11c-0.22-0.21-0.43-0.42-0.64-0.64a0.49 0.49 0 0 1-0.09-0.61 1.83 1.83 0 0 1 0.74-0.72 0.48 0.48 0 0 1 0.59 0.1 c0.22 0.2 0.43 0.41 0.63 0.63 0.07 0.102 0.127 0.213 0.17 0.33 zM29.81 8.07c0 0.14 0 0.25-0.1 0.32 a4.44 4.44 0 0 1-0.65 0.65 0.5 0.5 0 0 1-0.69-0.1c-0.2-0.187-0.39-0.377-0.57-0.57a0.57 0.57 0 0 1 0-0.78 5.66 5.66 0 0 1 0.49-0.49 0.56 0.56 0 0 1 0.78 0 6 6 0 0 1 0.56 0.57 c0.077 0.125 0.138 0.26 0.18 0.4 zM28.58 6a1.74 1.74 0 0 1-0.33-0.18c-0.18-0.16-0.35-0.34-0.52-0.52a0.52 0.52 0 0 1 0-0.76 3.48 3.48 0 0 1 0.43-0.54 0.54 0.54 0 0 1 0.78 0l0.48 0.48 a0.52 0.52 0 0 1 0.07 0.71 4.23 4.23 0 0 1-0.56 0.56 c-0.1 0.104 -0.219 0.19 -0.35 0.25 zM30.7 8.07c0-0.12 0-0.23 0.09 -0.28a6.23 6.23 0 0 1 0.69-0.67 0.44 0.44 0 0 1 0.59 0.09 l0.52 0.52 a0.49 0.49 0 0 1 0.06 0.72 1.88 1.88 0 0 1-0.69 0.62 0.46 0.46 0 0 1-0.52-0.1 8.07 8.07 0 0 1-0.58-0.59 1.53 1.53 0 0 1-0.16-0.31zM28 3.35a0.38 0.38 0 0 0 0 0.1 1.54 1.54 0 0 1-0.93 0.89 0.48 0.48 0 0 1-0.41-0.15l-0.52-0.52a0.52 0.52 0 0 1 0-0.77c0.14-0.16 0.29 -0.31 0.45 -0.45a0.55 0.55 0 0 1 0.79 0c0.17 0.17 0.34 0.33 0.5 0.51 0.073 0.108 0.137 0.221 0.19 0.34 l-0.07 0.05 zM29.11 6.48c0-0.39 0.65 -1 1-1a0.72 0.72 0 0 1 0.35 0.14 c0.19 0.16 0.36 0.35 0.54 0.53 a0.5 0.5 0 0 1 0.06 0.68 1.69 1.69 0 0 1-0.74 0.66 0.47 0.47 0 0 1-0.5-0.12 7.53 7.53 0 0 1-0.56-0.57 1.23 1.23 0 0 1-0.15-0.32zM10.57 23.91a0.62 0.62 0 0 1-0.5-0.22c-0.12-0.12-0.31-0.24-0.33-0.38-0.02-0.14 0.14 -0.28 0.23 -0.41 0.24 -0.36 0.48 -0.71 0.71 -1.07 0.08 -0.12 0.14 -0.14 0.24 0 0.1 0.14 0.37 0.36 0.54 0.55 a0.67 0.67 0 0 1 0 0.94 3.11 3.11 0 0 1-0.45 0.44 3.68 3.68 0 0 1-0.44 0.23 v-0.08zM13.23 24.08l-0.16 0.12 -1.36 0.88 a0.19 0.19 0 0 1-0.29 0 0.7 0.7 0 0 1 0-1.12l0.36-0.36a0.69 0.69 0 0 1 0.88 0l0.14 0.13 0.43 0.35 zM31.56 5.87a1.59 1.59 0 0 1-0.29-0.15c-0.17-0.16-0.34-0.33-0.5-0.51a0.43 0.43 0 0 1 0-0.6c0.12-0.13 0.24 -0.26 0.37 -0.38a0.44 0.44 0 0 1 0.61 0c0.17 0.16 0.34 0.33 0.5 0.5 a0.41 0.41 0 0 1 0.05 0.58 3.12 3.12 0 0 1-0.45 0.44 1 1 0 0 1-0.29 0.12 zM33 7.3a1.56 1.56 0 0 1-0.28-0.16c-0.18-0.16-0.34-0.33-0.51-0.5a0.42 0.42 0 0 1 0-0.59 3 3 0 0 1 0.39-0.4 0.42 0.42 0 0 1 0.59 0c0.18 0.16 0.35 0.33 0.51 0.5 a0.41 0.41 0 0 1 0.06 0.56 4 4 0 0 1-0.46 0.46 1.11 1.11 0 0 1-0.3 0.13 zM29.2 3.54c0-0.11 0-0.19 0.05 -0.23a5.27 5.27 0 0 1 0.59-0.57 0.33 0.33 0 0 1 0.44 0.07 c0.19 0.17 0.37 0.35 0.54 0.54 a0.42 0.42 0 0 1 0 0.58 3 3 0 0 1-0.4 0.39 0.43 0.43 0 0 1-0.6 0 7.68 7.68 0 0 1-0.49-0.5 1.83 1.83 0 0 1-0.13-0.28zM29.53 2.16c0 0.11 0 0.19-0.05 0.23 a5.27 5.27 0 0 1-0.59 0.57 0.33 0.33 0 0 1-0.44-0.07 9.31 9.31 0 0 1-0.55-0.54 0.43 0.43 0 0 1 0-0.6 3.55 3.55 0 0 1 0.33-0.34 0.45 0.45 0 0 1 0.66 0c0.16 0.16 0.33 0.32 0.48 0.49 0.06 0.082 0.114 0.169 0.16 0.26 zM20.38 21.482a0.19 0.19 0 0 1-0.08 0 7.044 7.044 0 0 0-2 0.26c-0.14 0-0.21 0-0.2-0.14a0.82 0.82 0 0 1 0.1-0.42 3.18 3.18 0 0 1 0.63-0.64 0.54 0.54 0 0 1 0.73 0c0.26 0.32 0.53 0.64 0.82 0.94 zM9.48 23.71a0.87 0.87 0 0 1 0.5 0.94 0.29 0.29 0 0 1-0.05 0.14 6.24 6.24 0 0 1-0.68 0.68 0.6 0.6 0 0 1-0.71 0c-0.08-0.05-0.12-0.11-0.06-0.2l1-1.52s-0.02-0.03 0-0.04zM33.82 5.49h-0.12a6 6 0 0 1-0.6-0.63c0-0.06 0-0.24 0.09 -0.32a2.46 2.46 0 0 1 0.39-0.4 0.35 0.35 0 0 1 0.53 0l0.33 0.33 c0.15 0.15 0.18 0.27 0.06 0.44 a4.35 4.35 0 0 1-0.53 0.52 s-0.11 0.05 -0.15 0.06 zM30.72 2.44V2.3a8.21 8.21 0 0 1 0.59-0.59c0.12-0.11 0.27 -0.05 0.38 0.06l0.36 0.35 a0.31 0.31 0 0 1 0.07 0.43 3.19 3.19 0 0 1-0.6 0.56 c-0.06 0.05 -0.24 0-0.31 0a2.67 2.67 0 0 1-0.45-0.44 1.42 1.42 0 0 1-0.04-0.23zM32.65 4.32a1.28 1.28 0 0 1-0.75-0.71v-0.09a1.31 1.31 0 0 1 0.64-0.65 0.27 0.27 0 0 1 0.34 0.07 l0.38 0.37 c0.11 0.12 0.17 0.28 0.06 0.4 a8.07 8.07 0 0 1-0.59 0.58 s-0.06 0.02 -0.08 0.03 zM29.56 1.3a0.68 0.68 0 0 0 0-0.12 1.29 1.29 0 0 1 0.7-0.68 0.58 0.58 0 0 1 0.28 0.09 c0.13 0.11 0.24 0.25 0.36 0.36 a0.32 0.32 0 0 1 0.09 0.4 1.16 1.16 0 0 1-0.64 0.59 0.34 0.34 0 0 1-0.29-0.06 3.41 3.41 0 0 1-0.43-0.42 0.79 0.79 0 0 1-0.07-0.16zM15.7 13.43c0.54 0.33 0.84 0.85 0.32 1.36l-0.35 0.35 a0.67 0.67 0 0 1-0.65 0.15 c-0.08 0-0.12 0-0.08-0.14l0.75-1.72h0.01zM11.19 25.41l-0.24 0.17 -1.2 0.81 c-0.15 0.1 -0.21 0.08 -0.24-0.1a0.66 0.66 0 0 1 0.14-0.59c0.15-0.17 0.31 -0.33 0.48 -0.48a0.7 0.7 0 0 1 1.06 0.19 zM32.27 0.52 a0.82 0.82 0 0 1-0.4 0.48 c-0.14 0.08 -0.23-0.05-0.32-0.13l-0.22-0.22a0.25 0.25 0 0 1 0-0.37c0.29-0.3 0.35 -0.39 0.68 0 0.11 0.06 0.19 0.16 0.26 0.24 zM35.06 3.36a0.82 0.82 0 0 1-0.37 0.41 c-0.15 0.09 -0.26 0-0.35-0.12-0.09-0.12-0.15-0.14-0.22-0.22a0.22 0.22 0 0 1 0-0.33 0.9 0.9 0 0 1 0.25-0.23 0.35 0.35 0 0 1 0.28 0c0.137 0.119 0.268 0.246 0.39 0.38 a1 1 0 0 1 0.02 0.11 zM32.76 2a0.61 0.61 0 0 1-0.2-0.1l-0.32-0.31a0.21 0.21 0 0 1 0-0.31 1.36 1.36 0 0 1 0.24-0.28 0.22 0.22 0 0 1 0.32 0l0.31 0.3 a0.23 0.23 0 0 1 0 0.34l-0.35 0.36 zM34.12 2.4a0.69 0.69 0 0 1-0.38 0.45 c-0.15 0.09 -0.24 0-0.34-0.13l-0.19-0.19-0.07-0.08c-0.08-0.14 0-0.3 0.25 -0.5a0.23 0.23 0 0 1 0.35 0c0.104 0.093 0.201 0.193 0.29 0.3 a0.75 0.75 0 0 1 0.09 0.15 zM7.31 27.16l0.88-1.43a0.59 0.59 0 0 1 0.06 0.75 4.84 4.84 0 0 1-0.64 0.64 c-0.06 0.06 -0.17 0.06 -0.26 0.09 l-0.04-0.05zM7.92 27.58c0.17-0.539 0.7 -0.88 1.26-0.81l-1.26 0.81 zM14.6 15.85a0.56 0.56 0 0 1-0.34 0.62 l0.34-0.62z" fill="#FFF"/>
</svg>
