<?xml version="1.0" ?>
<svg xmlns="http://www.w3.org/2000/svg" width="44" height="32" viewBox="0 0 44 32">
  <path d="M38.53 15.37a2.56 2.56 0 0 1 2.29 1.45c0.64 1.2 1.23 2.43 1.83 3.65 0.26 0.51 0.52 1 0.74 1.56a1 1 0 0 1-0.47 1.2 1 1 0 0 1-1.37-0.42L39.62 19l-0.19-0.32h-0.08c0.53 2.61 1.07 5.22 1.62 7.87h-1.48c-0.19 0-0.24 0.07 -0.24 0.25 v3.86a1.1 1.1 0 0 1-1.39 1.13 1.18 1.18 0 0 1-0.81-1.08v-4.06h-0.49v4.1a1.11 1.11 0 0 1-1.4 1.15 1.13 1.13 0 0 1-0.79-1v-4.19h-1.7c0.54-2.65 1.08-5.25 1.62-7.85h-0.11l-0.77 1.47c-0.45 0.88 -0.9 1.76-1.36 2.64a1.009 1.009 0 0 1-1.78-0.95c0.73-1.56 1.43-3.02 2.15-4.49A3.68 3.68 0 0 1 34 15.68a2.79 2.79 0 0 1 1.13-0.3c1.12-0.04 2.26-0.04 3.4-0.01zM36.81 15a2.45 2.45 0 0 1-2.43-2.48 2.49 2.49 0 0 1 2.44-2.4 2.46 2.46 0 0 1 2.43 2.43A2.41 2.41 0 0 1 36.81 15zM26.26 1a3.45 3.45 0 1 1 0.13 6.9 3.45 3.45 0 0 1-0.13-6.9zM22.66 23.83c-0.1-0.49-0.22-1-0.32-1.48s-0.18-0.93-0.28-1.39l-0.32-1.46c-0.1-0.46-0.2-1-0.31-1.46-0.11-0.46-0.22-1-0.31-1.57a0.68 0.68 0 0 1 0.06-0.37l1.28-2.5 0.4 -0.68h0.07v11.52h-0.18c-0.04-0.23-0.05-0.44-0.09-0.61zM20.42 4.43a3.44 3.44 0 1 1-6.88 0.02 3.44 3.44 0 0 1 6.88-0.02zM9.08 12.25a2.43 2.43 0 1 1-2.44-2.43 2.42 2.42 0 0 1 2.44 2.43z" fill="#FFF"/>
  <path d="M33.28 13.05c0.32 0.61 0.61 1.24 0.92 1.86 0.07 0.14 0.08 0.24-0.07 0.28 a3.08 3.08 0 0 0-1.74 1.6c-0.07 0.13 -0.16 0.26 -0.27 0.46 L30 13h-0.07a1.88 1.88 0 0 0-0.05 0.33 v16.8a1.59 1.59 0 0 1-1 1.64 1.53 1.53 0 0 1-2-0.86 2 2 0 0 1-0.11-0.69V21.7a0.38 0.38 0 0 0-0.6-0.36 0.48 0.48 0 0 0-0.11 0.31 v8.62a1.52 1.52 0 0 1-1.08 1.55 1.47 1.47 0 0 1-1.9-0.82 1.94 1.94 0 0 1-0.14-0.79V13h-0.07l-0.4 0.68 -1.28 2.5a0.68 0.68 0 0 0-0.06 0.37 c0.09 0.52 0.21 1 0.31 1.57 0.1 0.57 0.2 1 0.31 1.46 0.11 0.46 0.22 1 0.32 1.46 0.1 0.46 0.18 0.92 0.28 1.39 0.1 0.47 0.22 1 0.32 1.48 0 0.19 0.05 0.38 0.09 0.61h-1.99c-0.41 0-0.35 0.07 -0.34 0.34 v5.5a1.54 1.54 0 0 1-2.93 0.73 1.82 1.82 0 0 1-0.13-0.73v-5.39c0-0.44 0.1 -0.44-0.44-0.44h-0.25v5.88a1.54 1.54 0 0 1-2 1.51 1.44 1.44 0 0 1-1.11-1.6v-3.64-1.91c0-0.27-0.09-0.34-0.35-0.34h-2c0-0.18 0-0.34 0.08 -0.49a8.58 8.58 0 0 1 0.18-0.85c0.13-0.48-0.14-0.83-0.34-1.21-0.63-1.21-1.26-2.41-1.94-3.61v12.38a1.11 1.11 0 0 1-0.62 1.06 1.07 1.07 0 0 1-1.57-0.91v-6.59h-0.6v6.48a1.18 1.18 0 0 1-1.2 1.19 1.06 1.06 0 0 1-1-1V18.55a2.45 2.45 0 0 0 0-0.27h-0.07l-0.49 0.9 c-0.57 1.12-1.13 2.24-1.72 3.34a0.91 0.91 0 0 1-1 0.55A1 1 0 0 1 0 22.1a2.15 2.15 0 0 1 0.26-0.8 97 97 0 0 1 1.4-2.89A11.45 11.45 0 0 1 3 16a2.49 2.49 0 0 1 2-0.94h3.12a2.86 2.86 0 0 1 2.65 1.7c0.45 0.83 0.86 1.69 1.28 2.53A52.94 52.94 0 0 0 13.4 13l-1 2a41.4 41.4 0 0 0-1 2c-0.16-0.26-0.29-0.5-0.44-0.73A3.19 3.19 0 0 0 9.67 15h-0.1c-0.44-0.17-0.45-0.17-0.24-0.59 0.4 -0.82 0.81 -1.65 1.22-2.47a10.33 10.33 0 0 1 1.31-2.14 3.09 3.09 0 0 1 2.31-1.25h5.61a3 3 0 0 1 1.51 0.5 6.78 6.78 0 0 0-1.19 1.68 1 1 0 0 0 0 0.81l0.41-0.69a4.59 4.59 0 0 1 2-2 2.76 2.76 0 0 1 1.11-0.31h5.63a3 3 0 0 1 2.47 1.57c0.55 0.95 1.04 1.95 1.56 2.94z" fill="#FFF"/>
  <path d="M4.22 12.25a2.43 2.43 0 1 0 2.42-2.43 2.4 2.4 0 0 0-2.42 2.43zm18.71-7.81a3.45 3.45 0 1 0 6.89 0 3.45 3.45 0 1 0-6.89 0zm-2.51 0a3.44 3.44 0 1 0-6.87 0 3.44 3.44 0 1 0 6.87 0zm0 20.34c0-0.27 0.07 -0.35 0.34 -0.34 0.27 0.01 0.82 0 1.23 0h0.95v5.77c-0.009 0.27 0.039 0.54 0.14 0.79 a1.47 1.47 0 0 0 1.86 0.82 A1.52 1.52 0 0 0 26 30.27v-8.62a0.48 0.48 0 0 1 0.11-0.31 0.38 0.38 0 0 1 0.6 0.36 v8.53a2 2 0 0 0 0.11 0.69 1.53 1.53 0 0 0 2 0.86 1.59 1.59 0 0 0 1-1.64V17.42v-4.08a1.88 1.88 0 0 1 0.05-0.33H30l2.16 4.24c0.11-0.2 0.2 -0.33 0.27 -0.46a3.08 3.08 0 0 1 1.74-1.6c0.15 0 0.14-0.14 0.07 -0.28-0.31-0.62-0.6-1.25-0.92-1.86-0.52-1-1-2-1.59-2.93a3 3 0 0 0-2.47-1.57h-5.63a2.76 2.76 0 0 0-1.11 0.31 4.59 4.59 0 0 0-2 2l-0.41 0.69 a1 1 0 0 1 0-0.81 6.78 6.78 0 0 1 1.19-1.68 3 3 0 0 0-1.51-0.5h-5.61a3.09 3.09 0 0 0-2.32 1.24 10.33 10.33 0 0 0-1.31 2.13c-0.41 0.82 -0.82 1.65-1.22 2.47-0.21 0.42 -0.2 0.42 0.24 0.59 h0.1c0.51 0.277 0.936 0.689 1.23 1.19 0.15 0.23 0.28 0.47 0.44 0.73 0.36 -0.69 0.69 -1.34 1-2l1-2A52.94 52.94 0 0 1 12 19.23c-0.42-0.84-0.83-1.7-1.28-2.53A2.86 2.86 0 0 0 8.07 15H4.95A2.49 2.49 0 0 0 3 16a11.45 11.45 0 0 0-1.36 2.38c-0.48 1-0.94 1.92-1.4 2.89a2.15 2.15 0 0 0-0.26 0.8 1 1 0 0 0 0.88 0.95 0.91 0.91 0 0 0 1-0.55c0.59-1.1 1.15-2.22 1.72-3.34l0.49-0.9h0.07c0.005 0.09 0.005 0.18 0 0.27V30.81c0.03 0.54 0.46 0.97 1 1a1.18 1.18 0 0 0 1.2-1.19v-6.48h0.56v6.64a1.07 1.07 0 0 0 1.57 0.91 1.11 1.11 0 0 0 0.62-1.06v-12-0.38c0.68 1.2 1.31 2.4 1.94 3.61 0.2 0.38 0.47 0.73 0.34 1.21a8.58 8.58 0 0 0-0.18 0.85 c0 0.15-0.05 0.31 -0.08 0.49 h2c0.26 0 0.36 0.07 0.35 0.34 v5.47a1.44 1.44 0 0 0 1.11 1.6 1.54 1.54 0 0 0 2-1.51v-5.56-0.32h0.25c0.54 0 0.44 0 0.44 0.44 v5.39c-0.007 0.25 0.037 0.498 0.13 0.73 a1.54 1.54 0 0 0 2.93-0.73c0.09-1.82 0.1 -3.66 0.09 -5.49l0.01 0.01 zM36.81 15a2.41 2.41 0 0 0 2.44-2.45 2.46 2.46 0 0 0-2.43-2.43 2.49 2.49 0 0 0-2.44 2.4A2.45 2.45 0 0 0 36.81 15zm-2.51 3.79c-0.54 2.6-1.08 5.2-1.62 7.85h1.7v4.19c0.032 0.464 0.346 0.861 0.79 1a1.11 1.11 0 0 0 1.4-1.15v-4.07h0.49v4.14c0.017 0.494 0.34 0.925 0.81 1.08a1.1 1.1 0 0 0 1.39-1.13v-3.86c0-0.18 0-0.26 0.24 -0.25H41c-0.55-2.65-1.09-5.26-1.62-7.87h0.08l0.19 0.32 1.93 3.77a1 1 0 0 0 1.37 0.42 1 1 0 0 0 0.47-1.2c-0.22-0.53-0.48-1.05-0.74-1.56-0.6-1.22-1.19-2.45-1.83-3.65a2.56 2.56 0 0 0-2.29-1.45h-3.42a2.79 2.79 0 0 0-1.13 0.3 3.68 3.68 0 0 0-1.56 1.85c-0.75 1.48-1.45 2.94-2.17 4.4a1.009 1.009 0 0 0 1.78 0.95 c0.46-0.88 0.91 -1.76 1.36-2.64l0.77-1.47 0.11 0.03z" fill="#FFF"/>
</svg>
