<?xml version="1.0" ?>
<svg xmlns="http://www.w3.org/2000/svg" width="35" height="36" viewBox="0 0 35 36">
  <path d="M15.88 6c0.09 0.19 0.18 0.4 0.29 0.61 0.31 0.64 0.62 1.28 0.94 1.92 0.08 0.18 0.16 0.36 0.25 0.53a0.21 0.21 0 0 0 0.17 0.09 c0.3 0 0.59-0.08 0.89 -0.12 0.3 -0.04 0.47 -0.08 0.71 -0.1 0.24 -0.02 0.64 -0.07 1-0.09 0.66 -0.05 1.31-0.11 2-0.12a10.59 10.59 0 0 1 1.6 0.08 c0.675 0.076 1.343 0.2 2 0.37a8.35 8.35 0 0 1 3.1 1.5c0.398 0.33 0.776 0.684 1.13 1.06 0 0 0.07 0.1 0.13 0.18 H16.23a2.25 2.25 0 0 1-0.81-0.25c-0.54-0.2-1.08-0.43-1.61-0.65L12 10.27a1.94 1.94 0 0 0-0.22-0.07c0 0.12 0.05 0.22 0.08 0.32a2 2 0 0 1 0 1 2.81 2.81 0 0 1-1 1.56 2.74 2.74 0 0 1-1.58 0.65 3 3 0 0 1-3.11-2.07 2.9 2.9 0 0 1-0.14-1 3 3 0 0 1 3.56-2.8c0.37 0.082 0.734 0.19 1.09 0.32 l1.32 0.41 1.3 0.41 0.82 0.26 c0.29 0.09 0.58 0.19 0.88 0.27 0.082 0.024 0.165 0.041 0.25 0.05 0.2-0.29 0-0.51-0.07-0.73-0.21-0.5-0.43-1-0.64-1.49l-0.63-1.44c-0.24-0.57-0.47-1.15-0.74-1.71a2.83 2.83 0 0 1-0.27-1.1A2.91 2.91 0 0 1 14.26 0.5 a2.88 2.88 0 0 1 2.39-0.4 2.82 2.82 0 0 1 2 1.76 2.78 2.78 0 0 1 0.11 1.89A3 3 0 0 1 18 5.18a2.3 2.3 0 0 1-1.14 0.63 l-0.98 0.19 zM9.05 9.49a1.28 1.28 0 0 0-1.31 1.3 1.31 1.31 0 0 0 2.61 0 1.3 1.3 0 0 0-1.3-1.3zM14.62 3a1.28 1.28 0 0 0 1.29 1.33A1.3 1.3 0 0 0 17.22 3a1.33 1.33 0 0 0-1.28-1.32A1.3 1.3 0 0 0 14.62 3zm2.74 7.5a0.74 0.74 0 0 0-0.76-0.79 0.78 0.78 0 0 0 0 1.55 0.74 0.74 0 0 0 0.76-0.8v0.04zM8.44 22.83c0.07-0.5 0.09 -1 0.2-1.5a3.32 3.32 0 0 1 1.48-2.25 2.63 2.63 0 0 1 1.27-0.42 5.34 5.34 0 0 1 0.69-0.05 3.19 3.19 0 0 1 2.48 1.14c0.308 0.368 0.542 0.793 0.69 1.25a6.08 6.08 0 0 1 0.28 2 6 6 0 0 1-0.37 2 3.14 3.14 0 0 1-1.67 1.83 2.63 2.63 0 0 1-1.17 0.26 7.09 7.09 0 0 1-1.32-0.03 2.76 2.76 0 0 1-1.41-0.83 4 4 0 0 1-0.91-1.68 8.92 8.92 0 0 1-0.24-1.72zm4.24 0.08 a6.61 6.61 0 0 0 0-0.89 3.3 3.3 0 0 0-0.21-0.82 0.46 0.46 0 0 0-0.45-0.32 0.45 0.45 0 0 0-0.46 0.29 2.18 2.18 0 0 0-0.21 0.64 c-0.055 0.498 -0.075 1-0.06 1.5-0.007 0.411 0.057 0.82 0.19 1.21 0.1 0.23 0.24 0.42 0.5 0.43a0.51 0.51 0 0 0 0.5-0.33 2.11 2.11 0 0 0 0.21-0.88c0.01-0.27-0.01-0.55-0.01-0.83zM13.39 32.51h-0.42a0.57 0.57 0 0 1-0.46-0.89c0.45-0.85 0.93 -1.69 1.4-2.54l1.57-2.83 1.64-3c0.37-0.66 0.75 -1.31 1.11-2 0.27-0.48 0.52 -1 0.79-1.45a2 2 0 0 1 1.14-0.8 3.37 3.37 0 0 1 1.14-0.09 0.56 0.56 0 0 1 0.51 0.9 c-0.29 0.56 -0.61 1.12-0.92 1.67l-1 1.79-2 3.55c-0.49 0.89 -1 1.76-1.49 2.64-0.38 0.7 -0.75 1.4-1.14 2.08a1.94 1.94 0 0 1-1.16 0.9 c-0.24 0.07 -0.5 0.09 -0.75 0.14 l0.04-0.07zM34.46 17.84v2a0.49 0.49 0 0 1-0.43 0.54 0.53 0.53 0 0 1-0.61-0.34 0.44 0.44 0 0 1 0-0.2V17.1a0.68 0.68 0 0 0-0.74-0.73h-2.6a0.57 0.57 0 0 1-0.54-0.49 0.54 0.54 0 0 1 0.34-0.56c0.07-0.006 0.14 -0.006 0.21 0h3.85a0.49 0.49 0 0 1 0.55 0.53 c-0.04 0.66 -0.03 1.32-0.03 1.99z" fill="#FFF"/>
  <path d="M15.2 12c0.17 0.056 0.338 0.123 0.5 0.2 0.173 0.079 0.36 0.12 0.55 0.12 H18c0.05 0.39 0.1 0.78 0.14 1.16 0.04 0.38 0.06 0.57 0.1 0.86 0 0.12 0 0.17-0.16 0.16 h-2.84c-0.09 0-0.16 0-0.15-0.13 0-0.77 0.05 -1.53 0.07 -2.3l0.04-0.07zM24.45 16.38h-1.92a0.59 0.59 0 0 1-0.57-0.55 0.53 0.53 0 0 1 0.56-0.53h3.86a0.54 0.54 0 0 1 0.57 0.52 0.55 0.55 0 0 1-0.57 0.55 l-1.93 0.01 zM16.89 16.38H15a0.63 0.63 0 0 1-0.55-0.41 0.55 0.55 0 0 1 0.3-0.62 0.64 0.64 0 0 1 0.24 0h3.87a0.56 0.56 0 0 1 0.57 0.52 0.54 0.54 0 0 1-0.56 0.55 l-1.98-0.04zM22.42 34.77h1.93a0.52 0.52 0 0 1 0.57 0.51 0.54 0.54 0 0 1-0.57 0.56 H20.5a0.53 0.53 0 0 1-0.57-0.54 0.53 0.53 0 0 1 0.57-0.53h1.92zM33.39 25.45v-1.91a0.53 0.53 0 0 1 0.51-0.54 0.52 0.52 0 0 1 0.56 0.55 v3.89a0.54 0.54 0 0 1-0.915 0.388 0.51 0.51 0 0 1-0.145-0.388v-2l-0.01 0.01 zM34.46 33v1.93a0.53 0.53 0 0 1-0.8 0.48 0.49 0.49 0 0 1-0.26-0.47v-3.4-0.5a0.54 0.54 0 0 1 0.53-0.54 0.52 0.52 0 0 1 0.54 0.53 c0 0.64-0.01 1.3-0.01 1.97zM9.38 16.38H7.49A0.57 0.57 0 0 1 7 16a0.53 0.53 0 0 1 0.22-0.62 0.57 0.57 0 0 1 0.29-0.07h3.87a0.52 0.52 0 0 1 0.57 0.52 0.53 0.53 0 0 1-0.57 0.55 h-2zM14.87 35.84H13a0.56 0.56 0 0 1-0.54-0.4 0.54 0.54 0 0 1 0.31-0.63 0.64 0.64 0 0 1 0.24 0h3.87a0.53 0.53 0 0 1 0 1.06h-0.94l-1.07-0.03zM30 34.77h1.94a0.51 0.51 0 0 1 0.54 0.52 0.52 0.52 0 0 1-0.53 0.55 H28a0.55 0.55 0 0 1-0.56-0.38 0.54 0.54 0 0 1 0.31-0.65 0.75 0.75 0 0 1 0.26 0l1.99-0.04zM7.39 34.77h1.93a0.51 0.51 0 0 1 0.55 0.49 0.53 0.53 0 0 1-0.54 0.58 h-3.9a0.5 0.5 0 0 1-0.53-0.55 0.51 0.51 0 0 1 0.55-0.51l1.94-0.01zM1.07 28.32v1.95a0.53 0.53 0 0 1-0.51 0.54 0.55 0.55 0 0 1-0.56-0.55v-3.9a0.53 0.53 0 0 1 0.38-0.51 0.5 0.5 0 0 1 0.59 0.2 c0.058 0.093 0.09 0.2 0.09 0.31 v2l0.01-0.04zM1.07 20.8v2a0.51 0.51 0 0 1-0.37 0.51 0.5 0.5 0 0 1-0.57-0.18 0.58 0.58 0 0 1-0.13-0.37v-3.91a0.5 0.5 0 0 1 0.56-0.52 0.48 0.48 0 0 1 0.51 0.52 v1.95zM2.21 16.38H0.53a0.55 0.55 0 0 1-0.53-0.49 0.53 0.53 0 0 1 0.43-0.57h3.51a0.52 0.52 0 0 1 0.44 0.56 0.53 0.53 0 0 1-0.5 0.5 H2.21zM1.3 35.84H0.63a0.59 0.59 0 0 1-0.63-0.62v-1.39a0.53 0.53 0 0 1 0.54-0.53 0.49 0.49 0 0 1 0.52 0.53 0.81 0.81 0 0 0 0.36 0.8 0.72 0.72 0 0 0 0.42 0.13 0.55 0.55 0 0 1 0.53 0.73 c-0.09 0.33 -0.11 0.35 -0.46 0.35 H1.3zM21.44 32.54h-0.11l-0.52-0.23a3.68 3.68 0 0 1-1-0.79 2.34 2.34 0 0 1-0.33-0.49 2.43 2.43 0 0 1-0.16-0.37 3.18 3.18 0 0 1-0.1-0.33 3 3 0 0 1-0.07-0.9c0-0.14 0-0.29 0.05 -0.44 0.02 -0.132 0.05 -0.262 0.09 -0.39a2.43 2.43 0 0 1 0.13-0.38 2.67 2.67 0 0 1 0.14-0.36 4.25 4.25 0 0 1 0.21-0.43l0.3-0.56 0.29 -0.49c0.12-0.19 0.23 -0.38 0.34 -0.57 0.11 -0.19 0.22 -0.39 0.32 -0.59 0.1 -0.2 0.22 -0.45 0.33 -0.68 0.08 -0.166 0.15 -0.336 0.21 -0.51 0.06 -0.16 0.12 -0.33 0.17 -0.49 0.05 -0.16 0.11 -0.4 0.17 -0.6v-0.11c0-0.03 0 0 0 0l0.31 0.29 0.75 0.73 c0.2 0.2 0.4 0.41 0.59 0.62 0.19 0.21 0.37 0.4 0.55 0.61 a13.153 13.153 0 0 1 1 1.35c0.13 0.21 0.22 0.39 0.32 0.59 0.09 0.172 0.17 0.349 0.24 0.53 a5 5 0 0 1 0.26 0.9 c0 0.13 0 0.27 0.07 0.4 0.005 0.07 0.005 0.14 0 0.21v0.79c-0.01 0.186 -0.04 0.37 -0.09 0.55 a3.08 3.08 0 0 1-0.54 1.15A3.71 3.71 0 0 1 25 32a3 3 0 0 1-1.08 0.56 l-0.23 0.05 h-0.05l0.11-0.09a2.1 2.1 0 0 0 0.46-0.48 2.44 2.44 0 0 0 0.35-0.55c0.07-0.15 0.13 -0.31 0.19 -0.46l0.09-0.29a1.55 1.55 0 0 0 0-0.21 3.29 3.29 0 0 0 0.06-0.83 2.32 2.32 0 0 0-0.07-0.59 3.39 3.39 0 0 0-0.11-0.43c-0.05-0.16-0.12-0.32-0.18-0.48a5 5 0 0 0-0.3-0.56 4.21 4.21 0 0 0-0.47-0.64 8.63 8.63 0 0 0-0.5-0.54 3.71 3.71 0 0 0-0.29-0.27 0.15 0.15 0 0 0 0 0.06v1.06c0 0.15 0 0.25-0.05 0.37 l-0.09 0.43 c0 0.08-0.05 0.16 -0.07 0.24 -0.02 0.08 -0.06 0.21 -0.1 0.31 -0.04 0.1 -0.16 0.38 -0.25 0.57 -0.09 0.19 -0.13 0.25 -0.2 0.38 a2.35 2.35 0 0 0-0.78-1.53v0.12c0 0.03-0.1 0.32 -0.16 0.47 -0.06 0.15 -0.1 0.26 -0.16 0.39 s-0.15 0.32 -0.23 0.48 a4.62 4.62 0 0 0-0.19 0.47 1.85 1.85 0 0 0-0.11 0.45 2.59 2.59 0 0 0 0 0.48c0.002 0.112 0.019 0.223 0.05 0.33 0.104 0.333 0.278 0.64 0.51 0.9 l0.29 0.37 z" fill="#FFF"/>
</svg>
