<?xml version="1.0" ?>
<svg xmlns="http://www.w3.org/2000/svg" width="45" height="8" viewBox="0 0 45 8">
  <path d="M6.53 5.08V3.7c0-0.06 0-0.08 0.08 -0.08 0.513 0.03 1.027 0.03 1.54 0 0.21 0 0.42 0 0.63-0.08 0.21 -0.08 0.07 0 0.07 0.07 v3.61l0.29-0.42c0.51-0.77 1-1.53 1.54-2.29v-0.12l-0.79-1v-0.06c0.18-0.06 0.36 -0.11 0.53 -0.18a4.87 4.87 0 0 0 1.4-0.76h0.11l0.48 0.61 h0.08l1-1.51a0.14 0.14 0 0 1 0.12-0.06h6c0.07 0 0.08 0 0.08 0.08 v1.7c0 0.06 0 0.08-0.08 0.08 h-1.27c-0.1 0-0.09 0-0.09 0.09 v4.31c0 0.09 0 0.09-0.09 0.09 h-4.6a0.13 0.13 0 0 1-0.12-0.06l-1.11-1.67s0-0.06-0.08 0l-0.3 0.42 -0.88 1.28a0.13 0.13 0 0 1-0.11 0.06 H6.62c-0.11 0-0.09 0-0.09-0.1V6.58v0.07a1.76 1.76 0 0 1-0.81 0.83 3.42 3.42 0 0 1-1.16 0.37 8.86 8.86 0 0 1-2.3 0.05 A3.76 3.76 0 0 1 1 7.62a1.52 1.52 0 0 1-1-1.26v-0.61s0-0.07 0.07 -0.07H2.3c0.05 0 0.07 0 0.07 0.07 a1.34 1.34 0 0 0 0 0.35 0.73 0.73 0 0 0 0.71 0.63 c0.22 0.022 0.44-0.002 0.65 -0.07a0.6 0.6 0 0 0 0.45-0.43 0.48 0.48 0 0 0-0.18-0.58 6.16 6.16 0 0 0-0.88-0.31c-0.58-0.15-1.12-0.29-1.66-0.49a4 4 0 0 1-0.67-0.3 1.35 1.35 0 0 1-0.67-0.91 2.36 2.36 0 0 1 0-1.12 1.68 1.68 0 0 1 1-1 3.61 3.61 0 0 1 1.21-0.32A8.06 8.06 0 0 1 4 1.11c0.435 0.012 0.865 0.1 1.27 0.26 a1.63 1.63 0 0 1 1 1.28c0.035 0.178 0.055 0.359 0.06 0.54 0 0.05 0 0.07-0.06 0.07 H4.08S4 3.24 4 3.2a1.2 1.2 0 0 0-0.11-0.47 0.66 0.66 0 0 0-0.64-0.43 1 1 0 0 0-0.54 0.12 0.49 0.49 0 0 0-0.2 0.65 0.33 0.33 0 0 0 0.18 0.17 c0.17 0.085 0.348 0.155 0.53 0.21 0.51 0.16 1 0.28 1.54 0.45 0.344 0.095 0.68 0.222 1 0.38a1.56 1.56 0 0 1 0.77 0.8 zM39.91 3.65V1.48c0-0.09 0-0.09 0.09 -0.09h1.71c0.09 0 0.09 0 0.09 0.09 V5.8c0 0.1 0 0.1 0.1 0.11h0.21a0.32 0.32 0 0 0 0.26-0.29 0.62 0.62 0 0 0 0-0.13v-4c0-0.11 0-0.11 0.11 -0.11h1.63c0.07 0 0.09 0 0.09 0.08 v4.05a2.52 2.52 0 0 1-0.68 1.73 1.69 1.69 0 0 1-1 0.51H39.55a2 2 0 0 1-0.76-0.13 1.8 1.8 0 0 1-0.95-0.89 3 3 0 0 1-0.34-1.42V1.49c0-0.1 0-0.1 0.1 -0.1h1.63c0.1 0 0.1 0 0.1 0.1 v4a0.57 0.57 0 0 0 0 0.13 0.33 0.33 0 0 0 0.35 0.31 h0.18s0.05 0 0 0V3.65h0.05zM28.07 5.52v2.16c0 0.1 0 0.1-0.1 0.1 h-1.71c-0.09 0-0.09 0-0.09-0.09V3.31a0.05 0.05 0 0 0-0.06-0.06h-0.37c-0.06 0-0.09 0-0.09-0.08V1.46c0-0.06 0-0.08 0.09 -0.08h4.09a1.74 1.74 0 0 1 1.38 0.62 c0.234 0.295 0.405 0.636 0.5 1 0.064 0.255 0.098 0.517 0.1 0.78 v1.68a2.67 2.67 0 0 1-0.66 1.72 1.71 1.71 0 0 1-1.15 0.59 h-1c-0.06 0-0.07 0-0.07-0.08V6c0-0.06 0-0.08 0.07 -0.07h0.65c0.23 0 0.37-0.13 0.38 -0.39V3.65v-0.09a0.33 0.33 0 0 0-0.36-0.31h-1.52c-0.07 0-0.09 0-0.09 0.09 0.01 0.73 0.01 1.46 0.01 2.18zM37.17 3.5v2a2.66 2.66 0 0 1-0.65 1.72 1.62 1.62 0 0 1-1.25 0.57 h-2.68c-0.05 0-0.06 0-0.06-0.07V6c0-0.06 0-0.07 0.07 -0.07H35a0.34 0.34 0 0 0 0.39-0.35V3.39c0-0.11 0-0.11-0.12-0.11h-3.22c-0.11 0-0.11 0-0.11-0.11V0.56c0-0.1 0-0.1 0.1 -0.1h1.71c0.07 0 0.09 0 0.09 0.09 v0.76c0 0.06 0 0.08 0.08 0.08h3.15c0.1 0 0.1 0 0.1 0.1 V3.5zM23.74 5.64v-2a0.34 0.34 0 0 0-0.39-0.34H20c-0.11 0-0.11 0-0.11-0.1V1.48c0-0.09 0-0.09 0.09 -0.09h3.65a1.74 1.74 0 0 1 1.64 1 3 3 0 0 1 0.34 1.41v3.87c0 0.11 0 0.11-0.1 0.11 h-1.68c-0.09 0-0.09 0-0.09-0.09V5.64z" fill="#FFF"/>
  <path d="M6.53 2.32v-0.85c0-0.06 0-0.07 0.07 -0.07 0.333 0.02 0.667 0.02 1 0a5.08 5.08 0 0 0 2-0.43 2.28 2.28 0 0 0 1.05-0.9H13c0.08 0 0.08 0 0.06 0.07 a4.19 4.19 0 0 1-0.78 1.32 4.89 4.89 0 0 1-2.09 1.37 7.88 7.88 0 0 1-1.91 0.43 c-0.523 0.03 -1.047 0.03 -1.57 0-0.18 0-0.18 0-0.18-0.19v-0.75zM19.85 5.81V3.94c0-0.09 0-0.09 0.09 -0.09h1.7c0.09 0 0.09 0 0.09 0.09 v3.75c0 0.07 0 0.09-0.08 0.09 h-1.72c-0.07 0-0.08 0-0.08-0.09V5.81zM31.71 0.7 a0.71 0.71 0 0 1-0.71 0.72 0.73 0.73 0 0 1-0.71-0.71A0.72 0.72 0 0 1 31 0a0.7 0.7 0 0 1 0.71 0.7 z" fill="#FFF"/>
  <path d="M16 7.38l-0.37-0.54L14 4.52a0.08 0.08 0 0 1 0-0.1l0.8-1.12a0.08 0.08 0 0 1 0.08 0h1s0.06 0 0.06 0.05 v4.03H16z" fill="#00B050"/>
</svg>
