<?xml version="1.0" ?>
<svg xmlns="http://www.w3.org/2000/svg" width="44" height="36" viewBox="0 0 44 36">
  <path d="M9.89 9.06L9.83 9V7c0-0.22 0-0.24-0.24-0.24H5.46c-0.26 0-0.27 0-0.27 0.28 v4.86a1.42 1.42 0 0 1-0.53 1.15c-0.39 0.33 -0.8 0.65 -1.21 1-0.91 0.7 -1.83 1.38-2.73 2.09a1.63 1.63 0 0 0-0.57 2 2.06 2.06 0 0 0 2.46 1.05 4.35 4.35 0 0 0 1.22-0.7c1.7-1.31 3.41-2.6 5.12-3.91l4.16-3.18 4-3.12a0.89 0.89 0 0 1 1.31 0l1 0.8 3.61 2.79 2.76 2.11c1 0.74 1.92 1.49 2.88 2.22 0.96 0.73 2.08 1.6 3.13 2.4 0.55 0.477 1.28 0.69 2 0.58a1.85 1.85 0 0 0 1.33-0.86c0.27-0.416 0.33 -0.934 0.16 -1.4a1.85 1.85 0 0 0-0.63-0.81l-1.27-1-2.9-2.24-3.42-2.62-3.63-2.89a372.447 372.447 0 0 0-3.21-2.46c-0.43-0.33-0.86-0.67-1.32-1a2 2 0 0 0-2-0.15 5.7 5.7 0 0 0-1 0.71 93 93 0 0 0-2.55 2l-2.61 2c-0.3 0.21 -0.59 0.4 -0.86 0.6 zM2.81 27.89v6.45a1 1 0 0 0 0.49 0.9 1.4 1.4 0 0 0 1 0.22 1.21 1.21 0 0 0 1-1.11v-7.66-4a0.35 0.35 0 0 1 0.15-0.31l0.83-0.59L10 19.12l4-2.92 3.51-2.56a0.22 0.22 0 0 1 0.3 0c0.68 0.51 1.37 1 2.06 1.5 0.87 0.64 1.76 1.27 2.63 1.9l3 2.17 4.5 3.22a0.28 0.28 0 0 1 0.13 0.26 v11.67a1 1 0 0 0 0.5 0.89 c0.296 0.19 0.651 0.269 1 0.22a1.19 1.19 0 0 0 1.08-1.17V21.74c0-0.51 0-0.51-0.42-0.81l-3.06-2.2-2.66-1.94-2.67-1.91c-1-0.7-1.94-1.42-2.92-2.12-0.98-0.7-2.08-1.5-3.11-2.25a0.23 0.23 0 0 0-0.34 0l-1 0.72-4 2.87-5 3.66L3 21.11a0.4 0.4 0 0 0-0.18 0.36 c0 2.14-0.003 4.28-0.01 6.42z" fill="#FFF"/>
  <path d="M9.89 9.06c0.27-0.2 0.56 -0.39 0.83 -0.6l2.61-2c0.85-0.65 1.69-1.31 2.55-2a5.7 5.7 0 0 1 1-0.71 2 2 0 0 1 2 0.15c0.46 0.29 0.89 0.63 1.32 1 1.073 0.807 2.143 1.627 3.21 2.46l3.73 2.87 3.42 2.62 2.9 2.24 1.27 1c0.282 0.205 0.5 0.486 0.63 0.81 0.17 0.466 0.11 0.984 -0.16 1.4a1.85 1.85 0 0 1-1.33 0.86 2.48 2.48 0 0 1-2-0.58c-1.05-0.8-2.09-1.59-3.13-2.4-1.04-0.81-1.92-1.48-2.88-2.22l-2.76-2.11L19.48 9l-1-0.8a0.89 0.89 0 0 0-1.31 0l-4 3.12-4.24 3.24c-1.71 1.31-3.42 2.6-5.12 3.91a4.35 4.35 0 0 1-1.22 0.7 2.06 2.06 0 0 1-2.46-1.05 1.63 1.63 0 0 1 0.57-2c0.9-0.71 1.82-1.39 2.73-2.09 0.41 -0.32 0.82 -0.64 1.21-1a1.42 1.42 0 0 0 0.53-1.15V7.02c0-0.27 0-0.28 0.27 -0.28h4.13c0.22 0 0.24 0 0.24 0.24 V9l0.08 0.06 zM13.25 20h9.85a1.4 1.4 0 0 1 1.47 1c0.56 1.35 1.11 2.72 1.68 4.07 0.25 0.6 0.53 1.19 0.79 1.79a3.7 3.7 0 0 1 0.31 1.39 8.44 8.44 0 0 1-0.08 1.59 5.41 5.41 0 0 1-1 2.49 8.27 8.27 0 0 1-0.71 0.74 1 1 0 0 0-0.39 0.9 c0.02 0.178 0.002 0.359 -0.05 0.53 a0.78 0.78 0 0 1-0.78 0.57 5.21 5.21 0 0 1-0.79 0 0.73 0.73 0 0 1-0.69-0.75c0-0.28 0-0.55-0.06-0.83a0.24 0.24 0 0 0-0.27-0.24h-9.6a0.22 0.22 0 0 0-0.25 0.21 c0 0.23 0 0.46-0.07 0.69 a1.9 1.9 0 0 1 0 0.41 0.71 0.71 0 0 1-0.66 0.51 2.32 2.32 0 0 1-1.12-0.07 0.74 0.74 0 0 1-0.52-0.71 4.17 4.17 0 0 1 0-0.5 0.89 0.89 0 0 0-0.39-0.72 4.56 4.56 0 0 1-1.41-2 6.64 6.64 0 0 1-0.41-3 6 6 0 0 1 0.61-1.93c0.55-1.23 1.07-2.48 1.6-3.72 0.22 -0.52 0.4 -1.05 0.63 -1.57a1.41 1.41 0 0 1 1.37-0.85h0.94zm4.47 4.71h6.34c0.25 0 0.29 0 0.21-0.27-0.23-0.67-0.44-1.34-0.71-2a1.61 1.61 0 0 0-1.27-1 4 4 0 0 0-0.69 0h-8.09a1.68 1.68 0 0 0-1.54 1 12.23 12.23 0 0 0-0.75 2.13c-0.08 0.23 -0.07 0.23 0.17 0.23 l6.33-0.09zm0 4h-1.68a2 2 0 0 0-0.75 0.17 1.7 1.7 0 0 0-1 1.72c0 0.16 0.05 0.22 0.21 0.21h6.54a0.2 0.2 0 0 0 0.15-0.12 1.81 1.81 0 0 0-0.38-1.29 1.85 1.85 0 0 0-1.47-0.69c-0.51 0.06 -1.05 0.08 -1.6 0.08 l-0.02-0.08zm6.19-0.57a1.53 1.53 0 0 0-1.58 1.56 1.51 1.51 0 0 0 1.56 1.55 1.54 1.54 0 0 0 1.55-1.54 1.55 1.55 0 0 0-1.51-1.49l-0.02-0.08zm-12.35 0A1.59 1.59 0 0 0 10 29.76a1.54 1.54 0 0 0 1.54 1.57 1.56 1.56 0 1 0 0-3.11l0.02-0.08z" fill="#FFF"/>
  <path d="M2.81 27.89v-6.42a0.4 0.4 0 0 1 0.19-0.36l4.61-3.35 5-3.66 4-2.87 1-0.72a0.23 0.23 0 0 1 0.34 0C18.9 11.26 20 12 21 12.76s1.95 1.42 2.92 2.12l2.65 1.91 2.66 1.94 3.06 2.2c0.41 0.3 0.42 0.3 0.42 0.81 V34.3a1.19 1.19 0 0 1-1.08 1.17 1.47 1.47 0 0 1-1-0.22 1 1 0 0 1-0.5-0.89v-4.45-5.83-1.39a0.28 0.28 0 0 0-0.13-0.26l-4.46-3.22-3-2.17c-0.87-0.63-1.76-1.26-2.63-1.9-0.69-0.5-1.38-1-2.06-1.5a0.22 0.22 0 0 0-0.3 0l-3.5 2.56-4 2.92-3.69 2.7-0.83 0.59 a0.35 0.35 0 0 0-0.15 0.31 v11.66a1.21 1.21 0 0 1-1 1.11 1.4 1.4 0 0 1-1-0.22 1 1 0 0 1-0.49-0.9l-0.08-6.48zM34.63 0a6.21 6.21 0 0 1 5.25 3.26 5.86 5.86 0 0 1-0.2 6.37c-0.34 0.54 -0.37 0.83 0.12 1.28 1.24 1.17 2.4 2.41 3.63 3.59 0.44 0.43 0.37 0.7 0 1.1-0.37 0.4 -0.67 0.45 -1.09 0-1.22-1.26-2.48-2.47-3.7-3.73a0.79 0.79 0 0 0-1.14-0.19 6.16 6.16 0 0 1-7.91-1.55A6.2 6.2 0 0 1 30 1.87 6.41 6.41 0 0 1 34.63 0zm-0.13 11.62a5.34 5.34 0 0 0 5.34-5.37A5.44 5.44 0 0 0 34.45 0.89 a5.35 5.35 0 0 0-5.34 5.38 5.23 5.23 0 0 0 5.39 5.35z" fill="#FFF"/>
</svg>
