<?xml version="1.0" ?>
<svg xmlns="http://www.w3.org/2000/svg" width="35" height="35" viewBox="0 0 35 35">
  <path d="M30.3 10.48H19.52c-0.31 0-0.31 0-0.31 0.3 v8.11c0 0.33 0 0.33 0.33 0.33h8c0.36 0 0.36 0 0.37 0.37 v2.8c0 0.3 0 0.31-0.31 0.31 h-8c-0.38 0-0.38 0-0.38 0.37 v11.5c0 0.37 0 0.37-0.36 0.37 H16c-0.33 0-0.33 0-0.33-0.32V23.05c0-0.35 0-0.35-0.36-0.35h-8c-0.36 0-0.36 0-0.36-0.36v-2.77c0-0.35 0-0.35 0.34 -0.35h8.06c0.33 0 0.33 0 0.33-0.33v-8.1c0-0.31 0-0.31-0.3-0.31H4.56c0.13-0.29 0.23 -0.54 0.35 -0.78a14 14 0 0 1 7.58-7 11.93 11.93 0 0 1 3-0.77c0.16 0 0.21-0.09 0.21 -0.25V0.29c0-0.19 0.05 -0.27 0.25 -0.27h3c0.19 0 0.26 0.07 0.26 0.26 v1.4c0 0.16 0.06 0.23 0.23 0.25a13.39 13.39 0 0 1 5.86 2.3 14 14 0 0 1 5 6.08 0.36 0.36 0 0 1 0 0.09v0.08z" fill="#FFF"/>
  <path d="M0 26.18V17.8c0-0.33 0-0.34 0.33 -0.34h2.88c0.23 0 0.29 0.07 0.29 0.29 v8.1c0 0.35 0 0.35 0.35 0.35h8.07c0.32 0 0.32 0 0.32 0.32 v8c0 0.35 0 0.35-0.36 0.35 H9.09c-0.37 0-0.37 0-0.37-0.38v-4.54c0-0.32 0-0.32-0.33-0.32H3.74c-0.21 0-0.26 0.07 -0.26 0.27 v4.68c0 0.23-0.07 0.3 -0.31 0.3 H0.31c-0.29 0-0.31 0-0.31-0.29v-8.41zM34.92 26.19v8.38c0 0.35 0 0.35-0.35 0.35 h-2.86c-0.23 0-0.29-0.08-0.29-0.3v-4.63c0-0.32 0-0.32-0.32-0.32h-4.58c-0.31 0-0.32 0-0.32 0.33 v4.61c0 0.29 0 0.3-0.3 0.3 H23c-0.28 0-0.3 0-0.3-0.31v-8.12c0-0.25 0.08 -0.3 0.31 -0.3h8.1c0.33 0 0.33 0 0.33-0.34v-8.12c0-0.24 0.07 -0.29 0.3 -0.29h2.91c0.22 0 0.3 0.06 0.29 0.29 l-0.02 8.47z" fill="#FFF"/>
</svg>
