<?xml version="1.0" ?>
<svg xmlns="http://www.w3.org/2000/svg" width="36" height="36" viewBox="0 0 36 36">
  <path d="M15.91 15.14H2.34c-0.26 0-0.27 0-0.26-0.26a11.45 11.45 0 0 1 2-6.15 13.25 13.25 0 0 1 5.41-4.65A14 14 0 0 1 12.87 3c0.12 0 0.17-0.09 0.2 -0.22A3.42 3.42 0 0 1 14.8 0.28 a2.47 2.47 0 0 1 3 0.61 3.65 3.65 0 0 1 0.91 1.83c0 0.14 0.08 0.22 0.23 0.25a13.87 13.87 0 0 1 3 0.94 13.63 13.63 0 0 1 5 3.66 12.08 12.08 0 0 1 2.27 4c0.35 1.06 0.539 2.165 0.56 3.28 0 0.24 0 0.24-0.25 0.24 l-13.61 0.05 zM0 19.14v-0.58-1.75c0-0.15 0.05 -0.19 0.2 -0.19h31.65c0.17 0 0.23 0.05 0.23 0.22 v2.11c0 0.16 0 0.21-0.21 0.2 h-2.24c-0.16 0-0.21 0-0.21 0.2 v1c0 0.16-0.05 0.22 -0.21 0.21 h-1.7c-0.22 0-0.22 0-0.22 0.22 v0.48c0 0.16-0.05 0.17 -0.17 0.17 H5c-0.23 0-0.23 0-0.23-0.22v-0.45c0-0.15-0.07-0.19-0.21-0.19H2.9c-0.23 0-0.24 0-0.24-0.23v-1c0-0.15 0-0.2-0.19-0.2H0zM19.81 23.91h3a11.22 11.22 0 0 1 2.08 0.3 c0.92 0.22 1.82 0.51 2.72 0.8 0.46 0.15 0.91 0.36 1.36 0.53 0.12 0.05 0.15 0.11 0.13 0.22 l-0.24 1.59c-0.11 0.66 -0.21 1.32-0.31 2-0.1 0.68 -0.21 1.33-0.32 2 0 0.33-0.1 0.66 -0.16 1 0 0.08-0.06 0.22 -0.1 0.22 -0.04 0-0.31 0.08 -0.43-0.08s-0.5-0.57-0.73-0.87a0.53 0.53 0 0 0-0.46-0.21H15.62a1.4 1.4 0 0 1-0.74-0.2l-8.44-4.96a1.18 1.18 0 0 1-0.56-0.68 0.88 0.88 0 0 1 0.63-1 1.86 1.86 0 0 1 1.35 0.16 c1.68 0.71 3.39 1.36 5.11 2a11 11 0 0 0 3.81 0.61 c1.16 0 2.32 0 3.49-0.05a5 5 0 0 0 0.86-0.14 0.8 0.8 0 0 0 0.23-0.16c-0.06-0.06-0.11-0.16-0.18-0.19a9 9 0 0 0-1.18-0.53c-0.83-0.25-1.67-0.46-2.51-0.68-0.42-0.11-0.84-0.19-1.26-0.29h-0.12c-0.32-0.15-0.5-0.38-0.48-0.63a0.9 0.9 0 0 1 0.65-0.73 1.74 1.74 0 0 1 0.39-0.05h3.14v0.02zM35.37 25.67v9.71l-0.76-0.16-2.53-0.54-2.42-0.52L29 34c-0.13 0-0.16-0.08-0.14-0.19 0.06 -0.35 0.11 -0.71 0.17 -1.07 0.11 -0.67 0.21 -1.34 0.32 -2 0.11-0.66 0.21 -1.32 0.31 -2l0.3-1.92c0.1-0.6 0.19 -1.19 0.28 -1.79 0-0.1 0.07 -0.12 0.15 -0.11L31 25l4 0.59 0.37 0.08z" fill="#FFF"/>
</svg>
