<?xml version="1.0" ?>
<svg xmlns="http://www.w3.org/2000/svg" width="44" height="13" viewBox="0 0 44 13">
  <path d="M37.84 3.33H36a2.08 2.08 0 0 0-2.28 2.08c-0.07 1.14 0 2.27 0 3.41a1.83 1.83 0 0 0 1.55 1.75 19 19 0 0 0 2.39 0.09 1.92 1.92 0 0 0 2.13-2V2.24h3.4c0.16 0 0.44-0.19 0.45 -0.31V0.08h-3.39a1.88 1.88 0 0 0-2 1.63 11.76 11.76 0 0 0-0.13 2.06v4.74h-2.75v-3h2.47V3.33zM9 8.48V5.43h2.53V3.79c0-0.51-0.16-0.45-0.48-0.45H9.44a1.88 1.88 0 0 0-2.1 1.92c-0.06 1.18 0 2.36 0 3.54a2 2 0 0 0 1.91 1.78 15.08 15.08 0 0 1 2.33 0 1.49 1.49 0 0 0 1.5-1c0.19-0.47 0.292 -0.972 0.3 -1.48V0h-1.65v8.48H9zm10.66 2V5.06a1.78 1.78 0 0 0-1.94-1.71h-1.94a1.79 1.79 0 0 0-2 1.62 22.49 22.49 0 0 0-0.08 3.85 1.77 1.77 0 0 0 1.42 1.73c0.88 0.05 1.77 0 2.68 0V8.49h-2.48v-3H18v3.73c0 1.47 0 1.47 1.67 1.26h-0.01zm0.42-7.09v7.16a9 9 0 0 1 0.91 0c0.52 0 0.72-0.13 0.69 -0.67-0.05-0.83 0-1.65 0-2.48V5.53h2.41v5.05h1.18c0.37 0 0.52-0.14 0.52 -0.5V5.4a1.9 1.9 0 0 0-1.71-2c-1.32-0.07-2.64-0.01-3.99-0.01h-0.01zm-15 0a0.71 0.71 0 0 0-0.19-0.06c-0.89 0-1.79 0.05 -2.67 0A2.1 2.1 0 0 0 0 5.7a9 9 0 0 1 0 2.75 1.91 1.91 0 0 0 1.93 2.12h1.55c1.86 0 1.86 0 1.6-1.88l-0.06-0.12H2.07c-0.14 0-0.27-0.19-0.41-0.29 0.13 -0.07 0.27 -0.2 0.4 -0.21h1.53V6H2.43c-0.36 0-0.84 0.11 -0.58-0.63h3.24l-0.01-1.98zm28.35 7.15v-0.59c0.15-1.49-0.32-2.95-0.06-4.46A1.85 1.85 0 0 0 32 3.37c-1.19-0.09-2.39 0-3.6 0v2.11h1.8c1.39 0 1.39 0 1.68 0.38 H30.3c-0.16 0-0.43 0.2 -0.44 0.32 v1.85h2v2.48l1.57 0.03 zM5.51 0.1 v10.4h1.55V0.1H5.51zm38.26 3.11a33.2 33.2 0 0 1-2.85 1.85 2.44 2.44 0 0 0-0.68 3.21c0.87 1.24 2.27 1.71 3.53 2.66v-0.89a2 2 0 0 0-1-2.29 7.47 7.47 0 0 1-1-0.74 8.57 8.57 0 0 0 1-0.72c0.35-0.31 0.82 -0.64 0.93 -1a8.34 8.34 0 0 0 0.07-2.08zm-17.43 0.17 v9.55H28V3.38h-1.66z" fill="#000"/>
  <path d="M37.84 3.33v2.12h-2.47v3h2.72V3.71a11.76 11.76 0 0 1 0.13-2.06 1.88 1.88 0 0 1 2-1.63h3.38v1.85c0 0.12-0.29 0.3 -0.45 0.31 h-3.4v6.46a1.92 1.92 0 0 1-2.13 2 19 19 0 0 1-2.39-0.09 1.83 1.83 0 0 1-1.55-1.75c0-1.14-0.05-2.27 0-3.41A2.08 2.08 0 0 1 36 3.33h1.84zM9 8.48h2.72V0h1.66V8.06a4.11 4.11 0 0 1-0.3 1.48 1.49 1.49 0 0 1-1.5 1 15.08 15.08 0 0 0-2.33 0A2 2 0 0 1 7.34 8.8V5.26a1.88 1.88 0 0 1 2.1-1.92h1.61c0.32 0 0.5 0.09 0.48 0.45 -0.02 0.36 0 1 0 1.64H9v3.05zM19.67 10.48C18 10.69 18 10.69 18 9.22V5.49h-2.68v3h2.46v2.06H15.1a1.77 1.77 0 0 1-1.42-1.73A22.49 22.49 0 0 1 13.76 5a1.79 1.79 0 0 1 2-1.62h1.94a1.78 1.78 0 0 1 1.94 1.71c0.08 1.77 0.03 3.56 0.03 5.39zM20.09 3.39c1.35 0 2.67-0.06 4 0a1.9 1.9 0 0 1 1.71 2c0.05 1.56 0 3.12 0 4.68 0 0.36-0.14 0.52 -0.52 0.5 -0.38-0.02-0.75 0-1.18 0v-5h-2.42v4.32c0 0.54-0.17 0.72 -0.69 0.67 a9 9 0 0 0-0.91 0l0.01-7.17zM5.09 3.38v2H1.85c-0.26 0.74 0.22 0.62 0.58 0.63 h1.16V8H2.06c-0.13 0-0.27 0.14 -0.4 0.21 0.14 0.1 0.27 0.29 0.41 0.29 h2.95c0 0.08 0.06 0.1 0.06 0.12 0.26 1.88 0.26 1.88-1.6 1.88H1.94A1.91 1.91 0 0 1 0 8.45 9 9 0 0 0 0 5.7a2.1 2.1 0 0 1 2.23-2.41c0.88 0.08 1.78 0 2.67 0a0.71 0.71 0 0 1 0.19 0.09 zM33.44 10.53h-1.66V8.05h-2V6.2c0-0.12 0.28 -0.31 0.44 -0.32h1.58c-0.29-0.38-0.29-0.38-1.68-0.38h-1.8V3.35c1.21 0 2.41-0.07 3.6 0a1.85 1.85 0 0 1 1.46 2.11c-0.26 1.51 0.21 3 0.06 4.46 0.02 0.19 0.01 0.37 0 0.61zM5.51 0.1 h1.55v10.4H5.51z" fill="#FFF"/>
  <path d="M43.77 3.21a8.34 8.34 0 0 1 0 2c-0.11 0.41 -0.58 0.74 -0.93 1a8.57 8.57 0 0 1-1 0.72 7.47 7.47 0 0 0 1 0.74 2 2 0 0 1 1 2.29v0.89c-1.26-0.95-2.66-1.42-3.53-2.66a2.44 2.44 0 0 1 0.68-3.21 33.2 33.2 0 0 0 2.78-1.77zM26.34 3.38H28v9.55h-1.66z" fill="#FFF"/>
</svg>
