<?xml version="1.0" ?>
<svg xmlns="http://www.w3.org/2000/svg" width="28" height="31" viewBox="0 0 28 31">
  <path d="M13.87 0h13.61c0.15 0 0.23 0 0.23 0.2 v15.68a10 10 0 0 1-0.21 1.76 13 13 0 0 1-2.53 5.46A19.8 19.8 0 0 1 21 27a26.81 26.81 0 0 1-5 3c-0.68 0.32 -1.39 0.57 -2.09 0.86 -0.2 0.09 -0.35-0.05-0.5-0.11-0.9-0.38-1.8-0.76-2.67-1.18a24.86 24.86 0 0 1-4.72-3 19.35 19.35 0 0 1-3.12-3.28 13.33 13.33 0 0 1-2.06-3.6 17 17 0 0 1-0.58-1.84A10.59 10.59 0 0 1 0 15.36V0.24C0 0 0 0 0.26 0h13.61zm0 15.41V27.7c0.063 0.006 0.127 0.006 0.19 0 0.3-0.12 0.61 -0.24 0.91 -0.38a21.86 21.86 0 0 0 4.39-2.56 14 14 0 0 0 4.4-5.28 9 9 0 0 0 0.72-2.32c0-0.2 0.08 -0.4 0.09 -0.61 0-0.36 0.05 -0.72 0.08 -1.1h-10.8V3.29a1.7 1.7 0 0 0 0-0.17H3.35c-0.26 0-0.26 0-0.26 0.26 v12.06h10.77l0.01-0.03z" fill="#FFF"/>
</svg>
