<?xml version="1.0" ?>
<svg xmlns="http://www.w3.org/2000/svg" width="20" height="36" viewBox="0 0 20 36">
  <path d="M1.45 35.26c0.12-0.25 0.22 -0.48 0.32 -0.7 0.38 -0.8 0.76 -1.61 1.13-2.41 0.37 -0.8 0.63 -1.38 0.93 -2.08 0.3 -0.7 0.53 -1.3 0.78 -1.95 0.17 -0.43 0.33 -0.87 0.46 -1.31a5.06 5.06 0 0 0 0.28-1.38c0-0.21 0-0.42-0.06-0.63a3.33 3.33 0 0 0-0.44-1.17 5 5 0 0 0-1.1-1.28c-0.29-0.24-0.62-0.44-0.9-0.69a4.17 4.17 0 0 1-1-1.52 23.92 23.92 0 0 0-1.51-3 0.47 0.47 0 0 1-0.1-0.14c0-0.46-0.1-0.92-0.14-1.37v-0.65-2.14a1.11 1.11 0 0 1 0.07-0.37c0.1-0.26 0.27 -0.33 0.5 -0.19 0.195 0.115 0.374 0.256 0.53 0.42a0.94 0.94 0 0 1 0.17 0.41 c0.13 0.38 0.25 0.77 0.37 1.15l0.3 0.94 a8.13 8.13 0 0 0 0.69 1.53c0.1 0.17 0.21 0.32 0.31 0.49 0.1 0.17 0.08 0.1 0.18 0.05 0.199-0.06 0.411 -0.06 0.61 0a1.7 1.7 0 0 1 1.2 0.83 8 8 0 0 1 0.87 1.43 0.33 0.33 0 0 0 0.19 0.13 c0.848 0.319 1.662 0.72 2.43 1.2 0.313 0.206 0.546 0.513 0.66 0.87a3.7 3.7 0 0 1 0.18 1.55c0 0.41-0.1 0.82 -0.17 1.23-0.07 0.41 -0.16 0.75 -0.25 1.12-0.09 0.37 -0.21 0.69 -0.31 1-0.1 0.31 -0.28 0.86 -0.4 1.29-0.12 0.43 -0.19 0.73 -0.27 1.1-0.08 0.37 -0.11 0.58 -0.16 0.87 l-0.18 1c0 0.25-0.07 0.5 -0.1 0.75 s-0.09 0.68 -0.13 1l-0.06 0.45 c0 0.37-0.07 0.75 -0.1 1.12-0.03 0.37 -0.07 0.66 -0.1 1 0 0-0.06 0.06 -0.09 0.08 -0.03 0.02 -0.05 0-0.08 0H1.45v-0.03zM8.13 15.29a0.67 0.67 0 0 1 0.44-0.73l0.5-0.16 0.1 -0.05a1 1 0 0 1-0.52-0.85l-0.22 0.33 -0.54 0.82 -0.23 0.35 a0.62 0.62 0 0 1-0.42 0.27 3.23 3.23 0 0 1-0.53 0 0.82 0.82 0 0 1-0.34-0.12c-0.15-0.1-0.16-0.23-0.07-0.44s0-0.17-0.08-0.25l-0.11-0.07a0.17 0.17 0 0 1-0.11-0.16c0-0.15 0.12 -0.31 0.32 -0.32h0.49c0.07 0 0.1 0 0.1-0.1 0-0.29 0-0.59 0.05 -0.88V11.3a7.58 7.58 0 0 0-0.08-1.17 3.47 3.47 0 0 0-0.54-1.42 9.09 9.09 0 0 1-0.49-0.86 2.56 2.56 0 0 1-0.15-0.56 3.5 3.5 0 0 1-0.07-0.91c0-0.2 0.07 -0.4 0.1 -0.59l0.09-0.43v-0.45a0.75 0.75 0 0 0-0.25-0.63l-0.48-0.58a0.86 0.86 0 0 1-0.22-0.29A3.25 3.25 0 0 1 4.79 3 0.27 0.27 0 0 1 5 2.61a2 2 0 0 0 0.21-0.1 0.9 0.9 0 0 0 0.31-0.36L5.61 2A0.65 0.65 0 0 1 6 1.75l0.6-0.15a0.22 0.22 0 0 0 0.17-0.24V0.61a0.69 0.69 0 0 1 0-0.47c0.09-0.15 0.15 -0.17 0.3 -0.1a1 1 0 0 1 0.53 0.5 0.8 0.8 0 0 1 0.09 0.3 1 1 0 0 0 0.54 0.8 c0.24 0.14 0.46 0.3 0.69 0.45 a0.75 0.75 0 0 1 0.3 0.55 c0.04 0.293 0.07 0.583 0.09 0.87 0.028 0.465 0.204 0.91 0.5 1.27a2.3 2.3 0 0 0 1 0.72L12 6c0.273 0.136 0.505 0.343 0.67 0.6 0.518 0.757 0.963 1.56 1.33 2.4 0.078 0.207 0.135 0.422 0.17 0.64a9.87 9.87 0 0 1 0.1 2.24c0 0.36 0 0.73-0.07 1.09-0.07 0.36 -0.07 0.65 -0.12 1a2.2 2.2 0 0 1-0.06 0.37 0.63 0.63 0 0 0 0.08 0.38 c0.23 0.522 0.33 1.091 0.29 1.66a2.15 2.15 0 0 1-1 1.7 4 4 0 0 1-1.1 0.47 5.25 5.25 0 0 1-1.76 0.17 3.88 3.88 0 0 1-1-0.18A3.11 3.11 0 0 1 8.46 18a1.27 1.27 0 0 1-0.25-0.27 0.3 0.3 0 0 1 0.1-0.46 0.31 0.31 0 0 1 0.21 0l0.58 0.13 c0.3 0.09 0.59 0.21 0.89 0.3 a3.71 3.71 0 0 0 1.19 0.19 2.67 2.67 0 0 0 1.18-0.29 2.39 2.39 0 0 0 0.82-0.59 1.6 1.6 0 0 0 0.38-0.82 1.77 1.77 0 0 0-0.08-0.79c0-0.08-0.07-0.07-0.12-0.07H8.13v-0.04zM16.68 17.3a7.44 7.44 0 0 0 1-1.85c0.18-0.49 0.32 -1 0.48-1.48 0.16 -0.48 0.24 -0.8 0.4 -1.18 0.07 -0.17 0.26 -0.29 0.41 -0.42a0.73 0.73 0 0 1 0.29-0.15 0.3 0.3 0 0 1 0.41 0.28 c0.036 0.181 0.053 0.365 0.05 0.55 0 0.66 0 1.31-0.05 2 0 0.39-0.06 0.77 -0.1 1.15a8.08 8.08 0 0 1-0.09 0.86 1.27 1.27 0 0 1-0.15 0.31 17.81 17.81 0 0 0-1.2 2.34A7.51 7.51 0 0 1 17.4 21a3.67 3.67 0 0 1-1 1 5.13 5.13 0 0 0-1.73 2 3.06 3.06 0 0 0-0.29 1.83c0.075 0.397 0.179 0.788 0.31 1.17a26.27 26.27 0 0 0 1.19 3.09c0.5 1.12 1 2.24 1.52 3.36 0.26 0.57 0.53 1.13 0.8 1.7 0 0.08 0 0.12-0.07 0.12 h-5.27c-0.18 0-0.19 0-0.2-0.19-0.05-0.45-0.09-0.91-0.14-1.36 0-0.19 0-0.37-0.06-0.56 0-0.36-0.08-0.72-0.13-1.08 0-0.14 0-0.28-0.05-0.41-0.06-0.42-0.13-0.84-0.19-1.27-0.06-0.43-0.1-0.63-0.16-1s-0.14-0.67-0.22-1c-0.08-0.33-0.12-0.55-0.2-0.81-0.08-0.26-0.18-0.53-0.26-0.8-0.08-0.27-0.18-0.57-0.26-0.85-0.08-0.28-0.15-0.53-0.22-0.8s-0.11-0.48-0.16-0.72a7.58 7.58 0 0 1-0.13-0.81v-1.08a3.07 3.07 0 0 1 0.06-0.52 1.88 1.88 0 0 1 1-1.4c0.6-0.33 1.2-0.65 1.83-0.92l0.5-0.2a0.24 0.24 0 0 0 0.1-0.1A8.2 8.2 0 0 1 15 17.76a1.85 1.85 0 0 1 0.61-0.47l0.19-0.06c0.24-0.05 0.49 -0.05 0.73 0l0.15 0.07 z" fill="#FFF"/>
</svg>
