<?xml version="1.0" ?>
<svg xmlns="http://www.w3.org/2000/svg" width="39" height="36" viewBox="0 0 39 36">
  <path d="M23.59 19.76a1 1 0 0 1 0 0.18c0 0.31-0.11 0.62 -0.15 0.94 -0.06 0.46 -0.13 0.93 -0.15 1.4a12 12 0 0 0 0 3.06c0.102 0.477 0.35 0.91 0.71 1.24 0.348 0.353 0.837 0.53 1.33 0.48 a2.24 2.24 0 0 0 1.12-0.48 4.64 4.64 0 0 1 1.94-0.85c0.3-0.042 0.591 -0.123 0.87 -0.24a1.71 1.71 0 0 0 1-2.09 3 3 0 0 0-0.84-1.4 22.49 22.49 0 0 0-3.29-2.79l-0.13-0.14c0.44 0 0.85 0.1 1.26 0.17 0.41 0.07 0.85 0.16 1.28 0.21 0.43 0.05 1.08 0.11 1.62 0.14 a4.21 4.21 0 0 0 1.75-0.21 1.82 1.82 0 0 0 1-2.77 5.53 5.53 0 0 1-0.92-2.52 2 2 0 0 0-0.52-1.09 1.9 1.9 0 0 0-2.3-0.43 4.11 4.11 0 0 0-1.27 0.88 c-0.74 0.74 -1.46 1.52-2.18 2.28a1.78 1.78 0 0 0-0.15 0.21 l-0.06-0.05a0.9 0.9 0 0 1 0-0.16c0.12-0.69 0.28 -1.37 0.36 -2.06 0.08 -0.69 0.08 -1.26 0.1 -1.9a2.58 2.58 0 0 0-0.23-1.09 1.81 1.81 0 0 0-2.67-0.91 5.24 5.24 0 0 1-2.34 0.85 3 3 0 0 0-0.89 0.17 1.84 1.84 0 0 0-1.06 2.47c0.17 0.49 0.447 0.938 0.81 1.31 0.68 0.73 1.38 1.43 2.07 2.14l0.12 0.13 v0.05l-0.51-0.12c-0.41-0.1-0.83-0.21-1.24-0.29-0.41-0.08-0.77-0.12-1.15-0.18a3 3 0 0 0-1.86 0.19 1.71 1.71 0 0 0-0.84 2.31c0.2 0.384 0.363 0.786 0.49 1.2 0.1 0.505 0.16 1.016 0.18 1.53a1.8 1.8 0 0 0 0.45 1.11 1.9 1.9 0 0 0 2.23 0.36 6.16 6.16 0 0 0 1.59-1c0.78-0.68 1.54-1.38 2.31-2.08l0.16-0.16zM27.78 5c-0.06-0.1-0.1-0.16-0.13-0.22-0.32-0.62-0.62-1.26-1-1.86a3.64 3.64 0 0 0-1.1-1.32 1.54 1.54 0 0 0-2.33 0.6 c-0.11 0.23 -0.23 0.46 -0.35 0.68 a5.08 5.08 0 0 1-1.19 1.35 1.45 1.45 0 0 0-0.5 1.05 1.67 1.67 0 0 0 1 1.58 8.62 8.62 0 0 0 2.63 0.71 c0.51 0.09 1 0.12 1.53 0.19 0.125 0.024 0.248 0.054 0.37 0.09 l-1.38 0.87 a3.08 3.08 0 0 1 1 0.91 3.64 3.64 0 0 1 0.64 2v1.08l0.16-0.13c0.42-0.31 0.84 -0.63 1.27-0.92a0.33 0.33 0 0 0 0.17-0.32v-2-0.25l1.18 2a0.3 0.3 0 0 0 0.28 0.16 c0.256 0.002 0.51 0.032 0.76 0.09 a2.73 2.73 0 0 1 1.83 1.56c0.09 0.21 0.17 0.42 0.25 0.64 a1.61 1.61 0 0 0 1.16-1c0.12-0.3 0.23 -0.61 0.35 -0.91a5.32 5.32 0 0 1 1-1.44 1.61 1.61 0 0 0-0.21-2.38 3.38 3.38 0 0 0-1.64-0.61c-0.65-0.1-1.31-0.13-2-0.18h-0.89a1.18 1.18 0 0 1-0.09-0.02l0.55-0.3a13.24 13.24 0 0 0 2.58-1.74A1.93 1.93 0 0 0 34.4 3a1.53 1.53 0 0 0-0.94-1.11c-0.35-0.15-0.71-0.28-1-0.45a5.54 5.54 0 0 1-1.29-1 1.6 1.6 0 0 0-2.21 0 3.19 3.19 0 0 0-0.86 1.92c-0.1 0.53 -0.13 1.07-0.19 1.61-0.07 0.33 -0.09 0.67 -0.13 1.03zm-12.13 6.33a0.88 0.88 0 0 1 0 0.17 18.9 18.9 0 0 0-1 2.86 3.45 3.45 0 0 0-0.13 1.29c0.053 0.41 0.284 0.775 0.63 1 0.11 0.07 0.16 0.08 0.24-0.05a2.85 2.85 0 0 1 1.15-1.07 3.78 3.78 0 0 1 2-0.39h0.26c-0.22-0.32-0.43-0.59-0.6-0.89a3.28 3.28 0 0 1-0.38-2.76 2.88 2.88 0 0 1 2.54-1.93 5.33 5.33 0 0 0 0.7-0.1 5 5 0 0 0 1.59-0.7 0.23 0.23 0 0 0 0.1-0.11 1.43 1.43 0 0 0-0.45-1.39 1.53 1.53 0 0 0-1.6-0.2A17 17 0 0 0 19 8c-0.34 0.19 -0.66 0.43 -1 0.67a0.77 0.77 0 0 1 0-0.16 12.78 12.78 0 0 0 1-2.27 1.81 1.81 0 0 0-0.08-1.38 1.3 1.3 0 0 0-1.62-0.61 3.75 3.75 0 0 1-2 0 1.36 1.36 0 0 0-1.39 0.66 1.89 1.89 0 0 0 0 1.62c0.3 0.68 0.65 1.34 1 2 0.16 0.31 0.36 0.6 0.58 0.95 l-0.29-0.07c-0.41-0.14-0.82-0.31-1.24-0.43-0.42-0.12-1.06-0.3-1.59-0.42a3.1 3.1 0 0 0-1.46-0.07 1.34 1.34 0 0 0-1 1.87 3.85 3.85 0 0 1 0.38 1.76 2.73 2.73 0 0 0 0.07 0.72 c0.095 0.44 0.426 0.79 0.86 0.91 a1.77 1.77 0 0 0 1.42-0.21 12.81 12.81 0 0 0 2.46-1.74l0.55-0.47zm-3.21 16.42l-1.44 0.48 -2.38 0.85 -1.38 0.5 a0.25 0.25 0 0 0-0.19 0.27 5.55 5.55 0 0 0 0.47 2.4 5.71 5.71 0 0 0 4.48 3.4c0.557 0.07 1.118 0.103 1.68 0.1 0.14 0 0.23 0 0.23-0.18a1.65 1.65 0 0 1 0.08-0.34c0.2-0.8 0.41 -1.6 0.61 -2.4 0.16 -0.64 0.32 -1.28 0.47 -1.93 0-0.14 0.06 -0.29 0.09 -0.44a3.15 3.15 0 0 1-2.72-2.71zm3-7.33l-0.51 1.65c-0.17 0.55 -0.41 1.24-0.61 1.87l-0.71 2.2a3.62 3.62 0 0 0-0.17 0.56 2.29 2.29 0 0 0 0.48 1.76c0.317 0.466 0.8 0.795 1.35 0.92 a2.08 2.08 0 0 0 1.65-0.38L22 25.45a0.28 0.28 0 0 0 0.1-0.21c0-0.24-0.06-0.49-0.06-0.73v-1.49-0.19c-0.21 0.16 -0.38 0.3 -0.56 0.42 a5.31 5.31 0 0 1-2.51 1.17 3 3 0 0 1-1.88-0.37 2.77 2.77 0 0 1-1.34-1.9c-0.08-0.41-0.11-0.84-0.16-1.25-0.05-0.16-0.08-0.32-0.11-0.48h-0.04zM0 17a1 1 0 0 0 0 0.17c0.12 0.22 0.24 0.44 0.37 0.65 a13.93 13.93 0 0 0 3.41 4 5.8 5.8 0 0 0 3.72 1.32 6.59 6.59 0 0 1 2 0.29 5.39 5.39 0 0 1 2.5 1.42l0.27 0.31 h-0.07L12 25a5.74 5.74 0 0 0-2.24-1 4.44 4.44 0 0 0-2 0.12 10.4 10.4 0 0 1-1.61 0.36 6.76 6.76 0 0 1-3-0.36L2.74 24c0.043 0.06 0.09 0.116 0.14 0.17 l1.7 1.43c0.22 0.18 0.22 0.19 0 0.36L3.24 27l-0.57 0.44 h0.17c0.48-0.08 1-0.15 1.44-0.26 0.44 -0.11 1.1-0.29 1.65-0.45a8.09 8.09 0 0 0 2-0.85c0.4-0.285 0.857 -0.48 1.34-0.57a4.28 4.28 0 0 1 2.06 0.26 c0.55 0.21 1.09 0.47 1.64 0.72 0.1-0.24 0.21 -0.51 0.31 -0.79a0.26 0.26 0 0 0 0-0.2 13.82 13.82 0 0 0-0.83-1.16 6.06 6.06 0 0 0-3-1.92A7.31 7.31 0 0 0 7.49 22a3.58 3.58 0 0 1-2.32-0.93 8.59 8.59 0 0 1-2.38-3.86c-0.13-0.38-0.24-0.77-0.37-1.19a0.57 0.57 0 0 0-0.09 0.13 c-0.16 0.52 -0.33 1-0.48 1.58 0 0.16-0.12 0.15 -0.23 0.09 l-0.62-0.3L0 17zm33.61 2.4h0.63a0.66 0.66 0 0 1 0.51 0.33 c0.104 0.171 0.172 0.362 0.2 0.56 a0.92 0.92 0 0 1-0.94 1 0.89 0.89 0 0 1-0.65-0.24 1 1 0 0 1-0.24-1.17 4.48 4.48 0 0 1-3.2 0.75 h-0.46a5.62 5.62 0 0 1 1.78 2.54 15.41 15.41 0 0 0 1.92-1.81c-0.08 0.4 -0.19 0.79 -0.28 1.18a7.14 7.14 0 0 0-0.2 0.92 c-0.1 0.453 -0.083 0.925 0.05 1.37a1 1 0 0 0 1.35 0.55 3.7 3.7 0 0 1 1.72-0.42 0.87 0.87 0 0 0 0.37-0.11 1.1 1.1 0 0 0 0.39-1.57 8.29 8.29 0 0 0-1.41-1.8l-0.15-0.17 0.41 0.11c0.41 0.1 0.81 0.23 1.23 0.29 a2.48 2.48 0 0 0 1.33 0 1 1 0 0 0 0.58-1.27 4.53 4.53 0 0 1-0.42-1.91 0.84 0.84 0 0 0-0.46-0.71 1.24 1.24 0 0 0-1.29 0 8.43 8.43 0 0 0-1.57 1.17l-0.19 0.14 a6.55 6.55 0 0 1 0.22-0.78 4 4 0 0 0 0.29-1.58 1 1 0 0 0-1.48-0.77 3 3 0 0 1 0.53 1.69 2.81 2.81 0 0 1-0.57 1.68v0.03z" fill="#FFF"/>
  <path d="M23.59 19.76l-0.15 0.12 c-0.77 0.69 -1.53 1.4-2.31 2.08a6.16 6.16 0 0 1-1.59 1 1.9 1.9 0 0 1-2.23-0.36 1.8 1.8 0 0 1-0.45-1.11 9.84 9.84 0 0 0-0.19-1.49 7.18 7.18 0 0 0-0.49-1.24 1.71 1.71 0 0 1 0.82-2.31 3 3 0 0 1 1.86-0.19c0.38 0.06 0.77 0.11 1.15 0.18 0.38 0.07 0.83 0.19 1.24 0.29 l0.51 0.12 v-0.05l-0.12-0.13c-0.69-0.71-1.4-1.42-2.07-2.14a3.55 3.55 0 0 1-0.81-1.31 1.84 1.84 0 0 1 1.06-2.47 3 3 0 0 1 0.89-0.17 5.24 5.24 0 0 0 2.34-0.85 1.81 1.81 0 0 1 2.67 0.91 c0.174 0.341 0.27 0.717 0.28 1.1 0 0.63 0 1.27-0.1 1.9-0.1 0.63 -0.24 1.37-0.36 2.06a0.9 0.9 0 0 0 0 0.16l0.06 0.05 a1.78 1.78 0 0 1 0.15-0.21c0.72-0.76 1.44-1.54 2.18-2.28a4.11 4.11 0 0 1 1.27-0.88 1.9 1.9 0 0 1 2.3 0.43 2 2 0 0 1 0.45 1.13 5.53 5.53 0 0 0 0.92 2.52 1.82 1.82 0 0 1-1 2.77 4.21 4.21 0 0 1-1.75 0.21 c-0.54 0-1.08-0.08-1.62-0.14-0.54-0.06-0.86-0.14-1.28-0.21-0.42-0.07-0.82-0.14-1.26-0.17l0.17 0.15 A22.49 22.49 0 0 1 29.42 22a3 3 0 0 1 0.83 1.38 1.71 1.71 0 0 1-1 2.09 3.52 3.52 0 0 1-0.87 0.24 4.64 4.64 0 0 0-1.94 0.85 2.24 2.24 0 0 1-1.12 0.48 1.64 1.64 0 0 1-1.32-0.46 2.34 2.34 0 0 1-0.66-1.25 12 12 0 0 1 0-3.06c0-0.47 0.09 -0.93 0.15 -1.4 0-0.31 0.1 -0.62 0.15 -0.94a1 1 0 0 0-0.05-0.17zm0.44-0.3a1.69 1.69 0 0 0 1.69-1.7 1.69 1.69 0 0 0-3.38 0A1.69 1.69 0 0 0 24 19.47l0.03-0.01z" fill="#FFF"/>
  <path d="M27.78 5c0-0.41 0.06 -0.75 0.1 -1.09 0.06 -0.54 0.09 -1.08 0.19 -1.61 0.07 -0.7 0.368 -1.357 0.85 -1.87a1.6 1.6 0 0 1 2.21 0 5.54 5.54 0 0 0 1.29 1c0.34 0.17 0.7 0.29 1 0.45 0.498 0.179 0.87 0.602 0.98 1.12a1.93 1.93 0 0 1-0.73 1.91 13.24 13.24 0 0 1-2.58 1.74l-0.55 0.3 c0.07 0.03 0.145 0.054 0.22 0.07 h0.89c0.66 0.05 1.32 0.08 2 0.18a3.38 3.38 0 0 1 1.64 0.61 1.61 1.61 0 0 1 0.21 2.38 5.32 5.32 0 0 0-1 1.44c-0.13 0.3 -0.23 0.61 -0.35 0.91 a1.61 1.61 0 0 1-1.16 1c-0.09-0.22-0.16-0.44-0.25-0.64a2.73 2.73 0 0 0-1.83-1.56 3.43 3.43 0 0 0-0.76-0.09 0.3 0.3 0 0 1-0.28-0.16l-1.18-2v2.25a0.33 0.33 0 0 1-0.17 0.32 c-0.43 0.3 -0.85 0.61 -1.27 0.92 l-0.16 0.13 v-1.08a3.64 3.64 0 0 0-0.64-2 3.08 3.08 0 0 0-1-0.91l1.38-0.87a3.71 3.71 0 0 0-0.37-0.09c-0.51-0.06-1-0.1-1.53-0.19a8.62 8.62 0 0 1-2.63-0.71 1.67 1.67 0 0 1-1-1.58 1.45 1.45 0 0 1 0.5-1.05 5.08 5.08 0 0 0 1.19-1.35c0.12-0.23 0.24 -0.45 0.35 -0.68a1.54 1.54 0 0 1 2.33-0.6A3.64 3.64 0 0 1 26.69 3c0.34 0.61 0.64 1.24 1 1.86-0.01 0.03 0.03 0.08 0.09 0.14 zm0.6 0.51 A1.5 1.5 0 1 0 29.88 7a1.5 1.5 0 0 0-1.5-1.44v-0.05zM15.65 11.33l-0.56 0.47 a12.81 12.81 0 0 1-2.39 1.74 1.77 1.77 0 0 1-1.42 0.21 1.21 1.21 0 0 1-0.86-0.91 2.73 2.73 0 0 1-0.07-0.72 3.85 3.85 0 0 0-0.35-1.76 1.34 1.34 0 0 1 1-1.87 3.1 3.1 0 0 1 1.46 0.07 c0.53 0.13 1.07 0.27 1.59 0.42 0.52 0.15 0.83 0.29 1.24 0.43 l0.29 0.07 c-0.21-0.35-0.41-0.64-0.58-0.95-0.35-0.66-0.7-1.32-1-2a1.89 1.89 0 0 1 0-1.62 1.36 1.36 0 0 1 1.39-0.66 3.75 3.75 0 0 0 2 0 1.3 1.3 0 0 1 1.62 0.61 c0.176 0.44 0.173 0.932 -0.01 1.37a12.78 12.78 0 0 1-1 2.27 0.77 0.77 0 0 0 0 0.16c0.36-0.24 0.68 -0.48 1-0.67a17 17 0 0 1 1.68-0.87 1.53 1.53 0 0 1 1.6 0.2 c0.393 0.346 0.566 0.88 0.45 1.39a0.23 0.23 0 0 1-0.1 0.11 5 5 0 0 1-1.59 0.7 5.33 5.33 0 0 1-0.7 0.1 2.88 2.88 0 0 0-2.54 1.93 3.28 3.28 0 0 0 0.38 2.76c0.17 0.29 0.38 0.56 0.6 0.89 h-0.28a3.78 3.78 0 0 0-2 0.39 2.85 2.85 0 0 0-1.15 1.07c-0.08 0.13 -0.13 0.13 -0.24 0.05 a1.41 1.41 0 0 1-0.63-1 3.45 3.45 0 0 1 0.13-1.29 18.9 18.9 0 0 1 1-2.86 0.88 0.88 0 0 0 0.04-0.23zm2.54-1.18a1.28 1.28 0 1 0-2.56-0.05 1.28 1.28 0 0 0 2.56 0.05 zM12.44 27.75a3.15 3.15 0 0 0 2.74 2.7c0 0.15-0.06 0.29 -0.09 0.44 -0.16 0.64 -0.31 1.29-0.47 1.93-0.2 0.8 -0.41 1.6-0.61 2.4a1.65 1.65 0 0 0-0.08 0.34 c0 0.17-0.1 0.19 -0.23 0.18 a13.09 13.09 0 0 1-1.68-0.1 5.71 5.71 0 0 1-4.46-3.4 5.55 5.55 0 0 1-0.47-2.4 0.25 0.25 0 0 1 0.19-0.27l1.38-0.5 2.34-0.84 1.44-0.48zM15.48 20.42c0 0.16 0.06 0.32 0.08 0.48 0.06 0.42 0.08 0.84 0.16 1.25a2.77 2.77 0 0 0 1.34 1.9 3 3 0 0 0 1.88 0.37 5.31 5.31 0 0 0 2.51-1.17c0.18-0.13 0.35 -0.27 0.56 -0.42v1.68c0 0.24 0.05 0.49 0.06 0.73a0.28 0.28 0 0 1-0.1 0.21 L16.92 29a2.08 2.08 0 0 1-1.66 0.34 2.23 2.23 0 0 1-1.35-0.92 2.29 2.29 0 0 1-0.48-1.76 3.62 3.62 0 0 1 0.17-0.56l0.71-2.2c0.2-0.62 0.41 -1.24 0.61 -1.87 0.2 -0.63 0.34 -1.1 0.51 -1.65l0.05 0.04 zM0 17l1 0.55 0.58 0.32c0.11 0.06 0.19 0.06 0.23-0.09 0.15 -0.53 0.32 -1.05 0.48 -1.58a0.57 0.57 0 0 1 0.13-0.2c0.13 0.42 0.24 0.81 0.37 1.19a8.59 8.59 0 0 0 2.38 3.91 3.58 3.58 0 0 0 2.32 0.9 7.31 7.31 0 0 1 1.92 0.24 6.06 6.06 0 0 1 3 1.92c0.296 0.372 0.573 0.76 0.83 1.16a0.26 0.26 0 0 1 0 0.2c-0.1 0.28 -0.21 0.55 -0.31 0.79 -0.56-0.24-1.09-0.5-1.64-0.72a4.28 4.28 0 0 0-2.06-0.26 3.38 3.38 0 0 0-1.34 0.57 8.09 8.09 0 0 1-2 0.85c-0.55 0.16 -1.09 0.32 -1.65 0.45 -0.56 0.13 -1 0.17-1.44 0.26 h-0.13l0.57-0.46 1.37-1c0.23-0.18 0.23 -0.18 0-0.36l-1.7-1.43a1.73 1.73 0 0 1-0.14-0.17l0.41 0.12 a6.76 6.76 0 0 0 3 0.36 10.4 10.4 0 0 0 1.61-0.36 4.44 4.44 0 0 1 2-0.12A5.74 5.74 0 0 1 12 25l0.18 0.12 h0.07l-0.25-0.27a5.39 5.39 0 0 0-2.42-1.43 6.59 6.59 0 0 0-2-0.29 5.8 5.8 0 0 1-3.72-1.32 13.93 13.93 0 0 1-3.41-4c-0.13-0.21-0.25-0.43-0.37-0.65A1 1 0 0 1 0 17zM33.61 19.37a2.81 2.81 0 0 0 0.58-1.73 3 3 0 0 0-0.54-1.64 1 1 0 0 1 1.54 0.76 4 4 0 0 1-0.29 1.58 6.55 6.55 0 0 0-0.22 0.78 l0.19-0.14a8.43 8.43 0 0 1 1.57-1.17 1.24 1.24 0 0 1 1.29 0 0.84 0.84 0 0 1 0.46 0.71 c0 0.66 0.143 1.312 0.42 1.91a1 1 0 0 1-0.61 1.18 2.48 2.48 0 0 1-1.33 0c-0.41-0.06-0.82-0.19-1.23-0.29l-0.41-0.11 0.13 0.15a8.29 8.29 0 0 1 1.41 1.8 1.1 1.1 0 0 1-0.39 1.57 0.87 0.87 0 0 1-0.37 0.11 3.7 3.7 0 0 0-1.72 0.42 1 1 0 0 1-1.35-0.55 2.73 2.73 0 0 1-0.05-1.37 7.14 7.14 0 0 1 0.2-0.92c0.09-0.39 0.2 -0.77 0.28 -1.18a15.41 15.41 0 0 1-1.92 1.81 5.62 5.62 0 0 0-1.78-2.54h0.46a4.48 4.48 0 0 0 3.2-0.75 1 1 0 0 0 0.24 1.24 0.89 0.89 0 0 0 0.65 0.24 0.92 0.92 0 0 0 0.94-1 1.49 1.49 0 0 0-0.2-0.56 0.66 0.66 0 0 0-0.51-0.33c-0.25 0.01 -0.4 0.02 -0.64 0.02 z" fill="#FFF"/>
  <path d="M24 19.47a1.69 1.69 0 0 1-1.69-1.7 1.69 1.69 0 0 1 3.38 0 1.69 1.69 0 0 1-1.69 1.7zM28.38 5.56A1.5 1.5 0 0 1 29.88 7a1.48 1.48 0 0 1-1.5 1.51 1.5 1.5 0 1 1 0-3v0.05zM18.2 10.15a1.28 1.28 0 1 1-2.56 0 1.28 1.28 0 0 1 2.56 0z" fill="#D10707"/>
</svg>
