<?xml version="1.0" ?>
<svg xmlns="http://www.w3.org/2000/svg" width="44" height="29" viewBox="0 0 44 29">
  <path d="M21.93 23.33H6.9A1.25 1.25 0 0 1 5.51 22v-4.38V9.9 6.33 1.2A1.14 1.14 0 0 1 6.7 0.05 h5.47C13.44 0 14.71 0 16 0h21.18a1.17 1.17 0 0 1 1.19 1.3v20.52a1.3 1.3 0 0 1-0.94 1.45 2.11 2.11 0 0 1-0.62 0.06 H21.93zm0-20.58H7.39c-0.54 0-0.53 0-0.53 0.55 v16.9c0 0.35 0.13 0.47 0.46 0.44 0.33 -0.03 0.52 0 0.78 0h28.4c0.5 0 0.52 0 0.52-0.51V3.21c0-0.46 0-0.46-0.48-0.46H21.93zm0.52-1.24a0.52 0.52 0 1 0-1 0 0.59 0.59 0 0 0 0.54 0.59 0.56 0.56 0 0 0 0.46-0.59zM22 27.45h5.06c0.34 0 0.44-0.11 0.45 -0.45 0-0.94-0.24-1 1-1H43.52c0.3 0 0.44 0.1 0.43 0.41 -0.01 0.31 0 0.64 0 0.95a1.36 1.36 0 0 1-1.18 1.35c-0.65 0.08 -1.32 0.06 -2 0.08H1.5A1.37 1.37 0 0 1 0 27.3v-0.88c0-0.29 0.11 -0.42 0.38 -0.42H16c0.28 0 0.41 0.1 0.39 0.39 a4.68 4.68 0 0 0 0 0.53c0 0.48 0 0.48 0.47 0.48l5.14 0.05 z" fill="#FFF"/>
  <path d="M22.45 1.51a0.56 0.56 0 0 1-0.5 0.57 0.59 0.59 0 0 1-0.54-0.59 0.52 0.52 0 1 1 1 0l0.04 0.02 z" fill="#F05A28"/>
</svg>
