<?xml version="1.0" ?>
<svg xmlns="http://www.w3.org/2000/svg" width="44" height="34" viewBox="0 0 44 34">
  <path d="M34 28.87l-1.6 0.13 h-0.23c-0.76 0-1.52 0.07 -2.28 0.12 -4 0.24-8 0.19-12 0.16-1.28 0-2.57-0.06-3.86-0.1-0.56 0-1.12 0-1.67-0.09l-2.74-0.26h-0.35c-0.14 0 0 0.16 0 0.25v3.28A1.59 1.59 0 0 1 7.71 34H3.19a1.61 1.61 0 0 1-1.63-1.62v-5.24a0.3 0.3 0 0 0-0.15-0.3 3.1 3.1 0 0 1-1.25-1.37 1.92 1.92 0 0 1-0.16-0.62v-6.67a5.67 5.67 0 0 1 1.26-3.4c0.23-0.29 0.51 -0.56 0.77 -0.83 0.11 -0.11 0.14 -0.15-0.05-0.23a3.1 3.1 0 0 1-1.79-1.86A2.93 2.93 0 0 1 0.12 10a3 3 0 0 1 1.49-1.87 2.94 2.94 0 0 1 1.44-0.39H5a0.24 0.24 0 0 0 0.27-0.2c0.16-0.55 0.36 -1.08 0.54 -1.62 0.18 -0.54 0.32 -1 0.5-1.48a6.47 6.47 0 0 1 2.24-3.08A6.39 6.39 0 0 1 10.78 0.29 6.61 6.61 0 0 1 12.54 0h18.21A6.49 6.49 0 0 1 36 2.52a6.36 6.36 0 0 1 1.14 2.15c0.31 0.93 0.65 1.85 0.94 2.79a0.33 0.33 0 0 0 0.41 0.28 h1.76a3.09 3.09 0 0 1 1.7 5.66 2.87 2.87 0 0 1-0.63 0.32 c-0.19 0.07 -0.14 0.14 0 0.23a6.27 6.27 0 0 1 2.05 4.77v5.78a2.54 2.54 0 0 1-1.13 2.13c-0.11 0.09 -0.25 0.15 -0.35 0.25 a0.41 0.41 0 0 0-0.08 0.27 v5.3a1.51 1.51 0 0 1-1.06 1.42 1.88 1.88 0 0 1-0.52 0.08 h-4.59a1.46 1.46 0 0 1-1.45-0.88 1.58 1.58 0 0 1-0.16-0.68v-3.28l-0.03-0.24zm4-16.52c-0.16-0.52-0.31-1-0.47-1.47-0.21-0.64-0.44-1.26-0.65-1.9-0.21-0.64-0.34-1.06-0.51-1.59l-0.66-1.93a6.2 6.2 0 0 0-0.71-1.6 4.87 4.87 0 0 0-4.19-2.28H12.75a6 6 0 0 0-2.11 0.37 A4.69 4.69 0 0 0 8 4.37c-0.33 0.73 -0.56 1.52-0.83 2.29-0.15 0.41 -0.27 0.83 -0.41 1.25-0.21 0.64 -0.43 1.27-0.65 1.91l-0.45 1.32c-0.13 0.4 -0.25 0.79 -0.38 1.21H38zM6.18 23.17A3.09 3.09 0 1 0 5.829 17a3.09 3.09 0 0 0 0.351 6.17zm30.92 0a3.09 3.09 0 1 0-0.351-6.17 3.09 3.09 0 0 0 0.351 6.17zm-15.46-3.08h8.56a0.78 0.78 0 0 0 0.66-1.09 0.81 0.81 0 0 0-0.8-0.46H13.15a0.76 0.76 0 0 0-0.77 0.82 0.79 0.79 0 0 0 0.83 0.71 c2.79 0.01 5.62 0.02 8.43 0.02 zm0 1.55h-7a0.76 0.76 0 0 0-0.64 1.07 0.82 0.82 0 0 0 0.8 0.47 h13.83a0.77 0.77 0 0 0 0.76-0.78 0.81 0.81 0 0 0-0.81-0.75l-6.94-0.01z" fill="#FFF"/>
  <path d="M38 12.35H5.27c0.13-0.42 0.25 -0.81 0.38 -1.21l0.45-1.32c0.22-0.64 0.44 -1.27 0.65 -1.91 0.14 -0.42 0.26 -0.84 0.41 -1.25 0.27 -0.77 0.5 -1.56 0.83 -2.29a4.69 4.69 0 0 1 2.69-2.44 6 6 0 0 1 2.11-0.37h18.06A4.87 4.87 0 0 1 35 3.86a6.2 6.2 0 0 1 0.71 1.6l0.66 1.93c0.17 0.53 0.33 1.07 0.51 1.59s0.44 1.26 0.65 1.9c0.2 0.47 0.35 0.95 0.47 1.47zM6.18 23.17a3.09 3.09 0 1 1 3.1-3.06 3.06 3.06 0 0 1-3.1 3.06zM37.1 23.17a3.09 3.09 0 1 1 3.1-3.06 3.08 3.08 0 0 1-3.1 3.06zM21.64 20.09h-8.43a0.79 0.79 0 0 1-0.83-0.71 0.76 0.76 0 0 1 0.77-0.82h16.91a0.81 0.81 0 0 1 0.8 0.46 0.78 0.78 0 0 1-0.66 1.08h-8.56v-0.01zM21.65 21.64h6.93a0.81 0.81 0 0 1 0.81 0.75 0.77 0.77 0 0 1-0.76 0.78 H14.79a0.82 0.82 0 0 1-0.8-0.47 0.76 0.76 0 0 1 0.65-1.06h7.01z" fill="#699305"/>
</svg>
