<?xml version="1.0" ?>
<svg xmlns="http://www.w3.org/2000/svg" width="256" height="197" viewBox="0 0 256 197">
  <path d="M238.422 10.636c1.748-3.375 5.912-5.989 7.88-6.75 1.25-0.482 4.214-0.505 8.89-0.067 0.4 0.037 0.706 0.372 0.706 0.774-0.003 121.02-0.585 182.652-1.748 184.897-1.748 3.375-6.1 3.375-7.848 3.375-1.747 0-7.397 0-9.628-3.375-2.23-3.374 5.726-62.287 5.243-79.303-0.483-17.016-8.738-8.437-8.738-22.125 0-52.463 4.42-75.837 5.243-77.426zM133.248 196.372c-54.049 0-97.864-43.96-97.864-98.186C35.384 43.959 79.2 0 133.248 0c54.048 0 97.863 43.96 97.863 98.186 0 54.226-43.815 98.186-97.863 98.186zm0-35.067c34.745 0 62.912-28.26 62.912-63.12s-28.167-63.119-62.912-63.119c-34.746 0-62.912 28.26-62.912 63.12s28.166 63.12 62.912 63.12z" fill="#FFF"/>
  <path d="M133.248 159.552c-33.78 0-61.165-27.475-61.165-61.366 0-33.892 27.384-61.366 61.165-61.366 33.78 0 61.164 27.474 61.164 61.366 0 33.891-27.384 61.366-61.164 61.366zm41.64-83.53a25.668 25.668 0 0 0-5.631-8.475c-4.779-4.851-10.496-7.277-17.152-7.277-3.64 0-7.096 0.8 -10.367 2.397-3.271 1.598-6.101 3.853-8.49 6.764-2.39-2.911-5.22-5.166-8.49-6.764a23.318 23.318 0 0 0-10.368-2.397c-6.656 0-12.373 2.454-17.152 7.363a25.668 25.668 0 0 0-5.631 8.475c-1.423 3.368-2.105 6.85-2.048 10.445 0.057 3.938 0.881 7.662 2.474 11.172 1.593 3.51 3.84 6.492 6.741 8.947 0.285 0.228 0.54 0.456 0.768 0.684 0.797 0.685 4.01 3.596 9.643 8.733 11.832 10.901 19.142 17.607 21.93 20.118a3.27 3.27 0 0 0 2.133 0.77 3.27 3.27 0 0 0 2.133-0.77c1.877-1.712 7.025-6.42 15.445-14.125 8.988-8.22 14.562-13.327 16.724-15.325 2.958-2.454 5.262-5.45 6.912-8.989 1.65-3.539 2.474-7.305 2.474-11.3 0-3.653-0.682-7.135-2.047-10.445zM5.592 3.507h3.214v54.352h3.776l0.477-54.352h4.867v54.352h3.394l0.623-54.352h4.422v54.352h4.58c0.439 0 0.439-18.117 0-54.352h3.963c3.757 38.573 5.053 60.197 3.888 64.872-1.165 4.676-5.309 11.69-12.431 21.04 3.053 68.964 0.207 103.446-8.54 103.446s-11.17-34.482-7.272-103.446C4.916 80.07 1.515 73.055 0.35 68.38c-1.166-4.675 0.582 -26.3 5.242-64.872z" fill="#FFF"/>
</svg>
