<?xml version="1.0" ?>
<svg xmlns="http://www.w3.org/2000/svg" width="31" height="31" viewBox="0 0 31 31">
  <path d="M31 30.92H0V8.84h31v22.08zM29.05 29v-0.2-17.83c0-0.14 0-0.17-0.17-0.17H2.12c-0.14 0-0.17 0-0.17 0.18 V29h27.1zM23.22 8.2h-0.83a0.26 0.26 0 0 1-0.14-0.09l-1.9-1.9-1.92-1.91-1.56-1.56-0.87-0.85a0.2 0.2 0 0 0-0.23-0.05 0.75 0.75 0 0 1-0.55 0 0.27 0.27 0 0 0-0.32 0.08 c-0.65 0.67 -1.32 1.32-2 2l-2.51 2.55-1.67 1.66a0.19 0.19 0 0 1-0.1 0.06 h-0.84L7.9 8l3.21-3.19L14 2l0.56-0.56a0.21 0.21 0 0 0 0.06-0.23 0.92 0.92 0 0 1 0.56-1.14 0.94 0.94 0 0 1 1.25 1.15 0.22 0.22 0 0 0 0.06 0.25 l2.82 2.82 3.13 3.12 0.67 0.67 0.11 0.12z" fill="#FFF"/>
  <path d="M28.42 28.35H2.78c-0.24 0-0.21 0-0.21-0.22V11.61c0-0.21 0-0.21 0.21 -0.21H28.2c0.22 0 0.22 0 0.22 0.21 V28.35zm-7.9-5h-0.33l-3.25-0.05a5.32 5.32 0 0 1-1.45-0.19 5.17 5.17 0 0 1-1.23-0.54 7.74 7.74 0 0 1-2.14-2c-0.55-0.72-1.05-1.47-1.57-2.21-0.3-0.452-0.634-0.88-1-1.28a0.77 0.77 0 0 0-1-0.24 5.58 5.58 0 0 0-1.33 0.82 c-0.61 0.49 -1.22 1-1.79 1.51-0.77 0.7 -1.51 1.44-2.26 2.16a0.32 0.32 0 0 0-0.1 0.25 v6.15h24.71v-0.17c0-1.24 0-2.47-0.06-3.71 0-0.12 0-0.18-0.15-0.2-0.54-0.11-1.08-0.24-1.62-0.33a2.58 2.58 0 0 1-1.09-0.48 6.47 6.47 0 0 1-1.31-1.37c-0.46-0.61-0.9-1.23-1.36-1.84a3.06 3.06 0 0 0-1.16-1 0.57 0.57 0 0 0-0.5-0.07 2.41 2.41 0 0 0-0.49 0.32 9.5 9.5 0 0 0-1.35 1.54c-0.4 0.54 -0.78 1.1-1.16 1.65-0.17 0.24 -0.32 0.49 -0.51 0.77 1.18 0.16 2.34 0.33 3.5 0.5 v0.01zm3-9.89a1.45 1.45 0 1 0 1.45 1.44 1.45 1.45 0 0 0-1.48-1.45l0.03 0.01 z" fill="#FFF"/>
</svg>
