<?xml version="1.0" ?>
<svg xmlns="http://www.w3.org/2000/svg" width="37" height="37" viewBox="0 0 37 37">
  <path d="M9.49 18.16a8.64 8.64 0 1 1 8.63 8.65 8.63 8.63 0 0 1-8.63-8.65z" fill="#FFF"/>
  <path d="M36.26 13.11l-9.08 1.77-0.89-1.82 0.39 -0.14a9.78 9.78 0 0 0 2.57-1.15 1.85 1.85 0 0 0 0.73-0.84 0.88 0.88 0 0 0-0.52-1 1.65 1.65 0 0 0-1.15 0.12 10.67 10.67 0 0 0-2.77 1.73c-0.12 0.09 -0.18 0.1 -0.29 0-0.11-0.1-0.51-0.51-0.76-0.76-0.08-0.08-0.1-0.13 0-0.23A14.13 14.13 0 0 0 26 8.59a3.05 3.05 0 0 0 0.45-1.48 0.83 0.83 0 0 0-0.85-0.84 1.06 1.06 0 0 0-0.6 0.23 3.38 3.38 0 0 0-0.92 1.28 12.72 12.72 0 0 0-0.79 2.09 0.6 0.6 0 0 1-0.07 0.12 L21.4 9.1 23.18 0c0.27 0.05 0.537 0.113 0.8 0.19 0.617 0.21 1.157 0.6 1.55 1.12a4 4 0 0 1 0.68 1.4 4.54 4.54 0 0 0 0.64 1.57 1.31 1.31 0 0 0 1.06 0.56 h1a2.5 2.5 0 0 1 2.36 1.59c0.093 0.24 0.147 0.493 0.16 0.75 0.016 0.333 0.016 0.667 0 1a1.42 1.42 0 0 0 0.94 1.42c0.415 0.166 0.84 0.31 1.27 0.43 a3.51 3.51 0 0 1 2.42 2.14c0.126 0.298 0.194 0.617 0.2 0.94 zM13 26.32l1.82 0.89 -1.74 9.09a5.46 5.46 0 0 1-0.55-0.1 3.34 3.34 0 0 1-1.85-1.27 4.09 4.09 0 0 1-0.68-1.32A4.58 4.58 0 0 0 9.42 32a1.3 1.3 0 0 0-1.07-0.57h-1A2.5 2.5 0 0 1 5 29.88a2.58 2.58 0 0 1-0.16-0.79 10.07 10.07 0 0 1 0-1 1.42 1.42 0 0 0-0.92-1.41 11.37 11.37 0 0 0-1.27-0.44 3.49 3.49 0 0 1-2.44-2.13 7.22 7.22 0 0 1-0.2-0.76 0.63 0.63 0 0 1 0-0.14l9.08-1.77 0.91 1.82-0.37 0.14 A9.74 9.74 0 0 0 7 24.54a1.85 1.85 0 0 0-0.75 0.85 0.88 0.88 0 0 0 0.52 1c0.385 0.1 0.793 0.057 1.15-0.12a9.85 9.85 0 0 0 2.55-1.55c0.37-0.29 0.36 -0.29 0.68 0 0.32 0.29 0.38 0.38 0.57 0.56 0.19 0.18 0.11 0.15 0 0.26a13.42 13.42 0 0 0-1.46 2.16 3.12 3.12 0 0 0-0.45 1.42 0.85 0.85 0 0 0 0.73 0.89 0.8 0.8 0 0 0 0.68-0.23 3.21 3.21 0 0 0 0.91-1.27c0.29-0.69 0.54 -1.4 0.8 -2.1a1 1 0 0 1 0.07-0.09z" fill="#FFF"/>
</svg>
