<?xml version="1.0" ?>
<svg xmlns="http://www.w3.org/2000/svg" width="30" height="30" viewBox="0 0 30 30">
  <path d="M18.68 25.18v-3.85a6 6 0 0 0-0.12-1.2A3.82 3.82 0 0 0 17.15 18a3.51 3.51 0 0 0-1.28-0.64 3.63 3.63 0 0 0-1.67-0.09 3.7 3.7 0 0 0-1.69 0.72 3.82 3.82 0 0 0-1.27 1.67 4.1 4.1 0 0 0-0.24 1.57v8.16c0 0.26 0 0.26-0.26 0.26 h-3.4c-0.16 0-0.23 0-0.24-0.19-0.01-0.19 0-0.07 0-0.1 0-0.4 0-0.81-0.08-1.21-0.06-0.82-0.12-1.64-0.19-2.46 0-0.47-0.07-1-0.11-1.43-0.04-0.43-0.1-1.24-0.16-1.85l-0.06-0.83c0-0.41 0-0.81-0.08-1.22l-0.22-2.63c0-0.36 0-0.72-0.08-1.07 0-0.67-0.1-1.34-0.16-2a1.42 1.42 0 0 0-0.08-0.18 1.65 1.65 0 0 0-0.19 0.1 L4 16.22l-1.09 1.11c-0.15 0.15 -0.17 0.15 -0.32 0L0.11 14.86c-0.15-0.15-0.15-0.18 0-0.34L13.53 1.23l1.11-1.1c0.17-0.17 0.19 -0.17 0.35 0l6.21 6.15 8.32 8.24c0.16 0.16 0.16 0.19 0 0.34l-2.43 2.44c-0.19 0.18 -0.21 0.18 -0.4 0l-2.91-2.91a0.6 0.6 0 0 0-0.08-0.08 0.11 0.11 0 0 0-0.19 0.09 c0 0.47-0.07 0.95 -0.11 1.42-0.06 0.64 -0.11 1.28-0.17 1.92l-0.06 0.77 c0 0.39 0 0.78-0.07 1.16-0.05 0.62 -0.11 1.24-0.16 1.87 0 0.26-0.05 0.52 -0.07 0.78 -0.02 0.26 0 0.78-0.07 1.17-0.05 0.62 -0.11 1.24-0.16 1.85 0 0.27-0.05 0.54 -0.07 0.8 -0.02 0.26 0 0.78-0.07 1.17-0.05 0.61 -0.11 1.22-0.16 1.83v0.32c0 0.11 0 0.2-0.21 0.2 h-3.24c-0.19 0-0.21 0-0.21-0.21v-4.27z" fill="#FFF"/>
</svg>
