<?xml version="1.0" ?>
<svg xmlns="http://www.w3.org/2000/svg" width="26" height="36" viewBox="0 0 26 36">
  <path d="M4.68 11.62c0.05-0.71 0.1 -1.54 0.2 -2.36 0.075 -0.55 0.186 -1.094 0.33 -1.63 0.14 -0.552 0.31 -1.096 0.51 -1.63 0.228 -0.582 0.492 -1.15 0.79 -1.7a9.2 9.2 0 0 1 2.18-2.7A6.83 6.83 0 0 1 10.57 0.45 6.46 6.46 0 0 1 12 0.05a7.07 7.07 0 0 1 1.13 0 5 5 0 0 1 1.53 0.26 7 7 0 0 1 2.18 1.17A9.46 9.46 0 0 1 19 3.85c0.401 0.63 0.736 1.3 1 2 0.16 0.45 0.34 0.9 0.46 1.36 0.12 0.46 0.22 0.93 0.31 1.39a16 16 0 0 1 0.26 4.2c0 0.53-0.11 1.06-0.18 1.58-0.05 0.31 -0.09 0.61 -0.16 0.91 -0.07 0.3 -0.2 0.81 -0.32 1.21a6.88 6.88 0 0 1-0.3 0.87 c-0.26 0.6 -0.52 1.2-0.82 1.78a9.12 9.12 0 0 1-1.72 2.28 7.44 7.44 0 0 1-2 1.43 6 6 0 0 1-3.21 0.55 7.46 7.46 0 0 1-1.34-0.31A6 6 0 0 1 8.9 22a8.44 8.44 0 0 1-1.56-1.6 9.11 9.11 0 0 1-1-1.65A16 16 0 0 1 5.57 17a10.72 10.72 0 0 1-0.48-1.65c-0.14-0.65-0.22-1.32-0.3-2-0.08-0.68-0.07-1.07-0.11-1.73zm7.18-4.49a3.78 3.78 0 0 0-0.13-0.56 1.32 1.32 0 0 0-1.06-0.91 1.48 1.48 0 0 0-1.38 0.49 4.52 4.52 0 0 0-0.78 1.47c-0.15 0.37 -0.28 0.75 -0.4 1.14a9.32 9.32 0 0 0-0.23 0.91 c-0.06 0.33 -0.11 0.67 -0.15 1a13.46 13.46 0 0 0-0.11 1.55c0.006 0.94 0.134 1.874 0.38 2.78 0.094 0.384 0.215 0.762 0.36 1.13 0.2 0.51 0.45 1 0.68 1.5 0.185 0.43 0.551 0.756 1 0.89a1.45 1.45 0 0 0 1.82-1.11 1.53 1.53 0 0 0-0.17-1.14 7.93 7.93 0 0 1-0.52-1.15c-0.16-0.43-0.26-0.88-0.38-1.33a6.79 6.79 0 0 1-0.2-1.79A8.09 8.09 0 0 1 11 9.38c0.16-0.46 0.35 -0.91 0.54 -1.36a2 2 0 0 0 0.32-0.89z" fill="#FFF"/>
  <path d="M12.78 35.21H7.65A1.5 1.5 0 0 1 7 32.37a1.71 1.71 0 0 1 0.71-0.16h3.48c0.23 0 0.23 0 0.23-0.22v-3.55c0-0.2 0-0.19-0.21-0.23-0.4-0.09-0.81-0.18-1.2-0.3a9.47 9.47 0 0 1-1.05-0.4 10.47 10.47 0 0 1-2.3-1.36 13.33 13.33 0 0 1-1.68-1.51 15.8 15.8 0 0 1-1.78-2.31A17.32 17.32 0 0 1 2 20.22c-0.27-0.61-0.53-1.23-0.76-1.86-0.23-0.63-0.31-1-0.43-1.49S0.49 15.63 0.37 15c-0.09-0.48-0.13-1-0.21-1.45A18.54 18.54 0 0 1 0 10.87a1.42 1.42 0 0 1 0.74-1.33 1.49 1.49 0 0 1 2.21 1 1.5 1.5 0 0 1 0 0.2c0 0.53 0 1.06 0.07 1.59s0.12 1.17 0.2 1.75c0.08 0.58 0.13 0.89 0.23 1.33 0.1 0.44 0.25 1 0.39 1.46 0.14 0.46 0.23 0.73 0.36 1.08a15.3 15.3 0 0 0 1 2.25 14.36 14.36 0 0 0 1.28 1.9 10.07 10.07 0 0 0 2 1.91 7.6 7.6 0 0 0 1.84 1c0.38 0.13 0.78 0.21 1.16 0.31 a5.4 5.4 0 0 0 1.33 0.12 7.23 7.23 0 0 0 1.78-0.26 7.64 7.64 0 0 0 2-0.86 9.56 9.56 0 0 0 2-1.71 12 12 0 0 0 1.6-2.21c0.27-0.48 0.54 -1 0.77-1.49 0.23 -0.49 0.37 -0.91 0.54 -1.38 0.17 -0.47 0.28 -0.82 0.4 -1.24 0.12 -0.42 0.16 -0.61 0.22 -0.92 0.09 -0.48 0.19 -1 0.27-1.46a7 7 0 0 0 0.09-0.8c0.05-0.82 0.07 -1.64 0.14 -2.45a1.39 1.39 0 0 1 0.79-1.12 1.52 1.52 0 0 1 1.75 0.28 c0.278 0.277 0.43 0.657 0.42 1.05v1.58c0 0.53-0.11 1.26-0.2 1.89-0.09 0.63 -0.16 1-0.28 1.54-0.12 0.54 -0.29 1.23-0.49 1.83-0.25 0.76 -0.52 1.52-0.84 2.25a16.85 16.85 0 0 1-2.05 3.47 14.56 14.56 0 0 1-1.83 2 11.71 11.71 0 0 1-2.45 1.74 12 12 0 0 1-1.32 0.58 c-0.42 0.16 -0.86 0.28 -1.29 0.41 a4 4 0 0 1-0.48 0.08 c-0.12 0-0.18 0.06 -0.18 0.19 v3.65c0 0.14 0.07 0.15 0.18 0.15H18a1.44 1.44 0 0 1 1.18 0.58 1.48 1.48 0 0 1-0.87 2.37 4.07 4.07 0 0 1-0.61 0.05 l-4.92-0.02z" fill="#FFF"/>
</svg>
