<?xml version="1.0" ?>
<svg xmlns="http://www.w3.org/2000/svg" width="21" height="37" viewBox="0 0 21 37">
  <path d="M18.93 5.27c0.5 1.4 1.1 2.77 1.49 4.21a6.4 6.4 0 0 1-0.66 4.68c-0.35 0.69 -0.68 1.4-1 2.09a5.58 5.58 0 0 1-0.76 1.56 6.72 6.72 0 0 0-1.46 3.11 18.44 18.44 0 0 1-2.4 5.17 4.46 4.46 0 0 0-0.55 1.14 6.83 6.83 0 0 0 2.51-1.89c0.204-0.272 0.32 -0.6 0.33 -0.94a9.22 9.22 0 0 1 2.21-5.62c0.57-0.71 1.1-1.44 1.85-2.41-0.19 1.64-0.39 2.94-0.48 4.24a6.28 6.28 0 0 1-2.69 4.51c-0.64 0.52 -1.27 1.06-1.94 1.54-0.67 0.48 -1.48 0.91 -2.22 1.37a4.86 4.86 0 0 0-0.94 0.64 26.45 26.45 0 0 1-7 5.5c-0.07 0-0.1 0.16 -0.15 0.24 a4.15 4.15 0 0 0 4.3-1.68 8.39 8.39 0 0 1 3.41-3.14l2.94-1.45 0.22 0.26a46.72 46.72 0 0 1-2.65 3.94 6.2 6.2 0 0 1-3.71 1.92c-0.91 0.19 -1.8 0.41 -2.71 0.58 a5 5 0 0 1-2.49 0.16 2 2 0 0 0-1.11 0.15 c-0.78 0.27 -1.55 0.6 -2.33 0.88 a3.7 3.7 0 0 1-0.94 0c0.37-0.33 0.48 -0.48 0.63 -0.54 0.44 -0.206 0.9 -0.37 1.37-0.49a3.94 3.94 0 0 0 3-3.1 8.19 8.19 0 0 1 3.39-4.62c0.76-0.51 1.49-1 2.52-1.78-0.76 1.74-1.26 3.15-1.91 4.5a5.52 5.52 0 0 1-3 2.43c-0.57 0.24 -1.18 0.43 -1.29 1.36a22.66 22.66 0 0 0 5.56-3.88 6.1 6.1 0 0 1 0.73-0.71 3.36 3.36 0 0 0 1.24-3.76 9 9 0 0 1 1.24-6.59c0.32-0.54 0.61 -1.09 1.08-1.94a25.45 25.45 0 0 1 0.33 5 5.27 5.27 0 0 1-1.63 3.21 1.68 1.68 0 0 0-0.58 1.88 8.46 8.46 0 0 0 0.61-0.67 21 21 0 0 0 3-6.63 1.78 1.78 0 0 0-0.19-1.53c-0.53-0.81-1-1.68-1.45-2.52a8 8 0 0 1-1.15-4c0-1.16 0.1 -2.32 0.18 -3.8 0.71 1.22 1.22 2.16 1.8 3.06A5.73 5.73 0 0 1 16.1 16a1.74 1.74 0 0 0 0.52 2 22 22 0 0 0 0.26-6.65c0-0.53-0.14-1.06-0.21-1.59a3 3 0 0 0-1-2 6.92 6.92 0 0 1-2.13-3.93c-0.22-1.14-0.4-2.29-0.67-3.81a41.56 41.56 0 0 1 3.45 4.05A5.16 5.16 0 0 1 17 7.3 9.07 9.07 0 0 0 17 9c0.5 2.592 0.609 5.245 0.32 7.87a4.27 4.27 0 0 0 0 0.62 3.73 3.73 0 0 0 1.23-3.95 8.82 8.82 0 0 1-0.42-5.18c0.25-1 0.41-2.08 0.61 -3.12l0.19 0.03 z" fill="#FFF"/>
</svg>
