<?xml version="1.0" ?>
<svg xmlns="http://www.w3.org/2000/svg" width="43" height="8" viewBox="0 0 43 8">
  <path d="M24.21 0l0.32 0.07 a0.19 0.19 0 0 1 0.19 0.2 c0 0.28 0.07 0.56 0.11 0.83 0.04 0.27 0.06 0.28 0.3 0.28h1.41c0.58 0 1 0.29 1 1s0.05 1.33 0.05 2a2.81 2.81 0 0 1-0.06 0.65 1.54 1.54 0 0 1-1.34 1.21 3.55 3.55 0 0 1-0.46 0h-1.56c-0.11 0-0.15 0-0.14-0.15a2.33 2.33 0 0 1 0.22-0.85 0.2 0.2 0 0 1 0.21-0.12h0.78a0.58 0.58 0 0 0 0.66-0.62V2.77c0-0.21-0.14-0.32-0.38-0.32h-1.47a0.73 0.73 0 0 1-0.78-0.65c-0.08-0.51-0.14-1-0.2-1.55a0.15 0.15 0 0 1 0.07-0.13l0.48-0.12h0.59zM43 6.27h-1.66c-0.08 0-0.09 0-0.1-0.11L41 4.56c-0.06-0.47-0.13-0.95-0.2-1.42a1.11 1.11 0 0 0-0.07-0.26 0.58 0.58 0 0 0-0.58-0.39h-1.66a0.25 0.25 0 0 1-0.21-0.1 2.29 2.29 0 0 1-0.47-0.85v-0.16h3c0.178 0 0.356 0.02 0.53 0.06 0.54 0.13 0.954 0.564 1.06 1.11 0.084 0.346 0.148 0.696 0.19 1.05 0.11 0.8 0.21 1.61 0.32 2.42a0.14 0.14 0 0 0 0 0.06l0.09 0.19 zM3.59 7.53a1.71 1.71 0 0 1-0.2-0.18c-0.23-0.24-0.45-0.5-0.67-0.75a0.34 0.34 0 0 1 0-0.52l0.68-0.75a0.32 0.32 0 0 0 0-0.5c-0.14-0.17-0.3-0.34-0.45-0.51a1.94 1.94 0 0 1-0.21-0.27 0.28 0.28 0 0 1 0-0.39l0.69-0.75a0.37 0.37 0 0 0 0-0.56c-0.14-0.17-0.29-0.33-0.44-0.49-0.15-0.16-0.18-0.21-0.25-0.32a0.345 0.345 0 0 1 0-0.39c0.09-0.15 0.53 -0.59 0.8 -0.87a0.39 0.39 0 0 1 0.32-0.11h1A0.37 0.37 0 0 1 5 0.22a0.52 0.52 0 0 1-0.1 0.13 l-0.68 0.76 c-0.17 0.19 -0.19 0.3 0 0.5s0.39 0.46 0.58 0.69 l0.08 0.09 c0.16 0.23 0.15 0.34 0 0.54l-0.62 0.66 a0.38 0.38 0 0 0 0 0.56c0.14 0.18 0.29 0.34 0.43 0.52 0.072 0.082 0.139 0.17 0.2 0.26 a0.28 0.28 0 0 1 0 0.36l-0.69 0.76 a0.34 0.34 0 0 0 0 0.54l0.6 0.67 v0.19c0 0.03-0.08 0-0.13 0H3.99l-0.4 0.08 zM0 5.09l0.51-0.58c0.1-0.12 0.21 -0.24 0.32 -0.35a0.29 0.29 0 0 0 0-0.42 5.19 5.19 0 0 0-0.33-0.45l-0.33-0.38a0.33 0.33 0 0 1 0-0.52c0.23-0.25 0.46 -0.49 0.67 -0.74a0.56 0.56 0 0 1 0.48-0.22h0.79a0.19 0.19 0 0 1 0.14 0.07 v0.13l-0.71 0.79 a0.27 0.27 0 0 0-0.05 0.38 c0.078 0.123 0.165 0.24 0.26 0.35 l0.41 0.49 c0.16 0.2 0.22 0.34 0 0.58-0.22 0.24 -0.42 0.46 -0.64 0.69 a0.32 0.32 0 0 0 0 0.5l0.65 0.75 a0.27 0.27 0 0 1 0.07 0.08 c0 0.06 0 0.1-0.06 0.1 H1.11a0.24 0.24 0 0 1-0.17-0.09C0.63 6 0.38 5.72 0.14 5.44A1.64 1.64 0 0 1 0 5.22v-0.13zM21.41 3.38l-0.26-2h1.57c0.11 0 0.14 0 0.16 0.14 0.06 0.48 0.14 1 0.18 1.45a2.16 2.16 0 0 1 0 0.67 1 1 0 0 1-0.71 0.77 l-0.14 0.06 1.49 1.8h-1.82a0.25 0.25 0 0 1-0.2-0.09L20.2 4.4l-0.11-0.1h-0.05l0.26 1.95h-1.57c-0.1 0-0.14 0-0.15-0.13-0.06-0.5-0.15-1-0.19-1.5a2.27 2.27 0 0 1 0.07-0.73 1 1 0 0 1 0.64-0.72l0.14-0.06-1.46-1.72h1.73a0.25 0.25 0 0 1 0.22 0.1 l1.54 1.83 0.1 0.09 0.04 -0.03zM10.21 1.38h3.25a1.94 1.94 0 0 1 1 0.23c0.376 0.22 0.65 0.579 0.76 1 0.17 0.57 0.29 1.15 0.43 1.72 0.084 0.275 0.105 0.566 0.06 0.85a1.18 1.18 0 0 1-1 1h-1.65c-0.07 0-0.13 0-0.12-0.1a2.33 2.33 0 0 1 0.18-0.83 0.28 0.28 0 0 1 0.29-0.19 0.54 0.54 0 0 0 0.59-0.63c-0.1-0.45-0.21-0.9-0.32-1.34a0.75 0.75 0 0 0-1-0.61 0.12 0.12 0 0 0-0.07 0.07 0.22 0.22 0 0 0 0 0.08v3.48c0 0.17 0 0.17-0.17 0.17 H11c-0.11 0-0.15 0-0.14-0.13L11 3.57v-1c0-0.09 0-0.14-0.11-0.16a0.48 0.48 0 0 1-0.19-0.09 1.52 1.52 0 0 1-0.49-0.94zM33.06 1.38h2.81a1.46 1.46 0 0 1 1.51 1c0.099 0.326 0.166 0.661 0.2 1 0.05 0.247 0.08 0.498 0.09 0.75 0.02 0.17 0.02 0.34 0 0.51a0.75 0.75 0 0 1-0.39 0.5 h0.69c0.29 0 0.24 0 0.26 0.24 a1 1 0 0 1-0.25 0.79 0.31 0.31 0 0 1-0.2 0.09 H33.6a1.56 1.56 0 0 1 0.4-1.05 0.21 0.21 0 0 1 0.16 0h1.28a0.58 0.58 0 0 0 0.56-0.7c0-0.26 0-0.52-0.08-0.78s0-0.37-0.09-0.56a0.83 0.83 0 0 0-0.83-0.68h-1.24a0.25 0.25 0 0 1-0.21-0.1 2.31 2.31 0 0 1-0.45-0.81v-0.12l-0.04-0.08zM29.54 6.28h-1.18c-0.09 0-0.13 0-0.13-0.12a1.79 1.79 0 0 1 0.21-0.88 0.18 0.18 0 0 1 0.19-0.11h0.63c0.12 0 0.15 0 0.13-0.15-0.05-0.41-0.1-0.81-0.16-1.22 0-0.23-0.05-0.46-0.08-0.68a0.65 0.65 0 0 0-0.71-0.64 0.46 0.46 0 0 1-0.44-0.22 1.93 1.93 0 0 1-0.31-0.77c0-0.06 0-0.11 0.07 -0.11h1.63a1.36 1.36 0 0 1 1.31 1.11c0.087 0.366 0.154 0.737 0.2 1.11 0.09 0.65 0.17 1.29 0.26 1.94a1.61 1.61 0 0 1 0 0.38 0.41 0.41 0 0 1-0.44 0.36 h-1.18zM15.67 1.41h1.61c0.1 0 0.14 0 0.15 0.12 l0.36 2.66c0.08 0.64 0.17 1.28 0.26 1.92a0.86 0.86 0 0 1 0 0.17h-1.6c-0.1 0-0.14 0-0.15-0.13l-0.39-2.84c-0.07-0.58-0.15-1.16-0.23-1.74a0.81 0.81 0 0 1-0.01-0.16zM6.81 6.34h-0.43a0.38 0.38 0 0 1-0.33-0.14l-0.65-0.74-0.12-0.18a0.25 0.25 0 0 1 0-0.34l0.72-0.8a0.33 0.33 0 0 0 0-0.5c-0.17-0.2-0.36-0.4-0.53-0.61a1.34 1.34 0 0 1-0.22-0.31 0.22 0.22 0 0 1 0-0.28l0.86-0.91a0.35 0.35 0 0 1 0.21-0.1h0.97a0.21 0.21 0 0 1 0.12 0.08 v0.11l-0.53 0.58 -0.22 0.24 a0.26 0.26 0 0 0 0 0.39c0.13 0.17 0.27 0.33 0.41 0.49 0.14 0.16 0.2 0.23 0.29 0.35 a0.32 0.32 0 0 1 0 0.51l-0.63 0.7 a0.37 0.37 0 0 0 0 0.58l0.49 0.54 c0.052 0.049 0.099 0.102 0.14 0.16 a0.75 0.75 0 0 1 0.06 0.13 0.33 0.33 0 0 1-0.13 0h-0.48v0.05z" fill="#FFF"/>
  <path d="M40.24 6.28h-1.48c-0.12 0-0.15 0-0.17-0.15-0.09-0.71-0.18-1.42-0.28-2.13a0.23 0.23 0 0 1 0.09-0.22 2 2 0 0 1 1-0.46h0.34c0.11 0 0.11 0 0.12 0.1 l0.36 2.76a0.55 0.55 0 0 1 0.02 0.1 zM31.08 1.39h1.56c0.1 0 0.14 0 0.15 0.12 0.09 0.76 0.19 1.51 0.28 2.27 0 0.07 0 0.1-0.08 0.12 a3 3 0 0 1-1.53 0c-0.07 0-0.09-0.06-0.1-0.13-0.09-0.76-0.19-1.51-0.28-2.26a0.4 0.4 0 0 1 0-0.12zM9.1 1.38h0.67c0.12 0 0.17 0 0.19 0.15 0.07 0.61 0.15 1.21 0.23 1.82 0 0.14 0 0.27 0.05 0.41a0.1 0.1 0 0 1-0.08 0.13 c-0.5 0.14 -1.03 0.14 -1.53 0a0.14 0.14 0 0 1-0.09-0.11l-0.3-2.25c0-0.12 0-0.15 0.13 -0.14l0.73-0.01z" fill="#FFF"/>
</svg>
