<?xml version="1.0" ?>
<svg xmlns="http://www.w3.org/2000/svg" width="44" height="25" viewBox="0 0 44 25">
  <path d="M32 3.73a1.6 1.6 0 0 0-0.71 1A9.3 9.3 0 0 0 31 7.58v14.06a5.64 5.64 0 0 1-0.5 2.36c-0.1 0.22 -0.19 0.46 -0.31 0.68 a0.26 0.26 0 0 1-0.21 0.14 c-0.45 0-0.89-0.08-1.33-0.11-0.44-0.03-1.11-0.06-1.66-0.11l-2.66-0.23-1.16-0.09c-0.58 0-1.16-0.06-1.74-0.11l-2.58-0.22-1.19-0.09L16 23.7l-2.62-0.23-1.19-0.09c-0.58 0-1.17-0.06-1.76-0.11l-2.55-0.22c-0.56-0.05-1.12-0.05-1.67-0.11a1.36 1.36 0 0 1-0.21-0.07l0.14-0.19c0.43-0.44 0.84 -0.9 1.29-1.32a2.14 2.14 0 0 0 0.51-1 8.48 8.48 0 0 0 0.26-2.46V8.97c0-0.88-0.05-1.76 0-2.64a5.69 5.69 0 0 1 0.92-2.95 0.4 0.4 0 0 1 0.37-0.19c2.06 0.06 4.12 0.12 6.19 0.16 l6.67 0.11 8 0.17 1.49 0.06 0.16 0.04 z" fill="#FFF"/>
  <path d="M31.64 19.11H36c0.18 0 0.23 0 0.23-0.22V8.31c0-0.15-0.05-0.22-0.19-0.23h-0.14L33.43 8c-0.49 0-1 0-1.48-0.09a0.23 0.23 0 0 1-0.19-0.15 3.76 3.76 0 0 1-0.14-1.67 2.47 2.47 0 0 1 0.45-1.11 0.34 0.34 0 0 1 0.23-0.13c0.44 0 0.87 0 1.3 0.07 0.15 0 0.25 0 0.31-0.16 0.26 -0.65 0.53 -1.29 0.79 -1.94v-0.07h-0.14l-4.3-0.09-7.86-0.24-6.95-0.17c-2.41-0.06-4.81-0.11-7.21-0.18-1.5 0-3-0.08-4.49-0.13a0.27 0.27 0 0 0-0.3 0.14 l-1 1.81-0.07 0.11 H8c-0.12 0.18 -0.24 0.32 -0.32 0.47 a2.4 2.4 0 0 0-0.2 1.18v14.66a0.34 0.34 0 0 1-0.15 0.31 l-1.47 1.16a0.31 0.31 0 0 1-0.21 0.06 c-0.36-0.06-0.72-0.13-1.07-0.21-0.12 0-0.16-0.1-0.17-0.22a0.7 0.7 0 0 1 0.33-0.69c0.62-0.47 1.23-1 1.83-1.46A0.44 0.44 0 0 0 6.7 19V6.38c0-0.3 0-0.3-0.3-0.3H1.69c-0.19 0-0.3 0-0.3-0.25s-0.06-0.16-0.18-0.15H0.79A0.72 0.72 0 0 1 0 5a2.93 2.93 0 0 1 0.1-0.78 12.69 12.69 0 0 1 1.35-3A2.28 2.28 0 0 1 3.17 0.05 a6.57 6.57 0 0 1 1 0h1.11l5.8 0.11 7.46 0.17 L25.9 0.5 l7.36 0.18 7.38 0.17 1.54 0.05 a1.52 1.52 0 0 1 1.29 1c0.054 0.21 0.085 0.424 0.09 0.64 v3.09a13.76 13.76 0 0 1-0.26 1.9c-0.07 0.37 -0.41 0.53 -0.74 0.64 a3.1 3.1 0 0 1-1.56 0.17 h-0.15L38 8.2c-0.19 0-0.25 0-0.25 0.25 v10.16c0 0.22 0.06 0.27 0.26 0.26 0.2 -0.01 0.63 0 0.94 0 0.14 0 0.19 0.06 0.19 0.19 v1.06a0.67 0.67 0 0 1-0.17 0.35 l-2.66 3.66a0.34 0.34 0 0 1-0.24 0.13 h-1.15c-0.16 0-0.21-0.06-0.22-0.23a1.67 1.67 0 0 1 0.39-1.26c0.37-0.47 0.69 -1 1-1.47 0.18 -0.25 0.08 -0.52 0.08 -0.78 0 0-0.15-0.08-0.23-0.08h-4.1c-0.19 0-0.27-0.05-0.26-0.26 0.01 -0.21 0.06 -0.7 0.06 -1.07z" fill="#FFF"/>
</svg>
