<?xml version="1.0" ?>
<svg xmlns="http://www.w3.org/2000/svg" width="44" height="18" viewBox="0 0 44 18">
  <path d="M10.31 5.61l-0.38 0.27 c-0.13 0.1 -0.16 0.19 0 0.27l0.29 0.16 a0.7 0.7 0 0 0 0.86-0.11c0.6-0.49 1.2-1 1.82-1.45a23.52 23.52 0 0 1 6.76-3.51 23.1 23.1 0 0 1 3.4-0.83l1.12-0.19a0.6 0.6 0 0 0 0.2-0.08 0.91 0.91 0 0 1 0.7-0.13c1 0 2 0.11 2.94 0.12 1.82 0 3.64 0.1 5.45 0.28 0.7 0.07 1.38 0.21 2.07 0.29 0.69 0.08 1.55 0.13 2.32 0.2 0.14 0 0.31 0 0.35 0.17 a0.36 0.36 0 0 1-0.22 0.47 l-0.32 0.18 c0.066 0.055 0.136 0.105 0.21 0.15 a9.71 9.71 0 0 1 3.06 2.89 0.41 0.41 0 0 0 0.32 0.18 c0.251 0.043 0.499 0.107 0.74 0.19 0.213 0.107 0.37 0.3 0.43 0.53 -0.34 0-0.7-0.06-1.06-0.06a3 3 0 0 0-1.52 0.51 0.44 0.44 0 0 0-0.11 0.73 c0.52 0.59 1 1.17 1.6 1.74 0.26 0.268 0.63 0.398 1 0.35 0.31 0 0.42-0.18 0.39 -0.49-0.03-0.31 0-0.71 0-1.06a0.73 0.73 0 0 1 0.08-0.25h0.07v0.2c0 0.4 0 0.81 0.08 1.22a0.35 0.35 0 0 0 0.1 0.24 0.9 0.9 0 0 1 0.33 0.73 l0.09 2.74c0 0.23 0.06 0.46 0.06 0.69a0.5 0.5 0 0 1-0.09 0.34 4.08 4.08 0 0 1-1.47 1.3 2.39 2.39 0 0 1-0.29 0.1 v-0.28a4.15 4.15 0 1 0-8.24 0.62 c0 0.15 0 0.21-0.16 0.21 h-0.37L19 15.52l-6.38 0.09 c-0.37 0-0.35 0-0.29-0.35A4.06 4.06 0 0 0 11 11.35a4.15 4.15 0 0 0-6.73 4.25v0.14h-0.08a6.85 6.85 0 0 1-2.8-0.42 1.57 1.57 0 0 1-0.47-0.3c-0.22-0.19-0.43-0.41-0.63-0.62a0.63 0.63 0 0 1-0.17-0.61 5.58 5.58 0 0 0 0-1A19.22 19.22 0 0 1 0 10.21a3 3 0 0 1 1.87-2.67A22.69 22.69 0 0 1 5.8 6.22C6.93 6 8.06 5.7 9.2 5.49a5 5 0 0 1 1.09 0l0.02 0.12 zm7.55 0.89 c1-0.1 1.93-0.21 2.91-0.29C21.75 6.13 22.92 6 24 6c0.44 0 0.44 0.08 0.59-0.44 0.41 -1.42 0.72 -2.86 1-4.32 0-0.15 0-0.24-0.18-0.22-0.8 0.07 -1.6 0.11 -2.38 0.23 -0.78 0.12 -1.54 0.29 -2.3 0.46 a14.2 14.2 0 0 0-2.73 0.86 0.38 0.38 0 0 0-0.23 0.29 c-0.18 0.77 -0.38 1.53-0.58 2.29a0.74 0.74 0 0 0 0.08 0.72 0.6 0.6 0 0 1 0.08 0.2 c0 0.14 0 0.35 0.11 0.41s0.24 0.02 0.4 0.02 zm12.74-0.8h3.31c0.26 0 0.29 0 0.29-0.29 0-1.17 0-2.34-0.05-3.51a0.27 0.27 0 0 0-0.24-0.3 7 7 0 0 0-0.77-0.16c-0.82-0.1-1.64-0.22-2.46-0.29-0.82-0.07-1.93-0.15-2.89-0.15-0.18 0-0.25 0.07 -0.26 0.23 l-0.12 1.2c-0.1 1-0.19 2-0.3 3.05 0 0.33 0 0.34 0.29 0.33l3.2-0.11zm4.63-3.59c0.06 0.36 0.13 0.72 0.19 1.09 0.13 0.72 0.25 1.44 0.38 2.16 0 0.16 0.09 0.23 0.27 0.19 0.68 -0.14 1.37-0.25 2-0.4a8.54 8.54 0 0 0 1.05-0.34c0.25-0.09 0.28 -0.19 0.12 -0.42A2.17 2.17 0 0 0 39 4c-0.29-0.26-0.58-0.53-0.89-0.77A6.88 6.88 0 0 0 35.46 2c-0.12-0.07-0.25-0.1-0.23 0.11 zM1.73 9.83h0.48a2.28 2.28 0 0 0 1.17-0.34c0.79-0.6 1.56-1.21 2.33-1.82 0.08 -0.06 0.15 -0.26 0.11 -0.3a0.42 0.42 0 0 0-0.33-0.14c-0.22 0-0.44 0-0.67 0.06 A8.54 8.54 0 0 0 2 8.05a1.38 1.38 0 0 1-0.68 0.23 0.31 0.31 0 0 0-0.18 0.07 c-0.23 0.21 -0.45 0.42 -0.66 0.65 -0.21 0.23 -0.09 0.22 0.06 0.31 a0.81 0.81 0 0 1 0.34 0.29 0.42 0.42 0 0 0 0.48 0.24 l0.37-0.01zM17.38 2.9a0.75 0.75 0 0 0-0.2 0c-0.808 0.357 -1.576 0.8 -2.29 1.32a1.64 1.64 0 0 0-0.62 0.71 l-0.6 1.84c-0.05 0.16 0 0.23 0.18 0.21l0.85-0.08c0.2 0 0.24-0.09 0.24 -0.29a1.1 1.1 0 0 1 0.11-0.6 1.56 1.56 0 0 1 1.45-0.75c0.19 0 0.25-0.07 0.3 -0.23 0.1 -0.39 0.21 -0.78 0.32 -1.17 0.11 -0.39 0.17 -0.6 0.26 -0.96z" fill="#FFF"/>
  <path d="M11.84 14.42A3.56 3.56 0 0 1 8.26 18a3.59 3.59 0 1 1 3.58-3.6v0.02zm-3.57-2.64a2.65 2.65 0 1 0 2.64 2.65 2.66 2.66 0 0 0-2.64-2.65zM37.48 10.74a3.59 3.59 0 1 1 0 7.17 3.59 3.59 0 1 1 0-7.17zm0 6.23a2.65 2.65 0 1 0-2.65-2.67 2.67 2.67 0 0 0 2.64 2.7l0.01-0.03z" fill="#FFF"/>
</svg>
