<?xml version="1.0" ?>
<svg xmlns="http://www.w3.org/2000/svg" width="38" height="32" viewBox="0 0 38 32">
  <path d="M18.76 0h17.06a1.56 1.56 0 0 1 1.56 1c0.063 0.149 0.097 0.308 0.1 0.47 v8.25a3.11 3.11 0 0 1-1.82 2.78 3.54 3.54 0 0 1-1.69 0.37 H3.42a3.28 3.28 0 0 1-3-1.75A3 3 0 0 1 0 9.65V1.52A1.53 1.53 0 0 1 1.15 0.07 2.53 2.53 0 0 1 1.7 0h17.06zm0 8.2H2.91a0.57 0.57 0 0 0-0.57 0.58 0.6 0.6 0 0 0 0.66 0.59 h31.52a0.59 0.59 0 1 0 0-1.17H18.76zm0 2.34H2.9a0.57 0.57 0 0 0-0.5 0.82 0.61 0.61 0 0 0 0.62 0.35 h31.52a0.58 0.58 0 0 0 0.53-0.86 0.6 0.6 0 0 0-0.62-0.32l-15.69 0.01 zm0-8.2h-2.91a0.59 0.59 0 0 0-0.62 0.61 0.61 0.61 0 0 0 0.62 0.56 h5.76a0.6 0.6 0 0 0 0.64-0.51 0.59 0.59 0 0 0-0.61-0.62l-2.88-0.04zM23.66 25.21l0.87 0.56 c0.62 0.4 1.24 0.8 1.86 1.21a0.57 0.57 0 0 1-0.08 1 0.59 0.59 0 0 1-0.6-0.08l-2.13-1.38-0.15-0.07c0 0.22 0.06 0.4 0.1 0.58 0.11 0.51 0.23 1 0.34 1.52a0.62 0.62 0 0 1-0.5 0.7 0.63 0.63 0 0 1-0.66-0.52c-0.11-0.56-0.24-1.11-0.35-1.67l-0.24-1.19a0.65 0.65 0 0 0-0.31-0.49c-0.59-0.35-1.15-0.73-1.73-1.1a0.33 0.33 0 0 0-0.45 0.23 v2.65a0.36 0.36 0 0 0 0.12 0.21 l2 2a0.68 0.68 0 0 1 0.14 0.69 0.57 0.57 0 0 1-0.56 0.32 0.77 0.77 0 0 1-0.38-0.19c-0.39-0.37-0.77-0.76-1.14-1.15a1.17 1.17 0 0 1-0.11-0.04h-0.06v1.99a0.61 0.61 0 0 1-0.33 0.56 0.58 0.58 0 0 1-0.83-0.51v-1.83-0.25l-0.22 0.21 -1.09 1.1a0.55 0.55 0 0 1-0.93-0.16 0.63 0.63 0 0 1 0.13-0.69l2-2a0.43 0.43 0 0 0 0.11-0.26v-2.43a0.2 0.2 0 0 0-0.14-0.22 0.82 0.82 0 0 1-0.26-0.11c-0.16-0.15-0.29-0.1-0.45 0-0.45 0.3 -0.91 0.59 -1.36 0.88 a0.43 0.43 0 0 0-0.2 0.32 c-0.08 0.42 -0.18 0.83 -0.26 1.24-0.08 0.41 -0.11 0.57 -0.17 0.85 -0.06 0.28 -0.17 0.84 -0.29 1.25a0.54 0.54 0 0 1-0.66 0.34 0.62 0.62 0 0 1-0.42-0.73c0.08-0.32 0.14 -0.64 0.21 -1l0.27-1.2a0.78 0.78 0 0 0 0-0.12l-0.35 0.21 -2 1.31a0.56 0.56 0 0 1-0.8-0.14 0.58 0.58 0 0 1 0.18-0.84L14 25.32l0.22-0.17-1.42-0.41a5.63 5.63 0 0 1-0.69-0.22 0.55 0.55 0 0 1-0.24-0.76 0.58 0.58 0 0 1 0.7-0.3c0.39 0.12 0.78 0.22 1.17 0.33 0.39 0.11 0.94 0.26 1.41 0.41 a0.69 0.69 0 0 0 0.71-0.08c0.39-0.3 0.82 -0.54 1.24-0.81a0.18 0.18 0 0 0 0.09-0.22 5.16 5.16 0 0 1 0-0.54 0.25 0.25 0 0 0-0.07-0.17l-1.56-1a0.23 0.23 0 0 0-0.16 0l-2 0.55-1.13 0.34 a0.61 0.61 0 0 1-0.7-0.41 0.62 0.62 0 0 1 0.44-0.75l1.72-0.49 0.41 -0.11-0.71-0.51-1.74-1.12a0.6 0.6 0 0 1-0.17-0.82 0.57 0.57 0 0 1 0.8-0.17l1.94 1.25 0.16 0.1a0.49 0.49 0 0 0 0-0.12c-0.08-0.39-0.17-0.78-0.25-1.17-0.08-0.39-0.17-0.63-0.17-0.95a0.56 0.56 0 0 1 0.47-0.6 0.55 0.55 0 0 1 0.64 0.43 c0.11 0.43 0.19 0.87 0.29 1.31l0.27 1.22c0.05 0.24 0.1 0.47 0.16 0.71 0.021 0.054 0.06 0.1 0.11 0.13 l1.75 1.14a0.22 0.22 0 0 0 0.28 0c0.12-0.08 0.27 -0.13 0.4 -0.21a0.23 0.23 0 0 0 0.11-0.15v-2.51a0.33 0.33 0 0 0-0.1-0.2l-2-2a0.61 0.61 0 0 1-0.13-0.67 0.53 0.53 0 0 1 0.58-0.34 0.75 0.75 0 0 1 0.36 0.19 c0.43 0.4 0.86 0.82 1.29 1.24v-0.17-1.88a0.61 0.61 0 0 1 0.4-0.55 0.56 0.56 0 0 1 0.64 0.22 0.83 0.83 0 0 1 0.12 0.39 v2.05l0.16-0.15c0.38-0.38 0.77 -0.76 1.14-1.15a0.57 0.57 0 0 1 0.83 0 0.64 0.64 0 0 1 0 0.85l-2 2a0.38 0.38 0 0 0-0.12 0.3 v2.43c0 0.25 0.19 0.28 0.32 0.38 0.13 0.1 0.16 0 0.23-0.08 0.54 -0.35 1.07-0.71 1.62-1a0.62 0.62 0 0 0 0.32-0.44c0.08-0.4 0.16 -0.8 0.24 -1.19 0.08 -0.39 0.18 -0.8 0.27 -1.2a6.48 6.48 0 0 1 0.16-0.69 0.55 0.55 0 0 1 0.67-0.34c0.31 0.1 0.485 0.426 0.4 0.74 -0.07 0.27 -0.13 0.55 -0.19 0.83 l-0.21 1v0.27l0.32-0.31c0.67-0.43 1.34-0.87 2-1.29a0.56 0.56 0 0 1 0.75 0.19 0.57 0.57 0 0 1-0.14 0.78 c-0.55 0.37 -1.12 0.73 -1.67 1.09l-1.09 0.7 0.86 0.25 c0.48 0.14 1 0.27 1.43 0.44 a0.53 0.53 0 0 1 0.26 0.76 0.58 0.58 0 0 1-0.71 0.3 c-0.38-0.12-0.77-0.22-1.15-0.33L23 21.48c-0.18-0.05-0.36-0.12-0.54-0.15a0.32 0.32 0 0 0-0.2 0.07 l-1.45 0.94 c-0.12 0.08 -0.19 0.15 -0.13 0.32 a1 1 0 0 1 0 0.41c0 0.1 0 0.16 0.09 0.23l1.54 1a0.32 0.32 0 0 0 0.23 0l1.94-0.53 1.14-0.34a0.6 0.6 0 0 1 0.74 0.46 0.63 0.63 0 0 1-0.47 0.7 l-1.72 0.49 -0.51 0.13 zm-5.2-2.4a0.59 0.59 0 0 0 0.58 0.6 0.585 0.585 0 1 0 0-1.17 0.58 0.58 0 0 0-0.58 0.57 z" fill="#FFF"/>
</svg>
