<?xml version="1.0" ?>
<svg xmlns="http://www.w3.org/2000/svg" width="22" height="37" viewBox="0 0 22 37">
  <path d="M13.71 17.08a11.2 11.2 0 0 0-1.19-4.53h-0.06a1.21 1.21 0 0 0 0 0.19V34.2a1.8 1.8 0 0 1-2.21 1.8 1.77 1.77 0 0 1-1.35-1.52v-1.44-11.55c0-0.23 0-0.23-0.23-0.24-0.45 0-0.45 0-0.45 0.46 v12.47a1.74 1.74 0 0 1-1 1.71 1.77 1.77 0 0 1-2.51-1.57v-21.6-0.21a1.24 1.24 0 0 0-0.15 0.21 14 14 0 0 0-0.58 1.47A19.47 19.47 0 0 0 3.32 20c0 0.51 0 1 0.05 1.52a1.18 1.18 0 0 1-1.08 1.28 1.15 1.15 0 0 1-1.23-1.14c0-1-0.07-2-0.06-3a20.66 20.66 0 0 1 0.43-4.15 9.48 9.48 0 0 1 1.26-3.29 4.25 4.25 0 0 1 2.2-1.87 3.59 3.59 0 0 1 1-0.18h5.14a3.41 3.41 0 0 1 2.11 0.7 5.63 5.63 0 0 1 1.75 2.29c0.385 0.878 0.667 1.797 0.84 2.74a0.4 0.4 0 0 1-0.14 0.42 c-0.58 0.53 -1.15 1.08-1.72 1.62l-0.16 0.14 zm-3.8 0.9 c-0.07-0.49-0.13-0.92-0.19-1.36-0.11-0.8-0.22-1.6-0.32-2.4l-0.24-1.75c0-0.21 0-0.19-0.25-0.16a3.05 3.05 0 0 1-0.74 0c-0.14 0-0.22 0-0.24 0.14 -0.02 0.14 0 0.45-0.08 0.68 -0.1 0.76 -0.21 1.53-0.31 2.29s-0.23 1.67-0.33 2.5a0.45 0.45 0 0 0 0.09 0.3 c0.37 0.49 0.75 1 1.13 1.45 0.09 0.12 0.14 0.12 0.24 0 0.37-0.49 0.76 -1 1.14-1.46a0.69 0.69 0 0 0 0.1-0.21v-0.02zM8.55 10.5h-0.39a0.16 0.16 0 0 0-0.2 0.14 c-0.06 0.27 -0.12 0.53 -0.2 0.79 a0.24 0.24 0 0 0 0.13 0.3 c0.406 0.27 0.934 0.27 1.34 0a0.2 0.2 0 0 0 0.1-0.26c-0.05-0.22-0.09-0.44-0.16-0.65-0.07-0.21 0-0.29-0.37-0.3l-0.25-0.02z" fill="#FFF" stroke-width=".2" stroke="#FFF"/>
  <path d="M12.87 22.82v-0.21-2.45a0.31 0.31 0 0 1 0.15-0.29l6.41-4.4a0.92 0.92 0 0 1 1.06 0 2.1 2.1 0 0 1 1.07 1.8 0.92 0.92 0 0 1-0.51 0.88 L17.76 20l-4.68 2.68-0.21 0.14 zM21.28 17a1.51 1.51 0 0 0-0.7-1.25 0.48 0.48 0 0 0-0.5 0 0.47 0.47 0 0 0-0.2 0.48 1.5 1.5 0 0 0 0.7 1.17 0.45 0.45 0 0 0 0.5 0.05 0.42 0.42 0 0 0 0.2-0.45zm-1.49-1.18a0.37 0.37 0 0 0-0.29 0.33 c-0.05 0.6 0.276 1.17 0.82 1.43 0.093 0.01 0.187 0.01 0.28 0a1.48 1.48 0 0 1-0.81-1.79v0.03zM10.45 0.67 a3 3 0 0 1 0.85 0.84 3.27 3.27 0 0 1 0.57 1.65 0.16 0.16 0 0 0 0.12 0.16 0.44 0.44 0 0 1 0.38 0.51 c0 0.22-0.22 0.36 -0.51 0.36 h-6.5a1.32 1.32 0 0 1-0.28 0 0.39 0.39 0 0 1-0.35-0.37 0.38 0.38 0 0 1 0.27-0.47c0.2 0 0.21-0.15 0.22 -0.31A3.29 3.29 0 0 1 6.56 0.72 h0.08a1.37 1.37 0 0 1 0 0.19 0.36 0.36 0 0 0 0.36 0.34 c0.19 0 0.32-0.15 0.32 -0.38V0.48a0.21 0.21 0 0 1 0.22-0.26l0.51-0.11c0.12 0 0.15 0 0.15 0.13 v0.61c0 0.25 0.14 0.41 0.35 0.4 0.21 -0.01 0.34 -0.16 0.35 -0.4v-0.6c0-0.12 0-0.17 0.15 -0.14l0.55 0.13 c0.11 0 0.15 0.09 0.15 0.2 a3.53 3.53 0 0 0 0 0.46 0.32 0.32 0 0 0 0.32 0.35 0.33 0.33 0 0 0 0.35-0.31 1.7 1.7 0 0 0 0.03-0.27zM8.55 4.48h3c0.22 0 0.24 0 0.25 0.24 a3.25 3.25 0 0 1-6.37 1.12 3.42 3.42 0 0 1-0.13-1.1c0-0.25 0-0.26 0.27 -0.26h2.98z" fill="#FFF" stroke-width=".2" stroke="#FFF"/>
  <path d="M19.94 15v-0.06a1.49 1.49 0 0 1-1.17-1.57c-0.06 0.08 -0.15 0.17 -0.15 0.26 a0.9 0.9 0 0 0 0.05 0.46 c0.161 0.45 0.536 0.792 1 0.91-0.24 0.15 -0.49 0.29 -0.72 0.45 l-5.85 4-0.24 0.15 a1.31 1.31 0 0 1 0-0.15v-1a0.46 0.46 0 0 1 0.15-0.26c1.19-1.14 2.4-2.27 3.6-3.41 0.56 -0.53 1.14-1.05 1.69-1.6a1 1 0 0 1 1.3-0.21 2 2 0 0 1 1.19 1.58 1.89 1.89 0 0 1-0.07 0.57 c0 0.11-0.1 0.12 -0.2 0.08 l-0.58-0.2zM19 13.52a1.5 1.5 0 0 0 0.92 1.19c0.4 0.15 0.69-0.07 0.64 -0.49a1.51 1.51 0 0 0-1-1.12 0.39 0.39 0 0 0-0.56 0.42 zM14.11 22.46L16 21.37a1.15 1.15 0 0 1-0.5 1.26 1.08 1.08 0 0 1-1.39-0.17z" fill="#FFF" stroke-width=".2" stroke="#FFF"/>
  <path d="M9.91 18a0.69 0.69 0 0 1-0.1 0.22 c-0.38 0.49 -0.77 1-1.14 1.46-0.1 0.12 -0.15 0.12 -0.24 0-0.38-0.49-0.76-1-1.13-1.45a0.45 0.45 0 0 1-0.09-0.3c0.1-0.83 0.22 -1.67 0.33 -2.5 0.11 -0.83 0.21 -1.53 0.31 -2.29 0-0.23 0.06 -0.45 0.08 -0.68 0.02 -0.23 0.1 -0.15 0.24 -0.14 0.246 0.03 0.494 0.03 0.74 0 0.21 0 0.22-0.05 0.25 0.16l0.24 1.75c0.1 0.8 0.21 1.6 0.32 2.4L9.91 18zM8.55 10.5h0.25c0.38 0 0.27 0 0.37 0.3 0.1 0.3 0.11 0.43 0.16 0.65 a0.2 0.2 0 0 1-0.1 0.26 1.21 1.21 0 0 1-1.34 0 0.24 0.24 0 0 1-0.13-0.3c0.08-0.26 0.14 -0.52 0.2 -0.79a0.16 0.16 0 0 1 0.2-0.14l0.39 0.02 zM21.28 17a0.42 0.42 0 0 1-0.2 0.41 0.45 0.45 0 0 1-0.5-0.05 1.5 1.5 0 0 1-0.7-1.17 0.47 0.47 0 0 1 0.2-0.48 0.48 0.48 0 0 1 0.5 0c0.44 0.28 0.705 0.768 0.7 1.29z" fill="#699305"/>
  <path d="M19.79 15.79a1.48 1.48 0 0 0 0.81 1.79 1.27 1.27 0 0 1-0.28 0 1.45 1.45 0 0 1-0.82-1.43 0.37 0.37 0 0 1 0.29-0.36z" fill="#FFF"/>
  <path d="M19 13.52a0.39 0.39 0 0 1 0.52-0.42c0.508 0.17 0.89 0.596 1 1.12 0.05 0.42-0.24 0.64 -0.64 0.49 a1.5 1.5 0 0 1-0.88-1.19z" fill="#699305"/>
</svg>
