<?xml version="1.0" ?>
<svg xmlns="http://www.w3.org/2000/svg" width="37" height="31" viewBox="0 0 37 31">
  <path d="M29.89 23.36L22.73 21a1.62 1.62 0 0 0 0.27-1v-3.09a1.5 1.5 0 0 0-0.43-1.1c-0.62-0.667-1.237-1.333-1.85-2a0.41 0.41 0 0 1-0.11-0.25V8.99v-0.14l0.9 0.29 1.41 0.49 a0.41 0.41 0 0 1 0.2 0.17 l1.95 3.58a1.11 1.11 0 0 0 2.09-0.7 3.07 3.07 0 0 0-0.35-0.77l-2-3.71a1.28 1.28 0 0 0-0.81-0.6L22.31 7l-1.44-0.46c-0.41-0.13-0.81-0.27-1.23-0.39a2.37 2.37 0 0 0-0.64-0.07h-4.38a0.66 0.66 0 0 1-0.36-0.12c-1.19-0.85-2.38-1.7-3.56-2.58a1.15 1.15 0 0 0-1.53 0.07 1.11 1.11 0 0 0 0.13 1.68c1.36 1 2.73 2 4.09 3 0.2 0.145 0.442 0.222 0.69 0.22 h2.11v4.15c-0.18 0-0.36 0.06 -0.54 0.07 l-1.42 0.1 c-0.38 0-0.76 0.07 -1.14 0.13 a1.26 1.26 0 0 0-0.86 0.64 c-0.72 1.17-1.44 2.33-2.15 3.5a0.21 0.21 0 0 1-0.28 0.12 l-1.5-0.47-1.52-0.46-1.28-0.4-1.29-0.4-1.28-0.39-1.28-0.4-1.09-0.34H0.33c0.05 0.23 0.08 0.42 0.15 0.61 a8.1 8.1 0 0 0 2.6 3.46 16.78 16.78 0 0 0 3.36 2.23c1 0.53 2.11 1 3.19 1.5 0.66 0.29 1.34 0.51 2 0.75 0.66 0.24 1.09 0.38 1.64 0.55 0.55 0.17 1.06 0.31 1.6 0.46 l1.44 0.41 0.94 0.24 a0.62 0.62 0 0 1 0.26 0.14 11.16 11.16 0 0 0 2.88 2.06 5.9 5.9 0 0 0 1.65 0.55 l0.77 0.11 c0.16 0 0.2 0 0.2-0.18v-2.58-0.23h0.25c0.83 0 1.67 0.11 2.5 0.11 a14.7 14.7 0 0 0 2-0.15 4.34 4.34 0 0 0 1.9-0.63l0.13-0.09 0.1 -0.16zm-9.71-3.1l-0.93-0.26-1.52-0.46L16.2 19l-1.52-0.46c-0.59-0.18-1.18-0.38-1.77-0.55-0.15 0-0.14-0.11-0.09-0.2l1.37-2.23a0.24 0.24 0 0 1 0.15-0.1l1.51-0.14 1.1-0.09 0.94 -0.12a0.38 0.38 0 0 1 0.37 0.14 l1.83 2a0.44 0.44 0 0 1 0.1 0.27 v2.55c0 0.04-0.01 0.1 -0.01 0.19 z" fill="#FFF"/>
  <path d="M28.75 25.09a5.62 5.62 0 0 0-4 1.54c-0.4 0.35 -0.8 0.71 -1.23 1a2.5 2.5 0 0 1-1.29 0.47 3.17 3.17 0 0 1-2.61-1 8.53 8.53 0 0 0-1.9-1.46 4.67 4.67 0 0 0-1.72-0.48 11.42 11.42 0 0 0-1.29-0.06 5 5 0 0 0-2.87 1c-0.58 0.43 -1.12 0.92 -1.67 1.38a2.92 2.92 0 0 1-1.86 0.71 3.06 3.06 0 0 1-2.19-0.84 11.87 11.87 0 0 0-1.79-1.44 5.46 5.46 0 0 0-1.61-0.65 6.57 6.57 0 0 0-1.38-0.14 1.45 1.45 0 0 0-1.31 1 1.42 1.42 0 0 0 0.97 1.7 1 1 0 0 0 0.39 0.07 3.09 3.09 0 0 1 2.35 1 8.75 8.75 0 0 0 1.88 1.43 5.85 5.85 0 0 0 1.33 0.49 6.13 6.13 0 0 0 1.86 0.12 5 5 0 0 0 2.72-1c0.6-0.45 1.15-1 1.73-1.43a2.83 2.83 0 0 1 1.7-0.64 3.18 3.18 0 0 1 2.43 1 8.91 8.91 0 0 0 1.9 1.46 4.61 4.61 0 0 0 1.74 0.55 c0.419 0.043 0.84 0.063 1.26 0.06 a5.2 5.2 0 0 0 3.11-1.11c0.5-0.38 1-0.81 1.44-1.22a2.9 2.9 0 0 1 1.89-0.72 3 3 0 0 1 2.17 0.84 11.84 11.84 0 0 0 1.8 1.45 5.39 5.39 0 0 0 1.6 0.63 7 7 0 0 0 1.34 0.14 1.46 1.46 0 0 0 1.34-1 1.4 1.4 0 0 0-1-1.76 3.39 3.39 0 0 0-0.48-0.05 2.61 2.61 0 0 1-1.67-0.63c-0.49-0.4-1-0.82-1.44-1.22a5.2 5.2 0 0 0-1.93-1 5.63 5.63 0 0 0-1.71-0.19zM18.94 0a2.64 2.64 0 1 0 2.66 2.63A2.63 2.63 0 0 0 18.94 0z" fill="#FFF"/>
</svg>
