<?xml version="1.0" ?>
<svg xmlns="http://www.w3.org/2000/svg" width="26" height="36" viewBox="0 0 26 36">
  <path d="M4.74 11.78c0.06-0.72 0.1 -1.55 0.2 -2.38a13.77 13.77 0 0 1 0.35-1.67 13.82 13.82 0 0 1 0.51-1.66 16.68 16.68 0 0 1 0.8-1.71 9.46 9.46 0 0 1 2.21-2.74A7.18 7.18 0 0 1 10.72 0.46 a7.28 7.28 0 0 1 1.43-0.41A7.27 7.27 0 0 1 13.3 0a5 5 0 0 1 1.54 0.26 6.91 6.91 0 0 1 2.22 1.19 9.4 9.4 0 0 1 2.16 2.46 10.28 10.28 0 0 1 1 2.05c0.17 0.45 0.34 0.91 0.47 1.38 0.13 0.47 0.22 0.93 0.32 1.4a17 17 0 0 1 0.27 4.26c0 0.53-0.12 1.06-0.19 1.6a9.28 9.28 0 0 1-0.15 0.92 c-0.1 0.41 -0.21 0.82 -0.33 1.22a9.3 9.3 0 0 1-0.3 0.89 c-0.27 0.61 -0.54 1.21-0.84 1.8a9.16 9.16 0 0 1-1.74 2.32 7.88 7.88 0 0 1-2.07 1.45 6.12 6.12 0 0 1-3.26 0.55 8.1 8.1 0 0 1-1.4-0.3 6.35 6.35 0 0 1-2-1.1 8.77 8.77 0 0 1-1.59-1.63 9 9 0 0 1-1-1.67 16.5 16.5 0 0 1-0.75-1.79 11.87 11.87 0 0 1-0.49-1.67c-0.14-0.67-0.22-1.34-0.3-2-0.08-0.66-0.08-1.13-0.13-1.81zM12 7.23a3.5 3.5 0 0 0-0.13-0.56 1.34 1.34 0 0 0-1.08-0.93 1.52 1.52 0 0 0-1.4 0.5 4.91 4.91 0 0 0-0.79 1.48c-0.153 0.38 -0.286 0.767 -0.4 1.16-0.1 0.31 -0.17 0.62 -0.24 0.93 -0.07 0.31 -0.11 0.68 -0.15 1a13.81 13.81 0 0 0-0.11 1.57c-0.001 0.932 0.12 1.86 0.36 2.76a9 9 0 0 0 0.36 1.15c0.21 0.52 0.45 1 0.69 1.52 0.183 0.434 0.55 0.764 1 0.9A1.46 1.46 0 0 0 12 17.6a1.56 1.56 0 0 0-0.17-1.15 7.14 7.14 0 0 1-0.53-1.16c-0.152-0.446-0.28-0.9-0.38-1.36a6.52 6.52 0 0 1-0.15-1.76 8.19 8.19 0 0 1 0.45-2.65c0.16-0.47 0.35 -0.93 0.55 -1.38a2.17 2.17 0 0 0 0.23-0.91z" fill="#FFF"/>
  <path d="M13 35.71H7.76a1.52 1.52 0 1 1 0.01-3.04h3.53c0.23 0 0.23 0 0.23-0.23v-3.59c0-0.21 0-0.2-0.21-0.24-0.41-0.09-0.82-0.18-1.22-0.3A10.53 10.53 0 0 1 9 27.9a10.83 10.83 0 0 1-2.3-1.38A13 13 0 0 1 5 25a17.09 17.09 0 0 1-3-4.48c-0.27-0.63-0.54-1.25-0.77-1.89a13.06 13.06 0 0 1-0.44-1.51c-0.16-0.63-0.31-1.26-0.43-1.9-0.1-0.48-0.14-1-0.22-1.47A19 19 0 0 1 0 11a1.42 1.42 0 0 1 0.75-1.32 1.51 1.51 0 0 1 2.24 1c0.01 0.07 0.01 0.14 0 0.21 0 0.53 0 1.07 0.08 1.61s0.11 1.18 0.19 1.77c0.08 0.59 0.14 0.9 0.24 1.35 0.1 0.45 0.25 1 0.4 1.48 0.15 0.48 0.23 0.74 0.36 1.1a15.69 15.69 0 0 0 1 2.28 14.71 14.71 0 0 0 1.3 1.92 10.09 10.09 0 0 0 2 1.94 7.49 7.49 0 0 0 1.87 1c0.387 0.128 0.781 0.235 1.18 0.32 a5 5 0 0 0 1.34 0.12 7.91 7.91 0 0 0 1.81-0.26 7.55 7.55 0 0 0 2-0.88 9.52 9.52 0 0 0 2.07-1.73 12.28 12.28 0 0 0 1.62-2.24c0.27-0.49 0.54 -1 0.78-1.51s0.38-0.93 0.55 -1.4c0.17-0.47 0.28 -0.84 0.4 -1.26 0.12 -0.42 0.16 -0.62 0.22 -0.93 0.1 -0.49 0.19 -1 0.28-1.48a7.43 7.43 0 0 0 0.09-0.81c0.05-0.83 0.07 -1.66 0.14 -2.49a1.41 1.41 0 0 1 0.81-1.13 1.52 1.52 0 0 1 1.77 0.28 c0.306 0.27 0.49 0.652 0.51 1.06v1.6c0 0.53-0.12 1.29-0.21 1.92-0.09 0.63 -0.16 1.05-0.28 1.57-0.12 0.52 -0.3 1.25-0.5 1.85a23.18 23.18 0 0 1-0.86 2.28 16.85 16.85 0 0 1-2.07 3.52 15 15 0 0 1-1.86 2 12 12 0 0 1-2.48 1.76 12.42 12.42 0 0 1-1.34 0.6 c-0.43 0.16 -0.87 0.28 -1.31 0.41 a4.17 4.17 0 0 1-0.49 0.08 0.17 0.17 0 0 0-0.18 0.19 v3.7c0 0.15 0.07 0.16 0.19 0.16h3.63a1.47 1.47 0 0 1 1.19 0.6 c0.226 0.283 0.344 0.638 0.33 1a1.53 1.53 0 0 1-1.21 1.37 3.18 3.18 0 0 1-0.62 0.06 l-4.93 0.04 z" fill="#FFF"/>
</svg>
