<?xml version="1.0" ?>
<svg xmlns="http://www.w3.org/2000/svg" width="44" height="17" viewBox="0 0 44 17">
  <path d="M0 16a0.38 0.38 0 0 1 0.41-0.25H1l0.35-3h-0.28c-0.18 0-0.27-0.07-0.28-0.21a0.32 0.32 0 0 1 0.26-0.33h3c0.238 0.006 0.474 0.046 0.7 0.12 a0.76 0.76 0 0 1 0.58 0.81 c0 0.3 0 0.61-0.07 0.91 0 0.47-0.1 0.94 -0.16 1.41 0 0.21 0 0.42-0.07 0.63 -0.07 0.21 -0.06 0.19 -0.17 0.19 h-1c0-0.24 0-0.46 0.07 -0.69l0.15-1.4c0-0.16 0-0.32 0.06 -0.47a1.77 1.77 0 0 0-0.06-0.52 0.67 0.67 0 0 0-0.68-0.45h-0.83c-0.1 0-0.13 0-0.14 0.12 L2.32 14l-0.18 1.61c0 0.18 0 0.36-0.05 0.54 -0.05 0.18 0 0.12-0.13 0.12 H0.27A0.29 0.29 0 0 1 0 16.1V16zM43.42 14.24l-0.09 0.5 a1.78 1.78 0 0 1-1.72 1.52 5.62 5.62 0 0 1-0.71 0c-0.18 0-0.27-0.07-0.28-0.2a0.3 0.3 0 0 1 0.26-0.31c0.17 0 0.35 0 0.52-0.06a0.77 0.77 0 0 0 0.64-0.57 3 3 0 0 0 0.13-1.51 1.12 1.12 0 0 0-1.1-0.9h-0.7c-0.08 0-0.1 0-0.11 0.1 l-0.33 3v0.38c0 0.13 0 0.07-0.07 0.07 h-1.18l0.41-3.55h-0.32c-0.18 0-0.26-0.07-0.27-0.21a0.28 0.28 0 0 1 0.24-0.32H41.38c0.53 0 1.045 0.18 1.46 0.51 0.303 0.253 0.502 0.61 0.56 1a0.36 0.36 0 0 0 0 0.1l0.02 0.45 zM16.14 0a5.47 5.47 0 0 1 3.74 1.42c0.74 0.62 1.44 1.26 2.16 1.9l3.47 3.05A5.5 5.5 0 0 0 28 7.62a4.84 4.84 0 0 0 2.33-0.11l0.6-0.21a0.1 0.1 0 0 0 0.07-0.11 3.68 3.68 0 0 0-1.77-3.34A4.75 4.75 0 0 0 26.82 3a5.65 5.65 0 0 0-3.33 0.78 1.47 1.47 0 0 1-0.28 0.14 0.26 0.26 0 0 1-0.21 0c-0.07-0.06 0-0.16 0-0.22a9.56 9.56 0 0 1 3.58-3 4.71 4.71 0 0 1 2.47-0.47 4.57 4.57 0 0 1 3.88 3 4.26 4.26 0 0 1 0.33 1.62 5.36 5.36 0 0 1-1.95 4.4 6.15 6.15 0 0 1-2.89 1.37 5.65 5.65 0 0 1-3.12-0.34A8.34 8.34 0 0 1 23 8.79l-2.79-2.4-2.63-2.22A5.19 5.19 0 0 0 15.24 3a4.42 4.42 0 0 0-2.54 0.25 0.45 0.45 0 0 0-0.31 0.46 3.23 3.23 0 0 0 0.75 2.21 4.64 4.64 0 0 0 3.11 1.76 5.48 5.48 0 0 0 3.6-0.75l0.24-0.13c0.08 0 0.16-0.06 0.22 0a0.17 0.17 0 0 1 0 0.23c-0.21 0.27 -0.41 0.54 -0.63 0.79 a8.94 8.94 0 0 1-2.15 1.87 5.12 5.12 0 0 1-2.31 0.8 4.72 4.72 0 0 1-3.56-1 4 4 0 0 1-1.37-2.33 5.74 5.74 0 0 1 1.28-4.84A6.21 6.21 0 0 1 13.66 0.55 5.32 5.32 0 0 1 15.49 0h0.65zM28.09 16.28h-1.16l0.41-3.54h-0.26c-0.17 0-0.27-0.07-0.28-0.21a0.33 0.33 0 0 1 0.25-0.33h3.02c0.241 0.005 0.48 0.045 0.71 0.12 a0.82 0.82 0 0 1 0.59 0.93 c0 0.37-0.07 0.74 -0.11 1.11-0.06 0.53 -0.13 1.07-0.2 1.61a1 1 0 0 1 0 0.16 0.2 0.2 0 0 1-0.17 0.15 h-1v-0.43l0.27-2.07a1.61 1.61 0 0 0 0-0.38 0.7 0.7 0 0 0-0.7-0.65h-0.9c-0.07 0-0.09 0-0.1 0.08 -0.08 0.8 -0.17 1.6-0.25 2.4l-0.12 1.05zM11.3 16.27c0-0.36 0.07 -0.73 0.12 -1.1 0.05 -0.37 0.12 -1 0.17-1.45a1.56 1.56 0 0 0 0-0.43 0.7 0.7 0 0 0-0.7-0.53h-0.86c-0.07 0-0.1 0-0.11 0.09 l-0.21 2c-0.06 0.48 -0.11 1-0.17 1.47H8.37c0-0.22 0.05 -0.44 0.07 -0.65l0.18-1.5c0.05-0.43 0.09 -0.86 0.15 -1.29 0-0.09 0-0.11-0.1-0.1h-0.21a0.24 0.24 0 0 1-0.22-0.33 0.31 0.31 0 0 1 0.27-0.21h3c0.242 0.01 0.48 0.053 0.71 0.13 a0.75 0.75 0 0 1 0.54 0.78 c0 0.34 0 0.68-0.07 1-0.07 0.32 -0.1 0.94 -0.16 1.41 0 0.19 0 0.37-0.07 0.56 a0.18 0.18 0 0 1-0.19 0.18 h-0.94l-0.03-0.03zM21.19 12.74h-0.48c-0.18 0-0.28-0.08-0.29-0.22a0.33 0.33 0 0 1 0.26-0.31h1.46c0.16 0 0.23 0.08 0.22 0.24 -0.01 0.16 0 0.43-0.06 0.65 -0.05 0.48 -0.09 1-0.15 1.44a1.86 1.86 0 0 1-1.73 1.76 3.29 3.29 0 0 1-1.21-0.07A1.72 1.72 0 0 1 18 14.27c0.07-0.55 0.11 -1.1 0.17 -1.65v-0.34c0-0.11 0-0.08 0.06 -0.08a5 5 0 0 1 0.67 0 0.59 0.59 0 0 1 0.44 0.69 c-0.06 0.57 -0.14 1.15-0.19 1.72a0.91 0.91 0 0 0 0.43 0.87 0.83 0.83 0 0 0 0.88 0.07 0.91 0.91 0 0 0 0.47-0.7c0.06-0.28 0.08 -0.57 0.12 -0.85l0.12-1.16a0.57 0.57 0 0 0 0.02-0.1zM14.26 16.29h-0.84c-0.19 0-0.27-0.06-0.28-0.2a0.34 0.34 0 0 1 0.27-0.31h1.45a1.13 1.13 0 0 0 0.94-0.43 1.94 1.94 0 0 0 0.36-2 0.88 0.88 0 0 0-0.93-0.64h-0.43c-0.09 0-0.13 0-0.13 0.12 0 0.31-0.06 0.63 -0.1 0.94 0 0.09 0 0.11 0.1 0.11h0.22c0.06 0.01 0.106 0.06 0.11 0.12 a0.32 0.32 0 0 1-0.31 0.38 h-1.05a0.21 0.21 0 0 1-0.23-0.25l0.18-1.57a0.46 0.46 0 0 1 0.46-0.37 15.76 15.76 0 0 1 1.82 0 1.73 1.73 0 0 1 1.55 1.44 2 2 0 0 1-0.59 1.8 2.61 2.61 0 0 1-1.9 0.81 l-0.67 0.05 zM33.66 16.29l0.12-1c0.06-0.53 0.12 -1.06 0.17 -1.6a1.54 1.54 0 0 0 0-0.37 0.73 0.73 0 0 0-0.74-0.6h-1.15c-0.18 0-0.28-0.07-0.29-0.2a0.35 0.35 0 0 1 0.23-0.32 18.45 18.45 0 0 1 2.23 0.05 c0.113 0.021 0.224 0.055 0.33 0.1 a0.87 0.87 0 0 1 0.55 1c-0.08 0.9 -0.19 1.79-0.29 2.69a0.29 0.29 0 0 1-0.33 0.29 l-0.83-0.04zM35.79 16.28l0.41-3.54h-0.35c-0.18 0-0.27-0.07-0.28-0.22a0.31 0.31 0 0 1 0.26-0.32h1.94c0.19 0 0.29 0.09 0.26 0.25 a0.36 0.36 0 0 1-0.32 0.29 h-0.27c-0.09 0-0.11 0-0.12 0.12 0 0.31-0.07 0.63 -0.1 0.94 L37 15.39c0 0.23 0 0.45-0.08 0.68 a0.2 0.2 0 0 1-0.2 0.21 h-0.93zM6.08 16.28l0.4-3.54H6c-0.19 0-0.27-0.06-0.29-0.19a0.32 0.32 0 0 1 0.29-0.34h1.42a0.22 0.22 0 0 1 0.23 0.27 l-0.3 2.74-0.09 0.78 c0 0.15-0.1 0.26 -0.23 0.26 l-0.95 0.02 zM25 14.56l0.21-1.82h-0.63a0.22 0.22 0 0 1-0.2-0.34 0.29 0.29 0 0 1 0.26-0.2h1.42a0.22 0.22 0 0 1 0.23 0.25 c-0.07 0.62 -0.13 1.24-0.2 1.86a0.23 0.23 0 0 1-0.24 0.24 l-0.85 0.01 z" fill="#FFF"/>
</svg>
