<?xml version="1.0" ?>
<svg xmlns="http://www.w3.org/2000/svg" width="44" height="26" viewBox="0 0 44 26">
  <path d="M44 5.5c-0.19 0.05 -0.35 0.09 -0.5 0.14 -0.66 0.24 -1.31 0.49 -2 0.75-0.49 0.2 -1 0.41-1.45 0.64 -0.66 0.32 -1.32 0.65 -2 1A13.2 13.2 0 0 0 35 10.29l-0.34 0.37 a36.05 36.05 0 0 0-11.49-5.43A21.86 21.86 0 0 0 24.91 0c-0.23 0.08 -0.43 0.14 -0.62 0.22 -0.55 0.24 -1.09 0.48 -1.63 0.78 -0.77 0.38 -1.54 0.75 -2.29 1.16a21.46 21.46 0 0 0-3.09 2 0.56 0.56 0 0 1-0.31 0.11 c-1 0-2 0-3 0.09-0.68 0-1.34 0.2 -2 0.31l-0.58 0.11 c0.1 0.13 0.17 0.23 0.25 0.32 a11.19 11.19 0 0 1 1.7 2.75c0.282 0.647 0.513 1.316 0.69 2a12.22 12.22 0 0 1 0.4 4 15.4 15.4 0 0 1-0.35 2.32 11.86 11.86 0 0 1-1.8 4.08c-0.23 0.33 -0.49 0.63 -0.74 0.95 0 0-0.08 0.11 -0.06 0.14 0.02 0.03 0.09 0.06 0.14 0.07 l1.7 0.33 a7.4 7.4 0 0 0 0.78 0.09 19.91 19.91 0 0 0 3.39 0c0.53-0.05 1.07-0.07 1.6-0.11 0.19 0 0.37-0.06 0.55 -0.08a0.41 0.41 0 0 1 0.24 0.07 28.68 28.68 0 0 0 3.35 2c0.71 0.37 1.45 0.71 2.18 1 0.44 0.2 0.89 0.39 1.33 0.57 0.079 0.023 0.159 0.04 0.24 0.05 -0.07-0.31-0.12-0.59-0.19-0.87s-0.21-0.75-0.32-1.12a17.68 17.68 0 0 0-1-2.58l-0.09-0.19c-0.14-0.29-0.14-0.29 0.17 -0.39a31.86 31.86 0 0 0 3.83-1.53A28.65 28.65 0 0 0 32.55 17c0.69-0.44 1.35-0.92 2-1.38 0.11 -0.08 0.18 -0.08 0.27 0a11.58 11.58 0 0 0 2.57 2 21.25 21.25 0 0 0 3 1.55l2.75 1.12 0.61 0.23c0.08 0.008 0.16 0.008 0.24 0-0.16-0.4-0.29-0.76-0.45-1.12a23.34 23.34 0 0 0-1.95-3.62 15 15 0 0 0-2.19-2.64c-0.19-0.18-0.19-0.19 0-0.36a9.33 9.33 0 0 0 1.6-1.54 17.15 17.15 0 0 0 1.91-3.18c0.35-0.75 0.66 -1.52 1-2.28A2.5 2.5 0 0 0 44 5.5z" fill="#FFF"/>
  <path d="M13.1 13c-0.07-0.61-0.11-1.32-0.23-2a10.62 10.62 0 0 0-1-3.07A10.71 10.71 0 0 0 10 5.29c-0.18-0.18-0.33 0-0.47 0-0.62 0.23 -1.24 0.46 -1.84 0.74 -0.6 0.28 -1.28 0.63 -1.89 1a16.7 16.7 0 0 0-2.86 2.08 13 13 0 0 0-2.25 2.55c-0.23 0.36 -0.41 0.74 -0.61 1.12-0.2 0.38 0 0.63 0.14 0.91a11.84 11.84 0 0 0 2.32 2.84 18.33 18.33 0 0 0 4 2.94c0.74 0.4 1.53 0.73 2.3 1.07 0.27 0.12 0.56 0.22 0.84 0.32a0.24 0.24 0 0 0 0.29-0.05 9.4 9.4 0 0 0 2-3c0.273-0.59 0.513 -1.194 0.72 -1.81a8.63 8.63 0 0 0 0.31-1.35c0-0.52 0-1.05 0.1 -1.65zm-6.91-1.28a1.375 1.375 0 1 1 2.75 0 1.375 1.375 0 0 1-2.75 0z" fill="#FFF"/>
</svg>
