<?xml version="1.0" ?>
<svg xmlns="http://www.w3.org/2000/svg" width="41" height="36" viewBox="0 0 41 36">
  <path d="M16.92 13.77v-0.29c0-0.08 0.09 -0.39 0.12 -0.59 0.1 -0.53 0.18 -1.06 0.28 -1.59 0.1 -0.53 0.22 -1 0.32-1.54S17.88 8.61 18 8c0.15-0.84 0.31 -1.67 0.46 -2.51l0.42-2.23a3.12 3.12 0 0 1 0.12-0.5c0.14-0.44 0.11 -0.54-0.26-0.79l-0.17-0.12A10.9 10.9 0 0 0 14.92 0.33 13.62 13.62 0 0 0 13.13 0a12.9 12.9 0 0 0-2.56 0 10.85 10.85 0 0 0-1.86 0.43 c-0.59 0.19 -1.19 0.39 -1.77 0.63 -0.91 0.404 -1.76 0.936 -2.52 1.58A11.58 11.58 0 0 0 1.19 7a16.33 16.33 0 0 0-0.61 1.62 12.38 12.38 0 0 0-0.37 1.6A10.08 10.08 0 0 0 0 11.86c0 0.94 0 1.89 0.07 2.84 0.026 0.418 0.086 0.832 0.18 1.24a15 15 0 0 0 0.4 1.46c0.19 0.6 0.35 1.1 0.63 1.6a15.83 15.83 0 0 0 1.38 2.48 21.94 21.94 0 0 0 2 2.58 28.93 28.93 0 0 0 3.74 3.43c1 0.77 2.05 1.52 3.09 2.26 0.66 0.46 1.34 0.88 2 1.32 1.08 0.7 2.18 1.39 3.26 2.1 0.59 0.39 1.17 0.79 1.73 1.23 0.56 0.44 1.1 0.92 1.65 1.38 0.07 0.06 0.12 0.12 0.23 0 0.11-0.12 0.51 -0.41 0.77 -0.61 0.69 -0.54 1.35-1.1 2.06-1.61s1.41-0.92 2.11-1.37c0.7-0.45 1.53-0.94 2.27-1.44 1-0.68 2.05-1.36 3.05-2.09 1-0.73 2-1.55 3-2.37a24.93 24.93 0 0 0 2.49-2.44A20.9 20.9 0 0 0 38.37 21a15.15 15.15 0 0 0 1.55-3.25c0.2-0.63 0.38 -1.27 0.53 -1.92 0.1 -0.505 0.17 -1.016 0.21 -1.53a13.6 13.6 0 0 0-0.09-3.49 11.39 11.39 0 0 0-0.43-2c-0.18-0.52-0.32-1.06-0.53-1.57a12.51 12.51 0 0 0-1.4-2.5 10.45 10.45 0 0 0-2.6-2.58 14.66 14.66 0 0 0-1.75-1 9.39 9.39 0 0 0-2.31-0.83A14.8 14.8 0 0 0 29.7 0a12.56 12.56 0 0 0-4.36 0.39 c-0.47 0.14 -0.94 0.3 -1.4 0.48 a9.25 9.25 0 0 0-2.13 1.18 0.63 0.63 0 0 0-0.19 0.31 c-0.06 0.21 -0.09 0.43 -0.13 0.64 -0.07 0.37 -0.15 0.74 -0.22 1.11l-0.18 1c-0.08 0.37 -0.16 0.75 -0.23 1.12-0.07 0.37 -0.12 0.66 -0.19 1-0.07 0.34 -0.16 0.7 -0.23 1-0.07 0.3 -0.13 0.7 -0.19 1.05l-0.25 1.5c0 0.14-0.05 0.29 -0.07 0.45 l6.78 0.75 -4.28 10.38 5.49 0.18 L20.5 35.7h-0.06l4.34-11.3-5.62-0.59L24 13.17l-7.08 0.6 z" fill="#FFF"/>
  <path d="M16.92 13.77l7.1-0.6-4.86 10.64 5.62 0.59 -4.34 11.27h0.06l7.42-13.16-5.49-0.18L26.66 12l-6.78-0.75c0-0.16 0-0.31 0.07 -0.45l0.3-1.45c0.06-0.35 0.12 -0.7 0.19 -1.05 0.07 -0.35 0.16 -0.7 0.23 -1 0.07-0.3 0.12 -0.66 0.19 -1 0.07-0.34 0.15 -0.75 0.23 -1.12l0.18-1c0.07-0.37 0.15 -0.74 0.22 -1.11 0-0.21 0.07 -0.43 0.13 -0.64a0.63 0.63 0 0 1 0.19-0.31A9.25 9.25 0 0 1 23.94 0.91 c0.46-0.18 0.93 -0.34 1.4-0.48A12.56 12.56 0 0 1 29.7 0a14.8 14.8 0 0 1 1.85 0.29 c0.8 0.159 1.577 0.42 2.31 0.78 0.606 0.293 1.19 0.627 1.75 1a10.45 10.45 0 0 1 2.6 2.58 12.51 12.51 0 0 1 1.4 2.5c0.21 0.51 0.35 1 0.53 1.57 0.203 0.652 0.347 1.322 0.43 2a13.6 13.6 0 0 1 0.09 3.49 13.09 13.09 0 0 1-0.21 1.53c-0.15 0.65 -0.33 1.29-0.53 1.92A15.15 15.15 0 0 1 38.37 21a20.9 20.9 0 0 1-2.22 2.93 24.93 24.93 0 0 1-2.49 2.44c-1 0.82-2 1.61-3 2.37s-2 1.41-3.05 2.09c-0.74 0.5 -1.51 1-2.27 1.44-0.76 0.44 -1.43 0.88 -2.11 1.37-0.68 0.49 -1.37 1.07-2.06 1.61-0.26 0.2 -0.52 0.4 -0.77 0.61 -0.25 0.21 -0.16 0-0.23 0-0.55-0.46-1.08-1-1.65-1.38-0.57-0.38-1.14-0.84-1.73-1.23-1.08-0.71-2.18-1.4-3.26-2.1-0.68-0.44-1.36-0.86-2-1.32-1-0.74-2.07-1.49-3.09-2.26a28.93 28.93 0 0 1-3.74-3.43 21.94 21.94 0 0 1-2-2.58A15.83 15.83 0 0 1 1.28 19c-0.28-0.5-0.44-1-0.63-1.6a15 15 0 0 1-0.4-1.46 7.57 7.57 0 0 1-0.18-1.24C0 13.75 0 12.8 0 11.86c0.025-0.551 0.095 -1.1 0.21 -1.64 0.088 -0.54 0.211 -1.075 0.37 -1.6 0.175 -0.55 0.378 -1.091 0.61 -1.62a11.58 11.58 0 0 1 3.23-4.36 10.47 10.47 0 0 1 2.52-1.58C7.52 0.82 8.12 0.62 8.71 0.43 a10.85 10.85 0 0 1 1.86-0.34 12.9 12.9 0 0 1 2.56 0c0.602 0.057 1.2 0.154 1.79 0.29 a10.9 10.9 0 0 1 3.62 1.52l0.17 0.12 c0.37 0.25 0.4 0.35 0.26 0.79 a3.12 3.12 0 0 0-0.11 0.53 l-0.42 2.23c-0.15 0.84 -0.31 1.67-0.46 2.51-0.1 0.58 -0.2 1.16-0.31 1.73-0.11 0.57 -0.22 1-0.32 1.54s-0.18 1.06-0.28 1.59c0 0.2-0.08 0.39 -0.12 0.59 -0.04 0.2 -0.02 0.12 -0.03 0.24 z" fill="#FFF"/>
</svg>
