<?xml version="1.0" ?>
<svg xmlns="http://www.w3.org/2000/svg" width="44" height="36" viewBox="0 0 44 36">
  <path d="M8.26 34.27a1.49 1.49 0 0 0 1 1.36 1.32 1.32 0 0 0 1.27-0.24l1.31-1.09a1788.58 1788.58 0 0 0 4-3.37 0.8 0.8 0 0 1 0.55-0.2H34.6c0.17 0 0.27 0 0.3 0.23 0 0.44 0.12 0.88 0.2 1.31 0.08 0.43 0.17 1 0.26 1.56s0.1 0.76 0.16 1.14a3 3 0 0 0 0.09 0.52 0.21 0.21 0 0 0 0.17 0.13 h1.14c0.11 0 0.16-0.05 0.17 -0.16l0.27-1.79c0.06-0.42 0.1 -0.83 0.16 -1.25 0.06 -0.42 0.22 -1.14 0.25 -1.72a1.37 1.37 0 0 1 0.51-0.9c1.647-1.8 3.313-3.593 5-5.38a1.55 1.55 0 0 0 0.46-1.11 1.46 1.46 0 0 0-2.57-0.9l-4.87 5.22a0.49 0.49 0 0 1-0.38 0.16 H16a2.15 2.15 0 0 0-1.48 0.52 c-1.3 1.11-2.61 2.19-3.92 3.29-0.6 0.49 -1.19 1-1.78 1.49a1.45 1.45 0 0 0-0.56 1.18zM11.35 6.23a5.12 5.12 0 1 0-0.1 10.24 5.12 5.12 0 0 0 0.1-10.24z" fill="#FFF"/>
  <path d="M34.79 23.34a1.45 1.45 0 0 0 2.57 0.94 c0.78-0.89 1.54-1.78 2.3-2.69a1.45 1.45 0 0 0-0.78-2.3 1.43 1.43 0 0 0-1.51 0.52 l-2.22 2.59a1.27 1.27 0 0 0-0.36 0.94 zM15.19 16.82c0.023 0.377 0.183 0.733 0.45 1l1.52 1.52a1.51 1.51 0 0 0 1.19 0.41 1.41 1.41 0 0 0 1.43-1.07 1.39 1.39 0 0 0-0.36-1.4c-0.51-0.54-1-1-1.57-1.57a1.57 1.57 0 0 0-2.55 0.63 c-0.04 0.18 -0.07 0.33 -0.11 0.48 zM2.78 18.33a1.44 1.44 0 0 0 1.64 1.45 1.71 1.71 0 0 0 1.22-0.6c0.39-0.43 0.81 -0.83 1.23-1.23a1.58 1.58 0 0 0 0.5-1A1.3 1.3 0 0 0 7 16a1.61 1.61 0 0 0-1.34-0.67 1.36 1.36 0 0 0-0.92 0.4 c-0.54 0.52 -1.07 1-1.59 1.58a1.33 1.33 0 0 0-0.37 1.02zM5.8 7.32a1.47 1.47 0 0 0 1.59-1.46 1.54 1.54 0 0 0-0.48-1.06L5.47 3.36A1.49 1.49 0 0 0 2.92 4a1.33 1.33 0 0 0 0.31 1.35c0.49 0.53 1 1.07 1.47 1.59 0.29 0.286 0.695 0.426 1.1 0.38 zM16.79 7.32A1.47 1.47 0 0 0 18 6.78c0.4-0.46 0.81 -0.9 1.24-1.33a1.49 1.49 0 0 0-0.67-2.53 1.3 1.3 0 0 0-1.32 0.31 c-0.57 0.55 -1.14 1.1-1.68 1.67a1.36 1.36 0 0 0-0.26 1.56 1.37 1.37 0 0 0 1.48 0.86 zM9.85 2.56v1.13A1.6 1.6 0 0 0 11 5.07a1.56 1.56 0 0 0 1.91-1.52v-2a1.59 1.59 0 0 0-1-1.5A1.49 1.49 0 0 0 10 1a1.85 1.85 0 0 0-0.1 0.57 v1l-0.05-0.01zM2.56 9.85H1.45A1.56 1.56 0 0 0 0 11a1.56 1.56 0 0 0 1.51 1.84h2a1.55 1.55 0 0 0 1.59-1.37 1.51 1.51 0 0 0-1-1.54 2 2 0 0 0-0.59-0.1l-0.95 0.02 zM9.85 20.14v1.1a1.48 1.48 0 0 0 1.15 1.4 1.41 1.41 0 0 0 1.7-0.76 1.76 1.76 0 0 0 0.19-0.78v-2a1.55 1.55 0 0 0-1.63-1.55A1.53 1.53 0 0 0 9.85 19v1.16-0.02zM20.12 9.85h-1.06a1.57 1.57 0 0 0-1.47 1.23 1.5 1.5 0 0 0 0.81 1.59 2 2 0 0 0 0.76 0.18 h1.95a1.63 1.63 0 0 0 1.53-1.08A1.51 1.51 0 0 0 21.7 10a8.49 8.49 0 0 0-1.44-0.11l-0.14-0.04z" fill="#FFF"/>
</svg>
