<?xml version="1.0" ?>
<svg xmlns="http://www.w3.org/2000/svg" width="44" height="35" viewBox="0 0 44 35">
  <path d="M15.17 22.23c0.84 0.15 2-0.46 3.78-1.89 0.099 0.133 0.21 0.257 0.33 0.37a27 27 0 0 0 5.55 3.88 37.19 37.19 0 0 0 4.05 1.75 14.52 14.52 0 0 0 5.35 0.87 0.37 0.37 0 0 0 0.17-0.05 28.29 28.29 0 0 1-8.29-2.31c0.06-0.005 0.12 -0.005 0.18 0 2.17 0 4.35-0.11 6.52-0.08a19.19 19.19 0 0 1 5.58 0.78 7.49 7.49 0 0 1 4.12 2.66 4.77 4.77 0 0 1 1 2.29 2.37 2.37 0 0 1-1.26 2.48 6.48 6.48 0 0 1-2.22 0.79 26.76 26.76 0 0 1-7.37 0.16 c-1.19-0.11-2.37-0.24-3.55-0.38-0.46-0.06-0.91-0.19-1.37-0.29l-0.38-0.08 0.22 0.24H6.95a20.33 20.33 0 0 1-4.25-0.46 8.24 8.24 0 0 1-1.61-0.54 1.63 1.63 0 0 1-0.18-3 5.81 5.81 0 0 1 2.2-0.82 0.65 0.65 0 0 0 0.6-0.47 8.27 8.27 0 0 1 1.5-2.48 1.9 1.9 0 0 1 1.34-0.57c1.64-0.15 3.28-0.27 4.93-0.37a4.32 4.32 0 0 1 2.85 0.71 l0.25 0.19 0.1 0.14 a39.11 39.11 0 0 0-5.31 0.07 c0.3 0.05 0.59 0.11 0.89 0.14 a16.05 16.05 0 0 0 3.6 0 2.48 2.48 0 0 1 1.59 0.33 0.5 0.5 0 0 0 0.29 0.06 l-0.22-0.2c-1-0.91-2.07-1.79-3.05-2.74a6.54 6.54 0 0 1-1.58-2.36 4.92 4.92 0 0 1 0.74-4.93 3.94 3.94 0 0 1 2-1.38c0.29-0.09 0.56 -0.23 0.85 -0.32a1.16 1.16 0 0 0 0.84-1.17 8 8 0 0 0-1.08-4.8A22.05 22.05 0 0 0 12.58 6a8 8 0 0 0-2.86-2 7.84 7.84 0 0 1-2.31-1.55c-0.16-0.16-0.31-0.13-0.42 0.1 a6.67 6.67 0 0 0-0.23 0.8 c0-0.13-0.11-0.21-0.1-0.27 0.13 -0.56 0.26 -1.11 0.42 -1.66A1.78 1.78 0 0 1 8.47 0.13 5.46 5.46 0 0 1 10.4 0.05 l2.13 0.19 a5 5 0 0 1 3.17 1.47 12.83 12.83 0 0 1 2.68 3.81 21.87 21.87 0 0 1 1.67 4.14 14.65 14.65 0 0 1 0.39 6.48 7.8 7.8 0 0 1-2.09 4.29 6.93 6.93 0 0 1-3.06 1.76l-0.12 0.04 zm3.27 6.84c0.346 0.104 0.68 0.242 1 0.41a36.29 36.29 0 0 0 4.83 2.62l0.69 0.26 v-0.07a39.23 39.23 0 0 1-7.59-4.61l-0.06 0.07 L18.76 29h-0.33a0.55 0.55 0 0 0-0.17-0.14 18.32 18.32 0 0 0-3.8-0.78 42.69 42.69 0 0 0-7.75 0 0.21 0.21 0 0 0-0.11 0 0.6 0.6 0 0 0 0.26 0c1.86 0.08 3.73 0.14 5.59 0.24 1.28 0.07 2.56 0.2 3.84 0.32 0.71 0.22 1.43 0.36 2.15 0.43 zM11.15 0.71 c0-0.2-0.12-0.34-0.34-0.35a0.34 0.34 0 0 0-0.34 0.38 0.31 0.31 0 0 0 0.35 0.32 c0.23-0.01 0.31 -0.15 0.33 -0.35z" fill="#FFF"/>
</svg>
