<?xml version="1.0" ?>
<svg xmlns="http://www.w3.org/2000/svg" width="43" height="26" viewBox="0 0 43 26">
  <path d="M15 3.59v0.59c0 0.1 0 0.13 0.12 0.14l1.28 0.13 c0.15 0 0.3 0 0.44 0.06 a0.31 0.31 0 0 1 0.26 0.32 c0 0.24 0 0.48-0.07 0.72 s-0.05 0.36 -0.06 0.54 c-0.06 0.54 -0.1 1.07-0.16 1.6 0 0.38-0.08 0.75 -0.12 1.12l-0.06 0.69 v0.1a0.41 0.41 0 0 0 0.06 0.37 0.81 0.81 0 0 1 0 0.35c0 0.21-0.06 0.43 -0.08 0.64 l-0.06 0.77 -0.12 1.18c0 0.17 0 0.35-0.05 0.52 -0.05 0.17 0 0.5-0.07 0.75 s-0.08 0.78 -0.11 1.17c-0.03 0.39 -0.05 0.5 -0.07 0.75 l-0.12 1.22v0.53c0 0.18 0 0.51-0.07 0.76 l-0.12 1.17-0.06 0.75 -0.12 1.2c0 0.17 0 0.35-0.05 0.53 -0.05 0.18 0 0.51-0.07 0.76 l-0.12 1.17c0 0.27 0 0.53-0.07 0.79 a0.68 0.68 0 0 1-0.07 0.28 0.37 0.37 0 0 1-0.4 0.18 l-0.55-0.08c-0.25 0-0.49-0.05-0.74-0.06l-1.66-0.11c-0.59 0-1.19-0.07-1.78-0.07H6.67c-0.7 0-1.4 0.05 -2.1 0.09 -0.413 0-0.823 0.03 -1.23 0.09 -0.32 0-0.64 0.06 -1 0.1a1.38 1.38 0 0 0-0.2 0 0.38 0.38 0 0 1-0.39-0.35c0-0.43-0.07-0.85-0.11-1.27l-0.14-1.84c0-0.35-0.07-0.7-0.1-1.06-0.03-0.36-0.1-1-0.14-1.46l-0.18-1.93c0-0.34-0.07-0.68-0.1-1-0.03-0.32-0.1-1-0.14-1.47-0.07-0.64-0.12-1.27-0.18-1.91 0-0.35-0.07-0.69-0.1-1-0.03-0.31-0.1-1-0.14-1.46v-0.41a0.43 0.43 0 0 1 0.07-0.29 0.44 0.44 0 0 0 0-0.23l-0.12-0.78c0-0.3-0.07-0.6-0.11-0.9-0.04-0.3-0.05-0.42-0.07-0.62l-0.12-1C0 6.23 0 6 0 5.84a0.38 0.38 0 0 1 0.37-0.39l0.94-0.11c0.08 0 0.11 0 0.1-0.12l-0.12-0.71c0-0.12-0.05-0.23-0.06-0.34-0.01-0.11-0.05-0.29-0.06-0.44a0.35 0.35 0 0 1 0.34-0.42l1-0.16 1-0.17h0.2a0.36 0.36 0 0 1 0.42 0.36 c0 0.23 0.07 0.45 0.1 0.68a0.15 0.15 0 0 0 0.16 0.13 h1c0.08 0 0.11 0 0.11-0.11v-1a0.85 0.85 0 0 1 0.09-0.33 0.3 0.3 0 0 1 0.41-0.12l1.27 0.08 h0.23c0.12 0 0.14 0 0.13-0.13-0.01-0.13 0-0.35 0-0.52a0.37 0.37 0 0 1 0.37-0.4l1.66-0.07h0.51a0.38 0.38 0 0 1 0.41 0.39 v1.22c0 0.09 0 0.11 0.12 0.11h1.21c0.08 0 0.09 0 0.1-0.1a0.84 0.84 0 0 1 0.08-0.31 0.33 0.33 0 0 1 0.29-0.15h2.23A0.39 0.39 0 0 1 15 3v0.59zM9.51 14.23l0.58-0.1c0.24-0.05 0.48 -0.12 0.71 -0.18a0.12 0.12 0 0 0 0.09-0.16 2 2 0 0 1 0-0.26v-0.49c-0.05-0.44-0.11-0.88-0.17-1.33-0.06-0.45-0.08-0.69-0.11-1v-0.42c0-0.32-0.09-0.65-0.12-1s-0.07-0.65-0.11-1c-0.04-0.35-0.09-0.72-0.14-1.07 0-0.08 0-0.11-0.11-0.1l-0.84 0.1 h-0.43c-0.1 0-0.13 0.07 -0.12 0.16 0 0.3 0.08 0.59 0.11 0.88 0.03 0.29 0 0.23 0.23 0.25a0.32 0.32 0 0 1 0.32 0.27 0.7 0.7 0 0 1 0 0.25c0 0.34-0.06 0.69 -0.1 1-0.04 0.31 -0.05 0.4 -0.08 0.6 -0.03 0.2 0 0.3 0 0.46 0 0.16 0.06 0.35 0.08 0.52 0 0.33 0.06 0.65 0.1 1v0.44c0 0.34 0.09 0.68 0.13 1-0.12 0.16 -0.1 0.19 -0.02 0.18 zm4-3h0.05a2.68 2.68 0 0 1 0.07-0.27c0.07-0.24 0.15 -0.48 0.22 -0.72a0.57 0.57 0 0 1 0.35-0.43 0.12 0.12 0 0 0 0.08-0.13V3.52c0-0.14 0-0.14-0.14-0.14h-1.23c-0.14 0-0.14 0-0.14 0.15 v4.09c0 0.15 0 0.15 0.15 0.17 0.173 -0.01 0.347 -0.01 0.52 0 0.23 0 0.38 0.15 0.37 0.36 -0.01 0.21 0 0.56-0.07 0.83 -0.07 0.27 -0.09 0.79 -0.13 1.19 0 0.24 0 0.48-0.08 0.73 -0.01 0.1 -0.01 0.24 -0.02 0.33 zM7 9.08c0 0.4-0.1 0.79 -0.14 1.19l-0.06 0.58 c-0.05 0.48 -0.12 1-0.17 1.43-0.05 0.43 -0.07 0.71 -0.11 1.06 0 0.18 0 0.36-0.07 0.54 a0.13 0.13 0 0 0 0.08 0.11 0.88 0.88 0 0 0 0.23 0.07 5.54 5.54 0 0 0 1.08 0.18 c0.07 0 0.1 0 0.1-0.09 0-0.42 0.1 -0.82 0.14 -1.24 0-0.15 0-0.32 0.05 -0.47 0-0.35 0.1 -0.7 0.13 -1 0.03-0.3 0.07 -0.67 0.11 -1v-0.47c0-0.16 0.05 -0.37 0.08 -0.56 0.03 -0.19 0-0.11-0.1-0.12l-1.1-0.14L7 9.08zm-1.26 4.61c0-0.35 0.09 -0.69 0.13 -1v-0.13c0-0.04 0-0.25-0.07-0.37 0-0.33-0.1-0.67-0.16-1a2.87 2.87 0 0 0-0.05-0.31c0-0.24-0.09-0.47-0.12-0.71s-0.07-0.46-0.11-0.68c-0.04-0.22-0.11-0.79-0.16-1.15 0-0.07 0-0.1-0.11-0.09H5l-0.41 0.07 -0.76 0.13 c-0.08 0-0.11 0-0.09 0.13 0.02 0.13 0 0.33 0.08 0.5l0.12 0.72 0.12 0.75 c0 0.23 0.07 0.45 0.11 0.67l0.12 0.71 c0 0.23 0.07 0.46 0.11 0.69a0.29 0.29 0 0 0 0.07 0.12 c0.273 0.29 0.586 0.54 0.93 0.74 l0.34 0.21 zm5.87-0.1h0.07l0.8-0.57a0.36 0.36 0 0 0 0.15-0.29l0.15-1.59c0-0.16 0-0.32 0.05 -0.48 0-0.37 0.09 -0.74 0.13 -1.1C13 9.2 13 9 13 8.67c0-0.12 0-0.14-0.11-0.15l-0.71-0.07-0.57-0.06c-0.06 0-0.1 0-0.11 0.08 -0.01 0.08 0 0.29 0 0.44-0.05 0.37 -0.09 0.73 -0.13 1.1l-0.09 0.85 V11.78c0 0.32 0.09 0.64 0.13 1 0.04 0.36 0 0.39 0.06 0.58 0.06 0.19 0.12 0.14 0.14 0.23zM9.6 2.28H8.52c-0.19 0-0.2 0-0.19 0.19 0.01 0.19 0 0.26 0 0.39 0 1 0.07 1.9 0.1 2.86v0.63c0 0.21 0 0.2 0.21 0.17l1.14-0.14c0.15 0 0.17 0 0.16-0.18 0.06 -0.56 0.06 -1.2-0.01-1.78-0.07-0.58 0-1.27-0.07-1.91-0.01-0.25-0.01-0.25-0.26-0.23zM6.46 8.33a1.5 1.5 0 0 1 0.29 0 6 6 0 0 1 0.61 0.07 c0.18 0 0.2 0 0.2-0.15v-0.69c0-0.69 0.1 -1.38 0.12 -2.07v-1.5-0.45c0-0.15 0-0.09-0.08-0.09l-1.21-0.11a0.08 0.08 0 0 0-0.09 0.08 v0.69a0.15 0.15 0 0 0 0.06 0.1 0.39 0.39 0 0 1 0.23 0.41 c0 0.82 0 1.65-0.07 2.47V8.3l-0.06 0.03 zM2 9.79h0.61c0.15 0 0.16 0 0.14-0.15-0.02-0.15 0-0.45-0.08-0.67l-0.06-0.61c-0.06-0.45-0.12-0.9-0.17-1.35l-0.11-1c0-0.08 0-0.11-0.12-0.1L2 6l-0.63 0.07 -0.47 0.06 c-0.06 0-0.08 0-0.07 0.1 0.01 0.1 0 0.29 0 0.43l0.06 0.61 0.11 0.94 c0 0.33 0.07 0.66 0.11 1 0 0.17 0.05 0.34 0.07 0.51 0.02 0.17 0 0.08 0.1 0.08L2 9.79zm13-2.38v2.25c0 0.1 0 0.13 0.12 0.13h0.63c0.08 0 0.12 0 0.13-0.11 0.01 -0.11 0-0.38 0-0.56 0-0.18 0.05 -0.5 0.08 -0.75s0.07-0.72 0.11 -1.08c0-0.21 0-0.42 0.05 -0.63 0.05 -0.21 0-0.36 0.07 -0.54 0.07 -0.18 0-0.58 0.07 -0.88 0 0 0-0.07-0.06-0.08h-0.43l-0.68-0.06c-0.14 0-0.14 0-0.14 0.12 L15 7.41zm-4.11 0.32 h0.05a0.52 0.52 0 0 1 0.37-0.08c0.19 0 0.39 0 0.58 0.06 0.19 0.06 0.13 0 0.13-0.11V4.07c0-0.14 0-0.14-0.13-0.14h-1c-0.14 0-0.16 0-0.15 0.16 0 0.93 0 1.85 0.08 2.78v0.59c0.023 0.092 0.053 0.182 0.09 0.27 h-0.02zM5.14 4.89h-0.69c-0.13 0-0.14 0-0.15 0.14 -0.01 0.14 0 0.49 0 0.73 0 0.61 0 1.21-0.07 1.81 0 0.09 0 0.12 0.12 0.11l0.57-0.1 0.4 -0.08a1.08 1.08 0 0 1 0.31 0c0.12 0 0.14 0 0.14-0.09L5.81 5c0-0.1 0-0.13-0.13-0.12l-0.54 0.01 zm-1.58 0.47 V5v-0.52c0-0.17-0.07-0.4-0.09-0.6-0.02-0.2 0-0.15-0.16-0.14l-0.56 0.1 -0.69 0.16 C2 4 1.94 4 2 4.09s0 0.09 0 0.14c0 0.05 0 0.28 0.07 0.41 0.07 0.13 0.06 0.35 0.1 0.52 0 0 0.05 0.06 0.08 0.06 a3 3 0 0 0 0.31 0 0.36 0.36 0 0 1 0.4 0.26 c0.05 0.34 0.1 0.68 0.14 1 0.04 0.32 0.09 0.79 0.13 1.18 0 0.15 0 0.15 0.17 0.14 0.17 -0.01 0.1 0 0.1-0.11v-0.21l0.06-2.12zM30.49 13.12c0.62 0 1.2 0 1.77-0.06 0.37 0 0.74-0.06 1.11-0.1l0.69-0.06a5 5 0 0 0 0.56-0.07l1.38-0.25c0.33-0.07 0.67 -0.14 1-0.24 0.33 -0.1 0.73 -0.24 1.09-0.37a5.23 5.23 0 0 0 1.29-0.71c0.288-0.2 0.527 -0.464 0.7 -0.77a4.31 4.31 0 0 0 0.22-0.49 3 3 0 0 0 0.2-1V7.92a6.21 6.21 0 0 0-0.12-0.85A7.63 7.63 0 0 0 40.06 6c-0.173-0.44-0.363-0.87-0.57-1.29A8.69 8.69 0 0 0 37 1.85 7.51 7.51 0 0 0 35.56 1c-0.47-0.2-1-0.4-1.44-0.57a7 7 0 0 0-1-0.24c-0.51-0.08-1-0.16-1.54-0.19s-1.16 0-1.74 0a6.82 6.82 0 0 0-0.84 0.08 c-0.4 0.05 -0.79 0.12 -1.18 0.2 a10.74 10.74 0 0 0-1.15 0.29 8.7 8.7 0 0 0-1.41 0.58 8 8 0 0 0-3.56 3.58c-0.2 0.4 -0.37 0.81 -0.53 1.23a6.49 6.49 0 0 0-0.23 0.75 c-0.07 0.28 -0.13 0.56 -0.18 0.83 a4.11 4.11 0 0 0-0.11 1.26c0.048 0.436 0.184 0.858 0.4 1.24 0.294 0.52 0.696 0.97 1.18 1.32a6.36 6.36 0 0 0 1.9 1c0.5 0.16 1 0.28 1.52 0.39 0.52 0.11 1 0.15 1.48 0.21 s0.91 0.09 1.37 0.12 l1.99 0.04 zm5.82 4.42c0.09-0.17 0.17 -0.34 0.27 -0.51 0.1 -0.17 0.06 0 0.09 0a0.56 0.56 0 0 1 0.12 0A2 2 0 0 1 38 18c0.213 0.36 0.407 0.73 0.58 1.11a0.57 0.57 0 0 1-0.24 0.83 c-0.08 0.05 -0.06 0.1 -0.05 0.17 0 0.25 0.08 0.5 0.09 0.75 0.01 0.25 0 0.4-0.05 0.6 -0.05 0.2 0 0.47 0 0.7a0.59 0.59 0 0 1-0.22 0.44 1 1 0 0 1-0.69 0.21 8.93 8.93 0 0 1-1.16 0 1.14 1.14 0 0 1-0.48-0.16 0.35 0.35 0 0 0-0.52 0.08 0.63 0.63 0 0 1-1-0.25c0-0.08-0.06-0.07-0.14-0.06a8.94 8.94 0 0 1-1 0.12 16.93 16.93 0 0 1-2.36-0.08c-0.48-0.05-1-0.05-1.45-0.08-0.45-0.03-0.7 0-1.05-0.06a2.79 2.79 0 0 1-0.4-0.07c-0.28-0.06-0.56-0.12-0.84-0.2a6.82 6.82 0 0 1-0.94-0.3 1.09 1.09 0 0 0-0.83-0.07 2.79 2.79 0 0 1-0.95 0.12 0.54 0.54 0 0 1-0.52-0.34 1.8 1.8 0 0 1-0.1-0.46 0.3 0.3 0 0 0-0.18-0.26c-0.15-0.07-0.28-0.16-0.42-0.24a4.52 4.52 0 0 1-0.9-0.79s-0.08-0.07-0.13 0a1.64 1.64 0 0 0-0.55 1 2.12 2.12 0 0 0 0.49 1.6c0.39 0.482 0.872 0.88 1.42 1.17a9.06 9.06 0 0 0 1.92 0.83 c0.35 0.1 0.69 0.22 1 0.3 0.31 0.08 0.9 0.2 1.35 0.27 0.45 0.07 0.85 0.12 1.27 0.16 0.42 0.04 0.8 0.05 1.2 0.07 H32.18c0.43 0 0.86-0.09 1.28-0.15a8.43 8.43 0 0 0 0.9-0.17c0.25-0.05 0.49 -0.13 0.74 -0.2a7.6 7.6 0 0 0 0.92-0.3c0.47-0.19 0.93 -0.41 1.38-0.63a5.82 5.82 0 0 0 1.41-1 2.31 2.31 0 0 0 0.81-1.66 2.35 2.35 0 0 0-0.13-1 3.89 3.89 0 0 0 1.39-0.22 2.8 2.8 0 0 1 0.86-0.17h0.14a0.85 0.85 0 0 0-0.47-0.26 0.53 0.53 0 0 1 0.09-0.11 2.84 2.84 0 0 0 0.6-0.82c0.14-0.26 0.27 -0.51 0.42 -0.76 0.15 -0.25 0.25 -0.34 0.38 -0.52h-0.14a3 3 0 0 0-1.39 0.26 2.84 2.84 0 0 1-0.92 0.34 0.4 0.4 0 0 0-0.26 0.16 c-0.17 0.16 -0.33 0.33 -0.51 0.48 a0.83 0.83 0 0 1-0.77 0.18 1.06 1.06 0 0 1-0.69-0.65 1.53 1.53 0 0 0-0.28-0.46 3.64 3.64 0 0 1-0.8-0.95 2.07 2.07 0 0 0-0.65-0.7 0.6 0.6 0 0 0-0.06 0.11 c-0.15 0.3 -0.28 0.6 -0.42 0.9 -0.14 0.3 -0.26 0.55 -0.4 0.83 -0.14 0.28 -0.42 0.87 -0.66 1.3a1 1 0 0 1-1.27 0.44 c-0.5-0.21-1-0.47-1.45-0.69-0.45-0.22-0.86-0.37-1.3-0.54-0.44-0.17-0.62-0.22-0.93-0.31-0.31-0.09-0.55-0.17-0.83-0.24l-0.88-0.19-1-0.18-0.57-0.08c-0.32 0-0.64-0.1-1-0.13a5.32 5.32 0 0 0-1.69 0 8.6 8.6 0 0 0-1 0.25 0.92 0.92 0 0 1-0.87-0.08c-0.25-0.16-0.27-0.21-0.18-0.49 0-0.11 0-0.23 0.08 -0.35l0.12-0.53c0.06-0.27 0.13 -0.53 0.19 -0.8s0.1-0.39 0.14 -0.58a2.81 2.81 0 0 0 0.08-0.31c0-0.15-0.15-0.13-0.2-0.22l-0.3-0.26c-0.08 0.33 -0.16 0.64 -0.23 1 0 0.11-0.06 0.16 -0.18 0.15 a5.77 5.77 0 0 1-1.4-0.27l0.07 0.13 0.48 0.56 v0.07a0.13 0.13 0 0 1-0.07 0 1.12 1.12 0 0 1-0.65-0.08c-0.25-0.11-0.5-0.24-0.76-0.34a3.27 3.27 0 0 0-1.36-0.17h-0.05c0.27 0.297 0.493 0.635 0.66 1 0.17 0.29 0.34 0.58 0.52 0.87 a2.6 2.6 0 0 0 0.32 0.35 c-0.28 0.09 -0.37 0.14 -0.44 0.28 0.15 0 0.3 0 0.45 0.06 0.41 0.1 0.81 0.21 1.22 0.29 0.246 0.02 0.494 0.02 0.74 0a0.23 0.23 0 0 1 0.18 0l0.38 0.24 s0.07 0.06 0.08 0.1 a2 2 0 0 1 0 0.24c0.027 0.217 0.095 0.428 0.2 0.62 0.206 0.36 0.481 0.676 0.81 0.93 0.08 0.07 0.167 0.13 0.26 0.18 v-0.73a0.79 0.79 0 0 1-0.32-0.23 0.92 0.92 0 0 1-0.06-0.61 0.28 0.28 0 0 1 0.3-0.29h0.07l0.35-0.1-0.09 0.5 H24a0.13 0.13 0 0 1 0.1 0.09 c0.02 0.223 0.02 0.447 0 0.67-0.052 0.38 0 0.767 0.15 1.12 0.129 0.278 0.21 0.575 0.24 0.88 0 0.08 0.06 0.07 0.11 0.06 0.25 0 0.51-0.09 0.76 -0.15a1.59 1.59 0 0 0 0.95-0.51 1.29 1.29 0 0 1 0.17-0.16 0.17 0.17 0 0 1 0.23-0.05l0.31 0.15 0.23 0.15 a1.52 1.52 0 0 1-0.12-0.76c0-0.11 0-0.16 0.15 -0.16s0.12 0 0.13-0.1c0.06-0.25 0.13 -0.5 0.2 -0.75 0.093 -0.19 0.137 -0.4 0.13 -0.61a1.67 1.67 0 0 0-0.06-0.24l0.58 0.1 c0.1 0 0.12 0.08 0.12 0.18 a2.28 2.28 0 0 1-0.18 0.82 1.32 1.32 0 0 0-0.14 0.55 0.58 0.58 0 0 1-0.21 0.51 0.19 0.19 0 0 0 0 0.26 0.64 0.64 0 0 1-0.53 0.93 0.88 0.88 0 0 1-0.54-0.2c-0.1-0.08-0.17 0-0.23 0.05 s0 0.07 0 0.08a9.376 9.376 0 0 0 1.26 0.34 c0.293 0.07 0.59 0.12 0.89 0.15 l2.38 0.12 1.22 0.08 a7.59 7.59 0 0 0 1.43-0.1l0.27-0.1a1 1 0 0 1-0.1-0.16c-0.06-0.13-0.08-0.27-0.15-0.39-0.07-0.12-0.25-0.4-0.37-0.6a1.62 1.62 0 0 1-0.23-0.68h0.09c0.112 0.053 0.23 0.094 0.35 0.12 a0.44 0.44 0 0 1 0.39 0.31 c0.185 0.239 0.324 0.51 0.41 0.8 0 0.06 0.05 0.1 0.13 0.07h0.21l0.13 0.88 0.37-0.33a0.29 0.29 0 0 1 0.36 0c0.13 0.075 0.267 0.135 0.41 0.18 0.248 0.073 0.503 0.12 0.76 0.14 0.25 0.015 0.5 0.015 0.75 0 0.08 0 0.14 0 0.14-0.15a6.79 6.79 0 0 1 0-0.78 2.25 2.25 0 0 0 0-1c-0.07-0.21-0.13-0.44-0.2-0.66-0.07-0.22 0-0.22 0.14 -0.26l0.34-0.07c-0.12-0.24-0.23-0.48-0.35-0.7a1.72 1.72 0 0 0-0.86-0.82c-0.1-0.08-0.24-0.11-0.41-0.16zm-14.65-5.68v0.13c0.09 0.215 0.198 0.422 0.32 0.62 A4.84 4.84 0 0 0 23.62 14a8.72 8.72 0 0 0 1.93 0.83 c0.44 0.12 0.88 0.26 1.33 0.35 0.39 0.081 0.784 0.138 1.18 0.17 0.42 0 0.85 0.06 1.27 0.08 1.091 0.07 2.187 0.03 3.27-0.12 0.33 0 0.66-0.1 1-0.16a7.75 7.75 0 0 0 1.62-0.49 5.82 5.82 0 0 0 1.72-1c0.221-0.188 0.41 -0.41 0.56 -0.66a1 1 0 0 0-0.24 0.05 c-0.45 0.11 -0.89 0.23 -1.35 0.33 -0.46 0.1 -0.87 0.16 -1.32 0.22 -0.45 0.06 -1 0.11-1.47 0.15 l-1.76 0.11 a37.23 37.23 0 0 1-4.48-0.11c-0.15 0.01 -0.3 0.01 -0.45 0-0.4-0.08-0.79-0.16-1.18-0.26a8.46 8.46 0 0 1-1-0.29c-0.35-0.12-0.7-0.27-1.05-0.43-0.35-0.16-0.63-0.31-0.94-0.47l-0.6-0.44zm20.64 3.26a0.31 0.31 0 0 0-0.14-0.3c-0.18-0.14-0.37-0.27-0.56-0.4-0.45-0.32-0.9-0.62-1.34-0.95-0.47-0.41-1-0.747-1.57-1-0.23-0.1-0.23-0.11-0.33 0.12 a4.43 4.43 0 0 1-1.11 1.53c-0.24 0.22 -0.51 0.42 -0.77 0.62 -0.1 0.08 -0.1 0.11 0 0.19l0.69 0.62 c0.164 0.13 0.303 0.29 0.41 0.47 a4 4 0 0 0 0.8 1c0.123 0.123 0.23 0.26 0.32 0.41 0.08 0.13 0.13 0.27 0.21 0.39 a0.27 0.27 0 0 0 0.43 0.08 l0.21-0.19 0.61 -0.66a4.73 4.73 0 0 1 1.17-1 3.2 3.2 0 0 0 0.78-0.57 0.52 0.52 0 0 0 0.19-0.36z" fill="#FFF"/>
  <path d="M30.49 13.12l-2-0.06c-0.46 0-0.91-0.07-1.37-0.12-0.46-0.05-1-0.12-1.48-0.21s-1-0.23-1.52-0.39a6.36 6.36 0 0 1-1.9-1A4.15 4.15 0 0 1 21.07 10a3.23 3.23 0 0 1-0.4-1.24 4.11 4.11 0 0 1 0.11-1.26c0-0.27 0.11 -0.55 0.18 -0.83a6.49 6.49 0 0 1 0.23-0.67c0.16-0.42 0.33 -0.83 0.53 -1.23a8 8 0 0 1 3.56-3.58 8.7 8.7 0 0 1 1.41-0.62 10.74 10.74 0 0 1 1.15-0.29c0.39-0.08 0.78 -0.15 1.18-0.2a6.82 6.82 0 0 1 0.79-0.08h1.74c0.58 0 1 0.11 1.54 0.19 a7 7 0 0 1 1 0.24c0.49 0.17 1 0.37 1.44 0.57 a7.51 7.51 0 0 1 1.47 0.85 8.69 8.69 0 0 1 2.54 2.89c0.213 0.42 0.403 0.85 0.57 1.29 0.132 0.345 0.24 0.7 0.32 1.06 0.06 0.28 0.1 0.564 0.12 0.85v1.08a3 3 0 0 1-0.2 1 4.31 4.31 0 0 1-0.22 0.49 2.34 2.34 0 0 1-0.7 0.77 5.23 5.23 0 0 1-1.29 0.71 c-0.36 0.13 -0.72 0.26 -1.09 0.37 -0.37 0.11 -0.66 0.17 -1 0.24l-1.39 0.25 a5 5 0 0 1-0.56 0.07 l-0.69 0.06 c-0.37 0-0.74 0.08 -1.11 0.1 -0.61 0.01 -1.19 0.02 -1.81 0.04 zm-3.38-9.2a0.79 0.79 0 0 0 0.64-0.73 0.23 0.23 0 0 0-0.3-0.22 0.86 0.86 0 0 0-0.6 0.61 0.28 0.28 0 0 0 0.26 0.34 zm3.83-0.61a2 2 0 0 0-0.08-0.31c-0.08-0.22-0.29-0.28-0.42-0.11a0.76 0.76 0 0 0-0.11 0.84 c0.09 0.21 0.28 0.29 0.45 0.06 a0.73 0.73 0 0 0 0.16-0.48zm4.93 1c-0.18 0-0.29 0.18 -0.26 0.32 a1 1 0 0 0 0.47 0.65 c0.09 0.05 0.21 0.09 0.28 0a0.47 0.47 0 0 0 0.09-0.28 0.67 0.67 0 0 0-0.1-0.3 0.64 0.64 0 0 0-0.48-0.4v0.01zm-10.76 0.63 c0-0.24-0.21-0.31-0.38-0.2l-0.18 0.14 a0.84 0.84 0 0 0-0.26 0.49 0.3 0.3 0 0 0 0.1 0.31 0.23 0.23 0 0 0 0.29 0 0.86 0.86 0 0 0 0.43-0.75v0.01zM33.87 4a0.23 0.23 0 0 0 0.26-0.28 0.81 0.81 0 0 0-0.59-0.65 0.22 0.22 0 0 0-0.28 0.24 0.71 0.71 0 0 0 0.61 0.69 zm-4.75 2a0.34 0.34 0 0 0 0-0.09c0-0.21-0.19-0.3-0.34-0.22a0.83 0.83 0 0 0-0.35 0.9 0.23 0.23 0 0 0 0.3 0.13 0.8 0.8 0 0 0 0.39-0.67V6zm3.22 0.86 a2 2 0 0 0 0.06 0.23 0.7 0.7 0 0 0 0.28 0.4 0.23 0.23 0 0 0 0.38-0.13 0.77 0.77 0 0 0-0.06-0.56 0.6 0.6 0 0 0-0.25-0.25c-0.24-0.08-0.39 0.02 -0.41 0.36 v-0.05zM36.31 17.54c0.17 0.05 0.31 0.08 0.44 0.13 0.375 0.162 0.68 0.453 0.86 0.82 0.12 0.22 0.23 0.46 0.35 0.7 l-0.34 0.07 c-0.17 0-0.19 0.09 -0.14 0.26 0.05 0.17 0.13 0.45 0.2 0.66 0.075 0.33 0.075 0.67 0 1a6.79 6.79 0 0 0 0 0.78c0 0.11-0.06 0.14 -0.14 0.15 -0.25 0.015 -0.5 0.015 -0.75 0A3.78 3.78 0 0 1 36 22a2.06 2.06 0 0 1-0.41-0.23 0.29 0.29 0 0 0-0.36 0l-0.37 0.33 -0.13-0.88h-0.21c-0.08 0-0.11 0-0.13-0.07a2.43 2.43 0 0 0-0.41-0.8 0.44 0.44 0 0 0-0.39-0.31 1.61 1.61 0 0 1-0.35-0.12h-0.09c0.025 0.241 0.103 0.473 0.23 0.68 0.12 0.2 0.26 0.39 0.37 0.6 0.11 0.21 0.09 0.26 0.15 0.39 a1 1 0 0 0 0.1 0.16 l-0.29 0.06 a7.59 7.59 0 0 1-1.43 0.1 L31 21.88l-2.38-0.12a6.89 6.89 0 0 1-0.89-0.15c-0.24-0.05-0.48-0.1-0.72-0.17a5.6 5.6 0 0 1-0.54-0.17v-0.08c0-0.01 0.13 -0.13 0.23 -0.05a0.88 0.88 0 0 0 0.54 0.2 0.64 0.64 0 0 0 0.53-0.93 0.19 0.19 0 0 1 0-0.26 0.58 0.58 0 0 0 0.21-0.51 1.32 1.32 0 0 1 0.14-0.55c0.11-0.26 0.171 -0.538 0.18 -0.82 0-0.1 0-0.16-0.12-0.18l-0.58-0.1c0.026 0.078 0.046 0.159 0.06 0.24 0.007 0.21 -0.037 0.42 -0.13 0.61 -0.07 0.25 -0.14 0.5 -0.2 0.75 0 0.09-0.06 0.1 -0.13 0.1 s-0.15 0-0.15 0.16 c-0.026 0.26 0.015 0.521 0.12 0.76 l-0.17-0.12-0.31-0.15a0.17 0.17 0 0 0-0.23 0.05 1.29 1.29 0 0 0-0.17 0.16 1.59 1.59 0 0 1-0.95 0.51 c-0.25 0.06 -0.51 0.11 -0.76 0.15 -0.05 0-0.11 0-0.11-0.06a2.74 2.74 0 0 0-0.24-0.88 2.13 2.13 0 0 1-0.23-1.12 3.75 3.75 0 0 0 0-0.67 0.13 0.13 0 0 0-0.1-0.09h-0.44l0.09-0.5-0.35 0.1 h-0.07a0.28 0.28 0 0 0-0.3 0.29 0.92 0.92 0 0 0 0.06 0.61 0.79 0.79 0 0 0 0.47 0.34 V20a1.35 1.35 0 0 1-0.26-0.18 3.15 3.15 0 0 1-0.81-0.93 1.73 1.73 0 0 1-0.2-0.62 2 2 0 0 0 0-0.24s-0.05-0.07-0.08-0.1l-0.38-0.24a0.23 0.23 0 0 0-0.18 0 4.54 4.54 0 0 1-0.74 0c-0.41-0.08-0.81-0.19-1.22-0.29-0.15 0-0.3 0-0.45-0.06 0.07 -0.14 0.16 -0.19 0.44 -0.28a2.6 2.6 0 0 1-0.32-0.35c-0.18-0.29-0.35-0.58-0.52-0.87a3.91 3.91 0 0 0-0.66-1h0.05c0.46-0.04 0.924 0.018 1.36 0.17 0.26 0.1 0.51 0.23 0.76 0.34 0.204 0.09 0.43 0.119 0.65 0.08 a0.13 0.13 0 0 0 0.07 0v-0.07l-0.48-0.56-0.07-0.13a5.77 5.77 0 0 0 1.4 0.27 c0.12 0 0.15 0 0.18-0.15 0.07 -0.32 0.15 -0.63 0.23 -1l0.3 0.26 c0 0.09 0.23 0.07 0.2 0.22a2.81 2.81 0 0 1-0.08 0.31 c0 0.19-0.09 0.39 -0.14 0.58 -0.05 0.19 -0.13 0.53 -0.19 0.8 l-0.12 0.53 c0 0.12-0.05 0.24 -0.08 0.35 -0.09 0.28 -0.07 0.33 0.18 0.49 a0.92 0.92 0 0 0 0.87 0.08 8.6 8.6 0 0 1 1-0.25 5.32 5.32 0 0 1 1.69 0c0.32 0 0.64 0.09 1 0.13l0.57 0.08 1 0.18 0.88 0.19c0.28 0.07 0.56 0.15 0.83 0.24 0.27 0.09 0.63 0.19 0.93 0.31 0.3 0.12 0.87 0.34 1.3 0.54 0.43 0.2 0.95 0.48 1.45 0.69 A1 1 0 0 0 35 19c0.24-0.43 0.44 -0.87 0.66 -1.3 0.22 -0.43 0.27 -0.56 0.4 -0.83 0.13 -0.27 0.27 -0.6 0.42 -0.9a0.6 0.6 0 0 1 0.06-0.11c0.268 0.18 0.49 0.42 0.65 0.7 0.21 0.36 0.48 0.682 0.8 0.95 0.12 0.136 0.215 0.291 0.28 0.46 0.115 0.313 0.37 0.554 0.69 0.65 a0.83 0.83 0 0 0 0.77-0.18c0.18-0.15 0.34 -0.32 0.51 -0.48a0.4 0.4 0 0 1 0.26-0.16 2.84 2.84 0 0 0 0.92-0.34 3 3 0 0 1 1.39-0.26h0.14c-0.13 0.18 -0.27 0.34 -0.38 0.52 -0.11 0.18 -0.28 0.5 -0.42 0.76 a2.84 2.84 0 0 1-0.6 0.82 0.53 0.53 0 0 0-0.09 0.11 0.85 0.85 0 0 1 0.47 0.26 h-0.14a2.8 2.8 0 0 0-0.86 0.17 3.89 3.89 0 0 1-1.39 0.22 c0.115 0.32 0.16 0.661 0.13 1a2.31 2.31 0 0 1-0.82 1.53 5.82 5.82 0 0 1-1.41 1c-0.45 0.22 -0.91 0.44 -1.38 0.63 a7.6 7.6 0 0 1-0.92 0.3 c-0.25 0.07 -0.49 0.15 -0.74 0.2 a8.43 8.43 0 0 1-0.9 0.17 c-0.42 0.06 -0.85 0.12 -1.28 0.15 -0.43 0.03 -0.87 0-1.3 0h-0.73c-0.4 0-0.8 0-1.2-0.07-0.4-0.07-0.85-0.09-1.27-0.16-0.42-0.07-0.9-0.17-1.35-0.27-0.45-0.1-0.69-0.2-1-0.3a9.06 9.06 0 0 1-1.92-0.83 4.57 4.57 0 0 1-1.42-1.17 2.12 2.12 0 0 1-0.49-1.6 1.64 1.64 0 0 1 0.55-1h0.13c0.264 0.302 0.566 0.568 0.9 0.79 0.14 0.08 0.27 0.17 0.42 0.24 a0.3 0.3 0 0 1 0.18 0.26 1.8 1.8 0 0 0 0.1 0.46 0.54 0.54 0 0 0 0.52 0.34 2.79 2.79 0 0 0 0.95-0.12 1.09 1.09 0 0 1 0.83 0.07 c0.286 0.127 0.58 0.234 0.88 0.32 0.28 0.08 0.56 0.14 0.84 0.2 0.131 0.033 0.265 0.056 0.4 0.07 0.35 0 0.7 0 1.05 0.06 0.35 0.06 1 0 1.45 0.08 a16.93 16.93 0 0 0 2.36 0.08 8.94 8.94 0 0 0 1-0.12c0.08 0 0.11 0 0.14 0.06 a0.63 0.63 0 0 0 1 0.25 0.35 0.35 0 0 1 0.52-0.08c0.146 0.089 0.31 0.143 0.48 0.16 a8.93 8.93 0 0 0 1.16 0 1 1 0 0 0 0.69-0.21 0.59 0.59 0 0 0 0.22-0.44v-0.7c0-0.23 0.06 -0.4 0.05 -0.6-0.01-0.2-0.06-0.5-0.09-0.75 0-0.07 0-0.12 0.05 -0.17a0.57 0.57 0 0 0 0.24-0.83A11.7 11.7 0 0 0 38 18a2 2 0 0 0-1.21-1 0.56 0.56 0 0 0-0.12 0h-0.09c-0.01 0-0.18 0.37 -0.27 0.54 zm-0.36 1c-0.09 0.17 -0.16 0.33 -0.25 0.48 -0.09 0.15 0 0.13 0 0.19 0.22 0.24 0.44 0.48 0.65 0.74 0.21 0.26 0.24 0.34 0.36 0.52 0.19 -0.32-0.46-1.63-0.71-1.91l-0.05-0.02z" fill="#FFF"/>
  <path d="M21.66 11.86l0.62 0.34 c0.31 0.16 0.62 0.33 0.94 0.47 0.32 0.14 0.7 0.31 1.05 0.43 a8.46 8.46 0 0 0 1 0.29c0.39 0.1 0.78 0.18 1.18 0.26 0.15 0.01 0.3 0.01 0.45 0a37.23 37.23 0 0 0 4.48 0.11 l1.76-0.11c0.49 0 1-0.09 1.47-0.15s0.89-0.13 1.32-0.22c0.43-0.09 0.9 -0.22 1.35-0.33a1 1 0 0 1 0.22 0.05 2.66 2.66 0 0 1-0.57 0.71 5.82 5.82 0 0 1-1.72 1 7.75 7.75 0 0 1-1.62 0.49 c-0.33 0.06 -0.66 0.12 -1 0.16a16.22 16.22 0 0 1-3.27 0.12 c-0.42 0-0.85 0-1.27-0.08a9.58 9.58 0 0 1-1.18-0.17c-0.45-0.09-0.89-0.23-1.33-0.35a8.72 8.72 0 0 1-1.92-0.88A4.84 4.84 0 0 1 22 12.61a4.54 4.54 0 0 1-0.32-0.62l-0.02-0.13zM42.3 15.12a0.52 0.52 0 0 1-0.19 0.39 3.2 3.2 0 0 1-0.78 0.57 4.73 4.73 0 0 0-1.17 1l-0.61 0.66 -0.21 0.19 a0.27 0.27 0 0 1-0.43-0.08c-0.08-0.12-0.13-0.26-0.21-0.39a2.15 2.15 0 0 0-0.32-0.41 4 4 0 0 1-0.8-1 1.7 1.7 0 0 0-0.41-0.47l-0.69-0.62c-0.1-0.08-0.1-0.11 0-0.19 0.26 -0.2 0.53 -0.4 0.77 -0.62a4.43 4.43 0 0 0 1.11-1.53c0.1-0.23 0.1 -0.22 0.33 -0.12 0.57 0.253 1.1 0.59 1.57 1 0.44 0.33 0.89 0.63 1.34 0.95 0.19 0.13 0.38 0.26 0.56 0.4 a0.31 0.31 0 0 1 0.14 0.27 z" fill="#FFF"/>
</svg>
