<?xml version="1.0" ?>
<svg xmlns="http://www.w3.org/2000/svg" width="44" height="30" viewBox="0 0 44 30">
  <path d="M17.36 12.31l0.12 0.26 a8.08 8.08 0 0 1 0.6 1.86 7.54 7.54 0 0 1 0.17 2.12 2.82 2.82 0 0 1-0.3 1.17 1.28 1.28 0 0 1-1 0.61 4.21 4.21 0 0 1-1.46 0 8.81 8.81 0 0 1-1.11-0.24c-0.42-0.12-0.84-0.25-1.25-0.41a6 6 0 0 1-1.52-0.8 2.17 2.17 0 0 1-0.82-1.19 2.87 2.87 0 0 1-0.11-0.57 2.18 2.18 0 0 1 0.74-1.72l0.22-0.23-0.32-0.64a3.42 3.42 0 0 0-1.22 1.58c-0.08 0.26 -0.13 0.529 -0.15 0.8 a0.18 0.18 0 0 1-0.14 0.16 l-1.39 0.41 a6 6 0 0 1-2 0.19 1.64 1.64 0 0 1-0.79-0.22 1.23 1.23 0 0 1-0.52-0.76 5.84 5.84 0 0 1 0-2.53c0.09-0.48 0.21 -0.955 0.36 -1.42a4.86 4.86 0 0 1 0.63-1.36 2.87 2.87 0 0 1 1.51-1.21c0.09 0 0.21 0 0.26-0.09 0.05 -0.09 0-0.17 0-0.26a2.12 2.12 0 0 1 0.61-1.27 3.87 3.87 0 0 1 1.22-0.81v-0.39a2.2 2.2 0 0 1 0.93-2.13 4.35 4.35 0 0 1 1.08-0.59c0.28-0.11 0.57 -0.19 0.86 -0.3a1.29 1.29 0 0 0 0.73-0.8 2.82 2.82 0 0 0 0.2-1c0-0.43 0.2 -0.58 0.61 -0.46a5.23 5.23 0 0 1 1.46 0.72 3.55 3.55 0 0 1 1.23 1.43 0.78 0.78 0 0 0 0.48 0.44 2.85 2.85 0 0 1 1.63 1.73c0.13 0.424 0.194 0.866 0.19 1.31 0 0.09 0 0.15 0.12 0.18a2.21 2.21 0 0 1 1.2 1c0.217 0.344 0.372 0.723 0.46 1.12 0 0.2 0.06 0.2 0.26 0.16a1.68 1.68 0 0 1 0.89 0.08 3 3 0 0 1 1.64 1.59c0.253 0.484 0.444 0.998 0.57 1.53 0.107 0.43 0.183 0.869 0.23 1.31a7 7 0 0 1 0 1.12 2.75 2.75 0 0 1-0.31 1.25 1.24 1.24 0 0 1-0.84 0.6 4.32 4.32 0 0 1-1.34 0 6.32 6.32 0 0 1-0.95-0.17c-0.33-0.08-0.66-0.16-1-0.27-0.34-0.11-0.67-0.2-1.03-0.34a0.32 0.32 0 0 1-0.14-0.21c-0.09-0.41-0.16-0.83-0.28-1.23a9.72 9.72 0 0 0-0.39-1s-0.05-0.06-0.07-0.06c-0.25-0.04-0.49-0.04-0.76-0.05zm0.5-0.65c0.126 0.015 0.254 0.015 0.38 0a2.53 2.53 0 0 0 1.37-0.78 2.3 2.3 0 0 0 0.59-1.16 2.6 2.6 0 0 0 0-0.88 4.12 4.12 0 0 0-0.35-1.29 1.68 1.68 0 0 0-0.85-0.91c-0.1 0-0.13 0-0.18 0.05 a5 5 0 0 1-0.47 0.45 0.27 0.27 0 0 0-0.12 0.28 c0.062 0.39 0.038 0.79 -0.07 1.17a2 2 0 0 1-0.77 1.14 3 3 0 0 1-1.59 0.52 c-0.58 0.01 -1.161-0.01-1.74-0.06-0.39 0-0.78-0.08-1.16-0.13-0.2 0-0.4-0.1-0.6-0.12a1.62 1.62 0 0 0-0.66 0c-0.36 0.14 -0.48 0.49 -0.59 0.83 -0.11 0.34 0 0.31 0.16 0.43 0.368 0.355 0.666 0.776 0.88 1.24a2.94 2.94 0 0 0 1.19 1.39 1 1 0 0 0 1.25-0.06 3.05 3.05 0 0 0 0.83-1.47 1.21 1.21 0 0 1 0.49-0.71 1.63 1.63 0 0 1 1.28-0.12l0.73 0.19 zm-0.28-4.07h-0.08c-0.18 0.05 -0.36 0.13 -0.54 0.17 -0.45 0.08 -0.89 0.16 -1.34 0.2 a12.93 12.93 0 0 1-2.78-0.14l-0.42-0.09c-0.25 0-0.49-0.12-0.73-0.15a2.24 2.24 0 0 0-1.69 0.49 4.19 4.19 0 0 0-1.1 1.27 0.16 0.16 0 0 0 0 0.21 3.21 3.21 0 0 0 1.49 1c0.1-0.21 0.18 -0.42 0.29 -0.61a1.34 1.34 0 0 1 1.34-0.77c0.45 0 0.9 0.12 1.36 0.18 0.46 0.06 1 0.14 1.49 0.17 a4.2 4.2 0 0 0 1.79-0.24 1.45 1.45 0 0 0 0.92-1.69zm-2-5.82h-0.05v0.09c0.143 0.314 0.211 0.656 0.2 1a4.23 4.23 0 0 1-0.11 0.87 3.88 3.88 0 0 1-0.57 1.13A1.12 1.12 0 0 0 15 6c0.22 0.463 0.567 0.855 1 1.13a0.29 0.29 0 0 0 0.18 0l0.75-0.13a2.55 2.55 0 0 0 1-0.46c0.17-0.12 0.34 -0.24 0.35 -0.48 0.027 -0.5-0.047-1-0.22-1.47a2.14 2.14 0 0 0-1.6-1.38c-0.17 0-0.24-0.16-0.3-0.32a4.43 4.43 0 0 0-0.28-0.68 3.28 3.28 0 0 0-0.3-0.44zm-0.88 0.08 a7 7 0 0 1-0.17 0.75 3.22 3.22 0 0 1-0.95 1.4 6.07 6.07 0 0 0-0.93 0.82 1.89 1.89 0 0 0-0.38 0.81 1.29 1.29 0 0 0 0.33 1.07c0.19 0.21 0.37 0.46 0.69 0.48 l1.51 0.08 h0.1a0.28 0.28 0 0 0-0.05-0.08 2.4 2.4 0 0 1-0.65-1.39 2 2 0 0 1 0.19-1.1A6.33 6.33 0 0 0 15 3.47a2.12 2.12 0 0 0-0.3-1.62zm-0.82 0.09 a2.39 2.39 0 0 1-0.64 0.82 4.53 4.53 0 0 1-1.24 0.52 4 4 0 0 0-1.17 0.66 1.43 1.43 0 0 0-0.51 1.24c0.03 0.224 0.081 0.445 0.15 0.66 a0.44 0.44 0 0 1-0.22 0.45 3.71 3.71 0 0 0-1 0.57 1.59 1.59 0 0 0-0.65 1.49 3.42 3.42 0 0 1 3.2-1.54 2.17 2.17 0 0 1-0.17-0.4 2 2 0 0 1 0.18-1.67 3.32 3.32 0 0 1 0.91-1 3.14 3.14 0 0 0 1.08-1.32 0.6 0.6 0 0 0 0.08-0.48zM23 12.8c-0.07 0-0.13 0-0.14 0.17 a0.6 0.6 0 0 0 0.45 0.57 0.18 0.18 0 0 0 0.25-0.16 0.65 0.65 0 0 0-0.56-0.58zm-2.54 1a0.7 0.7 0 0 0-0.39-0.46c-0.11 0-0.2-0.07-0.26 0a0.43 0.43 0 0 0 0 0.27c0.07 0.19 0.22 0.34 0.41 0.41 0.07 0.11 0.2-0.02 0.2 -0.19l0.04-0.03zm-3.7 1.6a0.17 0.17 0 0 0-0.19 0.19 0.64 0.64 0 0 0 0.38 0.52 0.33 0.33 0 0 0 0.14 0 0.2 0.2 0 0 0 0.19-0.19 0.64 0.64 0 0 0-0.52-0.52zm-4-0.26a0.65 0.65 0 0 0-0.4-0.52c-0.17 0-0.32 0-0.3 0.18 a0.61 0.61 0 0 0 0.49 0.54 c0.19 0.01 0.25-0.04 0.25 -0.2h-0.04zm9-5a0.66 0.66 0 0 0-0.46-0.54c-0.17 0-0.27 0.07 -0.25 0.24 a0.69 0.69 0 0 0 0.48 0.5 0.18 0.18 0 0 0 0.25-0.2h-0.02zM7.7 12.53c0 0.17 0 0.22 0.22 0.2a0.7 0.7 0 0 0 0.5-0.52c0-0.14-0.06-0.21-0.2-0.21a0.64 0.64 0 0 0-0.52 0.53 zm14.08 0.07 a0.69 0.69 0 0 0-0.44-0.49 0.18 0.18 0 0 0-0.26 0.22 0.67 0.67 0 0 0 0.44 0.51 c0.15 0.05 0.26-0.04 0.26 -0.24zm-7.61 3.89a0.6 0.6 0 0 0-0.39-0.52 0.28 0.28 0 0 0-0.24 0 0.3 0.3 0 0 0-0.06 0.23 0.65 0.65 0 0 0 0.42 0.46 c0.16 0.07 0.27 0 0.27-0.17zm8.5-5.49a0.19 0.19 0 0 0-0.19 0.26 0.7 0.7 0 0 0 0.34 0.43 c0.17 0.1 0.35 0 0.36-0.13a0.6 0.6 0 0 0-0.51-0.56zm-7.22 5.7a0.55 0.55 0 0 0 0.33 0.49 0.34 0.34 0 0 0 0.28 0c0.11-0.05 0.08 -0.18 0.06 -0.28a0.63 0.63 0 0 0-0.4-0.41c-0.17-0.08-0.27-0.02-0.27 0.17 v0.03zm1-3.09c-0.16 0-0.19 0-0.2 0.18 -0.01 0.18 0.23 0.47 0.38 0.52 0.15 0.05 0.32 0 0.32-0.16a0.62 0.62 0 0 0-0.5-0.57v0.03zM6.33 11.4c0 0.16 0.09 0.26 0.23 0.21a0.68 0.68 0 0 0 0.47-0.5 0.19 0.19 0 0 0-0.2-0.24 0.62 0.62 0 0 0-0.5 0.53 zm2.74 2.4c0 0.13 0.08 0.23 0.19 0.21a0.64 0.64 0 0 0 0.51-0.52c0-0.13-0.08-0.24-0.19-0.22-0.11 0.02 -0.53 0.3 -0.51 0.53 zm6.46 1.44a0.61 0.61 0 0 0-0.48-0.54 0.2 0.2 0 0 0-0.22 0.25 0.7 0.7 0 0 0 0.34 0.43 c0.19 0.11 0.36 0.04 0.36-0.14zm-9-2.52a0.6 0.6 0 0 0-0.5 0.45 c0 0.19 0.06 0.31 0.24 0.27a0.7 0.7 0 0 0 0.45-0.51c0-0.14-0.08-0.21-0.21-0.21h0.02zm0.6 1.58c0 0.17 0 0.21 0.21 0.2a0.61 0.61 0 0 0 0.45-0.5c0-0.16-0.1-0.23-0.24-0.19a0.68 0.68 0 0 0-0.44 0.49 h0.02zm15.29 0.07 a0.62 0.62 0 0 0-0.53-0.51 0.2 0.2 0 0 0-0.19 0.23 0.71 0.71 0 0 0 0.33 0.44 0.44 0.44 0 0 0 0.3 0s0.04-0.1 0.07 -0.16h0.02zm-12-1.92c0 0.18 0.07 0.26 0.24 0.21a0.64 0.64 0 0 0 0.41-0.33c0-0.09-0.13-0.36-0.23-0.38a0.67 0.67 0 0 0-0.4 0.5 h-0.02zM8.06 9.56a0.54 0.54 0 0 0-0.34 0.38 0.34 0.34 0 0 0 0 0.24 0.2 0.2 0 0 0 0.28 0l0.21-0.15a0.13 0.13 0 0 0 0-0.21l-0.15-0.26zm10.82 3.18a0.33 0.33 0 0 0 0.12-0.06c0.08-0.07 0-0.23-0.07-0.41-0.07-0.18-0.15-0.06-0.23 0h-0.21c-0.1 0-0.11 0.07 -0.09 0.15 a0.71 0.71 0 0 0 0.48 0.32 zm-9.63-1.37c0.16 0 0.46-0.22 0.41 -0.28a1 1 0 0 0-0.37-0.24c-0.06 0-0.22 0.24 -0.21 0.37 0.01 0.13 0.07 0.15 0.17 0.15 zm11.17-0.12l-0.08-0.09-0.2 0.25 s0.06 0.07 0.09 0.07 0.18-0.06 0.19 -0.23z" fill="#FFF"/>
  <path d="M4.06 12.3l-0.52 0.43 a3.62 3.62 0 0 0-1.1 1.54 2.11 2.11 0 0 0-0.07 1.14 2.19 2.19 0 0 0 0.81 1.38 2 2 0 0 0 0.93 0.36 8.41 8.41 0 0 0 1.33 0.06 1.64 1.64 0 0 1 1.49 0.79 c0.27 0.36 0.571 0.694 0.9 1a2.57 2.57 0 0 0 1.06 0.58 7.25 7.25 0 0 0 2.81 0.31 6.32 6.32 0 0 0 1.13-0.24c0.41-0.11 0.82 -0.26 1.23-0.38a1.25 1.25 0 0 1 0.76 0.07 l1 0.36c0.32 0.11 0.63 0.21 1 0.3 0.255 0.078 0.516 0.135 0.78 0.17a11.9 11.9 0 0 0 1.33 0.1 c0.472-0.01 0.94 -0.1 1.38-0.27a10.36 10.36 0 0 1 1.11-0.38c0.5-0.12 1.02-0.12 1.52 0 0.469 0.094 0.87 0.396 1.09 0.82 A0.55 0.55 0 0 1 24 21a2.29 2.29 0 0 1-0.94 0.91 3.35 3.35 0 0 1-0.54 0.16 l-0.78 0.19 -0.8 0.15 -1.58 0.23 c-0.23 0-0.46 0.06 -0.69 0.08 l-1.3 0.1 c-1.39 0.1 -2.78 0.12 -4.18 0.09 l-1.55-0.06c-0.55 0-1.1-0.08-1.65-0.14-0.55-0.06-1-0.11-1.5-0.18-0.5-0.07-0.86-0.16-1.29-0.24-0.43-0.08-0.87-0.16-1.29-0.29-0.7-0.2-1.4-0.43-2.08-0.68a10.34 10.34 0 0 1-2.28-1.22 3.36 3.36 0 0 1-1.32-1.59 3.87 3.87 0 0 1-0.21-1v-1.42a2.41 2.41 0 0 1 0.5-1.49A5.76 5.76 0 0 1 2.44 13c0.48-0.26 1-0.48 1.46-0.72a0.66 0.66 0 0 1 0.15 0l0.01 0.02 z" fill="#FFF"/>
  <path d="M28.18 20.22a0.61 0.61 0 0 1 0 0.16v1a3.25 3.25 0 0 1-0.88 1.82 6.58 6.58 0 0 1-1.64 1.18c-0.54 0.28 -1.09 0.53 -1.66 0.77 -0.41 0.17 -0.84 0.28 -1.26 0.41 -0.42 0.13 -0.74 0.21 -1.11 0.3 l-1.16 0.22 c-0.34 0.07 -0.67 0.13 -1 0.18l-0.52 0.07 c-0.53 0.05 -1.06 0.1 -1.59 0.13 -0.93 0.05 -1.86 0.11 -2.79 0.12 -0.93 0.01 -1.79 0-2.68-0.07-0.52 0-1-0.06-1.54-0.12s-1.13-0.15-1.7-0.24c-0.3 0-0.61-0.08-0.91-0.14-0.3-0.06-0.67-0.15-1-0.24l-1.07-0.28a7.75 7.75 0 0 1-0.81-0.28c-0.53-0.22-1.07-0.43-1.58-0.69a6.9 6.9 0 0 1-2-1.43 3.6 3.6 0 0 1-0.73-1.33 4.75 4.75 0 0 1-0.19-1.59 0.81 0.81 0 0 1 0-0.09s0.08 0.05 0.11 0.08 a7.74 7.74 0 0 0 2 1.29c0.53 0.25 1.06 0.49 1.61 0.7 0.359 0.14 0.726 0.258 1.1 0.35 0.37 0.11 0.74 0.22 1.11 0.31 0.37 0.09 0.71 0.19 1.05 0.19 l1.35 0.23 0.61 0.08 0.94 0.08 c0.88 0.06 1.76 0.15 2.63 0.16 h4.37c0.56 0 1.11-0.07 1.67-0.13 0.56 -0.06 1.28-0.16 1.92-0.26 0.46 -0.07 0.91 -0.16 1.36-0.27 0.45 -0.11 1.15-0.26 1.71-0.44a13.55 13.55 0 0 0 2.8-1.19c0.48-0.309 0.944 -0.643 1.39-1l0.09-0.04zM0.37 23.18l0.1 0.06 a5.57 5.57 0 0 0 1.67 1.5c0.595 0.36 1.217 0.674 1.86 0.94 0.43 0.18 0.88 0.32 1.32 0.47 0.44 0.15 1 0.3 1.54 0.44 0.34 0.09 0.69 0.15 1 0.21 0.31 0.06 0.94 0.17 1.41 0.23 s0.94 0.11 1.41 0.16 a34.52 34.52 0 0 0 3.52 0.14 h2.23c0.74 0 1.2-0.07 1.8-0.12 0.6 -0.05 1.07-0.12 1.61-0.2 0.54 -0.08 1-0.16 1.47-0.27 0.47 -0.11 1.12-0.26 1.66-0.42 0.54 -0.16 1.2-0.38 1.77-0.61a10.73 10.73 0 0 0 2-1.05 7 7 0 0 0 1.43-1.24l0.07-0.08a0.92 0.92 0 0 1 0 0.15v1a3.48 3.48 0 0 1-0.49 1.59 4.09 4.09 0 0 1-1.35 1.3 9 9 0 0 1-1.55 0.85 c-0.41 0.17 -0.81 0.35 -1.22 0.5 -0.41 0.15 -0.78 0.24 -1.17 0.35 -0.39 0.11 -0.79 0.21 -1.19 0.3 -0.4 0.09 -0.6 0.12 -0.89 0.16 -0.47 0.08 -0.95 0.15 -1.42 0.21 s-0.77 0.08 -1.16 0.12 a26.54 26.54 0 0 1-3 0.12h-2.56c-0.59 0-1.17-0.07-1.75-0.12-0.58-0.05-1.07-0.12-1.6-0.2-0.53-0.08-1-0.16-1.45-0.27-0.45-0.11-1-0.22-1.55-0.38a15.85 15.85 0 0 1-2.29-0.87A10.33 10.33 0 0 1 1.74 27a3.51 3.51 0 0 1-1.07-1.47 4.43 4.43 0 0 1-0.3-1.69v-0.66z" fill="#FFF"/>
  <path d="M24.64 21.4c0.016-0.075 0.04 -0.15 0.07 -0.22a1 1 0 0 0 0-1A2.28 2.28 0 0 0 23.4 19a3.16 3.16 0 0 0-1.52-0.18 7.1 7.1 0 0 0-1.55 0.41 4 4 0 0 1-0.84 0.22 5 5 0 0 1-1.76 0l-1-0.2v-0.06l0.36-0.07a2.06 2.06 0 0 0 1.35-0.72 2.63 2.63 0 0 0 0.43-0.89A4.76 4.76 0 0 0 19 16v-0.31l0.3 0.1 0.88 0.29 c0.32 0.09 0.65 0.16 1 0.24 0.124 0.034 0.252 0.057 0.38 0.07a14.8 14.8 0 0 0 1.48 0.07 2.27 2.27 0 0 0 1.32-0.44c0.255-0.2 0.455 -0.461 0.58 -0.76L25 15c0.15 0.21 0.29 0.38 0.41 0.57 0.223 0.386 0.395 0.8 0.51 1.23 0.07 0.214 0.113 0.436 0.13 0.66 0.047 0.438 0.201 0.857 0.45 1.22 0.22 0.32 0.45 0.63 0.68 0.94 0.08 0.11 0 0.16 0 0.24a3.78 3.78 0 0 1-0.85 0.69 11.9 11.9 0 0 1-1.69 0.85 zM13.43 18.58a1.58 1.58 0 0 1-0.26 0.13 c-0.23 0.08 -0.47 0.16 -0.71 0.22 a5 5 0 0 1-1.89 0.15 c-0.29 0-0.59 0-0.87-0.1a3 3 0 0 1-1.9-1.08 5.78 5.78 0 0 0-0.94-1 1.82 1.82 0 0 0-1-0.35c-0.53 0-1.07 0-1.6-0.08a1.15 1.15 0 0 1-1.13-0.86 1.63 1.63 0 0 1 0.11-1.36 3.76 3.76 0 0 1 0.87-1h0.1v0.14c0.001 0.398 0.028 0.795 0.08 1.19A2.23 2.23 0 0 0 5.16 16c0.248 0.178 0.53 0.301 0.83 0.36 0.56 0.09 1.13 0.09 1.69 0a8.36 8.36 0 0 0 1.23-0.24c0.36-0.09 0.71 -0.21 1.07-0.31 0.05 -0.003 0.1 0.02 0.13 0.06a2.86 2.86 0 0 0 1 1.53c0.34 0.256 0.705 0.477 1.09 0.66 0.39 0.19 0.8 0.33 1.23 0.52 zM25.51 12.72l0.42 0.2 a7.37 7.37 0 0 1 1.69 1.19c0.463 0.42 0.788 0.971 0.93 1.58a1.37 1.37 0 0 1 0 0.19v2a2.79 2.79 0 0 1-0.62 1.58 5.65 5.65 0 0 1-0.4-0.48c-0.22-0.35-0.43-0.7-0.63-1.06a0.82 0.82 0 0 1-0.09-0.35 6.2 6.2 0 0 0-0.6-2 2.91 2.91 0 0 0-0.71-1c-0.07 0-0.07-0.11-0.05-0.2a3.4 3.4 0 0 0 0.06-1.65zM42.58 24.7l-0.06-0.34-0.21-1a4.8 4.8 0 0 0-0.55-1.36 2.65 2.65 0 0 0-0.56-0.69c-0.15-0.14-0.28-0.31-0.42-0.46a7.34 7.34 0 0 0-1.92-1.46 4.79 4.79 0 0 0-2.16-0.56 4.48 4.48 0 0 0-1.26 0.15 4.58 4.58 0 0 0-1.07 0.45 c-0.16 0.1 -0.17 0.1 -0.25-0.08a7.35 7.35 0 0 1-0.34-0.76 3.13 3.13 0 0 1-0.21-1.25 1.76 1.76 0 0 1 0.13-0.5 0.64 0.64 0 0 1 0.25-0.24c0.38-0.23 0.75 -0.47 1.14-0.68 0.325 -0.16 0.659 -0.3 1-0.42 0.32 -0.12 0.66 -0.22 1-0.31a6.25 6.25 0 0 1 0.62-0.16c0.34-0.07 0.68 -0.14 1-0.19 0.32 -0.05 0.71 -0.09 1.07-0.11a3.06 3.06 0 0 1 1.27 0.17 0.72 0.72 0 0 1 0.4 0.33 c0.17 0.34 0.39 0.67 0.56 1 0.17 0.33 0.28 0.66 0.42 1 0.14 0.34 0.19 0.49 0.27 0.74 0.08 0.25 0.13 0.5 0.18 0.75 0.065 0.277 0.115 0.558 0.15 0.84 0 0.38 0.09 0.75 0.11 1.13 0 0.56 0 1.11 0.06 1.67a4.51 4.51 0 0 1-0.54 2.3l-0.08 0.04 zM33.89 28.09a0.61 0.61 0 0 0 0.29-0.28 1.3 1.3 0 0 0 0.15-1.12 3.37 3.37 0 0 0-0.78-1.31 0.23 0.23 0 0 1-0.07-0.21 5.89 5.89 0 0 1 0.52-1.53 1.26 1.26 0 0 1 0.54-0.53 6.1 6.1 0 0 1 0.57-0.29 2.22 2.22 0 0 1 1.87 0 3 3 0 0 1 0.79 0.62 c0.21 0.21 0.41 0.43 0.6 0.65 a1.5 1.5 0 0 1 0.19 0.25 c0.233 0.372 0.446 0.756 0.64 1.15a3.74 3.74 0 0 1 0.37 1.83 3 3 0 0 1-0.69 1.75 4.27 4.27 0 0 1-0.72 0.69 0.8 0.8 0 0 1-0.32 0.1 5.84 5.84 0 0 1-0.73 0.11 6.51 6.51 0 0 1-1.51 0.03 6.26 6.26 0 0 1-2-0.65 6.79 6.79 0 0 1-1.45-1.05 1.16 1.16 0 0 1-0.36-0.51 1.58 1.58 0 0 1 0-1.19 0.9 0.9 0 0 1 0.65-0.52 2.82 2.82 0 0 1 0.66-0.08 0.39 0.39 0 0 1 0.22 0.09 1.6 1.6 0 0 1 0.59 0.79 c0.095 0.29 0.116 0.6 0.06 0.9 -0.03 0.06 -0.05 0.22 -0.08 0.31 z" fill="#FFF"/>
  <path d="M34.09 22.78a3.7 3.7 0 0 1 0.07-1.72c0.1-0.36 0.25 -0.72 0.37 -1.08a0.41 0.41 0 0 1 0.33-0.27 5.36 5.36 0 0 1 0.77-0.18 4.84 4.84 0 0 1 0.85 0 5.11 5.11 0 0 1 2 0.54c0.44 0.207 0.85 0.473 1.22 0.79 a6.4 6.4 0 0 1 0.72 0.66 c0.264 0.32 0.511 0.654 0.74 1 0.155 0.217 0.288 0.448 0.4 0.69 0.182 0.334 0.33 0.686 0.44 1.05 0.09 0.417 0.12 0.845 0.09 1.27a4.44 4.44 0 0 1-0.36 1.34 5.29 5.29 0 0 1-0.83 1.26 4.44 4.44 0 0 1-0.38 0.37 c-0.14 0.13 -0.27 0.26 -0.41 0.37 l-0.53 0.38 h-0.11a0.15 0.15 0 0 1 0-0.13c0.05-0.09 0.12 -0.18 0.17 -0.27a3.19 3.19 0 0 0 0.36-2.08 5.44 5.44 0 0 0-0.22-1 6.65 6.65 0 0 0-0.77-1.53 9.17 9.17 0 0 0-0.81-1.05 3.12 3.12 0 0 0-1.93-1.07 3 3 0 0 0-0.9 0.05 4.07 4.07 0 0 0-1.21 0.52 l-0.07 0.09 zM33.47 16.34c-0.06-0.07-0.13-0.14-0.18-0.21a11.73 11.73 0 0 1-0.91-1.67 3 3 0 0 1-0.14-0.42c0-0.08 0-0.11 0.07 -0.14 0.28 -0.14 0.57 -0.27 0.84 -0.43 0.27 -0.16 0.7 -0.46 1-0.7a5.32 5.32 0 0 0 0.47-0.36l0.59-0.57c0.17-0.18 0.34 -0.35 0.49 -0.54 0.15 -0.19 0.45 -0.62 0.67 -0.94a0.13 0.13 0 0 1 0.16-0.06 4.69 4.69 0 0 1 1.66 0.78 c0.278 0.206 0.526 0.448 0.74 0.72 a6 6 0 0 1 0.54 0.87 c0.11 0.215 0.2 0.439 0.27 0.67 0.065 0.203 0.115 0.41 0.15 0.62 0 0.08 0 0.1-0.11 0.1 h-0.41l-1.08 0.14 a5.59 5.59 0 0 0-0.59 0.11 c-0.24 0.05 -0.47 0.1 -0.7 0.17 -0.23 0.07 -0.7 0.22 -1 0.34a4.34 4.34 0 0 0-0.7 0.3 13 13 0 0 0-1.15 0.65 7.26 7.26 0 0 0-0.63 0.5 l-0.05 0.07 zM32.33 13.24l-0.43 0.22 a0.08 0.08 0 0 1-0.13 0c-0.24-0.28-0.47-0.56-0.71-0.83-0.24-0.27-0.57-0.6-0.84-0.9-0.27-0.3-0.45-0.48-0.66-0.74A3.25 3.25 0 0 1 29 9.91a0.81 0.81 0 0 1 0.26-0.91 1 1 0 0 1 1.22 0s0.09 0 0.11 0.09 c0.02 0.09 0.13 0.06 0.21 0a3.15 3.15 0 0 1 1.2-0.31 5.05 5.05 0 0 1 1.7 0.22 c0.452 0.122 0.891 0.29 1.31 0.5 0.24 0.12 0.46 0.27 0.7 0.39 0.08 0 0.08 0.08 0.06 0.15 a2.82 2.82 0 0 1-0.53 0.94 5.67 5.67 0 0 1-0.58 0.62 6.44 6.44 0 0 1-0.56 0.48 l-0.6 0.47 c-0.12 0.09 -0.25 0.17 -0.38 0.25 l-0.79 0.44 z" fill="#FFF"/>
</svg>
