<?xml version="1.0" ?>
<svg xmlns="http://www.w3.org/2000/svg" width="25" height="32" viewBox="0 0 25 32">
  <path d="M12.49 31.36h-1.05c-0.59 0-1.17 0-1.76-0.06-0.59-0.06-1-0.07-1.44-0.12l-1.59-0.23c-0.387-0.05-0.77-0.12-1.15-0.21-0.48-0.11-1-0.26-1.44-0.4a6 6 0 0 1-1.42-0.62c-0.15-0.1-0.32-0.18-0.38-0.37a0.59 0.59 0 0 1 0-0.19V26a0.94 0.94 0 0 1 0.48-0.73 4.56 4.56 0 0 1 1.25-0.62l0.62-0.19a0.15 0.15 0 0 0 0.1-0.13v-2a0.22 0.22 0 0 0-0.08-0.15 12.43 12.43 0 0 1-2.83-3.3A10.61 10.61 0 0 1 0.68 16.5c-0.16-0.5-0.31-1.08-0.43-1.62a10.6 10.6 0 0 1-0.23-3c0-0.58 0.14 -1.15 0.22 -1.72a10.3 10.3 0 0 1 0.57-2A12.71 12.71 0 0 1 2.2 5.44a12.56 12.56 0 0 1 2.27-2.5 11.23 11.23 0 0 1 2.8-1.77A17.67 17.67 0 0 1 9 0.52c0.476-0.139 0.96 -0.249 1.45-0.33A10.08 10.08 0 0 1 13 0c0.52 0 1 0.1 1.56 0.17 0.35 0.05 0.7 0.12 1 0.2 0.3 0.08 0.73 0.23 1.1 0.35 a9.62 9.62 0 0 1 1.83 0.81 A12.66 12.66 0 0 1 24 7.6c0.2 0.483 0.37 0.977 0.51 1.48 0.15 0.51 0.25 1 0.36 1.54 0.03 0.159 0.05 0.319 0.06 0.48 0 0.71 0.07 1.42 0 2.13a9.31 9.31 0 0 1-0.17 1.49 12.57 12.57 0 0 1-1.68 4.34 13 13 0 0 1-2.69 3.08 0.26 0.26 0 0 0-0.09 0.18 v2c0 0.1 0 0.13 0.13 0.16a5.52 5.52 0 0 1 1.9 0.85 1 1 0 0 1 0.42 0.87 V29a0.76 0.76 0 0 1-0.42 0.74 6.65 6.65 0 0 1-1.42 0.62 c-0.48 0.15 -1 0.29-1.44 0.41 -0.44 0.12 -0.75 0.15 -1.12 0.21 l-1.57 0.22 c-0.22 0-0.45 0.05 -0.67 0.06 l-1.25 0.08 -2.41 0.08 0.04-0.06zm0-8.25l1.74-0.11c0.22 0 0.44 0 0.66-0.07l1-0.16c0.34-0.06 0.69 -0.12 1-0.21 0.31 -0.09 0.82 -0.22 1.23-0.34a4.13 4.13 0 0 0 1.46-0.71 11.92 11.92 0 0 0 2.73-3.11 10.83 10.83 0 0 0 1.48-4c0.07-0.49 0.13 -1 0.16-1.49a8.66 8.66 0 0 0-0.1-2c-0.08-0.43-0.14-0.86-0.25-1.28a12.31 12.31 0 0 0-0.52-1.59A11.2 11.2 0 0 0 21.23 5a11.41 11.41 0 0 0-3.71-2.86 8.63 8.63 0 0 0-1.77-0.68c-0.49-0.13-1-0.26-1.47-0.35A8.07 8.07 0 0 0 13.19 1a11.52 11.52 0 0 0-2.49 0.12 9.55 9.55 0 0 0-1.47 0.36 15 15 0 0 0-1.69 0.63 11 11 0 0 0-2.63 1.74 11.51 11.51 0 0 0-2.59 3.29 11.06 11.06 0 0 0-0.83 2c-0.136 0.476 -0.243 0.96 -0.32 1.45-0.09 0.489 -0.147 0.983 -0.17 1.48-0.03 0.463 -0.03 0.927 0 1.39 0.038 0.443 0.102 0.884 0.19 1.32 0.12 0.53 0.26 1.05 0.43 1.56 0.292 0.83 0.689 1.62 1.18 2.35a11.63 11.63 0 0 0 2.32 2.63c0.233 0.231 0.5 0.427 0.79 0.58 a19.08 19.08 0 0 0 1.94 0.63 c0.431 0.112 0.869 0.198 1.31 0.26 0.54 0.09 1.07 0.18 1.61 0.23 0.54 0.05 1.15 0.06 1.74 0.09 h-0.02zm0 4.7l1.65-0.06 2-0.14a5 5 0 0 0 0.54-0.06l1.3-0.23c0.33-0.06 0.65 -0.12 1-0.2 0.35 -0.08 0.88 -0.26 1.31-0.42a5.05 5.05 0 0 0 1.27-0.64c0.13-0.09 0.13 -0.12 0-0.2a8 8 0 0 0-0.88-0.43 0.71 0.71 0 0 0-0.49-0.05 10.25 10.25 0 0 1-1.77 0.6 c-0.53 0.12 -1.07 0.25 -1.6 0.35 -0.53 0.1 -0.91 0.14 -1.36 0.18 -0.69 0-1.37 0.11 -2.06 0.12 a26.91 26.91 0 0 1-4.11-0.16c-0.38 0-0.77-0.08-1.14-0.15-0.54-0.1-1.08-0.21-1.6-0.35-0.52-0.14-1-0.32-1.5-0.48-0.17-0.06-0.32-0.19-0.53-0.13a3.65 3.65 0 0 0-1.13 0.53 c-0.09 0.06 -0.1 0.09 0 0.16a6 6 0 0 0 1.43 0.71 14.29 14.29 0 0 0 2.31 0.61 c0.56 0.1 1.11 0.17 1.67 0.24 0.56 0.07 1 0.1 1.45 0.12 0.75 0.04 1.5 0.05 2.29 0.08 h-0.05z" fill="#FFF"/>
</svg>
