<?xml version="1.0" ?>
<svg xmlns="http://www.w3.org/2000/svg" width="38" height="31" viewBox="0 0 38 31">
  <path d="M5.88 22.4v-8.79l-0.46 0.39 -4 3.54c-0.13 0.11 -0.19 0.11 -0.31 0-0.33-0.37-0.67-0.72-1-1.07-0.11-0.11-0.12-0.19 0-0.31l4.43-3.82 4.05-3.5a0.53 0.53 0 0 0 0.2-0.45V2.74h1.83V7a1.29 1.29 0 0 0 0.21-0.12l3.94-3.49L18.3 0.27 c0.41-0.36 0.42 -0.36 0.84 0l4.14 3.61L26.89 7l4.44 3.88 4.44 3.86 1.58 1.37c0.13 0.11 0.11 0.19 0 0.29l-1 1.11c-0.1 0.11 -0.17 0.09 -0.27 0L32 14l-0.49-0.42v8.8" fill="#FFF"/>
  <path d="M31.53 20.62v10.33H5.9v-0.45-9.79" fill="#FFF"/>
</svg>
