<?xml version="1.0" ?>
<svg xmlns="http://www.w3.org/2000/svg" width="32" height="33" viewBox="0 0 32 33">
  <path d="M15.68 32.55h5.34c0.79 0 1-0.26 1-1v-7.44c0-0.74 0.24 -1 1-1h7.2c1.22 0 1.22 0 1.22-1.26v-7.92c0-0.78 0.11 -1.56 0.08 -2.34-0.05-1-0.2-1.14-1.23-1.14h-7c-1.15 0-1.2 0-1.21-1.16v-7.2c0-1-0.09-1.12-1.1-1.12H10.57C9.5 1 9.41 1.09 9.41 2.15v6.94c-0.01 1.28-0.08 1.37-1.41 1.38H1.05c-0.93 0.02 -1.05 0.12 -1.05 1.09v10.65c0 0.69 0.22 1 0.93 0.95 h7.44c0.84 0 1.07 0.28 1.05 1.07v7.27c0 1.06 0 1.07 1.1 1.08l5.16-0.03z" fill="#FFF"/>
</svg>
