<?xml version="1.0" ?>
<svg xmlns="http://www.w3.org/2000/svg" width="43" height="36" viewBox="0 0 43 36">
  <path d="M6.69 25.45v-10l-0.53 0.44 -4.56 4c-0.14 0.13 -0.22 0.13 -0.35 0-0.38-0.4-0.77-0.8-1.15-1.2-0.12-0.13-0.14-0.22 0-0.35l5-4.34 4.61-4a0.61 0.61 0 0 0 0.29-0.49V3.09h2.08V8a1.46 1.46 0 0 0 0.24-0.13l4.47-4 4-3.57c0.46-0.41 0.48 -0.41 0.95 0l4.7 4.11L30.55 8l5 4.41 5 4.38c0.6 0.52 1.19 1 1.79 1.56 0.14 0.12 0.13 0.21 0 0.33l-1.18 1.26c-0.12 0.13 -0.19 0.1 -0.31 0l-4.54-4-0.55-0.47v10" fill="#FFF"/>
  <path d="M35.82 23.43v11.73H6.7v-0.52-11.12" fill="#FFF"/>
  <path d="M18.95 29l0.23-0.19c0.504-0.395 0.975 -0.83 1.41-1.3a6.54 6.54 0 0 0 0.85-1.09 0.22 0.22 0 0 0 0-0.21c-0.13-0.38-0.28-0.75-0.38-1.14a5.94 5.94 0 0 1-0.18-2 4.67 4.67 0 0 1 0.57-2 5.19 5.19 0 0 1 1.35-1.57 8.52 8.52 0 0 1 1.6-1c0.43-0.21 0.88 -0.4 1.32-0.6 0.44 -0.2 0.94 -0.42 1.4-0.65a13.43 13.43 0 0 0 2.41-1.57l0.1-0.09c0.11-0.08 0.17 -0.08 0.24 0a2 2 0 0 1 0.19 0.45 7.5 7.5 0 0 1 0.17 2.13c0 0.42-0.07 0.84 -0.12 1.26a8.78 8.78 0 0 1-0.32 1.52 9.19 9.19 0 0 1-0.8 2 7.73 7.73 0 0 1-1.19 1.64 6.56 6.56 0 0 1-1.24 1 6.74 6.74 0 0 1-1.48 0.7 8.72 8.72 0 0 1-1.23 0.3 c-0.47 0.072 -0.945 0.112 -1.42 0.12 a0.17 0.17 0 0 0-0.16 0.09 8.2 8.2 0 0 1-1.67 2.05 1 1 0 0 1-0.55 0.21 2 2 0 0 1-0.64 0 1.25 1.25 0 0 1-0.46-0.06zm3.92-3.84H23c0.25-0.09 0.51 -0.17 0.76 -0.27a7.44 7.44 0 0 0 2-1.22 8.63 8.63 0 0 0 1.52-1.64 7.35 7.35 0 0 0 1-1.89c0.15-0.44 0.26 -0.89 0.38 -1.33 0.06 -0.22 0.08 -0.45 0.11 -0.67h-0.06a0.34 0.34 0 0 0 0 0.08c-0.15 0.28 -0.29 0.56 -0.45 0.83 a15.77 15.77 0 0 1-1.43 2c-0.52 0.63 -1.06 1.26-1.62 1.86-0.56 0.6 -1.53 1.44-2.21 2.14l-0.13 0.11 z" fill="#D10707"/>
  <path d="M18.89 26.82c-0.28 0-0.64 0-1-0.08a5.41 5.41 0 0 1-1.36-0.37 5.21 5.21 0 0 1-2.47-2.11 7.2 7.2 0 0 1-0.88-2c-0.08-0.3-0.16-0.59-0.22-0.9a6.56 6.56 0 0 1-0.1-0.83 10.09 10.09 0 0 1 0-1.12 2.94 2.94 0 0 1 0.15-0.68c0-0.13 0.12 -0.14 0.23 -0.06 0.47 0.34 0.968 0.638 1.49 0.89 0.39 0.18 0.79 0.35 1.2 0.51 l1.19 0.44 a6.89 6.89 0 0 1 1.5 0.77 A3.87 3.87 0 0 1 20 22.91a4.17 4.17 0 0 1 0.24 2.52c-0.06 0.31 -0.15 0.61 -0.25 0.92 a2 2 0 0 1-0.17 0.37 0.15 0.15 0 0 1-0.11 0.06 l-0.82 0.04 zm-4.79-6.34a0.69 0.69 0 0 0 0 0.15c0.038 0.2 0.088 0.397 0.15 0.59 0.14 0.39 0.29 0.79 0.47 1.17a5.6 5.6 0 0 0 1.24 1.65 6.89 6.89 0 0 0 1.55 1.1 5.28 5.28 0 0 0 1 0.4l0.32 0.07 -0.06-0.07c-0.27-0.24-0.56-0.46-0.83-0.71-0.55-0.5-1.1-1-1.63-1.53a14.12 14.12 0 0 1-1.41-1.59c-0.24-0.32-0.46-0.66-0.69-1l-0.11-0.23z" fill="#D10707"/>
</svg>
