<?xml version="1.0" ?>
<svg xmlns="http://www.w3.org/2000/svg" width="28" height="32" viewBox="0 0 28 32">
  <path d="M22 15.5h-2v-0.21V2.57a0.53 0.53 0 0 0-0.3-0.57 0.69 0.69 0 0 0-0.25 0H7.18C7 2 7 2 7 2.18V4.9a2 2 0 0 1-1.43 2 2.1 2.1 0 0 1-0.68 0.1 h-2.7C2 7 2 7 2 7.18v18.23a0.57 0.57 0 0 0 0.6 0.6 h10c0.14 0 0.21 0 0.25 0.18 a8.49 8.49 0 0 0 0.64 1.7 0.34 0.34 0 0 1 0 0.08h-0.17C9.54 27.99 5.767 28 2 28a2 2 0 0 1-1.91-1.48 2.52 2.52 0 0 1-0.09-0.73V7a2.21 2.21 0 0 1 0.33-1.25 2.33 2.33 0 0 1 0.31-0.38L5.35 0.66 A2.11 2.11 0 0 1 6.93 0h13a2 2 0 0 1 1.89 1.27c0.104 0.23 0.165 0.478 0.18 0.73 v13.5z" fill="#FFF"/>
  <path d="M22.69 26.94a1.34 1.34 0 0 1-1 0.78 4.41 4.41 0 0 1-2.39 0 2.8 2.8 0 0 1-1.89-1.89 4.93 4.93 0 0 1-0.18-2.16 3.75 3.75 0 0 1 2.05-2.94 4.52 4.52 0 0 1 2.52-0.56 6.2 6.2 0 0 1 1.85 0.46 c0.29 0.12 0.36 0.21 0.36 0.53 v3.66a1.17 1.17 0 0 0 0.14 0.63 0.68 0.68 0 0 0 0.67 0.39 1.18 1.18 0 0 0 1.11-0.84 5.45 5.45 0 0 0 0.22-2.27 4.56 4.56 0 0 0-0.65-1.93 3.76 3.76 0 0 0-2.19-1.66A6.81 6.81 0 0 0 20.4 19a5.76 5.76 0 0 0-2.43 0.92 4.68 4.68 0 0 0-1.73 2.22 6.34 6.34 0 0 0-0.4 2.89 4.88 4.88 0 0 0 0.64 2.21 3.44 3.44 0 0 0 2.28 1.68 9.4 9.4 0 0 0 2 0.23h2.6c0.39 0 0.57 0.19 0.57 0.58 v0.73a0.57 0.57 0 0 1-0.56 0.57 h-2.78a9.41 9.41 0 0 1-2.12-0.2 5.48 5.48 0 0 1-3.89-3.09 7.05 7.05 0 0 1-0.58-2.35 8 8 0 0 1 0-1.9 6.9 6.9 0 0 1 4-5.69 8.11 8.11 0 0 1 4.29-0.8 6.58 6.58 0 0 1 3 0.95 5.42 5.42 0 0 1 2.39 3.14 7.41 7.41 0 0 1 0.24 3.14 5.09 5.09 0 0 1-0.74 2.2 2.72 2.72 0 0 1-1.82 1.3 3.19 3.19 0 0 1-1.93-0.17 1.15 1.15 0 0 1-0.62-0.55l-0.07-0.01-0.05-0.06zM22 23.61v-1.23c0-0.26-0.07-0.37-0.33-0.39a2.41 2.41 0 0 0-1.94 0.59 2.25 2.25 0 0 0-0.61 2.34A1.4 1.4 0 0 0 20.29 26a1.46 1.46 0 0 0 1.64-0.8 0.55 0.55 0 0 0 0.07-0.25v-1.34zM11 12H4.38c-0.32 0-0.38-0.07-0.38-0.39v-0.31c0-0.21 0.09 -0.3 0.3 -0.3h13.31c0.31 0 0.37 0.06 0.37 0.38 v0.33a0.25 0.25 0 0 1-0.28 0.26 H11V12zM11 13h6.67c0.23 0 0.31 0.08 0.32 0.32 v0.34c0 0.23-0.09 0.31 -0.31 0.31 H4.36c-0.29 0-0.36-0.07-0.36-0.36v-0.35c0-0.173 0.09 -0.26 0.27 -0.26H11zM11 15h6.62c0.31 0 0.37 0.07 0.37 0.38 v0.23c0 0.3-0.07 0.37 -0.36 0.37 H4.38C4.07 16 4 15.91 4 15.6v-0.28c0-0.24 0.08 -0.32 0.32 -0.32H11zM16.06 17l-0.14 0.11 c-0.29 0.24 -0.57 0.49 -0.86 0.72 a0.42 0.42 0 0 1-0.25 0.1 H4.33C4.08 18 4 17.9 4 17.65v-0.31c0-0.26 0.08 -0.34 0.33 -0.34h11.73zM14.08 19c-0.21 0.33 -0.38 0.62 -0.57 0.91 a0.29 0.29 0 0 1-0.19 0.06 h-9A0.26 0.26 0 0 1 4 19.7v-0.37c0-0.25 0.08 -0.33 0.33 -0.33h9.75zM13 21c-0.1 0.33 -0.18 0.63 -0.28 0.92 H4.39c-0.33 0.08 -0.39 0-0.39-0.32v-0.27c0-0.25 0.08 -0.33 0.33 -0.33H13zM13.49 5h3.15c0.26 0 0.34 0.07 0.34 0.33 v0.3c0 0.27-0.08 0.34 -0.34 0.35 h-6.28C10.07 6 10 5.9 10 5.62v-0.28c0-0.26 0.08 -0.34 0.33 -0.34h3.16z" fill="#FFF"/>
</svg>
