<?xml version="1.0" ?>
<svg xmlns="http://www.w3.org/2000/svg" width="37" height="36" viewBox="0 0 37 36">
  <path d="M27.71 16.7c0.41 0.53 0.81 1 1.21 1.56a37.26 37.26 0 0 1 2.42 3.61c0.532 0.88 0.99 1.804 1.37 2.76 0.233 0.62 0.424 1.254 0.57 1.9a4 4 0 0 1 0 1.87 2.37 2.37 0 0 1-1.66 1.81 4.1 4.1 0 0 1-1.91 0.08 A14.67 14.67 0 0 1 25 28.38a4.27 4.27 0 0 1-0.45-0.26c-0.14-0.11-0.19 0-0.26 0.08 -0.24 0.51 -0.47 1-0.75 1.52a11.9 11.9 0 0 1-3 3.46A11.66 11.66 0 0 1 17.33 35c-0.55 0.2 -1.1 0.39 -1.67 0.54 -0.57 0.15 -0.91 0.17 -1.37 0.24 a9.7 9.7 0 0 1-2.19 0.11 c-0.52 0-1-0.1-1.56-0.19a9.55 9.55 0 0 1-1.43-0.31 16.87 16.87 0 0 1-2-0.78 12.27 12.27 0 0 1-3.9-3 12.16 12.16 0 0 1-2.27-3.53 19.2 19.2 0 0 1-0.6-1.93 8.48 8.48 0 0 1-0.29-2c0-0.41-0.07-0.83 0-1.24a16 16 0 0 1 0.15-1.69 13.5 13.5 0 0 1 0.38-1.67A12.13 12.13 0 0 1 2 16.46 12.41 12.41 0 0 1 7 12c0.24-0.12 0.48 -0.21 0.72 -0.31s0.16-0.08 0.08 -0.22a18.94 18.94 0 0 1-1.4-2.69C6.22 8.17 6 7.56 5.82 7a5.16 5.16 0 0 1-0.21-2A2.42 2.42 0 0 1 7.2 2.78 3.39 3.39 0 0 1 9 2.63c0.564 0.09 1.121 0.213 1.67 0.37 0.608 0.206 1.203 0.45 1.78 0.73 a30.93 30.93 0 0 1 5.41 3.42c0.59 0.45 1.18 0.93 1.76 1.39 0.15 0.12 0.17 0.12 0.24 -0.06 0.24 -0.61 0.48 -1.22 0.69 -1.84A12.7 12.7 0 0 1 21.63 4 8.34 8.34 0 0 1 25.47 0.67 a8.07 8.07 0 0 1 1.78-0.53A7.66 7.66 0 0 1 29.34 0a7.34 7.34 0 0 1 3.59 1.3 8.15 8.15 0 0 1 2.76 3.16c0.236 0.493 0.42 1.01 0.55 1.54a7.13 7.13 0 0 1 0.18 2.32c-0.053 0.486 -0.14 0.967 -0.26 1.44A7.61 7.61 0 0 1 35 12.35a8.07 8.07 0 0 1-3.55 3c-0.49 0.21 -1 0.34-1.51 0.52 l-2.15 0.8 a0.41 0.41 0 0 0-0.08 0.03 zM12.64 33l1.59-0.18a8.24 8.24 0 0 0 1.87-0.5 9.39 9.39 0 0 0 2.77-1.63 9.69 9.69 0 0 0 2.9-4.18 0.25 0.25 0 0 0-0.09-0.34 9.93 9.93 0 0 1-0.8-0.6c-1.12-0.93-2.26-1.84-3.35-2.81a53 53 0 0 1-5.27-5.39c-0.86-1-1.67-2.07-2.49-3.11a0.26 0.26 0 0 0-0.34-0.1l-0.79 0.33 a9.61 9.61 0 0 0-5.37 6.53A9.63 9.63 0 0 0 3 22.86a8.77 8.77 0 0 0 0.34 3c0.148 0.511 0.328 1.012 0.54 1.5a9.68 9.68 0 0 0 7 5.46c0.56 0.11 1.12 0.18 1.76 0.18 zm3-19.5c0.42-0.23 0.8 -0.42 1.15-0.65a7.24 7.24 0 0 0 2.25-2.67A0.16 0.16 0 0 0 19 10l-0.91-0.74a37.45 37.45 0 0 0-4.43-3.14 16 16 0 0 0-4-1.83 4.55 4.55 0 0 0-1.57-0.19 1.05 1.05 0 0 0-0.77 0.35 1.55 1.55 0 0 0-0.26 1.11c0.043 0.492 0.15 0.976 0.32 1.44 0.266 0.784 0.6 1.544 1 2.27a32.31 32.31 0 0 0 2.78 4.34 51.1 51.1 0 0 0 3.58 4.28 59.63 59.63 0 0 0 4.89 4.72 45.27 45.27 0 0 0 4.75 3.6 19 19 0 0 0 4.58 2.33 4.89 4.89 0 0 0 2 0.27 1 1 0 0 0 0.95-1 3.9 3.9 0 0 0-0.08-1.23 12.77 12.77 0 0 0-0.65-1.91 24.37 24.37 0 0 0-2.62-4.49c-0.68-0.94-1.41-1.85-2.11-2.78-0.06-0.08-0.11-0.13-0.22-0.07a6.39 6.39 0 0 0-3 3c-0.08 0.18 -0.18 0.35 -0.29 0.55 a60.43 60.43 0 0 0-7.29-7.37l-0.01-0.01zm12.5-10l-0.75 0.09 a3.14 3.14 0 0 0-0.4 0.12 4.93 4.93 0 0 0-2.25 1.51 0.74 0.74 0 0 0 0.55 1.247 0.76 0.76 0 0 0 0.61-0.307A3.28 3.28 0 0 1 27.8 5a2.73 2.73 0 0 1 1.6 0.21 3.5 3.5 0 0 1 1.24 0.93 0.75 0.75 0 0 0 0.62 0.28 0.72 0.72 0 0 0 0.67-0.42 0.73 0.73 0 0 0-0.15-0.76L31.53 5a4.72 4.72 0 0 0-3.38-1.51l-0.01 0.01 z" fill="#FFF"/>
</svg>
