<?xml version="1.0" ?>
<svg xmlns="http://www.w3.org/2000/svg" width="36" height="36" viewBox="0 0 36 36">
  <path d="M36 17.85c0.067 9.827-7.76 17.89-17.585 18.117C8.591 36.194 0.401 28.5 0.015 18.68-0.373 8.86 7.187 0.546 17 0a18 18 0 0 1 19 17.85zm-19.2-4.64h-0.09l-3.08 0.64 a0.2 0.2 0 0 0-0.11 0.15 v2.8a1.21 1.21 0 0 0 1 1.24c0.22 0.046 0.445 0.073 0.67 0.08 h5.31c-0.4 0.52 -0.81 1-1.18 1.53-0.37 0.53 -0.68 1.08-1 1.63h3.33a0.32 0.32 0 0 0 0.21-0.13c0.54-0.8 1.07-1.6 1.6-2.4a1.9 1.9 0 0 0 0.07-2.07 1.83 1.83 0 0 0-1.73-1h-4.98l-0.02-2.47zm-9.44 8.06h3.35a0.25 0.25 0 0 0 0.17-0.11c0.51-0.77 1-1.55 1.52-2.33a1.85 1.85 0 0 0-0.4-2.56 2.63 2.63 0 0 0-1.76-0.6h-8.1v2.44h7.41a21.21 21.21 0 0 0-2.19 3.16zM25 18.07h9.8a3.13 3.13 0 0 0-0.27-1.63 1.31 1.31 0 0 0-1-0.73 4.55 4.55 0 0 0-0.52 0H25v2.36zM5.08 23.24v-0.09-3.1a2.83 2.83 0 0 0-0.24-0.94 1 1 0 0 0-0.9-0.63H2.18v4.76h2.9zm27.82-1.95v-2.73s-0.09-0.1-0.15-0.11h-1a3.77 3.77 0 0 0-0.75 0.11 1.23 1.23 0 0 0-1 1.31v1.42h2.9z" fill="#FFF"/>
  <path d="M16.82 13.21v2.46h4.95a1.83 1.83 0 0 1 1.73 1 1.9 1.9 0 0 1-0.07 2.07c-0.53 0.8 -1.06 1.6-1.6 2.4a0.32 0.32 0 0 1-0.21 0.13 h-3.33c0.35-0.55 0.67 -1.1 1-1.63 0.33 -0.53 0.78 -1 1.18-1.53h-5.24a3.83 3.83 0 0 1-0.67-0.08 1.21 1.21 0 0 1-1-1.24v-2.8a0.2 0.2 0 0 1 0.11-0.15l3.08-0.64 0.07 0.01zM7.36 21.27a21.21 21.21 0 0 1 2.19-3.16H2.14v-2.44h8.09a2.63 2.63 0 0 1 1.76 0.6 1.85 1.85 0 0 1 0.41 2.58c-0.49 0.78 -1 1.56-1.52 2.33a0.25 0.25 0 0 1-0.17 0.11 H7.44l-0.08-0.02zM25 18.07v-2.4h8c0.173-0.01 0.347 -0.01 0.52 0 0.435 0.06 0.81 0.335 1 0.73a3.13 3.13 0 0 1 0.27 1.63l-9.79 0.04 z" fill="#FFBC00"/>
  <path d="M5.08 23.24H2.14v-4.76H3.9a1 1 0 0 1 0.9 0.63 c0.134 0.297 0.215 0.615 0.24 0.94 v3.1c0.05 0.02 0.04 0.05 0.04 0.09 zM32.9 21.29H30v-1.42a1.23 1.23 0 0 1 1-1.31 3.77 3.77 0 0 1 0.75-0.11h1c0.06 0 0.15 0.07 0.15 0.11 v2.73z" fill="#FFBC00"/>
</svg>
