<?xml version="1.0" ?>
<svg xmlns="http://www.w3.org/2000/svg" width="34" height="36" viewBox="0 0 34 36">
  <path d="M14.11 7.68l-0.1 0.16 a1.21 1.21 0 0 1-1.16 0.69 0.45 0.45 0 0 0-0.35 0.14 l-2.64 2.57c-0.22 0.21 -0.31 0.21 -0.53 0-0.4-0.37-0.4-0.38-0.05-0.79l0.83-1c0.1-0.11 0.08 -0.16-0.06-0.22-0.65-0.31-1.31-0.63-2-1A1.3 1.3 0 0 1 7.66 8C6.18 6.19 4.71 4.42 3.23 2.65a0.9 0.9 0 0 1-0.18-1 0.87 0.87 0 0 1 1.4-0.26C5 1.83 5.51 2.31 6 2.78l3.37 3c0.174 0.11 0.367 0.184 0.57 0.22 l1.71 0.53 a0.27 0.27 0 0 0 0.35-0.07 1.23 1.23 0 0 1 2 0.23c0.08 0.146 0.13 0.305 0.15 0.47 a0.22 0.22 0 0 0 0.18 0.2 l0.4 0.12 c0.35 0.11 0.686 0.26 1 0.45a3.15 3.15 0 0 0 3-0.11 3 3 0 0 1 1.19-0.36l2.64-0.33L25 6.82l0.65-0.08a0.65 0.65 0 0 0 0.41-0.21l5.26-5.25a1 1 0 0 1 1.52 0 1 1 0 0 1 0 1.44L30.52 5.4c-1 1.11-1.94 2.21-2.9 3.34a1.8 1.8 0 0 1-1 0.59l-2.88 0.61 -2.09 0.44 a0.21 0.21 0 0 0-0.19 0.25 c0.11 2.82 0.21 5.63 0.33 8.45 0.027 0.337 0.08 0.671 0.16 1l0.39 2.17c0.12 0.7 0.25 1.39 0.38 2.09s0.2 1.19 0.32 1.78c0.12 0.59 0.24 1.13 0.38 1.69 0.19 0.8 0.39 1.59 0.59 2.38l0.51 2c0.2 0.76 0.41 1.52 0.58 2.29a1 1 0 0 1-1.85 0.54 c-0.47-1.24-0.94-2.49-1.4-3.74-0.46-1.25-0.87-2.28-1.28-3.43-0.16-0.45-0.27-0.92-0.39-1.38-0.16-0.62-0.31-1.24-0.46-1.86l-0.45-1.84c-0.05-0.2-0.09-0.41-0.15-0.6a0.21 0.21 0 0 0-0.15-0.13h-1.32a0.24 0.24 0 0 0-0.17 0.14 c-0.69 1.5-1.36 3-2 4.51-0.08 0.19 -0.16 0.38 -0.26 0.57 a0.86 0.86 0 0 0-0.08 0.5 c0.11 0.79 0.22 1.58 0.32 2.36 0.13 1 0.25 2 0.38 2.94 0.05 0.43 0.11 0.87 0.18 1.31a1 1 0 0 1-0.69 1.25 0.82 0.82 0 0 1-0.74-0.07 0.21 0.21 0 0 0-0.25 0 0.54 0.54 0 0 1-0.3 0.1 H9a0.52 0.52 0 0 1-0.5-0.47 0.46 0.46 0 0 1 0.5-0.46c0.193-0.01 0.387 -0.01 0.58 0h4.18c0.23 0 0.22 0 0.17-0.24l-0.66-2.82c-0.08-0.35-0.17-0.69-0.24-1a1.24 1.24 0 0 1 0-0.33v-5.22a3.14 3.14 0 0 1 0.25-0.93c0.38-1.15 0.77 -2.28 1.15-3.42 0.12 -0.37 0.23 -0.73 0.37 -1.09a1 1 0 0 0 0-0.59l-0.69-3.19-0.6-2.74c-0.17-0.77-0.35-1.53-0.49-2.31a7.47 7.47 0 0 1 0-1.16s0.1-0.09 0.16 -0.1a1.26 1.26 0 0 0 1.06-0.74 1.24 1.24 0 0 0-0.13-1.16z" fill="#FFF"/>
  <path d="M20 2.91a5.05 5.05 0 0 1-1.72 3.47 1.87 1.87 0 0 1-2.85-0.45 4.4 4.4 0 0 1-0.68-1.86 4.71 4.71 0 0 1 0-1.59A3 3 0 0 1 16.93 0.06 a2.51 2.51 0 0 1 2.86 1.56c0.078 0.209 0.142 0.422 0.19 0.64 0.021 0.216 0.028 0.433 0.02 0.65 zM12 10.37v23.14c0 0.26 0 0.26-0.26 0.26 h-0.47c-0.15 0-0.2 0-0.2-0.19V11.44a0.44 0.44 0 0 1 0.15-0.35c0.21-0.19 0.4 -0.39 0.61 -0.59l0.17-0.13zM4.72 12.25v0.62a1.08 1.08 0 0 1-1 1.22 1.3 1.3 0 0 1-0.52 0 0.52 0.52 0 0 1-0.28-0.74 1.26 1.26 0 0 1 0.8-0.64c0.29-0.1 0.26 0 0.26-0.35V10.4a0.46 0.46 0 0 1 0.73-0.4l1.92 1a0.41 0.41 0 0 1 0.25 0.38 v2.89a0.85 0.85 0 0 1-0.18 0.44 c-0.3 0.44 -0.844 0.645 -1.36 0.51 a0.53 0.53 0 0 1-0.34-0.78 1.21 1.21 0 0 1 0.84-0.65c0.2-0.06 0.24 -0.14 0.26 -0.34a0.64 0.64 0 0 0-0.46-0.75 8.48 8.48 0 0 1-0.92-0.45zm1.35-0.19v-0.39a0.15 0.15 0 0 0-0.07-0.12c-0.37-0.21-0.75-0.4-1.14-0.6a0.17 0.17 0 0 0-0.12 0c0 0.06 0 0.39 0.06 0.42l1.27 0.69 zM1.87 6.2c0.12 0.25 0.21 0.47 0.32 0.68 0.11 0.21 0.25 0.56 0.39 0.83 a0.78 0.78 0 0 1 0 0.78A1.23 1.23 0 0 1 2 9a0.53 0.53 0 0 1-0.6 0 0.55 0.55 0 0 1-0.1-0.6 1.13 1.13 0 0 1 0.43-0.6 0.18 0.18 0 0 0 0.05-0.25C1.53 7 1.28 6.49 1 6a0.31 0.31 0 0 1 0.32-0.5c0.44 0 0.89 0 1.33 0.07 a0.32 0.32 0 0 1 0 0.63h-0.78z" fill="#FFF"/>
</svg>
