<?xml version="1.0" ?>
<svg xmlns="http://www.w3.org/2000/svg" width="44" height="9" viewBox="0 0 44 9">
  <path d="M39.58 8.09a9.72 9.72 0 0 1-0.76-0.68c-0.87-1-1.72-1.93-2.58-2.9l-0.07-0.08a0.59 0.59 0 0 1 0-0.9c0.8-0.94 1.59-1.89 2.4-2.83 0.22 -0.25 0.47 -0.47 0.71 -0.7h0.3c0.16 0.08 0.33 0.15 0.48 0.24 0.88 0.5 1.76 1 2.65 1.49 0.369 0.176 0.663 0.477 0.83 0.85v0.47a3.54 3.54 0 0 1-0.26 0.47 C42.49 4.68 41.7 5.83 40.89 7A3.19 3.19 0 0 1 40 8.09h-0.42zM0 5.59c0.07-0.37 0.15 -0.74 0.22 -1.11l0.39-2.19a0.25 0.25 0 0 1 0.13-0.17 5.24 5.24 0 0 1 2.58 0 0.66 0.66 0 0 1 0.52 0.88 c-0.14 0.77 -0.27 1.54-0.41 2.32-0.05 0.29 -0.11 0.36 -0.36 0.36 H0v-0.09zm1.27-0.38h0.9s0.1-0.07 0.11 -0.12c0.14-0.72 0.27 -1.44 0.39 -2.17a0.43 0.43 0 0 0-0.43-0.52 2.09 2.09 0 0 1-0.24 0c-0.19 0-0.25 0.07 -0.28 0.24 -0.07 0.47 -0.16 0.94 -0.24 1.41-0.08 0.47 -0.14 0.76 -0.21 1.16zM28.73 2.11l-0.27 1.61c-0.06 0.3 -0.11 0.6 -0.16 0.89 a1.31 1.31 0 0 1-1.19 1.11A1.73 1.73 0 0 1 26 5.55c-0.07 0.37 -0.13 0.72 -0.19 1.07a1.89 1.89 0 0 1-0.05 0.23 s-0.12 0.15 -0.16 0.15 h-1.07c0.08-0.46 0.15 -0.89 0.23 -1.33 0.1 -0.62 0.22 -1.24 0.33 -1.85 0-0.06 0.08 -0.16 0.12 -0.16h1.08c-0.053 0.307 -0.103 0.607 -0.15 0.9 0 0.19-0.07 0.38 -0.11 0.57 a0.17 0.17 0 0 0 0.13 0.22 0.6 0.6 0 0 0 0.84-0.51c0.14-0.69 0.25 -1.38 0.37 -2.07a0.64 0.64 0 0 0 0-0.14H25.3c0-0.17 0-0.31 0.07 -0.45a0.21 0.21 0 0 1 0.13-0.1h3.2l0.03 0.03 zM13.35 2.07c-0.06 0.42 -0.13 0.8 -0.19 1.19-0.06 0.39 -0.16 0.74 -0.16 1.1a1.38 1.38 0 0 1-1.17 1.24 6.86 6.86 0 0 1-3 0l0.08-0.42 0.76 0.11c0.08-0.42 0.15 -0.82 0.22 -1.22 0.11 -0.59 0.21 -1.18 0.31 -1.77 0-0.13 0.07 -0.19 0.21 -0.18h1l-0.56 3.16a0.61 0.61 0 0 0 0.84-0.44c0.15-0.85 0.31 -1.7 0.45 -2.56 0-0.12 0.07 -0.16 0.2 -0.16 0.31 -0.04 0.66 -0.05 1.01-0.05zM17.15 4.19c0 0.35 0 0.35-0.36 0.4 a0.88 0.88 0 0 1-1.07-1c0-0.42 0.14 -0.84 0.22 -1.26a0.28 0.28 0 0 1 0.18-0.17A5.47 5.47 0 0 1 18.29 2 0.78 0.78 0 0 1 19 3.08c-0.09 0.51 -0.2 1-0.26 1.52a1.14 1.14 0 0 1-0.92 1 7.06 7.06 0 0 1-1.21 0.1 8.63 8.63 0 0 1-1-0.1c-0.27 0-0.27 0-0.22-0.3a0.89 0.89 0 0 0 0-0.15l1.21 0.12 h0.4a0.53 0.53 0 0 0 0.49-0.44c0.14-0.75 0.27 -1.49 0.41 -2.24a0.23 0.23 0 0 0 0-0.16 0.54 0.54 0 0 0-0.56-0.13 0.42 0.42 0 0 0-0.29 0.22 c-0.09 0.44 -0.15 0.87 -0.21 1.31-0.02 0.24 0.16 0.33 0.31 0.36 zM6.37 5.62l0.07-0.36c0.19 0.01 0.38 0.01 0.57 0a0.51 0.51 0 0 0 0.48-0.42l0.36-2.09a0.4 0.4 0 0 0 0-0.11H6L6.34 0.75 h1.19l-0.22 1.31h1.85c-0.11 0.64 -0.22 1.24-0.32 1.85 0 0.21-0.09 0.42 -0.11 0.63 a1.22 1.22 0 0 1-1 1.12 2.53 2.53 0 0 1-1.36-0.04zM31.87 2.59l-0.07-0.34c0.435-0.106 0.876 -0.19 1.32-0.25a3.86 3.86 0 0 1 1 0c0.45 0.08 0.6 0.33 0.53 0.78 -0.11 0.69 -0.24 1.38-0.36 2.06v0.29h0.6l-0.08 0.47 h-3.57a1.8 1.8 0 0 1 0.06-0.36 0.25 0.25 0 0 1 0.18-0.1h1.37c0.17 0 0.22 0 0.25-0.21 0.11 -0.69 0.24 -1.38 0.36 -2.07 0-0.28 0-0.4-0.28-0.41a10.13 10.13 0 0 0-1.09 0.07 l-0.22 0.07 zM29.73 5.17c0.09-0.49 0.18 -1 0.26-1.43l0.15-0.85a0.33 0.33 0 0 0-0.34-0.44h-0.36a0.23 0.23 0 0 1-0.16-0.14 0.2 0.2 0 0 1 0.1-0.18A2.51 2.51 0 0 1 30.79 2a0.64 0.64 0 0 1 0.56 0.84 c-0.14 0.8 -0.29 1.6-0.43 2.4-0.05 0.32 -0.12 0.37 -0.43 0.38 h-2.13l0.09-0.47 1.28 0.02 zM22.48 5.63h-1.16l0.21-1.25 0.27 -1.49a0.37 0.37 0 0 0-0.3-0.45 2.93 2.93 0 0 0-1.44 0l-0.21 0.06 c0-0.33 0-0.39 0.29 -0.44A6 6 0 0 1 22.21 2a1.8 1.8 0 0 1 0.33 0.1 0.67 0.67 0 0 1 0.42 0.8 c-0.15 0.93 -0.32 1.82-0.48 2.73zM15.29 2.07c-0.06 0.35 -0.11 0.67 -0.17 1-0.12 0.72 -0.25 1.43-0.37 2.15-0.07 0.38 -0.12 0.44 -0.52 0.44 h-0.76c0.17-1 0.33-1.89 0.5 -2.82 0-0.21 0.06 -0.42 0.11 -0.63a0.18 0.18 0 0 1 0.13-0.12l1.08-0.02z" fill="#FFF"/>
  <path d="M19.28 5.63l0.35-2h1.14c-0.1 0.587 -0.2 1.167-0.3 1.74a0.29 0.29 0 0 1-0.33 0.27 l-0.86-0.01zM4.15 3.86c0.1-0.58 0.2 -1.14 0.3 -1.69 0 0 0.07-0.09 0.11 -0.09h1.08c0 0.23-0.06 0.43 -0.1 0.63 -0.04 0.2 -0.11 0.6 -0.17 0.91 a0.27 0.27 0 0 1-0.3 0.26 l-0.92-0.02z" fill="#FFF"/>
</svg>
