<?xml version="1.0" ?>
<svg xmlns="http://www.w3.org/2000/svg" width="44" height="12" viewBox="0 0 44 12">
  <path d="M43.88 3.65A2.84 2.84 0 0 1 42.46 6a7.89 7.89 0 0 1-3.76 1.41c-0.43 0-0.59 0.2 -0.58 0.67 0 1.8-2.06 4.31-4.6 3.75a2.87 2.87 0 0 1-2-4.26 12.52 12.52 0 0 1 2.69-3.2 1.63 1.63 0 0 1 1.88-0.09A4 4 0 0 1 37.69 6a0.71 0.71 0 0 0 0.87 0.43 A9.27 9.27 0 0 0 43.43 4a4 4 0 0 1 0.45-0.35zm-9.72 2.08a7.37 7.37 0 0 0-2 3.16 1.65 1.65 0 0 0 0.69 1.7 2.36 2.36 0 0 0 2.42-0.06 4.33 4.33 0 0 0 2-2.57c0.08-0.33 0.09 -0.57-0.31-0.77-0.96-0.43-1.82-0.93-2.8-1.46zm2.56 0.27 a1.41 1.41 0 0 0-1.47-0.89c0.3 0.535 0.857 0.873 1.47 0.89 zM23 9.51l2.7-1.59a3.35 3.35 0 0 1-2.3 2.15c-1 0.39-2 0.75-3.07 1a4.67 4.67 0 0 1-3.65 0A1.57 1.57 0 0 1 16 9.16a23.78 23.78 0 0 1 2.5-3.56c1.59-1.71 3.29-0.95 4.11 0.87 a3.21 3.21 0 0 1 0.26 2.47 1.75 1.75 0 0 0-0.05 0.4 l0.18 0.17 zm-2.4 0.37 a1.66 1.66 0 0 0 1.66-1.29 2.47 2.47 0 0 0-0.21-2C21.28 5.17 20.76 5.2 19.5 6a5.55 5.55 0 0 0-1.18 1.19 1.24 1.24 0 0 0 0.42 2.06 12.37 12.37 0 0 0 1.84 0.63 h0.02zm-0.85 0.6 a4.48 4.48 0 0 1-2.48-1.82 3.34 3.34 0 0 0-0.52 1 0.72 0.72 0 0 0 0.55 1 3.74 3.74 0 0 0 2.43-0.18h0.02zM1.84 7.83L1 7.91 0.06 8 0 7.83a2 2 0 0 1 0.6-0.3c0.5-0.08 1-0.07 1.52-0.16A1.68 1.68 0 0 0 2.9 7a4.51 4.51 0 0 1 2.32-1.25 1.08 1.08 0 0 1 1.08 0.38 0.9 0.9 0 0 1 0 1c-0.21 0.43 -0.39 0.88 -0.59 1.32l0.13 0.13 c0.31-0.11 0.64 -0.2 1-0.33 0.77 -0.33 1.53-0.69 2.31-1a1.37 1.37 0 0 1 0.53 0v0.21c-0.22 0.12 -0.42 0.27 -0.65 0.37 -0.62 0.29 -1.24 0.59 -1.88 0.83 -0.64 0.24 -1.15 0.34 -1.7 0.55 a4.27 4.27 0 0 0-0.91 0.5 c-0.71 0.47 -1.39 1-2.14 1.4A1.53 1.53 0 0 1 0.74 11a1 1 0 0 1-0.2-1.6c0.43-0.48 0.93 -0.89 1.4-1.33l-0.1-0.24zm-0.38 3a5.3 5.3 0 0 0 2.75-1.4s0-0.31-0.12-0.37c-0.42-0.27-0.86-0.5-1.3-0.74-0.1-0.05-0.27-0.11-0.32-0.07A16.26 16.26 0 0 0 1 9.61a0.93 0.93 0 0 0-0.08 0.8 c0.08 0.22 0.39 0.33 0.54 0.44 v-0.02zm3.21-2.04c0.24-0.15 0.51 -0.22 0.6 -0.39 0.28 -0.502 0.523 -1.024 0.73 -1.56a0.42 0.42 0 0 0-0.39-0.61 2.28 2.28 0 0 0-1.69 0.46 c-0.09 0.09 -0.21 0.31 -0.16 0.37 0.24 0.4 -0.06 0.51 -0.31 0.63 s-0.33 0.41 0 0.57c0.396 0.2 0.804 0.376 1.22 0.53 zM24.05 0.08 c-0.13 0.45 -0.27 0.9 -0.39 1.35-0.12 0.45 -0.28 1.18-0.47 1.75a4.22 4.22 0 0 1-0.45 0.76 l-0.16-0.06L23.88 0l0.17 0.08 z" fill="#FFF"/>
</svg>
