<?xml version="1.0" ?>
<svg xmlns="http://www.w3.org/2000/svg" width="37" height="37" viewBox="0 0 37 37">
  <path d="M32.5 0.49 A0.48 0.48 0 0 0 32 0a0.48 0.48 0 0 0-0.49 0.48 A0.5 0.5 0 0 0 32 1a0.48 0.48 0 0 0 0.5-0.51zm-2.66 3.17a0.48 0.48 0 0 0 0.5-0.48 0.5 0.5 0 0 0-0.48-0.49 0.48 0.48 0 0 0-0.5 0.5 0.47 0.47 0 0 0 0.48 0.47 zm6.75 0.91 a0.5 0.5 0 1 0-0.51 0.5 0.48 0.48 0 0 0 0.51-0.5zM33.9 6.75a0.49 0.49 0 0 0-0.49-0.5 0.48 0.48 0 0 0-0.48 0.5 0.45 0.45 0 0 0 0.47 0.47 0.48 0.48 0 0 0 0.5-0.47zm-2.44-4.88a0.49 0.49 0 0 0-0.5-0.49 0.5 0.5 0 0 0-0.47 0.51 0.49 0.49 0 0 0 0.49 0.48 0.5 0.5 0 0 0 0.48-0.5zM34.7 6.1a0.49 0.49 0 1 0 0.02-0.98 0.49 0.49 0 0 0-0.02 0.98 z" fill="#FFF"/>
  <path d="M0 26.72a7 7 0 0 1 2.53-5.41 6.62 6.62 0 0 1 2.54-1.24 11.59 11.59 0 0 1 2.81-0.37c0.475 0.01 0.949-0.06 1.4-0.21a2.31 2.31 0 0 0 1.4-1.69c0.11-0.48 0.15 -1 0.3-1.44 0.25 -0.92 0.97 -1.64 1.89-1.89a3.4 3.4 0 0 1 2 0.09 8.55 8.55 0 0 1 2.33 1.37c0.14 0.11 0.13 0.18 0 0.3-0.89 0.83 -1.77 1.68-2.65 2.52-0.17 0.16 -0.17 0.16 0 0.33s0.15 0.14 0.22 0.22 c0.07 0.08 0.18 0.11 0.3 0l1.74-1.67 12.58-12a0.51 0.51 0 0 0 0.19-0.5 0.92 0.92 0 0 1 0.36-0.9 19.76 19.76 0 0 0 3.29-4c0.06-0.1 0.13 -0.14 0.24 -0.08 0.435 0.26 0.855 0.544 1.26 0.85 a5.53 5.53 0 0 1 1.62 2c0.14 0.28 0.14 0.28 -0.12 0.44 a21.71 21.71 0 0 0-4.1 3.43 0.39 0.39 0 0 1-0.4 0.16 1 1 0 0 0-1 0.43c-4.487 4.667-8.963 9.34-13.43 14.02-0.13 0.14 -0.13 0.22 0 0.34 0.083 0.063 0.157 0.137 0.22 0.22 0.11 0.13 0.19 0.1 0.3 0 0.83-0.89 1.68-1.77 2.52-2.65 0.17 -0.18 0.17 -0.18 0.33 0A8.64 8.64 0 0 1 22 21.71a3 3 0 0 1-0.78 3.34 3.8 3.8 0 0 1-2.07 0.79 2.33 2.33 0 0 0-2.1 1.54 4.35 4.35 0 0 0-0.17 1c-0.07 0.71 -0.07 1.44-0.18 2.15a6.67 6.67 0 0 1-4.47 5.61 6.43 6.43 0 0 1-3.42 0.29 8 8 0 0 1-3.55-1.64 20.9 20.9 0 0 1-3.6-3.62A7.88 7.88 0 0 1 0.2 28.12c-0.11-0.5-0.15-1.02-0.2-1.4zm11.71-4.28a2.41 2.41 0 0 0 2.42 2.44 2.44 2.44 0 1 0-2.42-2.44zm0.67 5.77l0.13-0.11c0.22-0.22 0.44 -0.45 0.66 -0.66 0.22 -0.21 0.11 -0.17 0-0.27-0.31-0.31-0.62-0.63-0.94-0.94l-2.79-2.79c-0.12-0.13-0.2-0.12-0.31 0-0.11 0.12 -0.41 0.42 -0.63 0.63 -0.22 0.21 -0.12 0.16 0 0.28l3.76 3.76 0.12 0.1z" fill="#FFF"/>
  <path d="M32.5 0.49 A0.48 0.48 0 0 1 32 1a0.5 0.5 0 0 1-0.48-0.5A0.48 0.48 0 0 1 32 0a0.48 0.48 0 0 1 0.5 0.49 zM29.84 3.66a0.47 0.47 0 0 1-0.48-0.47 0.48 0.48 0 0 1 0.5-0.5 0.5 0.5 0 0 1 0.48 0.49 0.48 0.48 0 0 1-0.5 0.48 zM36.59 4.57a0.48 0.48 0 0 1-0.49 0.49 0.5 0.5 0 1 1 0.51-0.5l-0.02 0.01 zM33.9 6.75a0.48 0.48 0 0 1-0.5 0.47 0.45 0.45 0 0 1-0.47-0.47 0.48 0.48 0 0 1 0.48-0.5 0.49 0.49 0 0 1 0.49 0.5 zM31.46 1.87a0.5 0.5 0 0 1-0.48 0.5 0.49 0.49 0 0 1-0.49-0.48 0.5 0.5 0 0 1 0.51-0.51 0.49 0.49 0 0 1 0.46 0.49 zM34.7 6.1a0.49 0.49 0 1 1 0.02-0.98 0.49 0.49 0 0 1-0.02 0.98 z" fill="#FFF"/>
</svg>
