<?xml version="1.0" ?>
<svg xmlns="http://www.w3.org/2000/svg" width="43" height="37" viewBox="0 0 43 37">
  <path d="M15.94 25.22l0.16-0.13 3.67-3.83s0.05-0.11 0.08 -0.16a0.58 0.58 0 0 0-0.17-0.06h-3.22c-0.18 0-0.22-0.09-0.22-0.25V10.64c0-0.31 0-0.31 0.31 -0.32 0.6 0 0.6 0 0.6 0.6 v8.94c0 0.27 0 0.28 0.29 0.28h19.62c0.28 0 0.28 0 0.28 0.27 v0.41c0 0.13-0.06 0.22 -0.22 0.22 H22.76a0.64 0.64 0 0 0-0.18 0.06 s0 0.12 0.06 0.16a1.8 1.8 0 0 1-0.2 2.21 315 315 0 0 0-4 4.19c-0.65 0.67 -1.28 1.35-1.93 2a1.74 1.74 0 0 1-2.09 0.36 0.92 0.92 0 0 1-0.47-0.6c-0.29-1-0.6-2-0.9-3l-0.13-0.42h-0.06l0.12 0.53 c0.12 0.55 0.25 1.11 0.39 1.66 0.14 0.55 0.3 1.2 0.46 1.8 0.109 0.394 0.166 0.801 0.17 1.21v2.95c0 0.18 0 0.25-0.24 0.25 H4.35c-0.2 0-0.25-0.07-0.24-0.26 0-1 0.06-1.94 0.11 -2.92 0-0.66 0.1 -1.32 0.16 -2 0.06-0.68 0.15 -1.35 0.25 -2 0.1-0.65 0.26 -1.35 0.38 -2A1.79 1.79 0 0 0 5 25c-0.12 0.35 -0.24 0.7 -0.35 1.05-0.16 0.56 -0.32 1.12-0.46 1.68-0.14 0.56 -0.19 0.82 -0.31 1.27-0.12 0.45 -0.2 1.08-0.3 1.61 0 0.22-0.07 0.43 -0.1 0.65 -0.06 0.59 -0.13 1.19-0.17 1.78 0 0.75-0.06 1.49-0.09 2.24a0.3 0.3 0 0 1-0.05 0.19 1.68 1.68 0 0 1-1.68 0.74 1.64 1.64 0 0 1-1.32-1 2 2 0 0 1-0.11-1.29v-0.24c0.06-0.77 0.1 -1.53 0.19 -2.3 0.09 -0.77 0.18 -1.41 0.32 -2.1a28.64 28.64 0 0 1 1-3.64 16.21 16.21 0 0 1 1.92-3.92 7.06 7.06 0 0 1 1.32-1.51 4.11 4.11 0 0 1 1.67-0.8 9.42 9.42 0 0 1 2.31-0.15 13 13 0 0 1 1.65 0.08 A5.4 5.4 0 0 1 13.75 21a8.59 8.59 0 0 1 1.93 3.43c0.08 0.22 0.17 0.5 0.26 0.79 z" fill="#FFF"/>
  <path d="M24.69 25H22.5l0.22-0.26a4.73 4.73 0 0 0 1-1.14c0.13-0.28 0.29 -0.44 0.61 -0.41 0.32 0.03 0.49 0 0.74 0H39.72a1 1 0 0 0 1-0.67 0.75 0.75 0 0 0 0.06-0.33v-8.37-6.24a1.16 1.16 0 0 0-1.21-1.22H14.72a1.13 1.13 0 0 0-1.11 1.12v3.29c-0.23-0.29-0.42-0.55-0.64-0.79a8.11 8.11 0 0 0-0.66-0.65 0.43 0.43 0 0 1-0.18-0.33V4.31a1.67 1.67 0 0 1 0.33-1.14 1.44 1.44 0 0 1 1.2-0.48H25.5c0.16 0 0.22-0.06 0.22 -0.22V0.91a0.9 0.9 0 0 1 0.89-0.91h1a1 1 0 0 1 1 1v1.4c0 0.26 0 0.28 0.29 0.28h12.23a1.23 1.23 0 0 1 1.09 1.3v19.66a1.32 1.32 0 0 1-0.87 1.36 2 2 0 0 1-0.59 0.07 H31.05c-0.23 0-0.25 0-0.14 0.24 0.51 0.95 1 1.9 1.54 2.85l1.68 3.11c0.22 0.4 0.42 0.81 0.67 1.2a0.91 0.91 0 0 1-0.41 1.36c-0.3 0.21 -0.7 0.21 -1 0a0.84 0.84 0 0 1-0.26-0.27 192.54 192.54 0 0 1-2.23-4.1c-0.74-1.4-1.503-2.807-2.29-4.22a0.38 0.38 0 0 0-0.39-0.23h-1a0.34 0.34 0 0 0-0.35 0.22 c-0.68 1.27-1.37 2.54-2.06 3.81-0.79 1.46-1.6 2.92-2.37 4.39a0.91 0.91 0 0 1-1.28 0.41 0.94 0.94 0 0 1-0.63-1 0.89 0.89 0 0 1 0.11-0.35l3.9-7.18c0.05-0.06 0.08 -0.15 0.15 -0.31z" fill="#FFF"/>
  <path d="M8.63 9.15a4.71 4.71 0 1 1 0 9.41 4.71 4.71 0 1 1 0-9.41zM19.43 14.59l-1 0.05c-0.16 0-0.25 0-0.24-0.21 0.01 -0.21 0-0.43 0-0.65 0-0.22 0.06 -0.2 0.2 -0.21h1l1.7-0.16c0.42-0.05 0.84 -0.11 1.25-0.18a6.33 6.33 0 0 0 0.78-0.17c0.57-0.15 1.14-0.29 1.7-0.47a25.64 25.64 0 0 0 3.37-1.33 28.35 28.35 0 0 0 3.27-1.85c0.77-0.52 1.5-1.09 2.23-1.65 0.14 -0.1 0.21 -0.09 0.3 0l0.45 0.51 c0.08 0.08 0.1 0.15 0 0.23-0.46 0.36 -0.89 0.75 -1.37 1.07-0.81 0.56 -1.63 1.11-2.48 1.59-0.85 0.48 -1.78 0.93 -2.68 1.37a20.36 20.36 0 0 1-3 1.14c-0.58 0.17 -1.17 0.3 -1.76 0.44 l-1.46 0.31 c-0.24 0-0.49 0.07 -0.73 0.09 l-1.5 0.12 -0.03-0.04zM32.49 15.14v-3.79c0-0.28 0-0.28 0.27 -0.28h1.53c0.2 0 0.26 0.07 0.25 0.26 V19c0 0.18 0 0.25-0.24 0.25 h-1.57c-0.19 0-0.25-0.06-0.25-0.25 0.01 -1.31 0.01 -2.59 0.01 -3.86zM30.92 16.07v2.84c0 0.3 0 0.3-0.31 0.3 H29.1c-0.17 0-0.24-0.06-0.24-0.24v-5.85c0-0.2 0.09 -0.27 0.28 -0.26h1.5c0.27 0 0.28 0 0.28 0.27 v2.94zM25.22 16.77v-2.25c0-0.19 0.06 -0.25 0.25 -0.24H27c0.17 0 0.24 0.05 0.24 0.23 v4.43c0 0.21-0.06 0.29 -0.27 0.28 h-1.52c-0.18 0-0.23-0.06-0.23-0.23 0.01 -0.74 0-1.48 0-2.22zM21.6 17.33v-1.67c0-0.18 0.07 -0.24 0.24 -0.24h1.58c0.18 0 0.24 0.07 0.24 0.24 V19c0 0.15-0.06 0.2 -0.21 0.2 h-1.62c-0.17 0-0.23-0.06-0.23-0.23 0.01 -0.53 0-1.09 0-1.64z" fill="#FFF"/>
</svg>
