<?xml version="1.0" ?>
<svg xmlns="http://www.w3.org/2000/svg" width="35" height="37" viewBox="0 0 35 37">
  <path d="M24.25 9.55h0.15c0.28 0 0.38 0.08 0.37 0.38 a4.08 4.08 0 0 1-0.08 0.85 c-0.07 0.38 -0.17 0.76 -0.28 1.14a2.33 2.33 0 0 1-1 1.42 0.66 0.66 0 0 0-0.31 0.49 c-0.14 0.69 -0.28 1.38-0.45 2.07a7 7 0 0 1-1 2.27c-0.16 0.24 -0.37 0.45 -0.54 0.69 a0.64 0.64 0 0 0-0.13 0.29 2 2 0 0 0 0.19 1.14 0.29 0.29 0 0 1-0.08 0.22 l-2.17 2.17c-0.25 0.25 -0.25 0.25 0 0.5s0.61 0.62 0.92 0.92 a0.21 0.21 0 0 1 0 0.31 8 8 0 0 0-0.84 2.27 8.33 8.33 0 0 0-0.23 2.63 8.52 8.52 0 0 0 1.89 4.77 8.86 8.86 0 0 0 1.57 1.49l0.14 0.12 a1 1 0 0 1-0.23 0.09 c-0.51 0.06 -1 0.13-1.54 0.16 -1.12 0.07 -2.24 0.15 -3.36 0.17 -1.12 0.02 -2 0-3-0.07-0.44 0-0.87 0-1.31-0.1-0.44-0.1-1.07-0.13-1.61-0.2-0.37-0.05-0.74-0.1-1.1-0.17-0.36-0.07-0.69-0.12-1-0.19L8 35.13c-0.43-0.11-0.87-0.21-1.3-0.33-0.59-0.18-1.18-0.36-1.76-0.57-0.84-0.32-1.68-0.64-2.5-1-0.59-0.27-1.14-0.63-1.72-0.94a1.16 1.16 0 0 1-0.6-1 13.42 13.42 0 0 1-0.05-3.19 3.93 3.93 0 0 1 0.46-1.71 7.22 7.22 0 0 1 2.61-2.51 11.15 11.15 0 0 1 2.34-1c0.83-0.24 1.67-0.45 2.51-0.68 0.84 -0.23 1.76-0.48 2.63-0.75a3 3 0 0 0 1.32-0.75 1.75 1.75 0 0 0 0.48-1.14v-0.26a0.73 0.73 0 0 0-0.19-0.58A9 9 0 0 1 11 16.51c-0.22-0.52-0.41-1.05-0.58-1.59-0.17-0.54-0.21-0.83-0.31-1.24a0.32 0.32 0 0 0-0.08-0.14 3.84 3.84 0 0 1-1.35-1.71 4.45 4.45 0 0 1-0.36-1.52 1.09 1.09 0 0 1 0.06-0.47c0.07-0.21 0.26 -0.25 0.45 -0.26 0.19 -0.01 0.24 0 0.2-0.26-0.04-0.26-0.03-0.26-0.03-0.38 0-0.32-0.09-0.64-0.12-1a8.63 8.63 0 0 1-0.06-2c0-0.27 0.06 -0.54 0.1 -0.8a6 6 0 0 1 1.2-2.82A5.77 5.77 0 0 1 12.85 0.49 9.39 9.39 0 0 1 15.67 0c0.416 0 0.831 0.04 1.24 0.12 0.44 0.07 0.88 0.18 1.32 0.29 a8.87 8.87 0 0 1 1.91 0.86 c0.192 0.095 0.398 0.159 0.61 0.19 a4.27 4.27 0 0 1 2.18 1.31 5.18 5.18 0 0 1 1.25 2.41 8.83 8.83 0 0 1 0.16 2.23V8.5c0 0.36-0.06 0.69 -0.09 1.05z" fill="#FFF"/>
  <path d="M34.33 22.86l-1.11 1.08c-0.18 0.18 -0.17 0.19 0 0.38a7.26 7.26 0 0 1 1 1.9 7.4 7.4 0 0 1 0.43 2.51 7.27 7.27 0 0 1-1.53 4.48 7.4 7.4 0 0 1-3.64 2.56 6.25 6.25 0 0 1-1.2 0.25 c-0.43 0-0.87 0.06 -1.3 0.07 a6.1 6.1 0 0 1-1.8-0.28 7 7 0 0 1-2-1A7.41 7.41 0 0 1 21 32.74a7 7 0 0 1-0.95-2.16 6.87 6.87 0 0 1-0.23-2.35 7.33 7.33 0 0 1 1.44-3.91c0.12-0.15 0.13 -0.25 0-0.39s-0.54-0.53-0.81-0.8l-0.21-0.23 0.55 -0.49c0.18-0.17 0.36 -0.35 0.53 -0.53 0.17 -0.18 0.18 -0.11 0.29 0l0.88 0.89 c0.11 0.11 0.19 0.12 0.3 0a6.75 6.75 0 0 1 1.74-1 5.89 5.89 0 0 1 1.65-0.42c0.37 0 0.52-0.26 0.38 -0.61a0.22 0.22 0 0 0-0.17-0.07h-1.06a0.77 0.77 0 0 1-0.78-0.78v-0.69a0.78 0.78 0 0 1 0.76-0.77h3.75a0.71 0.71 0 0 1 0.71 0.7 v0.86a0.65 0.65 0 0 1-0.68 0.67 h-0.91c-0.15 0-0.2 0-0.2 0.19 0 0.42 0 0.42 0.49 0.51a7.26 7.26 0 0 1 2.21 0.77 c0.33 0.19 0.65 0.4 1 0.61 0.11 0.07 0.17 0.07 0.26 0 0.33-0.34 0.67 -0.67 1-1 0.11-0.11 0.18 -0.12 0.29 0l1.1 1.12zm-11.88 5.86a4.8 4.8 0 1 0 4.8-4.82 4.78 4.78 0 0 0-4.8 4.82z" fill="#FFF"/>
  <path d="M25 25.87l1.39 1.42c0.18 0.18 0.36 0.36 0.55 0.53 a0.47 0.47 0 0 0 0.26 0.11 0.8 0.8 0 0 1 0.78 0.71 0.77 0.77 0 0 1-0.73 0.83 0.7 0.7 0 0 1-0.77-0.67 0.62 0.62 0 0 0-0.2-0.44c-0.57-0.56-1.13-1.14-1.7-1.7-0.14-0.13-0.13-0.21 0-0.33 0.13 -0.12 0.29 -0.28 0.42 -0.46z" fill="#FFF"/>
</svg>
