<?xml version="1.0" ?>
<svg xmlns="http://www.w3.org/2000/svg" width="32" height="36" viewBox="0 0 32 36">
  <path d="M29.12 25.08V9.42l-0.7 0.12 -0.88 0.18 -1.28 0.28 -0.84 0.16 -1.26 0.26 -0.82 0.16 -1.29 0.26 -0.84 0.16 -1.21 0.25 -0.82 0.16 -1.29 0.26 -0.85 0.16 -1.24 0.26 -0.84 0.16 -1.26 0.26 -0.82 0.16 -1.29 0.26 c-0.1 0-0.25 0-0.3 0.09 -0.05 0.09 0 0.22 0 0.34v16.75a4.87 4.87 0 0 1-1.55 3.67 7.2 7.2 0 0 1-2.54 1.58 6.19 6.19 0 0 1-1.76 0.42 8.07 8.07 0 0 1-1.27 0 4.79 4.79 0 0 1-3.35-1.39 3 3 0 0 1-0.76-1.56 4 4 0 0 1 0.69-2.93 6.27 6.27 0 0 1 2.83-2.31A10.27 10.27 0 0 1 5.16 27a5.89 5.89 0 0 1 2-0.14 5.29 5.29 0 0 1 1.63 0.39 h0.14V4.49L10 4.27 11.26 4l0.84-0.16 1.28-0.26 0.84 -0.16 1.26-0.26 0.8 -0.16 1.29-0.26 0.78 -0.16 1.33-0.27 1.22-0.21 1.22-0.25 0.8 -0.16 1.31-0.27 0.85 -0.16L26.33 1l0.84-0.16 1.25-0.26 0.82 -0.16 1.29-0.26 0.84 -0.16v27.95a4.81 4.81 0 0 1-1.51 3.57 7.27 7.27 0 0 1-2.59 1.62 6.81 6.81 0 0 1-3 0.46A4.77 4.77 0 0 1 21 32.15a3 3 0 0 1-0.76-1.56 4 4 0 0 1 0.69-2.93 6.27 6.27 0 0 1 2.83-2.31 10.27 10.27 0 0 1 1.58-0.54 5.89 5.89 0 0 1 2-0.14 5.29 5.29 0 0 1 1.63 0.39 l0.15 0.02 z" fill="#FFF"/>
</svg>
