<?xml version="1.0" ?>
<svg xmlns="http://www.w3.org/2000/svg" width="44" height="20" viewBox="0 0 44 20">
  <path d="M4.48 19.08A31.78 31.78 0 0 1 1.38 17c-1-0.86-1-3.73 0-4.6a4 4 0 0 1 1.92-1.21c1.23-0.1 1.09-1.43 1.7-1.67a7.36 7.36 0 0 1 3-0.09 29.7 29.7 0 0 1 3.65 0.38 13.48 13.48 0 0 1 3.41 1 35.14 35.14 0 0 1 4.26 2.6c1.11 0.76 2.1 1.7 3.24 2.42 0.61 0.39 1.66 0.91 2.08 0.66 2.08-1.29 1.85-3.4 1.36-5.39-0.55-2.23-0.28-3.46 1.5-4.78A7.26 7.26 0 0 1 29.87 5a8.79 8.79 0 0 1 2.66 0c0.56 0 1.12 0.16 1.67 0.24 a0.7 0.7 0 0 0-0.08-0.3 1.78 1.78 0 0 0-0.51-0.44 7.05 7.05 0 0 0-2-0.84 14.35 14.35 0 0 0-4.28-0.13c-1.46 0.28 -2.13 1.64-2.25 3.06-0.12 1.42 0.29 2.68 0 3.89-0.56 2.1-3.15 2.46-4.91 0.88 -1.42-1.2-2.97-2.29-4.17-3.66-1.2-1.37-2.12-3.12-3.39-4.48A6.86 6.86 0 0 0 9.76 1.9c-0.13 0-0.64 0.6 -0.76 1s0.19 0.81 0.12 1.18a3.63 3.63 0 0 1-0.62 1.58 14 14 0 0 1-2.14 2C4.79 8.84 2.05 8.19 0.75 6.39a3.82 3.82 0 0 1 0.36-5C2 0.53 2.76-0.25 4.3 0.08 5.84 0.41 7.24 0 8.68 0.14 a7.76 7.76 0 0 1 2.84 1.11 20.75 20.75 0 0 1 2.86 2.15c1.21 1 2.35 2.13 3.53 3.19 1 0.93 2.06 1.83 3.08 2.77 0.19 0.18 0.24 0.5 0.42 0.71 0.246 0.261 0.51 0.505 0.79 0.73 0.24 -0.31 0.62 -0.59 0.7 -0.93 0.38 -1.56 0.59 -3.16 1-4.7 0.86 -3.1 3.38-4.17 6.5-2.93 1 0.4 2.1 0.48 3.1 0.87 1.72 0.66 3.72 0.89 4.67 2.87a1.88 1.88 0 0 1-1.12 2.74c-0.52 0.2 -0.89 0.78 -1.34 1.18l-5.16 4.51a1.9 1.9 0 0 0 0.17 3.25 3.68 3.68 0 0 0 1.74 0.12 c0.07-0.17 0.102 -0.355 0.09 -0.54a9.43 9.43 0 0 1-0.33-2.93 1.61 1.61 0 0 1 2.39-1A2.59 2.59 0 0 1 36 14.87c0.13 0.6 -0.36 1.34-0.58 2a3.36 3.36 0 0 1-0.2 0.43 1.3 1.3 0 0 0 0.49 0.1 c1.53-0.29 3-0.66 4.58-0.88a3.75 3.75 0 0 1 1.72 0.34 13.39 13.39 0 0 1 1.71 0.91 v0.53l-0.6 0.77 h-7.48c-0.77-0.15-1.63-0.61-2.29-0.41-1.79 0.56 -3.38 0.17 -4.21-1.36a4.86 4.86 0 0 1 0.71-4.64c1.11-1.31 2.09-2.73 3.21-4 0.54-0.62 0.82 -0.82 0-1.57-1.51-1.3-3-0.68-4.26-0.06-0.72 0.37 -1.14 1.8-1.27 2.8-0.2 1.53 0.15 3.12 0 4.64a3.52 3.52 0 0 1-5.1 3.05 24 24 0 0 1-4.6-2.34 14.58 14.58 0 0 1-4.08-3.41c-1-1.41-2-0.76-3.07-0.67-0.26 0-0.62 0.52 -0.7 0.86 -0.28 1.13-0.41 2.3-0.69 3.44-0.08 0.31 -0.68 0.54 -0.7 0.83 a2.79 2.79 0 0 1-2.6 2.87l-1.51-0.02zM0.85 4.41c0 1.65 1.4 2.89 3.37 3 0.8 0 2.28-1.28 2-1.8C5.55 4.2 4.85 2.83 4.1 1.5a0.91 0.91 0 0 0-0.77-0.39 4.21 4.21 0 0 0-2.48 3.3zm4 14.11l0.26-0.32c0.25 0 0.59 0 0.74-0.1 0.59 -0.55 1.61-1.21 1.55-1.73-0.06-0.52-1.06-1.18-1.63-1.78-0.57-0.6-1.31-1.48-2-2.17-0.21-0.2-0.78-0.36-0.88-0.26-1.14 1.21-2 2.66-0.86 4.19a12.64 12.64 0 0 0 2.82 2.17zm1.49-9.18c-0.36 0.76 -1.09 1.66-0.89 2a17.26 17.26 0 0 0 2.47 2.75c0.23 0.216 0.474 0.417 0.73 0.6 0-0.38 0.08 -0.77 0.11 -1.16 0.05 -0.72 0.08 -1.45 0.13 -2.18 0-0.16 0.16 -0.43 0.12 -0.45-0.73-0.46-1.47-0.9-2.67-1.56zm1.84-4.21c0.15-0.57 0.22 -0.79 0.28 -1 0.23-1 0.45-2 0.67-3 0 0-0.07-0.11-0.11-0.11C8.08 1 7.14 1 6.19 1a0.36 0.36 0 0 0-0.06 0.25 c0.36 0.76 0.74 1.5 1.12 2.24 0.24 0.43 0.5 0.87 0.93 1.64zm25.37 10.93l-0.12 0.1 0.27 0.29 a9.8 9.8 0 0 0 1-1.18 2.32 2.32 0 0 0 0.11-0.89 5.9 5.9 0 0 0-1.51 0c-0.15 0-0.3 0.63 -0.26 0.94 0.04 0.31 0.32 0.48 0.51 0.74 zm-7.23-6.55l0.32 1.1c0-0.24 0-0.48 0.07 -0.72 0.11 -0.72 0.23 -1.43 0.34 -2.14a1 1 0 0 0 0-0.17s-0.11 0.06 -0.12 0.11 c-0.23 0.68 -0.45 1.36-0.61 1.82zM42 18.68l0.72-0.56c-0.44-0.2-0.89-0.41-1.34-0.6 0 0-0.12 0.13 -0.11 0.15 l0.73 1.01zM35.32 6.12a5.64 5.64 0 0 0-0.66-0.22c-0.07 0-0.17 0.09 -0.25 0.14 l0.72 0.26 s0.07-0.07 0.19 -0.18zM43.13 19.08l0.6-0.77-0.6 0.77 z" fill="#FFF"/>
</svg>
