<?xml version="1.0" ?>
<svg xmlns="http://www.w3.org/2000/svg" width="44" height="19" viewBox="0 0 44 19">
  <path d="M43.57 12.29v3.5a0.79 0.79 0 0 1-0.84 0.84 H30a1.27 1.27 0 0 1-0.52-0.09 0.77 0.77 0 0 1-0.4-0.76 3.47 3.47 0 0 0-1.69-2.93 3.61 3.61 0 0 0-5.4 2 4.35 4.35 0 0 0-0.15 0.94 0.75 0.75 0 0 1-0.8 0.8 H6.73a1.31 1.31 0 0 1-0.48-0.07 0.7 0.7 0 0 1-0.44-0.67v-0.51c0-0.17 0-0.2-0.18-0.19H4.56c-0.14 0-0.21 0.06 -0.2 0.2 a1.12 1.12 0 0 1 0 0.19c0 0.19 0 0.31 0.24 0.38a0.69 0.69 0 0 1 0.48 0.78 0.73 0.73 0 0 1-0.73 0.62 h-0.72a0.72 0.72 0 0 1-0.72-0.72v-1.15c0-0.38 0-0.3-0.31-0.3H0.79a0.75 0.75 0 0 1-0.75-1l0.24-0.7L0.77 12a0.73 0.73 0 0 1 0.87-0.49 0.71 0.71 0 0 1 0.5 0.89 c-0.09 0.33 -0.21 0.66 -0.32 1-0.11 0.34 0 0.26 0.19 0.26h0.66c0.17 0 0.24-0.05 0.24 -0.23V12.2a0.74 0.74 0 0 1 0.61-0.7 0.72 0.72 0 0 1 0.78 0.5 0.86 0.86 0 0 1 0.05 0.31 v1.17c0 0.17 0.05 0.24 0.23 0.24h1.09c0.16 0 0.22-0.05 0.24 -0.21 0.06 -0.66 0.11 -1.32 0.22 -2 0.17-1 0.36-2 0.59-3A17.3 17.3 0 0 1 8 4.89a11 11 0 0 1 2.46-3.48A5.43 5.43 0 0 1 13.28 0a3 3 0 0 1 0.49 0h27.66a2.18 2.18 0 0 1 2.06 1.61c0.05 0.196 0.076 0.398 0.08 0.6 v8.38c0 0.2 0 0.27-0.26 0.26 h-1.19a0.7 0.7 0 0 0-0.71 0.58 0.67 0.67 0 0 0 0.36 0.77 c0.142 0.06 0.295 0.09 0.45 0.09 0.44 0.01 0.88 0 1.35 0zm-7.26-4V2.93a0.73 0.73 0 0 0-0.82-0.81h-2.68A0.75 0.75 0 0 0 32 3v10.57c0 0.6 0.27 0.86 0.88 0.86h2.62a0.76 0.76 0 0 0 0.87-0.87c-0.04-1.707-0.06-3.447-0.06-5.22v-0.05zm-20 0.34h3.19a0.75 0.75 0 0 0 0.84-0.84V4.45c0-0.62-0.27-0.89-0.89-0.89h-6.29a0.73 0.73 0 0 0-0.81 0.8 v3.42a0.74 0.74 0 0 0 0.84 0.84 l3.12 0.01 z" fill="#FFF"/>
  <path d="M25.41 18.8a2.89 2.89 0 1 1 2.91-2.9 2.9 2.9 0 0 1-2.91 2.9zm0-1.45a1.445 1.445 0 1 0 0-2.89 1.445 1.445 0 0 0 0 2.89z" fill="#FFF"/>
</svg>
