<?xml version="1.0" ?>
<svg xmlns="http://www.w3.org/2000/svg" width="36" height="36" viewBox="0 0 36 36">
  <path d="M35.87 17.91V35.5c0 0.3 0 0.3-0.29 0.3 h-1c-0.24 0-0.25 0-0.25-0.26v-6.49c0-0.26 0-0.26-0.27-0.26H1.79c-0.24 0-0.24 0-0.24 0.25 v6.49c0 0.27 0 0.27-0.27 0.27 h-1c-0.23 0-0.24 0-0.24-0.24V7.89c0-0.27 0-0.27 0.26 -0.27h1.03c0.17 0 0.22 0 0.22 0.22 v4.57c0 0.17 0 0.23 0.23 0.23H34c0.23 0 0.23 0 0.23-0.23V0.29c0-0.29 0-0.29 0.29 -0.29h1.1c0.22 0 0.23 0 0.23 0.24 v17.67h0.02zm-1.62 9.26V27 14.44c0-0.17 0-0.22-0.23-0.22H1.76c-0.17 0-0.22 0-0.22 0.21 v12.78l32.71-0.04z" fill="#FFF"/>
  <path d="M24.67 11.42H2.91c-0.17 0-0.23 0-0.23-0.21v-1.07a4.3 4.3 0 0 1 0.68-1.94 6.48 6.48 0 0 1 2.16-2.07 11 11 0 0 1 2.24-1.08c0.63-0.22 1.26-0.43 1.89-0.62 0.44 -0.12 0.9 -0.21 1.35-0.31 0.45 -0.1 1.14-0.23 1.72-0.33 0.37 -0.07 0.75 -0.11 1.12-0.16l1.78-0.2 0.94 -0.08c1.8-0.1 3.59-0.17 5.39-0.15H24.67v8.22zM29.39 11.49A3.68 3.68 0 0 1 26 9.24a3.87 3.87 0 0 1-0.25-2 3.72 3.72 0 0 1 2.13-3A3.31 3.31 0 0 1 30.07 4a3.63 3.63 0 0 1 2.65 2.15 3.65 3.65 0 0 1 0.28 2.1 3.74 3.74 0 0 1-2.08 2.9 3 3 0 0 1-1.53 0.34 zM24.67 17.84V26h-22v-0.47A5.25 5.25 0 0 1 2.85 24a5.05 5.05 0 0 1 1.23-2.08 7.86 7.86 0 0 1 2.46-1.7c0.76-0.34 1.54-0.63 2.32-0.91 0.476 -0.156 0.96 -0.286 1.45-0.39 0.64 -0.14 1.28-0.28 1.92-0.4 0.38 -0.08 0.76 -0.12 1.14-0.17l2.1-0.26c0.3 0 0.6-0.06 0.9 -0.08 1.73-0.11 3.47-0.18 5.2-0.16h2.95l0.15-0.01zM25.74 22.3a3.82 3.82 0 0 1 2-3.43 3.24 3.24 0 0 1 2-0.41 3.59 3.59 0 0 1 3.13 2.39 3.5 3.5 0 0 1 0.13 1.92 3.73 3.73 0 0 1-2.33 3 3.22 3.22 0 0 1-1.76 0.22 A3.6 3.6 0 0 1 26 23.71a3.21 3.21 0 0 1-0.26-1.41z" fill="#FFF"/>
</svg>
