<?xml version="1.0" ?>
<svg xmlns="http://www.w3.org/2000/svg" width="28" height="31" viewBox="0 0 28 31">
  <path d="M13.26 9H15.79A0.24 0.24 0 0 1 16 9c0.82 0.92 1.63 1.85 2.44 2.78a1.664 1.664 0 0 0 2.46-2.24c-1-1.12-2-2.26-3-3.39a1.55 1.55 0 0 0-1.14-0.59h-5a2.31 2.31 0 0 0-1 0.24l-3.1 1.55a2.32 2.32 0 0 0-1.12 1c-0.22 0.43 -0.4 0.88 -0.59 1.33-0.34 0.84 -0.67 1.68-1 2.52a0.24 0.24 0 0 1-0.27 0.17 H1.8a2 2 0 0 0-0.77 0.14 1.66 1.66 0 0 0-0.95 2 1.69 1.69 0 0 0 1.65 1.15H5.9a1.6 1.6 0 0 0 1.5-0.92c0.35-0.7 0.66 -1.41 1-2.12 0.14 -0.32 0.29 -0.64 0.45 -1 0.05 0.07 0.1 0.1 0.12 0.15 0.2 0.34 0.4 0.68 0.59 1 0.81 1.43 1.62 2.84 2.44 4.23 0.07 0.12 0.05 0.19-0.06 0.28 L8.5 20a1.63 1.63 0 0 0-0.67 1.6 6.9 6.9 0 0 0 0.21 0.78 c0.15 0.5 0.29 1 0.44 1.48L9 25.52c0.18 0.57 0.34 1.14 0.52 1.71 0.18 0.57 0.39 1.11 0.52 1.68a1.67 1.67 0 0 0 3.29-0.31 2.28 2.28 0 0 0-0.13-0.68c-0.18-0.65-0.38-1.3-0.58-1.94-0.2-0.64-0.41-1.29-0.61-1.93-0.2-0.64-0.38-1.3-0.59-1.94a0.23 0.23 0 0 1 0.09-0.29c0.44-0.32 0.87 -0.65 1.3-1l3.56-2.74a2.34 2.34 0 0 0 0.63-2.94c-0.33-0.58-0.68-1.14-1-1.71l-2.6-4.22c-0.06-0.08-0.09-0.16-0.14-0.21zm5.3 8.59a1.15 1.15 0 0 0-0.08 0.14 3.79 3.79 0 0 1-1.09 1.42c-0.33 0.27 -0.66 0.52 -1 0.78-0.1 0.08 -0.13 0.14 0 0.27L18 22.42c0.157 0.229 0.334 0.443 0.53 0.64 a1.63 1.63 0 0 0 1.17 0.44 H26c0.216 0.02 0.434 0.02 0.65 0A1.66 1.66 0 0 0 28 21.89a1.6 1.6 0 0 0-0.71-1.41 1.72 1.72 0 0 0-1-0.32h-5.58c-0.1 0-0.2 0-0.28-0.1-0.32-0.47-0.66-0.92-1-1.38l-0.87-1.09zM3.36 2.79a2.77 2.77 0 0 0 2.8 2.77 2.73 2.73 0 0 0 2.77-2.79 2.79 2.79 0 0 0-5.57 0v0.02z" fill="#FFF"/>
  <path d="M13.26 9c0.05 0.09 0.08 0.17 0.13 0.25 L16 13.43c0.35 0.57 0.7 1.13 1 1.71a2.34 2.34 0 0 1-0.63 2.95l-3.56 2.74c-0.43 0.34 -0.86 0.67 -1.3 1a0.23 0.23 0 0 0-0.09 0.29 c0.21 0.64 0.39 1.29 0.59 1.94 0.2 0.65 0.41 1.28 0.61 1.93 0.2 0.65 0.4 1.29 0.58 1.94 0.078 0.219 0.122 0.448 0.13 0.68a1.67 1.67 0 0 1-3.29 0.31 c-0.13-0.57-0.35-1.12-0.52-1.68-0.17-0.56-0.32-1.15-0.52-1.72l-0.54-1.7c-0.15-0.49-0.29-1-0.44-1.48a6.9 6.9 0 0 1-0.21-0.78A1.63 1.63 0 0 1 8.5 20l3.44-2.67c0.11-0.09 0.13 -0.16 0.06 -0.28-0.82-1.4-1.63-2.81-2.45-4.22-0.19-0.34-0.39-0.68-0.59-1 0 0-0.07-0.08-0.12-0.15-0.16 0.35 -0.31 0.67 -0.45 1-0.33 0.71 -0.64 1.42-1 2.12a1.6 1.6 0 0 1-1.5 0.92 H1.73A1.69 1.69 0 0 1 0.08 14.5a1.66 1.66 0 0 1 1-2 2 2 0 0 1 0.77-0.14h2.88a0.24 0.24 0 0 0 0.27-0.21c0.33-0.84 0.66 -1.68 1-2.52 0.19 -0.45 0.37 -0.9 0.59 -1.33a2.32 2.32 0 0 1 1.12-1l3.07-1.52a2.31 2.31 0 0 1 1-0.24h5a1.55 1.55 0 0 1 1.14 0.59 c1 1.13 2 2.27 3 3.39a1.664 1.664 0 0 1-2.46 2.24C17.59 10.88 16.78 10 16 9a0.24 0.24 0 0 0-0.17-0.09h-2.45l-0.12 0.09 z" fill="#FFF"/>
  <path d="M18.56 17.55l0.83 1.13c0.33 0.46 0.67 0.91 1 1.38 0.08 0.11 0.18 0.1 0.28 0.1h5.58c0.359 0 0.708 0.112 1 0.32 0.483 0.303 0.77 0.84 0.75 1.41a1.66 1.66 0 0 1-1.34 1.55 3.49 3.49 0 0 1-0.65 0H19.7a1.63 1.63 0 0 1-1.17-0.44 4.62 4.62 0 0 1-0.53-0.64l-1.64-2.26c-0.1-0.13-0.07-0.19 0-0.27 0.34 -0.26 0.67 -0.51 1-0.78a3.79 3.79 0 0 0 1.09-1.42 1.15 1.15 0 0 1 0.11-0.08zM3.36 2.79a2.79 2.79 0 0 1 5.57 0 2.73 2.73 0 0 1-2.77 2.77 2.77 2.77 0 0 1-2.8-2.77z" fill="#FFF"/>
</svg>
