<?xml version="1.0" ?>
<svg xmlns="http://www.w3.org/2000/svg" width="30" height="31" viewBox="0 0 30 31">
  <path d="M9.45 23.18c-0.19-0.33-0.36-0.62-0.54-0.91a3.05 3.05 0 0 1-0.44-1.15 3.3 3.3 0 0 1 0-1.29 3 3 0 0 1 0.8-1.46 2.3 2.3 0 0 1 1.41-0.68 2.21 2.21 0 0 1 2 0.89c0.206 0.28 0.386 0.578 0.54 0.89 0.36 0.66 0.7 1.33 1.05 2l0.86 1.62s0.06 0.1 0.08 0.1 c0.155 0.03 0.315 0.03 0.47 0 0.49-0.22 1-0.46 1.46-0.7a4.4 4.4 0 0 0 1-0.55c0.23-0.2 0.48 -0.39 0.72 -0.58a7.91 7.91 0 0 1-0.69-1.59 6.53 6.53 0 0 1-0.28-1.6 6.91 6.91 0 0 1 0.78-3.59 5.83 5.83 0 0 1 1.54-1.85 0.36 0.36 0 0 0 0.16-0.32V9.62 0.27 c0-0.22 0-0.22-0.22-0.22H0.2C0 0 0 0 0 0.2V23c0 0.14 0 0.18 0.18 0.18h9.27zm6.91 4.39l-0.08 0.64 c-0.06 0.49 -0.13 1-0.17 1.48 0 0.29-0.07 0.27 0.27 0.27 h13.48c0.09 0 0.15 0 0.14-0.13 0-0.57-0.07-1.15-0.16-1.72a8.35 8.35 0 0 0-0.34-1.34 12.06 12.06 0 0 0-0.5-1.3 7.29 7.29 0 0 0-1-1.62 7.13 7.13 0 0 0-1.11-1.08 6.18 6.18 0 0 0-1.35-0.77l-0.35-0.16 0.4 -0.46a4.93 4.93 0 0 0 1-1.7 4.8 4.8 0 0 0 0.27-1.25 11.38 11.38 0 0 0 0-1.34 4.38 4.38 0 0 0-0.37-1.4 4.29 4.29 0 0 0-1.54-2 3.14 3.14 0 0 0-1.71-0.57 3.1 3.1 0 0 0-1.27 0.23 3.58 3.58 0 0 0-1.4 1 4.91 4.91 0 0 0-1.08 2.18 5.54 5.54 0 0 0-0.14 1.4 5.75 5.75 0 0 0 0.33 1.78c0.246 0.7 0.65 1.332 1.18 1.85l0.21 0.18 -0.48 0.2 a6.25 6.25 0 0 0-1.7 1.16 1.77 1.77 0 0 1-0.33 0.27 c-0.22 0.12 -0.45 0.21 -0.68 0.32 l-1.94 0.93 -1 0.48h-0.16c-0.15-0.27-0.3-0.54-0.44-0.81l-0.74-1.42-0.91-1.69c-0.27-0.5-0.52-1-0.8-1.51a1 1 0 0 0-1.89-0.11 1.69 1.69 0 0 0-0.32 0.83 1.42 1.42 0 0 0 0.12 0.83 c0.22 0.46 0.47 0.9 0.71 1.34l1.18 2.23 0.72 1.35 0.9 1.69c0.25 0.455 0.78 0.678 1.28 0.54 0.26-0.1 0.513 -0.213 0.76 -0.34l1.01-0.46z" fill="#FFF"/>
  <path d="M16.36 27.57l-1 0.46c-0.247 0.127 -0.5 0.24 -0.76 0.34 a1.12 1.12 0 0 1-1.28-0.54l-0.9-1.69-0.72-1.35-1.18-2.23c-0.24-0.45-0.49-0.89-0.71-1.34a1.42 1.42 0 0 1-0.12-0.83c0.03-0.3 0.141 -0.587 0.32 -0.83a1 1 0 0 1 1.78 0.14 c0.28 0.5 0.53 1 0.8 1.51l0.91 1.69 0.74 1.42c0.14 0.27 0.29 0.55 0.44 0.81 h0.16l1-0.48 1.94-0.93c0.23-0.11 0.46 -0.2 0.68 -0.32a1.77 1.77 0 0 0 0.33-0.27A6.25 6.25 0 0 1 20.54 22l0.48-0.2-0.21-0.18a4.81 4.81 0 0 1-1.18-1.85 5.75 5.75 0 0 1-0.18-3.17 4.91 4.91 0 0 1 1.08-2.18 3.58 3.58 0 0 1 1.4-1 3.1 3.1 0 0 1 1.27-0.23 3.14 3.14 0 0 1 1.71 0.57 4.29 4.29 0 0 1 1.54 2c0.2 0.443 0.325 0.916 0.37 1.4 0.026 0.446 0.026 0.894 0 1.34a4.8 4.8 0 0 1-0.27 1.25 4.93 4.93 0 0 1-1 1.7l-0.4 0.46 0.35 0.16 c0.453 0.205 0.88 0.463 1.27 0.77 0.408 0.319 0.78 0.68 1.11 1.08a7.29 7.29 0 0 1 1 1.62c0.202 0.426 0.38 0.863 0.53 1.31 0.15 0.437 0.264 0.885 0.34 1.34 0.09 0.57 0.11 1.15 0.16 1.72 0 0.11-0.05 0.13 -0.14 0.13 H16.39c-0.34 0-0.3 0-0.27-0.27 0-0.5 0.11 -1 0.17-1.48l0.07-0.72z" fill="#FFF"/>
  <path d="M9.79 9.06h7.29a0.67 0.67 0 0 1 0.67 0.41 0.75 0.75 0 0 1-0.23 0.91 0.45 0.45 0 0 1-0.23 0.09 H2.55a0.69 0.69 0 0 1-0.67-0.28 0.78 0.78 0 0 1 0.19-1 0.82 0.82 0 0 1 0.37-0.1h7.35v-0.03zM9.79 3.25h7.3a0.67 0.67 0 0 1 0.71 0.58 0.71 0.71 0 0 1-0.38 0.79 1.11 1.11 0 0 1-0.41 0.06 H2.52a0.68 0.68 0 0 1-0.64-0.28 0.77 0.77 0 0 1 0.2-1.05 0.81 0.81 0 0 1 0.36-0.09h7.35v-0.01zM8.25 16.28H2.47a0.63 0.63 0 0 1-0.59-0.28 0.76 0.76 0 0 1 0.32-1.12 0.81 0.81 0 0 1 0.27 0H14a0.67 0.67 0 0 1 0.7 0.7 0.67 0.67 0 0 1-0.7 0.73 H8.25v-0.03z" fill="#48059E"/>
</svg>
