<?xml version="1.0" ?>
<svg xmlns="http://www.w3.org/2000/svg" width="37" height="36" viewBox="0 0 37 36">
  <path d="M6.33 21.48a1.62 1.62 0 0 1 0 0.22c0 0.44 0 0.89-0.07 1.34 0 1.08-0.07 2.16-0.11 3.24a4.63 4.63 0 0 0 0.37 2.09A5.1 5.1 0 0 0 11 31.54c0.54 0.05 1.09 0.06 1.64 0.08 l2.88 0.11 h0.26a2.15 2.15 0 0 1-0.2 0.21 c-0.41 0.41 -0.84 0.81 -1.24 1.23a0.8 0.8 0 0 0-0.26 0.84 1 1 0 0 0 1.59 0.48 c0.8-0.69 1.58-1.39 2.36-2.1 0.37 -0.33 0.74 -0.67 1.09-1a0.76 0.76 0 0 0 0-1.07c-0.53-0.57-1-1.15-1.56-1.73C17 28.01 16.54 27.52 16 27a0.92 0.92 0 0 0-1.18-0.25 1 1 0 0 0-0.27 1.53l1.09 1.19c0.066 0.076 0.126 0.156 0.18 0.24 a2.76 2.76 0 0 1-0.29 0l-4.22-0.17a3.37 3.37 0 0 1-1.4-0.32 2.83 2.83 0 0 1-1.7-2.51c0-1.21 0.06 -2.43 0.1 -3.65l0.06-1.23a0.4 0.4 0 0 1 0-0.16 0.15 0.15 0 0 1 0.14-0.05s0.06 0.07 0.09 0.1 c0.4 0.45 0.8 0.9 1.22 1.34a0.94 0.94 0 0 0 1.05 0.17 1 1 0 0 0 0.26-1.58 94.298 94.298 0 0 0-2.88-3.24 0.83 0.83 0 0 0-0.87-0.34 1.48 1.48 0 0 0-0.52 0.29 c-0.38 0.32 -0.73 0.67 -1.1 1l-2.17 2a0.82 0.82 0 0 0-0.22 1 1 1 0 0 0 0.87 0.63 1.23 1.23 0 0 0 0.9-0.43l1.19-1.08zM27.29 16.69h2.87a0.3 0.3 0 0 1 0.18 0.17 c0.31 0.86 0.6 1.72 0.89 2.58l0.84 2.56c0.26 0.74 0.53 1.49 0.78 2.23s0.45 1.35 0.68 2c0.23 0.65 0.47 1.35 0.7 2 0.23 0.65 0.39 1.17 0.59 1.75 0.2 0.58 0.48 1.38 0.71 2.07 0.23 0.69 0.45 1.35 0.68 2l0.53 1.53c0.1 0.28 0.08 0.32 -0.21 0.32 h-2.09c-0.14 0-0.23 0-0.28-0.18-0.2-0.62-0.42-1.22-0.63-1.83l-0.6-1.79c-0.21-0.6-0.41-1.21-0.62-1.82a2.64 2.64 0 0 0-0.1-0.3 0.22 0.22 0 0 0-0.23-0.16h-6.5c-0.15 0-0.2 0.08 -0.24 0.19 l-0.72 2.18-0.84 2.6c-0.1 0.32 -0.21 0.65 -0.33 1a0.3 0.3 0 0 1-0.21 0.13 h-2.2c-0.12 0-0.18 0-0.12-0.18 0.29 -0.84 0.57 -1.69 0.85 -2.53l0.78-2.21c0.23-0.67 0.45 -1.34 0.68 -2 0.23-0.66 0.41 -1.2 0.62 -1.8l0.6-1.79 0.65 -1.84c0.2-0.6 0.4 -1.2 0.61 -1.79 0.21 -0.59 0.41 -1.2 0.61 -1.81l0.6-1.76 0.47 -1.52zm4.34 11.22c-1-3-2.13-5.91-2.85-8.95 0 0-0.06-0.05-0.11-0.1-0.7 3.1-1.87 6-2.83 9.05h5.79z" fill="#FFF"/>
  <path d="M6.33 21.48l-1.19 1.11a1.23 1.23 0 0 1-0.9 0.43 1 1 0 0 1-0.87-0.63 0.82 0.82 0 0 1 0.22-1l2.17-2c0.37-0.34 0.72 -0.69 1.1-1 0.152-0.13 0.329 -0.23 0.52 -0.29a0.83 0.83 0 0 1 0.87 0.34 153.3 153.3 0 0 1 2.93 3.2 1 1 0 0 1-0.26 1.58 0.94 0.94 0 0 1-1.05-0.17c-0.42-0.44-0.82-0.89-1.22-1.34 0 0-0.06-0.1-0.09-0.1a0.15 0.15 0 0 0-0.14 0.05 0.4 0.4 0 0 0 0 0.16l-0.06 1.23c0 1.22-0.13 2.44-0.1 3.65A2.83 2.83 0 0 0 10 29.21a3.37 3.37 0 0 0 1.4 0.32 l4.22 0.17 c0.097 0.005 0.193 0.005 0.29 0a2.11 2.11 0 0 0-0.18-0.24l-1.09-1.19a1 1 0 0 1 0.27-1.53A0.92 0.92 0 0 1 16 27c0.5 0.53 1 1.07 1.49 1.61s1 1.16 1.56 1.73a0.76 0.76 0 0 1 0 1.07c-0.35 0.35 -0.72 0.69 -1.09 1-0.78 0.71 -1.56 1.41-2.36 2.1a1 1 0 0 1-1.55-0.51 0.8 0.8 0 0 1 0.26-0.84c0.4-0.42 0.83 -0.82 1.24-1.23a2.15 2.15 0 0 0 0.2-0.21h-0.26l-2.88-0.11c-0.55 0-1.1 0-1.64-0.08a5.1 5.1 0 0 1-4.4-3.14 4.63 4.63 0 0 1-0.37-2.09c0-1.08 0.07 -2.16 0.11 -3.24 0-0.45 0.05 -0.9 0.07 -1.34a1.62 1.62 0 0 0 0-0.22l-0.05-0.02z" fill="#FFF"/>
  <path d="M14.14 14.05l-2 1.39H12c-2.667-2.96-5.057-5.87-7.17-8.73-1.18 0.89 -1.78 2.43-1.78 4.63V12a18 18 0 0 0 0.37 2.84l-2.59 0.67 C0.66 13.9 0.58 13 0.58 12.65v-0.52a7.83 7.83 0 0 1 3.19-6.79 14.18 14.18 0 0 0-2-2.23A7.8 7.8 0 0 0 0.31 2v-0.26l2-1.41h0.14c0.28 0.26 1.06 1.13 2.36 2.61 0.493 0.573 1.89 2.31 4.19 5.21a5.1 5.1 0 0 0 1.53-4A8 8 0 0 0 9.93 1L12.6 0.37 A9.13 9.13 0 0 1 13 3.5v0.13a7.42 7.42 0 0 1-0.81 3.29 6.5 6.5 0 0 1-2.16 2.56c1.087 1.333 1.917 2.303 2.49 2.91a8.68 8.68 0 0 0 1.6 1.38l0.02 0.28 z" fill="#FFF" stroke-width=".62" stroke="#FFF"/>
</svg>
