<?xml version="1.0" ?>
<svg xmlns="http://www.w3.org/2000/svg" width="42" height="31" viewBox="0 0 42 31">
  <path d="M24.64 9.48h4.91c0.3 0 0.3 0 0.3 0.31 v16.92c0 0.56 0 0.56 0.57 0.56h9.87c0.29 0 0.3 0 0.3 0.3 v1.62c0 0.18 0.06 0.26 0.24 0.24 0.18 -0.02 0.29 0 0.44 0 0.15 0 0.18 0.14 0.18 0.27 s0 0.25-0.19 0.25 h-41c-0.19 0-0.26 0-0.26-0.25s0-0.3 0.25 -0.28c0.25 0.02 0.25 0 0.38 0s0.25-0.05 0.24 -0.24v-1.51c0-0.51 0-0.36 0.35 -0.36h10.12c0.22 0 0.27-0.06 0.27 -0.27V23.8v-14c0-0.28 0-0.28 0.28 -0.28h5c-0.1 0.09 -0.16 0.16 -0.22 0.21 l-3.14 2.37a0.49 0.49 0 0 0-0.22 0.44 v14.52c0 0.26 0 0.27 0.28 0.27H15c0.26 0 0.27 0 0.27-0.28v-10.2c-0.04-0.3 0.035 -0.604 0.21 -0.85h-1.25c-0.15 0-0.22-0.05-0.21-0.21 0-0.53-0.05-0.46 0.44 -0.46H27.2c0.09 0 0.26 0 0.27 0.08 0.021 0.18 0.021 0.36 0 0.54H26.3L26 16c0.163 0.306 0.223 0.657 0.17 1v10c0 0.31 0 0.31 0.31 0.31h1.37c0.21 0 0.28-0.06 0.27 -0.27v-9.57-4.94a0.45 0.45 0 0 0-0.2-0.4l-3.13-2.44-0.17-0.14 0.02 -0.07zM19.71 16c0.047 0.258 0.08 0.518 0.1 0.78 v12.41c0 0.2 0.06 0.28 0.26 0.27h1.26c0.42 0 0.31 0 0.31-0.32V17.45a3.24 3.24 0 0 1 0.14-1.45h-2.07zm-3.24 0c0.192 0.242 0.272 0.555 0.22 0.86 v10.22c0 0.2 0.05 0.28 0.26 0.27h1.14c0.38 0 0.32 0 0.32-0.31v-8.45a8.63 8.63 0 0 1 0.13-2.59h-2.07zM23 16a5 5 0 0 1 0.1 0.67 v10.35c0 0.18 0 0.29 0.25 0.28h1.16c0.39 0 0.31 0 0.31-0.31v-9.93c0-0.34 0-0.69 0.06 -1L23 16z" fill="#FFF"/>
  <path d="M30.21 21.69V17c0-0.3 0-0.31 0.3 -0.31h8.79c0.33 0 0.33 0 0.33 0.33 v9.42c0 0.29 0 0.3-0.29 0.3 h-8.87c-0.2 0-0.25-0.07-0.25-0.26v-4.79h-0.01zm1.62-2.52v1.09c0 0.14 0 0.2 0.19 0.2h1.89c0.15 0 0.21-0.05 0.21 -0.21v-2.14c0-0.16 0-0.23-0.21-0.22H32c-0.16 0-0.21 0.06 -0.2 0.21 0.04 0.35 0.03 0.7 0.03 1.06v0.01zm2.29 3.54v-1.07c0-0.17-0.06-0.22-0.22-0.22H32c-0.17 0-0.22 0.06 -0.22 0.22 v2.14c0 0.15 0 0.21 0.2 0.21h1.89c0.16 0 0.2-0.07 0.2 -0.21 0.04 -0.37 0.05 -0.72 0.05 -1.08v0.01zm4.36 0v-1.07c0-0.15-0.05-0.22-0.21-0.21h-1.89c-0.15 0-0.2 0.06 -0.2 0.2 v2.19c0 0.13 0 0.19 0.18 0.19h1.91c0.16 0 0.2-0.07 0.2 -0.22 0-0.38 0.01 -0.74 0.01 -1.1v0.02zm-2.29-3.53v1.09c0 0.14 0 0.2 0.19 0.2h1.89c0.17 0 0.22-0.06 0.21 -0.22v-2.12c0-0.16-0.05-0.23-0.22-0.23H36.4c-0.17 0-0.22 0.07 -0.21 0.23 v1.05zM11.24 21.74v4.73c0 0.28 0 0.28-0.28 0.28 H2.1c-0.28 0-0.28 0-0.28-0.28v-9.44c0-0.3 0-0.3 0.3 -0.3H11c0.28 0 0.28 0 0.28 0.28 v4.73h-0.04zm-1.62-2.52v-1.09c0-0.17-0.06-0.22-0.22-0.22H7.56c-0.16 0-0.23 0-0.22 0.21 v2.16c0 0.16 0.05 0.22 0.22 0.22h1.82c0.18 0 0.25-0.05 0.25 -0.24-0.02-0.34-0.01-0.69-0.01-1.04zM3 19.19v1.07c0 0.18 0.07 0.25 0.25 0.25H5c0.17 0 0.22-0.06 0.22 -0.22v-2.16c0-0.15-0.05-0.21-0.21-0.21H3.19C3 17.91 3 18 3 18.14v1.05zm6.65 3.55v-1.11c0-0.14 0-0.19-0.18-0.18H7.53c-0.15 0-0.19 0.05 -0.19 0.2 v2.19c0 0.16 0.06 0.21 0.21 0.21h1.83c0.2 0 0.25-0.07 0.25 -0.26-0.02-0.36-0.01-0.71-0.01-1.05h0.03zM3 22.73v1.07c0 0.2 0 0.2 0.19 0.2h1.87c0.14 0 0.21 0 0.21-0.19v-2.2c0-0.13 0-0.19-0.18-0.19H3.17c-0.14 0-0.2 0.05 -0.2 0.2 0.03 0.38 0.03 0.75 0.03 1.11zM6 16.29H1.14c-0.21 0-0.28-0.06-0.27-0.27v-2.23c0-0.2 0-0.26 0.26 -0.26h8c0.31 0 0.31 0 0.31-0.31V8.49a0.44 0.44 0 0 1 0-0.15 1.68 1.68 0 0 1 0.11-0.21c0 0.07 0.11 0.13 0.11 0.2v4.96c0 0.18 0 0.24 0.24 0.24h1.2c0.14 0 0.2 0 0.2 0.19 v2.36c0 0.19-0.1 0.21 -0.25 0.21 H6zM35.4 16.24h-4.9c-0.28 0-0.28 0-0.28-0.28v-2.23c0-0.17 0.06 -0.24 0.23 -0.23h1.09c0.3 0 0.31 0 0.31-0.3V8.38a0.78 0.78 0 0 1 0-0.21 0.15 0.15 0 0 1 0.1-0.09c0.05 0.01 0.09 0.043 0.11 0.09 a0.59 0.59 0 0 1 0 0.19v4.86c0 0.28 0 0.28 0.28 0.28h7.89c0.34 0 0.34 0 0.34 0.34 v2.12c0 0.21 0 0.28-0.27 0.27 h-4.9v0.01zM20.73 30.36h20.39c0.31 0 0.45 0.22 0.31 0.49 0 0.05-0.14 0.08 -0.21 0.08 H0.17c-0.12 0-0.17-0.05-0.16-0.17 0.01 -0.12 0-0.06 0-0.08 0-0.33 0-0.33 0.33 -0.33l20.39 0.01 zM27.35 12.21H14.17l0.13-0.21 6.08-4.61a0.45 0.45 0 0 0 0.2-0.4V0.34 0.13 a0.13 0.13 0 0 1 0.18-0.13c0.06 0 0.15 0.09 0.15 0.14 v6.79a0.53 0.53 0 0 0 0.23 0.48 l6 4.59 0.18 0.14 0.03 0.07zm-2-0.55v-0.05l-0.15-0.14-4.27-3.27a0.25 0.25 0 0 0-0.36 0l-4.28 3.26a2 2 0 0 0-0.19 0.2 h9.25z" fill="#FFF"/>
  <path d="M22.38 1.66h-0.92c-0.15 0-0.22 0-0.21-0.2 0.01 -0.2 0-0.6 0-0.9 0-0.14 0.05 -0.2 0.2 -0.2h1.89c0.15 0 0.22 0.05 0.21 0.21 -0.01 0.16 0 0.6 0 0.9 0 0.15-0.06 0.2 -0.2 0.19 h-1 0.03zM8.06 8.41H9c0.14 0 0.2 0 0.2 0.19 v0.92c0 0.13 0 0.19-0.18 0.19 H7.09c-0.12 0-0.16-0.05-0.16-0.16v-1c0-0.13 0.06 -0.15 0.17 -0.15l0.96 0.01 zM33.39 9.66h-0.95c-0.14 0-0.2 0-0.2-0.19v-0.9c0-0.14 0.05 -0.2 0.2 -0.2h1.89c0.14 0 0.2 0 0.2 0.2 v0.92c0 0.13 0 0.17-0.17 0.17 h-0.97zM32.85 19.74c0 0.44 0 0.44-0.45 0.44 s-0.32 0-0.32-0.32c0-0.56 0.06 -0.61 0.63 -0.52a0.22 0.22 0 0 1 0.13 0.14 c0.012 0.086 0.016 0.173 0.01 0.26 zM33.87 19.77c0 0.48 0.05 0.41-0.41 0.42 h-0.13c-0.18 0-0.26 0-0.24-0.24a4 4 0 0 0 0-0.4v-0.08c0-0.02 0.12 -0.19 0.23 -0.16 0.11 0.03 0.44 -0.15 0.54 0.14a1 1 0 0 1 0.01 0.32 zM32.85 18.61c0 0.48 0.06 0.44-0.42 0.44 s-0.35 0-0.35-0.38 0-0.5 0.49 -0.5c0.28 0 0.28 0 0.28 0.27 v0.17zM33.87 18.6c0 0.5 0.06 0.44-0.45 0.44 -0.32 0-0.32 0-0.32-0.33 0-0.55 0-0.54 0.5 -0.56 0.22 0 0.3 0.06 0.27 0.27 a1.13 1.13 0 0 0 0 0.18zM32.85 23.28c0 0.43 0 0.43-0.43 0.43 a0.47 0.47 0 0 1-0.19 0c-0.06 0-0.14-0.09-0.14-0.14v-0.56c0-0.18 0-0.17 0.16 -0.17h0.15c0.52-0.01 0.45 -0.05 0.45 0.44zM33.87 23.34c0 0.45 0.06 0.37-0.42 0.38 h-0.17c-0.13 0-0.19 0-0.19-0.18v-0.52-0.08c0.17-0.22 0.4 -0.07 0.6 -0.09 0 0 0.14 0.09 0.16 0.16 0.02 0.109 0.027 0.22 0.02 0.33 zM33.87 22.14c0 0.47 0.06 0.42-0.43 0.43 a0.47 0.47 0 0 1-0.19 0c-0.06 0-0.14-0.09-0.15-0.14a3.41 3.41 0 0 1 0-0.58 0.2 0.2 0 0 1 0.13-0.13h0.42c0.14 0 0.23 0.06 0.21 0.22 -0.02 0.16 0.01 0.13 0.01 0.2 zM32.85 22.13c0 0.48 0.06 0.44-0.43 0.44 s-0.33 0-0.34-0.41c-0.01-0.41 0-0.46 0.44 -0.46s0.33 0 0.33 0.33 v0.1zM38.23 23.3c0 0.41 0 0.41-0.4 0.41 s-0.37 0-0.38-0.39c-0.01-0.39-0.05-0.5 0.48 -0.5 0.3 0 0.3 0 0.3 0.3 v0.18zM37.22 23.29c0 0.43 0 0.43-0.43 0.43 h-0.17c-0.14 0-0.19 0-0.19-0.18v-0.52c0-0.17 0.06 -0.18 0.18 -0.18H37c0.19 0 0.28 0 0.25 0.25 a1.68 1.68 0 0 0-0.03 0.2 zM37.22 22.13c0 0.49 0.08 0.44-0.45 0.44 -0.34 0-0.34 0-0.34-0.35 0-0.52 0-0.52 0.46 -0.52s0.33 0 0.33 0.33 v0.1zM38.23 22.15c0 0.46 0.07 0.42-0.43 0.42 s-0.35 0-0.35-0.36c0-0.52 0-0.52 0.46 -0.52s0.32 0 0.33 0.33 c-0.01 0.05 -0.01 0.09 -0.01 0.13 zM37.22 18.61c0 0.48 0.07 0.43-0.44 0.43 -0.35 0-0.35 0-0.35-0.36 0-0.59-0.08-0.52 0.43 -0.52s0.35 0 0.35 0.36 c0.01 0.03 0.01 0.06 0.01 0.09 zM38.23 18.61c0 0.47 0.07 0.44-0.42 0.43 -0.49-0.01-0.37 0-0.36-0.39 0-0.57-0.07-0.48 0.47 -0.49 0.35 0 0.31 0 0.31 0.32 v0.13zM37.22 19.81c0 0.44 0.07 0.37-0.42 0.38 h-0.06c-0.3 0-0.3 0-0.3-0.3 0-0.64-0.09-0.55 0.55 -0.56 0.19 0 0.25 0.07 0.23 0.25 -0.02 0.18 0 0.11 0 0.23zM38.23 19.76c0 0.42 0 0.42-0.42 0.42 h-0.13c-0.19 0-0.25-0.05-0.24-0.24a4.17 4.17 0 0 0 0-0.44c0-0.14 0.05 -0.21 0.2 -0.2H38c0.19 0 0.28 0.05 0.25 0.25 a1.57 1.57 0 0 0-0.02 0.21 zM7.59 18.65c0-0.5-0.05-0.44 0.45 -0.45 0.32 0 0.32 0 0.32 0.32 a0.84 0.84 0 0 1 0 0.08c0 0.15 0 0.42-0.06 0.44 a1.89 1.89 0 0 1-0.62 0S7.6 19 7.59 19a2.6 2.6 0 0 1 0-0.35zM9.37 18.66c0 0.48 0.06 0.42-0.4 0.42 s-0.37 0.06 -0.37-0.39-0.07-0.49 0.48 -0.49c0.28 0 0.28 0 0.28 0.28 0.01 0.06 0.01 0.12 0.01 0.18 zM8.36 19.8c0 0.47 0.05 0.43-0.42 0.43 s-0.35 0-0.35-0.38 0-0.5 0.49 -0.5c0.28 0 0.28 0 0.28 0.28 v0.17zM9.37 19.79c0 0.49 0.06 0.44-0.44 0.44 -0.33 0-0.33 0-0.33-0.34 0-0.54 0-0.54 0.47 -0.55 0.3 0 0.3 0 0.3 0.3 v0.15zM4.24 19.77c0-0.42 0-0.42 0.42 -0.42s0.37 0 0.37 0.38 c0 0.56 0.06 0.51-0.5 0.5 -0.29 0-0.29 0-0.29-0.29v-0.17zM4.24 18.64c0-0.49-0.06-0.44 0.45 -0.44 0.34 0 0.34 0 0.33 0.34 0 0.54 0 0.54-0.47 0.55 -0.31 0-0.31 0-0.31-0.32v-0.13zM3.23 19.77c0-0.42 0-0.42 0.42 -0.42h0.15c0.17 0 0.23 0.06 0.22 0.22 -0.01 0.16 0 0.32 0 0.48 0 0.16-0.05 0.18 -0.18 0.18 h-0.16c-0.53-0.01-0.45 0.05 -0.45-0.46zM3.23 18.64c0-0.49-0.06-0.44 0.45 -0.44 0.33 0 0.33 0 0.33 0.32 C4 18.73 4 19 4 19a1.8 1.8 0 0 1-0.63 0h-0.14a2.26 2.26 0 0 1 0-0.36zM9.37 22.18c0 0.51 0.06 0.43-0.43 0.44 a0.45 0.45 0 0 1-0.19 0c-0.06 0-0.14-0.09-0.14-0.15v-0.57c0-0.19 0.06 -0.18 0.18 -0.17h0.13c0.52 0 0.44-0.06 0.45 0.45zM8.36 22.18c0 0.44 0 0.44-0.43 0.44 a0.47 0.47 0 0 1-0.19 0c-0.06 0-0.14-0.09-0.15-0.15-0.01-0.06 0-0.38 0-0.57 0-0.19 0.06 -0.18 0.18 -0.17h0.13c0.52 0 0.45-0.06 0.46 0.45zM8.36 23.3c0 0.49 0.07 0.45-0.44 0.45 -0.33 0-0.33 0-0.33-0.34 0-0.54 0-0.54 0.54 -0.54 0.17 0 0.25 0 0.23 0.22 a1.7 1.7 0 0 0 0 0.21zM9.37 23.34c0 0.45 0.06 0.41-0.42 0.41 a0.59 0.59 0 0 1-0.21 0c-0.06 0-0.13-0.09-0.14-0.14a3.37 3.37 0 0 1 0-0.58c0-0.05 0.09 -0.11 0.15 -0.14 0.06 -0.03 0.1 0 0.14 0 0.48-0.02 0.48 -0.02 0.48 0.45zM4 22.18c0 0.51 0.05 0.43-0.44 0.43 s-0.34 0-0.34-0.33c0-0.58 0-0.62 0.63 -0.53a0.24 0.24 0 0 1 0.14 0.16 c0.014 0.09 0.017 0.18 0.01 0.27 zM4.24 22.18c0-0.51-0.07-0.45 0.46 -0.46 0.33 0 0.33 0 0.33 0.33 0 0.58-0.08 0.64 -0.67 0.54 a0.19 0.19 0 0 1-0.11-0.13 1.56 1.56 0 0 1-0.01-0.28zM4.24 23.31c0-0.43 0-0.43 0.43 -0.43h0.17c0.13 0 0.2 0 0.19 0.18 -0.01 0.18 0 0.11 0 0.17 0 0.53-0.13 0.64 -0.67 0.52 a0.2 0.2 0 0 1-0.11-0.14 1.58 1.58 0 0 1-0.01-0.3zM3.23 23.31c0-0.43 0-0.43 0.43 -0.44h0.17c0.13 0 0.19 0 0.19 0.18 v0.5c0 0.16 0 0.2-0.18 0.19 h-0.18c-0.5 0.01 -0.43 0.06 -0.43-0.43zM14.17 12.63h13.27v2.26H14.17z" fill="#FFF"/>
</svg>
