<?xml version="1.0" ?>
<svg xmlns="http://www.w3.org/2000/svg" width="44" height="30" viewBox="0 0 44 30">
  <path d="M14.95 21.43h-0.26c-1 0.08-2.06 0.13 -3.09 0.25 -0.79 0.09 -1.57 0.27 -2.34 0.43 a1.25 1.25 0 0 0-0.87 0.74 8 8 0 0 0-0.53 1.45 10.71 10.71 0 0 0-0.2 2.7c0 0.17 0 0.27 0.22 0.3 0.22 0.03 0.59 0.1 0.89 0.12 0.3 0.02 0.57 0 0.86 0 0.29 0 0.27-0.06 0.28 -0.26 0.004 -0.465 0.034 -0.929 0.09 -1.39a3.49 3.49 0 0 1 2.08-2.65 3.9 3.9 0 0 1 4.23 0.37 3.53 3.53 0 0 1 1.39 2.8v1c0 0.31 0.06 0.26 0.26 0.26h15.82c0.37 0 0.36 0 0.4-0.38a9.29 9.29 0 0 1 0.18-1.51 3.63 3.63 0 0 1 2.47-2.62 3.84 3.84 0 0 1 5.07 3.56v0.84c0 0.12 0 0.17 0.17 0.15 0.36 0 0.73-0.09 1.09-0.12a0.24 0.24 0 0 0 0.25-0.23c0-0.31 0.09 -0.61 0.11 -0.92a11.12 11.12 0 0 0-0.26-3.32c-0.18-0.71-0.4-1.42-0.62-2.12A1.39 1.39 0 0 0 42 20a50.92 50.92 0 0 0-4.87-2.47 18 18 0 0 0-2.13-0.77 9.46 9.46 0 0 0-1.71-0.31 55.71 55.71 0 0 0-6.93-0.28 11 11 0 0 0-4.41 0.92 l-5.75 2.58c-0.38 0.17 -0.38 0.18 -0.57-0.19-0.953-1.9-1.91-3.803-2.87-5.71a0.81 0.81 0 0 0-0.79-0.55 0.75 0.75 0 0 0-0.61 1.13l2 3.94 1.47 2.92c0.06 0.06 0.08 0.12 0.12 0.22 zm6.86-0.25h-0.69l-3.81 0.15 a1.41 1.41 0 0 1-0.32 0c-0.27-0.05-0.34-0.23-0.14-0.42a3.13 3.13 0 0 1 0.56-0.44A22.2 22.2 0 0 1 24 17.66a11.35 11.35 0 0 1 2.48-0.28c0.17 0 0.25 0 0.25 0.23 v3.17c0 0.15-0.05 0.21 -0.21 0.22 l-4.71 0.18 zm13-0.7h-0.28l-2.69 0.17 -3.76 0.24 c-0.2 0-0.28-0.05-0.28-0.26v-3c0-0.3 0-0.31 0.3 -0.3a33.94 33.94 0 0 1 3.91 0.25 2.24 2.24 0 0 1 1.48 0.71 c0.51 0.614 0.946 1.285 1.3 2a0.76 0.76 0 0 1 0.04 0.19 h-0.02z" fill="#FFF"/>
  <path d="M1.75 8c0.15 0.18 0.26 0.35 0.4 0.5 A2.46 2.46 0 0 0 4 9.3a0.43 0.43 0 0 1 0.39 0.19 2.11 2.11 0 0 0 3.24 0.18 0.51 0.51 0 0 0 0-0.69 0.51 0.51 0 0 0-0.69 0 2.32 2.32 0 0 1-0.52 0.33 1.08 1.08 0 0 1-1.26-0.4 1.14 1.14 0 0 1 0-1.31c0.06-0.072 0.113 -0.15 0.16 -0.23a0.49 0.49 0 0 0-0.81-0.54A2.12 2.12 0 0 0 4 8.08c0 0.27 0 0.28-0.29 0.2 a1.62 1.62 0 0 1-0.18-3.09 2.23 2.23 0 0 1 0.57-0.12c0.34 0 0.52-0.22 0.51 -0.54A0.5 0.5 0 0 0 4 4a2.54 2.54 0 0 0-2.17 1.3 7.79 7.79 0 0 0-0.45 1.2 1.25 1.25 0 0 1-0.1-0.19A4 4 0 0 1 3.79 1.2c0.395-0.11 0.8 -0.176 1.21-0.2 0.44 0 0.67-0.43 0.44 -0.77A0.53 0.53 0 0 0 5 0 4.85 4.85 0 0 0 0.87 2.32a4.81 4.81 0 0 0-0.21 5 0.33 0.33 0 0 1 0 0.4 3.15 3.15 0 0 0 0.8 4.5 0.39 0.39 0 0 1 0.2 0.49 2.35 2.35 0 0 0 1.06 2.52c0.16 0.1 0.34 0.15 0.5 0.24 0.16 0.09 0.19 0.14 0.21 0.23 A3.53 3.53 0 0 0 4.71 18a0.51 0.51 0 0 1 0.13 0.21 3.81 3.81 0 0 0 2.09 2.14A8.35 8.35 0 0 0 11 21a1 1 0 0 0 0.82-1.53A0.85 0.85 0 0 0 11 19a1.78 1.78 0 0 1-1-0.26 1.41 1.41 0 0 1-0.66-0.84 0.47 0.47 0 0 1 0.09-0.48 3.39 3.39 0 0 0 0.11-4.27 0.19 0.19 0 0 1 0-0.31 3.34 3.34 0 0 0 0.8-1.13 0.27 0.27 0 0 1 0.3-0.17 2.45 2.45 0 0 0 2.54-2.93 0.5 0.5 0 0 1 0.16-0.53A3.38 3.38 0 0 0 14.41 6a0.5 0.5 0 0 1 0.28-0.41 2.11 2.11 0 0 0 0.61-3.09 0.52 0.52 0 0 0-0.57-0.25 0.49 0.49 0 0 0-0.25 0.8 1.1 1.1 0 0 1 0.09 1.27 1.12 1.12 0 0 1-1.75 0.26 l-0.15-0.15a0.48 0.48 0 0 0-0.66 0 0.49 0.49 0 0 0-0.05 0.66 2 2 0 0 0 1.24 0.75 c0.23 0 0.25 0.07 0.2 0.29 a2.62 2.62 0 0 1-1.1 1.56c-0.31 0.22 -0.35 0.41 -0.2 0.76 a1.43 1.43 0 0 1-0.22 1.61 1.41 1.41 0 0 1-1.54 0.45 c-0.42-0.12-0.64 0-0.76 0.42 a2.61 2.61 0 0 1-1.16 1.55 0.5 0.5 0 0 0-0.08 0.88 2.42 2.42 0 0 1 0.86 2.15 2.15 2.15 0 0 1-0.65 1.39 1 1 0 0 0-0.27 0.92 c0.14 0.949 0.82 1.73 1.74 2 0.082 0.036 0.162 0.076 0.24 0.12 a0.73 0.73 0 0 1-0.16 0 7.39 7.39 0 0 1-2.89-0.66 2.81 2.81 0 0 1-1.53-1.76 0.64 0.64 0 0 0-0.23-0.32 2.45 2.45 0 0 1-1.1-2.1 0.51 0.51 0 0 0-0.54-0.57 1.42 1.42 0 0 1-1.11-1.98 1.12 1.12 0 0 0 0.13-0.33 0.44 0.44 0 0 0-0.34-0.53 2.19 2.19 0 0 1-0.9-3.59l0.16-0.1zM35.32 26.69a2.74 2.74 0 1 0 5.48-0.041 2.74 2.74 0 0 0-5.48 0.041 zM11.1 26.68a2.74 2.74 0 1 0 2.72-2.75 2.73 2.73 0 0 0-2.72 2.75z" fill="#FFF"/>
</svg>
