<?xml version="1.0" ?>
<svg xmlns="http://www.w3.org/2000/svg" width="36" height="36" viewBox="0 0 36 36">
  <path d="M3 17.92a5.47 5.47 0 0 1 0.07-0.74 7.94 7.94 0 0 1 0.26-1.07 4.82 4.82 0 0 1 1.11-1.91 6.11 6.11 0 0 1 2-1.39c0.43-0.21 0.83 -0.46 1.27-0.64a1.8 1.8 0 0 1 0.77-0.1c0.31 0.006 0.618 0.043 0.92 0.11 0.35 0.06 0.69 0.15 1 0.23 0.31 0.08 0.84 0.21 1.26 0.33 0.42 0.12 0.88 0.27 1.32 0.39 l1.36 0.38 1.06 0.3 c0.24 0.06 0.48 0.13 0.73 0.18 0.46 0.09 0.91 0.19 1.38 0.25 0.495 0.1 1.005 0.1 1.5 0 0.36-0.1 0.71 -0.37 0.59 -0.84a1.34 1.34 0 0 0-0.33-0.56 5.39 5.39 0 0 0-1.39-1 14.25 14.25 0 0 0-2.16-0.94c-0.5-0.18-1-0.31-1.54-0.45-0.37-0.1-0.75-0.19-1.13-0.27-0.15 0-0.31 0-0.47-0.06a7.08 7.08 0 0 0-2.25 0 4.34 4.34 0 0 0-0.8 0.3 l-0.14 0.06 c0-0.29 0.05 -0.55 0.1 -0.81a3.48 3.48 0 0 1 0.2-0.67 5.51 5.51 0 0 1 0.45-0.87A3.53 3.53 0 0 1 12 6.76c0.51-0.17 1-0.29 1.54-0.43s1.06-0.27 1.58-0.42a1.16 1.16 0 0 0 0.35-0.21 0.94 0.94 0 0 1 0.8-0.11c0.29 0 0.58 0.12 0.87 0.19 L18 6l0.87 0.26 1 0.31 1.1 0.32 0.89 0.25 c0.26 0.06 0.51 0.13 0.77 0.17 0.392 0.088 0.79 0.152 1.19 0.19 h1a1.2 1.2 0 0 0 0.63-0.22 0.54 0.54 0 0 0 0.16-0.71 2.21 2.21 0 0 0-0.82-0.76 8.66 8.66 0 0 0-1.82-0.86c-0.56-0.19-1.12-0.39-1.69-0.55a8.67 8.67 0 0 0-1.15-0.23c-0.46-0.1-1-0.17-1.54-0.17a10 10 0 0 0-1.2 0.09 c0.18-0.26 0.35 -0.54 0.55 -0.8a4.64 4.64 0 0 1 1.2-1.14 3.38 3.38 0 0 1 1.62-0.58c0.57 0 1.14 0 1.71-0.09a3.09 3.09 0 0 0 0.77-0.23c0.36-0.13 0.76 -0.25 1.08-0.4l1.31-0.41 0.63 -0.14a10.78 10.78 0 0 1 1.11-0.2C28 0 28.54 0 29.12 0a6.89 6.89 0 0 1 1.21 0.1 c0.404 0.07 0.801 0.17 1.19 0.3 a6.09 6.09 0 0 1 2 1 7.72 7.72 0 0 1 1.11 1.1 2.76 2.76 0 0 1 0.55 2 6.61 6.61 0 0 1-0.54 2.14A16.48 16.48 0 0 1 33 9.56c-0.53 0.77 -1.07 1.54-1.65 2.27-0.75 1-1.53 1.9-2.33 2.82-0.8 0.92 -1.63 1.84-2.47 2.74-0.84 0.9 -1.65 1.77-2.55 2.61l-3 3.1c-0.75 0.75 -1.5 1.49-2.26 2.22-0.76 0.73 -1.51 1.43-2.28 2.13-1 0.89-2 1.78-3 2.63-1 0.85-1.91 1.52-2.89 2.25a18.84 18.84 0 0 1-2.74 1.72c-0.593 0.297 -1.2 0.564 -1.82 0.8 a5.05 5.05 0 0 1-2 0.3 3 3 0 0 1-2-1 6.55 6.55 0 0 1-1.11-1.6 9.87 9.87 0 0 1-0.51-1.41 11.9 11.9 0 0 1-0.23-1.19 9.08 9.08 0 0 1-0.07-2.33c0-0.38 0-0.77 0.09 -1.15 0.09 -0.38 0.12 -0.67 0.19 -1 0.07-0.33 0.13 -0.66 0.21 -1 0.08-0.34 0.15 -0.62 0.24 -0.92 0.09 -0.3 0.25 -0.77 0.39 -1.14 0.14 -0.37 0.39 -1 0.61-1.53 0.22 -0.53 0.4 -0.8 0.62 -1.19a0.28 0.28 0 0 1 0.23-0.13c0.33 0 0.67 0 1 0.08l1.23 0.2 1.44 0.26 0.47 0.07 c0.73 0.1 1.46 0.2 2.19 0.28 0.491 0.055 0.986 0.075 1.48 0.06 a2.5 2.5 0 0 0 1.36-0.33 0.42 0.42 0 0 0 0.13-0.57 2.51 2.51 0 0 0-0.64-0.7 7.79 7.79 0 0 0-2.16-1.12c-0.49-0.17-1-0.3-1.49-0.44a7 7 0 0 0-2.5-0.18 4.1 4.1 0 0 0-1.92 0.64 l-0.26 0.11 z" fill="#FFF"/>
</svg>
