<?xml version="1.0" ?>
<svg xmlns="http://www.w3.org/2000/svg" width="24" height="36" viewBox="0 0 24 36">
  <path d="M7.92 30.36l1.49 0.1 c0.14 0 0.21-0.07 0.22 -0.22 0-0.49 0.06 -1 0.11-1.49s0.17-1.24 0.26 -1.86c0.05-0.3 0.14 -0.6 0.19 -0.9 0.09 -0.57 0.51 -0.78 1-0.94a5.51 5.51 0 0 1 2.17-0.29 3.2 3.2 0 0 1 0.7 0.11 0.59 0.59 0 0 1 0.28 0.3 c0.7 1.4 1.35 2.83 2.12 4.19a31 31 0 0 0 1.84 2.73c0.7 1 1.42 2 2.13 3 0.09 0.13 0.15 0.15 0.27 0.06 l1.37-0.95-0.8-1.48c-0.81-1.53-1.64-3.06-2.41-4.62a8 8 0 0 1-0.51-1.68c-0.15-0.57-0.25-1.14-0.36-1.72-0.11-0.58-0.15-1-0.22-1.45-0.07-0.45-0.17-1.19-0.26-1.79 0-0.27-0.07-0.55-0.1-0.82-0.07-0.71-0.14-1.42-0.22-2.13-0.08-0.71-0.19-1.51-0.27-2.23-0.08-0.72-0.1-1.32-0.15-2h0.07l0.16 0.18 c1.62 1.82 3.237 3.647 4.85 5.48 0.13 0.15 0.22 0.18 0.39 0.07 0.36 -0.22 0.74 -0.41 1.14-0.63-0.2-0.33-0.38-0.66-0.58-1-1.4-2.16-2.77-4.33-4.2-6.46-0.78-1.17-1.64-2.28-2.47-3.41a3.54 3.54 0 0 0-1.74-1.15 5.4 5.4 0 0 0-2.32-0.28 2.42 2.42 0 0 0-2.2 1.45 5.24 5.24 0 0 0-0.22 0.8 11.34 11.34 0 0 0-0.2 2.79 0.89 0.89 0 0 0 0 0.29c0.09 0.22 0 0.35-0.17 0.47 l-4.21 3.39c-0.19 0.15 -0.37 0.31 -0.57 0.45 a0.25 0.25 0 0 0-0.08 0.35 c0.14 0.35 0.3 0.69 0.45 1 0 0.09 0.07 0.14 0.21 0.08L8 17l1.87-0.78c0.14-0.06 0.19 0 0.2 0.14 0.07 0.52 0.14 1 0.22 1.55 0.11 0.7 0.23 1.4 0.35 2.1 0.07 0.4 0.14 0.8 0.19 1.2a0.42 0.42 0 0 1-0.17 0.27 c-0.51 0.31 -1 0.6-1.53 0.92 -0.53 0.32 -0.87 0.57 -1.29 0.86 a0.64 0.64 0 0 0-0.25 0.54 c0 1.48 0.08 3 0.14 4.45 0.05 0.69 0.13 1.4 0.19 2.11z" fill="#FFF"/>
  <path d="M6 31.39H0.83c-0.33 0-0.32 0-0.36 0.35 -0.08 0.61 -0.17 1.26-0.26 1.83 0 0.32-0.07 0.63 -0.12 0.94 -0.05 0.31 0 0.4-0.08 0.59 -0.08 0.19 0 0.24 0.19 0.24h2.27c0.12 0 0.18 0 0.21-0.16a1.38 1.38 0 0 1 0.86-1c0.204-0.08 0.421 -0.12 0.64 -0.12h3.58a1.4 1.4 0 0 1 1.34 0.72 0.89 0.89 0 0 1 0.14 0.32 c0 0.2 0.14 0.23 0.3 0.23h2.17c0.17 0 0.24-0.06 0.22 -0.24-0.09-0.59-0.17-1.18-0.26-1.77 0-0.29-0.08-0.59-0.11-0.89-0.03-0.3-0.07-0.58-0.11-0.87 0-0.06-0.09-0.12-0.15-0.15a0.87 0.87 0 0 0-0.23 0L6 31.39zM11.66 0a2.91 2.91 0 0 0-2.9 2.93 3 3 0 0 0 2.92 2.85 2.9 2.9 0 0 0 2.89-2.88A2.85 2.85 0 0 0 11.66 0z" fill="#FFF"/>
</svg>
