<?xml version="1.0" ?>
<svg xmlns="http://www.w3.org/2000/svg" width="35" height="30" viewBox="0 0 35 30">
  <path d="M1.53 12.69a3.36 3.36 0 0 0 1.66 0.12 3.14 3.14 0 0 0 1.72-1 3.28 3.28 0 0 0 0.7-1.16c0-0.06 0.15 -0.11 0.23 -0.11h3.21a0.25 0.25 0 0 1 0.27 0.19 3.19 3.19 0 0 0 1.52 1.73 3.09 3.09 0 0 0 2.4 0.21 3.06 3.06 0 0 0 2-1.91 0.28 0.28 0 0 1 0.3-0.22h3.58c0.16 0 0.21 0.1 0.25 0.21 A3.14 3.14 0 0 0 21 12.53a3 3 0 0 0 1.37 0.33 3.1 3.1 0 0 0 2.91-1.76 1.28 1.28 0 0 0 0.14-0.29c0-0.19 0.14 -0.22 0.3 -0.22h3.09c0.29 0 0.3 0 0.4 0.26 a3.05 3.05 0 0 0 1.28 1.53 2.94 2.94 0 0 0 2 0.45l0.7-0.11a1.18 1.18 0 0 1 0 0.22v12.79a0.68 0.68 0 0 1-0.41 0.71 1 1 0 0 1-0.38 0.08 H2.36a0.77 0.77 0 0 1-0.8-0.47 0.78 0.78 0 0 1 0-0.31V12.93a1.94 1.94 0 0 1-0.03-0.24zM21 21.48v-3.84a2.37 2.37 0 0 0-0.16-0.84 2.23 2.23 0 0 0-2-1.42h-3.06a1.75 1.75 0 0 0-0.6 0.09 2.27 2.27 0 0 0-1.5 2.11v8c0 0.17 0 0.22 0.22 0.22h6.88c0.24 0 0.24 0 0.24-0.23L21 21.48zM17.35 27.53h15.24a0.71 0.71 0 0 1 0.75 0.7 c0.02 0.356 0.02 0.714 0 1.07a0.72 0.72 0 0 1-0.71 0.57 H2.17a0.76 0.76 0 0 1-0.76-0.45 0.61 0.61 0 0 1 0-0.27v-0.86a0.72 0.72 0 0 1 0.77-0.75h15.17v-0.01zM34.78 8.67h-4.99a0.31 0.31 0 0 1-0.32-0.23c-0.26-0.67-0.54-1.34-0.8-2-0.21-0.51-0.41-1-0.62-1.54l-0.81-2-0.24-0.6c-0.047-0.12 0.003 -0.18 0.15 -0.18h3.74a0.24 0.24 0 0 1 0.25 0.14 l1.74 3c0.56 1 1.11 2 1.66 3 0.07 0.11 0.14 0.25 0.24 0.41 zM0.06 8.67l0.56-1 1.25-2.2L3.06 3.4c0.22-0.39 0.43 -0.77 0.66 -1.15a0.32 0.32 0 0 1 0.21-0.13h3.79c0.15 0 0.18 0 0.12 0.19 -0.24 0.6 -0.48 1.21-0.73 1.81-0.25 0.6 -0.59 1.43-0.88 2.15-0.29 0.72 -0.52 1.29-0.77 1.94a0.35 0.35 0 0 0-0.06 0.14 c0 0.33-0.26 0.34 -0.53 0.34 H0.26l-0.2-0.02zM22.47 8.69h-2.33c-0.25 0-0.24 0-0.27-0.26-0.05-0.55-0.12-1.1-0.19-1.65 0-0.25-0.06-0.49-0.08-0.74-0.07-0.55-0.12-1.1-0.18-1.65l-0.21-1.54c0-0.2 0-0.4-0.05-0.6 0 0 0.06-0.1 0.1 -0.12 0.05 -0.01 0.1 -0.01 0.15 0H23c0.13 0 0.21 0 0.24 0.16 0.09 0.3 0.18 0.6 0.26 0.89 l0.26 1 0.27 1 0.37 1.24c0.11 0.38 0.2 0.76 0.31 1.14 0.11 0.38 0.18 0.65 0.28 1 0.1 0.35 0.06 0.27 -0.18 0.27 l-2.34-0.14zM9.78 8.66L10.27 7l0.39-1.45c0.12-0.4 0.24 -0.79 0.35 -1.19 0.11 -0.4 0.22 -0.79 0.33 -1.18 0.11 -0.39 0.17 -0.59 0.25 -0.88a0.21 0.21 0 0 1 0.24-0.16h3.65c0.17 0 0.2 0 0.19 0.21 -0.09 0.78 -0.17 1.56-0.26 2.34-0.09 0.78 -0.16 1.27-0.23 1.9-0.07 0.63 -0.18 1.25-0.18 1.88 0 0.16-0.07 0.22 -0.24 0.22 H10l-0.22-0.03zM3.26 1V0.11c0-0.11 0.07 -0.11 0.15 -0.11h27.82c0.22 0 0.23 0 0.23 0.23 v0.56c0 0.19-0.05 0.19 -0.2 0.19 h-28V1z" fill="#FFF"/>
  <path d="M22.39 9.66h2.4c0.2 0 0.24 0 0.21 0.22 A2.61 2.61 0 0 1 20.13 11a2.22 2.22 0 0 1-0.33-1.13c0-0.14 0-0.19 0.18 -0.19l2.41-0.02zM12.3 9.66h2.4c0.21 0 0.22 0 0.21 0.22 a2.52 2.52 0 0 1-1.12 1.94 2.38 2.38 0 0 1-1.7 0.46 2.53 2.53 0 0 1-2.19-1.64 6.86 6.86 0 0 1-0.2-0.78c0-0.15 0-0.2 0.19 -0.2h2.41zM2.6 9.66H5c0.21 0 0.22 0 0.2 0.24 a2.55 2.55 0 0 1-0.72 1.59 2.5 2.5 0 0 1-1.06 0.66 2.48 2.48 0 0 1-0.93 0.14 A2.62 2.62 0 0 1 0.33 11 2.17 2.17 0 0 1 0 9.89c0-0.22 0-0.23 0.21 -0.23H2.6zM32.12 9.66h2.38c0.21 0 0.22 0 0.21 0.22 a2.61 2.61 0 0 1-3.37 2.28 2.58 2.58 0 0 1-1.61-1.45 4.22 4.22 0 0 1-0.2-0.9c0-0.13 0.07 -0.15 0.18 -0.15h2.41z" fill="#FFF"/>
  <path d="M31.82 19.16a4.43 4.43 0 1 1-4.43-4.44 4.42 4.42 0 0 1 4.43 4.44zm-3.68-0.83v-0.47l-0.14-0.62a0.26 0.26 0 0 0-0.17-0.25c-0.11 0-0.22-0.08-0.33-0.12l-0.64-0.26-0.59-0.23a0.27 0.27 0 0 0-0.26 0c-0.2 0.14 -0.41 0.26 -0.61 0.41 a5.45 5.45 0 0 0-0.46 0.38 0.29 0.29 0 0 0-0.11 0.26 v0.38a1.94 1.94 0 0 0 0 0.24v0.96a0.27 0.27 0 0 0 0.14 0.24 l0.4 0.18 0.72 0.29 c0.06 0 0.12 0.05 0.19 0l0.69-0.47 0.93 -0.62a0.18 0.18 0 0 0 0.08-0.15l0.16-0.15zm1.67 2.86l-0.06-0.36c0-0.18-0.05-0.35-0.07-0.53l-0.06-0.46a0.77 0.77 0 0 1 0-0.15c0-0.11 0-0.22-0.05-0.33a0.11 0.11 0 0 0-0.05-0.08l-0.26-0.11-0.78-0.29a0.23 0.23 0 0 0-0.14 0l-0.15 0.06 -1.11 0.66 -0.45 0.29 a0.08 0.08 0 0 0 0 0.08 0.4 0.4 0 0 1 0 0.15v1.31l0.39 0.17 0.62 0.27 0.58 0.26 a0.23 0.23 0 0 0 0.2 0 1.17 1.17 0 0 0 0.38-0.13l0.48-0.35 0.48 -0.36a0.1 0.1 0 0 0 0.05-0.1zm1.63-2a5 5 0 0 0-0.06-0.72s0-0.1-0.08-0.13l-0.64-0.22a0.05 0.05 0 0 0-0.08 0l-0.32 0.55 -0.36 0.58 a0.36 0.36 0 0 0 0 0.25v0.31l0.06 0.6 0.04 0.59 c0 0.06 0 0.13 0.08 0.16h0.15l0.44 0.16 a0.06 0.06 0 0 0 0.09 0 3.81 3.81 0 0 0 0.48-1c0.071-0.2 0.118 -0.408 0.14 -0.62 0.04 -0.16 0.05 -0.35 0.06 -0.48v-0.03zm-5.1-3.67v0.44a0.13 0.13 0 0 0 0.08 0.13 l0.28 0.12 0.58 0.25 0.55 0.28 a0.33 0.33 0 0 0 0.24 0l0.21-0.08 0.36 -0.11 0.36 -0.05h0.16a0.07 0.07 0 0 0 0.05-0.07 2.45 2.45 0 0 1 0-0.27v-0.53a2.49 2.49 0 0 0-0.33-0.16 2.53 2.53 0 0 0-0.36-0.12l-0.33-0.09-0.19-0.09h-0.39a1.42 1.42 0 0 0-0.46 0l-0.49 0.07 a1.55 1.55 0 0 0-0.23 0.06 0.05 0.05 0 0 0 0 0.05l-0.09 0.17 zm-1.69 1.82v-0.06-0.06l-0.58-0.22a0.07 0.07 0 0 0-0.09 0 3.6 3.6 0 0 0-0.29 0.55 l-0.15 0.43 c0 0.12-0.05 0.24 -0.08 0.36 s-0.05 0.28 -0.06 0.43 a3.63 3.63 0 0 0 0.05 1.09c0 0.14 0.06 0.27 0.09 0.4s0.05 0.11 0.12 0.1 l0.44-0.08h0.1c0.01 0 0.05-0.15 0.08 -0.22a1.13 1.13 0 0 1 0.19-0.38 3.21 3.21 0 0 0 0.21-0.3 0.38 0.38 0 0 0 0.08-0.27v-0.39-0.89a0.66 0.66 0 0 1 0-0.14l-0.11-0.35zm2.7 5.83a6.15 6.15 0 0 0 0.74-0.06l0.31-0.08a0.76 0.76 0 0 0 0-0.15v-0.37a0.08 0.08 0 0 0 0-0.07l-0.4-0.2c-0.2-0.1-0.41-0.18-0.62-0.27l-0.57-0.25h-0.17a0.56 0.56 0 0 0-0.12 0 3 3 0 0 1-0.84 0.24 l-0.29 0.06 h-0.06c0.005 0.07 0.005 0.14 0 0.21 0 0.08 0 0.16-0.05 0.25 s0 0 0 0.05c0.218 0.188 0.46 0.346 0.72 0.47 l0.32 0.1 0.24 0.05 c0.082 0.026 0.165 0.046 0.25 0.06 0.19-0.02 0.38 -0.02 0.54 -0.01v-0.03zm3.93-5.06v-0.08a2.5 2.5 0 0 0-0.07-0.26c-0.1-0.2-0.19-0.41-0.3-0.6a3.6 3.6 0 0 0-1.22-1.35l-0.12-0.08v0.2c0.01 0.123 0.01 0.247 0 0.37a0.14 0.14 0 0 0 0.06 0.15 c0.213 0.183 0.408 0.388 0.58 0.61 0.148 0.202 0.272 0.42 0.37 0.65 a0.33 0.33 0 0 0 0.22 0.21 l0.36 0.12 0.12 0.06 zM24 20.62l-0.3 0.07 a0.36 0.36 0 0 0 0 0.11c0.107 0.23 0.234 0.452 0.38 0.66 0.198 0.278 0.43 0.53 0.69 0.75 l0.23 0.18 a0.94 0.94 0 0 1 0-0.16 2.1 2.1 0 0 1 0.06-0.24 0.08 0.08 0 0 0 0-0.11 2.8 2.8 0 0 1-0.56-0.58c-0.12-0.17-0.21-0.36-0.32-0.54-0.11-0.18-0.04-0.16-0.18-0.14z" fill="#224099"/>
</svg>
