<?xml version="1.0" ?>
<svg xmlns="http://www.w3.org/2000/svg" width="31" height="36" viewBox="0 0 31 36">
  <path d="M8.63 35.67h-5a2.18 2.18 0 0 1-1.14-0.24 2 2 0 0 1-1-1.61c-0.08-0.88-0.17-1.77-0.26-2.65 0-0.38-0.07-0.75-0.1-1.13-0.05-0.87-0.13-1.74-0.2-2.61C0.82 26.25 0.7 25.08 0.59 23.9c0-0.5-0.08-1-0.12-1.5-0.08-0.86-0.17-1.73-0.25-2.59 0-0.36-0.08-0.72-0.11-1.08 0-0.55-0.1-1.1-0.11-1.65a1.76 1.76 0 0 1 1.45-1.68 5.62 5.62 0 0 1 0.92-0.07h3.17c0.42 0 0.42 0 0.42-0.41v-0.47c0-0.32 0-0.35 0.33 -0.35H11c0.22 0 0.31 0.08 0.3 0.29 -0.01 0.21 0 0.43 0 0.64 0 0.21 0.09 0.31 0.3 0.3h3.73a1.94 1.94 0 0 1 1.69 0.9 c0.248 0.444 0.33 0.961 0.23 1.46 0 0.47-0.11 0.94 -0.15 1.41-0.08 0.86 -0.14 1.73-0.21 2.59-0.07 0.86 -0.17 1.67-0.25 2.51-0.05 0.47 -0.08 0.94 -0.12 1.41-0.09 0.91 -0.18 1.82-0.26 2.73 0 0.38-0.08 0.75 -0.11 1.13l-0.21 2.63c-0.06 0.64 -0.09 1.28-0.2 1.9a1.91 1.91 0 0 1-2 1.67H8.63zM26.94 9.35l1.24-4.57h0.07c-0.11 0.44 -0.21 0.89 -0.32 1.33l-0.63 2.37-0.6 2.25a2.6 2.6 0 0 0-0.07 0.56 v10.88c0 0.39 0 0.4 0.4 0.4h2.22a1.32 1.32 0 0 1 1.31 1c0.05 0.278 0.05 0.562 0 0.84 0 0.48-0.11 0.95 -0.15 1.43-0.08 0.85 -0.14 1.71-0.22 2.56-0.08 0.85 -0.17 1.7-0.25 2.54 0 0.38-0.07 0.75 -0.1 1.13l-0.21 2.33a1.43 1.43 0 0 1-1.15 1.24 3.92 3.92 0 0 1-0.59 0.05 h-4.41a1.5 1.5 0 0 1-1.27-0.51 1.54 1.54 0 0 1-0.36-0.88c-0.07-0.86-0.17-1.72-0.25-2.58 0-0.37-0.07-0.74-0.1-1.1-0.07-0.88-0.14-1.76-0.22-2.64-0.11-1.18-0.23-2.37-0.35-3.55a1.46 1.46 0 0 1 0.47-1.49 1.5 1.5 0 0 1 0.76-0.32c0.79-0.05 1.58 0 2.37 0 0.35 0 0.38 0 0.38-0.37V10.91a5 5 0 0 0-0.32-1.41c-0.29-1-0.61-2-0.91-3-0.14-0.44-0.26-0.88-0.39-1.33h0.09l1.33 4.3h0.08c0.01-0.1 0.01 -0.2 0-0.3l-0.54-2.29c-0.14-0.61-0.29-1.21-0.43-1.81 0-0.11 0-0.23-0.05-0.34h0.06L25 9.34h0.11l-0.91-5.23h0.07l0.94 5.07h0.1c-0.17-1.82-0.47-3.61-0.63-5.43h0.06L25.41 9h0.08a24.3 24.3 0 0 0-0.16-2.7l-0.23-2.79h0.07L25.52 8h0.11c0.06-1.45 0-2.9-0.06-4.35h0.12V5h0.12V3.41h0.1v5.52H26c0.06-0.192 0.1 -0.39 0.12 -0.59 0-1.08 0.08 -2.15 0.13 -3.22 0.019 -0.516 0.072 -1.03 0.16 -1.54 0 0.66-0.05 1.33-0.08 2v0.16c0 1-0.07 2-0.11 2.95a3.16 3.16 0 0 0 0 0.32h0.06l0.53-5.25c0.01 0.19 0.01 0.38 0 0.57-0.08 0.82 -0.17 1.63-0.25 2.44 0 0.42-0.08 0.83 -0.12 1.25 0 0.24-0.06 0.48 -0.07 0.72 -0.01 0.24 0 0.24 0 0.36h0.1l0.78-5.08c0.01 0.167 0.01 0.333 0 0.5-0.08 0.85 -0.25 1.68-0.33 2.48-0.08 0.52 -0.18 1-0.25 1.56a2.44 2.44 0 0 0 0 0.47h0.08l1-4.72h0.08l-1 5 0.11 0.04 zM8.63 13.25H5.42a1.65 1.65 0 0 1-1.18-0.4 1.56 1.56 0 0 1-0.44-1.49c0.05-0.48 0.12 -1 0.16-1.43 0.08 -0.88 0.13 -1.76 0.21 -2.64 0.08 -0.88 0.17 -1.66 0.25 -2.49 0-0.46 0.08 -0.92 0.12 -1.39 0.06 -0.73 0.11 -1.46 0.2 -2.18A1.45 1.45 0 0 1 6.19 0h4.9a1.49 1.49 0 0 1 1.47 1.46c0 0.85 0.16 1.69 0.25 2.54l0.09 1.1c0.08 0.89 0.14 1.77 0.22 2.66 0.11 1.18 0.22 2.37 0.35 3.55a1.59 1.59 0 0 1-0.53 1.61c-0.316 0.228 -0.7 0.34 -1.09 0.32 l-3.22 0.01 zM5.54 9.72c0 0.28 0.08 0.43 0.25 0.45 0.17 0.02 0.32 -0.13 0.35 -0.35 0.07 -0.55 0.13 -1.09 0.19 -1.64 0.06 -0.55 0.14 -1.33 0.22 -2 0.11-0.9 0.23 -1.79 0.35 -2.69 0-0.29 0.07 -0.58 0.09 -0.87 0.02 -0.29-0.06-0.32-0.27-0.33-0.21-0.01-0.3 0.11 -0.32 0.29 -0.067 0.48 -0.127 0.953 -0.18 1.42-0.11 0.93 -0.21 1.86-0.31 2.79 0 0.32-0.09 0.63 -0.13 1l-0.24 1.93z" fill="#FFF"/>
</svg>
