<?xml version="1.0" ?>
<svg xmlns="http://www.w3.org/2000/svg" width="44" height="35" viewBox="0 0 44 35">
  <path d="M25.8 2.86h-1c-0.29 0-0.29 0-0.29 0.28 v13.75c0 0.18 0.05 0.24 0.24 0.27 0.51 0.06 1 0.15 1.52 0.22 l0.64 0.1 2.07 0.28 2 0.31 1.48 0.2 1.48 0.23 1.33 0.18 c0.54 0.08 1.07 0.17 1.61 0.24 0.54 0.07 1 0.14 1.54 0.21 l2 0.29 1.58 0.22 1.43 0.23 c0.11-0.005 0.22 -0.005 0.33 0 0 0 0.13 0.08 0.13 0.13 v1.3h-0.33l-1.08-0.15c-0.19 0-0.24 0-0.24 0.22 v11.46c0 0.13 0 0.17 0.17 0.17h1.46v2H0v-2h1.61a2.36 2.36 0 0 0 0-0.25V3.94v-0.87c0-0.29 0-0.23-0.22-0.23H0.31c0.08-0.2 0.14 -0.38 0.21 -0.55l0.75-1.8c0.06-0.14 0.12 -0.28 0.19 -0.42 0.07 -0.14 0.06 0 0.1-0.06h22.8a0.31 0.31 0 0 1 0.35 0.23 c0.24 0.6 0.5 1.21 0.75 1.81l0.34 0.81 zm6.48 27.74h6.5c0.18 0 0.24-0.05 0.24 -0.24v-7.53c0-0.35 0-0.35-0.34-0.35H25.84c-0.29 0-0.31 0-0.31 0.3 v7.55c0 0.26 0 0.27 0.28 0.27h6.47zm-20.73-9h2.77c0.18 0 0.24-0.05 0.24 -0.23V15.8c0-0.16 0-0.22-0.22-0.22h-2.79v6.02zm-3-12V6.78c0-0.14 0-0.19-0.19-0.19H5.71c-0.13 0-0.17 0-0.17 0.17 v5.66c0 0.15 0 0.2 0.2 0.2h2.58c0.18 0 0.23-0.06 0.23 -0.23-0.01-0.94 0-1.87 0-2.8v0.01zm6 0V6.83c0-0.19-0.06-0.24-0.24-0.24h-2.57c-0.15 0-0.2 0-0.2 0.19 v5.62c0 0.16 0 0.21 0.2 0.21h2.57c0.19 0 0.25 0 0.25-0.25-0.01-0.92-0.01-1.85-0.01-2.77v0.01zm6 0V6.81c0-0.18 0-0.23-0.23-0.23h-2.55c-0.16 0-0.22 0-0.22 0.22 v5.57c0 0.18 0.05 0.24 0.24 0.24h2.5c0.27 0 0.27 0 0.27-0.26l-0.01-2.75zm0 9v-2.77c0-0.16 0-0.23-0.22-0.23h-2.56c-0.16 0-0.22 0-0.22 0.22 v5.59c0 0.17 0.05 0.21 0.22 0.21h2.52c0.27 0 0.27 0 0.27-0.26l-0.01-2.76zm-15 6v5.82c0 0.14 0 0.18 0.18 0.18h2.8v-6H5.55zm6 0v6h2.85c0.15 0 0.16-0.08 0.16 -0.19v-5.62c0-0.16-0.05-0.2-0.2-0.2h-1.93l-0.88 0.01 zm-3-6v-2.81c0-0.15 0-0.21-0.19-0.21H5.72c-0.15 0-0.18 0.06 -0.18 0.19 v5.63c0 0.16 0 0.2 0.21 0.2h2.58c0.18 0 0.22-0.06 0.22 -0.23-0.01-0.92 0-1.85 0-2.77zm9 6a0.83 0.83 0 0 0 0 0.13v5.69c0 0.16 0.07 0.17 0.2 0.17h2.62c0.16 0 0.19-0.05 0.19 -0.2v-5.6c0-0.14 0-0.2-0.19-0.2h-2.8l-0.02 0.01 z" fill="#FFF"/>
</svg>
