<?xml version="1.0" ?>
<svg xmlns="http://www.w3.org/2000/svg" width="28" height="32" viewBox="0 0 28 32">
  <path d="M16.68 20.78c0.08-0.23 0.17 -0.45 0.23 -0.68a3.9 3.9 0 0 0 0.07-2 6.13 6.13 0 0 0-1.09-2.17 4.14 4.14 0 0 1-0.7-1.74l-0.27-1.74a1.15 1.15 0 0 0-0.06-0.16 1.46 1.46 0 0 0-0.15 0.12 17.07 17.07 0 0 0-2.49 3.19 5.59 5.59 0 0 0-0.68 3.6 4.08 4.08 0 0 0 0.85 2.09c-0.21 0-0.36-0.07-0.51-0.11a7.44 7.44 0 0 1-4-2.9A7.11 7.11 0 0 1 6.83 16a7.39 7.39 0 0 1-0.3-2.36A6.56 6.56 0 0 1 7.83 10a13.58 13.58 0 0 1 2.53-2.54 0.3 0.3 0 0 1 0.18-0.06l-0.14 0.43 a7 7 0 0 0-0.47 1.77c-0.013 0.471 0.08 0.94 0.27 1.37a0.58 0.58 0 0 0 0.11 0.13 c0.1-0.38 0.18 -0.74 0.3 -1.09 0.22 -0.66 0.45 -1.31 0.71 -2a12.92 12.92 0 0 1 3-4c0.41-0.42 0.84 -0.82 1.25-1.23l0.2-0.17v1.86a2.72 2.72 0 0 0 1.3 2.25l0.18 0.1 h0.09a11.6 11.6 0 0 1-0.81-3.34A10.14 10.14 0 0 1 17 0a0.51 0.51 0 0 1 0 0.1c0 0.51 0 1 0.11 1.51 0.086 0.78 0.395 1.52 0.89 2.13a9.54 9.54 0 0 1 1.54 2.57c0.28 0.68 0.52 1.37 0.73 2.07 0.123 0.481 0.22 0.968 0.29 1.46 0.133 0.688 0.18 1.39 0.14 2.09 0 0.67-0.12 1.34-0.23 2a12.64 12.64 0 0 1-0.36 1.64 10.89 10.89 0 0 1-2 4.1 6.39 6.39 0 0 1-1.39 1.14l-0.04-0.03zM13.61 31.88H3.32a0.69 0.69 0 0 1-0.69-1c0.19-0.51 0.31 -1.06 0.46 -1.58 0.15 -0.52 0.26 -0.87 0.39 -1.3a1.83 1.83 0 0 0 0.09-0.36 0.69 0.69 0 0 1 0.77-0.61h18.52a0.75 0.75 0 0 1 0.77 0.45 c0.07 0.22 0.11 0.45 0.17 0.68 0.12 0.44 0.25 0.87 0.37 1.31l0.39 1.35c0 0.07 0.06 0.14 0.07 0.22a0.65 0.65 0 0 1-0.67 0.83 H13.61v0.01zM13.6 26.45H4.33a0.7 0.7 0 0 1-0.69-0.37 0.66 0.66 0 0 1-0.07-0.28v-1.09a0.64 0.64 0 0 1 0.7-0.68h18.67a0.63 0.63 0 0 1 0.64 0.33 0.83 0.83 0 0 1 0.07 0.34 v1a0.7 0.7 0 0 1-0.74 0.73 H13.6v0.02zm1.85-1.23a4.55 4.55 0 0 0-0.08-0.46c-0.05-0.2-0.2-0.26-0.44-0.23a0.33 0.33 0 0 0-0.31 0.33 v0.73a0.41 0.41 0 0 0 0.35 0.36 0.38 0.38 0 0 0 0.41-0.27 4.57 4.57 0 0 0 0.07-0.47v0.01zm4.68 0v0.35a0.41 0.41 0 0 0 0.35 0.38 0.36 0.36 0 0 0 0.4-0.27 3.23 3.23 0 0 0 0-0.8c0-0.29-0.2-0.38-0.49-0.34-0.29 0.04 -0.31 0.18 -0.31 0.44 0.04 0.02 0.05 0.15 0.05 0.23 v0.01zm-11 0v0.33a0.42 0.42 0 0 0 0.36 0.39 0.36 0.36 0 0 0 0.4-0.28 3.19 3.19 0 0 0 0-0.82c0-0.28-0.2-0.35-0.48-0.31-0.28 0.04 -0.3 0.18 -0.3 0.42 -0.01 0.05 -0.01 0.18 -0.01 0.27 h0.03zm-2.76 0v0.38a0.38 0.38 0 0 0 0.38 0.36 c0.2 0.006 0.37-0.15 0.38 -0.35v-0.67c0-0.22-0.12-0.4-0.38-0.41a0.37 0.37 0 0 0-0.39 0.42 2.38 2.38 0 0 1-0.02 0.26 l0.03 0.01 zm5.51 0v0.38a0.38 0.38 0 0 0 0.38 0.36 0.37 0.37 0 0 0 0.39-0.35v-0.67c0-0.23-0.12-0.41-0.38-0.41s-0.39 0.13 -0.39 0.41 c-0.03 0.06 -0.03 0.17 -0.03 0.26 l0.03 0.02 zm5.51 0v0.4a0.38 0.38 0 0 0 0.39 0.35 0.36 0.36 0 0 0 0.37-0.34v-0.69c0-0.23-0.13-0.39-0.39-0.4a0.37 0.37 0 0 0-0.38 0.41 2.26 2.26 0 0 1-0.02 0.25 l0.03 0.02 z" fill="#FFF"/>
  <path d="M0 26.5v-4.9c0-0.19 0-0.27 0.25 -0.27h3.94c0.32 0 0.4 0.08 0.4 0.4 v0.77c0 0.26-0.09 0.37 -0.36 0.37 H2.08c-0.36 0-0.5 0.13 -0.5 0.49 v8c0 0.38-0.1 0.48 -0.47 0.48 H0.49c-0.38 0-0.48-0.1-0.48-0.47C0.003 30.257 0 29.133 0 28v-1.5zM27.22 26.52v4.86c0 0.39-0.11 0.5 -0.51 0.5 H26c-0.29 0-0.41-0.11-0.41-0.41v-5.41-2.71a0.41 0.41 0 0 0-0.47-0.47H23c-0.34 0-0.41-0.08-0.41-0.42v-0.75c0-0.25 0.09 -0.36 0.36 -0.36h4c0.18 0 0.2 0.09 0.19 0.23 v4.95l0.08-0.01z" fill="#FFF"/>
</svg>
