<?xml version="1.0" ?>
<svg xmlns="http://www.w3.org/2000/svg" width="37" height="37" viewBox="0 0 37 37">
  <path d="M36.08 18v7.69A6.68 6.68 0 0 1 34.56 30a12.61 12.61 0 0 1-4 3.23A18.93 18.93 0 0 1 26.25 35a29.37 29.37 0 0 1-2.92 0.67 c-1.09 0.18 -2.19 0.3 -3.3 0.38 a22.46 22.46 0 0 1-2.72 0.06 c-1.12 0-2.23-0.12-3.34-0.26a28.37 28.37 0 0 1-2.9-0.51 20.7 20.7 0 0 1-6.91-2.88A10.25 10.25 0 0 1 1 29.19a6.09 6.09 0 0 1-0.9-2.47A6.32 6.32 0 0 1 0 26V10.18a6.55 6.55 0 0 1 1.53-4.12 12.44 12.44 0 0 1 4-3.23 19.52 19.52 0 0 1 4.29-1.71c1-0.25 1.93-0.5 2.91-0.67 0.98 -0.17 2.16-0.29 3.27-0.37A28.66 28.66 0 0 1 18.9 0c1.1 0.05 2.1 0.14 3.2 0.27 0.878 0.1 1.75 0.25 2.61 0.45 a20.54 20.54 0 0 1 7.42 3.09 10.08 10.08 0 0 1 3.13 3.3c0.39 0.692 0.64 1.453 0.74 2.24 0 0.27 0 0.56 0.06 0.84l0.02 7.81zM18.51 2.26A26.27 26.27 0 0 0 12 3a22.89 22.89 0 0 0-3 1 17.06 17.06 0 0 0-4.35 2.4 7.34 7.34 0 0 0-2 2.32 2.86 2.86 0 0 0-0.12 2.61 6.57 6.57 0 0 0 1.71 2.2 14.44 14.44 0 0 0 3.38 2.2 20.83 20.83 0 0 0 4.17 1.52c0.88 0.21 1.78 0.39 2.67 0.51 0.89 0.12 1.86 0.22 2.79 0.26 a21.09 21.09 0 0 0 4.42-0.26c0.8-0.13 1.6-0.27 2.39-0.45a21.2 21.2 0 0 0 3-1 16.48 16.48 0 0 0 4.36-2.47 7.39 7.39 0 0 0 2-2.3 2.88 2.88 0 0 0 0.16-2.51 5.6 5.6 0 0 0-1.07-1.63 13.15 13.15 0 0 0-3.86-2.75 22.9 22.9 0 0 0-7-2.13 24.6 24.6 0 0 0-3.14-0.26z" fill="#FFF"/>
  <path d="M18.17 13.53a17.42 17.42 0 0 1-3.33-0.29 10 10 0 0 1-3.22-1.13 3.42 3.42 0 0 1-1.18-1.06 1.61 1.61 0 0 1 0.12-2 4.79 4.79 0 0 1 1.75-1.24 11.67 11.67 0 0 1 2.31-0.72 17 17 0 0 1 4-0.33 15 15 0 0 1 3.87 0.57 7.11 7.11 0 0 1 2.57 1.27c0.362 0.272 0.636 0.644 0.79 1.07a1.58 1.58 0 0 1-0.32 1.54 4.24 4.24 0 0 1-1.61 1.19 11.56 11.56 0 0 1-2.81 0.86 17.33 17.33 0 0 1-2.94 0.27 z" fill="#FFF"/>
</svg>
