<?xml version="1.0" ?>
<svg xmlns="http://www.w3.org/2000/svg" width="30" height="32" viewBox="0 0 30 32">
  <path d="M4.52 25.65c-0.11-0.28-0.23-0.53-0.33-0.78a7.89 7.89 0 0 1-0.59-3V17.1a1.22 1.22 0 0 1 0.88-1.23c0.143-0.02 0.287 -0.02 0.43 0h8.75a1.18 1.18 0 0 1 1.21 0.85 c0.054 0.205 0.077 0.418 0.07 0.63 v0.33c0.22-0.06 0.41 -0.13 0.61 -0.17a2 2 0 0 1 2.17 1.17 2.22 2.22 0 0 1 0 1.66 10 10 0 0 1-1.45 2.56 1.21 1.21 0 0 1-1.12 0.46 c-0.29 0-0.29 0-0.36 0.25 a8.9 8.9 0 0 1-0.65 1.88 1.46 1.46 0 0 0-0.09 0.21 h4.24a2 2 0 0 0 1.79-0.93 2.2 2.2 0 0 0 0.3-1v-0.39-12.67a3.65 3.65 0 0 0-0.26-1.5 2.17 2.17 0 0 0-1.73-1.32 4.47 4.47 0 0 0-0.73 0h-6c-0.25 0-0.25 0-0.25 0.25 v2.3a0.92 0.92 0 0 1-0.54 0.91 1 1 0 0 1-0.41 0.09 H7.59a0.93 0.93 0 0 1-0.93-0.93V8.1c0-0.21 0-0.22-0.21-0.22H2.54a2.29 2.29 0 0 1-1.15-0.24A2.37 2.37 0 0 1 0.28 6.2 4.84 4.84 0 0 1 0 4.51V1.62A1.51 1.51 0 0 1 0.86 0.17 3.16 3.16 0 0 1 1.5 0a0.61 0.61 0 0 1 0.19 0h26.23a1.62 1.62 0 0 1 1.29 0.55 c0.256 0.308 0.388 0.7 0.37 1.1V28.85a3.79 3.79 0 0 1-0.39 1.78 2.31 2.31 0 0 1-2 1.27c-0.13 0.01 -0.26 0.01 -0.39 0H2.48a2.77 2.77 0 0 1-1.21-0.22 2.18 2.18 0 0 1-1.12-1.34A3.16 3.16 0 0 1 0 29.28v-1.64a2 2 0 0 1 1.3-1.76 3.54 3.54 0 0 1 1.29-0.22h1.74l0.19-0.01zm12.4-6a2 2 0 0 0-0.06-0.27 1 1 0 0 0-1.08-0.72 1 1 0 0 0-0.92 1v1.41a0.66 0.66 0 0 0 0.46 0.65 0.66 0.66 0 0 0 0.78-0.25c0.17-0.25 0.34 -0.5 0.49 -0.77a2.41 2.41 0 0 0 0.33-1.1v0.05z" fill="#FFF"/>
</svg>
