<?xml version="1.0" ?>
<svg xmlns="http://www.w3.org/2000/svg" width="32" height="32" viewBox="0 0 32 32">
  <path d="M0.75 23.71c0-0.27 0.05 -0.53 0.08 -0.79 0.08 -0.67 0.15 -1.34 0.23 -2L1.27 19c0.07-0.64 0.14 -1.27 0.22 -1.91 0.08 -0.64 0.14 -1.34 0.22 -2l0.21-1.88c0.07-0.67 0.15 -1.34 0.22 -2 0-0.39 0.08 -0.78 0.14 -1.17A1.09 1.09 0 0 1 3.35 9h4.43c0.13 0 0.13 0.08 0.13 0.17 v2.07a2.26 2.26 0 0 0 4.46 0.54 3.31 3.31 0 0 0 0.06-0.54v-2c0-0.15 0-0.2 0.2 -0.2H19c0.16 0 0.2 0.05 0.2 0.2 v2.06a2.26 2.26 0 0 0 4.47 0.47 2.92 2.92 0 0 0 0.05-0.5v-2c0-0.15 0-0.2 0.19 -0.2h4.29a1.15 1.15 0 0 1 1.17 1c0.05 0.48 0.11 1 0.17 1.43 0.07 0.67 0.15 1.35 0.22 2l0.24 1.89c0.07 0.65 0.15 1.31 0.22 2l0.21 1.91c0.08 0.66 0.15 1.33 0.22 2 0.07 0.67 0.15 1.29 0.22 1.93l0.06 0.53 -30.18-0.05zM15.83 24.85h15c0.23 0 0.24 0 0.26 0.22 0.08 0.68 0.15 1.36 0.23 2 0.08 0.64 0.15 1.28 0.22 1.92l0.15 1.52a1.11 1.11 0 0 1-0.72 1 1.41 1.41 0 0 1-0.41 0.07 H1.13A1.16 1.16 0 0 1 0 30.5L0.15 29c0.08-0.66 0.15 -1.33 0.23 -2 0.08-0.67 0.16 -1.33 0.23 -2a0.13 0.13 0 0 1 0.16-0.13h15.06v-0.02z" fill="#FFF"/>
  <path d="M20.34 8.85V6.76A4.49 4.49 0 0 0 15 2.33a4.46 4.46 0 0 0-3.43 2.85 4.09 4.09 0 0 0-0.28 1.6v4.48a1.1 1.1 0 0 1-0.6 1 1.13 1.13 0 0 1-1.66-1v-3-2.21a6.2 6.2 0 0 1 1.51-3.65 6.81 6.81 0 0 1 2.93-2 5.57 5.57 0 0 1 1.45-0.34 7.91 7.91 0 0 1 0.85-0.06 6.52 6.52 0 0 1 4.93 2.07 6.48 6.48 0 0 1 1.65 2.83 6.62 6.62 0 0 1 0.25 1.83v4.52a1.13 1.13 0 0 1-2.26 0.05 V8.85z" fill="#FFF"/>
</svg>
