<?xml version="1.0" ?>
<svg xmlns="http://www.w3.org/2000/svg" width="19" height="36" viewBox="0 0 19 36">
  <path d="M13.7 15.83v16.33a5.69 5.69 0 0 1-0.23 1.75c-0.38 1.17-0.85 1.45-1.95 1.36-0.8-0.07-1.22-0.52-1.46-1.64a9.45 9.45 0 0 1-0.23-1.84v-6.78c0-0.53-0.12-0.85-0.67-0.84-0.55 0.01 -0.67 0.33 -0.67 0.85 v7.72a4.35 4.35 0 0 1-0.53 1.81 1.51 1.51 0 0 1-1.83 0.69 A1.52 1.52 0 0 1 4.83 34a9.62 9.62 0 0 1-0.26-2.07V15.07a3.29 3.29 0 0 0-1.12 2.21c-0.25 0.86 -0.32 1.77-0.5 2.66a3.24 3.24 0 0 1-0.31 1 1.26 1.26 0 0 1-1.41 0.69 A1.28 1.28 0 0 1 0.11 20.5a8.75 8.75 0 0 1 0.42-4.28 15.13 15.13 0 0 1 3.09-5.37c1.92-2.14 4.32-2.43 6.9-2.18s4.16 2 5.47 4.16a15.38 15.38 0 0 1 2.08 6.24c0.1 0.566 0.1 1.144 0 1.71a1.22 1.22 0 0 1-1.37 0.87 1.24 1.24 0 0 1-1.21-1c-0.28-1-0.46-2.11-0.77-3.14a12.86 12.86 0 0 0-0.78-1.74l-0.24 0.06 zM9 8.21a4.07 4.07 0 0 1-4.1-4.08 4.12 4.12 0 1 1 8.24 0A4.06 4.06 0 0 1 9 8.21z" fill="#FFF"/>
</svg>
