<?xml version="1.0" ?>
<svg xmlns="http://www.w3.org/2000/svg" width="37" height="36" viewBox="0 0 37 36">
  <path d="M16.71 11l-0.5 0.1 a4.7 4.7 0 0 1-1.71 0.11 5.48 5.48 0 0 1-2.32-0.76 5.54 5.54 0 0 1-2.41-2.81 6.19 6.19 0 0 1-0.37-2.27 5.48 5.48 0 0 1 1-2.95 5.49 5.49 0 0 1 2.55-2 4.48 4.48 0 0 1 1.13-0.35A9.44 9.44 0 0 1 15.67 0a4.74 4.74 0 0 1 1.76 0.5 A5.61 5.61 0 0 1 20.06 3c0.282 0.5 0.458 1.05 0.52 1.62a9.44 9.44 0 0 1 0.05 1.68 6.91 6.91 0 0 1-0.35 1.39c-0.18 0.56 -0.4 1.1-0.6 1.65-0.2 0.55 -0.39 1.07-0.58 1.61l-0.59 1.62c-0.19 0.55 -0.39 1.09-0.59 1.64l-0.58 1.62-0.66 1.82c0 0.14-0.1 0.27 -0.14 0.4 a0.38 0.38 0 0 0 0.05 0.21 l1.8 3.36c0.16 0.335 0.16 0.725 0 1.06-0.23 0.61 -0.45 1.23-0.67 1.85l-0.66 1.79-0.3 0.82 a0.93 0.93 0 0 1-0.38 0.47 l-3.23 2.06L8 33l-3.19 2a1.64 1.64 0 0 1-1.94-2.63l4-3.35L10.52 26c0.34-0.28 0.67 -0.58 1-0.85a1.07 1.07 0 0 0 0.32-0.55c0.42-1.13 0.83 -2.26 1.24-3.38 0.41 -1.12 0.8 -2.25 1.2-3.37 0.35 -1 0.69-1.92 1-2.87l1.18-3.27c0.07-0.21 0.15 -0.42 0.23 -0.63l0.02-0.08zM15 9.08a3.44 3.44 0 0 0 3.5-3.66 3.47 3.47 0 1 0-6.9 0.63 A3.43 3.43 0 0 0 15 9.08zm0 16.58l0.44-0.08c0.15 0 0.16-0.07 0.07 -0.19s-0.42-0.49-0.62-0.74l-1.17-1.39c-0.14-0.16-0.16-0.15-0.25 0a1.61 1.61 0 0 0-0.09 1.08A1.7 1.7 0 0 0 15 25.66zm1.43-0.84a1.64 1.64 0 0 0-0.25-2.06 1.59 1.59 0 0 0-1.75-0.32l2 2.38z" fill="#FFF"/>
  <path d="M25.22 14.34l-2.75 3.88-2.77 3.92a2.41 2.41 0 0 0-0.12-0.54c-0.16-0.39-0.35-0.76-0.54-1.14-0.09-0.18-0.19-0.35-0.27-0.53a0.29 0.29 0 0 1 0-0.24c1-1.43 2-2.86 3-4.28l3.42-4.84c0.42-0.59 0.84 -1.2 1.31-1.75A5.07 5.07 0 0 1 29 7.25 5.33 5.33 0 0 1 30.84 7 5.65 5.65 0 0 1 35 9.08a5.31 5.31 0 0 1 1 1.85c0.098 0.392 0.175 0.79 0.23 1.19 0.07 0.43 0.07 0.87 0 1.3a5.43 5.43 0 0 1-0.62 1.91 5.66 5.66 0 0 1-3 2.61 6.18 6.18 0 0 1-1.35 0.32 c-0.49 0.07 -0.99 0.07 -1.48 0a5.49 5.49 0 0 1-2.23-0.86 5.78 5.78 0 0 1-2.11-2.53c-0.07-0.15-0.12-0.32-0.18-0.47l-0.04-0.06zm2-1.7a3.47 3.47 0 1 0 3.52-3.46 3.45 3.45 0 0 0-3.53 3.46h0.01zM11.33 22.78l-0.32 0.88 c0 0.13-0.1 0.25 -0.14 0.39 -0.09 0.37 -0.41 0.55 -0.66 0.78 L5.57 29a1.12 1.12 0 0 1-0.58 0.2 l-1.07 0.19 -1 0.16-0.9 0.15 A0.91 0.91 0 0 1 1 29a2.49 2.49 0 0 1 1.57-2.81A12.81 12.81 0 0 1 4 25.71c0.49-0.14 1-0.26 1.48-0.39l1.2-0.32c0.39-0.1 0.78 -0.21 1.17-0.3a5 5 0 0 0 1.33-0.7c0.68-0.38 1.34-0.79 2-1.19l0.15-0.03z" fill="#FFF"/>
</svg>
