<?xml version="1.0" ?>
<svg xmlns="http://www.w3.org/2000/svg" width="82" height="100" viewBox="0 0 82 100">
  <path d="M55.397,25.735C55.397,26.889 54.464,27.825 53.31,27.825C52.159,27.825 51.223,26.889 51.223,25.735C51.223,25.121 51.496,24.573 51.919,24.193L51.919,21.424C51.919,16.243 47.705,12.029 42.526,12.029C37.345,12.029 33.131,16.243 33.131,21.424L33.131,24.193C33.557,24.573 33.827,25.121 33.827,25.735C33.827,26.889 32.894,27.825 31.74,27.825C30.589,27.825 29.653,26.889 29.653,25.735C29.653,25.121 29.926,24.573 30.349,24.193L30.349,21.424C30.349,14.711 35.813,9.25 42.526,9.25C49.239,9.25 54.701,14.711 54.701,21.424L54.701,24.193C55.127,24.573 55.397,25.12 55.397,25.735Z" fill="#FFFFFF" stroke-width="1" stroke="#00000000"/>
  <path d="M49.711,61.697C58.069,44.253 62.944,33.431 64.335,29.23C66.422,22.929 63.383,21.477 61.831,21.477C60.797,21.477 58.78,21.714 55.781,22.188L55.781,23.635C56.178,24.785 56.369,25.57 56.354,25.991C56.293,27.674 55.119,28.706 53.43,28.706C51.9,28.706 50.623,27.573 50.424,26.191C50.355,25.714 50.567,24.963 51.059,23.935L51.059,22.488C47.152,22.824 44.219,22.991 42.259,22.991C40.298,22.991 37.592,22.824 34.14,22.488C34.106,23.046 34.139,23.447 34.24,23.692C34.34,23.935 34.992,25.557 34.888,25.991C34.413,27.97 33.724,28.706 31.71,28.706C29.873,28.706 28.736,27.606 28.663,25.991C28.652,25.745 28.927,25.016 29.131,24.62C29.309,24.273 29.405,24.277 29.574,23.815C29.671,23.549 29.671,23.006 29.574,22.188C26.109,21.848 23.693,21.848 22.327,22.188C20.279,22.699 21.389,32.377 21.683,34.484C22.109,37.531 23.698,42.649 26.451,49.838L27.829,47.454C25.791,48.902 25.387,48.562 26.616,46.436C27.235,45.363 27.566,42.86 29.294,40.487C30.426,38.933 32.407,36.9 35.236,34.389C23.189,56.284 17.165,68.431 17.165,70.83C17.165,74.428 20.495,78.695 44.777,78.151C60.964,77.789 69.058,75.482 69.058,71.23C69.301,69.154 69.301,67.586 69.058,66.525C68.08,62.253 65.955,58.554 64.787,56.482C63.184,53.639 61.043,49.969 58.364,45.473C58.14,48.396 57.69,50.523 57.014,51.853C55.445,54.939 53.011,58.22 49.711,61.697Z" fill="#00000000" stroke-width="1" stroke="#FFFFFF"/>
  <path d="M26.338,48.557C27.281,48.557 29.93,44.371 34.285,36L29.27,40.206C26.372,45.773 25.395,48.557 26.338,48.557Z" fill="#FFFFFF" stroke-width="1" stroke="#00000000"/>
  <path d="M57.967,45.211C57.028,45.293 54.762,50.053 51.171,59.491L56.008,53.587C58.254,47.921 58.907,45.129 57.967,45.211Z" fill="#FFFFFF" stroke-width="1" stroke="#00000000"/>
</svg>
