<?xml version="1.0" ?>
<svg xmlns="http://www.w3.org/2000/svg" width="31" height="32" viewBox="0 0 31 32">
  <path d="M4.42 12.74c0 1.52 0 3 0.07 4.57a2.16 2.16 0 0 0 0 0.27s0.06 0.1 0.1 0.1 c0.04 0 0.1 0 0.11-0.08a2.32 2.32 0 0 0 0.16-0.44c0.16-0.63 0.31 -1.25 0.46 -1.88 0.15 -0.63 0.3 -1.23 0.44 -1.84 0.14 -0.61 0.27 -1.1 0.41 -1.65 0.14 -0.55 0.31 -1.28 0.47 -1.92 0.16 -0.64 0.26 -1 0.38-1.58A0.36 0.36 0 0 1 7.36 8L9 7.63l1.81-0.42h0.08c0.02 0 0.11-0.07 0.11 -0.12 0-0.05 0-0.12-0.09-0.14a5.09 5.09 0 0 0-0.54-0.22l-2.53-0.95a0.29 0.29 0 0 1-0.22-0.29v-0.85a0.41 0.41 0 0 1 0.24-0.4A13.33 13.33 0 0 1 10.69 3 12.22 12.22 0 0 1 13 2.57a10.08 10.08 0 0 1 2.33 0c0.66 0.08 1.32 0.15 2 0.28 0.989 0.21 1.946 0.547 2.85 1a13.62 13.62 0 0 1 3 2 0.71 0.71 0 0 1 0.24 0.52 V8.2a0.51 0.51 0 0 1-0.37 0.53 0.56 0.56 0 0 0-0.39 0.6 v2.63c0 0.1-0.03 0.199 -0.09 0.28 -0.14 0.14 -0.33 0.08 -0.44-0.12-0.11-0.2-0.36-0.68-0.56-1a8.33 8.33 0 0 0-4-3.26 8 8 0 0 0-3.57-0.6 8.43 8.43 0 0 0-7.34 5.22 8.22 8.22 0 0 0-0.6 4 8.35 8.35 0 0 0 3.7 6.22 7.71 7.71 0 0 0 2.63 1.18 8.2 8.2 0 0 0 2.92 0.21 8.42 8.42 0 0 0 4.11-1.56c0.08-0.06 0.168 -0.11 0.26 -0.15 0.14 -0.06 0.24 0 0.23 0.15 -0.01 0.15 -0.05 0.61 -0.09 0.91 -0.07 0.58 -0.15 1.15-0.23 1.73-0.08 0.58 -0.14 1-0.2 1.47 0 0.25-0.08 0.5 -0.1 0.75 a0.82 0.82 0 0 1-0.65 0.83 12.32 12.32 0 0 1-2.33 0.54 c-0.893 0.14 -1.8 0.17 -2.7 0.09 -0.66-0.08-1.32-0.15-2-0.28A12.1 12.1 0 0 1 9 27.72a13.25 13.25 0 0 1-7.23-8.34 12.8 12.8 0 0 1-0.52-3.63c0.015-0.67 0.068 -1.337 0.16 -2a11.06 11.06 0 0 1 0.68-2.66c0.402-1.1 0.954 -2.14 1.64-3.09a0.37 0.37 0 0 1 0.42-0.16c0.15 0 0.21 0.16 0.22 0.36 v4.59l0.05-0.05zM17.23 6.3v-0.08s-0.1-0.06-0.16-0.08l-1-0.27-1.82-0.46-1-0.26a0.26 0.26 0 0 1-0.25-0.28V4.2c0-0.22 0-0.7-0.06-1a0.45 0.45 0 0 0-0.1-0.2l-0.14 0.15 c-0.23 0.58 -0.45 1.16-0.67 1.74a0.33 0.33 0 0 1-0.25 0.22 l-1.12 0.22 a1 1 0 0 0-0.27 0.14 c0.089 0.05 0.183 0.09 0.28 0.12 l1 0.16c0.2 0 0.24 0.09 0.25 0.3 0.01 0.21 0 0.39 0 0.58a0.48 0.48 0 0 0 0.08 0.16 1.48 1.48 0 0 0 0.13-0.08c0.14-0.173 0.27 -0.343 0.39 -0.51a0.31 0.31 0 0 1 0.32-0.14l3.15 0.2 h0.9l0.34 0.04 z" fill="#FFF"/>
  <path d="M14.69 23.36a7.94 7.94 0 0 1-2-0.19 7.69 7.69 0 0 1-5.42-4.67 7.35 7.35 0 0 1-0.49-3.62 7.57 7.57 0 0 1 2.28-4.68 7.65 7.65 0 0 1 6.47-2.09 7.54 7.54 0 0 1 5 2.89c0.323 0.387 0.59 0.818 0.79 1.28a0.32 0.32 0 0 1-0.14 0.46 c-0.19 0.12 -0.39 0.21 -0.58 0.32 a4.83 4.83 0 0 0-0.56 0.36 0.47 0.47 0 0 0-0.18 0.7 c0.26 0.47 0.52 0.94 0.8 1.41 0.132 0.23 0.178 0.5 0.13 0.76-0.1 0.69 -0.19 1.39-0.29 2.09-0.07 0.53 -0.15 1.06-0.22 1.58a6 6 0 0 1-0.13 0.74 1.1 1.1 0 0 1-0.26 0.41 A7.45 7.45 0 0 1 16.64 23a7.17 7.17 0 0 1-1.95 0.36 z" fill="#FFF"/>
  <path d="M25.31 31.3h-2.93a2.47 2.47 0 0 1-2.3-1.43 2.65 2.65 0 0 1-0.19-1.55c0.07-0.55 0.15 -1.11 0.22 -1.66l0.21-1.53c0.08-0.55 0.15 -1.1 0.22 -1.65l0.21-1.54c0.08-0.54 0.15 -1.08 0.22 -1.62s0.15-1 0.22-1.58l0.21-1.52c0-0.37 0.08 -0.74 0.14 -1.11a1 1 0 0 0-0.12-0.72l-0.53-0.94-0.06-0.11c-0.14-0.3-0.1-0.49 0.19 -0.64 0.43 -0.208 0.87 -0.392 1.32-0.55a9.78 9.78 0 0 1 3.66-0.43 8.91 8.91 0 0 1 3.54 0.9 c0.45 0.23 0.5 0.39 0.25 0.83 -0.15 0.27 -0.29 0.53 -0.45 0.79 a1.46 1.46 0 0 0-0.18 1.1c0.1 0.7 0.19 1.4 0.29 2.1 0.07 0.52 0.15 1 0.22 1.57 0.07 0.57 0.13 1 0.2 1.52s0.15 1 0.22 1.58l0.21 1.61 0.21 1.53c0.08 0.54 0.15 1.09 0.22 1.63 0 0.19 0.05 0.37 0.08 0.56a2.47 2.47 0 0 1-1.89 2.78 3 3 0 0 1-0.66 0.07 l-2.95 0.01 zm0-5.16h3.21c0.27 0 0.37-0.13 0.34 -0.41-0.06-0.58-0.14-1.16-0.21-1.74-0.07-0.58-0.14-1-0.22-1.54l-0.21-1.62c-0.07-0.51-0.15-1-0.21-1.54a0.5 0.5 0 0 0-0.55-0.51h-4.3a0.45 0.45 0 0 0-0.51 0.41 c-0.08 0.52 -0.15 1-0.22 1.56l-0.27 2c-0.11 0.82 -0.23 1.64-0.34 2.45a5.14 5.14 0 0 0-0.06 0.55 0.32 0.32 0 0 0 0.33 0.38 h0.29l2.93 0.01 zM5.27 12.16v-0.17c0-1 0-1.91-0.07-2.87V7.39c0-0.18-0.06-0.25-0.23-0.29l-1-0.16-1.43-0.22-1.36-0.21-1-0.18c-0.07 0-0.12-0.07-0.18-0.1v-0.06a1 1 0 0 1 0.23-0.07h0.9L5 6c0.35 0 0.39 0 0.46-0.38 0.15 -0.77 0.31 -1.55 0.46 -2.32l0.39-2c0.12-0.3 0.19 -0.72 0.28 -1.1a0.84 0.84 0 0 1 0.08-0.2 0.88 0.88 0 0 1 0 0.15v0.38c0 1.79 0 3.59 0.07 5.38 0 0.32 0 0.34 0.32 0.45l1.17 0.42 0.21 0.1 -0.44 0.18 c-0.46 0.11 -0.93 0.2 -1.39 0.32 a0.32 0.32 0 0 0-0.19 0.19 C6.28 8.26 6.12 9 6 9.63L5.39 12a1.72 1.72 0 0 1-0.07 0.21 l-0.05-0.05zM25.32 11.93h-1.47c-0.34 0-0.45-0.11-0.45-0.44V9.9c0-0.29 0.13 -0.41 0.41 -0.42h3a0.38 0.38 0 0 1 0.41 0.41 v1.61a0.38 0.38 0 0 1-0.43 0.43 h-1.47zM25.31 8.72h-0.78a0.35 0.35 0 0 1-0.38-0.37v-0.8a0.33 0.33 0 0 1 0.34-0.37h1.65c0.22 0 0.33 0.14 0.34 0.36 0.01 0.22 0 0.54 0 0.81a0.33 0.33 0 0 1-0.37 0.36 l-0.8 0.01 z" fill="#FFF"/>
</svg>
