<?xml version="1.0" ?>
<svg xmlns="http://www.w3.org/2000/svg" width="35" height="36" viewBox="0 0 35 36">
  <path d="M23.54 1c-6.31 0.16 -11.16 2.86-14.16 8.49a14.8 14.8 0 0 0-1.17 11.15 15 15 0 0 0 3.13 5.95 15.41 15.41 0 0 0 12 5.46 16 16 0 0 0 6.59-1.5 16.86 16.86 0 0 1-7 4.1 17.22 17.22 0 0 1-13.63-1.4A17.07 17.07 0 0 1 0.87 23 17.08 17.08 0 0 1 2.53 8.68 17.57 17.57 0 0 1 23.54 1z" fill="#FFF"/>
  <path d="M34.49 11.88c-0.39 0.45 -0.78 0.89 -1.16 1.34l-2.47 2.86c-0.09 0.09 -0.09 0.16 0 0.28 0.59 1 1.16 2.09 1.73 3.14l1 1.8-0.92-0.3-2.37-1c-0.64-0.27-1.28-0.53-1.91-0.81a0.27 0.27 0 0 0-0.35 0.08 l-3.34 3.5-0.48 0.52 v-0.23l0.21-2.59c0.08-0.93 0.16 -1.86 0.25 -2.78a0.25 0.25 0 0 0-0.17-0.29l-3.85-1.81-1.2-0.59a1.59 1.59 0 0 1 0.22-0.08l1.66-0.4 1.66-0.33 1.62-0.39c0.12 0 0.25-0.07 0.38 -0.09 0.13 -0.02 0.13 -0.06 0.15 -0.15 0.11 -1 0.23-1.93 0.35 -2.88 0.12 -0.95 0.24 -1.8 0.36 -2.74 0.072 0.09 0.139 0.183 0.2 0.28 0.907 1.5 1.813 3.007 2.72 4.52a0.21 0.21 0 0 0 0.26 0.12 l1.6-0.32 1.25-0.22 1.92-0.38 0.69 -0.12-0.01 0.06 z" fill="#FFF"/>
</svg>
