<?xml version="1.0" ?>
<svg xmlns="http://www.w3.org/2000/svg" width="32" height="32" viewBox="0 0 32 32">
  <path d="M29.42 0L10.18 19l-0.13-0.12-5.21-5.26c-0.13-0.13-0.13-0.13 0-0.27L12.71 6 19 0.07a0.3 0.3 0 0 1 0.13-0.07h10.29zM23 20.44l-0.3 0.26 L12.44 31a0.36 0.36 0 0 1-0.19 0.08 H1.51l0.15-0.16L12 20.76l5.59-5.5c0.15-0.15 0.15 -0.15 0.29 0l5 5 0.12 0.18 zM31.07 2v10.19a0.35 0.35 0 0 1-0.12 0.29 l-6 6c-0.15 0.15 -0.15 0.15 -0.3 0l-5-5-0.13-0.14L31 2h0.07zM31.07 16v13.66a1.35 1.35 0 0 1-1 1.36 0.65 0.65 0 0 1-0.2 0H28.8a0.31 0.31 0 0 1-0.19-0.09l-6.11-6.1c-0.17-0.17-0.17-0.17 0-0.33l8.4-8.4 0.1 -0.1h0.07zM8.26 6.64L0 14.39v-0.16V1.32A1.31 1.31 0 0 1 1 0c0.19-0.02 0.38 -0.02 0.57 0 0 0 0.07 0 0.1 0.07 l6.45 6.42 0.14 0.15zM0 29V18.08a0.31 0.31 0 0 1 0.11-0.26l2.58-2.44c0.16-0.15 0.16 -0.15 0.32 0l5.19 5.21c0.16 0.15 0.16 0.15 0 0.3l-8 7.92A1.1 1.1 0 0 1 0 29zM5.27 0h10l-0.11 0.13 -4.9 4.63c-0.1 0.09 -0.15 0.11 -0.26 0C8.46 3.22 6.913 1.677 5.36 0.13 L5.27 0zM25 31.06h-9l4.49-4.49z" fill="#FFF"/>
</svg>
