<?xml version="1.0" ?>
<svg xmlns="http://www.w3.org/2000/svg" width="41" height="40" viewBox="0 0 41 40">
  <path d="M31.3 6.05v-0.5a0.65 0.65 0 0 1 0.44-0.68l6.37-2.63 1.44-0.6a0.7 0.7 0 0 1 1 0.68 0.77 0.77 0 0 1-0.2 0.39 C38.61 4.47 36.86 6.22 35.11 8a1.64 1.64 0 0 1-1 0.35c-0.34 0.06 -0.69 0.09 -1 0.17a1.23 1.23 0 0 0-0.49 0.29 c-1.2 1.19-2.39 2.36-3.62 3.55a1976.69 1976.69 0 0 1-11.2 11.23c-0.23 0.23 -0.45 0.49 -0.68 0.72 a1.14 1.14 0 0 0-0.32 1.23A2.07 2.07 0 0 0 18 27a1.9 1.9 0 0 0 1.48-0.07c0.45-0.17 0.88 -0.37 1.32-0.54a1.07 1.07 0 1 1 0.72 2 17.24 17.24 0 0 0-4 1.73 7.17 7.17 0 0 0-2.64 2.66 4.62 4.62 0 0 0-0.52 1.69 5.5 5.5 0 0 1-2.75 4.32 4.13 4.13 0 0 1-3.23 0.39 8.92 8.92 0 0 1-3.51-2l-0.51-0.47a0.16 0.16 0 0 0-0.24 0 0.31 0.31 0 0 1-0.47 0 6.81 6.81 0 0 1-0.38-0.38 0.3 0.3 0 0 1-0.06-0.41c0.11-0.14 0-0.22-0.05-0.32-0.45-0.49-0.91-1-1.34-1.48A7.11 7.11 0 0 1 0.2 31a5.3 5.3 0 0 1-0.2-2 5.87 5.87 0 0 1 3.5-4.74 5.92 5.92 0 0 1 2.66-0.56 4 4 0 0 0 3.31-1.64 4.76 4.76 0 0 0 0.61-1.45A7.52 7.52 0 0 1 13.75 16a6.39 6.39 0 0 1 2.94-0.69 0.37 0.37 0 0 1 0.13 0.72 5.26 5.26 0 0 0-2.5 1.72 4.18 4.18 0 0 0-0.94 2.25 2.14 2.14 0 0 0 1.53 2.25 1.34 1.34 0 0 0 1.54-0.38L31 7.33a1.12 1.12 0 0 0 0.39-1.09 1.21 1.21 0 0 1 0-0.19h-0.09zM15 27.48a1.67 1.67 0 0 0-0.15-0.24L12.65 25a0.33 0.33 0 0 0-0.51 0l-0.83 0.82 c-0.18 0.19 -0.19 0.35 0 0.53 0.72 0.73 1.44 1.45 2.17 2.17a0.33 0.33 0 0 0 0.53 0c0.28-0.27 0.55 -0.54 0.81 -0.82a1.39 1.39 0 0 0 0.18-0.22zm-11.17 1a1.27 1.27 0 1 0-1.28 1.27 1.28 1.28 0 0 0 1.27-1.25l0.01-0.02zm7.61 2.4a1.21 1.21 0 0 0-0.15-0.26c-0.67-0.69-1.35-1.37-2-2.05a0.43 0.43 0 0 0-0.47-0.1 0.48 0.48 0 0 0-0.16 0.82 c0.37 0.38 0.75 0.76 1.13 1.13 0.38 0.37 0.56 0.58 0.85 0.85a0.46 0.46 0 0 0 0.55 0.11 0.55 0.55 0 0 0 0.24-0.48l0.01-0.02zm4.65-4.59a0.72 0.72 0 0 0-0.12-0.19c-0.73-0.74-1.46-1.47-2.2-2.2a0.44 0.44 0 0 0-0.35-0.08c-0.25 0.07 -0.27 0.35 -0.06 0.57 0.7 0.71 1.41 1.41 2.11 2.11a0.56 0.56 0 0 0 0.2 0.14 0.33 0.33 0 0 0 0.41-0.33l0.01-0.02zm-3.72 7.91a0.64 0.64 0 0 0-0.64-0.64 0.63 0.63 0 0 0-0.63 0.62 0.64 0.64 0 0 0 0.63 0.66 0.65 0.65 0 0 0 0.64-0.64zm-3.16 1a0.64 0.64 0 1 0-1.28 0 0.64 0.64 0 0 0 1.28 0zm1.89 0.62 a0.63 0.63 0 0 0-0.63-0.64 0.64 0.64 0 1 0 0.63 0.64 zM38.35 0.62 a0.63 0.63 0 1 1 1.25 0 0.61 0.61 0 0 1-0.62 0.61 0.63 0.63 0 0 1-0.63-0.61zM31.69 3.17a0.62 0.62 0 0 1 0.63 0.63 0.63 0.63 0 1 1-1.26 0 0.62 0.62 0 0 1 0.63-0.63zM36.68 1.89a0.61 0.61 0 0 1-0.62 0.62 0.62 0.62 0 0 1 0-1.24 0.6 0.6 0 0 1 0.62 0.62 zM34 2.52a0.6 0.6 0 0 1 0.62-0.62 0.64 0.64 0 0 1 0.63 0.61 0.64 0.64 0 0 1-0.63 0.63 0.6 0.6 0 0 1-0.62-0.62zM37.52 0.64 a0.6 0.6 0 0 1 0.62 0.62 0.62 0.62 0 0 1-0.62 0.62 0.61 0.61 0 0 1-0.62-0.63 0.59 0.59 0 0 1 0.62-0.61zM33.76 3.15a0.6 0.6 0 0 1-0.61 0.63 0.63 0.63 0 0 1-0.63-0.61 0.62 0.62 0 0 1 0.63-0.64 0.6 0.6 0 0 1 0.61 0.62 z" fill="#FFF"/>
  <path d="M2.56 27.88a0.62 0.62 0 0 1 0.62 0.63 0.64 0.64 0 0 1-0.63 0.61 0.63 0.63 0 0 1-0.63-0.63 0.61 0.61 0 0 1 0.64-0.61z" fill="#FFF"/>
</svg>
