<?xml version="1.0" ?>
<svg xmlns="http://www.w3.org/2000/svg" width="37" height="31" viewBox="0 0 37 31">
  <path d="M10 24.83l2 0.57c0.13 0 0.21 0 0.25-0.12 0.07 -0.29 0.15 -0.58 0.2 -0.88 0.275 -1.588 0.375 -3.2 0.3 -4.81a3 3 0 0 0-0.09-0.65c0-0.09-0.16-0.15-0.24-0.23h-0.08L16.4 4.06l1.14 0.66 a4.37 4.37 0 0 0-0.58 0.11 0.69 0.69 0 0 0-0.49 0.73 v3.28a0.84 0.84 0 0 1-0.16 0.45 c-0.55 0.76 -1.12 1.5-1.68 2.25-0.32 0.43 -0.35 0.82 0 1.13a0.74 0.74 0 0 0 1.19-0.07c0.39-0.48 0.75 -1 1.12-1.49a6 6 0 0 1 0.68-0.79v2.17c0.19 2.71 0 5.42 0.09 8.13 0.015 0.175 0.042 0.349 0.08 0.52h-4.83v0.09c0.14 0.12 0.27 0.24 0.42 0.35 a4.77 4.77 0 0 0 2.92 0.84 H23.76a2.82 2.82 0 0 0 1.74-0.89c0.11-0.09 0.23 -0.17 0.34 -0.25l-0.06-0.11a3.25 3.25 0 0 0-0.33 0h-4.57c0-0.25 0.06 -0.47 0.06 -0.69 0-2.3-0.07-4.61 0-6.91S21 9.1 21 6.88c0-0.18 0.08 -0.27 0.24 -0.29a0.72 0.72 0 0 0 0.63-0.67 0.75 0.75 0 0 0-0.42-0.77l-2.02-1.2-0.13-0.1A1.83 1.83 0 0 0 21 2.53a1.65 1.65 0 0 0-0.08-1.16 1.75 1.75 0 0 0-1.86-1 1.73 1.73 0 0 0-1.31 1c-0.23 0.526 -0.2 1.13 0.08 1.63h-0.06a9.18 9.18 0 0 1-0.82-0.51c-0.07-0.05-0.07-0.25 0-0.36 0.14 -0.55 0.31 -1.09 0.47 -1.63a0.46 0.46 0 0 0 0-0.22c0-0.11-0.06-0.26-0.14-0.3-0.08-0.04-0.29 0-0.35 0.18 s-0.16 0.56 -0.23 0.84 l-0.31 1.11a3.15 3.15 0 0 0-0.54-0.06 0.72 0.72 0 0 0-0.67 0.51 0.83 0.83 0 0 0 0.34 0.92 c0.4 0.27 0.4 0.27 0.28 0.71 l-0.9 3.27c-0.25 0.91 -0.49 1.83-0.74 2.74-0.25 0.91 -0.52 1.82-0.78 2.73-0.26 0.91 -0.48 1.81-0.73 2.72-0.25 0.91 -0.54 1.9-0.8 2.85h-0.09c-0.34-0.18-0.46 0.08 -0.61 0.3 a21.24 21.24 0 0 0-2 3.47c-0.17 0.39 -0.33 0.79 -0.51 1.22-0.26-0.13-0.5-0.27-0.77-0.38A3.42 3.42 0 0 0 6 23a4.24 4.24 0 0 0-2.47 1.6c-0.299 0.399 -0.7 0.71 -1.16 0.9 a2.94 2.94 0 0 1-0.76 0.14 0.62 0.62 0 0 0-0.65 0.62 0.59 0.59 0 0 0 0.59 0.65 A3 3 0 0 0 4 26c0.42-0.39 0.79 -0.82 1.21-1.21a2.06 2.06 0 0 1 2.83 0c0.39 0.35 0.74 0.74 1.1 1.11a3.45 3.45 0 0 0 5.07-0.17 9.85 9.85 0 0 1 1.06-1 2.1 2.1 0 0 1 2.84 0.22 c0.41 0.39 0.79 0.81 1.21 1.2a3.23 3.23 0 0 0 2.45 0.8 3.78 3.78 0 0 0 2.6-1.39 6.35 6.35 0 0 1 1-1 2 2 0 0 1 2.49 0.24 c0.39 0.36 0.74 0.75 1.11 1.13a3.4 3.4 0 0 0 3.15 0.93 3.61 3.61 0 0 0 2-1.23c0.28-0.3 0.57 -0.6 0.87 -0.88a1.79 1.79 0 0 1 1.3-0.49 0.66 0.66 0 0 0 0-1.32 3.7 3.7 0 0 0-2.65 1.32 8.66 8.66 0 0 1-1 0.95A2 2 0 0 1 30 25c-0.48-0.44-0.91-0.94-1.41-1.36a3.21 3.21 0 0 0-2.59-0.7 4 4 0 0 0-2.42 1.45 5.91 5.91 0 0 1-1.08 0.95 2 2 0 0 1-2.35-0.25c-0.44-0.41-0.85-0.86-1.29-1.27a3.3 3.3 0 0 0-2.66-0.89 3.65 3.65 0 0 0-2.32 1.24 8.52 8.52 0 0 1-1.17 1.09 2.06 2.06 0 0 1-2.63-0.26 0.83 0.83 0 0 1-0.08-0.17zm9.3-11.5h0.12v7.13a1.7 1.7 0 0 0 0.08 0.46 c0 0.13 0 0.2-0.13 0.2 a1.34 1.34 0 0 1-0.21 0c0-0.25 0.06 -0.46 0.06 -0.68v-4.16-2.7a1 1 0 0 1 0.07-0.25h0.01z" fill="#FFF"/>
  <path d="M1.88 30.89a3.36 3.36 0 0 0 2.4-1.16l0.72-0.82a2.15 2.15 0 0 1 3.16 0c0.413 0.457 0.853 0.888 1.32 1.29a3.25 3.25 0 0 0 2.83 0.59 3.88 3.88 0 0 0 2-1.29 7.33 7.33 0 0 1 1-0.93 2.11 2.11 0 0 1 2.69 0.23 c0.41 0.4 0.8 0.84 1.23 1.23a3.33 3.33 0 0 0 2.9 0.82 3.73 3.73 0 0 0 2.14-1.29c0.315-0.335 0.65 -0.652 1-0.95a2.09 2.09 0 0 1 2.56 0.1 c0.44 0.43 0.86 0.87 1.31 1.29a3.35 3.35 0 0 0 2.9 0.84 3.62 3.62 0 0 0 2.13-1.25c0.253-0.273 0.517 -0.54 0.79 -0.8a1.91 1.91 0 0 1 1.37-0.56 0.64 0.64 0 0 0 0.69-0.49 0.63 0.63 0 0 0-0.56-0.81A3.36 3.36 0 0 0 33.85 28c-0.35 0.34 -0.68 0.71 -1 1.05a2.17 2.17 0 0 1-3-0.16 13 13 0 0 0-1.32-1.29 3.25 3.25 0 0 0-2.86-0.6 4.36 4.36 0 0 0-2.23 1.49 4.85 4.85 0 0 1-1 0.84 2.13 2.13 0 0 1-2.56-0.43c-0.35-0.37-0.71-0.74-1.08-1.09A3.3 3.3 0 0 0 16 27a3.72 3.72 0 0 0-2.22 1.32 4.86 4.86 0 0 1-1.24 1.1 2.17 2.17 0 0 1-2.29-0.28c-0.32-0.32-0.65-0.64-1-1a3.77 3.77 0 0 0-1.58-1A3.53 3.53 0 0 0 5.89 27a4.24 4.24 0 0 0-2.24 1.48 9.07 9.07 0 0 1-1 0.9c-0.257 0.16 -0.56 0.23 -0.86 0.2 A0.7 0.7 0 0 0 1 30a0.64 0.64 0 0 0 0.64 0.84 l0.24 0.05 z" fill="#FFF"/>
</svg>
