<?xml version="1.0" ?>
<svg xmlns="http://www.w3.org/2000/svg" width="35" height="30" viewBox="0 0 35 30">
  <path d="M29.88 27a1 1 0 0 1 0.65 1 4.21 4.21 0 0 1-0.07 1.06 1.2 1.2 0 0 1-0.21 0.46 0.49 0.49 0 0 1-0.45 0.19 h-25a0.64 0.64 0 0 1-0.64-0.47A2.36 2.36 0 0 1 4.07 28a1.11 1.11 0 0 1 0.49-0.95 0.19 0.19 0 0 0 0.06-0.05c-0.33-0.33-0.66-0.63-1-1a12.65 12.65 0 0 1-1.32-1.7 17.49 17.49 0 0 1-1.22-2.15 11.12 11.12 0 0 1-0.75-1.94c-0.11-0.43-0.2-0.86-0.28-1.3a2.21 2.21 0 0 1 0-0.63c0.03-0.237 0.08 -0.471 0.15 -0.7 0-0.13 0.13 -0.17 0.27 -0.17h33.72a0.25 0.25 0 0 1 0.26 0.18 c0.14 0.362 0.189 0.754 0.14 1.14a9.75 9.75 0 0 1-0.19 1.08c-0.11 0.404 -0.243 0.802 -0.4 1.19a17.25 17.25 0 0 1-1.92 3.48 16.34 16.34 0 0 1-1.39 1.7c-0.26 0.3 -0.53 0.55 -0.81 0.82 zM22.53 16c0.15-0.23 0.27 -0.43 0.4 -0.62l2.31-3.5 1.82-2.77 1.33-2a3.11 3.11 0 0 1 1.67-1.27 3 3 0 0 1 1.23-0.14 3.09 3.09 0 0 1 2.11 1.06 3.16 3.16 0 0 1 0.66 2.57 2.84 2.84 0 0 1-0.44 1.08c-0.38 0.6 -0.77 1.19-1.16 1.79-0.54 0.81 -1.08 1.62-1.61 2.43l-0.78 1.19a0.3 0.3 0 0 1-0.29 0.15 h-7.25V16zM10.09 13.67c0-0.43 0.07 -0.89 0.11 -1.36 0-0.26 0.05 -0.53 0.05 -0.8a0.37 0.37 0 0 0-0.1-0.21c-0.43-0.52-0.87-1-1.3-1.54a1.79 1.79 0 0 1-0.2-0.28c-0.1-0.15-0.06-0.26 0.1 -0.32A3.88 3.88 0 0 1 9.2 9l1.28-0.3c0.17 0 0.34-0.09 0.52 -0.12s0.3-0.19 0.39 -0.35l1-1.63a0.61 0.61 0 0 1 0.12-0.15c0.15-0.14 0.28 -0.15 0.41 0a2 2 0 0 1 0.27 0.37 l1 1.57a0.36 0.36 0 0 0 0.24 0.18 l1 0.23 1.25 0.34 a0.21 0.21 0 0 1 0.15 0.33 3.61 3.61 0 0 1-0.36 0.51 c-0.37 0.44 -0.75 0.87 -1.12 1.32a0.4 0.4 0 0 0-0.08 0.28 c0 0.42 0 0.84 0.07 1.26 0.07 0.42 0 0.64 0.06 1s-0.19 0.4 -0.46 0.3 c-0.65-0.25-1.3-0.5-1.93-0.79a0.66 0.66 0 0 0-0.55 0l-1.68 0.7 a2.38 2.38 0 0 1-0.38 0.11 c-0.17 0-0.26-0.05-0.27-0.22l-0.04-0.27zM17.34 4.81c0-0.43 0.06 -0.82 0.08 -1.22a0.44 0.44 0 0 0-0.09-0.27c-0.29-0.36-0.6-0.72-0.9-1.08-0.3-0.36-0.12-0.34 0.15 -0.4L18 1.49c0.06 0 0.11-0.08 0.14 -0.13 0.24 -0.39 0.48 -0.79 0.73 -1.18 0.25 -0.39 0.31 -0.24 0.47 0l0.54 0.89 a0.83 0.83 0 0 1 0.09 0.16 0.55 0.55 0 0 0 0.48 0.32 l0.72 0.17 c0.19 0.043 0.377 0.096 0.56 0.16 0.15 0.05 0.18 0.16 0.09 0.29 -0.09 0.13 -0.32 0.39 -0.48 0.58 l-0.52 0.62 a0.25 0.25 0 0 0-0.06 0.16 c0 0.43 0.07 0.87 0.11 1.3v0.12c0 0.26-0.08 0.4 -0.38 0.27 s-0.86-0.34-1.28-0.53a0.39 0.39 0 0 0-0.35 0l-1.23 0.52 h-0.15c-0.11 0-0.18 0-0.17-0.15l0.03-0.25zM4.44 7.05c0-0.31 0.06 -0.62 0.08 -0.93a0.42 0.42 0 0 0-0.08-0.2c-0.19-0.22-0.38-0.43-0.56-0.65C3.7 5.05 3.79 5 4 5l0.79-0.19A0.3 0.3 0 0 0 5 4.59l0.42-0.68c0.11-0.18 0.22 -0.18 0.33 0 0.11 0.18 0.29 0.49 0.45 0.72 a0.36 0.36 0 0 0 0.17 0.13 l0.82 0.2 c0.23 0 0.27 0.14 0.13 0.31 a4.2 4.2 0 0 1-0.48 0.55 0.61 0.61 0 0 0-0.15 0.56 v0.72c0 0.24-0.07 0.16 -0.17 0.12 l-0.86-0.35a0.28 0.28 0 0 0-0.22 0c-0.28 0.1 -0.57 0.22 -0.85 0.34 -0.28 0.12 -0.15 0.02 -0.15-0.16z" fill="#FFF"/>
</svg>
