<?xml version="1.0" ?>
<svg xmlns="http://www.w3.org/2000/svg" width="28" height="36" viewBox="0 0 28 36">
  <path d="M4.05 4.18h5.52v6.56a0.37 0.37 0 0 0 0.19 0.35 26.25 26.25 0 0 1 3 2.23 9 9 0 0 1 0.65 0.68 0.84 0.84 0 0 1 0.2 0.59 v18.82a2.17 2.17 0 0 1-1.37 2.1 1.85 1.85 0 0 1-0.73 0.16 H2.1a2.14 2.14 0 0 1-2-1.47 2.74 2.74 0 0 1-0.1-0.78V14.77a1.33 1.33 0 0 1 0.39-1A12.43 12.43 0 0 1 2.3 12.2c0.53-0.37 1.07-0.73 1.6-1.09a0.3 0.3 0 0 0 0.15-0.28V4.48v-0.3zm6.38 19.59a10.33 10.33 0 0 0-0.23-2 7.45 7.45 0 0 0-0.64-1.84A4.07 4.07 0 0 0 8 18.15a2.22 2.22 0 0 0-1.75-0.22 3 3 0 0 0-1.4 0.93 6.16 6.16 0 0 0-1.26 2.47 9.71 9.71 0 0 0-0.32 2 8.93 8.93 0 0 0 0.18 2.25 7.4 7.4 0 0 0 0.64 1.94c0.33 0.73 0.86 1.351 1.53 1.79a2.23 2.23 0 0 0 2.05 0.22 3.33 3.33 0 0 0 1.5-1.23 7.12 7.12 0 0 0 1.18-3.1c0.04-0.46 0.04 -0.94 0.08 -1.42v-0.01zM19.39 8.84H24c0.24 0 0.24 0 0.24 0.24 v5a0.43 0.43 0 0 0 0.22 0.4 c0.81 0.57 1.61 1.15 2.4 1.75 0.23 0.188 0.445 0.396 0.64 0.62a0.83 0.83 0 0 1 0.25 0.67 v0.46h-6.64a0.79 0.79 0 0 0-0.87 0.81 v12.37a0.72 0.72 0 0 0 0.67 0.75 H27.48c0.17 0 0.23 0 0.23 0.22 v1.6a2 2 0 0 1-1.34 1.89 1.54 1.54 0 0 1-0.49 0.08 H17.7a1.86 1.86 0 0 1-1.7-1.35 2.86 2.86 0 0 1-0.09-0.72v-9.4-6.62a1.21 1.21 0 0 1 0.43-1c0.6-0.5 1.213-0.99 1.84-1.47 0.35 -0.27 0.73 -0.49 1.1-0.73a0.31 0.31 0 0 0 0.16-0.3V9.05c-0.05-0.05-0.05-0.12-0.05-0.21z" fill="#FFF"/>
  <path d="M27.69 19.52v10.8H22c-0.15 0-0.21 0-0.21-0.2V19.7c0-0.15 0-0.21 0.2 -0.21h5.71l-0.01 0.03 zM4.07 0h5.49a1.14 1.14 0 0 1 0 0.14v2.3c0 0.14 0 0.19-0.19 0.19 H4.24c-0.11 0-0.19 0-0.19-0.16V0.06A0.44 0.44 0 0 1 4.07 0zM19.4 7.26v-0.17-2.16c0-0.14 0-0.19 0.18 -0.19H24c0.16 0 0.22 0 0.22 0.21 v2.13c0 0.15 0 0.19-0.19 0.19 H19.4v-0.01z" fill="#FFF"/>
</svg>
