<?xml version="1.0" ?>
<svg xmlns="http://www.w3.org/2000/svg" width="29" height="36" viewBox="0 0 29 36">
  <path d="M11.87 31.75c0.06 0.41 0.13 0.94 0.23 1.48s0.25 1.1 0.34 1.65a2.3 2.3 0 0 1-0.07 0.78 c-0.11 0.38 -0.41 0.4 -0.71 0.3 A3.7 3.7 0 0 1 10 34.83a9 9 0 0 1-1.64-2.78c-0.3-0.76-0.58-1.53-0.83-2.3-0.18-0.56-0.3-1.13-0.44-1.7-0.14-0.57-0.28-1.13-0.41-1.7-0.08-0.38-0.14-0.76-0.23-1.14-0.09-0.38-0.23-0.89-0.37-1.32-0.14-0.43-0.36-1-0.53-1.55a13.36 13.36 0 0 0-0.89-2.1L2.48 15.9c-0.48-0.9-0.91-1.78-1.37-2.66a9.53 9.53 0 0 1-0.79-1.9A6.86 6.86 0 0 1 0 9.55V7.92c0.08-0.525 0.2 -1.043 0.36 -1.55a8 8 0 0 1 1.28-2.64A8.82 8.82 0 0 1 4.83 1 8.28 8.28 0 0 1 6.62 0.29 14.11 14.11 0 0 1 8.07 0.06 a4.57 4.57 0 0 1 1 0 14 14 0 0 1 1.55 0.14 8 8 0 0 1 3.11 1.27 8 8 0 0 1 0.86 0.64 1.71 1.71 0 0 0 2 0.18 8.55 8.55 0 0 1 1.91-0.76 7.84 7.84 0 0 1 2.72-0.25A8.08 8.08 0 0 1 25 2.53a8.24 8.24 0 0 1 2.9 3.08c0.286 0.54 0.514 1.11 0.68 1.7a7.77 7.77 0 0 1 0.31 2.24 10.46 10.46 0 0 1-0.17 1.58 8.75 8.75 0 0 1-1.24 3.07 25.78 25.78 0 0 0-1.85 3.86c-0.31 0.83 -0.6 1.67-0.87 2.51-0.2 0.65 -0.37 1.32-0.54 2-0.1 0.42 -0.15 0.85 -0.23 1.27a23.43 23.43 0 0 0-0.29 2.77c-0.05 0.64 -0.11 1.28-0.21 1.91-0.14 0.78 -0.29 1.55-0.5 2.3a7.71 7.71 0 0 1-1.44 2.73c-0.53 0.67 -1.09 1.32-1.62 2a1.61 1.61 0 0 1-1.71 0.32 0.75 0.75 0 0 1-0.4-0.68v-1.28c0-0.43 0.07 -0.8 0.08 -1.21 0-1.23 0.06 -2.46 0.06 -3.69a17.32 17.32 0 0 0-0.13-1.9 3.74 3.74 0 0 0-0.54-1.68 2.22 2.22 0 0 0-1.06-0.85c-0.4-0.16-0.79-0.36-1.19-0.52a2.21 2.21 0 0 0-1.22-0.09 1.1 1.1 0 0 0-0.26 0.06 0.86 0.86 0 0 0-0.58 0.75 c-0.07 0.37 -0.17 0.73 -0.25 1.1-0.08 0.37 -0.11 0.55 -0.17 0.82 -0.08 0.44 -0.17 0.88 -0.25 1.32-0.08 0.44 -0.12 0.67 -0.17 1-0.05 0.33 -0.14 0.85 -0.14 1.28 0 0.43-0.08 0.88 -0.13 1.45z" fill="#FFF"/>
</svg>
