<?xml version="1.0" ?>
<svg xmlns="http://www.w3.org/2000/svg" width="37" height="37" viewBox="0 0 37 37">
  <path d="M11.39 28c-0.23-0.4-0.43-0.76-0.65-1.1a3.68 3.68 0 0 1-0.53-1.39 4.1 4.1 0 0 1 0-1.56 3.51 3.51 0 0 1 1-1.76 2.78 2.78 0 0 1 1.7-0.83 2.68 2.68 0 0 1 2.45 1.08c0.24 0.326 0.454 0.67 0.64 1.03 0.43 0.8 0.84 1.6 1.27 2.41 0.34 0.65 0.69 1.3 1 1.94 0 0.05 0.07 0.12 0.1 0.12 0.188 0.036 0.382 0.036 0.57 0 0.59-0.26 1.17-0.56 1.76-0.85a5.48 5.48 0 0 0 1.18-0.66c0.28-0.25 0.57 -0.47 0.86 -0.7a9.82 9.82 0 0 1-0.74-1.95 7.89 7.89 0 0 1-0.34-1.93 8.33 8.33 0 0 1 0.94-4.32 7 7 0 0 1 1.85-2.23 0.44 0.44 0 0 0 0.19-0.39v-3.36V0.27c0-0.27 0-0.27-0.27-0.27H0.24C0 0 0 0 0 0.24v27.5c0 0.17 0 0.22 0.21 0.22h10.94l0.24 0.04 zm8.33 5.29c0 0.28-0.06 0.53 -0.09 0.77 -0.07 0.6 -0.15 1.19-0.2 1.79 0 0.35-0.08 0.33 0.33 0.33 H36c0.11 0 0.19 0 0.18-0.15-0.06-0.69-0.09-1.39-0.19-2.08a10.15 10.15 0 0 0-0.42-1.62 13.19 13.19 0 0 0-0.63-1.57 8.39 8.39 0 0 0-1.27-1.95 8.6 8.6 0 0 0-1.33-1.3 7.34 7.34 0 0 0-1.54-0.93l-0.43-0.19 0.48 -0.56A6.12 6.12 0 0 0 32 23.74a5.76 5.76 0 0 0 0.33-1.51c0.03-0.54 0.03 -1.08 0-1.62a5.21 5.21 0 0 0-0.44-1.69A5.16 5.16 0 0 0 30 16.56a3.74 3.74 0 0 0-2-0.69 3.65 3.65 0 0 0-1.53 0.28 4.28 4.28 0 0 0-1.69 1.21A5.91 5.91 0 0 0 23.46 20a6.48 6.48 0 0 0-0.18 1.69 6.87 6.87 0 0 0 0.4 2.15 5.74 5.74 0 0 0 1.43 2.23l0.25 0.22 -0.59 0.24 a7.48 7.48 0 0 0-2 1.4 2.51 2.51 0 0 1-0.41 0.32 c-0.26 0.15 -0.54 0.26 -0.81 0.39 l-2.35 1.12c-0.41 0.2 -0.82 0.4 -1.24 0.58 a0.18 0.18 0 0 1-0.19 0c-0.19-0.32-0.36-0.65-0.53-1l-0.9-1.71-1.09-2c-0.32-0.61-0.62-1.23-1-1.83a1.24 1.24 0 0 0-2.15-0.16 2 2 0 0 0-0.38 1c-0.05 0.34 -0.002 0.687 0.14 1 0.27 0.55 0.57 1.08 0.85 1.62 0.48 0.9 0.95 1.8 1.43 2.69l0.86 1.58c0.36 0.68 0.72 1.36 1.09 2a1.34 1.34 0 0 0 1.54 0.66 c0.31-0.11 0.61 -0.27 0.91 -0.41l1.18-0.49z" fill="#FFF"/>
  <path d="M11.39 28H0.21C0 28 0 27.91 0 27.74V0.24C0 0 0 0 0.24 0h24.12c0.27 0 0.27 0 0.27 0.27 V14.91a0.44 0.44 0 0 1-0.19 0.39 7 7 0 0 0-1.85 2.23A8.55 8.55 0 0 0 22 19a8.33 8.33 0 0 0-0.35 2.85 7.89 7.89 0 0 0 0.35 1.93 9.82 9.82 0 0 0 0.82 1.92c-0.29 0.23 -0.58 0.45 -0.86 0.7 a5.48 5.48 0 0 1-1.18 0.66 c-0.59 0.29 -1.17 0.59 -1.76 0.85 a1.53 1.53 0 0 1-0.57 0s-0.08-0.07-0.1-0.12c-0.35-0.64-0.7-1.29-1-1.94-0.43-0.81-0.84-1.61-1.27-2.41a7.62 7.62 0 0 0-0.65-1.07 2.68 2.68 0 0 0-2.45-1.08 2.78 2.78 0 0 0-1.7 0.83 3.51 3.51 0 0 0-1 1.76 4.1 4.1 0 0 0 0 1.56c0.08 0.495 0.26 0.968 0.53 1.39 0.19 0.37 0.35 0.73 0.58 1.17zm0.41-17H3a1 1 0 0 0-0.5 0 0.94 0.94 0 0 0-0.23 1.26 0.83 0.83 0 0 0 0.81 0.34 h17.76a0.75 0.75 0 0 0 0.28-0.11 0.91 0.91 0 0 0 0.28-1.1 0.81 0.81 0 0 0-0.81-0.5c-2.93 0.04 -5.86 0.03 -8.79 0.03 V11zm0-7H3a1 1 0 0 0-0.49 0 0.94 0.94 0 0 0-0.24 1.27 0.82 0.82 0 0 0 0.73 0.37 h17.46c0.183 0.01 0.366-0.013 0.54 -0.07a0.85 0.85 0 0 0 0.45-1 0.8 0.8 0 0 0-0.85-0.7c-2.93 0.06 -5.86 0.05 -8.8 0.05 V4zM10 19.63h7a0.8 0.8 0 0 0 0.85-0.87 0.82 0.82 0 0 0-0.85-0.85H3a0.91 0.91 0 0 0-0.33 0 0.92 0.92 0 0 0-0.38 1.34 0.76 0.76 0 0 0 0.71 0.33 l7 0.05z" fill="#FFF"/>
  <path d="M19.72 33.25l-1.17 0.56 c-0.3 0.14 -0.6 0.3 -0.91 0.41 a1.34 1.34 0 0 1-1.54-0.66c-0.37-0.67-0.73-1.35-1.09-2l-0.87-1.64c-0.48-0.89-1-1.79-1.43-2.69-0.28-0.54-0.58-1.07-0.85-1.62a1.78 1.78 0 0 1-0.14-1 2 2 0 0 1 0.38-1 1.24 1.24 0 0 1 2.15 0.16 c0.34 0.6 0.64 1.22 1 1.83l1.09 2 0.9 1.71c0.17 0.33 0.34 0.66 0.53 1a0.18 0.18 0 0 0 0.19 0c0.42-0.18 0.83 -0.38 1.24-0.58l2.35-1.12c0.27-0.13 0.55 -0.24 0.81 -0.39 0.147 -0.092 0.285 -0.2 0.41 -0.32a7.48 7.48 0 0 1 2-1.4l0.59-0.24-0.25-0.22a5.74 5.74 0 0 1-1.43-2.23 6.87 6.87 0 0 1-0.4-2.15 6.48 6.48 0 0 1 0.18-1.66 5.91 5.91 0 0 1 1.29-2.63 4.28 4.28 0 0 1 1.69-1.21 3.65 3.65 0 0 1 1.56-0.29 3.74 3.74 0 0 1 2.06 0.69 5.16 5.16 0 0 1 1.86 2.36c0.24 0.535 0.39 1.106 0.44 1.69 0.03 0.54 0.03 1.08 0 1.62a5.76 5.76 0 0 1-0.36 1.51 6.12 6.12 0 0 1-1.19 2.05l-0.48 0.56 0.43 0.19 a7.34 7.34 0 0 1 1.54 0.93 8.6 8.6 0 0 1 1.33 1.3 8.39 8.39 0 0 1 1.27 1.95c0.243 0.51 0.454 1.034 0.63 1.57 0.201 0.526 0.359 1.068 0.47 1.62 0.1 0.69 0.13 1.39 0.19 2.08 0 0.13-0.07 0.15 -0.18 0.15 H19.76c-0.41 0-0.36 0-0.33-0.33 0.05 -0.6 0.13 -1.19 0.2 -1.79 0.03 -0.24 0.06 -0.49 0.09 -0.77z" fill="#FFF"/>
  <path d="M11.8 10.92h8.79a0.81 0.81 0 0 1 0.81 0.5 0.91 0.91 0 0 1-0.28 1.1 0.75 0.75 0 0 1-0.28 0.11 H3.08a0.83 0.83 0 0 1-0.81-0.34A0.94 0.94 0 0 1 2.5 11a1 1 0 0 1 0.5-0.07h8.8v-0.01zM11.8 3.92h8.81a0.8 0.8 0 0 1 0.85 0.7 0.85 0.85 0 0 1-0.45 1 1.46 1.46 0 0 1-0.51 0.07 H3a0.82 0.82 0 0 1-0.77-0.33A0.94 0.94 0 0 1 2.51 4 1 1 0 0 1 3 3.93h8.8v-0.01zM10 19.63H3a0.76 0.76 0 0 1-0.71-0.33 0.92 0.92 0 0 1 0.36-1.3 0.91 0.91 0 0 1 0.33 0h14a0.82 0.82 0 0 1 0.85 0.85 0.8 0.8 0 0 1-0.85 0.87 H10v-0.09z" fill="#224099"/>
</svg>
