<?xml version="1.0" ?>
<svg xmlns="http://www.w3.org/2000/svg" width="28" height="36" viewBox="0 0 28 36">
  <path d="M13.58 23h-7.7a0.64 0.64 0 0 1-0.68-0.69V8.1a0.28 0.28 0 0 0-0.46-0.2 3.45 3.45 0 0 0-0.28 0.26 l-0.76 0.76 a0.45 0.45 0 0 1-0.73 0L1.24 7.11 0.21 6a0.46 0.46 0 0 1 0-0.77l5-5A0.61 0.61 0 0 1 5.66 0h4.65c0.39 0 0.55 0.16 0.56 0.53 a2.9 2.9 0 0 0 2.05 2.57A3.06 3.06 0 0 0 16.66 1a2.75 2.75 0 0 0 0.09-0.5 0.47 0.47 0 0 1 0.51-0.5h3.65a7.48 7.48 0 0 1 0.82 0 0.76 0.76 0 0 1 0.46 0.19 c1.69 1.63 3.37 3.28 5 4.93 0.32 0.31 0.32 0.51 0 0.83L24.35 8.9a0.45 0.45 0 0 1-0.74 0l-1.07-1c-0.12-0.12-0.24-0.21-0.41-0.14-0.17 0.07 -0.13 0.24 -0.13 0.38 v14.18a0.62 0.62 0 0 1-0.68 0.67 l-7.74 0.01 zm3.78-13h2.13a0.43 0.43 0 0 0 0.51-0.5v-0.72a0.41 0.41 0 0 0-0.45-0.44h-4.3a0.42 0.42 0 0 0-0.47 0.47 v0.64c0 0.37 0.15 0.52 0.53 0.52l2.05 0.03 zM13.6 25h7.82c0.38 0 0.53 0.12 0.59 0.49 0.12 0.78 0.23 1.56 0.35 2.34l0.33 2.2c0.1 0.73 0.21 1.46 0.32 2.2 0.11 0.74 0.22 1.46 0.32 2.2a7 7 0 0 1 0.1 0.8 0.43 0.43 0 0 1-0.48 0.5 h-7.26a0.46 0.46 0 0 1-0.53-0.43c-0.2-0.88-0.38-1.75-0.57-2.63-0.15-0.67-0.29-1.34-0.43-2a0.45 0.45 0 0 0-0.42-0.38 0.42 0.42 0 0 0-0.46 0.35 c-0.12 0.5 -0.22 1-0.33 1.52-0.16 0.73 -0.32 1.46-0.47 2.19-0.07 0.28 -0.13 0.57 -0.18 0.86 a0.56 0.56 0 0 1-0.64 0.53 H4.52c-0.44 0-0.63-0.23-0.57-0.66 0.13 -1 0.25-2 0.38-3 0.11-0.83 0.23 -1.65 0.34 -2.48 0.11 -0.83 0.2 -1.6 0.33 -2.45 0.07 -0.58 0.15 -1.15 0.22 -1.73a0.41 0.41 0 0 1 0.37-0.37 1 1 0 0 1 0.24 0L13.6 25z" fill="#FFF"/>
</svg>
