<?xml version="1.0" ?>
<svg xmlns="http://www.w3.org/2000/svg" width="42" height="36" viewBox="0 0 42 36">
  <path d="M24.39 15.45a2.21 2.21 0 0 0-0.15 0.48 10.39 10.39 0 0 0 0.2 4.33c0.71 2.28 1.31 4.6 1.95 6.91 0.21 0.76 0 1.07-0.79 1.08h-1c-0.57 0.05 -0.79 0.28 -0.79 0.85 v4.4a4.17 4.17 0 0 1-0.15 1 1.34 1.34 0 0 1-1.67 1 1.3 1.3 0 0 1-1.12-1.31c0-1.77 0-3.54-0.08-5.31a1.36 1.36 0 0 0-0.17-0.55c0-0.05-0.28-0.07-0.31 0a1 1 0 0 0-0.19 0.48 v4.5a4.51 4.51 0 0 1-0.38 1.61c-0.25 0.57 -0.84 0.73 -1.59 0.58 a1.23 1.23 0 0 1-0.95-1.13c-0.05-1.65-0.08-3.3-0.1-4.95 0-1-0.13-1.17-1.12-1.18h-0.67c-0.79 0-1-0.28-0.82-1 0.24-1 0.51-1.94 0.77 -2.91 0.49 -1.84 1.09-3.65 1.42-5.52a19.56 19.56 0 0 0 0-3.59h-0.18c-0.07 0.06 -0.17 0.1 -0.21 0.18 a11.06 11.06 0 0 0-1.14 3.47c-0.08 0.43 -0.14 0.87 -0.23 1.3a1.32 1.32 0 0 1-1.33 1 1.19 1.19 0 0 1-1.18-1.34 27 27 0 0 1 0.77-3.68 15 15 0 0 1 3.46-5.93 4.36 4.36 0 0 1 2.74-1.43 7.3 7.3 0 0 1 3.03 0.21 4.49 4.49 0 0 1 2 1.53 15 15 0 0 1 3 5.09 12.46 12.46 0 0 1 0.87 4.27 1.15 1.15 0 0 1-0.6 1.11c-0.81 0.4 -1.62-0.13-1.85-1.12-0.28-1.23-0.62-2.43-0.95-3.64a4.49 4.49 0 0 0-0.36-0.77l-0.13-0.02zM38.16 22.75v10.71A3.39 3.39 0 0 1 38 34.6a1.11 1.11 0 0 1-1.39 0.89 c-0.57 0-0.87-0.33-1-1.07a6.07 6.07 0 0 1-0.16-1.2v-4.45c0-0.35-0.09-0.56-0.48-0.55-0.39 0.01 -0.48 0.22 -0.48 0.56 v5.06A2.69 2.69 0 0 1 34 35a1.12 1.12 0 0 1-1.3 0.46 1.05 1.05 0 0 1-0.88-0.83 6.18 6.18 0 0 1-0.18-1.36V22.2a2.09 2.09 0 0 0-0.8 1.45 16.42 16.42 0 0 0-0.35 1.75 2.22 2.22 0 0 1-0.23 0.67 0.91 0.91 0 0 1-1 0.45 0.88 0.88 0 0 1-0.8-0.74 5.38 5.38 0 0 1 0.3-2.81A9.79 9.79 0 0 1 31 19.49c1.36-1.4 3.07-1.59 4.91-1.43a5.22 5.22 0 0 1 3.9 2.73 9.61 9.61 0 0 1 1.48 4.09 3 3 0 0 1 0 1.11c-0.12 0.46 -0.54 0.59 -1 0.58a0.88 0.88 0 0 1-0.86-0.68c-0.2-0.68-0.33-1.38-0.55-2.06a7.94 7.94 0 0 0-0.55-1.14l-0.17 0.06 zM9.6 24.29a14.41 14.41 0 0 0 0 1.61c0.14 1.24 0.33 2.49 0.52 3.73a0.66 0.66 0 0 1-0.53 0.84 0.63 0.63 0 0 0-0.55 0.76 v2.92a1.19 1.19 0 0 1-0.73 1.13 1.23 1.23 0 0 1-1.38-0.37 2.12 2.12 0 0 1-0.3-0.95v-2.81c0-0.34-0.07-0.64-0.48-0.63-0.41 0.01 -0.49 0.28 -0.48 0.63 v2.61a2.71 2.71 0 0 1-0.1 0.75 c-0.21 0.69 -0.53 0.88 -1.31 0.8 a1 1 0 0 1-1-1v-1.78-1.23a0.73 0.73 0 0 0-0.59-0.83 0.56 0.56 0 0 1-0.47-0.71l0.6-5.42a1.19 1.19 0 0 0-0.06-0.34c-0.1 0.08 -0.26 0.14 -0.29 0.24 A29.5 29.5 0 0 0 2 25.85c-0.07 0.28 -0.1 0.57 -0.18 0.85 a0.86 0.86 0 0 1-1.1 0.64 0.84 0.84 0 0 1-0.71-1 8.6 8.6 0 0 1 2.19-5.28 5.44 5.44 0 0 1 7.56-0.18 8.94 8.94 0 0 1 2.53 5.43 0.84 0.84 0 0 1-0.69 1 0.88 0.88 0 0 1-1.11-0.64c-0.18-0.62-0.31-1.25-0.49-1.87a4.42 4.42 0 0 0-0.27-0.53l-0.13 0.02 zM24.41 4.13A4.046 4.046 0 1 1 16.32 4a4.045 4.045 0 1 1 8.09 0.11 v0.02zM34.92 17.42A3.81 3.81 0 0 1 31 13.59a3.88 3.88 0 1 1 7.75 0 3.81 3.81 0 0 1-3.83 3.83z" fill="#FFF"/>
  <path d="M6.15 19a3.72 3.72 0 0 1-3.66-3.7 3.79 3.79 0 0 1 3.67-3.63 3.64 3.64 0 1 1 0 7.28l-0.01 0.05 z" fill="#FFF"/>
</svg>
