<?xml version="1.0" ?>
<svg xmlns="http://www.w3.org/2000/svg" width="27" height="36" viewBox="0 0 27 36">
  <path d="M10.3 0h6.27c0.11 0.82 -0.36 2.13-2.32 2.56V13.11c0 0.26 0 0.26 0.26 0.26h2.83c0.17 0 0.22 0.06 0.22 0.22 v2.1a0.29 0.29 0 0 0 0.23 0.32 13.29 13.29 0 0 1 6 4 12.5 12.5 0 0 1 2.16 3.52 16 16 0 0 1 0.63 1.92c0.16 0.61 0.23 1.25 0.35 1.88 0 0.17 0 0.22-0.2 0.22 H0.24c-0.23 0-0.25 0-0.22-0.24 0.05 -0.41 0.11 -0.82 0.19 -1.22S0.4 25.36 0.5 25a11.07 11.07 0 0 1 0.79-2.06 13.58 13.58 0 0 1 6.82-6.53c0.33-0.14 0.67 -0.26 1-0.37a0.3 0.3 0 0 0 0.24-0.33v-2a0.83 0.83 0 0 0 0-0.09c0-0.15 0-0.21 0.21 -0.21h2.88c0.17 0 0.22 0 0.22-0.21V2.76c0-0.15-0.06-0.2-0.2-0.24a2.72 2.72 0 0 1-2-1.61A1.89 1.89 0 0 1 10.3 0zM13.45 28.36h13.17c0.27 0 0.26 0 0.26 0.26 v1.25c0 0.18-0.05 0.22 -0.23 0.22 H0.33c-0.35 0-0.32 0.05 -0.33-0.32-0.01-0.37 0-0.8 0-1.2 0-0.17 0.06 -0.21 0.22 -0.21h13.23zM13.44 30.85h2.95c0.13 0 0.21 0 0.25 0.17 0.144 0.5 0.205 1.02 0.18 1.54a2.78 2.78 0 0 1-0.82 1.93 3.06 3.06 0 0 1-1.24 0.74 3.69 3.69 0 0 1-1.47 0.2 A3.43 3.43 0 0 1 10.54 34a2.71 2.71 0 0 1-0.4-1 4.62 4.62 0 0 1 0-1.75c0-0.1 0-0.19 0.07 -0.28 0.07 -0.09 0.11 -0.13 0.21 -0.13h3l0.02 0.01 z" fill="#FFF"/>
</svg>
