<?xml version="1.0" ?>
<svg xmlns="http://www.w3.org/2000/svg" width="38" height="36" viewBox="0 0 38 36">
  <path d="M9.61 35.1H2.33a2.54 2.54 0 0 1-1.44-0.4A1.92 1.92 0 0 1 0 33c0-1.07 0.14 -2.15 0.22 -3.22 0.08 -1.07 0.17 -2 0.26-3.05 0.06 -0.65 0.16 -1.3 0.23 -1.94 0.07 -0.64 0.11 -1.08 0.16 -1.61 0.13 -1.05 0.19 -2.18 0.29 -3.18 0.15 -1.57 0.31 -3.13 0.46 -4.69 0.09 -1 0.15-1.95 0.24 -2.92a4.64 4.64 0 0 1 1.19-3.25 2.47 2.47 0 0 1 2-0.72 10.6 10.6 0 0 0 1.69 0c0.09 0 0.22-0.19 0.24 -0.3a2.55 2.55 0 0 0 0-0.73 1.37 1.37 0 0 1 0.92-1.53 0.74 0.74 0 0 0 0.45-0.86V2.83c0-0.32-0.09-0.45-0.43-0.45a15.87 15.87 0 0 0-4.38 0.78 c-0.41 0.13 -0.8 0.29 -1.2 0.43 -0.18 0.07 -0.27 0-0.26-0.18a1.35 1.35 0 0 1 0.67-1.26A16.65 16.65 0 0 1 7.29 0.33 11.27 11.27 0 0 1 11 0.05a15.12 15.12 0 0 1 2.58 0.52 2.13 2.13 0 0 1 1.4 1.84c0 0.84-0.54 1-1.18 0.82 -0.85-0.2-1.69-0.42-2.53-0.64-0.23 0-0.31 0.06 -0.31 0.25 v2.52a0.54 0.54 0 0 0 0.22 0.34 c0.21 0.16 0.45 0.28 0.66 0.44 a1 1 0 0 1 0.48 0.9 8.22 8.22 0 0 0 0 0.86c0 0.5 0 0.54 0.56 0.55 0.56 0.01 1.06 0 1.58 0a2.38 2.38 0 0 1 2.13 1.11 3.42 3.42 0 0 1 0.73 1.93c0.06 1.07 0.25 2.14 0.36 3.21 0.07 0.68 0.1 1.37 0.16 2.06 0.12 1.35 0.22 2.7 0.36 4.05 0.19 1.91 0.4 3.82 0.59 5.74 0.12 1.15 0.2 2.31 0.3 3.46 0.07 0.9 0.17 1.8 0.24 2.71A2.2 2.2 0 0 1 17 35.11c-2.48-0.02-4.93-0.01-7.39-0.01zM30.7 5.7h6.17c0.48 0 0.5 0 0.44 0.48 -0.09 0.78 -0.16 1.55-0.25 2.33s-0.25 1.79-0.36 2.69c-0.11 0.9 -0.16 1.53-0.26 2.29-0.07 0.59 -0.16 1.18-0.23 1.77-0.07 0.59 -0.11 1-0.16 1.47-0.08 0.81 -0.15 1.62-0.24 2.43s-0.2 1.57-0.29 2.35c-0.12 1-0.21 1.92-0.33 2.88-0.12 0.96 -0.25 1.81-0.37 2.72 0 0.32-0.06 0.64 -0.08 1a0.33 0.33 0 0 1-0.38 0.34 h-7.29a0.34 0.34 0 0 1-0.4-0.36c-0.08-0.84-0.14-1.69-0.24-2.54-0.15-1.22-0.34-2.45-0.49-3.68-0.1-0.78-0.17-1.57-0.26-2.36-0.12-1-0.25-2-0.37-3-0.09-0.78-0.16-1.56-0.25-2.33s-0.18-1.27-0.25-1.9c-0.09-0.79-0.16-1.58-0.24-2.36 0-0.41-0.1-0.82-0.15-1.23-0.11-0.91-0.22-1.82-0.35-2.72 0-0.29 0.16 -0.23 0.31 -0.23h6.32V5.7zM30.69 4.3h-6.21c-0.35 0-0.48-0.09-0.46-0.44V2.1c0-0.32 0.09 -0.42 0.41 -0.42h12.49c0.34 0 0.44 0.13 0.43 0.45 v1.76c0 0.32-0.11 0.41 -0.42 0.41 h-6.24zM30.74 29.8h3.51c0.33 0 0.42 0.11 0.42 0.42 v2.31a1.27 1.27 0 0 1-1.22 1.25h-5.38a1.27 1.27 0 0 1-1.29-1.36v-2.21c0-0.3 0.09 -0.42 0.41 -0.42h3.56l-0.01 0.01 z" fill="#FFF"/>
</svg>
