<?xml version="1.0" ?>
<svg xmlns="http://www.w3.org/2000/svg" width="44" height="36" viewBox="0 0 44 36">
  <path d="M2.6 21.67l-0.39 1.1a1.09 1.09 0 0 1-0.88 0.83 1.11 1.11 0 0 1-1.18-0.53A1.18 1.18 0 0 1 0.11 22c0.17-0.48 0.35 -0.95 0.52 -1.42 0.29 -0.8 0.58 -1.59 0.86 -2.38 0.22 -0.61 0.42 -1.23 0.64 -1.84 0.204 -0.64 0.445 -1.267 0.72 -1.88a1.38 1.38 0 0 1 1-0.81 7.87 7.87 0 0 1 1.15-0.1h1.5a0.21 0.21 0 0 0 0.24-0.16c0.33-1 0.69-1.91 1-2.86L8.72 8c0.13-0.33 0.24 -0.67 0.39 -1a1 1 0 0 1 1.06-0.47 2.11 2.11 0 0 1 1.08 0.55 c0.288 0.323 0.362 0.783 0.19 1.18-0.24 0.71 -0.5 1.4-0.76 2.1-0.26 0.7 -0.45 1.19-0.67 1.78-0.22 0.59 -0.37 1-0.55 1.53-0.18 0.53 -0.46 1.25-0.67 1.85-0.21 0.6 -0.38 1-0.55 1.53a0.85 0.85 0 0 0 0 0.32v15.4a9.94 9.94 0 0 1-0.08 1.34 1.43 1.43 0 0 1-0.84 1.12 1.13 1.13 0 0 1-1.16-0.3 1.81 1.81 0 0 1-0.48-1.23v-6h-0.1c-0.33 0-0.33 0-0.33 0.31 v5.66c0.014 0.404 -0.106 0.8 -0.34 1.13a1.12 1.12 0 0 1-2-0.2 2.28 2.28 0 0 1-0.23-1.09V22a2.64 2.64 0 0 0 0-0.28l-0.08-0.05z" fill="#FFF"/>
  <path d="M9.89 15.37a2.08 2.08 0 0 1 0 0.23v4.67a2.23 2.23 0 0 0 0.14 0.81 c0.192 0.487 0.679 0.79 1.2 0.75 h29.91a1.28 1.28 0 0 0 1.29-0.83 1.81 1.81 0 0 0 0-0.57v-8.62-9.47a1.33 1.33 0 0 0-0.36-1 1.2 1.2 0 0 0-0.91-0.34H11.34a1.45 1.45 0 0 0-0.74 0.12 c-0.438 0.242 -0.7 0.71 -0.68 1.21V5l-0.9 0.3 v-0.25-2.72A2.24 2.24 0 0 1 9.54 0.8 1.78 1.78 0 0 1 10.8 0.08 C11.6 0 12.39 0 13.19 0h28a2.15 2.15 0 0 1 2.12 1.56c0.065 0.228 0.095 0.463 0.09 0.7 v18.21a2.12 2.12 0 0 1-1.25 2 2.26 2.26 0 0 1-0.93 0.21 H11.6a2.78 2.78 0 0 1-1.42-0.27A2 2 0 0 1 9.1 21a4.22 4.22 0 0 1-0.1-0.77v-1.67a3.76 3.76 0 0 1 0.25-1.65c0.23-0.5 0.38 -1 0.57-1.54h0.07zM5.11 12.61a2.23 2.23 0 0 1-2.25-2.27A2.26 2.26 0 0 1 5.2 8.11a2.25 2.25 0 1 1-0.09 4.5z" fill="#FFF"/>
</svg>
