<?xml version="1.0" ?>
<svg xmlns="http://www.w3.org/2000/svg" width="44" height="33" viewBox="0 0 44 33">
  <path d="M31 32.63h-9.2c-0.19 0-0.24-0.06-0.26-0.25-0.06-0.57-0.15-1.15-0.23-1.72 0-0.27-0.06-0.55-0.1-0.82-0.08-0.62-0.21-1.24-0.21-1.84 0-0.247-0.027-0.493-0.08-0.74 0-0.34-0.06-0.68-0.1-1-0.04-0.32-0.1-0.7-0.15-1-0.05-0.3-0.06-0.58-0.1-0.86a0.54 0.54 0 0 0-0.07-0.22l-1.56-2.36a0.19 0.19 0 0 0-0.15-0.08s-0.09 0.08 -0.11 0.13 c-0.28 0.76 -0.56 1.53-0.83 2.3a2.1 2.1 0 0 0-0.06 1.25 4.9 4.9 0 0 1 0.1 0.73 c0 0.36 0.05 0.72 0.1 1.08 0.07 0.56 0.16 1.12 0.24 1.67 0 0.24 0.06 0.48 0.09 0.71 0.03 0.23 0.06 0.68 0.1 1 0.07 0.57 0.15 1.15 0.24 1.72 0 0.3 0 0.36-0.3 0.36 H3.56a3.41 3.41 0 0 1-2.82-1.44 3.44 3.44 0 0 1-0.63-1.58A23.92 23.92 0 0 1 0 26v-9c0-0.34 0-0.38 0.38 -0.42 0.6 -0.07 1.19-0.12 1.79-0.19 0.6 -0.07 1.09-0.16 1.63-0.24l0.79-0.15c0.33 0 0.66-0.06 1-0.1a0.81 0.81 0 0 0 0.24-0.13 1 1 0 0 0-0.18-0.18c-0.57-0.34-1.17-0.63-1.7-1a7.84 7.84 0 0 1-1.11-1.09 0.45 0.45 0 0 0-0.46-0.13c-0.31 0-0.61 0.11 -0.92 0.15 -0.31 0.04 -0.72 0.06 -1.08 0.09 H0.06v-0.36C0 10.59 0 7.9 0 5.2a3.48 3.48 0 0 1 1.48-2.93 3 3 0 0 1 1.87-0.6h11.36c0.13 0 0.16 0.07 0.17 0.19 l0.24 1.89c0 0.33 0.06 0.66 0.1 1 0.073 0.593 0.157 1.187 0.25 1.78a0.36 0.36 0 0 0 0.11 0.2 l1.15 1c0.28 0.24 0.32 0.23 0.52-0.07l0.93-1.48a0.58 0.58 0 0 0 0.07-0.52 3.85 3.85 0 0 1-0.1-0.73c0-0.34-0.06-0.68-0.1-1-0.07-0.56-0.14-1.12-0.24-1.68-0.1-0.56 0-0.53 0.39 -0.56h3.04a2.12 2.12 0 0 0 1.34-0.5 6.78 6.78 0 0 1 2.33-1.1A3.11 3.11 0 0 1 26 0a3.77 3.77 0 0 1 1.59 0.56 c0.382 0.27 0.746 0.564 1.09 0.88 a0.75 0.75 0 0 0 0.53 0.21 h11.16a3.11 3.11 0 0 1 2.75 1.67c0.215 0.398 0.354 0.832 0.41 1.28a30.1 30.1 0 0 1 0.09 3.5c0 0.12 0 0.17-0.17 0.19 l-1.8 0.24 -1 0.1-1.78 0.24 L38 9l-1.17 0.15 -0.67 0.09 -1.1 0.1 c-0.34 0-0.67 0.1 -1 0.15-0.33 0.05 -0.49 0.07 -0.73 0.09 a0.3 0.3 0 0 0-0.28 0.22 6 6 0 0 1-1.68 2.2c-0.2 0.18 -0.42 0.34 -0.61 0.53 a0.65 0.65 0 0 0-0.1 0.21 c0.07 0.005 0.14 0.005 0.21 0l0.78-0.09c0.34 0 0.69-0.05 1-0.1l1.67-0.24 1-0.1 1-0.15 0.69 -0.1 1-0.1 1-0.14h0.17l2-0.25 1-0.1c0.36 0 0.73-0.09 1.09-0.15 0.36 -0.06 0.34 0 0.34 0.26 V29.1a3.36 3.36 0 0 1-2.07 3.21 3.32 3.32 0 0 1-1.36 0.29 h-9.19l0.01 0.03 zM25.69 1.9a1.66 1.66 0 0 0-0.49 0.1 10.44 10.44 0 0 0-1.29 0.61 A8.8 8.8 0 0 0 21.29 5c-0.8 1.1-1.53 2.25-2.29 3.38-0.22 0.32 -0.41 0.66 -0.62 1-0.11 0.18 -0.08 0.24 0.14 0.25 h0.23a6.13 6.13 0 0 1 1.77 0.16 3.69 3.69 0 0 1 2.2 1.61 5.81 5.81 0 0 1 0.78 2.16c0 0.16 0.09 0.26 0.29 0.19l1.94-0.75a14.85 14.85 0 0 0 3.71-1.87 6.28 6.28 0 0 0 1.7-1.71 1.63 1.63 0 0 0 0.26-1.34 5.88 5.88 0 0 0-1-1.87 18.72 18.72 0 0 0-1.4-1.7c-0.69-0.75-1.41-1.46-2.14-2.16a1.49 1.49 0 0 0-1.17-0.45zm-9.45 8v-0.14c-0.23-0.21-0.45-0.43-0.69-0.62-0.88-0.71-1.73-1.44-2.62-2.14a14.34 14.34 0 0 0-2-1.2 10.62 10.62 0 0 0-1.73-0.6A3.85 3.85 0 0 0 7.54 5a1.61 1.61 0 0 0-1.13 0.65 c-0.25 0.34 -0.48 0.69 -0.7 1a12.47 12.47 0 0 0-1.15 2.6c-0.19 0.58 -0.28 1.2-0.45 1.78a1.58 1.58 0 0 0 0.13 1.15c0.184 0.356 0.456 0.659 0.79 0.88 a7.68 7.68 0 0 0 2.31 1.2c0.58 0.18 1.18 0.33 1.78 0.47 0.34 0.08 0.69 0.13 1 0.18 0.57 0.08 1.14 0.17 1.72 0.23 0.26 0 0.3 0 0.29-0.28a7.45 7.45 0 0 1 0.19-1.86 3.77 3.77 0 0 1 0.92-1.73A4.32 4.32 0 0 1 15.56 10c0.23 0 0.44-0.08 0.67 -0.15l0.01 0.05 zM7.88 28.53c0 0.14 0.07 0.2 0.21 0.19l0.63-0.09 1.57-0.24a4.11 4.11 0 0 0 0.71-0.1 0.43 0.43 0 0 1 0.46 0.12 l1.13 0.94 1.1 0.91 c0.16 0.13 0.22 0.1 0.28-0.09l0.43-1.44c0.18-0.61 0.35 -1.22 0.54 -1.83 0.267 -0.853 0.543 -1.707 0.83 -2.56 0.24 -0.72 0.49 -1.45 0.74 -2.17s0.48-1.35 0.72 -2c0.09-0.26 0.06 -0.3-0.21-0.3a6.29 6.29 0 0 1-1.7-0.17 3.77 3.77 0 0 1-2.53-2.22c-0.13-0.29-0.21-0.6-0.32-0.9 0-0.05-0.08-0.09-0.11-0.14l-0.13 0.13 a0.34 0.34 0 0 0 0 0.09c-0.57 1.3-1.17 2.58-1.7 3.9-0.53 1.11-0.94 2.28-1.34 3.44-0.23 0.67 -0.43 1.36-0.63 2-0.2 0.64 -0.33 1.12-0.48 1.69-0.08 0.31 -0.14 0.57 -0.2 0.84 zM31 25.81c0-0.1-0.07-0.17-0.1-0.23-0.25-0.46-0.49-0.93-0.76-1.38-0.7-1.2-1.41-2.39-2.14-3.56-0.59-0.91-1.22-1.79-1.86-2.67-0.64-0.88-1.14-1.52-1.74-2.28-0.16-0.21-0.35-0.41-0.52-0.62-0.17-0.21-0.18-0.12-0.21 0s-0.06 0.39 -0.09 0.59 a7.85 7.85 0 0 1-0.19 1 3.55 3.55 0 0 1-2.14 2.33c-0.428 0.163 -0.865 0.3 -1.31 0.41 -0.17 0-0.2 0.12 -0.11 0.25 l0.23 0.36 c0.53 0.79 1.07 1.57 1.59 2.37s0.93 1.48 1.38 2.22c0.56 0.92 1.117 1.843 1.67 2.77 0.26 0.43 0.5 0.86 0.75 1.29 0.11 0.18 0.19 0.19 0.3 0l1.73-2.35a0.57 0.57 0 0 1 0.48-0.26h0.53l1.26-0.05 1.08-0.09a0.6 0.6 0 0 0 0.17-0.1zM19 11.45c-0.62 0-1.1 0.05 -1.56 0.13 -0.62 0.1 -1.24 0.26 -1.86 0.41 a2 2 0 0 0-1.18 0.79 2.7 2.7 0 0 0-0.4 1.47c0.008 0.288 0.03 0.575 0.07 0.86 a4.6 4.6 0 0 0 0.41 1.66 2.06 2.06 0 0 0 2 1.19c0.57 0 1.15 0 1.72-0.08a4.71 4.71 0 0 0 0.65-0.1l1-0.23A2.69 2.69 0 0 0 21.1 17a2.7 2.7 0 0 0 0.66-2.1 4.06 4.06 0 0 0-0.14-1 9.09 9.09 0 0 0-0.38-1.21 1.58 1.58 0 0 0-1.13-1c-0.39-0.15-0.8-0.19-1.11-0.24z" fill="#FFF"/>
</svg>
