<?xml version="1.0" ?>
<svg xmlns="http://www.w3.org/2000/svg" width="46" height="7" viewBox="0 0 46 7">
  <path d="M40.66 2.56l-1.21-1.28 0.06 -0.2a6 6 0 0 1 1.87 0.26 7.55 7.55 0 0 1 1.55 1.41 11.74 11.74 0 0 1-0.17-1.22c0-0.13 0.18 -0.26 0.29 -0.39 0.11 -0.13 0.07 0 0.11 0 0.44 0.13 1.13-0.34 1.31 0.29 0.32 1.22 0.53 1.65-0.59 2.47l1.54 1.15c-1.75 0.78 -2.67-0.23-3.65-1.21A7.1 7.1 0 0 1 41.94 5c0 0.13-0.18 0.26 -0.29 0.39 h-0.11c-0.44-0.1-1 0.27-1.31-0.25a2.12 2.12 0 0 1 0.43-2.58zM18.88 2.24c0.14 0.84 0.27 1.69 0.44 2.53 0.09 0.41 0 0.56-0.44 0.58 -1.22 0-1.22 0.05 -1.44-1.16-0.15-0.81-0.27-1.63-0.44-2.43-0.08-0.44 0.06 -0.63 0.5 -0.62h2.53a1.38 1.38 0 0 1 1.51 1.24c0.18 0.82 0.31 1.65 0.46 2.48 0.05 0.3 0 0.47-0.36 0.47 h-0.05c-1.26 0.1 -1.26 0.1 -1.5-1.16-0.09-0.47-0.16-0.95-0.25-1.41-0.09-0.46-0.31-0.65-0.96-0.52zM36.35 3.65c0.218 0.133 0.416 0.294 0.59 0.48 0.192 0.245 0.294 0.549 0.29 0.86 0 0.17-0.49 0.33 -0.76 0.34 h-3.14c-0.2 0-0.57-0.16-0.57-0.26 0-0.38 0.11 -0.74 0.6 -0.76H35l-3-3.09c1.34-0.25 2.43-0.15 3.14 1.13l0.09-0.12a1.31 1.31 0 0 0 0-0.28c-0.13-0.81-0.13-0.84 0.68 -0.8 0.34 0 0.8-0.24 1 0.28a1.69 1.69 0 0 1-0.3 2s-0.14 0.09 -0.26 0.22 zM10.34 5.34a1.19 1.19 0 0 1-0.38 0c-0.21-0.07-0.57-0.18-0.57-0.28 0-0.36 0.08 -0.72 0.59 -0.75 0.81 0 0.88-0.15 0.88 -1 0-1.16 0-1.16-1.15-1.16h-0.55a0.86 0.86 0 0 1-1-0.79 2.07 2.07 0 0 1 0-0.22C7.94 0 8 0 9.14 0c0.41 0 0.61 0.2 0.62 0.58 0.01 0.38 0.24 0.58 0.64 0.55 0.4-0.03 0.74 0 1.1 0a1 1 0 0 1 1.07 1c0 0.43 0 0.87 0.07 1.31A1.55 1.55 0 0 1 11 5.33h-0.66v0.01zM21.62 1.19h3.49c0.5-0.002 0.941 0.329 1.08 0.81 0.27 1.06 0.46 2.13 0.71 3.31a15.2 15.2 0 0 1-1.54 0c-0.13 0-0.3-0.25-0.34-0.4-0.15-0.68-0.28-1.37-0.38-2.06a0.72 0.72 0 0 0-0.82-0.69h-1.11c-0.71-0.01-0.91-0.16-1.09-0.97zM5.16 6.2a1.78 1.78 0 0 1-2.22-0.71 0.7 0.7 0 0 1 0.1-0.6c0.53-0.68 0.56 -0.69-0.04-1.19-0.43-0.34-0.45-0.64 0-1s0.4-0.65 0-1c-0.23-0.18-0.58-0.58-0.53-0.68a2.51 2.51 0 0 1 0.79-0.87 2.65 2.65 0 0 1 1.1-0.08l0.07 0.15 A5.52 5.52 0 0 1 4 0.75a0.42 0.42 0 0 0 0 0.73c0.09 0.06 0.17 0.14 0.26 0.21 0.51 0.47 0.54 0.58 0 1.06-0.54 0.48 -0.29 0.63 0.09 1 0.62 0.52 0.62 0.55 0.07 1.16-0.31 0.33 -0.25 0.57 0.07 0.82 s0.44 0.27 0.67 0.47 zM28 1.21h3a1.06 1.06 0 0 1 1 0.91c0.21 0.93 0.38 1.87 0.52 2.81 0 0.11-0.18 0.34 -0.31 0.37 a2.93 2.93 0 0 1-1 0 0.71 0.71 0 0 1-0.46-0.4c-0.15-0.58-0.23-1.18-0.33-1.78-0.16-0.94-0.21-1-1.16-1S28.29 2 28 1.21zM38.88 5.34c-0.91 0-0.91 0-1.06-0.89-0.15-0.89-0.3-1.84-0.48-2.76-0.07-0.37 0-0.53 0.41 -0.55 1.29-0.06 1.3-0.07 1.53 1.19 0.15 0.77 0.27 1.54 0.41 2.32 0.14 0.78 0.12 0.69-0.6 0.69 h-0.21zM7.15 1.17c-0.13 0.23 -0.18 0.32 -0.24 0.41 -0.51 0.63 -0.53 0.65 0.11 1.19 0.4 0.32 0.46 0.59 0.1 1-0.36 0.41 -0.46 0.55 0.08 1 0.14 0.11 0.26 0.24 0.4 0.37 a1.62 1.62 0 0 1-2.22-0.76c0-0.17 0.14 -0.47 0.3 -0.63 0.36 -0.37 0.39 -0.64-0.07-1-0.24-0.18-0.6-0.62-0.55-0.71A2.45 2.45 0 0 1 6 1.2a3.15 3.15 0 0 1 1.15-0.03zM2 1.19c-0.25 0.31 -0.38 0.5 -0.54 0.66 a0.38 0.38 0 0 0 0 0.64c0.16 0.13 0.3 0.28 0.46 0.4 0.33 0.27 0.32 0.52 0 0.83-0.53 0.59 -0.52 0.6 0.09 1.12 0.12 0.1 0.31 0.13 0.41 0.25a1.64 1.64 0 0 1-2.25-0.6 0.72 0.72 0 0 1 0.15-0.56c0.5-0.65 0.51 -0.64 0-1.18a0.9 0.9 0 0 1 0.42-1.54A5.28 5.28 0 0 1 2 1.19zM15.73 1.14c0.85 0 0.85 0 1 0.84 0.07 0.43 0.14 0.87 0.23 1.3 0.09 0.43-0.07 0.46 -0.35 0.48 a3.56 3.56 0 0 1-1 0 0.73 0.73 0 0 1-0.44-0.45c-0.17-0.55-0.17-1.1-0.3-1.63-0.13-0.53 0.08 -0.58 0.48 -0.54 0.13 0.01 0.26 0 0.38 0zM13.6 1.14c0.85 0 0.85 0 1 0.8 0.08 0.43 0.16 0.86 0.23 1.29a0.78 0.78 0 0 1 0 0.36 4.57 4.57 0 0 1-1.21 0.16 0.77 0.77 0 0 1-0.53-0.48c-0.16-0.52-0.2-1.07-0.31-1.61-0.09-0.39 0-0.55 0.44 -0.52 0.12 0.01 0.25 0 0.38 0z" fill="#FFF"/>
  <path d="M23.32 5.34c-0.85 0-0.85 0-1-0.83L22.23 4c-0.15-0.88 0.31 -1.39 1.2-1.28 0.14 0 0.32 0.22 0.36 0.37 0.13 0.53 0.19 1.08 0.31 1.61s0 0.68-0.5 0.61 l-0.28 0.03 z" fill="#FFF"/>
</svg>
