<?xml version="1.0" ?>
<svg xmlns="http://www.w3.org/2000/svg" width="31" height="31" viewBox="0 0 31 31">
  <path d="M13.82 9.7l-0.44 0.09 a4.21 4.21 0 0 1-1.5 0.1 4.82 4.82 0 0 1-2.05-0.67 4.9 4.9 0 0 1-2.12-2.5 5.89 5.89 0 0 1-0.27-1.1 4.49 4.49 0 0 1-0.05-0.9 4.73 4.73 0 0 1 0.87-2.59A4.82 4.82 0 0 1 10.5 0.33 a4.35 4.35 0 0 1 1-0.27c0.47-0.04 0.94 -0.04 1.41 0a4.06 4.06 0 0 1 1.54 0.44 4.92 4.92 0 0 1 2.31 2.22 4 4 0 0 1 0.47 1.42c0.04 0.496 0.04 0.994 0 1.49A5.94 5.94 0 0 1 17 6.8c-0.16 0.49 -0.34 1-0.52 1.45l-0.51 1.42-0.52 1.42c-0.17 0.48 -0.34 1-0.52 1.44L14.37 14c-0.19 0.53 -0.38 1.07-0.58 1.6 0 0.12-0.09 0.23 -0.12 0.35 a0.37 0.37 0 0 0 0 0.18c0.53 1 1 2 1.58 3 0.14 0.294 0.14 0.636 0 0.93-0.2 0.54 -0.39 1.08-0.59 1.63l-0.58 1.57c-0.09 0.24 -0.18 0.48 -0.26 0.72 a0.87 0.87 0 0 1-0.33 0.42 l-2.85 1.81c-1.473 0.92 -2.973 1.85-4.5 2.79-0.93 0.59 -1.85 1.19-2.79 1.77a1.44 1.44 0 0 1-2.12-0.74 1.41 1.41 0 0 1 0.42-1.57l3.52-2.95 3.21-2.68c0.3-0.25 0.59 -0.51 0.9 -0.75a0.91 0.91 0 0 0 0.28-0.48c0.37-1 0.73-2 1.09-3 0.36-1 0.71-2 1.06-3 0.3-0.84 0.61 -1.68 0.91 -2.53 0.3 -0.85 0.69 -1.91 1-2.87 0.06 -0.18 0.13 -0.37 0.2 -0.56v0.06zM12.35 8a3 3 0 1 0-0.039-6 3 3 0 0 0 0.039 6zm0 14.59l0.39-0.07c0.13 0 0.14-0.07 0-0.17l-0.54-0.65-1-1.22c-0.12-0.14-0.14-0.14-0.22 0a1.36 1.36 0 0 0-0.07 1 1.5 1.5 0 0 0 1.43 1.09l0.01 0.02 zm1.25-0.74a1.43 1.43 0 0 0-0.23-1.85 1.34 1.34 0 0 0-1.53-0.28l1.76 2.13z" fill="#FFF"/>
  <path d="M21.3 12.61L18.88 16l-2.43 3.44a2.51 2.51 0 0 0-0.11-0.47c-0.14-0.34-0.31-0.67-0.47-1a4 4 0 0 1-0.24-0.46 0.28 0.28 0 0 1 0-0.22l2.65-3.76c1-1.42 2-2.84 3-4.25 0.37 -0.52 0.74 -1.06 1.15-1.54a5 5 0 0 1 3.8-1.61A4.94 4.94 0 0 1 29.94 8a4.7 4.7 0 0 1 0.88 1.63c0.08 0.34 0.14 0.684 0.18 1.03 0.06 0.378 0.06 0.762 0 1.14a4.75 4.75 0 0 1-0.55 1.68 5 5 0 0 1-2.64 2.3 5.29 5.29 0 0 1-1.19 0.28 4.71 4.71 0 0 1-1.3 0 4.86 4.86 0 0 1-2-0.76 4.92 4.92 0 0 1-1.86-2.22c-0.06-0.13-0.1-0.28-0.16-0.42v-0.05zm1.75-1.49a3 3 0 1 0 6-0.003 3 3 0 0 0-6 0.003zM9.09 20c-0.11 0.28 -0.2 0.53 -0.29 0.78 a3.4 3.4 0 0 0-0.12 0.34 c-0.08 0.33 -0.36 0.48 -0.58 0.69 L4 25.53a1 1 0 0 1-0.51 0.18 l-0.94 0.17 -0.83 0.12 -0.79 0.13 a0.82 0.82 0 0 1-0.9-0.69A2.2 2.2 0 0 1 1.41 23a10 10 0 0 1 1.21-0.37c0.43-0.13 0.87 -0.24 1.31-0.35L5 22c0.35-0.09 0.69 -0.19 1-0.27a4.5 4.5 0 0 0 1.17-0.61c0.59-0.34 1.18-0.7 1.77-1.05 0.06 -0.01 0.06 -0.01 0.15 -0.07z" fill="#FFF"/>
</svg>
