<?xml version="1.0" ?>
<svg xmlns="http://www.w3.org/2000/svg" width="44" height="30" viewBox="0 0 44 30">
  <path d="M21.87 29.3a20 20 0 0 1-3.28-0.3 21.7 21.7 0 0 1-7.52-3 32.49 32.49 0 0 1-5.89-4.76 40.29 40.29 0 0 1-5.07-6.3 0.47 0.47 0 0 1 0-0.61 40.44 40.44 0 0 1 8.17-9A26.51 26.51 0 0 1 14 1.76 18.07 18.07 0 0 1 18.1 0.42 a22.37 22.37 0 0 1 2.3-0.34A16.28 16.28 0 0 1 23 0c1.009 0.11 2.01 0.277 3 0.5a17.19 17.19 0 0 1 3.89 1.33 26.62 26.62 0 0 1 5.3 3.27 38.86 38.86 0 0 1 6.86 7c0.58 0.75 1.1 1.54 1.66 2.31a0.33 0.33 0 0 1 0 0.44 40.12 40.12 0 0 1-5.64 6.89 31.08 31.08 0 0 1-6.21 4.73 21.48 21.48 0 0 1-4.36 1.92 18 18 0 0 1-4.11 0.81 l-1.52 0.1 zM33.59 15c0-6.262-5.075-11.338-11.337-11.34-6.261-0.002-11.34 5.072-11.343 11.333-0.004 6.262 5.068 11.341 11.33 11.347A11.34 11.34 0 0 0 33.59 15z" fill="#FFF"/>
  <path d="M14.58 15a7.67 7.67 0 1 0 7.61-7.69A7.65 7.65 0 0 0 14.58 15z" fill="#FFF"/>
  <path d="M14.58 15a7.67 7.67 0 1 1 7.68 7.66A7.66 7.66 0 0 1 14.58 15zm10.22-0.39a2.9 2.9 0 0 0 2.92-2.9 2.92 2.92 0 1 0-4.987 2.06 2.89 2.89 0 0 0 2.067 0.84 zm0 2.92a1.46 1.46 0 1 0 2.92 0.04 1.46 1.46 0 0 0-2.92-0.04z" fill="#FFF"/>
  <path d="M22 19a3.59 3.59 0 0 1-3.62-3.61A3.63 3.63 0 1 1 22 19z" fill="#00ADEE"/>
</svg>
