<?xml version="1.0" ?>
<svg xmlns="http://www.w3.org/2000/svg" width="31" height="36" viewBox="0 0 31 36">
  <path d="M4.52 25.21l0.13 0.19 c0.283 0.25 0.413 0.63 0.34 1a9.56 9.56 0 0 1-0.26 1.18 2.68 2.68 0 0 0-0.09 1.09 0.63 0.63 0 0 0 0.39 0.49 c0.35 0.191 0.72 0.349 1.1 0.47 0.54 0.17 1.1 0.29 1.66 0.41 0.32 0.07 0.65 0.1 1 0.15l1.29 0.19 0.68 0.09 a3.66 3.66 0 0 1 2.7 1.4 10.64 10.64 0 0 1 1.22 2.25 0.78 0.78 0 0 1-1.42 0.64 c-0.21-0.42-0.4-0.85-0.62-1.26a4.68 4.68 0 0 0-0.47-0.72 2 2 0 0 0-1.43-0.78l-1.83-0.26c-0.58-0.09-1.17-0.17-1.74-0.29a9.09 9.09 0 0 1-3-1A2.15 2.15 0 0 1 3.1 29a3.45 3.45 0 0 1 0-1.32c0.06-0.28 0.14 -0.55 0.21 -0.82a0.47 0.47 0 0 0-0.31-0.6 0.78 0.78 0 0 1-0.6-1 1.3 1.3 0 0 1 0.25-0.42c0.08-0.1 0.1 -0.14 0-0.23a0.76 0.76 0 0 1-0.25-1.07c0.13-0.29 0.25 -0.58 0.37 -0.87 0.12 -0.29 0-0.25-0.19-0.3A7.18 7.18 0 0 1 1 22a1.74 1.74 0 0 1-1-1.25 1.7 1.7 0 0 1 0.22-1.2c0.67-1.14 1.35-2.29 2-3.44 0.38 -0.67 0.72 -1.36 1.09-2 0.16-0.29 0-0.58 0-0.87 0-0.29-0.07-0.84 0-1.25a9.43 9.43 0 0 1 0.16-1.5 9.15 9.15 0 0 1 0.44-1.59A12.75 12.75 0 0 1 7.28 4a15.1 15.1 0 0 1 4.33-2.82A13.13 13.13 0 0 1 13.8 0.42 c0.793-0.2 1.603-0.32 2.42-0.36A7.36 7.36 0 0 1 17 0c0.52 0 1 0.08 1.56 0.14 0.56 0.06 0.77 0.09 1.15 0.16 0.38 0.07 0.84 0.17 1.25 0.29 0.78 0.21 1.54 0.49 2.27 0.84 0.822 0.394 1.603 0.87 2.33 1.42a11.56 11.56 0 0 1 2.94 3.29 9.68 9.68 0 0 1 1.11 2.58c0.164 0.606 0.297 1.22 0.4 1.84A11.6 11.6 0 0 1 30.1 13a15.1 15.1 0 0 1-0.28 2 14.94 14.94 0 0 1-1.52 4c-0.49 0.92 -1 1.84-1.48 2.78a12.5 12.5 0 0 0-1 2.6 4.29 4.29 0 0 0-0.06 1.92c0.168 0.818 0.423 1.616 0.76 2.38a32.29 32.29 0 0 0 2 3.75c0.21 0.322 0.4 0.656 0.57 1a0.76 0.76 0 0 1-0.81 1 0.73 0.73 0 0 1-0.59-0.36c-0.46-0.77-0.93-1.53-1.38-2.3a18.92 18.92 0 0 1-1.72-3.71c-0.16-0.53-0.28-1.09-0.41-1.64a5.07 5.07 0 0 1-0.05-1.78c0.12-0.722 0.314 -1.429 0.58 -2.11a30.57 30.57 0 0 1 1.9-3.85A17.23 17.23 0 0 0 28 15.65c0.12-0.4 0.2 -0.83 0.3 -1.24a12.5 12.5 0 0 0 0.19-3.17 7.32 7.32 0 0 0-0.16-1.24 14 14 0 0 0-0.5-1.71A9.7 9.7 0 0 0 25 4.4a11.08 11.08 0 0 0-3.55-2 18.09 18.09 0 0 0-1.92-0.51 11.89 11.89 0 0 0-3.09-0.26 13 13 0 0 0-1.51 0.19 c-0.48 0.09 -1 0.21-1.43 0.34 a11.48 11.48 0 0 0-2.24 0.92 14 14 0 0 0-3.41 2.55 10.82 10.82 0 0 0-2.5 3.91c-0.15 0.478 -0.267 0.966 -0.35 1.46a6.24 6.24 0 0 0-0.06 1.88c0 0.15 0 0.29 0.06 0.44a3.13 3.13 0 0 1-0.45 1.82c-0.59 1.11-1.22 2.21-1.84 3.3l-1 1.78c-0.11 0.18 -0.07 0.3 0.13 0.35 0.2 0.05 0.59 0.15 0.89 0.22 l0.83 0.17 0.41 0.08 a0.8 0.8 0 0 1 0.63 1.13c-0.13 0.37 -0.26 0.73 -0.38 1.1 0 0.1 0 0.19 0.1 0.21 0.4 0.07 0.81 0.15 1.22 0.19 a0.87 0.87 0 0 1 0.72 0.45 0.79 0.79 0 0 1-0.68 1.13 8.12 8.12 0 0 1-0.85-0.07 0.83 0.83 0 0 0-0.21 0.03 z" fill="#FFF"/>
  <path d="M17.51 21.41a0.73 0.73 0 0 1 0.29-0.71 0.74 0.74 0 0 1 0.84-0.08 0.8 0.8 0 0 1 0.45 0.69 0.6 0.6 0 0 0 0.46 0.64 0.56 0.56 0 0 0 0.65-0.16 3.49 3.49 0 0 0 0.4-0.67 5.66 5.66 0 0 1 1.11-1.71 7.8 7.8 0 0 0 1-1.2 1.93 1.93 0 0 0-1-2.82 1.85 1.85 0 0 0-2.21 0.9 0.81 0.81 0 0 1-1.11 0.39 0.73 0.73 0 0 1-0.34-1A3.08 3.08 0 0 1 20 13.94a3.32 3.32 0 0 1 3.29 0.54 3.28 3.28 0 0 1 1.21 2 3.5 3.5 0 0 1-0.63 2.95 6.63 6.63 0 0 1-0.74 0.85 A4.93 4.93 0 0 0 21.91 22a2.33 2.33 0 0 1-1.59 1.45 2.17 2.17 0 0 1-1.72-0.24 2.14 2.14 0 0 1-1.09-1.8zM8.78 16.83a0.78 0.78 0 0 1-0.85-0.83c0-0.25 0-0.27-0.27-0.34l-0.48-0.15a0.73 0.73 0 0 1-0.43-0.75 0.75 0.75 0 0 1 0.54-0.69 1.37 1.37 0 0 1 0.85 0.1 c0.68 0.18 1.36 0.39 2 0.59 0.33 0.1 0.67 0.18 1 0.3a0.76 0.76 0 0 1 0.47 0.91 0.78 0.78 0 0 1-0.67 0.59 c-0.45 0.05 -0.89 0.12 -1.33 0.18 l-0.83 0.09 zM13.15 18.63l0.59 0.65 c0.08 0.09 0 0.15-0.05 0.2 -0.34 0.21 -0.68 0.44 -1 0.63a6 6 0 0 1-0.7 0.28 c-0.13 0.05 -0.22 0-0.25-0.14s-0.12-0.44-0.17-0.66c0 0 0-0.13 0.06 -0.13a4.32 4.32 0 0 0 1.52-0.83zM6.55 17.27s0.07 0.07 0.08 0.1 c0.22 0.477 0.54 0.9 0.94 1.24a0.12 0.12 0 0 1 0 0.2l-0.45 0.57 c-0.06 0.09 -0.12 0.09 -0.21 0a4.91 4.91 0 0 1-1.19-1.56c-0.1-0.21-0.1-0.21 0.1 -0.3l0.73-0.25zM15.15 12.38l-1.67-1c0.09-0.25 0.2 -0.53 0.32 -0.8h0.19c0.291 0.127 0.575 0.27 0.85 0.43 0.27 0.17 0.52 0.36 0.78 0.54 0.1 0.07 0.11 0.14 0 0.24-0.11 0.1 -0.31 0.41 -0.47 0.59 zM15.6 26.1l-1.17 0.56 c-0.2 0.1 -0.41 0.17 -0.61 0.26 s-0.22 0.07 -0.27-0.1c-0.05-0.17-0.15-0.41-0.23-0.61-0.08-0.2 0-0.15 0.09 -0.2l1.59-0.73a0.18 0.18 0 0 1 0.16 0c0.14 0.27 0.28 0.53 0.44 0.82 zM10.2 27.06c0-0.17 0.08 -0.22 0.22 -0.25l1.58-0.33c0.11 0 0.19 0 0.22 0.13 s0.12 0.4 0.18 0.6 c0.06 0.2 0 0.2-0.11 0.23 l-1.57 0.34 c-0.39 0.07 -0.39 0-0.44-0.35v-0.18l-0.08-0.19zM9.35 11.22a6.5 6.5 0 0 0-1.62 0.78 h-0.2l-0.4-0.6c-0.06-0.09 0-0.14 0-0.19a6.87 6.87 0 0 1 1.66-0.8 0.43 0.43 0 0 1 0.13 0 0.26 0.26 0 0 1 0.14 0.07 l0.29 0.74 zM8.21 20.16l0.34-0.78c0-0.09 0.09 -0.11 0.17 -0.07a5.59 5.59 0 0 0 1.55 0.34 0.16 0.16 0 0 1 0.14 0.12 v0.7c0 0.23 0 0.15-0.14 0.14 -0.36 0-0.72-0.06-1.08-0.12a7.49 7.49 0 0 1-0.81-0.23 1.31 1.31 0 0 1-0.17-0.1zM11.37 10l1 0.1c0.19 0 0.22 0.06 0.19 0.26 s-0.09 0.45 -0.15 0.68 a0.17 0.17 0 0 1-0.14 0.06 5.64 5.64 0 0 0-1.65-0.1 0.15 0.15 0 0 1-0.19-0.14c0-0.23 0-0.46-0.08-0.69-0.08-0.23 0-0.16 0.16 -0.16h0.86V10zM6.93 28c0-0.31 0-0.59 0.05 -0.87 0 0 0.11-0.09 0.17 -0.09h1.58c0.3 0 0.3 0 0.31 0.3 v0.33a2.55 2.55 0 0 0 0 0.34L6.93 28zM17.42 23.66l0.55 0.68 a0.14 0.14 0 0 1 0 0.14l-1.29 1-0.5-0.79a0.15 0.15 0 0 1 0-0.12l1.24-0.91zM16.69 12.54l0.83 1.19c-0.29 0.16 -0.54 0.31 -0.81 0.44 0 0-0.12 0-0.15-0.06l-0.62-0.92 0.75 -0.65z" fill="#FFF"/>
</svg>
