<?xml version="1.0" ?>
<svg xmlns="http://www.w3.org/2000/svg" width="52" height="31" viewBox="0 0 52 31">
  <path d="M23.35 24.85h-16a1.32 1.32 0 0 1-1.47-1.4v-4.67-3.84-4.4-3.8-5.46A1.21 1.21 0 0 1 7.13 0h32.46a1.25 1.25 0 0 1 1.27 1.38v21.81a1.38 1.38 0 0 1-1 1.54 2 2 0 0 1-0.67 0.07 H23.35v0.05zm0-21.92H7.87c-0.58 0-0.57 0-0.57 0.59 v18c0 0.37 0.14 0.5 0.49 0.47 0.35 -0.03 0.55 0 0.83 0h30.25c0.54 0 0.55 0 0.55-0.55v-6.29V3.44c0-0.49 0-0.5-0.51-0.5l-15.56-0.01zm0.56-1.32a0.56 0.56 0 1 0-1.11 0 0.63 0.63 0 0 0 0.57 0.63 0.61 0.61 0 0 0 0.54-0.63zM23.38 29.23h5.39c0.36 0 0.47-0.11 0.47 -0.47 0-1-0.26-1 1-1h15.98c0.31 0 0.47 0.11 0.46 0.44 -0.01 0.33 0 0.68 0 1a1.44 1.44 0 0 1-1.25 1.43 18.91 18.91 0 0 1-2.1 0.09 H1.59A1.45 1.45 0 0 1 0 29.08v-0.94c0-0.31 0.12 -0.4 0.41 -0.4h16.67c0.31 0 0.44 0.1 0.42 0.42 -0.02 0.32 0 0.38 0 0.56 0 0.51 0 0.51 0.5 0.51h5.38z" fill="#FFF"/>
  <path d="M23.91 1.61a0.61 0.61 0 0 1-0.54 0.61 0.63 0.63 0 0 1-0.57-0.63 0.56 0.56 0 1 1 1.11 0v0.02z" fill="#FFF" stroke-width=".21" stroke="#FFF"/>
  <path d="M51.9 16.47v5.94a1 1 0 0 1-0.21 0.64 0.69 0.69 0 0 1-0.51 0.26 H45a0.75 0.75 0 0 1-0.76-0.52 0.94 0.94 0 0 1-0.06-0.33v-4.19-5.77-2a0.9 0.9 0 0 1 0.29-0.69 0.7 0.7 0 0 1 0.43-0.17h6.2a0.74 0.74 0 0 1 0.74 0.51 1 1 0 0 1 0.06 0.34 v5.99-0.01zm-7-0.27v5.07c0 0.09 0 0.09 0.09 0.09h6c0.08 0 0.08 0 0.08-0.08v-9.24-0.89c0-0.05 0-0.07-0.07-0.07h-6c-0.12 0-0.11 0-0.11 0.11 0.033 1.667 0.05 3.337 0.05 5.01h-0.04zm2.61 6.11a0.55 0.55 0 1 0 1.1 0 0.55 0.55 0 0 0-1.1 0zM48 10.26h-0.53c-0.05 0-0.08 0-0.08 0.07 a0.89 0.89 0 0 1 0 0.1c0 0.07 0 0.08 0.08 0.08h1.06c0.05 0 0.07 0 0.07-0.07a0.78 0.78 0 0 1 0-0.11c0-0.05 0-0.07-0.07-0.07H48z" fill="#FFF"/>
</svg>
