<?xml version="1.0" ?>
<svg xmlns="http://www.w3.org/2000/svg" width="36" height="36" viewBox="0 0 36 36">
  <path d="M1.12 26.14l0.66-0.22 1.51-0.49c0.41-0.13 0.82 -0.27 1.24-0.38a1.51 1.51 0 0 0 1.15-0.87 1.87 1.87 0 0 0 0.08-1.12c0-0.27-0.14-0.53-0.18-0.8a0.26 0.26 0 0 0-0.19-0.26c-0.47-0.15-0.95-0.28-1.42-0.45a13.45 13.45 0 0 1-3.46-1.63 1.16 1.16 0 0 1-0.51-1V12c0.087 0.024 0.17 0.057 0.25 0.1 1.14 0.58 2.26 1.18 3.4 1.76 0.27 0.105 0.57 0.105 0.84 0a2 2 0 0 0 1.13-1c0.08-0.146 0.17 -0.286 0.27 -0.42a0.27 0.27 0 0 0 0-0.36 20.84 20.84 0 0 1-1.4-3A11.76 11.76 0 0 1 4 7.28a1.17 1.17 0 0 1 0.11-1 1.29 1.29 0 0 1 0.16-0.17l4.8-4.8 0.21 -0.19c0.09 0.28 0.18 0.54 0.26 0.8 L10 3.39c0.154 0.405 0.284 0.82 0.39 1.24A1.49 1.49 0 0 0 12 5.8c0.28-0.03 0.559 -0.083 0.83 -0.16a0.7 0.7 0 0 1 0.14 0c0.36-0.06 0.38 -0.09 0.48 -0.42A17.56 17.56 0 0 1 15.26 0.85 1.77 1.77 0 0 1 16 0.09a1.11 1.11 0 0 1 0.4-0.09h7.12c-0.11 0.22 -0.19 0.4 -0.29 0.58 -0.52 1-1.07 2-1.57 3.07a1.22 1.22 0 0 0 0 0.71c0.13 0.538 0.498 0.988 1 1.22 0.17 0.1 0.34 0.22 0.51 0.31a0.31 0.31 0 0 0 0.23 0c0.86-0.41 1.7-0.86 2.58-1.24 0.65 -0.262 1.32-0.48 2-0.65A1.6 1.6 0 0 1 29 4a0.82 0.82 0 0 1 0.25 0.16 l5 4.95 0.13 0.15-0.71 0.24 -1.27 0.4 -1.25 0.39 a4.83 4.83 0 0 0-0.76 0.25 1.4 1.4 0 0 0-0.6 0.75 1.82 1.82 0 0 0 0 1.13c0.071 0.217 0.118 0.442 0.14 0.67 0 0.22 0.15 0.26 0.31 0.31a18.68 18.68 0 0 1 4.15 1.67c0.307 0.19 0.598 0.404 0.87 0.64 a0.79 0.79 0 0 1 0.26 0.62 v7.14l-0.53-0.26-3.1-1.62a1.15 1.15 0 0 0-0.91 0 2 2 0 0 0-1.09 1 0.9 0.9 0 0 1-0.18 0.28 0.45 0.45 0 0 0 0 0.61A18.83 18.83 0 0 1 31 26.25c0.17 0.48 0.35 1 0.47 1.46 0.075 0.358 0.105 0.724 0.09 1.09a0.73 0.73 0 0 1-0.22 0.39 l-3.93 3.92c-0.32 0.33 -0.64 0.66 -1 1a1 1 0 0 1-0.19 0.14 l-0.76-2.43c-0.15-0.47-0.29-0.94-0.44-1.4a1.3 1.3 0 0 0-0.72-0.7 1.9 1.9 0 0 0-1.35-0.05 2.26 2.26 0 0 1-0.43 0.11 c-0.29 0-0.37 0.18 -0.45 0.41 -0.25 0.75 -0.51 1.5-0.78 2.24a9.94 9.94 0 0 1-1 2 6.14 6.14 0 0 1-0.66 0.79 0.56 0.56 0 0 1-0.38 0.14 h-7.29c0.12-0.25 0.23 -0.49 0.35 -0.72 0.51 -1 1-2 1.52-2.95a1.21 1.21 0 0 0 0-0.68 2 2 0 0 0-1.1-1.28 4.36 4.36 0 0 0-0.41-0.24 0.34 0.34 0 0 0-0.26 0c-0.87 0.41 -1.72 0.87 -2.6 1.24a16.17 16.17 0 0 1-2 0.66 1.39 1.39 0 0 1-0.88 0 0.91 0.91 0 0 1-0.31-0.16l-5-5-0.15-0.09zm22.09-8.42a5.53 5.53 0 1 0-11.06-0.02 5.53 5.53 0 0 0 11.06 0.02 zM8.38 19.06a1.34 1.34 0 0 0 1.36-1.39 1.35 1.35 0 0 0-1.37-1.31A1.38 1.38 0 0 0 7 17.81a1.33 1.33 0 0 0 1.38 1.25zm9.27-9.26A1.34 1.34 0 0 0 19 8.46a1.36 1.36 0 1 0-1.35 1.34zm0 18.51A1.32 1.32 0 0 0 19 27a1.36 1.36 0 0 0-2.72 0 1.33 1.33 0 0 0 1.35 1.31h0.02zm9.26-9.25a1.33 1.33 0 0 0 1.37-1.34 1.36 1.36 0 1 0-2.334 0.947 c0.25 0.252 0.59 0.393 0.944 0.393 h0.02z" fill="#FFF"/>
  <path d="M17.71 13.25a4.48 4.48 0 1 1-4.5 4.52 4.43 4.43 0 0 1 4.5-4.52z" fill="#FFF"/>
</svg>
