<?xml version="1.0" ?>
<svg xmlns="http://www.w3.org/2000/svg" width="44" height="30" viewBox="0 0 44 30">
  <path d="M17.23 12.22l0.12 0.26 a8.46 8.46 0 0 1 0.65 1.84 8.31 8.31 0 0 1 0.16 2.11 2.86 2.86 0 0 1-0.3 1.17 1.3 1.3 0 0 1-0.95 0.6 4.15 4.15 0 0 1-1.45 0 8.3 8.3 0 0 1-1.1-0.24c-0.42-0.12-0.84-0.25-1.24-0.4a6.07 6.07 0 0 1-1.51-0.8 2.24 2.24 0 0 1-0.82-1.18 2.87 2.87 0 0 1-0.11-0.57 2.14 2.14 0 0 1 0.74-1.7l0.21-0.24-0.32-0.63A3.5 3.5 0 0 0 10.06 14a4.22 4.22 0 0 0-0.14 0.79 0.2 0.2 0 0 1-0.14 0.17 l-1.38 0.4 a6 6 0 0 1-2 0.19 1.67 1.67 0 0 1-0.79-0.22 1.23 1.23 0 0 1-0.51-0.76 5.9 5.9 0 0 1 0-2.51c0.092-0.477 0.212 -0.948 0.36 -1.41a4.94 4.94 0 0 1 0.62-1.34 2.79 2.79 0 0 1 1.47-1.19c0.09 0 0.21 0 0.26-0.09 0.05 -0.09 0-0.18 0-0.27a2.09 2.09 0 0 1 0.64-1.26 3.91 3.91 0 0 1 1.18-0.8c0-0.14 0-0.26-0.05-0.38a2.17 2.17 0 0 1 0.93-2.12c0.32-0.25 0.678 -0.45 1.06-0.59l0.86-0.3a1.3 1.3 0 0 0 0.73-0.79 2.77 2.77 0 0 0 0.19-1c0-0.42 0.2 -0.57 0.61 -0.45a4.89 4.89 0 0 1 1.45 0.71 c0.521 0.361 0.941 0.85 1.22 1.42a0.75 0.75 0 0 0 0.48 0.44 2.82 2.82 0 0 1 1.61 1.72c0.164 0.415 0.259 0.854 0.28 1.3 0 0.09 0 0.15 0.12 0.17 0.503 0.18 0.925 0.535 1.19 1 0.211 0.36 0.354 0.757 0.42 1.17 0 0.2 0.06 0.21 0.26 0.16a1.69 1.69 0 0 1 0.89 0.08 3 3 0 0 1 1.62 1.55c0.251 0.482 0.443 0.992 0.57 1.52 0.098 0.429 0.172 0.863 0.22 1.3 0.042 0.368 0.058 0.74 0.05 1.11A2.84 2.84 0 0 1 24 15a1.24 1.24 0 0 1-0.84 0.6 4.57 4.57 0 0 1-1.33 0 6.19 6.19 0 0 1-0.94-0.17c-0.32-0.08-0.65-0.16-1-0.26s-0.73-0.27-1.09-0.42a0.35 0.35 0 0 1-0.13-0.2c-0.1-0.41-0.16-0.83-0.28-1.23a9.4 9.4 0 0 0-0.39-1s0-0.07-0.07-0.07l-0.7-0.03zm0.5-0.64h0.37a2.59 2.59 0 0 0 1.36-0.77c0.3-0.32 0.505 -0.72 0.59 -1.15a3.31 3.31 0 0 0 0-0.89 4 4 0 0 0-0.35-1.27 1.64 1.64 0 0 0-0.83-0.85h-0.18c-0.05 0-0.3 0.32 -0.47 0.45 a0.25 0.25 0 0 0-0.12 0.28 2.68 2.68 0 0 1-0.07 1.16 1.88 1.88 0 0 1-0.77 1.13 2.8 2.8 0 0 1-1.58 0.51 14.12 14.12 0 0 1-1.68-0.06 10.94 10.94 0 0 1-1.15-0.12c-0.2 0-0.4-0.09-0.6-0.11a1.56 1.56 0 0 0-0.65 0c-0.36 0.13 -0.48 0.48 -0.59 0.82 -0.11 0.34 0 0.31 0.16 0.43 0.372 0.351 0.671 0.773 0.88 1.24a3 3 0 0 0 1.17 1.37 1 1 0 0 0 1.25-0.06 3 3 0 0 0 0.82-1.46 1.18 1.18 0 0 1 0.49-0.7 1.58 1.58 0 0 1 1.22-0.11l0.73 0.16 zm-0.28-4h-0.08a3.62 3.62 0 0 1-0.53 0.17 12 12 0 0 1-1.34 0.2 12.66 12.66 0 0 1-2.75-0.14l-0.42-0.08a6.2 6.2 0 0 0-0.72-0.16A2.25 2.25 0 0 0 9.93 8a4.19 4.19 0 0 0-1.1 1.27v0.2c0.39 0.465 0.903 0.811 1.48 1 0.1-0.21 0.17 -0.42 0.28 -0.61A1.36 1.36 0 0 1 12 9.1c0.45 0 0.9 0.13 1.35 0.18 0.45 0.05 1 0.14 1.48 0.17 a4 4 0 0 0 1.78-0.24 1.41 1.41 0 0 0 0.84-1.67v0.04zm-2-5.78a0.17 0.17 0 0 0 0 0.1c0.146 0.312 0.21 0.656 0.19 1a4.12 4.12 0 0 1-0.1 0.86 A3.71 3.71 0 0 1 15 4.87 1.15 1.15 0 0 0 14.87 6a2.63 2.63 0 0 0 1 1.12 0.28 0.28 0 0 0 0.18 0l0.76-0.12a2.64 2.64 0 0 0 1-0.45c0.17-0.12 0.34 -0.24 0.35 -0.49a3.58 3.58 0 0 0-0.16-1.5 2.09 2.09 0 0 0-1.59-1.37 0.41 0.41 0 0 1-0.29-0.32 5 5 0 0 0-0.28-0.67 2.81 2.81 0 0 0-0.38-0.44l-0.01 0.04 zm-0.86 0.08 c-0.06 0.27 -0.1 0.51 -0.17 0.74 A3.21 3.21 0 0 1 13.48 4a6.5 6.5 0 0 0-0.92 0.82 1.8 1.8 0 0 0-0.38 0.8 1.27 1.27 0 0 0 0.33 1.05c0.19 0.21 0.36 0.46 0.69 0.48 l1.49 0.08 h0.1v-0.07a2.38 2.38 0 0 1-0.65-1.38 2 2 0 0 1 0.19-1.1 5.59 5.59 0 0 0 0.57-1.18 2.09 2.09 0 0 0-0.3-1.66l-0.01 0.04 zm-0.82 0.08 a2.3 2.3 0 0 1-0.64 0.82 4.34 4.34 0 0 1-1.21 0.52 3.64 3.64 0 0 0-1.15 0.65 1.43 1.43 0 0 0-0.51 1.23c0.03 0.224 0.081 0.445 0.15 0.66 a0.42 0.42 0 0 1-0.22 0.44 3.77 3.77 0 0 0-1 0.57 1.58 1.58 0 0 0-0.65 1.48 3.4 3.4 0 0 1 3.19-1.53 4.18 4.18 0 0 1-0.18-0.39 2.09 2.09 0 0 1 0.18-1.66 3.33 3.33 0 0 1 0.91-1 3.05 3.05 0 0 0 1.07-1.35 0.63 0.63 0 0 0 0.07-0.48l-0.01 0.04 zm9 10.78a0.16 0.16 0 0 0-0.13 0.18 0.6 0.6 0 0 0 0.45 0.56 0.18 0.18 0 0 0 0.24-0.16 0.65 0.65 0 0 0-0.54-0.62l-0.02 0.04 zm-2.52 1a0.67 0.67 0 0 0-0.39-0.46c-0.1 0-0.2-0.07-0.25 0a0.4 0.4 0 0 0 0 0.26 0.69 0.69 0 0 0 0.39 0.46 c0.14 0 0.27-0.06 0.27 -0.27l-0.02 0.01 zm-3.63 1.56c-0.13 0-0.18 0.06 -0.19 0.19 a0.65 0.65 0 0 0 0.38 0.52 L17 16c0.09 0 0.18-0.09 0.19 -0.19a0.64 0.64 0 0 0-0.55-0.52l-0.02 0.01 zm-3.91-0.3a0.67 0.67 0 0 0-0.4-0.52c-0.17 0-0.31 0-0.3 0.18 a0.61 0.61 0 0 0 0.49 0.54 c0.15 0.04 0.21-0.01 0.21 -0.2zm8.92-5a0.66 0.66 0 0 0-0.46-0.54c-0.17 0-0.27 0.07 -0.25 0.24 a0.67 0.67 0 0 0 0.47 0.49 c0.15 0.1 0.24 0.03 0.24-0.12V10zm-14 2.37c0 0.17 0.06 0.22 0.22 0.2a0.7 0.7 0 0 0 0.5-0.52 0.18 0.18 0 0 0-0.2-0.2 0.64 0.64 0 0 0-0.51 0.59 l-0.01-0.07zm14 0.07a0.66 0.66 0 0 0-0.44-0.48c-0.16-0.06-0.31 0.05 -0.26 0.21 a0.67 0.67 0 0 0 0.44 0.51 c0.15 0.12 0.26 0.03 0.26-0.17v-0.07zm-7.56 3.87a0.59 0.59 0 0 0-0.39-0.52 0.26 0.26 0 0 0-0.23 0 0.26 0.26 0 0 0-0.06 0.23 0.64 0.64 0 0 0 0.41 0.45 c0.2 0.14 0.27 0.07 0.27-0.09v-0.07zm8.44-5.49a0.19 0.19 0 0 0-0.19 0.26 0.72 0.72 0 0 0 0.33 0.43 c0.18 0.1 0.36 0 0.37-0.13a0.62 0.62 0 0 0-0.51-0.49v-0.07zm-7.17 5.66a0.52 0.52 0 0 0 0.33 0.48 0.32 0.32 0 0 0 0.27 0c0.11 0 0.09-0.18 0.06 -0.28a0.59 0.59 0 0 0-0.39-0.41c-0.17 0.03 -0.27 0.1 -0.27 0.28 v-0.07zm1-3.07c-0.15 0-0.19 0-0.2 0.18 a0.63 0.63 0 0 0 0.38 0.52 c0.18 0.06 0.32 0 0.32-0.16a0.62 0.62 0 0 0-0.51-0.47l0.01-0.07zm-10-2.17c0 0.17 0.09 0.26 0.22 0.22A0.66 0.66 0 0 0 7 11a0.19 0.19 0 0 0-0.19-0.24 0.61 0.61 0 0 0-0.52 0.55 l0.05-0.07zM9 13.7c0 0.14 0.08 0.23 0.19 0.21a0.64 0.64 0 0 0 0.51-0.52 0.19 0.19 0 0 0-0.19-0.22c-0.24 0.04 -0.51 0.3 -0.51 0.53 zm6.42 1.43a0.62 0.62 0 0 0-0.48-0.54 0.21 0.21 0 0 0-0.21 0.26 0.65 0.65 0 0 0 0.34 0.42 c0.18 0.11 0.35 0.04 0.35-0.14zm-9-2.5a0.58 0.58 0 0 0-0.5 0.45 c0 0.19 0.06 0.31 0.25 0.26a0.69 0.69 0 0 0 0.44-0.5c0.06-0.14-0.01-0.22-0.15-0.21h-0.04zm0.6 1.57c0 0.16 0 0.21 0.2 0.2a0.61 0.61 0 0 0 0.48-0.54 0.19 0.19 0 0 0-0.25-0.19 0.69 0.69 0 0 0-0.39 0.53 h-0.04zm15.18 0.07 a0.62 0.62 0 0 0-0.52-0.51 0.2 0.2 0 0 0-0.2 0.23 0.75 0.75 0 0 0 0.34 0.44 0.47 0.47 0 0 0 0.29 0s0.1-0.1 0.13 -0.16h-0.04zm-11.84-1.91c0 0.18 0.08 0.25 0.25 0.21a0.65 0.65 0 0 0 0.4-0.33c0-0.09-0.13-0.36-0.22-0.37a0.66 0.66 0 0 0-0.43 0.49 zM8 9.49a0.56 0.56 0 0 0-0.34 0.38 0.27 0.27 0 0 0 0 0.23 0.18 0.18 0 0 0 0.27 0l0.26-0.1a0.13 0.13 0 0 0 0-0.21L8 9.49zm10.75 3.16l0.12-0.06c0.08-0.07 0-0.23-0.08-0.41-0.08-0.18-0.15 0-0.23 0h-0.2c-0.07 0-0.11 0.07 -0.09 0.15 a0.71 0.71 0 0 0 0.48 0.32 zm-9.56-1.36c0.15 0 0.45-0.22 0.4 -0.28a1 1 0 0 0-0.37-0.24c-0.06 0-0.21 0.25 -0.21 0.37 s0.08 0.15 0.18 0.15 zm11.08-0.12l-0.07-0.09-0.2 0.24 s0.05 0.08 0.09 0.08 c0.04 0 0.18-0.07 0.18 -0.23z" fill="#FFF"/>
  <path d="M4 12.21l-0.52 0.43 a3.68 3.68 0 0 0-1.09 1.52 2.12 2.12 0 0 0-0.06 1.14 2.14 2.14 0 0 0 0.8 1.37 2 2 0 0 0 0.92 0.36 c0.438 0.055 0.88 0.075 1.32 0.06 a1.6 1.6 0 0 1 1.48 0.74 c0.275 0.355 0.576 0.69 0.9 1a2.59 2.59 0 0 0 1 0.57 7.39 7.39 0 0 0 2.8 0.31 6.21 6.21 0 0 0 1.12-0.24c0.41-0.11 0.81 -0.26 1.22-0.37a1.14 1.14 0 0 1 0.75 0.06 c0.35 0.12 0.69 0.25 1 0.36 0.31 0.11 0.63 0.21 0.95 0.3a5 5 0 0 0 0.77 0.16 c0.44 0.066 0.885 0.103 1.33 0.11 a4 4 0 0 0 1.36-0.23 11.18 11.18 0 0 1 1.11-0.38 3.17 3.17 0 0 1 1.5 0c0.469 0.094 0.87 0.396 1.09 0.82 a0.53 0.53 0 0 1 0 0.57 2.26 2.26 0 0 1-0.94 0.9 2.33 2.33 0 0 1-0.53 0.16 l-0.78 0.19 c-0.26 0.06 -0.53 0.11 -0.79 0.15 l-1.56 0.23 c-0.23 0-0.47 0.06 -0.7 0.08 l-1.29 0.09 a40.87 40.87 0 0 1-4.14 0.1 c-0.51 0-1 0-1.54-0.06s-1.09-0.08-1.64-0.14c-0.55-0.06-1-0.11-1.49-0.18-0.49-0.07-0.86-0.16-1.28-0.24-0.42-0.08-0.87-0.16-1.29-0.28-0.69-0.21-1.38-0.44-2.06-0.68A10.6 10.6 0 0 1 1.54 20a3.26 3.26 0 0 1-1.31-1.62 3.88 3.88 0 0 1-0.21-1v-1.41a2.36 2.36 0 0 1 0.5-1.47 5.65 5.65 0 0 1 1.91-1.59c0.46-0.26 1-0.47 1.44-0.71a0.66 0.66 0 0 1 0.15 0l-0.02 0.01 z" fill="#FFF"/>
  <path d="M28 20.07v1.17a3.22 3.22 0 0 1-0.91 1.76 6.05 6.05 0 0 1-1.63 1.16c-0.53 0.28 -1.08 0.54 -1.64 0.77 -0.4 0.16 -0.83 0.28 -1.26 0.41 -0.43 0.13 -0.73 0.21 -1.1 0.29 -0.37 0.08 -0.76 0.16 -1.15 0.23 l-1 0.17-0.52 0.07 c-0.53 0.05 -1.05 0.1 -1.58 0.13 -0.92 0.05 -1.85 0.11 -2.78 0.12 -0.93 0.01 -1.77 0-2.66-0.07-0.51 0-1-0.06-1.52-0.12s-1.12-0.11-1.68-0.16c-0.3 0-0.61-0.09-0.9-0.15-0.29-0.06-0.67-0.15-1-0.23l-1.06-0.28A7.75 7.75 0 0 1 4.8 25c-0.52-0.22-1-0.43-1.56-0.69a6.49 6.49 0 0 1-2-1.41 3.34 3.34 0 0 1-0.72-1.3A4.64 4.64 0 0 1 0.33 20v-0.09a0.62 0.62 0 0 1 0.13 0.09 7.74 7.74 0 0 0 2 1.28c0.52 0.25 1 0.48 1.59 0.7 a10 10 0 0 0 1.1 0.34 c0.36 0.11 0.72 0.22 1.09 0.31 l1.09 0.22 1.35 0.22 c0.2 0.04 0.4 0.07 0.6 0.09 l0.94 0.07 c0.87 0.06 1.74 0.16 2.61 0.16 1.45 0 2.89 0 4.34-0.05 0.55 0 1.1-0.07 1.65-0.13a42.9 42.9 0 0 0 1.91-0.26 25.502 25.502 0 0 0 3.05-0.7 13.35 13.35 0 0 0 2.78-1.18c0.48-0.28 0.92 -0.63 1.38-0.95l0.06-0.05z" fill="#FFF"/>
  <path d="M0.36 23c0.06 0 0.09 0 0.1 0.07 a5.5 5.5 0 0 0 1.67 1.48c0.577 0.36 1.182 0.67 1.81 0.93 0.43 0.18 0.87 0.33 1.31 0.47 0.44 0.14 1 0.3 1.53 0.44 0.34 0.09 0.69 0.15 1 0.21l1.4 0.23 1.4 0.16 c1.17 0.11 2.33 0.14 3.5 0.14 h2.21c0.73 0 1.22-0.13 1.82-0.13 0.6 0 1.06-0.12 1.59-0.19s1-0.16 1.47-0.27c0.47-0.11 1.11-0.26 1.65-0.42 0.54 -0.16 1.18-0.37 1.75-0.6 0.7 -0.282 1.37-0.634 2-1.05A6.89 6.89 0 0 0 28 23.22l0.08-0.07V24.29a3.4 3.4 0 0 1-0.49 1.58 4 4 0 0 1-1.34 1.29 8.87 8.87 0 0 1-1.54 0.85 c-0.4 0.16 -0.8 0.34 -1.21 0.49 -0.41 0.15 -0.77 0.24 -1.16 0.35 -0.39 0.11 -0.79 0.21 -1.19 0.3 -0.4 0.09 -0.58 0.11 -0.88 0.16 -0.47 0.07 -0.93 0.15 -1.4 0.21 -0.47 0.06 -0.77 0.07 -1.16 0.11 a26 26 0 0 1-2.93 0.13 h-2.55c-0.58 0-1.16-0.06-1.74-0.12-0.58-0.06-1.06-0.12-1.58-0.19s-1-0.16-1.44-0.27a15.73 15.73 0 0 1-1.54-0.38 15.14 15.14 0 0 1-2.27-0.86 9.88 9.88 0 0 1-1.89-1.16 3.45 3.45 0 0 1-1.11-1.44 4.3 4.3 0 0 1-0.3-1.67V23zM24.46 21.24a1.27 1.27 0 0 1 0.07-0.21 1 1 0 0 0 0-1 2.21 2.21 0 0 0-1.29-1.22 3 3 0 0 0-1.51-0.18 6.9 6.9 0 0 0-1.53 0.4 4 4 0 0 1-0.84 0.22 4.91 4.91 0 0 1-1.75 0l-1-0.2V19l0.36-0.07a2 2 0 0 0 1.34-0.71c0.2-0.265 0.342 -0.568 0.42 -0.89a4.33 4.33 0 0 0 0.14-1.39v-0.34l0.3 0.11 c0.29 0.09 0.58 0.2 0.88 0.28 0.3 0.08 0.64 0.17 1 0.24 0.124 0.034 0.252 0.057 0.38 0.07 0.485 0.048 0.972 0.071 1.46 0.07 a2.26 2.26 0 0 0 1.32-0.43c0.252-0.2 0.449 -0.462 0.57 -0.76l0.11-0.26c0.15 0.21 0.29 0.38 0.41 0.57 0.224 0.38 0.393 0.792 0.5 1.22a2.9 2.9 0 0 1 0.14 0.65 c0.037 0.44 0.193 0.861 0.45 1.22 0.208 0.321 0.431 0.631 0.67 0.93 0.08 0.1 0 0.16 0 0.24a3.26 3.26 0 0 1-0.84 0.68 10.76 10.76 0 0 1-1.76 0.81 zM13.34 18.44a2.19 2.19 0 0 1-0.27 0.13 l-0.69 0.23 a5 5 0 0 1-1.89 0.15 c-0.29 0-0.58-0.05-0.86-0.11a3 3 0 0 1-1.89-1.06 5.13 5.13 0 0 0-0.93-1 1.79 1.79 0 0 0-1-0.35c-0.53 0-1.06 0-1.59-0.07a1.16 1.16 0 0 1-1.13-0.86 1.65 1.65 0 0 1 0.12-1.35 3.68 3.68 0 0 1 0.86-1l0.1-0.05v0.13c0.001 0.398 0.028 0.795 0.08 1.19a2.22 2.22 0 0 0 0.82 1.49 2.1 2.1 0 0 0 0.93 0.29 5 5 0 0 0 1.68 0 10.47 10.47 0 0 0 1.17-0.2c0.36-0.09 0.71 -0.22 1.06-0.32 0.05 -0.003 0.1 0.02 0.13 0.06a2.9 2.9 0 0 0 1 1.53c0.34 0.247 0.702 0.465 1.08 0.65 0.38 0.2 0.79 0.34 1.22 0.52 zM25.33 12.63l0.41 0.2 A7.27 7.27 0 0 1 27.42 14c0.463 0.416 0.787 0.964 0.93 1.57a1.21 1.21 0 0 1 0 0.19v2a2.68 2.68 0 0 1-0.61 1.57 5.65 5.65 0 0 1-0.4-0.48c-0.22-0.34-0.43-0.69-0.62-1a0.86 0.86 0 0 1-0.09-0.35 5.91 5.91 0 0 0-0.6-2 2.83 2.83 0 0 0-0.71-1 0.18 0.18 0 0 1 0-0.2 3.36 3.36 0 0 0 0.01-1.67zM43.23 24.41v-0.35c-0.07-0.35-0.14-0.69-0.22-1a4.75 4.75 0 0 0-0.55-1.39 3 3 0 0 0-0.57-0.7 4.79 4.79 0 0 1-0.43-0.47 7.79 7.79 0 0 0-2-1.5 4.79 4.79 0 0 0-2.19-0.57 4.59 4.59 0 0 0-1.28 0.16 4.32 4.32 0 0 0-1.09 0.41 c-0.17 0.1 -0.17 0.1 -0.26-0.08a6.65 6.65 0 0 1-0.34-0.77 3.06 3.06 0 0 1-0.21-1.27 1.68 1.68 0 0 1 0.13-0.5 0.75 0.75 0 0 1 0.25-0.25c0.39-0.24 0.77 -0.48 1.17-0.69a8.56 8.56 0 0 1 1-0.43c0.33-0.12 0.67 -0.22 1-0.32l0.64-0.16c0.34-0.07 0.68 -0.14 1-0.19 0.32 -0.05 0.72 -0.09 1.08-0.11a3.13 3.13 0 0 1 1.29 0.17 0.78 0.78 0 0 1 0.41 0.33 c0.18 0.35 0.39 0.69 0.57 1 0.18 0.31 0.29 0.67 0.42 1 0.13 0.33 0.2 0.51 0.28 0.76 0.08 0.25 0.13 0.51 0.19 0.76 s0.11 0.57 0.15 0.86 c0.04 0.29 0.08 0.76 0.11 1.14 0 0.57 0.05 1.13 0.06 1.7a4.61 4.61 0 0 1-0.55 2.33l-0.06 0.13 zM34.41 27.85a0.61 0.61 0 0 0 0.3-0.29 1.32 1.32 0 0 0 0.15-1.13 3.39 3.39 0 0 0-0.79-1.33 0.22 0.22 0 0 1-0.07-0.22 5.36 5.36 0 0 1 0.48-1.55 1.23 1.23 0 0 1 0.54-0.54c0.186-0.11 0.38 -0.207 0.58 -0.29a2.25 2.25 0 0 1 1.9 0c0.296 0.17 0.566 0.382 0.8 0.63 0.22 0.22 0.42 0.44 0.62 0.67 0.069 0.077 0.13 0.16 0.18 0.25 0.23 0.39 0.47 0.76 0.66 1.17 0.273 0.58 0.4 1.22 0.37 1.86a3.09 3.09 0 0 1-0.7 1.78 5.28 5.28 0 0 1-0.73 0.69 0.87 0.87 0 0 1-0.32 0.11 c-0.25 0-0.5 0.08 -0.74 0.1 a6.76 6.76 0 0 1-1.49-0.05 6.2 6.2 0 0 1-2-0.66A6.86 6.86 0 0 1 32.68 28a1.14 1.14 0 0 1-0.37-0.52 1.63 1.63 0 0 1 0-1.21 1 1 0 0 1 0.66-0.53 2.91 2.91 0 0 1 0.66-0.08 0.44 0.44 0 0 1 0.23 0.09 c0.278 0.2 0.485 0.484 0.59 0.81 0.1 0.293 0.12 0.607 0.06 0.91 -0.04 0.12 -0.07 0.24 -0.1 0.38 z" fill="#FFF"/>
  <path d="M34.61 22.45a3.78 3.78 0 0 1 0.07-1.74c0.1-0.37 0.26 -0.73 0.38 -1.1a0.44 0.44 0 0 1 0.34-0.28 7.31 7.31 0 0 1 0.78-0.18c0.286-0.02 0.574 -0.02 0.86 0a5.17 5.17 0 0 1 2.07 0.54 c0.44 0.217 0.853 0.485 1.23 0.8 0.255 0.21 0.499 0.434 0.73 0.67 0.27 0.318 0.52 0.652 0.75 1 0.161 0.218 0.299 0.453 0.41 0.7 0.175 0.368 0.309 0.753 0.4 1.15a4.3 4.3 0 0 1 0.08 1.29c-0.04 0.47 -0.162 0.93 -0.36 1.36a5.39 5.39 0 0 1-0.84 1.27c-0.12 0.14 -0.25 0.27 -0.39 0.39 l-0.41 0.37 -0.54 0.38 h-0.11a0.21 0.21 0 0 1 0-0.13c0.06-0.1 0.13 -0.19 0.18 -0.29a3.25 3.25 0 0 0 0.44-2.09 4.75 4.75 0 0 0-0.23-1 6.26 6.26 0 0 0-0.8-1.56 8.43 8.43 0 0 0-0.82-1.07 3.18 3.18 0 0 0-2-1.08 3.08 3.08 0 0 0-0.91 0 3.88 3.88 0 0 0-1.23 0.54 l-0.08 0.06 zM34 15.92a1.74 1.74 0 0 1-0.18-0.22 10.67 10.67 0 0 1-0.94-1.7 3.09 3.09 0 0 1-0.14-0.43c0-0.08 0-0.11 0.07 -0.14 0.29 -0.15 0.58 -0.28 0.85 -0.44 0.27 -0.16 0.71 -0.47 1.06-0.71a5.45 5.45 0 0 0 0.47-0.37c0.21-0.18 0.41 -0.38 0.61 -0.58a5.19 5.19 0 0 0 0.49-0.55c0.24-0.3 0.46 -0.63 0.69 -0.95a0.12 0.12 0 0 1 0.15-0.06 5 5 0 0 1 1.69 0.79 c0.279 0.212 0.53 0.457 0.75 0.73 a8.2 8.2 0 0 1 0.55 0.89 5 5 0 0 1 0.28 0.67 c0.06 0.21 0.1 0.42 0.15 0.64 0.05 0.22 0 0.1-0.11 0.1 h-0.42l-1.1 0.14 -0.6 0.11 c-0.24 0-0.48 0.11 -0.71 0.18 -0.23 0.07 -0.71 0.22 -1.06 0.34 a5.74 5.74 0 0 0-0.72 0.3 c-0.39 0.21 -0.78 0.43 -1.16 0.66 a8 8 0 0 0-0.64 0.51 l-0.03 0.09 zM32.83 12.77l-0.43 0.23 a0.09 0.09 0 0 1-0.14 0c-0.24-0.28-0.48-0.57-0.72-0.84s-0.57-0.61-0.86-0.92c-0.29-0.31-0.46-0.49-0.66-0.75a3.15 3.15 0 0 1-0.62-1.06 0.83 0.83 0 0 1 0.31-1 1 1 0 0 1 1.24 0s0.09 0.05 0.11 0.09 c0.02 0.04 0.14 0.06 0.21 0a3.3 3.3 0 0 1 1.19-0.29 5 5 0 0 1 1.76 0.19 c0.459 0.122 0.904 0.29 1.33 0.5 0.24 0.13 0.47 0.27 0.71 0.39 0.08 0 0.08 0.09 0.06 0.16 a2.72 2.72 0 0 1-0.54 0.95 c-0.18 0.22 -0.38 0.44 -0.58 0.64 -0.2 0.2 -0.38 0.32 -0.57 0.48 L34 12a3.3 3.3 0 0 1-0.39 0.26 l-0.78 0.51 z" fill="#FFF"/>
</svg>
