<?xml version="1.0" ?>
<svg xmlns="http://www.w3.org/2000/svg" width="35" height="30" viewBox="0 0 35 30">
  <path d="M1.53 12.69a3.28 3.28 0 0 0 1.66 0.12 3.1 3.1 0 0 0 1.72-0.95 3.18 3.18 0 0 0 0.7-1.16c0-0.06 0.15 -0.11 0.23 -0.11H9a0.24 0.24 0 0 1 0.27 0.19 3.17 3.17 0 0 0 4.12 1.872 3.19 3.19 0 0 0 1.84-1.842 0.29 0.29 0 0 1 0.3-0.22h3.58c0.16 0 0.2 0.1 0.24 0.21 A3.17 3.17 0 0 0 21 12.53a2.82 2.82 0 0 0 1.36 0.33 3.12 3.12 0 0 0 2.92-1.76c0.057-0.09 0.1 -0.188 0.13 -0.29 0-0.18 0.15 -0.22 0.31 -0.21h3.09c0.29 0 0.3 0 0.39 0.26 a3 3 0 0 0 1.28 1.53 2.94 2.94 0 0 0 2 0.44l0.71-0.11v13.02a0.71 0.71 0 0 1-0.41 0.71 1 1 0 0 1-0.38 0.07 h-30a0.76 0.76 0 0 1-0.8-0.47 0.86 0.86 0 0 1 0-0.31v-4.81-8c-0.09-0.08-0.08-0.16-0.07-0.24zM21 21.48v-3.84a2.54 2.54 0 0 0-0.15-0.84 2.23 2.23 0 0 0-2-1.42h-3.09a1.79 1.79 0 0 0-0.6 0.09 2.25 2.25 0 0 0-1.5 2.11v8c0 0.17 0 0.22 0.22 0.22h6.88c0.24 0 0.24 0 0.24-0.24v-4.08zM17.35 27.53h15.24a0.71 0.71 0 0 1 0.75 0.7 10.3 10.3 0 0 1 0 1.07 0.72 0.72 0 0 1-0.71 0.57 H2.17a0.75 0.75 0 0 1-0.76-0.45 0.71 0.71 0 0 1 0-0.26v-0.87a0.72 0.72 0 0 1 0.76-0.75h15.18v-0.01zM34.78 8.67h-4.99a0.3 0.3 0 0 1-0.31-0.23c-0.27-0.67-0.54-1.34-0.81-2l-0.62-1.54-0.81-2-0.24-0.6c0-0.12 0-0.18 0.15 -0.18h3.74a0.26 0.26 0 0 1 0.26 0.15 l1.73 3 1.67 2.95 0.23 0.45zM0.06 8.67l0.56-1 1.25-2.2L3.06 3.4c0.22-0.38 0.43 -0.77 0.66 -1.15a0.29 0.29 0 0 1 0.21-0.13h3.79c0.15 0 0.18 0.05 0.12 0.19 l-0.73 1.8-0.88 2.16c-0.26 0.64 -0.51 1.29-0.77 1.93a0.62 0.62 0 0 0-0.06 0.14 c0 0.33-0.26 0.35 -0.53 0.35 H0.26l-0.2-0.02zM22.47 8.69h-2.33c-0.25 0-0.24 0-0.27-0.26-0.06-0.55-0.12-1.1-0.19-1.65 0-0.25-0.06-0.49-0.09-0.74-0.06-0.55-0.11-1.1-0.18-1.65-0.07-0.55-0.14-1-0.21-1.54 0-0.2 0-0.39-0.05-0.59 0 0 0.06-0.1 0.1 -0.13a0.34 0.34 0 0 1 0.15 0H23c0.14 0 0.21 0 0.25 0.17 l0.26 0.89 0.26 0.94 0.27 1c0.12 0.41 0.25 0.83 0.37 1.24 0.12 0.41 0.2 0.76 0.31 1.14 0.11 0.38 0.18 0.65 0.28 1 0.1 0.35 0.06 0.27 -0.18 0.27 l-2.35-0.09zM9.78 8.66l0.49-1.68c0.16-0.55 0.26 -1 0.4-1.44 0.14 -0.44 0.24 -0.8 0.35 -1.2 0.11 -0.4 0.22 -0.79 0.33 -1.18 0.11 -0.39 0.16 -0.59 0.25 -0.88a0.21 0.21 0 0 1 0.24-0.16h3.65c0.16 0 0.2 0.06 0.18 0.21 -0.09 0.78 -0.17 1.56-0.26 2.34-0.09 0.78 -0.15 1.27-0.23 1.9-0.08 0.63 -0.18 1.27-0.18 1.9 0 0.16-0.08 0.22 -0.25 0.22 H10l-0.22-0.03zM3.26 1V0.13c0-0.1 0.07 -0.11 0.15 -0.11h27.82c0.23 0 0.23 0 0.23 0.23 v0.56c0 0.19-0.05 0.2 -0.2 0.2 h-28V1z" fill="#FFF"/>
  <path d="M22.39 9.66h2.4c0.2 0 0.24 0 0.21 0.22 A2.62 2.62 0 0 1 20.13 11a2.21 2.21 0 0 1-0.34-1.13c0-0.14 0-0.19 0.19 -0.19h2.41v-0.02zM12.3 9.66h2.4c0.21 0 0.22 0 0.21 0.22 a2.51 2.51 0 0 1-1.12 1.94 2.37 2.37 0 0 1-1.69 0.46 2.52 2.52 0 0 1-2.2-1.64 5.44 5.44 0 0 1-0.2-0.78c0-0.14 0-0.19 0.19 -0.19h2.41v-0.01zM2.6 9.66H5c0.21 0 0.22 0 0.21 0.24 a2.54 2.54 0 0 1-0.73 1.59 2.39 2.39 0 0 1-1.06 0.65 2.46 2.46 0 0 1-0.93 0.14 A2.62 2.62 0 0 1 0.33 11 2.19 2.19 0 0 1 0 9.89c0-0.21 0-0.22 0.21 -0.22H2.6v-0.01zM32.12 9.66h2.38c0.21 0 0.22 0 0.21 0.22 A2.48 2.48 0 0 1 33.26 12a2.44 2.44 0 0 1-1.92 0.14 2.55 2.55 0 0 1-1.61-1.45 4 4 0 0 1-0.2-0.9c0-0.13 0.07 -0.15 0.18 -0.15l2.41 0.02 z" fill="#FFF"/>
  <path d="M31.82 19.16a4.43 4.43 0 1 1-4.43-4.44 4.42 4.42 0 0 1 4.43 4.44zm-3.69-0.83v-0.47l-0.13-0.62a0.25 0.25 0 0 0-0.17-0.25l-0.33-0.13-0.64-0.25-0.59-0.24a0.25 0.25 0 0 0-0.25 0c-0.2 0.14 -0.42 0.26 -0.62 0.4 s-0.31 0.25 -0.46 0.38 a0.29 0.29 0 0 0-0.11 0.26 v1.58a0.26 0.26 0 0 0 0.14 0.23 l0.4 0.18 0.72 0.29 c0.06 0.04 0.14 0.04 0.2 0l0.69-0.47 0.93 -0.63a0.16 0.16 0 0 0 0.08-0.14c0.15-0.02 0.15 -0.07 0.15 -0.12h-0.01zm1.67 2.86l-0.06-0.37-0.07-0.52-0.06-0.47v-0.15-0.33a0.08 0.08 0 0 0-0.05-0.07l-0.26-0.11-0.77-0.29a0.31 0.31 0 0 0-0.15 0 0.42 0.42 0 0 0-0.14 0.06 l-1.12 0.66 -0.44 0.3 a0.06 0.06 0 0 0 0 0.08 0.76 0.76 0 0 1 0 0.15V21.43l0.39 0.17 0.62 0.27 0.58 0.25 a0.26 0.26 0 0 0 0.2 0 1.22 1.22 0 0 0 0.33-0.12l0.48-0.35 0.48 -0.36a0.09 0.09 0 0 0 0.05-0.1h-0.01zm1.63-2c0-0.241-0.02-0.482-0.06-0.72 0 0 0-0.11-0.07-0.13l-0.64-0.23h-0.08l-0.32 0.55 -0.35 0.58 a0.36 0.36 0 0 0-0.06 0.25 v0.31c0 0.1 0 0.4 0.06 0.59 0.06 0.19 0 0.38 0.06 0.57 0.06 0.19 0 0.13 0.08 0.16l0.15 0.06 0.44 0.16 a0.06 0.06 0 0 0 0.09 0 4.12 4.12 0 0 0 0.48-1c0.064-0.202 0.11 -0.41 0.14 -0.62 0.07 -0.18 0.08 -0.37 0.09 -0.5l-0.01-0.03zm-5.1-3.68v0.44a0.14 0.14 0 0 0 0.08 0.13 l0.28 0.12 0.58 0.25 0.56 0.27 a0.29 0.29 0 0 0 0.24 0l0.21-0.08 0.36 -0.12 0.36 -0.02h0.16a0.06 0.06 0 0 0 0.05-0.07v-0.27-0.48a0.07 0.07 0 0 0 0-0.05l-0.33-0.16-0.36-0.12-0.33-0.09h-0.63a1.42 1.42 0 0 0-0.46 0c-0.16 0-0.33 0-0.49 0.07 l-0.23 0.06 c-0.04 0.01 -0.04 0.08 -0.04 0.16 l-0.01-0.04zm-1.69 1.82a0.28 0.28 0 0 1 0-0.06v-0.06l-0.57-0.21a0.06 0.06 0 0 0-0.07 0 3.28 3.28 0 0 0-0.29 0.56 c-0.06 0.14 -0.11 0.28 -0.15 0.43 a3.44 3.44 0 0 0-0.08 0.35 3.54 3.54 0 0 0-0.07 0.43 4.29 4.29 0 0 0 0 1.09c0 0.14 0.06 0.27 0.1 0.41 0.04 0.14 0 0.11 0.12 0.09l0.44-0.07s0.09 0 0.1-0.06l0.08-0.22a1.18 1.18 0 0 1 0.18-0.38 3.38 3.38 0 0 0 0.22-0.3 0.4 0.4 0 0 0 0.08-0.27v-0.4-0.89-0.14l-0.09-0.3zm2.7 5.83c0.248 0 0.495-0.02 0.74 -0.06l0.31-0.07a0.75 0.75 0 0 0 0-0.15v-0.38a0.1 0.1 0 0 0 0-0.07l-0.39-0.19-0.65-0.24-0.58-0.25a0.49 0.49 0 0 0-0.16 0 0.32 0.32 0 0 0-0.12 0 3.54 3.54 0 0 1-0.84 0.24 l-0.29 0.05 h-0.06c-0.01 0 0 0.14 0 0.21v0.25c0.245 0.164 0.51 0.296 0.79 0.39 l0.32 0.1 h0.23c0.082 0.026 0.165 0.046 0.25 0.06 l0.45 0.11 zm3.94-5.06a0.32 0.32 0 0 0 0-0.07 1.75 1.75 0 0 0-0.08-0.26c-0.09-0.2-0.18-0.41-0.29-0.61a3.74 3.74 0 0 0-1.22-1.35l-0.12-0.08v0.2c0.009 0.12 0.009 0.24 0 0.36a0.15 0.15 0 0 0 0.06 0.15 c0.215 0.182 0.41 0.386 0.58 0.61 0.151 0.201 0.279 0.42 0.38 0.65 0.031 0.1 0.11 0.179 0.21 0.21 l0.36 0.12 0.12 0.07 zM24 20.62l-0.3 0.06 a0.71 0.71 0 0 0 0 0.12 4.1 4.1 0 0 0 1.07 1.4l0.23 0.18 v-0.16c0-0.08 0-0.16 0.06 -0.24a0.08 0.08 0 0 0 0-0.1 2.6 2.6 0 0 1-0.56-0.58c-0.11-0.17-0.21-0.36-0.31-0.53-0.1-0.17-0.05-0.17-0.19-0.15z" fill="#D10707"/>
</svg>
