<?xml version="1.0" ?>
<svg xmlns="http://www.w3.org/2000/svg" width="44" height="26" viewBox="0 0 44 26">
  <path d="M21.73 0h18.18a3.44 3.44 0 0 1 2.83 1.34A3.5 3.5 0 0 1 42.47 6l-7.76 8-10.37 10.77a3.5 3.5 0 0 1-5.19 0L1 6a3.44 3.44 0 0 1-1-2.56A3.48 3.48 0 0 1 3.06 0H21.73zm0 2H3.7a2.56 2.56 0 0 0-0.55 0A1.46 1.46 0 0 0 2 3.06a1.49 1.49 0 0 0 0.39 1.56L6.8 9.16l13.78 14.27a1.53 1.53 0 0 0 2.33 0C27.87 18.303 32.823 13.16 37.77 8l3.3-3.42A1.56 1.56 0 0 0 41 2.32 1.7 1.7 0 0 0 39.82 2H21.73z" fill="#FFF"/>
  <path d="M29.21 9.19V4.6c0-0.21 0-0.24-0.24-0.24h-9.13c-0.24 0-0.26 0-0.26 0.23 v2.14c0 0.17 0.07 0.22 0.23 0.22h0.84c0.22 0 0.25 0 0.25 0.26 v2.14c0 0.22 0 0.24 0.24 0.24H23c0.24 0 0.27 0 0.27-0.27V7.25c0-0.27 0-0.3 0.29 -0.3h2.75c0.26 0 0.3 0 0.3 0.3 V11c0 0.33 0 0.36-0.35 0.36 h-6.43c-0.24 0-0.25 0-0.25 0.25 v2.11c0 0.25 0 0.26 0.28 0.26h9.07c0.25 0 0.28 0 0.28-0.27V9.19zm-14.89 1.33v3.27c0 0.21 0 0.23 0.24 0.23h2c0.31 0 0.31 0 0.31-0.3V7.16a0.19 0.19 0 0 1 0.24-0.16H18c0.15 0 0.22 0 0.22-0.2V4.54c0-0.13-0.06-0.18-0.19-0.18h-4.86c-0.13 0-0.18 0-0.18 0.18 v2.22c0 0.14 0.07 0.19 0.21 0.19h0.8c0.27 0 0.3 0 0.3 0.3 l0.02 3.27z" fill="#FFF"/>
  <path d="M29.21 9.19v4.56c0 0.25 0 0.27-0.28 0.27 h-9.07c-0.27 0-0.28 0-0.28-0.26v-2.11c0-0.24 0-0.25 0.25 -0.25h6.44c0.32 0 0.35 0 0.35-0.36V7.25c0-0.26 0-0.3-0.3-0.3h-2.75c-0.27 0-0.29 0-0.29 0.3 v2.07c0 0.25 0 0.27-0.27 0.27 h-1.87c-0.21 0-0.24 0-0.24-0.24V7.21c0-0.23 0-0.26-0.25-0.26h-0.84c-0.16 0-0.23 0-0.23-0.22V4.59c0-0.21 0-0.23 0.26 -0.23H29c0.21 0 0.24 0 0.24 0.24 l-0.03 4.59zM14.32 10.52V7.25c0-0.27 0-0.3-0.3-0.3h-0.82c-0.14 0-0.21 0-0.21-0.19V4.54c0-0.13 0-0.18 0.18 -0.18H18c0.13 0 0.19 0 0.19 0.18 v2.21c0 0.15-0.07 0.2 -0.22 0.2 h-0.89a0.19 0.19 0 0 0-0.22 0.21 v6.56c0 0.3 0 0.3-0.31 0.3 h-2c-0.21 0-0.24 0-0.24-0.23l0.01-3.27z" fill="#FFF"/>
</svg>
