<?xml version="1.0" ?>
<svg xmlns="http://www.w3.org/2000/svg" width="37" height="31" viewBox="0 0 37 31">
  <path d="M31.06 1.21a6.38 6.38 0 0 0-0.49 0.52 A1.32 1.32 0 0 0 31 3.65c0.295 0.142 0.628 0.187 0.95 0.13 a0.17 0.17 0 0 1 0.21 0.12 c0.193 0.473 0.393 0.943 0.6 1.41a0.17 0.17 0 0 1-0.08 0.25 1.33 1.33 0 0 0 0.23 2.37 1.6 1.6 0 0 0 0.82 0.06 0.13 0.13 0 0 1 0.17 0.1 c0.21 0.5 0.42 1 0.64 1.5 0 0.09 0 0.13-0.08 0.17 a1.33 1.33 0 0 0-0.63 1.24 1.28 1.28 0 0 0 0.93 1.18c0.25 0.014 0.5 0.014 0.75 0a0.2 0.2 0 0 1 0.15 0.08 c0.16 0.36 0.3 0.72 0.45 1.08a0.34 0.34 0 0 1 0 0.11l-2.75 1.13-1.89 0.81 L30 16l-1.92 0.81 -1.88 0.76 -1.64 0.68 -1.73 0.75 -1.83 0.75 -1.49 0.61 -1.9 0.8 -1.87 0.76 -1.88 0.8 -1.34 0.54 -1.29 0.54 -1.36 0.57 -1.88 0.79 -1.87 0.77 c-0.13 0.05 -0.26 0.12 -0.4 0.16 a0.15 0.15 0 0 1-0.18-0.09c-0.15-0.34-0.3-0.69-0.44-1 0-0.12 0-0.19 0.1 -0.24a1.27 1.27 0 0 0 0.51-0.65 1.31 1.31 0 0 0-0.63-1.65 1.14 1.14 0 0 0-1-0.11c-0.07 0-0.11 0-0.15-0.08-0.14-0.35-0.29-0.69-0.44-1l-0.2-0.47c0-0.09 0-0.14 0.07 -0.2a1.34 1.34 0 0 0-1-2.44 0.19 0.19 0 0 1-0.14-0.16c-0.21-0.49-0.4-1-0.62-1.49 0-0.11 0-0.14 0.06 -0.19a1.34 1.34 0 0 0 0.6-0.84 1.24 1.24 0 0 0-0.15-1 1.38 1.38 0 0 0-1.24-0.67h-0.1c-0.26 0.06 -0.26 0.06 -0.36-0.18l-0.4-1c0-0.07 0-0.11 0.06 -0.15l1.93-0.7 2.08-0.87 1.52-0.61 1.9-0.79 1.89-0.77 1.88-0.79 1.31-0.53 1.18-0.49 1.31-0.53L16 6l1.18-0.49 1.35-0.56 1.29-0.53 1.38-0.57 1.8-0.74 1.49-0.62 1.88-0.78 1.32-0.55 1.73-0.71 0.92 -0.39c0.19-0.09 0.21 -0.09 0.28 0.09l0.4 1 0.04 0.06 zM3.17 12.89l4.47 10.79 0.51 -0.21 1.54-0.63 1.37-0.57 1.3-0.53 1.35-0.57 1.55-0.64 1.5-0.62 1.31-0.53 1.9-0.8 1.88-0.77 2.22-0.92 1.88-0.76 2.05-0.87 2.76-1.13 2.06-0.87c0.12 0 0.12-0.09 0.08 -0.19-0.14-0.32-0.27-0.65-0.4-1-0.2-0.5-0.4-1-0.61-1.49-0.21-0.49-0.54-1.25-0.8-1.88-0.26-0.63-0.51-1.26-0.77-1.89l-0.93-2.23c-0.28-0.67-0.55-1.35-0.82-2-0.05-0.13-0.13-0.16-0.27-0.1L27 3l-1.89 0.77 -1.91 0.83 -1.68 0.68 -1.88 0.8 -2.45 1-1.48 0.62 -1.35 0.54 -1.87 0.76 -1.73 0.71 -2.39 1-1.89 0.77 -2.78 1.18-0.53 0.23 zM10.84 27.53l-1.12-1.34a0.18 0.18 0 0 1 0-0.17 1.33 1.33 0 0 0 0.34-0.84 0.19 0.19 0 0 1 0.1-0.13l1.46-0.6 0.12 -0.05a0.16 0.16 0 0 1 0.22 0l1 1.25 1.24 1.5c0.12 0.15 0.25 0.29 0.37 0.44 0.12 0.15 0.13 0.1 0.22 0l1.24-1 1.86-1.52 2.29-1.9 2.86-2.35c0.83-0.69 1.68-1.36 2.5-2.07a5.14 5.14 0 0 1 1.46-0.66c0.45-0.2 0.91 -0.38 1.37-0.56l1.75-0.72 0.31 -0.13-0.5 0.43 L27 19.55l-2.9 2.36-3.1 2.56L19.09 26l-2.77 2.3-1.87 1.53-0.81 0.67 c-0.18 0.15 -0.18 0.15 -0.33 0l-0.66-0.8c-0.06-0.07-0.07-0.11 0-0.19a1.33 1.33 0 0 0-0.11-1.89 1.37 1.37 0 0 0-1.54-0.17l-0.16 0.08 z" fill="#FFF"/>
  <path d="M20.27 20.93l-0.91 0.75 -1.54 1.26-1.47 1.21c-0.24 0.2 -0.49 0.39 -0.72 0.6 -0.08 0.07 -0.12 0-0.16 0l-0.35-0.42a0.13 0.13 0 0 1 0-0.22L17 22.56c0.25-0.21 0.49 -0.44 0.76 -0.63a4.14 4.14 0 0 1 0.7-0.32L20 21l0.26-0.1 0.01 0.03zM30 12.57c-0.1-0.23-0.2-0.43-0.28-0.64-0.08-0.21-0.1-0.09-0.17-0.07l-0.76 0.32 -1.32 0.56 -1.92 0.79 -1.32 0.55 -1.89 0.78 -1.34 0.55 -1.9 0.78 -1.31 0.55 -1.9 0.78 -1.32 0.55 -1.34 0.54 -1.88 0.79 -2.21 0.89 c-0.09 0-0.14 0.1 -0.1 0.21 l0.21 0.5 c0 0.08 0.08 0.11 0.18 0.07l1.85-0.78 1.72-0.72 1.82-0.75 1.88-0.76 1.94-0.81 1.87-0.77 1.37-0.56 1.28-0.52 1.9-0.8 1.94-0.79 1.35-0.56 1.65-0.68zM27.12 5.7c-0.08-0.2-0.17-0.38-0.24-0.56-0.07-0.18-0.12-0.11-0.21-0.08l-0.24 0.1 -1.7 0.7 -1.84 0.75 L21 7.4l-2.31 1-2.38 1-1.48 0.6 -1.71 0.72 -1.51 0.61 -1.93 0.81 -1.87 0.77 -1.52 0.63 c-0.11 0-0.13 0.11 -0.09 0.2 0.04 0.09 0.14 0.35 0.22 0.51 a0.14 0.14 0 0 0 0.12 0.06 3.2 3.2 0 0 0 0.35-0.13l1.88-0.79 1.49-0.61 1.88-0.8 1.77-0.72 1.55-0.64 1.12-0.47 1.34-0.55 1.37-0.6 1-0.4 1.3-0.6 1.32-0.56 1.72-0.7L26 6.22l1-0.43a0.56 0.56 0 0 0 0.12-0.09zm-6.38 8.11a0.83 0.83 0 0 0-0.09-0.12l-1.46-1.24a0.29 0.29 0 0 1-0.09-0.22c0.05-0.39 0.13 -0.79 0.19 -1.18v-0.38l-0.59 0.22 a0.31 0.31 0 0 0-0.22 0.3 c0 0.3-0.06 0.61 -0.1 0.91 0 0.11 0 0.21-0.08 0.36 l-0.5-1.18-0.66 0.28 a0.15 0.15 0 0 0-0.06 0.13 c0 0.13 0.1 0.25 0.15 0.38l1.11 2.68a0.76 0.76 0 0 0 0.16 0 2.93 2.93 0 0 1 0.42-0.19c0.18 0 0.15-0.15 0.11 -0.26-0.04-0.11-0.18-0.4-0.26-0.6a0.39 0.39 0 0 1 0.11-0.42l0.88 0.79 c0.08 0.08 0.16 0.13 0.29 0.05 a6.22 6.22 0 0 1 0.69-0.31zm0.69-4l-1.55 0.66 c-0.3 0.12 -0.29 0.11 -0.17 0.41 0.2 0.46 0.38 0.92 0.57 1.38 0.19 0.46 0.38 0.9 0.56 1.35 0.05 0.13 0.11 0.14 0.22 0.09l1.58-0.7c0.13-0.05 0.17 -0.1 0.09 -0.23a1.78 1.78 0 0 1-0.1-0.26c-0.07-0.18-0.11-0.18-0.28-0.1l-0.95 0.39 -0.29-0.7 0.19 -0.1 0.71 -0.3s0.09-0.09 0.08 -0.12c-0.01-0.03-0.13-0.33-0.2-0.5h-0.06l-0.86 0.33 h-0.15c-0.08-0.18-0.14-0.36-0.21-0.56l0.94-0.38c0.07 0 0.16 0 0.11-0.16l-0.23-0.5zM16.21 12a1.33 1.33 0 0 0-0.79 0.26 1.23 1.23 0 0 0-0.39 0.43 1.15 1.15 0 0 0 0 1c0.16 0.454 0.354 0.895 0.58 1.32 0.28 0.51 0.57 0.67 1 0.6 0.294 -0.052 0.57 -0.18 0.8 -0.37a0.78 0.78 0 0 0 0.31-0.77c0-0.2-0.1-0.4-0.15-0.6-0.05-0.2-0.1-0.12-0.18-0.09-0.08 0.03 -0.31 0.14 -0.47 0.2 -0.16 0.06 -0.11 0.09 -0.08 0.18 0.05 0.091 0.087 0.189 0.11 0.29 a0.79 0.79 0 0 1 0 0.45c-0.14 0.21 -0.38 0.15 -0.53-0.12A9.33 9.33 0 0 1 15.7 13a0.31 0.31 0 0 1 0.16-0.36 0.25 0.25 0 0 1 0.35 0.07 1.3 1.3 0 0 1 0.19 0.32 c0 0.12 0.12 0.12 0.21 0.08l0.3-0.13c0.27-0.1 0.27 -0.1 0.16 -0.36a0.88 0.88 0 0 0-0.86-0.62zM25 9.81c0.38 0.09 0.73 0.19 1.09 0.26 0.12 0 0.18 0.07 0.19 0.19 0.01 0.12 0 0.53 0.06 0.79s0 0.23 0.06 0.35l0.56-0.92a0.2 0.2 0 0 1 0.24-0.12l0.8 0.18 h0.33a0.4 0.4 0 0 0-0.09-0.16l-0.64-0.77a0.18 0.18 0 0 1 0-0.16c0.07-0.14 0.16 -0.27 0.25 -0.4l0.4-0.66h-0.14l-0.94 0.4 a0.22 0.22 0 0 1-0.3-0.07l-0.13-0.17-0.63-0.72v0.24c0 0.31 0 0.63 0.08 0.94a0.21 0.21 0 0 1-0.16 0.25 l-0.92 0.39 s-0.11 0.12 -0.11 0.16 zM7.62 16.93l0.19 0.08 1 0.24c0.1 0 0.14 0.06 0.14 0.16 0 0.36 0 0.73 0.08 1.09a0.59 0.59 0 0 0 0 0.09 1.24 1.24 0 0 0 0.12-0.14c0.18-0.28 0.34 -0.57 0.53 -0.85 0 0 0.11-0.11 0.16 -0.1 0.23 0 0.45 0.11 0.67 0.17 l0.5 0.11 -0.07-0.1c-0.21-0.26-0.43-0.51-0.65-0.76a0.21 0.21 0 0 1 0-0.27l0.32-0.52 0.25 -0.44c-0.24 0.1 -0.48 0.18 -0.71 0.29 -0.47 0.22 -0.46 0.22 -0.79-0.17l-0.55-0.63a2.16 2.16 0 0 0 0 0.22c0 0.29 0 0.59 0.07 0.88 0.07 0.29 0 0.25-0.2 0.33 l-1.06 0.32 zm16.12-8.07a1.2 1.2 0 0 0-0.2 0l-1.75 0.72 c-0.12 0-0.14 0.12 -0.11 0.22 0.045 0.124 0.098 0.244 0.16 0.36 a0.14 0.14 0 0 0 0.13 0 3.69 3.69 0 0 0 0.38-0.15c0.15-0.07 0.22 0 0.29 0.12 l0.19 0.49 0.49 1.18c0.08 0.19 0.15 0.38 0.23 0.56 0.08 0.18 0.06 0.16 0.17 0.11 0.11-0.05 0.37 -0.14 0.54 -0.23a0.17 0.17 0 0 0 0.07-0.15c-0.12-0.32-0.26-0.63-0.39-0.94l-0.64-1.52c0.19-0.08 0.37 -0.15 0.55 -0.24a0.16 0.16 0 0 0 0.07-0.14c-0.04-0.07-0.11-0.25-0.18-0.39zm-9.91 7.79l-1-2.36c-0.09-0.22-0.09-0.22 0.14 -0.32 0.43 -0.19 0.42 -0.19 0.25 -0.63-0.07-0.17-0.16-0.12-0.26-0.08l-0.32 0.14 -1.46 0.6 s-0.09 0.1 -0.08 0.13 c0.01 0.03 0.14 0.34 0.21 0.52 l0.48-0.19c0.08 0 0.17-0.09 0.23 0l0.23 0.53 c0.24 0.58 0.49 1.15 0.71 1.73 0.07 0.19 0.13 0.22 0.3 0.13 0.17 -0.09 0.39 -0.12 0.57 -0.19v-0.01zm1.7-0.7L15 14.63c-0.23-0.57-0.47-1.13-0.7-1.7 0-0.12-0.11-0.14-0.21-0.1l-0.5 0.21 c-0.07 0-0.1 0.07 -0.06 0.17 0.14 0.31 0.27 0.62 0.4 0.94 0.27 0.65 0.54 1.3 0.8 2 0.06 0.15 0.13 0.14 0.24 0.1 l0.56-0.3z" fill="#FFF"/>
  <path d="M30 12.57l-1.66 0.68 -1.34 0.56 -1.89 0.77 -1.9 0.8 -1.28 0.52 -1.37 0.56 -1.87 0.77 -1.94 0.81 -1.88 0.76 -1.87 0.77 -1.75 0.72 -1.85 0.78 c-0.1 0-0.15 0-0.18-0.07L9 20.5c0-0.11 0-0.17 0.1 -0.21l2.21-0.89 1.88-0.79 1.34-0.54 1.32-0.55 1.9-0.78 1.31-0.55 1.9-0.78 1.34-0.56 1.89-0.78 1.32-0.55 1.92-0.79 1.32-0.56 0.76 -0.32c0.07 0 0.13 0 0.17 0.07 0.04 0.07 0.19 0.42 0.32 0.65 zM27.12 5.7a0.56 0.56 0 0 1-0.11 0.09 l-1 0.43-1.35 0.57 -1.72 0.7 -1.35 0.51 -1.34 0.54 -1 0.4-1.35 0.56 -1.34 0.55 -1.12 0.47 -1.55 0.64 -1.77 0.72 -1.88 0.8 -1.49 0.61 -1.88 0.79 a3.2 3.2 0 0 1-0.35 0.13 0.14 0.14 0 0 1-0.12-0.06 11.2 11.2 0 0 1-0.22-0.51c-0.07-0.17 0-0.16 0.09 -0.2l1.52-0.63 1.87-0.77 1.93-0.81 1.51-0.61 1.71-0.72 1.48-0.6 2.38-1L21 7.4l1.88-0.79 1.84-0.75 1.7-0.7 0.24 -0.1c0.09 0 0.17 0 0.21 0.08 0.04 0.08 0.13 0.36 0.25 0.56 zM20.74 13.81a6.22 6.22 0 0 0-0.66 0.28 c-0.13 0.08 -0.21 0-0.29-0.05l-0.88-0.79a0.39 0.39 0 0 0-0.11 0.42 c0.09 0.2 0.18 0.4 0.26 0.6 0.08 0.2 0.07 0.22 -0.11 0.26 a2.93 2.93 0 0 0-0.42 0.19 0.76 0.76 0 0 1-0.16 0l-1.11-2.68c-0.05-0.13-0.11-0.25-0.15-0.38a0.15 0.15 0 0 1 0.06-0.13l0.66-0.28 0.5 1.18c0-0.15 0.07 -0.25 0.08 -0.36 0-0.3 0.08 -0.6 0.1 -0.91a0.31 0.31 0 0 1 0.22-0.3l0.59-0.22v0.38c-0.06 0.39 -0.14 0.78 -0.19 1.18a0.29 0.29 0 0 0 0.09 0.22 l1.46 1.24a0.83 0.83 0 0 1 0.06 0.15 zM21.43 9.78l0.23 0.51 c0 0.11 0 0.13-0.11 0.16 l-0.94 0.38 c0.07 0.2 0.13 0.38 0.21 0.56 h0.15l0.86-0.33h0.06c0.07 0.17 0.15 0.33 0.2 0.5 0.05 0.17 0 0.11-0.08 0.12 l-0.71 0.3 -0.19 0.1 0.29 0.7 0.95-0.39c0.17-0.08 0.21 -0.07 0.28 0.1 0.026 0.09 0.06 0.176 0.1 0.26 0.07 0.13 0 0.17-0.09 0.23 l-1.57 0.67 c-0.11 0-0.17 0-0.22-0.09-0.18-0.45-0.37-0.9-0.56-1.35-0.19-0.45-0.38-0.92-0.57-1.38-0.13-0.3-0.13-0.29 0.17 -0.41l1.54-0.64zM16.21 12a0.88 0.88 0 0 1 0.87 0.62 c0.11 0.26 0.1 0.26 -0.16 0.36 l-0.3 0.13 c-0.09 0-0.16 0-0.21-0.08a1.3 1.3 0 0 0-0.19-0.32 0.25 0.25 0 0 0-0.35-0.07 0.31 0.31 0 0 0-0.16 0.36 9.33 9.33 0 0 0 0.72 1.72c0.15 0.27 0.39 0.33 0.53 0.12 a0.79 0.79 0 0 0 0-0.45 1.13 1.13 0 0 0-0.11-0.29c0-0.09 0-0.14 0.08 -0.18 0.08 -0.04 0.31 -0.13 0.47 -0.2 0.16 -0.07 0.16 0 0.18 0.09 0.02 0.09 0.12 0.4 0.15 0.6 a0.78 0.78 0 0 1-0.31 0.77 1.72 1.72 0 0 1-0.8 0.37 c-0.46 0.07 -0.75-0.09-1-0.6a9.54 9.54 0 0 1-0.62-1.32 1.15 1.15 0 0 1 0-1 1.23 1.23 0 0 1 0.39-0.43 1.33 1.33 0 0 1 0.82-0.2zM25 9.81s0.07-0.08 0.1 -0.1l0.9-0.38a0.21 0.21 0 0 0 0.16-0.25c0-0.31-0.06-0.63-0.08-0.94V7.9l0.63 0.72 0.13 0.17 a0.22 0.22 0 0 0 0.3 0.07 l0.94-0.4h0.14l-0.4 0.66 c-0.08 0.13 -0.17 0.26 -0.25 0.4 a0.18 0.18 0 0 0 0 0.16l0.64 0.77 a0.4 0.4 0 0 1 0.09 0.16 h-0.33l-0.8-0.18a0.2 0.2 0 0 0-0.24 0.12 l-0.56 0.92 c0-0.12 0-0.23-0.06-0.35-0.06-0.12 0-0.53-0.06-0.79s-0.07-0.16-0.19-0.19c-0.38-0.14-0.73-0.23-1.06-0.33zM7.62 16.93l1-0.42c0.21-0.08 0.22 -0.1 0.2 -0.33-0.02-0.23 0-0.58-0.07-0.88a2.16 2.16 0 0 1 0-0.22l0.55 0.63 c0.33 0.39 0.32 0.39 0.79 0.17 0.23-0.11 0.47 -0.19 0.71 -0.29l-0.25 0.44 -0.32 0.52 a0.21 0.21 0 0 0 0 0.27c0.22 0.25 0.43 0.51 0.65 0.76 l0.07 0.1 -0.5-0.11c-0.22-0.06-0.45-0.12-0.67-0.17 0 0-0.13 0.05 -0.16 0.1 -0.18 0.28 -0.35 0.57 -0.53 0.85 a1.24 1.24 0 0 1-0.12 0.14 0.59 0.59 0 0 1 0-0.09c0-0.36-0.05-0.73-0.08-1.09 0-0.1 0-0.14-0.14-0.16l-1-0.24-0.13 0.02 zM23.74 8.86c0.07 0.17 0.14 0.32 0.18 0.48 a0.16 0.16 0 0 1-0.07 0.14 c-0.18 0.09 -0.36 0.16 -0.55 0.24 l0.64 1.52c0.13 0.31 0.27 0.63 0.39 0.94 a0.17 0.17 0 0 1-0.07 0.15 c-0.18 0.09 -0.36 0.16 -0.54 0.23 -0.18 0.07 -0.14-0.05-0.17-0.11s-0.16-0.38-0.23-0.56l-0.49-1.18-0.19-0.49c-0.06-0.16-0.13-0.19-0.29-0.12a3.69 3.69 0 0 1-0.38 0.15 0.14 0.14 0 0 1-0.13 0 2.75 2.75 0 0 1-0.16-0.36c0-0.1 0-0.17 0.11 -0.22l1.75-0.72a1.2 1.2 0 0 1 0.2-0.09zM13.83 16.66c-0.18 0.08 -0.37 0.14 -0.54 0.23 -0.17 0.09 -0.23 0.06 -0.3-0.13-0.22-0.58-0.47-1.16-0.71-1.73l-0.23-0.53c-0.06-0.12-0.15-0.06-0.23 0l-0.48 0.19 c-0.07-0.18-0.15-0.34-0.21-0.52s0-0.11 0.08 -0.13l1.46-0.6 0.32 -0.14c0.1 0 0.2-0.09 0.26 0.08 0.17 0.44 0.18 0.44-0.25 0.63 -0.23 0.1 -0.23 0.1 -0.14 0.32 l0.97 2.33zM15.53 16l-0.58 0.25 c-0.1 0-0.18 0-0.24-0.1-0.26-0.66-0.53-1.31-0.8-2-0.13-0.31-0.26-0.63-0.4-0.94 0-0.1 0-0.13 0.06 -0.17l0.5-0.21c0.1 0 0.17 0 0.21 0.1 0.23 0.57 0.47 1.14 0.7 1.7l0.55 1.37z" fill="#FFF"/>
</svg>
