<?xml version="1.0" ?>
<svg xmlns="http://www.w3.org/2000/svg" width="27" height="36" viewBox="0 0 27 36">
  <path d="M0.55 35.79v-1.2H3.4c-0.13-0.18-0.23-0.33-0.34-0.46-1-1.32-2-2.64-3-4C0 30 0 30 0.13 29.85a2.53 2.53 0 0 0 0.42-0.31s0.08-0.14 0.06 -0.18a0.82 0.82 0 0 1 0.08-0.84c1.07-1.72 2.12-3.43 3.18-5.15 0.21 -0.35 0.41 -0.71 0.64 -1a6.13 6.13 0 0 1 0.66-0.69l6.49-6.45a0.62 0.62 0 0 0 0.16-0.37c0.07-0.66 0.11 -1.31 0.17 -2l0.21-2.25c0.05-0.5 0.06 -1 0.15-1.5a33.83 33.83 0 0 0 0.2-3.48L12.7 2l0.06-1.22a0.78 0.78 0 0 1 0.79-0.78c0.17-0.015 0.34 -0.015 0.51 0a0.77 0.77 0 0 1 0.58 0.76 c0 0.45 0.06 0.91 0.09 1.36 0.06 0.76 0.13 1.52 0.19 2.29 0 0.32 0.05 0.64 0.07 1 0 0.49 0.06 1 0.1 1.46 0 0.64 0.06 1.29 0.15 1.93 0.16 1.09 0.14 2.18 0.2 3.28 0.06 1.1 0.09 2 0.14 3a0.29 0.29 0 0 0 0.1 0.19 c0.346 0.233 0.659 0.513 0.93 0.83 0.62 0.68 1.26 1.35 1.86 2a7.16 7.16 0 0 1 1 1.63 7.76 7.76 0 0 1 0.65 2c0.08 0.43 0.16 0.87 0.27 1.29 0.075 0.18 0.18 0.345 0.31 0.49L24.1 28c0.62 0.82 1.26 1.64 1.88 2.47 0.31 0.378 0.35 0.91 0.1 1.33a1.17 1.17 0 0 0 0 0.11h0.18v3.84l-25.71 0.04 zM1.78 30v0.06C2.93 31.53 4 33 5.14 34.5a0.3 0.3 0 0 0 0.27 0.12 h18.48c0.15 0 0.21 0 0.21-0.2V32.2a0.4 0.4 0 0 0-0.1-0.2l-1.35-1.78-1.94-2.53-2.13-2.8c-0.09-0.12-0.15-0.14-0.29-0.06a2.18 2.18 0 0 1-2.22 0.1 3.06 3.06 0 0 1-0.91-0.88l-2.91-3.75a0.2 0.2 0 0 0-0.32-0.05L10.3 21.4c-1 0.72-2 1.44-3 2.17a4.84 4.84 0 0 0-0.78 0.64 c-0.51 0.61 -1 1.25-1.47 1.87-0.65 0.83 -1.29 1.67-2 2.49-0.38 0.48 -0.66 1.09-1.27 1.43z" fill="#FFF"/>
  <path d="M20.32 28.64a2.78 2.78 0 0 1-5.55 0 2.82 2.82 0 0 1 2.78-2.79 2.79 2.79 0 0 1 2.77 2.79z" fill="#FFF"/>
</svg>
