<?xml version="1.0" ?>
<svg xmlns="http://www.w3.org/2000/svg" width="32" height="33" viewBox="0 0 32 33">
  <path d="M11.38 22.54l-1.2-1.39 0.11 -0.13 1.33-1.38c0.14-0.15 0.14 -0.16 0-0.28l-0.92-0.69a0.88 0.88 0 0 1-0.19-1.35l2.27-3a0.88 0.88 0 0 1 1.22-0.14l4.64 3.47a0.88 0.88 0 0 1 0.18 1.28l-2.3 3a0.87 0.87 0 0 1-1.27 0.17 c-0.6-0.44-1.2-0.88-1.79-1.33-0.12-0.1-0.19-0.09-0.3 0l-1.69 1.63-0.09 0.14 zM21.87 9.69c0.05-0.06 0.09 -0.12 0.14 -0.17l2.87-3.09A0.3 0.3 0 0 0 25 6a3.48 3.48 0 1 1 6.33-2.86 3.51 3.51 0 0 1-2 4.58 3.46 3.46 0 0 1-2.73-0.14 0.22 0.22 0 0 0-0.29 0.07 l-2.78 2.77a0.23 0.23 0 0 1-0.34 0c-0.38-0.23-0.78-0.45-1.17-0.67l-0.15-0.06zM28 3.1a1.38 1.38 0 0 0 0 2.76 1.42 1.42 0 0 0 1.38-1.39A1.39 1.39 0 0 0 28 3.1zM8.83 28.7a0.84 0.84 0 0 1-0.33 0.72 L6 31.48a0.9 0.9 0 0 1-1.34-0.13l-1-1.22c-0.16-0.19-0.16-0.19-0.33 0L0.87 32.36a1.61 1.61 0 0 1-0.3 0.21 0.4 0.4 0 0 1-0.48-0.05 0.41 0.41 0 0 1 0-0.47 0.9 0.9 0 0 1 0.2-0.28c0.77-0.84 1.55-1.67 2.33-2.5 0.12 -0.13 0.12 -0.21 0-0.34-0.43-0.5-0.85-1-1.27-1.51a0.88 0.88 0 0 1 0.11-1.31C2.3 25.4 3.16 24.71 4 24a0.87 0.87 0 0 1 1.25 0.12 l3.36 4a0.75 0.75 0 0 1 0.22 0.58 zM16.69 14.6c0.25-0.27 0.5 -0.54 0.75 -0.79s0.5-0.49 0.76 -0.73a0.22 0.22 0 0 0 0.05-0.3c-0.44-0.94-0.88-1.88-1.25-2.78a4.27 4.27 0 0 1-0.26-0.86c-0.07-0.3 0.06 -0.42 0.35 -0.32a14.39 14.39 0 0 1 1.59 0.59 34.1 34.1 0 0 1 4.88 2.78c0.3 0.21 0.58 0.43 0.86 0.67 a0.76 0.76 0 0 1 0.23 1 4.55 4.55 0 0 1-0.84 1.29 6 6 0 0 1-2 1.55 2.27 2.27 0 0 1-0.51 0.14 0.59 0.59 0 0 1-0.57-0.21c-0.26-0.31-0.51-0.62-0.75-0.94-0.24-0.32-0.31-0.46-0.46-0.69-0.15-0.23-0.12-0.17-0.27 0l-0.86 0.74 c-0.08 0.07 -0.14 0.08 -0.22 0l-1.44-1.07-0.04-0.07zM8 25.75l-0.52-0.58c-0.16-0.18-0.32-0.37-0.49-0.54-0.17-0.17-0.08-0.17 0-0.26l0.78-0.8c0.16-0.17 0.16 -0.17 0-0.33l-2.3-2.09a4.28 4.28 0 0 1-0.4-0.45 1.21 1.21 0 0 1 0-1.6 3.64 3.64 0 0 1 0.56-0.55 0.5 0.5 0 0 1 0.57 0c0.22 0.122 0.421 0.273 0.6 0.45 a49.91 49.91 0 0 1 4.4 4.91A15 15 0 0 1 13.05 27c0.131 0.367 0.241 0.74 0.33 1.12 0.01 0.07 0.01 0.14 0 0.21 0 0.3-0.22 0.41 -0.46 0.22 a3.18 3.18 0 0 1-0.66-0.66 21.27 21.27 0 0 0-2.91-3.16 0.15 0.15 0 0 0-0.24 0l-1 0.94-0.11 0.08 z" fill="#FFF"/>
</svg>
