<?xml version="1.0" ?>
<svg xmlns="http://www.w3.org/2000/svg" width="31" height="36" viewBox="0 0 31 36">
  <path d="M16.13 34.68c-0.38-0.28-0.75-0.54-1.09-0.83a7 7 0 0 1-2.39-4 9.1 9.1 0 0 1 0-3.6 9.85 9.85 0 0 1 1.91-4.31c0.236-0.286 0.486 -0.56 0.75 -0.82a0.25 0.25 0 0 0 0-0.35c-0.8-1.373-1.593-2.75-2.38-4.13a0.24 0.24 0 0 0-0.34-0.13 0.7 0.7 0 0 1-0.86-0.26 0.69 0.69 0 0 1 0.05-0.89c0.09-0.12 0.1 -0.19 0-0.3-1-1.11-2-2.25-3.09-3.34A8.2 8.2 0 0 0 6.1 9.8 3.13 3.13 0 0 0 4 9.58a1.76 1.76 0 0 0-1.29 2.13 6.7 6.7 0 0 0 1.24 3C5 16.15 6 17.55 7 19a20.44 20.44 0 0 1 2.34 3.86 11.09 11.09 0 0 1 0.9 3.71 4.3 4.3 0 0 1-0.54 2.58 2.18 2.18 0 0 1-2.75 1 9.39 9.39 0 0 1-3.09-1.93 2.29 2.29 0 0 0-0.89-0.6 0.59 0.59 0 0 1-0.25-0.21l-2.54-3a1.32 1.32 0 0 1-0.12-0.15 0.38 0.38 0 0 1 0.55-0.51l1.11 0.93 c0.67 0.57 1.34 1.13 2 1.7 0.115 0.127 0.212 0.268 0.29 0.42 0.035 0.078 0.078 0.152 0.13 0.22a10.06 10.06 0 0 0 2.71 1.88 1.82 1.82 0 0 0 1.15 0.2 1.39 1.39 0 0 0 1-1.15 6.05 6.05 0 0 0 0-2.56 14.22 14.22 0 0 0-2.85-5.74c-0.95-1.3-1.92-2.59-2.84-3.91a9.85 9.85 0 0 1-1.52-3.06 4 4 0 0 1 0-2.4 2.71 2.71 0 0 1 2.43-1.83 5.06 5.06 0 0 1 3.56 1 19.2 19.2 0 0 1 3.34 3.11c0.54 0.6 1.08 1.2 1.6 1.81a0.33 0.33 0 0 0 0.52 0.08 1.25 1.25 0 0 1 0.55-0.19 0.63 0.63 0 0 1 0.64 0.4 0.69 0.69 0 0 1-0.13 0.81 0.28 0.28 0 0 0 0 0.41c0.73 1.24 1.44 2.49 2.16 3.73 0.15 0.25 0.15 0.24 0.37 0a1.56 1.56 0 0 0 0.51-1.3c0-0.94 0-1.88-0.08-2.82a2.19 2.19 0 0 1 1.31-2.17 0.66 0.66 0 0 0 0.41-0.7V8.06c0-0.24-0.08-0.31-0.31-0.31a9.73 9.73 0 0 1-1.51-0.08 1.56 1.56 0 0 1-1.26-1.21 1.61 1.61 0 0 1 0.86-1.7 2.14 2.14 0 0 1 0.79-0.19h1.83c0.22 0 0.31-0.05 0.31 -0.29V1.77c0-0.21-0.07-0.28-0.28-0.27a6.49 6.49 0 0 1-0.66 0A0.76 0.76 0 0 1 18 0.74a0.75 0.75 0 0 1 0.76-0.74h5.6c0.39 0 0.71 0.31 0.72 0.7 a0.73 0.73 0 0 1-0.7 0.78 h-0.71c-0.24 0-0.25 0-0.25 0.23 v2.61c0 0.17 0.06 0.24 0.24 0.24h1.8a1.65 1.65 0 1 1 0.14 3.29h-1.32c-0.18 0-0.25 0-0.25 0.24 v4.84a0.28 0.28 0 0 0 0.2 0.3 2.72 2.72 0 0 1 1.46 1.26 2.9 2.9 0 0 1 0.19 1.42c0 0.81 0 1.61-0.08 2.42a1.72 1.72 0 0 0 0.6 1.47c0.39 0.35 0.76 0.72 1.14 1.07a9.27 9.27 0 0 1 2.68 4.39 9.46 9.46 0 0 1 0.35 3.94 7.14 7.14 0 0 1-2.72 4.8c-0.23 0.19 -0.49 0.35 -0.74 0.52 -0.25 0.17 -0.16 0.15 -0.05 0.28 a0.69 0.69 0 0 1 0.07 0.8 0.77 0.77 0 0 1-0.73 0.4 h-9.65a0.79 0.79 0 0 1-0.77-0.4 0.72 0.72 0 0 1 0.1-0.84 0.63 0.63 0 0 0 0.05-0.08z" fill="#FFF"/>
</svg>
