<?xml version="1.0" ?>
<svg xmlns="http://www.w3.org/2000/svg" width="44" height="30" viewBox="0 0 44 30">
  <path d="M19.38 29.55c-1.27-0.06-2.24-0.09-3.21-0.15-0.61 0-1.22-0.09-1.83-0.16-0.61-0.07-1.35-0.21-2-0.32-0.52-0.09-1-0.17-1.55-0.28-0.55-0.11-1.26-0.31-1.88-0.49-0.62-0.18-1.17-0.33-1.75-0.53-0.58-0.2-1.1-0.42-1.63-0.62a14.39 14.39 0 0 1-2.4-1.25 8 8 0 0 1-2.59-2.43 3.27 3.27 0 0 1-0.48-1.21 4.12 4.12 0 0 1 0.59-2.85A6.44 6.44 0 0 1 3 17.05a12.36 12.36 0 0 1 2.17-1c0.65-0.23 1.3-0.45 2-0.66 0.37 -0.11 0.75 -0.18 1.12-0.27l1.39-0.32 1.17-0.21a3.75 3.75 0 0 0 0.57-0.09 0.87 0.87 0 0 1 0.59 0.12 c0.69 0.28 1.38 0.57 2.07 0.83 s1.11 0.41 1.67 0.59 c0.56 0.18 1.09 0.3 1.64 0.45 0.38 0.1 0.76 0.22 1.14 0.31 0.38 0.09 0.87 0.2 1.3 0.29 0.43 0.09 0.93 0.2 1.39 0.28 0.46 0.08 0.89 0.16 1.34 0.23 l1.44 0.21 c0.29 0 0.59 0.09 0.89 0.12 a32.2 32.2 0 0 0 4.5 0.08 14 14 0 0 0 1.82-0.27 6.23 6.23 0 0 0 2.49-1.05 0.16 0.16 0 0 1 0.15 0 10.37 10.37 0 0 1 3.3 2.46c0.393 0.46 0.683 0.998 0.85 1.58a3.54 3.54 0 0 1-0.44 2.8 6.87 6.87 0 0 1-2.35 2.26 22.48 22.48 0 0 1-2 1.09c-0.531 0.25 -1.075 0.47 -1.63 0.66 -0.57 0.21 -1.15 0.4 -1.73 0.58 -0.58 0.18 -1 0.25-1.5 0.37 l-0.95 0.22 a5.12 5.12 0 0 1-0.54 0.1 c-0.61 0.1 -1.21 0.19 -1.82 0.27 -0.61 0.08 -1 0.14-1.54 0.18 l-4.12 0.29 z" fill="#FFF"/>
  <path d="M27.44 16.81c-0.82 0-1.63-0.08-2.44-0.15-0.81-0.07-1.46-0.19-2.19-0.29-0.56-0.09-1.13-0.18-1.69-0.3s-0.89-0.2-1.34-0.31c-0.45-0.11-0.81-0.18-1.21-0.29L16.94 15c-0.37-0.11-0.73-0.23-1.1-0.36-0.58-0.2-1.16-0.39-1.72-0.62-0.56-0.23-1.15-0.48-1.71-0.74a15.94 15.94 0 0 1-3.31-2 5.49 5.49 0 0 1-1.35-1.5 2.1 2.1 0 0 1 0-2.35 2.82 2.82 0 0 1 1.16-1 5 5 0 0 1 2.59-0.54c0.226 0.051 0.44 0.146 0.63 0.28 a11.29 11.29 0 0 0 2 0.84c0.48 0.14 0.95 0.29 1.43 0.41 s0.72 0.13 1.08 0.18 c0.59 0.09 1.18 0.16 1.77 0.23 h2.86c0.63 0 1.26-0.15 1.89-0.23a7.81 7.81 0 0 1 0.82-0.14c0.198 0.01 0.392 0.062 0.57 0.15 0.66 0.24 1.31 0.48 2 0.74 0.99 0.408 1.944 0.9 2.85 1.47a19.7 19.7 0 0 1 1.94 1.28 5.81 5.81 0 0 1 1.79 2 1.94 1.94 0 0 1-0.33 2.32 3.56 3.56 0 0 1-1.41 0.84 12.58 12.58 0 0 1-3.95 0.55 z" fill="#FFF"/>
  <path d="M19.25 0c0.78 0.05 1.42 0.06 2.06 0.13 0.64 0.07 1.12 0.21 1.69 0.32 a7.93 7.93 0 0 1 1.84 0.6 4.4 4.4 0 0 1 1.87 1.43 1.72 1.72 0 0 1 0 1.91A4 4 0 0 1 25 5.72a15.61 15.61 0 0 1-1.88 0.68 14.85 14.85 0 0 1-1.62 0.29 12.28 12.28 0 0 1-2.64 0.14 c-0.72 0-1.44-0.13-2.15-0.23a10.61 10.61 0 0 1-1.58-0.35 6.29 6.29 0 0 1-2.74-1.49 2 2 0 0 1-0.6-1.25 1.6 1.6 0 0 1 0.34-1.07 4 4 0 0 1 1.61-1.28 8 8 0 0 1 1.91-0.68 15.48 15.48 0 0 1 1.63-0.29C18 0.1 18.68 0.05 19.25 0zM34.16 9.78a4 4 0 0 1 0.07-0.5c0.07-0.34 0.16 -0.68 0.23 -1 0.07-0.32 0.12 -0.62 0.19 -0.93 0.073 -0.378 0.167 -0.752 0.28 -1.12 0.14 -0.48 0.31 -1 0.49-1.44a4.6 4.6 0 0 1 2.74-2.72c0.61-0.21 1.22-0.42 1.84-0.58 0.62 -0.16 1.09-0.24 1.64-0.36l1-0.23 0.63 -0.1c0 0.18-0.07 0.33 -0.1 0.49 -0.17 0.68 -0.32 1.36-0.5 2a13.92 13.92 0 0 1-1 2.95 4.55 4.55 0 0 1-1.86 2 7.11 7.11 0 0 1-1.56 0.64 l-1.89 0.49 c-0.34 0.08 -0.7 0.12 -1.05 0.18 l-1 0.2-0.15 0.03 zM43.65 15.46c-0.35 0-0.67 0.09 -1 0.11-0.71 0.06 -1.41 0.14 -2.11 0.16 a14.16 14.16 0 0 1-1.84-0.08 3.52 3.52 0 0 1-1.58-0.65 7 7 0 0 1-1.83-2.15c-0.43-0.68-0.82-1.39-1.23-2.08a0.81 0.81 0 0 1 0-0.11c0.18 0 0.35-0.07 0.53 -0.09 0.59 -0.08 1.19-0.16 1.79-0.2 0.6 -0.04 1.17-0.07 1.76-0.08a3.9 3.9 0 0 1 1.92 0.44 4.23 4.23 0 0 1 1.37 1.19 25.65 25.65 0 0 1 2.13 3.32l0.09 0.22 zM33.14 10a4.87 4.87 0 0 1-0.45-0.27c-0.47-0.32-0.94-0.64-1.4-1a8.31 8.31 0 0 1-2-1.88 2.74 2.74 0 0 1-0.54-1.5 14.77 14.77 0 0 1 0-1.63c0-0.44 0.14 -0.88 0.21 -1.32 0.07 -0.44 0.13 -0.76 0.21 -1.13 0.08 -0.37 0.1 -0.48 0.17 -0.77 0.71 0.53 1.38 1 2 1.54a8.51 8.51 0 0 1 1.52 1.42 3.6 3.6 0 0 1 0.8 1.68 5.47 5.47 0 0 1 0 1.76c-0.07 0.46 -0.13 0.92 -0.22 1.38-0.09 0.46 -0.17 1.1-0.3 1.72z" fill="#FFF"/>
</svg>
