<?xml version="1.0" ?>
<svg xmlns="http://www.w3.org/2000/svg" width="46" height="31" viewBox="0 0 46 31">
  <path d="M22.36 11.43a4.12 4.12 0 0 1-0.86 2.78 3 3 0 0 1-5.19-0.94 5.67 5.67 0 0 1-0.22-2.8 3.2 3.2 0 0 1 1.75-2.67A3.11 3.11 0 0 1 20 7.65 2.92 2.92 0 0 1 22.17 10c0.1 0.49 0.13 1 0.19 1.43zm-1.68-0.07c-0.07-0.47-0.11-1-0.23-1.49a1.33 1.33 0 0 0-1.27-1 1.4 1.4 0 0 0-1.27 1 6.59 6.59 0 0 0 0 3.08 1.27 1.27 0 0 0 1.3 1 1.3 1.3 0 0 0 1.25-1c0.09-0.51 0.14 -1.02 0.22 -1.59zM31.69 19.07a4 4 0 0 1-0.6 2.45 3 3 0 0 1-3.41 1.27 2.86 2.86 0 0 1-2.13-2.45 7.51 7.51 0 0 1-0.11-2.12 3.24 3.24 0 0 1 1.85-2.85 3.11 3.11 0 0 1 4.11 1.7 5 5 0 0 1 0.29 2zM27 19c0.07 0.5 0.11 1 0.2 1.49 0.172 0.53 0.629 0.917 1.18 1a1.23 1.23 0 0 0 1.25-0.67 7.06 7.06 0 0 0 0.31-1.3 4.46 4.46 0 0 0-0.18-2.19 1.48 1.48 0 0 0-1.26-0.94 1.45 1.45 0 0 0-1.3 1.13c-0.04 0.55 -0.09 1.02-0.2 1.48zM28.61 7.62l-1.26 2.44L25 14.52 22.23 20l-1.33 2.6a0.51 0.51 0 0 1-0.55 0.34 h-0.87c-0.29 0-0.35-0.09-0.22-0.36 0.26 -0.52 0.54 -1 0.81-1.56L22 17.38l2.7-5.18c0.72-1.467 1.453-2.92 2.2-4.36a0.45 0.45 0 0 1 0.46-0.28h0.9c0.118 0.013 0.235 0.033 0.35 0.06 z" fill="#FFF"/>
  <path d="M45.09 26.24a3.78 3.78 0 0 1-3.54 4H5a3.78 3.78 0 0 1-3.54-4V4.48A3.78 3.78 0 0 1 5 0.5h36.55a3.78 3.78 0 0 1 3.54 4v21.74z" fill="none" stroke-linejoin="round" stroke-width="1" stroke="#FFF"/>
</svg>
