<?xml version="1.0" ?>
<svg xmlns="http://www.w3.org/2000/svg" width="44" height="25" viewBox="0 0 44 25">
  <path d="M1.38 19.6l-0.07-0.24c-0.24-0.66-0.47-1.32-0.7-2a0.59 0.59 0 0 1 0.2-0.73 5 5 0 0 1 0.83-0.48 19.6 19.6 0 0 1 4.05-1.11c0.89-0.17 1.78-0.32 2.67-0.46 0.89 -0.14 1.89-0.27 2.84-0.39 0.19 -0.02 0.37 -0.1 0.51 -0.23l4.29-3.8a1.2 1.2 0 0 1 0.53-0.31 20.65 20.65 0 0 1 2.05-0.41A41.55 41.55 0 0 1 24 9.13a52.2 52.2 0 0 1 6.85 0.46 3.13 3.13 0 0 1 2 1c1.06 1.18 2.15 2.33 3.23 3.48a0.67 0.67 0 0 0 0.32 0.17 c0.39 0.08 0.79 0.13 1.18 0.19 l2.39 0.4 c1 0.17 2 0.34 2.92 0.53 0.4 0.08 0.49 0.18 0.48 0.6 0 0.57 0 1.13-0.1 1.7a0.75 0.75 0 0 1-0.1 0.32 c-0.22 0.44 -0.45 0.86 -0.67 1.29a2.08 2.08 0 0 0-0.11 0.35 h0.6a0.63 0.63 0 0 1 0.69 0.59 c0.02 0.183 0.02 0.367 0 0.55a0.62 0.62 0 0 1-0.69 0.58 h-3.94c-0.2 0-0.24-0.08-0.28-0.25a6 6 0 0 0-0.32-1 3.51 3.51 0 0 0-6.61 0.94 c-0.06 0.35 -0.06 0.35 -0.42 0.35 h-19.6c-0.15 0-0.21 0-0.22-0.2a2 2 0 0 0-0.1-0.48 3.51 3.51 0 0 0-5.18-2.08A3.39 3.39 0 0 0 4.66 21c-0.06 0.34 -0.06 0.34 -0.4 0.34 H0.71a0.63 0.63 0 0 1-0.7-0.6 2.18 2.18 0 0 1 0-0.57 0.6 0.6 0 0 1 0.65-0.55l0.72-0.02zm6.75 4.8a2.82 2.82 0 1 1 2.8-2.83 2.83 2.83 0 0 1-2.8 2.83zm24.44-2.81a2.81 2.81 0 1 1 5.62 0 2.81 2.81 0 0 1-5.62 0zM21.3 4.54h1.93c0.16 0 0.22 0 0.2 0.21 0 0.43-0.06 0.85 -0.1 1.28-0.06 0.85 -0.13 1.71-0.2 2.56 0 0.17-0.06 0.25 -0.25 0.25 h-3.49c-0.34 0-0.5-0.17-0.5-0.5V5.06a0.47 0.47 0 0 1 0.53-0.52h1.88zm5.7 0h1.94a0.43 0.43 0 0 1 0.48 0.43 v3.44a0.41 0.41 0 0 1-0.41 0.42 h-3.57c-0.18 0-0.24-0.07-0.25-0.24 0-0.44-0.07-0.88-0.11-1.32-0.07-0.81-0.14-1.63-0.2-2.45 0-0.3 0-0.3 0.28 -0.3l1.84 0.02 zM23.8 0a0.78 0.78 0 0 0 0 0.09c-0.11 1.34-0.21 2.68-0.31 4 0 0.14-0.08 0.18 -0.21 0.18 h-2.15a0.42 0.42 0 0 1-0.45-0.46V0.47a0.44 0.44 0 0 1 0.48-0.47h2.64zm0.7 0h2.64a0.42 0.42 0 0 1 0.48 0.48 V3.8c0 0.35-0.14 0.49 -0.49 0.49 h-2c-0.3 0-0.31 0-0.33-0.31l-0.18-2.17c-0.03-0.59-0.07-1.18-0.12-1.81zm-0.34 8.83a5.61 5.61 0 0 0-0.58 0c-0.19 0-0.27 0-0.25-0.26 0.02 -0.26 0.06 -0.69 0.09 -1l0.24-2.81c0-0.15 0.06 -0.21 0.21 -0.2h0.51c0.21 0 0.28 0.06 0.29 0.26 0.06 0.81 0.13 1.62 0.2 2.43 0 0.46 0.06 0.93 0.1 1.39 0 0.17 0 0.23-0.21 0.22 l-0.6-0.03zM24.27 0c0.05 0.56 0.1 1.09 0.14 1.62 0.07 0.81 0.13 1.63 0.2 2.45 0 0.16 0 0.24-0.2 0.22 h-0.53c-0.14 0-0.2 0-0.18-0.19 0.09 -1.12 0.18 -2.24 0.28 -3.36L24 0h0.27z" fill="#00B050"/>
  <path d="M1.38 19.6h-0.7a0.6 0.6 0 0 0-0.65 0.55 2.18 2.18 0 0 0 0 0.57 0.63 0.63 0 0 0 0.7 0.6 h3.53c0.34 0 0.34 0 0.4-0.34a3.39 3.39 0 0 1 1.66-2.42 3.51 3.51 0 0 1 5.18 2.08 2 2 0 0 1 0.1 0.48 c0 0.16 0.07 0.2 0.22 0.2h19.67c0.36 0 0.36 0 0.42-0.35a3.51 3.51 0 0 1 6.61-0.97 6 6 0 0 1 0.32 1c0 0.17 0.08 0.25 0.28 0.25h3.94a0.62 0.62 0 0 0 0.69-0.58 2.53 2.53 0 0 0 0-0.55 0.63 0.63 0 0 0-0.69-0.59h-0.6a2.08 2.08 0 0 1 0.11-0.35c0.22-0.43 0.45 -0.85 0.67 -1.29a0.75 0.75 0 0 0 0.1-0.32c0-0.57 0.09 -1.13 0.1 -1.7 0-0.42-0.08-0.52-0.48-0.6-1-0.19-2-0.36-2.92-0.53l-2.39-0.4c-0.39-0.06-0.79-0.11-1.18-0.19a0.67 0.67 0 0 1-0.32-0.17c-1.08-1.15-2.17-2.3-3.23-3.48a3.13 3.13 0 0 0-2-1A52.2 52.2 0 0 0 24 9.13a41.55 41.55 0 0 0-5.46 0.31 20.65 20.65 0 0 0-2.05 0.41 1.2 1.2 0 0 0-0.53 0.31 L11.71 14a0.89 0.89 0 0 1-0.51 0.23 c-0.95 0.12 -1.89 0.25 -2.84 0.39 s-1.78 0.29 -2.67 0.46 a19.6 19.6 0 0 0-4.05 1.11 5 5 0 0 0-0.83 0.48 0.59 0.59 0 0 0-0.2 0.73 c0.23 0.65 0.46 1.31 0.7 2l0.07 0.2 zm28.85-5.51h-0.08c0-0.12-0.09-0.23-0.13-0.34a0.93 0.93 0 0 0-1.27-0.61 0.86 0.86 0 0 0-0.42 0.75 c0 0.17-0.09 0.2 -0.24 0.2 h-3.23c-0.21 0-0.26-0.07-0.25-0.26v-3.47c0-0.28 0-0.28 0.29 -0.28a45.43 45.43 0 0 1 5.94 0.47 A1.7 1.7 0 0 1 32 11c0.92 1 1.87 2 2.8 3 0.041 0.05 0.078 0.104 0.11 0.16 h-3.4c-0.13 0-0.18-0.06-0.21-0.18a1 1 0 0 0-0.66-0.79 1.21 1.21 0 0 0-0.6 0c-0.14 0-0.2 0.13 -0.08 0.28 0.082 0.114 0.15 0.239 0.2 0.37 0.033 0.08 0.056 0.164 0.07 0.25 zM21 12.72c0.42 0.256 0.95 0.256 1.37 0 1.05-0.71 1.08-1.6 0.36 -2.63h0.73c0.14 0 0.19 0 0.19 0.19 v3.68c0 0.14-0.06 0.19 -0.19 0.18 h-0.76a0.22 0.22 0 0 1-0.24-0.15 1.55 1.55 0 0 0-0.68-0.75 1.12 1.12 0 0 0-0.92-0.08c0.3 0.3 0.6 0.55 0.64 1a0.44 0.44 0 0 1-0.14-0.13 2.32 2.32 0 0 0-0.19-0.31 1.39 1.39 0 0 0-1.39-0.57 0.82 0.82 0 0 0-0.61 0.7 l0.26-0.06a3.35 3.35 0 0 1 0.75-0.16c0.35 0.02 0.63 0.3 0.65 0.65 a0.74 0.74 0 0 1-0.55 0.75 c-0.4 0.11 -0.81 0.22 -1.22 0.29 a6.91 6.91 0 0 1-3.79-0.46 0.74 0.74 0 0 1-0.39-0.41c-0.07-0.24-0.19-0.28-0.4-0.27-0.21 0.01 -0.62 0-0.94 0h-0.22l0.15-0.19 3.15-3.05a0.79 0.79 0 0 1 0.31-0.17c0.38-0.09 0.75 -0.17 1.13-0.24h0.48a1.65 1.65 0 0 0 0.46 2.01 1.57 1.57 0 0 0 1.77 0.11 1.66 1.66 0 0 0 0.46-2.48 0.69 0.69 0 0 1 0.39 0.52 1.78 1.78 0 0 1-0.62 2.03zm1.09 2h0.86c0.22 0 0.3 0.09 0.31 0.31 0.01 0.22 -0.06 0.43 -0.28 0.44 h-1.83c-0.2 0-0.27-0.15-0.26-0.41 0.01 -0.26 0.09 -0.33 0.3 -0.34h0.9zm11.46 0h0.87c0.2 0 0.28 0.11 0.29 0.3 0.01 0.19 0 0.44-0.24 0.44 h-1.82c-0.21 0-0.28-0.16-0.26-0.43 0.02 -0.27 0.1 -0.3 0.3 -0.31h0.86z" fill="#FFF"/>
  <path d="M8.13 24.4a2.82 2.82 0 1 0-0.336-5.63 2.82 2.82 0 0 0 0.336 5.63zm0-1.79a1 1 0 1 1 0.06-2 1 1 0 1 1-0.07 2h0.01zM32.57 21.59a2.81 2.81 0 1 0 5.62-0.021 2.81 2.81 0 0 0-5.62 0.021 zm2.8 1a1 1 0 1 1 0-2 1 1 0 0 1 0 2zM21.3 4.54h-1.88a0.47 0.47 0 0 0-0.53 0.52 v3.28c0 0.33 0.16 0.49 0.5 0.5h3.49c0.19 0 0.24-0.08 0.25 -0.25 0.07 -0.85 0.14 -1.71 0.2 -2.56 0-0.43 0.06 -0.85 0.1 -1.28 0-0.16 0-0.21-0.2-0.21H21.3zM27 4.54h-1.84c-0.29 0-0.3 0-0.28 0.3 0.06 0.82 0.13 1.64 0.2 2.45 0 0.44 0.08 0.88 0.11 1.32 0 0.17 0.07 0.24 0.25 0.24H29a0.41 0.41 0 0 0 0.41-0.42V5a0.43 0.43 0 0 0-0.48-0.43L27 4.54zM23.8 0h-2.64a0.44 0.44 0 0 0-0.48 0.47 v3.36a0.42 0.42 0 0 0 0.45 0.46 h2.16c0.13 0 0.2 0 0.21-0.18 0.1 -1.33 0.2 -2.67 0.31 -4A0.78 0.78 0 0 1 23.8 0zM24.5 0c0.05 0.62 0.09 1.21 0.13 1.8l0.18 2.2c0 0.31 0 0.31 0.33 0.31h2c0.35 0 0.49-0.14 0.49 -0.49V0.5a0.42 0.42 0 0 0-0.49-0.5H24.5zM24.16 8.84h0.6c0.17 0 0.23-0.05 0.21 -0.22 0-0.46-0.07-0.93-0.1-1.39-0.07-0.81-0.14-1.62-0.2-2.43 0-0.2-0.08-0.28-0.29-0.26h-0.51c-0.15 0-0.2 0-0.21 0.2 l-0.24 2.81c0 0.35-0.05 0.7 -0.09 1-0.04 0.3 0.06 0.27 0.25 0.26 0.193-0.01 0.387 -0.01 0.58 0v0.03zM24.27 0H24v0.74c-0.1 1.12-0.19 2.24-0.28 3.36 0 0.15 0 0.2 0.18 0.19h0.53c0.18 0 0.22-0.06 0.2 -0.22-0.07-0.82-0.13-1.64-0.2-2.45-0.06-0.53-0.11-1.06-0.16-1.62z" fill="#FFF"/>
  <path d="M22 14.72h-0.85c-0.21 0-0.29 0.11 -0.3 0.34 -0.01 0.23 0.06 0.4 0.26 0.41 h1.78c0.22 0 0.3-0.15 0.28 -0.44-0.02-0.29-0.09-0.3-0.31-0.31H22zM33.5 14.72h-0.86c-0.2 0-0.29 0.1 -0.3 0.31 -0.01 0.21 0 0.43 0.26 0.43h1.82c0.2 0 0.25-0.13 0.24 -0.44-0.01-0.31-0.09-0.3-0.29-0.3h-0.87z" fill="#00B050"/>
  <path d="M27.08 11.82a1.25 1.25 0 0 0 1.23 1.27 1.28 1.28 0 0 0 1.27-1.26c0-0.69-0.56-1.25-1.25-1.25a1.23 1.23 0 0 0-1.25 1.24z" fill="#FFF"/>
  <path d="M29.15 10.67c0.325 0.275 0.53 0.666 0.57 1.09a1.43 1.43 0 0 1-0.48 1.12 0.72 0.72 0 0 0 0.76 0.12 1.25 1.25 0 0 0-0.8-2.37l-0.05 0.04 zM17.83 15.21a7.19 7.19 0 0 0 2.45-0.39 0.57 0.57 0 0 0 0.065-1.067 0.58 0.58 0 0 0-0.455-0.013 5.9 5.9 0 0 1-4-0.08 0.67 0.67 0 0 0-0.6 0 0.54 0.54 0 0 0-0.29 0.49 0.5 0.5 0 0 0 0.32 0.51 c0.4 0.16 0.811 0.29 1.23 0.39 0.424 0.074 0.851 0.127 1.28 0.16 z" fill="#FFF"/>
</svg>
