<?xml version="1.0" ?>
<svg xmlns="http://www.w3.org/2000/svg" width="27" height="30" viewBox="0 0 27 30">
  <path d="M0 10.17c0-0.85 0.05 -1.7 0.09 -2.55 0-0.53 0.07 -1 0.11-1.57 0-0.31 0.06 -0.62 0.11 -0.93a0.9 0.9 0 0 1 0.61-0.68c0.68-0.26 1.37-0.51 2.08-0.75L5 3l1.67-0.61 1.7-0.61 1.68-0.62 1.37-0.53 1.37-0.5c0.184-0.076 0.38 -0.12 0.58 -0.13 0.24 0.034 0.476 0.098 0.7 0.19l1.39 0.5 1.38 0.51 1.53 0.55 1.37 0.5 1.37 0.49 1.35 0.49 1.37 0.5 1.55 0.56 0.49 0.19 a0.86 0.86 0 0 1 0.54 0.76 c0.05 0.71 0.11 1.41 0.17 2.11a36.69 36.69 0 0 1 0.1 4.06c0 0.67-0.07 1.33-0.12 2 0 0.5-0.1 1-0.17 1.5s-0.18 1-0.28 1.55c-0.1 0.55 -0.15 0.8 -0.25 1.19-0.1 0.39 -0.24 0.91 -0.39 1.36-0.15 0.45 -0.4 1.18-0.65 1.75-0.25 0.57 -0.6 1.33-0.95 2a14.84 14.84 0 0 1-3.13 3.88 13.67 13.67 0 0 1-3.36 2.21c-0.572 0.25 -1.156 0.47 -1.75 0.66 -0.415 0.14 -0.84 0.25 -1.27 0.33 a5.54 5.54 0 0 1-1.14 0.13 6.38 6.38 0 0 1-1-0.15l-0.79-0.19a9.26 9.26 0 0 1-1-0.32c-0.63-0.26-1.27-0.54-1.88-0.85a11.55 11.55 0 0 1-2-1.3 15 15 0 0 1-2.42-2.43 14.57 14.57 0 0 1-1.68-2.64c-0.31-0.63-0.6-1.27-0.86-1.92-0.2-0.48-0.34-1-0.49-1.47-0.15-0.47-0.24-0.8-0.34-1.2-0.1-0.4-0.13-0.63-0.19-0.94-0.06-0.31-0.15-0.76-0.22-1.14 0-0.14 0-0.29-0.06-0.43 0-0.42-0.1-0.83-0.13-1.25C0.13 13 0.07 12.3 0 11.59v-1.42zm9.51 2.46h-0.44a1.22 1.22 0 0 0-0.38 0.07 1.43 1.43 0 0 0-0.95 1.35v5.57c-0.01 0.12 -0.01 0.24 0 0.36a1.39 1.39 0 0 0 1.32 1.07h8.5A1.14 1.14 0 0 0 18 21a1.42 1.42 0 0 0 1-1.38v-5.57a2.11 2.11 0 0 0 0-0.35 1.4 1.4 0 0 0-1.39-1.08h-0.32c-0.11 0 0-0.07 0-0.1v-2.3A3.51 3.51 0 0 0 17 8.68 2.74 2.74 0 0 0 14.35 7h-1.92a5.63 5.63 0 0 0-0.59 0 2.51 2.51 0 0 0-1.39 0.66 2.62 2.62 0 0 0-0.88 1.54 4.9 4.9 0 0 0-0.06 0.94 v2.49z" fill="#FFF"/>
  <path d="M13.35 12.62h-1.81c-0.13 0-0.17 0-0.17-0.17v-2.6a0.93 0.93 0 0 1 1-1h2a0.88 0.88 0 0 1 0.9 0.58 c0.05 0.127 0.078 0.263 0.08 0.4 v2.6c0 0.13 0 0.17-0.17 0.17 l-1.83 0.02 zM12.77 17.82v-1a0.21 0.21 0 0 0-0.1-0.19 1.1 1.1 0 0 1-0.47-1.14 1.13 1.13 0 0 1 0.84-0.93 1.18 1.18 0 0 1 1.44 0.81 1.21 1.21 0 0 1-0.48 1.24 0.2 0.2 0 0 0-0.09 0.2 v2a0.34 0.34 0 0 1-0.36 0.36 h-0.51a0.28 0.28 0 0 1-0.3-0.3l0.03-1.05z" fill="#FFF"/>
</svg>
