<?xml version="1.0" ?>
<svg xmlns="http://www.w3.org/2000/svg" width="43" height="32" viewBox="0 0 43 32">
  <path d="M31.89 20.77a0.79 0.79 0 0 1-0.1-0.14c-0.14-0.35-0.27-0.69-0.42-1-0.27-0.63-0.54-1.26-0.82-1.89-0.28-0.63-0.5-1.08-0.77-1.61s-0.5-1-0.78-1.44c-0.28-0.44-0.71-1.13-1.06-1.7a0.69 0.69 0 0 1-0.1-0.32v-0.82c0-0.27 0-0.8 0.06 -1.2 0.06 -0.4 0.1 -1.11 0.1 -1.65 0-0.38 0.06 -0.76 0.11 -1.14 0.05 -0.38 0.11 -0.73 0.17 -1.09 0-0.18 0-0.37 0.07 -0.55 0.07 -0.18 0.1 -0.56 0.16 -0.84 0.06 -0.28 0.16 -0.77 0.26 -1.15 0.122 -0.503 0.276 -0.997 0.46 -1.48A8.8 8.8 0 0 1 30 1.28 2.6 2.6 0 0 1 31.34 0.12 a1.94 1.94 0 0 1 1.87 0.3 4 4 0 0 1 0.94 1.09A8.85 8.85 0 0 1 35 3.58c0.13 0.42 0.22 0.86 0.32 1.29 0.1 0.43 0.16 0.7 0.23 1 0.07 0.3 0.1 0.66 0.15 1 0.05 0.34 0.11 0.74 0.15 1.12 0.04 0.38 0.06 0.65 0.09 1s0.07 0.69 0.1 1c0 0.55 0.06 1.09 0.05 1.64a1.18 1.18 0 0 1-0.2 0.49 c-0.4 0.73 -0.83 1.45-1.22 2.2-0.39 0.75 -0.74 1.68-1.11 2.48-0.37 0.8 -0.63 1.41-0.93 2.13-0.3 0.72 -0.46 1.16-0.69 1.74l-0.05 0.1 zM42.82 13.68l-0.44-0.24-1.82-1a0.53 0.53 0 0 0-0.13-0.07 0.31 0.31 0 0 0-0.34 0.12 4.91 4.91 0 0 0-0.71 1.31c-0.27 0.65 -0.5 1.32-0.73 2-0.16 0.46 -0.29 0.93 -0.42 1.39-0.13 0.46 -0.25 1-0.36 1.47-0.11 0.47 -0.21 1-0.3 1.47s-0.2 1.1-0.3 1.65c-0.1 0.55 -0.21 1.14-0.32 1.7-0.07 0.34 -0.17 0.67 -0.25 1-0.08 0.33 -0.14 0.7 -0.24 1-0.17 0.61 -0.34 1.22-0.54 1.82a11.65 11.65 0 0 1-0.51 1.31A4.64 4.64 0 0 1 34 30.56a3.15 3.15 0 0 1-1.32 0.57 c-0.18 0-0.36 0-0.54 0.05 -0.18 0.05 -0.11 0-0.13-0.11-0.06-0.41-0.13-0.82-0.19-1.22s-0.08-0.69-0.12-1a2 2 0 0 1 0-0.2v-0.63-1-0.49-0.58c0-0.19 0-0.45 0.07 -0.68 0.05 -0.39 0.12 -0.79 0.18 -1.18 0-0.24 0.07 -0.48 0.12 -0.72 0.05 -0.24 0.13 -0.54 0.21 -0.8 0.19 -0.62 0.37 -1.24 0.6 -1.84 0.29 -0.77 0.61 -1.53 0.94 -2.28 0.33 -0.75 0.79 -1.8 1.22-2.69 0.43 -0.89 0.79 -1.56 1.22-2.32 0.43 -0.76 1-1.67 1.52-2.51a4.09 4.09 0 0 1 0.73-1 2 2 0 0 1 0.89-0.49 1.18 1.18 0 0 1 1.14 0.32 A7 7 0 0 1 41.62 11a9.65 9.65 0 0 1 1 2c0.07 0.17 0.11 0.35 0.17 0.53 a0.83 0.83 0 0 1 0.03 0.15 zM21.37 17.16v-0.32c0-0.37 0.06 -0.74 0.12 -1.1 0.06 -0.36 0.14 -0.64 0.21 -1a8.55 8.55 0 0 1 0.52-1.45c0.223-0.467 0.509 -0.9 0.85 -1.29a1.78 1.78 0 0 1 1.63-0.64c0.22 0.04 0.433 0.114 0.63 0.22 0.474 0.242 0.89 0.583 1.22 1A15.1 15.1 0 0 1 28.17 15c0.32 0.55 0.63 1.1 0.92 1.66 0.29 0.56 0.45 1 0.67 1.44 0.15 0.32 0.3 0.64 0.44 1 0.22 0.53 0.43 1.07 0.65 1.61l0.47 1.19c0.05 0.108 0.088 0.223 0.11 0.34 a1 1 0 0 1 0 0.32l-0.23 1c-0.07 0.3 -0.16 0.84 -0.23 1.26a5.87 5.87 0 0 0-0.07 0.59 c0 0.59-0.08 1.19-0.1 1.78v1.3c0 0.42 0 0.85 0.06 1.27 0.06 0.42 0.1 0.67 0.15 1v0.27c-0.17-0.09-0.35-0.16-0.51-0.27a4.86 4.86 0 0 1-1.5-1.4 8.15 8.15 0 0 1-0.58-1 13.41 13.41 0 0 1-0.52-1.29c-0.13-0.36-0.24-0.73-0.34-1.09-0.1-0.36-0.14-0.6-0.21-0.9-0.07-0.3-0.15-0.68-0.21-1-0.06-0.32-0.1-0.56-0.15-0.84-0.05-0.28-0.06-0.32-0.09-0.48-0.03-0.16-0.06-0.41-0.1-0.62-0.04-0.21-0.07-0.38-0.11-0.57-0.04-0.19 0-0.25-0.05-0.38 0-0.36-0.09-0.71-0.15-1.07-0.06-0.36-0.11-0.55-0.17-0.83-0.06-0.28 0-0.27-0.07-0.4-0.07-0.36-0.14-0.71-0.23-1.06-0.09-0.35-0.19-0.73-0.32-1.08-0.13-0.35-0.3-0.72-0.46-1.07a3.91 3.91 0 0 0-0.79-1 0.58 0.58 0 0 0-0.8-0.08 4.73 4.73 0 0 0-0.73 0.67 c-0.34 0.4 -0.64 0.84 -1 1.26l-0.41 0.56 a0.74 0.74 0 0 1-0.13 0.11 l-0.01-0.04zM5.36 23.07v-4.65A3.21 3.21 0 0 1 8 15.26a3 3 0 0 1 1.38 0 3.17 3.17 0 0 1 1.92 1.4c0.353 0.58 0.53 1.25 0.51 1.93v9.11a3.13 3.13 0 0 1-0.62 1.92 3.21 3.21 0 0 1-1.75 1.2 3 3 0 0 1-1.81 0 3.15 3.15 0 0 1-2.08-2.06 3.53 3.53 0 0 1-0.17-1.18c-0.01-1.5-0.02-3.01-0.02-4.51z" fill="#FFF"/>
  <path d="M11.72 29.92a6.41 6.41 0 0 0 0.33-0.63 3.9 3.9 0 0 0 0.24-0.79 22.24 22.24 0 0 0 0.08-3.41v-6.63a3.89 3.89 0 0 0-0.61-2.12 3.22 3.22 0 0 0-0.37-0.47c-0.09-0.09-0.08-0.15 0-0.25 0.4 -0.54 0.965 -0.933 1.61-1.12a3.13 3.13 0 0 1 1.7 0 3.2 3.2 0 0 1 2.4 3.63c-0.08 0.61 -0.22 1.21-0.33 1.82-0.06 0.35 -0.11 0.7 -0.17 1-0.06 0.3 -0.18 1-0.27 1.43-0.09 0.43 -0.11 0.69 -0.17 1-0.06 0.31 -0.18 1-0.27 1.46-0.06 0.31 -0.1 0.61 -0.15 0.92 -0.05 0.31 -0.13 0.75 -0.2 1.13-0.07 0.38 -0.09 0.52 -0.16 0.77 a2.92 2.92 0 0 1-0.75 1.3 3.19 3.19 0 0 1-2.83 0.95 l-0.08 0.01 zM5.43 29.94a3.65 3.65 0 0 1-1.58-0.11A3.18 3.18 0 0 1 2 28.37a3.4 3.4 0 0 1-0.42-1.27c-0.05-0.36-0.13-0.71-0.2-1.06l-0.09-0.48c-0.1-0.54-0.2-1.08-0.29-1.62-0.09-0.54-0.09-0.94-0.17-1.39-0.08-0.45-0.19-1-0.27-1.49-0.08-0.49-0.11-0.71-0.18-1.06-0.07-0.35-0.17-1-0.26-1.42A4 4 0 0 1 0 17a3.15 3.15 0 0 1 2-2.43 3.09 3.09 0 0 1 1.8-0.19 3.15 3.15 0 0 1 2 1.23c0.06 0.08 0 0.14 0 0.21a3.46 3.46 0 0 0-0.82 1.43 4.28 4.28 0 0 0-0.16 1.1v9.38a3.72 3.72 0 0 0 0.58 2s0 0.13 0.03 0.21zM1 17.59l0.18 1.08c0.08 0.48 0.16 1 0.24 1.45 0.031 0.196 0.075 0.39 0.13 0.58a0.42 0.42 0 0 0 0.61 0.23 0.39 0.39 0 0 0 0.21-0.44c-0.05-0.37-0.11-0.74-0.17-1.12-0.06-0.38-0.1-0.58-0.15-0.87-0.05-0.29-0.11-0.61-0.13-0.92a1.29 1.29 0 0 1 1-1.29 0.52 0.52 0 0 0 0.3-0.27 0.4 0.4 0 0 0-0.09-0.45c-0.22-0.22-0.47-0.13-0.7 0A2.24 2.24 0 0 0 1 17.59zM7.4 14.74c0.13-0.17 0.25 -0.35 0.39 -0.52a1 1 0 0 0 0.26-0.68V9.35A2.44 2.44 0 0 0 6.48 7a2.85 2.85 0 0 0-0.87-0.18 0.54 0.54 0 0 1-0.55-0.72 0.57 0.57 0 0 1 0.51-0.37c0.245 0.006 0.49 0.033 0.73 0.08 a3.52 3.52 0 0 1 1.51 0.72 A3.38 3.38 0 0 1 9 8.31a5 5 0 0 1 0.14 1.18v3.95a1.24 1.24 0 0 0 0.29 0.87 c0.117 0.142 0.218 0.296 0.3 0.46 a3.77 3.77 0 0 0-2.3 0l-0.03-0.03zM10.87 15.31l-0.37-0.49-0.7-1c-0.15-0.22-0.07-0.47-0.06-0.7a0.2 0.2 0 0 1 0.13 0c0.21 0.11 0.42 0.23 0.61 0.36 a0.4 0.4 0 0 0 0.42 0.06 3.12 3.12 0 0 1 1.45-0.24c0.451 0.038 0.89 0.167 1.29 0.38 v0.05a3.83 3.83 0 0 0-2.77 1.58z" fill="#FFF"/>
  <path d="M3.44 13.73a3 3 0 0 1 0.35-0.18 3.18 3.18 0 0 1 1.57-0.23c0.304 0.05 0.602 0.13 0.89 0.24 a0.39 0.39 0 0 0 0.38 0l0.64-0.39c0.13-0.08 0.17 0 0.2 0.11 a1.08 1.08 0 0 1-0.31 0.87 c-0.27 0.33 -0.53 0.67 -0.78 1-0.09 0.12 -0.15 0.13 -0.25 0a3.68 3.68 0 0 0-1.26-1 3.27 3.27 0 0 0-1.21-0.34h-0.19l-0.03-0.08z" fill="#FFF"/>
</svg>
