<?xml version="1.0" ?>
<svg xmlns="http://www.w3.org/2000/svg" width="48" height="30" viewBox="0 0 48 30">
  <path d="M0 23v-1.55h9.8c0.23 0 0.3-0.07 0.32 -0.28 0.07 -0.62 0.1 -0.5-0.43-0.5H4.84c-0.21 0-0.26-0.07-0.25-0.26v-1.26h5.69c0.22 0 0.38 0 0.41-0.29a3.29 3.29 0 0 1 0.15-0.49H2.31v-1.52h9.34a0.48 0.48 0 0 0 0.4-0.2c0.33-0.38 0.67 -0.74 1-1.1 0.09 -0.09 0.23 -0.13 0.33 -0.25H6.91V13h0.41c0.37 0 0.34 0.05 0.34-0.36V2.55c0-0.28 0-0.28-0.29-0.28h-0.46V0H26.8v2.27c-0.17 0.01 -0.34 0.01 -0.51 0-0.19 0-0.25 0.05 -0.25 0.25 v10.27c0 0.2 0.06 0.26 0.25 0.24h0.51v2.27h-0.57a0.28 0.28 0 0 0-0.22 0.09 2.45 2.45 0 0 1-1.25 0.77 c-0.28 0.1 -0.57 0.18 -0.86 0.26 a0.18 0.18 0 0 0-0.15 0.19 v4.3a0.19 0.19 0 0 0 0.16 0.21 c0.39 0.1 0.78 0.22 1.18 0.3 0.4 0.08 1.05 0.21 1.58 0.29 a7.31 7.31 0 0 0 1.14 0.1 h2.48a10.85 10.85 0 0 0 2.33-0.35 8.44 8.44 0 0 1 0.9-0.21 0.23 0.23 0 0 0 0.22-0.27v-1.36a4.38 4.38 0 0 1 0.52-2 3.54 3.54 0 0 0 0.31-1.92 11.7 11.7 0 0 0-0.15-1.17c-0.08-0.41-0.19-0.81-0.27-1.21-0.08-0.4-0.19-1-0.29-1.5-0.1-0.5-0.19-0.88-0.28-1.32-0.09-0.44-0.21-1.08-0.32-1.62-0.07-0.34-0.16-0.68-0.23-1 0-0.15-0.1-0.19-0.25-0.19h-2.87V6.13H32.22a2.77 2.77 0 0 1 1.27 0.24 c0.31 0.14 0.64 0.22 1 0.35 0.46 -1.56 1.69-1.77 3.06-1.75v5.73H36c0.1 0.27 0.16 0.52 0.26 0.75 a4.06 4.06 0 0 0 1.07 1.4c0.257 0.168 0.547 0.28 0.85 0.33 0.71 0.25 1.43 0.46 2.13 0.75 A10.8 10.8 0 0 1 43.56 16a10.11 10.11 0 0 1 2 2.45c0.397 0.691 0.712 1.426 0.94 2.19a13 13 0 0 1 0.25 1.36c0 0.15 0.08 0.19 0.22 0.18 0.14 -0.01 0.36 0 0.56 0v1.07s-0.07 0.12 -0.13 0.15 l-2.91 1.82a0.29 0.29 0 0 0-0.11 0.16 5 5 0 0 1-2.22 3 4.45 4.45 0 0 1-1.6 0.62 A4.19 4.19 0 0 1 37 28a5 5 0 0 1-1.55-2.22 0.86 0.86 0 0 1-0.05-0.23c0-0.28-0.3-0.38-0.44-0.57a1.26 1.26 0 0 0-1.12-0.51H23.2a0.52 0.52 0 0 0-0.43 0.18 c-0.2 0.22 -0.43 0.4 -0.63 0.61 a0.88 0.88 0 0 0-0.13 0.33 4.83 4.83 0 0 1-2.64 3.08 3.77 3.77 0 0 1-2.16 0.41 A4.68 4.68 0 0 1 14.75 28a5.26 5.26 0 0 1-1.63-2.56 0.22 0.22 0 0 0-0.14-0.14 3.58 3.58 0 0 1-1.31-0.65 9.69 9.69 0 0 1-1.57-1.5 0.42 0.42 0 0 0-0.36-0.15H0zM15.6 8.13a0.47 0.47 0 0 1-0.12 0.14 c-0.87 0.7 -1.75 1.37-2.6 2.08a3.11 3.11 0 0 0-1.07 1.45c-0.07 0.23 0 0.51 0.21 0.53a1.13 1.13 0 0 0 0.52-0.07 3.51 3.51 0 0 0 1.34-1.14c0.65-0.78 1.26-1.59 1.9-2.38 0.23 -0.29 0.23 -0.28 0.47 0 0.64 0.8 1.27 1.61 1.93 2.39 0.323 0.44 0.758 0.785 1.26 1 0.37 0.14 0.71 0 0.64-0.35a1.18 1.18 0 0 0-0.2-0.49 10.44 10.44 0 0 0-1.06-1.14c-0.74-0.64-1.51-1.24-2.27-1.84-0.14-0.11-0.23-0.22-0.06-0.36 0.42 -0.38 0.84 -0.75 1.27-1.11a0.32 0.32 0 0 1 0.27 0 1.9 1.9 0 0 0 1.85 0 2.65 2.65 0 0 0 1.43-2.29 1.77 1.77 0 0 0-0.18-0.93 1.42 1.42 0 0 0-1.45-0.73 2.74 2.74 0 0 0-2.19 1.17A1.91 1.91 0 0 0 17.23 6c0.08 0.21 0.17 0.39 0 0.59L16.15 7.7a0.64 0.64 0 0 1-0.19 0.13 0.56 0.56 0 0 0-0.16-0.63L14 5.33 11.59 3c-0.19-0.19-0.35-0.16-0.46 0.09 a0.38 0.38 0 0 0 0 0.21c0.075 0.376 0.176 0.747 0.3 1.11a4.06 4.06 0 0 0 1.07 1.66 21 21 0 0 0 2.33 1.66c0.248 0.15 0.505 0.283 0.77 0.4 zm5.1 16a3.08 3.08 0 1 0-3 3.07 3.11 3.11 0 0 0 3-3.07zm16.09 0a3.08 3.08 0 1 0 3.1-3.13 3.09 3.09 0 0 0-3.1 3.11v0.02z" fill="#FFF"/>
  <path d="M19.14 24.13a1.52 1.52 0 1 1-1.5-1.53 1.51 1.51 0 0 1 1.5 1.53zM39.88 22.6a1.52 1.52 0 1 1 0.492 3 1.52 1.52 0 0 1-0.492-3z" fill="#FFF"/>
</svg>
