<?xml version="1.0" ?>
<svg xmlns="http://www.w3.org/2000/svg" width="44" height="23" viewBox="0 0 44 23">
  <path d="M39.75 19.16c0-0.28-0.06-0.53-0.09-0.79a3.52 3.52 0 0 0-0.61-1.6 3.82 3.82 0 0 0-1.86-1.51 3.73 3.73 0 0 0-2-0.24 4.08 4.08 0 0 0-1.67 0.63 3.93 3.93 0 0 0-1.55 2 4.35 4.35 0 0 0-0.28 1.35c0 0.15-0.06 0.18 -0.19 0.18 h-0.87L12 19.24c-0.29 0-0.3 0-0.3-0.3a3.84 3.84 0 0 0-1.94-3.49 3.66 3.66 0 0 0-2.36-0.57 4 4 0 0 0-3 1.73A3.79 3.79 0 0 0 3.72 19c0 0.21-0.06 0.26 -0.26 0.25 H0.33c-0.3 0-0.3 0-0.3-0.29v-6.61-1.26A2.65 2.65 0 0 1 0.36 10a0.67 0.67 0 0 1 0.22-0.25c0.26-0.1 0.27 -0.32 0.3 -0.53 0.12 -0.6 0.12 -1.16 0.2 -1.72l0.33-2.19c0.07-0.52 0.1 -1 0.19-1.54a2.1 2.1 0 0 1 0.31-1.12A1.5 1.5 0 0 1 3 2.07h16.52a1.54 1.54 0 0 0 1.08-0.44c0.43-0.38 0.85 -0.76 1.27-1.16a1.4 1.4 0 0 1 1-0.42l14.92 0.03 c1.3 0 2.59 0 3.89 0.06 0.37 0 0.49 0.28 0.61 0.54 s0.34 0.82 0.52 1.22a0.48 0.48 0 0 0 0.51 0.36 0.47 0.47 0 0 1 0.46 0.51 v15.48a0.69 0.69 0 0 1 0 0.25c0 0.07-0.1 0.16 -0.17 0.17 l-2 0.28-1.51 0.23 a2.17 2.17 0 0 1-0.35-0.02zm-1-9.62h3.59c0.16 0 0.22 0 0.22-0.21V3.4c0-0.2 0-0.26-0.26-0.26h-7.1c-0.25 0-0.27 0-0.27 0.27 v5.86c0 0.26 0 0.26 0.27 0.26l3.55 0.01 zM13.8 9.46h3.54c0.28 0 0.28 0 0.28-0.27V3.33c0-0.23 0-0.26-0.26-0.26h-7.09c-0.19 0-0.25 0.05 -0.25 0.25 v5.91c0 0.18 0 0.23 0.23 0.23h3.55zm12.88 0H34c0.2 0 0.25-0.06 0.25 -0.25V3.38c0-0.31 0-0.31-0.31-0.31h-7c-0.27 0-0.27 0-0.27 0.27 v5.91c0 0.06 0.01 0.12 0.01 0.21zm-8.75 1.35v7.89c0 0.28 0 0.29 0.29 0.29h8c0.29 0 0.29 0 0.29-0.3V2.93c0-0.29 0-0.3-0.3-0.3h-7.95c-0.32 0-0.33 0-0.33 0.33 v7.85zM9.57 15a1.15 1.15 0 0 0 0-0.16c0-1.18 0.06 -2.36 0.06 -3.54V2.84c0-0.27 0-0.28-0.28-0.28H3.78a2.1 2.1 0 0 0-0.93 0.19 A1.33 1.33 0 0 0 2 3.84c0 0.34-0.07 0.67 -0.11 1-0.04 0.33 -0.05 0.48 -0.09 0.72 -0.08 0.57 -0.17 1.14-0.24 1.71-0.07 0.57 -0.13 1.21-0.19 1.82l-0.09 0.8 a13.77 13.77 0 0 0-0.17 1.56v7.08a0.74 0.74 0 0 0 0 0.21c0 0.06 0.09 0.14 0.14 0.14h1.91c0.06 0 0.14-0.09 0.16 -0.15 0.09 -0.39 0.16 -0.8 0.26 -1.2a3.69 3.69 0 0 1 0.91-1.65 4.13 4.13 0 0 1 1.51-1c0.34-0.11 0.69 -0.18 1-0.26a3.71 3.71 0 0 1 1.69 0.09 c0.31 0.03 0.6 0.15 0.88 0.29 z" fill="#FFF"/>
  <path d="M11.51 18.84a3.81 3.81 0 1 1-7.62 0 3.81 3.81 0 0 1 7.62 0zM7.73 16a2.8 2.8 0 1 0 0.02 5.6 2.8 2.8 0 0 0-0.02-5.6zM31.9 19a3.81 3.81 0 1 1 3.79 3.8A3.78 3.78 0 0 1 31.9 19zm6.61 0a2.77 2.77 0 0 0-2.79-2.81A2.81 2.81 0 1 0 38.51 19zM18.07 10.79V3c0-0.26 0-0.26 0.27 -0.26h7.71c0.3 0 0.3 0 0.3 0.31 v15.59c0 0.17-0.06 0.24 -0.24 0.24 h-7.77c-0.27 0-0.27 0-0.27-0.28v-7.81zm4.09-1.31h3.54c0.19 0 0.27-0.05 0.27 -0.26V3.35c0-0.19 0-0.26-0.24-0.26h-7.12c-0.19 0-0.26 0.05 -0.26 0.26 v5.81c0 0.3 0 0.3 0.31 0.3l3.5 0.02 z" fill="#FFF"/>
  <path d="M9.48 14.8l-0.62-0.21a3.69 3.69 0 0 0-1.92-0.1 5.85 5.85 0 0 0-1.17 0.35 4.26 4.26 0 0 0-1.63 1.32 4 4 0 0 0-0.71 1.61c-0.06 0.27 -0.12 0.55 -0.17 0.82 -0.05 0.27 -0.14 0.19 -0.27 0.19 H1.75c-0.51 0-0.51 0-0.51-0.5v-6.47c0-0.59 0.1 -1.18 0.16 -1.76 0-0.26 0.07 -0.51 0.1 -0.76 0.07 -0.62 0.13 -1.24 0.2 -1.86 0.07 -0.62 0.11 -1 0.17-1.46 0.09 -0.73 0.18 -1.46 0.28 -2.18a1.31 1.31 0 0 1 1.24-1.1h5.87c0.26 0 0.28 0 0.28 0.28 v11.61c-0.04 0.06 -0.05 0.13 -0.06 0.22 zM9.12 3.05H3.55a0.73 0.73 0 0 0-0.25 0 1.32 1.32 0 0 0-0.92 1.25c0 0.72-0.12 1.44-0.18 2.16 0 0.3-0.05 0.6 -0.09 0.9 -0.11 0.72 -0.11 1.41-0.24 2.1-0.06 0.54 -0.1 1.08-0.16 1.62 0 0.25 0 0.27 0.24 0.27h7c0.18 0 0.23 0 0.23-0.22V3.26a1.55 1.55 0 0 0-0.06-0.21z" fill="#FFF"/>
</svg>
