<?xml version="1.0" ?>
<svg xmlns="http://www.w3.org/2000/svg" width="44" height="28" viewBox="0 0 44 28">
  <path d="M21.21 25.57h-6.78a6.57 6.57 0 0 1-1.16-0.21c-0.88-0.18-1.76-0.38-2.64-0.57L8 24.22l-2.49-0.54-2.31-0.51-2.5-0.52a0.94 0.94 0 0 1-0.22-0.07A0.66 0.66 0 0 1 0 22a0.71 0.71 0 0 1 0.56-0.62 1.73 1.73 0 0 1 0.44-0.07c1.89 0.11 3.78 0.24 5.67 0.33 1.89 0.09 3.84 0.17 5.76 0.25 4.78 0.2 9.55 0.22 14.32 0.12 2.69-0.05 5.37-0.17 8.06-0.28 2-0.08 4-0.2 6-0.31 0.56 0 1.12-0.08 1.68-0.1 0.194 -0.01 0.389 0.02 0.57 0.09a0.65 0.65 0 0 1 0.48 0.62 0.74 0.74 0 0 1-0.61 0.6 l-1.8 0.37 -2.45 0.5 -2.79 0.5 -2.35 0.48 -2.37 0.52 c-0.76 0.15 -1.53 0.32 -2.3 0.46 a6.67 6.67 0 0 1-1.17 0.14 h-6.49v-0.03zM21.58 20.56c-2.65 0-5.3-0.07-7.94-0.28-1.49-0.12-3-0.31-4.44-0.52a11.31 11.31 0 0 1-3-0.76 2.29 2.29 0 0 1-0.51-0.32 0.36 0.36 0 0 1 0-0.62 3.81 3.81 0 0 1 1-0.5 18.56 18.56 0 0 1 3.37-0.72l0.39-0.06c0.15 0 0.21 0 0.2 0.18 a7.6 7.6 0 0 0 0 0.95c0 0.196 0.041 0.39 0.12 0.57a0.73 0.73 0 0 0 0.72 0.51 0.84 0.84 0 0 0 0.69-0.69 5.72 5.72 0 0 0 0-0.83v-0.65c0-0.21 0-0.23 0.2 -0.25 0.93 -0.07 1.86-0.17 2.8-0.22 2.7-0.16 5.41-0.24 8.12-0.17 1.81 0 3.62 0.13 5.44 0.23 1.07 0.06 2.15 0.16 3.22 0.28 a24.35 24.35 0 0 1 4.24 0.78 5.31 5.31 0 0 1 1.07 0.46 c0.46 0.26 0.44 0.6 0 0.89a5.09 5.09 0 0 1-1.63 0.6 c-0.92 0.2 -1.84 0.37 -2.76 0.51 -0.78 0.12 -1.57 0.2 -2.36 0.27 -1 0.08-2 0.16-2.95 0.2 l-6 0.21 0.01 -0.05zM21.57 14.61l-7.25-0.29c-0.68 0-1.36-0.12-2.05-0.17-0.19 0-0.27-0.07-0.27-0.28 0-1-0.05-2-0.08-3 0-0.2 0.06 -0.28 0.26 -0.3l4.39-0.29c0.21 0 0.22 0.08 0.21 0.25 -0.05 0.87 -0.1 1.74-0.12 2.61a1.21 1.21 0 0 0 0.16 0.61 0.7 0.7 0 0 0 1.24 0c0.16-0.274 0.21 -0.6 0.14 -0.91-0.09-0.8-0.18-1.6-0.28-2.4 0-0.18 0-0.23 0.21 -0.23 2.8-0.07 5.6-0.08 8.4 0.07 0.63 0 1.25 0.07 1.88 0.09 0.19 0 0.21 0.07 0.2 0.25 a2.28 2.28 0 0 0 0 1.07 0.81 0.81 0 0 0 0.61 0.6 0.77 0.77 0 0 0 0.87-0.68 5.28 5.28 0 0 0 0-0.89c0-0.17 0-0.22 0.22 -0.2 1.11 0.13 2.22 0.23 3.32 0.4 a13.25 13.25 0 0 1 3.16 0.76 c0.226 0.094 0.438 0.218 0.63 0.37 0.25 0.2 0.26 0.45 0 0.63a5.08 5.08 0 0 1-1.07 0.53 19.93 19.93 0 0 1-3.5 0.71 74.93 74.93 0 0 1-9.11 0.61 h-2.17v0.08zM21.6 4.18c-2.1 0-4.193 0.107 -6.28 0.32 -1.22 0.12 -2.43 0.31 -3.63 0.49 a1.27 1.27 0 0 0-0.82 0.63 0.39 0.39 0 0 0 0.12 0.56 0.4 0.4 0 0 1 0.15 0.41 C11.09 7 11.06 7.5 11 8c0 0.18-0.07 0.23 -0.24 0.2 -1-0.17-2-0.3-3-0.49a6.36 6.36 0 0 1-1.75-0.6c-0.69-0.37-0.58-0.84-0.12-1.21a4.73 4.73 0 0 1 1.5-0.8 20.07 20.07 0 0 1 3.83-1c1.41-0.22 2.83-0.4 4.25-0.57 0.62 -0.08 1.25-0.1 1.87-0.14 0.2 0 0.27-0.08 0.29 -0.28a6.5 6.5 0 0 1 0.49-2.22c0.24-0.56 0.8 -0.914 1.41-0.89 0.59 0 1.17 0.05 1.75 0.11 a9.83 9.83 0 0 0 2.17 0 3.19 3.19 0 0 1 1.07 0.05 1.62 1.62 0 0 1 1.29 1.33c0.11 0.51 0.19 1.11 0.19 1.69 0 0.2 0.09 0.27 0.3 0.28 1.07 0.09 2.14 0.19 3.2 0.32 0.84 0.1 1.67 0.22 2.5 0.37 a17.74 17.74 0 0 1 4.52 1.3c0.272 0.132 0.527 0.297 0.76 0.49 A0.59 0.59 0 0 1 37.2 7a5.14 5.14 0 0 1-1.9 0.67 c-1.28 0.22 -2.57 0.41 -3.86 0.59 -0.44 0.07 -0.88 0.08 -1.33 0.12 -0.12 0-0.2 0-0.22-0.17-0.08-0.7-0.17-1.41-0.26-2.12 0-0.31 0-0.4 0.34 -0.4h1a1.91 1.91 0 0 0 0.53-0.1c0.2-0.08 0.23 -0.25 0-0.35a2.73 2.73 0 0 0-0.83-0.39c-0.71-0.13-1.44-0.21-2.16-0.29-0.72-0.08-1.69-0.16-2.51-0.2-1.49-0.08-2.95-0.13-4.4-0.18z" fill="#FFF"/>
  <path d="M23.25 8.68H18.2c-0.32 0-0.34 0-0.28-0.34s0.18-0.84 0.31 -1.25a0.85 0.85 0 0 1 0.31-0.37 9.59 9.59 0 0 1 1.43-1 2.33 2.33 0 0 1 2.36 0.28 c0.288 0.205 0.519 0.48 0.67 0.8 a1.06 1.06 0 0 0 1.36 0.6 0.46 0.46 0 0 0 0.39-0.57c0-0.17-0.06-0.34-0.09-0.51-0.07-0.38 0.05 -0.61 0.43 -0.61a5 5 0 0 1 1.34 0.17 c0.62 0.17 1.23 0.42 1.83 0.65 a0.61 0.61 0 0 1 0.3 0.27 3.45 3.45 0 0 1 0.24 1.59c0 0.15-0.13 0.15 -0.24 0.16 l-2 0.11c-0.56 0-1.12 0.02 -1.68 0.06 l-1.63-0.04zM21.42 26.23H28c0.32 0 0.32 0 0.32 0.31 v0.67c0 0.23-0.07 0.24 -0.24 0.23 H14.84c-0.33 0-0.33 0-0.33-0.33v-0.62c0-0.2 0.06 -0.26 0.25 -0.26h6.66zM10.75 12.32v1.43c0 0.17-0.07 0.22 -0.24 0.19 -0.92-0.16-1.85-0.28-2.76-0.49A12.12 12.12 0 0 1 6 12.87a0.59 0.59 0 0 1-0.46-0.52c0-0.28 0.23 -0.43 0.46 -0.52a13.29 13.29 0 0 1 1.75-0.58c0.93-0.21 1.89-0.34 2.84-0.51 0.24 0 0.25 0 0.25 0.23 l-0.06 1.35h-0.03zM15.72 8.6l-3.48-0.29C12 8.3 12 8.22 12 8c0.08-0.39 0.14 -0.79 0.22 -1.18a0.69 0.69 0 0 1 0.55-0.59c0.76-0.18 1.51-0.41 2.27-0.58 0.291 -0.05 0.589 -0.05 0.88 0 0.35 0 0.45 0.26 0.32 0.59 0 0.1-0.08 0.19 -0.11 0.28 a0.47 0.47 0 0 0 0.32 0.67 h0.1c0.45 0.11 0.45 0.11 0.41 0.58 0 0.21-0.06 0.42 -0.07 0.63 -0.01 0.21 -0.07 0.15 -0.18 0.15 l-1-0.05 0.01 0.1z" fill="#FFF"/>
  <path d="M21.83 3.33h-2.51c-0.27 0-0.3 0-0.26-0.28 0.08 -0.48 0.17 -1 0.27-1.43a0.3 0.3 0 0 1 0.36-0.24l1.16 0.1 c0.86 0.105 1.73 0.105 2.59 0 0.22-0.02 0.44 -0.02 0.66 0a0.34 0.34 0 0 1 0.34 0.29 c0.07 0.48 0.12 1 0.18 1.45 0 0.18-0.1 0.17 -0.23 0.17 l-2.56-0.09v0.03z" fill="#EC1C24"/>
</svg>
