<?xml version="1.0" ?>
<svg xmlns="http://www.w3.org/2000/svg" width="16" height="36" viewBox="0 0 16 36">
  <path d="M8 17.48H0.25c-0.24 0-0.24 0-0.24-0.23v-2.78a4.39 4.39 0 0 1 0.74-2.3 12 12 0 0 1 1.06-1.4C2.6 9.86 3.42 9 4.2 8.07a3.11 3.11 0 0 0 0.71-1.25 1.14 1.14 0 0 0 0-0.37V3.84c0-0.17 0-0.23-0.22-0.23a1.37 1.37 0 0 1-1.43-1 2.51 2.51 0 0 1 0-1.77A1.42 1.42 0 0 1 4.77 0H11.24a1.45 1.45 0 0 1 1.38 0.93 0.69 0.69 0 0 1 0.09 0.3 c0.04 0.416 0.04 0.834 0 1.25a1.38 1.38 0 0 1-1.32 1.12 0.45 0.45 0 0 1-0.16 0c-0.18 0-0.23 0.07 -0.22 0.23 0.01 0.16 0 0.48 0 0.73V6.2c-0.016 0.474 0.12 0.94 0.39 1.33a18.12 18.12 0 0 0 1.77 2.14c0.5 0.55 1 1.08 1.5 1.65a5.78 5.78 0 0 1 1.2 2.35c0.06 0.252 0.09 0.51 0.09 0.77 v2.78c0 0.24 0 0.24-0.23 0.24 L8 17.48zM8 24.35h7.7c0.25 0 0.25 0 0.25 0.26 v8.81a2.41 2.41 0 0 1-0.11 0.76 1.36 1.36 0 0 1-1.17 0.91 6.52 6.52 0 0 1-1.09 0.06 H2.4a9.23 9.23 0 0 1-1 0A1.45 1.45 0 0 1 0 33.58V29v-4.44c0-0.18 0.05 -0.22 0.22 -0.22l7.78 0.01 zM2.33 21.61a0.51 0.51 0 0 0 0.07-0.15c0.25-0.92 0.49 -1.83 0.73 -2.75a0.2 0.2 0 0 1 0.23-0.18h1.1c0.13 0 0.17 0 0.17 0.18 V23c0 0.14 0 0.2-0.18 0.19 a4.51 4.51 0 0 0-0.52 0c-0.15 0-0.18-0.05-0.18-0.19v-3.3h-0.06c0 0.17-0.1 0.33 -0.14 0.5 -0.25 1-0.49 1.91-0.73 2.86 0 0.05-0.1 0.13 -0.15 0.13 h-0.69c-0.05 0-0.13-0.08-0.15-0.13-0.19-0.72-0.37-1.45-0.56-2.17-0.09-0.38-0.19-0.75-0.29-1.13v-0.06 3.26c0 0.16 0 0.22-0.21 0.21 a4 4 0 0 0-0.49 0c-0.16 0-0.21 0-0.2-0.2v-4.24c0-0.14 0-0.2 0.18 -0.2h1.05a0.16 0.16 0 0 1 0.18 0.14 c0.23 0.87 0.47 1.74 0.7 2.61l0.09 0.32 0.05 0.01 zM12.56 20.57a1.64 1.64 0 0 0 0.18-0.16c0.55-0.58 1.1-1.15 1.64-1.73a0.39 0.39 0 0 1 0.34-0.15h1.05a1.9 1.9 0 0 0-0.16 0.18 l-1.48 1.48a0.19 0.19 0 0 0 0 0.29c0.57 0.84 1.12 1.68 1.68 2.52 0 0.05 0.05 0.1 0.11 0.19a3.86 3.86 0 0 0-0.59 0 0.82 0.82 0 0 1-1-0.55c-0.25-0.51-0.58-1-0.88-1.48l-0.1-0.16-0.77 0.76 a0.28 0.28 0 0 0 0 0.19v1c0 0.16 0 0.21-0.2 0.2 a5 5 0 0 0-0.55 0c-0.15 0-0.19-0.05-0.19-0.19v-2.85-1.39c0-0.14 0-0.2 0.18 -0.19h0.57c0.15 0 0.19 0 0.19 0.19 v1.6c-0.04 0.06 -0.03 0.13 -0.02 0.25 zM7.51 20.88v-2.11c0-0.16 0-0.22 0.21 -0.21 0.177 0.01 0.353 0.01 0.53 0 0.18 0 0.22 0.06 0.22 0.23 v3.3a0.85 0.85 0 0 1 0 0.16c0 0.14 0 0.19 0.19 0.19h2c0.26 0 0.26 0 0.26 0.27 0 0.51 0 0.51-0.51 0.51 H7.74c-0.23 0-0.23 0-0.24-0.25 0-0.7 0-1.4 0.01 -2.09zM6.53 20.87v2.14c0 0.14 0 0.21-0.19 0.2 a5.81 5.81 0 0 0-0.59 0c-0.12 0-0.17 0-0.17-0.17v-4.35c0-0.12 0-0.16 0.16 -0.16h0.6c0.16 0 0.19 0.07 0.19 0.21 v2.13z" fill="#FFF"/>
</svg>
