<?xml version="1.0" ?>
<svg xmlns="http://www.w3.org/2000/svg" width="44" height="19" viewBox="0 0 44 19">
  <path d="M0 11.33l0.06-0.09c0.08-0.173 0.2 -0.203 0.36 -0.09 0.26 0.19 0.52 0.39 0.79 0.56a16.09 16.09 0 0 0 3.6 1.72c1.59 0.56 3.222 0.99 4.88 1.29 1 0.19 2 0.35 3 0.5 0.72 0.11 1.45 0.18 2.18 0.25 0.73 0.07 1.61 0.15 2.41 0.21 l1.78 0.09 c0.81 0 1.61 0.05 2.42 0.05 h2.85c0.67 0 1.34 0 2-0.07 0.66 -0.07 1.61-0.1 2.42-0.16 0.81 -0.06 1.43-0.11 2.13-0.2 0.94 -0.11 1.87-0.24 2.8-0.39a32.22 32.22 0 0 0 3.78-0.83 18.25 18.25 0 0 0 4.22-1.72c0.44-0.26 0.85 -0.56 1.27-0.85l0.1-0.07c0.15-0.08 0.26 -0.06 0.31 0.1 0.073 0.204 0.127 0.415 0.16 0.63 0.06 0.294 0.06 0.596 0 0.89a1.19 1.19 0 0 1-0.42 0.61 16.87 16.87 0 0 1-4.39 2.49 29 29 0 0 1-5.33 1.52c-1 0.2-2 0.36-3.06 0.51 -0.79 0.11 -1.6 0.18 -2.4 0.25 -0.8 0.07 -1.67 0.11 -2.51 0.16 -1.53 0.09 -3.06 0.1 -4.6 0.07 -0.9 0-1.8-0.07-2.7-0.12-0.9-0.05-1.56-0.11-2.34-0.2-0.78-0.09-1.82-0.21-2.73-0.37-1.08-0.18-2.17-0.38-3.24-0.62a29.08 29.08 0 0 1-6.54-2.25 15.71 15.71 0 0 1-2.87-1.83 4.19 4.19 0 0 1-0.39-0.45v-1.59zM0 0h2.51c0.11 0 0.12 0.05 0.12 0.14 v2.11c0 0.28 0.08 0.36 0.37 0.36h1.5c0.184 0.009 0.365 0.043 0.54 0.1 a1 1 0 0 1 0.69 1v2.87a4.7 4.7 0 0 1-0.58 2.29A3.23 3.23 0 0 1 3 10.41a8.1 8.1 0 0 1-1.84 0.11 c-0.11 0-0.1-0.06-0.1-0.13V8.87a2.61 2.61 0 0 0 0-0.28c0-0.11 0-0.13 0.14 -0.14a3.68 3.68 0 0 0 0.8-0.08 1.46 1.46 0 0 0 1.11-1.25 5.5 5.5 0 0 0 0.08-0.91v-0.93c0-0.31-0.14-0.5-0.51-0.5H1.07a1 1 0 0 1-1-1 1 1 0 0 0 0-0.17L0 0zM36.13 10.5l0.09-0.67c0.12-0.76 0.24 -1.52 0.37 -2.27 0.06 -0.33 0.13 -0.66 0.19 -1a0.37 0.37 0 0 0 0-0.23 14.75 14.75 0 0 1-0.93-2.69 7.53 7.53 0 0 1-0.11-0.83c0-0.16 0.05 -0.21 0.21 -0.21h2.12c0.1 0 0.12 0 0.15 0.12 0.2 0.64 0.4 1.27 0.61 1.9v0.11a1 1 0 0 0 0.06-0.19 5.66 5.66 0 0 1 0.5-1.19 1.72 1.72 0 0 1 1.45-0.88 3.94 3.94 0 0 1 1.37 0.07 A1.76 1.76 0 0 1 43.57 4c0.06 0.283 0.09 0.571 0.09 0.86 v4.05a3.67 3.67 0 0 1-0.14 0.87 1 1 0 0 1-0.94 0.72 H40V8.36h0.56c0.41 0 0.49-0.08 0.5 -0.48V5.45a0.69 0.69 0 0 0-1-0.7 0.7 0.7 0 0 0-0.44 0.46 7.43 7.43 0 0 0-0.27 1c-0.17 1-0.31 1.91-0.46 2.87-0.06 0.44 -0.09 0.88 -0.14 1.32 0 0-0.06 0.09 -0.09 0.09 h-2.49l-0.04 0.01 zM11.59 4.78h-1.13V2.62h5.71a1.87 1.87 0 0 1 2 1.8c0.01 0.203 0.01 0.407 0 0.61v5.48H15.6V5.58a2.45 2.45 0 0 0 0-0.27 0.55 0.55 0 0 0-0.6-0.53h-0.8c-0.19 0-0.24 0-0.24 0.24 v3.24a3.19 3.19 0 0 1-0.16 1.1 1.65 1.65 0 0 1-1.57 1.16h-1.85c-0.1 0-0.13 0-0.13-0.14V8.49c0-0.1 0-0.14 0.13 -0.13h0.44a0.45 0.45 0 0 0 0.51-0.51V6a2 2 0 0 1 0.26-1.22zM24.93 2.62h1.29a5.64 5.64 0 0 1 1.09 0.18 2 2 0 0 1 1.48 1.62A6.4 6.4 0 0 1 29 6.11c0 0.58 0 1.17-0.06 1.74a3.08 3.08 0 0 1-0.74 1.9 2.18 2.18 0 0 1-1.29 0.68 4.41 4.41 0 0 1-0.89 0.09 h-2.43c-0.13 0-0.17 0-0.17-0.16V8.51c0-0.13 0-0.16 0.17 -0.16h1.79a0.77 0.77 0 0 0 0.83-0.61 3.16 3.16 0 0 0 0.11-0.6 5 5 0 0 0-0.12-1.76 0.77 0.77 0 0 0-0.85-0.61h-1.78c-0.11 0-0.15 0-0.15-0.14V2.74c0-0.11 0-0.14 0.15 -0.14h1.36v0.02zM32.56 10.52V5.58a2.09 2.09 0 0 0 0-0.25 0.55 0.55 0 0 0-0.64-0.55h-2.17c-0.18 0-0.18 0-0.18-0.18V2.78c0-0.13 0-0.17 0.16 -0.17h3.52c0.284 0.011 0.564 0.069 0.83 0.17 0.51 0.203 0.865 0.673 0.92 1.22 0.062 0.33 0.092 0.665 0.09 1v5.37c0 0.18 0 0.18-0.18 0.18 h-2.4l0.05-0.03zM18.75 10.52V8.37H20c0.22 0 0.22 0 0.22-0.22V5.49a1.1 1.1 0 0 0 0-0.26 0.49 0.49 0 0 0-0.52-0.44H19V2.62h2a2 2 0 0 1 1.17 0.38 c0.336 0.288 0.553 0.69 0.61 1.13 0.04 0.261 0.06 0.526 0.06 0.79v4.26c0 0.26-0.03 0.518 -0.09 0.77 a0.67 0.67 0 0 1-0.74 0.56 h-3.26v0.01zM6.35 4.78V2.62h2.17a1.3 1.3 0 0 1 1 0.43c0.222 0.284 0.332 0.64 0.31 1v3.49c0 0.11 0 0.13-0.14 0.13 H7.41c-0.12 0-0.14 0-0.14-0.14V5.21c0-0.33-0.11-0.43-0.44-0.43h-0.48z" fill="#FFF"/>
</svg>
