<?xml version="1.0" ?>
<svg xmlns="http://www.w3.org/2000/svg" width="42" height="31" viewBox="0 0 42 31">
  <path d="M0 28.57v-0.27V8.18c0-0.28 0-0.28 0.28 -0.28h1.39c0.19 0 0.24-0.07 0.23 -0.24-0.01-0.17 0-0.55 0-0.83 0-0.28 0-0.27 0.26 -0.27h8.24c0.38 0 0.36 0 0.34-0.33a0.63 0.63 0 0 1 0.38-0.64 7.41 7.41 0 0 1 1.27-0.52c0.57-0.17 1.16-0.27 1.75-0.39 0.16 0 0.19-0.12 0.18 -0.26V0.3c0-0.3 0-0.3 0.3 -0.3H26c0.35 0 0.35 0 0.35 0.34 V4.6l1.1 0.18 c0.387 0.05 0.772 0.123 1.15 0.22 a15 15 0 0 1 1.49 0.58 0.68 0.68 0 0 1 0.43 0.75 c0 0.19 0 0.25 0.24 0.25h8.42V7.7c0 0.18 0.06 0.22 0.23 0.22h1.76v20.65h-9.54v-0.2-2c0-0.18 0.05 -0.23 0.24 -0.23H39c0.3 0 0.3 0 0.3-0.31v-0.42c0-0.14-0.06-0.2-0.21-0.2h-7.24c-0.19 0-0.26-0.05-0.24-0.24a3.48 3.48 0 0 0 0-0.56c0-0.18 0.05 -0.22 0.22 -0.22H39c0.21 0 0.29-0.06 0.27 -0.27-0.02-0.21 0-0.35 0-0.52a0.19 0.19 0 0 0-0.13-0.13 3.93 3.93 0 0 0-0.46 0h-6.8c-0.21 0-0.29 0-0.27-0.26 0.02 -0.26 0-0.51 0-0.8H39c0.27 0 0.27 0 0.27-0.27v-0.46c0-0.15-0.05-0.2-0.2-0.2h-7.46v-1s0.13-0.1 0.2 -0.1H39c0.18 0 0.25 0 0.23-0.23a2.19 2.19 0 0 1 0-0.44c0-0.2 0-0.26-0.25-0.26h-7.15c-0.18 0-0.23-0.05-0.22-0.23a4.06 4.06 0 0 0 0-0.58c0-0.18 0.06 -0.22 0.23 -0.22H39c0.22 0 0.29-0.07 0.27 -0.27a1.86 1.86 0 0 1 0-0.39c0-0.2 0-0.26-0.25-0.26h-7.19c-0.17 0-0.23-0.05-0.22-0.22 0.01 -0.17 0-0.54 0-0.84H39c0.2 0 0.28-0.05 0.25 -0.25a2.41 2.41 0 0 1 0-0.46c0-0.18-0.05-0.22-0.22-0.22h-7.41v-1s0.13-0.08 0.2 -0.08H39c0.19 0 0.28 0 0.26-0.25a2 2 0 0 1 0-0.42c0-0.2 0-0.27-0.25-0.26h-7.12c-0.28 0-0.28 0-0.28-0.29v-0.48c0-0.16 0-0.26 0.25 -0.26H39c0.21 0 0.29-0.06 0.27 -0.27a2.62 2.62 0 0 1 0-0.46c0-0.16-0.05-0.2-0.2-0.2h-7.19c-0.21 0-0.28-0.05-0.27-0.27 0.01 -0.22 0-0.51 0-0.8H39c0.27 0 0.27 0 0.27-0.27v-0.5c0-0.17 0-0.16-0.16-0.15h-7.5v-0.54-0.62c0-0.2-0.07-0.24-0.23-0.23-0.16 0.01 -0.42 0-0.62 0s-0.24 0.05 -0.24 0.24 v19.89A0.76 0.76 0 0 1 30 29c-0.491 0.21 -0.996 0.386 -1.51 0.53 -0.47 0.13 -1 0.22-1.43 0.31 -0.2 0-0.41 0.07 -0.61 0.09 l-2 0.19a43.5 43.5 0 0 1-5.38 0.14 c-1 0-1.91-0.09-2.86-0.17-0.64-0.05-1.28-0.13-1.91-0.24a11.66 11.66 0 0 1-2.84-0.74 2.76 2.76 0 0 1-0.38-0.21 0.74 0.74 0 0 1-0.37-0.68V8.45c0-0.25 0-0.27-0.27-0.27H9.8c-0.21 0-0.26 0.07 -0.26 0.27 v1.13H2.2c-0.28 0-0.28 0-0.28 0.28 v0.42c0 0.14 0.06 0.22 0.23 0.22h7.42v0.94s-0.07 0.09 -0.12 0.11 a0.61 0.61 0 0 1-0.19 0h-7c-0.29 0-0.29 0-0.29 0.28 v0.44c0 0.15 0.08 0.21 0.23 0.21h7.1c0.2 0 0.29 0 0.27 0.26 -0.02 0.26 0 0.48 0 0.74H2.22c-0.3 0-0.3 0-0.3 0.3 s-0.06 0.46 0 0.56c0.06 0.1 0.38 0.06 0.57 0.06 h6.82c0.2 0 0.27 0 0.26 0.25 -0.01 0.25 0 0.52 0 0.81H2.19c-0.27 0-0.27 0-0.27 0.28 v0.42c0 0.14 0.05 0.23 0.24 0.23h7.4v1s-0.13 0.1 -0.2 0.1 H2.18c-0.19 0-0.28 0-0.26 0.25 a2.37 2.37 0 0 1 0 0.44c0 0.19 0.07 0.24 0.24 0.24h7.13c0.27 0 0.27 0 0.27 0.27 v0.52c0 0.17 0 0.24-0.23 0.23 H2.19c-0.26 0-0.27 0-0.27 0.27 v0.42c0 0.14 0 0.24 0.23 0.24h7.17c0.19 0 0.26 0 0.25 0.24 -0.01 0.24 0 0.52 0 0.82H2.2c-0.28 0-0.29 0-0.28 0.28 0.01 0.28 0 0.48 0.06 0.59 0.06 0.11 0.38 0 0.58 0h7v0.95s-0.09 0.1 -0.14 0.11 a2.49 2.49 0 0 1-0.35 0H2.19c-0.2 0-0.3 0-0.27 0.26 a2.26 2.26 0 0 1 0 0.44c0 0.18 0.07 0.23 0.23 0.23h7.2c0.17 0 0.23 0 0.22 0.22 -0.01 0.22 0 0.51 0 0.79H2.22c-0.3 0-0.3 0-0.3 0.3 s-0.06 0.47 0 0.56c0.06 0.09 0.38 0.06 0.57 0.06 h6.82c0.2 0 0.26 0.05 0.26 0.25 v2.13L0 28.57zm20 0.61v-0.2-8c0-0.18 0-0.24-0.23-0.24h-4.14c-0.19 0-0.25 0.06 -0.25 0.25 v7.71c0 0.19 0.07 0.26 0.24 0.28 0.17 0.02 0.58 0.06 0.87 0.08l2.11 0.1 h1.08l0.32 0.02 zM21.24 25v4c0 0.19 0.06 0.26 0.25 0.25l4-0.2c0.18 0 0.24-0.07 0.24 -0.25v-7.77c0-0.17-0.05-0.22-0.22-0.22h-4c-0.18 0-0.23 0.06 -0.23 0.23 a194.09 194.09 0 0 0-0.04 3.96zM19 16.17v3.7c0 0.17 0 0.24 0.23 0.24h2.6c0.2 0 0.26-0.07 0.26 -0.27v-7.31c0-0.19 0-0.25-0.24-0.25h-2.6c-0.2 0-0.25 0.06 -0.25 0.26 v3.63zm3.68 0v3.68c0 0.18 0 0.24 0.23 0.24h2.58c0.28 0 0.28 0 0.28-0.29v-4.43-2.7c0-0.11 0-0.22-0.15-0.23l-2.69-0.17c-0.2 0-0.24 0.06 -0.24 0.25 0.02 1.24 0.02 2.48 0.02 3.68l-0.03-0.03zm-4.31 0v-3.7c0-0.16 0-0.24-0.22-0.23l-2.67 0.17 c-0.16 0-0.2 0.1 -0.2 0.25 v7.17c0 0.19 0.07 0.23 0.24 0.23h2.6c0.2 0 0.26-0.06 0.26 -0.26 0.01 -1.16 0.02 -2.37 0.02 -3.58l-0.03-0.05zm-3.67 8.62v-3.76c0-0.18-0.05-0.24-0.23-0.24h-2.18c-0.2 0-0.26 0-0.26 0.25 v7c0 0.14 0 0.22 0.17 0.25l1.33 0.29 c0.29 0.06 0.59 0.08 0.88 0.14 0.29 0.06 0.29 0 0.29-0.24 0.013 -1.18 0.02 -2.393 0.02 -3.64l-0.02-0.05zm11.69 0v3.74c0 0.28 0 0.3 0.3 0.26 0.63 -0.11 1.26-0.21 1.89-0.33 0.14 0 0.36 0 0.36-0.29V21c0-0.16 0-0.2-0.2-0.2H26.7c-0.29 0-0.29 0-0.29 0.29 v3.74l-0.02-0.04zm-11.67-8.46v-2.58-1c0-0.12 0-0.21-0.17-0.19-0.72 0.13 -1.45 0.25 -2.17 0.39 -0.14 0-0.33 0-0.33 0.28 v6.65c0 0.16 0 0.21 0.21 0.21h2.2c0.2 0 0.26-0.07 0.26 -0.27v-3.49zm11.69 0v3.49c0 0.28 0 0.29 0.3 0.29h2c0.2 0 0.24-0.07 0.24 -0.25v-3.28-3.37c0-0.09-0.05-0.23-0.11-0.25-0.44-0.1-0.89-0.19-1.33-0.27-0.25 0-0.51-0.06-0.76-0.11s-0.34-0.07-0.34 0.27 v3.48zM19 8.86v2.49c0 0.15 0 0.2 0.2 0.2h2.68c0.17 0 0.21-0.06 0.21 -0.22V6.41c0-0.2-0.08-0.27-0.27-0.27h-2.53c-0.22 0-0.27 0.08 -0.27 0.29 C19 7.24 19 8.05 19 8.86zm6.75 2.94V6.45l-0.9-0.09-2-0.16c-0.14 0-0.19 0-0.19 0.19 v5c0 0.15 0.06 0.21 0.2 0.22l2.67 0.19 h0.22zm-7.4-5.58h-0.23l-2.7 0.25 c-0.14 0-0.14 0.1 -0.14 0.2 v4.94c0 0.17 0.07 0.22 0.22 0.2 0.15 -0.02 0.52 -0.06 0.78 -0.08 0.61 0 1.21-0.08 1.82-0.1 0.21 0 0.27-0.08 0.27 -0.28v-4.9c0.03-0.08 0.02 -0.14 0.02 -0.24l-0.04 0.01 zm-6.31 6.26h0.22l2.25-0.48c0.15 0 0.22-0.08 0.22 -0.24V6.82c0-0.14 0-0.21-0.2-0.17-0.31 0.07 -0.62 0.11 -0.93 0.19 -0.46 0.12 -0.9 0.27 -1.36 0.39 -0.17 0-0.18 0.15 -0.18 0.29 v4.8c0 0.01 0.01 0.07 0.01 0.15l-0.03 0.01 zM29 12.41v-1.7-3.32c0-0.08 0-0.22-0.09-0.24-0.39-0.13-0.78-0.25-1.18-0.35-0.4-0.1-0.66-0.12-1-0.2-0.34-0.08-0.29-0.05-0.29 0.2 v4.88c0 0.18 0.08 0.25 0.26 0.28 0.56 0.1 1.12 0.21 1.68 0.32 l0.62 0.13 zM17.7 2.09h0.07l0.53 1.59c0 0.11 0.05 0.23 0.21 0.23 0.16 0 0.17-0.1 0.21 -0.21 0.2 -0.56 0.41 -1.13 0.63 -1.74v0.18c0 0.52 0.06 1 0.08 1.57 0 0.15 0.06 0.22 0.2 0.22s0.14-0.11 0.14 -0.22l-0.1-2.07s-0.11-0.17-0.17-0.19c-0.06-0.02-0.26-0.06-0.32 0.13 -0.19 0.54 -0.38 1.08-0.58 1.62a1.19 1.19 0 0 1-0.11 0.17 v-0.12c-0.19-0.56-0.38-1.13-0.58-1.69a0.25 0.25 0 0 0-0.18-0.12c-0.23 0-0.29 0-0.31 0.29 -0.047 0.667 -0.083 1.35-0.11 2.05 0 0.06 0.07 0.12 0.1 0.19s0.18-0.08 0.2 -0.15a1.15 1.15 0 0 0 0-0.35c0.05-0.47 0.07 -0.93 0.09 -1.38zm2.7 0.35 a1.67 1.67 0 0 1 0.4-0.1 0.59 0.59 0 0 1 0.33 0.12 0.34 0.34 0 0 1 0.07 0.26 s-0.12 0.06 -0.19 0.08 a4.58 4.58 0 0 0-0.48 0.11 0.54 0.54 0 0 0-0.35 0.57 0.48 0.48 0 0 0 0.35 0.48 c0.23 0.073 0.48 0.02 0.66-0.14a1 1 0 0 0 0.33 0.11 c0.16 0 0.09-0.16 0.09 -0.25a8.16 8.16 0 0 0 0-0.83c0-0.29-0.07-0.58-0.4-0.7a1 1 0 0 0-0.92 0.13 l0.11 0.16 zm2.06 0.17 V1.49c0-0.14 0-0.2-0.19-0.2s-0.16 0.08 -0.16 0.2 v2.24c0 0.11 0 0.21 0.16 0.21s0.19-0.06 0.19 -0.2V2.61zm0.85 0V1.47c0-0.12 0-0.2-0.17-0.19-0.17 0.01 -0.18 0-0.18 0.18 v2.26c0 0.15 0.07 0.2 0.2 0.2s0.15-0.08 0.15 -0.19V2.61z" fill="#FFF"/>
  <path d="M19.47 25.25v-0.89c0-0.14 0-0.25-0.21-0.25s-0.21 0.1 -0.21 0.25 v1.77c0 0.15 0.06 0.24 0.21 0.24s0.2-0.09 0.2 -0.23c0-0.31 0.01 -0.6 0.01 -0.89zM21.85 25.23v0.87c0 0.13 0 0.26 0.2 0.25 0.2 -0.01 0.22 -0.12 0.23 -0.26v-1.72c0-0.13 0-0.26-0.21-0.28-0.21-0.02-0.21 0.13 -0.21 0.26 -0.01 0.3 -0.01 0.59 -0.01 0.88 z" fill="#FFF"/>
  <path d="M19.47 25.25v0.87c0 0.14-0.05 0.23 -0.2 0.23 -0.15 0-0.22-0.09-0.21-0.24v-1.77c0-0.14 0-0.25 0.21 -0.25s0.21 0.11 0.21 0.25 c-0.02 0.31 -0.01 0.61 -0.01 0.91 zM21.85 25.23v-0.87c0-0.13 0-0.28 0.21 -0.26 0.21 0.02 0.21 0.14 0.21 0.28v1.72c0 0.14-0.05 0.26 -0.23 0.26 s-0.19-0.13-0.2-0.25v-0.87l0.01-0.01zM20.52 3.43c0-0.21 0.14 -0.3 0.3 -0.36h0.08c0.12 0 0.27-0.11 0.35 0.06a0.52 0.52 0 0 1-0.18 0.51 c-0.16 0.09 -0.32 0.15 -0.47 0a0.62 0.62 0 0 1-0.08-0.21z" fill="#FFF"/>
</svg>
