<?xml version="1.0" ?>
<svg xmlns="http://www.w3.org/2000/svg" width="35" height="37" viewBox="0 0 35 37">
  <path d="M32.14 24.22c0.105 0.077 0.2 0.168 0.28 0.27 0.25 0.42 0.49 0.84 0.72 1.27a0.34 0.34 0 0 1 0 0.26c-0.23 0.42 -0.48 0.84 -0.71 1.26a0.32 0.32 0 0 1-0.33 0.17 h-1.37a0.3 0.3 0 0 1-0.33-0.2c-0.11-0.19-0.15-0.19-0.29 0a17.6 17.6 0 0 1-2.94 2.71c-0.15 0.09 -0.15 0.19 -0.06 0.34 0.45 0.76 0.9 1.53 1.34 2.3 0.44 0.77 1 1.72 1.49 2.58a0.34 0.34 0 0 0 0.34 0.2 h4.12c0.21 0 0.28 0.07 0.27 0.27 -0.01 0.2 0 0.64 0 1 0 0.14 0 0.21-0.19 0.19 H0.79c-0.39 0-0.33 0-0.34-0.33v-0.77c0-0.34 0-0.31 0.33 -0.31H4.9a0.51 0.51 0 0 0 0.51-0.29c0.913-1.6 1.84-3.21 2.78-4.83-0.07-0.06-0.13-0.13-0.21-0.19a14.6 14.6 0 0 1-2-1.67 0.38 0.38 0 0 0-0.34-0.14H4.15a0.3 0.3 0 0 1-0.3-0.17c-0.23-0.42-0.48-0.83-0.72-1.25a0.26 0.26 0 0 1 0-0.29 8.89 8.89 0 0 0 0.45-0.79 0.33 0.33 0 0 0 0-0.29 17.22 17.22 0 0 1-1.48-2.94c-0.21-0.56-0.38-1.13-0.54-1.71-0.16-0.58-0.3-1.25-0.42-1.87a1.1 1.1 0 0 1 0-0.26c0-0.13 0-0.21-0.19-0.23-0.19-0.02-0.12-0.08-0.15-0.14-0.28-0.37-0.54-0.84-0.8-1.29a0.21 0.21 0 0 1 0-0.19c0.25-0.45 0.51 -0.9 0.77 -1.34 0.31 -0.15 0.21 -0.44 0.24 -0.69 0.07 -0.48 0.14 -1 0.23-1.43a9 9 0 0 1 0.26-1.14c0.22-0.71 0.44 -1.41 0.71 -2.1a15.69 15.69 0 0 1 1.37-2.61c0.31-0.51 0.57 -1 0.85-1.57a0.3 0.3 0 0 1 0.29-0.17 0.34 0.34 0 0 0 0.28-0.11 16.91 16.91 0 0 1 4-3.41 14.62 14.62 0 0 1 3-1.39c0.77-0.24 1.54-0.47 2.32-0.64A15.6 15.6 0 0 1 18.24 0a14 14 0 0 1 1.94 0.19 22.72 22.72 0 0 1 2.27 0.55 15.52 15.52 0 0 1 5 2.55 16.76 16.76 0 0 1 3 2.87A16.26 16.26 0 0 1 32.68 10c0.37 0.841 0.662 1.715 0.87 2.61A18 18 0 0 1 34 15c0 0.09 0.1 0.17 0.15 0.26l0.75 1.3c0.06 0.09 0.06 0.21 0 0.3-0.25 0.42 -0.47 0.87 -0.75 1.27a1.63 1.63 0 0 0-0.25 0.79 c-0.08 0.487 -0.18 0.977 -0.3 1.47-0.1 0.42 -0.21 0.84 -0.35 1.25-0.22 0.62 -0.47 1.23-0.71 1.84-0.15 0.26 -0.29 0.52 -0.4 0.74 zm-16.56-8.11V16c0-0.36 0-0.36-0.35-0.46l-1.18-0.35-1.85-0.56-1.5-0.45-1.83-0.55-1.49-0.43-1.58-0.47-1.53-0.47-0.91-0.26a0.22 0.22 0 0 0-0.32 0.18 c-0.09 0.33 -0.2 0.66 -0.26 1-0.13 0.68 -0.23 1.36-0.33 2a0.32 0.32 0 0 0 0.08 0.2 c0.07 0.08 0.18 0.12 0.23 0.2 0.25 0.41 0.49 0.82 0.71 1.23a0.33 0.33 0 0 1 0 0.29c-0.29 0.49 -0.6 1-0.9 1.46a0.17 0.17 0 0 0 0 0.14c0.06 0.34 0.1 0.69 0.18 1 0.12 0.5 0.28 1 0.39 1.47 0.06 0.22 0.17 0.22 0.33 0.16L6.87 20l4-1.58 4.27-1.7c0.44-0.14 0.44 -0.15 0.44 -0.61zm16.2 5.27c0-0.16 0.1 -0.29 0.13 -0.43 0.19 -0.81 0.37 -1.62 0.55 -2.43 0-0.13 0-0.24-0.16-0.27-0.16-0.03-0.12-0.08-0.16-0.14l-0.74-1.26a0.26 0.26 0 0 1 0-0.3l0.72-1.25a0.28 0.28 0 0 1 0.18-0.13c0.17 0 0.18-0.1 0.16 -0.22 0-0.41-0.09-0.83-0.17-1.23-0.12-0.56-0.28-1.1-0.41-1.66 0-0.11-0.07-0.14-0.19-0.1-0.31 0.1 -0.63 0.18 -0.95 0.27 l-1.52 0.45 -1.55 0.47 -1.52 0.44 -1.83 0.55 c-0.5 0.16 -1 0.3-1.52 0.45 l-1.53 0.47 -1.75 0.52 a0.28 0.28 0 0 0-0.14 0.19 5.61 5.61 0 0 0 0 0.71 0.21 0.21 0 0 0 0.12 0.17 c0.62 0.26 1.25 0.5 1.87 0.74 l3.36 1.28L28.15 20l2.28 0.88 1.35 0.5 zM6.56 26.87l0.08 0.13 a15 15 0 0 0 2.14 1.84c0.1 0.07 0.18 0.07 0.25-0.05 0.07 -0.12 0.17 -0.32 0.26 -0.47 0.71 -1.22 1.42-2.43 2.12-3.65 1.08-1.86 2.15-3.73 3.23-5.6 0.35 -0.61 0.72 -1.23 1.07-1.85a0.57 0.57 0 0 0 0-0.23h-0.22a0.35 0.35 0 0 0-0.13 0.05 l-2.2 0.87 -3 1.2-2.8 1.09-3.84 1.51c-0.12 0.05 -0.15 0.11 -0.1 0.24 a15.65 15.65 0 0 0 1.4 2.77 0.66 0.66 0 0 0 0.75 0.41 0.24 0.24 0 0 1 0.28 0.16 c0.167 0.259 0.32 0.526 0.46 0.8 0.11 0.24 0.4 0.44 0.25 0.78 zm19.71 1.94c0.38-0.31 0.76 -0.58 1.1-0.88a16.36 16.36 0 0 0 2.13-2.27 15.92 15.92 0 0 0 2.12-3.8 0.15 0.15 0 0 0-0.1-0.23l-0.84-0.32-3.58-1.37-3.87-1.49-3.33-1.3-0.36-0.1v0.06l6.73 11.7zM5.37 9h-0.79a0.29 0.29 0 0 0-0.22 0.12 c-0.37 0.77 -0.73 1.55-1.07 2.33 0 0.05 0 0.2 0.08 0.21 0.56 0.18 1.12 0.35 1.69 0.51 l1.52 0.45 1.55 0.47 1.78 0.52 1.78 0.55 1.84 0.53 c0.6 0.18 1.19 0.38 1.79 0.55 0.37 0.11 0.37 0.1 0.61-0.21l0.12-0.14c0.15-0.12 0.15 -0.23 0-0.39l-2.4-3.17c-0.71-1-1.44-1.91-2.15-2.86L9.91 6.29l-1.3-1.73c-0.07-0.09-0.14-0.14-0.24 0L6.67 6a0.23 0.23 0 0 0 0 0.33c0.18 0.3 0.34 0.6 0.52 0.9 a0.24 0.24 0 0 1 0 0.29l-0.77 1.31a0.26 0.26 0 0 1-0.26 0.17 h-0.79zm24.33 0.5 H29a0.22 0.22 0 0 1-0.25-0.14c-0.24-0.43-0.5-0.86-0.74-1.3a0.36 0.36 0 0 1 0-0.27c0.21-0.39 0.43 -0.77 0.65 -1.15 0.06 -0.1 0.1 -0.2 0-0.29-0.59-0.55-1.16-1.11-1.77-1.64-0.37-0.33-0.39-0.29-0.69 0.12 l-2.5 3.22-2.05 2.69L20 12.92l-1.2 1.58a0.17 0.17 0 0 0 0 0.26c0.12 0.14 0.23 0.29 0.34 0.44 0.11 0.15 0.12 0.12 0.24 0.08 0.58-0.19 1.17-0.36 1.75-0.53l2.1-0.61 1.8-0.55 2.1-0.61 2.38-0.73 2-0.6c0.12 0 0.17-0.11 0.11 -0.25-0.06-0.14-0.19-0.51-0.31-0.76-0.18-0.41-0.38-0.81-0.58-1.2 0 0-0.1 0-0.16-0.07-0.05 0.15 -0.17 0.11 -0.28 0.11 l-0.59 0.02 zm-9-7.71c-0.26 0-0.48-0.09-0.7-0.11l-2.16-0.23c-0.26 0-0.29 0-0.29 0.3 V14.1a0.17 0.17 0 0 0 0.17 0.2 2 2 0 0 1 0.48 0.13 0.25 0.25 0 0 0 0.32-0.08l1-1.35c1.08-1.44 2.17-2.87 3.26-4.31C23.87 7.25 25 5.8 26.07 4.38c0.1-0.14 0.09 -0.22-0.05-0.3-0.71-0.41-1.42-0.82-2.14-1.22-0.09-0.06-0.18 0-0.25 0.08 -0.18 0.34 -0.39 0.66 -0.57 1a0.27 0.27 0 0 1-0.27 0.15 h-1.45a0.3 0.3 0 0 1-0.3-0.17c-0.24-0.42-0.49-0.84-0.72-1.27a0.27 0.27 0 0 1 0-0.23c0.11-0.21 0.22 -0.42 0.36 -0.65l0.02 0.02 zm-3.44 12.42V14c0-4.067-0.017-8.137-0.05-12.21 0-0.31 0-0.35-0.36-0.32a18.88 18.88 0 0 0-2.8 0.4 c-0.14 0-0.16 0.08 -0.09 0.2 0.07 0.12 0.23 0.39 0.34 0.58 a0.29 0.29 0 0 1 0 0.34c-0.25 0.42 -0.48 0.84 -0.73 1.24a0.32 0.32 0 0 1-0.24 0.14 h-1.48a0.28 0.28 0 0 1-0.28-0.17c-0.18-0.34-0.39-0.67-0.58-1-0.08-0.15-0.16-0.19-0.32-0.09L9 4c-0.25 0.16 -0.26 0.21 -0.08 0.44 l1.64 2.19c0.94 1.24 1.88 2.47 2.81 3.71 0.72 1 1.43 1.92 2.15 2.87l0.84 1.12c0.07 0.09 0.12 0.13 0.25 0.06 a5.59 5.59 0 0 1 0.65-0.18zm0.49 16.26c0-0.75-0.07-1.49-0.08-2.24 0-1.35-0.06-2.7-0.09-4.05 0-1.6-0.06-3.21-0.08-4.81v-1c0-0.07 0-0.17-0.1-0.2a0.43 0.43 0 0 0-0.66 0.2 c-1.087 1.9-2.18 3.8-3.28 5.7-1.1 1.9-2.157 3.73-3.17 5.49-0.09 0.16 -0.06 0.25 0.1 0.32 l1.34 0.63 a2.81 2.81 0 0 0 1.53 0.33 c0.06 0 0.17 0 0.19 0.09 0.09 0.25 0.32 0.27 0.52 0.31 0.51 0.1 1 0.21 1.54 0.26 0.69 0.08 1.38 0.11 2.07 0.16 0.13 0 0.18 0 0.18-0.17-0.01-0.37-0.01-0.7-0.01-1.02zm0.25-0.07v1c0 0.12 0.05 0.22 0.2 0.21 0.34 0 0.69 0 1-0.1a24.2 24.2 0 0 0 1.7-0.31c0.18 0 0.43 0 0.52-0.24a0.57 0.57 0 0 1 0.71-0.38c0.186 0.015 0.374 0.015 0.56 0a1 1 0 0 0 0.35-0.06l1.73-0.83c0.12-0.06 0.15 -0.14 0.06 -0.28-0.89-1.53-1.77-3.08-2.66-4.61-1.28-2.22-2.57-4.43-3.84-6.66-0.16-0.28-0.32-0.11-0.5-0.08s-0.11 0.14 -0.11 0.24 c0 1 0.05 2.05 0.08 3.07 0 1.37 0.05 2.74 0.08 4.11 0 1 0 2.06 0.05 3.09 0.07 0.61 0.07 1.22 0.07 1.83zm7.75 0.47 l-0.21 0.09 -1.18 0.59 c-0.18 0.09 -0.21 0.18 -0.09 0.34 a0.36 0.36 0 0 1 0.06 0.44 c-0.25 0.39 -0.47 0.8 -0.72 1.2a0.31 0.31 0 0 1-0.23 0.16 h-1.53a0.3 0.3 0 0 1-0.22-0.12 7.24 7.24 0 0 1-0.41-0.71 0.26 0.26 0 0 0-0.33-0.16l-0.49 0.09 c-0.55 0.08 -1.1 0.19 -1.66 0.22 -0.69 0.04 -1.38 0.04 -2.07 0-0.72 0-1.44-0.14-2.16-0.24-0.4-0.06-0.43-0.07-0.63 0.28 l-0.42 0.72 a0.24 0.24 0 0 1-0.26 0.15 h-1.47a0.33 0.33 0 0 1-0.24-0.14c-0.17-0.25-0.32-0.53-0.48-0.79-0.16-0.26-0.47-0.69-0.09-1.08 0.1 -0.11 0.06 -0.17-0.07-0.23-0.42-0.18-0.83-0.38-1.22-0.59-0.18-0.1-0.25-0.06-0.34 0.1 L7.13 35a1.51 1.51 0 0 0-0.11 0.32 h21.13c0.14 0 0.19 0 0.11-0.19-0.24-0.4-0.47-0.81-0.7-1.21l-1.81-3.05z" fill="#FFF"/>
</svg>
