<?xml version="1.0" ?>
<svg xmlns="http://www.w3.org/2000/svg" width="44" height="33" viewBox="0 0 44 33">
  <path d="M35.58 27.62h-1.24c-0.18 0-0.14-0.13-0.14-0.23v-3-3.76a0.44 0.44 0 0 0-0.19-0.38 11.25 11.25 0 0 1-2.14-2.11 5.61 5.61 0 0 1-1.15-2.57 16.37 16.37 0 0 1-0.1-3.83c0-0.44 0.07 -0.88 0.11 -1.32 0.07 -0.66 0.12 -1.33 0.21 -2 0.11-0.81 0.23 -1.63 0.36 -2.44a9.19 9.19 0 0 1 0.7-2.63A9.13 9.13 0 0 1 34.74 0.06 a0.21 0.21 0 0 1 0.3 0 9.28 9.28 0 0 1 2.63 3.11 7.58 7.58 0 0 1 0.75 2.52c0.08 0.68 0.22 1.35 0.32 2 0.08 0.51 0.15 1 0.2 1.53 0.09 0.9 0.21 1.79 0.25 2.69 0.04 0.9 0 1.88 0 2.82A7.45 7.45 0 0 1 39 16a5.06 5.06 0 0 1-0.8 1.77 10.56 10.56 0 0 1-2.37 2.44 0.52 0.52 0 0 0-0.21 0.46 v7l-0.04-0.05zM10.56 21.46v6.09c0 0.33 0 0.33-0.32 0.33 h-0.9v-6.5a2.33 2.33 0 0 0-0.25 0.06 2.76 2.76 0 0 1-2.56-0.14 4 4 0 0 1-1.32-1 2.94 2.94 0 0 1-0.54-2.56c0.06-0.26 0.19 -0.51 0.28 -0.78 0.04 -0.13 0.07 -0.264 0.09 -0.4 0-0.26 0.05 -0.51 0.06 -0.77a0.4 0.4 0 0 0-0.07-0.2 3.06 3.06 0 0 1-0.6-2.05 2.61 2.61 0 0 1 0.25-1.27 2 2 0 0 1 1.53-1.05 1.72 1.72 0 0 0 0.46-0.11s0.07-0.14 0-0.18a3.22 3.22 0 0 1-0.3-1.61 3.11 3.11 0 0 1 2-2.66 3.44 3.44 0 0 1 1.68-0.16c0.455 0.046 0.888 0.22 1.25 0.5 a5.36 5.36 0 0 1 1.43 1.38 2.92 2.92 0 0 1 0.34 2.22 1 1 0 0 0 0 0.18l0.6 0.05 a2.05 2.05 0 0 1 1.68 1.41 2.18 2.18 0 0 1-0.23 1.76 0.52 0.52 0 0 0-0.06 0.16 3 3 0 0 1-0.3 1.2 0.24 0.24 0 0 0 0 0.14c0.14 0.524 0.1 1.08-0.11 1.58a0.25 0.25 0 0 0 0 0.17 3 3 0 0 1-0.9 3.67 2.94 2.94 0 0 1-2.11 0.75 7.62 7.62 0 0 1-1.08-0.21zM21.83 32.06H0.31c-0.35 0-0.37 0-0.24-0.36a4.16 4.16 0 0 1 2.32-2.32A4.34 4.34 0 0 1 4 29.07h35.57a4.24 4.24 0 0 1 3 1.12 3.85 3.85 0 0 1 1.11 1.69s0 0.13-0.09 0.16 a0.43 0.43 0 0 1-0.2 0H21.83v0.02zM28.28 24.51v2.87c0 0.31 0 0.31-0.3 0.31 h-0.75c-0.25 0-0.28-0.08-0.28-0.28v-2.55c0-0.35 0-0.35-0.35-0.35h-6.08c-0.2 0-0.27 0.05 -0.27 0.27 v2.66c0 0.2-0.06 0.27 -0.26 0.26 -0.2-0.01-0.5 0-0.75 0s-0.31 0-0.32-0.31v-2.54c0-0.35 0-0.35-0.35-0.35h-2.38c-0.21 0-0.26-0.08-0.26-0.26v-0.85c0-0.28 0.06 -0.26 0.26 -0.26h15.1v1.24s-0.13 0.11 -0.2 0.11 h-2.8l-0.01 0.03 z" fill="#FFF"/>
</svg>
