<?xml version="1.0" ?>
<svg xmlns="http://www.w3.org/2000/svg" width="30" height="34" viewBox="0 0 30 34">
  <path d="M13.31 7.79a1.47 1.47 0 0 0 0.85 1.42l4.6 2.2c0.35 0.17 0.71 0.33 1.06 0.48 a1.2 1.2 0 0 0 1.27-0.16c0.43-0.38 0.85 -0.78 1.26-1.18l1.51-1.5C23.91 9 24 9 24.07 9a1.66 1.66 0 0 1 0 0.22v0.11a1 1 0 0 1-0.33 0.61 c-0.3 0.26 -0.58 0.55 -0.87 0.82 a0.44 0.44 0 0 0-0.14 0.34 v1.09c0 0.11 0 0.18-0.15 0.2 l-1.14 0.23 -1.76 0.35 -1.82 0.37 a4.92 4.92 0 0 0-0.55 0.14 1.18 1.18 0 0 0-0.74 0.66 L15.27 17c-0.32 0.71 -0.64 1.41-0.93 2.12a1.36 1.36 0 0 0 1 1.85 1.42 1.42 0 0 0 1.72-0.83c0.6-1.25 1.22-2.5 1.83-3.75a0.34 0.34 0 0 1 0.3-0.22l2.5-0.43 2.11-0.34a3.45 3.45 0 0 0 1.07-0.4 1.25 1.25 0 0 0 0.68-1 9.08 9.08 0 0 0 0.05-0.91c0-1.06 0-2.12 0.08 -3.18s0.05-2.26 0.09 -3.38A1.44 1.44 0 0 0 24.16 5a1.71 1.71 0 0 0-1 0.54L20.3 8.28c-0.08 0.08 -0.16 0.14 -0.23 0.22 a0.26 0.26 0 0 1-0.35 0.06 l-4.29-1.95a1.68 1.68 0 0 0-1-0.19 1.27 1.27 0 0 0-1 0.93 2.45 2.45 0 0 0-0.12 0.44 zM22.71 33h2.72c0.15 0 0.23 0 0.22-0.21v-1.62a1.16 1.16 0 0 0-0.36-0.75 5 5 0 0 0-1.59-1 1.85 1.85 0 0 0-0.93-0.12 2.59 2.59 0 0 1-1.5-0.3l-3.57-1.5a3.83 3.83 0 0 0-3.41 0.15 c-0.4 0.2 -0.81 0.41 -1.23 0.57 a3.22 3.22 0 0 1-0.82 0.16 0.7 0.7 0 0 0-0.6 0.35 c-0.13 0.23 -0.26 0.47 -0.41 0.69 a2.39 2.39 0 0 1-1.67 1.06 8.62 8.62 0 0 1-1.9 0c-0.39 0-0.78-0.08-1.16-0.08a2.15 2.15 0 0 0-0.56 0.12 4.91 4.91 0 0 1-0.63 0.17 1 1 0 0 0-0.68 0.39 2.83 2.83 0 0 1-1.38 0.95 13 13 0 0 1-1.38 0.29 4.71 4.71 0 0 0-1.64 0.53 0.59 0.59 0 0 0-0.18 0.15 0.16 0.16 0 0 0 0 0.12 0.12 0.12 0 0 0 0.12 0.05 l0.31-0.09A6.91 6.91 0 0 1 3 32.77a26 26 0 0 0 3.18 0.17 c1.1 0 2.19-0.11 3.29-0.21a31.28 31.28 0 0 1 5.56-0.08c0.86 0.07 1.71 0.18 2.57 0.25 0.753 0.05 1.507 0.05 2.26 0h2.82l0.03 0.1 z" fill="#FFF"/>
  <path d="M7.79 8.61a4.36 4.36 0 0 1 2.69 0.88 0.22 0.22 0 0 0 0.34 0l0.8-0.59c0.15-0.11 0.15 -0.14 0-0.26A5.71 5.71 0 0 0 9 7.34a6 6 0 0 0-3.25 0.21 5.16 5.16 0 0 0-3.23 3.15 6.38 6.38 0 0 0-0.32 3.64 5.71 5.71 0 0 0 1.62 3.08A5.15 5.15 0 0 0 6 18.68a6.7 6.7 0 0 0 2 0.24 5.82 5.82 0 0 0 3.14-1.06 5.78 5.78 0 0 0 2.17-2.73 4.48 4.48 0 0 0-0.35-4c-0.06-0.1-0.12-0.14-0.23-0.06-0.11 0.08 -0.38 0.26 -0.58 0.38 a0.17 0.17 0 0 0-0.07 0.22 4.52 4.52 0 0 1-2.74 5.58 4.76 4.76 0 0 1-2.28 0.2 4 4 0 0 1-2.14-1 4.28 4.28 0 0 1-1.24-2 5 5 0 0 1-0.18-2.09 4.19 4.19 0 0 1 4.29-3.75zM21.94 28.23a6.71 6.71 0 0 0 3.26-0.75 5 5 0 0 0 2.35-2.75 6.08 6.08 0 0 0 0.28-2.87A5.1 5.1 0 0 0 25 17.92a11.43 11.43 0 0 0-1-0.51c-0.17-0.08-0.22 0-0.23 0.14 -0.01 0.14 0 0.49-0.07 0.74 a0.22 0.22 0 0 0 0.16 0.24 4.44 4.44 0 0 1 2.85 4.32 4.61 4.61 0 0 1-0.47 1.93 3.88 3.88 0 0 1-2.16 1.92 4.8 4.8 0 0 1-4.5-0.44 3.84 3.84 0 0 1-1.65-2.34 5.13 5.13 0 0 1-0.13-1.7 4.76 4.76 0 0 1 0.1-0.52c0-0.12 0-0.17-0.13-0.18l-0.9-0.06c-0.1 0-0.17 0-0.18 0.13 0 0.44-0.1 0.87 -0.09 1.31 0 0.897 0.223 1.78 0.65 2.57a5.13 5.13 0 0 0 1.95 2 5.82 5.82 0 0 0 2.74 0.76 zM26.43 10.12v4.57c0 0.55 0.08 0.68 0.6 0.85a1.74 1.74 0 0 0 1.52-0.18 1.1 1.1 0 0 0 0.52-0.92v-2.56c0-0.85 0-1.82-0.05-2.74 0-0.23 0-0.28-0.28-0.29h-0.92a0.87 0.87 0 0 1-0.28-0.05 0.41 0.41 0 0 1-0.26-0.46 0.4 0.4 0 0 1 0.42-0.34h1.06c0.36 0 0.29 0 0.28-0.28 0-0.5 0-1-0.05-1.51a1.42 1.42 0 0 0-1.33-1.31 1.67 1.67 0 0 0-1.11 0.24 0.38 0.38 0 0 0-0.2 0.37 c0.03 1.56 0.05 3.14 0.08 4.61z" fill="#FFF"/>
  <path d="M7.22 13a0.67 0.67 0 0 0 1 0.59 2.16 2.16 0 0 0 0.35-0.24l3.55-2.46 0.91 -0.62c0.15-0.1 0.22 -0.07 0.27 0.11 0.23 1 0.47 1.91 0.7 2.86 0.23 0.95 0.44 1.84 0.67 2.76 0 0.06 0.06 0.1 0.09 0.15 0.03 0.05 0.1 -0.08 0.12 -0.13 0.18 -0.44 0.36 -0.87 0.51 -1.31a1.16 1.16 0 0 0 0-0.52c-0.13-0.66-0.26-1.31-0.4-2-0.06-0.32-0.13-0.64-0.19-1a0.75 0.75 0 0 1 0-0.2 0.87 0.87 0 0 1 0.19 0l2.16 1.6a0.36 0.36 0 0 0 0.37 0.07 c0.23-0.09 0.48 -0.16 0.72 -0.24a0.64 0.64 0 0 0 0.13-0.1 1.5 1.5 0 0 0-0.11-0.13l-1.46-1-2.36-1.34a4.18 4.18 0 0 0-0.56-0.28 2.84 2.84 0 0 1-1-0.69 0.19 0.19 0 0 0-0.3 0l-3.72 2.65c-0.43 0.31 -0.87 0.59 -1.3 0.88 a0.65 0.65 0 0 0-0.34 0.59 zM24.82 16.52a1.31 1.31 0 0 0-0.14-0.24 1.73 1.73 0 0 0-1-0.47 0.26 0.26 0 0 0-0.15 0l-1.14 0.62 a0.34 0.34 0 0 0-0.14 0.21 c-0.07 0.73 -0.12 1.46-0.18 2.19s-0.11 1.36-0.16 2.05c0 0.3-0.05 0.6 -0.08 0.9 -0.03 0.3 -0.08 0.26 -0.28 0.14 l-3.39-2c-0.21-0.13-0.25-0.11-0.3 0.13 -0.05 0.24 -0.08 0.33 -0.12 0.49 a0.22 0.22 0 0 0 0.11 0.27 l4.61 3c0.18 0.12 0.22 0.09 0.24-0.13 0.05 -0.67 0.12 -1.35 0.17 -2L23 20c0.05-0.64 0.11 -1.28 0.16 -1.92 0-0.39 0.07 -0.78 0.1 -1.18 0.03 -0.4 0.07 -0.33 0.33 -0.18 0.247 0.157 0.537 0.234 0.83 0.22a0.38 0.38 0 0 0 0.4-0.42zM23.93 0c-0.4 0.08 -0.85 0.16 -1.3 0.26 -0.45 0.1 -0.72 0.19 -1.07 0.29 a0.69 0.69 0 0 0-0.19 0.1 c0.05 0 0.1 0.11 0.16 0.13 l1.47 0.59 0.84 0.34 c0.12 0.05 0.16 0.12 0.09 0.25 s-0.17 0.33 -0.25 0.51 a0.17 0.17 0 0 1-0.23 0.1 l-1.16-0.25a1.46 1.46 0 0 0-0.22 0 0.13 0.13 0 0 0-0.16 0.13 l-0.06 0.81 a0.17 0.17 0 0 0 0.17 0.21 c0.58 0.11 1.16 0.24 1.74 0.34 a1.71 1.71 0 0 0 1.92-1 1.94 1.94 0 0 0-0.29-2.2 1.77 1.77 0 0 0-0.92-0.51c-0.16-0.04-0.32-0.1-0.54-0.1z" fill="#FFF"/>
  <path d="M21.66 17.51c0-0.49 0-0.48-0.36-0.41a5.66 5.66 0 0 0-2.75 1.27c-0.15 0.13 -0.29 0.28 -0.43 0.41 a0.14 0.14 0 0 0 0 0.24l0.59 0.6 c0.1 0.11 0.18 0.1 0.28 0a4.28 4.28 0 0 1 1.67-1.1 7.32 7.32 0 0 1 0.8-0.23c0.09 0 0.13-0.05 0.14 -0.14 0.02 -0.26 0.05 -0.51 0.06 -0.64z" fill="#FFF"/>
</svg>
