<?xml version="1.0" ?>
<svg xmlns="http://www.w3.org/2000/svg" width="33" height="37" viewBox="0 0 33 37">
  <path d="M7.34 13.81a1.1 1.1 0 0 0 0-0.18V9.81a0.43 0.43 0 0 0-0.11-0.28 6.57 6.57 0 0 1-1.51-3.09 6.83 6.83 0 0 1 0-2.51A6.2 6.2 0 0 1 7.86 0.09 L8 0c0.28 0.3 0.59 0.59 0.85 0.91 a6.21 6.21 0 0 1 1.39 3 6.39 6.39 0 0 1-1.67 5.64 0.37 0.37 0 0 0-0.1 0.23 v4.1c0.13-0.31 0.22 -0.57 0.33 -0.83a6.35 6.35 0 0 1 3.34-3.36 6 6 0 0 1 2.9-0.48c0.11 0 0.18 0 0.18 0.17 a6.5 6.5 0 0 1-2.56 5.74 5.86 5.86 0 0 1-3 1.23 11.28 11.28 0 0 1-1.16 0.07 c-0.13 0-0.18 0-0.18 0.17 v3.75c0 0.16 0.08 0.17 0.2 0.17h7.06c0.15 0 0.19 0.06 0.19 0.2 v3.41c0 0.17-0.06 0.22 -0.22 0.22 H0.28c-0.28 0-0.28 0-0.28-0.28v-3.32c0-0.23 0-0.23 0.24 -0.23h7c0.25 0 0.25 0 0.25-0.25v-3.5c0-0.24 0-0.23-0.23-0.22a6 6 0 0 1-3.73-1.09A6.51 6.51 0 0 1 0.9 12.06a6.66 6.66 0 0 1-0.32-2.62c0-0.09 0-0.13 0.14 -0.14a6.25 6.25 0 0 1 6.14 3.37c0.17 0.35 0.28 0.73 0.42 1.09v0.06l0.06-0.01zM25.33 29.23v-5.64a1.93 1.93 0 0 1 0.21-0.78 0.86 0.86 0 0 1 0.81-0.48h0.47c0.15 0 0.19 0 0.19-0.19v-4.26c0-0.22 0-0.24-0.24-0.24h-3.65c-0.24 0-0.24 0-0.24-0.24v-8a0.42 0.42 0 0 1 0.12-0.32l3.84-3.84a1.27 1.27 0 0 1 0.87-0.44 1.24 1.24 0 0 1 1 0.45l1.43 1.53L32.2 9a0.51 0.51 0 0 1 0.15 0.37 v8c0 0.24 0 0.24-0.23 0.24 h-3.7c-0.15 0-0.22 0-0.22 0.2 v4.24c0 0.26 0 0.26 0.26 0.26a3.11 3.11 0 0 1 0.68 0 0.92 0.92 0 0 1 0.67 0.93 v11.51a2.07 2.07 0 0 1-0.09 0.66 0.86 0.86 0 0 1-0.83 0.57 h-2.64a0.91 0.91 0 0 1-0.91-0.84V33.7l-0.01-4.47zM12.35 36.06H3.67c-0.16 0-0.22-0.06-0.25-0.21-0.19-1-0.39-2-0.59-3l-0.6-3c-0.2-1-0.34-1.78-0.52-2.67-0.07-0.39-0.15-0.77-0.23-1.15 0-0.2 0-0.22 0.17 -0.22h12.67c0.12 0 0.15 0.06 0.13 0.17 l-0.3 1.42-0.39 1.9-0.39 1.85-0.37 1.9c-0.13 0.62 -0.25 1.23-0.38 1.84-0.06 0.3 -0.12 0.6 -0.19 0.9 -0.03 0.08 -0.06 0.21 -0.08 0.27 z" fill="#FFF"/>
</svg>
