<?xml version="1.0" ?>
<svg xmlns="http://www.w3.org/2000/svg" width="44" height="16" viewBox="0 0 44 16">
  <path d="M0 9.26c0-0.13 0-0.26 0.07 -0.4a1.16 1.16 0 0 1 0-0.18c0.12-0.37 0.23 -0.41 0.53 -0.17a14.6 14.6 0 0 0 3.88 2A29.86 29.86 0 0 0 10 12c1.41 0.24 2.83 0.45 4.25 0.6 1.42 0.15 2.61 0.23 3.92 0.29 1.47 0.06 2.94 0.09 4.41 0.06 1.47-0.03 3-0.13 4.47-0.23a46.05 46.05 0 0 0 5.23-0.72 30.37 30.37 0 0 0 6.93-1.93 13.05 13.05 0 0 0 2.86-1.63c0.22-0.17 0.34 -0.14 0.43 0.12 0.144 0.414 0.175 0.86 0.09 1.29a1.15 1.15 0 0 1-0.43 0.71 c-0.95 0.74 -1.98 1.37-3.07 1.88a28.79 28.79 0 0 1-6.52 2.14c-1.34 0.27 -2.69 0.51 -4.05 0.7 -1.09 0.16 -2.19 0.23 -3.28 0.33 a44.52 44.52 0 0 1-5 0.12c-1.22 0-2.44-0.1-3.66-0.19a46.12 46.12 0 0 1-5.35-0.72 32.86 32.86 0 0 1-7-2.08 16.8 16.8 0 0 1-3.66-2.1A1.35 1.35 0 0 1 0 9.78a0.41 0.41 0 0 0 0-0.08v-0.44zM31.63 0l0.21 0.06 c0.451 0.13 0.772 0.53 0.8 1a2.7 2.7 0 0 1 0 0.49v3a3.79 3.79 0 0 1-0.33 1.55 2.68 2.68 0 0 1-1.67 1.47 5.77 5.77 0 0 1-3.74 0 2.8 2.8 0 0 1-2-2.6c-0.07-1.18 0-2.37 0-3.55A2.35 2.35 0 0 1 25 1c0.03-0.52 0.432 -0.942 0.95 -1h5.68zM29.9 3.59V2.43c0-0.39-0.13-0.48-0.51-0.49H28.3c-0.56 0-0.65 0.09 -0.66 0.66 v1.92a3 3 0 0 0 0 0.42 1.1 1.1 0 0 0 1.17 0.92 1 1 0 0 0 1-1c0.13-0.38 0.09 -0.86 0.09 -1.27zM7 0l0.21 0.05 A1 1 0 0 1 8 1c0.058 0.37 0.092 0.745 0.1 1.12v2.62a3 3 0 0 1-0.89 2.16 3 3 0 0 1-1.66 0.8 6.38 6.38 0 0 1-3-0.11A2.84 2.84 0 0 1 0.42 5.08a6.77 6.77 0 0 1-0.06-1V0.21v-0.2H3.1v4.63c-0.048 0.44 0.167 0.867 0.55 1.09a1.08 1.08 0 0 0 1.66-0.88c0.05-0.79 0-1.58 0-2.36 0-0.46-0.11-0.54-0.57-0.54h-0.55V0H7zM22.64 0l0.36 0.07 a1.42 1.42 0 0 1 1.18 1 5.87 5.87 0 0 1 0.25 1.77A6 6 0 0 1 24 5.7a3.14 3.14 0 0 1-3 1.92h-0.87V5.7a1.35 1.35 0 0 0 1.3-1 2 2 0 0 0 0.15-0.7c0.03-0.493 0.03 -0.987 0-1.48 0-0.44-0.21-0.59-0.65-0.61h-4.21V0h5.92zM43.58 1.94h-0.66a0.34 0.34 0 0 0-0.36 0.2 3.56 3.56 0 0 0-0.23 0.72 3.07 3.07 0 0 0 0 0.68v4.07h-2.79V7.5 3.75c0-0.68 0.309 -1.325 0.84 -1.75H36.9c-0.17 0-0.22-0.05-0.21-0.22V0.05h6.87l0.02 1.89zM11.44 0h0.08a1.08 1.08 0 0 1 1 1c0.078 0.456 0.122 0.917 0.13 1.38v3.49A5.18 5.18 0 0 1 12.52 7a0.71 0.71 0 0 1-0.82 0.63 H8.28V5.69h1.27a0.22 0.22 0 0 0 0.27-0.21 1 1 0 0 0 0-0.24V2.52a0.85 0.85 0 0 0 0-0.22 0.4 0.4 0 0 0-0.44-0.36h-0.71V0.19 0h2.77zM15 0l0.28 0.07 a1.19 1.19 0 0 1 1 1c0.01 0.133 0.01 0.267 0 0.4V7.6h-2.79V2.51c0-0.25 0-0.5-0.33-0.57 0 0-0.06-0.07-0.06-0.1V0H15zM35.14 0h0.09a1.08 1.08 0 0 1 1 1.13v3.23H33.5v-0.18-1.75c0-0.33 0-0.4-0.37-0.5V0h2.01z" fill="#FFF"/>
  <path d="M16.8 10.33v-7h2.69v7z" fill="#FFF"/>
</svg>
