<?xml version="1.0" ?>
<svg xmlns="http://www.w3.org/2000/svg" width="39" height="30" viewBox="0 0 39 30">
  <path d="M33.27 27.34l-0.71 0.21 -1.64 0.5 c-0.44 0.13 -0.88 0.26 -1.32 0.36 -0.44 0.1 -0.85 0.18 -1.28 0.25 -0.58 0.11 -1.16 0.2 -1.75 0.28 -0.26 0-0.53 0.07 -0.79 0.09 -0.52 0-1 0.08-1.55 0.09 -1.95 0-3.91 0.06 -5.87 0.06 -1.07 0-2.14-0.08-3.2-0.15-0.74-0.05-1.48-0.14-2.22-0.23-0.74-0.09-1.28-0.18-1.92-0.31-0.64-0.13-1.46-0.33-2.19-0.49a17 17 0 0 1-2.72-0.9c-0.12 0-0.19 0-0.22 0.11 -0.09 0.49 -0.19 1-0.29 1.45 0 0.25-0.08 0.5 -0.15 0.75 a0.53 0.53 0 0 1-0.58 0.41 0.58 0.58 0 0 1-0.49-0.52c-0.09-0.59-0.17-1.18-0.25-1.77L4 26.36a1.66 1.66 0 0 0-0.62-1.08 9.31 9.31 0 0 1-1.52-1.42 7.1 7.1 0 0 1-1.33-2.32 7.46 7.46 0 0 1-0.38-1.82c0-0.39 0-0.78-0.07-1.18 0-0.18 0.06 -0.22 0.23 -0.22h38.17c0.18 0 0.26 0 0.23 0.23 -0.08 0.48 -0.14 1-0.22 1.45a10.06 10.06 0 0 1-0.75 2.39A8.63 8.63 0 0 1 36 25a2.87 2.87 0 0 0-0.75 1.68c-0.06 0.46 -0.18 0.92 -0.27 1.38-0.07 0.31 -0.12 0.62 -0.18 0.93 a4.23 4.23 0 0 1-0.13 0.51 0.53 0.53 0 0 1-0.56 0.31 0.63 0.63 0 0 1-0.45-0.48c-0.09-0.46-0.19-0.92-0.29-1.38-0.03-0.19-0.06-0.38-0.1-0.61zM38.71 17.4H0c-0.1-0.64 0-1.38 0.48 -1.69a1.59 1.59 0 0 1 0.82-0.21h30.2c0.26 0 0.26 0 0.26-0.26V4.48a2.67 2.67 0 0 0-1.7-2.57 2.72 2.72 0 0 0-1.44-0.16c-0.16 0-0.15 0.09 -0.13 0.23 0.122 0.547 0.208 1.102 0.26 1.66a3 3 0 0 1-0.54 1.66c-0.15 0.23 -0.31 0.25 -0.53 0L26 3.67l-2.47-2.46c-0.36-0.36-0.33-0.52 0.12 -0.76A3.44 3.44 0 0 1 25.18 0a3.3 3.3 0 0 1 1.39 0.25 c0.32 0.13 0.68 0.13 1 0A4.37 4.37 0 0 1 29.4 0a4.52 4.52 0 0 1 3.88 2.9 4.72 4.72 0 0 1 0.32 1.82v10.46c0 0.32 0 0.32 0.32 0.32h3.64c0.223 0.018 0.438 0.086 0.63 0.2 a1 1 0 0 1 0.51 0.82 c0.024 0.293 0.028 0.587 0.01 0.88 z" fill="#FFF"/>
  <path d="M24.4 5.54a0.79 0.79 0 0 1 0.79-0.8 0.8 0.8 0 1 1-0.565 1.368 0.78 0.78 0 0 1-0.225-0.568zM23.57 3.12a0.81 0.81 0 1 1-1.61 0.18 0.81 0.81 0 0 1 1.61-0.18zM19.13 8.39a0.8 0.8 0 0 1 0.81 0.8 0.81 0.81 0 0 1-1.62 0 0.81 0.81 0 0 1 0.81-0.8zM23.57 10.4a0.83 0.83 0 0 1-0.81 0.81 0.84 0.84 0 0 1-0.8-0.83 0.83 0.83 0 0 1 0.8-0.78 0.8 0.8 0 0 1 0.81 0.8 zM21.14 4.35a0.79 0.79 0 0 1-0.8 0.79 0.81 0.81 0 1 1 0-1.61 0.79 0.79 0 0 1 0.8 0.82 zM23.18 8a0.85 0.85 0 0 1 0.8-0.82 0.9 0.9 0 0 1 0.81 0.8 0.89 0.89 0 0 1-0.81 0.82 0.87 0.87 0 0 1-0.8-0.8zM22.35 6.77a0.82 0.82 0 0 1-0.8 0.79 0.87 0.87 0 0 1-0.81-0.81 0.86 0.86 0 0 1 0.81-0.8c0.44 0.02 0.79 0.379 0.8 0.82 zM17.93 6.34a0.81 0.81 0 0 1-0.81-0.78 0.82 0.82 0 0 1 0.77-0.82 0.83 0.83 0 0 1 0.84 0.81 0.81 0.81 0 0 1-0.8 0.79 z" fill="#FFF"/>
</svg>
