<?xml version="1.0" ?>
<svg xmlns="http://www.w3.org/2000/svg" width="44" height="30" viewBox="0 0 44 30">
  <path d="M27.73 6.64c-0.13 0.44 -0.25 0.85 -0.4 1.26 0 0.06-0.17 0.11 -0.26 0.11 H13.26c0.09-0.31 0.16 -0.59 0.24 -0.86l0.5-1.69a6.94 6.94 0 0 1 0.19-0.68 0.89 0.89 0 0 0-0.19-0.91 2 2 0 0 1-0.41-1.24 0.88 0.88 0 0 1 0.78-0.8h1.91a1.68 1.68 0 0 0 0.62-0.14 0.89 0.89 0 0 0 0.43-0.91 0.92 0.92 0 0 0-0.82-0.78h-2a2.7 2.7 0 0 0-2.59 2 2.89 2.89 0 0 0 0.27 2.26 1.15 1.15 0 0 1 0 1l-0.5 1.73c-0.16 0.55 -0.33 1.1-0.49 1.64-0.16 0.54 -0.3 1.1-0.46 1.65-0.16 0.55 -0.33 1.1-0.49 1.64-0.1 0.33 -0.2 0.66 -0.28 1 0 0.17-0.12 0.18 -0.26 0.17 -0.62 0-1.24-0.09-1.86-0.08a7.32 7.32 0 0 0-3 0.75A8.34 8.34 0 0 0 1.26 17a8.16 8.16 0 0 0-0.93 2.13A8.28 8.28 0 0 0 0 21.62 8.48 8.48 0 0 0 4.82 29a8.16 8.16 0 0 0 3.85 0.82 A8.26 8.26 0 0 0 13 28.49a8.41 8.41 0 0 0 3.21-3.77 6.56 6.56 0 0 0 0.56-1.91c0.08-0.506 0.127 -1.017 0.14 -1.53a8.47 8.47 0 0 0-5.07-7.65 1.75 1.75 0 0 1-0.19-0.11l0.54-1.87 0.38 0.33 6.79 6.29c0.79 0.73 1.58 1.47 2.38 2.2a0.36 0.36 0 0 1 0.12 0.42 A2.21 2.21 0 0 0 26 22.4a0.34 0.34 0 0 1 0.23-0.13c0.163-0.01 0.327 -0.01 0.49 0 0.07 0.34 0.14 0.67 0.2 1a7.33 7.33 0 0 0 0.83 2.2 8.35 8.35 0 0 0 4 3.65 12.62 12.62 0 0 0 1.8 0.56 6.61 6.61 0 0 0 2.15 0.16 8.27 8.27 0 0 0 2.93-0.72 8.44 8.44 0 0 0 3-2.31 8.3 8.3 0 0 0 1.47-2.57 8.18 8.18 0 0 0 0.49-3.09 8.49 8.49 0 0 0-5.14-7.52 8.13 8.13 0 0 0-2-0.57 9.31 9.31 0 0 0-2.31-0.06 7.73 7.73 0 0 0-2.1 0.54 c-0.28 0.11 -0.28 0.11 -0.43-0.14-0.79-1.4-1.61-2.81-2.39-4.18a1.16 1.16 0 0 1-0.07-1.17 4.17 4.17 0 0 0 0.21-0.67c0-0.14 0.1 -0.17 0.23 -0.17 0.303 0.027 0.607 0.027 0.91 0a2.78 2.78 0 0 0 2.32-1.67 1.07 1.07 0 0 0-0.24-1.34A1 1 0 0 0 32 4h-6.69a0.9 0.9 0 0 0-0.85 0.69 0.88 0.88 0 0 0 0.61 1l2.66 0.95 zm-16.59 8.68a5.5 5.5 0 0 1 2.21 1.51A6.59 6.59 0 0 1 15 22.56 6.67 6.67 0 1 1 2.09 19.4a6.55 6.55 0 0 1 7.33-4.59l-0.21 0.74 c-0.15 0.55 -0.3 1.1-0.46 1.65-0.16 0.55 -0.39 1.29-0.58 1.93-0.19 0.64 -0.34 1.33-0.57 2a0.92 0.92 0 0 0 0.79 1.14 1 1 0 0 0 1-0.82c0.17-0.65 0.36 -1.3 0.54 -1.94 0.18 -0.64 0.39 -1.3 0.58 -2 0.19-0.7 0.42 -1.45 0.63 -2.19zm17.4 6.94H35.11a0.92 0.92 0 0 0 0.81-1.37c-0.42-0.69-0.8-1.4-1.2-2.1l-2-3.47c-0.07-0.11-0.06-0.17 0.07 -0.2a16 16 0 0 1 1.71-0.41 6.1 6.1 0 0 1 2.6 0.29 6.64 6.64 0 0 1 2.33 1.27 6.5 6.5 0 0 1 2.34 4.25 6.34 6.34 0 0 1-0.48 3.48 6.6 6.6 0 0 1-5.14 4 6.2 6.2 0 0 1-3.08-0.26 6.65 6.65 0 0 1-2.92-1.94 6.76 6.76 0 0 1-1.37-2.45c-0.1-0.35-0.15-0.71-0.24-1.09zM26.7 9.83c0 0.11 0 0.21-0.06 0.29 -0.07 0.24 -0.15 0.48 -0.22 0.72 l-0.47 1.49-0.57 1.8-0.47 1.52-0.49 1.53c-0.16 0.51 -0.34 1-0.48 1.53-0.08 0.31 -0.18 0.5 -0.55 0.54 a0.47 0.47 0 0 1-0.44-0.09l-9.51-8.81-0.54-0.51 13.8-0.01zm1.5 1.25c0.05 0.05 0.098 0.103 0.14 0.16 l1.78 3.09c0.08 0.14 0 0.23-0.08 0.32 a8.14 8.14 0 0 0-2 2.23 7.46 7.46 0 0 0-1 2.25c-0.09 0.4 -0.17 0.8 -0.25 1.2a0.18 0.18 0 0 1-0.06 0.11 0.67 0.67 0 0 1-0.74-0.18 2.2 2.2 0 0 0-0.32-0.4 0.37 0.37 0 0 1-0.08-0.43c0.16-0.5 0.33 -1 0.49-1.51 0.25 -0.78 0.48 -1.57 0.72 -2.36 0.24 -0.79 0.51 -1.56 0.75 -2.35s0.45-1.38 0.65 -2.12v-0.01zm2.88 9.4h-2.21c-0.29 0-0.32 0-0.27-0.31 0.064 -0.3 0.144 -0.598 0.24 -0.89a6.57 6.57 0 0 1 2.1-3.07c0.12-0.1 0.19 -0.1 0.27 0.05 0.74 1.31 1.5 2.62 2.25 3.93 0.15 0.26 0.13 0.29-0.16 0.29 h-2.22z" fill="#FFF"/>
</svg>
