<?xml version="1.0" ?>
<svg xmlns="http://www.w3.org/2000/svg" width="30" height="36" viewBox="0 0 30 36">
  <path d="M0.77 25v-0.19-10c-0.01-0.35 0.15 -0.681 0.43 -0.89a4.81 4.81 0 0 1 1.59-0.78 17.44 17.44 0 0 1 3-0.67c0.76-0.11 1.51-0.2 2.27-0.29 0.17 0 0.19-0.1 0.19 -0.24V7.13a1.08 1.08 0 0 1 0.59-1 1.12 1.12 0 0 1 1.65 1v4.56c0 0.16 0.05 0.21 0.21 0.2 1 0 2-0.07 2.95-0.09 0.18 0 0.22-0.08 0.22 -0.25v-5a1.51 1.51 0 0 1 0.13-0.73 1.13 1.13 0 0 1 1.22-0.57c0.487 0.094 0.848 0.505 0.88 1v5.27c0 0.18 0 0.25 0.23 0.26 1 0 1.95 0 2.93 0.09 0.17 0 0.22-0.05 0.22 -0.21V7.14a1.13 1.13 0 0 1 0.62-1.07 1.11 1.11 0 0 1 1.62 1v4.76c0 0.27 0 0.25 0.27 0.29 0.86 0.1 1.72 0.2 2.57 0.35 0.85 0.15 1.44 0.28 2.16 0.46 a6 6 0 0 1 1.8 0.72 c0.465 0.233 0.745 0.721 0.71 1.24v2.87a0.73 0.73 0 0 1-0.08 0.33 31.18 31.18 0 0 1-3.33 4.42 6.33 6.33 0 0 1-1.54 1.28 1.31 1.31 0 0 1-1.49-0.09 5.54 5.54 0 0 1-1.14-1.18c-0.51-0.65-1-1.3-1.54-1.92a3.21 3.21 0 0 0-1.37-1 2.13 2.13 0 0 0-2.09 0.34 6.68 6.68 0 0 0-1.45 1.64l-1.45 2.1a3.17 3.17 0 0 1-0.34 0.39 1.49 1.49 0 0 1-1.89 0.33 8.64 8.64 0 0 1-1.8-1.25 11.91 11.91 0 0 0-2.12-1.46 3.9 3.9 0 0 0-1.42-0.39 3.22 3.22 0 0 0-1.88 0.54 12.52 12.52 0 0 0-2.84 2.39c-0.18 0.19 -0.35 0.39 -0.53 0.59 L0.82 25H0.77z" fill="#FFF"/>
  <path d="M28.47 22.23v11.23c0 0.25 0 0.25-0.25 0.25 H1.74c-0.18 0-0.24-0.05-0.24-0.23v-6.3a0.58 0.58 0 0 1 0.15-0.41 9.33 9.33 0 0 1 2.8-2.39A3.42 3.42 0 0 1 5.89 24a3.26 3.26 0 0 1 1.9 0.56 c0.73 0.47 1.43 1 2.14 1.46a6.07 6.07 0 0 0 1.68 0.86 2.08 2.08 0 0 0 2.06-0.41 10.16 10.16 0 0 0 1.48-1.66c0.48-0.63 1-1.27 1.46-1.87 0.21 -0.246 0.46 -0.456 0.74 -0.62a1.2 1.2 0 0 1 1.39 0.05 c0.483 0.34 0.909 0.755 1.26 1.23 0.56 0.73 1.11 1.46 1.68 2.18 0.204 0.242 0.432 0.463 0.68 0.66a1.87 1.87 0 0 0 2.35 0.2 6 6 0 0 0 1.51-1.28 18.23 18.23 0 0 0 2.12-3l0.09-0.14s0 0.02 0.04 0.01zM15 36H0.9a1.21 1.21 0 0 1-0.5-0.1 0.72 0.72 0 0 1-0.38-0.8 0.77 0.77 0 0 1 0.77-0.61h28.36a0.78 0.78 0 0 1 0.78 0.47 0.75 0.75 0 0 1-0.74 1H15V36zM21.71 0.78 c-0.05 0.16 -0.09 0.31 -0.13 0.46 a2 2 0 0 0 0.19 1.57c0.21 0.362 0.327 0.771 0.34 1.19a1 1 0 0 1-0.65 1 2 2 0 0 1-1.76 0 1 1 0 0 1-0.58-1 3.4 3.4 0 0 1 1.07-2.51 3.22 3.22 0 0 1 1.33-0.7h0.19V0.78zM10.47 0.76 l-0.16 0.6 a1.8 1.8 0 0 0 0.18 1.38c0.177 0.31 0.299 0.648 0.36 1a1.08 1.08 0 0 1-0.8 1.34 1.91 1.91 0 0 1-1.72-0.18 0.84 0.84 0 0 1-0.43-0.65 3.22 3.22 0 0 1 1.33-3 5.46 5.46 0 0 1 1-0.48 0.53 0.53 0 0 1 0.24-0.01zM16.1 0l-0.16 0.54 A1.94 1.94 0 0 0 16.13 2c0.18 0.307 0.296 0.647 0.34 1a1.07 1.07 0 0 1-0.86 1.33A1.91 1.91 0 0 1 14 4.2a0.92 0.92 0 0 1-0.47-0.79A3.2 3.2 0 0 1 15.82 0.05 L16.1 0z" fill="#FFF"/>
</svg>
