<?xml version="1.0" ?>
<svg xmlns="http://www.w3.org/2000/svg" width="40" height="37" viewBox="0 0 40 37">
  <path d="M24.34 14.5l0.95 0.6 2.17 1.35 2.06 1.28 2.56 1.59c0.4 0.25 0.8 0.51 1.21 0.75 a0.16 0.16 0 0 0 0.15 0c0.6-0.41 1.19-0.84 1.79-1.26 0.38 -0.26 0.75 -0.52 1.14-0.76a2.68 2.68 0 0 1 1.87-0.38c0.7 0.082 1.316 0.5 1.65 1.12a1.49 1.49 0 0 1 0 1 6.15 6.15 0 0 1-0.79 1.5c-0.43 0.77 -0.88 1.52-1.34 2.28-0.46 0.76 -1 1.58-1.44 2.37-0.58 1-1.16 1.92-1.73 2.88l-1 1.62a0.91 0.91 0 0 1-0.62 0.48 1 1 0 0 1-0.5-0.07 14.52 14.52 0 0 1-1.39-0.64 1.46 1.46 0 0 1-0.81-0.91 4.53 4.53 0 0 1-0.09-0.74 2.38 2.38 0 0 1 0-0.46c0.07-0.76 0.15 -1.53 0.23 -2.29 0-0.32 0.07 -0.64 0.09 -1a0.28 0.28 0 0 0-0.12-0.21c-0.7-0.36-1.41-0.7-2.12-1l-2.8-1.36-2.31-1.14-1.84-0.89c-0.12-0.06-0.19 0-0.27 0.08 A6.39 6.39 0 0 0 20 22.13c-0.26 0.64 -0.46 1.3-0.66 2-0.12 0.38 -0.17 0.78 -0.26 1.17-0.09 0.39 -0.21 0.84 -0.31 1.26l-0.27 1.24-0.31 1.2-0.18 0.81 -0.3 1.19c-0.07 0.26 -0.13 0.52 -0.19 0.78 -0.13 0.53 -0.25 1.05-0.38 1.57s-0.17 0.82 -0.29 1.22a2.65 2.65 0 0 1-0.64 1.31 0.85 0.85 0 0 1-0.55 0.25 2.83 2.83 0 0 1-1.19-0.22c-0.45-0.16-0.9-0.34-1.33-0.54A2 2 0 0 1 12 34.21a2.64 2.64 0 0 1-0.11-0.56c-0.16-1.89-0.07-3.78-0.09-5.68 0-3.89-0.05-7.79-0.08-11.69a3.23 3.23 0 0 0-0.28-1.41 2.27 2.27 0 0 0-1.12-1.06c-0.89-0.46-1.79-0.9-2.67-1.37-0.88-0.47-1.79-1-2.68-1.5-0.7-0.41-1.4-0.81-2.06-1.27a8.36 8.36 0 0 1-2-2A4.42 4.42 0 0 1 0.14 6.5a1.84 1.84 0 0 1 0.18-1.76 1.76 1.76 0 0 1 0.92-0.64 4.44 4.44 0 0 1 2.05 0c0.468 0.058 0.932 0.142 1.39 0.25 a10.61 10.61 0 0 1 1.56 0.53 c0.64 0.28 1.27 0.62 1.9 0.94 0.63 0.32 1.38 0.74 2.07 1.12l2.65 1.51 1 0.59a1.67 1.67 0 0 0 1.76 0l2.27-1.28 2.71-1.48 3.44-1.89 3.26-1.78 2.46-1.36c0.58-0.31 1.15-0.65 1.75-0.91a3.62 3.62 0 0 1 2-0.3 3.51 3.51 0 0 1 2 1.09c0.248 0.25 0.472 0.52 0.67 0.81 0.21 0.3 0.21 0.7 0 1a4.17 4.17 0 0 1-0.69 0.82 c-1 0.93-2.11 1.85-3.16 2.78l-4 3.52c-0.6 0.54 -1.23 1.07-1.78 1.66-0.55 0.59 -1.13 1.35-1.68 2-0.13 0.28 -0.32 0.52 -0.53 0.78 z" fill="#FFF"/>
</svg>
