<?xml version="1.0" ?>
<svg xmlns="http://www.w3.org/2000/svg" width="44" height="30" viewBox="0 0 44 30">
  <path d="M11.49 20.35l1.26-0.81 2.51-1.61 2.63-1.67 2.74-1.76c0.82-0.53 1.64-1.07 2.47-1.59 0.15 -0.1 0.18 -0.16 0.07 -0.31-0.48-0.67-0.93-1.36-1.4-2l-1.72-2.49c-0.46-0.65-0.91-1.29-1.34-1.95a2.27 2.27 0 0 1-0.4-1.54 1.39 1.39 0 0 1 0.43-0.9 0.53 0.53 0 0 1 0.26-0.13l1.56-0.36c0.55-0.13 1.1-0.29 1.64-0.42l1.53-0.35L25 2.14l1.26-0.29 1.2-0.3 0.86 -0.21L30 1l1.32-0.36c0.41-0.1 0.82 -0.22 1.24-0.31A5.68 5.68 0 0 1 34.73 0 1.51 1.51 0 0 1 36 1c0.165 0.417 0.196 0.875 0.09 1.31a1.63 1.63 0 0 1-0.93 1.11 8.88 8.88 0 0 1-1.16 0.4 l-1.13 0.31 -1.12 0.29 -1.13 0.31 -1.17 0.27 -1.45 0.43 -1.14 0.29 -1.13 0.28 -1.07 0.27 -0.77 0.21 c0.13 0.2 0.25 0.38 0.38 0.55 L27 10.65c0.59 0.79 1.19 1.57 1.77 2.38 0.58 0.81 1.15 1.62 1.71 2.44 0.56 0.82 1.2 1.76 1.79 2.65 0.38 0.57 0.75 1.16 1.12 1.75l0.08 0.16 h-0.28a4.75 4.75 0 0 0-2.83 1c-0.39 0.29 -0.75 0.61 -1.14 0.89 a2.23 2.23 0 0 1-1.91 0.33 5.19 5.19 0 0 1-2.5-1.49 4.91 4.91 0 0 0-2.27-1.31 7 7 0 0 0-1.27-0.22 4.1 4.1 0 0 0-1.47 0.22 5.43 5.43 0 0 0-1.55 0.75 c-0.46 0.34 -0.89 0.72 -1.31 1.09a3.75 3.75 0 0 1-1.38 0.82 2.11 2.11 0 0 1-1.17 0 6.79 6.79 0 0 1-2.24-1.29c-0.22-0.18-0.43-0.31-0.66-0.47zM41.47 29.2a6.26 6.26 0 0 1-2.53-0.66c-0.68-0.36-1.34-0.74-2-1.16a4.36 4.36 0 0 0-3-0.68 5.64 5.64 0 0 0-1.7 0.55 11 11 0 0 0-1.74 1.12 4.81 4.81 0 0 1-1.7 0.75 4.07 4.07 0 0 1-1.7 0.05 5 5 0 0 1-2.44-1c-0.41-0.34-0.81-0.7-1.2-1.07a3.94 3.94 0 0 0-1.71-0.94 2.63 2.63 0 0 0-2.25 0.52 c-0.5 0.36 -1 0.77-1.44 1.16a5.11 5.11 0 0 1-2 1 3.83 3.83 0 0 1-1.78 0.05 6.66 6.66 0 0 1-2.34-1c-0.56-0.37-1.1-0.77-1.67-1.13a4.29 4.29 0 0 0-1.6-0.59 3.29 3.29 0 0 0-2.41 0.65 c-0.54 0.36 -1 0.79-1.57 1.14a5.3 5.3 0 0 1-3.34 0.82 1.9 1.9 0 0 1-1-0.34 0.88 0.88 0 0 1-0.23-1.11 0.83 0.83 0 0 1 1-0.39 2.43 2.43 0 0 0 1.14 0.08 5.36 5.36 0 0 0 2.48-1.3 6.15 6.15 0 0 1 1.68-1 4.85 4.85 0 0 1 2.35-0.31c0.868 0.099 1.7 0.4 2.43 0.88 0.57 0.35 1.11 0.76 1.68 1.12a4.6 4.6 0 0 0 1.69 0.72 2.57 2.57 0 0 0 2.28-0.57c0.37-0.34 0.71 -0.71 1.1-1a5.71 5.71 0 0 1 2-1.08 4.12 4.12 0 0 1 2-0.14A4.76 4.76 0 0 1 24.78 26a4.32 4.32 0 0 0 1.8 1.24 3 3 0 0 0 1.52 0.2 3.17 3.17 0 0 0 1.51-0.63 9.23 9.23 0 0 1 2.18-1.33 8.56 8.56 0 0 1 1.49-0.46 6.53 6.53 0 0 1 1.32-0.16 5.3 5.3 0 0 1 2.95 0.81 c0.5 0.3 1 0.66 1.48 0.94 a4.57 4.57 0 0 0 2.47 0.75 c0.265-0.013 0.521 -0.1 0.74 -0.25a1.13 1.13 0 0 1 0.56-0.21 0.76 0.76 0 0 1 0.77 0.44 0.81 0.81 0 0 1 0 0.87 1.77 1.77 0 0 1-1 0.73c-0.45 0.16 -0.84 0.2 -1.1 0.26 z" fill="#FFF"/>
  <path d="M41.4 25.48a5.21 5.21 0 0 1-2.2-0.48 14.82 14.82 0 0 1-2.2-1.24 4.15 4.15 0 0 0-3-0.76 6.62 6.62 0 0 0-2.36 0.89 c-0.39 0.24 -0.75 0.53 -1.13 0.79 a4.84 4.84 0 0 1-1.95 0.79 5.06 5.06 0 0 1-2.41-0.25 5.81 5.81 0 0 1-2.47-1.64 3.68 3.68 0 0 0-2.4-1.2 2.46 2.46 0 0 0-1.39 0.36 A9.51 9.51 0 0 0 18.27 24a5.84 5.84 0 0 1-2 1.15 4.07 4.07 0 0 1-2.16 0.06 6.39 6.39 0 0 1-2.11-0.89c-0.61-0.39-1.19-0.82-1.81-1.2a3.71 3.71 0 0 0-2.11-0.58 3.63 3.63 0 0 0-1.95 0.74 c-0.52 0.37 -1 0.77-1.54 1.11a4.42 4.42 0 0 1-1.67 0.67 c-0.18 0-0.36 0.06 -0.54 0.09 A3.31 3.31 0 0 1 0.7 25a0.9 0.9 0 0 1-0.7-0.69 0.85 0.85 0 0 1 0.42-0.92 1.32 1.32 0 0 1 0.81 0c0.382 0.05 0.768 0.05 1.15 0a4.7 4.7 0 0 0 2-1c0.393-0.32 0.803 -0.617 1.23-0.89a4.91 4.91 0 0 1 3.76-0.57 6.46 6.46 0 0 1 2.39 1.15 8.82 8.82 0 0 0 2 1.22c0.407 0.18 0.845 0.28 1.29 0.29 a2.63 2.63 0 0 0 2-0.83 6.85 6.85 0 0 1 2.13-1.62 6.89 6.89 0 0 1 1.24-0.4 3.32 3.32 0 0 1 0.94-0.07 4.67 4.67 0 0 1 2.26 0.72 5.46 5.46 0 0 1 1.24 1.11 4 4 0 0 0 1.83 1.17 3.12 3.12 0 0 0 3-0.61 8.73 8.73 0 0 1 2.51-1.4 6.51 6.51 0 0 1 3.18-0.37A5.54 5.54 0 0 1 38 22.34a7.5 7.5 0 0 0 2.22 1.17c0.293 0.092 0.59 0.169 0.89 0.23 a1.48 1.48 0 0 0 1.06-0.21 2.14 2.14 0 0 1 0.53-0.25 0.83 0.83 0 0 1 0.91 0.5 1 1 0 0 1-0.42 1.22 2.82 2.82 0 0 1-1.79 0.48 zM41.28 13.19a4.75 4.75 0 1 1-4.72-4.77 4.73 4.73 0 0 1 4.72 4.77z" fill="#FFF"/>
</svg>
