<?xml version="1.0" ?>
<svg xmlns="http://www.w3.org/2000/svg" width="47" height="24" viewBox="0 0 47 24">
  <path d="M33.07 8.55a1.1 1.1 0 0 0-0.42-1.11 2 2 0 0 1-0.84-1.05l-0.1-0.1c0.05-0.25 0.08 -0.51 0.15 -0.76a6.48 6.48 0 0 1 0.3-0.71l0.09 0.17 0.24-0.45c0.26 0 0.61-0.13 0.64 -0.29l0.71-0.12 0.35 0.33c0.332 0.312 0.582 0.7 0.73 1.13 0.118 0.377 0.192 0.766 0.22 1.16a0.32 0.32 0 0 1 0 0.24 0.47 0.47 0 0 0-0.09 0.57 c0.13 0.4 0.22 0.45 0.52 0.14 a3.17 3.17 0 0 1 0.87-0.63 1.92 1.92 0 0 0 0.85-1c0.46-1 0.89-2.11 1.34-3.17a0.69 0.69 0 0 0-0.13-0.79 2.26 2.26 0 0 1-0.27-0.51 1.64 1.64 0 0 0-0.2-0.26 2.84 2.84 0 0 0-0.29-0.2 0.46 0.46 0 0 1 0.49-0.14 0.28 0.28 0 0 1 0.11 0.08 c0.45 0.37 0.7 0.28 0.85-0.28 0.05 -0.19 0.09 -0.4 0.16 -0.59 0.06 -0.079 0.131 -0.15 0.21 -0.21 0 0.1 0.12 0.19 0.12 0.29a4.26 4.26 0 0 1-0.06 0.5 1.52 1.52 0 0 0 0 0.21h0.06c0.19-0.23 0.38 -0.47 0.58 -0.68a1.56 1.56 0 0 1 0.34-0.23c0.12 0.18 0 0.29-0.11 0.42 s-0.28 0.41 -0.42 0.61 v0.05l0.66-0.37a0.87 0.87 0 0 1 0.18-0.11h0.2V0.9a5.71 5.71 0 0 1-0.48 0.38 l-0.28 0.23 h0.47a2.62 2.62 0 0 1 0.28 0c0.06 0 0.12 0.08 0.18 0.12 a1.51 1.51 0 0 1-0.17 0.1 0.53 0.53 0 0 1-0.18 0 1.12 1.12 0 0 0-0.91 0.58 4 4 0 0 0-0.55 1.44c-0.16 0.64 -0.38 1.27-0.55 1.91-0.13 0.48 -0.23 1-0.36 1.45-0.13 0.45 -0.35 1.24-0.51 1.89l-0.16 0.65 h3.29a2.09 2.09 0 0 1 2.2 2.21v9.8a2.07 2.07 0 0 1-2.16 2.17h-9.87a2.06 2.06 0 0 1-2.16-2.12v-9.92a2.09 2.09 0 0 1 2.14-2.19 1 1 0 0 0 0.31-0.12c0.26-0.14 0.51 -0.28 0.75 -0.44a4.68 4.68 0 0 0 0.39-0.38 1.79 1.79 0 0 1 0.29-0.11zm9.79 8.16v-3-2.19a1.52 1.52 0 0 0-1.42-1.41h-3.43c-0.13 0-0.17 0.06 -0.2 0.18 a10.6 10.6 0 0 0 0.19 4.39c0.19 0.702 0.421 1.394 0.69 2.07 0.12 0.38 0.1 0.44-0.25 0.61 a1.75 1.75 0 0 1-0.24 0.11 c-0.19 0.06 -0.21 0.17 -0.16 0.36 a9.21 9.21 0 0 1 0.31 2c0 1.08 0.16 2.15 0.23 3.23 0 0.19 0.07 0.25 0.26 0.25h2.36a1.63 1.63 0 0 0 1.71-1.73c-0.07-1.65-0.05-3.26-0.05-4.87zM30.52 14.5c-0.18 0-0.14-0.17-0.11-0.32 0.09 -0.48 0.19 -0.95 0.27 -1.43 0.08 -0.48 0.13 -1.05 0.22 -1.57 0.06 -0.34 0.18 -0.68 0.28 -1a1 1 0 0 0-0.21 0 1.58 1.58 0 0 0-1.26 1.63v9.79a2.09 2.09 0 0 0 0 0.43 1.51 1.51 0 0 0 1.41 1.22l0.38-2.36-0.5-0.25a1.06 1.06 0 0 1-0.66-1.14 5 5 0 0 0 0.11-0.66V16.9c0-0.65 0.05 -1.57 0.07 -2.4zm4.41 5.38a6 6 0 0 0-1.28 3.37h2.2l-0.92-3.37zm-2.44-5.29c-0.07 0.12 -0.13 0.31 -0.21 0.32 -0.08 0.01 -0.18 0.14 -0.21 0.28 -0.08 0.51 -0.15 1-0.28 1.53-0.13 0.53 -0.34 1.09-0.51 1.63a0.53 0.53 0 0 0 0 0.25c0.06 0.19 0.15 0.37 0.22 0.56 l0.18 0.47 a0.37 0.37 0 0 0 0.09-0.21c0.15-0.88 0.29 -1.75 0.43 -2.62a0.75 0.75 0 0 0 0-0.21 3.15 3.15 0 0 1 0-0.43c0.047-0.41 0.18 -0.805 0.39 -1.16 0.11 -0.18 0.1 -0.33-0.1-0.41zm-1.37 4.85c-0.06 0.16 -0.17 0.31 -0.13 0.38 0.163 0.255 0.347 0.496 0.55 0.72 h0.06l0.09-0.63c-0.33 0.02 -0.39-0.26-0.57-0.47zM13.65 22.52a10.8 10.8 0 0 1-1.39 0.88 3.77 3.77 0 0 1-3 0.15 2.33 2.33 0 0 1-1.57-2.32A2.3 2.3 0 0 1 9.35 19a11.55 11.55 0 0 1 2.65-0.51c0.3 0 0.61-0.07 0.91 -0.13a0.7 0.7 0 0 0 0.62-0.65 0.82 0.82 0 0 0-0.38-0.84 2.22 2.22 0 0 0-1.38-0.26 2.47 2.47 0 0 0-1.59 0.82 1.2 1.2 0 0 1-1 0.47 0.93 0.93 0 0 1-0.86-1.27 2.27 2.27 0 0 1 1.23-1.26 4.58 4.58 0 0 1 1.91-0.52 6.53 6.53 0 0 1 3.06 0.41 2.11 2.11 0 0 1 1.39 2.09v3.93c0.012 0.395 0.069 0.788 0.17 1.17a1 1 0 0 1-1 1.32 1.27 1.27 0 0 1-1.43-1.25zm-0.15-2.92a5.83 5.83 0 0 1-1.9 0.47 7.21 7.21 0 0 0-0.91 0.25 0.92 0.92 0 0 0-0.59 0.9 0.89 0.89 0 0 0 0.62 0.84 2.26 2.26 0 0 0 2.44-0.63 2.7 2.7 0 0 0 0.34-1.83z" fill="#FFF"/>
  <path d="M6.58 14.1v8.17a2.74 2.74 0 0 1 0 0.5 1.26 1.26 0 0 1-1.41 1 1.24 1.24 0 0 1-1.23-1.15v-8.13c0-0.43 0.06 -0.38-0.38-0.39H1.24a1.68 1.68 0 0 1-0.66-0.19 1 1 0 0 1-0.54-1A0.94 0.94 0 0 1 0.55 12a2 2 0 0 1 0.8-0.19h7.79c0.27 0.01 0.534 0.07 0.78 0.18 a0.93 0.93 0 0 1 0.56 0.89 1 1 0 0 1-0.52 1 1.91 1.91 0 0 1-1 0.21H6.58v0.01zM20.35 17.61l0.95-1.55a8.42 8.42 0 0 1 0.52-0.8 1.11 1.11 0 0 1 1.88 1.15 6.18 6.18 0 0 1-0.4 0.64 c-0.45 0.67 -0.89 1.33-1.35 2a0.26 0.26 0 0 0 0 0.35l1.74 2.6a1.16 1.16 0 0 1-1.065 1.825 1.13 1.13 0 0 1-0.765-0.435c-0.4-0.53-0.74-1.11-1.1-1.67-0.17-0.26-0.33-0.53-0.52-0.83l-0.13 0.18 -1.41 2.19a1.11 1.11 0 0 1-1.22 0.48 1.07 1.07 0 0 1-0.64-1.74c0.34-0.51 0.69 -1 1-1.51 0.31 -0.51 0.49 -0.74 0.75 -1.1a0.24 0.24 0 0 0 0-0.32L17 16.64a1.09 1.09 0 0 1 0.3-1.6 1.14 1.14 0 0 1 1.64 0.3 c0.44 0.68 0.85 1.38 1.27 2.07 0.051 0.063 0.098 0.13 0.14 0.2zM27 19.3v3.14c0.01 0.133 0.01 0.267 0 0.4a0.93 0.93 0 0 1-0.91 0.91 2.82 2.82 0 0 1-0.71 0 0.93 0.93 0 0 1-0.73-0.81 1.83 1.83 0 0 1 0-0.33v-6.54a1 1 0 0 1 0.5-1 1.46 1.46 0 0 1 1.43 0c0.29 0.218 0.448 0.569 0.42 0.93 v3.3zM20 12.26h-0.72a0.39 0.39 0 0 1-0.41-0.49 0.34 0.34 0 0 1 0.34-0.31h1.43a0.31 0.31 0 0 1 0.34 0.32 v1.88a0.33 0.33 0 0 1-0.31 0.31 0.36 0.36 0 0 1-0.4-0.2l-0.12-0.33a1.89 1.89 0 0 1-1.88 0.5 1.89 1.89 0 0 1-1.57-1.44 3.07 3.07 0 0 1 0-1.62 2.07 2.07 0 0 1 1.86-1.65 2.34 2.34 0 0 1 1.56 0.25 c0.235 0.155 0.435 0.355 0.59 0.59 a0.44 0.44 0 0 1-0.13 0.63 0.48 0.48 0 0 1-0.67-0.15 1.12 1.12 0 0 0-1.3-0.45 1.14 1.14 0 0 0-0.87 1 2.34 2.34 0 0 0 0.07 1.36 1.2 1.2 0 0 0 1.73 0.6 0.93 0.93 0 0 0 0.46-0.8zM22.35 12.41a0.75 0.75 0 0 0 0.4 0.71 0.94 0.94 0 0 0 1 0 3 3 0 0 0 0.28-0.22 0.41 0.41 0 0 1 0.53 0 0.38 0.38 0 0 1 0 0.52 0.92 0.92 0 0 1-0.32 0.3 2.2 2.2 0 0 1-2 0.1 1.63 1.63 0 0 1-0.9-1.71c0.01-0.68 0.44 -1.28 1.08-1.51a1.87 1.87 0 0 1 2 0.47c0.235 0.279 0.356 0.636 0.34 1 0 0.28-0.09 0.37 -0.37 0.37 h-2.04v-0.03zm1.57-0.57a0.74 0.74 0 0 0-0.72-0.7 0.78 0.78 0 0 0-0.82 0.7 h1.54zM25.37 11.2c-0.24 0-0.52 0-0.52-0.34s0.09-0.27 0.52 -0.32V10c0-0.34 0.18 -0.5 0.48 -0.5s0.46 0.16 0.47 0.5 v0.53c0.13-0.01 0.26 -0.01 0.39 0 0.18 0 0.31 0.1 0.31 0.29 0 0.19-0.12 0.3 -0.32 0.31 h-0.38V13c0 0.19 0.08 0.25 0.27 0.27a0.64 0.64 0 0 1 0.38 0.17 c0.14 0.17 0 0.44-0.24 0.52 a1.41 1.41 0 0 1-0.95-0.05 0.6 0.6 0 0 1-0.39-0.58v-1.45l-0.02-0.68zM46 11.18c-0.16 0.17 0 0.46-0.3 0.47 -0.3 0.01 -0.13-0.29-0.29-0.42v0.51c0 0.17-0.08 0.15 -0.18 0.15 -0.1 0-0.19 0-0.19-0.15v-1.6c0-0.05 0.09 -0.13 0.15 -0.14 0.06 -0.01 0.24 0 0.28 0.13 0.055 0.232 0.135 0.456 0.24 0.67 0.067-0.19 0.12 -0.383 0.16 -0.58a0.25 0.25 0 0 1 0.32-0.23c0.21 0 0.15 0.17 0.15 0.28 v1.33c0 0.44 0 0.31-0.35 0.25 l0.01-0.67zM43.92 10.33V10h0.92c0.09 0.3 0.08 0.31 -0.27 0.36 v1.34c0 0.14 0 0.19-0.18 0.19 s-0.17-0.07-0.17-0.19v-1.33l-0.3-0.04z" fill="#FFF"/>
</svg>
