<?xml version="1.0" ?>
<svg xmlns="http://www.w3.org/2000/svg" width="42" height="32" viewBox="0 0 42 32">
  <path d="M0 29.69v-0.27V9.21c0-0.29 0-0.29 0.28 -0.29h1.4c0.19 0 0.24-0.07 0.24 -0.25v-0.83c0-0.27 0-0.27 0.26 -0.27h8.27c0.38 0 0.36 0 0.34-0.33a0.64 0.64 0 0 1 0.38-0.64 7.44 7.44 0 0 1 1.27-0.52c0.57-0.17 1.17-0.28 1.76-0.4 0.16 0 0.19-0.12 0.19 -0.26V1.29c0-0.3 0-0.3 0.3 -0.3h11.43c0.35 0 0.35 0 0.35 0.34 v4.26l1.1 0.18 c0.388 0.053 0.772 0.13 1.15 0.23 0.507 0.167 1.004 0.36 1.49 0.58 a0.68 0.68 0 0 1 0.43 0.75 c0 0.19 0 0.25 0.24 0.25h8.45v1.13c0 0.18 0.06 0.22 0.23 0.22h1.77v20.76h-9.57v-0.2-2c0-0.18 0.05 -0.23 0.24 -0.23h7.16c0.3 0 0.3 0 0.3-0.31v-0.42c0-0.14-0.06-0.2-0.21-0.2H32c-0.19 0-0.26-0.05-0.24-0.25a3.49 3.49 0 0 0 0-0.56c0-0.18 0.05 -0.22 0.22 -0.22h7.2c0.21 0 0.29-0.06 0.27 -0.27-0.02-0.21 0-0.35 0-0.52a0.19 0.19 0 0 0-0.13-0.13 3.94 3.94 0 0 0-0.46 0H32c-0.21 0-0.29 0-0.27-0.27 0.02 -0.27 0-0.51 0-0.8h7.42c0.27 0 0.27 0 0.27-0.27v-0.46c0-0.15-0.05-0.2-0.2-0.2h-7.47v-1s0.13-0.1 0.2 -0.1h7.25c0.18 0 0.26 0 0.23-0.23a2.2 2.2 0 0 1 0-0.44c0-0.2 0-0.27-0.25-0.26H32c-0.18 0-0.23-0.05-0.22-0.23a4.07 4.07 0 0 0 0-0.58c0-0.18 0.06 -0.22 0.23 -0.22h7.2c0.22 0 0.29-0.07 0.27 -0.28a1.87 1.87 0 0 1 0-0.4c0-0.2 0-0.26-0.25-0.26H32c-0.17 0-0.23-0.05-0.22-0.23 0.01 -0.18 0-0.54 0-0.84h7.44c0.2 0 0.28-0.05 0.26 -0.26a2.42 2.42 0 0 1 0-0.46c0-0.18-0.05-0.22-0.23-0.22h-7.5v-1s0.13-0.08 0.2 -0.08h7.22c0.19 0 0.28 0 0.26-0.25a2 2 0 0 1 0-0.42c0-0.2 0-0.27-0.26-0.26H32c-0.28 0-0.28 0-0.28-0.29v-0.48c0-0.16 0-0.26 0.25 -0.26h7.18c0.21 0 0.29-0.06 0.27 -0.27a2.63 2.63 0 0 1 0-0.46c0-0.16-0.05-0.2-0.2-0.2H32c-0.21 0-0.29-0.05-0.27-0.27 0.02 -0.22 0-0.51 0-0.8h7.42c0.27 0 0.27 0 0.27-0.27v-0.5c0-0.17 0-0.16-0.16-0.15h-7.52v-0.54-0.63c0-0.21-0.07-0.24-0.23-0.23-0.16 0.01 -0.42 0-0.63 0-0.21 0-0.24 0.05 -0.24 0.24 V29.23a0.76 0.76 0 0 1-0.56 0.7 c-0.491 0.21 -0.996 0.386 -1.51 0.53 -0.47 0.13 -1 0.22-1.44 0.31 -0.2 0-0.41 0.07 -0.62 0.09 l-2 0.19a43.68 43.68 0 0 1-5.4 0.14 c-1 0-1.92-0.09-2.87-0.17-0.64-0.05-1.28-0.13-1.92-0.24a11.71 11.71 0 0 1-2.85-0.75 2.78 2.78 0 0 1-0.38-0.21 0.74 0.74 0 0 1-0.37-0.68V9.29c0-0.25 0-0.27-0.27-0.27H9.8c-0.22 0-0.26 0.07 -0.26 0.27 v1.14H2.21c-0.28 0-0.28 0-0.28 0.29 v0.42c0 0.14 0.06 0.23 0.23 0.22h7.45v0.94s-0.07 0.09 -0.12 0.11 a0.61 0.61 0 0 1-0.19 0H2.22c-0.29 0-0.29 0-0.29 0.28 v0.44c0 0.15 0.08 0.21 0.23 0.21h7.18c0.21 0 0.29 0 0.27 0.26 -0.02 0.26 0 0.48 0 0.75H2.23c-0.3 0-0.3 0-0.3 0.3 s-0.06 0.47 0 0.56c0.06 0.09 0.38 0.06 0.58 0.06 h6.84c0.2 0 0.27 0 0.26 0.25 -0.01 0.25 0 0.53 0 0.82H2.2c-0.27 0-0.27 0-0.27 0.28 v0.42c0 0.14 0.06 0.24 0.24 0.23H9.6v1s-0.13 0.1 -0.2 0.1 H2.19c-0.19 0-0.28 0-0.26 0.25 a2.38 2.38 0 0 1 0 0.44c0 0.19 0.07 0.24 0.25 0.24h7.15c0.27 0 0.27 0 0.27 0.27 v0.52c0 0.17 0 0.24-0.23 0.24 H2.2c-0.26 0-0.27 0-0.27 0.27 v0.42c0 0.14 0 0.24 0.23 0.24h7.2c0.19 0 0.26 0 0.25 0.24 -0.01 0.24 0 0.53 0 0.83h-7.4c-0.28 0-0.29 0-0.28 0.28 0.01 0.28 0 0.48 0.06 0.6s0.38 0 0.58 0h7v1s-0.09 0.1 -0.14 0.11 a2.51 2.51 0 0 1-0.35 0H2.2c-0.2 0-0.3 0-0.27 0.26 a2.27 2.27 0 0 1 0 0.44c0 0.18 0.07 0.23 0.23 0.23h7.23c0.17 0 0.24 0 0.23 0.22 -0.01 0.22 0 0.51 0 0.79H2.23c-0.3 0-0.3 0-0.3 0.3 s-0.06 0.47 0 0.56c0.06 0.09 0.38 0.06 0.58 0.06 h6.84c0.2 0 0.26 0.05 0.26 0.26 V29.58L0 29.69zm20 0.62v-0.2-8c0-0.18 0-0.24-0.23-0.24H15.7c-0.19 0-0.25 0.06 -0.25 0.25 v7.74c0 0.19 0.07 0.26 0.25 0.28 0.18 0.02 0.58 0.06 0.87 0.08l2.12 0.1 h1.08l0.23-0.01zm1.28-4.24v4c0 0.19 0.06 0.26 0.26 0.25l4-0.2c0.18 0 0.24-0.07 0.24 -0.25v-7.8c0-0.17-0.05-0.22-0.23-0.22h-4c-0.18 0-0.23 0.07 -0.23 0.23 0.007 1.333 0.007 2.663 0 3.99h-0.04zm-2.21-8.83v3.71c0 0.18 0 0.24 0.23 0.24H22c0.2 0 0.26-0.07 0.26 -0.27v-7.35c0-0.19 0-0.25-0.24-0.25h-2.61c-0.2 0-0.26 0.06 -0.25 0.26 -0.04 1.23-0.05 2.42-0.05 3.66h-0.04zm3.69 0v3.69c0 0.18 0 0.24 0.23 0.24h2.59c0.28 0 0.28 0 0.28-0.29v-4.45-2.71c0-0.11 0-0.22-0.15-0.23L23 13.34c-0.2 0-0.25 0.06 -0.24 0.25 0.05 1.22 0.04 2.41 0.04 3.67l-0.04-0.02zm-4.33 0v-3.71c0-0.16 0-0.24-0.22-0.23l-2.68 0.17 c-0.16 0-0.2 0.1 -0.2 0.25 v7.2c0 0.19 0.07 0.23 0.24 0.23h2.61c0.2 0 0.26-0.06 0.26 -0.26 0.03 -1.17 0.03 -2.38 0.03 -3.6l-0.04-0.05zm-3.69 8.65v-3.78c0-0.18-0.05-0.24-0.23-0.24h-2.19c-0.2 0-0.26 0-0.26 0.25 v7c0 0.14 0 0.22 0.17 0.25l1.33 0.3 c0.29 0.06 0.59 0.08 0.88 0.14 0.29 0.06 0.29 0 0.29-0.24 0.04 -1.167 0.06 -2.377 0.06 -3.63l-0.05-0.05zm11.74 0v3.76c0 0.28 0 0.31 0.3 0.26 0.63 -0.11 1.27-0.21 1.9-0.33 0.14 0 0.37 0 0.36-0.29v-7.2c0-0.16 0-0.2-0.2-0.2h-2.03c-0.29 0-0.29 0-0.29 0.29 v3.75l-0.04-0.04zM14.79 17.4v-2.59-1c0-0.12 0-0.21-0.17-0.19-0.73 0.13 -1.46 0.25 -2.18 0.39 -0.14 0-0.33 0-0.33 0.28 v6.68c0 0.16 0 0.22 0.21 0.21h2.21c0.21 0 0.26-0.07 0.26 -0.27-0.01-1.16 0-2.33 0-3.51zm11.73 0v3.51c0 0.28 0 0.29 0.3 0.29h2c0.2 0 0.24-0.07 0.24 -0.25v-3.3-3.38c0-0.09-0.05-0.23-0.11-0.25-0.44-0.1-0.89-0.19-1.34-0.27-0.25 0-0.51-0.06-0.76-0.11s-0.35-0.07-0.35 0.27 c0.013 1.167 0.02 2.33 0.02 3.49zm-7.41-7.5v2.5c0 0.15 0 0.2 0.2 0.2H22c0.17 0 0.21-0.06 0.21 -0.22V7.44c0-0.2-0.08-0.27-0.27-0.27h-2.56c-0.22 0-0.27 0.09 -0.27 0.29 0.01 0.81 0 1.62 0 2.44zm6.78 2.95V7.48L25 7.39l-2-0.16c-0.15 0-0.19 0-0.19 0.19 v5c0 0.15 0.06 0.22 0.2 0.22l2.68 0.19 0.2 0.02 zm-7.43-5.61h-0.24l-2.71 0.25 c-0.14 0-0.14 0.1 -0.14 0.2 v5c0 0.18 0.07 0.22 0.22 0.2 0.15 -0.02 0.52 -0.07 0.79 -0.08 0.61 0 1.22-0.08 1.83-0.1 0.21 0 0.27-0.08 0.27 -0.28V7.51c-0.01-0.11-0.01-0.18-0.02-0.27zm-6.34 6.29h0.23l2.22-0.53c0.15 0 0.22-0.08 0.22 -0.24v-5c0-0.14 0-0.21-0.2-0.17-0.31 0.07 -0.63 0.11 -0.93 0.19 -0.46 0.12 -0.91 0.27 -1.37 0.39 -0.17 0-0.19 0.15 -0.19 0.29 v4.82c0.01 0.1 0.02 0.16 0.02 0.25 zm17-0.06v-1.71-3.34c0-0.08 0-0.22-0.09-0.24-0.39-0.13-0.79-0.25-1.19-0.35-0.4-0.1-0.66-0.12-1-0.2-0.34-0.08-0.29-0.05-0.29 0.2 v4.9c0 0.18 0.08 0.25 0.26 0.28 0.56 0.1 1.13 0.21 1.69 0.32 l0.62 0.14 zM17.77 3.1h0.07l0.54 1.59c0 0.11 0.05 0.23 0.22 0.23 0.17 0 0.18-0.1 0.21 -0.21 0.2 -0.57 0.41 -1.13 0.63 -1.74v0.18c0 0.53 0.06 1.05 0.08 1.58 0 0.15 0.06 0.22 0.21 0.22s0.15-0.12 0.14 -0.22l-0.1-2.08s-0.11-0.17-0.17-0.19c-0.06-0.02-0.26-0.06-0.32 0.13 -0.19 0.55 -0.39 1.09-0.58 1.63a1.19 1.19 0 0 1-0.11 0.17 v-0.12c-0.19-0.56-0.38-1.13-0.59-1.69a0.25 0.25 0 0 0-0.18-0.13c-0.24 0-0.3 0-0.31 0.29 a64.167 64.167 0 0 0-0.11 2.06c0 0.06 0.07 0.12 0.1 0.19s0.18-0.08 0.2 -0.15a1.16 1.16 0 0 0 0-0.35c0.03-0.49 0.05 -0.94 0.07 -1.39zm2.72 0.35 a1.67 1.67 0 0 1 0.4-0.1 0.59 0.59 0 0 1 0.34 0.12 0.35 0.35 0 0 1 0.07 0.26 s-0.12 0.06 -0.19 0.08 a4.6 4.6 0 0 0-0.48 0.11 0.54 0.54 0 0 0-0.35 0.57 0.48 0.48 0 0 0 0.35 0.48 c0.23 0.073 0.48 0.02 0.66-0.14a1 1 0 0 0 0.33 0.11 c0.16 0 0.09-0.16 0.09 -0.25a8.2 8.2 0 0 0 0-0.83c0-0.29-0.07-0.58-0.41-0.71a1 1 0 0 0-0.92 0.13 l0.11 0.17 zm2.07 0.17 V2.5c0-0.14 0-0.2-0.19-0.2s-0.16 0.08 -0.16 0.2 v2.25c0 0.11 0 0.21 0.16 0.21s0.19-0.06 0.19 -0.2c-0.01-0.39 0-0.76 0-1.14zm0.85 0V2.48c0-0.12 0-0.2-0.17-0.19-0.17 0.01 -0.18 0-0.18 0.18 v2.27c0 0.15 0.07 0.2 0.2 0.2s0.15-0.08 0.15 -0.19c-0.01-0.37-0.01-0.75-0.01-1.11l0.01-0.02z" fill="#FFF"/>
  <path d="M19.55 26.35v-0.9c0-0.14 0-0.25-0.21-0.25s-0.21 0.1 -0.21 0.25 v1.77c0 0.15 0.06 0.24 0.22 0.24s0.2-0.09 0.2 -0.24c-0.01-0.28 0-0.58 0-0.87zM21.94 26.34v0.87c0 0.13 0 0.26 0.2 0.25 0.2 -0.01 0.23 -0.12 0.23 -0.26v-1.73c0-0.13 0-0.27-0.21-0.28-0.21-0.01-0.21 0.13 -0.21 0.26 -0.01 0.31 -0.01 0.55 -0.01 0.89 z" fill="#FFF"/>
  <path d="M19.55 26.35v0.88c0 0.14-0.05 0.23 -0.2 0.24 -0.15 0.01 -0.22-0.09-0.22-0.24v-1.77c0-0.14 0-0.25 0.21 -0.25s0.21 0.11 0.21 0.25 v0.89zM21.94 26.34v-0.87c0-0.13 0-0.28 0.21 -0.26 0.21 0.02 0.21 0.14 0.21 0.28v1.73c0 0.14-0.05 0.26 -0.23 0.26 s-0.19-0.13-0.2-0.25v-0.87l0.01-0.02zM20.61 4.44c0-0.22 0.14 -0.3 0.31 -0.36H21c0.12 0 0.27-0.11 0.36 0.06a0.52 0.52 0 0 1-0.18 0.52 c-0.16 0.09 -0.32 0.15 -0.47 0a0.62 0.62 0 0 1-0.1-0.22z" fill="#FFF"/>
</svg>
