<?xml version="1.0" ?>
<svg xmlns="http://www.w3.org/2000/svg" width="36" height="36" viewBox="0 0 36 36">
  <path d="M17.75 25.94h13.57a2 2 0 0 1 1.91 1.18c0.114 0.216 0.176 0.456 0.18 0.7 v2.1c0 0.13 0 0.21 0.17 0.26a2.65 2.65 0 0 1 1.73 1.69c0.165 0.43 0.207 0.898 0.12 1.35a2.82 2.82 0 0 1-0.92 1.62 2.66 2.66 0 0 1-1.28 0.6 2.62 2.62 0 0 1-2.48-0.85 2.55 2.55 0 0 1-0.69-1.48 2.71 2.71 0 0 1 1.48-2.77c0.14-0.07 0.29 -0.11 0.43 -0.18a0.21 0.21 0 0 0 0.13-0.16v-2.08a0.68 0.68 0 0 0-0.69-0.63H18.69c-0.26 0-0.26 0-0.26 0.25 V30c0 0.1 0 0.17 0.13 0.22a2.68 2.68 0 0 1 1.65 1.44 2.73 2.73 0 0 1-1.36 3.63c-0.424 0.21 -0.9 0.29 -1.37 0.23 a2.71 2.71 0 0 1-2.27-1.74 2.6 2.6 0 0 1-0.11-1.56 2.7 2.7 0 0 1 1.85-2 0.14 0.14 0 0 0 0.12-0.16v-2.58c0-0.15-0.1-0.13-0.19-0.13H4.16a0.71 0.71 0 0 0-0.74 0.49 0.76 0.76 0 0 0 0 0.21v2a0.18 0.18 0 0 0 0.15 0.21 2.63 2.63 0 0 1 1.77 1.75 2.71 2.71 0 0 1-1.44 3.21 2.46 2.46 0 0 1-1.25 0.27 2.68 2.68 0 0 1-2.37-1.56A2.47 2.47 0 0 1 0 32.7a2.7 2.7 0 0 1 1.58-2.39 1 1 0 0 1 0.32-0.13c0.15 0 0.17-0.12 0.17 -0.25v-2.08a1.91 1.91 0 0 1 1.16-1.71 2.14 2.14 0 0 1 1-0.2h13.52zM23 6.07v1.4a4.83 4.83 0 0 1-0.63 1.93 5.27 5.27 0 0 1-2.53 2.29 5.73 5.73 0 0 1-1.42 0.38 4.64 4.64 0 0 1-1.62 0 5.24 5.24 0 0 1-3.7-2.66 5.07 5.07 0 0 1-0.57-1.61 14 14 0 0 1-0.08-2.51 6.59 6.59 0 0 1 0.11-1.08 4.92 4.92 0 0 1 0.56-1.48A5.32 5.32 0 0 1 16 0.29a7.39 7.39 0 0 1 1.08-0.23c0.208-0.04 0.419 -0.06 0.63 -0.06a5.27 5.27 0 0 1 3.84 1.61 5.35 5.35 0 0 1 1.27 2.17A6.55 6.55 0 0 1 23 6.07zM16.92 23.18H9.64a2.93 2.93 0 0 1-2.81-1.77 3.93 3.93 0 0 1-0.24-0.91c-0.08-0.38-0.14-0.77-0.19-1.16a0.39 0.39 0 0 1 0.07-0.26 17.14 17.14 0 0 1 4.14-3.25 12.24 12.24 0 0 1 2.39-1c0.39-0.12 0.78 -0.23 1.18-0.32a0.29 0.29 0 0 1 0.24 0.06 L16.63 17a0.23 0.23 0 0 1 0 0.29c-0.66 1.32-1.3 2.65-2 4-0.06 0.12 0 0.19 0.08 0.26l2 1.51 0.16 0.12h0.05zM18.55 23.13l0.51-0.39 1.65-1.24a0.19 0.19 0 0 0 0.06-0.28c-0.65-1.32-1.3-2.64-1.94-4a0.29 0.29 0 0 1 0-0.24l2.22-2.44a0.2 0.2 0 0 1 0.16-0.06 14.07 14.07 0 0 1 5.18 2.35A19.46 19.46 0 0 1 29 19.22a0.25 0.25 0 0 1 0.08 0.17 c-0.05 0.34 -0.11 0.67 -0.17 1-0.06 0.33 -0.09 0.5 -0.16 0.74 a3 3 0 0 1-1.5 1.75 3 3 0 0 1-1.38 0.31 h-7.3l-0.02-0.06z" fill="#FFF"/>
</svg>
