<?xml version="1.0" ?>
<svg xmlns="http://www.w3.org/2000/svg" width="21" height="31" viewBox="0 0 21 31">
  <path d="M6.89 26.41l1.29 0.08 c0.13 0 0.19-0.06 0.19 -0.19 0-0.43 0-0.87 0.1 -1.3 0.1 -0.43 0.14 -1.08 0.22 -1.62 0-0.26 0.12 -0.52 0.16 -0.79 0.08 -0.49 0.45 -0.68 0.85 -0.82a4.9 4.9 0 0 1 1.89-0.25c0.207 0.007 0.412 0.04 0.61 0.1 a0.51 0.51 0 0 1 0.24 0.26 c0.61 1.22 1.18 2.46 1.84 3.65 0.46 0.83 1.06 1.59 1.6 2.37s1.24 1.76 1.85 2.64c0.08 0.12 0.13 0.13 0.24 0l1.19-0.82-0.7-1.28c-0.7-1.34-1.43-2.66-2.09-4a7.37 7.37 0 0 1-0.43-1.44c-0.12-0.49-0.22-1-0.31-1.49s-0.13-0.84-0.19-1.27c-0.06-0.43-0.15-1-0.23-1.55 0-0.24-0.07-0.48-0.09-0.72-0.06-0.62-0.12-1.24-0.19-1.85-0.07-0.61-0.15-1.31-0.22-2s-0.09-1.15-0.13-1.73h0.06l0.14 0.15 L19 17.33c0.11 0.13 0.19 0.16 0.34 0.06 0.31-0.19 0.64 -0.36 1-0.55-0.17-0.29-0.33-0.57-0.51-0.84-1.21-1.88-2.41-3.77-3.65-5.62-0.68-1-1.42-2-2.15-3a3.07 3.07 0 0 0-1.51-1 4.6 4.6 0 0 0-2-0.24 2.09 2.09 0 0 0-1.93 1.29 3.81 3.81 0 0 0-0.19 0.69 9.79 9.79 0 0 0-0.17 2.43 0.74 0.74 0 0 0 0 0.25c0.08 0.19 0 0.3-0.15 0.41 l-3.67 2.94c-0.17 0.13 -0.32 0.27 -0.5 0.4 a0.22 0.22 0 0 0-0.07 0.31 l0.39 0.9 c0 0.08 0.06 0.13 0.18 0.08L7 14.76l1.62-0.68c0.13-0.05 0.16 0 0.18 0.12 0.06 0.45 0.12 0.9 0.19 1.35 0.1 0.61 0.2 1.22 0.31 1.83 0.06 0.35 0.12 0.69 0.16 1a0.32 0.32 0 0 1-0.15 0.24 c-0.44 0.27 -0.89 0.52 -1.33 0.8 -0.44 0.28 -0.75 0.49 -1.11 0.75 a0.52 0.52 0 0 0-0.22 0.46 c0 1.29 0.06 2.59 0.11 3.88 0.01 0.65 0.08 1.27 0.13 1.9z" fill="#FFF"/>
  <path d="M5.19 27.3H0.73c-0.29 0-0.28 0-0.32 0.3 -0.06 0.53 -0.15 1.06-0.22 1.59 0 0.27-0.07 0.55 -0.1 0.82 -0.03 0.27 -0.05 0.34 -0.08 0.51 -0.03 0.17 0 0.21 0.17 0.2h2a0.16 0.16 0 0 0 0.19-0.14 1.2 1.2 0 0 1 0.74-0.87 1.69 1.69 0 0 1 0.56-0.1h3.08c0.48-0.037 0.937 0.21 1.17 0.63 a0.79 0.79 0 0 1 0.12 0.28 c0 0.18 0.12 0.19 0.26 0.19h1.89c0.15 0 0.22-0.05 0.19 -0.21-0.08-0.51-0.15-1-0.22-1.53l-0.1-0.78c0-0.25-0.05-0.51-0.09-0.76a0.21 0.21 0 0 0-0.13-0.13 0.6 0.6 0 0 0-0.21 0H5.19zM10.14 0a2.52 2.52 0 0 0-2.52 2.55A2.56 2.56 0 0 0 10.16 5a2.52 2.52 0 0 0 2.51-2.51A2.48 2.48 0 0 0 10.14 0z" fill="#FFF"/>
</svg>
