<?xml version="1.0" ?>
<svg xmlns="http://www.w3.org/2000/svg" width="39" height="32" viewBox="0 0 39 32">
  <path d="M27.56 27.5H0V7.87h27.56V27.5zm-1.72-1.73v-0.18V9.73c0-0.12 0-0.15-0.15-0.15H1.88c-0.12 0-0.15 0-0.15 0.16 v16.02l24.11 0.01 zM20.65 7.29h-0.74a0.23 0.23 0 0 1-0.12-0.08l-1.7-1.69-1.7-1.7L15 2.43l-0.74-0.75a0.18 0.18 0 0 0-0.21 0 0.67 0.67 0 0 1-0.49 0 0.24 0.24 0 0 0-0.29 0.07 c-0.58 0.59 -1.17 1.17-1.76 1.76L9.24 5.76 7.76 7.23a0.17 0.17 0 0 1-0.09 0.06 h-0.75L7 7.16l2.88-2.84 2.56-2.56 0.5 -0.5A0.18 0.18 0 0 0 13 1a0.82 0.82 0 0 1 0.5-1 0.84 0.84 0 0 1 1.07 0.41 0.81 0.81 0 0 1 0 0.61 0.19 0.19 0 0 0 0.05 0.23 l2.51 2.51L20 6.59l0.6 0.6 0.05 0.1 z" fill="#FFF"/>
  <path d="M25.27 25.21H2.48c-0.21 0-0.19 0-0.19-0.19v-14.7c0-0.18 0-0.18 0.18 -0.18h22.61c0.19 0 0.19 0 0.19 0.19 v14.88zm-7-4.46h-3.16a4.73 4.73 0 0 1-1.29-0.17 4.6 4.6 0 0 1-1.09-0.48 6.89 6.89 0 0 1-1.9-1.75c-0.49-0.64-0.94-1.3-1.4-2a9.29 9.29 0 0 0-0.86-1.14 0.69 0.69 0 0 0-0.89-0.21 5 5 0 0 0-1.19 0.73 c-0.54 0.43 -1.08 0.87 -1.6 1.34-0.68 0.63 -1.34 1.28-2 1.92a0.28 0.28 0 0 0-0.09 0.22 V24.69h21.91v-0.15-3.3c0-0.11 0-0.16-0.14-0.18-0.48-0.1-1-0.21-1.44-0.3a2.29 2.29 0 0 1-1-0.43 5.75 5.75 0 0 1-1.17-1.21c-0.41-0.54-0.8-1.1-1.21-1.63a2.72 2.72 0 0 0-1-0.91 0.51 0.51 0 0 0-0.45-0.06 2.14 2.14 0 0 0-0.44 0.28 8.45 8.45 0 0 0-1.2 1.37c-0.36 0.48 -0.69 1-1 1.47-0.15 0.21 -0.29 0.43 -0.45 0.69 0.98 0.17 2.01 0.28 3.04 0.43 l0.02-0.01zM20.89 12a1.29 1.29 0 1 0 0 2.58 1.29 1.29 0 0 0 0-2.58zM26.37 30.23h0.32a2.08 2.08 0 0 0 1.06-0.23 2 2 0 0 0 0.8-0.93c0.18-0.4 0.34 -0.81 0.53 -1.21a3.5 3.5 0 0 1 1.11-1.33 3 3 0 0 1 1.08-0.5c0.12 0 0.24 0 0.37-0.05a0.16 0.16 0 0 0 0-0.06 1.21 1.21 0 0 1-0.23-1.26l0.83-2.43 1.19-3.47 0.81 -2.36 1.15-3.4 0.92 -2.7c0.2-0.59 0.4 -1.19 0.62 -1.77a1.71 1.71 0 0 1 0.51-0.74 0.54 0.54 0 0 1 0.4-0.16 0.38 0.38 0 0 1 0.32 0.25 c0.138 0.358 0.152 0.753 0.04 1.12-0.33 1.24-0.67 2.48-1 3.73L36.06 17l-1.21 4.5-0.85 3.12c-0.09 0.32 -0.17 0.65 -0.28 1a1.07 1.07 0 0 1-0.6 0.63 l-0.2 0.09 c-0.06 0 0 0.06 0 0.1 0 0.04 0.09 0.3 0.13 0.46a4.16 4.16 0 0 1 0 2.19 2.55 2.55 0 0 1-0.83 1.26 2.6 2.6 0 0 1-0.76 0.46 9.65 9.65 0 0 1-0.93 0.32 c-0.303 0.07 -0.61 0.12 -0.92 0.15 a4.42 4.42 0 0 1-1.7-0.13 3.36 3.36 0 0 1-1.4-0.75l-0.1-0.1-0.04-0.07z" fill="#FFF"/>
</svg>
