<?xml version="1.0" ?>
<svg xmlns="http://www.w3.org/2000/svg" width="42" height="31" viewBox="0 0 42 31">
  <path d="M11.28 20.43l-0.86 0.84 c-0.14 0.14 -0.14 0.15 0 0.3 0.337 0.45 0.603 0.95 0.79 1.48a5.37 5.37 0 0 1 0.31 1.95 5.67 5.67 0 0 1-1.19 3.49 5.73 5.73 0 0 1-2.83 2 5 5 0 0 1-0.93 0.19 c-0.34 0-0.68 0-1 0.06a4.76 4.76 0 0 1-1.4-0.22 5.44 5.44 0 0 1-1.58-0.74 5.69 5.69 0 0 1-1.65-1.66 5.77 5.77 0 0 1-0.75-1.68A5.38 5.38 0 0 1 0 24.61a5.67 5.67 0 0 1 1.12-3c0.09-0.12 0.1 -0.2 0-0.31-0.1-0.11-0.42-0.41-0.63-0.62l-0.16-0.18 0.43 -0.38c0.14-0.13 0.28 -0.27 0.41 -0.41 0.13 -0.14 0.14 -0.09 0.23 0s0.46 0.45 0.68 0.69 a0.16 0.16 0 0 0 0.24 0 5 5 0 0 1 1.35-0.75A4.39 4.39 0 0 1 5 19.3c0.29 0 0.41-0.2 0.3 -0.47 0 0-0.09-0.06-0.13-0.06h-0.88a0.61 0.61 0 0 1-0.61-0.61v-0.54a0.61 0.61 0 0 1 0.6-0.59H7.2c0.3 0 0.545 0.24 0.55 0.54 v0.67a0.53 0.53 0 0 1-0.53 0.53 h-0.71c-0.11 0-0.16 0-0.16 0.14 0 0.33 0 0.33 0.39 0.4a5.44 5.44 0 0 1 1.71 0.6 c0.263 0.145 0.517 0.305 0.76 0.48 a0.13 0.13 0 0 0 0.2 0c0.26-0.26 0.53 -0.51 0.78 -0.78 0.09 -0.08 0.15 -0.08 0.23 0l0.86 0.82 zM2 25a3.74 3.74 0 1 0 3.74-3.75A3.72 3.72 0 0 0 2 25zM41.93 13.5H11.54l0.22-0.22L17 8.59a0.53 0.53 0 0 0 0.12-0.3V4h1.9v2.75a1.37 1.37 0 0 0 0.24-0.17l5.49-4.89C25.4 1.15 26 0.62 26.6 0.08 a0.2 0.2 0 0 1 0.32 0l6.51 5.81 5.08 4.51 3.25 2.88 0.21 0.17-0.04 0.05 zM30.59 24.46h-7.66v-0.22-7.32c0-0.21 0.07 -0.25 0.25 -0.25h7.12c0.29 0 0.29 0 0.29 0.29 v7.5zM26.76 27.75H14.87c-0.27 0-0.27 0-0.27-0.27v-1.44c0-0.2 0.06 -0.25 0.25 -0.25h23.8c0.26 0 0.26 0 0.27 0.27 v1.46c0 0.19-0.05 0.24 -0.23 0.24 H26.76v-0.01zM26.76 30.23H14.88c-0.28 0-0.28 0-0.28-0.26v-0.68c0-0.22 0.06 -0.24 0.24 -0.24h23.75c0.32 0 0.32 0 0.33 0.32 0.01 0.32 0 0.43 0 0.64 0 0.21-0.05 0.22 -0.22 0.22 H26.76zM26.76 15.35H14.85c-0.2 0-0.27-0.06-0.25-0.26a4.51 4.51 0 0 0 0-0.52c0-0.39-0.06-0.36 0.37 -0.36h23.64c0.31 0 0.3 0 0.31 0.32 0.01 0.32 0 0.4 0 0.6 0 0.2-0.05 0.22 -0.21 0.22 H26.76zM21.61 24.47h-6.76c-0.2 0-0.25-0.05-0.25-0.26v-2.76c0-0.16 0-0.23 0.21 -0.23h6.62c0.13 0 0.2 0 0.2 0.18 v2.94a0.74 0.74 0 0 1-0.02 0.13 zM31.9 24.46v-0.19-2.82c0-0.17 0.05 -0.22 0.22 -0.22h6.58c0.16 0 0.23 0.05 0.23 0.23 v2.82c0 0.13 0 0.2-0.17 0.2 H31.9v-0.02zM21.63 19.91h-6.76c-0.27 0-0.27 0-0.27-0.27v-2.7c0-0.25 0-0.26 0.27 -0.26h6.46c0.3 0 0.3 0 0.3 0.3 v2.94-0.01zM31.89 19.9v-3.07c0-0.11 0.05 -0.15 0.15 -0.15h6.7c0.13 0 0.18 0.05 0.18 0.18 v2.88c0 0.17-0.09 0.17 -0.21 0.17 h-6.82v-0.01z" fill="#FFF"/>
  <path d="M3 22.46l1.22 1.23c0.16 0.16 0.31 0.32 0.48 0.47 a0.39 0.39 0 0 0 0.23 0.09 0.71 0.71 0 0 1 0.68 0.63 0.67 0.67 0 0 1-0.61 0.72 0.6 0.6 0 0 1-0.66-0.6 0.55 0.55 0 0 0-0.18-0.39c-0.5-0.49-1-1-1.49-1.48-0.11-0.12-0.1-0.19 0-0.29 0.1 -0.1 0.24 -0.23 0.33 -0.38z" fill="#FFF"/>
</svg>
