<?xml version="1.0" ?>
<svg xmlns="http://www.w3.org/2000/svg" width="31" height="31" viewBox="0 0 31 31">
  <path d="M18.17 12.38a0.57 0.57 0 0 1 0.07 0.12 c0.05 0.32 0.08 0.65 0.13 1s0.15 0.9 0.23 1.36a0.2 0.2 0 0 1-0.13 0.26 l-2.66 1.17c-0.49 0.21 -1 0.42-1.46 0.66 a1 1 0 0 0-0.56 0.73 c-0.14 0.51 -0.28 1-0.41 1.53-0.13 0.53 -0.21 0.85 -0.32 1.27L12.67 22c-0.11 0.41 -0.23 0.82 -0.31 1.24-0.057 0.479 0.202 0.94 0.64 1.14a1.26 1.26 0 0 0 1.72-0.82c0.19-0.6 0.42 -1.19 0.63 -1.78 0.21 -0.59 0.42 -1.2 0.63 -1.8 0.1 -0.28 0.19 -0.57 0.31 -0.85 0-0.08 0.16 -0.13 0.25 -0.16 0.45 -0.15 0.91 -0.28 1.36-0.42l1.47-0.44c0.34-0.1 0.67 -0.23 1-0.3a1.79 1.79 0 0 1 0.55 0.08 v0.08c0 0.25 0.09 0.5 0.13 0.75 0.04 0.25 0.11 0.53 0.16 0.8s0.08 0.54 0.14 0.8 c0.034 0.382 0.135 0.754 0.3 1.1 0.061 0.093 0.132 0.18 0.21 0.26l3.73 3.55c0.26 0.24 0.51 0.49 0.78 0.71 a1.2 1.2 0 0 0 1.84-0.48 1.08 1.08 0 0 0-0.2-1.26l-2-2.12-1.48-1.56a0.45 0.45 0 0 1-0.12-0.31c0-0.59-0.05-1.18-0.07-1.77l-0.12-2.22c0-0.36 0-0.72-0.07-1.07-0.07-0.35-0.09-0.63-0.15-0.94-0.06-0.31 0-0.31-0.07-0.46-0.06-0.47-0.13-0.94-0.19-1.41s-0.16-1.07-0.25-1.6c-0.05-0.34-0.11-0.69-0.17-1.06h0.25l1.43 0.25 a0.19 0.19 0 0 1 0.11 0.09 0.25 0.25 0 0 1 0 0.14c0.05 0.49 0.09 1 0.14 1.47 0.05 0.47 0.11 0.9 0.16 1.35 0 0.27 0.05 0.53 0.07 0.8a1.21 1.21 0 0 0 2.35 0.4 1.4 1.4 0 0 0 0.06-0.5c0-0.92-0.08-1.84-0.13-2.76L27.69 9a1.23 1.23 0 0 0-0.94-1.26c-0.53-0.19-1.09-0.33-1.63-0.5l-1.67-0.52L22 6.31c-0.22-0.06-0.45-0.14-0.67-0.19a3 3 0 0 0-1.07-0.07 4.08 4.08 0 0 0-1.1 0.31 3 3 0 0 0-1.36 1.35l-1.71 3.16a0.26 0.26 0 0 1-0.26 0.15 h-3.81a1.8 1.8 0 0 0-0.83 0.15 1.16 1.16 0 0 0-0.58 1.33c0.098 0.401 0.397 0.723 0.79 0.85 0.114 0.05 0.236 0.08 0.36 0.09 l1.08 0.07 2.1 0.16 1.09 0.08 c0.213 0.015 0.427 0.015 0.64 0a1.18 1.18 0 0 0 1-0.58c0.15-0.17 0.33 -0.48 0.5 -0.79z" fill="#FFF"/>
  <path d="M3.28 12.43a4.87 4.87 0 0 0-2.9 2.7 3.6 3.6 0 0 0-0.32 1.25c0 0.39-0.06 0.78 -0.06 1.17v12.22a1 1 0 0 0 0.79 1 1 1 0 0 0 0.25 0h28.71c0.243 0.001 0.48-0.072 0.68 -0.21a0.91 0.91 0 0 0-0.12-1.56 1.86 1.86 0 0 0-0.46-0.13l-1.2-0.17-0.52-0.06-1.67-0.2-1.4-0.18-1.39-0.18-1.41-0.18-1.4-0.18-1.4-0.18-1.39-0.18-1.86-0.24-1.89-0.25-1.32-0.14-1.9-0.25-1.42-0.18-1.58-0.22L7 26l-1.17-0.17-0.51-0.06-1.19-0.14-1.63-0.27-0.57-0.07a1.09 1.09 0 0 1 0-0.17v-8.2a2.86 2.86 0 0 1 1.8-2.6l0.46-0.16c0.08 0 0.13 0 0.17 0.08 0.29 0.51 0.59 1 0.89 1.53 0.2 0.33 0.38 0.68 0.59 1a0.91 0.91 0 0 0 1 0.37 0.85 0.85 0 0 0 0.67-0.53 1 1 0 0 0-0.08-1L3.85 9.57A0.94 0.94 0 0 0 3 9.1a0.92 0.92 0 0 0-0.83 0.7 1 1 0 0 0 0.12 0.78 c0.33 0.56 0.65 1.13 1 1.7a0.67 0.67 0 0 1-0.01 0.15 zM18.61 5.3A2.65 2.65 0 1 0 16 2.66a2.64 2.64 0 0 0 2.61 2.64z" fill="#FFF"/>
</svg>
