<?xml version="1.0" ?>
<svg xmlns="http://www.w3.org/2000/svg" width="36" height="36" viewBox="0 0 36 36">
  <path d="M17.52 35H0.44c-0.31 0-0.44-0.1-0.44-0.42v-1.09a0.32 0.32 0 0 1 0.37-0.36H1.7a0.39 0.39 0 0 0 0.41-0.4V18.2 0.39 c0-0.32 0.24 -0.43 0.5 -0.38 0.26 0.05 0.5 0.09 0.75 0.12l1.34 0.2 0.57 0.08 L7 0.64l2 0.28 2 0.28 2 0.28 2 0.28 2 0.29c0.125 0.01 0.248 0.03 0.37 0.06 a0.3 0.3 0 0 1 0.22 0.32 V8.41a0.39 0.39 0 0 0 0.45 0.45 h14.51c0.26 0 0.37 0.12 0.37 0.38 v23.47a0.43 0.43 0 0 0 0.46 0.46 h1.23c0.32 0 0.42 0.09 0.42 0.42 v1a0.4 0.4 0 0 1-0.44 0.45 H17.52V35zm-3-8.73v-5.53c0-0.33 0-0.65-0.07-1a3.75 3.75 0 0 0-0.38-1.26 4.9 4.9 0 0 0-3.79-2.8 4.53 4.53 0 0 0-2 0.14 5 5 0 0 0-1.85 1 5.22 5.22 0 0 0-1.8 4.08v11.49c0 0.36 0.07 0.43 0.43 0.43h9c0.36 0 0.46-0.11 0.45 -0.44l0.01-6.11zM24.11 17h-4.34a0.37 0.37 0 0 0-0.42 0.42 v6.45a0.44 0.44 0 0 0 0.5 0.51 h8.6c0.3 0 0.41-0.11 0.41 -0.42v-6.59c0-0.32-0.1-0.41-0.42-0.41l-4.33 0.04 zm0-1.61H30c0.16 0 0.23-0.09 0.22 -0.25v-0.84c0-0.29-0.1-0.39-0.4-0.39H18.36a0.36 0.36 0 0 0-0.41 0.39 v0.63c0 0.38 0.09 0.47 0.47 0.47l5.69-0.01zm0 12H30c0.25 0 0.31-0.07 0.31 -0.31v-0.81c0-0.27-0.1-0.36-0.36-0.36h-11.6c-0.27 0-0.39 0.14 -0.4 0.4 v0.65c0 0.32 0.12 0.44 0.44 0.44l5.72-0.01z" fill="#FFF"/>
</svg>
