<?xml version="1.0" ?>
<svg xmlns="http://www.w3.org/2000/svg" width="36" height="36" viewBox="0 0 36 36">
  <path d="M17.89 0h17.49c0.37 0 0.37 0 0.37 0.37 v3c0 0.26 0 0.28-0.28 0.28 h-1.74c-0.31 0-0.32 0-0.32 0.32 v13.7c0 0.26 0 0.28 0.27 0.28h1.39c0.28 0 0.29 0 0.29 0.29 v13.88c0 0.86-0.44 1.1-1.11 1.1H1.72c-0.17 0.02 -0.34 0.02 -0.51 0a0.9 0.9 0 0 1-0.78-0.95V18.28c0-0.36 0-0.36 0.36 -0.36h1.28c0.29 0 0.31 0 0.31-0.32v-9-4.64c0-0.32 0-0.33-0.32-0.33H0.26C0 3.62 0 3.6 0 3.35V0.27C0 0 0 0 0.27 0h17.62zm0 3.62H4.13c-0.37 0-0.37 0-0.37 0.36 v13.63c0 0.29 0 0.31 0.3 0.31h1.43c0.29 0 0.31 0 0.31-0.32V8.06c0-0.52 0.23 -0.74 0.74 -0.74h13.08a0.7 0.7 0 0 1 0.77 0.75 2.09 2.09 0 0 1 0 0.25v9.21c0 0.39 0 0.39 0.38 0.39h10.84c0.38 0 0.38 0 0.38-0.38V4c0-0.39 0-0.39-0.4-0.39l-13.7 0.01 zm-4.78 5.05H7.46c-0.25 0-0.28 0-0.28 0.23 v3.73c0 0.18 0.08 0.24 0.25 0.24h1c0.36 0 0.36 0 0.36-0.37v-1.83a0.67 0.67 0 0 1 0.88-0.67 0.65 0.65 0 0 1 0.42 0.62 v2c0 0.22 0 0.25 0.24 0.26H11c0.21 0 0.25 0 0.25-0.25v-0.45-1.56a0.65 0.65 0 0 1 0.63-0.64 0.7 0.7 0 0 1 0.69 0.53 c0.015 0.13 0.015 0.26 0 0.39v1.74c0 0.17 0.07 0.25 0.24 0.24h0.41c0.43 0 0.43 0 0.43-0.42v-1.85a0.65 0.65 0 0 1 0.84-0.6 0.7 0.7 0 0 1 0.51 0.69 v1.94c0 0.17 0.07 0.24 0.24 0.24h0.46c0.37 0 0.37 0 0.37-0.38v-1.76A0.68 0.68 0 0 1 17 10a0.65 0.65 0 0 1 0.46 0.68 v1.91c0 0.22 0 0.25 0.26 0.26h1c0.31 0 0.32 0 0.32-0.33V8.85a0.16 0.16 0 0 0-0.18-0.18h-5.75zm0 5.55H7.45c-0.23 0-0.27 0-0.27 0.26 v3.22c0 0.15 0.06 0.22 0.22 0.22h0.83c0.57 0 0.51 0 0.51-0.51v-1.77a0.67 0.67 0 1 1 1.34 0v2.01c0 0.23 0 0.26 0.25 0.27 0.25 0.01 0.42 0 0.64 0a0.19 0.19 0 0 0 0.21-0.22v-0.57-1.51a0.64 0.64 0 0 1 0.63-0.67 0.68 0.68 0 0 1 0.69 0.55 c0.015 0.12 0.015 0.24 0 0.36v1.82c0 0.17 0.06 0.25 0.24 0.24 0.18 -0.01 0.36 0 0.53 0 0.17 0 0.3 0 0.31-0.3v-0.15-1.88a0.66 0.66 0 0 1 0.84-0.61 0.71 0.71 0 0 1 0.51 0.7 v2c0 0.16 0 0.26 0.23 0.25 0.23 -0.01 0.42 0 0.63 0 0.21 0 0.21-0.06 0.21 -0.2v-0.71-1.32a0.69 0.69 0 1 1 1.37 0v2c0 0.15 0 0.25 0.21 0.25h1.17c0.14 0 0.2-0.06 0.2 -0.2v-3.31a0.19 0.19 0 0 0-0.22-0.22h-5.62zM6.59 35.75h-1c-0.15 0-0.21-0.06-0.21-0.21v-1.13c0-0.15 0.06 -0.22 0.21 -0.22h2.08a0.19 0.19 0 0 1 0.22 0.22 v1.13c0 0.15-0.07 0.22 -0.22 0.21 H6.59zM29.11 35.75h-1.05c-0.16 0-0.22-0.07-0.22-0.23v-1.1c0-0.16 0.06 -0.23 0.22 -0.23h2.11c0.15 0 0.21 0.07 0.21 0.22 v1.13c0 0.16-0.06 0.22 -0.21 0.21 h-1.06z" fill="#FFF"/>
  <path d="M25.73 16.85h2.95c0.22 0 0.25 0 0.25-0.24v-0.89a3.88 3.88 0 0 0-0.18-1 3.2 3.2 0 0 0-4-1.95 3.11 3.11 0 0 0-2.23 3v0.76c0 0.25 0 0.28 0.29 0.29l2.92 0.03 zm1.57-7.28A1.55 1.55 0 0 0 25.72 8a1.58 1.58 0 0 0-1.58 1.56 1.58 1.58 0 0 0 3.16 0v0.01z" fill="#FFF"/>
  <path d="M25.73 16.85h-2.91c-0.26 0-0.29 0-0.29-0.29v-0.76a3.11 3.11 0 0 1 2.23-3 3.2 3.2 0 0 1 4 1.95c0.104 0.324 0.164 0.66 0.18 1v0.89c0 0.3 0 0.24-0.25 0.24 l-2.96-0.03zM27.3 9.57a1.58 1.58 0 0 1-3.16 0A1.58 1.58 0 0 1 25.72 8a1.55 1.55 0 0 1 1.58 1.57z" fill="#FFF"/>
</svg>
