<?xml version="1.0" ?>
<svg xmlns="http://www.w3.org/2000/svg" width="18" height="36" viewBox="0 0 18 36">
  <path d="M7.5 12.4H12.18a4.14 4.14 0 0 1 1.74 0.29 1.69 1.69 0 0 1 1 1.43 3 3 0 0 1 0 0.89 2.22 2.22 0 0 1-0.31 0.64 l-3.51 6.2-1.87 3.33a0.94 0.94 0 0 1 0 0.1h5.19v0.07L3.18 36c-0.1-0.47-0.18-0.88-0.26-1.3-0.08-0.42-0.19-0.88-0.28-1.32l-0.18-0.91c-0.09-0.45-0.19-0.91-0.28-1.36L2 30.16c-0.09-0.45-0.18-0.91-0.28-1.36l-0.18-0.91c-0.09-0.46-0.19-0.91-0.28-1.36-0.09-0.45-0.14-0.77-0.22-1.18h3.67a0.26 0.26 0 0 0 0.29-0.2c0.39-1 0.8-2 1.19-3l1.11-2.81 0.27 -0.68a0.81 0.81 0 0 0 0-0.21H3.32a4.38 4.38 0 0 1-2.24-0.55 2 2 0 0 1-1-1.33 3.6 3.6 0 0 1 0.35-2.39c0.44-1 0.89-1.94 1.34-2.91 0.53 -1.14 1-2.28 1.58-3.43 0.58 -1.15 1-2.14 1.48-3.22S5.94 2.23 6.5 1c0.13-0.28 0.27 -0.55 0.38 -0.84A0.26 0.26 0 0 1 7.17 0h10v0.05L7.5 12.4z" fill="#FFF"/>
</svg>
