<?xml version="1.0" ?>
<svg xmlns="http://www.w3.org/2000/svg" width="37" height="36" viewBox="0 0 37 36">
  <path d="M0 11.34c0-0.63 0.05 -1.14 0.12 -1.64 0.07 -0.5 0.21 -1.09 0.33 -1.62A10 10 0 0 1 1.7 5.17a10.57 10.57 0 0 1 2.15-2.52A10.33 10.33 0 0 1 6.64 0.92 c0.48-0.193 0.97 -0.357 1.47-0.49A12.74 12.74 0 0 1 9.74 0.09 c0.62-0.07 1.245-0.1 1.87-0.09 0.59 0.01 1.177 0.06 1.76 0.15 0.957 0.161 1.895 0.42 2.8 0.77 a14.83 14.83 0 0 1 4.2 2.48 15.15 15.15 0 0 1 3.28 3.77 13.08 13.08 0 0 1 1.28 2.7c0.21 0.64 0.4 1.29 0.56 1.94 0.083 0.369 0.14 0.743 0.17 1.12 0.06 0.59 0.09 1.18 0.15 1.77 0.06 0.59 0.18 1.25 0.27 1.87 0.06 0.4 0.1 0.79 0.16 1.18l0.27 1.45c0.08 0.44 0.15 0.87 0.24 1.3 0.09 0.43 0.22 0.95 0.34 1.42 0.12 0.47 0.25 0.86 0.37 1.29a3.66 3.66 0 0 0 1.21 1.91c0.11 0.09 0.2 0.2 0.31 0.3 0.11 0.1 0.1 0.17 0 0.28-0.69 0.67 -1.37 1.35-2.05 2l-1.18 1.19c-0.13 0.13 -0.2 0.13 -0.32 0s-0.44-0.44-0.65-0.67a3 3 0 0 0-1.26-0.74c-0.55-0.18-1.1-0.35-1.66-0.5-0.56-0.15-1-0.21-1.45-0.31l-1.28-0.27-1.05-0.16-1.08-0.16-0.58-0.08-1.42-0.16c-0.56-0.06-1.13-0.08-1.69-0.15-0.56-0.07-1.3-0.2-1.94-0.34a13.56 13.56 0 0 1-4.13-1.7 14.92 14.92 0 0 1-3.08-2.47 15.18 15.18 0 0 1-2.89-4.24 10.5 10.5 0 0 1-0.76-2.12C0.4 14.23 0.26 13.63 0.17 13c-0.09-0.63-0.12-1.17-0.17-1.66zm8.81-4.73l-0.11-0.13c-0.78-0.78-1.56-1.55-2.33-2.34a0.2 0.2 0 0 0-0.31 0 7.76 7.76 0 0 0-2 2c-0.07 0.12 0 0.17 0 0.23 0.79 0.78 1.57 1.57 2.35 2.35 0.1 0.1 0.18 0.1 0.27 0l2-2a0.63 0.63 0 0 0 0.13-0.11zM20.5 24.49v0.05l0.92 0.22 1.09 0.25 1.12 0.26 1.07 0.25 1 0.23s0.09-0.06 0.09 -0.08l-0.21-1-0.28-1.07-0.24-1.07-0.27-1.12c-0.07-0.31-0.15-0.62-0.22-0.93h-0.05a9.31 9.31 0 0 1-4.02 4.01zm-7.23-13.41l-0.15 0.11 c-0.65 0.66 -1.3 1.31-2 2a0.16 0.16 0 0 0 0 0.26c0.67 0.65 1.33 1.31 2 2 0.1 0.1 0.17 0.11 0.27 0l2-2c0.09-0.09 0.09 -0.16 0-0.26-0.67-0.65-1.33-1.32-2-2l-0.12-0.11zm-1.13 5.54a0.44 0.44 0 0 0-0.08-0.1l-2-2c-0.1-0.09-0.16-0.09-0.26 0l-2 2c-0.09 0.09 -0.08 0.15 0 0.24 0.67 0.66 1.34 1.32 2 2 0.1 0.1 0.16 0.09 0.25 0l2-2 0.09-0.14zM9.93 7.74l-0.13 0.11 -2 2c-0.09 0.09 -0.1 0.15 0 0.24l2 2c0.09 0.09 0.16 0.1 0.25 0l2-2c0.09-0.09 0.11 -0.17 0-0.26l-2-2a0.63 0.63 0 0 0-0.12-0.09zm6.68 4.41l0.14-0.12 1.94-1.93c0.12-0.11 0.12 -0.19 0-0.3l-2-2c-0.09-0.09-0.16-0.1-0.26 0l-2 2c-0.08 0.09 -0.1 0.15 0 0.24l2 2 0.18 0.11 zm5.54 1.14s-0.06-0.1-0.09-0.13l-2-2c-0.09-0.09-0.16-0.08-0.25 0l-2 2c-0.09 0.09 -0.09 0.15 0 0.24l2 2a0.15 0.15 0 0 0 0.25 0l2-2 0.09-0.11zm-15.56 2.2l0.12-0.09 2-2c0.1-0.09 0.09 -0.17 0-0.26l-2-2c-0.1-0.1-0.17-0.09-0.27 0-0.65 0.66 -1.31 1.31-2 2-0.09 0.1 -0.09 0.17 0 0.26l2 2c0.048 0.034 0.098 0.064 0.15 0.09 zm8.88-8.88a1.71 1.71 0 0 0-0.11-0.14l-1.95-2c-0.11-0.11-0.17-0.1-0.27 0l-2 2c-0.1 0.09 -0.09 0.16 0 0.25 0.66 0.65 1.31 1.3 2 2 0.1 0.1 0.18 0.12 0.29 0l2-2 0.04-0.11zm3.34 10l-0.12-0.14-1.93-1.94c-0.11-0.12-0.19-0.12-0.31 0l-1.94 1.95c-0.1 0.09 -0.11 0.16 0 0.26 0.66 0.66 1.32 1.31 2 2 0.09 0.09 0.16 0.1 0.25 0 0.66-0.66 1.32-1.31 2-2a0.85 0.85 0 0 0 0.05-0.12v-0.01zM15.47 20l-0.1-0.13-2-2c-0.1-0.11-0.17-0.11-0.28 0-0.65 0.66 -1.31 1.32-2 2-0.1 0.1 -0.09 0.16 0 0.25l2 2c0.09 0.1 0.16 0.11 0.25 0l2-2a0.75 0.75 0 0 0 0.13-0.12zm6.28-0.4a0.48 0.48 0 0 0-0.09-0.11l-1.58-1.59c-0.1-0.1-0.16-0.11-0.26 0-0.66 0.67 -1.33 1.33-2 2-0.07 0.08 -0.09 0.14 0 0.23 0.53 0.52 1.06 1.05 1.58 1.58 0.09 0.08 0.15 0.1 0.25 0a7.29 7.29 0 0 0 2-2 1 1 0 0 0 0.1-0.15v0.04zM7.67 3.2a0.73 0.73 0 0 0 0.11 0.14 l2 2c0.11 0.11 0.17 0.07 0.26 0l2-2a0.15 0.15 0 0 0 0-0.25c-0.2-0.2-0.39-0.4-0.6-0.59a0.23 0.23 0 0 0-0.18-0.09 10.52 10.52 0 0 0-1.26 0.15 c-0.5 0.08 -1 0.21-1.49 0.34 -0.27 0.1 -0.51 0.19 -0.84 0.3 zM2.45 11h0.07a0.6 0.6 0 0 0 0.25 0.7 c0.13 0.11 0.25 0.23 0.36 0.36 0.09 0.09 0.16 0.1 0.25 0l2-2c0.08-0.08 0.09 -0.14 0-0.23l-2-2c-0.1-0.1-0.17-0.08-0.2 0.05 -0.13 0.41 -0.28 0.82 -0.37 1.24-0.17 0.6 -0.25 1.24-0.36 1.88zm18.6-3.3a0.83 0.83 0 0 0-0.05-0.16 12.44 12.44 0 0 0-1.87-2c-0.11-0.09-0.18-0.09-0.27 0l-1 1c-0.1 0.1 -0.09 0.17 0 0.26 0.66 0.65 1.31 1.31 2 2 0.1 0.1 0.17 0.1 0.27 0l0.87-0.98a0.38 0.38 0 0 0 0.05-0.12zM8.8 20s0-0.07-0.07-0.09l-2-2c-0.08-0.07-0.15-0.09-0.23 0l-1 1a0.15 0.15 0 0 0 0 0.24A12.52 12.52 0 0 0 7.59 21a0.18 0.18 0 0 0 0.27 0l0.85-0.85 0.09 -0.15zm14.45-5.49c-0.69 0.7 -1.39 1.39-2.08 2.08a0.18 0.18 0 0 0 0 0.16L22.45 18c0.07 0.07 0.13 0.06 0.16 0 0.15-0.47 0.31 -0.93 0.44 -1.41a6.14 6.14 0 0 0 0.16-1c0-0.36 0.05 -0.72 0.07 -1.08 0 0-0.02-0.02-0.03-0.05v0.05zm-8.78 8.72v0.06a8.6 8.6 0 0 0 3.55-0.68 1.42 1.42 0 0 0-0.02-0.21l-1.22-1.21c-0.1-0.1-0.16-0.09-0.25 0l-0.66 0.66 -1.4 1.38zM14.69 3a1.79 1.79 0 0 0-0.25 0.23 s0 0.11 0.05 0.15l2 2c0.1 0.09 0.17 0.09 0.26 0l0.75-0.75c0.18-0.18 0.18 -0.22 0-0.33-0.66-0.35-1.32-0.69-2-1a6 6 0 0 0-0.81-0.3zM3.27 14.43l-0.1 0.06 c-0.16 0.1 -0.12 0.25 -0.07 0.39 0.05 0.14 0.12 0.35 0.19 0.52 0.29 0.734 0.651 1.438 1.08 2.1 0.07 0.11 0.13 0.11 0.21 0l0.81-0.81a0.13 0.13 0 0 0 0-0.21l-2-2-0.12-0.05zm19.66-2.64a5.89 5.89 0 0 0-0.21-0.68c-0.24-0.61-0.49-1.21-0.74-1.82-0.05-0.11-0.12-0.16-0.23 0-0.11 0.16 -0.39 0.4 -0.59 0.58 -0.2 0.18 -0.13 0.19 0 0.31l1.56 1.56c0.09-0.03 0.15 0 0.21 0.05 zM11.7 22.9a0.32 0.32 0 0 1 0-0.09L10 21.16a0.14 0.14 0 0 0-0.22 0l-0.55 0.54 c-0.15 0.15 -0.14 0.2 0.05 0.28 l1.91 0.79 c0.167 0.054 0.337 0.098 0.51 0.13 zM27.25 30.73l0.14-0.15 3.21-3.22c0.13-0.14 0.2 -0.11 0.32 0l4.39 4.4a2.37 2.37 0 0 1 0.69 2.08 2.49 2.49 0 0 1-4.3 1.37l-4.35-4.34-0.1-0.14zM33.94 0.78 a6.35 6.35 0 0 0 0 7.78c-0.23 0.12 -0.43 0.25 -0.65 0.35 a4.69 4.69 0 0 1-2.61 0.36 4.45 4.45 0 0 1-1.76-0.64c-0.09-0.06-0.11-0.11 0-0.2a5.86 5.86 0 0 0 1-1.86c0.11-0.408 0.193 -0.822 0.25 -1.24 0.04 -0.248 0.06 -0.499 0.06 -0.75A6.37 6.37 0 0 0 29 1.05V1c-0.15-0.21-0.15-0.21 0.08 -0.35a4.63 4.63 0 0 1 1.57-0.59 4.87 4.87 0 0 1 1.66 0 4.45 4.45 0 0 1 1.63 0.72 zM27.76 7.65c-0.2-0.34-0.4-0.63-0.57-1a4.55 4.55 0 0 1-0.42-2.76 4.51 4.51 0 0 1 0.9-2.11c0.09-0.13 0.16 -0.1 0.23 0 0.293 0.437 0.519 0.916 0.67 1.42 0.166 0.537 0.234 1.1 0.2 1.66a5 5 0 0 1-1.01 2.79zM35 7.61a4.88 4.88 0 0 1-1-3.42 4.75 4.75 0 0 1 1-2.48 4.61 4.61 0 0 1 0 5.9z" fill="#FFF"/>
</svg>
