<?xml version="1.0" ?>
<svg xmlns="http://www.w3.org/2000/svg" width="36" height="36" viewBox="0 0 36 36">
  <path d="M5.88 11.16v-9.8A1.27 1.27 0 0 1 6.47 0.2 a1.24 1.24 0 0 1 1.88 0.8 c0.04 0.18 0.06 0.365 0.06 0.55 v19.62c0 0.24 0 0.24 0.25 0.24h5.12c0.31 0 0.29 0 0.33 0.3 0.11 0.946 0.16 1.898 0.15 2.85 0 0.7 0 1.41-0.08 2.11 0 0.33 0 0.67-0.09 1-0.09 0.33 -0.12 0.77 -0.19 1.15-0.07 0.38 -0.13 0.68 -0.22 1-0.16 0.54 -0.31 1.07-0.51 1.58a7.49 7.49 0 0 1-1 1.83 5.68 5.68 0 0 1-2.43 1.93 5.15 5.15 0 0 1-1.62 0.41 c-0.536 0.04 -1.074 0.04 -1.61 0a5.83 5.83 0 0 1-3.31-1.28 7 7 0 0 1-1.76-2.27 11.08 11.08 0 0 1-0.83-2.23c-0.13-0.51-0.21-1-0.3-1.55A21.22 21.22 0 0 1 0 23.78c0-0.7 0.08 -1.4 0.14 -2.1 0-0.26 0-0.27 0.31 -0.27h5.2c0.23 0 0.23 0 0.23-0.24V11.16zM21 4.21V2.35 0.78 a0.72 0.72 0 0 1 0.46-0.72 0.69 0.69 0 0 1 0.93 0.43 c0.04 0.147 0.06 0.298 0.06 0.45 v3.27h2.95V4 0.79a0.74 0.74 0 0 1 0.45-0.73 0.68 0.68 0 0 1 0.93 0.4 1.2 1.2 0 0 1 0.07 0.42 V4.2H29.61c0.15 0 0.2 0 0.2-0.19V0.8a0.79 0.79 0 0 1 0.45-0.76 0.69 0.69 0 0 1 0.94 0.39 c0.05 0.131 0.073 0.27 0.07 0.41 v3.34h2.77c0.16 0 0.19-0.05 0.19 -0.2V0.79a0.77 0.77 0 0 1 0.45-0.77 0.68 0.68 0 0 1 0.93 0.38 1 1 0 0 1 0.07 0.39 v4.35a0.63 0.63 0 0 1-0.65 0.64 h-7.57c-0.18 0-0.22 0-0.22 0.22 v28.2a1.48 1.48 0 0 1-0.17 0.92 1.05 1.05 0 0 1-1.88-0.25 1.33 1.33 0 0 1 0-0.4V6.08c0-0.25 0-0.25-0.25-0.25H17.3a0.64 0.64 0 0 1-0.68-0.68V0.81a0.77 0.77 0 0 1 0.47-0.75 0.7 0.7 0 0 1 0.91 0.45 c0.04 0.15 0.06 0.305 0.06 0.46 v3.07c0 0.11 0 0.19 0.16 0.19H21v-0.02z" fill="#FFF"/>
</svg>
