<?xml version="1.0" ?>
<svg xmlns="http://www.w3.org/2000/svg" width="42" height="31" viewBox="0 0 42 31">
  <path d="M0 31v-0.22-7.1a1.51 1.51 0 0 1 1-1.43c0.19-0.067 0.39 -0.1 0.59 -0.1h26.24c0.15 0 0.23 0 0.23-0.2-0.04-4.253-0.06-8.493-0.06-12.72 0-0.43 0-0.37-0.36-0.37H5a1.18 1.18 0 0 1-1.28-1.25V2.25 1.18A1.17 1.17 0 0 1 4.53 0c0.126-0.02 0.254 -0.02 0.38 0H36.07a1.49 1.49 0 0 1 1.49 1.08 1.41 1.41 0 0 1 0 0.4v5.2c0 0.12 0 0.21-0.15 0.25 a1.76 1.76 0 0 0-1.07 1.13 6.51 6.51 0 0 0-0.28 2.81c0.026 0.46 0.117 0.915 0.27 1.35 0.165 0.534 0.556 0.97 1.07 1.19a0.22 0.22 0 0 1 0.16 0.24 v7.94a1.2 1.2 0 0 1 0 0.28c-0.05 0.21 0 0.25 0.23 0.24h1.94a1.48 1.48 0 0 1 1.43 0.89 c0.073 0.15 0.114 0.313 0.12 0.48 v7.47L0 31zM25.1 4.36a2.06 2.06 0 1 0-4.12 0 2.06 2.06 0 0 0 4.12 0zm-10.75 0a2.06 2.06 0 1 0 4.12 0 2.06 2.06 0 0 0-4.12 0z" fill="#FFF"/>
  <path d="M10.33 11.06v4.39a1.06 1.06 0 0 1-0.61 1c-0.12 0.06 -0.12 0.16 -0.12 0.27 v3.1c0 0.26-0.12 0.41 -0.32 0.43 a0.33 0.33 0 0 1-0.41-0.36v-1.83-1.35a0.35 0.35 0 0 0-0.15-0.25 1 1 0 0 1-0.58-0.9v-1.31-2.94c0-0.26 0-0.26 0.27 -0.26h1.94l-0.02 0.01 zM37.05 10.15c0.07-0.5 0.11 -1 0.22-1.5a1 1 0 0 1 1-0.84 2.37 2.37 0 0 1 0.76 4.59 1.91 1.91 0 0 1-1.16 0.1 0.86 0.86 0 0 1-0.58-0.61 4.68 4.68 0 0 1-0.24-1.74zM9.22 10.33H6.66a0.34 0.34 0 0 1-0.36-0.23 0.34 0.34 0 0 1 0.13-0.44 0.44 0.44 0 0 1 0.2-0.06h5.17a0.36 0.36 0 0 1 0.38 0.36 0.38 0.38 0 0 1-0.39 0.37 H9.22z" fill="#FFF"/>
</svg>
