<?xml version="1.0" ?>
<svg xmlns="http://www.w3.org/2000/svg" width="22" height="31" viewBox="0 0 22 31">
  <path d="M4.84 10.88h4a0.35 0.35 0 0 1 0.38 0.35 c0 0.4 0.09 0.81 0.13 1.21 0.04 0.4 0.1 1.06 0.14 1.6 0.04 0.54 0.05 0.79 0.08 1.19 0.056 0.715 0.076 1.433 0.06 2.15A6.23 6.23 0 0 1 9.36 19a4.87 4.87 0 0 1-0.27 0.63 A5 5 0 0 1 8 21.09a4.39 4.39 0 0 1-1.12 0.77 7.06 7.06 0 0 1-0.71 0.29 5.68 5.68 0 0 1-0.57 0.13 c-0.09 0-0.12 0-0.12 0.14 0 1.373-0.027 2.75-0.08 4.13v0.6c0.006 0.358 0.029 0.715 0.07 1.07a1 1 0 0 0 0.32 0.7 c0.15 0.122 0.324 0.214 0.51 0.27 0.196 0.066 0.396 0.117 0.6 0.15 0.31 0 0.62 0.07 0.94 0.08 a1.06 1.06 0 0 1 0.42 0.08 0.47 0.47 0 0 1 0.27 0.31 0.32 0.32 0 0 1-0.32 0.37 H1.55a0.31 0.31 0 0 1-0.32-0.18 0.33 0.33 0 0 1 0.09-0.34 0.64 0.64 0 0 1 0.46-0.2h0.69a4.16 4.16 0 0 0 0.91-0.18 1.83 1.83 0 0 0 0.55-0.28 0.91 0.91 0 0 0 0.3-0.57 6.68 6.68 0 0 0 0.09-1.71v-1.1-2.42-0.76c0-0.06 0-0.09-0.07-0.1l-0.49-0.1a2.81 2.81 0 0 1-0.38-0.12 7.37 7.37 0 0 1-0.64-0.29 4.35 4.35 0 0 1-0.84-0.58 4.81 4.81 0 0 1-1.16-1.33 5.9 5.9 0 0 1-0.36-0.76 6.69 6.69 0 0 1-0.38-1.4 9.49 9.49 0 0 1 0-1.47v-0.9c0-0.3 0-0.75 0.07 -1.12 0.07 -0.37 0.07 -0.89 0.12 -1.34 0.05 -0.45 0.07 -0.72 0.11 -1.09 0.04 -0.37 0.06 -0.49 0.1 -0.73a0.29 0.29 0 0 1 0.3-0.24h4.14v0.01zM9 15.1v-0.2c0-0.4-0.07-0.81-0.1-1.21l-0.05-0.64v-0.48c0-0.31-0.07-0.63-0.1-0.94 0-0.13 0-0.14-0.15-0.14H1.11c-0.07 0-0.12 0-0.12 0.09 v0.89c0 0.45-0.1 0.91 -0.14 1.36v1.28L9 15.1zM15 1l0.34 0.35 c0.13 0.12 0.13 0.12 0.25 0l0.24-0.24a0.1 0.1 0 0 1 0.16 0l0.28 0.28 c0.06 0.07 0.11 0.06 0.17 0l0.27-0.28a0.1 0.1 0 0 1 0.17 0l0.27 0.27 c0.07 0.07 0.12 0.06 0.18 0s0.16-0.15 0.23 -0.24 0.15 -0.09 0.23 0l0.24 0.23 c0.08 0.08 0.14 0.07 0.21 0 0.07-0.07 0.22 -0.24 0.36 -0.39l0.14 0.48 c0 0.18 0.08 0.38 0.14 0.55a0.44 0.44 0 0 1 0 0.43 0.76 0.76 0 0 0-0.08 0.64 c0 0.44 0.11 0.87 0.17 1.31 0.06 0.44 0.11 0.74 0.16 1.11 0.05 0.37 0.05 0.46 0.08 0.69l0.13 1 0.1 0.77 0.16 1.16c0.016 0.178 0.043 0.355 0.08 0.53 0.1 0.37 0.2 0.73 0.33 1.09a9.54 9.54 0 0 0 0.88 1.57c0.227 0.4 0.401 0.826 0.52 1.27a7.4 7.4 0 0 1 0.21 2.05v11.95a1.78 1.78 0 0 1-1 1.71 6.44 6.44 0 0 1-1.33 0.56 8.56 8.56 0 0 1-2.21 0.32 11.77 11.77 0 0 1-1.41-0.08 5 5 0 0 1-0.83-0.13c-0.35-0.09-0.7-0.22-1-0.34a4 4 0 0 1-1-0.53 1.56 1.56 0 0 1-0.73-1.34v-11.7-1a6.12 6.12 0 0 1 1.16-3.43c0.3-0.417 0.514 -0.89 0.63 -1.39 0.1 -0.48 0.17 -1 0.24-1.44 0.07 -0.44 0.15 -1 0.22-1.57 0-0.17 0-0.34 0.06 -0.52 0-0.38 0.08 -0.75 0.13 -1.13 0.05 -0.38 0.11 -0.74 0.17 -1.11 0-0.2 0-0.41 0.07 -0.61s0.07-0.49 0.11 -0.74a3.49 3.49 0 0 0 0-0.39s0-0.08-0.06-0.11a0.63 0.63 0 0 1-0.1-0.56c0.09-0.26 0.14 -0.52 0.2 -0.78 0.06 -0.09 0.06 -0.15 0.06 -0.27zm-2.14 20.19c0 0.41 0 0.74 0.09 1.05a6.65 6.65 0 0 0 0.46 1.59 4.73 4.73 0 0 0 1.52 2 3.27 3.27 0 0 0 1.76 0.64 A3 3 0 0 0 18.4 26a4.19 4.19 0 0 0 1.38-1.32 5.64 5.64 0 0 0 0.81-1.85 8.45 8.45 0 0 0 0.18-1.17 4.79 4.79 0 0 0-0.1-1.5 9.86 9.86 0 0 0-0.27-1.07 4.92 4.92 0 0 0-1-1.77 3.59 3.59 0 0 0-2.05-1.16 3 3 0 0 0-1.55 0.15 3.77 3.77 0 0 0-1.8 1.37 5.62 5.62 0 0 0-1 2.27c-0.07 0.43 -0.1 0.88 -0.14 1.24zm3.92-11a1.5 1.5 0 0 0 0.82-0.19 1.74 1.74 0 0 0 0.68-0.86c0.1-0.321 0.283 -0.611 0.53 -0.84a0.21 0.21 0 0 0 0.06-0.16c0-0.18 0-0.36-0.06-0.54l-0.22-1.59a103.9 103.9 0 0 1-0.17-1.33c0-0.4-0.1-0.79-0.14-1.19L18.22 3a0.15 0.15 0 0 0-0.22-0.1h-2.42s-0.12 0-0.13 0.06 a2 2 0 0 0-0.06 0.34 c0 0.26-0.05 0.51 -0.08 0.77 s0 0.33-0.06 0.49 c-0.05 0.39 -0.12 0.78 -0.16 1.17-0.04 0.39 -0.09 0.81 -0.09 1.21 0 0.17 0 0.34-0.06 0.5 -0.06 0.16 -0.08 0.48 -0.11 0.73 a0.21 0.21 0 0 0 0 0.16c0.272 0.288 0.483 0.628 0.62 1 0.22 0.537 0.74 0.891 1.32 0.9 l0.01-0.04z" fill="#FFF"/>
  <path d="M15.9 0.82 l-0.31 0.36 c-0.07 0.08 -0.13 0.08 -0.19 0L15.2 0.9 a0.7 0.7 0 0 1 0.07-0.76 0.6 0.6 0 0 1 0.35-0.14h2.61c0.31 0 0.45 0.19 0.49 0.5 0.04 0.31 -0.24 0.52 -0.44 0.73 h-0.14c-0.04 0-0.14-0.23-0.28-0.32a0.1 0.1 0 0 0-0.16 0l-0.28 0.28 a0.12 0.12 0 0 1-0.19 0L17 0.94c-0.08-0.09-0.15-0.08-0.22 0l-0.22 0.23 c-0.08 0.09 -0.15 0.1 -0.23 0L16 0.83l-0.1-0.01zM20.05 21.27a4.84 4.84 0 0 1-0.34 1.84 3.75 3.75 0 0 1-1.57 2 2.47 2.47 0 0 1-1.15 0.37 2.85 2.85 0 0 1-2.48-1.24 4.48 4.48 0 0 1-0.79-1.65 4.64 4.64 0 0 1-0.15-1.59 6.14 6.14 0 0 1 0.14-1.08 4.28 4.28 0 0 1 1-1.88 3 3 0 0 1 1.39-0.89 2.44 2.44 0 0 1 0.84-0.1 2.71 2.71 0 0 1 1.47 0.55 3.7 3.7 0 0 1 1.26 1.71c0.138 0.358 0.249 0.725 0.33 1.1 0.031 0.286 0.048 0.573 0.05 0.86zm-5.43 0a3.6 3.6 0 0 0 0.23 1.38 3 3 0 0 0 0.85 1.29c0.219 0.2 0.489 0.335 0.78 0.39 A1.62 1.62 0 0 0 18 23.8c0.57-0.6 0.908 -1.383 0.95 -2.21a4 4 0 0 0-0.13-1.44 3.18 3.18 0 0 0-0.6-1.22 1.71 1.71 0 0 0-1.68-0.75 1.62 1.62 0 0 0-0.74 0.34 3 3 0 0 0-1 1.64 9.72 9.72 0 0 0-0.17 1.07l-0.01 0.04 zM16.83 6.54a3.8 3.8 0 0 1-1.39-0.19 0.22 0.22 0 0 1-0.12-0.16 4.24 4.24 0 0 1 0-0.61c0-0.12 0.12 -0.13 0.22 -0.1a4.54 4.54 0 0 0 1.46 0.14 c0.3-0.031 0.597 -0.081 0.89 -0.15 0.16 0 0.24 0 0.25 0.17 0.01 0.17 0 0.33 0 0.49 0 0.16 0 0.22-0.18 0.27 a3.77 3.77 0 0 1-1.13 0.14 z" fill="#FFF"/>
</svg>
