<?xml version="1.0" ?>
<svg xmlns="http://www.w3.org/2000/svg" width="45" height="31" viewBox="0 0 45 31">
  <path d="M35.12 0a6.21 6.21 0 0 1 5.25 3.26 5.86 5.86 0 0 1-0.2 6.37c-0.34 0.54 -0.37 0.83 0.12 1.28 1.24 1.17 2.4 2.41 3.63 3.59 0.44 0.43 0.37 0.7 0 1.1-0.37 0.4 -0.67 0.45 -1.09 0-1.22-1.26-2.48-2.47-3.7-3.73A0.79 0.79 0 0 0 38 11.7a6.15 6.15 0 0 1-7.91-1.55 6.21 6.21 0 0 1 0.46-8.28A6.44 6.44 0 0 1 35.12 0zM35 11.62a5.34 5.34 0 0 0 5.35-5.37A5.44 5.44 0 0 0 34.94 0.89 a5.34 5.34 0 0 0-5.34 5.38 5.22 5.22 0 0 0 5.4 5.35zM34.33 21.66h2.59c0.06 0 0.14 0.08 0.19 0.14 l4.24 5.52 2.13 2.75c0.06 0.08 0.11 0.16 0.2 0.3 H0l0.58-0.79 4.47-5.8c0.51-0.66 1-1.32 1.53-2a0.34 0.34 0 0 1 0.21-0.15h2.55V24.16A1.85 1.85 0 0 0 11.1 26h21.13a2 2 0 0 0 1.77-0.75 1.54 1.54 0 0 0 0.33-0.94v-2.65z" fill="#FFF"/>
  <path d="M6.77 21.67h29.75v6.5H6.77z" fill="#FFF"/>
</svg>
