<?xml version="1.0" ?>
<svg xmlns="http://www.w3.org/2000/svg" width="36" height="36" viewBox="0 0 36 36">
  <path d="M17.77 0h15.47a2.25 2.25 0 0 1 2.3 2.26v22.13a2.22 2.22 0 0 1-1.67 2.18 2.89 2.89 0 0 1-0.59 0.08 H2.62a3.12 3.12 0 0 1-1.29-0.2 2.13 2.13 0 0 1-1.19-1.32 2.83 2.83 0 0 1-0.14-1V2.25a2.17 2.17 0 0 1 1.25-2A2.18 2.18 0 0 1 2.3 0h15.47zm0 22.23H33c0.37 0 0.32 0.05 0.32-0.32V2.43c0-0.23 0-0.23-0.24-0.23H2.44c-0.24 0-0.24 0-0.24 0.23 V22c0 0.23 0 0.23 0.22 0.23h15.35zm-1.1 2.21a1.14 1.14 0 0 0 1.14 1.13 1.14 1.14 0 0 0 0-2.27 1.15 1.15 0 0 0-1.16 1.14h0.02zM17.77 35.54h-6.63A2.2 2.2 0 0 1 9 33.88a2.16 2.16 0 0 1 1.45-2.63 2.89 2.89 0 0 1 0.77-0.13h2c0.14 0 0.18 0 0.18-0.19v-1.84c0-0.14 0-0.2 0.19 -0.2H22c0.15 0 0.19 0.05 0.19 0.2 v1.82c0 0.18 0.05 0.22 0.22 0.21h1.87a2.26 2.26 0 0 1 1.85 0.83 c0.237 0.288 0.395 0.633 0.46 1a2.2 2.2 0 0 1-1.21 2.35 2.24 2.24 0 0 1-1 0.23l-6.61 0.01 z" fill="#FFF"/>
  <path d="M30.79 20H4.45V4.45c0.29 0 0.57 0.09 0.84 0.15 l0.79 0.18 L7.16 5l0.84 0.27 c0.44 0.12 0.87 0.23 1.3 0.37 0.43 0.14 0.93 0.3 1.38 0.47 a19.19 19.19 0 0 1 4.35 2.1 7.68 7.68 0 0 1 1.78 1.58 3.65 3.65 0 0 1 0.94 2.21 4.39 4.39 0 0 0 1.45 3.2 11 11 0 0 0 2.57 1.8c0.9 0.475 1.832 0.886 2.79 1.23 0.81 0.29 1.63 0.54 2.45 0.79 0.56 0.17 1.12 0.32 1.69 0.46 0.57 0.14 0.92 0.2 1.38 0.3 l0.71 0.16 V20z" fill="#FFF"/>
  <path d="M22.28 8.45c0.51-0.19 1-0.33 1.48-0.54a10.79 10.79 0 0 0 2.64-1.69l0.07-0.07c0.19-0.16 0.2 -0.16 0.37 0l2.53 2.55c0.18 0.18 0.18 0.18 0 0.38a11.27 11.27 0 0 0-1.78 2.68 12.58 12.58 0 0 0-0.46 1.24c0 0.12-0.1 0.19 -0.24 0.13 a0.47 0.47 0 0 0-0.16 0 16.56 16.56 0 0 0-1.73 0.07 8.64 8.64 0 0 0-2.65 0.89 0.23 0.23 0 0 1-0.2 0c-0.09 0-0.1-0.11 0-0.2l3-3a0.23 0.23 0 0 1 0.28-0.05 1.06 1.06 0 0 0 1.25-0.84A1 1 0 0 0 26 8.83a1 1 0 0 0-1.4 1.11 0.6 0.6 0 0 1-0.21 0.59 l-2.81 2.77c-0.08 0.08 -0.16 0.18 -0.25 0a0.25 0.25 0 0 1 0-0.19c0.19-0.43 0.41 -0.85 0.56 -1.3a6.89 6.89 0 0 0 0.34-1.28 8.94 8.94 0 0 0 0.12-1.37 4.53 4.53 0 0 0-0.07-0.71zM31.06 7.38l-0.06 0.11 -0.75 0.76 c-0.08 0.09 -0.14 0.08 -0.21 0l-2.75-2.72c-0.09-0.09-0.08-0.15 0-0.24l0.75-0.74c0.07-0.08 0.13 -0.08 0.2 0L31 7.27l0.06 0.11 z" fill="#FFF"/>
</svg>
