<?xml version="1.0" ?>
<svg xmlns="http://www.w3.org/2000/svg" width="256" height="256" viewBox="0 0 256 256">
  <path d="M253.575 27.394a14.218 14.218 0 0 1 1.065 5.455c0 2.087-0.429 4.054-1.287 5.902a13.34 13.34 0 0 1-3.595 4.695 3253.015 3253.015 0 0 1-8.699 8.003c-4.38 4.025-7.057 6.484-8.033 7.378a1.697 1.697 0 0 1-1.11 0.402 c-0.414 0-0.784-0.134-1.11-0.402-1.45-1.312-5.251-4.814-11.406-10.507-2.929-2.683-4.6-4.203-5.015-4.561a4.854 4.854 0 0 0-0.4-0.358 13.16 13.16 0 0 1-3.506-4.672 14.523 14.523 0 0 1-1.287-5.835 13.382 13.382 0 0 1 1.065-5.455 13.41 13.41 0 0 1 2.93-4.426c2.485-2.564 5.459-3.846 8.92-3.846 1.894 0 3.692 0.418 5.393 1.252 1.701 0.835 3.173 2.012 4.416 3.533 1.243-1.52 2.715-2.698 4.416-3.533a12.088 12.088 0 0 1 5.393-1.252c3.462 0 6.435 1.267 8.92 3.8a13.41 13.41 0 0 1 2.93 4.427zM198.337 76.508c0.326 0.794 0.49 1.63 0.49 2.506 0 0.959-0.198 1.863-0.592 2.712a6.13 6.13 0 0 1-1.652 2.157c-0.517 0.48 -1.849 1.705-3.997 3.677a4498.92 4498.92 0 0 1-3.69 3.39 0.78 0.78 0 0 1-0.51 0.185 0.78 0.78 0 0 1-0.51-0.185 942.114 942.114 0 0 1-5.241-4.828 214.468 214.468 0 0 0-2.304-2.095 2.23 2.23 0 0 0-0.184-0.165 6.046 6.046 0 0 1-1.611-2.146 6.673 6.673 0 0 1-0.591-2.681 6.149 6.149 0 0 1 0.489-2.507 6.161 6.161 0 0 1 1.346-2.033c1.142-1.178 2.508-1.767 4.099-1.767 0.87 0 1.696 0.192 2.477 0.575 a6.03 6.03 0 0 1 2.03 1.623 6.03 6.03 0 0 1 2.028-1.623 5.554 5.554 0 0 1 2.478-0.575c1.59 0 2.957 0.582 4.099 1.746a6.161 6.161 0 0 1 1.346 2.034z" fill="#FFF"/>
  <path d="M187.066-0.34v33.412M177.253-0.34l6.142 11.138M174.796 5.848l8.599 8.662M167.426 9.56l12.284 4.95M169.883 16.971h13.512M182.166 19.46l-13.512 4.95M180.938 23.173l-8.599 9.9M184.623 24.41l-4.913 12.375M196.907-0.34l-6.142 11.138M199.364 5.848l-8.599 8.662M206.734 9.56l-12.284 4.95M204.277 16.971h-13.512M191.993 19.46l13.512 4.95M190.765 21.935l8.599 9.9M189.537 24.41l4.913 12.375" fill="none" stroke-width=".5" stroke="#FFF"/>
  <path d="M57.717 255.026H244.43V122.615h-71.245v127.46H138.79v-127.46h-25.796L57.717 188.82zM165.66 47.26l-30.71-27.225L13.343 164.821l33.166 27.225 51.592-59.4-31.938-26.606 20.882-25.368 30.71 25.368zM87.044 68.01c-3.685 13.612-25.795 33.207-28.252 34.65-2.457 1.441-62.647-1.443-57.733-21.038C4.334 68.558 22.35 65.67 55.107 72.96 43.642 40.785 42.823 22.223 52.65 17.273 67.39 9.848 90.73 54.397 87.044 68.01zm-13.466 8.628c4.194-1.363 3.999-13.533-0.436-27.183-4.436-13.65-11.43-23.61-15.624-22.248-4.194 1.363-3.999 13.533 0.436 27.183C62.39 68.04 69.384 78 73.578 76.638zm-10.661 14.14c0.766-4.342-10.072-9.883-24.206-12.376-14.134-2.492-26.213-0.992-26.979 3.351-0.766 4.343 10.072 9.883 24.206 12.376 14.134 2.492 26.213 0.992 26.979-3.35z" fill="#FFF"/>
  <path d="M244.965 89.822v17.44M240.289 89.822l3.23 5.813M238.997 93.051l4.521 4.522M235.121 94.99l6.46 2.583M236.413 99.02h7.105M242.873 100.157l-7.106 2.584M243.518 100.157l-4.521 5.168M244.164 102.74l-2.583 6.46M249.978 89.822l-3.23 5.813M251.27 93.051l-4.522 4.522M255.146 94.99l-6.46 2.583M253.854 99.02h-7.106M247.394 100.157l7.106 2.584M246.748 100.157l4.522 5.168M246.102 102.74l2.584 6.46" fill="none" stroke-width=".5" stroke="#FFF"/>
</svg>
