<?xml version="1.0" ?>
<svg xmlns="http://www.w3.org/2000/svg" width="44" height="20" viewBox="0 0 44 20">
  <path d="M21.55 0c6.3-0.08 12 0.38 17.6 2.16a14.58 14.58 0 0 1 3 1.39c2 1.19 2 3.08 0 4.08a31.62 31.62 0 0 1-6.94 2.44A62.2 62.2 0 0 1 19 11.3c-5.45-0.25-10.91-0.64-16-2.78a7.81 7.81 0 0 1-1.76-1C-0.41 6.3-0.44 4.67 1.35 3.7a24.79 24.79 0 0 1 5.52-2.18A54 54 0 0 1 21.55 0zM35 5.09c-0.56-0.48-0.27-0.84 0.19 -1.12 1-0.58 2-1.13 2.93-1.69-7.37-2.76-27.4-2.43-32.46 0.06 0.94 0.54 2 1.08 2.89 1.73 0.19 0.13 0.09 0.67 0.12 1a32.94 32.94 0 0 1-3.43 0.24 2.18 2.18 0 0 1-1.52-0.71c-0.24-0.31-0.05-1-0.05-1.45-1.09 0.68 -1.19 1.5 0 2.07a17.38 17.38 0 0 0 4.09 1.47A76.27 76.27 0 0 0 34 7.06a34.17 34.17 0 0 0 5.9-1.76 1.67 1.67 0 0 0 0.86-1.15c0-0.33-0.45-0.73-0.71-1.1 0.36 1.38 0 2.21-1.39 2.27A30.14 30.14 0 0 1 35 5.09zm-8.13 5.38c-0.61-1.66-0.76-1.77-2.18-1.77h-5.87c-1.26 0-1.6 0.35 -1.71 1.78l9.76-0.01z" fill="#FFF"/>
  <path d="M37 10.85a29.32 29.32 0 0 0-3.29 3.55c-2.46 3.76-6 5-10.27 4.84-2.5-0.09-5-0.19-7.49-0.49a7.23 7.23 0 0 1-4.83-3c-1.28-1.61-2.73-3.08-4.27-4.81A80.87 80.87 0 0 0 37 10.85zM35 5.08a5.33 5.33 0 0 1-1.41 0.78 56.65 56.65 0 0 1-6.81 1.06c-5.55 0.3 -11.12 0.4 -16.57-1a7 7 0 0 1-1.53-0.81A55 55 0 0 1 35 5.08zm-15.14 0.46 h4V5c-1.35 0.32 -2.7-0.73-4.01 0.54 h0.01z" fill="#FFF"/>
  <path d="M27 0.89c-0.42 1.92-0.87 2.3-2.47 2.3h-5.24c-1.67 0-2.16-0.41-2.54-2.3H27z" fill="#FFF"/>
</svg>
