<?xml version="1.0" ?>
<svg xmlns="http://www.w3.org/2000/svg" width="45" height="34" viewBox="0 0 45 34">
  <path d="M44.1 18.21v3a10.74 10.74 0 0 1-1.1 4.58 10.19 10.19 0 0 1-1.41 2.14c-0.37 0.44 -0.74 0.88 -1.14 1.28a17 17 0 0 1-2.29 1.86 15.14 15.14 0 0 1-2.66 1.45c-0.701 0.29 -1.42 0.536 -2.15 0.74 -0.51 0.15 -1.05 0.23 -1.58 0.35 -0.855 0.143 -1.723 0.2 -2.59 0.17 a10.56 10.56 0 0 1-2.13-0.2 15.43 15.43 0 0 1-1.8-0.42 21.45 21.45 0 0 1-2.11-0.79 17 17 0 0 1-3.24-1.9 27.47 27.47 0 0 1-2.54-2.11c-0.68-0.63-1.35-1.27-2-1.89a19.54 19.54 0 0 0-2.54-2 8.59 8.59 0 0 0-1.88-0.92 8.38 8.38 0 0 0-1.66-0.41C8.62 23 8 23 7.44 22.93c-0.56-0.07-1.08 0-1.62-0.08a8.29 8.29 0 0 1-2.93-0.65 5 5 0 0 1-2.65-3.15A5.06 5.06 0 0 1 0 17.46V12a5.77 5.77 0 0 1 0.64-2.49 9.85 9.85 0 0 1 1.31-2A15.56 15.56 0 0 1 4 5.38a19.31 19.31 0 0 1 3-2.07c0.69-0.38 1.41-0.71 2.13-1 0.56-0.25 1.13-0.47 1.71-0.67 0.58 -0.2 1.43-0.44 2.16-0.63 0.47 -0.12 1-0.19 1.43-0.27 0.84 -0.16 1.57-0.29 2.38-0.4 0.51 -0.07 1-0.09 1.55-0.16a33.37 33.37 0 0 1 4-0.18h2.17c0.37 0 0.74 0 1.12 0.07 l0.71 0.08 c0.64 0.09 1.29 0.16 1.93 0.27 0.64 0.11 1 0.21 1.5 0.32 0.5 0.11 0.79 0.16 1.18 0.27 0.39 0.11 1 0.31 1.43 0.46 a16.57 16.57 0 0 1 3 1.37A18.8 18.8 0 0 1 37.08 4c0.7 0.5 1.39 1 2 1.59a12.47 12.47 0 0 1 1.9 2c0.47 0.65 1 1.3 1.38 2 0.44 0.714 0.795 1.475 1.06 2.27 0.16 0.45 0.27 0.91 0.39 1.37a19.33 19.33 0 0 1 0.25 4.48v0.54l0.04-0.04zM29.4 27.4l1.87-0.21a10.65 10.65 0 0 0 1.93-0.43 14.13 14.13 0 0 0 2.65-1.1 16.63 16.63 0 0 0 2.74-1.87 10.91 10.91 0 0 0 1.76-1.84c0.3-0.4 0.59 -0.81 0.86 -1.24a7.68 7.68 0 0 0 0.61-1.16c0.21-0.53 0.37 -1.09 0.55 -1.64a5.29 5.29 0 0 0 0.26-1.69v-0.43c0.025-0.43 0.025 -0.86 0-1.29-0.07-0.5-0.21-1-0.32-1.48a8.74 8.74 0 0 0-0.84-2.15 14.25 14.25 0 0 0-1.61-2.41 17.24 17.24 0 0 0-2.16-2.18 13.57 13.57 0 0 0-1.41-1.07c-0.82-0.53-1.65-1.06-2.51-1.51a19.68 19.68 0 0 0-2.32-0.95 17.57 17.57 0 0 0-1.77-0.52c-0.5-0.12-1-0.2-1.51-0.28-0.72-0.12-1.44-0.24-2.17-0.31s-1.67-0.15-2.5-0.18c-0.83-0.03-1.5 0-2.24 0-1.06 0.05 -2.12 0.16 -3.17 0.25 -0.48 0-1 0.09-1.43 0.16 -0.7 0.1 -1.41 0.22 -2.11 0.35 -0.7 0.13 -1.17 0.23 -1.75 0.38 a21.36 21.36 0 0 0-3.15 1.08 19.05 19.05 0 0 0-5.03 3.18c-0.543 0.483 -1.055 1-1.53 1.55A7.22 7.22 0 0 0 1.63 11a3.68 3.68 0 0 0-0.19 1.09 4.9 4.9 0 0 0 0.3 1.72A4.28 4.28 0 0 0 3.51 16a4.46 4.46 0 0 0 1.61 0.57 c0.628 0.107 1.263 0.17 1.9 0.19 a22 22 0 0 1 2.28 0.17 c0.752 0.1 1.492 0.275 2.21 0.52 a9.45 9.45 0 0 1 2.6 1.41c0.69 0.52 1.33 1.09 2 1.67 1 0.89 2 1.83 3 2.7a21.87 21.87 0 0 0 2 1.54 12.43 12.43 0 0 0 2.65 1.42c0.52 0.19 1 0.4 1.57 0.57 0.35 0.11 0.72 0.18 1.08 0.26 0.372 0.1 0.75 0.18 1.13 0.24 0.58 0.08 1.14 0.1 1.86 0.14 z" fill="#FFF"/>
  <path d="M22.08 2.91c1 0 2 0.08 3 0.15 0.59 0 1.17 0.14 1.76 0.21 0.29 0 0.58 0 0.86 0.1 s0.74 0.15 1.11 0.24 c0.37 0.09 0.79 0.17 1.18 0.28 0.39 0.11 1 0.29 1.51 0.46 a13.89 13.89 0 0 1 2.59 1.24c0.6 0.36 1.17 0.77 1.75 1.17a13.14 13.14 0 0 1 2 1.77 12.69 12.69 0 0 1 1.9 2.47c0.355 0.613 0.65 1.26 0.88 1.93a8 8 0 0 1 0.38 3.2 6.88 6.88 0 0 1-0.4 1.9 9.69 9.69 0 0 1-1.23 2.29A11.87 11.87 0 0 1 36.63 23c-0.7 0.508 -1.451 0.943 -2.24 1.3a13.06 13.06 0 0 1-1.74 0.63 14.49 14.49 0 0 1-1.88 0.42 7.53 7.53 0 0 1-2.16 0.05 h-0.27l-1-0.16a8.6 8.6 0 0 1-0.88-0.19 13.16 13.16 0 0 1-2.84-1.08 13.67 13.67 0 0 1-2.07-1.31c-0.51-0.4-1-0.78-1.53-1.21-0.53-0.43-1-0.94-1.54-1.41a31.91 31.91 0 0 0-3.81-3.21A10.09 10.09 0 0 0 12 15.46c-0.56-0.18-1.13-0.36-1.7-0.49a10 10 0 0 0-1.47-0.21c-0.95-0.07-1.9-0.08-2.85-0.18a4.3 4.3 0 0 1-1.77-0.41 2.37 2.37 0 0 1-1.08-1.45 2.1 2.1 0 0 1-0.07-1c0.082-0.39 0.21 -0.77 0.38 -1.13A6.87 6.87 0 0 1 4.8 8.76a14.93 14.93 0 0 1 2.56-2.13 19.44 19.44 0 0 1 5.34-2.47c0.62-0.19 1.26-0.32 1.89-0.45 0.63 -0.13 1.39-0.24 2.09-0.35 0.447 -0.067 0.897 -0.12 1.35-0.16l2.39-0.2 1.66-0.09zm4.38 13.76a2.47 2.47 0 0 0 0 0.48 2.49 2.49 0 0 0 1 1.38 4.47 4.47 0 0 0 2.55 0.81 4.83 4.83 0 0 0 1.58-0.22 3.37 3.37 0 0 0 2-1.36 1.9 1.9 0 0 0 0.31-1.38 2.43 2.43 0 0 0-1-1.53 4.57 4.57 0 0 0-2.52-0.85 4.77 4.77 0 0 0-1.36 0.14 3.76 3.76 0 0 0-1.75 0.85 2 2 0 0 0-0.81 1.69v-0.01z" fill="#FFF"/>
</svg>
