<?xml version="1.0" ?>
<svg xmlns="http://www.w3.org/2000/svg" width="44" height="33" viewBox="0 0 44 33">
  <path d="M27.81 16.31v10.76a5.76 5.76 0 0 1-3.15 4.85 5.67 5.67 0 0 1-3.54 0.62 5.77 5.77 0 0 1-3.78-2.11 5.84 5.84 0 0 1-1.08-2 6 6 0 0 1-0.26-1.92V6.01a5.84 5.84 0 0 1 2.57-4.95 5.75 5.75 0 0 1 2.1-0.92 5.63 5.63 0 0 1 2.2-0.06 5.92 5.92 0 0 1 3.65 2.15 5.86 5.86 0 0 1 1.05 2c0.125 0.395 0.195 0.806 0.21 1.22v4.09c0.027 2.253 0.037 4.51 0.03 6.77zm-1.49 0v-1.23c0-0.2-0.07-0.26-0.27-0.26h-2.4c-0.22 0-0.3-0.06-0.29-0.29V12.1c0-0.19-0.06-0.25-0.25-0.25h-2.36c-0.33 0-0.35 0-0.35 0.36 v2.33c0 0.21-0.05 0.28 -0.27 0.28 h-2.4c-0.22 0-0.3 0.08 -0.3 0.3 v2.4c0 0.2 0.07 0.27 0.27 0.27h2.34c0.36 0 0.36 0 0.36 0.35 v2.34c0 0.19 0 0.27 0.25 0.27h2.48c0.18 0 0.24-0.06 0.23 -0.24v-2.45c0-0.21 0.07 -0.3 0.3 -0.3H26c0.21 0 0.3-0.05 0.29 -0.28 0.02 -0.39 0.03 -0.79 0.03 -1.19v0.02zM29.32 4.49l0.23 0.21 14 14c0.41 0.42 0.48 0.31 0 0.76a7.84 7.84 0 0 1-2.81 1.66 6.5 6.5 0 0 1-2.77 0.28 7.41 7.41 0 0 1-4.29-2.13c-1.43-1.4-2.85-2.83-4.27-4.26a0.54 0.54 0 0 1-0.13-0.32v-10a1.61 1.61 0 0 1 0.04-0.2zM14.46 28.06L0 13.59l0.72-0.7c0.44-0.44 0.88 -0.89 1.33-1.32a0.38 0.38 0 0 1 0.32-0.09c0.267 0.085 0.556 0.067 0.81-0.05a6.15 6.15 0 0 1 2.69-0.23c1.1 0.14 2.15 0.545 3.06 1.18 0.21 0.14 0.21 0.18 0 0.36-0.59 0.59 -1.17 1.19-1.78 1.76a1.55 1.55 0 0 0 0 2.15c0.7 0.66 1.38 1.35 2.05 2a1.48 1.48 0 0 0 2.54-0.65 1.36 1.36 0 0 0-0.26-1.24c-0.09-0.11-0.11-0.18 0-0.29 0.27 -0.25 0.53 -0.52 0.79 -0.78 0.1 -0.11 0.16 -0.1 0.26 0l1.84 1.85a0.48 0.48 0 0 1 0.1 0.29 v9.85c0.01 0.13 0 0.24-0.01 0.38 z" fill="#FFF"/>
</svg>
