<?xml version="1.0" ?>
<svg xmlns="http://www.w3.org/2000/svg" width="36" height="36" viewBox="0 0 36 36">
  <path d="M14.08 9.21a1.41 1.41 0 0 1 0-0.18V4.78a0.29 0.29 0 0 1 0.21-0.31L17.6 3l3.26-1.43 3-1.34a4 4 0 0 1 0.48-0.2 0.7 0.7 0 0 1 0.38 0c0.56 0.17 1.12 0.37 1.69 0.55 l3.65 1.2c1.22 0.39 2.43 0.8 3.64 1.2 0.54 0.18 1.08 0.37 1.63 0.54 0.17 0 0.2 0.15 0.2 0.31 v31.33c0 0.33 0 0.33-0.34 0.33 h-6.82c-0.27 0-0.27 0-0.27-0.27V11.65c0-0.3 0-0.29-0.3-0.39l-2.31-0.81-1.88-0.66L21 8.88l-1.64-0.58-1.56-0.55a0.6 0.6 0 0 0-0.49 0c-1 0.48-2.06 1-3.09 1.42a0.49 0.49 0 0 1-0.14 0.04 zm18.15-0.64a0.12 0.12 0 0 0 0-0.07v-3c0-0.12-0.06-0.14-0.16-0.14h-1.19c-0.17 0-0.22 0.06 -0.22 0.22 V8.36a0.29 0.29 0 0 0 0.1 0.19 l1.47 0.02 zm0 11.34a0.12 0.12 0 0 0 0-0.07v-3c0-0.12-0.06-0.14-0.16-0.14h-1.2c-0.16 0-0.21 0.06 -0.21 0.22 V19.7a0.29 0.29 0 0 0 0.1 0.19 c0.5 0.03 0.98 0.02 1.47 0.02 zm0 11.42v-3c0-0.12-0.07-0.14-0.16-0.14H31c-0.28 0-0.29 0-0.29 0.28 v2.74c0 0.06 0.07 0.16 0.11 0.16l1.41-0.04zm0-18.67v-1.42c0-0.14 0-0.18-0.18-0.18h-1.16c-0.19 0-0.23 0.07 -0.23 0.24 v2.74c0 0.17 0.07 0.21 0.22 0.21h1.17c0.16 0 0.21 0 0.21-0.21-0.01-0.46 0-0.92 0-1.38h-0.03zm0 12.91v-0.06-3s-0.09-0.12-0.14-0.12h-1.26c-0.11 0-0.17 0-0.16 0.16 0.01 0.16 0 0.4 0 0.6v2.22c0 0.09 0 0.19 0.12 0.19l1.44 0.01 z" fill="#FFF"/>
  <path d="M16.69 9.87a1.93 1.93 0 0 1 0 0.23v25.15c0 0.19-0.05 0.25 -0.24 0.25 H0.28c-0.27 0-0.28 0-0.28-0.27V17.65a0.3 0.3 0 0 1 0.19-0.32c0.71-0.31 1.42-0.64 2.13-1l4.85-2.2 3.75-1.7C12 12 13 11.53 14 11.06l2.5-1.13 0.19 -0.06zM13.08 21.3a0.47 0.47 0 0 0-0.12 0l-1.4 0.28 -1.56 0.33 -1.41 0.29 -1.59 0.33 -1.27 0.26 -1.58 0.32 c-0.49 0.1 -1 0.21-1.46 0.3 -0.16 0-0.22 0.11 -0.21 0.28 v1.13c0 0.38 0 0.3 0.3 0.24L4 24.8l1.52-0.3c0.74-0.15 1.48-0.32 2.22-0.48l2-0.4 1.76-0.37 1.16-0.25c0.42-0.07 0.42 -0.07 0.42 -0.51V21.3zm0 5.36a0.46 0.46 0 0 0-0.16 0c-0.49 0.05 -1 0.09-1.47 0.15 L9.62 27l-1.47 0.14 -2.3 0.28 -2.3 0.22 -0.88 0.11 c-0.13 0-0.16 0.08 -0.16 0.2 V29c0 0.35-0.1 0.43 0.44 0.38 l2.59-0.28 1.35-0.1c0.78-0.09 1.56-0.2 2.34-0.28 1-0.11 2-0.2 3-0.3 0.23 0 0.47 0 0.7-0.09 0.06 0 0.15-0.09 0.15 -0.14 0.01 -0.52 0-1.01 0-1.53zM2.53 20.81l10.53-3.32v-1.63h-0.17l-1.38 0.43 -2.59 0.83 L6 18l-2.18 0.68 -1.12 0.35 a0.28 0.28 0 0 0-0.23 0.32 v1.13c0.04 0.12 0.05 0.2 0.06 0.33 zm10.54 11.28H2.74c-0.18 0-0.24 0.06 -0.23 0.24 v1.09c0 0.37 0 0.25 0.26 0.25h10.3v-1.58zM18.38 9.63l2.75 1 1.86 0.65 2.37 0.84 c0.3 0.113 0.6 0.213 0.9 0.3 a0.32 0.32 0 0 1 0.27 0.37 V35.19c0 0.3 0 0.3-0.29 0.3 h-7.57c-0.3 0-0.3 0-0.3-0.3V9.89c0-0.08 0.01 -0.15 0.01 -0.26z" fill="#FFF"/>
  <path d="M32.23 8.57h-1.46a0.29 0.29 0 0 1-0.1-0.19V6.86 5.6c0-0.16 0.05 -0.22 0.22 -0.22h1.21c0.1 0 0.16 0 0.16 0.14 v3a0.12 0.12 0 0 1-0.03 0.05 zM32.23 19.91h-1.46a0.29 0.29 0 0 1-0.1-0.19V18.2v-1.26c0-0.16 0.05 -0.22 0.21 -0.22h1.22c0.1 0 0.16 0 0.16 0.14 v3a0.12 0.12 0 0 1-0.03 0.05 zM32.26 31.33h-1.48s-0.11-0.1-0.11-0.16v-2.75c0-0.28 0-0.28 0.29 -0.28h1.14c0.09 0 0.16 0 0.16 0.14 v3.05zM32.26 12.66v1.38c0 0.17 0 0.21-0.21 0.21 h-1.17c-0.15 0-0.22 0-0.22-0.21V11.3c0-0.17 0-0.25 0.23 -0.24h1.19c0.13 0 0.18 0 0.18 0.18 -0.01 0.47 0 0.94 0 1.42zM32.23 25.57h-1.44c-0.15 0-0.12-0.1-0.12-0.19v-2.22-0.6c0-0.2 0-0.16 0.16 -0.16h1.28s0.14 0.08 0.14 0.12 v3l-0.02 0.05 zM13.08 21.3v1.22c0 0.44 0 0.44-0.42 0.51 l-1.17 0.22 -1.76 0.37 -2 0.4c-0.74 0.16 -1.48 0.33 -2.22 0.48 L4 24.8l-1.21 0.26 c-0.28 0.06 -0.3 0.05 -0.3-0.24v-1.13c0-0.17 0.05 -0.25 0.21 -0.28 0.49 -0.09 1-0.2 1.46-0.3l1.58-0.32L7 22.53l1.53-0.33 1.47-0.29 1.59-0.33L13 21.3a0.47 0.47 0 0 1 0.08 0zM13.08 26.66v1.51s-0.09 0.13 -0.15 0.14 c-0.23 0-0.47 0.07 -0.7 0.09 -1 0.1-2 0.19-3 0.3-0.78 0.08 -1.56 0.19 -2.34 0.28 l-1.35 0.13 -2.54 0.28 c-0.54 0.05 -0.43 0.05 -0.44-0.38-0.01-0.43 0-0.7 0-1.05 0-0.12 0-0.18 0.16 -0.2l0.88-0.11 2.3-0.22 2.3-0.28L9.62 27l1.83-0.21c0.49-0.06 1-0.1 1.47-0.15a0.46 0.46 0 0 1 0.16 0.02 zM2.53 20.81v-0.29-1.13a0.28 0.28 0 0 1 0.23-0.32l1.12-0.35L6 18l2.88-0.9 2.59-0.83 1.38-0.43h0.17v1.63L2.53 20.81zM13.07 32.09v1.58H2.77c-0.26 0-0.26 0-0.26-0.25v-1.09c0-0.18 0.05 -0.24 0.23 -0.24h10.33z" fill="#960404"/>
</svg>
