<?xml version="1.0" ?>
<svg xmlns="http://www.w3.org/2000/svg" width="44" height="29" viewBox="0 0 44 29">
  <path d="M43.35 0v28.83H0V0h43.35zM2.43 26.43H40.9v-24H2.73c-0.3 0-0.3 0-0.3 0.29 v23.71z" fill="#FFF"/>
  <path d="M2.43 26.43V2.76c0-0.29 0-0.29 0.3 -0.29H40.9v24l-38.47-0.04zM26.77 5l0.21 0.28 a12 12 0 0 1 2.22 4.15c0.226 0.754 0.403 1.523 0.53 2.3a24 24 0 0 1 0.27 2.54c0.008 0.48 -0.008 0.961 -0.05 1.44a10.69 10.69 0 0 1-0.35 2.39c-0.18 0.68 -0.36 1.36-0.59 2a11.1 11.1 0 0 1-2 3.56c-0.06 0.08 -0.11 0.18 -0.19 0.29 h11.4c0.28 0 0.28 0 0.28-0.29V5.26c0-0.3 0-0.3-0.31-0.3h-11l-0.42 0.04 zm-10.2 0H5.16C5 5 4.9 5 4.9 5.22v18.49c0 0.21 0.06 0.27 0.27 0.27H16.6l-0.6-0.83a12.29 12.29 0 0 1-1.9-3.92 15.5 15.5 0 0 1-0.45-2c-0.11-0.75-0.19-1.5-0.23-2.25a12.56 12.56 0 0 1 0.14-2.67c0.092-0.673 0.219 -1.34 0.38 -2a20.08 20.08 0 0 1 0.73-2.1 10.25 10.25 0 0 1 1.77-2.94 2.46 2.46 0 0 0 0.13-0.27zm9.26 7a3.17 3.17 0 0 0-0.38-1.59 3.93 3.93 0 0 0-3.14-1.95c-0.19 0-0.26-0.09-0.26-0.27v-0.85c0-0.28 0-0.25-0.23-0.24a3.62 3.62 0 0 1-0.57 0c-0.14 0-0.18 0-0.18 0.19 v0.93a0.2 0.2 0 0 1-0.19 0.23 11.37 11.37 0 0 0-1.29 0.27 3.45 3.45 0 0 0-2.43 3.87 2.77 2.77 0 0 0 1.25 2 7.2 7.2 0 0 0 2.37 0.91 c0.19 0.05 0.3 0.11 0.3 0.34 v3c0 0.29 0 0.29-0.29 0.23 h-0.09a2.11 2.11 0 0 1-1.46-2c0-0.15-0.06-0.19-0.2-0.19h-2c-0.2 0-0.25 0.08 -0.22 0.26 0.08 0.35 0.14 0.7 0.23 1a3.64 3.64 0 0 0 1.53 2.17 5.08 5.08 0 0 0 2.24 0.74 c0.13 0 0.22 0 0.21 0.2 -0.01 0.2 0 0.43 0 0.65v0.6h0.76c0.24 0 0.23-0.06 0.23 -0.23v-1c0-0.1 0-0.18 0.14 -0.2 0.32 0 0.63-0.1 0.94 -0.15a4.34 4.34 0 0 0 1.9-0.83 3.21 3.21 0 0 0 1.32-2.4 7.48 7.48 0 0 0 0-0.82 2.73 2.73 0 0 0-0.73-1.78 5.74 5.74 0 0 0-3.24-1.6c-0.17 0-0.23-0.11-0.23-0.27v-2.58c0-0.19 0.09 -0.25 0.25 -0.19 0.2 0.07 0.388 0.168 0.56 0.29 0.346 0.328 0.541 0.784 0.54 1.26h2.36z" fill="#8A8D8E"/>
  <path d="M26.77 5H38.14c0.31 0 0.31 0 0.31 0.3 v18.38c0 0.29 0 0.29-0.28 0.29 h-11.4c0.08-0.11 0.13 -0.21 0.19 -0.29a11.1 11.1 0 0 0 2-3.56c0.23-0.66 0.41 -1.34 0.59 -2 0.207-0.78 0.324 -1.583 0.35 -2.39 0.059 -0.485 0.092 -0.972 0.1 -1.46a24 24 0 0 0-0.23-2.54 18.24 18.24 0 0 0-0.53-2.3A12 12 0 0 0 27 5.26L26.77 5zM16.57 5a2.46 2.46 0 0 1-0.16 0.24 10.25 10.25 0 0 0-1.77 2.94 20.08 20.08 0 0 0-0.73 2.1 19.63 19.63 0 0 0-0.38 2 12.56 12.56 0 0 0-0.14 2.72c0 0.75 0.12 1.5 0.23 2.25a15.5 15.5 0 0 0 0.45 2 12.29 12.29 0 0 0 1.93 3.9l0.63 0.82 H5.17c-0.21 0-0.27-0.06-0.27-0.27V5.22C4.9 5 5 5 5.16 5h11.41zM25.83 12h-2.36a1.73 1.73 0 0 0-0.61-1.29 2.29 2.29 0 0 0-0.56-0.29c-0.16-0.06-0.25 0-0.25 0.19 v2.58c0 0.16 0.06 0.23 0.23 0.27a5.74 5.74 0 0 1 3.24 1.6 2.73 2.73 0 0 1 0.73 1.78 7.48 7.48 0 0 1 0 0.82A3.21 3.21 0 0 1 25 20.09a4.34 4.34 0 0 1-1.81 0.86 c-0.31 0.05 -0.62 0.11 -0.94 0.15 -0.14 0-0.14 0.1 -0.14 0.2 v1c0 0.17 0 0.24-0.23 0.23 -0.23-0.01-0.48 0-0.76 0V22v-0.65c0-0.21-0.08-0.19-0.21-0.2a5.08 5.08 0 0 1-2.24-0.74 3.64 3.64 0 0 1-1.53-2.17c-0.09-0.34-0.15-0.69-0.23-1 0-0.18 0-0.26 0.22 -0.26h2c0.14 0 0.2 0 0.2 0.19 a2.11 2.11 0 0 0 1.46 2h0.09c0.29 0.06 0.29 0.06 0.29-0.23v-3c0-0.23-0.11-0.29-0.3-0.34a7.2 7.2 0 0 1-2.37-0.91 2.77 2.77 0 0 1-1.25-2 3.45 3.45 0 0 1 2.43-3.87 11.37 11.37 0 0 1 1.29-0.27 0.2 0.2 0 0 0 0.19-0.23v-1c0-0.14 0-0.19 0.18 -0.19 0.19 0.015 0.38 0.015 0.57 0 0.19 0 0.24 0.08 0.23 0.24 -0.01 0.16 0 0.56 0 0.85 0 0.29 0.07 0.24 0.26 0.27a3.93 3.93 0 0 1 3.14 1.95 3.17 3.17 0 0 1 0.29 1.56zm-3.73 7.15l0.27-0.07a1.7 1.7 0 0 0 1.45-1.18 1.24 1.24 0 0 0-0.56-1.54 10.07 10.07 0 0 0-1-0.41c-0.19-0.07-0.25 0-0.25 0.2 v2.75c0.02 0.086 0.05 0.17 0.09 0.25 zm-1-7.36V11c0-0.58 0-0.6-0.55-0.45a1.3 1.3 0 0 0-0.9 1.77c0.19 0.59 0.76 0.72 1.29 0.86 0.14 0 0.16-0.06 0.16 -0.18v-1.21z" fill="#FFF"/>
  <path d="M22.1 19.15a1.18 1.18 0 0 1 0-0.25v-2.75c0-0.22 0.06 -0.27 0.25 -0.2 0.34 0.119 0.674 0.256 1 0.41 0.548 0.3 0.787 0.959 0.56 1.54a1.7 1.7 0 0 1-1.45 1.18l-0.36 0.07 zM21.07 11.79V13c0 0.12 0 0.21-0.16 0.18 -0.53-0.14-1.1-0.27-1.29-0.86a1.3 1.3 0 0 1 0.9-1.77c0.54-0.15 0.55 -0.13 0.55 0.45v0.79z" fill="#8A8D8E"/>
</svg>
