<?xml version="1.0" ?>
<svg xmlns="http://www.w3.org/2000/svg" width="18" height="31" viewBox="0 0 18 31">
  <path d="M10.17 20.1c-0.27 0.29 -0.55 0.56 -0.81 0.86 A8 8 0 0 0 7.66 24a7.72 7.72 0 0 0-0.32 2.25 13.24 13.24 0 0 0 0.08 1.58A1.5 1.5 0 0 1 5.7 29.6 2 2 0 0 1 4 28.54a2 2 0 0 1-0.2-0.66 12.28 12.28 0 0 1 0-3.2A11.56 11.56 0 0 1 7 18.11c0.3-0.31 0.62 -0.59 0.92 -0.89a0.42 0.42 0 0 0 0.1-0.24c0-0.36 0.06 -0.73 0.1 -1.09 0.07 -0.65 0.15 -1.3 0.23 -1.94l0.28-2.29c0-0.3 0.07 -0.6 0.1 -0.9a0.7 0.7 0 0 0 0-0.11l-0.21 0.1 -1.91 1a1.47 1.47 0 0 1-1.77-0.23 632.98 632.98 0 0 1-2.15-2A2.7 2.7 0 0 0 2 9 3.28 3.28 0 0 1 0.14 7a2.13 2.13 0 0 1 1.17-2.79 1.33 1.33 0 0 1 1.63 0.45 c0.215 0.23 0.24 0.58 0.06 0.84 l-0.07 0.12 h0.56a0.81 0.81 0 0 1 0.6 0.39 c0.216 0.339 0.384 0.705 0.5 1.09a0.66 0.66 0 0 0 0.16 0.27 L6 8.63a0.19 0.19 0 0 0 0.27 0l0.47-0.26c0.09 0 0.11-0.09 0-0.18a1.3 1.3 0 0 0-0.65-0.55 2.84 2.84 0 0 1-0.65-0.4 0.72 0.72 0 0 1-0.28-0.85v-0.1h-0.14a0.52 0.52 0 0 1-0.6-0.11 1 1 0 0 1-0.08-1.47 1.6 1.6 0 0 1 2.21-0.4A2.55 2.55 0 0 1 8 6.61a0.38 0.38 0 0 0 0.06 0.18 c0.12 0.17 0.25 0.34 0.37 0.51 0.12 0.17 0.13 0.1 0.23 0 0.6-0.33 1.19-0.67 1.8-1a3.61 3.61 0 0 1 1.62-0.45 3.17 3.17 0 0 1 2.57 1.33 2.55 2.55 0 0 1 0.48 2c-0.09 0.61 -0.15 1.22-0.22 1.84l-0.23 2-0.27 2.3-0.23 1.91L14 19.1l-0.22 1.85c-0.07 0.57 -0.14 1.13-0.2 1.7a0.37 0.37 0 0 0 0.08 0.25 l3 3.57c0.27 0.32 0.55 0.64 0.82 1a1.94 1.94 0 0 1-0.73 3 1.46 1.46 0 0 1-1.75-0.42c-0.63-0.67-1.23-1.35-1.86-2a29.16 29.16 0 0 1-2.43-2.81c-0.2-0.28-0.38-0.57-0.57-0.86a1.79 1.79 0 0 1-0.26-0.88 9.19 9.19 0 0 1 0.12-2.26c0.06-0.33 0.13 -0.66 0.19 -1a0.64 0.64 0 0 0 0-0.12l-0.02-0.02zM2.49 6c-0.18 0.11 -0.4 0.19 -0.41 0.42 a0.66 0.66 0 0 0 0.31 0.52 2.17 2.17 0 0 1 0.1-0.94zm3.07 0h0.69c-0.25-0.35-0.48-0.32-0.69 0z" fill="#FFF"/>
  <path d="M11.32 5.79a2.9 2.9 0 1 1 2.9-2.88 2.88 2.88 0 0 1-2.9 2.88zM2.49 6a2.17 2.17 0 0 0-0.1 0.94 0.66 0.66 0 0 1-0.31-0.52c0.01-0.25 0.24 -0.33 0.41 -0.42zM5.56 6c0.21-0.32 0.41 -0.35 0.69 0h-0.69z" fill="#FFF"/>
</svg>
