<?xml version="1.0" ?>
<svg xmlns="http://www.w3.org/2000/svg" width="33" height="36" viewBox="0 0 33 36">
  <path d="M9.46 19.23H4.52A1.51 1.51 0 0 1 3 17.7V8.88a0.34 0.34 0 0 0-0.24-0.36A4.39 4.39 0 0 1 0.21 5.73 3.87 3.87 0 0 1 0 4 4.42 4.42 0 0 1 2.57 0.43 4.11 4.11 0 0 1 4.88 0a4.44 4.44 0 0 1 3.31 2.08 4.22 4.22 0 0 1 0.68 2.55A4.35 4.35 0 0 1 6.42 8.4l-0.11 0.06 c-0.35 0.06 -0.4 0.28 -0.4 0.61 v6.91c0 0.3 0 0.31 0.3 0.31h8.36c0.15 0 0.21 0 0.21-0.2V8.78a0.21 0.21 0 0 0-0.16-0.23A4.32 4.32 0 0 1 12 5.6 4.42 4.42 0 0 1 14.76 0.28 a4.13 4.13 0 0 1 2-0.25 4.31 4.31 0 0 1 3.66 2.79 4.38 4.38 0 0 1-2.47 5.73 0.23 0.23 0 0 0-0.16 0.23 v7.31c0 0.16 0.05 0.2 0.2 0.2h8.42c0.24 0 0.25 0 0.25-0.24V8.81a0.24 0.24 0 0 0-0.17-0.26 4.33 4.33 0 0 1-2.75-3.25 4.42 4.42 0 0 1 3-5.06 4.16 4.16 0 0 1 1.8-0.24 4.4 4.4 0 0 1 3.63 2.71 4 4 0 0 1 0.33 2.18 4.36 4.36 0 0 1-2.19 3.35 5.14 5.14 0 0 1-0.58 0.27 0.25 0.25 0 0 0-0.17 0.26 V26.71a0.24 0.24 0 0 0 0.18 0.25 A4.42 4.42 0 0 1 32.4 30a4 4 0 0 1 0.11 1.46 4.41 4.41 0 0 1-2.71 3.66 4 4 0 0 1-2.16 0.33 4.34 4.34 0 0 1-3.43-2.29A4.39 4.39 0 0 1 26.45 27a0.24 0.24 0 0 0 0.17-0.26v-7.25c0-0.25 0-0.25-0.26-0.25H18c-0.23 0-0.23 0-0.23 0.22 v7.26a0.25 0.25 0 0 0 0.18 0.27 4.32 4.32 0 0 1 2.61 2.94 4.43 4.43 0 0 1-2.88 5.36 4 4 0 0 1-1.85 0.21 4.33 4.33 0 0 1-3.66-2.81A4.38 4.38 0 0 1 14.63 27a0.23 0.23 0 0 0 0.16-0.23v-7.32c0-0.17-0.08-0.19-0.22-0.19l-5.11-0.03z" fill="#FFF"/>
</svg>
