<?xml version="1.0" ?>
<svg xmlns="http://www.w3.org/2000/svg" width="43" height="31" viewBox="0 0 43 31">
  <path d="M7.17 21.51h4.4c0.11 0 0.11 0 0.11 0.12 v7.42a1.37 1.37 0 0 1-1 1.33 2 2 0 0 1-0.54 0.08 h-6a1.37 1.37 0 0 1-1.3-0.81 1.42 1.42 0 0 1-0.17-0.65v-7.4c0-0.13 0-0.13 0.14 -0.13l4.36 0.04 zm-1.39 5.22a0.86 0.86 0 0 0 0.85-0.83 0.87 0.87 0 1 0-1.73 0 0.86 0.86 0 0 0 0.88 0.83 zm2.39 0a0.88 0.88 0 0 0 0.83-0.87 0.87 0.87 0 1 0-0.86 0.87 h0.03zM3.91 23.5a0.86 0.86 0 1 0 1.72 0 0.89 0.89 0 0 0-0.93-0.84 0.88 0.88 0 0 0-0.79 0.84 zm5.66 3.85a0.87 0.87 0 0 0 0 1.73 0.86 0.86 0 0 0 0.89-0.88 0.87 0.87 0 0 0-0.89-0.85zM8 28.22a0.88 0.88 0 0 0-0.82-0.87 0.87 0.87 0 1 0 0.82 0.87 zm1.53-3.86a0.85 0.85 0 0 0 0.87-0.82 0.87 0.87 0 0 0-1.74 0 0.85 0.85 0 0 0 0.9 0.82 h-0.03zm-3.91 3.86a0.87 0.87 0 0 0-0.88-0.87 0.89 0.89 0 0 0-0.83 0.92 0.86 0.86 0 0 0 0.87 0.81 0.84 0.84 0 0 0 0.84-0.86zm1.55-5.57a0.85 0.85 0 0 0-0.87 0.87 0.87 0.87 0 1 0 0.87-0.87zM4.78 20.92h-2c-0.07 0-0.1 0-0.13-0.09-0.07-0.25-0.15-0.49-0.23-0.74l-0.3-0.91c-0.09-0.27-0.17-0.55-0.26-0.82-0.09-0.27-0.17-0.53-0.26-0.8s-0.15-0.46-0.22-0.69l-0.27-0.82-0.21-0.68v-0.06l0.52-0.2 1-0.38 0.28 -0.1h0.06c0.11 0.33 0.22 0.66 0.32 1 0.1 0.34 0.25 0.75 0.37 1.12l0.33 1c0.12 0.37 0.25 0.74 0.37 1.12L4.49 20l0.27 0.78 s0.01 0.1 0.02 0.14 zM8.63 20.92h-0.55v-0.62h-0.81a0.32 0.32 0 0 1-0.27-0.18 0.28 0.28 0 0 1 0.1-0.31 0.39 0.39 0 0 1 0.18-0.06h0.8v-1.26h-0.82a0.34 0.34 0 0 1-0.26-0.18 0.28 0.28 0 0 1 0.1-0.31 0.39 0.39 0 0 1 0.18-0.06H8.07v-1.26h-0.8a0.28 0.28 0 0 1-0.27-0.29 0.27 0.27 0 0 1 0.27-0.26h0.81v-1.26h-0.82a0.3 0.3 0 0 1-0.26-0.19 0.29 0.29 0 0 1 0.1-0.31 0.37 0.37 0 0 1 0.18 0h0.8v-0.9H5.71v7.51h-0.55v-0.09-7.66a0.31 0.31 0 0 1 0.32-0.32h2.83a0.32 0.32 0 0 1 0.32 0.32 v7.75-0.06zM11.28 16.3c0 0.13-0.07 0.25 -0.1 0.38 s-0.11 0.4 -0.16 0.59 c-0.05 0.19 -0.11 0.39 -0.16 0.58 -0.05 0.19 -0.1 0.39 -0.16 0.59 l-0.15 0.58 -0.15 0.58 c0 0.15-0.09 0.31 -0.13 0.47 l-0.15 0.57 -0.06 0.22 s0 0.06-0.06 0.06 h-0.52l0.12-0.42 0.15 -0.58c0.05-0.19 0.11 -0.38 0.16 -0.58 0.05 -0.2 0.1 -0.38 0.16 -0.58 0.06 -0.2 0.1 -0.39 0.16 -0.59l0.15-0.57c0-0.2 0.11 -0.39 0.16 -0.58 0.05 -0.19 0.11 -0.36 0.15 -0.55 0.089 -0.43 0.255 -0.84 0.49 -1.21 0.39 -0.65 0.77 -1.32 1.15-2a0.25 0.25 0 0 1 0.27-0.14 0.26 0.26 0 0 1 0.21 0.28 v2.89a1.87 1.87 0 0 1-0.07 0.4 c-0.05 0.21 -0.11 0.41 -0.16 0.62 -0.05 0.21 -0.11 0.4 -0.16 0.6 l-0.15 0.59 c-0.06 0.2 -0.11 0.4 -0.16 0.59 -0.05 0.19 -0.1 0.4 -0.16 0.61 l-0.15 0.59 c0 0.16-0.09 0.31 -0.12 0.47 -0.03 0.16 0 0.14-0.17 0.14 h-0.43v-0.21l0.27-1 0.24-0.84c0.07-0.28 0.14 -0.57 0.22 -0.85 0.08 -0.28 0.18 -0.65 0.27 -1 0-0.13 0.07 -0.26 0.1 -0.39s0-0.09-0.06-0.11l-0.84-0.2zm0.24-0.5l0.81 0.21 V15l-0.26-0.07a0.18 0.18 0 0 0-0.1 0l-0.43 0.75 a0.64 0.64 0 0 0-0.02 0.12 zM1.75 20.93a0.28 0.28 0 0 1-0.24 0.27 0.27 0.27 0 0 1-0.29-0.2c-0.1-0.3-0.2-0.61-0.28-0.93-0.08-0.32-0.15-0.62-0.21-0.94-0.06-0.32-0.1-0.54-0.14-0.81-0.04-0.27-0.09-0.57-0.14-0.85-0.05-0.28-0.11-0.6-0.18-0.9-0.07-0.3-0.17-0.64-0.26-1a0.3 0.3 0 0 1 0.15-0.33c0.14-0.056 0.3 0.01 0.36 0.15l0.21 0.75 c0.06 0.24 0.11 0.48 0.16 0.73 s0 0.31 0.08 0.47l0.09 0.53 c0 0.17 0.05 0.33 0.08 0.5 0.03 0.17 0.07 0.35 0.1 0.53 0.03 0.18 0.05 0.27 0.08 0.4s0.07 0.36 0.11 0.53 c0.04 0.17 0.13 0.45 0.2 0.67 0.031 0.078 0.058 0.159 0.08 0.24 a0.57 0.57 0 0 1 0.04 0.19 zM0.55 13.42a0.76 0.76 0 0 1 0.51-0.71 1 1 0 0 1 0.3-0.06 0.61 0.61 0 0 1 0.61 0.41 c0.11 0.29 0.2 0.59 0.29 0.88 l0.09 0.27 c0 0.09 0 0.12-0.07 0.15 l-1 0.4-0.28 0.09 H0.93l-0.21-0.68c0-0.18-0.11-0.35-0.15-0.52a1.38 1.38 0 0 1-0.02-0.23zM36.47 14.6l-1.11-0.24c-0.49-0.09-1-0.18-1.5-0.25a6.48 6.48 0 0 0-0.77-0.08c-0.87 0-1.73-0.07-2.6-0.08-0.87-0.01-1.61 0-2.41 0s-1.5 0.07 -2.24 0.14 c-0.57 0.06 -1.14 0.17 -1.7 0.27 -0.32 0.06 -0.63 0.16 -1 0.24l-0.14-0.74a40.7 40.7 0 0 0-0.19-1.08c0-0.17 0-0.35-0.07-0.52-0.08-0.65-0.16-1.3-0.22-1.95-0.06-0.65-0.09-1-0.14-1.55a40.81 40.81 0 0 1-0.12-4.69 3.94 3.94 0 0 1 0.78-2.23A4.16 4.16 0 0 1 24.84 0.4 a4.73 4.73 0 0 1 1.08-0.31A24.69 24.69 0 0 1 29.25 0h3.9a4.28 4.28 0 0 1 3.23 1.5 4.07 4.07 0 0 1 0.9 1.72c0.086 0.327 0.133 0.662 0.14 1 0 1.24 0 2.48-0.06 3.72 0 0.6-0.08 1.19-0.14 1.78-0.06 0.59 -0.12 1.14-0.2 1.71-0.08 0.57 -0.17 1-0.25 1.56-0.08 0.56 -0.15 0.86 -0.22 1.29-0.02 0.13 -0.06 0.23 -0.08 0.32 z" fill="#FFF"/>
  <path d="M20 14.15V16.75a0.7 0.7 0 0 0 0.7 0.69 0.81 0.81 0 0 0 0.89-0.4 2.64 2.64 0 0 1 1.41-1 20.4 20.4 0 0 1 1.7-0.47c0.4-0.09 0.81 -0.11 1.21-0.16a36.69 36.69 0 0 1 4.8-0.18c0.6 0 1.2 0 1.8 0.07 0.6 0.07 1.26 0.1 1.89 0.2 a8 8 0 0 1 2.73 0.81 2.53 2.53 0 0 1 1 1 0.21 0.21 0 0 0 0.22 0.13 H39a0.66 0.66 0 0 0 0.67-0.66V14.3c0-0.12 0-0.16-0.16-0.15h-0.35a0.51 0.51 0 0 1-0.5-0.77c0.173-0.36 0.353 -0.72 0.54 -1.08a0.56 0.56 0 0 1 0.52-0.31h2.06a0.53 0.53 0 0 1 0.5 0.29 c0.2 0.39 0.4 0.78 0.58 1.18a0.49 0.49 0 0 1-0.46 0.69 h-0.6a1.62 1.62 0 0 0 0 0.21v2.47a2.74 2.74 0 0 1-0.96 2.17 2.37 2.37 0 0 1-1.28 0.59 c-0.35 0-0.7 0-1.05 0.05 -0.1 0-0.16 0-0.2 0.13 a1.37 1.37 0 0 1-0.85 0.86 2 2 0 0 1-0.58 0.1 H32c0 0.32 0 0.64-0.21 0.89 s-0.57 0.19 -0.89 0.21 v1.06s0.07 0.1 0.12 0.1 a9.9 9.9 0 0 1 2.27 0.49 5.68 5.68 0 0 1 2.62 1.77c0.2 0.222 0.34 0.49 0.41 0.78 a1.1 1.1 0 0 1-0.57 1.1 1.07 1.07 0 0 1-1.41-0.39 2.83 2.83 0 0 0-1.26-1 6.76 6.76 0 0 0-1.85-0.54 3.28 3.28 0 0 0-0.34 0v0.25a9.45 9.45 0 0 1-0.07 1.07 1 1 0 0 1-0.72 0.74 1.08 1.08 0 0 1-1.27-0.6 1.33 1.33 0 0 1-0.09-0.44v-1a1.4 1.4 0 0 0-0.29 0 5.34 5.34 0 0 0-2.58 1 3.58 3.58 0 0 0-0.6 0.63 1 1 0 0 1-1.17 0.43 1 1 0 0 1-0.76-0.76 1.08 1.08 0 0 1 0.2-0.92 4.93 4.93 0 0 1 1.88-1.63 6.68 6.68 0 0 1 2-0.69l1.2-0.2s0.11-0.06 0.11 -0.09v-1.08h-0.4a0.68 0.68 0 0 1-0.69-0.69c0-0.4 0-0.4-0.4-0.4H22.8a1.45 1.45 0 0 1-1.47-1 0.17 0.17 0 0 0-0.19-0.13 5.61 5.61 0 0 1-0.58 0A2.66 2.66 0 0 1 18 17.78a2.85 2.85 0 0 1-0.15-0.88v-2.26-0.45c0-0.09-0.29 0-0.44 0a1.14 1.14 0 0 1-0.32-0.07 0.45 0.45 0 0 1-0.24-0.59c0.19-0.4 0.38 -0.81 0.59 -1.2a0.52 0.52 0 0 1 0.5-0.3H20a0.53 0.53 0 0 1 0.49 0.28 c0.2 0.39 0.4 0.79 0.58 1.19a0.48 0.48 0 0 1-0.44 0.69 l-0.63-0.04zM23.3 29.39a1.07 1.07 0 1 1 2.14 0.02 1.07 1.07 0 0 1-2.14-0.02zM34.19 29.39a1.07 1.07 0 1 1 1.07 1.08 1.06 1.06 0 0 1-1.07-1.08zM28.74 29.4a1.07 1.07 0 1 1 1.07 1.07 1.06 1.06 0 0 1-1.07-1.07z" fill="#FFF"/>
</svg>
