<?xml version="1.0" ?>
<svg xmlns="http://www.w3.org/2000/svg" width="44" height="32" viewBox="0 0 44 32">
  <path d="M21.48 20h-8.29c-0.33 0-0.33 0-0.38-0.3-0.09-0.53-0.15-1.07-0.25-1.6s-0.27-1.15-0.41-1.72a14.33 14.33 0 0 0-1-2.61 10.93 10.93 0 0 0-4-4.63c-0.15-0.14-0.31-0.28-0.5-0.4s-0.09-0.13 0-0.24a14 14 0 0 1 2.82-3.88 15.55 15.55 0 0 1 4.61-3.09 19.23 19.23 0 0 1 2.31-0.82C17 0.52 17.68 0.4 18.33 0.27 A17.78 17.78 0 0 1 22.7 0a13.55 13.55 0 0 1 1.78 0.23 c0.61 0.096 1.214 0.223 1.81 0.38 a17 17 0 0 1 2.91 1.11 15.73 15.73 0 0 1 3.41 2.16 14.4 14.4 0 0 1 3.74 4.64c0.07 0.13 0 0.18-0.08 0.23 a9.85 9.85 0 0 0-2.94 2.55 11.84 11.84 0 0 0-1.8 3 24.69 24.69 0 0 0-0.85 2.51c-0.18 0.62 -0.26 1.27-0.38 1.91-0.07 0.35 -0.12 0.71 -0.17 1.07 0 0.14-0.1 0.15 -0.21 0.15 h-8.44V20z" fill="#FFF"/>
  <path d="M21.75 27.6H11.24c-0.34 0-0.34 0-0.34 0.33 v2.64a1.4 1.4 0 0 1-1.66 1.37 1.31 1.31 0 0 1-1.04-1.18v-2.8c0-0.35 0-0.32-0.35-0.37a3 3 0 0 1-2.55-3.23 31.83 31.83 0 0 0 0-3.24 12.07 12.07 0 0 0-0.24-1.78 9.2 9.2 0 0 0-0.71-2.23 0.21 0.21 0 0 0-0.25-0.11 3.53 3.53 0 0 1-3.66-1.95 3.42 3.42 0 0 1-0.35-2.49 3.65 3.65 0 0 1 2.3-2.69 3.7 3.7 0 0 1 2-0.18 3.76 3.76 0 0 1 1 0.5 8.61 8.61 0 0 1 2.73 2.29 10.34 10.34 0 0 1 1.66 2.9c0.26 0.69 0.49 1.4 0.68 2.11 0.131 0.523 0.228 1.054 0.29 1.59 0.11 0.86 0.18 1.73 0.26 2.59 0 0.17 0.09 0.21 0.24 0.21h20.3c0.5 0 0.42 0 0.46-0.44 0.06 -0.79 0.14 -1.57 0.24 -2.35A14.74 14.74 0 0 1 33.94 14a9.53 9.53 0 0 1 2.57-3.07 15.4 15.4 0 0 1 1.36-0.83c0.23-0.14 0.48 -0.26 0.72 -0.38a0.37 0.37 0 0 1 0.18-0.05 4.06 4.06 0 0 1 4.44 2.56 2.9 2.9 0 0 1 0.23 1.77 3.62 3.62 0 0 1-1.17 2 3.52 3.52 0 0 1-1.73 0.87 5.78 5.78 0 0 1-1.1 0c-0.14 0-0.24 0-0.29 0.15 -0.19 0.55 -0.41 1.09-0.56 1.65a16.27 16.27 0 0 0-0.33 1.69 6.18 6.18 0 0 0-0.09 1v2.72a3.09 3.09 0 0 1-2 3.22 2.31 2.31 0 0 1-0.64 0.16 c-0.18 0-0.23 0.07 -0.23 0.24 v2.61a1.41 1.41 0 0 1-1 1.47 1.34 1.34 0 0 1-1.62-0.78 2.1 2.1 0 0 1-0.09-0.61v-2.55c0-0.22-0.07-0.28-0.28-0.28l-10.56 0.04 z" fill="#FFF"/>
</svg>
