<?xml version="1.0" ?>
<svg xmlns="http://www.w3.org/2000/svg" width="35" height="31" viewBox="0 0 35 31">
  <path d="M18.46 30.84v-2.32-0.64c0-0.63 0-1.25 0.09 -1.88a16.66 16.66 0 0 1 0.27-1.84A4.76 4.76 0 0 1 20 21.77a4.64 4.64 0 0 1 2-1.27 7.1 7.1 0 0 1 1.71-0.34 0.78 0.78 0 0 0 0.54-0.28c0.93-1.09 1.88-2.18 2.84-3.25a2.66 2.66 0 0 1 1.51-0.82 1.74 1.74 0 0 1 1.88 0.83 c0.228 0.447 0.295 0.96 0.19 1.45a3.32 3.32 0 0 1-0.89 1.63c-0.85 0.92 -1.67 1.87-2.47 2.82a3.07 3.07 0 0 0-0.65 1.46 1.6 1.6 0 0 0 0 0.84l0.06 0.13 a0.39 0.39 0 0 0 0.14-0.08l2.26-2.57c0.6-0.68 1.22-1.34 1.82-2a3.53 3.53 0 0 0 0.89-1.75 5 5 0 0 0 0.17-1.13 2.93 2.93 0 0 0-0.48-1.44 0.59 0.59 0 0 1-0.09-0.32v-3.81a5.77 5.77 0 0 1 0.25-1.74 1.14 1.14 0 0 1 1.4-0.84 1.64 1.64 0 0 1 1.37 1.39 7.71 7.71 0 0 1 0.2 1.91v4.59a6.49 6.49 0 0 1-0.45 2.34 15.91 15.91 0 0 1-2.05 3.64 20.84 20.84 0 0 1-2 2.39 11 11 0 0 1-3 2.11 2 2 0 0 0-1.08 1.18 4 4 0 0 0-0.15 0.69 c0 0.4-0.05 0.81 -0.06 1.21 0 0.13 0 0.17-0.17 0.17 h-7.23v-0.07zM16.23 30.85H9c-0.15 0-0.19 0-0.2-0.19 0-0.41 0-0.81-0.06-1.22a2.23 2.23 0 0 0-1.34-1.91 11 11 0 0 1-3.74-3 24.2 24.2 0 0 1-1.78-2.33 13.92 13.92 0 0 1-1.39-2.61 5.84 5.84 0 0 1-0.43-1.69v-0.77-4.54a8.86 8.86 0 0 1 0.15-1.78A1.81 1.81 0 0 1 1 9.44a1.51 1.51 0 0 1 1.43-0.11c0.274 0.17 0.47 0.438 0.55 0.75 a5.77 5.77 0 0 1 0.26 1.8v3.81a0.46 0.46 0 0 1 0 0.2 3.23 3.23 0 0 0-0.47 2 4.06 4.06 0 0 0 1 2.39l2.79 3.22 1.26 1.4c0.035 0.026 0.072 0.049 0.11 0.07 l0.07-0.12a2.23 2.23 0 0 0-0.18-1.46 4 4 0 0 0-0.88-1.33c-0.78-0.88-1.56-1.75-2.33-2.63A2.62 2.62 0 0 1 4 18.1a2 2 0 0 1 0.22-1.52 1.52 1.52 0 0 1 1.06-0.75 2.38 2.38 0 0 1 2.3 0.82 c1 1.09 2 2.23 2.94 3.35a0.57 0.57 0 0 0 0.46 0.15 7.42 7.42 0 0 1 2.08 0.49 4.3 4.3 0 0 1 2.46 2.43 6 6 0 0 1 0.41 1.61c0.07 0.65 0.17 1.3 0.2 2 0.06 1.35 0.09 2.71 0.13 4.07-0.02 0-0.03 0.04 -0.03 0.1 z" fill="#FFF"/>
  <path d="M30.32 14.83l-0.6-0.18a1.64 1.64 0 0 0-0.32-0.05c-0.1 0-0.14-0.06-0.14-0.17 0-0.8 0-1.61 0.08 -2.41a2.84 2.84 0 0 1 0.32-1.17 0.92 0.92 0 0 1 0.79-0.53 1.2 1.2 0 0 1 0 0.19c0 0.4-0.11 0.8 -0.12 1.21v2.91l-0.01 0.2 zM4.34 14.84v-0.61-2.62c0-0.36-0.08-0.72-0.12-1.09a1.15 1.15 0 0 1 0-0.19 0.82 0.82 0 0 1 0.73 0.42 c0.187 0.304 0.306 0.645 0.35 1a16.5 16.5 0 0 1 0.13 2.63c0 0.16 0 0.21-0.21 0.23 a5.28 5.28 0 0 0-0.66 0.16 1.21 1.21 0 0 0-0.22 0.07 zM15.63 6a2.69 2.69 0 0 0 3.78 0c0.12 0.1 0.23 0.2 0.36 0.29 a2.66 2.66 0 0 0 1.87 0.46 2.47 2.47 0 0 0 1.29-0.54 1.54 1.54 0 0 0 0.19-0.17h0.14c0.236 0.227 0.514 0.404 0.82 0.52 0.312 0.146 0.656 0.21 1 0.19h0.7V14H26a0.34 0.34 0 0 1 0.36 0.34 v0.51a0.34 0.34 0 0 1-0.36 0.35 H9.09a0.36 0.36 0 0 1-0.39-0.39v-0.47a0.34 0.34 0 0 1 0.35-0.34h0.23c0.03 0 0-0.16 0-0.25v-7c0.307 0.095 0.631 0.123 0.95 0.08 a2.43 2.43 0 0 0 1.18-0.44 4.39 4.39 0 0 0 0.36-0.28h0.11c0.286 0.268 0.627 0.47 1 0.59 0.266 0.096 0.547 0.144 0.83 0.14a2.58 2.58 0 0 0 1.81-0.69 0.81 0.81 0 0 0 0.11-0.15zm4.63 6.75h2.84c0.16 0 0.21-0.06 0.21 -0.22v-3.8c0-0.16-0.06-0.22-0.22-0.22h-5.66c-0.16 0-0.22 0.06 -0.22 0.22 v3.84c0 0.16 0.06 0.22 0.22 0.22l2.83-0.04zm-5.47-1.42v-2.5a0.36 0.36 0 0 0-0.36-0.36h-2.36a0.37 0.37 0 0 0-0.34 0.34 v5c0 0.09 0 0.12 0.12 0.12h2.81c0.13 0 0.13 0 0.13-0.12v-2.48z" fill="#FFF"/>
  <path d="M23.18 4.43a1.9 1.9 0 0 1-3.77 0 1.91 1.91 0 0 1-3.78 0 1.85 1.85 0 0 1-0.82 1.35 1.81 1.81 0 0 1-1.15 0.32 1.85 1.85 0 0 1-1.21-0.5 1.89 1.89 0 0 1-0.59-1.17c0 0.11 0 0.21-0.08 0.32 a1.76 1.76 0 0 1-0.85 1.09 1.72 1.72 0 0 1-1.08 0.26 A1.82 1.82 0 0 1 8.2 4.9a1 1 0 0 1-0.1-0.42 0.92 0.92 0 0 1 0.2-0.59c0.38-0.54 0.76 -1.09 1.16-1.63 0.4 -0.54 0.93 -1.26 1.4-1.91a0.8 0.8 0 0 1 0.7-0.35H23.4a0.87 0.87 0 0 1 0.6 0.16 c0.116 0.119 0.22 0.25 0.31 0.39 0.28 0.37 0.56 0.74 0.83 1.12 0.55 0.76 1.09 1.52 1.63 2.29a0.78 0.78 0 0 1 0.17 0.59 1.59 1.59 0 0 1-0.27 0.69 1.92 1.92 0 0 1-0.92 0.72 c-0.3 0.11 -0.624 0.141 -0.94 0.09 a1.9 1.9 0 0 1-1.14-0.58 1.61 1.61 0 0 1-0.45-0.9 0.78 0.78 0 0 0-0.04-0.14zM16 1.22h-2.68a0.17 0.17 0 0 0-0.1 0.07 c-0.33 0.68 -0.66 1.36-1 2-0.053 0.1 -0.103 0.21 -0.15 0.33 h3.62l0.31-2.4zm7 2.43v-0.1c-0.36-0.75-0.73-1.5-1.08-2.26a0.14 0.14 0 0 0-0.15-0.08H19l0.31 2.44H23zM13 11a0.58 0.58 0 0 1 0.59 0.61 0.6 0.6 0 0 1-1.19 0A0.6 0.6 0 0 1 13 11z" fill="#FFF"/>
</svg>
