<?xml version="1.0" ?>
<svg xmlns="http://www.w3.org/2000/svg" width="35" height="32" viewBox="0 0 35 32">
  <path d="M18.46 31.35V29v-0.64c0-0.62 0-1.25 0.09 -1.87a16.49 16.49 0 0 1 0.27-1.85A4.8 4.8 0 0 1 20 22.27 4.64 4.64 0 0 1 22 21a7.1 7.1 0 0 1 1.71-0.34 0.78 0.78 0 0 0 0.54-0.28 143.475 143.475 0 0 1 2.84-3.25 2.78 2.78 0 0 1 1.51-0.82 1.74 1.74 0 0 1 1.88 0.83 2.2 2.2 0 0 1 0.19 1.45 3.28 3.28 0 0 1-0.89 1.63c-0.85 0.92 -1.67 1.87-2.47 2.82a3.07 3.07 0 0 0-0.67 1.45 1.6 1.6 0 0 0 0 0.84l0.06 0.13 a0.39 0.39 0 0 0 0.14-0.08l2.26-2.57c0.6-0.68 1.22-1.34 1.82-2a3.6 3.6 0 0 0 0.91-1.81 5 5 0 0 0 0.17-1 2.94 2.94 0 0 0-0.43-1.5 0.59 0.59 0 0 1-0.09-0.32v-3.8a5.79 5.79 0 0 1 0.25-1.75 1.14 1.14 0 0 1 1.4-0.84 1.64 1.64 0 0 1 1.37 1.39 7.71 7.71 0 0 1 0.2 1.91v4.59a6.49 6.49 0 0 1-0.49 2.32 15.71 15.71 0 0 1-2.05 3.64 20.84 20.84 0 0 1-2 2.39 11 11 0 0 1-3 2.11 2 2 0 0 0-1.08 1.18 4 4 0 0 0-0.15 0.69 c0 0.4-0.05 0.81 -0.06 1.21 0 0.13 0 0.17-0.17 0.17 h-7.24v-0.04zM16.23 31.35H9c-0.15 0-0.19 0-0.2-0.19 0-0.4 0-0.81-0.06-1.21a2.22 2.22 0 0 0-1.34-1.91 11.08 11.08 0 0 1-3.74-3 24.2 24.2 0 0 1-1.78-2.34 13.92 13.92 0 0 1-1.39-2.61 5.76 5.76 0 0 1-0.43-1.69v-0.77-4.54a8.76 8.76 0 0 1 0.15-1.77A1.81 1.81 0 0 1 1 9.94a1.51 1.51 0 0 1 1.43-0.11c0.28 0.168 0.483 0.436 0.57 0.75 0.18 0.583 0.268 1.19 0.26 1.8v3.81a0.46 0.46 0 0 1 0 0.2 3.23 3.23 0 0 0-0.47 2 4.06 4.06 0 0 0 1 2.39L6.56 24l1.26 1.4c0.035 0.026 0.072 0.049 0.11 0.07 l0.07-0.12a2.23 2.23 0 0 0-0.18-1.46 4.06 4.06 0 0 0-0.88-1.33l-2.33-2.62A2.65 2.65 0 0 1 4 18.6a2 2 0 0 1 0.22-1.52 1.55 1.55 0 0 1 1.06-0.75 2.38 2.38 0 0 1 2.3 0.82 c1 1.09 2 2.23 2.94 3.35a0.62 0.62 0 0 0 0.46 0.16 7.08 7.08 0 0 1 2.08 0.48 4.32 4.32 0 0 1 2.46 2.43 6 6 0 0 1 0.41 1.61c0.07 0.65 0.17 1.3 0.2 2 0.06 1.35 0.09 2.71 0.13 4.07-0.02 0-0.03 0.04 -0.03 0.1 z" fill="#FFF"/>
  <path d="M30.32 15.33l-0.6-0.18-0.32-0.05c-0.1 0-0.14 0-0.14-0.16 0-0.81 0-1.61 0.08 -2.42a2.84 2.84 0 0 1 0.32-1.17 0.89 0.89 0 0 1 0.79-0.52c0.005 0.06 0.005 0.12 0 0.18 0 0.41-0.11 0.81 -0.12 1.21v2.91l-0.01 0.2 zM4.34 15.34v-0.61-2.62c0-0.36-0.08-0.72-0.12-1.08a1.21 1.21 0 0 1 0-0.2 0.82 0.82 0 0 1 0.73 0.42 c0.186 0.305 0.305 0.646 0.35 1a16.5 16.5 0 0 1 0.13 2.63c0 0.16 0 0.21-0.21 0.23 a5.28 5.28 0 0 0-0.66 0.16 l-0.22 0.07 zM20.23 9.79V18.86a3.44 3.44 0 0 1-0.13 1c-0.21 0.65 -0.47 0.81 -1.09 0.76 -0.44 0-0.68-0.29-0.81-0.91a5.07 5.07 0 0 1-0.12-1v-3.77c0-0.29-0.07-0.47-0.37-0.47s-0.38 0.19 -0.37 0.48 v4.29a2.62 2.62 0 0 1-0.3 1c-0.21 0.43 -0.62 0.45 -1 0.38a0.84 0.84 0 0 1-0.68-0.7 5.48 5.48 0 0 1-0.14-1.15V9.36a1.82 1.82 0 0 0-0.63 1.22c-0.13 0.48 -0.18 1-0.27 1.48a1.87 1.87 0 0 1-0.18 0.58 0.69 0.69 0 0 1-0.78 0.38 0.7 0.7 0 0 1-0.62-0.63 4.8 4.8 0 0 1 0.17-2.39 8.2 8.2 0 0 1 1.72-3 4.16 4.16 0 0 1 3.83-1.21 4.09 4.09 0 0 1 3 2.31 8.49 8.49 0 0 1 1.15 3.46 2.76 2.76 0 0 1 0 0.95 0.69 0.69 0 0 1-0.77 0.48 0.67 0.67 0 0 1-0.67-0.57c-0.16-0.57-0.26-1.17-0.43-1.74a7 7 0 0 0-0.43-1l-0.08 0.11 zM17.64 5.56a2.25 2.25 0 0 1-2.3-2.27 2.29 2.29 0 1 1 4.57 0 2.25 2.25 0 0 1-2.27 2.27z" fill="#FFF"/>
</svg>
