<?xml version="1.0" ?>
<svg xmlns="http://www.w3.org/2000/svg" width="28" height="36" viewBox="0 0 28 36">
  <path d="M13.67 35.53H2A1.86 1.86 0 0 1 0.08 34.2a1.91 1.91 0 0 1-0.08-0.63v-7.19-10.71A1.76 1.76 0 0 1 1 14a2.23 2.23 0 0 1 1-0.24h2.07c0.22 0 0.29-0.05 0.29 -0.29V9.13a9.2 9.2 0 0 1 3.47-7A8.73 8.73 0 0 1 10.87 0.41 9.29 9.29 0 0 1 14.35 0a9.61 9.61 0 0 1 4.27 1.38 9 9 0 0 1 3.63 4.15A7.88 7.88 0 0 1 23 8.5c0 1 0.05 2 0.07 2.94v2.07c0 0.18 0.06 0.23 0.23 0.23h2.12a1.81 1.81 0 0 1 1.74 1.08c0.106 0.26 0.164 0.539 0.17 0.82 v17.92a1.81 1.81 0 0 1-1.2 1.83 2.07 2.07 0 0 1-0.78 0.14 H13.67zm0-21.79h4.61c0.17 0 0.28 0 0.28-0.24V9.02a3.78 3.78 0 0 0-0.35-1.56 4.71 4.71 0 0 0-3.73-2.91 4.68 4.68 0 0 0-3.18 0.57 A4.67 4.67 0 0 0 8.79 9.4v4c0 0.23 0.05 0.3 0.3 0.3l4.58 0.04 zm-2.89 16.93h5.27c0.35 0 0.36 0 0.31-0.35-0.05-0.35-0.09-0.44-0.14-0.66-0.13-0.53-0.26-1.06-0.38-1.59s-0.22-1-0.34-1.53l-0.48-2c0-0.17 0.05 -0.24 0.19 -0.32a3.12 3.12 0 0 0-2.49-5.69 3.1 3.1 0 0 0-0.66 5.63 0.28 0.28 0 0 1 0.14 0.36 c-0.1 0.36 -0.2 0.73 -0.28 1.09-0.15 0.67 -0.29 1.34-0.44 2-0.19 0.82 -0.4 1.63-0.59 2.44l-0.11 0.62 z" fill="#FFF"/>
</svg>
