<?xml version="1.0" ?>
<svg xmlns="http://www.w3.org/2000/svg" width="44" height="26" viewBox="0 0 44 26">
  <path d="M29.17 18.47h14.16c0.33 0 0.33 0 0.33-0.33V1.5a2.45 2.45 0 0 0-0.1-0.66 1 1 0 0 0-1-0.74C40.06 0.07 37.54 0 35 0H21.77c-2 0-3.93 0.05 -5.9 0.08 a2.18 2.18 0 0 0-0.62 0.11 0.67 0.67 0 0 0-0.55 0.59 c0 0.42-0.07 0.83 -0.08 1.25v16.09c0 0.35 0 0.35 0.35 0.35h14.2zm-11.92 5.68v-0.33-2.84c0-0.2 0.06 -0.26 0.25 -0.26h3.3c0.22 0 0.3 0.07 0.29 0.3 v3.12h0.68V21.07c0-0.34 0-0.34 0.34 -0.34h3.57a0.32 0.32 0 0 0 0.32-0.19c0.19-0.31 0.4 -0.61 0.62 -0.9a2.9 2.9 0 0 1 0.38-0.34v-0.07H14.11c-0.23 0-0.31 0-0.31-0.3v-7.67-3.44c0-0.4-0.15-0.63-0.45-0.69a3.42 3.42 0 0 0-0.63-0.13h-5.9c-0.09 0-0.23 0.08 -0.24 0.15 -0.13 0.78 -0.24 1.57-0.35 2.36l-0.39 2.72c0 0.27-0.08 0.54 -0.13 0.83 H0.29c-0.19 0-0.28 0.06 -0.28 0.25 v0.16l0.09 8v0.21c0 0.07 0.09 0.23 0.26 0.21 0.17 -0.01 0.34 -0.01 0.51 0 0.18 0 0.24-0.06 0.29 -0.23a8.58 8.58 0 0 1 0.37-1.22 3.24 3.24 0 0 1 3-2 3.39 3.39 0 0 1 1.17 0.17 3.28 3.28 0 0 1 2.09 1.71c0.235 0.472 0.359 0.992 0.36 1.52H9.9c0.07-0.38 0.07 -0.38 0.45 -0.38h2.9c0.55 0 0.55 0 0.56-0.56 0-0.16 0-0.23 0.21 -0.22h2.26c0.18 0 0.23 0.06 0.23 0.23 v3c0 0.07 0.08 0.2 0.13 0.21 0.202 0.025 0.406 0.035 0.61 0.03zM4.62 19.42a3.12 3.12 0 0 0-1.72 0.47 3 3 0 0 0-1.18 3.54 3 3 0 0 0 3.7 1.89 2.75 2.75 0 0 0 2.21-2.54 2.92 2.92 0 0 0-3-3.36h-0.01zm27.6 3a2.87 2.87 0 0 0-2.95-3 3 3 0 0 0-0.09 6 2.88 2.88 0 0 0 3.04-2.99v-0.01zm7.55-0.16a2.92 2.92 0 0 0-3.44-2.83 2.86 2.86 0 0 0-2.63 3.2 3.04 3.04 0 1 0 6.07-0.37zm-0.88-3.06c0 0.05 0 0.09 0.06 0.12a3.62 3.62 0 0 1 1 1.27 0.29 0.29 0 0 0 0.22 0.13 h3c0.16 0 0.23-0.06 0.22 -0.22v-1c0-0.31-0.08-0.29-0.3-0.29h-4.2v-0.01zm-7.53 0l0.2 0.21 c0.243 0.225 0.452 0.484 0.62 0.77 a0.82 0.82 0 0 0 1 0.54c0.12 0 0.19 0 0.27-0.16 0.22 -0.36 0.48 -0.71 0.74 -1.06 0.093 -0.11 0.197 -0.21 0.31 -0.3h-3.14z" fill="#FFF"/>
  <path d="M29.17 18.47H15c-0.35 0-0.35 0-0.35-0.35V2.03c0-0.42 0.05 -0.83 0.08 -1.25a0.67 0.67 0 0 1 0.55-0.59c0.2-0.066 0.41 -0.104 0.62 -0.11 2 0 3.94-0.07 5.9-0.08H35c2.52 0 5 0.06 7.55 0.09 a1 1 0 0 1 1 0.74c0.063 0.214 0.097 0.436 0.1 0.66 v16.64c0 0.33 0 0.33-0.33 0.33 l-14.15 0.01 z" fill="#FFF"/>
  <path d="M17.25 24.15a4.07 4.07 0 0 1-0.61 0c-0.05 0-0.13-0.14-0.13-0.21v-2-1c0-0.17-0.05-0.24-0.23-0.23H14c-0.17 0-0.23 0.06 -0.21 0.22 0 0.56 0 0.56-0.56 0.56 h-2.9c-0.38 0-0.38 0-0.45 0.38 H8.11a3.43 3.43 0 0 0-0.36-1.52 3.28 3.28 0 0 0-2.09-1.71 3.39 3.39 0 0 0-1.17-0.17 3.24 3.24 0 0 0-2.95 2 8.58 8.58 0 0 0-0.37 1.22c0 0.17-0.11 0.25 -0.29 0.23 a4.34 4.34 0 0 0-0.51 0c-0.17 0-0.26 0-0.26-0.21v-0.21l-0.11-8v-0.16c0-0.05 0.09 -0.25 0.28 -0.25h5.43c0-0.29 0.1 -0.56 0.13 -0.83l0.39-2.72c0.11-0.79 0.22 -1.58 0.35 -2.36 0-0.07 0.15 -0.15 0.24 -0.15C7.76 7 8.7 7 9.64 7s2 0 3.08 0.07 c0.212 0.01 0.423 0.04 0.63 0.09 0.3 0.06 0.45 0.29 0.45 0.69 v11.11c0 0.25 0.08 0.3 0.31 0.3h12.87v0.07a2.9 2.9 0 0 0-0.36 0.34 c-0.22 0.29 -0.43 0.59 -0.62 0.9 a0.32 0.32 0 0 1-0.32 0.19 h-3.54c-0.34 0-0.34 0-0.34 0.34 V24.17h-0.7v-0.27-2.85c0-0.23-0.07-0.3-0.29-0.3h-3.3c-0.19 0-0.25 0.06 -0.25 0.26 v2.84l-0.01 0.3 zM10 13.08h2.4c0.15 0 0.23 0 0.23-0.21V8.62c0-0.62 0.06 -0.62-0.7-0.73L7.67 7.8c-0.2 0-0.27 0.07 -0.27 0.28 v4.75c0 0.19 0.06 0.25 0.25 0.25H10z" fill="#FFF"/>
  <path d="M4.62 19.42a2.92 2.92 0 0 1 3 3.36 2.75 2.75 0 0 1-2.21 2.54 3 3 0 0 1-3.7-1.89 3 3 0 0 1 1.19-3.54 3.12 3.12 0 0 1 1.72-0.47zm-2 3a1.91 1.91 0 0 0 2 2 2 2 0 1 0 0.07-4 1.92 1.92 0 0 0-2.09 2h0.02zM32.22 22.43a2.88 2.88 0 0 1-3 3 3 3 0 1 1 0.09-6 2.87 2.87 0 0 1 2.91 3zm-3-2a1.9 1.9 0 0 0-2 1.95 2 2 0 1 0 2-1.95zM39.77 22.27a3.04 3.04 0 0 1-6.07 0.37 2.86 2.86 0 0 1 2.63-3.2 2.92 2.92 0 0 1 3.44 2.83zm-3-1.82a1.9 1.9 0 0 0-2 1.94 2 2 0 1 0 4 0 1.91 1.91 0 0 0-2.02-1.94h0.02zM38.89 19.21H43c0.22 0 0.31 0.06 0.3 0.29 -0.01 0.23 0 0.69 0 1 0 0.16-0.06 0.22 -0.22 0.22 h-3a0.29 0.29 0 0 1-0.22-0.13 3.62 3.62 0 0 0-1-1.27s0.06-0.06 0.03 -0.11zM31.36 19.21h3.21a2.25 2.25 0 0 0-0.31 0.3 c-0.26 0.35 -0.52 0.7 -0.74 1.06-0.08 0.13 -0.15 0.17 -0.27 0.16 a0.82 0.82 0 0 1-1-0.54 3.38 3.38 0 0 0-0.62-0.77l-0.27-0.21z" fill="#FFF"/>
  <path d="M10 13.08H7.66c-0.19 0-0.26-0.06-0.25-0.25V8.08c0-0.21 0.07 -0.28 0.27 -0.28l4.26 0.09 c0.76 0.11 0.69 0.11 0.7 0.73 v4.25c0 0.18-0.08 0.21 -0.23 0.21 H10zM2.6 22.42a1.92 1.92 0 0 1 2.05-2 2 2 0 0 1-0.07 4 1.91 1.91 0 0 1-1.98-2zM29.2 20.45a1.91 1.91 0 0 1 2 2 2 2 0 1 1-4 0 1.9 1.9 0 0 1 2-2zM36.75 20.45a1.91 1.91 0 0 1 2 2 2 2 0 1 1-4 0 1.9 1.9 0 0 1 2-2zM37.26 6.84h1.06l1 0.08 0.56 0.07 0.58 0.11a1.08 1.08 0 0 1 0.97 1.14v0.69a1.47 1.47 0 0 1-0.89 1.32 5.49 5.49 0 0 0-1.64 1.14c-0.23 0.253 -0.5 0.466 -0.8 0.63 a2.59 2.59 0 0 1-0.6 0.24 0.72 0.72 0 0 0-0.19 0.11 2.73 2.73 0 0 0-0.49 0.47 0.79 0.79 0 0 0-0.17 0.49 v0.7l-0.06 0.87 -0.06 0.86 v0.44a0.19 0.19 0 0 1-0.1 0.16 c-0.16 0.06 -0.32 0.15 -0.49 0.22 a0.1 0.1 0 0 1-0.09 0l-0.36-0.26a0.33 0.33 0 0 1-0.07-0.13v-0.66c0-0.22-0.05-0.68-0.08-1v-0.46-0.68a1 1 0 0 0-0.05-0.24 0.37 0.37 0 0 0-0.27-0.18h-0.17l-0.45 0.08 -0.53 0.11 a0.33 0.33 0 0 1-0.17 0l-1.36-0.51-1.2-0.43-1.35-0.51-1.45-0.52-0.2-0.08c-0.06 0-0.06 0-0.06-0.09V9.4a0.53 0.53 0 0 1 0.51-0.5h0.42a0.79 0.79 0 0 0 0.7-0.31A2 2 0 0 0 29.8 8a2 2 0 0 1 0.09-0.22 0.41 0.41 0 0 1 0.3-0.19l0.56-0.08a0.52 0.52 0 0 0 0.44-0.23l3.15-3.38 0.81 -0.9a0.72 0.72 0 0 1 0.51-0.24h0.81c0.202 0.001 0.4 0.049 0.58 0.14 a0.72 0.72 0 0 1 0.4 0.44 c0.06 0.16 0.13 0.3 0.19 0.45 a0.9 0.9 0 0 0 0.43 0.41 l0.22 0.13 c0.14 0.09 0.24 0.229 0.28 0.39 0.06 0.216 0.06 0.444 0 0.66a1.84 1.84 0 0 1-0.69 1.09 2.05 2.05 0 0 1-0.56 0.31 l-0.06 0.06 zm-0.44 1.92c0-0.17-0.1-0.33-0.16-0.48-0.15-0.39-0.3-0.77-0.44-1.16-0.14-0.39-0.31-0.83-0.47-1.25-0.16-0.42-0.31-0.82-0.47-1.23a0.24 0.24 0 0 1 0.11-0.27 0.25 0.25 0 0 1 0.37 0.15 l0.31 0.78 c0.14 0.32 0.28 0.65 0.41 1 0.13 0.35 0.26 0.61 0.38 0.92 0.12 0.31 0.24 0.57 0.35 0.85 0.11 0.28 0.17 0.38 0.26 0.56 0 0 0 0.05 0.06 0.05 0.2 0.009 0.398 -0.029 0.58 -0.11l0.4-0.25c0.25-0.152 0.524 -0.26 0.81 -0.32a0.81 0.81 0 0 0 0.38-0.19c0.12-0.1 0.11 -0.23 0-0.29a1.29 1.29 0 0 0-0.38-0.12 5.09 5.09 0 0 0-0.55 0h-1.43a0.08 0.08 0 0 1-0.1-0.06c-0.19-0.46-0.38-0.93-0.58-1.39L36 4.38a0.54 0.54 0 0 0-0.84-0.2 0.48 0.48 0 0 0-0.16 0.5 l0.09 0.3 c0.1 0.26 0.2 0.51 0.29 0.76 l0.29 0.75 c0.08 0.23 0.17 0.47 0.26 0.7 0.09 0.23 0.07 0.18 0.1 0.28 h-0.36l-1 0.09-0.76 0.09 -0.87 0.12 -0.87 0.13 L32 8h0.06l0.49 0.13 0.49 0.13 0.5 0.14 0.49 0.13 0.5 0.14 0.52 0.14 a1.3 1.3 0 0 0 0.33 0.07 c0.16 0.01 0.32 0.01 0.48 0l0.77-0.09 0.19 -0.03zm-6 1.77l-0.38-0.13a0.52 0.52 0 0 0-0.3-0.05l-0.47 0.09 -0.05 0.05 a1.62 1.62 0 0 0 0 0.22 0.08 0.08 0 0 0 0 0.06l0.42 0.16 c0.13 0.05 0.13 0.05 0.14-0.1 0.01 -0.15 0-0.13 0.11 -0.15l0.53-0.15zm2 0.73a1.84 1.84 0 0 0-0.25-0.09c-0.13 0-0.24-0.1-0.39-0.05a4 4 0 0 1-0.69 0.14 s-0.07 0-0.06 0.08 c0.01 0.08 0 0.1 0.05 0.13l0.5 0.18 c0.14 0.06 0.14 0.06 0.14-0.1a0.15 0.15 0 0 1 0.09-0.14 0.61 0.61 0 0 1 0.13 0l0.48-0.15zm-3.54-0.65a2.43 2.43 0 0 0 0-0.27 0.13 0.13 0 0 1 0.1-0.14l0.24-0.07h-0.08l-0.1-0.13a0.91 0.91 0 0 0-0.54 0 0.28 0.28 0 0 0-0.12 0 0.31 0.31 0 0 0-0.12 0.34 h0.05l0.38 0.15 0.19 0.12 zm1.85 0.7 v-0.2a0.1 0.1 0 0 1 0.09-0.11h0.18l0.35-0.07a1.57 1.57 0 0 1-0.28-0.1 0.37 0.37 0 0 0-0.29 0H31l-0.44 0.1 c-0.05 0-0.07 0-0.07 0.1 s0 0.09 0.07 0.1l0.3 0.11 0.27 0.07 zm2 0.75a1.62 1.62 0 0 0 0-0.23 0.18 0.18 0 0 1 0.13-0.19h0.13l0.21-0.07a0.67 0.67 0 0 0-0.19 0h-0.31l-0.59 0.12 h-0.07v0.13l0.38 0.15 0.31 0.09 z" fill="#0CAF61"/>
  <path d="M40.35 10.73v0.51c0 0.42 0 0.84-0.07 1.25-0.07 0.41 0 0.65 0 1a0.39 0.39 0 0 1-0.19 0.36 2.15 2.15 0 0 0-0.24 0.18 0.09 0.09 0 0 1-0.12 0l-0.36-0.28a0.18 0.18 0 0 1 0-0.12v-0.54l-0.09-1v-0.49a0.15 0.15 0 0 1 0-0.09 3.32 3.32 0 0 1 1-0.72l0.07-0.06zM29.64 12l0.32 0.12 0.77 0.28 h0.08s0.05 0 0.05 0.06 c0 0.19 0 0.39-0.05 0.58 v0.69c0 0.2 0 0.42-0.05 0.62 0 0 0 0.06-0.05 0.06 l-0.36 0.1 a0.11 0.11 0 0 1-0.08 0l-0.37-0.25a0.16 0.16 0 0 1-0.05-0.09c0-0.36 0-0.72-0.07-1.08l-0.06-0.9a1 1 0 0 0-0.08-0.19zM33.61 14.23v0.64a0.16 0.16 0 0 1 0 0.1l-0.45 0.34 a0.11 0.11 0 0 1-0.14 0c-0.1-0.05-0.21-0.09-0.31-0.15a0.08 0.08 0 0 1 0-0.08 0.1 0.1 0 0 1 0.06-0.07l0.53-0.25c0.07 0 0.08-0.07 0.08 -0.14v-1.16s0-0.05 0.07 0l0.17 0.06 s0.08 0 0.08 0.1 c-0.1 0.18 -0.09 0.38 -0.09 0.61 zM32.62 13.15c0.082 0.02 0.163 0.046 0.24 0.08 a0.07 0.07 0 0 1 0 0.06v1.33c0 0.06 0 0.07-0.07 0.09 l-0.51 0.18 a0.38 0.38 0 0 1-0.18 0l-0.3-0.11s-0.07-0.05-0.05-0.09a0.12 0.12 0 0 1 0.07-0.07l0.52-0.09h0.19a0.15 0.15 0 0 0 0-0.07v-1.23s0.09-0.05 0.09 -0.08z" fill="#0CAF61"/>
  <path d="M36.82 8.76h-0.18l-0.77 0.09 c-0.16 0.01 -0.32 0.01 -0.48 0a1.3 1.3 0 0 1-0.33-0.07l-0.52-0.14-0.54-0.09-0.49-0.13-0.5-0.14-0.49-0.13-0.45-0.15H32h0.19l0.87-0.13 0.87 -0.12 0.76 -0.09 1-0.09h0.36c0-0.1-0.07-0.19-0.1-0.28-0.03-0.09-0.18-0.47-0.26-0.7l-0.29-0.75c-0.09-0.25-0.19-0.5-0.29-0.76l-0.11-0.4a0.48 0.48 0 0 1 0.16-0.5 0.54 0.54 0 0 1 0.84 0.2 l0.66 1.56c0.2 0.46 0.39 0.93 0.58 1.39a0.08 0.08 0 0 0 0.1 0.06 h1.39c0.183-0.01 0.367 -0.01 0.55 0 0.132 0.02 0.26 0.06 0.38 0.12 0.15 0.06 0.16 0.19 0 0.29a0.81 0.81 0 0 1-0.38 0.19 2.58 2.58 0 0 0-0.81 0.27 l-0.4 0.25 a1.28 1.28 0 0 1-0.58 0.11 s-0.05 0-0.06-0.05a9.57 9.57 0 0 1-0.26-0.56c-0.08-0.19-0.23-0.57-0.35-0.85-0.12-0.28-0.25-0.61-0.38-0.92-0.13-0.31-0.27-0.66-0.41-1l-0.31-0.78a0.25 0.25 0 0 0-0.37-0.15 0.24 0.24 0 0 0-0.11 0.27 c0.16 0.41 0.32 0.82 0.47 1.23 0.15 0.41 0.31 0.84 0.47 1.25 0.16 0.41 0.29 0.77 0.44 1.16 0.1 0.21 0.15 0.37 0.2 0.54zM30.81 10.53l-0.48 0.13 c-0.08 0-0.11 0.06 -0.11 0.15 s0 0.15-0.14 0.1 l-0.42-0.16a0.08 0.08 0 0 1 0-0.06 1.62 1.62 0 0 1 0-0.22l0.05-0.05 0.47 -0.09a0.52 0.52 0 0 1 0.3 0.05 l0.38 0.13 -0.05 0.02 zM32.85 11.26l-0.48 0.1 a0.61 0.61 0 0 0-0.13 0 0.15 0.15 0 0 0-0.09 0.14 c0 0.16 0 0.16-0.14 0.1 l-0.5-0.18c-0.08 0-0.05-0.09-0.05-0.13 0-0.04 0-0.07 0.06 -0.08a4 4 0 0 0 0.69-0.14c0.15 0 0.26 0 0.39 0.05 0.085 0.024 0.169 0.054 0.25 0.09 v0.05zM29.31 10.61l-0.22-0.07-0.38-0.15h-0.05a0.31 0.31 0 0 1 0.12-0.34 0.28 0.28 0 0 1 0.12 0 0.91 0.91 0 0 1 0.54 0.07 l0.13 0.05 h0.08l-0.24 0.07 a0.13 0.13 0 0 0-0.1 0.14 2.43 2.43 0 0 1 0 0.23zM31.16 11.31l-0.27-0.09-0.3-0.11c-0.05 0-0.07 0-0.07-0.1s0-0.09 0.07 -0.1l0.44-0.1h0.18a0.37 0.37 0 0 1 0.29 0c0.09 0.042 0.184 0.076 0.28 0.1 l-0.35 0.07 h-0.18a0.1 0.1 0 0 0-0.09 0.11 v0.22zM33.16 12.06l-0.28-0.1-0.38-0.15c-0.08 0 0-0.08 0-0.13s0 0 0.07 0l0.59-0.12h0.31a0.67 0.67 0 0 1 0.19 0l-0.21 0.07 h-0.13a0.18 0.18 0 0 0-0.13 0.19 1.62 1.62 0 0 1-0.03 0.24 z" fill="#FFF"/>
</svg>
