<?xml version="1.0" ?>
<svg xmlns="http://www.w3.org/2000/svg" width="35" height="30" viewBox="0 0 35 30">
  <path d="M14.61 23.49c0.29 0.37 0.48 0.64 0.71 0.88 0.266 0.295 0.561 0.563 0.88 0.8 0.11 0.08 0.35 0 0.54-0.05 0-0.16 0-0.37-0.14-0.48-0.49-0.53-0.57-1 0.1-1.45a1.69 1.69 0 0 0 0.48-1c0-0.17-0.17-0.4-0.26-0.6a2.22 2.22 0 0 0-0.59 0.38 c-0.12 0.17 -0.1 0.44 -0.19 0.65 a3.47 3.47 0 0 1-0.37 0.51 3.25 3.25 0 0 1-0.5-0.4c-0.22-0.25-0.34-0.62-0.6-0.8a3.48 3.48 0 0 0-1-0.32c0.035 0.256 0.11 0.506 0.22 0.74 0.29 0.41 0.51 0.76 -0.11 1.07a0.42 0.42 0 0 0-0.23 0.24 c-0.13 0.45 -0.25 0.91 -0.34 1.37 0 0 0.35 0.15 0.37 0.12 0.22-0.31 0.4 -0.64 0.59 -1l0.44-0.66zm13.06 1.7h1.46c0.1 0 0.18-0.24 0.27 -0.37-0.79-0.33-0.13-0.72 0-1.05 0.39 -1.07 0.12 -1.92-0.78-2.09a8 8 0 0 0-1.69 0c-0.1 0-0.2 0.15 -0.31 0.24 0.1 0.09 0.18 0.24 0.3 0.27 0.222 0.035 0.446 0.055 0.67 0.06 0.8 0.09 1 0.4 0.91 1.2a1.27 1.27 0 0 1-1.31 1.27c-0.26 0-0.53 0-0.79 0.05 -0.11 0-0.19 0.18 -0.28 0.28 0.11 0.07 0.22 0.19 0.33 0.2 0.39-0.05 0.81 -0.06 1.22-0.06zm-16.5-3.61l-0.56 0.26 c0.207 0.106 0.405 0.23 0.59 0.37 0.17 0.16 0.39 0.37 0.4 0.56 a1.74 1.74 0 0 1-1.39 1.93c-0.14 0-0.23 0.25 -0.34 0.38 0.164 0.065 0.335 0.112 0.51 0.14 a0.63 0.63 0 0 0 0.42-0.14c0.33-0.32 0.54 -0.43 0.94 0 0.23 0.28 0.7 0.1 0.71-0.47 0.01 -0.57 0.08 -1.13 0.15 -1.69 0.14 -1.04-0.11-1.33-1.43-1.34zm9.93 0a4.17 4.17 0 0 0-0.79 0 3.65 3.65 0 0 0-0.67 0.25 c0.19 0.139 0.399 0.25 0.62 0.33 0.333 0.02 0.667 0.02 1 0 0.85 0.06 1.17 0.5 0.8 1.26a5.4 5.4 0 0 1-1 1.15 4.8 4.8 0 0 0-0.32 0.43 c0.2 0 0.48 0.16 0.59 0.07 a5.61 5.61 0 0 0 1.59-1.33c0.74-1.22 0.15 -2.14-1.27-2.19l-0.55 0.03 zm-14.93 0c-0.15-0.01-0.3-0.01-0.45 0-0.42 0.06 -0.84 0.14 -1.26 0.22 0.22 0.7 0.81 0.33 1.23 0.37 0.42 0.04 0.65 0.22 0.55 0.72 -0.12 0.587 -0.2 1.182-0.24 1.78 0 0.16 0.14 0.45 0.27 0.47a0.62 0.62 0 0 0 0.56-0.2 2.7 2.7 0 0 0 0.2-0.86 8.12 8.12 0 0 1 0.3-1.66c0.35-0.86 0.41 -0.84-0.6-0.84h-0.56zm18.2 3.61c0.72 0.16 1.11-0.19 1.17-1 0-0.56 0.2 -1.11 0.19 -1.67a1 1 0 0 0-0.43-0.8 3.6 3.6 0 0 0-1.19-0.06v0.44c0.86 0.2 0.59 0.84 0.5 1.35-0.09 0.51 0 1.29-0.92 1.24-0.12 0-0.24 0.2 -0.37 0.31 0.15 0.077 0.307 0.138 0.47 0.18 0.192 0.028 0.387 0.031 0.58 0.01 zM9.62 22c0-0.07-0.23-0.41-0.3-0.39-0.25 0.07 -0.6 0.24 -0.64 0.43 a23 23 0 0 0-0.36 2.35c0 0.3-0.27 0.77 0.31 0.73 a0.92 0.92 0 0 0 0.62-0.58c0.17-0.75 0.24 -1.54 0.37 -2.54zm10.8 1.31l-0.22-0.48c-0.23 0.2 -0.6 0.35 -0.66 0.59 a12.26 12.26 0 0 0-0.31 2.09 2 2 0 0 0 0.22 0.73 c0.22-0.21 0.55 -0.39 0.62 -0.64 0.17 -0.66 0.22 -1.38 0.35 -2.27v-0.02zM0 10.67c1.32-0.94 2.61-1.94 4-2.81a7.7 7.7 0 0 1 4.28-1.3A3.44 3.44 0 0 1 12 10.35a42.27 42.27 0 0 1-0.71 4.58c-0.12 0.71 -0.29 1.41-0.34 2.12 0 0.28 0.17 0.75 0.37 0.82a1 1 0 0 0 0.87-0.32c0.82-1 1.58-2 2.36-3.05 0.29 -0.37 0.08 -0.52-0.26-0.63a14.42 14.42 0 0 1-1.38-0.52c-0.12 0-0.16-0.27-0.24-0.41a1 1 0 0 1 0.4-0.1c0.41 0.073 0.81 0.184 1.2 0.33 0.83 0.36 1.27 0 1.74-0.67 1.56-2.23 3.19-4.41 4.81-6.6A15.36 15.36 0 0 1 28.59 0h2.5l0.5 0.25 c1.62 0.73 2 2.07 0.87 3.47a8.88 8.88 0 0 1-1.74 1.61c-1 0.77-2.12 1.44-3.18 2.17a1.79 1.79 0 0 0-0.33 0.39 c0.15 0.01 0.3 0.01 0.45 0 0.94 0 1.88-0.19 2.82-0.16 1.44 0 2.78 0.36 3.56 1.77v1.82c-1 1.88-2.69 2.67-4.59 3.16a25.67 25.67 0 0 1-10.79 0.32 2.18 2.18 0 0 0-2.51 0.84 A14.28 14.28 0 0 1 14 17.79a4.43 4.43 0 0 1-0.84 0.57 2.36 2.36 0 0 1-2.46 0.25 c-0.85-0.5-0.79-1.41-0.77-2.23 0.02 -0.82 0.15 -1.5 0.21 -2.25a16.15 16.15 0 0 0 0.1-1.7c0-2.54-1.53-3.84-4.09-3.68a11.44 11.44 0 0 0-4.77 1.66 9.53 9.53 0 0 1-1.38 0.48 v-0.22zm22 3.49v-0.11c0.83 0 1.67 0.06 2.49 0a10.48 10.48 0 0 0 5-1.33c1.14-0.79 1.81-1.9 1.51-2.72-0.47-1.2-1.57-1.38-2.63-1.37-1.06 0.01 -2.25 0.27 -3.37 0.37 a3.27 3.27 0 0 1-0.44 0 1.52 1.52 0 0 1 0.25-0.43c1.27-1.17 2.6-2.3 3.81-3.57a14.21 14.21 0 0 0 1.91-2.51c0.21-0.34 0.25 -1.15 0-1.31A1.94 1.94 0 0 0 29.12 1a3.23 3.23 0 0 0-1.26 0.73 A13.93 13.93 0 0 0 26 3.57c-2.6 3.19-5.14 6.43-7.72 9.63-0.44 0.55 -0.21 0.7 0.33 0.74 l3.39 0.22 zM18.61 29.73c0.05-0.67 0.06 -1.34 0.17 -2 0.11-0.66 0.44 -0.83 1.33-0.69 0.63 0.09 0.7 0.38 0.64 1-0.06 0.62 0 1.24-0.55 1.68l-1.59 0.01 zm0.92-1.44l0.6-0.47c-0.11-0.08-0.23-0.23-0.32-0.22a0.64 0.64 0 0 0-0.41 0.26 c-0.05 0.08 0.07 0.26 0.13 0.43 zm0.21 0.2 l-0.43 0.32 c0.09 0.09 0.21 0.28 0.26 0.26 a2.33 2.33 0 0 0 0.51-0.28l-0.34-0.3zM23.83 29.73c0.07-0.71 0.13 -1.43 0.24 -2.13a1.76 1.76 0 0 1 0.3-0.53c0.15 0.1 0.31 0.18 0.45 0.29 0.071 0.09 0.138 0.183 0.2 0.28 l0.59 0.64 a7.81 7.81 0 0 1 0.29-0.81 2 2 0 0 1 0.32-0.39c0.08 0.18 0.24 0.36 0.22 0.53 -0.09 0.71 -0.23 1.41-0.34 2.12h-0.46a0.76 0.76 0 0 0-0.08-0.21l-0.95-1.18-0.33 1.39h-0.45zM12 29.73a2 2 0 0 1-0.29-1.73c0.22-0.57 0.56 -1 1.19-1 0.4 0 1.06 0.14 1.16 0.39 A2.83 2.83 0 0 1 14 29c-0.06 0.28 -0.42 0.49 -0.65 0.73 H12zM13.67 28c-0.13-0.11-0.37-0.47-0.62-0.49-0.55 0-0.75 0.41 -0.8 0.91 -0.05 0.5 0.13 0.77 0.62 0.75 0.49-0.02 0.76 -0.39 0.8 -1.17zM7.49 29.73c0.06-0.75 0.12 -1.49 0.21 -2.23 0-0.16 0.16 -0.4 0.27 -0.41a0.75 0.75 0 0 1 0.44 0.26 c0.27 0.31 0.5 0.65 0.75 1 0.13-0.36 0.26 -0.72 0.41 -1.07a0.44 0.44 0 0 1 0.23-0.18c0.1 0.08 0.25 0.21 0.24 0.3 -0.08 0.78 -0.18 1.57-0.28 2.35H9.3a2.68 2.68 0 0 0-0.18-0.28l-0.87-1.1-0.31 1.38-0.45-0.02zM14.75 29.73c0.05-0.71 0.09 -1.42 0.17 -2.13 0-0.19 0.2 -0.35 0.3 -0.53 0.187 0.11 0.362 0.241 0.52 0.39 0.24 0.27 0.45 0.58 0.68 0.88 0.12 -0.33 0.23 -0.66 0.37 -1 0.05-0.11 0.2 -0.17 0.31 -0.25 0.06 0.13 0.18 0.26 0.17 0.37-0.07 0.75 -0.17 1.5-0.25 2.25h-0.45c-0.09-0.12-0.16-0.25-0.25-0.36l-0.82-1-0.3 1.37-0.45 0.01 zM5 29.73c-0.82-0.76-0.26-1.62-0.18-2.45 0-0.07 0.2 -0.16 0.32 -0.17 0.12 -0.01 0.18 0.15 0.17 0.23a8.71 8.71 0 0 0-0.08 1.13c0 0.24 0.25 0.46 0.38 0.69 0.26 -0.17 0.62 -0.29 0.73 -0.53 0.12 -0.396 0.206 -0.8 0.26 -1.21 0-0.13 0.23 -0.22 0.35 -0.33 0.06 0.12 0.19 0.24 0.18 0.35a3.21 3.21 0 0 1-0.77 2.29H5zM26.78 29.73c0.09-0.75 0.17 -1.5 0.3 -2.24 0-0.15 0.21 -0.28 0.32 -0.41 0.09 0.1 0.24 0.19 0.25 0.29 0 0.43 0.2 0.43 0.48 0.18a5.7 5.7 0 0 1 0.62-0.48c0.08-0.05 0.22 0 0.33 0 0.11 0 0 0.24 0 0.27-1.08 0.66 -0.53 1.35-0.06 2a0.84 0.84 0 0 1 0.07 0.33 h-0.68l-0.61-1-0.53 1-0.49 0.06 zM20.88 29.73c0.38-0.78 0.74 -1.56 1.15-2.33a0.67 0.67 0 0 1 0.51-0.33c0.14 0 0.33 0.27 0.37 0.45 0.18 0.73 0.31 1.47 0.46 2.21h-0.45c-0.6-0.83-0.84-0.83-1.59 0h-0.45zM22.3 28a1.71 1.71 0 0 0-0.19 0.44 c0 0.06 0.18 0.12 0.27 0.19a1.4 1.4 0 0 0 0.11-0.37c0-0.1-0.1-0.18-0.19-0.26zM10.44 29.73c0.08-0.74 0.14 -1.48 0.25 -2.21 0-0.16 0.25 -0.29 0.39 -0.43 0.085 0.176 0.14 0.365 0.16 0.56-0.09 0.69 -0.23 1.38-0.35 2.08h-0.45z" fill="#FFF"/>
  <path d="M14.61 23.49l-0.43 0.71 c-0.19 0.32 -0.37 0.65 -0.59 1 0 0-0.37-0.11-0.37-0.12 0.09 -0.46 0.21 -0.92 0.34 -1.37a0.42 0.42 0 0 1 0.23-0.24c0.62-0.31 0.4 -0.66 0.11 -1.07a2.54 2.54 0 0 1-0.22-0.74 3.48 3.48 0 0 1 1 0.32c0.26 0.18 0.38 0.55 0.6 0.8 0.153 0.15 0.32 0.283 0.5 0.4 a3.47 3.47 0 0 0 0.37-0.51c0.09-0.21 0.07 -0.48 0.19 -0.65a2.22 2.22 0 0 1 0.59-0.38c0.09 0.2 0.3 0.43 0.26 0.6 a1.69 1.69 0 0 1-0.48 1c-0.67 0.49 -0.59 0.92 -0.1 1.45 0.1 0.11 0.09 0.32 0.14 0.48-0.19 0-0.43 0.13 -0.54 0.05 a6.06 6.06 0 0 1-0.88-0.8c-0.24-0.29-0.43-0.56-0.72-0.93zM27.67 25.19h-1.24c-0.11 0-0.22-0.13-0.33-0.2 0.09 -0.1 0.17 -0.25 0.28 -0.28 0.26 -0.05 0.53 0 0.79-0.05a1.27 1.27 0 0 0 1.31-1.27c0.12-0.8-0.11-1.11-0.91-1.2a4.91 4.91 0 0 1-0.67-0.06c-0.12 0-0.2-0.18-0.3-0.27 0.11 -0.09 0.21 -0.24 0.31 -0.24a8 8 0 0 1 1.69 0c0.9 0.17 1.17 1 0.78 2.09-0.11 0.33 -0.77 0.72 0 1.05-0.09 0.13 -0.17 0.36 -0.27 0.37 h-1.46l0.02 0.06 zM11.17 21.58c1.32 0 1.57 0.3 1.43 1.36-0.07 0.56 -0.13 1.13-0.15 1.69-0.02 0.56 -0.48 0.75 -0.71 0.47 -0.4-0.45-0.61-0.34-0.94 0a0.63 0.63 0 0 1-0.42 0.14 2.42 2.42 0 0 1-0.51-0.14c0.11-0.13 0.2 -0.34 0.34 -0.38a1.74 1.74 0 0 0 1.39-1.93c0-0.19-0.23-0.4-0.4-0.56a3.92 3.92 0 0 0-0.59-0.37l0.56-0.28zM21.1 21.58h0.56c1.42 0.05 2 1 1.27 2.19a5.61 5.61 0 0 1-1.59 1.33c-0.11 0.09 -0.39 0-0.59-0.07a4.8 4.8 0 0 1 0.32-0.43 5.4 5.4 0 0 0 1-1.15c0.37-0.76 0.05 -1.2-0.8-1.26a8.43 8.43 0 0 1-1 0 2.48 2.48 0 0 1-0.62-0.33 3.65 3.65 0 0 1 0.67-0.25 4.17 4.17 0 0 1 0.78-0.03zM6.17 21.58h0.56c1 0 0.95 0 0.6 0.84 A8.12 8.12 0 0 0 7 24.08a2.7 2.7 0 0 1-0.2 0.86 0.62 0.62 0 0 1-0.56 0.2 c-0.13 0-0.29-0.31-0.27-0.47 0.04 -0.598 0.12 -1.193 0.24 -1.78 0.1 -0.5-0.06-0.66-0.55-0.72-0.49-0.06-1 0.33-1.23-0.37 0.42 -0.08 0.84 -0.16 1.26-0.22 0.16 -0.011 0.32 -0.011 0.48 0zM24.37 25.19a2.31 2.31 0 0 1-0.54 0 2.27 2.27 0 0 1-0.47-0.18c0.13-0.11 0.25 -0.32 0.37 -0.31 0.94 0 0.83-0.7 0.92 -1.24 0.09 -0.54 0.36 -1.15-0.5-1.35v-0.44a3.6 3.6 0 0 1 1.19 0.06 1 1 0 0 1 0.43 0.8 c0 0.56-0.15 1.11-0.19 1.67-0.1 0.8 -0.49 1.15-1.21 0.99 zM9.62 22c-0.13 1-0.2 1.77-0.37 2.54a0.92 0.92 0 0 1-0.62 0.58 c-0.58 0-0.35-0.43-0.31-0.73a23 23 0 0 1 0.36-2.35c0-0.19 0.39 -0.36 0.64 -0.43 0.07 0 0.25 0.39 0.3 0.39 z" fill="#FFF"/>
  <path d="M20.42 23.33c-0.13 0.89 -0.18 1.61-0.35 2.29-0.07 0.25 -0.4 0.43 -0.62 0.64 a2 2 0 0 1-0.22-0.73 12.26 12.26 0 0 1 0.31-2.09c0.06-0.24 0.43 -0.39 0.66 -0.59l0.22 0.48 z" fill="#FFF"/>
</svg>
