<?xml version="1.0" ?>
<svg xmlns="http://www.w3.org/2000/svg" width="21" height="36" viewBox="0 0 21 36">
  <path d="M20.22 17.9v15.51a2.58 2.58 0 0 1-0.55 1.67 1.81 1.81 0 0 1-1.32 0.68 2.26 2.26 0 0 1-0.26 0H2.14a2 2 0 0 1-2-1.37 2.29 2.29 0 0 1-0.14-0.85V7.5 2.26A2.33 2.33 0 0 1 0.76 0.46 1.82 1.82 0 0 1 1.89 0h16.22A1.94 1.94 0 0 1 20 1.34c0.111 0.284 0.169 0.585 0.17 0.89 V17.9h0.05zM2 17.2v13.24c0 0.23 0 0.23 0.22 0.23H17.9c0.22 0 0.22 0 0.22-0.22V6.29 3.96c0-0.14 0-0.19-0.18-0.19H2.31c-0.32 0-0.29 0-0.29 0.3 L2 17.2zm6.82 16a1.4 1.4 0 0 0 1.43 1.44 1.42 1.42 0 0 0 1.45-1.43 1.44 1.44 0 0 0-1.44-1.43 1.42 1.42 0 0 0-1.42 1.39l-0.02 0.03 zM10 1.66H8.61c-0.14 0-0.22 0-0.2 0.19 a2.09 2.09 0 0 1 0 0.25c0 0.19 0 0.21 0.21 0.21h2.76c0.14 0 0.19-0.05 0.19 -0.19a1.31 1.31 0 0 1 0-0.28c0-0.14-0.05-0.18-0.18-0.18H10z" fill="#FFF"/>
</svg>
