<?xml version="1.0" ?>
<svg xmlns="http://www.w3.org/2000/svg" width="21" height="31" viewBox="0 0 21 31">
  <path d="M9.6 1.5v1.17c0 0.23 0.1 0.33 0.29 0.33 0.19 0 0.3-0.11 0.3 -0.33V0.34a0.31 0.31 0 0 0-0.3-0.34c-0.18 0-0.29 0.13 -0.29 0.34 V1.5zm7.85 1.8a0.31 0.31 0 0 0-0.2-0.28 0.28 0.28 0 0 0-0.31 0.07 l-1.7 1.72a0.27 0.27 0 0 0 0 0.42 0.31 0.31 0 0 0 0.43 0l1.67-1.68a1.24 1.24 0 0 0 0.11-0.25zM13.72 0.52 a0.26 0.26 0 0 0-0.26 0.21 c-0.09 0.27 -0.17 0.53 -0.25 0.8 -0.15 0.49 -0.29 1-0.44 1.48a0.29 0.29 0 0 0 0.19 0.4 0.28 0.28 0 0 0 0.35-0.2c0.11-0.33 0.21 -0.67 0.31 -1L14 0.92a0.28 0.28 0 0 0-0.28-0.4zM3.14 2.43a1.78 1.78 0 0 0-0.14 0.08 0.3 0.3 0 0 0 0 0.48l0.82 0.92 0.76 0.84 a0.26 0.26 0 0 0 0.42 0 0.31 0.31 0 0 0 0-0.42l-0.16-0.18c-0.47-0.52-0.93-1-1.4-1.55a1.12 1.12 0 0 0-0.3-0.17zM6.31 0.48 c-0.22 0-0.34 0.21 -0.24 0.44 0.19 0.44 0.38 0.88 0.58 1.32 0.13 0.29 0.27 0.58 0.4 0.88a0.29 0.29 0 0 0 0.533-0.042 0.27 0.27 0 0 0-0.023-0.208c-0.08-0.2-0.17-0.4-0.26-0.6L6.58 0.65 a0.25 0.25 0 0 0-0.27-0.17zM8.57 10.76L5.71 7l1.17-2L7 4.79a0.42 0.42 0 0 1 0.42-0.22h5.21a0.34 0.34 0 0 1 0.32 0.17 l0.9 1.45c0.15 0.24 0.31 0.47 0.47 0.7 a0.19 0.19 0 0 1 0 0.28l-2.04 2.46-0.83 1-0.07 0.09 A9.93 9.93 0 0 1 19 16.13a9.64 9.64 0 0 1-0.1 9.34A10 10 0 0 1 2.22 27a10.07 10.07 0 0 1 0.21-12.87 10 10 0 0 1 6.14-3.37zM10.06 13a7.4 7.4 0 1 0-0.04 14.8 7.4 7.4 0 0 0 0.04-14.8zm9.6 7.45c0-0.26 0-0.53-0.08-0.79-0.06-0.41-0.1-0.83-0.2-1.23a13 13 0 0 0-0.45-1.43 8.27 8.27 0 0 0-1.26-2.22 9.62 9.62 0 0 0-2.49-2.23 12.39 12.39 0 0 0-2.64-1.22 1.67 1.67 0 0 0-0.43-0.1c-0.12 0-0.29 0-0.32 0.12 -0.03 0.12 0.08 0.21 0.17 0.26 0.173 0.104 0.353 0.194 0.54 0.27 1.013 0.41 1.979 0.93 2.88 1.55a8.78 8.78 0 0 1 1.93 1.87 8 8 0 0 1 1.11 2.06c0.15 0.42 0.27 0.85 0.39 1.28 0.12 0.43 0.13 0.61 0.19 0.92 0.06 0.31 0.1 0.68 0.17 1 0.035 0.161 0.085 0.319 0.15 0.47 0 0.06 0.13 0.14 0.16 0.13a0.44 0.44 0 0 0 0.16-0.17 0.2 0.2 0 0 0 0-0.11l0.02-0.43z" fill="#FFF"/>
  <path d="M9.6 1.5V0.34c0-0.21 0.11 -0.34 0.29 -0.34a0.31 0.31 0 0 1 0.3 0.34 v2.33c0 0.22-0.11 0.33 -0.3 0.33 s-0.29-0.1-0.29-0.33V1.5zM17.45 3.3a1.24 1.24 0 0 1-0.12 0.23 l-1.67 1.68a0.31 0.31 0 0 1-0.43 0 0.27 0.27 0 0 1 0-0.42l1.7-1.72a0.28 0.28 0 0 1 0.32-0.07 0.31 0.31 0 0 1 0.2 0.3 zM13.72 0.52 a0.28 0.28 0 0 1 0.29 0.4 l-0.39 1.28c-0.1 0.34 -0.2 0.68 -0.31 1a0.28 0.28 0 0 1-0.35 0.2 0.29 0.29 0 0 1-0.19-0.4c0.15-0.49 0.29 -1 0.44-1.48 0.08 -0.27 0.16 -0.53 0.25 -0.8a0.26 0.26 0 0 1 0.26-0.2zM3.14 2.43c0.088 0.052 0.17 0.116 0.24 0.19 0.47 0.51 0.93 1 1.4 1.55l0.16 0.18 a0.31 0.31 0 0 1 0 0.42 0.26 0.26 0 0 1-0.42 0l-0.76-0.84L2.94 3a0.3 0.3 0 0 1 0-0.48 1.78 1.78 0 0 1 0.2-0.09zM6.31 0.48 a0.25 0.25 0 0 1 0.27 0.17 l0.72 1.62c0.09 0.2 0.18 0.4 0.26 0.6 a0.27 0.27 0 0 1-0.11 0.37 0.29 0.29 0 0 1-0.4-0.12c-0.13-0.3-0.27-0.59-0.4-0.88-0.2-0.44-0.39-0.88-0.58-1.32-0.07-0.23 0.02 -0.44 0.24 -0.44z" fill="#FFF"/>
</svg>
