<?xml version="1.0" ?>
<svg xmlns="http://www.w3.org/2000/svg" width="44" height="34" viewBox="0 0 44 34">
  <path d="M5.7 31.23c0-0.7 0.27 -1 0.87-1h35.56c0.63 0 0.7-0.07 0.7 -0.67V1.59c0-0.5-0.11-0.6-0.61-0.6h-5.77C24.943 0.997 13.43 1 1.91 1c-0.84 0-0.84 0-0.84 0.84 v27.51a1.21 1.21 0 0 0 0.26 1c0.11 0.11 -0.14 0.56 -0.24 0.88 A1.56 1.56 0 0 1 0 29.59V18.74 1.81A3.33 3.33 0 0 1 0.13 1 1.18 1.18 0 0 1 1.4 0H33c3.1 0 6.19 0.05 9.29 0a1.45 1.45 0 0 1 1.61 1.65V29.5a1.54 1.54 0 0 1-0.85 1.61 2.05 2.05 0 0 1-0.78 0.11 H5.7v0.01z" fill="#FFF"/>
  <path d="M34.1 18.53h1.15c0.26 0 0.5 0 0.5 0.36 s-0.23 0.41 -0.52 0.42 c-0.94 0.05 -1.88 0.1 -2.83 0.17 a2.45 2.45 0 0 0-0.68 0.18 c-0.95 0.33 -1.89-0.17-2.85 0-1.22 0.2 -2.45 0.32 -3.68 0.49 -0.93 0.12 -1.87 0.26 -2.8 0.41 -0.93 0.15 -1.56 0.3 -2.33 0.45 l-2.06 0.42 c-0.93 0.2 -1.86 0.42 -2.79 0.64 -0.93 0.22 -1.63 0.39 -2.44 0.61 -1 0.25-1.92 0.53 -2.88 0.8 a3.58 3.58 0 0 1-0.64 0.18 c-0.58 0.05 -0.79 0.47 -1 0.92-1.4 2.79-2.78 5.57-4.15 8.42-0.16 0.33 -0.38 0.51 -0.72 0.36 -0.59-0.26-1.16-0.56-1.73-0.87-0.34-0.18-0.39-0.45-0.2-0.81 0.89 -1.77 1.77-3.56 2.65-5.34 0.88 -1.78 1.75-3.49 2.62-5.24 0.24 -0.48 0.25 -0.46 0.7 -0.19 0.64 0.37 1.32 0.69 2.05 1.06l-0.32 0.89 a111 111 0 0 1 19.72-4c-0.17-0.46-0.33-0.85-0.46-1.25a4.66 4.66 0 0 1 0.06-2.79 11.07 11.07 0 0 1 2.36-4.35 4.92 4.92 0 0 1 2.53-1.61 1.57 1.57 0 0 1 1.51 0.43 0.72 0.72 0 0 1 0.12 0.66 0.43 0.43 0 0 1-0.63 0.19 2 2 0 0 0-2.6 0.59 10.65 10.65 0 0 0-2.54 4.7 4 4 0 0 0 0.3 2.77 0.93 0.93 0 0 0 0.89 0.56 c2.12 0.09 3.44-1.06 4.41-2.77 0.111 -0.21 0.238 -0.41 0.38 -0.6a0.43 0.43 0 0 1 0.33-0.13 0.57 0.57 0 0 1 0.22 0.34 0.69 0.69 0 0 1-0.1 0.42 l-1.55 2.51z" fill="#FFF"/>
  <path d="M24.28 13.38h1.47a2.8 2.8 0 0 1 0.93 0.25 1.55 1.55 0 0 1 0.6 2.42 6.9 6.9 0 0 1-2.53 2.3 16.91 16.91 0 0 1-2.15 1 3.06 3.06 0 0 1-0.9 0.18 7.1 7.1 0 0 1-2.68 0.1 1.21 1.21 0 0 1-0.89-1.13 1.1 1.1 0 0 1 1-1.09c-0.61-2 0.16-3.93 0.62 -6l-1 0.81-0.45 0.42 c-0.23 0.19 -0.49 0.35 -0.74 0.1 -0.25-0.25-0.14-0.57 0.09 -0.78 0.487 -0.45 0.998 -0.874 1.53-1.27a8.67 8.67 0 0 1 3.57-1.56 4.09 4.09 0 0 1 2.25 0.22 1.46 1.46 0 0 1 0.69 2.27c-0.4 0.61 -0.92 1.14-1.41 1.76zm-5 4.38a1.75 1.75 0 0 0-0.14 0.24 c-0.08 0.21 -0.16 0.42 -0.25 0.63 0.222 0.127 0.467 0.212 0.72 0.25 a12.16 12.16 0 0 0 1.58-0.13A8.18 8.18 0 0 0 26 16.28a5.6 5.6 0 0 0 0.74-0.93 0.68 0.68 0 0 0-0.44-1 4.61 4.61 0 0 0-2.87 0.11 23.8 23.8 0 0 0-2.25 0.88 c-0.28 0.11 -0.62 0.22 -0.79-0.09-0.05-0.1 0.2 -0.44 0.39 -0.57 0.64 -0.44 1.33-0.81 2-1.26a6 6 0 0 0 2-1.92c0.18-0.33 0.45 -0.67 0.24 -1.06a1.06 1.06 0 0 0-1.1-0.53 8.65 8.65 0 0 0-1.61 0.2 5.23 5.23 0 0 0-2 1 0.62 0.62 0 0 1 0.33 0.91 9 9 0 0 0-0.86 4.47 1.34 1.34 0 0 0 0.72 1.39 0.43 0.43 0 0 1 0.17 0.36 0.45 0.45 0 0 1-0.34 0.19 c-0.54 0.07 -0.8-0.26-1.05-0.67zM8.22 20.32a3.47 3.47 0 0 1 1.5 1c-0.69 0.27 -2.35-0.54-2.43-1.16l0.31-0.05c0.066-0.34 0.16 -0.675 0.28 -1 0.38-0.84 0.81 -1.67 1.21-2.5 0.06 -0.12 0.1 -0.25 0.18 -0.46a3.23 3.23 0 0 1-0.77 0.3 c-0.17 0-0.47-0.11-0.49-0.21a0.66 0.66 0 0 1 0.19-0.55c0.36-0.22 0.79 -0.32 1.17-0.51 0.23 -0.1 0.425 -0.268 0.56 -0.48 0.67 -1.34 1.28-2.72 2-4A5 5 0 0 1 13 9.27a0.9 0.9 0 0 1 1.53 0.33 c0.188 0.366 0.323 0.756 0.4 1.16 0.11 0.71 0.15 1.44 0.21 2.16v0.4c0.07 0.42 0.13 0.81 0.7 0.89 a1 1 0 0 1 1 0.79c0.012 0.251 -0.047 0.5 -0.17 0.72 a0.36 0.36 0 0 1-0.34 0.12 c-0.08 0-0.14-0.2-0.15-0.32 0-0.49-0.21-0.63-0.81-0.62 0.06 0.42 0.08 0.84 0.17 1.25 0.14 0.65 0.31 1.29 0.5 1.92 0.19 0.63 0.31 0.64 0.89 0.41a0.47 0.47 0 0 1 0.43 0.11 0.51 0.51 0 0 1-0.06 0.46 1.11 1.11 0 0 1-1.64-0.05 5.29 5.29 0 0 1-0.73-1.49 19.29 19.29 0 0 1-0.39-2.17c-0.06-0.31-0.2-0.49-0.54-0.44a21.7 21.7 0 0 1-2.39 0.41 c-1.19 0.07 -1.46 0.95 -1.8 1.81-0.34 0.86 -0.59 1.57-0.94 2.33a5.21 5.21 0 0 1-0.65 0.87 zM11 14.57c1.11-0.18 2.11-0.32 3.1-0.51a0.48 0.48 0 0 0 0.28-0.39 17.19 17.19 0 0 0-0.17-1.76 17 17 0 0 0-0.36-1.72c-0.1-0.4-0.36-0.43-0.63-0.12a1.9 1.9 0 0 0-0.33 0.47 c-0.45 0.89 -0.88 1.78-1.31 2.68-0.22 0.43 -0.4 0.88 -0.58 1.35z" fill="#FFF"/>
</svg>
