<?xml version="1.0" ?>
<svg xmlns="http://www.w3.org/2000/svg" width="28" height="37" viewBox="0 0 28 37">
  <path d="M19.92 20c-0.34-0.54-0.66-1.05-1-1.56-0.09-0.15-0.18-0.08-0.29 0-0.67 0.39 -1.34 0.8 -2 1.17a2.8 2.8 0 0 1-1.39 0.33 A1.21 1.21 0 0 1 14 18.85a5.16 5.16 0 0 0-0.62-2C11.9 13.58 10.42 10.29 9 7a2.88 2.88 0 0 0-0.24-0.46 3.13 3.13 0 0 0 0.04 1.18c0.29 1.09 0.59 2.18 0.87 3.27a1 1 0 0 1 0 0.3v4.67a0.53 0.53 0 0 0 0.18 0.43 l3.76 3.75a1 1 0 0 1 0.3 0.75 v5.16a0.31 0.31 0 0 0 0.28 0.37 c1.38 0.36 2.76 0.74 4.14 1.11a0.53 0.53 0 0 1 0.42 0.39 c0.19 0.66 0.37 1.33 0.55 2 0.22 0.83 0.45 1.65 0.66 2.48 0 0.17 0.16 0.17 0.29 0.17h1.65c0.48 0 0.64 0.1 0.76 0.56 0.22 0.78 0.42 1.56 0.62 2.34a0.55 0.55 0 0 1-0.57 0.74 h-22a0.6 0.6 0 0 1-0.65-0.35 0.83 0.83 0 0 1-0.06-0.33v-34C0 1.05 0.16 0.85 0.59 0.8 1.24 0.71 1.9 0.64 2.55 0.57 L5.62 0.22 7.37 0a0.7 0.7 0 0 1 0.86 0.6 c0.216 0.626 0.474 1.238 0.77 1.83l2.79 6.46c1 2.37 2.05 4.74 3.07 7.12l0.27 0.63 c0.13 0.3 0.14 0.31 0.4 0.1 l1.83-1.52c0.47-0.39 0.92 -0.78 1.4-1.15a3.1 3.1 0 0 1 2.47-0.69c0.505 0.094 0.97 0.334 1.34 0.69 a6.23 6.23 0 0 1 1.43 2.3 16 16 0 0 1 1 3.84c0.2 1.31 0.33 2.63 0.5 3.95 0.02 0.17 0.072 0.337 0.15 0.49 0.51 1.1 1 2.19 1.55 3.29 0.104 0.254 0.177 0.52 0.22 0.79a1.35 1.35 0 0 1-1.19 1.52 3.13 3.13 0 0 1-0.81 0.05 1.57 1.57 0 0 1-1.23-1c-0.62-1.21-1.25-2.41-1.87-3.61a1.48 1.48 0 0 1-0.16-0.58c0-0.69-0.07-1.38-0.1-2.07 0-0.27-0.05-0.29-0.3-0.18-0.25 0.11 -0.81 0.42 -1.22 0.6 a0.48 0.48 0 0 0-0.31 0.43 c-0.07 0.71 -0.15 1.43-0.23 2.15a0.71 0.71 0 0 1-0.1 0.31 2.05 2.05 0 0 1-2.54 0.58 0.9 0.9 0 0 1-0.46-0.73c0-1-0.05-2 0-3.06a6.46 6.46 0 0 1 0.38-1.59 0.86 0.86 0 0 1 0.39-0.43c0.63-0.34 1.27-0.64 1.91-1l0.34-0.12z" fill="#FFF"/>
  <path d="M21 11.13a2.21 2.21 0 1 1-4.42 0 2.21 2.21 0 0 1 4.42 0zM25.73 20.41c-0.06-0.3-0.12-0.53-0.16-0.76a19.19 19.19 0 0 0-0.85-3.1A7.53 7.53 0 0 0 23 13.74a0.58 0.58 0 0 1-0.1-0.13c0.24-0.13 0.47 -0.27 0.7 -0.37a2.15 2.15 0 0 1 1.63-0.14c0.46 0.138 0.801 0.526 0.88 1l0.42 2.27c0.14 0.75 0.27 1.51 0.4 2.26a0.94 0.94 0 0 1-0.18 0.76 c-0.273 0.4 -0.62 0.747 -1.02 1.02z" fill="#FFF"/>
</svg>
