<?xml version="1.0" ?>
<svg xmlns="http://www.w3.org/2000/svg" width="44" height="10" viewBox="0 0 44 10">
  <path d="M34.23 7.53a4.27 4.27 0 0 0 3.9 0.11 c1.5-0.64 3-1.27 4.53-1.9a0.68 0.68 0 0 0 0.5-0.84c-1.55 0.67 -3.11 1.36-4.68 2a5.87 5.87 0 0 1-2.75 0.48 c-1.43-0.09-1.89-0.51-2.21-2 0.55 0.18 1.09 0.35 1.62 0.5 a3.43 3.43 0 0 0 2.28-0.09c1.66-0.66 3.32-1.33 5-2 0.55-0.23 0.58 -0.41 0.3 -0.84-0.63 0.32 -1.24 0.7 -1.89 1-1.3 0.51 -2.6 1-3.94 1.42a5.07 5.07 0 0 1-3.27-0.54 1.16 1.16 0 0 1-0.48-0.56 11.18 11.18 0 0 1-0.38-1.12l1.75 0.62 a4 4 0 0 0 2.86 0.06 c1.34-0.51 2.69-1 4-1.54 0.56 -0.22 0.58 -0.4 0.22 -0.7a20.38 20.38 0 0 1-4.83 1.84 5.3 5.3 0 0 1-1.8-0.15c-0.38-0.06-0.74-0.26-1.11-0.31-1.23-0.16-1.61-1-1.76-2.1 0.81 0.31 1.61 0.6 2.4 0.93 a0.68 0.68 0 0 0 0.86-0.2A4.66 4.66 0 0 1 40.23 0.22 a4.51 4.51 0 0 1 3.33 3.64A4.56 4.56 0 0 1 42 8.48a4.75 4.75 0 0 1-4.82 0.89 2.72 2.72 0 0 0-0.85-0.11c-1.33 0.02 -1.77-0.26-2.1-1.73zM35.7 2a15.31 15.31 0 0 0 4.81-1c-0.99-0.88-3.82-0.52-4.81 1zm6.87 5l-4.29 2.07A4.1 4.1 0 0 0 42.57 7zM30.49 6.69l1 0.07s0.08 0.1 0.08 0.15 c0.13 1.09 0.11 1.1-1 1.1h-4.25V6.73h1.47c0.6 0 1.17-0.11 1.41-0.74a2 2 0 0 0-0.2-2.15 1.9 1.9 0 0 0-1.08-0.42 12.38 12.38 0 0 0-1.62 0 7.71 7.71 0 0 1 0-1c0-0.12 0.19 -0.3 0.29 -0.29 1 0 2.07 0 3.09 0.07 a1.49 1.49 0 0 1 1.28 1 3.14 3.14 0 0 1-0.33 3.2c-0.01 0.08 -0.05 0.15 -0.14 0.29 zM0.08 3.4V2.2c1.15 0 2.27-0.06 3.38 0A1.84 1.84 0 0 1 4.93 4a3.19 3.19 0 0 1-0.78 2.67l1.06 0.09 V8H0V6.74h1.47c0.64 0 1.26-0.13 1.47-0.83a2 2 0 0 0-0.23-2.09 2 2 0 0 0-1.09-0.4A11.18 11.18 0 0 0 0.08 3.4zM16.14 3.42V2.08c1.44 0 2.85 0.07 4.25 0.19 a1.62 1.62 0 0 1 1.3 1 3.37 3.37 0 0 1-3.08 4.77c-0.19-0.87-0.14-1 0.55-1.44A2.11 2.11 0 0 0 20 4.24a1.29 1.29 0 0 0-1.36-0.82h-2.5zM5.91 2.19c1.27 0 2.48-0.06 3.69 0a1.69 1.69 0 0 1 1.73 1.73c0.06 1.32 0 2.65 0 4.07h-1.6c-0.09 0-0.22-0.29-0.23-0.45V4.78c0-1.09-0.26-1.35-1.33-1.36H5.91V2.19z" fill="#FFF"/>
  <path d="M21.9 6.73h1.25c0.39 0 0.5-0.12 0.48 -0.48V4.42c0-0.79-0.16-0.95-1-1h-0.24s-0.05 0-0.05-0.07c-0.21-1.11-0.15-1.19 1-1.18h0.34c1.18 0 1.75 0.5 1.8 1.68 0.05 1.18 0 2.36 0 3.54a0.59 0.59 0 0 1-0.65 0.65 h-2.6a0.49 0.49 0 0 1-0.31-0.32 5.9 5.9 0 0 1-0.02-0.99zM17.94 9.35h-1.81V4.86c0-0.12 0.21 -0.3 0.35 -0.34 0.45 -0.12 0.92 -0.2 1.44-0.31l0.02 5.14zM7.76 4.42V8H5.91V5.77c0-1.13-0.21-1 1-1.2 0.25 -0.08 0.52 -0.1 0.85 -0.15zM12 2.13h1.53a0.46 0.46 0 0 1 0.3 0.33 v2.26a0.56 0.56 0 0 1-0.33 0.39 c-0.47 0.15 -1 0.24-1.5 0.36 V2.13z" fill="#FFF"/>
</svg>
