<?xml version="1.0" ?>
<svg xmlns="http://www.w3.org/2000/svg" width="44" height="29" viewBox="0 0 44 29">
  <path d="M8.1 29l0.43-1.59a9.12 9.12 0 0 1-1.25-0.19 15 15 0 0 1-2.66-0.84 2.3 2.3 0 0 1-1.12-3.23 7.08 7.08 0 0 1 3.12-3.3 0.71 0.71 0 0 0 0.44-0.76v-1.46A4.75 4.75 0 0 0 5 18.81l0.65 0.79 -3.08 0.57 0.79-3.08 0.58 0.85A3.63 3.63 0 0 1 7 17.13V16l-1.28 0.27 -0.06-0.27c0.27-0.18 0.4 -0.63 0.91 -0.33a0.34 0.34 0 0 0 0.48-0.37v-0.63l-2.77 0.4 0.16 1.56L0 14.26l3.59-3.42 0.24 1.32c1-0.15 2-0.28 3-0.46 0.11 0 0.23-0.31 0.23 -0.47a0.53 0.53 0 0 0-0.26-0.4 9 9 0 0 0-1.06-0.21l0.33 0.66 -0.13 0.1 -0.77-1c0.38-0.3 0.68 -0.6 1.18-0.55l-0.56 0.48 1.18 0.22 c0.27-0.83 0.2 -1-0.48-1.39a7.61 7.61 0 0 1-2.91-2.75c-1-1.77-0.55-3.27 1.35-4a19.51 19.51 0 0 1 2.66-0.69c0.21-0.05 0.44 -0.06 0.74 -0.11L7.93 0c0.69 0.52 1.33 1.07 2 1.51 0.67 0.44 1.48 0.74 2.28 1.14A11.87 11.87 0 0 0 8 5.11l0.31-1.41a2.24 2.24 0 0 0-2.72 2.82 5.88 5.88 0 0 0 1.53 2.39 0.42 0.42 0 0 0 0.3 0.14 c0.42-0.07 0.83 -0.18 1.3-0.29l-0.54-1.21-0.34 0.68 h-0.17L8 6.94l1.2 0.5 -0.07 0.17 -0.72-0.16c0.21 0.47 0.37 0.86 0.57 1.23a0.5 0.5 0 0 0 0.34 0.18 h1.53a10 10 0 0 1-0.43-1.31 9.91 9.91 0 0 1-0.1-1.37l-0.93-0.3 2.27-2.16 1 3-1-0.17a4.29 4.29 0 0 0-0.12 2.1 0.39 0.39 0 0 0 0.28 0.23 c0.19 0.02 0.38 0.02 0.57 0 1.39 0 1.4 0 1.69-1.5l-0.61 0.18 -0.08-0.15 1.11-0.6L15 8l-0.16 0.08 -0.39-0.64L14 8.83h2.58l-1.14-3.3-1.73 0.57 L15.49 0.52 l4.87 3.27-1.72 0.63 c0.5 1.43 0.95 2.83 1.5 4.19 0.09 0.22 0.65 0.24 1.11 0.39 -0.14-0.45-0.07-0.82-0.55-0.76V7.3l0.66 0.58 c-0.18 0.29 0 0.9 0.27 1 0.27 0.1 0.5 0 0.5-0.32 0-0.67 0-1.33-0.06-2.06L21 6.69l0.94-3 2.41 2.19c-1.05 0-1 0.52-1 1.18a9.2 9.2 0 0 1-0.42 1.79h1.32a0.38 0.38 0 0 0 0.28-0.23c0.48-1.34 0.93 -2.68 1.41-4.07L24.41 4l4.23-2.85L30.21 6l-1.51-0.47-1.13 3.3h2.49l-0.55-1.22-0.35 0.65 H29L29.36 7l1.2 0.51 -0.06 0.18 -0.75-0.2c0.22 0.48 0.39 0.87 0.6 1.26a0.44 0.44 0 0 0 0.3 0.13 h0.73c0.94 0 1 0 0.95-0.94 0-0.46-0.07-0.91-0.11-1.42l-1 0.17 1-2.95L34.52 6c-1 0-1 0.55-1 1.21A8 8 0 0 1 33 8.86h1.6a0.33 0.33 0 0 0 0.23-0.17c0.19-0.38 0.37 -0.76 0.58 -1.23l-0.72 0.17 -0.07-0.16L35.8 7c0.15 0.45 0.46 0.79 0.28 1.4l-0.36-0.81-0.55 1.11 1.46 0.7 a5 5 0 0 0 2.22-3.82 2.09 2.09 0 0 0-0.51-1.14A3.33 3.33 0 0 0 36 3.61l0.46 1.72a10.86 10.86 0 0 0-4.37-2.72A12.2 12.2 0 0 0 36.4 0L36 1.58c0.49 0.07 1 0.11 1.42 0.22 a13.37 13.37 0 0 1 2.18 0.65 2.44 2.44 0 0 1 1.27 3.75 7.13 7.13 0 0 1-3.64 3.27c-0.59 0.25 -0.83 0.53 -0.72 1.13 0.011 0.17 0.011 0.34 0 0.51h1.25l-0.4-0.54 0.12 -0.13 0.93 0.81c-0.36 0.33 -0.56 0.74 -1.18 0.87 l0.54-0.65h-1.22v2.38l2.61-0.74-0.4-1.52 4.76 1.82-3.06 4.07L40 16c-1.11 0.31 -2.17 0.61 -3.22 0.94 a0.47 0.47 0 0 0-0.23 0.38 c0 0.21 0.1 0.54 0.25 0.6a14.82 14.82 0 0 0 1.63 0.52 l0.15-0.83 1.94 1.3-2 1.21-0.06-0.63-1.83-0.91c-0.25 0.54 -0.14 0.89 0.45 1.21a7.69 7.69 0 0 1 3.05 2.83c1.07 1.8 0.59 3.34-1.36 4.1a19.81 19.81 0 0 1-2.55 0.64 c-0.25 0.06 -0.51 0.07 -0.82 0.12 l0.41 1.59c-0.7-0.52-1.34-1.09-2.06-1.53-0.72-0.44-1.51-0.74-2.28-1.12a11.29 11.29 0 0 0 4.33-2.54l-0.38 1.48a2.24 2.24 0 0 0 2.74-2.77A5.94 5.94 0 0 0 36.4 20l-1.62 0.32 0.65 1.33 0.33 -0.7h0.17l-0.33 1.26-1.22-0.46 0.07 -0.19 0.74 0.17c-0.26-0.52-0.46-0.95-0.7-1.36a0.41 0.41 0 0 0-0.33-0.18h-1c0.11 0.85 0.2 1.65 0.32 2.45 0 0.09 0.13 0.19 0.23 0.23 0.1 0.04 0.42 0.11 0.73 0.2l-2.28 2.18-1-3 1.09 0.18 v-2a0.44 0.44 0 0 0-0.29-0.29h-1.38l-0.07 0.14 0.41 0.37 0.11-0.09 0.18 0.92-0.81-0.5c0.17-0.3 0-0.81-0.38-0.82h-2.1l1 2.25 1.45-0.61-1.14 5-4.43-2.44 1.42-0.67c-0.2-0.473-0.4-0.933-0.6-1.38-0.25-0.58-0.51-1.17-0.79-1.75a0.59 0.59 0 0 0-0.39-0.31c-0.12 0-0.3 0.19 -0.36 0.33 a0.8 0.8 0 0 0 0 0.61l-0.64 0.69 V21l0.08 0.07 0.55-0.84a11.86 11.86 0 0 0-1.22 0 0.44 0.44 0 0 0-0.27 0.32 v2.26l1.06-0.15-1 2.94-2.28-2.17 1-0.28a3.71 3.71 0 0 1 0.8-2.89H20l-0.07 1.32 0.63 -0.47 0.14 0.12-0.9 1-0.85-1 0.13-0.12 0.61 0.5v-1.16a0.35 0.35 0 0 0-0.23-0.21 7.87 7.87 0 0 0-1.19 0 0.47 0.47 0 0 0-0.31 0.32 c-0.19 1.07-0.35 2.15-0.54 3.23-0.06 0.31 0 0.44 0.35 0.47 0.35 0.03 0.68 0.11 1.15 0.19 L15.2 28l-2.36-4.52 1.56 0.21 0.58-3.4h-1.85l0.33 1.27 0.45 -0.6 0.16 0.08-0.59 1.16-1.07-0.72 0.09 -0.15 0.68 0.31c-0.11-0.45-0.18-0.81-0.3-1.16a0.43 0.43 0 0 0-0.29-0.22 10.43 10.43 0 0 0-1.25 0 0.44 0.44 0 0 0-0.29 0.3 c0 0.46 0.06 0.92 0.11 1.45l1.05-0.2-1 3L9 22.66c0-0.06 0-0.11 0.06 -0.12 0.77 -0.26 0.75 -0.26 0.81 -1.09 0.038 -0.39 0.098 -0.777 0.18 -1.16a0.74 0.74 0 0 0-1 0.27c-0.21 0.33 -0.46 0.64 -0.74 1H9v0.17L7.81 22l-0.13-1.26h0.18l0.19 0.71 0.85-1.15-1.51-0.22c-0.07 0-0.19 0.09 -0.24 0.17 a14.17 14.17 0 0 0-1.36 2.3 1.84 1.84 0 0 0 1.29 2.57 14.8 14.8 0 0 0 1.45 0.35 l-0.4-1.61a11.68 11.68 0 0 0 4.31 2.5c-0.8 0.39 -1.58 0.7 -2.3 1.14-0.72 0.44 -1.33 0.98 -2.04 1.5zm16.83-10.75v-2.68c0-0.15 0.17 -0.29 0.27 -0.43 0.07 0.14 0.21 0.28 0.22 0.43v2.28c0 0.15 0.16 0.4 0.25 0.41h1.75v-6.07c0-1.5 0-1.49-1.52-1.47-0.39 0-0.51 0.15 -0.49 0.53 v1.76c0 0.35-0.11 0.49 -0.51 0.33 v-1.22c0-1.4 0-1.39-1.43-1.4-0.45 0-0.59 0.12 -0.59 0.58 V18.25h2.05zm-8.82-3.76v3.11c0 0.41 0.12 0.61 0.56 0.59h2.44c0.81 0 1.36-0.4 1.39-1.32 0-1.5 0.05 -3 0-4.51a1.29 1.29 0 0 0-1.33-1.43c-0.83-0.09-1.66-0.05-2.49-0.08-0.43 0-0.58 0.17 -0.57 0.59 0.01 1.01 0 2.03 0 3.05zm13.82 0v3.17c0 0.38 0.13 0.57 0.54 0.56h2.54c0.84 0 1.26-0.38 1.29-1.19 0.05 -1.58 0.05 -3.18 0-4.76A1.17 1.17 0 0 0 33.09 11c-0.82-0.11-1.65-0.06-2.48-0.11-0.51 0-0.71 0.13 -0.69 0.67 0.08 0.93 0.01 1.92 0.01 2.9v0.03zM14 18.28c0-0.12 0.05 -0.17 0-0.22-0.34-2.33-0.69-4.65-1-7 0-0.29-0.2-0.35-0.46-0.35h-1.92c-0.42 0-0.57 0.13 -0.62 0.55 -0.14 1.24-0.32 2.47-0.49 3.7-0.14 1.08-0.27 2.15-0.42 3.32h1.11c0.93 0 0.93 0 1.07-0.92v-0.15c0-0.03 0.21 -0.26 0.3 -0.25a0.53 0.53 0 0 1 0.35 0.26 c0.07 0.23 0 0.49 0.08 0.72 0.08 0.23 0.15 0.31 0.24 0.31 0.62 0.04 1.2 0.03 1.76 0.03 z" fill="#FFF"/>
  <path d="M18.68 14.44v1.5a2.07 2.07 0 0 1-0.1 0.71 c-0.06 0.14 -0.26 0.22 -0.4 0.33 -0.08-0.13-0.22-0.26-0.22-0.39v-2.48-1.66c0-0.14 0.14 -0.27 0.21 -0.4 0.15 0.11 0.35 0.19 0.44 0.34 0.064 0.176 0.088 0.364 0.07 0.55 0.01 0.5 0 1 0 1.5zM32.45 14.45v2c0 0.18-0.26 0.34 -0.4 0.51 -0.09-0.17-0.25-0.35-0.25-0.52v-3.9c0-0.17 0.17 -0.34 0.26 -0.51 0.14 0.16 0.39 0.32 0.41 0.49v1.91l-0.02 0.02 zM11.29 15.49l0.25-2.27h0.11c0.07 0.71 0.15 1.41 0.19 2.11 0 0.09-0.27 0.2 -0.42 0.29 l-0.13-0.13z" fill="#FFF"/>
</svg>
