<?xml version="1.0" ?>
<svg xmlns="http://www.w3.org/2000/svg" width="34" height="30" viewBox="0 0 34 30">
  <path d="M16.07 0a14.33 14.33 0 0 1 2.81 0.29 A15.8 15.8 0 0 1 27.42 5 14.91 14.91 0 0 1 30 8.72c0.29 0.59 0.54 1.2 0.78 1.81A3 3 0 0 1 31 11.8c0 0.6-0.415 1.119-1 1.25a6 6 0 0 1-2.2 0.15 l-3.85-0.33a27.94 27.94 0 0 0-4.29-0.07 12.87 12.87 0 0 0-3.3 0.65 A9.51 9.51 0 0 0 12 16.5a21.37 21.37 0 0 0-2.7 4.31c-0.64 1.29-1.25 2.6-1.89 3.9a7.35 7.35 0 0 1-1 1.58 2 2 0 0 1-0.81 0.62 1.19 1.19 0 0 1-1-0.11 3.74 3.74 0 0 1-1.21-1.13A17.21 17.21 0 0 1 1 21.43a15.54 15.54 0 0 1-1-6.76A15.47 15.47 0 0 1 0.49 12a16 16 0 0 1 1.57-4 15.7 15.7 0 0 1 6-6A16 16 0 0 1 11.79 0.53 16.18 16.18 0 0 1 16.07 0zM7.78 8a3.74 3.74 0 1 0 3.74-3.72A3.73 3.73 0 0 0 7.78 8zm14.34-2a2.61 2.61 0 1 0-5.22-0.04 2.61 2.61 0 0 0 5.22 0.04 zM5.58 11a2.62 2.62 0 1 0-0.08 5.24A2.62 2.62 0 0 0 5.58 11zm19.93-4.11a2.36 2.36 0 1 0-0.02 4.72 2.36 2.36 0 0 0 0.02-4.72zM4.89 22.61a2.15 2.15 0 1 0 0.02-4.3 2.15 2.15 0 0 0-0.02 4.3zM20.87 18.74c0.19 0.32 0.37 0.64 0.54 1l1.43 2.52c0.1 0.19 0.1 0.19 -0.08 0.29 -3 1.64-6.05 3.23-9.17 4.66-1.47 0.67 -3 1.28-4.47 1.89a10.75 10.75 0 0 1-2.31 0.67 2 2 0 0 1-0.55 0c-0.29 0-0.41-0.22-0.27-0.47a3.15 3.15 0 0 1 0.42-0.61 16.89 16.89 0 0 1 2.39-2.11c2.19-1.67 4.49-3.19 6.83-4.66 1.67-1 3.38-2.06 5.07-3.08l0.17-0.1z" fill="#FFF"/>
  <path d="M33.77 14.47l-0.09 0.21 a13.9 13.9 0 0 1-2.54 3.41 5.73 5.73 0 0 1-2 1.35 3.12 3.12 0 0 1-4-1.7 2.16 2.16 0 0 1 0.76-2.58 4.69 4.69 0 0 1 1.9-0.93 3.61 3.61 0 0 1 1.39 0 21.64 21.64 0 0 0 4.33 0.21 h0.22l0.03 0.03 z" fill="#FFF"/>
  <path d="M24.6 17a3.34 3.34 0 0 0 2.13 2.79l-0.13 0.14 a23.49 23.49 0 0 1-3.18 2.22c-0.13 0.07 -0.2 0.08 -0.29-0.07-0.62-1.12-1.25-2.23-1.88-3.33-0.06-0.11-0.07-0.19 0.06 -0.26a23.1 23.1 0 0 1 3.2-1.49h0.09z" fill="#FFF"/>
</svg>
