<?xml version="1.0" ?>
<svg xmlns="http://www.w3.org/2000/svg" width="28" height="30" viewBox="0 0 28 30">
  <path d="M20.24 8.61v5.69c0 0.15 0 0.22 0.2 0.24A20.41 20.41 0 0 1 26.29 16c0.38 0.17 0.75 0.38 1.12 0.57 a0.65 0.65 0 0 1 0.36 0.65 v8.44a1.84 1.84 0 0 1-0.95 1.74 7.4 7.4 0 0 1-1.91 0.84 22.32 22.32 0 0 1-3.91 0.86 c-1.53 0.16 -3.07 0.29 -4.6 0.38 -1.18 0.06 -2.35 0.09 -3.53 0.06 -1.48-0.05-3-0.15-4.43-0.27-0.85-0.06-1.7-0.17-2.55-0.3a15.77 15.77 0 0 1-4.32-1.15 3 3 0 0 1-1.33-1A1.37 1.37 0 0 1 0 26v-8.38a1.35 1.35 0 0 1 0.7-1.08 7 7 0 0 1 1.88-0.93 21.61 21.61 0 0 1 3.14-0.81 34.6 34.6 0 0 1 4.53-0.56c0.17 0 0.16-0.09 0.16 -0.21V7.54 3.13A3.05 3.05 0 0 1 12.3 0.28 a3.45 3.45 0 0 1 4.52 1.89c0.108 0.323 0.165 0.66 0.17 1a0.75 0.75 0 0 1-0.78 0.72 0.79 0.79 0 0 1-0.82-0.7 1.66 1.66 0 0 0-1.2-1.57 1.73 1.73 0 0 0-2 1.15 0.86 0.86 0 0 0 0 0.23v4.12c0 0.15 0 0.18 0.19 0.18h5.93c0.16 0 0.19-0.06 0.19 -0.2v-4a3.09 3.09 0 0 1 2.32-3 3.26 3.26 0 0 1 3.86 2c0.128 0.318 0.192 0.657 0.19 1a0.78 0.78 0 0 1-0.7 0.73 0.77 0.77 0 0 1-0.77-0.57 5.78 5.78 0 0 0-0.14-0.7 1.62 1.62 0 0 0-1.36-1 1.5 1.5 0 0 0-1.48 0.86 1.45 1.45 0 0 0-0.11 0.54 V8.6l-0.07 0.01 zM14 15.87c-1.61 0-2.9 0.05 -4.19 0.11 -0.94 0-1.89 0.11 -2.83 0.23 -0.94 0.12 -1.88 0.3 -2.82 0.48 -0.714 0.15 -1.41 0.371 -2.08 0.66 a0.44 0.44 0 0 0-0.33 0.53 c0 0.12 0 0.2 0.15 0.25 0.45 0.17 0.88 0.37 1.33 0.5 0.79 0.2 1.59 0.39 2.4 0.53 1 0.17 2 0.31 3.07 0.4 1.07 0.09 2 0.14 3 0.18a57.84 57.84 0 0 0 8.73-0.32 23.27 23.27 0 0 0 4.14-0.79 7.82 7.82 0 0 0 1.23-0.52 0.4 0.4 0 0 0 0-0.76 5.6 5.6 0 0 0-1-0.37c-0.84-0.19-1.67-0.39-2.52-0.52a49.98 49.98 0 0 0-3.64-0.4C17 16 15.32 15.92 14 15.87zm1.34-3.95h-3c-0.09 0-0.19 0-0.18 0.12 v2.13a0.16 0.16 0 0 0 0.09 0.13 c0.18 0.05 0.364 0.08 0.55 0.09 h5.53c0.15 0 0.19-0.05 0.19 -0.2v-2c0-0.24 0-0.24-0.24-0.24l-2.94-0.03zm0-1.16h3c0.14 0 0.18 0 0.18-0.18v-2c0-0.13 0-0.17-0.17-0.17h-6c-0.14 0-0.19 0.05 -0.19 0.19 v1.93c0 0.16 0 0.2 0.21 0.2l2.97 0.03 z" fill="#FFF"/>
</svg>
