<?xml version="1.0" ?>
<svg xmlns="http://www.w3.org/2000/svg" width="44" height="34" viewBox="0 0 44 34">
  <path d="M21.59 0c0.8 0 1.58 0 2.36 0.09 0.78 0.09 1.51 0.15 2.26 0.25 0.75 0.1 1.48 0.21 2.19 0.38 1 0.23 1.92 0.51 2.86 0.8 a20.56 20.56 0 0 1 4.87 2.3A18.64 18.64 0 0 1 38.9 6a15.13 15.13 0 0 1 2.54 3.1c0.36 0.61 0.7 1.24 1 1.87 0.22 0.467 0.407 0.948 0.56 1.44 0.16 0.46 0.29 0.93 0.41 1.4 0.088 0.372 0.151 0.75 0.19 1.13 0.08 0.72 0.09 1.44 0.19 2.16a0.65 0.65 0 0 1-0.33 0.75 1.12 1.12 0 0 1-1.46-0.32 19.48 19.48 0 0 0-2.4-3.31 24.24 24.24 0 0 0-4.6-4.08 23.6 23.6 0 0 0-4.73-2.48 17.36 17.36 0 0 0-2.79-0.86c-0.72-0.15-1.46-0.28-2.19-0.42A18.23 18.23 0 0 0 22 6.15a17.17 17.17 0 0 0-2.37 0.17 17.26 17.26 0 0 0-2 0.37 19.42 19.42 0 0 0-3.3 1.12 25.87 25.87 0 0 0-6.73 4.38 3.88 3.88 0 0 1-2 0.88 3.73 3.73 0 0 1-3.87-1.7c-0.46-0.95-1-1.88-1.49-2.82A2.24 2.24 0 0 1 0.1 6.83 3.4 3.4 0 0 1 1.83 5a25.85 25.85 0 0 1 3.74-2c1-0.41 2.08-0.79 3.14-1.14 0.78 -0.26 1.58-0.47 2.38-0.68 0.58 -0.15 1.18-0.25 1.77-0.37 0.59 -0.12 1.21-0.21 1.81-0.3 0.42 -0.07 0.85 -0.11 1.27-0.16l1.78-0.19c0.37 0 0.73-0.06 1.09-0.07L21.59 0zM33.36 26.42l1.32 1.52c0.364 0.37 0.562 0.871 0.55 1.39a1.85 1.85 0 0 1-3.33 1c-0.59-0.69-1.17-1.38-1.77-2.06a0.29 0.29 0 0 0-0.25-0.08c-0.25 0.07 -0.48 0.17 -0.74 0.27 l0.3 0.87 c0.18 0.56 0.4 1.1 0.52 1.66a1.82 1.82 0 0 1-1 1.91 1.85 1.85 0 0 1-2.56-1.19c-0.22-0.77-0.51-1.53-0.78-2.29a0.25 0.25 0 0 0-0.18-0.14l-1.71 0.11 c-0.15 0-0.15 0.13 -0.15 0.24 v2.58a1.69 1.69 0 0 1-0.6 1.31 1.81 1.81 0 0 1-2.98-0.75 3.34 3.34 0 0 1-0.11-0.84v-2.34a0.57 0.57 0 0 0 0-0.19 0.61 0.61 0 0 0-0.12-0.16 0.45 0.45 0 0 0-0.11 0.13 c-0.23 0.67 -0.46 1.33-0.68 2a2.44 2.44 0 0 1-0.87 1.41 1.84 1.84 0 0 1-2.76-0.88 2.09 2.09 0 0 1 0.05-1.44c0.22-0.62 0.43 -1.25 0.65 -1.87a1.05 1.05 0 0 0 0-0.21 6.52 6.52 0 0 0-0.7-0.25 0.31 0.31 0 0 0-0.25 0.12 c-0.62 0.71 -1.23 1.43-1.84 2.15a1.88 1.88 0 0 1-1.59 0.71 A1.85 1.85 0 0 1 10 29.54a2.15 2.15 0 0 1 0.68-1.78c0.4-0.43 0.77 -0.89 1.16-1.33 0.1 -0.12 0.1 -0.2 0-0.29l-0.62-0.51c-0.11-0.11-0.19-0.09-0.3 0L9.33 27.1a1.89 1.89 0 0 1-1.33 0.56 1.84 1.84 0 0 1-1.13-3.25c0.58-0.547 1.17-1.087 1.77-1.62a0.33 0.33 0 0 0 0.09-0.47 6.27 6.27 0 0 1-0.55-1.85 11.2 11.2 0 0 1-0.07-1.53 1.66 1.66 0 0 1 1.13-1.41 1.81 1.81 0 0 1 2.35 1c0.074 0.153 0.115 0.32 0.12 0.49 a4.86 4.86 0 0 0 1.73 3.64 9.93 9.93 0 0 0 3.53 2.08c0.735 0.26 1.482 0.48 2.24 0.66 a14.91 14.91 0 0 0 2.1 0.28 c0.778 0.063 1.56 0.087 2.34 0.07 a15.42 15.42 0 0 0 2-0.23 19.66 19.66 0 0 0 2.24-0.52 9.94 9.94 0 0 0 4.89-3 4.5 4.5 0 0 0 1-1.95 3.63 3.63 0 0 0 0.1-0.87 1.83 1.83 0 0 1 3.6-0.41c0.03 0.219 0.03 0.441 0 0.66a7 7 0 0 1-0.8 3.17c-0.08 0.17 -0.05 0.25 0.09 0.37 0.57 0.51 1.12 1 1.67 1.54a1.84 1.84 0 0 1-0.65 3.07A1.73 1.73 0 0 1 36 27.2c-0.52-0.46-1.03-0.93-1.53-1.41a0.21 0.21 0 0 0-0.34 0l-0.77 0.63 z" fill="#FFF"/>
</svg>
