<?xml version="1.0" ?>
<svg xmlns="http://www.w3.org/2000/svg" width="27" height="31" viewBox="0 0 27 31">
  <path d="M12.33 7.21a1.36 1.36 0 0 0 0.78 1.32l4.27 2c0.32 0.15 0.65 0.3 1 0.44 0.385 0.189 0.845 0.13 1.17-0.15 0.41 -0.35 0.79 -0.72 1.17-1.09l1.38-1.34s0.13-0.05 0.2 -0.08 0 0.14 0 0.2a0.53 0.53 0 0 1 0 0.1 0.9 0.9 0 0 1-0.3 0.57 c-0.28 0.24 -0.54 0.51 -0.81 0.76 a0.39 0.39 0 0 0-0.13 0.32 v1a0.16 0.16 0 0 1-0.15 0.19 l-1.05 0.22 -1.64 0.33 -1.69 0.34 a4.61 4.61 0 0 0-0.51 0.13 1.1 1.1 0 0 0-0.69 0.61 l-1.19 2.65c-0.29 0.65 -0.59 1.3-0.86 2a1.27 1.27 0 0 0 0.92 1.72 1.33 1.33 0 0 0 1.6-0.77c0.55-1.16 1.13-2.31 1.69-3.47a0.33 0.33 0 0 1 0.28-0.21l2.32-0.39 1.91-0.38a3.07 3.07 0 0 0 1-0.29 1.19 1.19 0 0 0 0.63-1v-0.84c0-1 0-2 0.07-3s0-2.09 0.08 -3.13a1.34 1.34 0 0 0-1.49-1.4 1.62 1.62 0 0 0-0.92 0.5 l-2.56 2.6c-0.07 0.07 -0.15 0.13 -0.22 0.21 a0.24 0.24 0 0 1-0.32 0.05 l-4-1.81a1.55 1.55 0 0 0-1-0.17 1.18 1.18 0 0 0-0.93 0.86 2.66 2.66 0 0 0-0.01 0.4 zM21 30.52h2.52c0.15 0 0.22 0 0.21-0.2v-1.5a1.05 1.05 0 0 0-0.34-0.7 4.65 4.65 0 0 0-1.47-1 1.72 1.72 0 0 0-0.87-0.11 2.42 2.42 0 0 1-1.34-0.2c-1.1-0.48-2.21-0.93-3.31-1.4a3.55 3.55 0 0 0-3.16 0.14 c-0.37 0.197 -0.75 0.374 -1.14 0.53 a2.78 2.78 0 0 1-0.76 0.15 0.65 0.65 0 0 0-0.55 0.33 c-0.13 0.21 -0.24 0.44 -0.38 0.65 a2.2 2.2 0 0 1-1.55 1 8.07 8.07 0 0 1-1.76 0c-0.36 0-0.72-0.07-1.08-0.08a2.07 2.07 0 0 0-0.52 0.11 c-0.19 0.06 -0.384 0.11 -0.58 0.15 a1 1 0 0 0-0.63 0.36 2.64 2.64 0 0 1-1.29 0.94 11.9 11.9 0 0 1-1.27 0.31 4.45 4.45 0 0 0-1.52 0.49 0.84 0.84 0 0 0-0.17 0.12 0.14 0.14 0 0 0 0 0.11h0.11l0.29-0.08a6.28 6.28 0 0 1 2.41-0.29c0.98 0.113 1.964 0.166 2.95 0.16 1 0 2-0.1 3-0.2a29.41 29.41 0 0 1 5.15-0.07c0.8 0.07 1.59 0.17 2.39 0.23 0.7 0.046 1.4 0.046 2.1 0h2.61l-0.05 0.05 z" fill="#FFF"/>
  <path d="M7.22 8a4 4 0 0 1 2.48 0.82 0.22 0.22 0 0 0 0.32 0c0.24-0.19 0.49 -0.36 0.74 -0.54 0.25 -0.18 0.14 -0.13 0-0.25A5.32 5.32 0 0 0 8.33 6.8a5.63 5.63 0 0 0-3 0.2 4.79 4.79 0 0 0-3 2.92A5.93 5.93 0 0 0 2 13.28a5.25 5.25 0 0 0 1.51 2.85 4.72 4.72 0 0 0 2 1.16 5.92 5.92 0 0 0 1.79 0.22 5.31 5.31 0 0 0 2.91-1 5.28 5.28 0 0 0 2-2.53 4.13 4.13 0 0 0-0.21-3.65c-0.06-0.1-0.11-0.13-0.21-0.06l-0.54 0.36 a0.15 0.15 0 0 0-0.07 0.2 A4.18 4.18 0 0 1 8.63 16a4.34 4.34 0 0 1-2.11 0.19 3.71 3.71 0 0 1-2-0.9 3.89 3.89 0 0 1-1.15-1.81 4.45 4.45 0 0 1-0.17-1.94 3.87 3.87 0 0 1 2.28-3.22A4 4 0 0 1 7.22 8zM20.33 26.15a6.17 6.17 0 0 0 3-0.7 4.59 4.59 0 0 0 2.18-2.55 5.7 5.7 0 0 0 0.26-2.66 4.72 4.72 0 0 0-2.57-3.64c-0.32-0.18-0.65-0.32-1-0.47-0.15-0.07-0.2 0-0.21 0.13 -0.01 0.13 0 0.46-0.06 0.69 -0.06 0.23 0 0.18 0.15 0.22a4 4 0 0 1 2.28 2.16 4 4 0 0 1 0.36 1.85 4.2 4.2 0 0 1-0.43 1.82 3.61 3.61 0 0 1-2 1.78 4.45 4.45 0 0 1-4.17-0.41 3.57 3.57 0 0 1-1.52-2.17 4.78 4.78 0 0 1-0.12-1.58 3.25 3.25 0 0 1 0.09-0.49c0-0.1 0-0.15-0.11-0.16l-0.84-0.06c-0.1 0-0.16 0-0.17 0.13 a11.64 11.64 0 0 0-0.09 1.21 5.1 5.1 0 0 0 0.64 2.34 4.65 4.65 0 0 0 1.8 1.82 5.43 5.43 0 0 0 2.53 0.74 zM24.48 9.37v4.24c0 0.51 0.07 0.63 0.55 0.78 0.47 0.171 0.994 0.108 1.41-0.17a1 1 0 0 0 0.48-0.85V11 8.47c0-0.22 0-0.27-0.26-0.27h-0.85a0.83 0.83 0 0 1-0.26-0.05 0.39 0.39 0 0 1-0.24-0.42 0.38 0.38 0 0 1 0.37-0.32h1c0.23 0 0.27 0 0.26-0.26 0-0.46 0-0.93-0.05-1.39a1.3 1.3 0 0 0-1.22-1.22 1.56 1.56 0 0 0-1 0.22 0.36 0.36 0 0 0-0.19 0.34 c-0.05 1.45-0.02 2.9 0 4.27z" fill="#FFF"/>
  <path d="M6.69 12a0.62 0.62 0 0 0 0.89 0.55 2.5 2.5 0 0 0 0.32-0.22l3.29-2.28 0.81 -0.54c0.14-0.1 0.21 -0.06 0.25 0.1l0.65 2.64c0.21 0.85 0.41 1.71 0.62 2.56a0.51 0.51 0 0 0 0.09 0.14 s0.09-0.08 0.11 -0.13c0.16-0.4 0.34 -0.8 0.47 -1.21a1.06 1.06 0 0 0 0-0.48c-0.12-0.61-0.24-1.21-0.37-1.82-0.06-0.3-0.13-0.6-0.18-0.89a0.52 0.52 0 0 1 0-0.18 0.49 0.49 0 0 1 0.17 0l2 1.48a0.33 0.33 0 0 0 0.34 0.06 l0.67-0.22a0.51 0.51 0 0 0 0.12-0.09 0.6 0.6 0 0 0-0.1-0.12l-1.35-0.89-2.12-1.33a3.35 3.35 0 0 0-0.52-0.26 2.68 2.68 0 0 1-0.93-0.64 0.18 0.18 0 0 0-0.28 0L8.2 10.68c-0.39 0.28 -0.8 0.54 -1.2 0.82 a0.61 0.61 0 0 0-0.31 0.5 zM23 15.3a1 1 0 0 0-0.13-0.22 1.61 1.61 0 0 0-0.93-0.44 0.24 0.24 0 0 0-0.14 0c-0.35 0.19 -0.71 0.37 -1.05 0.57 a0.29 0.29 0 0 0-0.13 0.19 c-0.06 0.68 -0.12 1.35-0.17 2-0.05 0.65 -0.1 1.26-0.15 1.9 0 0.28 0 0.56-0.07 0.84 -0.07 0.28 -0.07 0.24 -0.27 0.13 l-3.13-1.85c-0.2-0.12-0.24-0.1-0.28 0.13 -0.04 0.23 -0.07 0.3 -0.11 0.45 a0.2 0.2 0 0 0 0.1 0.25 l4.26 2.85c0.16 0.11 0.21 0.08 0.22-0.12 0.05 -0.63 0.11 -1.25 0.16 -1.88 0.05 -0.63 0.09 -1.07 0.13 -1.6l0.15-1.78c0-0.36 0.07 -0.73 0.09 -1.09 0.02 -0.36 0.07 -0.3 0.3 -0.17 0.23 0.147 0.498 0.22 0.77 0.21a0.35 0.35 0 0 0 0.38-0.37zM22.17 0c-0.38 0.08 -0.79 0.15 -1.2 0.24 -0.41 0.09 -0.67 0.17 -1 0.26a0.94 0.94 0 0 0-0.17 0.09 0.66 0.66 0 0 0 0.15 0.13 l1.38 0.55 0.78 0.31 c0.11 0 0.15 0.11 0.09 0.23 -0.06 0.12 -0.16 0.31 -0.23 0.47 a0.17 0.17 0 0 1-0.22 0.1 l-1.07-0.23h-0.21a0.12 0.12 0 0 0-0.15 0.13 c0 0.25 0 0.5-0.06 0.75 s0.05 0.17 0.16 0.19 c0.54 0.11 1.07 0.22 1.61 0.32 a1.6 1.6 0 0 0 1.78-0.93 1.79 1.79 0 0 0-0.28-2 1.66 1.66 0 0 0-0.86-0.45l-0.5-0.16z" fill="#FFF"/>
  <path d="M20.06 16.22c0-0.45 0-0.44-0.33-0.38A5.23 5.23 0 0 0 17.19 17c-0.14 0.12 -0.27 0.25 -0.4 0.38 s-0.07 0.14 0 0.22l0.54 0.56 c0.1 0.1 0.17 0.09 0.26 0a4 4 0 0 1 1.55-1 7.17 7.17 0 0 1 0.75-0.21c0.08 0 0.12 0 0.13-0.13 0.01 -0.13 0.03 -0.48 0.04 -0.6z" fill="#FFF"/>
</svg>
