<?xml version="1.0" ?>
<svg xmlns="http://www.w3.org/2000/svg" width="34" height="32" viewBox="0 0 34 32">
  <path d="M16.78 18.76h15.68a1.1 1.1 0 0 1 1.08 1c0.07 0.373 0.07 0.757 0 1.13a7.65 7.65 0 0 1-0.34 1.31 14 14 0 0 1-1.29 2.74 14.77 14.77 0 0 1-2.65 3.34c-0.12 0.11 -0.24 0.22 -0.37 0.32 a0.46 0.46 0 0 1-0.2 0.05 c-2 0-3.93 0.07 -5.89 0.08 h-9.64c-2.05 0-4.1 0-6.15-0.06-0.72 0-1.44 0-2.16-0.07a0.71 0.71 0 0 1-0.38-0.2 9.91 9.91 0 0 1-1.57-1.6 16.05 16.05 0 0 1-1.81-2.93 12 12 0 0 1-0.81-2.08 8.82 8.82 0 0 1-0.22-1.14 1.77 1.77 0 0 1 0-0.6 2.55 2.55 0 0 1 0.22-0.82 0.93 0.93 0 0 1 0.9-0.48h15.6v0.01zm0 6.58h-5.16a0.72 0.72 0 0 0-0.74 0.75 v0.61a0.74 0.74 0 0 0 0.77 0.76 H22a0.74 0.74 0 0 0 0.76-0.77v-0.51a0.78 0.78 0 0 0-0.85-0.85c-1.74 0.02 -3.43 0.01 -5.12 0.01 h-0.01zM25 5.9l0.56-0.58L30.6 0.08 c0.09-0.09 0.15 -0.11 0.25 0l2.7 2.62c0.1 0.11 0.12 0.16 0 0.28-1.7 1.753-3.413 3.513-5.14 5.28-0.14 0.14 -0.28 0.28 -0.41 0.43 -0.13 0.15 -0.13 0.07 -0.2 0l-0.8-0.8-0.15-0.13-0.77 0.8 c-0.42 0.42 -0.85 0.84 -1.26 1.27a0.37 0.37 0 0 0-0.11 0.27 8.69 8.69 0 0 1-0.25 1.75 22.92 22.92 0 0 1-2 5c-0.1 0.19 -0.19 0.38 -0.3 0.56 a0.23 0.23 0 0 1-0.14 0.1 h-1.43a26.3 26.3 0 0 0 2.3-5.07h-0.05a1.59 1.59 0 0 0-0.13 0.13 l-3 3.67-1 1.22s-0.1 0.1 -0.15 0.1 h-1.71l5.27-6.42h-0.05l-0.48 0.42 -5.74 5.25-0.75 0.7 a0.31 0.31 0 0 1-0.15 0.08 h-1.44v-0.05l7.13-6.87h-0.18a24.57 24.57 0 0 0-3.83 2.1 13.17 13.17 0 0 0-2.6 2.4c-0.62 0.74 -1.21 1.52-1.8 2.28a0.29 0.29 0 0 1-0.26 0.13 h-1.28c0.08-0.17 0.14 -0.31 0.21 -0.44a16.2 16.2 0 0 1 3.47-4.22 18.31 18.31 0 0 1 4-2.75 12.19 12.19 0 0 1 2.23-0.84 7.53 7.53 0 0 1 2.4-0.28c0.17 0 0.34 0.07 0.51 0.09 a0.4 0.4 0 0 0 0.22-0.05L25.83 7a0.15 0.15 0 0 0 0-0.25L25 6v-0.1zM16.8 31.15H5.38a0.59 0.59 0 0 1-0.61-0.41A0.58 0.58 0 0 1 5 30a0.7 0.7 0 0 1 0.4-0.12h22.83a0.59 0.59 0 0 1 0.58 0.41 0.65 0.65 0 0 1-0.16 0.67 0.62 0.62 0 0 1-0.45 0.16 H16.8v0.03z" fill="#FFF"/>
</svg>
