<?xml version="1.0" ?>
<svg xmlns="http://www.w3.org/2000/svg" width="23" height="36" viewBox="0 0 23 36">
  <path d="M0.24 35.1v-0.41-5.55a0.59 0.59 0 0 1 0.46-0.66 55.71 55.71 0 0 1 10.4-2.74 59.71 59.71 0 0 1 11.09-0.81c0.34 0 0.44 0.13 0.43 0.45 a9.29 9.29 0 0 0 0 1.18c0 0.42-0.13 0.55 -0.52 0.6 -1.25 0.14 -2.49 0.28 -3.73 0.49 a41.31 41.31 0 0 0-15.3 5.45c-0.96 0.6 -1.85 1.31-2.83 2zM21.45 9l-0.69-0.47A10.94 10.94 0 0 0 15.86 7 19 19 0 0 0 5.48 8.84a11.55 11.55 0 0 0-3.35 2.44l-0.26 0.25 a0.83 0.83 0 0 1 0-1 15.85 15.85 0 0 1 10.66-6.76 11.72 11.72 0 0 1 6 0.33 7.59 7.59 0 0 1 1.67 0.9 c0.27 0.205 0.48 0.477 0.61 0.79 A7.13 7.13 0 0 1 21.45 9z" fill="#FFF"/>
  <path d="M3.91 14.86l-0.44-0.46c0.1-0.13 0.17 -0.25 0.26 -0.36A16.06 16.06 0 0 1 15 8.15a9.5 9.5 0 0 1 5.47 0.92 c1 0.57 1.1 0.62 0.81 1.75-0.16 0.59 -0.42 1.16-0.63 1.75-0.09 0.24 -0.22 0.25 -0.45 0.16 a17.54 17.54 0 0 0-13.37 0.13 7.15 7.15 0 0 0-2.72 1.86l-0.2 0.14 z" fill="#FFF"/>
  <path d="M7.79 18.08c0.31-0.68 0.6 -1.29 0.85 -1.91a8.32 8.32 0 0 0 0.73-2.86 0.34 0.34 0 0 1 0.21-0.26c1.31-0.16 2.62-0.31 3.93-0.44 0.09 0 0.27 0.17 0.27 0.26 a12.47 12.47 0 0 0 1.38 4.85c0.043 0.08 0.08 0.164 0.11 0.25 v0.11H7.79zM1.92 6.22C3 2.88 6.63 0.29 10.42 0a10.37 10.37 0 0 1 9.16 3.74 14.65 14.65 0 0 0-9.23-1.56 14.53 14.53 0 0 0-8.43 4.04zM9.28 21.51l-0.88-1h1.61c0.1 0 0.21 0.14 0.3 0.24 l1 1.06h0.13c0-0.3 0.06 -0.6 0.05 -0.9-0.01-0.3 0.09 -0.42 0.41 -0.41 1.14 0 0.93-0.16 0.95 0.92 0 0.64-0.06 0.7 -0.9 1l1 0.88-0.06 0.15 a11 11 0 0 0-1.15 0 1.08 1.08 0 0 1-1-0.47c-0.27-0.32-0.58-0.61-0.87-0.91h-0.14a8.14 8.14 0 0 0 0 0.86c0 0.38-0.1 0.51 -0.49 0.49 -1 0-0.86 0.14 -0.87-0.89 0-0.61 0.15 -0.8 0.72 -1 0.02 0.06 0.08 0.02 0.19-0.02zM6.38 21.28H4.53c-0.38 0-0.55-0.1-0.48-0.48v-0.08c0-1.11-0.24-0.94 1-1 0.24 0 0.39 0.07 0.35 0.34 -0.04 0.27 0.13 0.44 0.45 0.43 h1.43c0.64 0 0.87 0.41 0.55 1a20.1 20.1 0 0 1-1 1.68 0.61 0.61 0 0 1-0.42 0.26 H5.12l1.29-2.07-0.03-0.08zM1.57 22.47v1.54c0 0.28-0.11 0.36 -0.38 0.37 C0 24.41 0 24.42 0 23.22v-2.33c0-0.28 0.09 -0.36 0.36 -0.37 1.21 0 1.21 0 1.21 1.15v0.8zM21.12 20.53c0.37-0.03 0.74 -0.03 1.11 0 0.23 0.062 0.437 0.187 0.6 0.36 0.11 0.11 0.14 0.3 -0.12 0.39 -0.09 0-0.16 0.22 -0.17 0.34 v1.5c0 0.23-0.07 0.32 -0.31 0.34 -1.05 0.06 -1.05 0.06 -1.05-1a6.94 6.94 0 0 1 0-0.79c0-0.34-0.12-0.44-0.44-0.42-0.32 0.02 -0.52 0-0.79 0s-0.27-0.21-0.28-0.41c-0.01-0.2 0-0.36 0.29 -0.35 0.29 0.01 0.77 0 1.15 0l0.01 0.04 zM17.38 22.17v1c0 0.34-0.09 0.29 -0.3 0.31 -1.06 0.07 -1 0.07-1.06-1 0-0.38 0.11 -0.89-0.08-1.1-0.19-0.21-0.71-0.11-1.09-0.11-0.38 0-0.34-0.15-0.33-0.39 0.01 -0.24 0-0.38 0.32 -0.37h1.85c0.47 0 0.67 0.23 0.69 0.69 v1-0.03zM1.92 22v-1.15c0-0.38 0.07 -0.35 0.32 -0.33h0.08c1.17 0 1.17 0 1.17 1.13v1.43c0 0.26-0.06 0.37 -0.35 0.38 -1.22 0-1.22 0.05 -1.22-1.18V22zM19.28 22v1.15c0 0.21-0.08 0.31 -0.3 0.31 H18c-0.21 0-0.32-0.07-0.32-0.3v-2.34c0-0.22 0.09 -0.31 0.31 -0.3 0.22 0.01 0.63 0 0.95 0 0.32 0 0.32 0.11 0.31 0.34 -0.01 0.23 0.03 0.76 0.03 1.14zM16.86 14.62l0.71-2.2a6.62 6.62 0 0 1 2.14 0.73 0.43 0.43 0 0 1 0 0.79 2.2 2.2 0 0 1-0.76 0.32 c-0.67 0.14 -1.34 0.23 -2.09 0.36 z" fill="#FFF"/>
</svg>
