<?xml version="1.0" ?>
<svg xmlns="http://www.w3.org/2000/svg" width="44" height="15" viewBox="0 0 44 15">
  <path d="M27.44 14.74h3.18a14.31 14.31 0 0 0 2.77-0.37 4 4 0 0 0 2.93-5 9.76 9.76 0 0 0-0.42-1.52c-1-2.25-1.94-4.51-3-6.73A1.6 1.6 0 0 0 31.45 0C30 0.05 28.51 0 27 0.05c-0.8 0-1 0.38-0.6 1.15 1.15 2.39 2.28 4.8 3.38 7.17 0.3 0.652 0.564 1.32 0.79 2 0.092 0.277 0.13 0.569 0.11 0.86 a0.56 0.56 0 0 1-0.27 0.39 0.52 0.52 0 0 1-0.47-0.09 13.1 13.1 0 0 1-0.94-1.34c-1.88-3-3.73-6.07-5.65-9.08A2.23 2.23 0 0 0 22 0.09C20.34 0 18.63 0 16.93 0.07 c-0.58 0-0.76 0.47 -0.44 1s0.61 0.85 0.9 1.29l5.91 8.73c0.31 0.46 0.11 0.61 -0.34 0.63 -0.45 0.02 -1.13-0.1-1.36 0.54 a2.25 2.25 0 0 0 1.78 2.5c1.35 0 2.71-0.02 4.06-0.02zM7.4 0h-6C-0.22 0.06 -0.27 0.22 0.42 1.62a2.25 2.25 0 0 0 2.49 1.47c1-0.1 2 0.08 3 0a1.92 1.92 0 0 1 2.35 1.48c0.055 0.167 0.118 0.33 0.19 0.49 l4.08 8.76c0.23 0.5 0.49 0.93 1.15 0.92 h4.78c0.64 0 0.78-0.29 0.53 -0.89-0.41-1-0.83-1.94-1.28-2.89-1.04-2.24-2.087-4.477-3.14-6.71-0.18-0.38-0.44-0.91 0-1.08 0.89 -0.31 0.53 -0.86 0.45 -1.39C14.81 0.16 14.7 0.05 13.06 0H7.4zm29.54 0h-2.65c-0.19 0-0.4 0.21 -0.56 0.37 -0.16 0.16 0.1 0.3 0.21 0.4 a7.51 7.51 0 0 1 1.79 3c0.75 1.78 1.58 3.53 2.42 5.26 0.57 1.17 0.93 1.28 2.08 0.73 A11.39 11.39 0 0 0 42 8.72a2.63 2.63 0 0 0 1-3.24 36.21 36.21 0 0 0-1.89-4A2.49 2.49 0 0 0 38.53 0a12 12 0 0 1-1.59 0z" fill="#FFF"/>
</svg>
