<?xml version="1.0" ?>
<svg xmlns="http://www.w3.org/2000/svg" width="12" height="36" viewBox="0 0 12 36">
  <path d="M4.24 12.42v0.63a0.25 0.25 0 0 0 0.15 0.26 l1.1 0.6 c0.16 0.09 0.2 0.06 0.21-0.12 0-1.32 0.09 -2.64 0.14 -4 0-0.83 0.05 -1.66 0.07 -2.49 0-1 0.06-2 0.08-3a0.39 0.39 0 0 1 0.19-0.38A2.15 2.15 0 0 0 4.29 0.12 a2.1 2.1 0 0 0-1.43 2.11 2 2 0 0 0 0.94 1.7 0.44 0.44 0 0 1 0.2 0.35 c0 1 0.07 2 0.1 3 0 0.63 0 1.27 0.05 1.9l0.09 3.24zm2.06 10c0.07-0.06 0.12 -0.08 0.16 -0.12 0.54 -0.55 1.11-1.07 1.62-1.65A3.45 3.45 0 0 0 8.92 19a2.48 2.48 0 0 0-0.34-1.79 4.74 4.74 0 0 0-1.8-1.67c-0.76-0.43-1.54-0.81-2.31-1.24a8.46 8.46 0 0 1-2.57-2 1.58 1.58 0 0 1-0.47-1.3c0.07-0.323 0.18 -0.636 0.33 -0.93a3.27 3.27 0 0 1 1.39-1.25 0.26 0.26 0 0 0 0.16-0.27c0-0.43-0.05-0.86-0.07-1.29v-0.07a0.48 0.48 0 0 0-0.18 0A5.59 5.59 0 0 0 0.83 8.92a3.23 3.23 0 0 0-0.78 2.67 4 4 0 0 0 0.35 1.07 5.87 5.87 0 0 0 2 2.15 14.94 14.94 0 0 0 2.5 1.4c0.41 0.18 0.84 0.36 1.23 0.58 a3.22 3.22 0 0 1 1.18 1.08c0.308 0.377 0.34 0.909 0.08 1.32-0.24 0.34 -0.48 0.69 -0.74 1a1 1 0 0 0-0.33 0.71 v0.72c0 0.24-0.02 0.53 -0.02 0.83 v-0.03zm-0.36 10.85a2.68 2.68 0 0 0 1.11-0.86 2.74 2.74 0 0 0 0.3-2.33 4.35 4.35 0 0 0-1.15-1.81 11.72 11.72 0 0 0-1.7-1.37 4.8 4.8 0 0 1-0.76-0.66 0.78 0.78 0 0 1-0.15-0.89 2.11 2.11 0 0 0 0.18-0.45v-1.7a0.83 0.83 0 0 0 0-0.15 0.52 0.52 0 0 0-0.15 0.07 c-0.31 0.36 -0.64 0.71 -0.92 1.1a2.55 2.55 0 0 0-0.47 1.25 2.19 2.19 0 0 0 0.81 2c0.5 0.44 1.06 0.81 1.6 1.21a5.12 5.12 0 0 1 1.51 1.63c0.304 0.488 0.327 1.1 0.06 1.61a1.51 1.51 0 0 0-0.19 0.68 c-0.09 0.18 -0.08 0.4 -0.08 0.67 zm0.78-25.82c0.005 0.09 0.005 0.18 0 0.27 0 0.15 0 0.23 0.21 0.21h0.12c0.34 0 0.45 0.09 0.55 0.42 0.15 0.613 0.45 1.18 0.87 1.65a2.1 2.1 0 0 0 1.83 0.75 c0.136-0.02 0.274 -0.02 0.41 0a0.58 0.58 0 0 0 0.71-0.68c-0.06-0.26-0.12-0.53-0.2-0.78A4 4 0 0 0 10.54 8a4.08 4.08 0 0 0-2-1.35A5.1 5.1 0 0 0 7 6.41c-0.09 0-0.15 0-0.16 0.14 -0.07 0.3 -0.1 0.6 -0.12 0.9 zM4.39 16.9v0.29c0 1 0.05 2 0.08 3 0 1.41 0.1 2.83 0.14 4.24 0 0.46 0 0.93 0.06 1.39a0.54 0.54 0 0 0 0.15 0.25 c0.097 0.081 0.201 0.155 0.31 0.22 a0.49 0.49 0 0 0 0.16 0.05 0.49 0.49 0 0 0 0-0.16c0-1 0-1.9 0.08 -2.85 0-0.52 0-1 0.06-1.57 0-1.38 0.06 -2.77 0.1 -4.15a0.21 0.21 0 0 0-0.14-0.22L4.58 17a0.63 0.63 0 0 0-0.19-0.1zM4.78 30L5 35.88a0.59 0.59 0 0 0 0-0.13c0-0.86 0-1.71 0.08 -2.57 0.08 -0.86 0-1.73 0.07 -2.59a0.66 0.66 0 0 0-0.37-0.59zM2.3 34.8v0.05h0.12l1.38-0.59c0.29-0.13 0.29 -0.13 0.26 -0.45a0.15 0.15 0 0 1 0-0.07c0-0.17-0.08-0.2-0.23-0.1-0.35 0.2 -0.7 0.4 -1 0.63a1.81 1.81 0 0 0-0.53 0.53 z" fill="#FFF"/>
  <path d="M4.24 12.42l-0.09-3.28c0-0.63 0-1.27-0.05-1.9 0-1-0.07-2-0.1-3a0.44 0.44 0 0 0-0.2-0.35 2 2 0 0 1-0.94-1.7A2.1 2.1 0 0 1 4.29 0.12 a2.15 2.15 0 0 1 1.9 3.82 0.39 0.39 0 0 0-0.19 0.38 c0 1 0 2-0.08 3 0 0.83 0 1.66-0.07 2.49 0 1.32-0.09 2.64-0.14 4 0 0.18 0 0.21-0.21 0.12 l-1.1-0.6a0.25 0.25 0 0 1-0.15-0.26v-0.63l-0.01-0.02z" fill="#FFF"/>
  <path d="M6.3 22.45v-0.81-0.72a1 1 0 0 1 0.33-0.71c0.26-0.33 0.5 -0.68 0.74 -1a1.13 1.13 0 0 0-0.08-1.32 3.22 3.22 0 0 0-1.18-1.08c-0.39-0.22-0.82-0.4-1.23-0.58a14.94 14.94 0 0 1-2.5-1.4 5.87 5.87 0 0 1-2-2.15 4 4 0 0 1-0.35-1.07 3.23 3.23 0 0 1 0.8-2.69A5.59 5.59 0 0 1 3 7.24a0.48 0.48 0 0 1 0.18 0v0.07c0 0.43 0 0.86 0.07 1.29a0.26 0.26 0 0 1-0.16 0.27 3.27 3.27 0 0 0-1.39 1.29 3.82 3.82 0 0 0-0.33 0.93 c-0.058 0.49 0.116 0.977 0.47 1.32a8.46 8.46 0 0 0 2.57 2c0.77 0.43 1.55 0.81 2.31 1.24a4.74 4.74 0 0 1 1.8 1.67c0.33 0.494 0.472 1.09 0.4 1.68a3.45 3.45 0 0 1-0.84 1.67c-0.51 0.58 -1.08 1.1-1.62 1.65-0.04 0.05 -0.09 0.07 -0.16 0.13 zM5.94 33.27v-0.71a1.51 1.51 0 0 1 0.19-0.68 1.62 1.62 0 0 0-0.06-1.61 5.12 5.12 0 0 0-1.51-1.63c-0.54-0.4-1.1-0.77-1.6-1.21a2.19 2.19 0 0 1-0.81-2 2.55 2.55 0 0 1 0.47-1.25c0.28-0.39 0.61 -0.74 0.92 -1.1a0.52 0.52 0 0 1 0.15-0.07 0.83 0.83 0 0 1 0 0.15v1.7a2.11 2.11 0 0 1-0.18 0.45 0.78 0.78 0 0 0 0.15 0.89 4.8 4.8 0 0 0 0.76 0.66 11.72 11.72 0 0 1 1.7 1.37 4.35 4.35 0 0 1 1.15 1.81 2.74 2.74 0 0 1-0.3 2.33 2.68 2.68 0 0 1-1.03 0.9 zM6.72 7.45c0-0.3 0-0.6 0.07 -0.9 0-0.12 0.07 -0.14 0.16 -0.14a5.1 5.1 0 0 1 1.6 0.25 4.08 4.08 0 0 1 2 1.35 4 4 0 0 1 0.68 1.27c0.08 0.25 0.14 0.52 0.2 0.78 a0.58 0.58 0 0 1-0.71 0.68 1.46 1.46 0 0 0-0.41 0A2.1 2.1 0 0 1 8.47 10a3.86 3.86 0 0 1-0.87-1.6c-0.1-0.33-0.21-0.41-0.55-0.42h-0.12c-0.17 0-0.22-0.06-0.21-0.21a2.44 2.44 0 0 0 0-0.27v-0.05z" fill="#FFF"/>
  <path d="M4.39 16.9a0.63 0.63 0 0 1 0.19 0.07 l0.86 0.43 a0.21 0.21 0 0 1 0.14 0.22 c0 1.38-0.07 2.77-0.1 4.15 0 0.53 0 1.05-0.06 1.57 0 0.95 0 1.9-0.08 2.85a0.49 0.49 0 0 1 0 0.16 0.49 0.49 0 0 1-0.16-0.05 2.44 2.44 0 0 1-0.31-0.22 0.54 0.54 0 0 1-0.15-0.25c0-0.46 0-0.93-0.06-1.39 0-1.41-0.09-2.83-0.14-4.24 0-1 0-2-0.08-3l-0.05-0.3zM4.78 30a0.66 0.66 0 0 1 0.42 0.57 c0 0.86 0 1.72-0.07 2.59-0.07 0.87 0 1.71-0.08 2.57a0.59 0.59 0 0 1 0 0.13H5L4.78 30zM2.3 34.8a1.81 1.81 0 0 1 0.53-0.57c0.33-0.23 0.68 -0.43 1-0.63 0.15 -0.1 0.2 -0.07 0.23 0.1a0.15 0.15 0 0 0 0 0.07c0 0.32 0 0.32-0.26 0.45 l-1.38 0.59 H2.3v-0.01z" fill="#FFF"/>
</svg>
