<?xml version="1.0" ?>
<svg xmlns="http://www.w3.org/2000/svg" width="41" height="36" viewBox="0 0 41 36">
  <path d="M0 29.17a6.44 6.44 0 0 1 0.42-0.72 1.62 1.62 0 0 1 1.18-0.65l7.21-0.59c1.65-0.14 3.3-0.26 4.95-0.39 0.12 0 0.23 0 0.39-0.07-0.07-0.13-0.13-0.25-0.2-0.36-0.66-1-1.32-2-2-3a0.74 0.74 0 0 0-0.72-0.4H5.37a1.77 1.77 0 0 1-1.69-1.39 1.82 1.82 0 0 1 1-2 2.32 2.32 0 0 1 0.86-0.18h6a0.62 0.62 0 0 1 0.18 0.05 2.66 2.66 0 0 0 3.1 3.87c0.51-0.16 1-0.34 1.51-0.55a0.49 0.49 0 0 1 0.62 0.14 c0.64 0.65 1.28 1.3 1.95 1.91 0.195 0.17 0.442 0.269 0.7 0.28h9.79a3.23 3.23 0 0 1 2.81 1.29 3.18 3.18 0 0 1-2.34 5.07H18.56a1.38 1.38 0 1 1-0.14-2.75c0.91 0 1.82-0.06 2.73 0a21.78 21.78 0 0 0 6.58-0.73c0.42-0.1 0.84 -0.18 1.32-0.28l-0.24-1.23c-0.65 0.13 -1.27 0.22 -1.86 0.39 a22.54 22.54 0 0 1-6.65 0.58 h-2a2.62 2.62 0 0 0-2.3 3.7c0 0.07 0.06 0.13 0.11 0.26H2.28A2.09 2.09 0 0 1 0 30v-0.83z" fill="#FFF"/>
  <path d="M0 33.11c0.26-0.42 0.66 -0.43 1.09-0.43h28.95a5 5 0 0 0 3.4-1.22 4.78 4.78 0 0 1 0.82-0.62 2.9 2.9 0 0 1 1.17-0.36c1.07-0.05 2.14 0 3.22 0a1.26 1.26 0 0 1 1.45 1.47 21.87 21.87 0 0 0 0 2.29 1.7 1.7 0 0 1-0.72 1.57H0.72L0 34.72v-1.61zM19.69 0c0.37 0.104 0.734 0.227 1.09 0.37 a3.72 3.72 0 1 1-2.5-0.26l0.33-0.11h1.08zM40.18 26.49a3.83 3.83 0 0 1-1.31 2.11A3.35 3.35 0 1 1 40 25c0 0.14 0.1 0.28 0.14 0.42l0.04 1.07zM20.55 13.5l-1.07-0.39c-0.43 1-0.82 2-1.26 3a1 1 0 0 1-0.51 0.48 c-1.19 0.47 -2.39 0.9 -3.65 1.36v-4.1l-0.41 0.41 c-1.11 1.21-2.2 2.43-3.33 3.63a1.07 1.07 0 0 1-0.64 0.28 h-4a3 3 0 0 1 0.2-0.28l7.75-8.49a2.84 2.84 0 0 1 2.11-0.92c1.82 0 3.64-0.06 5.46 0a3 3 0 0 1 2.8 4.23c-0.83 2.18-1.75 4.33-2.68 6.48a1.67 1.67 0 0 1-0.89 0.8 c-1.91 0.75 -3.84 1.45-5.77 2.14a1.45 1.45 0 1 1-1-2.72c1.62-0.63 3.26-1.22 4.88-1.86a1 1 0 0 0 0.5-0.48c0.52-1.16 0.96 -2.33 1.51-3.57z" fill="#FFF"/>
  <path d="M24.14 23.25h-4.52a1 1 0 0 1-0.86-0.36 9.36 9.36 0 0 0-0.77-0.71l0.47-0.21 2.38-0.88a2.56 2.56 0 0 0 1.58-1.47c0.48-1.16 1-2.3 1.47-3.45a1.46 1.46 0 0 1 0.25-0.43v7.51z" fill="#FFF"/>
</svg>
