<?xml version="1.0" ?>
<svg xmlns="http://www.w3.org/2000/svg" width="32" height="37" viewBox="0 0 32 37">
  <path d="M24.25 9.55h0.15c0.28 0 0.38 0.08 0.37 0.38 a4.08 4.08 0 0 1-0.08 0.85 c-0.07 0.38 -0.17 0.76 -0.28 1.14a2.33 2.33 0 0 1-1 1.42 0.66 0.66 0 0 0-0.31 0.49 c-0.14 0.69 -0.28 1.38-0.45 2.07a7 7 0 0 1-1 2.27c-0.16 0.24 -0.37 0.45 -0.54 0.69 a0.64 0.64 0 0 0-0.13 0.29 2 2 0 0 0 0.19 1.14 0.29 0.29 0 0 1-0.08 0.22 l-2.17 2.17c-0.25 0.25 -0.25 0.25 0 0.5s0.61 0.62 0.92 0.92 a0.21 0.21 0 0 1 0 0.31 8 8 0 0 0-0.84 2.27 8.33 8.33 0 0 0-0.23 2.63 8.52 8.52 0 0 0 1.89 4.77 8.86 8.86 0 0 0 1.57 1.49l0.14 0.12 a1 1 0 0 1-0.23 0.09 c-0.51 0.06 -1 0.13-1.54 0.16 -1.12 0.07 -2.24 0.15 -3.36 0.17 -1.12 0.02 -2 0-3-0.07-0.44 0-0.87 0-1.31-0.1-0.44-0.1-1.07-0.13-1.61-0.2-0.37-0.05-0.74-0.1-1.1-0.17-0.36-0.07-0.69-0.12-1-0.19L8 35.13c-0.43-0.11-0.87-0.21-1.3-0.33-0.59-0.18-1.18-0.36-1.76-0.57-0.84-0.32-1.68-0.64-2.5-1-0.59-0.27-1.14-0.63-1.72-0.94a1.16 1.16 0 0 1-0.6-1 13.42 13.42 0 0 1-0.05-3.19 3.93 3.93 0 0 1 0.46-1.71 7.22 7.22 0 0 1 2.61-2.51 11.15 11.15 0 0 1 2.34-1c0.83-0.24 1.67-0.45 2.51-0.68 0.84 -0.23 1.76-0.48 2.63-0.75a3 3 0 0 0 1.32-0.75 1.75 1.75 0 0 0 0.48-1.14v-0.26a0.73 0.73 0 0 0-0.19-0.58A9 9 0 0 1 11 16.51c-0.22-0.52-0.41-1.05-0.58-1.59-0.17-0.54-0.21-0.83-0.31-1.24a0.32 0.32 0 0 0-0.08-0.14 3.84 3.84 0 0 1-1.35-1.71 4.45 4.45 0 0 1-0.36-1.52 1.09 1.09 0 0 1 0.06-0.47c0.07-0.21 0.26 -0.25 0.45 -0.26 0.19 -0.01 0.24 0 0.2-0.26-0.04-0.26-0.03-0.26-0.03-0.38 0-0.32-0.09-0.64-0.12-1a8.63 8.63 0 0 1-0.06-2c0-0.27 0.06 -0.54 0.1 -0.8a6 6 0 0 1 1.2-2.82A5.77 5.77 0 0 1 12.85 0.49 9.39 9.39 0 0 1 15.67 0c0.416 0 0.831 0.04 1.24 0.12 0.44 0.07 0.88 0.18 1.32 0.29 a8.87 8.87 0 0 1 1.91 0.86 c0.192 0.095 0.398 0.159 0.61 0.19 a4.27 4.27 0 0 1 2.18 1.31 5.18 5.18 0 0 1 1.25 2.41 8.83 8.83 0 0 1 0.16 2.23V8.5c0 0.36-0.06 0.69 -0.09 1.05z" fill="#FFF"/>
  <path d="M25.57 24.72v0.06c0 0.16 0 0.32-0.07 0.47 -0.07 0.15 -0.07 0.25 -0.11 0.37 a3 3 0 0 0-0.11 0.32 0.23 0.23 0 0 0 0.19 0.25 l0.68 0.07 a2.6 2.6 0 0 1 0.4 0.1 1 1 0 0 0 0.79-0.06c0.29-0.15 0.56 -0.32 0.84 -0.48a5.8 5.8 0 0 1 1-0.49c0.21-0.07 0.41 -0.13 0.62 -0.18a1.44 1.44 0 0 1 0.36-0.07h0.64a2 2 0 0 1 0.49 0.07 5.6 5.6 0 0 1 0.54 0.17 l0.08 0.05 a2 2 0 0 1-0.25 0.13 c-0.195 0.08 -0.4 0.13 -0.61 0.15 a4.91 4.91 0 0 0-0.66 0.06 3.76 3.76 0 0 0-1.26 0.47 3.3 3.3 0 0 0-0.89 0.77 0.09 0.09 0 0 0 0 0.14c0.223 0.302 0.392 0.64 0.5 1 0.08 0.27 0.14 0.54 0.21 0.8 0.07 0.26 0.12 0.34 0.18 0.51 0.06 0.17 0.08 0.29 0.11 0.44 0.03 0.15 0.09 0.4 0.12 0.6 a6 6 0 0 0 0.23 0.72 0.73 0.73 0 0 1 0 0.25V33.11c0 0.1 0.05 0.2 0.07 0.3 0.005 0.07 0.005 0.14 0 0.21 0 0.16-0.07 0.23 -0.23 0.25 a1.85 1.85 0 0 1-0.66 0h-0.14c-0.1 0-0.16-0.07-0.15-0.16a2.26 2.26 0 0 1 0.07-0.39c0.05-0.17 0.12 -0.33 0.18 -0.49v-0.06-0.8a2.54 2.54 0 0 0-0.1-0.37 0.92 0.92 0 0 1-0.05-0.28 0.55 0.55 0 0 0-0.32-0.57 1.25 1.25 0 0 1-0.57-0.63h-0.05a2.18 2.18 0 0 0-0.83 0.39 0.51 0.51 0 0 0-0.16 0.38 v1.2c0 0.4-0.07 0.52 -0.09 0.78 a6.44 6.44 0 0 0 0 0.76c0.028 0.155 0.075 0.306 0.14 0.45 a0.59 0.59 0 0 1 0 0.47 0.18 0.18 0 0 1-0.21 0.12 0.61 0.61 0 0 0-0.33 0 1 1 0 0 1-0.34 0h-0.17a0.55 0.55 0 0 1-0.36-0.05h-0.15c-0.05 0-0.08 0-0.07-0.05a2.71 2.71 0 0 1 0-0.41c0.05-0.19 0.12 -0.36 0.17 -0.54a0.38 0.38 0 0 0 0-0.1c0-0.06 0-0.08-0.07-0.08a0.4 0.4 0 0 1-0.23-0.06h-0.39a1.3 1.3 0 0 1-0.25-0.1 0.11 0.11 0 0 1-0.06-0.16 0.65 0.65 0 0 1 0.39-0.37 0.58 0.58 0 0 0 0.32-0.28 2.42 2.42 0 0 0 0.31-0.8 0.8 0.8 0 0 0-0.24-0.7 0.08 0.08 0 0 0-0.07 0 0.43 0.43 0 0 1-0.35 0 0.55 0.55 0 0 0-0.38 0 0.48 0.48 0 0 1-0.61-0.18l-0.27-0.34s-0.1-0.09-0.14-0.09c-0.04 0 0 0.09-0.06 0.13 a0.36 0.36 0 0 0 0 0.1v0.82c0 0.27-0.06 0.54 -0.08 0.82 -0.01 0.19 -0.01 0.38 0 0.57a5 5 0 0 1 0 0.78 2.15 2.15 0 0 1-0.24 0.78 0.4 0.4 0 0 1-0.28 0.17 0.77 0.77 0 0 1-0.37 0c-0.05 0-0.09-0.07-0.14-0.07h-0.47a0.35 0.35 0 0 1-0.24-0.06c-0.1-0.08-0.13-0.17 0-0.27a4.38 4.38 0 0 1 0.39-0.36 0.87 0.87 0 0 0 0.3-0.36 1.8 1.8 0 0 0 0.07-0.73c0-0.13-0.05-0.27-0.07-0.41a0.55 0.55 0 0 1 0-0.18 2.62 2.62 0 0 0 0-0.56 5.74 5.74 0 0 1-0.1-0.82 3.72 3.72 0 0 1 0.08-0.65 1.29 1.29 0 0 0 0-0.55 1.83 1.83 0 0 1-0.11-0.8 3.4 3.4 0 0 1 0.07-0.34l0.09-0.45a3.73 3.73 0 0 1 0.23-0.93c0-0.07 0.1 -0.12 0.13 -0.19a0.2 0.2 0 0 0 0-0.15c-0.09-0.17-0.2-0.34-0.29-0.51a1.8 1.8 0 0 1-0.22-0.69 0.8 0.8 0 0 0 0-0.15 0.5 0.5 0 0 1-0.11 0.1 0.29 0.29 0 0 1-0.34 0 1.54 1.54 0 0 1-0.57-0.8 3.45 3.45 0 0 0-0.14-0.34 1.74 1.74 0 0 1-0.07-0.29 0.33 0.33 0 0 1 0.2-0.32l0.51-0.25a3.14 3.14 0 0 0 0.67-0.38 0.35 0.35 0 0 1 0.45 0 0.42 0.42 0 0 0 0.13 0.07 0.33 0.33 0 0 0 0.17 0c0.15 0 0.29-0.09 0.44 -0.11h0.95a0.77 0.77 0 0 1 0.45 0.14 h0.09a0.38 0.38 0 0 1 0.52-0.08c0.12 0.083 0.248 0.156 0.38 0.22 0.095 0.044 0.196 0.074 0.3 0.09 a0.81 0.81 0 0 1 0.58 0.4 0.77 0.77 0 0 1 0.07 0.45 v0.1c0 0.31 0 0.62-0.07 0.93 a2.83 2.83 0 0 1-0.13 0.5 0.2 0.2 0 0 1-0.11 0.11 c-0.06 0-0.1 0-0.13-0.08a2.58 2.58 0 0 1-0.34-0.66V25l-0.22-0.28z" fill="#FFF"/>
</svg>
