<?xml version="1.0" ?>
<svg xmlns="http://www.w3.org/2000/svg" width="20" height="31" viewBox="0 0 20 31">
  <path d="M14.53 7.92c0.15 0.16 0.29 0.28 0.41 0.43 a3.1 3.1 0 0 1 0.56 1.2c0.11 0.475 0.14 0.965 0.09 1.45a3 3 0 0 1-0.6 1.49c-0.3 0.41 -0.62 0.81 -0.9 1.22a1.54 1.54 0 0 0-0.27 1 1 1 0 0 0 0.69 1c0.25 0.066 0.51 0.066 0.76 0a1.72 1.72 0 0 0 1.27-1 1.74 1.74 0 0 0 0.1-0.36l0.06-0.19c0.12 0.29 0.26 0.58 0.36 0.88 a4.48 4.48 0 0 1 0.24 1.82 10.11 10.11 0 0 1-0.22 1.39 7.29 7.29 0 0 1-1.44 2.94 6.7 6.7 0 0 1-2.67 2c-0.23 0.1 -0.46 0.17 -0.7 0.25 a0.44 0.44 0 0 1-0.12 0 4 4 0 0 0 2.08-4c-0.09 0.12 -0.17 0.25 -0.27 0.37 a1.22 1.22 0 0 1-1 0.54 1 1 0 0 1-0.9-0.72 3.65 3.65 0 0 1 0-1.59 5.51 5.51 0 0 1 0.39-1.04 4.12 4.12 0 0 0 0.31-2.05 0.31 0.31 0 0 0 0-0.07l-0.08 0.1 a5.31 5.31 0 0 1-0.42 0.71 0.74 0.74 0 0 1-1.22 0 2.78 2.78 0 0 1-0.52-1 10.66 10.66 0 0 1-0.34-1.46 4.28 4.28 0 0 1 0.1-2l0.05-0.14v-0.06a3 3 0 0 0-0.26 0.22 2.56 2.56 0 0 0-0.63 1.17c-0.1 0.42 -0.16 0.86 -0.25 1.28a2.58 2.58 0 0 1-0.28 0.85 0.7 0.7 0 0 1-1.26 0 4.06 4.06 0 0 1-0.22-0.55l-0.07-0.19h-0.04a3.84 3.84 0 0 0-0.17 0.66 4.79 4.79 0 0 0 0 1.08c0.075 0.428 0.182 0.849 0.32 1.26 0.189 0.48 0.277 0.994 0.26 1.51a1.43 1.43 0 0 1-1 1.25 1.38 1.38 0 0 1-1.4-0.37 0.44 0.44 0 0 0-0.13-0.09 5.72 5.72 0 0 0 2.26 4.36l-0.3-0.07a6.38 6.38 0 0 1-4.37-4.1 11.21 11.21 0 0 1-0.42-1.57A11.39 11.39 0 0 1 2.11 15c0-0.5 0.1 -1 0.16-1.49h0.06l0.13 0.25 a2 2 0 0 0 1 1 1.45 1.45 0 0 0 1.64-0.38 2.06 2.06 0 0 0 0.54-1.16 8.28 8.28 0 0 0 0-1.34 3.84 3.84 0 0 0-0.43-1.38 12.94 12.94 0 0 1-0.61-1.34 3 3 0 0 1-0.16-1.53 2.07 2.07 0 0 1 0.72-1.23h0.06v0.18A1.48 1.48 0 0 0 6.21 8 1.94 1.94 0 0 0 7.4 8 2.41 2.41 0 0 0 9 6.65 2.65 2.65 0 0 0 9.23 5a4.23 4.23 0 0 0-0.6-1.31c-0.19-0.31-0.37-0.64-0.53-1a1.52 1.52 0 0 1-0.07-1 2.42 2.42 0 0 1 0.8-1.35 4.74 4.74 0 0 1 0.5-0.34c-0.06 0.28 -0.12 0.51 -0.17 0.75 a1.51 1.51 0 0 0 0.51 1.55c0.43 0.36 0.91 0.68 1.36 1a4 4 0 0 1 1.29 1.38c0.165 0.309 0.257 0.65 0.27 1a9.49 9.49 0 0 1-0.07 1.19 6.48 6.48 0 0 1-0.2 0.8 3.39 3.39 0 0 0-0.14 1.36 1 1 0 0 0 0.65 0.82 1.07 1.07 0 0 0 1.3-0.19 1.53 1.53 0 0 0 0.39-1.56 0.43 0.43 0 0 1 0-0.09s0-0.01 0.01 -0.09z" fill="#FFF"/>
  <path d="M14 27l0.54 0.18 1.15 0.35 1.29 0.38 1.3 0.4 c0.21 0.06 0.42 0.11 0.62 0.2 a1 1 0 0 1 0.51 1.09 2.81 2.81 0 0 1-0.31 0.82 1 1 0 0 1-1 0.32c-0.42-0.15-0.86-0.25-1.29-0.38l-1.3-0.4-1.31-0.38-1.29-0.4-1.29-0.38c-0.5-0.15-1-0.3-1.5-0.46a1 1 0 0 0-0.71 0c-0.3 0.11 -0.6 0.19 -0.91 0.28 l-1.11 0.33 -1.09 0.33 -1.12 0.34 -1.08 0.32 -1.13 0.34 -1.1 0.32 c-0.15 0-0.3 0.08 -0.44 0.13 A1 1 0 0 1 0.17 30a2.49 2.49 0 0 0-0.17-0.42 1 1 0 0 1 0.69-1.19c0.6-0.15 1.19-0.35 1.79-0.53l1.7-0.52L5.33 27a1.09 1.09 0 0 0 0.16-0.08l-0.69-0.21-1.12-0.34-1.08-0.31-1.12-0.34-0.87-0.26A1 1 0 0 1 0 24.34a6.38 6.38 0 0 1 0.25-0.72 1 1 0 0 1 1.16-0.41c0.36 0.13 0.73 0.22 1.09 0.33 l1.11 0.33 1.08 0.32 0.9 0.26 1.11 0.34 1.13 0.35 0.87 0.25 0.91 0.27 a0.23 0.23 0 0 0 0.11 0L11 25.3l0.9-0.27 1.1-0.32 1.11-0.33L15.2 24l1.08-0.32c0.38-0.11 0.75 -0.24 1.14-0.34a2.8 2.8 0 0 1 1.06-0.21 1 1 0 0 1 0.78 0.67 c0.05 0.17 0.08 0.35 0.14 0.51 a1 1 0 0 1-0.56 1.1c-0.47 0.16 -0.95 0.29 -1.42 0.43 l-1.29 0.4 -1.13 0.36 -1 0.32V27z" fill="#FFF"/>
</svg>
