<?xml version="1.0" ?>
<svg xmlns="http://www.w3.org/2000/svg" width="19" height="37" viewBox="0 0 19 37">
  <path d="M9.39 2.2h8.11c0.3 0 0.31 0 0.27 0.3 -0.11 0.86 -0.23 1.71-0.36 2.56-0.13 0.85 -0.26 1.55-0.41 2.32-0.22 1-0.46 1.91-0.73 2.85a27.87 27.87 0 0 1-1.39 3.87c-0.38 0.86 -0.81 1.69-1.22 2.54a0.27 0.27 0 0 1-0.28 0.17 H5.44a0.3 0.3 0 0 1-0.3-0.19 33.43 33.43 0 0 1-2-4.41A33.38 33.38 0 0 1 2 8.06c-0.27-1.31-0.52-2.63-0.76-3.95C1.11 3.54 1.06 3 1 2.38c0-0.18 0.07 -0.18 0.19 -0.18h8.2zm5.36 2h0.08c0.41 1.9 0.78 3.8 1.24 5.69a5.4 5.4 0 0 0 0.3-0.94 1.6 1.6 0 0 0 0.06-0.65c-0.17-0.87-0.37-1.74-0.56-2.61-0.19-0.87-0.4-1.88-0.62-2.81-0.12-0.51 0-0.45-0.53-0.46h-0.16c-0.16 0-0.22 0.07 -0.24 0.22 -0.02 0.15 -0.12 0.59 -0.19 0.88 l-0.51 2.38-0.51 2.36c0 0.19-0.09 0.38 -0.14 0.61 l-0.06-0.08c-0.15-0.73-0.31-1.46-0.46-2.19-0.28-1.3-0.54-2.6-0.82-3.9-0.05-0.27-0.06-0.27-0.35-0.28a2.29 2.29 0 0 0-0.37 0 0.28 0.28 0 0 0-0.19 0.14 c-0.1 0.4 -0.17 0.8 -0.25 1.19L10 6.13c-0.17 0.82 -0.34 1.64-0.52 2.46 0 0.06 0 0.11-0.06 0.22 a1.23 1.23 0 0 1-0.08-0.15L8.91 6.8 8.1 2.92c-0.1-0.53-0.1-0.53-0.66-0.53-0.28 0-0.29 0-0.34 0.29 -0.14 0.68 -0.28 1.37-0.43 2.05C6.44 5.84 6.21 7 6 8.05c0 0.25-0.11 0.5 -0.17 0.75 -0.07-0.35-0.15-0.7-0.23-1.05-0.17-0.81-0.33-1.62-0.5-2.42-0.17-0.8-0.35-1.68-0.54-2.52-0.11-0.5 0-0.41-0.5-0.42a0.7 0.7 0 0 0-0.25 0 0.32 0.32 0 0 0-0.18 0.16 4.31 4.31 0 0 0-0.11 0.49 c-0.17 0.8 -0.35 1.6-0.52 2.4-0.17 0.8 -0.43 1.66-0.6 2.48a2 2 0 0 0-0.07 0.73 c0.066 0.34 0.16 0.675 0.28 1 0.035 0.076 0.075 0.15 0.12 0.22 l1.21-5.76H4v0.09l0.57 2.65c0.22 1 0.46 2.06 0.68 3.1 0.12 0.58 0.11 0.58 0.72 0.56a0.21 0.21 0 0 0 0.23-0.21c0.19-0.9 0.39 -1.8 0.58 -2.7 0.19 -0.9 0.41 -1.89 0.61 -2.84 0-0.22 0.11 -0.44 0.16 -0.66 0.25 0.9 0.45 1.76 0.63 2.63L8.87 10c0.11 0.49 0.11 0.49 0.61 0.49 0.29 0 0.29 0 0.35-0.3 0.19 -0.91 0.39 -1.82 0.58 -2.73l0.69-3.2a1.39 1.39 0 0 1 0.06-0.13 0.29 0.29 0 0 1 0.09 0.16 c0 0.17 0.07 0.34 0.11 0.52 0.2 0.9 0.4 1.81 0.59 2.72 0.19 0.91 0.39 1.81 0.58 2.72 0 0.17 0.11 0.26 0.29 0.24a0.81 0.81 0 0 1 0.31 0 0.24 0.24 0 0 0 0.3-0.22l0.18-0.87c0.15-0.66 0.29 -1.33 0.43 -2 0.14-0.67 0.35 -1.6 0.52 -2.4 0.06 -0.25 0.13 -0.54 0.19 -0.83v0.03zm-5.37 8.6h5.5c0.13 0 0.23 0 0.28-0.15 0.16 -0.5 0.34 -1 0.49-1.51 0.11 -0.36 0.1 -0.36-0.29-0.36H3.14c-0.12 0-0.15 0.05 -0.11 0.16 0.18 0.55 0.38 1.09 0.55 1.64a0.3 0.3 0 0 0 0.34 0.23 l5.46-0.01zM9.35 34.06h-6.7c-0.28 0-0.28 0-0.25-0.28 0.12 -1.29 0.23 -2.58 0.37 -3.87 0.1 -0.95 0.23 -1.91 0.37 -2.86 0.14 -0.95 0.24 -1.61 0.42 -2.39 0.27 -1.1 0.57 -2.18 0.9 -3.25 0.18 -0.6 0.44 -1.16 0.66 -1.74a0.36 0.36 0 0 1 0.39-0.27h7.82a0.29 0.29 0 0 1 0.31 0.21 21.51 21.51 0 0 1 1.23 3.57c0.22 0.9 0.44 1.81 0.6 2.72 0.16 0.91 0.3 2 0.42 3 0.14 1.22 0.25 2.44 0.37 3.65 0 0.39 0.07 0.77 0.1 1.16 0.03 0.39 0 0.34-0.31 0.34 l-6.7 0.01 zm-1.82-0.23h0.09l1.71-8h0.07c0 0.17 0.09 0.35 0.12 0.52 0.17 0.79 0.33 1.58 0.5 2.37l0.6 2.78c0.16 0.74 0.31 1.48 0.47 2.22 0 0 0.06 0.09 0.09 0.13 a0.6 0.6 0 0 0 0.09-0.13c0.13-0.56 0.25 -1.12 0.37 -1.69 0.2 -0.92 0.39 -1.85 0.58 -2.78 0.19 -0.93 0.41 -2 0.62-2.94 0-0.16 0.08 -0.33 0.13 -0.54a0.8 0.8 0 0 1 0.08 0.14 c0.11 0.51 0.22 1 0.32 1.53 0.15 0.68 0.29 1.36 0.43 2 0.14 0.64 0.35 1.61 0.52 2.41l0.39 1.85s0 0.07 0.08 0.11c0.08 0.04 0.08-0.07 0.09 -0.11 0.08 -0.33 0.16 -0.66 0.23 -1 0.17-0.8 0.35 -1.61 0.52 -2.41a5.5 5.5 0 0 0 0.17-1 9 9 0 0 0-0.16-1.29 0.59 0.59 0 0 0-0.06-0.14h-0.05l-0.7 3.25h-0.06V31c-0.21-1-0.42-2-0.62-2.94l-0.66-3.19c0-0.18-0.1-0.28-0.31-0.25a1.37 1.37 0 0 1-0.35 0c-0.14 0-0.2 0-0.23 0.18 l-0.27 1.26-0.51 2.42c-0.17 0.83 -0.34 1.65-0.52 2.48a1.89 1.89 0 0 1-0.06 0.21 c0-0.07-0.07-0.09-0.08-0.12-0.08-0.39-0.16-0.78-0.25-1.17l-0.42-2c-0.2-0.91-0.39-1.82-0.59-2.72-0.16-0.67 0-0.53-0.7-0.55 0 0-0.2 0.09 -0.2 0.14 -0.09 0.36 -0.16 0.72 -0.24 1.07-0.17 0.78 -0.33 1.56-0.5 2.34l-0.6 2.78-0.06 0.17 a1.09 1.09 0 0 1 0-0.17c-0.06-0.3-0.12-0.59-0.19-0.89l-0.51-2.39c-0.2-0.94-0.39-1.87-0.58-2.81 0-0.18-0.11-0.26-0.3-0.23s-0.27 0-0.4 0a0.21 0.21 0 0 0-0.14 0.12 c-0.09 0.35 -0.16 0.7 -0.24 1.05-0.16 0.79 -0.33 1.59-0.5 2.38L4 30.94a1.09 1.09 0 0 1 0 0.17h-0.1l-0.68-3.26h-0.07c0 0.48-0.11 1-0.16 1.44-0.02 0.15 -0.02 0.3 0 0.45 0.14 0.7 0.28 1.39 0.43 2.09l0.39 1.88s0.06 0.08 0.09 0.11 0.09 0 0.1-0.09c0.01-0.09 0-0.26 0.08 -0.39l0.45-2.11c0.16-0.78 0.33 -1.56 0.49 -2.34 0.16 -0.78 0.35 -1.64 0.53 -2.45 0.05 -0.23 0.1 -0.46 0.16 -0.69 0.28 1.35 0.57 2.7 0.85 4 0.28 1.3 0.64 2.75 0.97 4.08zm1.86-9.44h5.28c0.26 0 0.27 0 0.21-0.25-0.11-0.48-0.23-1-0.34-1.45a0.21 0.21 0 0 0-0.24-0.19H4.47a0.23 0.23 0 0 0-0.26 0.19 c-0.11 0.47 -0.23 0.94 -0.34 1.41-0.06 0.27 0 0.29 0.25 0.29h5.27zM9.38 0h8.3c0.176-0.01 0.351 0.01 0.52 0.06a0.85 0.85 0 0 1 0.51 1 0.88 0.88 0 0 1-0.87 0.68 H1a0.94 0.94 0 0 1-1-0.58A0.86 0.86 0 0 1 0.7 0a3.82 3.82 0 0 1 0.59 0h8.09zM9.36 36.21H2.09a0.84 0.84 0 0 1-0.82-0.91 0.85 0.85 0 0 1 0.67-0.75c0.103-0.01 0.207 -0.01 0.31 0h14.23a0.85 0.85 0 0 1 0.94 0.59 0.82 0.82 0 0 1-0.69 1.09h-1.49l-5.88-0.02zM9.39 19h-4a0.85 0.85 0 0 1-0.89-0.74 0.88 0.88 0 0 1 0.6-0.94 0.71 0.71 0 0 1 0.29-0.05h7.91a0.89 0.89 0 0 1 0.89 0.87 0.85 0.85 0 0 1-0.88 0.86 H9.39z" fill="#FFF"/>
</svg>
