<?xml version="1.0" ?>
<svg xmlns="http://www.w3.org/2000/svg" width="44" height="26" viewBox="0 0 44 26">
  <path d="M29.17 18.47h14.16c0.33 0 0.33 0 0.33-0.33V1.5a2.45 2.45 0 0 0-0.1-0.66 1 1 0 0 0-1-0.74C40.06 0.07 37.54 0 35 0H21.77c-2 0-3.93 0.05 -5.9 0.08 a2.18 2.18 0 0 0-0.62 0.11 0.67 0.67 0 0 0-0.55 0.59 c0 0.42-0.07 0.83 -0.08 1.25v16.09c0 0.35 0 0.35 0.35 0.35h14.2zm-11.92 5.68v-0.33-2.84c0-0.2 0.06 -0.26 0.25 -0.26h3.3c0.22 0 0.3 0.07 0.29 0.3 v3.12h0.68V21.07c0-0.34 0-0.34 0.34 -0.34h3.57a0.32 0.32 0 0 0 0.32-0.19c0.19-0.31 0.4 -0.61 0.62 -0.9a2.9 2.9 0 0 1 0.38-0.34v-0.07H14.11c-0.23 0-0.31 0-0.31-0.3v-7.67-3.44c0-0.4-0.15-0.63-0.45-0.69a3.42 3.42 0 0 0-0.63-0.13h-5.9c-0.09 0-0.23 0.08 -0.24 0.15 -0.13 0.78 -0.24 1.57-0.35 2.36l-0.39 2.72c0 0.27-0.08 0.54 -0.13 0.83 H0.29c-0.19 0-0.28 0.06 -0.28 0.25 v0.16l0.09 8v0.21c0 0.07 0.09 0.23 0.26 0.21 0.17 -0.01 0.34 -0.01 0.51 0 0.18 0 0.24-0.06 0.29 -0.23a8.58 8.58 0 0 1 0.37-1.22 3.24 3.24 0 0 1 3-2 3.39 3.39 0 0 1 1.17 0.17 3.28 3.28 0 0 1 2.09 1.71c0.235 0.472 0.359 0.992 0.36 1.52H9.9c0.07-0.38 0.07 -0.38 0.45 -0.38h2.9c0.55 0 0.55 0 0.56-0.56 0-0.16 0-0.23 0.21 -0.22h2.26c0.18 0 0.23 0.06 0.23 0.23 v3c0 0.07 0.08 0.2 0.13 0.21 0.202 0.025 0.406 0.035 0.61 0.03zM4.62 19.42a3.12 3.12 0 0 0-1.72 0.47 3 3 0 0 0-1.18 3.54 3 3 0 0 0 3.7 1.89 2.75 2.75 0 0 0 2.21-2.54 2.92 2.92 0 0 0-3-3.36h-0.01zm27.6 3a2.87 2.87 0 0 0-2.95-3 3 3 0 0 0-0.09 6 2.88 2.88 0 0 0 3.04-2.99v-0.01zm7.55-0.16a2.92 2.92 0 0 0-3.44-2.83 2.86 2.86 0 0 0-2.63 3.2 3.04 3.04 0 1 0 6.07-0.37zm-0.88-3.06c0 0.05 0 0.09 0.06 0.12a3.62 3.62 0 0 1 1 1.27 0.29 0.29 0 0 0 0.22 0.13 h3c0.16 0 0.23-0.06 0.22 -0.22v-1c0-0.31-0.08-0.29-0.3-0.29h-4.2v-0.01zm-7.53 0l0.2 0.21 c0.243 0.225 0.452 0.484 0.62 0.77 a0.82 0.82 0 0 0 1 0.54c0.12 0 0.19 0 0.27-0.16 0.22 -0.36 0.48 -0.71 0.74 -1.06 0.093 -0.11 0.197 -0.21 0.31 -0.3h-3.14z" fill="#FFF"/>
  <path d="M29.17 18.47H15c-0.35 0-0.35 0-0.35-0.35V2.03c0-0.42 0.05 -0.83 0.08 -1.25a0.67 0.67 0 0 1 0.55-0.59c0.2-0.066 0.41 -0.104 0.62 -0.11 2 0 3.94-0.07 5.9-0.08H35c2.52 0 5 0.06 7.55 0.09 a1 1 0 0 1 1 0.74c0.063 0.214 0.097 0.436 0.1 0.66 v16.64c0 0.33 0 0.33-0.33 0.33 l-14.15 0.01 z" fill="#FFF"/>
  <path d="M17.25 24.15a4.07 4.07 0 0 1-0.61 0c-0.05 0-0.13-0.14-0.13-0.21v-2-1c0-0.17-0.05-0.24-0.23-0.23H14c-0.17 0-0.23 0.06 -0.21 0.22 0 0.56 0 0.56-0.56 0.56 h-2.9c-0.38 0-0.38 0-0.45 0.38 H8.11a3.43 3.43 0 0 0-0.36-1.52 3.28 3.28 0 0 0-2.09-1.71 3.39 3.39 0 0 0-1.17-0.17 3.24 3.24 0 0 0-2.95 2 8.58 8.58 0 0 0-0.37 1.22c0 0.17-0.11 0.25 -0.29 0.23 a4.34 4.34 0 0 0-0.51 0c-0.17 0-0.26 0-0.26-0.21v-0.21l-0.11-8v-0.16c0-0.05 0.09 -0.25 0.28 -0.25h5.43c0-0.29 0.1 -0.56 0.13 -0.83l0.39-2.72c0.11-0.79 0.22 -1.58 0.35 -2.36 0-0.07 0.15 -0.15 0.24 -0.15C7.76 7 8.7 7 9.64 7s2 0 3.08 0.07 c0.212 0.01 0.423 0.04 0.63 0.09 0.3 0.06 0.45 0.29 0.45 0.69 v11.11c0 0.25 0.08 0.3 0.31 0.3h12.87v0.07a2.9 2.9 0 0 0-0.36 0.34 c-0.22 0.29 -0.43 0.59 -0.62 0.9 a0.32 0.32 0 0 1-0.32 0.19 h-3.54c-0.34 0-0.34 0-0.34 0.34 V24.17h-0.7v-0.27-2.85c0-0.23-0.07-0.3-0.29-0.3h-3.3c-0.19 0-0.25 0.06 -0.25 0.26 v2.84l-0.01 0.3 zM10 13.08h2.4c0.15 0 0.23 0 0.23-0.21V8.62c0-0.62 0.06 -0.62-0.7-0.73L7.67 7.8c-0.2 0-0.27 0.07 -0.27 0.28 v4.75c0 0.19 0.06 0.25 0.25 0.25H10z" fill="#FFF"/>
  <path d="M4.62 19.42a2.92 2.92 0 0 1 3 3.36 2.75 2.75 0 0 1-2.21 2.54 3 3 0 0 1-3.7-1.89 3 3 0 0 1 1.19-3.54 3.12 3.12 0 0 1 1.72-0.47zm-2 3a1.91 1.91 0 0 0 2 2 2 2 0 1 0 0.07-4 1.92 1.92 0 0 0-2.09 2h0.02zM32.22 22.43a2.88 2.88 0 0 1-3 3 3 3 0 1 1 0.09-6 2.87 2.87 0 0 1 2.91 3zm-3-2a1.9 1.9 0 0 0-2 1.95 2 2 0 1 0 2-1.95zM39.77 22.27a3.04 3.04 0 0 1-6.07 0.37 2.86 2.86 0 0 1 2.63-3.2 2.92 2.92 0 0 1 3.44 2.83zm-3-1.82a1.9 1.9 0 0 0-2 1.94 2 2 0 1 0 4 0 1.91 1.91 0 0 0-2.02-1.94h0.02zM38.89 19.21H43c0.22 0 0.31 0.06 0.3 0.29 -0.01 0.23 0 0.69 0 1 0 0.16-0.06 0.22 -0.22 0.22 h-3a0.29 0.29 0 0 1-0.22-0.13 3.62 3.62 0 0 0-1-1.27s0.06-0.06 0.03 -0.11zM31.36 19.21h3.21a2.25 2.25 0 0 0-0.31 0.3 c-0.26 0.35 -0.52 0.7 -0.74 1.06-0.08 0.13 -0.15 0.17 -0.27 0.16 a0.82 0.82 0 0 1-1-0.54 3.38 3.38 0 0 0-0.62-0.77l-0.27-0.21z" fill="#FFF"/>
  <path d="M10 13.08H7.66c-0.19 0-0.26-0.06-0.25-0.25V8.08c0-0.21 0.07 -0.28 0.27 -0.28l4.26 0.09 c0.76 0.11 0.69 0.11 0.7 0.73 v4.25c0 0.18-0.08 0.21 -0.23 0.21 H10zM2.6 22.42a1.92 1.92 0 0 1 2.05-2 2 2 0 0 1-0.07 4 1.91 1.91 0 0 1-1.98-2zM29.2 20.45a1.91 1.91 0 0 1 2 2 2 2 0 1 1-4 0 1.9 1.9 0 0 1 2-2zM36.75 20.45a1.91 1.91 0 0 1 2 2 2 2 0 1 1-4 0 1.9 1.9 0 0 1 2-2zM38.53 14.71l-0.44-0.05-0.42-0.07-0.4-0.08H37l-0.39-0.08h-0.15a5.69 5.69 0 0 0-0.83-0.07h-0.45l-0.33 0.05 -0.28 0.06 h-0.22a2.47 2.47 0 0 1-0.29 0.06 l-0.34 0.07 c-0.15 0-0.29 0.05 -0.44 0.06 a4.73 4.73 0 0 1-0.53 0 1.4 1.4 0 0 1-0.28-0.06 1.14 1.14 0 0 1-0.55-0.4 1.21 1.21 0 0 1-0.23-0.47 1.35 1.35 0 0 1 0-0.53 1.94 1.94 0 0 1 0.16-0.48 3.13 3.13 0 0 1 0.46-0.7c0.2-0.224 0.421 -0.428 0.66 -0.61a5.88 5.88 0 0 0 0.94-1.05l0.5-0.7a3 3 0 0 1 0.59-0.59c0.14-0.096 0.29 -0.174 0.45 -0.23 0.2 -0.063 0.41 -0.087 0.62 -0.07 0.27 0.007 0.53 0.102 0.74 0.27a2 2 0 0 1 0.46 0.54 c0.14 0.23 0.27 0.47 0.4 0.7 0.125 0.207 0.266 0.404 0.42 0.59 0.19 0.23 0.37 0.46 0.57 0.68 0.126 0.134 0.26 0.261 0.4 0.38 a3 3 0 0 1 0.47 0.59 c0.081 0.147 0.148 0.3 0.2 0.46 0.04 0.205 0.04 0.415 0 0.62a1.58 1.58 0 0 1-0.26 0.68 1 1 0 0 1-0.47 0.35 2.09 2.09 0 0 1-0.47 0.08 zM37.56 8.38a1.12 1.12 0 0 1-0.91-0.38 1.76 1.76 0 0 1-0.31-0.57c0-0.11-0.05-0.23-0.08-0.35a2 2 0 0 1 0-0.64c0-0.14 0-0.29 0.08 -0.43a2.5 2.5 0 0 1 0.19-0.52 2.34 2.34 0 0 1 0.47-0.71c0.134-0.111 0.287 -0.2 0.45 -0.26a1.1 1.1 0 0 1 0.57 0c0.312 0.054 0.587 0.235 0.76 0.5 0.105 0.142 0.186 0.301 0.24 0.47 a2.2 2.2 0 0 1 0.12 0.76 2.73 2.73 0 0 1 0 0.5c-0.039 0.193 -0.1 0.38 -0.18 0.56 a2.05 2.05 0 0 1-0.7 0.89 1.51 1.51 0 0 1-0.45 0.2 l-0.25-0.02zM32.47 6.23l0.05-0.4a1.8 1.8 0 0 1 0.17-0.51 1.37 1.37 0 0 1 0.63-0.63c0.179-0.08 0.375 -0.11 0.57 -0.09 0.217 0.029 0.423 0.111 0.6 0.24a2 2 0 0 1 0.6 0.69 2 2 0 0 1 0.21 0.5 2.61 2.61 0 0 1 0 1.32A1.7 1.7 0 0 1 35 8c-0.152 0.2 -0.361 0.35 -0.6 0.43 a1.21 1.21 0 0 1-0.5 0 1.26 1.26 0 0 1-0.6-0.27 1.87 1.87 0 0 1-0.57-0.71 2.05 2.05 0 0 1-0.16-0.41 2.37 2.37 0 0 1-0.1-0.81zM41.29 9.06c0 0.15 0 0.3-0.06 0.44 -0.05 0.25 -0.14 0.49 -0.27 0.71 a1.87 1.87 0 0 1-0.6 0.65 A1 1 0 0 1 40 11a0.9 0.9 0 0 1-0.49 0 0.93 0.93 0 0 1-0.62-0.52 1.58 1.58 0 0 1-0.16-0.92v-0.21a2.14 2.14 0 0 1 0.13-0.48 2.17 2.17 0 0 1 0.31-0.53 1.72 1.72 0 0 1 0.64-0.53 1.05 1.05 0 0 1 0.58-0.1 0.88 0.88 0 0 1 0.6 0.37 c0.128 0.159 0.21 0.349 0.24 0.55 0.03 0.17 0.05 0.3 0.06 0.43 zM30.33 9.05c0-0.11 0-0.25 0.06 -0.39a1.09 1.09 0 0 1 0.36-0.66 0.82 0.82 0 0 1 0.35-0.2 1 1 0 0 1 0.45 0c0.185 0.043 0.36 0.124 0.51 0.24 a2 2 0 0 1 0.47 0.49 c0.116 0.17 0.207 0.355 0.27 0.55 a2.5 2.5 0 0 1 0.11 0.53 1.48 1.48 0 0 1 0 0.47 1.28 1.28 0 0 1-0.26 0.64 0.9 0.9 0 0 1-0.43 0.31 0.87 0.87 0 0 1-0.48 0 1.14 1.14 0 0 1-0.43-0.17 2 2 0 0 1-0.81-1.04 1.94 1.94 0 0 1-0.13-0.54 0.967 0.967 0 0 1-0.04-0.23z" fill="#0CAF61"/>
</svg>
