<?xml version="1.0" ?>
<svg xmlns="http://www.w3.org/2000/svg" width="16" height="31" viewBox="0 0 16 31">
  <path d="M12 13.81v14.25a5.24 5.24 0 0 1-0.21 1.53c-0.33 1-0.74 1.26-1.71 1.18-0.69-0.06-1.06-0.45-1.27-1.43a7.78 7.78 0 0 1-0.19-1.6v-5.92c0-0.46-0.11-0.74-0.59-0.74s-0.59 0.3 -0.58 0.75 v6.74a3.84 3.84 0 0 1-0.46 1.57 1.32 1.32 0 0 1-1.6 0.61 1.33 1.33 0 0 1-1.07-1.1A8.46 8.46 0 0 1 4 27.84V13.13a2.85 2.85 0 0 0-1 1.93c-0.21 0.75 -0.28 1.55-0.43 2.32a3 3 0 0 1-0.28 0.9 1.1 1.1 0 0 1-1.23 0.6 1.12 1.12 0 0 1-1-1 7.66 7.66 0 0 1 0.38-3.74 13.06 13.06 0 0 1 2.72-4.67c1.67-1.87 3.77-2.13 6-1.91 2.23 0.22 3.65 1.77 4.84 3.64a13.54 13.54 0 0 1 1.82 5.44 4.38 4.38 0 0 1 0 1.49 1.06 1.06 0 0 1-1.2 0.76 1.07 1.07 0 0 1-1.05-0.9c-0.25-0.9-0.41-1.84-0.67-2.74a12.84 12.84 0 0 0-0.68-1.52l-0.22 0.08 zM7.89 7.16a3.54 3.54 0 0 1-3.61-3.55 3.59 3.59 0 0 1 7.18 0 3.53 3.53 0 0 1-3.57 3.55z" fill="#FFF"/>
</svg>
