<?xml version="1.0" ?>
<svg xmlns="http://www.w3.org/2000/svg" width="44" height="32" viewBox="0 0 44 32">
  <path d="M27.52 30.1a0.92 0.92 0 0 1 0.55-0.71 2.7 2.7 0 0 1 1.17-0.39 1.52 1.52 0 0 1 1 0.24h0.13a0.36 0.36 0 0 1 0.37-0.24c0.246 0.002 0.489 0.046 0.72 0.13 h0.08c0.11 0.08 0.16 0.07 0.24 0l0.12-0.18c0.14-0.2 0.25 -0.18 0.43 -0.09l0.14 0.08 0.15 0.1 a1.11 1.11 0 0 1 0.07-0.16 0.59 0.59 0 0 1 0.44-0.31 1.11 1.11 0 0 1 0.65 0c0.06 0 0.1 0 0.1-0.06a0.19 0.19 0 0 0 0-0.07v-0.67c0-0.51 0.09 -1 0.12-1.55v-0.93a0.38 0.38 0 0 0-0.1-0.2c-0.31-0.35-0.61-0.71-0.93-1.05-0.32-0.34-0.89-0.9-1.34-1.35-0.13-0.13-0.29-0.23-0.42-0.36-0.13-0.13-0.24-0.06-0.36-0.06a2.06 2.06 0 0 1-0.26 0 7.48 7.48 0 0 1-0.82 0 6.84 6.84 0 0 1-0.79-0.12 3.58 3.58 0 0 1-0.91-0.29 3.74 3.74 0 0 1-1.2-0.86 3.32 3.32 0 0 1-0.64-1c-0.15-0.34-0.28-0.7-0.4-1.05l-0.35-1.1c0-0.15-0.1-0.29-0.15-0.44a0.39 0.39 0 0 0 0-0.09l0.16 0.1 c0.265 0.162 0.551 0.286 0.85 0.37 0.215 0.083 0.436 0.154 0.66 0.21 0.43 0.08 0.86 0.13 1.29 0.22 0.46 0.11 0.898 0.304 1.29 0.57 a3.66 3.66 0 0 1 1.18 1.38c0.17 0.33 0.33 0.67 0.47 1 0.14 0.33 0.15 0.52 0.23 0.77 a0.2 0.2 0 0 0 0.09 0.13 13.7 13.7 0 0 1 1.4 1l1 0.82 0.08 0.07a0.6 0.6 0 0 0 0-0.12c0-0.54 0-1.09-0.07-1.63-0.07-0.54-0.08-0.81-0.13-1.21-0.05-0.4-0.11-0.62-0.16-0.93a2 2 0 0 1 0-0.24c0-0.09 0-0.12-0.12-0.14a5 5 0 0 1-0.91-0.41 5.94 5.94 0 0 1-1.23-0.87 4.83 4.83 0 0 1-0.85-1.06 5.08 5.08 0 0 1-0.49-1.12 5.17 5.17 0 0 1-0.2-1.91 9.1 9.1 0 0 1 0.16-0.91c0-0.26 0.11 -0.51 0.18 -0.76 0.07 -0.25 0.16 -0.53 0.24 -0.79l0.18-0.63 0.15 -0.53c0.06-0.19 0.1 -0.38 0.15 -0.57l0.07-0.48c0.05 0.17 0.1 0.33 0.16 0.49 a4.41 4.41 0 0 0 1 1.57l1.23 1.2c0.321 0.3 0.606 0.635 0.85 1 0.201 0.308 0.353 0.645 0.45 1 0.082 0.283 0.149 0.57 0.2 0.86 a7.4 7.4 0 0 1 0 0.94c0.02 0.26 0.02 0.52 0 0.78a4.39 4.39 0 0 1-0.89 2.1 0.19 0.19 0 0 0 0 0.15c0.08 0.29 0.17 0.59 0.25 0.89 0.08 0.3 0.13 0.52 0.19 0.78 s0.07 0.36 0.11 0.54 c0.04 0.18 0.1 0.56 0.16 0.84 v0.3l0.09 0.76 0.12 1v0.59a0.15 0.15 0 0 0 0 0.11l0.23-0.39c0.25-0.39 0.52 -0.78 0.77 -1.18 0.14 -0.22 0.28 -0.45 0.41 -0.68a0.14 0.14 0 0 0 0-0.09 2.67 2.67 0 0 1-0.25-0.77 3.1 3.1 0 0 1-0.07-0.86 6.66 6.66 0 0 1 0.12-0.76 3.37 3.37 0 0 1 0.3-0.93 3.77 3.77 0 0 1 0.46-0.8A6.26 6.26 0 0 1 38.14 18a4.75 4.75 0 0 0 1-1 2.81 2.81 0 0 0 0.39-0.88v0.15c0 0.04 0.07 0.39 0.11 0.58 0.04 0.19 0.09 0.48 0.13 0.72 0.04 0.24 0.09 0.59 0.12 0.89 0.03 0.3 0 0.72 0 1.07a3.5 3.5 0 0 1-0.24 1.24 4 4 0 0 1-1.26 1.71 3.9 3.9 0 0 1-1.28 0.7 1.72 1.72 0 0 1-0.28 0.08 c-0.13 0-0.17 0.12 -0.21 0.22 -0.19 0.39 -0.37 0.78 -0.55 1.18l-0.45 1c-0.11 0.26 -0.22 0.51 -0.32 0.77 l-0.3 0.79 a0.17 0.17 0 0 0 0 0.07v1.13a0.2 0.2 0 0 1 0 0.05h0.33a0.75 0.75 0 0 1 0.46 0.13 c0.08 0.07 0.154 0.146 0.22 0.23 a1.14 1.14 0 0 1 1.56 0.51 0.69 0.69 0 0 1 0.61-0.21 3.31 3.31 0 0 1 1.2 0.3 c0.278 0.102 0.533 0.258 0.75 0.46 h0.07a1.26 1.26 0 0 1 0.89-0.11c0.292 0.057 0.57 0.17 0.82 0.33 a0.31 0.31 0 0 0 0.13 0h0.45a6.5 6.5 0 0 1 0.75 0.12 c0.18 0.05 0.36 0.14 0.54 0.21 0.16 0.12 0.15 0.24 0 0.32a3 3 0 0 1-0.51 0.16 c-0.22 0-0.45 0.09 -0.68 0.12 l-0.43 0.05 -1 0.07c-0.37 0-0.75 0.05 -1.12 0.06 -0.73 0-1.46 0.05 -2.19 0.05 h-7.67l-3.3-0.09-1.45-0.08c-0.39 0-0.77-0.07-1.15-0.13a3.22 3.22 0 0 1-0.61-0.16c-0.13-0.05-0.14-0.14 0-0.22a3.32 3.32 0 0 1 1.17-0.41c0.223-0.06 0.457 -0.06 0.68 0a0.59 0.59 0 0 1 0.17 0.1 1.5 1.5 0 0 1 0.88-0.45c0.341-0.06 0.692 0.04 0.95 0.27zM15.46 30.78l0.19-0.69c0.1-0.39 0.2 -0.78 0.29 -1.17 0.09 -0.39 0.16 -0.74 0.22 -1.11a6.38 6.38 0 0 0 0.1-0.73 14.81 14.81 0 0 0 0-3.26 15.79 15.79 0 0 0-0.3-1.67c-0.13-0.55-0.26-1.1-0.44-1.64a21.86 21.86 0 0 0-0.84-2.07c-0.4-0.86-0.85-1.7-1.29-2.53-0.44-0.83-1-1.77-1.43-2.67a17.22 17.22 0 0 1-1-2.38 8.41 8.41 0 0 1-0.43-2.32 9.54 9.54 0 0 1 0.11-1.4 5.78 5.78 0 0 1 0.58-1.82 10.58 10.58 0 0 1 1.27-2A21.28 21.28 0 0 1 14.86 0.89 c0.25-0.22 0.51 -0.43 0.77 -0.64a0.59 0.59 0 0 1 0.89 0 0.6 0.6 0 0 1-0.1 0.88 c-0.44 0.38 -0.88 0.75 -1.31 1.14A13.3 13.3 0 0 0 13 4.73 7.39 7.39 0 0 0 12 7a6.2 6.2 0 0 0-0.09 2.35 9.21 9.21 0 0 0 1 2.93c0.57 1.14 1.2 2.25 1.79 3.39 0.39 0.74 0.79 1.49 1.14 2.26 0.35 0.77 0.61 1.46 0.87 2.2 0.26 0.74 0.39 1.28 0.55 1.93 0.1 0.4 0.12 0.81 0.19 1.21a13 13 0 0 1 0.16 2.64c0 0.51-0.1 1-0.15 1.52 0 0.27-0.06 0.54 -0.1 0.8 -0.04 0.26 -0.14 0.69 -0.22 1-0.08 0.31 -0.17 0.71 -0.26 1.06-0.09 0.35 -0.16 0.5 -0.24 0.75 a0.62 0.62 0 0 1-0.65 0.37 0.64 0.64 0 0 1-0.53-0.63z" fill="#FFF"/>
  <path d="M9.44 20.91l0.84 1.63c0.22 0.45 0.45 0.89 0.68 1.33a0.24 0.24 0 0 0 0.13 0.11 0.74 0.74 0 0 0 0.25 0.05 l1.23 0.1 1.66 0.19 -1 1c-0.47 0.47 -0.95 0.94 -1.42 1.42a0.23 0.23 0 0 0-0.07 0.2 c0.09 0.43 0.19 0.86 0.29 1.29l0.18 0.91 c0 0.19 0.09 0.38 0.14 0.57 0.05 0.19 0 0.16 0 0.3l-0.5-0.25-2.43-1.32a0.25 0.25 0 0 0-0.19 0L7 29.72l-0.47 0.28 a1.75 1.75 0 0 1 0-0.23c0.07-0.42 0.15 -0.85 0.22 -1.28 0-0.16 0-0.33 0.08 -0.5 0.06 -0.44 0.14 -0.87 0.19 -1.31a0.33 0.33 0 0 0-0.1-0.25l-2.08-1.86a1.37 1.37 0 0 0-0.2-0.13v-0.06l0.92-0.17 1.5-0.21 0.82 -0.12a0.33 0.33 0 0 0 0.3-0.22c0.31-0.72 0.63 -1.43 1-2.15 0.09 -0.19 0.17 -0.4 0.26 -0.59v-0.01zM8.89 4.76l-2 0.89c-0.32 0.15 -0.65 0.29 -1 0.45a0.59 0.59 0 0 0-0.23 0.24 c-0.34 0.83 -0.67 1.67-1 2.51l-0.14 0.27 c-0.11-0.24-0.22-0.45-0.31-0.66-0.34-0.76-0.69-1.52-1-2.28a0.59 0.59 0 0 0-0.4-0.29l-2.47-1-0.16-0.1 1.17-0.54C2 4 2.62 3.7 3.23 3.41a0.42 0.42 0 0 0 0.16-0.23l0.93-2.3c0-0.14 0.12 -0.28 0.2 -0.46l0.35 0.76 c0.34 0.74 0.68 1.47 1 2.21 0.08 0.18 0.24 0.21 0.38 0.27l2 0.8 0.51 0.19 0.13 0.11zM2 30.78c0-0.09 0-0.25 0.1 -0.41a5.62 5.62 0 0 0 0.21-2.23 4.9 4.9 0 0 0-0.43-1.68c-0.35-0.71-0.73-1.4-1.07-2.11a11.83 11.83 0 0 1-0.67-1.5 3 3 0 0 1 0.36-2.66 8.22 8.22 0 0 1 1.74-1.84 0.61 0.61 0 0 1 0.77 0 0.54 0.54 0 0 1 0.06 0.81 7.13 7.13 0 0 1-0.58 0.53 A4.32 4.32 0 0 0 1.56 21a2.27 2.27 0 0 0-0.14 1.62c0.248 0.696 0.562 1.365 0.94 2 0.28 0.57 0.56 1.14 0.8 1.72 0.39 0.984 0.52 2.051 0.38 3.1a10.88 10.88 0 0 1-0.38 1.67 0.57 0.57 0 0 1-0.64 0.37 0.62 0.62 0 0 1-0.52-0.7zM20.23 24.46l-0.42-0.93a0.41 0.41 0 0 0-0.17-0.15l-0.87-0.38a6 6 0 0 1 0.74-0.35 0.73 0.73 0 0 0 0.51-0.54c0.07-0.204 0.15 -0.404 0.24 -0.6l0.26 0.51 c0.068 0.137 0.128 0.277 0.18 0.42 0.06 0.16 0.21 0.2 0.34 0.26 l0.74 0.3 c-0.34 0.15 -0.65 0.28 -0.94 0.44 a0.49 0.49 0 0 0-0.22 0.23 c-0.13 0.26 -0.23 0.52 -0.34 0.78 l-0.05 0.01 zM7.66 17.24c-0.07-0.15-0.15-0.31-0.23-0.46a0.38 0.38 0 0 1 0-0.1c-0.1-0.47-0.47-0.62-0.86-0.74l-0.35-0.13 0.34 -0.19 0.6 -0.26c0.2-0.09 0.23 -0.28 0.29 -0.45 0.06 -0.17 0.13 -0.31 0.19 -0.47 0.06 -0.16 0.06 -0.06 0.09 -0.1 0.16 0.32 0.3 0.63 0.45 0.93a0.35 0.35 0 0 0 0.17 0.17 l0.65 0.26 0.16 0.11 -0.81 0.36 a0.58 0.58 0 0 0-0.37 0.39 c-0.07 0.22 -0.17 0.44 -0.26 0.66 l-0.06 0.02 zM23.44 6.3c-0.14-0.3-0.27-0.54-0.36-0.79a0.69 0.69 0 0 0-0.51-0.51c-0.2-0.07-0.39-0.16-0.64-0.26 0.31 -0.14 0.56 -0.27 0.82 -0.36a0.66 0.66 0 0 0 0.41-0.38c0.08-0.22 0.17 -0.44 0.28 -0.7 0.11 0.25 0.21 0.45 0.29 0.65 0.08 0.2 0.23 0.53 0.57 0.61 0.214 0.064 0.421 0.148 0.62 0.25-0.18 0.1 -0.33 0.18 -0.49 0.25 a4.69 4.69 0 0 0-0.46 0.21 0.46 0.46 0 0 0-0.18 0.21 c-0.12 0.23 -0.22 0.52 -0.35 0.82 zM0.21 11.46l0.54-0.26 0.25 -0.11c0.36-0.1 0.38 -0.45 0.51 -0.72 0.06 -0.12 0.11 -0.25 0.18 -0.41 0.17 0.37 0.31 0.69 0.47 1a0.36 0.36 0 0 0 0.2 0.16 c0.25 0.12 0.52 0.23 0.82 0.35 a4.82 4.82 0 0 1-0.78 0.36 c-0.32 0.08 -0.39 0.34 -0.49 0.58 a3.82 3.82 0 0 1-0.24 0.51 c-0.08-0.15-0.16-0.3-0.23-0.45a3.43 3.43 0 0 0-0.17-0.47 0.51 0.51 0 0 0-0.21-0.2l-0.85-0.34zM13.65 21.44a0.61 0.61 0 1 1-0.59-0.61 0.59 0.59 0 0 1 0.59 0.61 zM18.42 17.23a0.62 0.62 0 0 1 0.63 0.6 0.66 0.66 0 0 1-0.62 0.61 0.64 0.64 0 0 1-0.62-0.59 0.61 0.61 0 0 1 0.61-0.62zM6.67 8.59A0.57 0.57 0 0 1 7.28 8a0.61 0.61 0 1 1 0 1.21 0.58 0.58 0 0 1-0.61-0.62zM28.74 3.2a0.59 0.59 0 0 1-0.59 0.61 0.61 0.61 0 0 1-0.62-0.61 0.59 0.59 0 0 1 0.61-0.6 0.56 0.56 0 0 1 0.6 0.6 zM2.34 14.54a0.6 0.6 0 0 1 0.62 0.61 0.64 0.64 0 0 1-0.6 0.61 0.63 0.63 0 0 1-0.62-0.61 0.59 0.59 0 0 1 0.6-0.61zM42 12.34l-0.56-0.28c-0.75-0.39-1.49-0.78-2.25-1.16a0.31 0.31 0 0 0-0.21 0l-2.41 1.4-0.13 0.06 c0-0.19 0-0.35 0.07 -0.5 0.07 -0.15 0.07 -0.37 0.1 -0.55l0.15-1c0.06-0.32 0.11 -0.63 0.17 -1a0.3 0.3 0 0 0-0.1-0.36l-1.52-1.3-0.55-0.5v-0.07l0.4-0.08 1.07-0.15 1-0.17a5.77 5.77 0 0 1 0.58-0.08 0.23 0.23 0 0 0 0.19-0.14c0.2-0.47 0.41 -0.93 0.61 -1.4 0.2 -0.47 0.35 -0.78 0.52 -1.18 0 0 0-0.06 0.06 0a0.12 0.12 0 0 1 0.06 0.06 l0.62 1.21c0.25 0.49 0.49 1 0.73 1.48 0.05 0.098 0.15 0.16 0.26 0.16l1.64 0.17 1 0.08h0.24a0.61 0.61 0 0 1-0.11 0.14 l-2.11 2.05a0.26 0.26 0 0 0-0.09 0.25 l0.15 0.7 c0.08 0.37 0.15 0.74 0.24 1.11 0.09 0.37 0.15 0.69 0.23 1l-0.05 0.05 zM30.19 3.4a1.4 1.4 0 0 1 0.17-0.09l1.87-0.85c0.096-0.04 0.19 -0.087 0.28 -0.14a0.24 0.24 0 0 0 0.1-0.1c0.2-0.48 0.39 -1 0.58-1.45 0.09 -0.22 0.18 -0.45 0.28 -0.67a0.28 0.28 0 0 1 0.06-0.1c0.15 0.33 0.28 0.63 0.42 0.92 0.14 0.29 0.33 0.72 0.49 1.07a0.61 0.61 0 0 1 0.05 0.12 c0.06 0.27 0.27 0.37 0.5 0.46 0.61 0.23 1.21 0.48 1.81 0.72 a0.74 0.74 0 0 1 0.12 0.09 l-1 0.46-1.31 0.59 a0.22 0.22 0 0 0-0.11 0.12 c-0.16 0.37 -0.32 0.75 -0.47 1.13l-0.39 1-0.06 0.06 -0.06-0.06c-0.34-0.73-0.68-1.46-1-2.2-0.07-0.15-0.2-0.17-0.32-0.21-0.66-0.28-1.32-0.54-2-0.81l-0.01-0.06zM21.06 15.09c-0.23-0.49-0.43-0.94-0.63-1.39-0.2-0.45-0.41-0.9-0.62-1.34a0.47 0.47 0 0 0-0.19-0.18l-2.43-1a0.79 0.79 0 0 1-0.16-0.1l1.89-0.85c0.29-0.14 0.6 -0.26 0.89 -0.42A0.68 0.68 0 0 0 20 9.5c0.31-0.75 0.61 -1.52 0.92 -2.28a0.87 0.87 0 0 0 0.08-0.1l0.08 0.09 c0.37 0.81 0.76 1.62 1.11 2.44a0.68 0.68 0 0 0 0.43 0.4 c0.53 0.2 1.05 0.42 1.57 0.63 l0.71 0.29 0.1 0.03 a0.31 0.31 0 0 1-0.07 0.09 L23 12c-0.21 0.09 -0.42 0.17 -0.62 0.28 a0.41 0.41 0 0 0-0.19 0.22 c-0.34 0.8 -0.66 1.61-1 2.41-0.05 0.09 -0.09 0.09 -0.13 0.18 z" fill="#FFF"/>
</svg>
